<?xml version="1.0" encoding="UTF-8" standalone="no"?><!-- Generator: Gravit.io --><svg xmlns="http://www.w3.org/2000/svg" xmlns:xlink="http://www.w3.org/1999/xlink" style="isolation:isolate" viewBox="0 0 1 1" width="1pt" height="1pt"><defs><clipPath id="_clipPath_twKAU9k8luCiCFa0ttFq2SHs79DUOnn3"><rect width="1" height="1"/></clipPath></defs><g clip-path="url(#_clipPath_twKAU9k8luCiCFa0ttFq2SHs79DUOnn3)"><g><path d=" M 0 0.184 C 0 0.285 0.001 0.363 0.002 0.358 C 0.005 0.335 0.011 0.346 0.01 0.373 C 0.009 0.385 0.017 0.388 0.022 0.378 C 0.024 0.375 0.027 0.372 0.027 0.372 C 0.028 0.372 0.031 0.368 0.033 0.363 C 0.039 0.352 0.049 0.349 0.049 0.358 L 0.049 0.365 L 0.05 0.358 C 0.051 0.355 0.053 0.352 0.054 0.352 C 0.055 0.352 0.058 0.347 0.061 0.341 C 0.064 0.334 0.066 0.33 0.069 0.33 C 0.072 0.33 0.073 0.336 0.071 0.339 C 0.068 0.342 0.07 0.346 0.074 0.346 C 0.076 0.346 0.078 0.348 0.079 0.351 C 0.08 0.356 0.083 0.356 0.083 0.351 C 0.083 0.349 0.084 0.346 0.086 0.345 C 0.088 0.343 0.088 0.343 0.086 0.34 C 0.083 0.336 0.083 0.321 0.085 0.318 C 0.086 0.317 0.088 0.318 0.09 0.32 C 0.091 0.323 0.093 0.324 0.094 0.323 C 0.094 0.322 0.096 0.323 0.097 0.325 C 0.099 0.328 0.099 0.327 0.097 0.322 C 0.096 0.317 0.096 0.316 0.098 0.316 C 0.102 0.316 0.104 0.308 0.105 0.29 C 0.105 0.289 0.108 0.288 0.112 0.288 C 0.12 0.289 0.123 0.285 0.121 0.277 C 0.12 0.274 0.121 0.274 0.122 0.275 C 0.123 0.276 0.124 0.275 0.125 0.274 C 0.125 0.272 0.127 0.274 0.13 0.279 C 0.135 0.288 0.14 0.291 0.139 0.284 C 0.138 0.282 0.139 0.277 0.14 0.273 C 0.142 0.269 0.143 0.259 0.143 0.25 C 0.144 0.24 0.145 0.232 0.147 0.228 C 0.148 0.224 0.149 0.222 0.148 0.221 C 0.147 0.221 0.146 0.218 0.146 0.215 C 0.146 0.212 0.145 0.209 0.144 0.209 C 0.143 0.209 0.143 0.206 0.143 0.201 C 0.144 0.188 0.152 0.183 0.157 0.192 C 0.158 0.196 0.16 0.198 0.161 0.198 C 0.164 0.198 0.163 0.195 0.161 0.192 C 0.157 0.187 0.156 0.168 0.159 0.168 C 0.16 0.168 0.161 0.166 0.161 0.163 C 0.161 0.153 0.173 0.146 0.177 0.154 C 0.178 0.156 0.179 0.165 0.179 0.173 C 0.179 0.183 0.18 0.188 0.181 0.188 C 0.183 0.188 0.185 0.188 0.187 0.188 C 0.19 0.187 0.191 0.18 0.187 0.178 C 0.186 0.177 0.186 0.173 0.189 0.161 C 0.195 0.14 0.201 0.14 0.201 0.161 C 0.201 0.164 0.201 0.168 0.202 0.168 C 0.203 0.169 0.204 0.173 0.204 0.179 C 0.204 0.184 0.205 0.19 0.205 0.191 C 0.206 0.193 0.206 0.2 0.205 0.207 C 0.204 0.218 0.204 0.219 0.206 0.214 C 0.207 0.211 0.208 0.206 0.208 0.203 C 0.208 0.201 0.209 0.198 0.21 0.198 C 0.211 0.198 0.213 0.196 0.214 0.193 C 0.216 0.19 0.217 0.189 0.217 0.192 C 0.219 0.201 0.223 0.18 0.223 0.16 C 0.223 0.149 0.223 0.139 0.224 0.138 C 0.225 0.137 0.225 0.132 0.225 0.126 C 0.221 0.095 0.225 0.076 0.23 0.099 C 0.235 0.125 0.236 0.129 0.238 0.132 C 0.239 0.134 0.24 0.137 0.24 0.139 C 0.24 0.141 0.241 0.142 0.242 0.141 C 0.244 0.14 0.246 0.141 0.247 0.144 C 0.249 0.149 0.249 0.148 0.249 0.136 C 0.249 0.125 0.25 0.122 0.252 0.121 C 0.255 0.12 0.261 0.104 0.262 0.091 C 0.263 0.086 0.264 0.084 0.267 0.084 C 0.271 0.084 0.273 0.093 0.27 0.096 C 0.266 0.1 0.268 0.103 0.272 0.1 C 0.277 0.095 0.277 0.092 0.277 0.079 C 0.277 0.062 0.282 0.056 0.286 0.069 C 0.288 0.077 0.288 0.077 0.288 0.061 C 0.288 0.052 0.289 0.045 0.29 0.045 C 0.291 0.045 0.292 0.035 0.292 0.022 L 0.292 0 L 0.146 0 L 0 0 L 0 0.184 Z  M 0.669 0.006 C 0.671 0.01 0.675 0.012 0.678 0.012 C 0.683 0.012 0.683 0.027 0.677 0.03 C 0.676 0.031 0.676 0.034 0.676 0.038 C 0.676 0.043 0.676 0.045 0.678 0.044 C 0.681 0.041 0.699 0.054 0.7 0.059 C 0.701 0.063 0.703 0.064 0.707 0.064 C 0.717 0.064 0.719 0.067 0.717 0.078 C 0.715 0.088 0.715 0.089 0.721 0.089 C 0.723 0.089 0.727 0.092 0.729 0.095 L 0.732 0.1 L 0.729 0.108 C 0.727 0.113 0.726 0.118 0.726 0.12 C 0.726 0.121 0.725 0.124 0.723 0.126 C 0.722 0.128 0.721 0.132 0.721 0.135 C 0.721 0.137 0.722 0.141 0.723 0.141 C 0.725 0.142 0.726 0.146 0.726 0.15 C 0.726 0.163 0.73 0.167 0.738 0.16 C 0.741 0.157 0.744 0.157 0.746 0.159 C 0.747 0.16 0.75 0.161 0.751 0.159 C 0.754 0.157 0.763 0.161 0.763 0.165 C 0.763 0.17 0.76 0.18 0.756 0.187 C 0.754 0.191 0.751 0.199 0.75 0.205 C 0.748 0.21 0.747 0.215 0.746 0.215 C 0.745 0.215 0.745 0.217 0.746 0.219 C 0.75 0.227 0.76 0.222 0.763 0.211 C 0.765 0.205 0.765 0.203 0.762 0.2 C 0.757 0.193 0.765 0.187 0.771 0.193 C 0.773 0.195 0.773 0.195 0.77 0.195 C 0.768 0.195 0.766 0.197 0.766 0.198 C 0.766 0.2 0.778 0.2 0.783 0.197 C 0.788 0.194 0.788 0.197 0.784 0.207 C 0.778 0.219 0.781 0.226 0.789 0.219 C 0.799 0.21 0.801 0.218 0.793 0.235 C 0.79 0.241 0.788 0.25 0.788 0.254 C 0.788 0.259 0.786 0.266 0.784 0.269 C 0.779 0.279 0.781 0.282 0.79 0.281 C 0.8 0.281 0.802 0.287 0.795 0.293 C 0.789 0.297 0.789 0.301 0.793 0.304 C 0.794 0.305 0.796 0.303 0.798 0.3 C 0.8 0.294 0.809 0.289 0.809 0.294 C 0.809 0.296 0.811 0.294 0.813 0.289 C 0.82 0.276 0.833 0.277 0.833 0.291 C 0.833 0.299 0.836 0.302 0.838 0.296 C 0.838 0.295 0.84 0.293 0.841 0.293 C 0.843 0.293 0.846 0.289 0.85 0.284 C 0.853 0.278 0.857 0.274 0.859 0.274 C 0.86 0.274 0.863 0.273 0.864 0.272 C 0.87 0.268 0.873 0.31 0.868 0.325 C 0.866 0.333 0.865 0.344 0.867 0.342 C 0.868 0.341 0.868 0.338 0.868 0.334 C 0.868 0.33 0.869 0.329 0.87 0.332 C 0.871 0.335 0.876 0.335 0.879 0.331 C 0.883 0.327 0.889 0.328 0.893 0.331 C 0.895 0.333 0.9 0.334 0.903 0.334 C 0.909 0.333 0.912 0.34 0.91 0.351 C 0.909 0.355 0.916 0.363 0.921 0.363 C 0.924 0.363 0.931 0.379 0.931 0.387 C 0.931 0.389 0.932 0.391 0.934 0.392 C 0.936 0.394 0.936 0.395 0.934 0.398 C 0.931 0.404 0.935 0.41 0.942 0.412 C 0.946 0.413 0.948 0.415 0.948 0.417 C 0.948 0.418 0.949 0.419 0.95 0.418 C 0.952 0.415 0.952 0.421 0.949 0.43 C 0.947 0.438 0.947 0.439 0.949 0.439 C 0.951 0.439 0.953 0.44 0.954 0.443 C 0.955 0.447 0.966 0.443 0.971 0.435 C 0.974 0.431 0.983 0.448 0.983 0.456 C 0.982 0.467 0.983 0.468 0.988 0.467 C 0.992 0.466 0.994 0.467 0.994 0.47 C 0.994 0.472 0.995 0.477 0.997 0.481 C 1 0.487 1 0.486 1 0.244 L 1 0 L 0.832 0 L 0.664 0 L 0.669 0.006 Z  M 0.441 0.11 C 0.446 0.114 0.451 0.125 0.448 0.127 C 0.448 0.128 0.445 0.126 0.442 0.123 C 0.437 0.118 0.436 0.118 0.434 0.121 C 0.433 0.124 0.433 0.126 0.434 0.126 C 0.435 0.126 0.436 0.129 0.436 0.133 C 0.436 0.14 0.435 0.141 0.421 0.14 C 0.417 0.14 0.409 0.142 0.403 0.145 C 0.396 0.148 0.39 0.15 0.389 0.149 C 0.386 0.147 0.372 0.166 0.369 0.177 C 0.365 0.19 0.357 0.196 0.353 0.188 C 0.351 0.185 0.351 0.184 0.354 0.182 C 0.365 0.175 0.371 0.134 0.361 0.139 C 0.358 0.14 0.356 0.141 0.355 0.143 C 0.354 0.144 0.352 0.145 0.351 0.145 C 0.349 0.145 0.348 0.147 0.348 0.149 C 0.348 0.152 0.347 0.154 0.346 0.154 C 0.346 0.154 0.342 0.159 0.339 0.165 C 0.332 0.177 0.332 0.185 0.339 0.182 C 0.347 0.18 0.344 0.198 0.337 0.202 C 0.335 0.203 0.334 0.206 0.334 0.21 C 0.334 0.216 0.333 0.217 0.328 0.217 C 0.322 0.216 0.316 0.212 0.321 0.212 C 0.322 0.212 0.322 0.209 0.322 0.204 C 0.321 0.199 0.32 0.196 0.319 0.196 C 0.315 0.196 0.317 0.189 0.321 0.188 C 0.328 0.186 0.328 0.18 0.322 0.177 C 0.315 0.174 0.305 0.184 0.306 0.192 C 0.308 0.198 0.306 0.204 0.303 0.202 C 0.301 0.201 0.301 0.202 0.301 0.204 C 0.302 0.206 0.303 0.209 0.305 0.209 C 0.315 0.213 0.312 0.222 0.301 0.221 C 0.295 0.221 0.291 0.223 0.284 0.229 C 0.279 0.234 0.273 0.237 0.271 0.237 C 0.269 0.237 0.268 0.239 0.267 0.242 C 0.267 0.244 0.265 0.246 0.264 0.246 C 0.263 0.246 0.259 0.251 0.255 0.258 C 0.247 0.272 0.245 0.273 0.24 0.266 C 0.238 0.264 0.236 0.262 0.236 0.263 C 0.231 0.28 0.224 0.29 0.209 0.302 C 0.207 0.303 0.205 0.306 0.205 0.307 C 0.205 0.309 0.205 0.31 0.204 0.31 C 0.201 0.31 0.179 0.33 0.179 0.333 C 0.179 0.334 0.176 0.34 0.173 0.346 C 0.171 0.351 0.168 0.359 0.167 0.362 C 0.166 0.366 0.164 0.373 0.162 0.379 C 0.151 0.409 0.16 0.467 0.181 0.5 C 0.184 0.505 0.191 0.516 0.195 0.523 C 0.199 0.53 0.203 0.536 0.204 0.536 C 0.205 0.536 0.206 0.538 0.208 0.541 C 0.209 0.543 0.211 0.546 0.213 0.546 C 0.214 0.546 0.216 0.55 0.218 0.554 C 0.219 0.559 0.221 0.561 0.223 0.561 C 0.233 0.561 0.235 0.574 0.227 0.581 C 0.217 0.59 0.202 0.595 0.202 0.589 C 0.202 0.588 0.201 0.587 0.201 0.587 C 0.2 0.587 0.199 0.588 0.2 0.589 C 0.2 0.59 0.199 0.592 0.198 0.593 C 0.194 0.596 0.193 0.595 0.196 0.592 C 0.198 0.59 0.198 0.588 0.195 0.584 C 0.191 0.578 0.184 0.583 0.186 0.59 C 0.186 0.591 0.186 0.593 0.185 0.594 C 0.184 0.595 0.182 0.601 0.18 0.608 C 0.177 0.622 0.174 0.627 0.172 0.622 C 0.171 0.62 0.17 0.62 0.169 0.623 C 0.168 0.625 0.165 0.629 0.163 0.631 C 0.161 0.634 0.158 0.639 0.155 0.643 C 0.15 0.652 0.147 0.653 0.148 0.645 C 0.149 0.64 0.148 0.64 0.144 0.64 C 0.141 0.64 0.14 0.639 0.14 0.637 C 0.141 0.635 0.141 0.634 0.14 0.634 C 0.138 0.634 0.134 0.642 0.133 0.649 C 0.132 0.653 0.131 0.654 0.13 0.652 C 0.129 0.65 0.129 0.647 0.13 0.643 C 0.131 0.639 0.131 0.637 0.13 0.637 C 0.129 0.637 0.129 0.635 0.129 0.633 C 0.129 0.63 0.128 0.628 0.127 0.628 C 0.126 0.628 0.125 0.626 0.125 0.624 C 0.125 0.62 0.125 0.62 0.122 0.624 C 0.12 0.628 0.119 0.632 0.12 0.639 C 0.122 0.663 0.116 0.674 0.111 0.657 C 0.107 0.64 0.096 0.629 0.091 0.634 C 0.09 0.635 0.087 0.635 0.084 0.633 C 0.081 0.631 0.079 0.631 0.078 0.634 C 0.077 0.638 0.077 0.638 0.075 0.634 C 0.074 0.631 0.074 0.629 0.076 0.628 C 0.077 0.627 0.077 0.623 0.076 0.618 L 0.075 0.61 L 0.074 0.619 C 0.074 0.626 0.073 0.628 0.071 0.627 C 0.069 0.626 0.069 0.626 0.07 0.628 C 0.072 0.63 0.071 0.632 0.068 0.64 C 0.064 0.647 0.063 0.648 0.063 0.644 C 0.063 0.641 0.062 0.64 0.06 0.641 C 0.059 0.641 0.057 0.64 0.056 0.638 C 0.055 0.635 0.055 0.634 0.056 0.635 C 0.057 0.636 0.058 0.635 0.058 0.633 C 0.057 0.625 0.058 0.62 0.06 0.62 C 0.061 0.62 0.063 0.618 0.065 0.615 C 0.067 0.611 0.067 0.611 0.067 0.616 C 0.067 0.621 0.068 0.621 0.07 0.616 C 0.073 0.612 0.073 0.611 0.071 0.609 C 0.069 0.607 0.069 0.606 0.07 0.606 C 0.072 0.606 0.071 0.596 0.069 0.591 C 0.068 0.589 0.068 0.58 0.068 0.569 C 0.069 0.548 0.067 0.545 0.064 0.562 C 0.063 0.568 0.062 0.572 0.061 0.57 C 0.061 0.568 0.059 0.57 0.058 0.576 C 0.056 0.583 0.055 0.584 0.055 0.58 C 0.055 0.574 0.055 0.574 0.053 0.58 C 0.051 0.583 0.051 0.587 0.052 0.592 C 0.053 0.595 0.053 0.603 0.053 0.609 C 0.053 0.614 0.054 0.62 0.055 0.622 C 0.056 0.624 0.056 0.627 0.053 0.634 C 0.05 0.643 0.049 0.648 0.052 0.647 C 0.053 0.647 0.054 0.648 0.054 0.651 C 0.055 0.653 0.055 0.654 0.053 0.653 C 0.051 0.652 0.049 0.656 0.047 0.668 C 0.044 0.678 0.042 0.684 0.041 0.683 C 0.039 0.681 0.039 0.661 0.041 0.658 C 0.047 0.645 0.042 0.638 0.034 0.648 C 0.028 0.656 0.026 0.654 0.021 0.633 C 0.015 0.613 0.015 0.612 0.008 0.619 C 0.004 0.623 0.003 0.622 0.002 0.618 C 0.001 0.615 0 0.674 0 0.807 L 0 1 L 0.135 1 C 0.209 1 0.269 0.999 0.269 0.998 C 0.269 0.997 0.269 0.994 0.27 0.992 C 0.271 0.987 0.266 0.967 0.262 0.965 C 0.259 0.962 0.26 0.958 0.265 0.948 L 0.27 0.938 L 0.266 0.933 C 0.264 0.93 0.261 0.926 0.258 0.924 C 0.253 0.92 0.253 0.919 0.259 0.908 C 0.264 0.898 0.264 0.899 0.253 0.878 C 0.249 0.871 0.245 0.866 0.243 0.866 C 0.238 0.866 0.237 0.859 0.238 0.837 C 0.238 0.819 0.238 0.819 0.234 0.814 C 0.231 0.812 0.229 0.811 0.229 0.812 C 0.229 0.813 0.228 0.812 0.227 0.809 C 0.226 0.807 0.225 0.804 0.223 0.804 C 0.222 0.804 0.221 0.804 0.221 0.802 C 0.221 0.801 0.219 0.798 0.217 0.795 C 0.213 0.79 0.213 0.79 0.214 0.794 C 0.214 0.797 0.214 0.799 0.213 0.799 C 0.213 0.799 0.212 0.791 0.212 0.781 C 0.212 0.766 0.211 0.762 0.207 0.751 C 0.202 0.738 0.199 0.734 0.199 0.74 C 0.199 0.747 0.196 0.742 0.195 0.733 C 0.194 0.726 0.193 0.724 0.192 0.726 C 0.189 0.731 0.188 0.729 0.189 0.722 C 0.189 0.718 0.189 0.715 0.188 0.715 C 0.185 0.715 0.195 0.686 0.198 0.685 C 0.2 0.685 0.202 0.682 0.203 0.68 C 0.21 0.663 0.216 0.659 0.214 0.672 C 0.213 0.679 0.217 0.682 0.219 0.676 C 0.22 0.671 0.223 0.673 0.223 0.679 C 0.223 0.685 0.228 0.687 0.229 0.681 C 0.229 0.679 0.231 0.678 0.234 0.677 C 0.24 0.676 0.241 0.676 0.238 0.673 C 0.236 0.671 0.236 0.668 0.236 0.666 C 0.237 0.664 0.236 0.661 0.234 0.66 C 0.233 0.659 0.232 0.655 0.232 0.646 L 0.232 0.633 L 0.229 0.639 C 0.227 0.643 0.225 0.645 0.223 0.643 C 0.222 0.642 0.219 0.645 0.215 0.651 C 0.211 0.659 0.209 0.66 0.207 0.657 C 0.196 0.645 0.186 0.657 0.186 0.682 C 0.186 0.694 0.185 0.699 0.183 0.693 C 0.182 0.692 0.179 0.69 0.176 0.689 C 0.17 0.687 0.165 0.679 0.165 0.672 C 0.165 0.668 0.173 0.654 0.176 0.654 C 0.176 0.654 0.177 0.651 0.177 0.648 C 0.177 0.642 0.186 0.633 0.193 0.632 C 0.199 0.632 0.2 0.63 0.197 0.624 C 0.196 0.62 0.196 0.619 0.198 0.617 C 0.199 0.616 0.199 0.615 0.198 0.615 C 0.197 0.615 0.198 0.613 0.2 0.61 C 0.202 0.608 0.203 0.605 0.203 0.603 C 0.203 0.602 0.203 0.599 0.205 0.597 C 0.207 0.595 0.207 0.595 0.206 0.597 C 0.205 0.602 0.231 0.599 0.24 0.594 C 0.253 0.586 0.276 0.588 0.276 0.597 C 0.276 0.603 0.286 0.609 0.3 0.612 C 0.319 0.616 0.321 0.619 0.314 0.634 C 0.313 0.637 0.312 0.641 0.313 0.643 C 0.314 0.649 0.313 0.649 0.307 0.643 C 0.299 0.635 0.276 0.634 0.266 0.642 C 0.259 0.647 0.259 0.647 0.264 0.649 C 0.268 0.652 0.269 0.656 0.266 0.658 C 0.264 0.659 0.264 0.662 0.264 0.665 C 0.265 0.668 0.265 0.675 0.265 0.681 C 0.265 0.686 0.267 0.697 0.27 0.705 C 0.275 0.723 0.275 0.727 0.271 0.735 C 0.268 0.74 0.268 0.74 0.273 0.745 C 0.276 0.748 0.278 0.748 0.279 0.746 C 0.279 0.744 0.28 0.744 0.282 0.746 C 0.287 0.751 0.287 0.747 0.283 0.739 C 0.278 0.73 0.278 0.725 0.283 0.727 C 0.284 0.728 0.288 0.729 0.29 0.729 C 0.293 0.729 0.295 0.731 0.295 0.734 C 0.295 0.737 0.296 0.738 0.301 0.736 L 0.306 0.734 L 0.303 0.739 C 0.3 0.742 0.298 0.744 0.297 0.744 C 0.296 0.743 0.297 0.745 0.299 0.748 C 0.303 0.754 0.3 0.765 0.296 0.762 C 0.294 0.761 0.293 0.761 0.293 0.764 C 0.293 0.766 0.295 0.768 0.296 0.768 C 0.298 0.768 0.299 0.769 0.299 0.771 C 0.299 0.772 0.301 0.774 0.303 0.775 C 0.309 0.779 0.317 0.791 0.319 0.802 C 0.321 0.808 0.323 0.813 0.324 0.813 C 0.325 0.813 0.326 0.815 0.325 0.817 C 0.325 0.819 0.325 0.821 0.326 0.821 C 0.327 0.821 0.328 0.823 0.327 0.826 C 0.327 0.828 0.329 0.832 0.332 0.835 C 0.334 0.837 0.337 0.84 0.337 0.841 C 0.339 0.845 0.345 0.849 0.354 0.853 C 0.36 0.856 0.366 0.86 0.368 0.862 C 0.371 0.866 0.372 0.866 0.378 0.863 C 0.385 0.859 0.386 0.853 0.38 0.851 C 0.378 0.85 0.376 0.847 0.375 0.844 C 0.373 0.835 0.363 0.816 0.359 0.816 C 0.358 0.816 0.357 0.814 0.358 0.81 C 0.359 0.806 0.359 0.802 0.36 0.799 C 0.36 0.792 0.365 0.792 0.367 0.799 C 0.368 0.803 0.368 0.806 0.367 0.81 C 0.365 0.814 0.366 0.815 0.368 0.814 C 0.369 0.813 0.371 0.813 0.373 0.814 C 0.374 0.815 0.377 0.817 0.38 0.817 C 0.387 0.818 0.398 0.825 0.398 0.827 C 0.398 0.829 0.399 0.829 0.4 0.828 C 0.401 0.827 0.392 0.813 0.389 0.813 C 0.388 0.813 0.383 0.796 0.384 0.793 C 0.384 0.791 0.383 0.79 0.382 0.789 C 0.38 0.788 0.379 0.786 0.379 0.784 C 0.379 0.779 0.368 0.757 0.366 0.757 C 0.364 0.757 0.359 0.74 0.359 0.734 C 0.359 0.73 0.363 0.732 0.364 0.737 C 0.365 0.74 0.369 0.748 0.374 0.756 C 0.379 0.763 0.385 0.773 0.387 0.777 C 0.39 0.781 0.393 0.785 0.394 0.785 C 0.4 0.785 0.416 0.804 0.417 0.812 C 0.417 0.822 0.42 0.825 0.423 0.819 C 0.425 0.816 0.431 0.815 0.441 0.814 C 0.45 0.813 0.46 0.811 0.463 0.81 C 0.471 0.807 0.499 0.807 0.512 0.81 C 0.517 0.811 0.522 0.811 0.523 0.81 C 0.525 0.805 0.528 0.807 0.53 0.817 C 0.533 0.828 0.537 0.828 0.535 0.817 C 0.534 0.81 0.537 0.806 0.543 0.81 C 0.545 0.811 0.548 0.811 0.551 0.81 C 0.553 0.808 0.556 0.808 0.557 0.809 C 0.557 0.81 0.558 0.807 0.559 0.803 C 0.56 0.796 0.564 0.794 0.567 0.799 C 0.568 0.801 0.58 0.792 0.585 0.785 C 0.586 0.784 0.59 0.782 0.593 0.781 C 0.597 0.779 0.601 0.774 0.607 0.764 C 0.613 0.754 0.619 0.747 0.626 0.743 C 0.636 0.736 0.639 0.732 0.644 0.719 C 0.646 0.714 0.647 0.712 0.65 0.713 C 0.653 0.714 0.653 0.714 0.652 0.711 C 0.649 0.707 0.65 0.702 0.654 0.7 C 0.656 0.698 0.658 0.695 0.66 0.692 C 0.661 0.689 0.663 0.687 0.664 0.687 C 0.668 0.687 0.676 0.662 0.674 0.656 C 0.673 0.653 0.673 0.651 0.674 0.651 C 0.676 0.651 0.679 0.639 0.679 0.631 C 0.679 0.627 0.68 0.622 0.682 0.619 C 0.684 0.615 0.685 0.61 0.685 0.603 C 0.685 0.592 0.694 0.575 0.697 0.579 C 0.698 0.58 0.698 0.578 0.698 0.574 C 0.697 0.568 0.698 0.566 0.7 0.565 C 0.703 0.564 0.703 0.562 0.702 0.56 C 0.7 0.555 0.701 0.539 0.703 0.541 C 0.706 0.543 0.706 0.539 0.704 0.534 C 0.697 0.523 0.702 0.497 0.713 0.482 C 0.723 0.468 0.727 0.458 0.727 0.451 C 0.727 0.448 0.728 0.443 0.729 0.44 C 0.736 0.418 0.736 0.418 0.735 0.397 C 0.734 0.386 0.733 0.374 0.731 0.37 C 0.73 0.366 0.729 0.362 0.729 0.36 C 0.729 0.357 0.727 0.352 0.724 0.348 C 0.722 0.344 0.719 0.334 0.717 0.327 C 0.716 0.32 0.714 0.313 0.713 0.312 C 0.712 0.31 0.712 0.306 0.712 0.303 C 0.712 0.299 0.711 0.296 0.71 0.296 C 0.709 0.296 0.706 0.291 0.704 0.286 C 0.702 0.281 0.698 0.272 0.696 0.267 L 0.691 0.258 L 0.695 0.253 C 0.698 0.247 0.697 0.244 0.693 0.248 C 0.689 0.252 0.682 0.24 0.677 0.222 C 0.674 0.21 0.667 0.199 0.663 0.201 C 0.661 0.201 0.659 0.199 0.658 0.197 C 0.657 0.195 0.655 0.193 0.654 0.193 C 0.651 0.193 0.641 0.185 0.639 0.181 C 0.639 0.179 0.637 0.18 0.635 0.182 C 0.632 0.185 0.631 0.185 0.63 0.181 C 0.629 0.178 0.626 0.176 0.622 0.176 C 0.619 0.176 0.611 0.173 0.605 0.17 C 0.598 0.167 0.591 0.164 0.588 0.163 C 0.585 0.163 0.58 0.16 0.577 0.158 C 0.574 0.156 0.567 0.153 0.563 0.152 C 0.558 0.151 0.553 0.148 0.551 0.146 C 0.549 0.143 0.548 0.142 0.547 0.145 C 0.544 0.149 0.522 0.153 0.522 0.149 C 0.522 0.147 0.524 0.143 0.527 0.141 C 0.534 0.135 0.539 0.109 0.532 0.114 C 0.531 0.114 0.53 0.114 0.53 0.112 C 0.53 0.107 0.521 0.108 0.518 0.114 C 0.506 0.134 0.489 0.142 0.486 0.13 C 0.485 0.128 0.482 0.126 0.48 0.126 C 0.478 0.126 0.475 0.124 0.473 0.122 C 0.47 0.117 0.466 0.116 0.462 0.119 C 0.459 0.12 0.458 0.119 0.455 0.113 C 0.453 0.109 0.451 0.107 0.451 0.109 C 0.451 0.112 0.451 0.112 0.45 0.11 C 0.45 0.109 0.446 0.107 0.443 0.107 C 0.437 0.107 0.437 0.107 0.441 0.11 Z  M 0.696 0.12 C 0.696 0.124 0.697 0.127 0.7 0.129 C 0.705 0.132 0.708 0.128 0.705 0.12 C 0.702 0.113 0.696 0.112 0.696 0.12 Z  M 0.218 0.126 C 0.218 0.133 0.217 0.134 0.215 0.134 C 0.212 0.132 0.211 0.123 0.213 0.12 C 0.217 0.116 0.218 0.117 0.218 0.126 Z  M 0.172 0.131 C 0.172 0.134 0.168 0.141 0.167 0.139 C 0.166 0.137 0.169 0.129 0.171 0.129 C 0.172 0.129 0.172 0.13 0.172 0.131 Z  M 0.161 0.142 C 0.161 0.148 0.159 0.154 0.157 0.154 C 0.152 0.154 0.152 0.15 0.155 0.145 C 0.16 0.139 0.161 0.138 0.161 0.142 Z  M 0.705 0.143 C 0.704 0.144 0.7 0.147 0.697 0.15 C 0.69 0.155 0.69 0.16 0.698 0.162 C 0.702 0.162 0.705 0.164 0.707 0.165 C 0.708 0.168 0.709 0.167 0.711 0.164 C 0.713 0.162 0.715 0.159 0.717 0.158 C 0.718 0.157 0.719 0.154 0.719 0.15 C 0.719 0.145 0.719 0.143 0.717 0.144 C 0.716 0.145 0.715 0.145 0.715 0.143 C 0.715 0.14 0.708 0.14 0.705 0.143 Z  M 0.52 0.151 C 0.52 0.154 0.516 0.157 0.513 0.155 C 0.509 0.152 0.511 0.148 0.516 0.148 C 0.518 0.148 0.52 0.149 0.52 0.151 Z  M 0.669 0.17 C 0.666 0.171 0.665 0.175 0.668 0.177 C 0.668 0.178 0.67 0.177 0.671 0.174 C 0.673 0.17 0.673 0.168 0.669 0.17 Z  M 0.161 0.173 C 0.161 0.175 0.163 0.178 0.164 0.181 C 0.166 0.184 0.166 0.184 0.166 0.179 C 0.166 0.176 0.165 0.173 0.164 0.172 C 0.163 0.171 0.161 0.172 0.161 0.173 Z  M 0.728 0.181 C 0.723 0.183 0.721 0.187 0.726 0.187 C 0.732 0.187 0.737 0.184 0.736 0.181 C 0.735 0.179 0.733 0.179 0.728 0.181 Z  M 0.765 0.212 C 0.765 0.213 0.764 0.217 0.764 0.219 C 0.763 0.222 0.764 0.223 0.766 0.223 C 0.77 0.223 0.771 0.217 0.767 0.212 C 0.766 0.21 0.765 0.21 0.765 0.212 Z  M 0.692 0.222 C 0.688 0.228 0.692 0.235 0.698 0.233 C 0.701 0.231 0.702 0.222 0.698 0.22 C 0.695 0.218 0.696 0.217 0.692 0.222 Z  M 0.845 0.272 C 0.845 0.275 0.844 0.277 0.842 0.277 C 0.84 0.277 0.839 0.273 0.841 0.27 C 0.843 0.267 0.845 0.268 0.845 0.272 Z  M 0.118 0.306 C 0.11 0.322 0.11 0.324 0.116 0.324 C 0.122 0.324 0.128 0.311 0.127 0.297 C 0.127 0.291 0.125 0.293 0.118 0.306 Z  M 0.143 0.327 C 0.143 0.332 0.143 0.334 0.144 0.332 C 0.144 0.329 0.144 0.325 0.144 0.322 C 0.143 0.319 0.143 0.321 0.143 0.327 Z  M 0.826 0.333 C 0.826 0.337 0.827 0.338 0.83 0.337 C 0.835 0.336 0.835 0.327 0.83 0.327 C 0.827 0.327 0.826 0.328 0.826 0.333 Z  M 0.118 0.346 C 0.116 0.347 0.115 0.358 0.117 0.358 C 0.118 0.358 0.12 0.361 0.121 0.365 C 0.124 0.374 0.131 0.375 0.129 0.365 C 0.128 0.362 0.128 0.357 0.128 0.354 C 0.128 0.352 0.127 0.35 0.126 0.351 C 0.124 0.352 0.123 0.351 0.122 0.349 C 0.121 0.346 0.119 0.345 0.118 0.346 Z  M 0.107 0.365 C 0.109 0.368 0.11 0.373 0.11 0.377 C 0.11 0.382 0.11 0.383 0.112 0.379 C 0.113 0.377 0.114 0.373 0.114 0.372 C 0.114 0.37 0.113 0.369 0.112 0.369 C 0.111 0.369 0.11 0.367 0.11 0.365 C 0.11 0.362 0.109 0.36 0.107 0.36 C 0.105 0.36 0.105 0.361 0.107 0.365 Z  M 0.927 0.435 C 0.934 0.461 0.934 0.461 0.939 0.449 C 0.944 0.438 0.942 0.433 0.933 0.433 C 0.929 0.433 0.926 0.434 0.927 0.435 Z  M 0.937 0.492 C 0.937 0.495 0.938 0.497 0.939 0.497 C 0.94 0.496 0.941 0.494 0.941 0.492 C 0.941 0.49 0.94 0.487 0.939 0.487 C 0.938 0.486 0.937 0.488 0.937 0.492 Z  M 0.009 0.502 C 0.005 0.509 0.005 0.51 0.007 0.511 C 0.012 0.514 0.017 0.508 0.016 0.501 C 0.015 0.492 0.014 0.493 0.009 0.502 Z  M 0.072 0.507 C 0.071 0.509 0.07 0.514 0.07 0.518 C 0.07 0.522 0.069 0.524 0.068 0.523 C 0.066 0.522 0.066 0.524 0.068 0.531 C 0.069 0.54 0.073 0.541 0.073 0.532 C 0.072 0.529 0.074 0.524 0.075 0.52 C 0.08 0.509 0.077 0.498 0.072 0.507 Z  M 0 0.514 C 0 0.519 0.001 0.522 0.001 0.519 C 0.001 0.516 0.001 0.512 0.001 0.509 C 0.001 0.506 0 0.509 0 0.514 Z  M 0.082 0.509 C 0.079 0.515 0.082 0.525 0.086 0.523 C 0.087 0.522 0.088 0.522 0.087 0.524 C 0.087 0.525 0.087 0.529 0.088 0.533 C 0.089 0.537 0.09 0.543 0.09 0.546 C 0.091 0.552 0.09 0.552 0.099 0.555 C 0.104 0.557 0.107 0.557 0.108 0.555 C 0.108 0.554 0.109 0.554 0.11 0.556 C 0.111 0.558 0.112 0.554 0.115 0.544 C 0.12 0.524 0.12 0.524 0.114 0.526 C 0.109 0.527 0.103 0.523 0.097 0.514 C 0.093 0.509 0.083 0.506 0.082 0.509 Z  M 0.084 0.542 C 0.084 0.545 0.084 0.547 0.085 0.547 C 0.087 0.547 0.088 0.542 0.087 0.539 C 0.086 0.537 0.085 0.538 0.084 0.542 Z  M 0.142 0.54 C 0.14 0.542 0.138 0.543 0.136 0.543 C 0.134 0.543 0.132 0.559 0.135 0.559 C 0.136 0.559 0.136 0.56 0.135 0.564 C 0.133 0.569 0.129 0.591 0.129 0.594 C 0.129 0.594 0.13 0.595 0.132 0.595 C 0.134 0.595 0.135 0.597 0.135 0.602 C 0.135 0.61 0.135 0.61 0.14 0.605 C 0.145 0.599 0.152 0.602 0.153 0.609 C 0.153 0.612 0.154 0.614 0.155 0.613 C 0.156 0.612 0.157 0.614 0.158 0.617 C 0.159 0.624 0.162 0.624 0.166 0.617 C 0.173 0.605 0.179 0.581 0.175 0.581 C 0.173 0.581 0.171 0.578 0.17 0.575 C 0.168 0.569 0.167 0.568 0.163 0.569 C 0.157 0.571 0.155 0.566 0.156 0.553 C 0.157 0.543 0.157 0.542 0.152 0.539 C 0.146 0.536 0.146 0.536 0.142 0.54 Z  M 0.125 0.556 C 0.123 0.56 0.125 0.563 0.127 0.559 C 0.128 0.557 0.128 0.556 0.127 0.555 C 0.126 0.554 0.125 0.554 0.125 0.556 Z  M 0.025 0.561 C 0.023 0.564 0.023 0.574 0.026 0.581 C 0.028 0.586 0.028 0.591 0.028 0.604 L 0.027 0.622 L 0.03 0.615 C 0.033 0.607 0.034 0.604 0.032 0.602 C 0.031 0.601 0.031 0.595 0.031 0.588 C 0.032 0.574 0.028 0.555 0.025 0.561 Z  M 0.946 0.582 C 0.945 0.597 0.945 0.598 0.949 0.598 C 0.951 0.598 0.953 0.6 0.955 0.602 C 0.956 0.604 0.957 0.606 0.958 0.606 C 0.966 0.606 0.983 0.635 0.98 0.645 C 0.98 0.647 0.979 0.65 0.979 0.652 C 0.98 0.653 0.979 0.654 0.978 0.654 C 0.977 0.654 0.976 0.658 0.976 0.662 C 0.974 0.677 0.979 0.683 0.994 0.682 L 1 0.682 L 1 0.627 L 1 0.573 L 0.991 0.572 C 0.983 0.57 0.967 0.572 0.962 0.575 C 0.959 0.577 0.951 0.578 0.952 0.576 C 0.953 0.575 0.949 0.567 0.947 0.567 C 0.946 0.567 0.946 0.574 0.946 0.582 Z  M 0.238 0.656 C 0.238 0.657 0.239 0.66 0.24 0.663 C 0.243 0.669 0.245 0.665 0.244 0.658 C 0.243 0.653 0.238 0.652 0.238 0.656 Z  M 0.139 0.67 C 0.14 0.673 0.14 0.677 0.14 0.679 C 0.138 0.683 0.132 0.676 0.132 0.67 C 0.132 0.663 0.137 0.663 0.139 0.67 Z  M 0.337 0.675 C 0.338 0.674 0.338 0.679 0.337 0.686 C 0.337 0.695 0.338 0.702 0.34 0.712 C 0.342 0.72 0.343 0.731 0.343 0.737 L 0.344 0.747 L 0.345 0.736 C 0.346 0.73 0.347 0.722 0.347 0.719 C 0.349 0.707 0.353 0.711 0.352 0.724 C 0.352 0.74 0.353 0.752 0.357 0.762 C 0.362 0.78 0.357 0.79 0.346 0.782 C 0.344 0.78 0.337 0.779 0.331 0.779 C 0.319 0.779 0.315 0.775 0.317 0.767 C 0.318 0.764 0.317 0.763 0.317 0.764 C 0.316 0.765 0.315 0.764 0.315 0.763 C 0.315 0.761 0.316 0.76 0.317 0.759 C 0.318 0.758 0.318 0.757 0.317 0.754 C 0.315 0.752 0.315 0.751 0.316 0.749 C 0.318 0.747 0.318 0.746 0.317 0.745 C 0.313 0.741 0.315 0.738 0.319 0.74 C 0.322 0.742 0.324 0.742 0.327 0.739 C 0.33 0.735 0.331 0.735 0.331 0.74 C 0.332 0.746 0.331 0.721 0.329 0.703 C 0.329 0.695 0.327 0.686 0.326 0.682 C 0.323 0.672 0.324 0.671 0.33 0.674 C 0.333 0.675 0.336 0.676 0.337 0.675 Z  M 0.222 0.711 C 0.22 0.714 0.217 0.718 0.215 0.718 C 0.213 0.719 0.211 0.721 0.21 0.723 C 0.21 0.726 0.22 0.724 0.223 0.72 C 0.224 0.719 0.226 0.719 0.226 0.72 C 0.227 0.721 0.227 0.72 0.227 0.718 C 0.226 0.716 0.226 0.713 0.227 0.711 C 0.231 0.704 0.226 0.704 0.222 0.711 Z  M 0.21 0.745 C 0.21 0.758 0.213 0.762 0.216 0.755 C 0.218 0.751 0.218 0.751 0.216 0.752 C 0.214 0.754 0.213 0.752 0.212 0.746 C 0.211 0.733 0.21 0.733 0.21 0.745 Z  M 0.613 0.792 C 0.613 0.794 0.614 0.796 0.614 0.796 C 0.615 0.796 0.616 0.794 0.616 0.792 C 0.616 0.79 0.615 0.788 0.614 0.788 C 0.614 0.788 0.613 0.79 0.613 0.792 Z  M 0.382 0.808 C 0.38 0.814 0.376 0.814 0.376 0.809 C 0.376 0.804 0.38 0.798 0.381 0.801 C 0.382 0.802 0.382 0.806 0.382 0.808 Z  M 0.584 0.821 C 0.58 0.822 0.581 0.826 0.585 0.827 C 0.588 0.828 0.589 0.828 0.589 0.827 C 0.589 0.823 0.587 0.82 0.584 0.821 Z  M 0.473 0.841 C 0.473 0.847 0.477 0.849 0.484 0.847 L 0.49 0.844 L 0.486 0.842 C 0.483 0.841 0.48 0.841 0.479 0.842 C 0.477 0.843 0.475 0.842 0.475 0.84 C 0.474 0.838 0.473 0.838 0.473 0.841 Z  M 0.273 0.855 C 0.273 0.859 0.275 0.866 0.276 0.866 C 0.276 0.866 0.277 0.863 0.276 0.859 C 0.276 0.852 0.273 0.849 0.273 0.855 Z  M 0.329 0.894 C 0.329 0.895 0.331 0.898 0.334 0.899 C 0.341 0.905 0.346 0.913 0.346 0.92 C 0.346 0.927 0.353 0.935 0.356 0.931 C 0.359 0.928 0.357 0.922 0.348 0.909 C 0.339 0.896 0.329 0.889 0.329 0.894 Z  M 0.314 0.92 C 0.315 0.925 0.318 0.926 0.318 0.921 C 0.318 0.918 0.317 0.916 0.316 0.916 C 0.314 0.916 0.313 0.918 0.314 0.92 Z  M 0.325 0.919 C 0.326 0.921 0.328 0.924 0.328 0.926 C 0.328 0.929 0.327 0.93 0.326 0.929 C 0.324 0.926 0.324 0.934 0.327 0.94 C 0.328 0.943 0.329 0.948 0.329 0.951 C 0.329 0.953 0.33 0.956 0.332 0.957 C 0.334 0.958 0.336 0.961 0.336 0.963 C 0.337 0.966 0.337 0.97 0.338 0.972 C 0.339 0.975 0.337 0.974 0.334 0.97 C 0.328 0.965 0.324 0.964 0.321 0.97 C 0.318 0.973 0.317 0.973 0.318 0.968 C 0.318 0.966 0.318 0.964 0.317 0.964 C 0.314 0.964 0.314 0.972 0.317 0.979 C 0.322 0.988 0.322 0.993 0.319 0.997 C 0.317 0.999 0.321 1 0.334 1 C 0.353 1 0.353 1 0.35 0.994 C 0.346 0.987 0.35 0.987 0.356 0.994 C 0.36 1 0.364 1.002 0.366 0.998 C 0.367 0.996 0.364 0.988 0.36 0.977 C 0.357 0.97 0.355 0.966 0.35 0.952 C 0.345 0.94 0.327 0.916 0.323 0.916 C 0.323 0.916 0.323 0.918 0.325 0.919 Z " fill-rule="evenodd" fill="rgb(0,0,0)"/></g></g></svg>