<?xml version="1.0" encoding="UTF-8" standalone="no"?><!-- Generator: Gravit.io --><svg xmlns="http://www.w3.org/2000/svg" xmlns:xlink="http://www.w3.org/1999/xlink" style="isolation:isolate" viewBox="0 0 1 1" width="1pt" height="1pt"><defs><clipPath id="_clipPath_1mowKDktQSpL0dr3lszJbGvjP8Mw3jla"><rect width="1" height="1"/></clipPath></defs><g clip-path="url(#_clipPath_1mowKDktQSpL0dr3lszJbGvjP8Mw3jla)"><g><path d=" M 0 0.186 L 0 0.372 L 0.005 0.371 C 0.008 0.37 0.009 0.371 0.008 0.373 C 0.008 0.375 0.009 0.378 0.01 0.38 C 0.015 0.387 0.01 0.392 0.003 0.385 C -0.001 0.381 -0.001 0.386 0.004 0.391 C 0.005 0.393 0.009 0.394 0.011 0.394 C 0.014 0.393 0.016 0.395 0.017 0.401 C 0.018 0.405 0.019 0.407 0.019 0.406 C 0.019 0.404 0.02 0.402 0.021 0.402 C 0.024 0.402 0.025 0.395 0.024 0.39 C 0.024 0.388 0.024 0.385 0.025 0.384 C 0.026 0.383 0.026 0.38 0.026 0.378 C 0.025 0.375 0.026 0.374 0.03 0.374 C 0.035 0.374 0.036 0.373 0.036 0.367 C 0.036 0.36 0.04 0.357 0.043 0.362 C 0.045 0.366 0.052 0.364 0.053 0.36 C 0.056 0.343 0.078 0.345 0.078 0.362 C 0.078 0.366 0.079 0.366 0.081 0.363 C 0.083 0.36 0.084 0.36 0.085 0.363 C 0.087 0.365 0.088 0.365 0.088 0.364 C 0.088 0.362 0.089 0.36 0.091 0.359 C 0.093 0.358 0.095 0.355 0.095 0.352 C 0.096 0.349 0.096 0.346 0.097 0.346 C 0.098 0.346 0.099 0.345 0.101 0.345 C 0.104 0.343 0.105 0.344 0.104 0.355 C 0.104 0.365 0.104 0.367 0.101 0.367 C 0.1 0.367 0.099 0.367 0.099 0.369 C 0.099 0.37 0.1 0.371 0.1 0.371 C 0.102 0.371 0.102 0.375 0.101 0.381 C 0.1 0.392 0.104 0.401 0.107 0.393 C 0.11 0.383 0.112 0.38 0.114 0.38 C 0.115 0.38 0.116 0.379 0.115 0.377 C 0.115 0.376 0.116 0.373 0.117 0.371 C 0.122 0.367 0.124 0.368 0.124 0.372 C 0.124 0.376 0.131 0.381 0.132 0.379 C 0.136 0.374 0.135 0.357 0.131 0.358 C 0.127 0.359 0.127 0.346 0.132 0.33 C 0.134 0.325 0.135 0.32 0.134 0.319 C 0.133 0.317 0.136 0.302 0.138 0.302 C 0.138 0.302 0.139 0.298 0.138 0.293 C 0.138 0.288 0.139 0.281 0.141 0.274 C 0.143 0.268 0.144 0.261 0.143 0.258 C 0.143 0.256 0.143 0.253 0.144 0.251 C 0.144 0.249 0.145 0.244 0.144 0.239 C 0.144 0.234 0.145 0.23 0.147 0.228 C 0.15 0.223 0.152 0.225 0.152 0.232 C 0.152 0.235 0.153 0.237 0.153 0.237 C 0.156 0.237 0.157 0.229 0.155 0.227 C 0.154 0.227 0.154 0.221 0.154 0.216 C 0.154 0.209 0.154 0.207 0.155 0.208 C 0.157 0.21 0.157 0.208 0.156 0.204 C 0.156 0.201 0.156 0.198 0.157 0.198 C 0.158 0.198 0.158 0.199 0.158 0.201 C 0.158 0.203 0.159 0.203 0.16 0.203 C 0.161 0.203 0.162 0.205 0.162 0.207 C 0.161 0.21 0.163 0.217 0.165 0.222 C 0.166 0.228 0.167 0.233 0.167 0.235 C 0.166 0.237 0.167 0.237 0.169 0.237 C 0.171 0.236 0.172 0.233 0.171 0.221 C 0.171 0.213 0.172 0.207 0.173 0.207 C 0.174 0.207 0.173 0.204 0.171 0.2 C 0.169 0.196 0.167 0.194 0.166 0.194 C 0.165 0.195 0.165 0.191 0.165 0.183 C 0.166 0.174 0.166 0.17 0.165 0.17 C 0.164 0.17 0.163 0.167 0.163 0.163 C 0.163 0.159 0.164 0.156 0.165 0.156 C 0.167 0.156 0.168 0.155 0.168 0.154 C 0.168 0.152 0.169 0.151 0.172 0.151 C 0.174 0.151 0.176 0.152 0.176 0.155 C 0.176 0.157 0.176 0.159 0.177 0.159 C 0.178 0.159 0.179 0.161 0.179 0.163 C 0.179 0.166 0.178 0.168 0.177 0.168 C 0.176 0.168 0.176 0.169 0.176 0.172 C 0.176 0.174 0.176 0.175 0.178 0.174 C 0.18 0.173 0.18 0.174 0.18 0.181 C 0.179 0.189 0.181 0.196 0.183 0.19 C 0.183 0.188 0.185 0.187 0.186 0.187 C 0.189 0.187 0.189 0.185 0.189 0.175 C 0.188 0.16 0.194 0.144 0.198 0.151 C 0.202 0.157 0.202 0.182 0.199 0.188 C 0.197 0.192 0.197 0.193 0.199 0.192 C 0.2 0.192 0.202 0.195 0.202 0.2 C 0.204 0.207 0.204 0.209 0.207 0.208 C 0.214 0.205 0.218 0.212 0.217 0.223 C 0.215 0.239 0.219 0.23 0.221 0.212 C 0.222 0.204 0.223 0.196 0.224 0.194 C 0.224 0.193 0.225 0.179 0.225 0.165 C 0.226 0.15 0.226 0.133 0.226 0.127 C 0.226 0.121 0.226 0.113 0.225 0.11 C 0.224 0.105 0.224 0.103 0.227 0.103 C 0.231 0.103 0.234 0.109 0.234 0.117 C 0.234 0.12 0.235 0.127 0.236 0.131 C 0.237 0.135 0.238 0.14 0.238 0.143 C 0.238 0.151 0.238 0.156 0.24 0.156 C 0.241 0.156 0.241 0.155 0.241 0.152 C 0.241 0.15 0.242 0.147 0.243 0.147 C 0.245 0.144 0.249 0.151 0.248 0.156 C 0.248 0.159 0.248 0.159 0.25 0.155 C 0.252 0.151 0.252 0.149 0.251 0.147 C 0.247 0.141 0.249 0.123 0.253 0.123 C 0.257 0.123 0.263 0.108 0.264 0.094 C 0.264 0.08 0.269 0.081 0.27 0.095 C 0.272 0.115 0.277 0.106 0.277 0.083 C 0.277 0.071 0.278 0.066 0.28 0.065 C 0.283 0.063 0.287 0.07 0.286 0.076 C 0.286 0.079 0.286 0.081 0.287 0.081 C 0.288 0.081 0.288 0.075 0.288 0.068 C 0.288 0.061 0.289 0.056 0.29 0.056 C 0.291 0.056 0.292 0.045 0.292 0.031 C 0.293 0.018 0.294 0.005 0.295 0.003 C 0.296 0.001 0.267 0 0.148 0 L 0 0 L 0 0.186 Z  M 0.648 0.004 C 0.645 0.018 0.65 0.025 0.661 0.024 C 0.667 0.023 0.667 0.024 0.666 0.028 C 0.665 0.032 0.665 0.034 0.665 0.039 C 0.665 0.041 0.663 0.042 0.661 0.042 C 0.66 0.042 0.658 0.044 0.657 0.046 C 0.657 0.048 0.655 0.05 0.654 0.05 C 0.653 0.05 0.652 0.051 0.652 0.053 C 0.652 0.055 0.661 0.055 0.663 0.052 C 0.663 0.051 0.664 0.052 0.665 0.053 C 0.666 0.055 0.669 0.056 0.67 0.057 C 0.672 0.057 0.675 0.06 0.678 0.064 C 0.682 0.069 0.684 0.07 0.698 0.07 C 0.706 0.07 0.713 0.071 0.714 0.072 C 0.716 0.078 0.713 0.083 0.705 0.09 C 0.7 0.093 0.696 0.097 0.696 0.098 C 0.695 0.099 0.691 0.102 0.686 0.105 C 0.675 0.112 0.668 0.143 0.679 0.138 C 0.682 0.137 0.683 0.133 0.684 0.128 C 0.685 0.122 0.687 0.118 0.69 0.116 C 0.696 0.113 0.697 0.115 0.694 0.124 C 0.69 0.133 0.69 0.133 0.696 0.135 C 0.698 0.135 0.7 0.137 0.7 0.139 C 0.7 0.143 0.698 0.145 0.691 0.15 C 0.68 0.158 0.691 0.169 0.71 0.169 C 0.735 0.17 0.738 0.17 0.738 0.173 C 0.738 0.175 0.737 0.176 0.736 0.175 C 0.734 0.174 0.732 0.174 0.731 0.175 C 0.73 0.176 0.727 0.179 0.724 0.18 C 0.718 0.184 0.716 0.189 0.722 0.191 C 0.727 0.194 0.733 0.191 0.737 0.184 C 0.738 0.181 0.741 0.179 0.742 0.18 C 0.743 0.18 0.745 0.179 0.746 0.177 C 0.748 0.173 0.755 0.172 0.756 0.176 C 0.757 0.178 0.75 0.196 0.747 0.198 C 0.747 0.198 0.747 0.201 0.747 0.203 C 0.748 0.208 0.745 0.212 0.74 0.212 C 0.737 0.212 0.735 0.218 0.735 0.226 C 0.735 0.231 0.743 0.234 0.748 0.231 C 0.751 0.229 0.753 0.229 0.754 0.231 C 0.754 0.232 0.758 0.233 0.761 0.233 C 0.765 0.233 0.769 0.234 0.769 0.235 C 0.77 0.239 0.779 0.237 0.781 0.233 C 0.782 0.231 0.783 0.229 0.785 0.229 C 0.787 0.229 0.789 0.235 0.787 0.237 C 0.783 0.243 0.776 0.263 0.776 0.269 C 0.777 0.273 0.776 0.279 0.773 0.286 L 0.769 0.296 L 0.773 0.293 C 0.778 0.289 0.789 0.296 0.788 0.304 C 0.788 0.312 0.788 0.312 0.793 0.309 C 0.797 0.307 0.798 0.307 0.799 0.31 C 0.801 0.313 0.801 0.313 0.802 0.309 C 0.802 0.307 0.803 0.305 0.804 0.306 C 0.805 0.307 0.806 0.306 0.806 0.304 C 0.806 0.303 0.807 0.302 0.808 0.302 C 0.809 0.302 0.812 0.297 0.815 0.292 C 0.822 0.278 0.829 0.28 0.829 0.297 C 0.829 0.309 0.837 0.307 0.85 0.292 C 0.855 0.286 0.855 0.286 0.855 0.29 C 0.855 0.292 0.856 0.297 0.857 0.299 C 0.86 0.305 0.858 0.325 0.853 0.336 C 0.849 0.344 0.853 0.348 0.86 0.344 C 0.869 0.339 0.873 0.342 0.871 0.352 C 0.871 0.356 0.871 0.36 0.871 0.361 C 0.873 0.365 0.876 0.356 0.876 0.349 C 0.876 0.343 0.877 0.341 0.879 0.341 C 0.881 0.341 0.883 0.339 0.884 0.336 C 0.885 0.333 0.887 0.333 0.888 0.335 C 0.889 0.337 0.891 0.338 0.894 0.338 C 0.902 0.338 0.906 0.343 0.906 0.352 C 0.906 0.361 0.912 0.371 0.918 0.371 C 0.922 0.371 0.934 0.391 0.933 0.397 C 0.929 0.408 0.929 0.413 0.932 0.413 C 0.934 0.413 0.936 0.415 0.936 0.417 C 0.936 0.42 0.935 0.422 0.933 0.422 C 0.932 0.422 0.931 0.423 0.931 0.425 C 0.931 0.426 0.93 0.427 0.928 0.426 C 0.923 0.423 0.922 0.43 0.926 0.447 C 0.93 0.469 0.931 0.471 0.934 0.461 C 0.939 0.444 0.948 0.436 0.945 0.452 C 0.942 0.465 0.944 0.465 0.955 0.455 C 0.972 0.44 0.986 0.452 0.973 0.471 C 0.968 0.477 0.967 0.478 0.962 0.475 C 0.956 0.47 0.953 0.474 0.956 0.483 C 0.957 0.486 0.957 0.49 0.957 0.491 C 0.955 0.496 0.95 0.495 0.95 0.49 C 0.95 0.472 0.936 0.471 0.93 0.488 C 0.924 0.504 0.923 0.51 0.928 0.5 C 0.93 0.495 0.931 0.495 0.931 0.498 C 0.93 0.503 0.932 0.504 0.933 0.5 C 0.934 0.498 0.937 0.501 0.94 0.506 C 0.945 0.516 0.946 0.517 0.953 0.511 C 0.956 0.51 0.958 0.508 0.959 0.508 C 0.96 0.508 0.961 0.506 0.963 0.504 C 0.964 0.501 0.966 0.498 0.968 0.497 C 0.971 0.495 0.972 0.493 0.971 0.488 C 0.97 0.479 0.975 0.469 0.981 0.469 C 0.987 0.469 0.988 0.473 0.988 0.484 C 0.987 0.492 0.99 0.499 0.998 0.51 C 1 0.514 1 0.489 1 0.257 L 1 0 L 0.825 0 C 0.666 0 0.649 0 0.648 0.004 Z  M 0.725 0.106 C 0.722 0.112 0.719 0.113 0.719 0.108 C 0.719 0.103 0.725 0.095 0.726 0.098 C 0.727 0.099 0.727 0.102 0.725 0.106 Z  M 0.525 0.102 C 0.524 0.104 0.522 0.106 0.521 0.106 C 0.52 0.106 0.515 0.111 0.512 0.117 C 0.502 0.132 0.493 0.134 0.487 0.123 C 0.484 0.116 0.483 0.116 0.48 0.118 C 0.477 0.12 0.475 0.119 0.474 0.116 C 0.473 0.112 0.469 0.111 0.463 0.111 C 0.456 0.11 0.454 0.109 0.453 0.106 C 0.453 0.102 0.451 0.101 0.448 0.102 C 0.445 0.103 0.441 0.103 0.44 0.103 C 0.437 0.103 0.438 0.105 0.442 0.11 C 0.453 0.123 0.449 0.129 0.438 0.117 C 0.433 0.111 0.426 0.109 0.431 0.114 C 0.433 0.117 0.433 0.117 0.43 0.117 C 0.428 0.117 0.428 0.118 0.431 0.122 C 0.437 0.133 0.432 0.141 0.422 0.138 C 0.418 0.137 0.413 0.137 0.411 0.139 C 0.409 0.141 0.403 0.143 0.397 0.145 C 0.378 0.152 0.377 0.152 0.371 0.169 C 0.364 0.185 0.357 0.194 0.352 0.191 C 0.348 0.188 0.349 0.182 0.353 0.179 C 0.361 0.173 0.368 0.149 0.366 0.134 C 0.365 0.128 0.356 0.132 0.354 0.139 C 0.353 0.141 0.352 0.142 0.351 0.141 C 0.35 0.14 0.348 0.142 0.346 0.146 C 0.337 0.162 0.333 0.166 0.33 0.165 C 0.328 0.165 0.326 0.166 0.325 0.167 C 0.324 0.171 0.313 0.171 0.311 0.167 C 0.309 0.164 0.309 0.164 0.309 0.167 C 0.309 0.169 0.309 0.17 0.31 0.17 C 0.311 0.17 0.312 0.172 0.312 0.173 C 0.312 0.175 0.311 0.176 0.309 0.176 C 0.307 0.176 0.305 0.178 0.304 0.18 C 0.303 0.182 0.3 0.184 0.298 0.184 C 0.295 0.184 0.293 0.185 0.294 0.187 C 0.295 0.189 0.297 0.19 0.299 0.189 C 0.302 0.187 0.303 0.188 0.303 0.192 C 0.303 0.196 0.303 0.198 0.305 0.197 C 0.306 0.196 0.307 0.198 0.307 0.207 C 0.306 0.219 0.306 0.219 0.301 0.22 C 0.294 0.221 0.285 0.226 0.277 0.232 C 0.275 0.235 0.271 0.237 0.269 0.237 C 0.268 0.237 0.266 0.239 0.266 0.24 C 0.266 0.242 0.265 0.243 0.264 0.243 C 0.262 0.243 0.26 0.246 0.258 0.25 C 0.252 0.263 0.246 0.268 0.241 0.264 C 0.238 0.26 0.237 0.261 0.234 0.268 C 0.232 0.273 0.227 0.28 0.219 0.286 C 0.212 0.292 0.204 0.298 0.202 0.3 C 0.2 0.301 0.198 0.304 0.197 0.306 C 0.196 0.308 0.194 0.31 0.193 0.31 C 0.191 0.31 0.19 0.311 0.19 0.313 C 0.19 0.314 0.188 0.316 0.186 0.317 C 0.184 0.318 0.182 0.32 0.182 0.321 C 0.182 0.322 0.18 0.324 0.178 0.325 C 0.173 0.328 0.165 0.345 0.16 0.364 C 0.157 0.372 0.154 0.38 0.153 0.38 C 0.153 0.38 0.152 0.384 0.152 0.389 C 0.152 0.394 0.151 0.399 0.15 0.4 C 0.148 0.401 0.152 0.443 0.155 0.453 C 0.157 0.457 0.158 0.462 0.158 0.464 C 0.158 0.466 0.16 0.471 0.161 0.475 C 0.163 0.478 0.165 0.483 0.165 0.484 C 0.165 0.488 0.176 0.507 0.188 0.523 C 0.193 0.531 0.198 0.54 0.198 0.544 C 0.199 0.548 0.2 0.549 0.201 0.547 C 0.203 0.544 0.217 0.558 0.218 0.565 C 0.219 0.568 0.22 0.569 0.222 0.568 C 0.223 0.567 0.225 0.568 0.227 0.571 C 0.23 0.577 0.227 0.585 0.219 0.59 C 0.212 0.596 0.212 0.596 0.212 0.591 C 0.212 0.589 0.21 0.584 0.208 0.581 C 0.206 0.577 0.204 0.575 0.204 0.577 C 0.204 0.578 0.202 0.575 0.199 0.57 C 0.195 0.562 0.19 0.56 0.192 0.567 C 0.193 0.568 0.192 0.57 0.191 0.57 C 0.189 0.57 0.185 0.581 0.185 0.587 C 0.185 0.588 0.184 0.591 0.182 0.594 C 0.181 0.596 0.18 0.601 0.181 0.604 C 0.181 0.607 0.181 0.608 0.181 0.608 C 0.18 0.607 0.179 0.608 0.178 0.611 C 0.173 0.623 0.171 0.612 0.175 0.597 C 0.182 0.576 0.182 0.567 0.178 0.568 C 0.176 0.569 0.174 0.568 0.174 0.567 C 0.175 0.56 0.174 0.558 0.17 0.559 C 0.164 0.56 0.158 0.546 0.163 0.54 C 0.165 0.538 0.165 0.519 0.163 0.519 C 0.162 0.519 0.161 0.521 0.161 0.522 C 0.161 0.527 0.157 0.525 0.155 0.52 C 0.154 0.517 0.153 0.516 0.152 0.519 C 0.14 0.536 0.134 0.543 0.132 0.54 C 0.128 0.536 0.128 0.548 0.132 0.554 C 0.135 0.561 0.135 0.562 0.133 0.572 C 0.132 0.58 0.132 0.584 0.133 0.589 C 0.134 0.592 0.135 0.598 0.134 0.602 C 0.134 0.606 0.134 0.609 0.136 0.609 C 0.137 0.609 0.138 0.608 0.138 0.606 C 0.138 0.602 0.146 0.593 0.147 0.597 C 0.147 0.599 0.148 0.6 0.149 0.599 C 0.15 0.597 0.154 0.607 0.153 0.609 C 0.152 0.61 0.153 0.612 0.155 0.613 C 0.157 0.614 0.158 0.616 0.158 0.619 C 0.158 0.623 0.163 0.624 0.166 0.619 C 0.167 0.617 0.168 0.617 0.168 0.62 C 0.168 0.623 0.166 0.627 0.164 0.63 C 0.161 0.633 0.158 0.638 0.156 0.641 C 0.152 0.648 0.149 0.65 0.149 0.644 C 0.149 0.638 0.138 0.629 0.136 0.633 C 0.135 0.638 0.13 0.635 0.13 0.63 C 0.13 0.627 0.129 0.625 0.128 0.625 C 0.126 0.625 0.125 0.624 0.125 0.623 C 0.125 0.617 0.121 0.62 0.118 0.627 C 0.116 0.633 0.116 0.636 0.118 0.647 C 0.119 0.656 0.119 0.66 0.118 0.662 C 0.115 0.667 0.112 0.662 0.113 0.655 C 0.115 0.645 0.101 0.622 0.097 0.627 C 0.096 0.628 0.096 0.627 0.096 0.624 C 0.096 0.619 0.094 0.619 0.089 0.623 C 0.087 0.626 0.086 0.626 0.085 0.623 C 0.084 0.62 0.083 0.62 0.082 0.623 C 0.081 0.627 0.077 0.611 0.078 0.603 C 0.078 0.6 0.078 0.597 0.075 0.595 C 0.074 0.593 0.072 0.593 0.072 0.594 C 0.072 0.601 0.069 0.585 0.068 0.573 C 0.067 0.556 0.068 0.547 0.072 0.547 C 0.074 0.547 0.075 0.548 0.074 0.55 C 0.074 0.552 0.074 0.553 0.075 0.553 C 0.076 0.553 0.078 0.549 0.079 0.544 C 0.08 0.539 0.081 0.537 0.081 0.539 C 0.082 0.547 0.086 0.551 0.086 0.544 C 0.087 0.539 0.089 0.536 0.09 0.541 C 0.09 0.545 0.095 0.55 0.099 0.55 C 0.101 0.55 0.104 0.551 0.105 0.553 C 0.106 0.555 0.107 0.555 0.107 0.553 C 0.108 0.552 0.109 0.551 0.11 0.552 C 0.112 0.553 0.122 0.523 0.122 0.518 C 0.122 0.517 0.12 0.517 0.117 0.517 C 0.106 0.52 0.097 0.51 0.097 0.495 C 0.097 0.488 0.096 0.486 0.088 0.478 C 0.08 0.471 0.078 0.47 0.079 0.475 C 0.08 0.478 0.079 0.48 0.078 0.48 C 0.078 0.48 0.077 0.483 0.077 0.486 C 0.077 0.489 0.076 0.491 0.075 0.491 C 0.074 0.491 0.074 0.493 0.074 0.495 C 0.074 0.497 0.072 0.501 0.07 0.504 C 0.067 0.507 0.066 0.511 0.066 0.519 C 0.066 0.525 0.064 0.535 0.063 0.541 C 0.061 0.547 0.06 0.554 0.06 0.557 C 0.06 0.559 0.058 0.562 0.056 0.563 C 0.055 0.564 0.053 0.567 0.053 0.569 C 0.053 0.572 0.053 0.575 0.052 0.577 C 0.051 0.579 0.051 0.583 0.052 0.59 C 0.054 0.601 0.05 0.657 0.047 0.661 C 0.046 0.661 0.045 0.664 0.045 0.667 C 0.045 0.67 0.044 0.674 0.043 0.676 C 0.04 0.68 0.04 0.67 0.043 0.654 C 0.044 0.648 0.045 0.64 0.044 0.636 C 0.043 0.63 0.043 0.63 0.042 0.635 C 0.042 0.638 0.04 0.641 0.039 0.641 C 0.038 0.641 0.037 0.642 0.035 0.642 C 0.034 0.642 0.033 0.644 0.033 0.646 C 0.033 0.648 0.032 0.651 0.03 0.652 C 0.027 0.654 0.027 0.654 0.026 0.648 C 0.026 0.643 0.026 0.642 0.029 0.642 C 0.031 0.642 0.032 0.641 0.03 0.639 C 0.027 0.633 0.029 0.609 0.033 0.609 C 0.034 0.609 0.034 0.607 0.033 0.604 C 0.031 0.601 0.031 0.592 0.031 0.581 C 0.031 0.564 0.03 0.563 0.027 0.562 C 0.023 0.561 0.022 0.571 0.025 0.58 C 0.027 0.586 0.026 0.618 0.023 0.615 C 0.023 0.615 0.022 0.616 0.022 0.618 C 0.022 0.62 0.022 0.62 0.021 0.617 C 0.02 0.615 0.02 0.611 0.02 0.608 C 0.021 0.603 0.02 0.602 0.016 0.604 C 0.007 0.609 0.003 0.609 0.001 0.605 C 0.001 0.603 0 0.691 0 0.801 L 0 1 L 0.138 1 C 0.222 1 0.276 0.998 0.275 0.997 C 0.275 0.996 0.275 0.991 0.276 0.987 C 0.278 0.978 0.275 0.964 0.27 0.96 L 0.266 0.957 L 0.27 0.95 C 0.275 0.941 0.276 0.935 0.273 0.923 C 0.271 0.917 0.271 0.916 0.269 0.918 C 0.267 0.922 0.263 0.922 0.261 0.918 C 0.259 0.915 0.262 0.906 0.27 0.891 C 0.273 0.886 0.273 0.882 0.273 0.878 C 0.272 0.874 0.271 0.874 0.271 0.877 C 0.271 0.884 0.266 0.886 0.266 0.879 C 0.266 0.876 0.267 0.874 0.268 0.874 C 0.269 0.874 0.269 0.872 0.269 0.871 C 0.268 0.869 0.267 0.869 0.266 0.872 C 0.265 0.876 0.264 0.876 0.262 0.87 C 0.26 0.866 0.259 0.865 0.259 0.868 C 0.259 0.872 0.258 0.871 0.257 0.868 C 0.256 0.865 0.254 0.863 0.252 0.863 C 0.249 0.863 0.247 0.861 0.247 0.857 C 0.246 0.854 0.245 0.852 0.244 0.852 C 0.243 0.852 0.243 0.847 0.244 0.841 C 0.244 0.835 0.244 0.829 0.243 0.828 C 0.243 0.827 0.242 0.825 0.242 0.823 C 0.242 0.821 0.242 0.817 0.242 0.815 C 0.241 0.812 0.239 0.809 0.237 0.807 C 0.232 0.804 0.232 0.802 0.233 0.796 C 0.233 0.791 0.233 0.79 0.232 0.792 C 0.231 0.797 0.228 0.792 0.23 0.787 C 0.23 0.786 0.23 0.785 0.228 0.785 C 0.221 0.785 0.219 0.77 0.225 0.755 C 0.229 0.745 0.229 0.745 0.225 0.749 C 0.22 0.756 0.218 0.755 0.217 0.745 C 0.216 0.74 0.215 0.734 0.214 0.732 C 0.212 0.728 0.216 0.719 0.218 0.723 C 0.219 0.725 0.221 0.724 0.223 0.722 C 0.225 0.72 0.227 0.719 0.227 0.719 C 0.227 0.719 0.227 0.715 0.228 0.71 C 0.229 0.699 0.224 0.7 0.22 0.711 C 0.219 0.715 0.216 0.718 0.213 0.718 C 0.211 0.718 0.208 0.719 0.208 0.721 C 0.207 0.722 0.205 0.721 0.203 0.718 C 0.199 0.711 0.193 0.714 0.193 0.722 C 0.193 0.724 0.192 0.726 0.191 0.727 C 0.191 0.728 0.19 0.726 0.19 0.723 C 0.19 0.72 0.191 0.718 0.192 0.718 C 0.192 0.718 0.193 0.712 0.193 0.706 C 0.193 0.693 0.196 0.684 0.2 0.684 C 0.201 0.684 0.203 0.68 0.204 0.676 C 0.208 0.664 0.218 0.66 0.216 0.672 C 0.215 0.674 0.216 0.676 0.217 0.676 C 0.219 0.676 0.221 0.678 0.223 0.681 C 0.225 0.685 0.228 0.686 0.231 0.685 C 0.234 0.684 0.235 0.685 0.236 0.689 C 0.236 0.692 0.237 0.691 0.237 0.685 C 0.239 0.675 0.241 0.673 0.242 0.68 C 0.243 0.683 0.244 0.683 0.246 0.681 C 0.248 0.679 0.25 0.679 0.251 0.68 C 0.252 0.681 0.252 0.68 0.252 0.679 C 0.252 0.677 0.252 0.676 0.251 0.676 C 0.245 0.675 0.243 0.656 0.249 0.656 C 0.251 0.656 0.252 0.655 0.252 0.653 C 0.252 0.652 0.251 0.651 0.248 0.651 C 0.245 0.651 0.244 0.649 0.245 0.646 C 0.246 0.644 0.245 0.642 0.244 0.642 C 0.242 0.642 0.241 0.643 0.241 0.645 C 0.241 0.649 0.237 0.656 0.235 0.656 C 0.233 0.656 0.233 0.64 0.235 0.638 C 0.236 0.637 0.238 0.633 0.239 0.628 L 0.241 0.62 L 0.237 0.621 C 0.232 0.622 0.22 0.637 0.214 0.651 C 0.211 0.656 0.21 0.657 0.208 0.654 C 0.204 0.646 0.189 0.653 0.187 0.664 C 0.187 0.667 0.186 0.67 0.185 0.67 C 0.184 0.67 0.183 0.673 0.183 0.677 C 0.183 0.681 0.184 0.684 0.185 0.684 C 0.186 0.684 0.187 0.687 0.187 0.69 C 0.187 0.693 0.185 0.695 0.184 0.695 C 0.183 0.695 0.182 0.693 0.182 0.691 C 0.182 0.688 0.181 0.687 0.18 0.688 C 0.178 0.691 0.171 0.682 0.171 0.677 C 0.171 0.675 0.17 0.673 0.168 0.673 C 0.167 0.673 0.166 0.672 0.166 0.67 C 0.166 0.667 0.175 0.653 0.177 0.653 C 0.178 0.653 0.179 0.651 0.179 0.648 C 0.179 0.641 0.183 0.637 0.189 0.639 C 0.192 0.64 0.193 0.639 0.194 0.634 C 0.194 0.631 0.195 0.628 0.196 0.628 C 0.197 0.628 0.198 0.625 0.198 0.621 C 0.199 0.617 0.201 0.614 0.203 0.612 C 0.206 0.611 0.207 0.61 0.205 0.608 C 0.204 0.607 0.204 0.606 0.205 0.606 C 0.206 0.606 0.207 0.608 0.208 0.61 C 0.21 0.613 0.211 0.613 0.214 0.607 C 0.218 0.601 0.22 0.6 0.225 0.602 C 0.229 0.602 0.233 0.601 0.236 0.599 C 0.243 0.593 0.269 0.59 0.268 0.596 C 0.267 0.598 0.268 0.6 0.271 0.601 C 0.274 0.602 0.278 0.605 0.281 0.607 C 0.284 0.609 0.292 0.614 0.299 0.617 C 0.314 0.623 0.317 0.626 0.314 0.634 C 0.313 0.637 0.312 0.641 0.313 0.643 C 0.314 0.649 0.312 0.649 0.306 0.642 C 0.293 0.628 0.254 0.638 0.26 0.654 C 0.262 0.659 0.262 0.659 0.26 0.658 C 0.258 0.657 0.258 0.658 0.258 0.662 C 0.259 0.668 0.256 0.669 0.255 0.664 C 0.255 0.662 0.254 0.663 0.254 0.667 C 0.255 0.674 0.255 0.674 0.26 0.669 C 0.265 0.663 0.266 0.672 0.263 0.688 C 0.262 0.691 0.262 0.692 0.264 0.692 C 0.265 0.692 0.266 0.694 0.266 0.696 C 0.266 0.698 0.267 0.701 0.268 0.703 C 0.273 0.711 0.271 0.717 0.261 0.724 L 0.252 0.731 L 0.257 0.733 C 0.261 0.734 0.263 0.736 0.263 0.737 C 0.263 0.742 0.278 0.748 0.289 0.749 L 0.295 0.749 L 0.291 0.752 C 0.288 0.754 0.285 0.755 0.285 0.754 C 0.284 0.754 0.284 0.754 0.284 0.756 C 0.285 0.757 0.284 0.76 0.283 0.762 C 0.279 0.768 0.283 0.774 0.292 0.775 C 0.294 0.775 0.295 0.776 0.296 0.778 C 0.297 0.779 0.299 0.782 0.301 0.784 C 0.304 0.786 0.305 0.789 0.305 0.79 C 0.305 0.792 0.307 0.796 0.31 0.798 C 0.312 0.801 0.314 0.805 0.314 0.806 C 0.314 0.808 0.315 0.808 0.317 0.808 C 0.319 0.807 0.32 0.808 0.32 0.811 C 0.32 0.815 0.32 0.816 0.321 0.813 C 0.322 0.81 0.323 0.811 0.327 0.817 C 0.329 0.822 0.335 0.829 0.339 0.833 C 0.343 0.837 0.346 0.842 0.347 0.844 C 0.347 0.847 0.349 0.849 0.351 0.849 C 0.353 0.849 0.361 0.852 0.368 0.856 C 0.383 0.865 0.386 0.864 0.387 0.849 C 0.387 0.844 0.387 0.84 0.386 0.841 C 0.383 0.842 0.381 0.84 0.38 0.832 C 0.377 0.821 0.378 0.819 0.383 0.823 C 0.385 0.825 0.388 0.826 0.389 0.825 C 0.389 0.824 0.392 0.825 0.393 0.826 C 0.396 0.829 0.397 0.829 0.397 0.824 C 0.397 0.82 0.396 0.818 0.394 0.818 C 0.39 0.818 0.382 0.803 0.382 0.797 C 0.382 0.795 0.382 0.793 0.381 0.793 C 0.381 0.793 0.377 0.786 0.374 0.777 C 0.37 0.768 0.367 0.762 0.365 0.762 C 0.363 0.762 0.362 0.76 0.361 0.758 C 0.361 0.756 0.359 0.754 0.358 0.754 C 0.356 0.753 0.356 0.753 0.357 0.752 C 0.359 0.751 0.36 0.743 0.358 0.743 C 0.354 0.743 0.352 0.763 0.355 0.767 C 0.362 0.775 0.356 0.784 0.349 0.779 C 0.346 0.777 0.339 0.775 0.333 0.776 C 0.324 0.777 0.322 0.776 0.321 0.772 C 0.32 0.767 0.322 0.759 0.325 0.759 C 0.326 0.759 0.328 0.757 0.328 0.755 C 0.33 0.748 0.329 0.747 0.325 0.752 C 0.322 0.756 0.322 0.756 0.321 0.751 C 0.32 0.748 0.321 0.746 0.322 0.747 C 0.323 0.748 0.324 0.747 0.325 0.744 C 0.325 0.742 0.327 0.74 0.328 0.74 C 0.331 0.74 0.33 0.706 0.326 0.687 C 0.322 0.669 0.322 0.67 0.329 0.672 C 0.334 0.674 0.334 0.675 0.335 0.69 C 0.335 0.698 0.337 0.709 0.338 0.715 C 0.34 0.72 0.342 0.728 0.342 0.733 C 0.343 0.741 0.344 0.741 0.345 0.736 C 0.349 0.724 0.351 0.722 0.351 0.731 C 0.351 0.742 0.353 0.744 0.356 0.737 L 0.359 0.73 L 0.366 0.744 C 0.37 0.751 0.374 0.757 0.375 0.757 C 0.376 0.757 0.376 0.758 0.376 0.76 C 0.376 0.762 0.378 0.766 0.38 0.769 C 0.383 0.772 0.386 0.778 0.388 0.781 C 0.389 0.784 0.392 0.787 0.394 0.787 C 0.395 0.787 0.397 0.789 0.397 0.79 C 0.397 0.792 0.398 0.793 0.4 0.793 C 0.403 0.793 0.404 0.794 0.404 0.795 C 0.404 0.796 0.407 0.799 0.411 0.802 C 0.415 0.805 0.417 0.809 0.417 0.812 C 0.417 0.815 0.418 0.819 0.419 0.819 C 0.419 0.82 0.42 0.824 0.419 0.827 C 0.418 0.834 0.42 0.833 0.422 0.825 C 0.423 0.818 0.436 0.813 0.445 0.816 C 0.447 0.817 0.454 0.816 0.46 0.814 C 0.479 0.806 0.528 0.809 0.531 0.818 C 0.532 0.825 0.536 0.825 0.536 0.818 C 0.536 0.811 0.539 0.809 0.551 0.809 C 0.559 0.808 0.562 0.807 0.562 0.804 C 0.563 0.8 0.563 0.8 0.561 0.804 C 0.56 0.806 0.559 0.807 0.559 0.806 C 0.556 0.802 0.561 0.798 0.565 0.801 C 0.568 0.803 0.569 0.803 0.572 0.8 C 0.573 0.798 0.575 0.796 0.577 0.796 C 0.581 0.796 0.61 0.769 0.61 0.766 C 0.61 0.76 0.617 0.751 0.625 0.747 C 0.63 0.744 0.636 0.739 0.637 0.736 C 0.639 0.732 0.642 0.729 0.644 0.728 C 0.647 0.728 0.648 0.725 0.649 0.72 C 0.649 0.714 0.65 0.712 0.652 0.712 C 0.654 0.712 0.655 0.71 0.655 0.706 C 0.654 0.701 0.655 0.699 0.659 0.698 C 0.661 0.698 0.663 0.696 0.663 0.694 C 0.663 0.691 0.664 0.69 0.665 0.69 C 0.667 0.69 0.672 0.681 0.673 0.673 C 0.674 0.669 0.675 0.667 0.677 0.668 C 0.679 0.67 0.679 0.669 0.678 0.663 C 0.677 0.659 0.678 0.654 0.678 0.653 C 0.68 0.648 0.68 0.64 0.68 0.63 C 0.68 0.625 0.681 0.619 0.683 0.617 C 0.684 0.614 0.685 0.609 0.686 0.604 C 0.687 0.59 0.69 0.584 0.695 0.584 C 0.699 0.584 0.699 0.583 0.698 0.575 C 0.697 0.568 0.698 0.567 0.701 0.565 C 0.703 0.564 0.705 0.562 0.704 0.56 C 0.704 0.558 0.704 0.553 0.705 0.549 C 0.706 0.543 0.706 0.542 0.705 0.542 C 0.702 0.542 0.702 0.541 0.704 0.51 C 0.705 0.5 0.709 0.489 0.714 0.486 C 0.718 0.482 0.727 0.47 0.727 0.467 C 0.727 0.466 0.728 0.463 0.73 0.461 C 0.731 0.459 0.732 0.452 0.733 0.446 C 0.734 0.44 0.734 0.436 0.735 0.436 C 0.741 0.436 0.742 0.4 0.736 0.381 C 0.735 0.376 0.734 0.371 0.734 0.369 C 0.734 0.364 0.729 0.348 0.726 0.345 C 0.723 0.342 0.715 0.309 0.715 0.301 C 0.715 0.298 0.714 0.296 0.712 0.296 C 0.711 0.296 0.71 0.293 0.709 0.29 C 0.709 0.287 0.708 0.285 0.707 0.285 C 0.706 0.285 0.701 0.269 0.701 0.265 C 0.701 0.264 0.7 0.261 0.699 0.257 C 0.698 0.253 0.698 0.25 0.699 0.247 C 0.7 0.245 0.701 0.24 0.702 0.236 C 0.702 0.231 0.703 0.226 0.704 0.225 C 0.707 0.219 0.705 0.21 0.702 0.213 C 0.7 0.214 0.698 0.214 0.697 0.213 C 0.694 0.209 0.692 0.212 0.69 0.221 C 0.688 0.23 0.69 0.241 0.694 0.238 C 0.695 0.237 0.696 0.239 0.696 0.241 C 0.696 0.245 0.695 0.245 0.693 0.243 C 0.691 0.241 0.69 0.239 0.69 0.237 C 0.69 0.235 0.689 0.235 0.688 0.236 C 0.686 0.238 0.678 0.218 0.679 0.212 C 0.68 0.208 0.678 0.207 0.674 0.204 C 0.67 0.202 0.668 0.2 0.668 0.198 C 0.668 0.197 0.667 0.195 0.665 0.195 C 0.664 0.195 0.661 0.194 0.659 0.192 C 0.646 0.18 0.638 0.176 0.636 0.181 C 0.633 0.186 0.629 0.183 0.631 0.177 C 0.631 0.174 0.63 0.173 0.627 0.173 C 0.62 0.174 0.604 0.168 0.598 0.163 C 0.595 0.161 0.59 0.159 0.588 0.159 C 0.586 0.159 0.58 0.157 0.576 0.155 C 0.572 0.153 0.566 0.151 0.564 0.151 C 0.561 0.151 0.557 0.148 0.554 0.144 C 0.547 0.136 0.545 0.135 0.542 0.141 C 0.541 0.143 0.54 0.145 0.54 0.144 C 0.539 0.143 0.537 0.144 0.536 0.146 C 0.533 0.148 0.532 0.148 0.531 0.145 C 0.53 0.143 0.53 0.142 0.531 0.142 C 0.533 0.142 0.533 0.142 0.531 0.138 C 0.53 0.135 0.53 0.134 0.532 0.132 C 0.535 0.129 0.537 0.106 0.534 0.106 C 0.533 0.106 0.531 0.104 0.53 0.102 C 0.527 0.098 0.527 0.098 0.525 0.102 Z  M 0.717 0.122 C 0.714 0.13 0.712 0.129 0.712 0.121 C 0.713 0.117 0.713 0.112 0.713 0.11 C 0.713 0.109 0.714 0.11 0.716 0.113 C 0.718 0.116 0.718 0.118 0.717 0.122 Z  M 0.399 0.116 C 0.399 0.119 0.4 0.12 0.402 0.119 C 0.403 0.118 0.406 0.117 0.408 0.116 C 0.416 0.115 0.414 0.112 0.407 0.112 C 0.401 0.112 0.399 0.114 0.399 0.116 Z  M 0.58 0.116 C 0.58 0.118 0.581 0.119 0.582 0.118 C 0.584 0.117 0.585 0.116 0.585 0.114 C 0.585 0.113 0.584 0.112 0.582 0.112 C 0.581 0.112 0.58 0.114 0.58 0.116 Z  M 0.218 0.126 C 0.218 0.129 0.217 0.131 0.216 0.131 C 0.214 0.131 0.213 0.126 0.214 0.123 C 0.216 0.118 0.218 0.12 0.218 0.126 Z  M 0.528 0.142 C 0.528 0.144 0.527 0.145 0.526 0.145 C 0.525 0.145 0.524 0.144 0.524 0.142 C 0.524 0.141 0.525 0.14 0.526 0.14 C 0.527 0.14 0.528 0.141 0.528 0.142 Z  M 0.52 0.148 C 0.52 0.15 0.519 0.151 0.516 0.151 C 0.514 0.151 0.513 0.15 0.513 0.148 C 0.513 0.146 0.514 0.145 0.516 0.145 C 0.519 0.145 0.52 0.146 0.52 0.148 Z  M 0.668 0.17 C 0.666 0.173 0.665 0.176 0.666 0.177 C 0.668 0.179 0.673 0.172 0.672 0.168 C 0.672 0.165 0.67 0.166 0.668 0.17 Z  M 0.333 0.177 C 0.334 0.184 0.334 0.184 0.336 0.18 C 0.34 0.174 0.343 0.175 0.344 0.183 C 0.345 0.191 0.341 0.199 0.337 0.197 C 0.335 0.195 0.333 0.201 0.334 0.209 C 0.334 0.22 0.32 0.22 0.319 0.21 C 0.319 0.207 0.318 0.201 0.317 0.197 C 0.316 0.188 0.318 0.181 0.321 0.181 C 0.322 0.181 0.324 0.179 0.326 0.176 C 0.329 0.168 0.332 0.169 0.333 0.177 Z  M 0.317 0.214 C 0.317 0.218 0.315 0.219 0.311 0.216 C 0.308 0.214 0.31 0.209 0.314 0.209 C 0.315 0.209 0.317 0.211 0.317 0.214 Z  M 0.201 0.215 C 0.202 0.22 0.205 0.221 0.205 0.216 C 0.205 0.215 0.204 0.213 0.203 0.213 C 0.201 0.212 0.201 0.213 0.201 0.215 Z  M 0.781 0.262 C 0.781 0.266 0.78 0.268 0.779 0.268 C 0.778 0.268 0.778 0.263 0.779 0.258 C 0.779 0.255 0.781 0.258 0.781 0.262 Z  M 0.089 0.326 C 0.089 0.328 0.091 0.329 0.092 0.33 C 0.094 0.331 0.096 0.334 0.096 0.336 C 0.096 0.343 0.091 0.345 0.089 0.34 C 0.088 0.337 0.086 0.335 0.085 0.335 C 0.083 0.335 0.082 0.329 0.084 0.326 C 0.086 0.323 0.089 0.323 0.089 0.326 Z  M 0.819 0.332 C 0.822 0.337 0.831 0.337 0.832 0.333 C 0.832 0.33 0.83 0.329 0.825 0.329 C 0.82 0.329 0.818 0.33 0.819 0.332 Z  M 0.813 0.36 C 0.81 0.365 0.81 0.369 0.812 0.369 C 0.813 0.369 0.817 0.358 0.816 0.356 C 0.816 0.356 0.815 0.357 0.813 0.36 Z  M 0.13 0.367 C 0.13 0.369 0.129 0.371 0.128 0.371 C 0.125 0.371 0.125 0.371 0.127 0.367 C 0.128 0.365 0.129 0.363 0.13 0.363 C 0.13 0.363 0.13 0.365 0.13 0.367 Z  M 0.072 0.371 C 0.072 0.375 0.066 0.385 0.064 0.385 C 0.063 0.385 0.063 0.387 0.063 0.388 C 0.063 0.396 0.054 0.405 0.051 0.4 C 0.049 0.397 0.044 0.396 0.043 0.399 C 0.043 0.401 0.04 0.402 0.038 0.402 C 0.034 0.402 0.033 0.403 0.033 0.408 C 0.033 0.411 0.035 0.413 0.036 0.413 C 0.038 0.413 0.04 0.416 0.042 0.419 C 0.043 0.422 0.045 0.424 0.046 0.423 C 0.047 0.422 0.048 0.422 0.049 0.424 C 0.052 0.429 0.057 0.429 0.06 0.425 C 0.065 0.42 0.068 0.421 0.067 0.427 C 0.065 0.435 0.068 0.434 0.07 0.426 C 0.072 0.42 0.07 0.413 0.066 0.413 C 0.065 0.413 0.064 0.411 0.064 0.408 C 0.064 0.401 0.07 0.4 0.071 0.406 C 0.072 0.408 0.072 0.407 0.072 0.405 C 0.072 0.4 0.077 0.391 0.08 0.391 C 0.08 0.391 0.081 0.393 0.08 0.396 C 0.08 0.4 0.08 0.402 0.081 0.402 C 0.084 0.402 0.083 0.393 0.081 0.387 C 0.079 0.384 0.079 0.381 0.079 0.379 C 0.08 0.378 0.079 0.377 0.077 0.377 C 0.075 0.377 0.074 0.375 0.073 0.372 C 0.073 0.369 0.072 0.369 0.072 0.371 Z  M 0.028 0.391 C 0.028 0.398 0.031 0.398 0.032 0.392 C 0.033 0.386 0.033 0.385 0.031 0.385 C 0.029 0.385 0.028 0.388 0.028 0.391 Z  M 0.002 0.413 C 0.002 0.419 0.005 0.423 0.005 0.417 C 0.005 0.413 0.004 0.41 0.003 0.41 C 0.002 0.41 0.002 0.411 0.002 0.413 Z  M 0.019 0.423 C 0.021 0.426 0.022 0.43 0.022 0.433 C 0.022 0.439 0.027 0.44 0.03 0.435 C 0.033 0.427 0.03 0.419 0.023 0.419 C 0.018 0.419 0.017 0.419 0.019 0.423 Z  M 0.898 0.432 C 0.898 0.434 0.9 0.439 0.902 0.445 L 0.905 0.454 L 0.909 0.448 C 0.913 0.442 0.912 0.433 0.908 0.433 C 0.906 0.433 0.904 0.432 0.902 0.431 C 0.9 0.43 0.898 0.431 0.898 0.432 Z  M 0.869 0.441 C 0.868 0.443 0.869 0.446 0.87 0.447 C 0.871 0.449 0.872 0.448 0.873 0.444 C 0.875 0.438 0.871 0.435 0.869 0.441 Z  M 0.853 0.455 C 0.854 0.456 0.853 0.458 0.852 0.459 C 0.85 0.46 0.849 0.46 0.848 0.458 C 0.848 0.456 0.847 0.456 0.846 0.458 C 0.845 0.46 0.843 0.463 0.841 0.465 C 0.835 0.471 0.839 0.472 0.848 0.466 C 0.855 0.46 0.859 0.452 0.854 0.452 C 0.853 0.452 0.853 0.453 0.853 0.455 Z  M 0.013 0.476 C 0.009 0.484 0.002 0.492 0.001 0.489 C 0 0.488 0 0.499 0 0.514 C 0 0.529 0.001 0.537 0.001 0.532 C 0.002 0.525 0.003 0.523 0.007 0.523 C 0.011 0.522 0.013 0.52 0.014 0.516 C 0.015 0.513 0.017 0.511 0.017 0.512 C 0.018 0.513 0.019 0.511 0.019 0.506 C 0.019 0.502 0.019 0.492 0.02 0.484 C 0.021 0.467 0.018 0.464 0.013 0.476 Z  M 0.968 0.513 C 0.965 0.517 0.96 0.524 0.957 0.529 C 0.955 0.534 0.951 0.539 0.948 0.54 C 0.945 0.541 0.943 0.544 0.942 0.55 C 0.94 0.559 0.936 0.562 0.932 0.56 C 0.93 0.558 0.93 0.561 0.929 0.571 C 0.928 0.585 0.93 0.595 0.933 0.595 C 0.937 0.595 0.957 0.615 0.961 0.623 L 0.964 0.631 L 0.961 0.638 C 0.956 0.648 0.96 0.654 0.983 0.669 C 0.987 0.671 0.991 0.676 0.992 0.679 C 1 0.705 1 0.704 1 0.63 L 1 0.562 L 0.976 0.563 C 0.96 0.564 0.952 0.563 0.95 0.561 C 0.948 0.557 0.948 0.553 0.951 0.553 C 0.952 0.553 0.957 0.55 0.961 0.546 C 0.967 0.54 0.972 0.538 0.98 0.538 L 0.99 0.537 L 0.99 0.522 L 0.99 0.507 L 0.982 0.507 C 0.977 0.506 0.973 0.508 0.968 0.513 Z  M 0.732 0.537 C 0.732 0.54 0.733 0.541 0.734 0.54 C 0.736 0.539 0.737 0.537 0.737 0.536 C 0.737 0.534 0.736 0.533 0.734 0.533 C 0.733 0.533 0.732 0.535 0.732 0.537 Z  M 0.067 0.62 C 0.068 0.623 0.066 0.634 0.065 0.634 C 0.061 0.634 0.059 0.629 0.061 0.623 C 0.063 0.617 0.065 0.615 0.067 0.62 Z  M 0.291 0.728 C 0.294 0.731 0.291 0.738 0.287 0.737 C 0.285 0.736 0.283 0.734 0.282 0.732 C 0.282 0.729 0.283 0.728 0.284 0.73 C 0.286 0.731 0.287 0.73 0.287 0.729 C 0.287 0.725 0.288 0.725 0.291 0.728 Z  M 0.241 0.734 C 0.241 0.742 0.25 0.749 0.252 0.743 C 0.252 0.741 0.251 0.74 0.249 0.74 C 0.247 0.74 0.246 0.738 0.245 0.736 C 0.244 0.731 0.241 0.73 0.241 0.734 Z  M 0.614 0.794 C 0.614 0.797 0.615 0.798 0.616 0.798 C 0.617 0.798 0.618 0.797 0.618 0.794 C 0.618 0.792 0.617 0.79 0.616 0.79 C 0.615 0.79 0.614 0.792 0.614 0.794 Z  M 0.583 0.826 C 0.583 0.827 0.585 0.829 0.586 0.83 C 0.589 0.831 0.589 0.831 0.588 0.828 C 0.586 0.823 0.583 0.822 0.583 0.826 Z  M 0.312 0.839 C 0.315 0.845 0.328 0.858 0.329 0.856 C 0.331 0.852 0.327 0.845 0.32 0.84 C 0.312 0.834 0.309 0.833 0.312 0.839 Z  M 0.485 0.842 C 0.483 0.843 0.48 0.845 0.479 0.846 C 0.477 0.848 0.476 0.848 0.475 0.848 C 0.474 0.847 0.473 0.848 0.473 0.85 C 0.471 0.857 0.472 0.859 0.474 0.855 C 0.475 0.853 0.476 0.853 0.477 0.853 C 0.478 0.854 0.482 0.852 0.485 0.85 C 0.489 0.847 0.493 0.845 0.494 0.846 C 0.496 0.846 0.497 0.845 0.496 0.843 C 0.495 0.84 0.494 0.84 0.485 0.842 Z  M 0.272 0.856 C 0.269 0.868 0.275 0.877 0.282 0.872 C 0.285 0.87 0.284 0.865 0.28 0.865 C 0.277 0.865 0.276 0.864 0.276 0.859 C 0.276 0.851 0.274 0.849 0.272 0.856 Z  M 0.33 0.857 C 0.329 0.861 0.33 0.863 0.333 0.862 C 0.335 0.861 0.335 0.861 0.333 0.858 C 0.332 0.855 0.331 0.855 0.33 0.857 Z  M 0.318 0.875 C 0.318 0.878 0.335 0.896 0.341 0.899 C 0.352 0.904 0.358 0.915 0.356 0.925 C 0.353 0.936 0.356 0.94 0.362 0.932 C 0.368 0.924 0.368 0.924 0.358 0.908 C 0.349 0.894 0.332 0.879 0.325 0.879 C 0.323 0.879 0.321 0.878 0.32 0.876 C 0.319 0.874 0.318 0.874 0.318 0.875 Z  M 0.309 0.896 C 0.309 0.897 0.307 0.899 0.305 0.901 C 0.302 0.903 0.313 0.924 0.318 0.924 C 0.319 0.924 0.321 0.932 0.322 0.941 C 0.322 0.945 0.322 0.945 0.319 0.943 C 0.309 0.937 0.303 0.961 0.31 0.974 C 0.316 0.983 0.316 0.986 0.313 0.986 C 0.31 0.986 0.31 0.988 0.311 0.995 C 0.313 1.001 0.357 1.002 0.357 0.996 C 0.357 0.993 0.358 0.992 0.36 0.993 C 0.362 0.994 0.363 0.996 0.363 0.997 C 0.362 0.998 0.363 1 0.365 1 C 0.369 1 0.372 0.992 0.37 0.99 C 0.369 0.989 0.368 0.986 0.368 0.984 C 0.368 0.965 0.332 0.902 0.321 0.901 C 0.318 0.9 0.314 0.898 0.312 0.897 C 0.31 0.895 0.309 0.894 0.309 0.896 Z " fill-rule="evenodd" fill="rgb(0,0,0)"/></g></g></svg>