<?xml version="1.0" encoding="UTF-8" standalone="no"?><!-- Generator: Gravit.io --><svg xmlns="http://www.w3.org/2000/svg" xmlns:xlink="http://www.w3.org/1999/xlink" style="isolation:isolate" viewBox="0 0 1 1" width="1pt" height="1pt"><defs><clipPath id="_clipPath_UUOLfTv41mRFLZav0LZFYCZ7yIKfhb9d"><rect width="1" height="1"/></clipPath></defs><g clip-path="url(#_clipPath_UUOLfTv41mRFLZav0LZFYCZ7yIKfhb9d)"><g><path d=" M 0 0.201 C 0 0.333 0.001 0.402 0.002 0.402 C 0.002 0.402 0.003 0.404 0.003 0.406 C 0.003 0.409 0.002 0.411 0.002 0.411 C -0.001 0.411 0 0.427 0.002 0.428 C 0.003 0.428 0.007 0.428 0.01 0.428 C 0.014 0.427 0.016 0.429 0.017 0.432 C 0.018 0.44 0.021 0.443 0.026 0.443 C 0.029 0.443 0.03 0.442 0.029 0.44 C 0.028 0.434 0.034 0.426 0.036 0.431 C 0.038 0.433 0.042 0.435 0.049 0.435 C 0.054 0.436 0.06 0.437 0.061 0.437 C 0.064 0.439 0.066 0.428 0.067 0.415 C 0.067 0.411 0.068 0.409 0.07 0.41 C 0.073 0.41 0.073 0.409 0.073 0.405 C 0.072 0.399 0.075 0.395 0.076 0.401 C 0.077 0.406 0.082 0.402 0.082 0.395 C 0.082 0.394 0.083 0.389 0.085 0.385 C 0.087 0.382 0.089 0.377 0.089 0.376 C 0.089 0.371 0.095 0.372 0.095 0.377 C 0.095 0.405 0.099 0.407 0.109 0.387 C 0.119 0.369 0.118 0.37 0.123 0.379 L 0.127 0.386 L 0.131 0.376 C 0.134 0.369 0.135 0.362 0.135 0.355 C 0.134 0.347 0.134 0.346 0.134 0.353 C 0.133 0.358 0.132 0.36 0.13 0.36 C 0.127 0.36 0.124 0.352 0.126 0.35 C 0.127 0.349 0.129 0.341 0.131 0.334 C 0.133 0.326 0.134 0.319 0.135 0.318 C 0.136 0.317 0.137 0.308 0.139 0.295 C 0.139 0.292 0.139 0.288 0.14 0.288 C 0.14 0.287 0.14 0.284 0.14 0.281 C 0.139 0.278 0.14 0.274 0.141 0.272 C 0.142 0.269 0.144 0.263 0.144 0.259 C 0.144 0.254 0.144 0.246 0.145 0.24 C 0.145 0.229 0.152 0.223 0.152 0.234 C 0.152 0.238 0.153 0.24 0.154 0.24 C 0.155 0.24 0.155 0.237 0.155 0.23 C 0.154 0.218 0.155 0.203 0.157 0.205 C 0.158 0.205 0.159 0.208 0.159 0.21 C 0.158 0.213 0.159 0.215 0.16 0.215 C 0.163 0.215 0.168 0.23 0.167 0.237 C 0.166 0.245 0.17 0.251 0.172 0.243 C 0.172 0.24 0.174 0.235 0.175 0.233 C 0.177 0.23 0.177 0.228 0.176 0.227 C 0.173 0.223 0.172 0.215 0.175 0.213 C 0.178 0.211 0.178 0.207 0.172 0.198 C 0.168 0.191 0.166 0.186 0.166 0.179 C 0.166 0.174 0.165 0.17 0.165 0.17 C 0.161 0.17 0.163 0.158 0.168 0.154 C 0.174 0.149 0.176 0.152 0.176 0.166 C 0.176 0.173 0.176 0.179 0.177 0.179 C 0.178 0.179 0.179 0.183 0.179 0.187 C 0.18 0.192 0.181 0.196 0.183 0.196 C 0.184 0.196 0.185 0.197 0.186 0.2 C 0.188 0.209 0.189 0.203 0.189 0.183 C 0.189 0.161 0.193 0.147 0.199 0.154 C 0.201 0.158 0.201 0.182 0.198 0.192 C 0.195 0.203 0.195 0.206 0.199 0.205 C 0.202 0.203 0.203 0.208 0.201 0.211 C 0.2 0.212 0.2 0.215 0.2 0.217 C 0.2 0.223 0.207 0.226 0.207 0.22 C 0.207 0.214 0.21 0.21 0.214 0.212 C 0.217 0.214 0.217 0.216 0.217 0.222 C 0.216 0.228 0.216 0.229 0.218 0.228 C 0.219 0.227 0.219 0.225 0.219 0.224 C 0.218 0.223 0.22 0.218 0.221 0.211 C 0.225 0.2 0.227 0.161 0.227 0.124 C 0.227 0.109 0.232 0.104 0.232 0.117 C 0.233 0.126 0.233 0.127 0.235 0.134 C 0.236 0.137 0.237 0.143 0.236 0.147 C 0.235 0.155 0.239 0.16 0.244 0.158 C 0.247 0.157 0.247 0.157 0.247 0.161 C 0.245 0.167 0.25 0.163 0.253 0.155 C 0.255 0.149 0.255 0.148 0.253 0.148 C 0.251 0.148 0.251 0.145 0.251 0.138 C 0.251 0.131 0.251 0.129 0.252 0.133 C 0.253 0.142 0.255 0.141 0.257 0.13 C 0.258 0.124 0.261 0.119 0.264 0.116 C 0.268 0.112 0.269 0.112 0.265 0.112 C 0.262 0.112 0.261 0.111 0.264 0.105 C 0.266 0.1 0.266 0.098 0.264 0.097 C 0.263 0.096 0.263 0.095 0.265 0.091 C 0.268 0.084 0.271 0.085 0.27 0.093 C 0.27 0.097 0.27 0.101 0.271 0.102 C 0.272 0.103 0.272 0.105 0.272 0.107 C 0.271 0.108 0.272 0.109 0.274 0.108 C 0.276 0.108 0.277 0.105 0.277 0.1 C 0.277 0.095 0.279 0.092 0.28 0.092 C 0.286 0.092 0.291 0.076 0.292 0.051 C 0.293 0.038 0.294 0.027 0.295 0.026 C 0.296 0.025 0.296 0.02 0.296 0.014 C 0.296 0.006 0.297 0.003 0.299 0.002 C 0.3 0.001 0.234 0.001 0.151 0 L 0 0 L 0 0.201 Z  M 0.347 0.002 C 0.349 0.005 0.356 0.005 0.356 0.002 C 0.356 0.001 0.354 0 0.351 0 C 0.348 0 0.346 0.001 0.347 0.002 Z  M 0.636 0.002 C 0.639 0.006 0.636 0.017 0.63 0.024 C 0.628 0.027 0.626 0.031 0.626 0.034 C 0.626 0.036 0.625 0.04 0.623 0.042 C 0.621 0.046 0.62 0.047 0.623 0.048 C 0.624 0.049 0.625 0.049 0.625 0.047 C 0.625 0.046 0.626 0.045 0.627 0.046 C 0.628 0.047 0.629 0.046 0.629 0.044 C 0.629 0.039 0.646 0.039 0.649 0.044 C 0.651 0.048 0.647 0.059 0.645 0.057 C 0.642 0.055 0.633 0.062 0.634 0.065 C 0.635 0.07 0.642 0.072 0.649 0.069 C 0.655 0.066 0.655 0.066 0.659 0.073 C 0.661 0.078 0.664 0.08 0.665 0.079 C 0.673 0.07 0.683 0.096 0.675 0.106 C 0.667 0.116 0.657 0.135 0.657 0.141 C 0.657 0.144 0.657 0.145 0.658 0.145 C 0.658 0.144 0.66 0.145 0.663 0.147 C 0.665 0.149 0.668 0.15 0.67 0.148 C 0.673 0.146 0.681 0.144 0.686 0.145 C 0.688 0.145 0.688 0.147 0.686 0.152 C 0.68 0.163 0.679 0.17 0.681 0.172 C 0.683 0.172 0.683 0.174 0.683 0.176 C 0.681 0.179 0.684 0.18 0.686 0.177 C 0.686 0.176 0.694 0.175 0.703 0.174 C 0.712 0.174 0.719 0.175 0.718 0.176 C 0.715 0.179 0.717 0.192 0.721 0.195 C 0.724 0.198 0.743 0.19 0.747 0.184 C 0.749 0.181 0.751 0.181 0.751 0.184 C 0.751 0.186 0.749 0.188 0.748 0.188 C 0.746 0.189 0.744 0.193 0.743 0.196 C 0.742 0.2 0.739 0.206 0.736 0.209 C 0.733 0.213 0.73 0.219 0.73 0.221 C 0.729 0.224 0.726 0.227 0.724 0.228 C 0.716 0.232 0.715 0.242 0.723 0.243 C 0.727 0.243 0.73 0.245 0.732 0.246 C 0.733 0.248 0.734 0.248 0.736 0.246 C 0.737 0.244 0.738 0.244 0.739 0.245 C 0.74 0.248 0.749 0.248 0.75 0.245 C 0.751 0.244 0.752 0.244 0.752 0.245 C 0.753 0.245 0.754 0.245 0.754 0.243 C 0.754 0.241 0.754 0.24 0.755 0.241 C 0.756 0.242 0.76 0.243 0.765 0.244 C 0.77 0.245 0.774 0.247 0.774 0.247 C 0.775 0.249 0.771 0.263 0.769 0.263 C 0.768 0.263 0.766 0.264 0.764 0.267 C 0.76 0.272 0.763 0.278 0.768 0.275 C 0.774 0.273 0.765 0.301 0.755 0.318 C 0.752 0.323 0.75 0.329 0.75 0.33 C 0.751 0.333 0.763 0.323 0.763 0.32 C 0.763 0.312 0.77 0.302 0.774 0.302 C 0.779 0.302 0.779 0.302 0.779 0.316 C 0.779 0.33 0.784 0.335 0.789 0.325 C 0.791 0.32 0.794 0.32 0.795 0.325 C 0.795 0.327 0.8 0.321 0.806 0.31 L 0.816 0.293 L 0.816 0.302 C 0.817 0.307 0.816 0.315 0.814 0.321 C 0.811 0.33 0.811 0.33 0.815 0.335 C 0.822 0.345 0.84 0.334 0.834 0.323 C 0.831 0.317 0.832 0.31 0.837 0.306 C 0.84 0.304 0.843 0.303 0.843 0.305 C 0.843 0.306 0.844 0.306 0.846 0.304 C 0.848 0.302 0.848 0.303 0.847 0.31 C 0.846 0.318 0.846 0.319 0.848 0.316 C 0.853 0.308 0.853 0.322 0.849 0.334 C 0.846 0.342 0.846 0.346 0.848 0.346 C 0.858 0.346 0.866 0.358 0.861 0.364 C 0.86 0.365 0.859 0.369 0.859 0.373 C 0.859 0.379 0.86 0.379 0.862 0.376 C 0.863 0.374 0.867 0.37 0.871 0.367 C 0.874 0.364 0.878 0.359 0.879 0.355 C 0.881 0.346 0.884 0.344 0.892 0.345 C 0.896 0.346 0.899 0.346 0.9 0.346 C 0.901 0.346 0.901 0.348 0.901 0.351 C 0.901 0.353 0.902 0.355 0.903 0.355 C 0.904 0.355 0.904 0.356 0.904 0.358 C 0.904 0.36 0.904 0.365 0.905 0.369 C 0.908 0.379 0.908 0.387 0.904 0.39 C 0.899 0.394 0.895 0.406 0.894 0.418 C 0.894 0.425 0.893 0.428 0.89 0.431 C 0.885 0.436 0.885 0.44 0.892 0.445 C 0.9 0.451 0.9 0.455 0.893 0.463 C 0.886 0.471 0.886 0.474 0.89 0.483 C 0.894 0.491 0.9 0.486 0.901 0.473 C 0.901 0.469 0.903 0.464 0.905 0.461 C 0.906 0.459 0.91 0.453 0.912 0.449 C 0.917 0.441 0.921 0.443 0.922 0.453 C 0.922 0.454 0.923 0.458 0.925 0.461 C 0.929 0.469 0.925 0.487 0.92 0.482 C 0.919 0.48 0.918 0.481 0.919 0.483 C 0.92 0.485 0.92 0.486 0.919 0.486 C 0.915 0.486 0.917 0.505 0.921 0.508 C 0.929 0.514 0.933 0.518 0.933 0.522 C 0.933 0.524 0.933 0.525 0.934 0.525 C 0.935 0.525 0.936 0.524 0.936 0.523 C 0.936 0.521 0.938 0.521 0.941 0.521 C 0.945 0.522 0.949 0.521 0.95 0.519 C 0.953 0.517 0.953 0.517 0.952 0.522 C 0.95 0.529 0.944 0.535 0.938 0.538 C 0.935 0.539 0.931 0.542 0.929 0.544 C 0.927 0.546 0.923 0.548 0.921 0.548 C 0.918 0.549 0.917 0.55 0.917 0.556 C 0.917 0.56 0.917 0.569 0.916 0.576 C 0.915 0.587 0.915 0.589 0.917 0.589 C 0.921 0.589 0.938 0.605 0.941 0.611 C 0.945 0.618 0.943 0.626 0.939 0.626 C 0.929 0.626 0.94 0.636 0.962 0.647 C 0.97 0.651 0.972 0.654 0.982 0.672 C 0.988 0.683 0.995 0.693 0.996 0.694 L 1 0.696 L 1 0.621 L 1 0.545 L 0.996 0.546 C 0.992 0.547 0.991 0.544 0.994 0.541 C 0.996 0.538 0.997 0.526 0.995 0.523 C 0.994 0.521 0.994 0.518 0.994 0.516 C 0.996 0.507 0.998 0.511 0.999 0.523 C 0.999 0.53 1 0.415 1 0.267 L 1 0 L 0.817 0 C 0.716 0 0.635 0.001 0.636 0.002 Z  M 0.284 0.075 C 0.285 0.077 0.285 0.078 0.284 0.078 C 0.283 0.078 0.282 0.081 0.282 0.084 C 0.282 0.087 0.281 0.089 0.28 0.089 C 0.278 0.089 0.277 0.087 0.277 0.081 C 0.277 0.072 0.279 0.071 0.284 0.075 Z  M 0.527 0.092 C 0.526 0.097 0.523 0.101 0.521 0.102 C 0.519 0.103 0.515 0.108 0.511 0.115 C 0.502 0.132 0.484 0.127 0.484 0.107 C 0.484 0.103 0.484 0.103 0.482 0.108 C 0.479 0.116 0.475 0.116 0.474 0.109 C 0.473 0.104 0.473 0.104 0.469 0.107 C 0.466 0.109 0.465 0.109 0.464 0.106 C 0.463 0.104 0.461 0.102 0.458 0.103 C 0.454 0.104 0.453 0.103 0.453 0.099 C 0.453 0.096 0.452 0.095 0.449 0.096 C 0.448 0.097 0.443 0.098 0.439 0.098 C 0.434 0.098 0.433 0.099 0.434 0.102 C 0.434 0.105 0.434 0.106 0.432 0.106 C 0.43 0.106 0.428 0.108 0.427 0.109 C 0.426 0.111 0.425 0.111 0.424 0.109 C 0.424 0.108 0.422 0.107 0.421 0.108 C 0.419 0.109 0.417 0.107 0.415 0.105 C 0.414 0.102 0.412 0.101 0.412 0.103 C 0.412 0.107 0.404 0.11 0.402 0.107 C 0.398 0.1 0.39 0.1 0.39 0.106 C 0.39 0.109 0.389 0.112 0.388 0.113 C 0.383 0.116 0.387 0.124 0.393 0.124 C 0.397 0.123 0.4 0.124 0.4 0.126 C 0.402 0.13 0.406 0.129 0.406 0.124 C 0.406 0.12 0.413 0.118 0.415 0.123 C 0.416 0.127 0.419 0.126 0.418 0.122 C 0.416 0.114 0.424 0.114 0.427 0.122 C 0.431 0.131 0.431 0.131 0.43 0.136 C 0.429 0.139 0.427 0.139 0.422 0.137 C 0.419 0.135 0.414 0.135 0.41 0.137 C 0.407 0.138 0.398 0.141 0.391 0.144 C 0.38 0.148 0.378 0.149 0.373 0.159 C 0.358 0.191 0.358 0.19 0.352 0.19 C 0.347 0.189 0.337 0.194 0.333 0.199 C 0.332 0.2 0.332 0.204 0.332 0.209 C 0.333 0.215 0.332 0.216 0.33 0.214 C 0.328 0.213 0.327 0.213 0.326 0.215 C 0.322 0.225 0.316 0.211 0.315 0.193 L 0.315 0.175 L 0.32 0.177 C 0.324 0.178 0.324 0.178 0.324 0.173 C 0.324 0.17 0.325 0.168 0.326 0.168 C 0.329 0.168 0.332 0.175 0.332 0.18 C 0.332 0.184 0.333 0.184 0.335 0.179 L 0.338 0.172 L 0.343 0.178 L 0.348 0.184 L 0.349 0.179 C 0.349 0.175 0.351 0.173 0.352 0.174 C 0.358 0.178 0.369 0.14 0.366 0.128 C 0.365 0.124 0.364 0.123 0.364 0.125 C 0.364 0.127 0.362 0.128 0.36 0.128 C 0.357 0.128 0.354 0.131 0.351 0.133 C 0.344 0.141 0.335 0.155 0.333 0.159 C 0.333 0.161 0.331 0.161 0.328 0.16 C 0.326 0.159 0.324 0.16 0.324 0.162 C 0.324 0.165 0.322 0.165 0.315 0.164 C 0.31 0.164 0.306 0.164 0.307 0.165 C 0.308 0.169 0.3 0.181 0.295 0.182 L 0.291 0.183 L 0.296 0.187 C 0.299 0.189 0.301 0.192 0.301 0.193 C 0.301 0.194 0.302 0.197 0.303 0.2 C 0.306 0.205 0.306 0.205 0.305 0.2 C 0.304 0.194 0.307 0.194 0.308 0.2 C 0.308 0.202 0.31 0.204 0.311 0.204 C 0.313 0.204 0.316 0.212 0.315 0.214 C 0.314 0.214 0.309 0.216 0.303 0.217 C 0.284 0.222 0.28 0.224 0.278 0.228 C 0.276 0.23 0.273 0.233 0.271 0.234 C 0.268 0.235 0.266 0.236 0.266 0.238 C 0.265 0.239 0.263 0.24 0.262 0.24 C 0.26 0.24 0.258 0.243 0.257 0.246 C 0.256 0.249 0.253 0.255 0.249 0.258 L 0.243 0.265 L 0.24 0.26 L 0.236 0.254 L 0.234 0.263 C 0.231 0.272 0.208 0.296 0.202 0.296 C 0.201 0.296 0.199 0.298 0.197 0.3 C 0.196 0.303 0.195 0.304 0.193 0.304 C 0.192 0.304 0.188 0.308 0.185 0.312 C 0.181 0.317 0.176 0.321 0.174 0.322 C 0.168 0.326 0.147 0.376 0.147 0.388 C 0.147 0.39 0.146 0.394 0.145 0.396 C 0.144 0.399 0.144 0.405 0.146 0.425 C 0.148 0.45 0.148 0.452 0.157 0.471 C 0.158 0.473 0.158 0.476 0.158 0.479 C 0.158 0.481 0.161 0.488 0.164 0.495 C 0.169 0.507 0.169 0.508 0.166 0.51 C 0.162 0.512 0.16 0.51 0.16 0.504 C 0.16 0.496 0.155 0.5 0.147 0.515 C 0.142 0.524 0.138 0.531 0.137 0.531 C 0.133 0.531 0.131 0.544 0.133 0.553 C 0.134 0.557 0.135 0.563 0.134 0.565 C 0.132 0.569 0.132 0.587 0.133 0.587 C 0.135 0.587 0.134 0.601 0.131 0.612 C 0.128 0.623 0.125 0.626 0.125 0.619 C 0.125 0.611 0.123 0.614 0.118 0.627 C 0.113 0.64 0.11 0.643 0.11 0.634 C 0.11 0.626 0.105 0.62 0.1 0.62 C 0.098 0.62 0.096 0.619 0.096 0.618 C 0.096 0.617 0.094 0.614 0.092 0.612 C 0.09 0.61 0.089 0.61 0.09 0.612 C 0.091 0.613 0.09 0.615 0.088 0.615 C 0.086 0.615 0.085 0.613 0.085 0.611 C 0.085 0.609 0.083 0.604 0.082 0.601 C 0.08 0.597 0.078 0.593 0.078 0.592 C 0.078 0.59 0.077 0.589 0.076 0.589 C 0.075 0.589 0.073 0.584 0.072 0.577 C 0.068 0.562 0.07 0.549 0.076 0.551 C 0.077 0.552 0.078 0.551 0.077 0.55 C 0.077 0.547 0.079 0.546 0.083 0.547 C 0.085 0.548 0.086 0.545 0.087 0.542 C 0.088 0.534 0.09 0.535 0.095 0.545 C 0.104 0.567 0.123 0.546 0.122 0.514 C 0.122 0.507 0.122 0.504 0.121 0.506 C 0.12 0.514 0.112 0.515 0.107 0.508 C 0.102 0.503 0.101 0.5 0.102 0.492 C 0.102 0.49 0.101 0.486 0.1 0.484 C 0.099 0.481 0.097 0.476 0.096 0.471 C 0.093 0.46 0.086 0.455 0.08 0.459 C 0.074 0.463 0.074 0.464 0.077 0.467 C 0.079 0.469 0.079 0.47 0.077 0.473 C 0.076 0.474 0.075 0.478 0.075 0.48 C 0.075 0.482 0.073 0.489 0.07 0.496 C 0.068 0.502 0.066 0.51 0.065 0.514 C 0.065 0.517 0.064 0.52 0.062 0.521 C 0.058 0.523 0.055 0.538 0.057 0.546 C 0.058 0.549 0.056 0.571 0.054 0.581 C 0.053 0.583 0.053 0.595 0.053 0.608 C 0.052 0.629 0.047 0.663 0.044 0.669 C 0.042 0.673 0.042 0.663 0.044 0.651 C 0.045 0.645 0.046 0.637 0.046 0.632 C 0.046 0.627 0.046 0.623 0.047 0.623 C 0.049 0.623 0.047 0.594 0.045 0.591 C 0.044 0.589 0.044 0.591 0.044 0.597 C 0.044 0.603 0.044 0.607 0.042 0.609 C 0.041 0.61 0.039 0.615 0.039 0.621 C 0.037 0.627 0.036 0.63 0.034 0.63 C 0.029 0.63 0.029 0.619 0.033 0.611 L 0.037 0.605 L 0.033 0.601 C 0.031 0.597 0.03 0.594 0.031 0.582 C 0.032 0.573 0.031 0.567 0.029 0.56 C 0.025 0.547 0.023 0.549 0.023 0.565 C 0.024 0.575 0.023 0.58 0.02 0.584 C 0.019 0.588 0.017 0.591 0.017 0.592 C 0.017 0.596 0.002 0.594 0.001 0.59 C 0.001 0.587 0 0.679 0 0.793 L 0 1 L 0.14 1 C 0.229 1 0.28 0.999 0.28 0.997 C 0.279 0.996 0.28 0.99 0.282 0.984 C 0.287 0.969 0.286 0.965 0.276 0.958 C 0.272 0.955 0.272 0.955 0.275 0.951 C 0.28 0.944 0.282 0.934 0.281 0.923 C 0.28 0.916 0.28 0.913 0.281 0.912 C 0.282 0.911 0.286 0.91 0.289 0.908 C 0.292 0.906 0.295 0.903 0.295 0.902 C 0.295 0.9 0.292 0.899 0.289 0.9 C 0.286 0.901 0.281 0.9 0.278 0.898 L 0.274 0.895 L 0.279 0.889 C 0.281 0.885 0.284 0.881 0.284 0.879 C 0.284 0.87 0.313 0.865 0.317 0.873 C 0.318 0.875 0.319 0.877 0.321 0.877 C 0.322 0.877 0.326 0.881 0.331 0.887 C 0.335 0.892 0.341 0.897 0.345 0.898 C 0.353 0.901 0.355 0.902 0.36 0.908 C 0.364 0.914 0.365 0.924 0.362 0.929 C 0.359 0.935 0.366 0.942 0.371 0.938 C 0.375 0.936 0.375 0.935 0.373 0.934 C 0.37 0.933 0.37 0.932 0.372 0.929 C 0.376 0.924 0.372 0.914 0.364 0.907 C 0.361 0.904 0.359 0.9 0.359 0.899 C 0.359 0.891 0.322 0.863 0.311 0.863 C 0.308 0.863 0.303 0.862 0.302 0.861 C 0.3 0.859 0.294 0.86 0.289 0.862 C 0.277 0.867 0.274 0.865 0.275 0.852 C 0.276 0.845 0.276 0.844 0.274 0.844 C 0.272 0.844 0.271 0.845 0.271 0.848 C 0.271 0.854 0.261 0.85 0.258 0.843 C 0.258 0.841 0.256 0.842 0.254 0.843 C 0.25 0.848 0.246 0.844 0.247 0.837 C 0.248 0.834 0.248 0.829 0.248 0.828 C 0.248 0.826 0.25 0.824 0.251 0.824 C 0.253 0.824 0.254 0.823 0.253 0.821 C 0.253 0.82 0.253 0.818 0.254 0.817 C 0.255 0.816 0.256 0.812 0.256 0.808 C 0.257 0.804 0.258 0.799 0.26 0.797 C 0.263 0.793 0.256 0.793 0.244 0.798 L 0.239 0.801 L 0.24 0.79 C 0.24 0.784 0.241 0.78 0.24 0.78 C 0.239 0.78 0.237 0.779 0.234 0.777 C 0.232 0.775 0.229 0.773 0.228 0.772 C 0.224 0.77 0.226 0.76 0.231 0.749 C 0.236 0.739 0.237 0.739 0.242 0.742 C 0.249 0.747 0.251 0.747 0.255 0.74 C 0.259 0.735 0.259 0.735 0.263 0.742 C 0.265 0.746 0.268 0.749 0.271 0.749 C 0.276 0.749 0.279 0.757 0.276 0.759 C 0.273 0.761 0.278 0.773 0.282 0.777 C 0.285 0.779 0.287 0.783 0.288 0.787 C 0.288 0.791 0.29 0.793 0.291 0.792 C 0.295 0.79 0.302 0.797 0.302 0.802 C 0.302 0.804 0.303 0.806 0.304 0.805 C 0.305 0.805 0.307 0.806 0.309 0.809 C 0.311 0.811 0.314 0.813 0.315 0.813 C 0.319 0.813 0.333 0.821 0.335 0.825 C 0.337 0.827 0.34 0.83 0.344 0.832 C 0.347 0.834 0.351 0.838 0.353 0.842 C 0.355 0.846 0.357 0.849 0.359 0.849 C 0.36 0.849 0.366 0.852 0.372 0.855 C 0.382 0.861 0.393 0.859 0.391 0.852 C 0.39 0.85 0.395 0.838 0.397 0.838 C 0.397 0.838 0.398 0.84 0.399 0.843 C 0.399 0.846 0.399 0.845 0.4 0.84 C 0.4 0.835 0.399 0.832 0.397 0.831 C 0.396 0.83 0.395 0.827 0.395 0.825 C 0.395 0.823 0.393 0.821 0.391 0.82 C 0.389 0.819 0.387 0.816 0.387 0.814 C 0.387 0.812 0.387 0.81 0.386 0.81 C 0.385 0.81 0.383 0.806 0.381 0.8 C 0.379 0.795 0.376 0.791 0.375 0.791 C 0.374 0.791 0.373 0.788 0.373 0.785 C 0.373 0.776 0.366 0.765 0.362 0.767 C 0.359 0.768 0.359 0.768 0.359 0.764 C 0.361 0.757 0.358 0.748 0.355 0.752 C 0.354 0.755 0.354 0.756 0.355 0.758 C 0.357 0.76 0.351 0.768 0.348 0.767 C 0.346 0.766 0.345 0.767 0.344 0.769 C 0.343 0.777 0.324 0.774 0.324 0.767 C 0.325 0.75 0.326 0.745 0.328 0.74 C 0.331 0.734 0.329 0.714 0.325 0.688 C 0.322 0.67 0.322 0.67 0.328 0.673 C 0.333 0.675 0.333 0.676 0.333 0.687 C 0.334 0.709 0.342 0.749 0.344 0.74 C 0.345 0.73 0.349 0.73 0.351 0.739 L 0.352 0.747 L 0.355 0.739 C 0.358 0.732 0.361 0.729 0.361 0.735 C 0.361 0.739 0.389 0.788 0.393 0.789 C 0.395 0.79 0.397 0.792 0.397 0.794 C 0.397 0.795 0.398 0.796 0.4 0.795 C 0.402 0.794 0.403 0.794 0.404 0.797 C 0.404 0.799 0.407 0.802 0.409 0.803 C 0.412 0.804 0.415 0.807 0.415 0.81 C 0.416 0.813 0.418 0.815 0.42 0.815 C 0.426 0.815 0.429 0.818 0.43 0.824 C 0.431 0.831 0.431 0.831 0.431 0.825 C 0.431 0.816 0.432 0.816 0.442 0.819 C 0.447 0.82 0.453 0.82 0.461 0.817 C 0.471 0.813 0.489 0.812 0.516 0.814 C 0.528 0.814 0.529 0.815 0.531 0.821 C 0.533 0.829 0.536 0.828 0.536 0.819 C 0.537 0.814 0.538 0.812 0.539 0.812 C 0.54 0.813 0.543 0.813 0.544 0.813 C 0.545 0.813 0.55 0.812 0.554 0.812 C 0.558 0.811 0.562 0.81 0.563 0.807 C 0.564 0.805 0.566 0.803 0.568 0.803 C 0.575 0.802 0.585 0.796 0.593 0.788 C 0.597 0.783 0.603 0.777 0.606 0.775 C 0.608 0.773 0.612 0.766 0.615 0.761 C 0.618 0.755 0.622 0.751 0.627 0.749 C 0.631 0.747 0.636 0.742 0.638 0.739 C 0.64 0.735 0.643 0.732 0.645 0.731 C 0.647 0.731 0.648 0.728 0.649 0.724 C 0.649 0.72 0.651 0.716 0.654 0.714 C 0.657 0.712 0.658 0.71 0.657 0.708 C 0.656 0.706 0.656 0.704 0.658 0.701 C 0.659 0.698 0.66 0.698 0.662 0.701 C 0.663 0.702 0.665 0.704 0.666 0.704 C 0.668 0.704 0.668 0.703 0.666 0.701 C 0.663 0.698 0.665 0.691 0.669 0.691 C 0.671 0.691 0.672 0.688 0.673 0.682 C 0.674 0.678 0.676 0.673 0.677 0.672 C 0.68 0.671 0.68 0.669 0.679 0.662 C 0.679 0.656 0.679 0.654 0.68 0.654 C 0.681 0.654 0.682 0.652 0.681 0.648 C 0.681 0.646 0.681 0.642 0.682 0.64 C 0.684 0.638 0.684 0.633 0.684 0.629 C 0.684 0.625 0.685 0.619 0.686 0.616 C 0.687 0.612 0.688 0.609 0.688 0.607 C 0.687 0.6 0.688 0.592 0.69 0.592 C 0.694 0.592 0.699 0.581 0.699 0.574 C 0.699 0.569 0.7 0.567 0.703 0.565 C 0.706 0.564 0.707 0.562 0.707 0.554 C 0.707 0.548 0.708 0.541 0.709 0.539 C 0.711 0.536 0.711 0.534 0.71 0.534 C 0.709 0.534 0.708 0.535 0.708 0.536 C 0.706 0.541 0.702 0.54 0.702 0.535 C 0.702 0.533 0.703 0.529 0.705 0.527 C 0.706 0.525 0.707 0.519 0.707 0.515 C 0.707 0.499 0.709 0.495 0.72 0.483 C 0.726 0.477 0.73 0.47 0.73 0.469 C 0.73 0.468 0.731 0.465 0.732 0.463 C 0.743 0.443 0.747 0.4 0.74 0.383 C 0.738 0.379 0.737 0.374 0.737 0.37 C 0.737 0.363 0.731 0.346 0.727 0.341 C 0.725 0.339 0.724 0.335 0.724 0.333 C 0.724 0.33 0.723 0.323 0.721 0.317 C 0.719 0.311 0.718 0.304 0.718 0.302 C 0.718 0.3 0.715 0.295 0.713 0.29 C 0.704 0.276 0.701 0.263 0.705 0.261 C 0.707 0.26 0.708 0.258 0.708 0.257 C 0.708 0.253 0.706 0.253 0.705 0.257 C 0.704 0.258 0.702 0.258 0.701 0.255 C 0.698 0.25 0.698 0.25 0.702 0.244 C 0.704 0.24 0.706 0.236 0.706 0.234 C 0.706 0.232 0.707 0.228 0.707 0.226 C 0.707 0.223 0.708 0.219 0.709 0.217 C 0.715 0.206 0.712 0.195 0.703 0.2 C 0.698 0.203 0.686 0.213 0.685 0.216 C 0.684 0.219 0.682 0.218 0.682 0.214 C 0.683 0.207 0.682 0.205 0.676 0.201 C 0.672 0.2 0.669 0.197 0.669 0.195 C 0.669 0.194 0.668 0.193 0.667 0.193 C 0.663 0.194 0.65 0.181 0.651 0.176 C 0.651 0.173 0.651 0.17 0.65 0.17 C 0.65 0.17 0.649 0.172 0.649 0.174 C 0.649 0.181 0.646 0.182 0.642 0.178 C 0.639 0.174 0.637 0.174 0.635 0.177 C 0.632 0.18 0.628 0.177 0.631 0.174 C 0.633 0.171 0.635 0.162 0.633 0.162 C 0.632 0.162 0.632 0.163 0.632 0.164 C 0.632 0.168 0.623 0.173 0.621 0.17 C 0.619 0.169 0.614 0.167 0.609 0.166 C 0.604 0.165 0.598 0.162 0.596 0.16 C 0.594 0.158 0.59 0.156 0.588 0.156 C 0.585 0.156 0.58 0.155 0.577 0.152 C 0.573 0.15 0.568 0.148 0.565 0.148 C 0.562 0.148 0.559 0.146 0.558 0.144 C 0.557 0.142 0.554 0.14 0.551 0.139 C 0.548 0.137 0.547 0.135 0.547 0.131 C 0.547 0.123 0.544 0.122 0.542 0.129 C 0.54 0.139 0.539 0.139 0.533 0.135 L 0.528 0.132 L 0.532 0.129 C 0.534 0.127 0.536 0.124 0.536 0.121 C 0.536 0.118 0.537 0.113 0.537 0.109 C 0.537 0.105 0.537 0.1 0.536 0.098 C 0.535 0.097 0.534 0.093 0.535 0.09 C 0.536 0.081 0.529 0.083 0.527 0.092 Z  M 0.622 0.09 C 0.621 0.091 0.62 0.093 0.621 0.094 C 0.622 0.096 0.632 0.093 0.632 0.09 C 0.632 0.087 0.624 0.087 0.622 0.09 Z  M 0.58 0.112 C 0.58 0.115 0.579 0.117 0.577 0.117 C 0.576 0.117 0.575 0.118 0.577 0.121 C 0.579 0.125 0.582 0.124 0.581 0.12 C 0.58 0.119 0.581 0.117 0.581 0.116 C 0.582 0.115 0.584 0.117 0.585 0.121 C 0.587 0.13 0.589 0.131 0.589 0.122 C 0.589 0.118 0.589 0.115 0.588 0.115 C 0.587 0.115 0.586 0.113 0.587 0.11 C 0.587 0.107 0.587 0.106 0.584 0.106 C 0.583 0.106 0.581 0.108 0.58 0.112 Z  M 0.446 0.115 C 0.448 0.12 0.448 0.121 0.446 0.119 C 0.445 0.118 0.443 0.117 0.442 0.117 C 0.441 0.117 0.44 0.115 0.44 0.113 C 0.44 0.107 0.444 0.108 0.446 0.115 Z  M 0.568 0.118 C 0.566 0.121 0.566 0.124 0.566 0.125 C 0.568 0.127 0.571 0.121 0.57 0.117 C 0.57 0.115 0.569 0.115 0.568 0.118 Z  M 0.518 0.144 C 0.518 0.147 0.517 0.148 0.513 0.148 L 0.509 0.148 L 0.513 0.144 C 0.516 0.142 0.518 0.14 0.518 0.14 C 0.518 0.14 0.518 0.142 0.518 0.144 Z  M 0.669 0.165 C 0.666 0.168 0.665 0.179 0.667 0.179 C 0.67 0.178 0.674 0.171 0.674 0.167 C 0.674 0.161 0.673 0.161 0.669 0.165 Z  M 0.212 0.243 C 0.212 0.244 0.212 0.246 0.213 0.247 C 0.214 0.248 0.214 0.25 0.214 0.252 C 0.213 0.254 0.213 0.254 0.214 0.253 C 0.215 0.252 0.217 0.253 0.217 0.254 C 0.219 0.259 0.222 0.251 0.221 0.245 C 0.219 0.24 0.212 0.238 0.212 0.243 Z  M 0.169 0.259 C 0.169 0.262 0.168 0.266 0.169 0.268 C 0.171 0.273 0.176 0.265 0.175 0.259 C 0.174 0.253 0.171 0.253 0.169 0.259 Z  M 0.203 0.264 C 0.204 0.268 0.21 0.272 0.21 0.268 C 0.21 0.266 0.205 0.26 0.203 0.26 C 0.203 0.26 0.203 0.262 0.203 0.264 Z  M 0.072 0.35 C 0.074 0.356 0.075 0.375 0.073 0.372 C 0.071 0.369 0.069 0.37 0.065 0.374 C 0.061 0.377 0.056 0.38 0.052 0.38 C 0.048 0.38 0.045 0.381 0.045 0.383 C 0.045 0.387 0.039 0.386 0.038 0.382 C 0.037 0.375 0.042 0.362 0.046 0.364 C 0.047 0.365 0.051 0.362 0.054 0.356 C 0.061 0.346 0.069 0.343 0.072 0.35 Z  M 0.099 0.356 C 0.099 0.358 0.098 0.36 0.097 0.36 C 0.096 0.36 0.096 0.358 0.096 0.356 C 0.096 0.354 0.096 0.352 0.097 0.352 C 0.098 0.352 0.099 0.354 0.099 0.356 Z  M 0.807 0.355 C 0.805 0.357 0.805 0.359 0.807 0.365 C 0.809 0.379 0.818 0.375 0.816 0.36 C 0.815 0.355 0.81 0.352 0.807 0.355 Z  M 0.032 0.382 C 0.033 0.387 0.032 0.389 0.029 0.387 C 0.026 0.384 0.026 0.377 0.029 0.377 C 0.03 0.377 0.031 0.379 0.032 0.382 Z  M 0.919 0.381 C 0.925 0.388 0.926 0.403 0.922 0.419 C 0.917 0.437 0.915 0.438 0.908 0.427 C 0.9 0.416 0.9 0.413 0.904 0.407 C 0.907 0.403 0.908 0.395 0.909 0.381 C 0.91 0.378 0.915 0.378 0.919 0.381 Z  M 0.006 0.392 C 0.005 0.395 0.004 0.397 0.003 0.397 C 0.001 0.397 0.001 0.387 0.003 0.384 C 0.004 0.381 0.007 0.387 0.006 0.392 Z  M 0.033 0.398 C 0.033 0.401 0.032 0.402 0.031 0.402 C 0.028 0.4 0.028 0.394 0.03 0.394 C 0.032 0.394 0.033 0.396 0.033 0.398 Z  M 0.029 0.414 C 0.031 0.418 0.027 0.424 0.025 0.42 C 0.023 0.417 0.024 0.411 0.027 0.411 C 0.027 0.411 0.029 0.412 0.029 0.414 Z  M 0.865 0.421 C 0.865 0.422 0.863 0.426 0.86 0.428 C 0.856 0.433 0.847 0.446 0.833 0.469 C 0.829 0.474 0.826 0.481 0.826 0.483 C 0.826 0.487 0.829 0.487 0.83 0.483 C 0.83 0.482 0.838 0.474 0.847 0.466 C 0.857 0.458 0.864 0.449 0.865 0.447 C 0.865 0.445 0.867 0.44 0.869 0.437 C 0.871 0.434 0.871 0.431 0.87 0.427 C 0.868 0.421 0.865 0.418 0.865 0.421 Z  M 0.978 0.458 C 0.978 0.461 0.977 0.464 0.976 0.464 C 0.973 0.464 0.971 0.459 0.973 0.455 C 0.974 0.45 0.978 0.452 0.978 0.458 Z  M 0.96 0.461 C 0.963 0.466 0.963 0.466 0.957 0.471 C 0.948 0.477 0.945 0.473 0.951 0.461 C 0.955 0.454 0.956 0.454 0.96 0.461 Z  M 0.012 0.468 C 0.009 0.474 0.006 0.479 0.004 0.481 L 0 0.483 L 0 0.529 C 0 0.554 0.001 0.57 0.001 0.564 C 0.002 0.547 0.003 0.543 0.008 0.535 C 0.014 0.523 0.018 0.518 0.02 0.518 C 0.023 0.518 0.023 0.516 0.022 0.481 C 0.022 0.459 0.018 0.454 0.012 0.468 Z  M 0.987 0.479 C 0.987 0.488 0.983 0.497 0.978 0.497 C 0.972 0.497 0.972 0.495 0.974 0.484 C 0.977 0.474 0.987 0.47 0.987 0.479 Z  M 0.178 0.52 C 0.193 0.539 0.198 0.553 0.192 0.557 C 0.191 0.558 0.189 0.563 0.188 0.568 C 0.186 0.579 0.183 0.579 0.184 0.568 C 0.186 0.554 0.184 0.55 0.172 0.549 C 0.167 0.549 0.166 0.545 0.168 0.538 C 0.169 0.535 0.169 0.531 0.169 0.529 C 0.166 0.516 0.17 0.511 0.178 0.52 Z  M 0.731 0.54 C 0.73 0.55 0.73 0.553 0.733 0.553 C 0.734 0.553 0.735 0.551 0.735 0.55 C 0.735 0.548 0.737 0.544 0.739 0.542 C 0.742 0.538 0.742 0.538 0.739 0.536 C 0.734 0.532 0.732 0.533 0.731 0.54 Z  M 0.99 0.546 C 0.994 0.552 0.969 0.559 0.957 0.555 C 0.95 0.552 0.95 0.551 0.96 0.546 C 0.967 0.543 0.989 0.543 0.99 0.546 Z  M 0.208 0.557 C 0.214 0.563 0.216 0.566 0.213 0.571 C 0.211 0.576 0.208 0.574 0.209 0.569 C 0.21 0.567 0.21 0.567 0.209 0.568 C 0.207 0.571 0.202 0.563 0.202 0.557 C 0.202 0.552 0.202 0.552 0.208 0.557 Z  M 0.221 0.575 C 0.223 0.578 0.221 0.588 0.218 0.591 C 0.215 0.593 0.213 0.59 0.213 0.581 C 0.213 0.572 0.216 0.57 0.221 0.575 Z  M 0.026 0.589 C 0.027 0.596 0.026 0.601 0.023 0.599 C 0.021 0.597 0.022 0.584 0.023 0.584 C 0.024 0.584 0.025 0.586 0.026 0.589 Z  M 0.265 0.598 C 0.265 0.599 0.264 0.601 0.262 0.601 C 0.261 0.601 0.264 0.603 0.269 0.605 C 0.274 0.607 0.285 0.613 0.294 0.619 C 0.303 0.624 0.311 0.629 0.312 0.63 C 0.314 0.632 0.315 0.633 0.313 0.635 C 0.313 0.637 0.312 0.641 0.313 0.643 C 0.314 0.649 0.313 0.649 0.306 0.643 C 0.293 0.631 0.254 0.636 0.256 0.649 C 0.257 0.653 0.257 0.654 0.255 0.653 C 0.253 0.652 0.251 0.651 0.251 0.651 C 0.248 0.651 0.249 0.642 0.252 0.634 C 0.256 0.624 0.254 0.623 0.25 0.632 C 0.248 0.635 0.245 0.639 0.243 0.641 C 0.24 0.644 0.238 0.647 0.238 0.65 C 0.238 0.652 0.238 0.654 0.237 0.654 C 0.234 0.654 0.235 0.642 0.237 0.641 C 0.239 0.64 0.24 0.638 0.24 0.636 C 0.24 0.634 0.241 0.63 0.243 0.627 C 0.246 0.622 0.247 0.613 0.245 0.616 C 0.244 0.617 0.243 0.616 0.242 0.613 C 0.241 0.608 0.236 0.609 0.232 0.615 C 0.227 0.623 0.226 0.623 0.223 0.618 C 0.219 0.612 0.221 0.606 0.227 0.606 C 0.23 0.606 0.234 0.605 0.236 0.603 C 0.239 0.6 0.241 0.6 0.241 0.602 C 0.242 0.606 0.248 0.604 0.248 0.6 C 0.248 0.598 0.25 0.598 0.252 0.598 C 0.255 0.599 0.257 0.599 0.257 0.597 C 0.257 0.596 0.259 0.595 0.261 0.595 C 0.263 0.595 0.265 0.596 0.265 0.598 Z  M 0.145 0.62 C 0.146 0.62 0.147 0.622 0.148 0.625 C 0.148 0.628 0.149 0.626 0.148 0.622 C 0.148 0.611 0.154 0.611 0.16 0.622 C 0.163 0.629 0.164 0.63 0.161 0.632 C 0.159 0.634 0.157 0.638 0.155 0.64 C 0.151 0.647 0.149 0.646 0.149 0.638 C 0.149 0.632 0.148 0.631 0.148 0.634 C 0.146 0.637 0.146 0.636 0.145 0.633 C 0.145 0.63 0.143 0.628 0.142 0.628 C 0.141 0.628 0.139 0.627 0.139 0.624 C 0.139 0.619 0.137 0.619 0.136 0.624 C 0.135 0.626 0.135 0.626 0.133 0.624 C 0.132 0.621 0.132 0.62 0.134 0.617 C 0.136 0.615 0.138 0.611 0.139 0.608 C 0.14 0.603 0.14 0.603 0.141 0.611 C 0.142 0.616 0.144 0.62 0.145 0.62 Z  M 0.045 0.615 C 0.045 0.62 0.045 0.62 0.044 0.618 C 0.043 0.616 0.042 0.614 0.043 0.612 C 0.045 0.607 0.045 0.608 0.045 0.615 Z  M 0.208 0.62 C 0.208 0.622 0.207 0.622 0.206 0.621 C 0.204 0.62 0.204 0.622 0.207 0.626 C 0.211 0.632 0.214 0.65 0.212 0.652 C 0.211 0.653 0.208 0.652 0.204 0.651 C 0.199 0.649 0.195 0.65 0.192 0.652 C 0.189 0.656 0.187 0.656 0.186 0.653 C 0.185 0.651 0.184 0.651 0.182 0.655 C 0.18 0.658 0.179 0.659 0.179 0.657 C 0.179 0.655 0.182 0.652 0.185 0.649 C 0.188 0.646 0.191 0.643 0.191 0.643 C 0.191 0.642 0.193 0.637 0.196 0.632 C 0.199 0.625 0.2 0.621 0.199 0.62 C 0.198 0.619 0.198 0.618 0.2 0.617 C 0.204 0.615 0.208 0.617 0.208 0.62 Z  M 0.03 0.651 C 0.028 0.656 0.026 0.652 0.027 0.646 C 0.028 0.643 0.029 0.642 0.03 0.645 C 0.032 0.647 0.032 0.649 0.03 0.651 Z  M 0.175 0.665 C 0.174 0.666 0.173 0.666 0.173 0.664 C 0.172 0.663 0.173 0.66 0.174 0.659 C 0.175 0.658 0.177 0.658 0.177 0.66 C 0.177 0.661 0.177 0.664 0.175 0.665 Z  M 0.256 0.665 C 0.254 0.674 0.248 0.676 0.247 0.669 C 0.245 0.663 0.25 0.656 0.255 0.656 C 0.259 0.656 0.259 0.657 0.256 0.665 Z  M 0.216 0.67 C 0.215 0.678 0.228 0.693 0.231 0.688 C 0.232 0.687 0.233 0.688 0.234 0.69 C 0.235 0.693 0.235 0.693 0.238 0.69 C 0.24 0.686 0.24 0.686 0.239 0.691 C 0.238 0.697 0.249 0.687 0.253 0.679 C 0.258 0.669 0.262 0.671 0.261 0.683 C 0.26 0.692 0.261 0.693 0.263 0.695 C 0.272 0.699 0.263 0.718 0.252 0.718 C 0.249 0.718 0.235 0.732 0.227 0.745 C 0.222 0.751 0.222 0.752 0.22 0.747 C 0.217 0.74 0.222 0.723 0.227 0.723 C 0.228 0.724 0.23 0.706 0.229 0.703 C 0.228 0.7 0.223 0.706 0.219 0.713 C 0.216 0.72 0.207 0.718 0.203 0.709 C 0.202 0.706 0.2 0.704 0.198 0.705 C 0.197 0.706 0.196 0.705 0.196 0.702 C 0.195 0.694 0.196 0.687 0.198 0.687 C 0.2 0.687 0.202 0.684 0.203 0.679 C 0.209 0.665 0.218 0.658 0.216 0.67 Z  M 0.251 0.733 C 0.251 0.738 0.251 0.738 0.247 0.736 C 0.245 0.734 0.245 0.733 0.246 0.731 C 0.249 0.728 0.251 0.729 0.251 0.733 Z  M 0.292 0.732 C 0.292 0.733 0.29 0.735 0.289 0.735 C 0.288 0.735 0.287 0.733 0.287 0.732 C 0.287 0.73 0.288 0.729 0.29 0.729 C 0.292 0.729 0.293 0.73 0.292 0.732 Z  M 0.616 0.797 C 0.616 0.799 0.616 0.803 0.615 0.807 C 0.615 0.81 0.616 0.813 0.617 0.813 C 0.618 0.813 0.619 0.812 0.619 0.811 C 0.618 0.805 0.621 0.797 0.624 0.798 C 0.626 0.799 0.627 0.798 0.627 0.797 C 0.627 0.793 0.616 0.793 0.616 0.797 Z  M 0.294 0.799 C 0.293 0.801 0.293 0.802 0.294 0.802 C 0.294 0.802 0.295 0.802 0.297 0.803 C 0.298 0.804 0.299 0.803 0.299 0.801 C 0.299 0.797 0.295 0.796 0.294 0.799 Z  M 0.295 0.825 C 0.295 0.831 0.301 0.838 0.304 0.835 C 0.307 0.832 0.307 0.83 0.304 0.826 C 0.302 0.824 0.295 0.823 0.295 0.825 Z  M 0.395 0.836 C 0.395 0.839 0.393 0.839 0.39 0.835 C 0.389 0.834 0.389 0.831 0.389 0.828 C 0.391 0.823 0.395 0.829 0.395 0.836 Z  M 0.42 0.826 C 0.419 0.827 0.418 0.83 0.418 0.832 C 0.418 0.835 0.419 0.835 0.42 0.833 C 0.421 0.831 0.422 0.829 0.421 0.827 C 0.421 0.825 0.42 0.825 0.42 0.826 Z  M 0.308 0.83 C 0.306 0.834 0.314 0.846 0.319 0.848 C 0.322 0.849 0.328 0.854 0.333 0.859 C 0.351 0.877 0.354 0.868 0.338 0.846 C 0.326 0.831 0.31 0.822 0.308 0.83 Z  M 0.48 0.838 C 0.48 0.845 0.478 0.849 0.475 0.854 L 0.471 0.86 L 0.476 0.859 C 0.478 0.857 0.481 0.857 0.482 0.857 C 0.483 0.857 0.485 0.855 0.485 0.853 C 0.486 0.848 0.494 0.848 0.494 0.853 C 0.494 0.855 0.495 0.854 0.495 0.851 C 0.498 0.845 0.496 0.84 0.492 0.842 C 0.488 0.845 0.481 0.841 0.482 0.836 C 0.482 0.834 0.482 0.832 0.481 0.831 C 0.48 0.83 0.48 0.833 0.48 0.838 Z  M 0.306 0.889 C 0.306 0.891 0.306 0.891 0.307 0.89 C 0.308 0.889 0.309 0.89 0.309 0.892 C 0.309 0.894 0.306 0.898 0.304 0.9 L 0.299 0.903 L 0.303 0.904 C 0.306 0.905 0.307 0.907 0.308 0.912 C 0.309 0.916 0.31 0.919 0.311 0.919 C 0.317 0.919 0.319 0.934 0.313 0.941 C 0.306 0.95 0.305 0.967 0.311 0.975 C 0.312 0.976 0.312 0.979 0.311 0.982 C 0.31 0.985 0.31 0.988 0.31 0.99 C 0.31 0.991 0.307 0.993 0.303 0.992 C 0.302 0.992 0.301 0.994 0.3 0.996 C 0.3 0.999 0.305 1 0.331 1 C 0.363 1 0.363 1 0.363 0.994 C 0.362 0.988 0.363 0.987 0.366 0.994 C 0.373 1.006 0.377 0.983 0.37 0.969 C 0.368 0.964 0.364 0.955 0.362 0.949 C 0.36 0.943 0.357 0.936 0.355 0.934 C 0.353 0.932 0.35 0.926 0.349 0.921 C 0.343 0.902 0.31 0.877 0.306 0.889 Z  M 0.821 0.907 C 0.82 0.908 0.811 0.91 0.8 0.911 C 0.778 0.913 0.762 0.917 0.755 0.922 C 0.753 0.923 0.749 0.925 0.747 0.925 C 0.744 0.925 0.74 0.926 0.738 0.928 C 0.735 0.931 0.729 0.934 0.723 0.937 C 0.704 0.947 0.702 0.948 0.694 0.959 C 0.69 0.965 0.683 0.972 0.678 0.975 C 0.673 0.978 0.668 0.982 0.666 0.984 C 0.664 0.987 0.661 0.991 0.657 0.993 C 0.656 0.993 0.655 0.994 0.654 0.995 C 0.652 0.996 0.65 0.997 0.649 0.998 C 0.648 0.999 0.65 1 0.654 1 C 0.659 1 0.661 0.999 0.661 0.997 C 0.66 0.996 0.661 0.994 0.663 0.994 C 0.665 0.994 0.666 0.996 0.666 0.997 C 0.666 0.999 0.719 1 0.821 1 L 0.976 1 L 0.97 0.993 C 0.967 0.989 0.962 0.985 0.96 0.984 C 0.956 0.983 0.937 0.967 0.934 0.961 C 0.929 0.956 0.918 0.947 0.904 0.938 C 0.896 0.933 0.888 0.927 0.887 0.924 C 0.885 0.921 0.881 0.919 0.877 0.918 C 0.874 0.917 0.867 0.915 0.863 0.914 C 0.858 0.912 0.851 0.911 0.846 0.912 C 0.841 0.913 0.836 0.912 0.835 0.911 C 0.832 0.907 0.822 0.904 0.821 0.907 Z  M 0.32 0.993 C 0.318 0.998 0.318 0.997 0.316 0.985 L 0.315 0.978 L 0.318 0.983 C 0.32 0.987 0.321 0.99 0.32 0.993 Z " fill-rule="evenodd" fill="rgb(0,0,0)"/></g></g></svg>