<?xml version="1.0" encoding="UTF-8" standalone="no"?><!-- Generator: Gravit.io --><svg xmlns="http://www.w3.org/2000/svg" xmlns:xlink="http://www.w3.org/1999/xlink" style="isolation:isolate" viewBox="0 0 1 1" width="1pt" height="1pt"><defs><clipPath id="_clipPath_RUw0J0xqsxs4PXssN9hajsKMHbKPcGnX"><rect width="1" height="1"/></clipPath></defs><g clip-path="url(#_clipPath_RUw0J0xqsxs4PXssN9hajsKMHbKPcGnX)"><g><path d=" M 0 0.22 L 0 0.44 L 0.004 0.441 C 0.006 0.441 0.008 0.439 0.008 0.435 L 0.009 0.429 L 0.013 0.436 C 0.02 0.447 0.018 0.457 0.005 0.471 C 0.002 0.475 0.002 0.475 0.001 0.47 C 0.001 0.467 0 0.585 0 0.733 L 0 1 L 0.142 1 C 0.26 1 0.284 0.999 0.284 0.996 C 0.284 0.994 0.285 0.989 0.286 0.984 C 0.288 0.976 0.288 0.974 0.286 0.967 C 0.283 0.958 0.286 0.939 0.291 0.939 C 0.292 0.939 0.293 0.937 0.293 0.936 C 0.293 0.934 0.292 0.933 0.292 0.933 C 0.291 0.933 0.29 0.931 0.29 0.928 C 0.29 0.924 0.29 0.924 0.288 0.927 C 0.287 0.931 0.287 0.931 0.287 0.927 C 0.287 0.923 0.291 0.911 0.294 0.907 C 0.298 0.903 0.303 0.907 0.307 0.918 C 0.308 0.923 0.311 0.929 0.311 0.93 C 0.314 0.933 0.314 0.939 0.311 0.94 C 0.31 0.941 0.309 0.944 0.309 0.947 C 0.309 0.949 0.308 0.953 0.306 0.956 C 0.304 0.962 0.306 0.972 0.31 0.972 C 0.316 0.972 0.31 0.985 0.302 0.987 C 0.298 0.989 0.297 0.99 0.297 0.995 C 0.298 1 0.3 1 0.332 1 L 0.365 1 L 0.366 0.993 C 0.367 0.989 0.368 0.987 0.368 0.987 C 0.369 0.988 0.369 0.991 0.369 0.994 C 0.368 0.998 0.369 1 0.37 1 C 0.371 1 0.371 0.999 0.371 0.998 C 0.371 0.996 0.374 0.993 0.377 0.991 C 0.383 0.985 0.384 0.983 0.379 0.976 C 0.377 0.973 0.373 0.964 0.37 0.956 C 0.367 0.948 0.363 0.937 0.361 0.932 C 0.354 0.919 0.352 0.902 0.358 0.903 C 0.365 0.905 0.371 0.914 0.37 0.925 C 0.37 0.935 0.37 0.935 0.376 0.935 C 0.38 0.934 0.382 0.933 0.382 0.932 C 0.382 0.931 0.382 0.927 0.382 0.924 C 0.382 0.919 0.381 0.915 0.376 0.91 C 0.37 0.904 0.351 0.88 0.347 0.874 C 0.346 0.873 0.344 0.872 0.343 0.872 C 0.342 0.872 0.339 0.869 0.336 0.867 C 0.33 0.862 0.329 0.862 0.318 0.859 C 0.31 0.856 0.306 0.857 0.29 0.861 C 0.277 0.866 0.273 0.863 0.276 0.852 C 0.278 0.844 0.275 0.837 0.27 0.839 C 0.268 0.839 0.266 0.839 0.266 0.837 C 0.266 0.836 0.266 0.836 0.265 0.837 C 0.264 0.838 0.262 0.837 0.261 0.835 C 0.259 0.832 0.258 0.832 0.257 0.834 C 0.256 0.839 0.25 0.84 0.25 0.836 C 0.249 0.834 0.251 0.831 0.254 0.829 C 0.256 0.828 0.259 0.825 0.259 0.823 C 0.259 0.822 0.26 0.822 0.261 0.824 C 0.263 0.827 0.264 0.827 0.265 0.824 C 0.266 0.822 0.266 0.822 0.267 0.824 C 0.267 0.826 0.268 0.826 0.27 0.824 C 0.271 0.822 0.271 0.82 0.27 0.819 C 0.262 0.808 0.262 0.796 0.272 0.789 C 0.282 0.781 0.284 0.783 0.286 0.804 C 0.288 0.824 0.293 0.835 0.3 0.835 C 0.302 0.835 0.306 0.838 0.309 0.841 C 0.312 0.844 0.316 0.846 0.317 0.846 C 0.318 0.846 0.322 0.849 0.325 0.852 C 0.328 0.855 0.332 0.857 0.333 0.856 C 0.334 0.855 0.336 0.856 0.337 0.858 C 0.343 0.868 0.361 0.874 0.361 0.866 C 0.361 0.865 0.357 0.859 0.353 0.853 C 0.343 0.835 0.349 0.826 0.361 0.843 C 0.369 0.855 0.395 0.86 0.395 0.849 C 0.395 0.846 0.396 0.844 0.397 0.844 C 0.397 0.844 0.398 0.845 0.398 0.848 C 0.398 0.85 0.4 0.849 0.403 0.844 C 0.408 0.836 0.408 0.832 0.403 0.832 C 0.401 0.832 0.396 0.827 0.393 0.82 C 0.389 0.813 0.385 0.808 0.385 0.809 C 0.384 0.81 0.384 0.81 0.384 0.808 C 0.384 0.806 0.383 0.804 0.381 0.804 C 0.379 0.804 0.376 0.8 0.371 0.784 C 0.37 0.779 0.367 0.774 0.366 0.772 C 0.364 0.771 0.361 0.767 0.359 0.763 C 0.356 0.759 0.355 0.758 0.354 0.76 C 0.353 0.761 0.351 0.763 0.349 0.763 C 0.348 0.763 0.346 0.764 0.346 0.765 C 0.346 0.769 0.338 0.775 0.337 0.771 C 0.337 0.769 0.336 0.769 0.333 0.772 C 0.33 0.774 0.329 0.774 0.327 0.771 C 0.324 0.767 0.324 0.766 0.328 0.745 C 0.329 0.736 0.329 0.723 0.325 0.684 C 0.324 0.677 0.325 0.677 0.327 0.678 C 0.33 0.679 0.332 0.686 0.332 0.698 C 0.332 0.701 0.334 0.71 0.335 0.717 C 0.337 0.724 0.339 0.736 0.339 0.745 C 0.339 0.754 0.339 0.759 0.34 0.756 C 0.342 0.74 0.347 0.734 0.352 0.742 C 0.354 0.746 0.354 0.746 0.355 0.741 C 0.356 0.733 0.355 0.731 0.373 0.761 C 0.381 0.776 0.39 0.789 0.392 0.791 C 0.395 0.793 0.397 0.796 0.397 0.797 C 0.397 0.798 0.398 0.799 0.399 0.799 C 0.403 0.799 0.412 0.806 0.416 0.813 C 0.418 0.816 0.421 0.818 0.424 0.819 C 0.428 0.82 0.429 0.821 0.43 0.828 L 0.431 0.837 L 0.431 0.829 C 0.431 0.819 0.433 0.817 0.442 0.821 C 0.447 0.823 0.452 0.823 0.46 0.82 C 0.467 0.817 0.478 0.816 0.491 0.816 C 0.501 0.816 0.513 0.816 0.517 0.816 C 0.525 0.816 0.525 0.818 0.518 0.828 C 0.511 0.835 0.499 0.855 0.499 0.858 C 0.498 0.864 0.496 0.858 0.496 0.851 C 0.496 0.844 0.495 0.842 0.493 0.841 C 0.491 0.841 0.489 0.838 0.489 0.836 C 0.488 0.832 0.488 0.833 0.488 0.837 C 0.487 0.844 0.482 0.846 0.482 0.839 C 0.482 0.834 0.48 0.831 0.479 0.835 C 0.479 0.844 0.479 0.845 0.477 0.852 C 0.475 0.856 0.474 0.858 0.472 0.857 C 0.469 0.856 0.469 0.856 0.469 0.859 C 0.47 0.862 0.47 0.865 0.47 0.866 C 0.47 0.868 0.472 0.867 0.474 0.863 C 0.477 0.86 0.48 0.858 0.482 0.858 C 0.483 0.858 0.486 0.856 0.488 0.853 C 0.491 0.848 0.494 0.85 0.494 0.857 C 0.494 0.86 0.49 0.866 0.485 0.872 C 0.473 0.884 0.464 0.914 0.467 0.926 C 0.468 0.929 0.468 0.934 0.465 0.943 C 0.463 0.952 0.462 0.962 0.461 0.978 L 0.461 1 L 0.73 1 L 1 1 L 1 0.859 C 1 0.721 1 0.718 0.997 0.718 C 0.993 0.718 0.992 0.713 0.994 0.704 C 0.996 0.695 0.998 0.693 0.999 0.699 C 0.999 0.701 1 0.544 1 0.351 L 1 0 L 0.807 0 C 0.646 0 0.614 0.001 0.617 0.004 C 0.62 0.007 0.619 0.02 0.616 0.02 C 0.615 0.02 0.614 0.021 0.614 0.022 C 0.614 0.024 0.616 0.025 0.617 0.025 C 0.623 0.025 0.623 0.03 0.616 0.041 C 0.607 0.059 0.606 0.061 0.61 0.063 C 0.612 0.064 0.614 0.063 0.615 0.061 C 0.618 0.058 0.621 0.06 0.62 0.064 C 0.619 0.066 0.62 0.069 0.621 0.073 C 0.622 0.076 0.622 0.078 0.621 0.078 C 0.62 0.078 0.619 0.08 0.619 0.083 C 0.619 0.086 0.618 0.09 0.617 0.091 C 0.614 0.097 0.631 0.102 0.636 0.097 C 0.659 0.071 0.672 0.102 0.652 0.136 C 0.646 0.146 0.642 0.156 0.642 0.157 C 0.643 0.159 0.641 0.16 0.635 0.159 C 0.633 0.159 0.629 0.161 0.627 0.164 C 0.623 0.17 0.623 0.17 0.603 0.16 C 0.597 0.158 0.591 0.156 0.588 0.155 C 0.585 0.155 0.579 0.152 0.575 0.15 C 0.572 0.147 0.567 0.145 0.565 0.145 C 0.563 0.145 0.56 0.143 0.559 0.141 C 0.557 0.139 0.554 0.137 0.552 0.137 C 0.55 0.137 0.548 0.134 0.547 0.13 C 0.546 0.123 0.541 0.123 0.541 0.13 C 0.541 0.132 0.539 0.133 0.537 0.133 C 0.535 0.132 0.533 0.132 0.532 0.132 C 0.531 0.131 0.53 0.13 0.53 0.128 C 0.53 0.127 0.531 0.126 0.533 0.127 C 0.536 0.129 0.537 0.128 0.538 0.122 C 0.54 0.112 0.539 0.096 0.537 0.094 C 0.536 0.094 0.536 0.09 0.536 0.086 C 0.536 0.075 0.529 0.077 0.526 0.088 C 0.525 0.094 0.522 0.098 0.521 0.098 C 0.519 0.098 0.516 0.1 0.515 0.104 C 0.505 0.121 0.504 0.123 0.499 0.123 C 0.493 0.123 0.486 0.113 0.486 0.105 C 0.486 0.103 0.485 0.101 0.484 0.101 C 0.482 0.101 0.481 0.102 0.481 0.103 C 0.481 0.107 0.475 0.107 0.474 0.103 C 0.474 0.102 0.471 0.101 0.469 0.102 C 0.466 0.103 0.464 0.103 0.463 0.101 C 0.463 0.099 0.46 0.098 0.458 0.098 C 0.456 0.098 0.453 0.096 0.452 0.095 C 0.45 0.091 0.433 0.094 0.433 0.098 C 0.433 0.103 0.418 0.107 0.415 0.102 C 0.414 0.099 0.413 0.099 0.41 0.102 C 0.407 0.104 0.405 0.105 0.404 0.104 C 0.403 0.103 0.401 0.102 0.4 0.102 C 0.4 0.101 0.397 0.1 0.394 0.099 C 0.39 0.098 0.389 0.098 0.387 0.105 C 0.384 0.115 0.384 0.126 0.386 0.126 C 0.4 0.129 0.407 0.128 0.408 0.124 C 0.411 0.118 0.417 0.121 0.417 0.128 C 0.417 0.133 0.409 0.137 0.397 0.137 C 0.394 0.137 0.39 0.138 0.389 0.14 C 0.387 0.141 0.384 0.144 0.382 0.145 C 0.381 0.147 0.378 0.148 0.377 0.148 C 0.376 0.148 0.371 0.157 0.366 0.167 L 0.357 0.186 L 0.347 0.188 C 0.332 0.19 0.328 0.194 0.329 0.202 C 0.329 0.207 0.329 0.207 0.327 0.206 C 0.325 0.205 0.323 0.206 0.322 0.209 C 0.32 0.212 0.316 0.214 0.31 0.214 C 0.297 0.215 0.279 0.221 0.278 0.225 C 0.277 0.227 0.275 0.229 0.273 0.229 C 0.271 0.229 0.269 0.231 0.267 0.233 C 0.266 0.236 0.264 0.237 0.262 0.237 C 0.261 0.237 0.258 0.241 0.255 0.246 C 0.253 0.25 0.251 0.254 0.25 0.254 C 0.249 0.254 0.247 0.256 0.246 0.259 C 0.243 0.264 0.243 0.264 0.241 0.259 C 0.239 0.254 0.235 0.252 0.235 0.257 C 0.235 0.263 0.228 0.273 0.22 0.28 C 0.183 0.309 0.169 0.322 0.164 0.332 C 0.161 0.338 0.157 0.346 0.155 0.35 C 0.144 0.37 0.135 0.43 0.141 0.437 C 0.142 0.438 0.143 0.442 0.143 0.446 C 0.143 0.449 0.143 0.453 0.144 0.454 C 0.146 0.456 0.155 0.48 0.155 0.484 C 0.155 0.486 0.153 0.492 0.15 0.497 C 0.148 0.502 0.146 0.508 0.146 0.509 C 0.146 0.511 0.142 0.521 0.137 0.531 C 0.13 0.546 0.126 0.559 0.13 0.555 C 0.131 0.554 0.132 0.556 0.134 0.56 C 0.135 0.564 0.136 0.567 0.135 0.568 C 0.134 0.569 0.134 0.573 0.135 0.577 C 0.136 0.58 0.136 0.584 0.136 0.584 C 0.135 0.585 0.135 0.589 0.134 0.593 C 0.133 0.602 0.127 0.618 0.125 0.616 C 0.124 0.615 0.122 0.618 0.119 0.623 C 0.112 0.635 0.11 0.634 0.109 0.619 C 0.109 0.614 0.108 0.613 0.104 0.612 C 0.096 0.611 0.083 0.596 0.086 0.591 C 0.086 0.591 0.085 0.589 0.083 0.588 C 0.082 0.587 0.08 0.583 0.079 0.58 C 0.079 0.576 0.078 0.573 0.077 0.573 C 0.076 0.573 0.076 0.571 0.076 0.568 C 0.077 0.564 0.077 0.564 0.075 0.565 C 0.073 0.566 0.072 0.565 0.072 0.561 C 0.072 0.558 0.073 0.556 0.075 0.556 C 0.076 0.556 0.077 0.557 0.076 0.559 C 0.074 0.563 0.077 0.562 0.081 0.556 C 0.083 0.553 0.086 0.55 0.087 0.55 C 0.088 0.55 0.09 0.548 0.09 0.545 C 0.091 0.542 0.092 0.539 0.092 0.539 C 0.094 0.539 0.096 0.547 0.095 0.551 C 0.094 0.553 0.096 0.554 0.104 0.554 C 0.106 0.554 0.108 0.555 0.108 0.556 C 0.108 0.562 0.111 0.555 0.118 0.537 C 0.124 0.519 0.125 0.517 0.124 0.505 C 0.123 0.499 0.123 0.494 0.122 0.496 C 0.122 0.511 0.107 0.501 0.107 0.486 C 0.107 0.483 0.105 0.479 0.103 0.475 C 0.101 0.472 0.099 0.465 0.098 0.461 C 0.098 0.455 0.095 0.45 0.09 0.444 L 0.082 0.436 L 0.081 0.446 C 0.079 0.453 0.078 0.457 0.076 0.456 C 0.074 0.456 0.074 0.458 0.075 0.463 C 0.076 0.474 0.075 0.486 0.072 0.486 C 0.071 0.486 0.071 0.488 0.071 0.49 C 0.071 0.496 0.062 0.516 0.06 0.515 C 0.058 0.513 0.058 0.517 0.058 0.541 C 0.058 0.549 0.057 0.56 0.056 0.566 C 0.054 0.572 0.053 0.585 0.053 0.598 C 0.052 0.609 0.051 0.626 0.05 0.635 C 0.048 0.655 0.044 0.66 0.046 0.641 C 0.048 0.621 0.047 0.572 0.045 0.567 C 0.043 0.564 0.043 0.565 0.043 0.571 C 0.044 0.575 0.043 0.58 0.042 0.583 C 0.041 0.586 0.039 0.59 0.039 0.593 C 0.037 0.603 0.034 0.596 0.033 0.58 C 0.032 0.569 0.031 0.563 0.029 0.561 C 0.026 0.556 0.025 0.533 0.027 0.476 C 0.028 0.464 0.028 0.45 0.028 0.446 C 0.029 0.438 0.028 0.438 0.042 0.438 C 0.049 0.438 0.053 0.44 0.054 0.443 C 0.056 0.447 0.061 0.443 0.062 0.435 C 0.062 0.433 0.063 0.428 0.064 0.423 C 0.065 0.412 0.068 0.408 0.074 0.409 C 0.077 0.41 0.078 0.409 0.078 0.407 C 0.078 0.405 0.08 0.4 0.082 0.397 L 0.086 0.391 L 0.092 0.397 L 0.099 0.403 L 0.104 0.396 C 0.107 0.392 0.111 0.386 0.113 0.382 C 0.117 0.375 0.122 0.371 0.12 0.377 C 0.119 0.379 0.121 0.381 0.123 0.383 C 0.129 0.387 0.13 0.386 0.13 0.38 C 0.13 0.378 0.131 0.374 0.131 0.373 C 0.132 0.371 0.133 0.364 0.134 0.358 C 0.135 0.346 0.135 0.345 0.132 0.35 C 0.131 0.353 0.13 0.357 0.13 0.358 C 0.13 0.361 0.126 0.361 0.125 0.357 C 0.124 0.356 0.125 0.352 0.126 0.349 C 0.128 0.346 0.128 0.344 0.128 0.344 C 0.127 0.344 0.128 0.338 0.131 0.331 C 0.133 0.324 0.135 0.316 0.135 0.313 C 0.135 0.31 0.136 0.306 0.137 0.306 C 0.138 0.305 0.14 0.298 0.14 0.289 C 0.141 0.275 0.146 0.259 0.148 0.264 C 0.15 0.266 0.154 0.259 0.154 0.254 C 0.154 0.251 0.153 0.248 0.152 0.248 C 0.15 0.247 0.151 0.245 0.153 0.241 C 0.156 0.236 0.156 0.232 0.156 0.219 C 0.156 0.211 0.156 0.204 0.157 0.204 C 0.159 0.204 0.162 0.212 0.161 0.215 C 0.16 0.216 0.161 0.219 0.162 0.22 C 0.167 0.224 0.168 0.251 0.164 0.261 C 0.163 0.266 0.162 0.272 0.162 0.275 C 0.162 0.278 0.162 0.279 0.163 0.277 C 0.163 0.274 0.164 0.274 0.166 0.277 C 0.168 0.28 0.168 0.28 0.17 0.276 C 0.17 0.273 0.172 0.271 0.173 0.271 C 0.178 0.271 0.18 0.208 0.175 0.203 C 0.174 0.202 0.172 0.199 0.172 0.197 C 0.172 0.195 0.171 0.193 0.169 0.192 C 0.167 0.191 0.166 0.188 0.166 0.179 C 0.166 0.173 0.165 0.168 0.165 0.168 C 0.162 0.168 0.163 0.159 0.166 0.157 C 0.167 0.156 0.169 0.154 0.17 0.153 C 0.172 0.146 0.176 0.154 0.176 0.168 C 0.176 0.182 0.179 0.196 0.183 0.196 C 0.184 0.196 0.185 0.199 0.185 0.203 C 0.185 0.212 0.188 0.223 0.188 0.215 C 0.188 0.213 0.189 0.205 0.19 0.198 C 0.19 0.19 0.19 0.184 0.189 0.183 C 0.188 0.181 0.19 0.164 0.192 0.159 C 0.194 0.156 0.195 0.156 0.198 0.162 C 0.201 0.169 0.202 0.182 0.199 0.182 C 0.198 0.182 0.197 0.184 0.197 0.187 C 0.197 0.19 0.197 0.193 0.196 0.194 C 0.195 0.197 0.194 0.224 0.196 0.222 C 0.197 0.221 0.199 0.222 0.201 0.224 C 0.203 0.227 0.204 0.227 0.206 0.222 C 0.208 0.217 0.214 0.213 0.212 0.218 C 0.212 0.219 0.213 0.223 0.215 0.227 L 0.218 0.234 L 0.21 0.236 C 0.204 0.238 0.202 0.239 0.203 0.242 C 0.203 0.245 0.203 0.248 0.202 0.25 C 0.201 0.252 0.201 0.255 0.203 0.259 C 0.206 0.267 0.208 0.265 0.207 0.254 C 0.207 0.248 0.207 0.246 0.209 0.246 C 0.211 0.246 0.212 0.248 0.212 0.252 C 0.212 0.257 0.212 0.257 0.213 0.255 C 0.215 0.253 0.217 0.251 0.218 0.251 C 0.219 0.251 0.222 0.249 0.223 0.246 C 0.225 0.242 0.227 0.241 0.228 0.243 C 0.231 0.248 0.233 0.246 0.234 0.237 C 0.235 0.228 0.229 0.225 0.226 0.233 C 0.22 0.246 0.217 0.23 0.222 0.211 C 0.225 0.203 0.226 0.191 0.226 0.165 C 0.227 0.128 0.228 0.117 0.231 0.117 C 0.231 0.117 0.232 0.118 0.231 0.12 C 0.231 0.121 0.231 0.123 0.232 0.124 C 0.233 0.125 0.233 0.127 0.233 0.129 C 0.232 0.13 0.233 0.131 0.233 0.131 C 0.234 0.131 0.235 0.137 0.235 0.143 C 0.235 0.157 0.238 0.163 0.245 0.166 C 0.25 0.168 0.255 0.158 0.255 0.145 C 0.255 0.138 0.262 0.122 0.267 0.119 C 0.268 0.118 0.27 0.116 0.27 0.114 C 0.27 0.113 0.269 0.112 0.268 0.113 C 0.267 0.114 0.266 0.114 0.266 0.112 C 0.266 0.11 0.268 0.109 0.269 0.109 C 0.275 0.11 0.277 0.109 0.277 0.103 C 0.277 0.1 0.278 0.098 0.28 0.098 C 0.281 0.098 0.282 0.096 0.282 0.095 C 0.282 0.093 0.284 0.088 0.287 0.084 C 0.291 0.077 0.292 0.073 0.292 0.057 C 0.293 0.046 0.294 0.036 0.295 0.035 C 0.295 0.033 0.296 0.027 0.297 0.022 C 0.298 0.016 0.299 0.011 0.3 0.011 C 0.3 0.011 0.301 0.009 0.301 0.006 C 0.301 0 0.3 0 0.15 0 L 0 0 L 0 0.22 Z  M 0.316 0.003 C 0.316 0.004 0.318 0.005 0.319 0.004 C 0.32 0.003 0.321 0.003 0.321 0.005 C 0.321 0.007 0.322 0.009 0.324 0.009 C 0.325 0.01 0.326 0.009 0.326 0.005 C 0.326 0.001 0.325 0 0.32 0 C 0.317 0 0.315 0.001 0.316 0.003 Z  M 0.336 0.004 C 0.337 0.007 0.338 0.008 0.338 0.006 C 0.339 0.005 0.34 0.003 0.342 0.002 C 0.343 0.001 0.342 0 0.34 0 C 0.337 0 0.336 0.001 0.336 0.004 Z  M 0.348 0.004 C 0.35 0.007 0.352 0.008 0.354 0.007 C 0.359 0.004 0.357 0 0.351 0 C 0.346 0 0.346 0 0.348 0.004 Z  M 0.549 0.098 C 0.547 0.104 0.55 0.113 0.553 0.108 C 0.554 0.105 0.555 0.101 0.555 0.1 C 0.555 0.097 0.55 0.095 0.549 0.098 Z  M 0.579 0.105 C 0.579 0.107 0.579 0.11 0.577 0.112 C 0.576 0.114 0.575 0.117 0.575 0.119 C 0.575 0.124 0.579 0.124 0.581 0.119 C 0.582 0.114 0.586 0.113 0.586 0.117 C 0.586 0.119 0.585 0.12 0.583 0.12 C 0.581 0.12 0.581 0.121 0.583 0.123 C 0.586 0.126 0.593 0.12 0.594 0.114 C 0.594 0.111 0.593 0.11 0.592 0.111 C 0.591 0.112 0.589 0.11 0.589 0.106 C 0.588 0.102 0.586 0.101 0.583 0.101 C 0.58 0.102 0.579 0.103 0.579 0.105 Z  M 0.568 0.114 C 0.565 0.124 0.566 0.127 0.57 0.12 C 0.572 0.117 0.573 0.113 0.573 0.111 C 0.571 0.108 0.57 0.109 0.568 0.114 Z  M 0.597 0.121 C 0.596 0.127 0.597 0.131 0.599 0.131 C 0.6 0.131 0.6 0.128 0.6 0.123 C 0.6 0.113 0.598 0.112 0.597 0.121 Z  M 0.363 0.121 C 0.363 0.124 0.36 0.126 0.358 0.126 C 0.356 0.126 0.353 0.128 0.352 0.13 C 0.351 0.132 0.35 0.133 0.349 0.132 C 0.349 0.132 0.345 0.137 0.34 0.144 C 0.333 0.155 0.331 0.157 0.326 0.156 C 0.324 0.155 0.321 0.156 0.321 0.157 C 0.321 0.158 0.317 0.159 0.312 0.16 C 0.307 0.16 0.304 0.161 0.304 0.164 C 0.304 0.168 0.296 0.177 0.294 0.177 C 0.29 0.175 0.288 0.183 0.292 0.187 C 0.295 0.188 0.297 0.193 0.298 0.197 C 0.301 0.212 0.315 0.196 0.313 0.179 C 0.311 0.17 0.313 0.168 0.319 0.172 C 0.324 0.176 0.324 0.176 0.324 0.172 C 0.324 0.167 0.327 0.166 0.329 0.171 C 0.332 0.176 0.35 0.176 0.35 0.172 C 0.35 0.17 0.35 0.171 0.351 0.173 C 0.352 0.175 0.353 0.177 0.353 0.176 C 0.365 0.151 0.368 0.135 0.365 0.122 C 0.364 0.117 0.364 0.117 0.363 0.121 Z  M 0.374 0.125 C 0.373 0.131 0.373 0.131 0.376 0.129 C 0.38 0.128 0.38 0.124 0.377 0.122 C 0.376 0.121 0.374 0.122 0.374 0.125 Z  M 0.428 0.124 C 0.432 0.13 0.432 0.137 0.427 0.137 C 0.419 0.137 0.416 0.131 0.42 0.123 C 0.423 0.119 0.423 0.119 0.428 0.124 Z  M 0.611 0.125 C 0.611 0.128 0.611 0.132 0.611 0.135 C 0.611 0.139 0.611 0.141 0.613 0.141 C 0.617 0.141 0.619 0.13 0.615 0.125 C 0.612 0.12 0.611 0.12 0.611 0.125 Z  M 0.605 0.125 C 0.603 0.128 0.605 0.131 0.607 0.129 C 0.609 0.129 0.609 0.127 0.609 0.125 C 0.608 0.122 0.606 0.122 0.605 0.125 Z  M 0.68 0.158 C 0.68 0.16 0.679 0.163 0.677 0.166 C 0.675 0.169 0.674 0.17 0.674 0.169 C 0.674 0.167 0.674 0.163 0.673 0.16 C 0.672 0.156 0.673 0.154 0.675 0.153 C 0.679 0.152 0.68 0.153 0.68 0.158 Z  M 0.668 0.159 C 0.671 0.161 0.671 0.162 0.669 0.163 C 0.667 0.165 0.666 0.168 0.666 0.172 C 0.666 0.181 0.662 0.185 0.657 0.182 C 0.654 0.18 0.653 0.178 0.653 0.173 C 0.653 0.162 0.654 0.161 0.655 0.163 C 0.655 0.164 0.657 0.163 0.659 0.161 C 0.663 0.156 0.664 0.156 0.668 0.159 Z  M 0.648 0.163 C 0.65 0.171 0.643 0.176 0.64 0.169 C 0.638 0.166 0.638 0.165 0.641 0.162 C 0.644 0.158 0.647 0.159 0.648 0.163 Z  M 0.68 0.184 C 0.681 0.184 0.682 0.187 0.682 0.189 C 0.682 0.194 0.681 0.194 0.679 0.189 C 0.677 0.184 0.677 0.184 0.678 0.188 C 0.679 0.194 0.673 0.198 0.67 0.192 C 0.669 0.189 0.668 0.188 0.667 0.189 C 0.667 0.19 0.666 0.189 0.666 0.188 C 0.666 0.182 0.669 0.181 0.672 0.187 C 0.675 0.192 0.675 0.192 0.675 0.187 C 0.675 0.184 0.674 0.182 0.674 0.182 C 0.673 0.182 0.673 0.18 0.673 0.179 C 0.674 0.177 0.675 0.178 0.677 0.18 C 0.678 0.182 0.68 0.184 0.68 0.184 Z  M 0.709 0.185 C 0.71 0.186 0.709 0.189 0.708 0.191 C 0.707 0.193 0.705 0.195 0.705 0.194 C 0.704 0.193 0.7 0.196 0.696 0.2 C 0.69 0.206 0.687 0.207 0.686 0.205 C 0.683 0.202 0.682 0.197 0.685 0.197 C 0.688 0.196 0.698 0.187 0.697 0.185 C 0.695 0.179 0.706 0.179 0.709 0.185 Z  M 0.737 0.202 C 0.736 0.208 0.723 0.224 0.719 0.224 C 0.718 0.224 0.716 0.226 0.716 0.227 C 0.716 0.228 0.715 0.229 0.714 0.229 C 0.711 0.229 0.714 0.216 0.717 0.212 C 0.718 0.211 0.719 0.208 0.719 0.206 C 0.719 0.204 0.721 0.202 0.726 0.202 C 0.73 0.201 0.733 0.2 0.733 0.198 C 0.734 0.197 0.735 0.197 0.736 0.197 C 0.737 0.198 0.738 0.2 0.737 0.202 Z  M 0.708 0.247 C 0.708 0.252 0.706 0.255 0.704 0.253 C 0.703 0.251 0.703 0.25 0.704 0.247 C 0.706 0.242 0.708 0.242 0.708 0.247 Z  M 0.149 0.251 C 0.149 0.254 0.148 0.257 0.147 0.258 C 0.145 0.259 0.144 0.258 0.144 0.253 C 0.144 0.248 0.145 0.246 0.147 0.246 C 0.148 0.246 0.149 0.248 0.149 0.251 Z  M 0.182 0.249 C 0.182 0.251 0.183 0.255 0.185 0.257 C 0.189 0.264 0.192 0.264 0.191 0.258 C 0.19 0.256 0.19 0.252 0.19 0.25 C 0.19 0.245 0.184 0.244 0.182 0.249 Z  M 0.748 0.252 C 0.748 0.254 0.748 0.254 0.752 0.253 C 0.757 0.251 0.769 0.25 0.771 0.252 C 0.772 0.255 0.769 0.263 0.766 0.263 C 0.763 0.263 0.761 0.266 0.759 0.271 C 0.754 0.282 0.755 0.285 0.76 0.283 C 0.763 0.282 0.765 0.282 0.765 0.283 C 0.765 0.289 0.76 0.301 0.754 0.309 C 0.751 0.314 0.747 0.322 0.746 0.328 C 0.744 0.333 0.741 0.338 0.74 0.339 C 0.738 0.34 0.737 0.342 0.737 0.344 C 0.737 0.348 0.738 0.347 0.748 0.337 C 0.753 0.331 0.758 0.327 0.758 0.327 C 0.759 0.327 0.762 0.322 0.765 0.315 C 0.775 0.297 0.781 0.307 0.773 0.327 C 0.769 0.335 0.77 0.338 0.775 0.338 C 0.781 0.338 0.78 0.348 0.774 0.353 C 0.768 0.358 0.762 0.368 0.762 0.373 C 0.762 0.38 0.769 0.378 0.773 0.369 C 0.775 0.365 0.779 0.359 0.781 0.356 C 0.783 0.353 0.784 0.348 0.783 0.343 C 0.783 0.332 0.787 0.327 0.792 0.332 C 0.795 0.335 0.796 0.334 0.801 0.324 C 0.804 0.317 0.807 0.313 0.807 0.315 C 0.807 0.317 0.808 0.318 0.808 0.317 C 0.809 0.317 0.81 0.323 0.809 0.331 C 0.809 0.34 0.809 0.347 0.808 0.347 C 0.807 0.347 0.805 0.35 0.803 0.354 L 0.799 0.362 L 0.804 0.37 C 0.81 0.381 0.818 0.374 0.816 0.359 C 0.815 0.348 0.823 0.338 0.829 0.341 C 0.831 0.342 0.834 0.341 0.836 0.339 C 0.838 0.337 0.84 0.335 0.841 0.335 C 0.842 0.335 0.842 0.349 0.84 0.351 C 0.837 0.354 0.838 0.363 0.842 0.367 C 0.846 0.371 0.849 0.383 0.848 0.389 C 0.848 0.39 0.849 0.391 0.85 0.391 C 0.853 0.391 0.853 0.394 0.85 0.4 C 0.849 0.403 0.847 0.405 0.845 0.405 C 0.843 0.405 0.842 0.406 0.842 0.408 C 0.842 0.41 0.84 0.412 0.837 0.414 C 0.834 0.415 0.832 0.419 0.832 0.421 C 0.832 0.424 0.831 0.428 0.83 0.43 C 0.825 0.439 0.828 0.443 0.833 0.435 C 0.836 0.431 0.839 0.427 0.841 0.427 C 0.842 0.427 0.844 0.424 0.845 0.419 C 0.846 0.414 0.848 0.411 0.849 0.411 C 0.851 0.411 0.864 0.389 0.867 0.379 C 0.87 0.37 0.879 0.365 0.882 0.37 C 0.885 0.375 0.887 0.391 0.885 0.391 C 0.884 0.391 0.882 0.393 0.882 0.395 C 0.881 0.398 0.88 0.399 0.879 0.398 C 0.877 0.397 0.876 0.397 0.876 0.399 C 0.876 0.401 0.875 0.401 0.874 0.401 C 0.873 0.4 0.87 0.402 0.867 0.406 C 0.864 0.41 0.861 0.413 0.86 0.413 C 0.858 0.413 0.837 0.449 0.837 0.453 C 0.837 0.454 0.834 0.458 0.831 0.461 C 0.825 0.466 0.818 0.478 0.818 0.483 C 0.818 0.487 0.823 0.487 0.826 0.482 C 0.829 0.477 0.855 0.458 0.875 0.447 C 0.884 0.442 0.885 0.45 0.878 0.466 C 0.87 0.483 0.872 0.488 0.885 0.484 C 0.895 0.482 0.896 0.48 0.896 0.462 C 0.896 0.444 0.897 0.44 0.899 0.452 C 0.9 0.461 0.9 0.461 0.905 0.462 C 0.914 0.463 0.912 0.491 0.902 0.495 C 0.896 0.498 0.899 0.51 0.905 0.508 C 0.908 0.507 0.917 0.512 0.917 0.514 C 0.917 0.518 0.924 0.52 0.932 0.52 C 0.949 0.519 0.941 0.532 0.923 0.535 C 0.918 0.536 0.912 0.538 0.912 0.539 C 0.911 0.541 0.909 0.542 0.907 0.542 C 0.904 0.542 0.904 0.543 0.906 0.55 C 0.907 0.554 0.907 0.557 0.904 0.564 C 0.898 0.577 0.9 0.586 0.909 0.59 C 0.919 0.595 0.926 0.615 0.918 0.615 C 0.912 0.615 0.913 0.62 0.918 0.623 C 0.921 0.625 0.922 0.627 0.92 0.628 C 0.919 0.629 0.917 0.628 0.916 0.626 C 0.916 0.624 0.913 0.623 0.912 0.623 C 0.91 0.623 0.909 0.621 0.909 0.618 C 0.909 0.615 0.908 0.615 0.907 0.616 C 0.905 0.617 0.903 0.617 0.901 0.617 C 0.899 0.617 0.898 0.619 0.898 0.622 C 0.898 0.624 0.897 0.625 0.897 0.624 C 0.896 0.623 0.895 0.62 0.895 0.616 C 0.895 0.607 0.892 0.605 0.889 0.61 C 0.887 0.613 0.886 0.614 0.885 0.612 C 0.884 0.608 0.879 0.611 0.877 0.617 C 0.876 0.62 0.874 0.62 0.874 0.619 C 0.873 0.618 0.874 0.614 0.876 0.611 C 0.88 0.606 0.88 0.605 0.877 0.607 C 0.874 0.609 0.873 0.608 0.873 0.606 C 0.873 0.602 0.866 0.603 0.864 0.607 C 0.863 0.609 0.862 0.615 0.863 0.619 C 0.864 0.627 0.86 0.635 0.858 0.629 C 0.857 0.625 0.858 0.595 0.86 0.592 C 0.863 0.586 0.863 0.579 0.859 0.585 C 0.858 0.587 0.854 0.591 0.851 0.592 C 0.849 0.594 0.846 0.597 0.846 0.599 C 0.846 0.602 0.846 0.603 0.845 0.603 C 0.844 0.603 0.843 0.606 0.843 0.608 C 0.843 0.619 0.825 0.632 0.82 0.625 C 0.815 0.617 0.82 0.606 0.829 0.606 C 0.834 0.606 0.836 0.604 0.841 0.595 C 0.847 0.581 0.847 0.577 0.839 0.574 C 0.827 0.571 0.817 0.572 0.818 0.577 C 0.818 0.58 0.818 0.581 0.816 0.581 C 0.814 0.581 0.812 0.583 0.811 0.584 C 0.809 0.587 0.808 0.587 0.808 0.585 C 0.806 0.58 0.798 0.577 0.796 0.581 C 0.794 0.583 0.793 0.584 0.792 0.584 C 0.789 0.583 0.784 0.588 0.783 0.594 C 0.783 0.597 0.781 0.601 0.779 0.602 C 0.777 0.603 0.776 0.606 0.776 0.61 C 0.776 0.615 0.774 0.618 0.771 0.62 C 0.765 0.624 0.762 0.631 0.761 0.642 C 0.759 0.653 0.756 0.657 0.755 0.649 C 0.755 0.644 0.755 0.644 0.754 0.649 C 0.753 0.652 0.751 0.653 0.749 0.652 C 0.748 0.651 0.745 0.654 0.742 0.659 C 0.738 0.666 0.737 0.667 0.734 0.663 C 0.723 0.654 0.723 0.654 0.724 0.675 C 0.726 0.697 0.725 0.698 0.719 0.692 C 0.715 0.688 0.715 0.688 0.716 0.693 C 0.72 0.705 0.712 0.715 0.707 0.704 C 0.705 0.699 0.704 0.699 0.702 0.702 C 0.701 0.704 0.699 0.705 0.698 0.705 C 0.694 0.705 0.69 0.723 0.69 0.736 C 0.691 0.745 0.691 0.746 0.689 0.745 C 0.687 0.743 0.686 0.744 0.687 0.751 C 0.69 0.777 0.69 0.778 0.688 0.775 C 0.687 0.773 0.685 0.765 0.683 0.756 C 0.682 0.748 0.68 0.743 0.68 0.745 C 0.68 0.752 0.676 0.749 0.674 0.74 C 0.673 0.735 0.671 0.731 0.669 0.73 C 0.664 0.727 0.66 0.707 0.666 0.707 C 0.667 0.707 0.667 0.705 0.667 0.699 C 0.666 0.693 0.666 0.692 0.668 0.693 C 0.67 0.695 0.676 0.688 0.676 0.683 C 0.676 0.682 0.677 0.678 0.679 0.675 C 0.68 0.671 0.682 0.664 0.682 0.658 C 0.682 0.652 0.683 0.645 0.684 0.643 C 0.685 0.639 0.687 0.629 0.689 0.608 C 0.69 0.603 0.692 0.595 0.695 0.591 C 0.699 0.585 0.7 0.581 0.7 0.576 C 0.699 0.572 0.7 0.57 0.704 0.568 C 0.708 0.565 0.709 0.56 0.709 0.544 C 0.709 0.541 0.71 0.538 0.714 0.536 L 0.719 0.532 L 0.714 0.531 C 0.709 0.529 0.709 0.528 0.71 0.517 C 0.71 0.496 0.711 0.494 0.721 0.485 C 0.738 0.47 0.746 0.446 0.747 0.41 C 0.747 0.394 0.746 0.388 0.744 0.384 C 0.743 0.381 0.74 0.373 0.739 0.365 C 0.737 0.353 0.73 0.332 0.724 0.32 C 0.723 0.318 0.722 0.313 0.721 0.309 C 0.721 0.306 0.719 0.299 0.718 0.295 C 0.713 0.285 0.715 0.279 0.723 0.276 C 0.73 0.273 0.732 0.266 0.729 0.262 C 0.727 0.26 0.73 0.259 0.736 0.259 C 0.737 0.259 0.738 0.258 0.738 0.256 C 0.738 0.255 0.739 0.255 0.741 0.257 C 0.743 0.26 0.743 0.26 0.743 0.256 C 0.743 0.254 0.744 0.251 0.746 0.251 C 0.747 0.25 0.749 0.249 0.749 0.249 C 0.749 0.249 0.749 0.25 0.748 0.252 Z  M 0.741 0.285 C 0.738 0.288 0.741 0.292 0.744 0.288 C 0.745 0.287 0.746 0.285 0.745 0.284 C 0.744 0.283 0.743 0.284 0.741 0.285 Z  M 0.759 0.344 C 0.755 0.351 0.757 0.355 0.762 0.35 C 0.767 0.346 0.768 0.339 0.764 0.339 C 0.763 0.339 0.761 0.341 0.759 0.344 Z  M 0.067 0.351 C 0.07 0.356 0.067 0.364 0.062 0.362 C 0.061 0.361 0.06 0.362 0.06 0.364 C 0.06 0.368 0.053 0.377 0.049 0.377 C 0.047 0.377 0.045 0.376 0.045 0.374 C 0.045 0.37 0.052 0.361 0.055 0.36 C 0.057 0.36 0.058 0.359 0.057 0.357 C 0.055 0.35 0.064 0.344 0.067 0.351 Z  M 0.854 0.358 C 0.854 0.361 0.854 0.363 0.853 0.363 C 0.851 0.363 0.848 0.356 0.849 0.354 C 0.851 0.35 0.854 0.352 0.854 0.358 Z  M 0.031 0.381 C 0.031 0.384 0.03 0.385 0.029 0.385 C 0.027 0.385 0.026 0.38 0.028 0.376 C 0.029 0.374 0.031 0.377 0.031 0.381 Z  M 0.888 0.41 C 0.887 0.413 0.885 0.418 0.885 0.422 C 0.882 0.434 0.873 0.437 0.873 0.427 C 0.873 0.419 0.879 0.402 0.882 0.402 C 0.884 0.402 0.889 0.399 0.888 0.397 C 0.888 0.396 0.889 0.394 0.889 0.392 C 0.889 0.391 0.889 0.393 0.89 0.398 C 0.89 0.402 0.89 0.408 0.888 0.41 Z  M 0.916 0.421 C 0.915 0.424 0.913 0.419 0.915 0.414 C 0.916 0.409 0.916 0.409 0.917 0.414 C 0.917 0.417 0.917 0.42 0.916 0.421 Z  M 0.8 0.427 C 0.8 0.428 0.799 0.431 0.799 0.434 C 0.797 0.44 0.801 0.447 0.806 0.447 C 0.81 0.447 0.81 0.443 0.806 0.434 C 0.801 0.425 0.799 0.422 0.8 0.427 Z  M 0.975 0.457 C 0.975 0.459 0.974 0.461 0.973 0.461 C 0.97 0.461 0.969 0.458 0.971 0.454 C 0.973 0.451 0.975 0.452 0.975 0.457 Z  M 0.955 0.463 C 0.956 0.466 0.95 0.475 0.948 0.475 C 0.946 0.475 0.947 0.466 0.949 0.464 C 0.953 0.46 0.954 0.46 0.955 0.463 Z  M 0.985 0.477 C 0.986 0.48 0.984 0.486 0.981 0.486 C 0.978 0.486 0.977 0.48 0.979 0.477 C 0.98 0.474 0.983 0.474 0.985 0.477 Z  M 0.179 0.531 C 0.182 0.538 0.183 0.542 0.179 0.542 C 0.178 0.542 0.177 0.541 0.177 0.539 C 0.177 0.537 0.176 0.538 0.175 0.54 C 0.169 0.55 0.167 0.54 0.172 0.53 C 0.175 0.524 0.176 0.524 0.179 0.531 Z  M 0.732 0.539 L 0.728 0.547 L 0.732 0.553 C 0.739 0.563 0.747 0.548 0.741 0.536 C 0.737 0.529 0.737 0.529 0.732 0.539 Z  M 0.02 0.545 C 0.02 0.546 0.02 0.547 0.019 0.547 C 0.018 0.547 0.018 0.549 0.019 0.552 C 0.021 0.562 0.022 0.574 0.019 0.58 L 0.017 0.585 L 0.015 0.58 C 0.013 0.576 0.013 0.571 0.013 0.564 C 0.014 0.559 0.014 0.551 0.015 0.546 C 0.016 0.532 0.016 0.532 0.018 0.538 C 0.019 0.541 0.02 0.544 0.02 0.545 Z  M 0.98 0.543 C 0.98 0.546 0.979 0.547 0.978 0.547 C 0.976 0.547 0.975 0.543 0.976 0.541 C 0.978 0.538 0.98 0.539 0.98 0.543 Z  M 0.957 0.547 C 0.957 0.548 0.957 0.55 0.957 0.551 C 0.955 0.553 0.951 0.55 0.951 0.547 C 0.951 0.544 0.956 0.544 0.957 0.547 Z  M 0.189 0.561 C 0.186 0.57 0.183 0.575 0.183 0.57 C 0.183 0.563 0.189 0.549 0.191 0.551 C 0.191 0.552 0.19 0.556 0.189 0.561 Z  M 0.112 0.598 C 0.111 0.606 0.112 0.607 0.114 0.599 C 0.115 0.595 0.115 0.592 0.114 0.592 C 0.114 0.592 0.113 0.595 0.112 0.598 Z  M 0.818 0.601 C 0.818 0.603 0.818 0.603 0.817 0.602 C 0.817 0.601 0.815 0.602 0.814 0.604 C 0.812 0.607 0.811 0.603 0.813 0.6 C 0.815 0.597 0.818 0.598 0.818 0.601 Z  M 0.271 0.607 C 0.273 0.607 0.277 0.61 0.28 0.612 C 0.283 0.615 0.286 0.617 0.287 0.617 C 0.288 0.617 0.29 0.619 0.291 0.621 C 0.292 0.622 0.296 0.626 0.3 0.628 C 0.306 0.632 0.308 0.634 0.309 0.639 C 0.309 0.645 0.309 0.645 0.305 0.642 C 0.3 0.637 0.265 0.636 0.257 0.641 C 0.25 0.645 0.25 0.645 0.253 0.634 C 0.256 0.624 0.256 0.622 0.252 0.626 C 0.248 0.63 0.247 0.627 0.249 0.619 C 0.251 0.612 0.251 0.611 0.248 0.613 C 0.245 0.614 0.245 0.614 0.245 0.611 C 0.245 0.605 0.248 0.604 0.259 0.605 C 0.263 0.606 0.269 0.607 0.271 0.607 Z  M 0.158 0.62 C 0.158 0.623 0.159 0.626 0.161 0.626 C 0.164 0.626 0.164 0.631 0.16 0.633 C 0.159 0.634 0.156 0.636 0.154 0.638 C 0.152 0.639 0.15 0.64 0.15 0.639 C 0.149 0.637 0.148 0.615 0.149 0.616 C 0.15 0.617 0.151 0.615 0.151 0.613 C 0.152 0.607 0.158 0.613 0.158 0.62 Z  M 0.203 0.624 C 0.203 0.626 0.204 0.629 0.206 0.63 C 0.208 0.631 0.209 0.634 0.208 0.639 C 0.207 0.649 0.204 0.653 0.198 0.647 C 0.194 0.644 0.193 0.644 0.19 0.648 C 0.189 0.65 0.19 0.646 0.193 0.638 C 0.197 0.63 0.199 0.622 0.198 0.62 C 0.198 0.618 0.198 0.617 0.2 0.618 C 0.202 0.618 0.203 0.621 0.203 0.624 Z  M 0.805 0.623 C 0.808 0.626 0.81 0.63 0.81 0.631 C 0.81 0.632 0.812 0.634 0.813 0.635 C 0.815 0.636 0.809 0.636 0.792 0.637 C 0.783 0.638 0.789 0.618 0.799 0.618 C 0.799 0.617 0.802 0.62 0.805 0.623 Z  M 0.943 0.632 C 0.956 0.64 0.963 0.647 0.962 0.651 C 0.961 0.654 0.955 0.65 0.954 0.645 C 0.953 0.644 0.951 0.642 0.948 0.642 C 0.942 0.642 0.928 0.635 0.925 0.631 C 0.919 0.622 0.927 0.622 0.943 0.632 Z  M 0.856 0.628 C 0.856 0.63 0.854 0.632 0.853 0.634 C 0.849 0.637 0.848 0.634 0.851 0.629 C 0.854 0.625 0.856 0.625 0.856 0.628 Z  M 0.03 0.649 C 0.03 0.651 0.029 0.653 0.028 0.653 C 0.027 0.654 0.027 0.652 0.027 0.649 C 0.027 0.647 0.027 0.645 0.028 0.646 C 0.029 0.646 0.03 0.648 0.03 0.649 Z  M 0.254 0.666 C 0.253 0.671 0.252 0.673 0.25 0.671 C 0.247 0.669 0.247 0.663 0.251 0.66 C 0.256 0.656 0.256 0.657 0.254 0.666 Z  M 0.215 0.671 C 0.215 0.682 0.219 0.687 0.228 0.687 C 0.232 0.687 0.235 0.688 0.235 0.688 C 0.235 0.693 0.233 0.698 0.231 0.698 C 0.23 0.698 0.227 0.701 0.224 0.705 C 0.214 0.717 0.211 0.717 0.206 0.701 C 0.203 0.689 0.204 0.673 0.209 0.671 C 0.21 0.67 0.212 0.669 0.212 0.667 C 0.212 0.666 0.212 0.665 0.213 0.665 C 0.214 0.665 0.215 0.668 0.215 0.671 Z  M 0.261 0.683 C 0.26 0.693 0.26 0.696 0.262 0.696 C 0.27 0.696 0.261 0.712 0.252 0.714 C 0.247 0.715 0.237 0.726 0.229 0.739 C 0.224 0.748 0.221 0.748 0.221 0.739 C 0.221 0.732 0.225 0.723 0.227 0.723 C 0.228 0.723 0.229 0.722 0.229 0.72 C 0.229 0.715 0.241 0.696 0.244 0.696 C 0.245 0.696 0.248 0.692 0.25 0.687 C 0.252 0.683 0.255 0.679 0.257 0.678 C 0.259 0.676 0.26 0.674 0.26 0.673 C 0.26 0.672 0.261 0.67 0.261 0.67 C 0.261 0.67 0.261 0.676 0.261 0.683 Z  M 0.983 0.679 C 0.987 0.682 0.983 0.693 0.979 0.693 C 0.976 0.693 0.976 0.691 0.977 0.682 C 0.979 0.675 0.979 0.675 0.983 0.679 Z  M 0.995 0.687 C 0.998 0.691 0.994 0.691 0.99 0.687 L 0.987 0.685 L 0.99 0.685 C 0.992 0.685 0.994 0.686 0.995 0.687 Z  M 0.264 0.747 C 0.264 0.751 0.265 0.753 0.268 0.752 C 0.271 0.751 0.271 0.752 0.271 0.756 C 0.271 0.759 0.269 0.761 0.268 0.761 C 0.264 0.76 0.264 0.768 0.267 0.776 C 0.27 0.782 0.269 0.789 0.266 0.786 C 0.266 0.785 0.264 0.786 0.262 0.787 C 0.254 0.794 0.246 0.795 0.245 0.789 C 0.245 0.786 0.245 0.783 0.246 0.783 C 0.248 0.781 0.248 0.774 0.246 0.773 C 0.245 0.773 0.243 0.773 0.242 0.772 C 0.241 0.772 0.238 0.771 0.234 0.77 C 0.227 0.767 0.223 0.754 0.23 0.754 C 0.231 0.754 0.233 0.751 0.234 0.748 C 0.236 0.743 0.237 0.742 0.241 0.745 C 0.246 0.75 0.253 0.749 0.255 0.744 C 0.258 0.738 0.263 0.739 0.264 0.747 Z  M 0.276 0.797 C 0.274 0.801 0.274 0.803 0.277 0.809 C 0.279 0.816 0.28 0.816 0.282 0.811 C 0.285 0.802 0.28 0.789 0.276 0.797 Z  M 0.314 0.808 C 0.316 0.809 0.318 0.812 0.32 0.813 C 0.324 0.816 0.323 0.821 0.319 0.818 C 0.317 0.817 0.313 0.816 0.31 0.816 C 0.305 0.816 0.298 0.806 0.301 0.802 C 0.303 0.799 0.307 0.801 0.314 0.808 Z  M 0.419 0.83 C 0.419 0.833 0.419 0.836 0.419 0.837 C 0.421 0.84 0.422 0.836 0.421 0.831 C 0.421 0.826 0.42 0.826 0.419 0.83 Z  M 0.312 0.872 L 0.317 0.876 L 0.312 0.877 C 0.305 0.879 0.296 0.875 0.3 0.871 C 0.303 0.868 0.306 0.868 0.312 0.872 Z  M 0.304 0.891 C 0.305 0.891 0.306 0.892 0.306 0.894 C 0.306 0.896 0.305 0.896 0.303 0.895 C 0.301 0.894 0.298 0.893 0.296 0.893 C 0.293 0.893 0.292 0.892 0.292 0.891 C 0.292 0.889 0.294 0.889 0.297 0.889 C 0.299 0.89 0.303 0.891 0.304 0.891 Z  M 0.352 0.905 C 0.353 0.907 0.352 0.907 0.35 0.906 C 0.349 0.905 0.348 0.903 0.348 0.902 C 0.348 0.898 0.352 0.9 0.352 0.905 Z " fill-rule="evenodd" fill="rgb(0,0,0)"/></g></g></svg>