<?xml version="1.0" encoding="UTF-8" standalone="no"?><!-- Generator: Gravit.io --><svg xmlns="http://www.w3.org/2000/svg" xmlns:xlink="http://www.w3.org/1999/xlink" style="isolation:isolate" viewBox="0 0 1 1" width="1pt" height="1pt"><defs><clipPath id="_clipPath_UHO1qNx7Vk4G2xktyvft5YBkjG3aehWr"><rect width="1" height="1"/></clipPath></defs><g clip-path="url(#_clipPath_UHO1qNx7Vk4G2xktyvft5YBkjG3aehWr)"><g><path d=" M 0 0.5 L 0 1 L 0.144 1 C 0.224 1 0.288 0.999 0.289 0.997 C 0.29 0.992 0.296 0.991 0.297 0.995 C 0.299 1.002 0.369 1.002 0.374 0.995 C 0.375 0.993 0.379 0.991 0.382 0.991 C 0.389 0.991 0.39 0.982 0.384 0.974 C 0.382 0.971 0.38 0.969 0.379 0.969 C 0.378 0.969 0.362 0.917 0.362 0.911 C 0.362 0.905 0.369 0.907 0.375 0.915 C 0.378 0.92 0.379 0.923 0.378 0.926 C 0.376 0.929 0.377 0.93 0.38 0.933 C 0.388 0.938 0.393 0.935 0.389 0.928 C 0.388 0.927 0.387 0.923 0.387 0.919 C 0.386 0.914 0.384 0.91 0.376 0.903 C 0.361 0.888 0.354 0.871 0.364 0.869 C 0.372 0.867 0.372 0.866 0.367 0.857 C 0.364 0.853 0.361 0.849 0.36 0.849 C 0.36 0.849 0.358 0.846 0.357 0.844 C 0.355 0.836 0.366 0.838 0.371 0.846 C 0.373 0.851 0.376 0.852 0.385 0.851 C 0.392 0.851 0.396 0.852 0.396 0.854 C 0.397 0.857 0.397 0.856 0.399 0.854 C 0.401 0.852 0.402 0.851 0.403 0.851 C 0.403 0.851 0.404 0.85 0.404 0.849 C 0.404 0.847 0.404 0.845 0.404 0.843 C 0.404 0.842 0.405 0.84 0.407 0.84 C 0.41 0.84 0.411 0.833 0.407 0.831 C 0.403 0.828 0.391 0.814 0.389 0.808 C 0.388 0.806 0.385 0.804 0.383 0.804 C 0.38 0.804 0.37 0.785 0.37 0.779 C 0.37 0.778 0.368 0.776 0.366 0.774 C 0.359 0.768 0.354 0.759 0.354 0.75 C 0.354 0.745 0.354 0.744 0.353 0.746 C 0.353 0.749 0.351 0.751 0.35 0.751 C 0.349 0.751 0.348 0.754 0.348 0.757 C 0.348 0.762 0.341 0.773 0.34 0.768 C 0.34 0.766 0.338 0.766 0.336 0.768 C 0.327 0.774 0.325 0.77 0.327 0.752 C 0.329 0.739 0.329 0.733 0.328 0.723 C 0.324 0.696 0.324 0.683 0.327 0.685 C 0.33 0.686 0.338 0.738 0.338 0.755 C 0.339 0.759 0.339 0.762 0.34 0.762 C 0.341 0.762 0.342 0.761 0.342 0.759 C 0.342 0.751 0.346 0.74 0.349 0.739 C 0.355 0.736 0.356 0.737 0.379 0.775 C 0.388 0.791 0.404 0.807 0.411 0.807 C 0.414 0.807 0.415 0.809 0.417 0.814 C 0.418 0.819 0.42 0.82 0.422 0.819 C 0.427 0.817 0.429 0.821 0.43 0.832 C 0.43 0.84 0.43 0.841 0.431 0.835 C 0.432 0.826 0.439 0.82 0.444 0.823 C 0.448 0.826 0.457 0.826 0.462 0.822 C 0.468 0.818 0.47 0.818 0.484 0.816 C 0.507 0.814 0.516 0.82 0.504 0.83 C 0.5 0.833 0.498 0.834 0.497 0.832 C 0.497 0.829 0.496 0.83 0.494 0.834 C 0.492 0.837 0.492 0.838 0.491 0.836 C 0.49 0.83 0.488 0.831 0.487 0.838 C 0.486 0.843 0.485 0.843 0.483 0.84 C 0.482 0.838 0.48 0.837 0.48 0.839 C 0.478 0.849 0.475 0.856 0.472 0.857 C 0.47 0.857 0.469 0.86 0.469 0.862 C 0.469 0.871 0.466 0.875 0.461 0.875 C 0.457 0.874 0.456 0.875 0.456 0.883 C 0.456 0.888 0.456 0.9 0.455 0.909 C 0.454 0.918 0.453 0.942 0.452 0.963 L 0.451 1 L 0.726 1 L 1 1 L 1 0.5 L 1 0 L 0.795 0 C 0.682 0.001 0.591 0.001 0.593 0.002 C 0.594 0.003 0.596 0.005 0.596 0.006 C 0.596 0.009 0.596 0.009 0.597 0.006 C 0.603 -0.003 0.608 0.015 0.603 0.025 C 0.6 0.031 0.6 0.032 0.602 0.039 C 0.605 0.047 0.604 0.057 0.6 0.06 C 0.598 0.06 0.597 0.064 0.597 0.068 C 0.597 0.073 0.598 0.075 0.599 0.074 C 0.603 0.069 0.608 0.07 0.608 0.076 C 0.607 0.079 0.608 0.081 0.609 0.081 C 0.616 0.079 0.616 0.085 0.609 0.091 C 0.606 0.093 0.603 0.097 0.603 0.098 C 0.603 0.103 0.593 0.103 0.587 0.098 L 0.58 0.092 L 0.577 0.098 C 0.575 0.101 0.573 0.103 0.572 0.103 C 0.571 0.103 0.565 0.12 0.566 0.122 C 0.567 0.123 0.568 0.122 0.57 0.12 C 0.572 0.117 0.573 0.117 0.573 0.119 C 0.575 0.123 0.589 0.123 0.592 0.119 C 0.595 0.116 0.597 0.119 0.597 0.124 C 0.597 0.127 0.599 0.128 0.602 0.128 C 0.605 0.128 0.607 0.13 0.609 0.134 C 0.611 0.14 0.613 0.141 0.616 0.136 C 0.62 0.131 0.622 0.12 0.618 0.122 C 0.617 0.123 0.616 0.122 0.615 0.119 C 0.614 0.116 0.613 0.115 0.612 0.117 C 0.611 0.119 0.609 0.119 0.608 0.117 C 0.605 0.114 0.609 0.105 0.612 0.107 C 0.613 0.108 0.616 0.107 0.617 0.104 C 0.62 0.101 0.623 0.101 0.628 0.102 C 0.632 0.103 0.636 0.103 0.637 0.101 C 0.638 0.099 0.641 0.098 0.642 0.099 C 0.643 0.1 0.644 0.099 0.644 0.098 C 0.643 0.097 0.644 0.095 0.645 0.094 C 0.647 0.092 0.649 0.098 0.65 0.113 C 0.65 0.119 0.651 0.126 0.652 0.127 C 0.654 0.132 0.64 0.152 0.634 0.152 C 0.631 0.153 0.629 0.155 0.627 0.159 C 0.625 0.165 0.623 0.165 0.617 0.164 C 0.614 0.163 0.609 0.161 0.607 0.161 C 0.601 0.159 0.589 0.154 0.57 0.143 C 0.561 0.138 0.553 0.134 0.552 0.134 C 0.547 0.136 0.547 0.134 0.547 0.121 C 0.548 0.109 0.548 0.108 0.546 0.115 C 0.542 0.129 0.539 0.12 0.54 0.092 L 0.541 0.07 L 0.536 0.07 C 0.533 0.071 0.53 0.074 0.528 0.078 C 0.525 0.087 0.524 0.087 0.517 0.097 C 0.515 0.101 0.512 0.107 0.511 0.111 C 0.508 0.126 0.488 0.117 0.487 0.101 C 0.487 0.094 0.486 0.093 0.48 0.099 C 0.477 0.103 0.476 0.103 0.475 0.1 C 0.474 0.098 0.471 0.096 0.469 0.097 C 0.467 0.098 0.464 0.097 0.463 0.095 C 0.462 0.093 0.459 0.093 0.458 0.094 C 0.456 0.095 0.453 0.094 0.451 0.091 C 0.449 0.087 0.448 0.087 0.445 0.089 C 0.444 0.091 0.44 0.092 0.436 0.093 C 0.433 0.093 0.429 0.095 0.427 0.098 C 0.424 0.103 0.417 0.103 0.413 0.098 C 0.411 0.095 0.411 0.095 0.411 0.097 C 0.411 0.101 0.405 0.101 0.404 0.097 C 0.403 0.096 0.401 0.095 0.399 0.096 C 0.397 0.097 0.395 0.096 0.393 0.092 C 0.391 0.086 0.387 0.093 0.387 0.104 C 0.387 0.107 0.386 0.109 0.386 0.109 C 0.385 0.109 0.384 0.112 0.384 0.116 C 0.384 0.121 0.383 0.123 0.38 0.123 C 0.376 0.123 0.375 0.12 0.378 0.115 C 0.38 0.112 0.379 0.102 0.376 0.105 C 0.376 0.105 0.375 0.108 0.376 0.111 C 0.377 0.119 0.369 0.128 0.367 0.121 C 0.366 0.118 0.365 0.117 0.363 0.12 C 0.361 0.121 0.359 0.122 0.359 0.121 C 0.357 0.119 0.339 0.139 0.338 0.144 C 0.336 0.15 0.325 0.155 0.321 0.151 C 0.318 0.147 0.318 0.147 0.32 0.152 C 0.321 0.154 0.321 0.156 0.32 0.157 C 0.32 0.157 0.315 0.157 0.311 0.158 C 0.306 0.159 0.303 0.161 0.302 0.163 C 0.301 0.166 0.299 0.168 0.298 0.168 C 0.296 0.168 0.295 0.169 0.295 0.17 C 0.295 0.175 0.288 0.174 0.283 0.168 C 0.278 0.163 0.278 0.163 0.272 0.168 L 0.266 0.173 L 0.273 0.173 C 0.278 0.173 0.281 0.175 0.283 0.179 C 0.284 0.182 0.287 0.184 0.288 0.184 C 0.29 0.184 0.292 0.187 0.294 0.19 C 0.295 0.193 0.297 0.195 0.298 0.194 C 0.299 0.193 0.3 0.194 0.301 0.195 C 0.302 0.197 0.303 0.198 0.304 0.197 C 0.307 0.194 0.309 0.182 0.31 0.165 C 0.31 0.16 0.316 0.161 0.324 0.168 C 0.334 0.176 0.352 0.176 0.354 0.167 C 0.359 0.15 0.373 0.131 0.38 0.132 C 0.388 0.133 0.389 0.137 0.382 0.142 C 0.375 0.146 0.375 0.147 0.363 0.17 C 0.356 0.185 0.356 0.185 0.346 0.186 C 0.337 0.187 0.329 0.192 0.316 0.203 C 0.314 0.205 0.309 0.207 0.306 0.207 C 0.302 0.207 0.299 0.208 0.298 0.211 C 0.297 0.213 0.292 0.215 0.287 0.217 C 0.282 0.218 0.278 0.22 0.278 0.223 C 0.277 0.225 0.275 0.226 0.274 0.225 C 0.273 0.225 0.27 0.226 0.268 0.229 C 0.266 0.232 0.263 0.234 0.262 0.234 C 0.26 0.235 0.258 0.236 0.257 0.239 C 0.253 0.246 0.241 0.259 0.241 0.257 C 0.239 0.252 0.235 0.254 0.231 0.262 C 0.228 0.266 0.223 0.273 0.218 0.277 C 0.213 0.28 0.207 0.285 0.205 0.288 C 0.203 0.291 0.2 0.293 0.199 0.293 C 0.197 0.293 0.196 0.294 0.195 0.296 C 0.195 0.297 0.193 0.299 0.191 0.3 C 0.173 0.308 0.158 0.328 0.145 0.363 C 0.137 0.384 0.133 0.424 0.137 0.439 C 0.139 0.443 0.139 0.449 0.139 0.451 C 0.139 0.454 0.141 0.458 0.142 0.46 C 0.153 0.482 0.153 0.483 0.149 0.494 C 0.147 0.499 0.145 0.505 0.145 0.509 C 0.145 0.512 0.141 0.521 0.137 0.529 C 0.129 0.543 0.124 0.563 0.129 0.56 C 0.132 0.557 0.135 0.561 0.134 0.565 C 0.133 0.567 0.132 0.57 0.132 0.573 C 0.132 0.576 0.132 0.579 0.132 0.58 C 0.132 0.582 0.13 0.584 0.128 0.586 C 0.125 0.589 0.125 0.589 0.13 0.588 C 0.135 0.587 0.135 0.587 0.134 0.592 C 0.133 0.6 0.128 0.609 0.126 0.609 C 0.125 0.609 0.123 0.611 0.121 0.613 C 0.115 0.626 0.109 0.613 0.115 0.599 C 0.117 0.595 0.117 0.595 0.119 0.599 C 0.12 0.604 0.121 0.604 0.124 0.598 C 0.127 0.593 0.127 0.592 0.125 0.592 C 0.122 0.592 0.12 0.586 0.122 0.584 C 0.123 0.582 0.124 0.58 0.122 0.574 C 0.121 0.566 0.116 0.568 0.116 0.577 C 0.116 0.579 0.115 0.581 0.115 0.581 C 0.113 0.581 0.108 0.597 0.108 0.602 C 0.108 0.604 0.107 0.606 0.106 0.606 C 0.101 0.607 0.097 0.606 0.095 0.602 C 0.092 0.594 0.09 0.588 0.085 0.579 C 0.08 0.569 0.08 0.558 0.085 0.558 C 0.087 0.558 0.088 0.557 0.088 0.555 C 0.088 0.552 0.088 0.553 0.089 0.555 C 0.09 0.557 0.092 0.558 0.093 0.558 C 0.095 0.557 0.096 0.557 0.096 0.559 C 0.096 0.562 0.096 0.562 0.097 0.56 C 0.098 0.555 0.105 0.553 0.105 0.556 C 0.105 0.558 0.106 0.558 0.107 0.556 C 0.109 0.553 0.11 0.553 0.11 0.556 C 0.11 0.563 0.117 0.547 0.123 0.528 C 0.13 0.502 0.128 0.475 0.12 0.49 C 0.116 0.496 0.113 0.495 0.111 0.487 C 0.111 0.484 0.109 0.48 0.108 0.479 C 0.107 0.478 0.107 0.475 0.107 0.472 C 0.107 0.469 0.106 0.466 0.104 0.465 C 0.103 0.464 0.102 0.461 0.102 0.457 C 0.102 0.452 0.1 0.446 0.094 0.438 C 0.085 0.423 0.085 0.405 0.095 0.405 C 0.097 0.405 0.11 0.389 0.113 0.38 C 0.116 0.375 0.117 0.375 0.118 0.378 C 0.125 0.392 0.129 0.388 0.131 0.368 C 0.131 0.364 0.132 0.359 0.132 0.358 C 0.135 0.353 0.133 0.352 0.13 0.357 C 0.125 0.364 0.123 0.362 0.125 0.353 C 0.126 0.349 0.127 0.345 0.126 0.342 C 0.126 0.34 0.127 0.335 0.13 0.331 C 0.133 0.327 0.135 0.322 0.134 0.32 C 0.134 0.318 0.135 0.313 0.136 0.308 C 0.139 0.299 0.142 0.285 0.141 0.279 C 0.141 0.276 0.142 0.274 0.143 0.274 C 0.144 0.274 0.146 0.272 0.146 0.27 C 0.147 0.268 0.147 0.269 0.146 0.273 C 0.146 0.277 0.146 0.279 0.148 0.279 C 0.149 0.279 0.15 0.277 0.15 0.274 C 0.15 0.272 0.151 0.266 0.152 0.261 C 0.155 0.252 0.157 0.235 0.157 0.217 C 0.157 0.209 0.158 0.207 0.159 0.207 C 0.161 0.207 0.162 0.209 0.161 0.214 C 0.161 0.219 0.161 0.222 0.163 0.224 C 0.166 0.227 0.168 0.252 0.165 0.255 C 0.164 0.256 0.163 0.26 0.163 0.264 C 0.163 0.268 0.162 0.271 0.161 0.272 C 0.161 0.273 0.16 0.276 0.16 0.278 C 0.16 0.282 0.16 0.282 0.163 0.278 C 0.166 0.273 0.167 0.273 0.168 0.276 C 0.169 0.281 0.174 0.274 0.174 0.267 C 0.174 0.264 0.175 0.263 0.176 0.264 C 0.177 0.266 0.177 0.261 0.178 0.224 C 0.178 0.21 0.177 0.206 0.175 0.203 C 0.174 0.202 0.172 0.199 0.172 0.198 C 0.172 0.196 0.171 0.193 0.17 0.191 C 0.166 0.186 0.164 0.162 0.168 0.155 C 0.173 0.147 0.176 0.151 0.176 0.169 C 0.176 0.177 0.176 0.184 0.177 0.184 C 0.178 0.184 0.179 0.187 0.179 0.189 C 0.179 0.192 0.18 0.196 0.182 0.199 C 0.184 0.202 0.185 0.207 0.185 0.211 C 0.185 0.218 0.188 0.22 0.191 0.214 C 0.192 0.212 0.193 0.212 0.193 0.217 C 0.193 0.22 0.192 0.224 0.191 0.224 C 0.19 0.225 0.191 0.225 0.194 0.224 C 0.197 0.223 0.199 0.224 0.199 0.226 C 0.199 0.228 0.2 0.229 0.201 0.228 C 0.201 0.227 0.202 0.227 0.202 0.229 C 0.202 0.231 0.203 0.231 0.205 0.228 C 0.207 0.225 0.209 0.223 0.21 0.223 C 0.212 0.223 0.212 0.232 0.21 0.232 C 0.21 0.232 0.206 0.233 0.202 0.233 C 0.198 0.234 0.194 0.236 0.193 0.239 C 0.192 0.242 0.191 0.242 0.188 0.24 C 0.183 0.237 0.182 0.239 0.182 0.249 C 0.182 0.255 0.187 0.263 0.189 0.259 C 0.189 0.259 0.19 0.255 0.192 0.251 C 0.195 0.241 0.196 0.241 0.2 0.251 C 0.203 0.259 0.207 0.263 0.206 0.256 C 0.205 0.251 0.208 0.245 0.21 0.247 C 0.211 0.248 0.211 0.251 0.211 0.253 C 0.211 0.255 0.211 0.257 0.212 0.258 C 0.212 0.259 0.213 0.257 0.213 0.254 C 0.213 0.25 0.214 0.249 0.217 0.249 C 0.219 0.249 0.222 0.247 0.223 0.245 C 0.225 0.242 0.228 0.24 0.23 0.24 C 0.234 0.239 0.239 0.226 0.237 0.223 C 0.235 0.219 0.228 0.223 0.226 0.231 C 0.22 0.245 0.217 0.233 0.222 0.217 C 0.225 0.205 0.226 0.2 0.226 0.179 C 0.226 0.151 0.227 0.135 0.229 0.132 C 0.232 0.129 0.235 0.141 0.234 0.151 C 0.233 0.165 0.247 0.181 0.249 0.168 C 0.249 0.165 0.251 0.162 0.252 0.162 C 0.254 0.162 0.256 0.151 0.256 0.142 C 0.256 0.139 0.256 0.137 0.257 0.137 C 0.258 0.137 0.259 0.135 0.259 0.132 C 0.259 0.125 0.26 0.122 0.263 0.126 C 0.265 0.129 0.271 0.122 0.271 0.117 C 0.271 0.115 0.271 0.113 0.272 0.112 C 0.273 0.112 0.274 0.113 0.274 0.116 C 0.274 0.118 0.275 0.12 0.276 0.12 C 0.277 0.12 0.277 0.118 0.277 0.115 C 0.277 0.11 0.283 0.095 0.29 0.079 C 0.291 0.077 0.292 0.073 0.292 0.07 C 0.292 0.067 0.293 0.064 0.294 0.063 C 0.297 0.061 0.297 0.05 0.294 0.041 C 0.293 0.037 0.293 0.035 0.294 0.034 C 0.295 0.034 0.296 0.031 0.296 0.029 C 0.296 0.027 0.298 0.023 0.299 0.019 C 0.301 0.015 0.303 0.009 0.303 0.006 L 0.303 0 L 0.151 0 L 0 0 L 0 0.5 Z  M 0.321 0.012 C 0.321 0.018 0.322 0.022 0.322 0.02 C 0.323 0.018 0.324 0.017 0.325 0.017 C 0.328 0.017 0.326 0.002 0.323 0.001 C 0.321 0 0.321 0.002 0.321 0.012 Z  M 0.334 0.004 C 0.334 0.005 0.335 0.009 0.337 0.01 C 0.339 0.013 0.34 0.013 0.339 0.008 C 0.339 0.005 0.339 0.003 0.341 0.002 C 0.343 0.001 0.342 0.001 0.339 0 C 0.336 0 0.334 0.001 0.334 0.004 Z  M 0.348 0.007 C 0.35 0.01 0.352 0.012 0.352 0.011 C 0.353 0.009 0.354 0.008 0.355 0.008 C 0.356 0.008 0.357 0.006 0.357 0.004 C 0.357 0.001 0.356 0 0.351 0 L 0.344 0 L 0.348 0.007 Z  M 0.561 0.002 C 0.563 0.003 0.568 0.003 0.572 0.002 C 0.575 0.001 0.573 0.001 0.567 0.001 C 0.561 0.001 0.558 0.001 0.561 0.002 Z  M 0.553 0.086 C 0.546 0.099 0.55 0.12 0.559 0.115 C 0.563 0.112 0.562 0.102 0.558 0.094 C 0.556 0.091 0.555 0.087 0.556 0.085 C 0.557 0.08 0.556 0.08 0.553 0.086 Z  M 0.416 0.127 C 0.416 0.134 0.407 0.137 0.405 0.13 C 0.405 0.127 0.405 0.126 0.406 0.126 C 0.407 0.127 0.409 0.126 0.41 0.124 C 0.413 0.119 0.416 0.12 0.416 0.127 Z  M 0.428 0.124 C 0.432 0.129 0.431 0.138 0.427 0.136 C 0.426 0.135 0.423 0.134 0.422 0.134 C 0.419 0.134 0.418 0.126 0.42 0.123 C 0.423 0.119 0.425 0.12 0.428 0.124 Z  M 0.402 0.131 C 0.402 0.134 0.4 0.136 0.397 0.136 C 0.391 0.137 0.389 0.13 0.395 0.128 C 0.399 0.125 0.402 0.127 0.402 0.131 Z  M 0.538 0.128 C 0.538 0.132 0.533 0.132 0.53 0.128 C 0.528 0.126 0.529 0.126 0.533 0.126 C 0.535 0.126 0.538 0.127 0.538 0.128 Z  M 0.506 0.143 C 0.506 0.144 0.504 0.145 0.501 0.145 C 0.498 0.145 0.497 0.144 0.498 0.143 C 0.501 0.14 0.506 0.14 0.506 0.143 Z  M 0.197 0.164 C 0.197 0.167 0.198 0.171 0.199 0.174 C 0.201 0.178 0.201 0.18 0.199 0.181 C 0.198 0.182 0.197 0.185 0.196 0.189 C 0.192 0.208 0.187 0.183 0.19 0.163 C 0.191 0.157 0.196 0.158 0.197 0.164 Z  M 0.665 0.163 C 0.668 0.158 0.666 0.167 0.663 0.172 C 0.657 0.183 0.651 0.175 0.656 0.164 C 0.658 0.161 0.659 0.16 0.661 0.162 C 0.663 0.163 0.665 0.164 0.665 0.163 Z  M 0.246 0.186 C 0.246 0.188 0.246 0.19 0.247 0.19 C 0.247 0.19 0.249 0.191 0.25 0.192 C 0.252 0.193 0.252 0.192 0.252 0.187 C 0.252 0.183 0.251 0.181 0.249 0.181 C 0.247 0.181 0.246 0.183 0.246 0.186 Z  M 0.194 0.202 C 0.194 0.205 0.193 0.207 0.192 0.207 C 0.191 0.207 0.19 0.205 0.19 0.202 C 0.19 0.2 0.191 0.198 0.192 0.198 C 0.193 0.198 0.194 0.2 0.194 0.202 Z  M 0.726 0.212 C 0.726 0.216 0.725 0.218 0.723 0.218 C 0.719 0.218 0.719 0.217 0.72 0.211 C 0.722 0.205 0.726 0.206 0.726 0.212 Z  M 0.757 0.264 C 0.757 0.271 0.748 0.283 0.744 0.283 C 0.739 0.281 0.735 0.287 0.736 0.293 C 0.736 0.295 0.736 0.296 0.734 0.295 C 0.732 0.294 0.73 0.302 0.73 0.309 C 0.73 0.311 0.729 0.313 0.727 0.313 C 0.724 0.313 0.723 0.31 0.724 0.302 C 0.724 0.301 0.723 0.298 0.721 0.296 C 0.719 0.294 0.718 0.291 0.718 0.289 C 0.718 0.285 0.732 0.27 0.734 0.272 C 0.734 0.273 0.739 0.271 0.744 0.268 C 0.754 0.262 0.757 0.261 0.757 0.264 Z  M 0.759 0.294 C 0.759 0.295 0.758 0.296 0.757 0.295 C 0.756 0.294 0.755 0.294 0.755 0.296 C 0.755 0.298 0.755 0.298 0.754 0.297 C 0.753 0.296 0.752 0.297 0.752 0.298 C 0.752 0.3 0.751 0.301 0.749 0.301 C 0.747 0.301 0.747 0.299 0.747 0.296 C 0.748 0.293 0.747 0.293 0.746 0.294 C 0.744 0.295 0.743 0.295 0.743 0.293 C 0.743 0.292 0.744 0.29 0.745 0.29 C 0.746 0.29 0.748 0.289 0.749 0.286 C 0.751 0.282 0.759 0.288 0.759 0.294 Z  M 0.745 0.311 C 0.744 0.312 0.743 0.316 0.743 0.32 C 0.743 0.327 0.74 0.332 0.736 0.332 C 0.728 0.332 0.732 0.316 0.741 0.308 C 0.746 0.305 0.748 0.306 0.745 0.311 Z  M 0.772 0.309 C 0.775 0.311 0.775 0.32 0.771 0.322 C 0.768 0.324 0.766 0.318 0.767 0.311 C 0.768 0.307 0.768 0.306 0.772 0.309 Z  M 0.756 0.329 C 0.757 0.332 0.751 0.343 0.749 0.343 C 0.746 0.343 0.748 0.351 0.752 0.355 C 0.756 0.359 0.756 0.363 0.754 0.371 C 0.751 0.378 0.756 0.39 0.759 0.385 C 0.76 0.384 0.762 0.383 0.763 0.383 C 0.765 0.383 0.766 0.381 0.767 0.379 C 0.769 0.371 0.799 0.33 0.801 0.333 C 0.802 0.335 0.803 0.335 0.803 0.333 C 0.803 0.331 0.804 0.331 0.806 0.331 C 0.811 0.334 0.81 0.344 0.805 0.343 C 0.803 0.342 0.801 0.342 0.801 0.343 C 0.802 0.352 0.801 0.357 0.798 0.358 C 0.784 0.358 0.784 0.373 0.798 0.374 C 0.803 0.374 0.808 0.374 0.808 0.375 C 0.813 0.376 0.815 0.373 0.817 0.366 C 0.821 0.355 0.823 0.355 0.823 0.367 C 0.823 0.372 0.823 0.377 0.824 0.378 C 0.826 0.38 0.825 0.397 0.824 0.402 C 0.823 0.403 0.823 0.405 0.824 0.405 C 0.825 0.405 0.826 0.404 0.826 0.403 C 0.826 0.401 0.829 0.4 0.833 0.4 C 0.841 0.4 0.842 0.403 0.837 0.406 C 0.835 0.407 0.831 0.411 0.828 0.415 C 0.824 0.42 0.823 0.421 0.824 0.417 C 0.825 0.414 0.824 0.413 0.823 0.414 C 0.822 0.415 0.821 0.417 0.821 0.419 C 0.821 0.425 0.817 0.442 0.814 0.447 C 0.812 0.45 0.812 0.449 0.812 0.446 C 0.812 0.443 0.811 0.441 0.809 0.441 C 0.808 0.441 0.807 0.439 0.807 0.436 C 0.808 0.427 0.807 0.426 0.801 0.426 C 0.792 0.426 0.792 0.444 0.801 0.447 C 0.803 0.448 0.807 0.45 0.809 0.453 C 0.81 0.455 0.812 0.457 0.813 0.456 C 0.815 0.452 0.811 0.474 0.808 0.482 C 0.807 0.488 0.806 0.492 0.806 0.493 C 0.807 0.494 0.807 0.494 0.807 0.492 C 0.807 0.49 0.808 0.489 0.809 0.49 C 0.811 0.491 0.815 0.487 0.819 0.482 C 0.823 0.476 0.827 0.472 0.829 0.472 C 0.832 0.472 0.86 0.456 0.868 0.451 C 0.878 0.443 0.879 0.453 0.87 0.468 C 0.867 0.473 0.862 0.479 0.859 0.481 C 0.854 0.484 0.854 0.484 0.857 0.486 C 0.859 0.488 0.862 0.488 0.862 0.487 C 0.863 0.486 0.868 0.485 0.874 0.485 C 0.879 0.485 0.884 0.484 0.884 0.483 C 0.884 0.482 0.886 0.482 0.889 0.483 L 0.892 0.486 L 0.888 0.492 C 0.883 0.5 0.885 0.505 0.894 0.508 C 0.898 0.509 0.903 0.512 0.905 0.515 C 0.909 0.519 0.912 0.52 0.918 0.518 C 0.925 0.517 0.926 0.518 0.926 0.522 C 0.926 0.529 0.922 0.531 0.908 0.532 C 0.902 0.532 0.896 0.534 0.895 0.535 C 0.894 0.537 0.892 0.538 0.891 0.537 C 0.89 0.536 0.886 0.538 0.883 0.541 C 0.881 0.545 0.876 0.547 0.874 0.547 C 0.872 0.547 0.867 0.547 0.863 0.546 C 0.858 0.546 0.856 0.545 0.856 0.543 C 0.857 0.538 0.853 0.537 0.846 0.54 C 0.84 0.542 0.828 0.544 0.818 0.545 C 0.815 0.545 0.813 0.547 0.813 0.55 C 0.813 0.558 0.81 0.56 0.808 0.554 C 0.806 0.549 0.805 0.549 0.8 0.552 C 0.795 0.556 0.794 0.556 0.793 0.553 C 0.792 0.55 0.791 0.55 0.791 0.554 C 0.79 0.556 0.789 0.558 0.788 0.557 C 0.786 0.554 0.784 0.562 0.785 0.567 C 0.786 0.578 0.776 0.595 0.773 0.586 C 0.772 0.584 0.771 0.585 0.769 0.589 C 0.768 0.593 0.767 0.597 0.767 0.598 C 0.768 0.599 0.766 0.601 0.763 0.602 C 0.76 0.603 0.756 0.607 0.754 0.61 C 0.752 0.614 0.75 0.616 0.748 0.615 C 0.747 0.614 0.744 0.616 0.742 0.619 C 0.738 0.626 0.734 0.629 0.726 0.629 C 0.715 0.631 0.714 0.632 0.718 0.645 C 0.722 0.664 0.718 0.68 0.712 0.669 C 0.709 0.665 0.709 0.665 0.707 0.669 C 0.706 0.671 0.704 0.672 0.702 0.671 C 0.701 0.671 0.699 0.671 0.698 0.673 C 0.698 0.674 0.696 0.676 0.694 0.676 C 0.693 0.676 0.69 0.68 0.688 0.685 C 0.681 0.699 0.676 0.688 0.681 0.67 C 0.683 0.665 0.684 0.658 0.684 0.653 C 0.684 0.649 0.685 0.644 0.686 0.642 C 0.687 0.64 0.688 0.635 0.688 0.63 C 0.688 0.623 0.699 0.583 0.701 0.581 C 0.702 0.581 0.702 0.579 0.702 0.577 C 0.702 0.574 0.703 0.571 0.705 0.569 C 0.708 0.565 0.712 0.549 0.711 0.543 C 0.71 0.54 0.711 0.538 0.715 0.536 C 0.72 0.533 0.72 0.528 0.714 0.528 C 0.712 0.528 0.711 0.527 0.712 0.513 C 0.714 0.496 0.715 0.493 0.73 0.48 C 0.748 0.463 0.758 0.395 0.746 0.375 C 0.737 0.361 0.737 0.346 0.745 0.339 C 0.747 0.337 0.75 0.333 0.751 0.331 C 0.753 0.326 0.755 0.326 0.756 0.329 Z  M 0.034 0.379 C 0.034 0.382 0.032 0.384 0.03 0.385 C 0.026 0.386 0.025 0.376 0.029 0.373 C 0.032 0.371 0.034 0.373 0.034 0.379 Z  M 0.873 0.387 C 0.873 0.391 0.864 0.403 0.862 0.401 C 0.862 0.4 0.862 0.397 0.864 0.396 C 0.865 0.394 0.867 0.39 0.867 0.387 C 0.868 0.382 0.872 0.382 0.873 0.387 Z  M 0.073 0.399 C 0.071 0.409 0.07 0.413 0.072 0.413 C 0.073 0.413 0.074 0.411 0.074 0.409 C 0.074 0.407 0.075 0.405 0.076 0.405 C 0.078 0.405 0.08 0.403 0.082 0.4 C 0.086 0.393 0.089 0.4 0.086 0.407 C 0.084 0.41 0.083 0.416 0.083 0.42 C 0.083 0.424 0.082 0.428 0.082 0.429 C 0.081 0.43 0.08 0.434 0.08 0.439 C 0.08 0.443 0.079 0.449 0.077 0.451 C 0.075 0.455 0.074 0.458 0.075 0.468 C 0.075 0.477 0.075 0.481 0.073 0.482 C 0.072 0.483 0.071 0.485 0.071 0.487 C 0.071 0.489 0.069 0.494 0.067 0.499 C 0.064 0.503 0.063 0.508 0.063 0.509 C 0.063 0.51 0.062 0.511 0.06 0.511 C 0.059 0.511 0.058 0.513 0.059 0.517 C 0.061 0.531 0.061 0.544 0.06 0.546 C 0.059 0.547 0.058 0.55 0.058 0.552 C 0.058 0.555 0.056 0.561 0.054 0.565 L 0.05 0.574 L 0.05 0.565 C 0.05 0.561 0.05 0.558 0.049 0.56 C 0.048 0.561 0.046 0.563 0.043 0.563 C 0.039 0.562 0.038 0.564 0.038 0.567 C 0.038 0.577 0.038 0.586 0.036 0.586 C 0.035 0.586 0.035 0.584 0.035 0.581 C 0.036 0.575 0.033 0.564 0.029 0.558 C 0.026 0.552 0.026 0.541 0.029 0.525 C 0.032 0.51 0.033 0.464 0.031 0.454 C 0.03 0.447 0.032 0.441 0.034 0.447 C 0.034 0.449 0.036 0.447 0.037 0.444 L 0.04 0.438 L 0.047 0.444 L 0.054 0.45 L 0.057 0.443 C 0.058 0.44 0.06 0.433 0.06 0.428 C 0.061 0.423 0.063 0.416 0.064 0.413 C 0.066 0.41 0.067 0.406 0.067 0.404 C 0.067 0.4 0.07 0.394 0.073 0.394 C 0.073 0.394 0.073 0.396 0.073 0.399 Z  M 0.794 0.405 C 0.793 0.407 0.793 0.409 0.794 0.411 C 0.796 0.415 0.798 0.41 0.796 0.405 C 0.795 0.402 0.795 0.402 0.794 0.405 Z  M 0.013 0.44 C 0.013 0.442 0.013 0.444 0.014 0.443 C 0.017 0.439 0.015 0.447 0.011 0.454 C 0.004 0.467 0.002 0.468 0.002 0.458 C 0.002 0.452 0.002 0.449 0.005 0.448 C 0.008 0.446 0.009 0.441 0.006 0.441 C 0.005 0.441 0.005 0.44 0.005 0.438 C 0.005 0.437 0.006 0.436 0.009 0.436 C 0.011 0.436 0.013 0.437 0.013 0.44 Z  M 0.826 0.456 C 0.823 0.462 0.821 0.463 0.818 0.461 L 0.814 0.459 L 0.82 0.452 C 0.822 0.448 0.825 0.446 0.825 0.447 C 0.826 0.448 0.827 0.446 0.828 0.443 C 0.83 0.437 0.83 0.437 0.83 0.442 C 0.831 0.445 0.829 0.451 0.826 0.456 Z  M 0.928 0.464 C 0.928 0.468 0.927 0.469 0.925 0.469 C 0.921 0.469 0.919 0.465 0.921 0.461 C 0.922 0.456 0.927 0.459 0.928 0.464 Z  M 0.905 0.481 C 0.904 0.487 0.9 0.487 0.9 0.481 C 0.9 0.477 0.9 0.476 0.903 0.477 C 0.905 0.477 0.906 0.48 0.905 0.481 Z  M 0.754 0.511 C 0.753 0.512 0.752 0.515 0.753 0.517 C 0.753 0.521 0.754 0.52 0.756 0.515 C 0.759 0.508 0.758 0.506 0.754 0.511 Z  M 0.176 0.538 C 0.176 0.542 0.172 0.543 0.17 0.54 C 0.169 0.537 0.172 0.53 0.174 0.532 C 0.175 0.533 0.176 0.535 0.176 0.538 Z  M 0.744 0.533 C 0.743 0.535 0.742 0.535 0.741 0.534 C 0.739 0.533 0.738 0.535 0.737 0.537 C 0.737 0.54 0.735 0.541 0.734 0.541 C 0.733 0.54 0.732 0.541 0.733 0.544 C 0.734 0.547 0.733 0.548 0.731 0.546 C 0.727 0.543 0.729 0.551 0.735 0.557 C 0.74 0.562 0.745 0.557 0.747 0.542 C 0.748 0.535 0.746 0.528 0.744 0.533 Z  M 0.096 0.547 C 0.096 0.55 0.094 0.553 0.093 0.554 C 0.091 0.555 0.091 0.555 0.092 0.551 C 0.092 0.549 0.092 0.546 0.092 0.544 C 0.092 0.543 0.093 0.542 0.094 0.542 C 0.095 0.542 0.096 0.544 0.096 0.547 Z  M 0.187 0.564 C 0.186 0.566 0.185 0.567 0.185 0.565 C 0.186 0.564 0.187 0.56 0.187 0.557 C 0.188 0.553 0.189 0.553 0.189 0.555 C 0.19 0.557 0.189 0.561 0.187 0.564 Z  M 0.849 0.559 C 0.848 0.563 0.847 0.571 0.846 0.577 C 0.845 0.584 0.844 0.589 0.843 0.589 C 0.842 0.589 0.842 0.592 0.842 0.596 C 0.842 0.602 0.841 0.603 0.839 0.603 C 0.837 0.602 0.836 0.603 0.835 0.605 C 0.834 0.607 0.832 0.608 0.831 0.606 C 0.829 0.604 0.829 0.602 0.83 0.601 C 0.833 0.598 0.835 0.588 0.835 0.581 C 0.835 0.579 0.837 0.573 0.839 0.57 C 0.841 0.566 0.843 0.561 0.843 0.56 C 0.843 0.556 0.845 0.554 0.849 0.553 C 0.849 0.553 0.849 0.556 0.849 0.559 Z  M 0.737 0.57 C 0.737 0.572 0.739 0.574 0.74 0.575 C 0.741 0.575 0.741 0.574 0.741 0.572 C 0.741 0.57 0.739 0.568 0.738 0.567 C 0.737 0.567 0.737 0.568 0.737 0.57 Z  M 0.893 0.582 C 0.899 0.593 0.9 0.598 0.895 0.598 C 0.894 0.598 0.892 0.594 0.891 0.59 C 0.89 0.586 0.888 0.584 0.887 0.585 C 0.883 0.589 0.879 0.583 0.882 0.578 C 0.886 0.571 0.886 0.571 0.893 0.582 Z  M 0.872 0.589 C 0.872 0.592 0.872 0.594 0.871 0.594 C 0.869 0.593 0.868 0.584 0.87 0.584 C 0.872 0.584 0.872 0.586 0.872 0.589 Z  M 0.052 0.595 C 0.053 0.602 0.052 0.607 0.05 0.604 C 0.048 0.602 0.048 0.589 0.05 0.589 C 0.051 0.589 0.052 0.592 0.052 0.595 Z  M 0.151 0.606 C 0.151 0.607 0.152 0.609 0.153 0.61 C 0.155 0.611 0.157 0.616 0.158 0.621 C 0.16 0.626 0.161 0.63 0.161 0.631 C 0.161 0.632 0.159 0.633 0.156 0.633 C 0.15 0.633 0.148 0.628 0.15 0.615 C 0.151 0.61 0.15 0.608 0.149 0.61 C 0.148 0.611 0.148 0.61 0.148 0.607 C 0.149 0.605 0.15 0.603 0.151 0.603 C 0.152 0.603 0.152 0.604 0.151 0.606 Z  M 0.27 0.61 C 0.276 0.611 0.29 0.624 0.289 0.626 C 0.288 0.627 0.289 0.628 0.291 0.628 C 0.299 0.628 0.309 0.635 0.309 0.64 C 0.309 0.646 0.308 0.646 0.3 0.641 C 0.295 0.638 0.288 0.637 0.274 0.638 C 0.252 0.639 0.25 0.637 0.259 0.624 C 0.262 0.619 0.263 0.618 0.261 0.62 C 0.255 0.625 0.251 0.621 0.252 0.613 C 0.253 0.605 0.252 0.605 0.27 0.61 Z  M 0.83 0.609 C 0.83 0.61 0.83 0.612 0.83 0.612 C 0.829 0.612 0.827 0.612 0.826 0.613 C 0.824 0.613 0.823 0.612 0.823 0.61 C 0.823 0.605 0.828 0.604 0.83 0.609 Z  M 0.201 0.623 C 0.201 0.624 0.202 0.629 0.203 0.633 C 0.207 0.643 0.205 0.649 0.2 0.645 C 0.198 0.643 0.196 0.64 0.196 0.638 C 0.196 0.633 0.2 0.62 0.201 0.62 C 0.202 0.62 0.202 0.621 0.201 0.623 Z  M 0.252 0.666 C 0.252 0.668 0.251 0.67 0.25 0.67 C 0.248 0.67 0.247 0.667 0.249 0.664 C 0.25 0.66 0.252 0.662 0.252 0.666 Z  M 0.215 0.67 C 0.215 0.671 0.214 0.674 0.212 0.677 C 0.21 0.681 0.21 0.681 0.213 0.681 C 0.214 0.681 0.218 0.683 0.222 0.685 C 0.225 0.688 0.23 0.689 0.232 0.688 C 0.234 0.687 0.235 0.688 0.235 0.689 C 0.235 0.691 0.235 0.692 0.234 0.692 C 0.232 0.691 0.22 0.701 0.22 0.704 C 0.219 0.709 0.213 0.706 0.212 0.701 C 0.212 0.698 0.211 0.695 0.21 0.695 C 0.209 0.695 0.208 0.692 0.208 0.688 C 0.208 0.684 0.208 0.681 0.207 0.681 C 0.204 0.681 0.205 0.676 0.209 0.67 C 0.212 0.665 0.215 0.665 0.215 0.67 Z  M 0.258 0.685 C 0.263 0.7 0.262 0.705 0.252 0.71 C 0.248 0.713 0.243 0.716 0.243 0.718 C 0.243 0.719 0.242 0.72 0.241 0.72 C 0.24 0.72 0.236 0.725 0.233 0.732 C 0.229 0.738 0.226 0.743 0.225 0.743 C 0.221 0.743 0.222 0.732 0.226 0.725 C 0.228 0.722 0.23 0.717 0.231 0.714 C 0.232 0.711 0.237 0.703 0.242 0.697 C 0.247 0.691 0.252 0.684 0.253 0.682 C 0.255 0.677 0.256 0.678 0.258 0.685 Z  M 0.679 0.699 C 0.681 0.71 0.681 0.714 0.679 0.714 C 0.677 0.716 0.672 0.699 0.673 0.695 C 0.675 0.691 0.677 0.692 0.679 0.699 Z  M 0.262 0.745 C 0.262 0.747 0.262 0.751 0.262 0.753 C 0.262 0.755 0.263 0.756 0.264 0.755 C 0.265 0.754 0.266 0.755 0.266 0.756 C 0.266 0.758 0.266 0.759 0.265 0.759 C 0.262 0.759 0.263 0.774 0.266 0.778 C 0.269 0.781 0.268 0.782 0.264 0.784 C 0.262 0.786 0.259 0.787 0.259 0.786 C 0.258 0.785 0.259 0.783 0.26 0.783 C 0.262 0.781 0.262 0.771 0.261 0.764 C 0.26 0.76 0.26 0.76 0.257 0.764 C 0.256 0.767 0.253 0.768 0.25 0.767 C 0.247 0.766 0.242 0.765 0.239 0.764 C 0.233 0.762 0.232 0.761 0.232 0.755 C 0.232 0.746 0.239 0.74 0.242 0.746 C 0.244 0.748 0.247 0.749 0.25 0.749 C 0.253 0.748 0.256 0.749 0.256 0.751 C 0.257 0.753 0.258 0.754 0.259 0.754 C 0.26 0.754 0.26 0.752 0.258 0.75 C 0.256 0.747 0.256 0.746 0.257 0.743 C 0.26 0.739 0.262 0.739 0.262 0.745 Z  M 0.271 0.755 C 0.271 0.758 0.27 0.759 0.27 0.759 C 0.269 0.759 0.268 0.758 0.268 0.755 C 0.268 0.753 0.269 0.751 0.27 0.751 C 0.27 0.751 0.271 0.753 0.271 0.755 Z  M 0.286 0.792 C 0.287 0.799 0.285 0.801 0.282 0.794 C 0.28 0.791 0.28 0.791 0.275 0.795 C 0.27 0.801 0.268 0.801 0.269 0.794 C 0.272 0.782 0.284 0.781 0.286 0.792 Z  M 0.322 0.811 C 0.321 0.813 0.317 0.809 0.317 0.807 C 0.317 0.805 0.318 0.805 0.32 0.807 C 0.322 0.809 0.323 0.811 0.322 0.811 Z  M 0.288 0.825 C 0.289 0.828 0.29 0.832 0.29 0.835 C 0.29 0.841 0.293 0.841 0.304 0.837 C 0.31 0.835 0.312 0.835 0.317 0.839 C 0.319 0.841 0.323 0.843 0.324 0.843 C 0.325 0.843 0.327 0.846 0.329 0.849 L 0.332 0.856 L 0.329 0.858 C 0.327 0.859 0.325 0.859 0.324 0.858 C 0.321 0.855 0.303 0.856 0.29 0.86 C 0.276 0.864 0.273 0.862 0.276 0.852 C 0.277 0.848 0.277 0.844 0.276 0.838 C 0.273 0.822 0.282 0.811 0.288 0.825 Z  M 0.418 0.833 C 0.418 0.836 0.419 0.838 0.42 0.839 C 0.421 0.84 0.422 0.838 0.422 0.835 C 0.422 0.832 0.421 0.829 0.42 0.829 C 0.419 0.829 0.418 0.831 0.418 0.833 Z  M 0.343 0.858 C 0.344 0.861 0.344 0.862 0.343 0.864 C 0.341 0.865 0.335 0.86 0.335 0.856 C 0.335 0.853 0.341 0.854 0.343 0.858 Z  M 0.301 0.911 C 0.301 0.909 0.303 0.909 0.304 0.91 C 0.305 0.912 0.306 0.913 0.305 0.913 C 0.304 0.913 0.304 0.914 0.305 0.915 C 0.308 0.918 0.309 0.95 0.306 0.956 C 0.305 0.96 0.305 0.963 0.307 0.971 C 0.31 0.982 0.309 0.983 0.301 0.985 C 0.294 0.986 0.285 0.963 0.291 0.955 C 0.292 0.953 0.293 0.949 0.293 0.946 C 0.293 0.943 0.294 0.941 0.296 0.941 C 0.298 0.941 0.298 0.938 0.297 0.924 C 0.297 0.913 0.297 0.908 0.298 0.91 C 0.299 0.913 0.3 0.914 0.301 0.911 Z " fill-rule="evenodd" fill="rgb(0,0,0)"/></g></g></svg>