<?xml version="1.0" encoding="UTF-8" standalone="no"?><!-- Generator: Gravit.io --><svg xmlns="http://www.w3.org/2000/svg" xmlns:xlink="http://www.w3.org/1999/xlink" style="isolation:isolate" viewBox="0 0 1 1" width="1pt" height="1pt"><defs><clipPath id="_clipPath_EAJGzhBDTE6XuvUgOpe0nCwIK1QP6AfI"><rect width="1" height="1"/></clipPath></defs><g clip-path="url(#_clipPath_EAJGzhBDTE6XuvUgOpe0nCwIK1QP6AfI)"><g><path d=" M 0 0.5 L 0 1 L 0.147 1 C 0.245 1 0.295 0.999 0.294 0.997 C 0.293 0.995 0.294 0.994 0.295 0.994 C 0.295 0.994 0.296 0.995 0.296 0.997 C 0.296 1.002 0.373 1.001 0.374 0.995 C 0.375 0.991 0.38 0.99 0.386 0.994 C 0.389 0.996 0.39 0.996 0.391 0.992 C 0.393 0.984 0.392 0.98 0.384 0.97 C 0.377 0.961 0.374 0.953 0.374 0.934 C 0.374 0.931 0.373 0.926 0.372 0.922 C 0.368 0.91 0.372 0.905 0.38 0.911 C 0.384 0.915 0.385 0.916 0.384 0.923 C 0.384 0.932 0.389 0.943 0.39 0.936 C 0.39 0.934 0.392 0.933 0.393 0.933 C 0.395 0.933 0.396 0.928 0.393 0.926 C 0.392 0.924 0.392 0.92 0.392 0.916 C 0.393 0.908 0.388 0.901 0.377 0.898 C 0.365 0.894 0.361 0.874 0.371 0.872 C 0.381 0.87 0.381 0.858 0.373 0.853 C 0.367 0.85 0.365 0.845 0.37 0.843 C 0.372 0.842 0.375 0.843 0.377 0.847 C 0.381 0.852 0.382 0.852 0.387 0.85 C 0.392 0.848 0.394 0.848 0.395 0.85 C 0.397 0.858 0.402 0.858 0.405 0.849 C 0.406 0.844 0.408 0.841 0.411 0.839 C 0.417 0.837 0.417 0.834 0.41 0.829 C 0.407 0.827 0.405 0.825 0.404 0.824 C 0.404 0.823 0.401 0.819 0.397 0.814 C 0.393 0.81 0.39 0.805 0.39 0.804 C 0.39 0.802 0.388 0.802 0.386 0.803 C 0.382 0.804 0.381 0.804 0.379 0.798 C 0.377 0.79 0.362 0.768 0.359 0.768 C 0.357 0.768 0.355 0.765 0.354 0.761 C 0.352 0.753 0.346 0.75 0.346 0.757 C 0.346 0.759 0.345 0.764 0.343 0.767 C 0.34 0.772 0.34 0.772 0.34 0.764 C 0.341 0.76 0.342 0.756 0.343 0.755 C 0.344 0.754 0.345 0.751 0.344 0.749 C 0.343 0.744 0.344 0.743 0.353 0.735 C 0.354 0.735 0.354 0.736 0.354 0.738 C 0.354 0.741 0.355 0.743 0.357 0.744 C 0.358 0.745 0.366 0.757 0.375 0.771 C 0.385 0.788 0.392 0.799 0.398 0.804 C 0.403 0.807 0.407 0.812 0.408 0.814 C 0.409 0.816 0.409 0.816 0.409 0.813 C 0.409 0.807 0.414 0.81 0.418 0.817 C 0.419 0.821 0.421 0.823 0.422 0.822 C 0.425 0.818 0.429 0.824 0.43 0.833 C 0.43 0.84 0.43 0.84 0.431 0.836 C 0.431 0.828 0.435 0.826 0.448 0.827 C 0.454 0.828 0.46 0.827 0.461 0.826 C 0.466 0.822 0.478 0.818 0.487 0.818 L 0.496 0.818 L 0.492 0.824 C 0.49 0.827 0.486 0.83 0.484 0.831 C 0.478 0.833 0.475 0.837 0.475 0.843 C 0.475 0.848 0.471 0.853 0.468 0.852 C 0.467 0.852 0.464 0.855 0.462 0.858 C 0.459 0.864 0.458 0.864 0.456 0.86 C 0.455 0.856 0.455 0.856 0.454 0.861 C 0.453 0.864 0.453 0.867 0.454 0.868 C 0.456 0.87 0.455 0.872 0.452 0.876 C 0.45 0.879 0.448 0.883 0.448 0.883 C 0.448 0.884 0.446 0.891 0.443 0.899 C 0.439 0.912 0.439 0.912 0.441 0.923 C 0.443 0.929 0.444 0.946 0.444 0.962 C 0.445 0.977 0.445 0.992 0.445 0.995 C 0.445 0.999 0.459 1 0.723 1 L 1 1 L 1 0.5 L 1 0.001 L 0.775 0.001 C 0.539 0.001 0.541 0.001 0.541 0.012 C 0.541 0.018 0.557 0.016 0.566 0.009 C 0.574 0.002 0.584 0.004 0.586 0.011 C 0.587 0.015 0.588 0.015 0.59 0.012 C 0.591 0.011 0.592 0.009 0.593 0.009 C 0.595 0.009 0.594 0.037 0.593 0.042 C 0.592 0.045 0.592 0.048 0.592 0.049 C 0.592 0.05 0.593 0.05 0.594 0.048 C 0.595 0.045 0.596 0.045 0.597 0.047 C 0.599 0.05 0.598 0.053 0.595 0.06 C 0.59 0.072 0.589 0.08 0.593 0.08 C 0.594 0.08 0.595 0.079 0.595 0.077 C 0.594 0.076 0.595 0.077 0.596 0.08 C 0.6 0.088 0.599 0.092 0.595 0.094 C 0.591 0.096 0.583 0.091 0.583 0.087 C 0.583 0.081 0.577 0.083 0.575 0.091 C 0.564 0.124 0.564 0.128 0.576 0.126 C 0.582 0.125 0.587 0.124 0.588 0.125 C 0.589 0.126 0.589 0.125 0.589 0.124 C 0.589 0.119 0.596 0.12 0.597 0.125 C 0.597 0.127 0.598 0.128 0.6 0.127 C 0.601 0.126 0.604 0.128 0.607 0.131 C 0.613 0.139 0.615 0.139 0.619 0.13 C 0.622 0.123 0.622 0.116 0.619 0.119 C 0.616 0.122 0.614 0.112 0.616 0.108 C 0.619 0.102 0.634 0.113 0.632 0.119 C 0.632 0.121 0.632 0.121 0.633 0.119 C 0.638 0.111 0.64 0.115 0.636 0.123 C 0.635 0.128 0.634 0.132 0.634 0.132 C 0.635 0.132 0.635 0.133 0.633 0.135 C 0.632 0.137 0.633 0.137 0.638 0.136 C 0.646 0.135 0.647 0.137 0.641 0.147 C 0.637 0.155 0.635 0.156 0.634 0.151 C 0.634 0.149 0.632 0.151 0.629 0.156 C 0.625 0.163 0.624 0.163 0.616 0.161 C 0.6 0.158 0.562 0.138 0.56 0.132 C 0.559 0.13 0.557 0.129 0.556 0.129 C 0.552 0.131 0.544 0.126 0.545 0.122 C 0.545 0.121 0.545 0.122 0.543 0.125 C 0.542 0.128 0.541 0.129 0.541 0.127 C 0.541 0.125 0.542 0.122 0.543 0.12 C 0.544 0.118 0.545 0.115 0.544 0.114 C 0.542 0.111 0.543 0.089 0.545 0.086 C 0.546 0.085 0.545 0.084 0.543 0.084 C 0.542 0.084 0.541 0.083 0.542 0.081 C 0.547 0.065 0.535 0.06 0.529 0.076 C 0.526 0.082 0.524 0.087 0.523 0.087 C 0.521 0.087 0.511 0.106 0.511 0.11 C 0.511 0.113 0.506 0.115 0.499 0.113 C 0.491 0.112 0.487 0.106 0.488 0.098 C 0.489 0.094 0.488 0.093 0.485 0.093 C 0.483 0.093 0.481 0.094 0.481 0.096 C 0.481 0.099 0.475 0.099 0.474 0.096 C 0.474 0.094 0.471 0.093 0.469 0.094 C 0.467 0.095 0.464 0.095 0.463 0.093 C 0.462 0.091 0.46 0.09 0.459 0.091 C 0.459 0.092 0.456 0.091 0.453 0.089 C 0.448 0.085 0.446 0.085 0.441 0.089 C 0.437 0.091 0.433 0.092 0.432 0.092 C 0.431 0.091 0.429 0.093 0.427 0.096 C 0.425 0.1 0.423 0.101 0.418 0.1 C 0.415 0.099 0.411 0.098 0.408 0.098 C 0.405 0.098 0.403 0.097 0.403 0.096 C 0.403 0.094 0.401 0.093 0.398 0.093 C 0.396 0.093 0.393 0.091 0.392 0.09 C 0.39 0.085 0.387 0.089 0.387 0.098 C 0.387 0.103 0.386 0.107 0.386 0.108 C 0.385 0.109 0.384 0.112 0.384 0.115 C 0.384 0.12 0.369 0.125 0.367 0.12 C 0.365 0.116 0.355 0.119 0.352 0.124 C 0.35 0.129 0.347 0.13 0.344 0.129 C 0.344 0.129 0.341 0.133 0.338 0.139 C 0.333 0.15 0.324 0.154 0.321 0.149 C 0.319 0.146 0.318 0.146 0.318 0.15 C 0.318 0.154 0.317 0.154 0.314 0.153 C 0.311 0.152 0.309 0.152 0.308 0.154 C 0.306 0.162 0.287 0.17 0.281 0.165 C 0.279 0.163 0.276 0.163 0.271 0.165 C 0.267 0.166 0.265 0.166 0.263 0.164 C 0.261 0.161 0.26 0.163 0.261 0.169 C 0.262 0.172 0.264 0.174 0.27 0.174 C 0.277 0.174 0.278 0.174 0.277 0.179 C 0.276 0.185 0.279 0.186 0.285 0.185 C 0.286 0.185 0.287 0.187 0.287 0.189 C 0.287 0.193 0.287 0.193 0.289 0.19 C 0.291 0.188 0.292 0.188 0.294 0.191 C 0.299 0.2 0.303 0.194 0.307 0.174 C 0.31 0.161 0.321 0.152 0.321 0.163 C 0.321 0.164 0.322 0.165 0.324 0.164 C 0.325 0.163 0.326 0.164 0.326 0.165 C 0.326 0.174 0.352 0.176 0.354 0.167 C 0.355 0.163 0.365 0.143 0.366 0.143 C 0.367 0.143 0.368 0.14 0.37 0.136 C 0.373 0.129 0.375 0.129 0.38 0.13 C 0.387 0.133 0.387 0.136 0.381 0.14 C 0.376 0.143 0.356 0.178 0.356 0.182 C 0.356 0.183 0.351 0.184 0.345 0.184 C 0.334 0.185 0.321 0.189 0.314 0.195 C 0.311 0.198 0.307 0.199 0.304 0.198 C 0.301 0.197 0.299 0.198 0.299 0.2 C 0.299 0.207 0.292 0.215 0.285 0.217 C 0.281 0.218 0.277 0.22 0.277 0.221 C 0.276 0.223 0.274 0.224 0.272 0.224 C 0.27 0.224 0.267 0.226 0.266 0.228 C 0.265 0.23 0.263 0.232 0.261 0.232 C 0.26 0.232 0.257 0.236 0.254 0.241 C 0.251 0.245 0.248 0.249 0.246 0.249 C 0.245 0.249 0.245 0.25 0.245 0.252 C 0.245 0.253 0.242 0.254 0.239 0.254 C 0.234 0.253 0.232 0.255 0.228 0.262 C 0.225 0.268 0.22 0.274 0.214 0.277 C 0.209 0.28 0.203 0.285 0.202 0.286 C 0.199 0.291 0.189 0.299 0.186 0.299 C 0.182 0.3 0.161 0.32 0.159 0.325 C 0.158 0.328 0.154 0.336 0.15 0.343 C 0.146 0.351 0.141 0.363 0.14 0.37 C 0.138 0.378 0.136 0.387 0.135 0.389 C 0.128 0.411 0.135 0.467 0.146 0.481 C 0.148 0.483 0.148 0.49 0.146 0.499 C 0.143 0.509 0.135 0.525 0.135 0.52 C 0.135 0.518 0.136 0.517 0.137 0.517 C 0.138 0.517 0.138 0.516 0.137 0.515 C 0.136 0.512 0.128 0.526 0.13 0.529 C 0.132 0.533 0.126 0.554 0.122 0.555 C 0.12 0.556 0.12 0.556 0.122 0.553 C 0.123 0.551 0.124 0.547 0.124 0.544 C 0.124 0.541 0.124 0.539 0.125 0.539 C 0.126 0.539 0.127 0.537 0.128 0.535 C 0.128 0.533 0.128 0.531 0.127 0.531 C 0.125 0.531 0.121 0.546 0.121 0.55 C 0.121 0.551 0.12 0.552 0.119 0.553 C 0.116 0.555 0.119 0.542 0.126 0.526 C 0.132 0.512 0.133 0.502 0.13 0.488 C 0.129 0.481 0.123 0.478 0.121 0.483 C 0.119 0.491 0.105 0.464 0.105 0.451 C 0.105 0.447 0.093 0.425 0.091 0.425 C 0.09 0.425 0.089 0.422 0.089 0.419 C 0.089 0.414 0.09 0.412 0.105 0.395 C 0.11 0.389 0.114 0.383 0.115 0.381 C 0.116 0.378 0.117 0.379 0.122 0.383 C 0.128 0.39 0.13 0.388 0.13 0.371 C 0.13 0.364 0.129 0.361 0.128 0.361 C 0.123 0.361 0.127 0.331 0.132 0.328 C 0.135 0.327 0.136 0.325 0.135 0.32 C 0.135 0.316 0.135 0.311 0.137 0.308 C 0.139 0.305 0.14 0.298 0.14 0.293 C 0.141 0.288 0.142 0.283 0.143 0.282 C 0.145 0.28 0.145 0.28 0.143 0.28 C 0.142 0.28 0.141 0.278 0.142 0.277 C 0.143 0.274 0.144 0.275 0.144 0.278 C 0.146 0.284 0.15 0.281 0.15 0.274 C 0.15 0.271 0.152 0.265 0.153 0.262 C 0.155 0.256 0.157 0.242 0.157 0.231 C 0.157 0.225 0.161 0.222 0.164 0.227 C 0.167 0.231 0.167 0.252 0.164 0.259 C 0.161 0.266 0.161 0.27 0.165 0.274 C 0.168 0.277 0.168 0.277 0.164 0.275 C 0.162 0.274 0.16 0.275 0.16 0.276 C 0.16 0.28 0.168 0.28 0.171 0.276 C 0.178 0.266 0.181 0.214 0.176 0.205 C 0.174 0.203 0.172 0.199 0.172 0.198 C 0.172 0.197 0.171 0.193 0.169 0.191 C 0.166 0.185 0.164 0.157 0.167 0.157 C 0.168 0.157 0.169 0.155 0.17 0.153 C 0.171 0.144 0.176 0.158 0.176 0.173 C 0.176 0.186 0.176 0.189 0.18 0.196 C 0.183 0.202 0.185 0.208 0.185 0.213 C 0.185 0.22 0.185 0.221 0.188 0.218 C 0.192 0.213 0.194 0.216 0.191 0.224 C 0.19 0.228 0.189 0.232 0.189 0.233 C 0.19 0.235 0.189 0.235 0.188 0.234 C 0.183 0.231 0.179 0.242 0.182 0.25 C 0.184 0.259 0.188 0.259 0.191 0.252 C 0.193 0.245 0.196 0.245 0.2 0.252 C 0.203 0.257 0.204 0.257 0.203 0.254 C 0.202 0.249 0.208 0.245 0.213 0.247 C 0.215 0.248 0.218 0.246 0.22 0.244 C 0.222 0.241 0.224 0.239 0.225 0.24 C 0.226 0.241 0.227 0.239 0.227 0.237 C 0.227 0.234 0.226 0.232 0.225 0.232 C 0.221 0.232 0.22 0.225 0.223 0.217 C 0.225 0.213 0.226 0.206 0.226 0.2 C 0.226 0.195 0.226 0.19 0.227 0.19 C 0.228 0.19 0.229 0.188 0.229 0.185 C 0.229 0.182 0.228 0.179 0.227 0.179 C 0.226 0.179 0.226 0.172 0.226 0.164 C 0.226 0.151 0.226 0.149 0.229 0.149 C 0.233 0.149 0.234 0.155 0.231 0.162 C 0.23 0.164 0.229 0.168 0.229 0.171 C 0.229 0.174 0.229 0.173 0.231 0.17 C 0.233 0.165 0.233 0.165 0.24 0.171 C 0.243 0.175 0.246 0.178 0.245 0.179 C 0.244 0.179 0.245 0.184 0.247 0.191 C 0.248 0.197 0.25 0.201 0.251 0.199 C 0.251 0.198 0.253 0.195 0.255 0.194 C 0.257 0.191 0.257 0.191 0.255 0.19 C 0.252 0.19 0.25 0.18 0.253 0.179 C 0.254 0.178 0.255 0.169 0.255 0.16 C 0.256 0.143 0.26 0.128 0.263 0.133 C 0.264 0.135 0.271 0.123 0.271 0.119 C 0.271 0.117 0.272 0.115 0.273 0.115 C 0.274 0.115 0.274 0.117 0.274 0.119 C 0.274 0.127 0.277 0.124 0.278 0.115 C 0.279 0.107 0.287 0.084 0.29 0.082 C 0.291 0.082 0.292 0.079 0.292 0.077 C 0.292 0.074 0.293 0.069 0.295 0.066 C 0.298 0.06 0.298 0.059 0.296 0.051 C 0.293 0.042 0.296 0.026 0.299 0.026 C 0.3 0.026 0.301 0.024 0.301 0.023 C 0.301 0.021 0.302 0.018 0.303 0.016 C 0.304 0.015 0.306 0.01 0.306 0.007 L 0.307 0.001 L 0.154 0.001 L 0 0.001 L 0 0.5 Z  M 0.319 0.002 C 0.32 0.003 0.321 0.009 0.321 0.015 C 0.321 0.024 0.322 0.025 0.325 0.024 C 0.327 0.023 0.327 0.021 0.327 0.018 C 0.326 0.016 0.326 0.011 0.326 0.007 C 0.326 0.002 0.325 0.001 0.322 0.001 C 0.319 0.001 0.318 0.002 0.319 0.002 Z  M 0.332 0.002 C 0.332 0.002 0.334 0.006 0.336 0.01 C 0.34 0.018 0.34 0.018 0.339 0.011 C 0.339 0.003 0.345 0.001 0.349 0.009 C 0.351 0.012 0.353 0.013 0.353 0.012 C 0.353 0.01 0.354 0.009 0.356 0.009 C 0.358 0.009 0.359 0.008 0.358 0.005 C 0.357 0.001 0.332 -0.002 0.332 0.002 Z  M 0.553 0.081 C 0.551 0.082 0.549 0.093 0.549 0.104 C 0.549 0.108 0.551 0.111 0.559 0.114 C 0.56 0.114 0.562 0.113 0.563 0.112 C 0.567 0.107 0.559 0.079 0.553 0.081 Z  M 0.376 0.111 C 0.376 0.117 0.377 0.118 0.378 0.114 C 0.38 0.109 0.379 0.104 0.376 0.104 C 0.376 0.104 0.375 0.107 0.376 0.111 Z  M 0.416 0.126 C 0.416 0.129 0.415 0.131 0.413 0.131 C 0.409 0.132 0.408 0.127 0.41 0.122 C 0.412 0.119 0.416 0.122 0.416 0.126 Z  M 0.43 0.129 C 0.43 0.135 0.421 0.135 0.42 0.128 C 0.42 0.124 0.421 0.123 0.425 0.124 C 0.428 0.124 0.43 0.126 0.43 0.129 Z  M 0.535 0.126 C 0.537 0.127 0.538 0.129 0.537 0.13 C 0.536 0.131 0.534 0.13 0.532 0.128 C 0.529 0.123 0.53 0.123 0.535 0.126 Z  M 0.402 0.13 C 0.401 0.135 0.392 0.136 0.392 0.131 C 0.392 0.128 0.394 0.127 0.397 0.127 C 0.401 0.126 0.403 0.127 0.402 0.13 Z  M 0.514 0.137 C 0.514 0.139 0.513 0.14 0.512 0.14 C 0.51 0.14 0.509 0.139 0.509 0.137 C 0.509 0.136 0.51 0.135 0.512 0.135 C 0.513 0.135 0.514 0.136 0.514 0.137 Z  M 0.233 0.143 C 0.234 0.147 0.233 0.148 0.23 0.147 C 0.229 0.146 0.227 0.143 0.227 0.141 C 0.227 0.135 0.233 0.138 0.233 0.143 Z  M 0.501 0.142 C 0.497 0.147 0.494 0.147 0.497 0.142 C 0.498 0.139 0.5 0.137 0.501 0.137 C 0.504 0.138 0.503 0.138 0.501 0.142 Z  M 0.197 0.172 C 0.197 0.185 0.195 0.196 0.192 0.196 C 0.19 0.196 0.19 0.192 0.19 0.179 C 0.19 0.163 0.19 0.162 0.194 0.162 C 0.197 0.162 0.197 0.164 0.197 0.172 Z  M 0.194 0.203 C 0.194 0.205 0.193 0.207 0.192 0.207 C 0.19 0.207 0.189 0.204 0.191 0.201 C 0.193 0.197 0.194 0.199 0.194 0.203 Z  M 0.161 0.212 C 0.161 0.218 0.158 0.218 0.157 0.211 C 0.157 0.209 0.158 0.207 0.159 0.207 C 0.161 0.207 0.161 0.209 0.161 0.212 Z  M 0.229 0.221 C 0.227 0.223 0.227 0.225 0.23 0.23 L 0.234 0.236 L 0.235 0.23 C 0.235 0.227 0.236 0.224 0.237 0.224 C 0.238 0.224 0.238 0.223 0.237 0.221 C 0.236 0.218 0.232 0.218 0.229 0.221 Z  M 0.198 0.229 C 0.199 0.231 0.198 0.232 0.197 0.232 C 0.196 0.232 0.194 0.231 0.194 0.229 C 0.193 0.228 0.194 0.227 0.195 0.227 C 0.196 0.227 0.198 0.228 0.198 0.229 Z  M 0.746 0.34 C 0.746 0.342 0.745 0.344 0.743 0.344 C 0.741 0.344 0.74 0.343 0.741 0.34 C 0.741 0.337 0.743 0.335 0.744 0.335 C 0.745 0.335 0.746 0.337 0.746 0.34 Z  M 0.797 0.346 C 0.798 0.354 0.794 0.361 0.789 0.361 C 0.786 0.361 0.783 0.363 0.781 0.367 L 0.777 0.373 L 0.783 0.377 C 0.788 0.38 0.793 0.38 0.795 0.377 C 0.799 0.374 0.812 0.376 0.814 0.38 C 0.818 0.386 0.808 0.411 0.799 0.419 C 0.789 0.428 0.787 0.447 0.796 0.447 C 0.804 0.447 0.808 0.463 0.803 0.477 C 0.801 0.483 0.801 0.484 0.804 0.489 C 0.806 0.492 0.807 0.494 0.807 0.492 C 0.807 0.49 0.808 0.49 0.81 0.491 C 0.811 0.492 0.812 0.491 0.812 0.488 C 0.812 0.485 0.813 0.484 0.813 0.485 C 0.814 0.486 0.815 0.485 0.816 0.482 C 0.817 0.478 0.821 0.475 0.838 0.467 C 0.849 0.461 0.862 0.453 0.869 0.449 C 0.871 0.447 0.871 0.448 0.871 0.452 C 0.871 0.459 0.865 0.469 0.86 0.469 C 0.859 0.469 0.857 0.472 0.857 0.475 C 0.856 0.478 0.855 0.481 0.854 0.481 C 0.853 0.481 0.853 0.482 0.854 0.484 C 0.854 0.485 0.856 0.486 0.858 0.485 C 0.86 0.484 0.861 0.485 0.86 0.488 C 0.859 0.491 0.86 0.492 0.863 0.491 C 0.865 0.489 0.867 0.49 0.868 0.494 C 0.869 0.498 0.87 0.498 0.872 0.495 C 0.873 0.493 0.873 0.492 0.872 0.492 C 0.872 0.492 0.872 0.49 0.874 0.487 C 0.875 0.485 0.877 0.484 0.878 0.485 C 0.879 0.486 0.879 0.488 0.877 0.491 C 0.873 0.496 0.875 0.506 0.881 0.506 C 0.883 0.506 0.886 0.508 0.888 0.51 C 0.889 0.512 0.893 0.515 0.897 0.516 C 0.905 0.517 0.908 0.519 0.908 0.522 C 0.908 0.525 0.905 0.525 0.9 0.522 C 0.9 0.522 0.895 0.524 0.891 0.526 C 0.885 0.53 0.882 0.53 0.88 0.528 C 0.878 0.527 0.868 0.526 0.855 0.526 C 0.843 0.527 0.833 0.526 0.832 0.525 C 0.831 0.524 0.828 0.525 0.826 0.528 C 0.821 0.534 0.818 0.533 0.818 0.526 C 0.818 0.523 0.818 0.522 0.817 0.525 C 0.817 0.526 0.814 0.528 0.811 0.528 C 0.807 0.528 0.805 0.529 0.805 0.533 C 0.804 0.541 0.801 0.542 0.795 0.539 C 0.791 0.537 0.79 0.538 0.79 0.541 C 0.79 0.544 0.789 0.545 0.788 0.544 C 0.786 0.543 0.786 0.544 0.786 0.55 C 0.786 0.56 0.783 0.567 0.779 0.567 C 0.777 0.567 0.776 0.568 0.775 0.57 C 0.774 0.574 0.766 0.573 0.764 0.57 C 0.762 0.567 0.76 0.569 0.756 0.575 C 0.753 0.58 0.749 0.584 0.748 0.584 C 0.748 0.584 0.745 0.588 0.744 0.593 C 0.742 0.599 0.739 0.602 0.737 0.602 C 0.735 0.602 0.733 0.603 0.733 0.604 C 0.732 0.605 0.73 0.605 0.727 0.604 C 0.725 0.603 0.722 0.604 0.722 0.606 C 0.721 0.608 0.72 0.608 0.718 0.606 C 0.715 0.601 0.714 0.605 0.714 0.626 C 0.714 0.648 0.713 0.651 0.708 0.643 C 0.706 0.639 0.704 0.638 0.703 0.639 C 0.703 0.641 0.7 0.644 0.696 0.645 C 0.693 0.647 0.69 0.65 0.689 0.652 C 0.686 0.66 0.685 0.649 0.688 0.638 C 0.69 0.632 0.691 0.625 0.691 0.623 C 0.691 0.62 0.692 0.615 0.693 0.61 C 0.695 0.606 0.696 0.598 0.698 0.593 C 0.699 0.588 0.7 0.584 0.701 0.584 C 0.702 0.584 0.702 0.582 0.702 0.581 C 0.702 0.579 0.704 0.574 0.707 0.57 C 0.711 0.564 0.712 0.56 0.712 0.55 C 0.712 0.54 0.712 0.539 0.716 0.536 C 0.722 0.532 0.722 0.529 0.717 0.528 C 0.711 0.526 0.711 0.521 0.716 0.511 C 0.719 0.507 0.721 0.502 0.721 0.501 C 0.722 0.495 0.726 0.489 0.734 0.48 C 0.747 0.465 0.752 0.446 0.753 0.409 C 0.753 0.399 0.754 0.392 0.754 0.393 C 0.755 0.393 0.76 0.385 0.766 0.374 C 0.785 0.342 0.796 0.332 0.797 0.346 Z  M 0.033 0.381 C 0.033 0.384 0.032 0.386 0.03 0.386 C 0.028 0.386 0.027 0.384 0.027 0.38 C 0.027 0.373 0.032 0.374 0.033 0.381 Z  M 0.074 0.398 C 0.074 0.4 0.073 0.403 0.071 0.403 C 0.069 0.405 0.068 0.414 0.07 0.414 C 0.07 0.414 0.073 0.411 0.075 0.408 C 0.08 0.4 0.085 0.4 0.084 0.409 C 0.083 0.412 0.083 0.418 0.083 0.422 C 0.083 0.43 0.078 0.455 0.077 0.455 C 0.076 0.455 0.076 0.461 0.076 0.468 C 0.076 0.477 0.075 0.481 0.072 0.486 C 0.071 0.489 0.069 0.492 0.069 0.492 C 0.069 0.499 0.062 0.52 0.061 0.517 C 0.06 0.515 0.059 0.514 0.059 0.515 C 0.058 0.516 0.059 0.519 0.06 0.522 C 0.064 0.529 0.063 0.54 0.059 0.549 C 0.054 0.56 0.053 0.558 0.053 0.534 C 0.053 0.531 0.053 0.528 0.052 0.528 C 0.051 0.528 0.047 0.536 0.048 0.537 C 0.049 0.537 0.048 0.538 0.046 0.539 C 0.044 0.541 0.042 0.544 0.042 0.548 C 0.042 0.552 0.042 0.553 0.039 0.552 C 0.037 0.551 0.036 0.551 0.036 0.553 C 0.036 0.555 0.035 0.556 0.033 0.556 C 0.029 0.556 0.029 0.536 0.033 0.52 C 0.036 0.509 0.037 0.502 0.037 0.476 L 0.037 0.446 L 0.041 0.445 C 0.044 0.444 0.047 0.446 0.048 0.448 C 0.051 0.453 0.058 0.437 0.058 0.426 C 0.058 0.423 0.059 0.418 0.061 0.415 C 0.063 0.412 0.064 0.409 0.064 0.408 C 0.064 0.404 0.07 0.395 0.072 0.394 C 0.073 0.394 0.074 0.396 0.074 0.398 Z  M 0.789 0.403 C 0.787 0.412 0.789 0.419 0.792 0.412 C 0.793 0.409 0.793 0.406 0.792 0.402 C 0.791 0.396 0.791 0.396 0.789 0.403 Z  M 0.926 0.462 C 0.926 0.465 0.925 0.467 0.923 0.467 C 0.921 0.467 0.92 0.465 0.92 0.462 C 0.92 0.46 0.921 0.458 0.923 0.458 C 0.925 0.458 0.926 0.46 0.926 0.462 Z  M 0.753 0.512 C 0.749 0.518 0.754 0.524 0.757 0.518 C 0.759 0.515 0.76 0.512 0.76 0.511 C 0.76 0.507 0.755 0.508 0.753 0.512 Z  M 0.742 0.535 C 0.74 0.537 0.739 0.539 0.739 0.542 C 0.74 0.548 0.736 0.551 0.732 0.549 C 0.731 0.548 0.732 0.551 0.735 0.556 C 0.739 0.562 0.74 0.566 0.739 0.571 C 0.738 0.575 0.739 0.578 0.74 0.579 C 0.742 0.581 0.743 0.58 0.742 0.575 C 0.742 0.571 0.742 0.566 0.744 0.561 C 0.746 0.558 0.748 0.552 0.748 0.548 C 0.749 0.545 0.75 0.542 0.751 0.542 C 0.753 0.542 0.751 0.534 0.748 0.533 C 0.746 0.532 0.744 0.533 0.742 0.535 Z  M 0.851 0.55 C 0.849 0.556 0.846 0.558 0.846 0.553 C 0.846 0.548 0.852 0.538 0.852 0.542 C 0.853 0.543 0.852 0.547 0.851 0.55 Z  M 0.11 0.559 C 0.112 0.561 0.112 0.56 0.112 0.557 C 0.111 0.555 0.112 0.554 0.114 0.554 C 0.119 0.556 0.121 0.559 0.12 0.561 C 0.117 0.564 0.11 0.586 0.11 0.592 C 0.11 0.595 0.109 0.599 0.108 0.6 C 0.104 0.605 0.097 0.598 0.098 0.592 C 0.098 0.589 0.098 0.587 0.097 0.587 C 0.094 0.588 0.093 0.586 0.091 0.576 C 0.089 0.563 0.089 0.561 0.091 0.563 C 0.092 0.564 0.092 0.563 0.092 0.562 C 0.092 0.56 0.094 0.56 0.095 0.56 C 0.097 0.561 0.1 0.56 0.102 0.558 C 0.104 0.556 0.106 0.555 0.107 0.556 C 0.107 0.557 0.109 0.559 0.11 0.559 Z  M 0.837 0.596 C 0.836 0.604 0.836 0.605 0.829 0.605 C 0.822 0.605 0.822 0.605 0.823 0.601 C 0.824 0.599 0.825 0.598 0.826 0.601 C 0.827 0.604 0.831 0.598 0.834 0.589 C 0.836 0.581 0.838 0.585 0.837 0.596 Z  M 0.269 0.613 C 0.274 0.614 0.284 0.622 0.284 0.626 C 0.284 0.627 0.286 0.629 0.29 0.63 C 0.297 0.632 0.301 0.636 0.301 0.64 C 0.301 0.643 0.295 0.643 0.294 0.64 C 0.293 0.638 0.288 0.638 0.281 0.639 C 0.274 0.639 0.269 0.639 0.269 0.637 C 0.268 0.635 0.267 0.635 0.265 0.637 C 0.257 0.645 0.254 0.635 0.261 0.622 L 0.265 0.615 L 0.26 0.616 C 0.256 0.617 0.254 0.617 0.254 0.615 C 0.254 0.61 0.256 0.609 0.26 0.611 C 0.262 0.612 0.266 0.613 0.269 0.613 Z  M 0.156 0.617 C 0.157 0.621 0.155 0.629 0.153 0.627 C 0.152 0.625 0.152 0.615 0.154 0.615 C 0.154 0.615 0.155 0.616 0.156 0.617 Z  M 0.309 0.641 C 0.309 0.643 0.308 0.645 0.306 0.645 C 0.305 0.645 0.304 0.643 0.304 0.641 C 0.304 0.639 0.305 0.637 0.306 0.637 C 0.308 0.637 0.309 0.639 0.309 0.641 Z  M 0.221 0.687 C 0.221 0.684 0.221 0.684 0.223 0.686 C 0.225 0.69 0.222 0.7 0.218 0.702 C 0.215 0.703 0.213 0.697 0.214 0.687 C 0.215 0.682 0.215 0.682 0.218 0.686 C 0.22 0.69 0.221 0.69 0.221 0.687 Z  M 0.26 0.695 C 0.26 0.703 0.258 0.707 0.252 0.707 C 0.249 0.707 0.236 0.722 0.232 0.73 C 0.226 0.742 0.226 0.733 0.231 0.718 C 0.236 0.702 0.242 0.693 0.247 0.692 C 0.249 0.691 0.251 0.69 0.252 0.689 C 0.255 0.683 0.26 0.687 0.26 0.695 Z  M 0.332 0.712 C 0.332 0.719 0.333 0.727 0.333 0.729 C 0.333 0.731 0.334 0.734 0.334 0.735 C 0.337 0.738 0.337 0.761 0.335 0.766 C 0.329 0.781 0.324 0.761 0.329 0.742 C 0.33 0.739 0.33 0.735 0.328 0.729 C 0.325 0.718 0.325 0.698 0.328 0.698 C 0.33 0.698 0.331 0.703 0.332 0.712 Z  M 0.289 0.828 C 0.29 0.838 0.289 0.844 0.284 0.843 C 0.278 0.841 0.276 0.833 0.28 0.826 C 0.285 0.819 0.288 0.82 0.289 0.828 Z  M 0.418 0.833 C 0.418 0.836 0.419 0.838 0.42 0.839 C 0.421 0.84 0.422 0.838 0.422 0.835 C 0.422 0.832 0.421 0.829 0.42 0.829 C 0.419 0.829 0.418 0.831 0.418 0.833 Z  M 0.326 0.842 C 0.331 0.845 0.337 0.854 0.335 0.855 C 0.335 0.855 0.325 0.855 0.313 0.856 C 0.299 0.856 0.291 0.857 0.288 0.86 C 0.283 0.864 0.276 0.862 0.276 0.856 C 0.276 0.851 0.28 0.849 0.306 0.84 C 0.313 0.837 0.321 0.838 0.326 0.842 Z  M 0.433 0.863 C 0.433 0.864 0.433 0.866 0.435 0.866 C 0.436 0.866 0.438 0.864 0.438 0.863 C 0.439 0.861 0.438 0.86 0.437 0.86 C 0.435 0.86 0.434 0.861 0.433 0.863 Z  M 0.445 0.864 C 0.445 0.866 0.446 0.869 0.447 0.871 C 0.449 0.873 0.449 0.872 0.449 0.867 C 0.449 0.863 0.448 0.86 0.447 0.86 C 0.446 0.86 0.445 0.862 0.445 0.864 Z  M 0.307 0.945 C 0.307 0.946 0.306 0.95 0.305 0.954 C 0.302 0.96 0.302 0.962 0.304 0.966 C 0.306 0.974 0.306 0.979 0.303 0.981 C 0.299 0.982 0.296 0.977 0.296 0.969 C 0.296 0.966 0.296 0.963 0.295 0.963 C 0.29 0.96 0.297 0.942 0.302 0.942 C 0.305 0.942 0.307 0.943 0.307 0.945 Z  M 0.402 0.994 C 0.402 0.998 0.402 1 0.404 1 C 0.406 1 0.407 0.998 0.407 0.995 C 0.406 0.988 0.403 0.987 0.402 0.994 Z " fill-rule="evenodd" fill="rgb(0,0,0)"/></g></g></svg>