<?xml version="1.0" encoding="UTF-8" standalone="no"?><!-- Generator: Gravit.io --><svg xmlns="http://www.w3.org/2000/svg" xmlns:xlink="http://www.w3.org/1999/xlink" style="isolation:isolate" viewBox="0 0 1 1" width="1pt" height="1pt"><defs><clipPath id="_clipPath_qwDxZvfCCJu2dmoJk0FoytyvnKyZB2ZN"><rect width="1" height="1"/></clipPath></defs><g clip-path="url(#_clipPath_qwDxZvfCCJu2dmoJk0FoytyvnKyZB2ZN)"><g><path d=" M 0 0.5 L 0 0.999 L 0.186 0.999 C 0.35 0.999 0.373 0.999 0.375 0.995 C 0.377 0.99 0.381 0.99 0.385 0.995 C 0.391 1.003 0.402 1.001 0.402 0.991 C 0.402 0.983 0.396 0.969 0.393 0.969 C 0.383 0.969 0.373 0.949 0.378 0.939 C 0.379 0.937 0.379 0.931 0.378 0.923 C 0.375 0.907 0.377 0.901 0.384 0.903 C 0.391 0.907 0.392 0.91 0.389 0.917 C 0.383 0.928 0.387 0.94 0.393 0.933 C 0.397 0.93 0.398 0.927 0.397 0.923 C 0.396 0.916 0.398 0.912 0.402 0.908 C 0.407 0.903 0.399 0.899 0.384 0.898 C 0.368 0.897 0.359 0.879 0.374 0.877 C 0.381 0.876 0.385 0.866 0.383 0.859 C 0.382 0.857 0.382 0.856 0.383 0.858 C 0.384 0.859 0.386 0.857 0.388 0.854 C 0.392 0.847 0.393 0.847 0.394 0.856 C 0.395 0.863 0.4 0.865 0.402 0.86 C 0.404 0.855 0.408 0.856 0.407 0.861 C 0.406 0.863 0.406 0.865 0.407 0.865 C 0.408 0.865 0.409 0.863 0.409 0.86 C 0.409 0.857 0.408 0.854 0.408 0.854 C 0.407 0.854 0.406 0.852 0.406 0.849 C 0.407 0.846 0.407 0.844 0.408 0.845 C 0.408 0.845 0.409 0.845 0.41 0.843 C 0.41 0.842 0.412 0.841 0.414 0.842 C 0.418 0.843 0.426 0.829 0.423 0.826 C 0.421 0.824 0.422 0.823 0.424 0.825 C 0.425 0.826 0.427 0.826 0.428 0.826 C 0.429 0.826 0.429 0.83 0.43 0.835 L 0.43 0.844 L 0.432 0.837 C 0.434 0.829 0.453 0.824 0.457 0.829 C 0.458 0.831 0.459 0.83 0.461 0.829 C 0.463 0.827 0.465 0.826 0.466 0.827 C 0.467 0.827 0.469 0.826 0.471 0.824 C 0.473 0.823 0.476 0.821 0.479 0.82 C 0.486 0.819 0.485 0.826 0.477 0.831 C 0.473 0.833 0.468 0.839 0.466 0.843 C 0.464 0.848 0.46 0.852 0.457 0.853 C 0.454 0.854 0.452 0.856 0.452 0.857 C 0.453 0.859 0.452 0.86 0.45 0.86 C 0.446 0.86 0.438 0.876 0.439 0.884 C 0.439 0.887 0.438 0.891 0.437 0.893 C 0.434 0.898 0.434 0.907 0.437 0.92 C 0.439 0.929 0.439 0.946 0.439 0.992 L 0.439 0.999 L 0.719 0.999 L 1 0.999 L 1 0.5 L 1 0 L 0.767 0 C 0.625 0 0.535 0.001 0.535 0.003 C 0.536 0.004 0.534 0.008 0.531 0.011 C 0.521 0.024 0.529 0.028 0.547 0.019 C 0.555 0.015 0.557 0.015 0.558 0.017 C 0.559 0.02 0.56 0.02 0.56 0.017 C 0.56 0.014 0.56 0.014 0.561 0.016 C 0.562 0.018 0.564 0.018 0.567 0.017 C 0.57 0.015 0.571 0.015 0.571 0.018 C 0.571 0.02 0.571 0.022 0.572 0.022 C 0.573 0.022 0.573 0.021 0.573 0.019 C 0.572 0.016 0.572 0.016 0.574 0.019 C 0.575 0.021 0.577 0.022 0.579 0.022 C 0.58 0.022 0.581 0.024 0.581 0.027 C 0.581 0.03 0.582 0.036 0.582 0.04 C 0.583 0.045 0.582 0.051 0.581 0.054 C 0.58 0.058 0.58 0.059 0.581 0.057 C 0.583 0.055 0.587 0.066 0.585 0.07 C 0.585 0.072 0.583 0.074 0.58 0.076 C 0.578 0.077 0.575 0.085 0.57 0.103 C 0.564 0.126 0.563 0.129 0.56 0.127 C 0.559 0.126 0.556 0.125 0.555 0.125 C 0.549 0.126 0.542 0.125 0.541 0.124 C 0.539 0.121 0.543 0.113 0.546 0.113 C 0.548 0.113 0.55 0.111 0.551 0.109 C 0.552 0.106 0.554 0.106 0.559 0.108 C 0.563 0.111 0.565 0.111 0.565 0.107 C 0.566 0.103 0.558 0.073 0.556 0.073 C 0.555 0.073 0.552 0.077 0.55 0.083 C 0.548 0.089 0.545 0.089 0.546 0.083 C 0.547 0.079 0.542 0.06 0.54 0.061 C 0.54 0.061 0.538 0.061 0.536 0.061 C 0.533 0.061 0.531 0.064 0.529 0.071 C 0.527 0.077 0.525 0.081 0.524 0.081 C 0.523 0.081 0.52 0.086 0.517 0.092 C 0.514 0.099 0.511 0.105 0.51 0.107 C 0.506 0.115 0.49 0.108 0.489 0.099 C 0.489 0.089 0.483 0.084 0.482 0.091 C 0.481 0.096 0.475 0.096 0.474 0.09 C 0.473 0.087 0.472 0.087 0.471 0.089 C 0.47 0.094 0.464 0.093 0.463 0.088 C 0.462 0.085 0.461 0.084 0.46 0.086 C 0.459 0.088 0.456 0.088 0.452 0.085 C 0.447 0.082 0.445 0.082 0.439 0.086 C 0.434 0.089 0.432 0.089 0.431 0.087 C 0.431 0.085 0.429 0.087 0.427 0.091 C 0.424 0.097 0.422 0.098 0.418 0.097 C 0.415 0.096 0.411 0.094 0.409 0.094 C 0.407 0.094 0.404 0.093 0.403 0.092 C 0.388 0.082 0.386 0.082 0.387 0.093 C 0.387 0.097 0.386 0.103 0.385 0.107 C 0.381 0.116 0.379 0.116 0.379 0.109 C 0.379 0.106 0.378 0.103 0.377 0.103 C 0.376 0.103 0.375 0.106 0.375 0.109 C 0.375 0.115 0.372 0.117 0.362 0.116 C 0.357 0.116 0.354 0.117 0.352 0.122 C 0.35 0.126 0.346 0.128 0.344 0.128 C 0.342 0.128 0.339 0.132 0.337 0.137 C 0.332 0.146 0.323 0.151 0.319 0.145 C 0.317 0.143 0.317 0.143 0.316 0.147 C 0.315 0.15 0.314 0.15 0.311 0.149 C 0.309 0.148 0.307 0.149 0.307 0.15 C 0.307 0.16 0.276 0.167 0.261 0.16 C 0.258 0.159 0.257 0.159 0.258 0.164 C 0.259 0.168 0.258 0.17 0.257 0.17 C 0.256 0.17 0.256 0.165 0.256 0.156 C 0.256 0.142 0.259 0.135 0.264 0.138 C 0.265 0.139 0.266 0.138 0.267 0.134 C 0.268 0.13 0.269 0.128 0.272 0.128 C 0.277 0.128 0.279 0.124 0.279 0.111 C 0.279 0.108 0.28 0.104 0.281 0.102 C 0.282 0.101 0.285 0.094 0.288 0.088 C 0.291 0.082 0.293 0.075 0.293 0.073 C 0.293 0.071 0.294 0.069 0.296 0.068 C 0.298 0.067 0.298 0.063 0.297 0.05 C 0.296 0.034 0.3 0.02 0.306 0.02 C 0.307 0.02 0.307 0.017 0.306 0.014 C 0.306 0.011 0.306 0.006 0.307 0.004 C 0.309 0.001 0.29 0 0.155 0 L 0 0 L 0 0.5 Z  M 0.318 0.002 C 0.32 0.003 0.321 0.005 0.321 0.009 C 0.321 0.024 0.321 0.027 0.325 0.027 C 0.329 0.027 0.331 0.019 0.327 0.015 C 0.326 0.014 0.326 0.01 0.326 0.007 C 0.327 0 0.327 0 0.321 0 C 0.317 0.001 0.316 0.001 0.318 0.002 Z  M 0.334 0.003 C 0.334 0.006 0.339 0.017 0.34 0.017 C 0.341 0.017 0.341 0.014 0.341 0.011 C 0.34 0.004 0.342 0.002 0.348 0.006 C 0.353 0.011 0.361 0.01 0.36 0.005 C 0.359 0 0.334 -0.002 0.334 0.003 Z  M 0.483 0.002 C 0.488 0.003 0.496 0.003 0.5 0.002 C 0.505 0.001 0.501 0.001 0.491 0.001 C 0.482 0.001 0.478 0.002 0.483 0.002 Z  M 0.629 0.12 C 0.632 0.127 0.623 0.142 0.618 0.139 C 0.616 0.137 0.616 0.135 0.62 0.127 C 0.624 0.117 0.627 0.115 0.629 0.12 Z  M 0.415 0.124 C 0.415 0.127 0.414 0.128 0.412 0.128 C 0.409 0.128 0.408 0.125 0.41 0.122 C 0.412 0.118 0.415 0.12 0.415 0.124 Z  M 0.43 0.125 C 0.431 0.128 0.429 0.135 0.427 0.134 C 0.423 0.133 0.42 0.128 0.421 0.125 C 0.422 0.122 0.429 0.122 0.43 0.125 Z  M 0.596 0.126 C 0.597 0.127 0.598 0.127 0.6 0.126 C 0.603 0.123 0.609 0.128 0.615 0.141 C 0.618 0.146 0.62 0.148 0.622 0.146 C 0.627 0.143 0.629 0.143 0.629 0.146 C 0.629 0.148 0.629 0.148 0.63 0.145 C 0.631 0.142 0.632 0.142 0.632 0.144 C 0.632 0.146 0.63 0.15 0.629 0.154 C 0.625 0.16 0.619 0.161 0.62 0.155 C 0.621 0.15 0.616 0.147 0.612 0.152 C 0.608 0.157 0.595 0.152 0.577 0.141 C 0.573 0.139 0.569 0.136 0.567 0.135 C 0.562 0.132 0.571 0.125 0.58 0.126 C 0.585 0.126 0.59 0.126 0.59 0.125 C 0.592 0.122 0.595 0.122 0.596 0.126 Z  M 0.401 0.128 C 0.401 0.133 0.398 0.135 0.394 0.133 C 0.388 0.13 0.389 0.126 0.396 0.126 C 0.399 0.126 0.401 0.127 0.401 0.128 Z  M 0.38 0.132 C 0.383 0.135 0.382 0.136 0.376 0.142 C 0.372 0.146 0.367 0.153 0.365 0.158 C 0.363 0.163 0.36 0.168 0.358 0.169 C 0.356 0.17 0.355 0.172 0.354 0.174 C 0.353 0.176 0.352 0.176 0.352 0.175 C 0.351 0.174 0.351 0.172 0.352 0.171 C 0.353 0.17 0.354 0.165 0.355 0.161 C 0.357 0.155 0.374 0.128 0.376 0.128 C 0.377 0.128 0.378 0.13 0.38 0.132 Z  M 0.515 0.134 C 0.514 0.136 0.513 0.137 0.511 0.137 C 0.509 0.137 0.508 0.136 0.509 0.134 C 0.509 0.132 0.511 0.131 0.513 0.131 C 0.514 0.131 0.515 0.132 0.515 0.134 Z  M 0.501 0.14 C 0.5 0.141 0.498 0.142 0.496 0.142 C 0.494 0.142 0.492 0.141 0.492 0.14 C 0.492 0.138 0.494 0.137 0.497 0.137 C 0.5 0.137 0.501 0.138 0.501 0.14 Z  M 0.173 0.154 C 0.174 0.157 0.175 0.164 0.175 0.172 C 0.175 0.182 0.176 0.189 0.177 0.192 C 0.18 0.197 0.182 0.207 0.181 0.207 C 0.179 0.207 0.172 0.2 0.172 0.197 C 0.172 0.195 0.171 0.192 0.169 0.19 C 0.167 0.188 0.166 0.184 0.166 0.176 C 0.166 0.17 0.165 0.164 0.164 0.164 C 0.163 0.162 0.163 0.162 0.164 0.16 C 0.165 0.159 0.167 0.157 0.168 0.155 C 0.171 0.15 0.171 0.15 0.173 0.154 Z  M 0.232 0.158 C 0.232 0.161 0.232 0.162 0.23 0.161 C 0.229 0.161 0.228 0.158 0.228 0.155 C 0.227 0.152 0.228 0.151 0.229 0.151 C 0.23 0.152 0.231 0.155 0.232 0.158 Z  M 0.326 0.164 C 0.328 0.168 0.332 0.172 0.336 0.172 C 0.344 0.174 0.345 0.178 0.338 0.18 C 0.335 0.181 0.33 0.182 0.327 0.183 C 0.323 0.184 0.32 0.183 0.32 0.181 C 0.319 0.178 0.318 0.179 0.315 0.182 C 0.311 0.189 0.303 0.188 0.303 0.18 C 0.301 0.159 0.317 0.148 0.326 0.164 Z  M 0.197 0.176 C 0.197 0.181 0.196 0.183 0.193 0.184 C 0.19 0.185 0.188 0.174 0.191 0.169 C 0.193 0.165 0.197 0.169 0.197 0.176 Z  M 0.239 0.177 C 0.245 0.189 0.248 0.198 0.247 0.201 C 0.246 0.204 0.246 0.204 0.248 0.202 C 0.249 0.201 0.249 0.202 0.249 0.207 C 0.248 0.211 0.249 0.21 0.25 0.204 C 0.252 0.197 0.254 0.195 0.257 0.196 C 0.261 0.198 0.261 0.192 0.258 0.186 C 0.255 0.181 0.255 0.177 0.257 0.18 C 0.258 0.181 0.259 0.181 0.259 0.179 C 0.259 0.173 0.268 0.174 0.277 0.182 C 0.282 0.186 0.287 0.189 0.289 0.189 C 0.292 0.188 0.295 0.189 0.296 0.191 C 0.298 0.193 0.298 0.193 0.299 0.191 C 0.3 0.187 0.304 0.185 0.304 0.189 C 0.304 0.191 0.295 0.205 0.291 0.211 C 0.289 0.213 0.286 0.215 0.283 0.215 C 0.277 0.215 0.267 0.221 0.265 0.226 C 0.264 0.227 0.262 0.229 0.262 0.229 C 0.261 0.229 0.256 0.234 0.251 0.24 C 0.245 0.245 0.239 0.25 0.236 0.251 C 0.233 0.251 0.229 0.255 0.226 0.261 C 0.223 0.266 0.219 0.271 0.217 0.272 C 0.215 0.273 0.207 0.279 0.2 0.285 C 0.193 0.291 0.181 0.299 0.174 0.304 C 0.167 0.309 0.16 0.315 0.159 0.317 C 0.158 0.32 0.153 0.328 0.149 0.336 C 0.146 0.343 0.14 0.355 0.138 0.363 C 0.133 0.381 0.13 0.384 0.13 0.37 C 0.13 0.365 0.129 0.359 0.128 0.358 C 0.126 0.355 0.126 0.349 0.127 0.333 C 0.127 0.331 0.129 0.329 0.131 0.328 C 0.135 0.327 0.136 0.325 0.135 0.32 C 0.135 0.316 0.136 0.31 0.138 0.305 C 0.14 0.3 0.141 0.295 0.141 0.294 C 0.14 0.288 0.141 0.284 0.143 0.285 C 0.146 0.287 0.148 0.283 0.15 0.271 C 0.152 0.265 0.153 0.259 0.154 0.257 C 0.155 0.256 0.156 0.25 0.156 0.246 C 0.157 0.234 0.16 0.226 0.162 0.227 C 0.165 0.228 0.166 0.255 0.164 0.258 C 0.163 0.26 0.162 0.264 0.161 0.267 C 0.161 0.27 0.16 0.274 0.159 0.277 C 0.158 0.281 0.159 0.281 0.164 0.28 C 0.17 0.279 0.172 0.276 0.175 0.26 C 0.177 0.249 0.182 0.244 0.181 0.254 C 0.18 0.257 0.181 0.26 0.182 0.261 C 0.183 0.263 0.183 0.262 0.183 0.26 C 0.181 0.256 0.185 0.256 0.188 0.26 C 0.19 0.263 0.19 0.262 0.189 0.256 C 0.188 0.246 0.193 0.243 0.199 0.25 C 0.201 0.252 0.202 0.253 0.202 0.252 C 0.2 0.247 0.208 0.241 0.211 0.245 C 0.213 0.249 0.219 0.245 0.219 0.24 C 0.219 0.238 0.22 0.237 0.222 0.237 C 0.223 0.237 0.224 0.235 0.224 0.233 C 0.224 0.231 0.223 0.229 0.223 0.229 C 0.22 0.229 0.221 0.222 0.223 0.218 C 0.225 0.216 0.226 0.21 0.226 0.203 C 0.226 0.197 0.227 0.19 0.228 0.188 C 0.232 0.179 0.234 0.176 0.234 0.173 C 0.234 0.168 0.236 0.17 0.239 0.177 Z  M 0.23 0.217 C 0.229 0.218 0.229 0.22 0.23 0.222 C 0.231 0.226 0.235 0.222 0.235 0.217 C 0.235 0.215 0.231 0.214 0.23 0.217 Z  M 0.793 0.342 C 0.796 0.349 0.794 0.353 0.784 0.358 C 0.763 0.37 0.759 0.384 0.777 0.381 C 0.783 0.381 0.79 0.379 0.794 0.377 C 0.8 0.373 0.802 0.375 0.803 0.386 C 0.804 0.394 0.795 0.411 0.793 0.406 C 0.792 0.402 0.787 0.402 0.784 0.405 C 0.783 0.407 0.781 0.407 0.78 0.406 C 0.779 0.405 0.779 0.406 0.779 0.409 C 0.78 0.412 0.781 0.415 0.782 0.415 C 0.788 0.416 0.788 0.416 0.787 0.423 C 0.784 0.436 0.787 0.449 0.793 0.445 C 0.797 0.443 0.801 0.452 0.801 0.464 C 0.802 0.476 0.801 0.477 0.795 0.478 C 0.789 0.48 0.785 0.483 0.785 0.487 C 0.785 0.493 0.787 0.492 0.79 0.487 C 0.793 0.482 0.806 0.48 0.811 0.484 C 0.814 0.485 0.816 0.484 0.818 0.481 C 0.821 0.474 0.829 0.468 0.837 0.465 C 0.841 0.464 0.848 0.46 0.853 0.456 C 0.858 0.452 0.863 0.449 0.864 0.45 C 0.868 0.453 0.866 0.46 0.861 0.462 C 0.855 0.464 0.838 0.479 0.836 0.483 C 0.836 0.484 0.838 0.487 0.841 0.488 C 0.845 0.49 0.849 0.494 0.851 0.498 C 0.854 0.503 0.856 0.504 0.859 0.502 C 0.861 0.5 0.864 0.5 0.868 0.502 C 0.877 0.507 0.877 0.514 0.869 0.514 C 0.865 0.514 0.862 0.515 0.861 0.517 C 0.86 0.519 0.858 0.519 0.857 0.517 C 0.856 0.516 0.851 0.515 0.845 0.515 C 0.84 0.515 0.833 0.514 0.831 0.512 C 0.828 0.509 0.827 0.509 0.827 0.512 C 0.825 0.517 0.822 0.518 0.82 0.513 C 0.817 0.507 0.806 0.513 0.804 0.521 C 0.803 0.527 0.802 0.528 0.795 0.528 C 0.788 0.528 0.787 0.528 0.787 0.533 C 0.787 0.539 0.78 0.556 0.777 0.556 C 0.776 0.556 0.774 0.557 0.773 0.56 C 0.77 0.566 0.769 0.565 0.766 0.554 C 0.762 0.544 0.759 0.539 0.759 0.546 C 0.759 0.548 0.758 0.55 0.757 0.55 C 0.756 0.55 0.755 0.553 0.755 0.557 C 0.754 0.564 0.751 0.567 0.751 0.56 C 0.75 0.554 0.751 0.549 0.753 0.545 C 0.757 0.539 0.755 0.535 0.75 0.534 C 0.748 0.533 0.746 0.534 0.745 0.537 C 0.745 0.54 0.743 0.542 0.742 0.542 C 0.74 0.542 0.74 0.542 0.74 0.543 C 0.741 0.544 0.74 0.548 0.739 0.552 C 0.737 0.557 0.737 0.56 0.738 0.562 C 0.741 0.567 0.74 0.583 0.738 0.583 C 0.736 0.583 0.735 0.582 0.734 0.581 C 0.734 0.579 0.732 0.579 0.731 0.58 C 0.73 0.581 0.728 0.579 0.726 0.576 C 0.724 0.571 0.724 0.572 0.724 0.584 C 0.724 0.592 0.719 0.597 0.715 0.591 C 0.713 0.589 0.713 0.589 0.712 0.592 C 0.71 0.597 0.71 0.599 0.709 0.619 C 0.708 0.626 0.707 0.627 0.703 0.621 C 0.7 0.616 0.694 0.622 0.694 0.63 C 0.694 0.632 0.694 0.634 0.693 0.634 C 0.691 0.634 0.692 0.622 0.696 0.609 C 0.697 0.603 0.699 0.595 0.699 0.592 C 0.699 0.589 0.7 0.585 0.701 0.583 C 0.703 0.582 0.704 0.578 0.704 0.576 C 0.704 0.574 0.705 0.572 0.706 0.572 C 0.71 0.572 0.713 0.561 0.713 0.55 C 0.713 0.541 0.714 0.539 0.718 0.536 C 0.723 0.533 0.724 0.531 0.72 0.523 C 0.718 0.519 0.718 0.518 0.716 0.522 C 0.715 0.524 0.715 0.525 0.715 0.523 C 0.715 0.521 0.716 0.518 0.717 0.516 C 0.718 0.515 0.719 0.511 0.719 0.509 C 0.719 0.506 0.72 0.505 0.722 0.506 C 0.723 0.507 0.724 0.506 0.724 0.502 C 0.724 0.499 0.725 0.497 0.726 0.497 C 0.726 0.497 0.728 0.494 0.728 0.491 C 0.729 0.488 0.732 0.483 0.736 0.481 C 0.747 0.471 0.755 0.443 0.756 0.404 C 0.756 0.395 0.757 0.385 0.758 0.381 C 0.765 0.363 0.771 0.352 0.773 0.352 C 0.774 0.352 0.778 0.349 0.782 0.345 C 0.791 0.337 0.791 0.337 0.793 0.342 Z  M 0.032 0.381 C 0.032 0.384 0.031 0.387 0.029 0.387 C 0.027 0.388 0.025 0.38 0.028 0.376 C 0.03 0.373 0.032 0.376 0.032 0.381 Z  M 0.121 0.383 C 0.125 0.388 0.126 0.388 0.129 0.386 C 0.131 0.383 0.131 0.384 0.131 0.39 C 0.128 0.421 0.128 0.435 0.132 0.446 C 0.133 0.452 0.135 0.459 0.135 0.46 C 0.135 0.462 0.137 0.469 0.139 0.476 C 0.145 0.49 0.145 0.491 0.141 0.496 C 0.138 0.5 0.135 0.496 0.135 0.489 C 0.135 0.479 0.131 0.474 0.125 0.476 C 0.121 0.477 0.119 0.477 0.119 0.475 C 0.119 0.473 0.118 0.472 0.118 0.473 C 0.115 0.476 0.109 0.458 0.108 0.446 C 0.108 0.445 0.105 0.438 0.1 0.43 C 0.091 0.413 0.091 0.411 0.103 0.398 C 0.107 0.392 0.112 0.386 0.113 0.383 C 0.116 0.376 0.115 0.376 0.121 0.383 Z  M 0.085 0.406 C 0.085 0.408 0.084 0.411 0.082 0.413 C 0.08 0.416 0.08 0.417 0.082 0.422 C 0.085 0.427 0.083 0.446 0.079 0.452 C 0.077 0.455 0.077 0.459 0.077 0.464 C 0.078 0.473 0.076 0.483 0.072 0.483 C 0.07 0.483 0.069 0.484 0.07 0.487 C 0.072 0.499 0.067 0.514 0.061 0.514 C 0.056 0.514 0.055 0.515 0.055 0.518 C 0.055 0.521 0.054 0.522 0.053 0.521 C 0.051 0.52 0.048 0.524 0.048 0.529 C 0.047 0.541 0.039 0.553 0.034 0.549 C 0.031 0.547 0.033 0.531 0.036 0.524 C 0.04 0.515 0.043 0.492 0.042 0.471 C 0.041 0.45 0.045 0.44 0.048 0.454 C 0.049 0.46 0.052 0.456 0.052 0.448 C 0.052 0.444 0.052 0.441 0.053 0.441 C 0.054 0.441 0.057 0.428 0.057 0.424 C 0.056 0.419 0.067 0.404 0.068 0.408 C 0.069 0.411 0.07 0.413 0.071 0.413 C 0.072 0.413 0.072 0.412 0.072 0.411 C 0.071 0.41 0.073 0.409 0.076 0.408 C 0.078 0.408 0.081 0.406 0.081 0.405 C 0.082 0.401 0.085 0.401 0.085 0.406 Z  M 0.925 0.461 C 0.925 0.462 0.923 0.463 0.922 0.463 C 0.92 0.463 0.918 0.462 0.918 0.461 C 0.918 0.459 0.92 0.458 0.922 0.458 C 0.923 0.458 0.925 0.459 0.925 0.461 Z  M 0.756 0.51 C 0.754 0.511 0.752 0.512 0.752 0.514 C 0.752 0.518 0.757 0.52 0.759 0.516 C 0.762 0.513 0.763 0.508 0.761 0.508 C 0.76 0.509 0.758 0.509 0.756 0.51 Z  M 0.755 0.529 C 0.755 0.531 0.756 0.533 0.757 0.533 C 0.758 0.533 0.759 0.531 0.759 0.529 C 0.759 0.527 0.758 0.525 0.757 0.525 C 0.756 0.525 0.755 0.527 0.755 0.529 Z  M 0.066 0.533 C 0.066 0.538 0.062 0.543 0.06 0.54 C 0.059 0.539 0.063 0.528 0.064 0.528 C 0.065 0.528 0.066 0.53 0.066 0.533 Z  M 0.835 0.59 C 0.835 0.592 0.835 0.595 0.834 0.596 C 0.833 0.597 0.832 0.595 0.832 0.592 C 0.832 0.589 0.833 0.586 0.834 0.586 C 0.835 0.586 0.835 0.588 0.835 0.59 Z  M 0.276 0.618 C 0.278 0.621 0.281 0.624 0.281 0.627 C 0.281 0.629 0.282 0.631 0.284 0.631 C 0.286 0.632 0.287 0.634 0.287 0.635 C 0.286 0.639 0.272 0.64 0.27 0.637 C 0.27 0.635 0.268 0.635 0.266 0.637 C 0.257 0.644 0.255 0.636 0.262 0.623 C 0.267 0.613 0.269 0.612 0.276 0.618 Z  M 0.26 0.693 C 0.26 0.7 0.255 0.706 0.249 0.706 C 0.246 0.706 0.243 0.708 0.241 0.712 C 0.235 0.724 0.231 0.716 0.236 0.704 C 0.241 0.693 0.26 0.684 0.26 0.693 Z  M 0.331 0.716 C 0.333 0.727 0.332 0.73 0.329 0.727 C 0.325 0.724 0.323 0.706 0.327 0.706 C 0.328 0.706 0.329 0.711 0.331 0.716 Z  M 0.334 0.749 C 0.336 0.761 0.334 0.768 0.331 0.767 C 0.329 0.766 0.329 0.764 0.329 0.759 C 0.33 0.739 0.333 0.733 0.334 0.749 Z  M 0.361 0.752 C 0.366 0.759 0.37 0.766 0.37 0.768 C 0.37 0.769 0.371 0.77 0.372 0.77 C 0.374 0.77 0.387 0.794 0.387 0.798 C 0.387 0.802 0.381 0.802 0.381 0.798 C 0.381 0.797 0.38 0.794 0.38 0.792 C 0.38 0.79 0.379 0.789 0.378 0.789 C 0.376 0.789 0.372 0.783 0.369 0.776 C 0.365 0.77 0.362 0.765 0.361 0.766 C 0.359 0.768 0.351 0.759 0.351 0.754 C 0.351 0.752 0.35 0.751 0.35 0.752 C 0.348 0.754 0.346 0.746 0.347 0.742 C 0.349 0.738 0.352 0.74 0.361 0.752 Z  M 0.344 0.76 C 0.343 0.765 0.34 0.766 0.34 0.761 C 0.34 0.758 0.341 0.756 0.343 0.756 C 0.344 0.756 0.345 0.758 0.344 0.76 Z  M 0.415 0.815 C 0.421 0.82 0.419 0.826 0.413 0.826 C 0.405 0.826 0.401 0.817 0.408 0.814 C 0.41 0.814 0.412 0.813 0.412 0.813 C 0.412 0.812 0.414 0.814 0.415 0.815 Z  M 0.294 0.835 C 0.295 0.837 0.295 0.838 0.294 0.837 C 0.293 0.837 0.291 0.837 0.29 0.839 C 0.287 0.841 0.281 0.836 0.281 0.831 C 0.281 0.828 0.291 0.83 0.294 0.835 Z  M 0.336 0.844 C 0.345 0.852 0.338 0.854 0.316 0.852 C 0.297 0.851 0.293 0.851 0.289 0.855 C 0.283 0.861 0.281 0.861 0.281 0.856 C 0.281 0.85 0.286 0.845 0.29 0.847 C 0.292 0.847 0.294 0.847 0.294 0.845 C 0.295 0.844 0.296 0.843 0.297 0.844 C 0.298 0.845 0.299 0.845 0.299 0.843 C 0.299 0.84 0.332 0.841 0.336 0.844 Z  M 0.378 0.85 C 0.378 0.852 0.377 0.853 0.375 0.852 C 0.371 0.851 0.37 0.847 0.373 0.845 C 0.376 0.843 0.378 0.845 0.378 0.85 Z  M 0.434 0.863 C 0.434 0.864 0.435 0.865 0.437 0.865 C 0.438 0.865 0.439 0.864 0.439 0.863 C 0.439 0.861 0.438 0.86 0.437 0.86 C 0.435 0.86 0.434 0.861 0.434 0.863 Z " fill-rule="evenodd" fill="rgb(0,0,0)"/></g></g></svg>