<?xml version="1.0" encoding="UTF-8" standalone="no"?><!-- Generator: Gravit.io --><svg xmlns="http://www.w3.org/2000/svg" xmlns:xlink="http://www.w3.org/1999/xlink" style="isolation:isolate" viewBox="0 0 1 1" width="1pt" height="1pt"><defs><clipPath id="_clipPath_YwBrJiUA3fEz7QBwPvnV4JnefGuITLe8"><rect width="1" height="1"/></clipPath></defs><g clip-path="url(#_clipPath_YwBrJiUA3fEz7QBwPvnV4JnefGuITLe8)"><g><path d=" M 0 0.5 L 0 1 L 0.186 1 C 0.359 1 0.372 1 0.376 0.995 C 0.381 0.99 0.381 0.99 0.383 0.995 C 0.385 0.999 0.387 1 0.394 1 C 0.402 1 0.403 1 0.401 0.996 C 0.398 0.991 0.397 0.987 0.4 0.985 C 0.401 0.984 0.401 0.981 0.4 0.978 C 0.399 0.975 0.399 0.972 0.399 0.971 C 0.4 0.97 0.396 0.967 0.39 0.964 C 0.38 0.958 0.376 0.947 0.382 0.938 C 0.385 0.932 0.385 0.925 0.382 0.919 C 0.377 0.909 0.392 0.897 0.397 0.907 C 0.398 0.909 0.389 0.925 0.387 0.923 C 0.386 0.922 0.386 0.924 0.386 0.927 C 0.386 0.931 0.386 0.933 0.387 0.932 C 0.388 0.931 0.389 0.932 0.39 0.935 C 0.391 0.938 0.392 0.938 0.393 0.936 C 0.393 0.934 0.396 0.933 0.398 0.933 C 0.403 0.933 0.405 0.926 0.401 0.924 C 0.397 0.922 0.401 0.911 0.406 0.91 L 0.411 0.909 L 0.406 0.901 C 0.402 0.896 0.399 0.894 0.398 0.896 C 0.393 0.901 0.373 0.899 0.371 0.893 C 0.369 0.885 0.371 0.88 0.378 0.879 C 0.383 0.879 0.385 0.877 0.386 0.873 C 0.387 0.86 0.393 0.85 0.393 0.859 C 0.393 0.864 0.398 0.867 0.4 0.863 C 0.403 0.858 0.406 0.86 0.406 0.866 C 0.406 0.869 0.407 0.872 0.408 0.872 C 0.408 0.872 0.409 0.874 0.409 0.877 C 0.409 0.884 0.411 0.884 0.415 0.879 C 0.417 0.875 0.417 0.875 0.414 0.873 C 0.412 0.872 0.411 0.868 0.41 0.864 C 0.41 0.86 0.409 0.853 0.409 0.85 C 0.408 0.845 0.409 0.843 0.412 0.842 C 0.419 0.839 0.425 0.835 0.425 0.832 C 0.425 0.825 0.429 0.83 0.43 0.837 L 0.43 0.845 L 0.431 0.838 C 0.433 0.829 0.455 0.827 0.458 0.836 C 0.46 0.843 0.443 0.866 0.439 0.862 C 0.436 0.859 0.432 0.866 0.434 0.87 C 0.436 0.874 0.434 0.89 0.43 0.897 C 0.428 0.901 0.428 0.903 0.429 0.906 C 0.432 0.911 0.435 0.967 0.434 0.987 L 0.433 1 L 0.717 1 L 1 1 L 1 0.5 L 1 0 L 0.765 0 L 0.53 0 L 0.523 0.012 C 0.52 0.018 0.516 0.023 0.516 0.023 C 0.516 0.023 0.516 0.023 0.516 0.024 C 0.516 0.026 0.517 0.027 0.518 0.027 C 0.52 0.027 0.525 0.028 0.529 0.029 C 0.535 0.03 0.538 0.03 0.538 0.027 C 0.539 0.025 0.54 0.027 0.54 0.031 C 0.542 0.035 0.542 0.036 0.542 0.033 C 0.542 0.025 0.545 0.025 0.548 0.031 C 0.55 0.035 0.552 0.036 0.552 0.034 C 0.552 0.033 0.554 0.031 0.557 0.031 C 0.56 0.031 0.563 0.033 0.563 0.034 C 0.563 0.035 0.564 0.036 0.566 0.035 C 0.569 0.033 0.569 0.034 0.569 0.04 C 0.568 0.044 0.569 0.047 0.57 0.047 C 0.57 0.046 0.571 0.049 0.572 0.053 C 0.572 0.057 0.573 0.062 0.574 0.064 C 0.577 0.069 0.574 0.082 0.569 0.091 C 0.566 0.096 0.566 0.096 0.564 0.087 C 0.563 0.082 0.562 0.078 0.561 0.078 C 0.559 0.078 0.558 0.069 0.56 0.066 C 0.561 0.065 0.56 0.065 0.558 0.066 C 0.556 0.067 0.553 0.07 0.551 0.074 C 0.548 0.08 0.547 0.079 0.545 0.066 C 0.543 0.056 0.536 0.052 0.533 0.06 C 0.532 0.063 0.527 0.071 0.523 0.079 C 0.519 0.087 0.514 0.096 0.513 0.1 C 0.511 0.105 0.51 0.106 0.504 0.105 C 0.501 0.104 0.496 0.104 0.494 0.104 C 0.492 0.103 0.491 0.101 0.49 0.093 C 0.489 0.088 0.488 0.084 0.487 0.085 C 0.487 0.086 0.486 0.085 0.485 0.083 C 0.484 0.081 0.483 0.083 0.48 0.088 C 0.477 0.096 0.473 0.096 0.473 0.088 C 0.473 0.083 0.472 0.083 0.469 0.087 C 0.468 0.089 0.467 0.089 0.465 0.087 C 0.464 0.086 0.461 0.084 0.459 0.084 C 0.44 0.082 0.431 0.084 0.426 0.09 C 0.42 0.097 0.417 0.098 0.415 0.093 C 0.414 0.091 0.412 0.09 0.409 0.091 C 0.407 0.092 0.405 0.091 0.404 0.089 C 0.403 0.088 0.398 0.086 0.394 0.085 L 0.386 0.083 L 0.386 0.093 C 0.386 0.105 0.381 0.113 0.379 0.105 C 0.377 0.099 0.376 0.099 0.373 0.107 C 0.371 0.114 0.37 0.114 0.363 0.114 C 0.356 0.113 0.354 0.114 0.351 0.121 C 0.348 0.127 0.346 0.128 0.343 0.127 C 0.341 0.126 0.339 0.128 0.337 0.134 C 0.334 0.141 0.332 0.143 0.33 0.142 C 0.328 0.141 0.326 0.142 0.326 0.143 C 0.326 0.146 0.32 0.146 0.319 0.142 C 0.318 0.14 0.317 0.14 0.316 0.143 C 0.316 0.146 0.313 0.148 0.31 0.148 C 0.308 0.148 0.306 0.149 0.306 0.15 C 0.306 0.152 0.308 0.153 0.31 0.152 C 0.318 0.151 0.328 0.161 0.328 0.17 C 0.328 0.179 0.325 0.18 0.321 0.173 C 0.318 0.17 0.317 0.17 0.314 0.175 C 0.311 0.178 0.307 0.181 0.304 0.18 C 0.298 0.18 0.296 0.177 0.299 0.172 C 0.307 0.162 0.305 0.16 0.284 0.16 C 0.26 0.161 0.249 0.153 0.259 0.142 C 0.261 0.139 0.261 0.137 0.26 0.136 C 0.259 0.135 0.259 0.135 0.261 0.135 C 0.262 0.136 0.263 0.14 0.264 0.144 C 0.264 0.15 0.265 0.15 0.265 0.147 C 0.265 0.138 0.269 0.131 0.273 0.131 C 0.277 0.131 0.279 0.127 0.279 0.116 C 0.279 0.113 0.28 0.108 0.281 0.106 C 0.283 0.104 0.284 0.101 0.284 0.099 C 0.284 0.097 0.284 0.095 0.285 0.095 C 0.287 0.095 0.298 0.068 0.298 0.064 C 0.298 0.063 0.298 0.061 0.299 0.061 C 0.3 0.061 0.3 0.058 0.299 0.054 C 0.294 0.038 0.302 0.011 0.308 0.02 C 0.31 0.023 0.311 0.023 0.31 0.02 C 0.308 0.016 0.313 0.003 0.316 0.003 C 0.319 0.003 0.322 0.01 0.322 0.019 C 0.323 0.038 0.323 0.037 0.326 0.031 C 0.329 0.025 0.33 0.013 0.328 0.004 C 0.327 0 0.311 0 0.164 0 L 0 0 L 0 0.5 Z  M 0.335 0.003 C 0.335 0.005 0.336 0.009 0.336 0.012 C 0.337 0.015 0.339 0.017 0.341 0.017 C 0.343 0.017 0.343 0.016 0.342 0.013 C 0.339 0.009 0.34 0.006 0.343 0.006 C 0.348 0.006 0.351 0.009 0.351 0.013 C 0.351 0.017 0.351 0.017 0.354 0.013 C 0.356 0.01 0.358 0.008 0.359 0.008 C 0.36 0.008 0.361 0.006 0.361 0.004 C 0.361 0.001 0.358 0 0.347 0 C 0.337 0 0.334 0.001 0.335 0.003 Z  M 0.467 0.001 C 0.468 0.002 0.474 0.003 0.48 0.004 C 0.496 0.006 0.503 0.008 0.505 0.01 C 0.508 0.013 0.513 0.011 0.515 0.007 C 0.516 0.005 0.519 0.003 0.522 0.002 C 0.525 0.001 0.514 0.001 0.497 0 C 0.48 0 0.467 0.001 0.467 0.001 Z  M 0.376 0.013 C 0.374 0.016 0.374 0.02 0.376 0.02 C 0.377 0.02 0.378 0.018 0.378 0.015 C 0.379 0.011 0.378 0.01 0.376 0.013 Z  M 0.506 0.024 C 0.505 0.027 0.506 0.028 0.508 0.028 C 0.511 0.028 0.512 0.024 0.509 0.021 C 0.508 0.021 0.506 0.022 0.506 0.024 Z  M 0.558 0.108 C 0.559 0.111 0.56 0.112 0.563 0.111 C 0.565 0.11 0.566 0.111 0.565 0.112 C 0.565 0.114 0.564 0.115 0.564 0.114 C 0.563 0.114 0.562 0.115 0.561 0.117 C 0.56 0.122 0.542 0.125 0.542 0.12 C 0.542 0.118 0.541 0.118 0.54 0.119 C 0.539 0.12 0.539 0.119 0.541 0.116 C 0.544 0.108 0.546 0.106 0.548 0.109 C 0.55 0.112 0.55 0.111 0.551 0.108 C 0.552 0.102 0.556 0.102 0.558 0.108 Z  M 0.415 0.124 C 0.415 0.127 0.414 0.128 0.413 0.128 C 0.411 0.128 0.41 0.123 0.412 0.119 C 0.413 0.117 0.415 0.12 0.415 0.124 Z  M 0.426 0.127 C 0.426 0.132 0.424 0.133 0.422 0.128 C 0.421 0.125 0.423 0.12 0.425 0.122 C 0.426 0.123 0.426 0.125 0.426 0.127 Z  M 0.587 0.128 C 0.59 0.128 0.593 0.13 0.593 0.131 C 0.594 0.133 0.596 0.133 0.598 0.131 C 0.602 0.129 0.611 0.129 0.61 0.132 C 0.608 0.14 0.608 0.143 0.61 0.145 C 0.615 0.151 0.6 0.151 0.592 0.146 C 0.589 0.144 0.583 0.141 0.578 0.138 C 0.573 0.136 0.569 0.132 0.568 0.131 C 0.567 0.127 0.574 0.123 0.578 0.126 C 0.58 0.127 0.584 0.128 0.587 0.128 Z  M 0.4 0.128 C 0.4 0.13 0.398 0.131 0.396 0.131 C 0.394 0.131 0.392 0.13 0.392 0.128 C 0.392 0.127 0.394 0.126 0.396 0.126 C 0.398 0.126 0.4 0.127 0.4 0.128 Z  M 0.379 0.13 C 0.381 0.132 0.375 0.145 0.371 0.145 C 0.37 0.145 0.367 0.15 0.365 0.155 C 0.362 0.164 0.354 0.169 0.354 0.163 C 0.354 0.16 0.364 0.142 0.365 0.142 C 0.366 0.142 0.368 0.139 0.371 0.135 C 0.375 0.128 0.375 0.128 0.379 0.13 Z  M 0.513 0.133 C 0.513 0.135 0.511 0.137 0.509 0.137 C 0.506 0.137 0.505 0.134 0.507 0.13 C 0.509 0.127 0.513 0.128 0.513 0.133 Z  M 0.498 0.137 C 0.498 0.138 0.498 0.14 0.497 0.141 C 0.495 0.143 0.491 0.14 0.491 0.137 C 0.491 0.133 0.496 0.133 0.498 0.137 Z  M 0.175 0.176 C 0.175 0.19 0.175 0.193 0.173 0.193 C 0.169 0.193 0.166 0.187 0.166 0.177 C 0.166 0.172 0.165 0.168 0.164 0.167 C 0.162 0.165 0.164 0.159 0.168 0.157 C 0.173 0.153 0.174 0.157 0.175 0.176 Z  M 0.197 0.172 C 0.197 0.177 0.194 0.184 0.192 0.184 C 0.19 0.184 0.189 0.173 0.191 0.17 C 0.191 0.168 0.197 0.17 0.197 0.172 Z  M 0.238 0.173 C 0.237 0.176 0.239 0.181 0.242 0.186 C 0.245 0.192 0.246 0.196 0.246 0.204 C 0.246 0.215 0.246 0.215 0.253 0.197 C 0.255 0.193 0.256 0.192 0.257 0.195 C 0.26 0.2 0.261 0.199 0.261 0.19 C 0.26 0.184 0.261 0.181 0.264 0.178 C 0.267 0.173 0.273 0.174 0.273 0.179 C 0.273 0.182 0.283 0.19 0.287 0.189 C 0.294 0.188 0.303 0.19 0.303 0.193 C 0.303 0.194 0.302 0.196 0.301 0.196 C 0.299 0.196 0.297 0.199 0.294 0.204 C 0.291 0.21 0.288 0.212 0.279 0.215 C 0.271 0.217 0.264 0.222 0.256 0.23 C 0.249 0.237 0.241 0.244 0.238 0.246 C 0.235 0.248 0.229 0.254 0.226 0.259 C 0.223 0.264 0.218 0.269 0.216 0.27 C 0.214 0.271 0.207 0.277 0.2 0.283 C 0.192 0.288 0.186 0.293 0.185 0.293 C 0.185 0.293 0.182 0.295 0.18 0.297 C 0.178 0.299 0.173 0.303 0.168 0.306 C 0.158 0.313 0.142 0.34 0.135 0.361 C 0.131 0.376 0.131 0.377 0.13 0.369 C 0.13 0.365 0.129 0.36 0.127 0.357 C 0.124 0.35 0.127 0.327 0.132 0.327 C 0.134 0.327 0.135 0.324 0.136 0.316 C 0.136 0.31 0.138 0.303 0.139 0.301 C 0.14 0.3 0.141 0.297 0.141 0.295 C 0.141 0.294 0.143 0.29 0.145 0.287 C 0.147 0.284 0.149 0.281 0.149 0.279 C 0.149 0.278 0.151 0.27 0.153 0.261 C 0.155 0.252 0.157 0.245 0.156 0.244 C 0.155 0.241 0.16 0.227 0.162 0.228 C 0.166 0.23 0.165 0.254 0.161 0.268 C 0.16 0.274 0.158 0.28 0.158 0.281 C 0.158 0.29 0.174 0.275 0.174 0.265 C 0.174 0.263 0.175 0.26 0.175 0.259 C 0.176 0.257 0.176 0.255 0.176 0.253 C 0.176 0.252 0.177 0.25 0.178 0.249 C 0.18 0.249 0.18 0.251 0.18 0.257 C 0.18 0.261 0.181 0.265 0.182 0.265 C 0.183 0.265 0.183 0.263 0.183 0.261 C 0.183 0.258 0.184 0.257 0.187 0.258 C 0.189 0.26 0.19 0.259 0.19 0.255 C 0.19 0.246 0.192 0.241 0.195 0.245 C 0.197 0.248 0.198 0.248 0.202 0.245 C 0.207 0.239 0.213 0.242 0.212 0.248 C 0.211 0.252 0.212 0.252 0.214 0.247 C 0.216 0.245 0.218 0.24 0.218 0.238 C 0.218 0.236 0.218 0.235 0.219 0.235 C 0.221 0.235 0.224 0.22 0.225 0.206 C 0.226 0.199 0.227 0.193 0.227 0.193 C 0.228 0.193 0.229 0.19 0.229 0.187 C 0.229 0.182 0.232 0.175 0.234 0.178 C 0.235 0.179 0.235 0.178 0.235 0.177 C 0.235 0.176 0.234 0.173 0.233 0.171 C 0.232 0.168 0.232 0.168 0.235 0.168 C 0.238 0.168 0.238 0.169 0.238 0.173 Z  M 0.334 0.176 C 0.331 0.179 0.329 0.177 0.329 0.173 C 0.329 0.172 0.331 0.172 0.332 0.172 C 0.335 0.174 0.335 0.175 0.334 0.176 Z  M 0.18 0.199 C 0.18 0.205 0.178 0.207 0.176 0.204 C 0.173 0.199 0.173 0.196 0.177 0.196 C 0.179 0.196 0.18 0.197 0.18 0.199 Z  M 0.23 0.201 C 0.229 0.202 0.229 0.204 0.23 0.205 C 0.231 0.206 0.231 0.209 0.231 0.211 C 0.23 0.213 0.231 0.215 0.232 0.215 C 0.233 0.215 0.234 0.214 0.234 0.212 C 0.234 0.209 0.234 0.209 0.235 0.212 C 0.236 0.216 0.237 0.215 0.237 0.21 C 0.237 0.204 0.231 0.196 0.23 0.201 Z  M 0.779 0.349 C 0.779 0.352 0.771 0.363 0.769 0.363 C 0.768 0.363 0.766 0.365 0.765 0.368 C 0.76 0.375 0.758 0.369 0.761 0.36 C 0.766 0.351 0.779 0.343 0.779 0.349 Z  M 0.033 0.38 C 0.033 0.381 0.032 0.384 0.031 0.387 C 0.028 0.393 0.025 0.383 0.027 0.377 C 0.028 0.374 0.033 0.376 0.033 0.38 Z  M 0.794 0.376 C 0.798 0.379 0.793 0.394 0.786 0.4 C 0.777 0.408 0.774 0.434 0.781 0.438 C 0.783 0.439 0.784 0.441 0.783 0.443 C 0.782 0.446 0.783 0.447 0.785 0.446 C 0.786 0.445 0.789 0.447 0.792 0.45 C 0.797 0.456 0.798 0.461 0.794 0.461 C 0.792 0.461 0.782 0.476 0.782 0.478 C 0.782 0.479 0.787 0.479 0.793 0.479 C 0.808 0.48 0.815 0.484 0.812 0.491 C 0.81 0.494 0.81 0.495 0.812 0.493 C 0.815 0.488 0.824 0.492 0.824 0.498 C 0.825 0.503 0.824 0.503 0.821 0.502 C 0.813 0.498 0.812 0.498 0.811 0.503 C 0.811 0.506 0.809 0.508 0.807 0.508 C 0.805 0.508 0.802 0.51 0.801 0.513 C 0.8 0.515 0.797 0.517 0.796 0.517 C 0.79 0.517 0.785 0.52 0.785 0.524 C 0.785 0.531 0.78 0.542 0.777 0.542 C 0.776 0.542 0.774 0.544 0.773 0.546 C 0.772 0.553 0.769 0.551 0.765 0.539 C 0.763 0.533 0.76 0.528 0.76 0.528 C 0.758 0.528 0.759 0.519 0.761 0.518 C 0.765 0.515 0.764 0.511 0.759 0.511 C 0.754 0.511 0.754 0.512 0.754 0.519 C 0.755 0.523 0.754 0.527 0.753 0.527 C 0.752 0.527 0.75 0.527 0.749 0.528 C 0.749 0.528 0.747 0.532 0.746 0.536 C 0.745 0.541 0.743 0.545 0.742 0.545 C 0.74 0.545 0.74 0.546 0.74 0.549 C 0.741 0.551 0.741 0.554 0.74 0.555 C 0.739 0.556 0.739 0.559 0.739 0.562 C 0.74 0.567 0.736 0.569 0.727 0.567 C 0.725 0.567 0.723 0.57 0.723 0.574 C 0.721 0.58 0.72 0.581 0.716 0.581 C 0.71 0.581 0.707 0.577 0.711 0.573 C 0.712 0.572 0.714 0.565 0.714 0.556 C 0.715 0.543 0.716 0.541 0.72 0.537 C 0.725 0.533 0.725 0.532 0.723 0.528 C 0.72 0.522 0.721 0.508 0.724 0.509 C 0.726 0.51 0.727 0.507 0.73 0.494 C 0.731 0.489 0.733 0.486 0.734 0.486 C 0.738 0.486 0.752 0.463 0.752 0.457 C 0.752 0.454 0.753 0.448 0.755 0.444 C 0.756 0.439 0.758 0.424 0.758 0.409 L 0.759 0.383 L 0.766 0.382 C 0.77 0.382 0.777 0.381 0.781 0.379 C 0.789 0.374 0.791 0.374 0.794 0.376 Z  M 0.122 0.385 L 0.127 0.394 L 0.126 0.412 C 0.125 0.425 0.124 0.432 0.125 0.435 C 0.129 0.443 0.132 0.465 0.129 0.47 C 0.126 0.475 0.122 0.477 0.122 0.472 C 0.122 0.471 0.121 0.469 0.12 0.469 C 0.117 0.469 0.113 0.458 0.113 0.451 C 0.113 0.447 0.111 0.442 0.107 0.437 C 0.092 0.416 0.092 0.413 0.105 0.396 C 0.11 0.39 0.114 0.383 0.114 0.381 C 0.114 0.375 0.117 0.376 0.122 0.385 Z  M 0.067 0.411 C 0.07 0.414 0.071 0.414 0.072 0.411 C 0.074 0.405 0.078 0.409 0.078 0.416 C 0.078 0.421 0.079 0.422 0.083 0.42 L 0.087 0.418 L 0.086 0.432 C 0.085 0.441 0.083 0.448 0.08 0.453 C 0.077 0.459 0.077 0.461 0.078 0.465 C 0.08 0.469 0.078 0.48 0.074 0.484 C 0.073 0.485 0.072 0.49 0.072 0.494 C 0.072 0.504 0.068 0.511 0.062 0.511 C 0.059 0.511 0.056 0.513 0.054 0.517 C 0.053 0.52 0.051 0.522 0.05 0.521 C 0.049 0.52 0.049 0.524 0.049 0.529 C 0.049 0.54 0.047 0.543 0.04 0.543 C 0.035 0.543 0.034 0.525 0.039 0.52 C 0.042 0.516 0.051 0.47 0.05 0.455 C 0.05 0.447 0.055 0.426 0.06 0.416 C 0.064 0.407 0.064 0.407 0.067 0.411 Z  M 0.856 0.452 C 0.859 0.456 0.856 0.461 0.853 0.459 C 0.851 0.458 0.85 0.456 0.851 0.454 C 0.852 0.449 0.853 0.449 0.856 0.452 Z  M 0.705 0.591 C 0.704 0.595 0.703 0.598 0.702 0.598 C 0.7 0.598 0.7 0.587 0.703 0.586 C 0.706 0.583 0.707 0.584 0.705 0.591 Z  M 0.272 0.619 C 0.273 0.622 0.265 0.64 0.262 0.64 C 0.257 0.64 0.258 0.634 0.263 0.625 C 0.266 0.618 0.27 0.615 0.272 0.619 Z  M 0.276 0.633 C 0.279 0.637 0.279 0.642 0.275 0.642 C 0.274 0.642 0.273 0.639 0.272 0.635 C 0.271 0.628 0.272 0.627 0.276 0.633 Z  M 0.259 0.697 C 0.258 0.707 0.241 0.712 0.241 0.702 C 0.241 0.7 0.242 0.699 0.243 0.7 C 0.244 0.7 0.245 0.699 0.245 0.697 C 0.247 0.689 0.26 0.688 0.259 0.697 Z  M 0.24 0.709 C 0.24 0.713 0.237 0.716 0.236 0.714 C 0.235 0.712 0.236 0.707 0.238 0.707 C 0.239 0.707 0.24 0.708 0.24 0.709 Z  M 0.329 0.722 C 0.329 0.724 0.329 0.725 0.328 0.726 C 0.327 0.726 0.326 0.725 0.326 0.722 C 0.326 0.72 0.327 0.718 0.328 0.718 C 0.329 0.719 0.329 0.721 0.329 0.722 Z  M 0.36 0.753 C 0.366 0.766 0.363 0.77 0.354 0.76 C 0.351 0.756 0.35 0.754 0.351 0.751 C 0.353 0.744 0.355 0.745 0.36 0.753 Z  M 0.335 0.757 C 0.335 0.758 0.336 0.761 0.336 0.764 C 0.337 0.767 0.336 0.768 0.334 0.768 C 0.33 0.768 0.329 0.764 0.33 0.758 C 0.331 0.754 0.335 0.753 0.335 0.757 Z  M 0.375 0.775 C 0.375 0.776 0.375 0.778 0.376 0.781 C 0.376 0.784 0.376 0.785 0.374 0.783 C 0.371 0.781 0.369 0.774 0.372 0.774 C 0.374 0.774 0.375 0.774 0.375 0.775 Z  M 0.415 0.822 C 0.415 0.823 0.414 0.824 0.412 0.824 C 0.409 0.824 0.408 0.821 0.41 0.818 C 0.411 0.815 0.415 0.818 0.415 0.822 Z  M 0.318 0.846 C 0.318 0.846 0.317 0.848 0.315 0.849 C 0.311 0.852 0.307 0.85 0.31 0.846 C 0.312 0.844 0.318 0.844 0.318 0.846 Z  M 0.341 0.85 C 0.342 0.854 0.341 0.854 0.334 0.853 C 0.326 0.851 0.325 0.851 0.327 0.846 C 0.329 0.841 0.341 0.844 0.341 0.85 Z  M 0.42 0.876 C 0.417 0.88 0.418 0.886 0.421 0.883 C 0.422 0.881 0.423 0.878 0.423 0.877 C 0.423 0.874 0.421 0.874 0.42 0.876 Z " fill-rule="evenodd" fill="rgb(0,0,0)"/></g></g></svg>