<?xml version="1.0" encoding="UTF-8" standalone="no"?><!-- Generator: Gravit.io --><svg xmlns="http://www.w3.org/2000/svg" xmlns:xlink="http://www.w3.org/1999/xlink" style="isolation:isolate" viewBox="0 0 1 1" width="1pt" height="1pt"><defs><clipPath id="_clipPath_t1crBncbWt9Qg7zEnOJDs7NmFNh8trxr"><rect width="1" height="1"/></clipPath></defs><g clip-path="url(#_clipPath_t1crBncbWt9Qg7zEnOJDs7NmFNh8trxr)"><g><path d=" M 0 0.5 L 0 1 L 0.187 1 C 0.31 1 0.375 0.999 0.375 0.997 C 0.376 0.996 0.378 0.994 0.379 0.994 C 0.381 0.994 0.382 0.996 0.382 0.997 C 0.381 0.999 0.385 1 0.392 1 C 0.398 0.999 0.402 0.999 0.401 0.998 C 0.398 0.997 0.397 0.987 0.4 0.977 C 0.403 0.969 0.399 0.963 0.39 0.962 C 0.382 0.961 0.381 0.959 0.381 0.952 C 0.381 0.943 0.385 0.937 0.388 0.94 C 0.39 0.941 0.392 0.94 0.393 0.937 C 0.395 0.935 0.398 0.933 0.401 0.932 C 0.408 0.931 0.403 0.92 0.395 0.918 C 0.391 0.917 0.389 0.916 0.389 0.912 C 0.389 0.903 0.404 0.902 0.405 0.911 C 0.406 0.92 0.415 0.917 0.414 0.908 C 0.414 0.899 0.409 0.896 0.4 0.896 C 0.382 0.898 0.376 0.896 0.376 0.889 C 0.376 0.887 0.377 0.886 0.377 0.886 C 0.382 0.887 0.384 0.884 0.387 0.874 C 0.389 0.864 0.393 0.857 0.393 0.863 C 0.393 0.867 0.399 0.867 0.403 0.863 C 0.406 0.86 0.409 0.866 0.406 0.87 C 0.402 0.878 0.409 0.889 0.413 0.882 C 0.415 0.879 0.416 0.88 0.418 0.884 C 0.42 0.889 0.42 0.888 0.422 0.883 C 0.424 0.876 0.424 0.873 0.422 0.876 C 0.421 0.877 0.42 0.875 0.42 0.873 C 0.42 0.868 0.42 0.868 0.417 0.872 C 0.414 0.877 0.413 0.876 0.409 0.864 C 0.408 0.859 0.408 0.858 0.41 0.858 C 0.411 0.858 0.412 0.856 0.412 0.855 C 0.412 0.853 0.412 0.852 0.411 0.853 C 0.41 0.854 0.409 0.854 0.409 0.852 C 0.409 0.849 0.418 0.84 0.419 0.843 C 0.419 0.843 0.421 0.841 0.423 0.838 L 0.427 0.831 L 0.429 0.84 L 0.431 0.848 L 0.431 0.84 C 0.431 0.832 0.436 0.828 0.44 0.833 C 0.443 0.835 0.445 0.835 0.449 0.833 C 0.456 0.829 0.456 0.834 0.449 0.848 C 0.444 0.857 0.442 0.859 0.439 0.858 C 0.436 0.858 0.433 0.868 0.43 0.883 C 0.429 0.891 0.427 0.899 0.426 0.901 C 0.423 0.907 0.423 0.927 0.425 0.931 C 0.428 0.937 0.431 0.973 0.43 0.988 L 0.429 1 L 0.715 1 L 1 1 L 1 0.5 L 1 0 L 0.732 0 C 0.554 0 0.464 0.001 0.465 0.003 C 0.465 0.004 0.467 0.006 0.469 0.006 C 0.471 0.006 0.472 0.007 0.471 0.009 C 0.47 0.011 0.472 0.011 0.478 0.011 C 0.482 0.01 0.486 0.011 0.487 0.012 C 0.487 0.013 0.489 0.014 0.49 0.013 C 0.491 0.012 0.492 0.013 0.492 0.014 C 0.492 0.016 0.494 0.017 0.495 0.017 C 0.497 0.017 0.498 0.018 0.498 0.02 C 0.498 0.021 0.499 0.025 0.501 0.027 C 0.502 0.029 0.503 0.032 0.504 0.034 C 0.504 0.037 0.505 0.037 0.507 0.033 C 0.509 0.029 0.516 0.028 0.521 0.033 C 0.523 0.035 0.527 0.036 0.529 0.036 C 0.531 0.036 0.533 0.038 0.534 0.039 C 0.534 0.04 0.538 0.041 0.542 0.04 C 0.551 0.038 0.562 0.045 0.561 0.052 C 0.56 0.054 0.56 0.058 0.56 0.059 C 0.56 0.06 0.559 0.061 0.558 0.061 C 0.557 0.061 0.555 0.064 0.553 0.066 C 0.55 0.072 0.55 0.072 0.543 0.055 C 0.541 0.05 0.531 0.053 0.531 0.059 C 0.531 0.061 0.529 0.065 0.527 0.069 C 0.525 0.074 0.52 0.083 0.517 0.09 C 0.511 0.102 0.511 0.103 0.504 0.102 C 0.501 0.101 0.496 0.101 0.494 0.101 C 0.492 0.101 0.491 0.099 0.491 0.095 C 0.491 0.082 0.484 0.076 0.48 0.085 C 0.477 0.091 0.475 0.09 0.474 0.083 C 0.474 0.078 0.473 0.078 0.471 0.082 C 0.468 0.087 0.467 0.088 0.465 0.085 C 0.462 0.08 0.428 0.079 0.428 0.084 C 0.428 0.09 0.418 0.095 0.416 0.091 C 0.414 0.089 0.411 0.087 0.409 0.088 C 0.408 0.089 0.405 0.089 0.404 0.087 C 0.399 0.079 0.385 0.082 0.385 0.09 C 0.386 0.098 0.383 0.106 0.381 0.106 C 0.38 0.106 0.379 0.104 0.379 0.102 C 0.379 0.096 0.377 0.097 0.373 0.105 C 0.372 0.109 0.369 0.112 0.368 0.111 C 0.367 0.111 0.365 0.112 0.363 0.113 C 0.362 0.114 0.359 0.114 0.358 0.112 C 0.355 0.109 0.354 0.11 0.352 0.115 C 0.35 0.123 0.348 0.126 0.343 0.126 C 0.341 0.126 0.338 0.128 0.337 0.13 C 0.333 0.138 0.329 0.14 0.327 0.137 C 0.326 0.135 0.324 0.134 0.323 0.135 C 0.322 0.136 0.321 0.135 0.32 0.133 C 0.319 0.13 0.317 0.129 0.316 0.129 C 0.313 0.129 0.309 0.123 0.309 0.116 C 0.308 0.111 0.308 0.111 0.305 0.116 C 0.302 0.122 0.302 0.123 0.309 0.132 C 0.313 0.137 0.315 0.141 0.314 0.145 C 0.313 0.149 0.315 0.151 0.32 0.156 C 0.325 0.16 0.326 0.162 0.324 0.165 C 0.322 0.167 0.321 0.167 0.321 0.164 C 0.32 0.16 0.319 0.16 0.316 0.162 C 0.313 0.165 0.311 0.165 0.307 0.161 C 0.301 0.156 0.299 0.157 0.303 0.165 C 0.307 0.171 0.306 0.173 0.3 0.175 C 0.295 0.177 0.295 0.176 0.295 0.17 C 0.295 0.161 0.293 0.16 0.273 0.158 C 0.262 0.157 0.257 0.154 0.257 0.148 C 0.257 0.144 0.262 0.137 0.264 0.138 C 0.266 0.139 0.267 0.138 0.268 0.135 C 0.268 0.133 0.27 0.131 0.272 0.132 C 0.277 0.133 0.279 0.129 0.279 0.121 C 0.279 0.114 0.286 0.095 0.289 0.093 C 0.289 0.092 0.293 0.085 0.296 0.076 L 0.301 0.061 L 0.299 0.052 C 0.294 0.037 0.303 0.011 0.308 0.026 C 0.31 0.03 0.313 0.02 0.313 0.012 C 0.313 0.008 0.314 0.006 0.317 0.006 C 0.32 0.006 0.322 0.014 0.323 0.031 C 0.323 0.044 0.329 0.031 0.329 0.018 C 0.329 -0.002 0.345 0 0.164 0 L 0 0 L 0 0.5 Z  M 0.335 0.004 C 0.335 0.005 0.336 0.009 0.336 0.012 C 0.337 0.015 0.339 0.017 0.341 0.017 C 0.343 0.017 0.343 0.016 0.342 0.013 C 0.339 0.008 0.34 0.006 0.344 0.006 C 0.346 0.006 0.349 0.008 0.35 0.011 C 0.351 0.014 0.353 0.016 0.354 0.015 C 0.357 0.013 0.361 0.023 0.359 0.026 C 0.359 0.027 0.36 0.028 0.362 0.028 C 0.367 0.028 0.367 0.023 0.364 0.016 C 0.362 0.013 0.361 0.008 0.361 0.005 C 0.361 0.001 0.359 0 0.347 0 C 0.337 0 0.334 0.001 0.335 0.004 Z  M 0.376 0.014 C 0.375 0.018 0.375 0.02 0.376 0.02 C 0.378 0.02 0.38 0.012 0.379 0.009 C 0.378 0.009 0.377 0.011 0.376 0.014 Z  M 0.516 0.021 C 0.515 0.023 0.513 0.024 0.511 0.023 C 0.507 0.021 0.507 0.017 0.51 0.017 C 0.511 0.017 0.513 0.015 0.513 0.014 C 0.513 0.012 0.513 0.012 0.515 0.014 C 0.517 0.017 0.517 0.019 0.516 0.021 Z  M 0.429 0.058 C 0.427 0.072 0.426 0.073 0.427 0.073 C 0.429 0.073 0.434 0.06 0.434 0.055 C 0.434 0.048 0.431 0.049 0.429 0.058 Z  M 0.571 0.073 C 0.571 0.077 0.568 0.078 0.565 0.077 C 0.561 0.074 0.562 0.068 0.567 0.069 C 0.569 0.07 0.571 0.072 0.571 0.073 Z  M 0.414 0.122 C 0.414 0.123 0.413 0.125 0.412 0.125 C 0.411 0.126 0.411 0.124 0.411 0.122 C 0.411 0.119 0.411 0.117 0.412 0.118 C 0.413 0.118 0.414 0.12 0.414 0.122 Z  M 0.426 0.124 C 0.426 0.127 0.425 0.129 0.424 0.129 C 0.423 0.129 0.422 0.127 0.422 0.124 C 0.422 0.122 0.423 0.12 0.424 0.12 C 0.425 0.12 0.426 0.122 0.426 0.124 Z  M 0.512 0.13 C 0.51 0.132 0.508 0.134 0.506 0.134 C 0.504 0.134 0.505 0.133 0.507 0.13 C 0.509 0.128 0.511 0.126 0.512 0.126 C 0.514 0.126 0.514 0.127 0.512 0.13 Z  M 0.377 0.131 C 0.378 0.135 0.375 0.14 0.371 0.139 C 0.368 0.138 0.368 0.138 0.371 0.133 C 0.373 0.128 0.376 0.127 0.377 0.131 Z  M 0.497 0.134 C 0.496 0.136 0.495 0.137 0.495 0.137 C 0.494 0.137 0.493 0.136 0.492 0.134 C 0.492 0.133 0.493 0.131 0.495 0.131 C 0.496 0.131 0.497 0.133 0.497 0.134 Z  M 0.59 0.135 C 0.591 0.14 0.59 0.14 0.583 0.138 C 0.577 0.136 0.578 0.133 0.584 0.132 C 0.587 0.132 0.589 0.133 0.59 0.135 Z  M 0.6 0.138 C 0.6 0.141 0.599 0.142 0.597 0.142 C 0.594 0.142 0.594 0.142 0.596 0.138 C 0.6 0.133 0.6 0.133 0.6 0.138 Z  M 0.366 0.145 C 0.367 0.147 0.358 0.162 0.355 0.162 C 0.353 0.162 0.354 0.159 0.359 0.151 C 0.363 0.142 0.365 0.141 0.366 0.145 Z  M 0.174 0.173 C 0.175 0.182 0.175 0.19 0.174 0.191 C 0.171 0.196 0.167 0.189 0.166 0.179 C 0.166 0.173 0.165 0.168 0.164 0.166 C 0.162 0.161 0.164 0.156 0.169 0.156 C 0.173 0.156 0.174 0.157 0.174 0.173 Z  M 0.195 0.177 C 0.195 0.185 0.191 0.184 0.19 0.176 C 0.19 0.171 0.19 0.17 0.192 0.171 C 0.194 0.171 0.195 0.174 0.195 0.177 Z  M 0.242 0.198 C 0.243 0.208 0.245 0.212 0.248 0.212 C 0.249 0.212 0.249 0.212 0.249 0.211 C 0.247 0.207 0.254 0.196 0.258 0.197 C 0.262 0.199 0.262 0.199 0.26 0.195 C 0.259 0.191 0.258 0.189 0.26 0.183 C 0.263 0.175 0.269 0.174 0.27 0.18 C 0.271 0.183 0.272 0.184 0.274 0.184 C 0.276 0.184 0.279 0.186 0.282 0.189 C 0.286 0.193 0.288 0.193 0.29 0.19 C 0.294 0.186 0.301 0.186 0.301 0.19 C 0.301 0.192 0.3 0.193 0.298 0.193 C 0.296 0.193 0.295 0.195 0.295 0.197 C 0.295 0.203 0.285 0.212 0.277 0.214 C 0.272 0.215 0.266 0.218 0.262 0.221 C 0.258 0.224 0.254 0.226 0.252 0.226 C 0.251 0.226 0.249 0.228 0.249 0.229 C 0.249 0.231 0.247 0.234 0.245 0.235 C 0.243 0.237 0.24 0.239 0.24 0.24 C 0.239 0.241 0.237 0.244 0.234 0.247 C 0.231 0.249 0.225 0.256 0.222 0.261 C 0.218 0.267 0.215 0.271 0.214 0.271 C 0.212 0.27 0.208 0.273 0.203 0.277 C 0.202 0.278 0.2 0.279 0.199 0.279 C 0.198 0.279 0.195 0.282 0.193 0.285 C 0.191 0.288 0.187 0.291 0.185 0.291 C 0.183 0.292 0.18 0.293 0.179 0.295 C 0.177 0.296 0.173 0.3 0.169 0.302 C 0.16 0.308 0.147 0.322 0.147 0.326 C 0.147 0.328 0.146 0.332 0.144 0.334 C 0.142 0.337 0.138 0.346 0.135 0.353 C 0.131 0.366 0.131 0.366 0.128 0.361 C 0.124 0.352 0.127 0.327 0.133 0.327 C 0.135 0.327 0.136 0.324 0.136 0.317 C 0.136 0.311 0.138 0.304 0.14 0.297 C 0.143 0.291 0.146 0.283 0.147 0.279 C 0.148 0.276 0.15 0.268 0.152 0.263 C 0.154 0.257 0.156 0.25 0.156 0.246 C 0.156 0.242 0.157 0.239 0.157 0.238 C 0.157 0.238 0.157 0.236 0.157 0.234 C 0.157 0.232 0.159 0.231 0.16 0.23 C 0.164 0.229 0.165 0.253 0.162 0.265 C 0.159 0.276 0.158 0.288 0.161 0.287 C 0.167 0.286 0.176 0.267 0.176 0.254 C 0.176 0.253 0.177 0.251 0.178 0.251 C 0.179 0.251 0.18 0.254 0.18 0.258 C 0.18 0.267 0.183 0.268 0.185 0.261 C 0.186 0.256 0.186 0.256 0.186 0.26 C 0.186 0.263 0.187 0.266 0.188 0.267 C 0.19 0.268 0.19 0.266 0.189 0.26 C 0.188 0.247 0.189 0.244 0.195 0.244 C 0.198 0.243 0.202 0.243 0.206 0.242 C 0.211 0.24 0.212 0.24 0.212 0.246 C 0.212 0.257 0.217 0.246 0.223 0.22 C 0.226 0.211 0.226 0.21 0.231 0.212 C 0.238 0.213 0.239 0.203 0.233 0.198 C 0.229 0.195 0.227 0.184 0.231 0.184 C 0.231 0.184 0.232 0.183 0.231 0.182 C 0.231 0.18 0.231 0.179 0.232 0.178 C 0.236 0.176 0.241 0.187 0.242 0.198 Z  M 0.179 0.199 C 0.179 0.202 0.176 0.202 0.176 0.198 C 0.175 0.196 0.176 0.195 0.177 0.196 C 0.178 0.197 0.179 0.198 0.179 0.199 Z  M 0.766 0.352 C 0.766 0.355 0.761 0.36 0.759 0.36 C 0.756 0.36 0.757 0.355 0.761 0.352 C 0.765 0.349 0.766 0.349 0.766 0.352 Z  M 0.031 0.381 C 0.031 0.384 0.03 0.385 0.029 0.385 C 0.028 0.385 0.027 0.384 0.027 0.381 C 0.027 0.379 0.028 0.377 0.029 0.377 C 0.03 0.377 0.031 0.379 0.031 0.381 Z  M 0.121 0.385 L 0.125 0.393 L 0.123 0.411 C 0.12 0.428 0.12 0.429 0.122 0.437 C 0.128 0.454 0.128 0.467 0.123 0.467 C 0.119 0.467 0.118 0.465 0.117 0.457 C 0.116 0.448 0.106 0.427 0.103 0.427 C 0.102 0.427 0.099 0.424 0.097 0.421 L 0.094 0.414 L 0.099 0.406 C 0.101 0.401 0.106 0.394 0.109 0.391 C 0.112 0.387 0.114 0.383 0.114 0.381 C 0.114 0.375 0.116 0.376 0.121 0.385 Z  M 0.784 0.384 C 0.786 0.392 0.783 0.401 0.78 0.398 C 0.777 0.396 0.774 0.402 0.774 0.411 C 0.774 0.416 0.773 0.42 0.772 0.421 C 0.768 0.424 0.77 0.44 0.774 0.439 C 0.776 0.439 0.779 0.44 0.78 0.443 C 0.781 0.447 0.782 0.447 0.782 0.444 C 0.782 0.441 0.783 0.442 0.784 0.445 C 0.787 0.453 0.786 0.459 0.78 0.465 C 0.775 0.47 0.776 0.476 0.782 0.473 C 0.783 0.472 0.785 0.473 0.786 0.475 C 0.787 0.477 0.789 0.478 0.79 0.477 C 0.792 0.474 0.799 0.481 0.797 0.483 C 0.795 0.484 0.796 0.485 0.799 0.485 C 0.805 0.485 0.806 0.486 0.805 0.496 C 0.804 0.506 0.798 0.511 0.793 0.508 C 0.789 0.505 0.785 0.51 0.782 0.522 C 0.779 0.537 0.763 0.543 0.763 0.529 C 0.763 0.527 0.763 0.525 0.762 0.525 C 0.759 0.525 0.762 0.518 0.766 0.513 L 0.77 0.509 L 0.764 0.51 C 0.76 0.511 0.756 0.51 0.755 0.508 C 0.753 0.506 0.752 0.506 0.751 0.512 C 0.75 0.515 0.748 0.52 0.745 0.522 C 0.742 0.526 0.741 0.527 0.742 0.536 C 0.743 0.545 0.743 0.545 0.74 0.544 C 0.738 0.543 0.737 0.545 0.735 0.552 C 0.733 0.559 0.732 0.561 0.73 0.56 C 0.728 0.559 0.726 0.56 0.725 0.562 C 0.724 0.563 0.723 0.564 0.723 0.563 C 0.723 0.562 0.721 0.562 0.72 0.564 C 0.717 0.569 0.717 0.568 0.716 0.557 C 0.716 0.544 0.716 0.542 0.721 0.538 C 0.725 0.534 0.725 0.533 0.724 0.523 C 0.723 0.517 0.723 0.513 0.723 0.513 C 0.726 0.512 0.73 0.505 0.73 0.5 C 0.731 0.496 0.734 0.491 0.737 0.487 C 0.745 0.479 0.754 0.463 0.754 0.457 C 0.754 0.455 0.755 0.449 0.757 0.444 C 0.76 0.437 0.761 0.432 0.761 0.409 L 0.761 0.383 L 0.769 0.38 C 0.782 0.376 0.783 0.376 0.784 0.384 Z  M 0.068 0.414 C 0.069 0.417 0.071 0.419 0.072 0.418 C 0.072 0.416 0.072 0.415 0.071 0.414 C 0.07 0.414 0.069 0.412 0.069 0.41 C 0.069 0.405 0.072 0.408 0.076 0.416 C 0.079 0.422 0.08 0.423 0.083 0.42 C 0.088 0.414 0.089 0.415 0.089 0.424 C 0.089 0.435 0.086 0.453 0.084 0.453 C 0.083 0.453 0.083 0.455 0.084 0.46 C 0.085 0.465 0.084 0.469 0.079 0.477 C 0.076 0.483 0.074 0.488 0.074 0.492 C 0.076 0.499 0.071 0.508 0.065 0.51 C 0.062 0.51 0.058 0.513 0.055 0.515 C 0.052 0.518 0.05 0.519 0.05 0.518 C 0.05 0.516 0.049 0.519 0.048 0.524 C 0.046 0.528 0.046 0.533 0.046 0.535 C 0.047 0.537 0.046 0.539 0.045 0.539 C 0.04 0.539 0.04 0.53 0.044 0.519 C 0.045 0.513 0.047 0.506 0.047 0.504 C 0.047 0.501 0.048 0.497 0.048 0.496 C 0.052 0.488 0.055 0.45 0.052 0.445 C 0.05 0.442 0.055 0.422 0.058 0.422 C 0.059 0.422 0.06 0.42 0.06 0.418 C 0.06 0.408 0.064 0.406 0.068 0.414 Z  M 0.268 0.631 C 0.267 0.636 0.266 0.639 0.264 0.639 C 0.26 0.64 0.259 0.635 0.263 0.628 C 0.266 0.621 0.268 0.622 0.268 0.631 Z  M 0.258 0.695 C 0.26 0.703 0.251 0.71 0.246 0.704 C 0.243 0.701 0.246 0.694 0.251 0.692 C 0.253 0.691 0.255 0.691 0.256 0.69 C 0.256 0.69 0.257 0.692 0.258 0.695 Z  M 0.358 0.753 C 0.36 0.757 0.362 0.762 0.362 0.763 C 0.362 0.767 0.358 0.766 0.356 0.761 C 0.354 0.758 0.353 0.758 0.351 0.76 C 0.348 0.763 0.348 0.763 0.349 0.758 C 0.349 0.756 0.35 0.752 0.35 0.75 C 0.35 0.744 0.353 0.745 0.358 0.753 Z " fill-rule="evenodd" fill="rgb(0,0,0)"/></g></g></svg>