<?xml version="1.0" encoding="UTF-8" standalone="no"?><!-- Generator: Gravit.io --><svg xmlns="http://www.w3.org/2000/svg" xmlns:xlink="http://www.w3.org/1999/xlink" style="isolation:isolate" viewBox="0 0 1 1" width="1pt" height="1pt"><defs><clipPath id="_clipPath_IYicXvE3pUdtDHZ2o6gCicUwhBYh9UEj"><rect width="1" height="1"/></clipPath></defs><g clip-path="url(#_clipPath_IYicXvE3pUdtDHZ2o6gCicUwhBYh9UEj)"><g><path d=" M 0 0.5 L 0 1 L 0.201 1 L 0.403 1 L 0.4 0.994 C 0.395 0.985 0.398 0.972 0.405 0.974 C 0.407 0.975 0.409 0.974 0.409 0.972 C 0.409 0.971 0.408 0.969 0.406 0.969 C 0.399 0.969 0.385 0.956 0.385 0.949 C 0.385 0.944 0.386 0.943 0.389 0.943 C 0.392 0.944 0.393 0.942 0.394 0.938 C 0.395 0.933 0.396 0.932 0.401 0.934 C 0.41 0.936 0.41 0.926 0.401 0.918 C 0.395 0.912 0.391 0.905 0.395 0.905 C 0.396 0.905 0.396 0.907 0.396 0.909 C 0.395 0.91 0.396 0.909 0.397 0.906 C 0.399 0.903 0.4 0.901 0.401 0.901 C 0.402 0.901 0.402 0.9 0.402 0.899 C 0.401 0.897 0.403 0.899 0.406 0.902 C 0.409 0.907 0.41 0.91 0.409 0.914 C 0.409 0.919 0.409 0.92 0.411 0.918 C 0.42 0.912 0.426 0.936 0.425 0.978 L 0.425 1 L 0.713 1 L 1 1 L 1 0.5 L 1 0 L 0.727 0 C 0.577 0.001 0.456 0.002 0.459 0.002 C 0.463 0.004 0.465 0.006 0.464 0.009 C 0.464 0.013 0.465 0.014 0.466 0.013 C 0.469 0.011 0.474 0.014 0.472 0.017 C 0.472 0.018 0.472 0.02 0.473 0.02 C 0.474 0.02 0.475 0.018 0.476 0.016 C 0.477 0.014 0.477 0.015 0.478 0.019 C 0.478 0.023 0.479 0.025 0.48 0.025 C 0.481 0.025 0.484 0.027 0.486 0.03 C 0.49 0.033 0.495 0.035 0.507 0.035 C 0.519 0.035 0.522 0.036 0.525 0.04 C 0.526 0.043 0.528 0.044 0.529 0.043 C 0.529 0.042 0.53 0.042 0.53 0.044 C 0.53 0.046 0.531 0.047 0.533 0.047 C 0.536 0.047 0.536 0.048 0.532 0.055 C 0.53 0.059 0.528 0.063 0.528 0.065 C 0.528 0.066 0.527 0.067 0.526 0.067 C 0.525 0.067 0.523 0.071 0.522 0.075 C 0.521 0.08 0.519 0.084 0.517 0.085 C 0.515 0.086 0.513 0.089 0.512 0.091 C 0.511 0.093 0.506 0.095 0.501 0.096 L 0.492 0.096 L 0.49 0.087 C 0.489 0.078 0.489 0.078 0.482 0.079 C 0.478 0.08 0.475 0.08 0.474 0.078 C 0.472 0.075 0.472 0.075 0.472 0.078 C 0.472 0.08 0.469 0.081 0.46 0.079 C 0.447 0.077 0.446 0.077 0.438 0.08 C 0.43 0.082 0.43 0.08 0.434 0.065 C 0.438 0.052 0.433 0.043 0.428 0.054 C 0.425 0.06 0.424 0.08 0.426 0.077 C 0.427 0.076 0.428 0.077 0.428 0.079 C 0.428 0.085 0.417 0.095 0.416 0.09 C 0.415 0.089 0.412 0.087 0.409 0.086 C 0.406 0.085 0.401 0.083 0.397 0.081 C 0.387 0.077 0.384 0.079 0.385 0.091 C 0.386 0.1 0.381 0.109 0.38 0.101 C 0.379 0.095 0.373 0.098 0.373 0.104 C 0.372 0.108 0.371 0.109 0.368 0.108 C 0.367 0.107 0.365 0.108 0.365 0.11 C 0.365 0.111 0.363 0.112 0.359 0.111 C 0.353 0.109 0.352 0.11 0.351 0.116 C 0.35 0.121 0.348 0.123 0.346 0.123 C 0.343 0.123 0.339 0.126 0.335 0.13 C 0.327 0.14 0.325 0.138 0.312 0.114 C 0.299 0.091 0.293 0.088 0.293 0.106 C 0.293 0.116 0.294 0.118 0.301 0.128 C 0.309 0.138 0.311 0.146 0.306 0.147 C 0.304 0.147 0.3 0.147 0.297 0.148 C 0.29 0.148 0.288 0.152 0.293 0.155 C 0.294 0.156 0.298 0.16 0.3 0.163 C 0.303 0.167 0.304 0.17 0.302 0.169 C 0.301 0.168 0.299 0.168 0.299 0.17 C 0.299 0.176 0.295 0.173 0.293 0.166 C 0.291 0.158 0.286 0.155 0.278 0.157 C 0.271 0.159 0.265 0.155 0.265 0.149 C 0.265 0.142 0.27 0.133 0.273 0.135 C 0.276 0.137 0.278 0.133 0.28 0.119 C 0.283 0.104 0.286 0.095 0.289 0.095 C 0.293 0.095 0.298 0.086 0.297 0.082 C 0.296 0.08 0.297 0.076 0.298 0.072 C 0.301 0.065 0.302 0.054 0.299 0.052 C 0.297 0.049 0.298 0.037 0.3 0.03 C 0.302 0.024 0.31 0.028 0.308 0.034 C 0.307 0.036 0.308 0.035 0.31 0.031 C 0.316 0.015 0.318 0.013 0.32 0.015 C 0.322 0.016 0.323 0.019 0.323 0.023 C 0.323 0.032 0.325 0.037 0.328 0.035 C 0.331 0.033 0.331 0.017 0.328 0.003 C 0.328 0.001 0.294 0 0.164 0 L 0 0 L 0 0.5 Z  M 0.334 0.001 C 0.334 0.002 0.335 0.005 0.336 0.009 C 0.337 0.013 0.337 0.015 0.335 0.017 C 0.333 0.02 0.334 0.02 0.336 0.019 C 0.337 0.018 0.339 0.018 0.339 0.02 C 0.339 0.021 0.34 0.022 0.341 0.022 C 0.343 0.022 0.343 0.021 0.342 0.014 C 0.342 0.007 0.342 0.006 0.344 0.006 C 0.348 0.006 0.351 0.011 0.351 0.017 C 0.351 0.024 0.357 0.031 0.361 0.031 C 0.365 0.031 0.371 0.024 0.371 0.019 C 0.371 0.018 0.37 0.017 0.369 0.017 C 0.365 0.017 0.362 0.011 0.362 0.005 C 0.362 0.001 0.361 0 0.348 0 C 0.34 0 0.334 0.001 0.334 0.001 Z  M 0.376 0.012 C 0.374 0.018 0.375 0.023 0.378 0.02 C 0.379 0.019 0.379 0.015 0.379 0.013 C 0.379 0.008 0.378 0.008 0.376 0.012 Z  M 0.394 0.047 C 0.394 0.049 0.394 0.05 0.396 0.05 C 0.397 0.05 0.398 0.049 0.399 0.047 C 0.399 0.046 0.399 0.045 0.398 0.045 C 0.396 0.045 0.395 0.046 0.394 0.047 Z  M 0.414 0.122 C 0.414 0.124 0.413 0.126 0.412 0.126 C 0.411 0.126 0.411 0.124 0.411 0.122 C 0.411 0.119 0.411 0.117 0.412 0.117 C 0.413 0.117 0.414 0.119 0.414 0.122 Z  M 0.263 0.149 C 0.263 0.154 0.263 0.156 0.261 0.155 C 0.259 0.153 0.258 0.148 0.26 0.144 C 0.262 0.141 0.263 0.143 0.263 0.149 Z  M 0.174 0.172 C 0.175 0.182 0.175 0.19 0.174 0.191 C 0.171 0.196 0.167 0.189 0.166 0.179 C 0.166 0.173 0.165 0.168 0.164 0.167 C 0.161 0.164 0.164 0.156 0.169 0.156 C 0.173 0.156 0.174 0.157 0.174 0.172 Z  M 0.195 0.175 C 0.196 0.178 0.193 0.185 0.191 0.183 C 0.189 0.18 0.189 0.173 0.192 0.173 C 0.193 0.173 0.194 0.174 0.195 0.175 Z  M 0.271 0.183 C 0.272 0.185 0.277 0.187 0.282 0.188 C 0.303 0.192 0.293 0.207 0.265 0.217 C 0.262 0.218 0.256 0.222 0.251 0.227 C 0.246 0.231 0.242 0.235 0.241 0.234 C 0.24 0.233 0.237 0.236 0.235 0.241 C 0.227 0.252 0.224 0.257 0.223 0.257 C 0.223 0.257 0.221 0.259 0.22 0.262 C 0.218 0.264 0.213 0.268 0.208 0.271 C 0.204 0.274 0.197 0.279 0.194 0.282 C 0.19 0.285 0.181 0.292 0.172 0.297 C 0.155 0.309 0.148 0.316 0.146 0.323 C 0.145 0.33 0.129 0.358 0.127 0.358 C 0.126 0.358 0.125 0.355 0.126 0.348 C 0.128 0.333 0.13 0.327 0.132 0.327 C 0.134 0.327 0.135 0.324 0.135 0.318 C 0.135 0.313 0.137 0.306 0.14 0.298 C 0.147 0.283 0.155 0.256 0.157 0.241 C 0.159 0.228 0.161 0.228 0.162 0.239 C 0.162 0.242 0.163 0.246 0.163 0.247 C 0.164 0.249 0.163 0.255 0.162 0.261 C 0.161 0.267 0.159 0.275 0.159 0.279 C 0.158 0.283 0.157 0.288 0.155 0.29 C 0.154 0.291 0.153 0.294 0.154 0.295 C 0.155 0.296 0.156 0.296 0.156 0.295 C 0.157 0.293 0.16 0.289 0.164 0.286 C 0.169 0.282 0.17 0.279 0.171 0.271 C 0.173 0.251 0.18 0.251 0.18 0.271 C 0.181 0.279 0.181 0.279 0.181 0.274 C 0.182 0.265 0.185 0.262 0.188 0.266 C 0.19 0.269 0.19 0.268 0.189 0.259 C 0.188 0.248 0.19 0.242 0.193 0.244 C 0.195 0.245 0.196 0.244 0.197 0.243 C 0.2 0.237 0.209 0.239 0.211 0.245 L 0.213 0.252 L 0.216 0.243 C 0.219 0.238 0.222 0.229 0.223 0.222 C 0.226 0.214 0.228 0.211 0.23 0.21 C 0.236 0.209 0.237 0.205 0.234 0.198 C 0.231 0.194 0.231 0.191 0.232 0.189 C 0.233 0.187 0.233 0.184 0.232 0.183 C 0.232 0.182 0.232 0.182 0.233 0.182 C 0.236 0.182 0.242 0.195 0.24 0.196 C 0.238 0.196 0.238 0.196 0.239 0.197 C 0.24 0.198 0.241 0.2 0.241 0.202 C 0.241 0.205 0.246 0.212 0.249 0.212 C 0.25 0.212 0.252 0.209 0.253 0.204 C 0.254 0.197 0.255 0.196 0.258 0.197 C 0.262 0.199 0.262 0.199 0.26 0.193 C 0.257 0.182 0.266 0.173 0.271 0.183 Z  M 0.031 0.381 C 0.031 0.384 0.03 0.385 0.029 0.385 C 0.028 0.385 0.027 0.384 0.027 0.381 C 0.027 0.379 0.028 0.377 0.029 0.377 C 0.03 0.377 0.031 0.379 0.031 0.381 Z  M 0.12 0.384 C 0.122 0.391 0.121 0.412 0.117 0.421 C 0.116 0.423 0.116 0.427 0.118 0.432 C 0.123 0.446 0.114 0.447 0.109 0.433 C 0.107 0.43 0.104 0.427 0.102 0.426 C 0.099 0.425 0.097 0.423 0.096 0.422 C 0.095 0.418 0.091 0.418 0.091 0.422 C 0.091 0.424 0.092 0.424 0.093 0.423 C 0.094 0.422 0.094 0.423 0.093 0.426 C 0.089 0.441 0.086 0.454 0.086 0.461 C 0.086 0.467 0.085 0.472 0.082 0.478 C 0.079 0.482 0.077 0.486 0.078 0.486 C 0.078 0.486 0.078 0.49 0.077 0.494 C 0.075 0.503 0.07 0.509 0.063 0.51 C 0.06 0.511 0.056 0.513 0.054 0.515 C 0.049 0.521 0.049 0.504 0.054 0.48 C 0.059 0.457 0.059 0.446 0.055 0.441 C 0.051 0.436 0.051 0.434 0.054 0.429 C 0.055 0.427 0.057 0.421 0.059 0.417 C 0.063 0.409 0.067 0.408 0.067 0.415 C 0.067 0.417 0.068 0.419 0.07 0.42 C 0.071 0.421 0.072 0.42 0.072 0.417 C 0.072 0.415 0.073 0.414 0.074 0.415 C 0.075 0.416 0.075 0.419 0.075 0.422 C 0.075 0.429 0.077 0.429 0.082 0.421 C 0.085 0.416 0.087 0.415 0.088 0.417 C 0.091 0.419 0.094 0.415 0.108 0.391 C 0.117 0.375 0.116 0.376 0.12 0.384 Z  M 0.779 0.382 C 0.781 0.386 0.781 0.39 0.778 0.394 C 0.777 0.396 0.775 0.401 0.775 0.407 C 0.774 0.413 0.773 0.416 0.771 0.416 C 0.77 0.416 0.767 0.417 0.766 0.418 C 0.765 0.419 0.764 0.415 0.764 0.405 C 0.764 0.397 0.763 0.388 0.763 0.385 C 0.762 0.381 0.763 0.38 0.767 0.379 C 0.776 0.378 0.777 0.378 0.779 0.382 Z  M 0.769 0.443 C 0.769 0.444 0.77 0.449 0.772 0.454 C 0.774 0.458 0.775 0.462 0.774 0.462 C 0.774 0.462 0.775 0.465 0.776 0.469 C 0.777 0.472 0.779 0.475 0.781 0.475 C 0.782 0.475 0.784 0.476 0.784 0.478 C 0.785 0.479 0.787 0.48 0.788 0.48 C 0.791 0.48 0.798 0.494 0.798 0.5 C 0.798 0.505 0.792 0.503 0.79 0.497 C 0.788 0.493 0.787 0.492 0.786 0.495 C 0.784 0.497 0.783 0.498 0.783 0.498 C 0.782 0.497 0.78 0.499 0.777 0.502 C 0.774 0.504 0.77 0.507 0.767 0.509 C 0.765 0.51 0.761 0.511 0.76 0.513 C 0.758 0.514 0.757 0.513 0.756 0.508 C 0.753 0.494 0.746 0.496 0.747 0.51 C 0.748 0.517 0.748 0.517 0.743 0.516 C 0.739 0.516 0.737 0.516 0.737 0.521 C 0.737 0.524 0.736 0.528 0.734 0.529 C 0.733 0.531 0.732 0.538 0.732 0.544 C 0.73 0.559 0.73 0.56 0.726 0.555 C 0.722 0.551 0.721 0.542 0.723 0.536 C 0.725 0.534 0.726 0.528 0.726 0.523 C 0.726 0.518 0.727 0.513 0.728 0.512 C 0.729 0.511 0.731 0.506 0.732 0.501 C 0.733 0.497 0.736 0.491 0.739 0.489 C 0.746 0.483 0.755 0.467 0.756 0.457 C 0.757 0.453 0.758 0.447 0.76 0.446 C 0.762 0.442 0.771 0.44 0.769 0.443 Z  M 0.781 0.51 C 0.781 0.52 0.774 0.531 0.767 0.532 C 0.763 0.532 0.765 0.517 0.77 0.511 C 0.776 0.504 0.781 0.504 0.781 0.51 Z  M 0.268 0.635 C 0.267 0.64 0.262 0.641 0.262 0.636 C 0.262 0.633 0.263 0.631 0.265 0.631 C 0.267 0.631 0.268 0.633 0.268 0.635 Z  M 0.258 0.698 C 0.258 0.701 0.256 0.703 0.252 0.703 C 0.246 0.704 0.244 0.701 0.249 0.696 C 0.253 0.692 0.258 0.693 0.258 0.698 Z  M 0.355 0.753 C 0.356 0.758 0.353 0.762 0.349 0.763 C 0.348 0.763 0.347 0.761 0.348 0.756 C 0.348 0.748 0.354 0.746 0.355 0.753 Z  M 0.442 0.836 C 0.449 0.841 0.448 0.847 0.438 0.855 C 0.431 0.86 0.43 0.863 0.429 0.869 C 0.429 0.876 0.423 0.902 0.421 0.902 C 0.42 0.902 0.42 0.886 0.422 0.885 C 0.422 0.884 0.423 0.88 0.424 0.876 C 0.425 0.87 0.425 0.868 0.423 0.871 C 0.422 0.875 0.422 0.875 0.421 0.871 C 0.42 0.868 0.418 0.866 0.416 0.866 C 0.412 0.866 0.411 0.865 0.412 0.855 C 0.413 0.844 0.429 0.835 0.43 0.846 C 0.43 0.849 0.431 0.847 0.432 0.841 C 0.435 0.831 0.435 0.831 0.442 0.836 Z  M 0.404 0.875 C 0.403 0.88 0.403 0.884 0.403 0.885 C 0.403 0.888 0.413 0.885 0.413 0.881 C 0.415 0.875 0.418 0.882 0.418 0.891 C 0.418 0.897 0.418 0.898 0.412 0.898 C 0.407 0.898 0.405 0.897 0.405 0.895 C 0.406 0.892 0.405 0.892 0.403 0.893 C 0.397 0.895 0.386 0.896 0.386 0.894 C 0.386 0.89 0.393 0.88 0.394 0.883 C 0.394 0.885 0.394 0.884 0.395 0.88 C 0.4 0.864 0.407 0.86 0.404 0.875 Z  M 0.39 0.877 L 0.389 0.884 L 0.389 0.877 C 0.389 0.873 0.389 0.869 0.39 0.868 C 0.392 0.864 0.392 0.87 0.39 0.877 Z " fill-rule="evenodd" fill="rgb(0,0,0)"/></g></g></svg>