<?xml version="1.0" encoding="UTF-8" standalone="no"?><!-- Generator: Gravit.io --><svg xmlns="http://www.w3.org/2000/svg" xmlns:xlink="http://www.w3.org/1999/xlink" style="isolation:isolate" viewBox="0 0 1 1" width="1pt" height="1pt"><defs><clipPath id="_clipPath_T2IGbPZOPbk2eUg5YX1XDmhVPjCguDUo"><rect width="1" height="1"/></clipPath></defs><g clip-path="url(#_clipPath_T2IGbPZOPbk2eUg5YX1XDmhVPjCguDUo)"><g><path d=" M 0 0 L 1 0 L 1 1 L 0 1 L 0 0 Z " fill="rgb(0,0,0)"/><path d=" M 0.448 0.458 C 0.439 0.464 0.424 0.485 0.423 0.494 C 0.422 0.498 0.42 0.504 0.419 0.508 C 0.415 0.516 0.417 0.531 0.421 0.531 C 0.422 0.531 0.424 0.536 0.425 0.542 C 0.427 0.548 0.429 0.553 0.43 0.553 C 0.432 0.553 0.433 0.555 0.433 0.558 C 0.433 0.569 0.445 0.583 0.454 0.583 C 0.456 0.583 0.46 0.586 0.461 0.588 C 0.464 0.593 0.465 0.593 0.466 0.589 C 0.467 0.586 0.471 0.583 0.476 0.582 C 0.48 0.581 0.485 0.579 0.486 0.576 C 0.487 0.574 0.49 0.572 0.492 0.572 C 0.494 0.572 0.496 0.57 0.496 0.567 C 0.497 0.564 0.498 0.561 0.5 0.56 C 0.502 0.559 0.503 0.556 0.503 0.553 C 0.503 0.549 0.504 0.546 0.506 0.545 C 0.511 0.543 0.511 0.538 0.509 0.522 C 0.507 0.514 0.506 0.505 0.506 0.502 C 0.506 0.473 0.469 0.445 0.448 0.458 Z " fill-rule="evenodd" fill="rgb(0,0,0)"/></g></g></svg>