<?xml version="1.0" encoding="UTF-8" standalone="no"?><!-- Generator: Gravit.io --><svg xmlns="http://www.w3.org/2000/svg" xmlns:xlink="http://www.w3.org/1999/xlink" style="isolation:isolate" viewBox="0 0 1 1" width="1pt" height="1pt"><defs><clipPath id="_clipPath_ne9HY6FBeaFx78NPmHK2a33wONeSK7fI"><rect width="1" height="1"/></clipPath></defs><g clip-path="url(#_clipPath_ne9HY6FBeaFx78NPmHK2a33wONeSK7fI)"><g><path d=" M 0 0.5 L 0 1 L 0.202 1 C 0.328 1 0.403 0.999 0.401 0.997 C 0.396 0.992 0.398 0.976 0.405 0.975 C 0.412 0.974 0.413 0.969 0.406 0.969 C 0.404 0.969 0.401 0.967 0.399 0.965 C 0.397 0.963 0.394 0.961 0.392 0.961 C 0.388 0.961 0.384 0.95 0.387 0.947 C 0.389 0.945 0.391 0.944 0.392 0.944 C 0.393 0.944 0.395 0.942 0.395 0.939 C 0.396 0.932 0.403 0.931 0.405 0.936 C 0.407 0.938 0.408 0.938 0.409 0.935 C 0.41 0.932 0.41 0.929 0.405 0.921 C 0.399 0.91 0.399 0.909 0.404 0.905 C 0.408 0.901 0.414 0.907 0.414 0.916 C 0.414 0.919 0.414 0.922 0.415 0.923 C 0.418 0.928 0.422 0.97 0.421 0.979 C 0.421 0.984 0.421 0.991 0.421 0.994 L 0.422 1 L 0.711 1 L 1 1 L 1 0.5 L 1 0 L 0.721 0 C 0.567 0.001 0.444 0.001 0.447 0.002 C 0.452 0.003 0.453 0.004 0.453 0.008 C 0.453 0.011 0.454 0.014 0.455 0.015 C 0.457 0.016 0.457 0.018 0.457 0.02 C 0.457 0.022 0.457 0.023 0.457 0.022 C 0.458 0.021 0.46 0.022 0.464 0.025 C 0.468 0.029 0.47 0.03 0.471 0.027 C 0.472 0.023 0.475 0.03 0.474 0.037 C 0.474 0.043 0.476 0.046 0.479 0.042 C 0.481 0.039 0.499 0.039 0.498 0.042 C 0.497 0.043 0.498 0.045 0.499 0.048 C 0.5 0.051 0.5 0.051 0.5 0.047 C 0.5 0.041 0.501 0.041 0.507 0.045 C 0.51 0.047 0.512 0.048 0.513 0.048 C 0.514 0.048 0.514 0.049 0.514 0.05 C 0.514 0.052 0.516 0.052 0.518 0.051 C 0.523 0.05 0.525 0.06 0.521 0.073 C 0.517 0.087 0.515 0.09 0.512 0.085 C 0.511 0.083 0.509 0.082 0.509 0.083 C 0.508 0.084 0.507 0.085 0.507 0.085 C 0.506 0.085 0.503 0.087 0.499 0.089 C 0.492 0.093 0.491 0.091 0.491 0.083 C 0.491 0.077 0.49 0.076 0.483 0.076 C 0.48 0.076 0.476 0.075 0.475 0.074 C 0.474 0.073 0.472 0.074 0.471 0.075 C 0.47 0.077 0.465 0.078 0.459 0.077 C 0.445 0.075 0.445 0.075 0.438 0.078 C 0.431 0.081 0.429 0.077 0.434 0.069 C 0.44 0.058 0.438 0.042 0.431 0.046 C 0.428 0.048 0.419 0.071 0.422 0.072 C 0.424 0.074 0.423 0.087 0.421 0.088 C 0.42 0.089 0.418 0.089 0.417 0.087 C 0.415 0.086 0.41 0.084 0.405 0.082 C 0.4 0.081 0.394 0.079 0.392 0.078 C 0.387 0.075 0.384 0.079 0.384 0.089 C 0.384 0.1 0.384 0.101 0.382 0.098 C 0.379 0.094 0.374 0.097 0.373 0.103 C 0.372 0.105 0.37 0.106 0.368 0.105 C 0.366 0.104 0.365 0.104 0.365 0.106 C 0.365 0.109 0.363 0.109 0.359 0.108 C 0.353 0.106 0.352 0.107 0.351 0.113 C 0.35 0.117 0.348 0.12 0.345 0.121 C 0.342 0.122 0.337 0.123 0.333 0.124 C 0.33 0.125 0.328 0.125 0.328 0.123 C 0.328 0.122 0.326 0.121 0.324 0.122 C 0.322 0.122 0.32 0.122 0.32 0.12 C 0.32 0.119 0.318 0.114 0.315 0.109 C 0.31 0.1 0.309 0.09 0.312 0.081 C 0.314 0.076 0.309 0.062 0.305 0.061 C 0.301 0.061 0.299 0.047 0.301 0.039 C 0.304 0.031 0.308 0.029 0.307 0.038 C 0.307 0.041 0.309 0.039 0.312 0.031 C 0.319 0.017 0.321 0.017 0.323 0.031 C 0.325 0.041 0.325 0.041 0.329 0.037 C 0.331 0.035 0.332 0.032 0.332 0.031 C 0.33 0.027 0.335 0.022 0.339 0.023 C 0.344 0.026 0.345 0.022 0.343 0.013 C 0.342 0.007 0.342 0.006 0.344 0.006 C 0.346 0.006 0.349 0.016 0.348 0.019 C 0.346 0.025 0.361 0.036 0.366 0.031 C 0.368 0.03 0.372 0.027 0.375 0.024 C 0.381 0.019 0.386 0.006 0.382 0.006 C 0.381 0.006 0.378 0.008 0.376 0.011 C 0.37 0.02 0.36 0.016 0.363 0.004 C 0.363 0 0.343 0 0.182 0 L 0 0 L 0 0.5 Z  M 0.394 0.044 C 0.39 0.049 0.39 0.05 0.393 0.051 C 0.398 0.053 0.401 0.05 0.402 0.044 C 0.403 0.038 0.4 0.038 0.394 0.044 Z  M 0.297 0.125 C 0.301 0.133 0.3 0.134 0.29 0.136 C 0.28 0.138 0.28 0.139 0.291 0.149 C 0.295 0.153 0.299 0.159 0.299 0.161 C 0.299 0.167 0.295 0.168 0.29 0.162 C 0.287 0.157 0.283 0.156 0.277 0.156 C 0.27 0.156 0.268 0.155 0.266 0.151 C 0.264 0.144 0.269 0.136 0.273 0.138 C 0.275 0.139 0.277 0.136 0.279 0.126 C 0.284 0.107 0.287 0.107 0.297 0.125 Z  M 0.172 0.158 C 0.175 0.16 0.175 0.193 0.172 0.193 C 0.168 0.193 0.166 0.186 0.166 0.177 C 0.166 0.172 0.165 0.167 0.165 0.166 C 0.161 0.162 0.167 0.155 0.172 0.158 Z  M 0.267 0.184 C 0.268 0.188 0.27 0.189 0.278 0.189 C 0.301 0.188 0.286 0.214 0.261 0.216 C 0.255 0.217 0.251 0.22 0.247 0.227 C 0.246 0.229 0.244 0.232 0.242 0.233 C 0.24 0.233 0.236 0.238 0.231 0.244 C 0.227 0.249 0.223 0.254 0.222 0.254 C 0.221 0.254 0.219 0.257 0.218 0.26 C 0.217 0.263 0.215 0.265 0.213 0.265 C 0.211 0.265 0.209 0.266 0.207 0.268 C 0.206 0.269 0.202 0.273 0.198 0.275 C 0.194 0.278 0.191 0.281 0.191 0.282 C 0.191 0.283 0.188 0.286 0.185 0.287 C 0.178 0.29 0.164 0.299 0.158 0.305 C 0.156 0.306 0.154 0.307 0.154 0.306 C 0.153 0.305 0.15 0.31 0.147 0.318 C 0.141 0.332 0.137 0.337 0.135 0.334 C 0.134 0.333 0.134 0.334 0.134 0.336 C 0.135 0.338 0.133 0.344 0.13 0.35 C 0.126 0.357 0.125 0.358 0.126 0.353 C 0.126 0.35 0.127 0.344 0.128 0.339 C 0.128 0.333 0.13 0.329 0.132 0.328 C 0.134 0.327 0.135 0.324 0.135 0.317 C 0.135 0.311 0.136 0.306 0.139 0.302 C 0.141 0.299 0.144 0.291 0.145 0.285 C 0.147 0.28 0.15 0.27 0.153 0.263 C 0.155 0.256 0.157 0.25 0.156 0.247 C 0.155 0.241 0.158 0.23 0.16 0.234 C 0.162 0.241 0.162 0.265 0.159 0.273 C 0.157 0.279 0.157 0.282 0.159 0.285 C 0.162 0.291 0.168 0.285 0.169 0.273 C 0.169 0.27 0.171 0.264 0.173 0.261 C 0.175 0.257 0.177 0.253 0.176 0.251 C 0.175 0.249 0.176 0.249 0.177 0.25 C 0.178 0.251 0.179 0.254 0.178 0.256 C 0.178 0.258 0.178 0.26 0.179 0.26 C 0.18 0.26 0.18 0.262 0.18 0.264 C 0.18 0.267 0.181 0.268 0.183 0.266 C 0.185 0.264 0.187 0.264 0.188 0.266 C 0.19 0.269 0.19 0.268 0.189 0.261 C 0.188 0.251 0.189 0.246 0.192 0.246 C 0.193 0.246 0.194 0.245 0.195 0.243 C 0.196 0.237 0.209 0.237 0.21 0.243 C 0.211 0.256 0.22 0.244 0.223 0.225 C 0.225 0.213 0.227 0.208 0.231 0.206 C 0.233 0.206 0.234 0.203 0.234 0.2 C 0.233 0.195 0.234 0.195 0.239 0.201 C 0.242 0.204 0.245 0.206 0.245 0.205 C 0.245 0.204 0.245 0.205 0.247 0.208 C 0.249 0.214 0.254 0.21 0.254 0.202 C 0.254 0.199 0.255 0.198 0.258 0.199 C 0.262 0.201 0.263 0.199 0.26 0.194 C 0.258 0.189 0.26 0.179 0.263 0.179 C 0.265 0.179 0.267 0.181 0.267 0.184 Z  M 0.773 0.382 C 0.774 0.383 0.774 0.388 0.774 0.393 C 0.773 0.399 0.773 0.406 0.772 0.409 C 0.771 0.423 0.765 0.409 0.764 0.39 C 0.763 0.377 0.766 0.375 0.773 0.382 Z  M 0.119 0.387 C 0.119 0.39 0.118 0.399 0.117 0.407 C 0.115 0.416 0.115 0.425 0.115 0.43 C 0.116 0.439 0.112 0.443 0.11 0.435 C 0.11 0.431 0.102 0.425 0.099 0.425 C 0.097 0.425 0.088 0.452 0.088 0.459 C 0.088 0.463 0.086 0.47 0.083 0.475 C 0.081 0.481 0.078 0.488 0.078 0.492 C 0.076 0.502 0.067 0.512 0.06 0.511 C 0.053 0.51 0.05 0.503 0.053 0.494 C 0.057 0.484 0.057 0.48 0.06 0.462 L 0.063 0.446 L 0.059 0.439 C 0.054 0.432 0.054 0.426 0.06 0.416 L 0.064 0.41 L 0.067 0.416 C 0.07 0.421 0.07 0.423 0.069 0.425 C 0.067 0.426 0.068 0.428 0.07 0.43 C 0.073 0.433 0.08 0.427 0.083 0.418 C 0.084 0.417 0.085 0.416 0.087 0.417 C 0.088 0.418 0.09 0.418 0.09 0.416 C 0.091 0.415 0.092 0.414 0.093 0.415 C 0.093 0.416 0.094 0.415 0.095 0.412 C 0.096 0.41 0.097 0.408 0.098 0.408 C 0.099 0.408 0.103 0.402 0.106 0.395 C 0.113 0.382 0.117 0.38 0.119 0.387 Z  M 0.769 0.462 C 0.772 0.465 0.775 0.47 0.776 0.474 C 0.777 0.48 0.78 0.482 0.784 0.481 C 0.788 0.48 0.783 0.49 0.778 0.493 C 0.776 0.494 0.774 0.497 0.774 0.5 C 0.773 0.505 0.764 0.514 0.759 0.514 C 0.758 0.514 0.757 0.511 0.756 0.508 C 0.756 0.504 0.753 0.498 0.751 0.494 L 0.746 0.487 L 0.752 0.477 C 0.755 0.471 0.757 0.465 0.757 0.462 C 0.757 0.458 0.762 0.452 0.763 0.455 C 0.763 0.457 0.766 0.46 0.769 0.462 Z  M 0.742 0.494 C 0.747 0.499 0.747 0.509 0.742 0.508 C 0.739 0.507 0.736 0.507 0.736 0.509 C 0.732 0.515 0.732 0.506 0.735 0.499 C 0.739 0.491 0.74 0.491 0.742 0.494 Z  M 0.771 0.517 C 0.77 0.525 0.766 0.527 0.766 0.521 C 0.766 0.518 0.77 0.512 0.772 0.511 C 0.772 0.511 0.772 0.514 0.771 0.517 Z  M 0.729 0.545 C 0.729 0.554 0.727 0.556 0.724 0.548 C 0.722 0.54 0.722 0.536 0.726 0.536 C 0.728 0.536 0.729 0.538 0.729 0.545 Z  M 0.258 0.697 C 0.259 0.702 0.257 0.704 0.252 0.704 C 0.247 0.704 0.247 0.702 0.25 0.697 C 0.254 0.692 0.257 0.692 0.258 0.697 Z  M 0.355 0.757 C 0.355 0.759 0.353 0.762 0.351 0.762 C 0.347 0.763 0.347 0.762 0.347 0.757 C 0.348 0.751 0.355 0.751 0.355 0.757 Z  M 0.44 0.838 C 0.442 0.84 0.442 0.841 0.441 0.844 C 0.439 0.848 0.436 0.845 0.436 0.839 C 0.436 0.835 0.437 0.834 0.44 0.838 Z  M 0.43 0.847 C 0.43 0.853 0.43 0.853 0.431 0.847 C 0.432 0.842 0.433 0.841 0.434 0.843 C 0.437 0.847 0.435 0.855 0.431 0.855 C 0.43 0.855 0.427 0.858 0.426 0.861 C 0.423 0.87 0.411 0.869 0.411 0.859 C 0.412 0.85 0.414 0.846 0.416 0.848 C 0.417 0.849 0.42 0.848 0.422 0.845 C 0.427 0.839 0.429 0.84 0.43 0.847 Z  M 0.404 0.872 C 0.403 0.883 0.402 0.883 0.4 0.878 C 0.399 0.875 0.398 0.874 0.4 0.874 C 0.401 0.874 0.401 0.873 0.401 0.872 C 0.4 0.871 0.404 0.864 0.405 0.863 C 0.406 0.863 0.405 0.867 0.404 0.872 Z  M 0.417 0.89 C 0.417 0.893 0.414 0.897 0.41 0.897 C 0.406 0.897 0.407 0.889 0.411 0.886 C 0.415 0.883 0.417 0.884 0.417 0.89 Z " fill-rule="evenodd" fill="rgb(0,0,0)"/></g></g></svg>