<?xml version="1.0" encoding="UTF-8" standalone="no"?><!-- Generator: Gravit.io --><svg xmlns="http://www.w3.org/2000/svg" xmlns:xlink="http://www.w3.org/1999/xlink" style="isolation:isolate" viewBox="0 0 1 1" width="1pt" height="1pt"><defs><clipPath id="_clipPath_Y5ibPI5yZkiiS4SbvQDxc1gaMp1TDXq9"><rect width="1" height="1"/></clipPath></defs><g clip-path="url(#_clipPath_Y5ibPI5yZkiiS4SbvQDxc1gaMp1TDXq9)"><g><path d=" M 0 0.5 L 0 1 L 0.202 1 C 0.37 1 0.403 0.999 0.401 0.996 C 0.394 0.987 0.398 0.975 0.407 0.975 C 0.41 0.975 0.412 0.974 0.414 0.972 C 0.416 0.97 0.415 0.969 0.411 0.969 C 0.405 0.969 0.389 0.959 0.389 0.955 C 0.389 0.953 0.388 0.953 0.387 0.954 C 0.386 0.955 0.386 0.954 0.386 0.953 C 0.386 0.952 0.388 0.949 0.391 0.948 C 0.394 0.946 0.396 0.943 0.396 0.939 C 0.397 0.933 0.403 0.93 0.405 0.936 C 0.406 0.938 0.407 0.937 0.409 0.935 C 0.415 0.93 0.419 0.942 0.415 0.952 C 0.414 0.956 0.414 0.958 0.416 0.96 C 0.417 0.962 0.418 0.969 0.417 0.982 L 0.417 1 L 0.708 1 L 1 1 L 1 0.5 L 1 0 L 0.706 0 C 0.513 0.001 0.416 0.002 0.425 0.003 C 0.439 0.006 0.449 0.012 0.447 0.017 C 0.447 0.019 0.447 0.02 0.45 0.018 C 0.452 0.017 0.453 0.018 0.452 0.022 C 0.451 0.03 0.459 0.044 0.466 0.046 C 0.469 0.047 0.472 0.049 0.472 0.051 C 0.472 0.052 0.473 0.053 0.474 0.053 C 0.475 0.053 0.476 0.054 0.476 0.056 C 0.476 0.057 0.478 0.058 0.48 0.058 C 0.482 0.057 0.485 0.058 0.487 0.059 C 0.489 0.061 0.491 0.061 0.493 0.059 C 0.497 0.053 0.516 0.057 0.517 0.065 C 0.519 0.084 0.494 0.096 0.491 0.077 C 0.491 0.072 0.49 0.071 0.481 0.072 C 0.475 0.072 0.463 0.073 0.454 0.074 C 0.445 0.074 0.437 0.076 0.436 0.077 C 0.433 0.079 0.434 0.077 0.437 0.066 C 0.444 0.045 0.436 0.034 0.424 0.049 C 0.421 0.053 0.417 0.056 0.416 0.056 C 0.414 0.056 0.407 0.07 0.408 0.072 C 0.409 0.073 0.412 0.073 0.415 0.074 C 0.42 0.074 0.421 0.075 0.421 0.08 C 0.422 0.087 0.418 0.089 0.416 0.084 C 0.416 0.082 0.414 0.082 0.414 0.083 C 0.411 0.085 0.398 0.078 0.399 0.074 C 0.4 0.072 0.399 0.07 0.398 0.069 C 0.396 0.068 0.395 0.069 0.395 0.073 C 0.394 0.077 0.393 0.078 0.39 0.078 C 0.388 0.077 0.386 0.079 0.385 0.083 C 0.384 0.087 0.383 0.089 0.382 0.089 C 0.381 0.089 0.378 0.092 0.376 0.096 C 0.368 0.106 0.361 0.109 0.357 0.105 C 0.353 0.101 0.353 0.102 0.351 0.107 L 0.348 0.113 L 0.342 0.106 C 0.339 0.102 0.336 0.1 0.335 0.1 C 0.334 0.1 0.334 0.099 0.334 0.098 C 0.334 0.097 0.332 0.096 0.331 0.097 C 0.329 0.098 0.328 0.097 0.328 0.095 C 0.328 0.093 0.327 0.093 0.326 0.093 C 0.325 0.094 0.324 0.092 0.322 0.089 C 0.321 0.086 0.32 0.084 0.32 0.084 C 0.321 0.084 0.32 0.081 0.319 0.078 C 0.314 0.069 0.314 0.061 0.317 0.054 C 0.32 0.048 0.32 0.047 0.318 0.042 C 0.316 0.037 0.316 0.035 0.317 0.032 C 0.32 0.027 0.322 0.027 0.321 0.03 C 0.32 0.032 0.321 0.034 0.322 0.035 C 0.323 0.035 0.324 0.039 0.324 0.043 C 0.324 0.049 0.325 0.05 0.328 0.05 C 0.331 0.05 0.331 0.05 0.329 0.048 C 0.327 0.045 0.327 0.044 0.33 0.04 C 0.332 0.038 0.334 0.035 0.333 0.034 C 0.331 0.027 0.348 0.025 0.353 0.032 C 0.361 0.042 0.385 0.025 0.386 0.009 C 0.386 0.004 0.377 0.005 0.375 0.01 C 0.373 0.017 0.365 0.013 0.366 0.005 C 0.366 0 0.364 0 0.183 0 L 0 0 L 0 0.5 Z  M 0.396 0.041 C 0.395 0.043 0.393 0.047 0.39 0.048 C 0.387 0.051 0.387 0.051 0.389 0.052 C 0.391 0.053 0.393 0.055 0.394 0.056 C 0.398 0.062 0.405 0.05 0.403 0.041 C 0.402 0.035 0.399 0.035 0.396 0.041 Z  M 0.287 0.114 C 0.289 0.116 0.286 0.123 0.284 0.123 C 0.283 0.123 0.282 0.12 0.282 0.117 C 0.282 0.112 0.285 0.11 0.287 0.114 Z  M 0.289 0.143 C 0.294 0.15 0.294 0.153 0.288 0.155 C 0.277 0.158 0.267 0.155 0.267 0.15 C 0.265 0.138 0.28 0.133 0.289 0.143 Z  M 0.172 0.161 C 0.174 0.164 0.174 0.166 0.172 0.169 C 0.171 0.172 0.171 0.173 0.172 0.173 C 0.174 0.173 0.175 0.189 0.172 0.191 C 0.169 0.195 0.166 0.187 0.166 0.177 C 0.166 0.172 0.165 0.168 0.165 0.168 C 0.163 0.168 0.163 0.166 0.165 0.162 C 0.167 0.155 0.17 0.155 0.172 0.161 Z  M 0.266 0.181 C 0.266 0.184 0.264 0.188 0.261 0.189 C 0.259 0.189 0.258 0.184 0.26 0.181 C 0.261 0.178 0.266 0.178 0.266 0.181 Z  M 0.288 0.191 C 0.292 0.198 0.272 0.215 0.259 0.215 C 0.254 0.215 0.252 0.217 0.248 0.223 C 0.245 0.228 0.242 0.232 0.241 0.232 C 0.239 0.232 0.235 0.237 0.23 0.243 C 0.226 0.249 0.221 0.254 0.22 0.253 C 0.219 0.252 0.218 0.254 0.217 0.257 C 0.216 0.261 0.206 0.271 0.203 0.271 C 0.202 0.271 0.2 0.273 0.197 0.275 C 0.189 0.282 0.188 0.282 0.19 0.275 C 0.191 0.271 0.191 0.265 0.19 0.261 C 0.188 0.252 0.187 0.254 0.192 0.245 C 0.198 0.232 0.208 0.236 0.207 0.25 L 0.207 0.26 L 0.211 0.253 C 0.213 0.249 0.216 0.246 0.216 0.246 C 0.217 0.246 0.219 0.24 0.221 0.233 C 0.226 0.21 0.229 0.201 0.231 0.202 C 0.232 0.203 0.234 0.202 0.234 0.201 C 0.234 0.199 0.236 0.2 0.239 0.202 C 0.241 0.205 0.244 0.206 0.245 0.205 C 0.245 0.205 0.246 0.206 0.247 0.208 C 0.248 0.215 0.255 0.214 0.254 0.207 C 0.253 0.2 0.254 0.2 0.259 0.204 C 0.262 0.207 0.263 0.205 0.262 0.198 C 0.262 0.196 0.263 0.196 0.265 0.196 C 0.266 0.196 0.268 0.194 0.268 0.192 C 0.269 0.188 0.286 0.187 0.288 0.191 Z  M 0.159 0.241 C 0.159 0.245 0.159 0.249 0.16 0.25 C 0.162 0.252 0.161 0.265 0.157 0.278 C 0.153 0.29 0.153 0.296 0.155 0.296 C 0.158 0.296 0.167 0.283 0.167 0.277 C 0.169 0.259 0.176 0.251 0.179 0.264 C 0.18 0.271 0.18 0.271 0.183 0.267 C 0.187 0.261 0.188 0.265 0.187 0.276 C 0.187 0.281 0.185 0.285 0.184 0.285 C 0.179 0.286 0.178 0.286 0.174 0.29 C 0.172 0.292 0.165 0.297 0.16 0.301 C 0.152 0.305 0.149 0.309 0.146 0.316 C 0.144 0.321 0.14 0.327 0.138 0.329 C 0.135 0.331 0.133 0.333 0.133 0.335 C 0.133 0.336 0.132 0.339 0.131 0.342 C 0.129 0.348 0.129 0.348 0.129 0.341 C 0.129 0.338 0.131 0.332 0.132 0.329 C 0.134 0.326 0.135 0.321 0.135 0.317 C 0.135 0.31 0.14 0.293 0.143 0.291 C 0.144 0.29 0.146 0.284 0.148 0.276 C 0.15 0.268 0.153 0.26 0.154 0.259 C 0.155 0.258 0.156 0.255 0.156 0.251 C 0.156 0.244 0.158 0.235 0.159 0.235 C 0.16 0.235 0.16 0.238 0.159 0.241 Z  M 0.772 0.391 C 0.773 0.407 0.769 0.412 0.767 0.398 C 0.764 0.382 0.764 0.379 0.768 0.38 C 0.771 0.381 0.772 0.383 0.772 0.391 Z  M 0.113 0.412 C 0.11 0.428 0.11 0.429 0.106 0.428 C 0.099 0.427 0.089 0.444 0.089 0.457 C 0.089 0.462 0.088 0.469 0.086 0.474 C 0.084 0.478 0.081 0.486 0.079 0.491 C 0.076 0.503 0.068 0.509 0.06 0.507 C 0.055 0.505 0.053 0.496 0.057 0.49 C 0.058 0.487 0.064 0.455 0.065 0.438 C 0.066 0.432 0.067 0.431 0.069 0.433 C 0.071 0.435 0.073 0.434 0.077 0.429 C 0.086 0.419 0.092 0.414 0.095 0.414 C 0.096 0.413 0.102 0.406 0.106 0.397 C 0.117 0.378 0.118 0.382 0.113 0.412 Z  M 0.065 0.415 C 0.067 0.419 0.068 0.421 0.066 0.425 C 0.065 0.428 0.064 0.432 0.064 0.434 C 0.064 0.44 0.062 0.44 0.06 0.434 C 0.059 0.432 0.057 0.431 0.056 0.432 C 0.054 0.434 0.057 0.421 0.059 0.416 C 0.062 0.41 0.062 0.41 0.065 0.415 Z  M 0.766 0.468 C 0.767 0.472 0.77 0.475 0.771 0.476 C 0.775 0.478 0.773 0.488 0.769 0.49 C 0.766 0.491 0.766 0.492 0.768 0.495 C 0.771 0.5 0.77 0.506 0.767 0.506 C 0.764 0.506 0.764 0.507 0.764 0.51 C 0.765 0.513 0.764 0.514 0.761 0.514 C 0.759 0.514 0.757 0.512 0.757 0.51 C 0.757 0.507 0.755 0.502 0.752 0.497 L 0.748 0.488 L 0.753 0.478 C 0.756 0.473 0.759 0.467 0.759 0.465 C 0.759 0.458 0.763 0.46 0.766 0.468 Z  M 0.257 0.7 C 0.257 0.702 0.256 0.704 0.255 0.704 C 0.255 0.704 0.254 0.702 0.254 0.7 C 0.254 0.697 0.255 0.696 0.255 0.696 C 0.256 0.696 0.257 0.697 0.257 0.7 Z  M 0.355 0.759 C 0.356 0.765 0.356 0.765 0.352 0.765 C 0.347 0.765 0.346 0.761 0.349 0.757 C 0.353 0.753 0.354 0.753 0.355 0.759 Z  M 0.425 0.855 C 0.423 0.859 0.42 0.863 0.418 0.863 C 0.417 0.863 0.415 0.864 0.415 0.866 C 0.413 0.871 0.41 0.869 0.411 0.864 C 0.412 0.861 0.413 0.857 0.413 0.855 C 0.413 0.851 0.418 0.847 0.425 0.847 C 0.428 0.846 0.428 0.847 0.425 0.855 Z  M 0.412 0.91 C 0.414 0.915 0.412 0.925 0.41 0.924 C 0.407 0.922 0.405 0.914 0.406 0.91 C 0.408 0.904 0.41 0.904 0.412 0.91 Z " fill-rule="evenodd" fill="rgb(0,0,0)"/></g></g></svg>