<?xml version="1.0" encoding="UTF-8" standalone="no"?><!-- Generator: Gravit.io --><svg xmlns="http://www.w3.org/2000/svg" xmlns:xlink="http://www.w3.org/1999/xlink" style="isolation:isolate" viewBox="0 0 1 1" width="1pt" height="1pt"><defs><clipPath id="_clipPath_tjGOfTeGXjVyZUf47zy5SewCIc50f1ct"><rect width="1" height="1"/></clipPath></defs><g clip-path="url(#_clipPath_tjGOfTeGXjVyZUf47zy5SewCIc50f1ct)"><g><path d=" M 0 0.5 L 0 1 L 0.202 1 C 0.399 1 0.403 1 0.401 0.995 C 0.397 0.989 0.399 0.975 0.402 0.975 C 0.408 0.975 0.414 0.984 0.414 0.992 L 0.414 1 L 0.707 1 L 1 1 L 1 0.5 L 1 0 L 0.703 0.001 C 0.436 0.001 0.4 0.002 0.42 0.007 C 0.423 0.008 0.424 0.01 0.424 0.013 C 0.424 0.016 0.424 0.017 0.426 0.016 C 0.428 0.016 0.429 0.016 0.429 0.018 C 0.429 0.019 0.43 0.02 0.431 0.019 C 0.432 0.018 0.433 0.019 0.433 0.021 C 0.433 0.023 0.433 0.022 0.434 0.019 C 0.435 0.016 0.436 0.014 0.436 0.016 C 0.436 0.018 0.437 0.02 0.439 0.021 C 0.441 0.022 0.442 0.025 0.442 0.031 C 0.442 0.039 0.445 0.043 0.449 0.041 C 0.452 0.039 0.455 0.047 0.454 0.052 C 0.453 0.056 0.454 0.057 0.461 0.056 C 0.468 0.055 0.469 0.055 0.468 0.06 C 0.467 0.064 0.467 0.065 0.47 0.063 C 0.474 0.061 0.474 0.062 0.472 0.066 C 0.471 0.068 0.469 0.07 0.468 0.069 C 0.467 0.068 0.465 0.069 0.465 0.07 C 0.464 0.074 0.458 0.073 0.455 0.069 C 0.453 0.067 0.453 0.068 0.454 0.07 C 0.455 0.073 0.454 0.073 0.453 0.071 C 0.448 0.066 0.44 0.052 0.439 0.047 C 0.438 0.039 0.436 0.037 0.431 0.04 C 0.429 0.041 0.426 0.042 0.425 0.041 C 0.423 0.04 0.422 0.041 0.422 0.044 C 0.422 0.048 0.416 0.05 0.415 0.045 C 0.414 0.044 0.412 0.042 0.411 0.042 C 0.409 0.042 0.406 0.04 0.403 0.037 C 0.398 0.033 0.398 0.033 0.396 0.037 C 0.395 0.04 0.393 0.042 0.392 0.042 C 0.392 0.042 0.389 0.045 0.388 0.048 C 0.386 0.051 0.382 0.053 0.38 0.054 C 0.377 0.055 0.375 0.057 0.375 0.059 C 0.375 0.061 0.375 0.07 0.375 0.078 C 0.375 0.091 0.374 0.092 0.37 0.093 C 0.364 0.095 0.362 0.091 0.363 0.082 C 0.364 0.075 0.367 0.074 0.367 0.08 C 0.367 0.088 0.369 0.082 0.369 0.074 C 0.37 0.069 0.369 0.062 0.369 0.058 C 0.368 0.049 0.368 0.048 0.357 0.047 C 0.354 0.047 0.351 0.046 0.351 0.045 C 0.351 0.044 0.35 0.042 0.348 0.041 C 0.346 0.041 0.345 0.039 0.346 0.037 C 0.346 0.035 0.347 0.034 0.348 0.036 C 0.35 0.041 0.363 0.04 0.37 0.034 C 0.374 0.031 0.378 0.028 0.379 0.028 C 0.381 0.028 0.387 0.017 0.389 0.008 C 0.391 -0.002 0.383 -0.003 0.376 0.006 C 0.373 0.01 0.371 0.012 0.369 0.01 C 0.366 0.009 0.366 0.008 0.369 0.004 C 0.372 0.001 0.348 0 0.186 0 L 0 0 L 0 0.5 Z  M 0.343 0.036 C 0.343 0.038 0.342 0.039 0.34 0.039 C 0.337 0.038 0.336 0.036 0.338 0.033 C 0.339 0.03 0.342 0.032 0.343 0.036 Z  M 0.511 0.07 C 0.512 0.075 0.512 0.076 0.509 0.074 C 0.507 0.073 0.506 0.074 0.506 0.077 C 0.506 0.081 0.506 0.081 0.501 0.077 C 0.494 0.072 0.493 0.072 0.495 0.076 C 0.495 0.078 0.495 0.079 0.494 0.077 C 0.491 0.074 0.492 0.068 0.497 0.065 C 0.505 0.061 0.51 0.062 0.511 0.07 Z  M 0.282 0.138 C 0.282 0.14 0.281 0.144 0.279 0.148 C 0.275 0.156 0.268 0.156 0.268 0.149 C 0.268 0.142 0.272 0.137 0.275 0.139 C 0.276 0.14 0.278 0.139 0.278 0.137 C 0.28 0.133 0.282 0.134 0.282 0.138 Z  M 0.171 0.165 C 0.171 0.17 0.172 0.174 0.172 0.175 C 0.175 0.177 0.174 0.189 0.172 0.191 C 0.168 0.194 0.166 0.189 0.166 0.173 C 0.166 0.161 0.167 0.157 0.169 0.157 C 0.17 0.157 0.171 0.16 0.171 0.165 Z  M 0.281 0.194 C 0.281 0.195 0.281 0.198 0.282 0.199 C 0.284 0.201 0.284 0.202 0.282 0.201 C 0.281 0.2 0.278 0.202 0.277 0.205 C 0.272 0.213 0.266 0.213 0.265 0.205 C 0.265 0.199 0.265 0.198 0.269 0.2 C 0.273 0.202 0.274 0.2 0.27 0.194 C 0.268 0.192 0.268 0.191 0.269 0.192 C 0.27 0.192 0.273 0.192 0.275 0.191 C 0.279 0.188 0.283 0.19 0.281 0.194 Z  M 0.246 0.207 C 0.246 0.21 0.247 0.213 0.249 0.213 C 0.252 0.213 0.251 0.215 0.247 0.223 C 0.241 0.234 0.237 0.23 0.237 0.214 C 0.237 0.21 0.238 0.207 0.239 0.207 C 0.24 0.207 0.241 0.206 0.241 0.204 C 0.241 0.199 0.245 0.201 0.246 0.207 Z  M 0.236 0.221 C 0.237 0.231 0.234 0.238 0.227 0.245 C 0.219 0.252 0.218 0.249 0.222 0.229 C 0.226 0.207 0.234 0.202 0.236 0.221 Z  M 0.2 0.241 C 0.2 0.242 0.202 0.243 0.204 0.242 C 0.214 0.236 0.209 0.265 0.198 0.272 C 0.191 0.277 0.186 0.277 0.191 0.272 C 0.192 0.27 0.192 0.268 0.191 0.266 C 0.189 0.26 0.189 0.245 0.192 0.241 C 0.194 0.237 0.199 0.237 0.2 0.241 Z  M 0.216 0.253 C 0.216 0.258 0.212 0.264 0.21 0.261 C 0.209 0.26 0.209 0.258 0.211 0.254 C 0.214 0.248 0.216 0.247 0.216 0.253 Z  M 0.159 0.254 C 0.159 0.256 0.159 0.258 0.16 0.259 C 0.161 0.26 0.159 0.274 0.156 0.278 C 0.152 0.283 0.152 0.299 0.155 0.298 C 0.157 0.297 0.158 0.298 0.158 0.299 C 0.158 0.301 0.157 0.302 0.155 0.302 C 0.151 0.302 0.143 0.316 0.143 0.321 C 0.143 0.323 0.141 0.324 0.139 0.325 C 0.132 0.327 0.137 0.296 0.145 0.287 C 0.146 0.286 0.147 0.283 0.147 0.281 C 0.147 0.276 0.15 0.267 0.154 0.258 C 0.157 0.252 0.161 0.249 0.159 0.254 Z  M 0.176 0.265 C 0.176 0.267 0.178 0.268 0.181 0.268 C 0.187 0.268 0.187 0.27 0.184 0.28 C 0.182 0.285 0.182 0.286 0.182 0.282 C 0.182 0.279 0.181 0.277 0.18 0.278 C 0.179 0.279 0.179 0.281 0.18 0.283 C 0.18 0.284 0.179 0.284 0.178 0.284 C 0.177 0.283 0.176 0.283 0.176 0.285 C 0.176 0.288 0.163 0.298 0.162 0.296 C 0.161 0.294 0.163 0.285 0.165 0.285 C 0.166 0.285 0.166 0.282 0.166 0.278 C 0.166 0.269 0.17 0.261 0.173 0.261 C 0.174 0.261 0.176 0.263 0.176 0.265 Z  M 0.112 0.405 C 0.11 0.419 0.108 0.423 0.104 0.427 C 0.098 0.433 0.089 0.45 0.091 0.454 C 0.093 0.458 0.093 0.46 0.088 0.47 C 0.086 0.475 0.083 0.483 0.081 0.488 C 0.077 0.505 0.062 0.51 0.057 0.497 C 0.056 0.492 0.056 0.49 0.059 0.486 C 0.061 0.483 0.063 0.48 0.062 0.478 C 0.06 0.473 0.065 0.452 0.068 0.451 C 0.069 0.45 0.071 0.448 0.071 0.445 C 0.071 0.443 0.072 0.441 0.073 0.44 C 0.074 0.439 0.075 0.437 0.074 0.436 C 0.074 0.434 0.074 0.433 0.075 0.433 C 0.076 0.433 0.078 0.43 0.08 0.427 C 0.082 0.423 0.087 0.419 0.09 0.417 C 0.098 0.412 0.108 0.4 0.109 0.393 C 0.112 0.379 0.114 0.389 0.112 0.405 Z  M 0.065 0.413 C 0.065 0.415 0.065 0.417 0.066 0.418 C 0.067 0.419 0.067 0.421 0.066 0.425 C 0.064 0.431 0.054 0.432 0.055 0.426 C 0.056 0.425 0.057 0.424 0.058 0.424 C 0.059 0.425 0.06 0.422 0.06 0.419 C 0.06 0.417 0.061 0.414 0.062 0.413 C 0.064 0.412 0.065 0.411 0.066 0.411 C 0.066 0.411 0.066 0.412 0.065 0.413 Z  M 0.764 0.477 C 0.767 0.482 0.767 0.486 0.765 0.486 C 0.764 0.486 0.763 0.489 0.763 0.492 C 0.763 0.495 0.762 0.497 0.761 0.497 C 0.758 0.497 0.758 0.5 0.761 0.505 C 0.763 0.508 0.763 0.51 0.762 0.511 C 0.76 0.512 0.749 0.494 0.749 0.489 C 0.749 0.488 0.751 0.486 0.752 0.485 C 0.754 0.484 0.756 0.481 0.757 0.478 C 0.759 0.471 0.761 0.471 0.764 0.477 Z  M 0.354 0.76 C 0.356 0.764 0.355 0.765 0.351 0.766 C 0.347 0.767 0.346 0.766 0.35 0.758 C 0.352 0.753 0.352 0.753 0.354 0.76 Z  M 0.419 0.856 C 0.418 0.862 0.414 0.863 0.414 0.857 C 0.414 0.854 0.416 0.852 0.417 0.852 C 0.419 0.852 0.42 0.853 0.419 0.856 Z  M 0.413 0.953 C 0.413 0.968 0.413 0.969 0.41 0.969 C 0.4 0.969 0.384 0.955 0.391 0.951 C 0.392 0.951 0.394 0.949 0.396 0.948 C 0.397 0.947 0.4 0.946 0.4 0.947 C 0.401 0.947 0.401 0.946 0.4 0.944 C 0.397 0.937 0.398 0.936 0.406 0.937 L 0.413 0.937 L 0.413 0.953 Z " fill-rule="evenodd" fill="rgb(0,0,0)"/></g></g></svg>