<?xml version="1.0" encoding="UTF-8" standalone="no"?><!-- Generator: Gravit.io --><svg xmlns="http://www.w3.org/2000/svg" xmlns:xlink="http://www.w3.org/1999/xlink" style="isolation:isolate" viewBox="0 0 1 1" width="1pt" height="1pt"><defs><clipPath id="_clipPath_jmcxkpDZWamcrSj3fCRD5MoyLudoKXEW"><rect width="1" height="1"/></clipPath></defs><g clip-path="url(#_clipPath_jmcxkpDZWamcrSj3fCRD5MoyLudoKXEW)"><g><path d=" M 0 0.5 L 0 1 L 0.203 1 C 0.314 1 0.404 0.999 0.403 0.998 C 0.398 0.994 0.398 0.975 0.403 0.975 C 0.406 0.975 0.413 0.991 0.412 0.996 C 0.411 1 0.446 1 0.705 1 L 1 1 L 1 0.5 L 1 0 L 0.5 0 L 0 0 L 0 0.5 Z  M 0.403 0.012 C 0.406 0.017 0.409 0.028 0.408 0.03 C 0.407 0.033 0.4 0.019 0.4 0.013 C 0.4 0.007 0.401 0.007 0.403 0.012 Z  M 0.4 0.022 C 0.401 0.024 0.4 0.025 0.399 0.025 C 0.398 0.025 0.395 0.029 0.394 0.034 C 0.391 0.043 0.383 0.045 0.381 0.037 C 0.381 0.034 0.381 0.033 0.383 0.035 C 0.385 0.036 0.387 0.035 0.388 0.031 C 0.392 0.022 0.399 0.017 0.4 0.022 Z  M 0.171 0.166 C 0.171 0.171 0.17 0.173 0.168 0.173 C 0.166 0.173 0.165 0.162 0.167 0.158 C 0.169 0.155 0.171 0.159 0.171 0.166 Z  M 0.174 0.184 C 0.173 0.186 0.172 0.189 0.17 0.189 C 0.168 0.189 0.167 0.186 0.166 0.184 C 0.166 0.18 0.167 0.179 0.17 0.179 C 0.173 0.179 0.174 0.18 0.174 0.184 Z  M 0.283 0.196 C 0.283 0.198 0.281 0.2 0.279 0.201 C 0.277 0.201 0.276 0.202 0.276 0.204 C 0.276 0.207 0.269 0.212 0.267 0.21 C 0.265 0.206 0.266 0.198 0.269 0.201 C 0.271 0.205 0.278 0.2 0.277 0.195 C 0.276 0.194 0.278 0.193 0.28 0.193 C 0.282 0.193 0.284 0.194 0.283 0.196 Z  M 0.248 0.218 C 0.248 0.226 0.24 0.231 0.237 0.225 C 0.236 0.222 0.235 0.221 0.233 0.222 C 0.232 0.224 0.232 0.225 0.234 0.226 C 0.235 0.228 0.235 0.23 0.233 0.235 C 0.23 0.243 0.222 0.251 0.22 0.248 C 0.218 0.245 0.221 0.226 0.224 0.224 C 0.225 0.223 0.227 0.22 0.227 0.216 C 0.229 0.21 0.229 0.21 0.232 0.212 C 0.237 0.217 0.238 0.216 0.24 0.208 L 0.242 0.201 L 0.245 0.207 C 0.246 0.21 0.248 0.215 0.248 0.218 Z  M 0.205 0.242 C 0.215 0.245 0.204 0.274 0.194 0.274 C 0.192 0.274 0.192 0.272 0.192 0.27 C 0.193 0.268 0.192 0.265 0.191 0.264 C 0.186 0.258 0.191 0.236 0.197 0.239 C 0.2 0.24 0.203 0.241 0.205 0.242 Z  M 0.158 0.271 C 0.156 0.277 0.154 0.284 0.153 0.289 C 0.152 0.299 0.143 0.318 0.137 0.323 C 0.133 0.326 0.133 0.326 0.134 0.32 C 0.135 0.313 0.143 0.29 0.144 0.288 C 0.145 0.287 0.147 0.281 0.148 0.275 C 0.152 0.26 0.157 0.253 0.16 0.258 C 0.162 0.262 0.161 0.264 0.158 0.271 Z  M 0.176 0.264 C 0.176 0.266 0.177 0.268 0.178 0.268 C 0.179 0.268 0.18 0.271 0.18 0.274 C 0.18 0.279 0.181 0.28 0.182 0.277 C 0.183 0.274 0.184 0.273 0.184 0.275 C 0.186 0.277 0.182 0.282 0.178 0.282 C 0.177 0.282 0.176 0.283 0.176 0.284 C 0.176 0.286 0.173 0.289 0.169 0.291 C 0.163 0.295 0.163 0.295 0.163 0.29 C 0.163 0.287 0.164 0.285 0.165 0.285 C 0.165 0.285 0.166 0.282 0.166 0.28 C 0.166 0.269 0.169 0.26 0.172 0.26 C 0.174 0.26 0.176 0.262 0.176 0.264 Z  M 0.103 0.428 C 0.099 0.437 0.095 0.444 0.094 0.445 C 0.09 0.447 0.09 0.455 0.093 0.455 C 0.097 0.455 0.096 0.461 0.089 0.473 C 0.085 0.48 0.081 0.488 0.079 0.493 C 0.078 0.498 0.076 0.5 0.074 0.499 C 0.073 0.498 0.071 0.498 0.07 0.5 C 0.069 0.501 0.067 0.502 0.066 0.502 C 0.058 0.499 0.055 0.49 0.062 0.486 C 0.064 0.484 0.065 0.482 0.065 0.471 C 0.065 0.46 0.066 0.457 0.068 0.454 C 0.073 0.449 0.075 0.443 0.073 0.441 C 0.072 0.44 0.072 0.439 0.072 0.439 C 0.073 0.439 0.074 0.439 0.074 0.439 C 0.075 0.439 0.077 0.435 0.08 0.43 C 0.085 0.421 0.091 0.413 0.095 0.413 C 0.096 0.413 0.099 0.41 0.103 0.405 L 0.109 0.396 L 0.109 0.405 C 0.11 0.411 0.108 0.417 0.103 0.428 Z  M 0.065 0.418 C 0.066 0.424 0.063 0.428 0.06 0.424 C 0.058 0.422 0.058 0.42 0.06 0.417 C 0.062 0.412 0.064 0.412 0.065 0.418 Z  M 0.759 0.487 C 0.759 0.49 0.758 0.491 0.757 0.49 C 0.756 0.489 0.755 0.491 0.755 0.493 C 0.755 0.496 0.755 0.497 0.754 0.497 C 0.75 0.495 0.751 0.49 0.754 0.487 C 0.759 0.482 0.76 0.483 0.759 0.487 Z  M 0.354 0.766 C 0.351 0.772 0.346 0.767 0.349 0.76 C 0.351 0.754 0.352 0.754 0.354 0.759 C 0.355 0.762 0.355 0.765 0.354 0.766 Z  M 0.408 0.938 C 0.41 0.942 0.411 0.969 0.408 0.969 C 0.404 0.969 0.39 0.96 0.39 0.956 C 0.39 0.954 0.393 0.951 0.397 0.95 C 0.402 0.947 0.403 0.946 0.401 0.944 C 0.399 0.942 0.398 0.94 0.398 0.938 C 0.398 0.935 0.404 0.935 0.408 0.938 Z " fill-rule="evenodd" fill="rgb(0,0,0)"/></g></g></svg>