<?xml version="1.0" encoding="UTF-8" standalone="no"?><!-- Generator: Gravit.io --><svg xmlns="http://www.w3.org/2000/svg" xmlns:xlink="http://www.w3.org/1999/xlink" style="isolation:isolate" viewBox="0 0 1 1" width="1pt" height="1pt"><defs><clipPath id="_clipPath_Qn1iO79zGNNy7zZJi8v3VPTBK92FB5nw"><rect width="1" height="1"/></clipPath></defs><g clip-path="url(#_clipPath_Qn1iO79zGNNy7zZJi8v3VPTBK92FB5nw)"><g><path d=" M 0 0.5 L 0 1 L 0.202 1 L 0.405 1 L 0.401 0.993 C 0.398 0.986 0.398 0.986 0.4 0.981 C 0.404 0.975 0.408 0.981 0.408 0.993 L 0.408 1 L 0.704 1 L 1 1 L 1 0.5 L 1 0 L 0.5 0 L 0 0 L 0 0.5 Z  M 0.171 0.165 C 0.171 0.168 0.17 0.17 0.168 0.17 C 0.167 0.17 0.166 0.168 0.166 0.165 C 0.166 0.162 0.167 0.159 0.168 0.159 C 0.17 0.159 0.171 0.162 0.171 0.165 Z  M 0.173 0.182 C 0.174 0.183 0.174 0.186 0.173 0.187 C 0.171 0.191 0.166 0.188 0.166 0.183 C 0.166 0.178 0.172 0.177 0.173 0.182 Z  M 0.281 0.189 C 0.284 0.191 0.283 0.198 0.28 0.198 C 0.276 0.198 0.273 0.193 0.276 0.19 C 0.279 0.187 0.278 0.187 0.281 0.189 Z  M 0.246 0.214 C 0.246 0.224 0.239 0.231 0.236 0.224 C 0.234 0.217 0.23 0.225 0.231 0.233 C 0.232 0.238 0.229 0.242 0.224 0.244 C 0.219 0.245 0.219 0.245 0.22 0.237 C 0.222 0.225 0.222 0.223 0.225 0.223 C 0.226 0.223 0.227 0.221 0.228 0.219 C 0.228 0.215 0.23 0.214 0.234 0.214 C 0.238 0.214 0.239 0.213 0.24 0.206 C 0.24 0.196 0.246 0.203 0.246 0.214 Z  M 0.27 0.204 C 0.27 0.207 0.269 0.209 0.268 0.209 C 0.266 0.209 0.265 0.202 0.266 0.2 C 0.268 0.197 0.27 0.198 0.27 0.204 Z  M 0.2 0.24 C 0.2 0.242 0.203 0.243 0.205 0.243 C 0.21 0.243 0.21 0.252 0.204 0.263 C 0.197 0.276 0.19 0.271 0.19 0.253 C 0.19 0.241 0.197 0.232 0.2 0.24 Z  M 0.16 0.261 C 0.16 0.264 0.158 0.271 0.156 0.277 C 0.154 0.282 0.152 0.288 0.152 0.29 C 0.152 0.299 0.14 0.321 0.136 0.317 C 0.135 0.315 0.142 0.288 0.144 0.288 C 0.145 0.288 0.146 0.282 0.148 0.276 C 0.153 0.257 0.162 0.246 0.16 0.261 Z  M 0.176 0.266 C 0.176 0.267 0.177 0.268 0.178 0.268 C 0.184 0.268 0.177 0.283 0.17 0.288 C 0.165 0.291 0.161 0.289 0.164 0.285 C 0.165 0.284 0.166 0.28 0.167 0.275 C 0.169 0.262 0.176 0.255 0.176 0.266 Z  M 0.108 0.41 C 0.108 0.413 0.107 0.417 0.105 0.42 C 0.104 0.423 0.102 0.429 0.101 0.432 C 0.101 0.436 0.098 0.442 0.096 0.445 C 0.092 0.452 0.092 0.452 0.095 0.454 C 0.1 0.457 0.099 0.462 0.092 0.469 C 0.089 0.473 0.084 0.481 0.082 0.486 C 0.079 0.493 0.076 0.497 0.073 0.497 C 0.071 0.497 0.068 0.497 0.066 0.499 C 0.061 0.502 0.057 0.492 0.062 0.487 C 0.066 0.483 0.066 0.482 0.065 0.473 C 0.064 0.46 0.065 0.453 0.07 0.453 C 0.073 0.453 0.077 0.447 0.077 0.441 C 0.078 0.431 0.083 0.423 0.092 0.415 C 0.097 0.411 0.102 0.407 0.103 0.405 C 0.106 0.402 0.107 0.403 0.108 0.41 Z  M 0.064 0.42 C 0.064 0.424 0.064 0.424 0.061 0.422 C 0.059 0.42 0.058 0.418 0.058 0.418 C 0.058 0.417 0.059 0.416 0.061 0.416 C 0.063 0.416 0.064 0.418 0.064 0.42 Z  M 0.354 0.763 C 0.356 0.767 0.355 0.769 0.354 0.77 C 0.349 0.773 0.347 0.77 0.348 0.763 C 0.35 0.755 0.351 0.755 0.354 0.763 Z  M 0.405 0.952 C 0.406 0.968 0.405 0.969 0.394 0.961 L 0.389 0.958 L 0.395 0.953 C 0.4 0.948 0.404 0.948 0.405 0.952 Z " fill-rule="evenodd" fill="rgb(0,0,0)"/></g></g></svg>