<?xml version="1.0" encoding="UTF-8" standalone="no"?><!-- Generator: Gravit.io --><svg xmlns="http://www.w3.org/2000/svg" xmlns:xlink="http://www.w3.org/1999/xlink" style="isolation:isolate" viewBox="0 0 1 1" width="1pt" height="1pt"><defs><clipPath id="_clipPath_6glXUf6gUw0x0xMZwYizUOJavhoZaicC"><rect width="1" height="1"/></clipPath></defs><g clip-path="url(#_clipPath_6glXUf6gUw0x0xMZwYizUOJavhoZaicC)"><g><path d=" M 0 0.5 L 0 1 L 0.5 1 L 1 1 L 1 0.5 L 1 0 L 0.5 0 L 0 0 L 0 0.5 Z  M 0.171 0.165 C 0.171 0.168 0.17 0.17 0.168 0.17 C 0.166 0.17 0.165 0.162 0.167 0.158 C 0.169 0.155 0.171 0.159 0.171 0.165 Z  M 0.282 0.19 C 0.282 0.194 0.277 0.198 0.274 0.195 C 0.272 0.193 0.272 0.192 0.274 0.19 C 0.277 0.186 0.282 0.186 0.282 0.19 Z  M 0.27 0.205 C 0.27 0.208 0.269 0.209 0.268 0.209 C 0.267 0.209 0.266 0.208 0.266 0.205 C 0.265 0.203 0.266 0.201 0.267 0.201 C 0.269 0.201 0.27 0.203 0.27 0.205 Z  M 0.246 0.214 C 0.246 0.219 0.24 0.227 0.238 0.225 C 0.236 0.223 0.236 0.215 0.238 0.215 C 0.239 0.215 0.24 0.212 0.24 0.209 C 0.241 0.203 0.246 0.206 0.246 0.214 Z  M 0.231 0.23 C 0.23 0.238 0.223 0.247 0.22 0.242 C 0.218 0.239 0.223 0.225 0.226 0.225 C 0.227 0.225 0.229 0.224 0.23 0.223 C 0.232 0.22 0.232 0.22 0.231 0.23 Z  M 0.201 0.242 C 0.203 0.244 0.205 0.245 0.206 0.244 C 0.208 0.243 0.208 0.244 0.208 0.248 C 0.208 0.261 0.195 0.275 0.192 0.265 C 0.186 0.249 0.193 0.231 0.201 0.242 Z  M 0.157 0.275 C 0.154 0.282 0.152 0.288 0.152 0.29 C 0.152 0.291 0.149 0.297 0.146 0.304 C 0.139 0.317 0.135 0.319 0.136 0.31 C 0.136 0.307 0.137 0.304 0.138 0.304 C 0.139 0.304 0.139 0.303 0.139 0.3 C 0.139 0.298 0.141 0.294 0.143 0.291 C 0.144 0.289 0.146 0.285 0.146 0.282 C 0.146 0.274 0.157 0.253 0.159 0.258 C 0.162 0.262 0.161 0.263 0.157 0.275 Z  M 0.176 0.268 L 0.18 0.273 L 0.177 0.279 C 0.175 0.282 0.171 0.285 0.17 0.285 C 0.168 0.285 0.166 0.286 0.166 0.288 C 0.166 0.289 0.165 0.291 0.164 0.291 C 0.163 0.291 0.163 0.29 0.164 0.287 C 0.165 0.285 0.166 0.281 0.166 0.279 C 0.166 0.264 0.17 0.26 0.176 0.268 Z  M 0.105 0.41 C 0.105 0.413 0.104 0.417 0.102 0.42 C 0.1 0.423 0.099 0.427 0.1 0.43 C 0.1 0.432 0.099 0.436 0.098 0.439 C 0.096 0.444 0.085 0.448 0.085 0.444 C 0.085 0.443 0.084 0.442 0.083 0.442 C 0.082 0.442 0.08 0.441 0.08 0.438 C 0.077 0.432 0.081 0.426 0.093 0.414 C 0.104 0.404 0.105 0.403 0.105 0.41 Z  M 0.099 0.457 C 0.1 0.46 0.1 0.462 0.094 0.468 C 0.09 0.472 0.085 0.48 0.082 0.485 C 0.079 0.491 0.075 0.494 0.074 0.493 C 0.073 0.492 0.07 0.493 0.068 0.494 C 0.063 0.498 0.059 0.493 0.064 0.487 C 0.067 0.482 0.067 0.48 0.066 0.469 C 0.065 0.456 0.065 0.456 0.071 0.453 C 0.077 0.449 0.096 0.452 0.099 0.457 Z  M 0.354 0.771 C 0.353 0.773 0.351 0.772 0.35 0.769 C 0.347 0.762 0.349 0.759 0.353 0.764 C 0.355 0.768 0.355 0.77 0.354 0.771 Z  M 0.404 0.985 C 0.405 0.987 0.406 0.99 0.405 0.991 C 0.404 0.996 0.4 0.995 0.399 0.989 C 0.398 0.98 0.401 0.977 0.404 0.985 Z " fill-rule="evenodd" fill="rgb(0,0,0)"/></g></g></svg>