<?xml version="1.0" encoding="UTF-8" standalone="no"?><!-- Generator: Gravit.io --><svg xmlns="http://www.w3.org/2000/svg" xmlns:xlink="http://www.w3.org/1999/xlink" style="isolation:isolate" viewBox="0 0 1 1" width="1pt" height="1pt"><defs><clipPath id="_clipPath_Li5DbnMiXFYRFsFH32oeTjQoNq7jcS2T"><rect width="1" height="1"/></clipPath></defs><g clip-path="url(#_clipPath_Li5DbnMiXFYRFsFH32oeTjQoNq7jcS2T)"><g><mask id="_mask_eaONCs2oNYMZjDkjFz2kMhHyixTbLgvG" x="-200%" y="-200%" width="400%" height="400%"><rect x="-200%" y="-200%" width="400%" height="400%" style="fill:white;"/><path d=" M 0 0 L 1 0 L 1 1 L 0 1 L 0 0 Z " fill="black" stroke="none"/></mask><path d=" M 0 0 L 1 0 L 1 1 L 0 1 L 0 0 Z " fill="rgb(0,0,0)"/><path d=" M 0 0 L 1 0 L 1 1 L 0 1 L 0 0 Z " fill="rgb(0,0,0)" mask="url(#_mask_eaONCs2oNYMZjDkjFz2kMhHyixTbLgvG)" vector-effect="non-scaling-stroke" stroke-width="0.001" stroke="rgb(0,0,0)" stroke-linejoin="miter" stroke-linecap="butt" stroke-miterlimit="4"/><path d=" M 0.464 0.408 C 0.444 0.413 0.436 0.42 0.414 0.452 C 0.405 0.464 0.403 0.47 0.401 0.478 C 0.401 0.485 0.397 0.496 0.394 0.504 C 0.388 0.518 0.386 0.528 0.389 0.528 C 0.39 0.528 0.391 0.532 0.392 0.537 C 0.394 0.544 0.396 0.547 0.399 0.549 C 0.402 0.55 0.403 0.552 0.403 0.557 C 0.403 0.566 0.41 0.586 0.414 0.586 C 0.417 0.586 0.42 0.595 0.418 0.6 C 0.414 0.611 0.444 0.642 0.46 0.642 C 0.464 0.642 0.467 0.644 0.469 0.649 C 0.474 0.657 0.477 0.657 0.481 0.648 C 0.484 0.642 0.485 0.641 0.495 0.64 C 0.504 0.639 0.507 0.638 0.512 0.632 C 0.515 0.628 0.52 0.624 0.523 0.623 C 0.531 0.621 0.532 0.62 0.53 0.613 C 0.53 0.61 0.53 0.608 0.53 0.609 C 0.531 0.61 0.533 0.608 0.535 0.605 C 0.536 0.602 0.539 0.6 0.54 0.6 C 0.545 0.6 0.547 0.593 0.546 0.585 C 0.545 0.577 0.547 0.574 0.552 0.571 C 0.558 0.568 0.56 0.561 0.557 0.544 C 0.554 0.52 0.552 0.503 0.552 0.495 C 0.552 0.49 0.55 0.483 0.547 0.478 C 0.544 0.473 0.542 0.467 0.542 0.466 C 0.542 0.464 0.54 0.46 0.527 0.439 C 0.516 0.419 0.483 0.404 0.464 0.408 Z " fill-rule="evenodd" fill="rgb(0,0,0)"/></g></g></svg>