<?xml version="1.0" encoding="UTF-8" standalone="no"?><!-- Generator: Gravit.io --><svg xmlns="http://www.w3.org/2000/svg" xmlns:xlink="http://www.w3.org/1999/xlink" style="isolation:isolate" viewBox="0 0 1 1" width="1pt" height="1pt"><defs><clipPath id="_clipPath_BZLUsTUupiaxtUHvvyxefBFccYOUDSuT"><rect width="1" height="1"/></clipPath></defs><g clip-path="url(#_clipPath_BZLUsTUupiaxtUHvvyxefBFccYOUDSuT)"><g><path d=" M 0 0 L 1 0 L 1 1 L 0 1 L 0 0 Z " fill="rgb(0,0,0)"/><path d=" M 0.463 0.382 C 0.454 0.385 0.429 0.402 0.426 0.407 C 0.423 0.411 0.414 0.423 0.406 0.435 C 0.393 0.454 0.391 0.457 0.389 0.47 C 0.388 0.478 0.384 0.492 0.38 0.503 C 0.371 0.523 0.37 0.528 0.374 0.534 C 0.376 0.536 0.378 0.542 0.379 0.547 C 0.381 0.553 0.383 0.556 0.386 0.557 C 0.389 0.559 0.391 0.561 0.39 0.564 C 0.39 0.568 0.393 0.584 0.395 0.586 C 0.396 0.587 0.397 0.591 0.398 0.595 C 0.399 0.601 0.401 0.603 0.404 0.603 C 0.408 0.603 0.412 0.611 0.41 0.62 C 0.409 0.624 0.411 0.628 0.416 0.637 C 0.42 0.643 0.423 0.65 0.423 0.651 C 0.423 0.654 0.435 0.664 0.439 0.664 C 0.439 0.664 0.442 0.666 0.445 0.668 C 0.447 0.67 0.454 0.673 0.46 0.674 C 0.469 0.676 0.471 0.677 0.475 0.684 C 0.48 0.694 0.483 0.694 0.489 0.682 C 0.493 0.672 0.493 0.672 0.5 0.673 C 0.504 0.674 0.51 0.674 0.512 0.672 C 0.514 0.671 0.518 0.669 0.52 0.668 C 0.523 0.667 0.527 0.663 0.529 0.659 C 0.532 0.654 0.536 0.651 0.542 0.651 C 0.55 0.649 0.551 0.648 0.55 0.637 C 0.55 0.635 0.551 0.633 0.552 0.633 C 0.553 0.633 0.555 0.631 0.556 0.628 C 0.557 0.625 0.56 0.622 0.563 0.621 C 0.569 0.619 0.572 0.611 0.57 0.601 C 0.569 0.594 0.57 0.591 0.576 0.586 C 0.584 0.581 0.587 0.571 0.585 0.56 C 0.583 0.55 0.579 0.519 0.576 0.492 C 0.575 0.48 0.574 0.474 0.571 0.471 C 0.569 0.469 0.567 0.462 0.565 0.457 C 0.561 0.443 0.54 0.41 0.531 0.404 C 0.497 0.382 0.48 0.377 0.463 0.382 Z  M 0.002 0.698 C 0.001 0.705 0.001 0.722 0.002 0.72 C 0.002 0.719 0.003 0.713 0.003 0.706 C 0.004 0.695 0.004 0.691 0.002 0.698 Z  M 0.062 0.717 C 0.064 0.72 0.064 0.72 0.066 0.717 C 0.067 0.715 0.067 0.714 0.064 0.714 C 0.061 0.714 0.061 0.715 0.062 0.717 Z  M 0.043 0.732 C 0.039 0.739 0.039 0.739 0.039 0.735 C 0.039 0.73 0.039 0.73 0.038 0.733 C 0.036 0.739 0.036 0.75 0.038 0.75 C 0.038 0.75 0.039 0.756 0.039 0.763 C 0.039 0.773 0.039 0.775 0.036 0.775 C 0.031 0.775 0.025 0.782 0.025 0.788 C 0.025 0.793 0.024 0.795 0.021 0.796 C 0.018 0.797 0.014 0.8 0.011 0.803 L 0.006 0.808 L 0.006 0.797 C 0.006 0.789 0.007 0.785 0.01 0.781 C 0.012 0.778 0.014 0.772 0.015 0.764 C 0.016 0.752 0.015 0.752 0.013 0.757 C 0.012 0.76 0.011 0.763 0.011 0.764 C 0.011 0.766 0.009 0.767 0.008 0.767 C 0.005 0.767 0.004 0.765 0.005 0.76 C 0.006 0.754 0.005 0.753 0.004 0.756 C 0.002 0.758 0.002 0.781 0.002 0.878 L 0.002 0.997 L 0.103 0.997 C 0.199 0.997 0.204 0.997 0.201 0.992 C 0.2 0.99 0.196 0.988 0.193 0.988 C 0.189 0.988 0.188 0.987 0.188 0.977 C 0.189 0.969 0.188 0.967 0.186 0.966 C 0.185 0.966 0.182 0.966 0.18 0.965 C 0.178 0.965 0.175 0.966 0.174 0.967 C 0.173 0.969 0.172 0.969 0.172 0.968 C 0.172 0.967 0.171 0.968 0.169 0.971 C 0.167 0.975 0.161 0.977 0.161 0.973 C 0.161 0.971 0.162 0.969 0.163 0.967 C 0.164 0.965 0.166 0.961 0.166 0.958 C 0.167 0.953 0.167 0.953 0.165 0.956 C 0.163 0.959 0.162 0.958 0.161 0.953 C 0.161 0.948 0.16 0.948 0.155 0.957 C 0.146 0.973 0.134 0.978 0.142 0.963 C 0.144 0.959 0.145 0.954 0.145 0.951 C 0.145 0.945 0.147 0.94 0.15 0.938 C 0.154 0.935 0.148 0.936 0.143 0.939 C 0.138 0.941 0.138 0.941 0.14 0.933 C 0.141 0.929 0.142 0.925 0.143 0.925 C 0.146 0.925 0.15 0.916 0.149 0.912 C 0.148 0.91 0.149 0.908 0.15 0.908 C 0.152 0.908 0.153 0.895 0.15 0.891 C 0.148 0.888 0.148 0.882 0.151 0.872 C 0.151 0.869 0.151 0.867 0.149 0.865 C 0.147 0.864 0.145 0.862 0.145 0.86 C 0.145 0.853 0.142 0.852 0.139 0.857 C 0.137 0.861 0.136 0.863 0.137 0.865 C 0.139 0.868 0.14 0.883 0.138 0.883 C 0.136 0.883 0.128 0.87 0.128 0.867 C 0.128 0.865 0.126 0.864 0.124 0.864 C 0.122 0.864 0.12 0.865 0.12 0.866 C 0.12 0.87 0.109 0.889 0.107 0.889 C 0.104 0.889 0.102 0.88 0.104 0.878 C 0.105 0.878 0.106 0.875 0.106 0.872 C 0.106 0.866 0.111 0.859 0.118 0.855 L 0.123 0.853 L 0.121 0.843 C 0.116 0.826 0.127 0.815 0.134 0.829 C 0.137 0.835 0.139 0.836 0.144 0.834 C 0.151 0.832 0.151 0.832 0.147 0.826 C 0.145 0.823 0.144 0.819 0.144 0.817 C 0.144 0.815 0.143 0.814 0.141 0.815 C 0.138 0.817 0.132 0.807 0.133 0.8 C 0.133 0.795 0.133 0.793 0.13 0.792 C 0.128 0.792 0.127 0.79 0.127 0.787 C 0.127 0.785 0.125 0.781 0.122 0.779 C 0.12 0.776 0.117 0.769 0.115 0.763 C 0.112 0.757 0.11 0.753 0.108 0.753 C 0.106 0.753 0.104 0.751 0.103 0.748 C 0.102 0.744 0.1 0.744 0.092 0.745 C 0.081 0.747 0.079 0.744 0.084 0.737 C 0.086 0.733 0.086 0.733 0.081 0.735 C 0.078 0.735 0.075 0.738 0.074 0.74 C 0.071 0.745 0.062 0.742 0.061 0.736 C 0.06 0.729 0.056 0.727 0.053 0.732 C 0.05 0.737 0.05 0.737 0.047 0.73 C 0.046 0.725 0.046 0.726 0.043 0.732 Z  M 0.12 0.786 C 0.12 0.79 0.116 0.795 0.114 0.793 C 0.113 0.792 0.113 0.79 0.114 0.787 C 0.116 0.783 0.12 0.782 0.12 0.786 Z  M 0.162 0.874 C 0.159 0.876 0.158 0.883 0.161 0.883 C 0.163 0.883 0.167 0.877 0.167 0.874 C 0.167 0.872 0.166 0.872 0.162 0.874 Z " fill-rule="evenodd" fill="rgb(0,0,0)"/></g></g></svg>