<?xml version="1.0" encoding="UTF-8" standalone="no"?><!-- Generator: Gravit.io --><svg xmlns="http://www.w3.org/2000/svg" xmlns:xlink="http://www.w3.org/1999/xlink" style="isolation:isolate" viewBox="0 0 1 1" width="1pt" height="1pt"><defs><clipPath id="_clipPath_Hc94p25g7ge9Lzt1BOoM7aH2eHHv40yQ"><rect width="1" height="1"/></clipPath></defs><g clip-path="url(#_clipPath_Hc94p25g7ge9Lzt1BOoM7aH2eHHv40yQ)"><g><path d=" M 0 0 L 1 0 L 1 1 L 0 1 L 0 0 Z " fill="rgb(0,0,0)"/><path d=" M 0.482 0.344 C 0.48 0.346 0.475 0.346 0.472 0.345 C 0.468 0.344 0.464 0.345 0.461 0.348 C 0.456 0.351 0.437 0.362 0.429 0.365 C 0.426 0.367 0.419 0.376 0.417 0.383 C 0.416 0.385 0.415 0.386 0.413 0.386 C 0.412 0.386 0.41 0.389 0.407 0.392 C 0.405 0.396 0.397 0.408 0.389 0.42 L 0.374 0.442 L 0.371 0.463 C 0.369 0.476 0.368 0.483 0.366 0.483 C 0.365 0.483 0.364 0.485 0.364 0.486 C 0.364 0.487 0.361 0.497 0.356 0.507 C 0.348 0.526 0.348 0.53 0.353 0.54 C 0.355 0.542 0.356 0.547 0.356 0.55 C 0.356 0.553 0.357 0.556 0.358 0.556 C 0.359 0.556 0.359 0.558 0.359 0.561 C 0.359 0.566 0.365 0.572 0.371 0.572 C 0.373 0.572 0.374 0.573 0.373 0.579 C 0.372 0.583 0.373 0.587 0.374 0.59 C 0.376 0.593 0.377 0.595 0.376 0.596 C 0.376 0.597 0.376 0.6 0.377 0.602 C 0.379 0.605 0.38 0.608 0.38 0.609 C 0.38 0.617 0.386 0.629 0.39 0.63 C 0.397 0.631 0.401 0.641 0.399 0.651 C 0.398 0.659 0.402 0.672 0.405 0.672 C 0.407 0.672 0.416 0.689 0.416 0.692 C 0.416 0.696 0.431 0.708 0.435 0.708 C 0.437 0.708 0.44 0.71 0.442 0.713 C 0.444 0.715 0.451 0.718 0.457 0.72 C 0.464 0.721 0.472 0.723 0.474 0.724 C 0.477 0.725 0.48 0.728 0.482 0.733 C 0.487 0.748 0.493 0.747 0.5 0.73 C 0.505 0.719 0.51 0.716 0.517 0.72 C 0.522 0.722 0.524 0.722 0.53 0.718 C 0.533 0.716 0.537 0.714 0.538 0.715 C 0.539 0.717 0.546 0.711 0.554 0.7 C 0.559 0.693 0.561 0.692 0.569 0.692 C 0.579 0.692 0.581 0.687 0.579 0.675 C 0.578 0.671 0.579 0.669 0.581 0.669 C 0.583 0.669 0.584 0.668 0.584 0.665 C 0.584 0.66 0.59 0.654 0.597 0.653 C 0.603 0.652 0.605 0.646 0.605 0.629 L 0.605 0.613 L 0.612 0.608 C 0.625 0.6 0.627 0.589 0.623 0.567 C 0.621 0.56 0.619 0.545 0.618 0.533 C 0.615 0.513 0.611 0.47 0.611 0.466 C 0.611 0.465 0.609 0.462 0.607 0.461 C 0.605 0.459 0.602 0.451 0.599 0.443 C 0.597 0.435 0.592 0.423 0.587 0.416 C 0.583 0.41 0.575 0.398 0.571 0.391 C 0.556 0.367 0.497 0.336 0.482 0.344 Z  M 0.002 0.833 L 0.002 0.997 L 0.114 0.997 C 0.225 0.997 0.227 0.997 0.223 0.992 C 0.221 0.989 0.219 0.982 0.217 0.976 C 0.212 0.949 0.202 0.943 0.203 0.966 C 0.203 0.973 0.197 0.983 0.192 0.983 C 0.19 0.983 0.189 0.975 0.191 0.97 C 0.192 0.965 0.191 0.964 0.188 0.963 C 0.186 0.962 0.185 0.959 0.185 0.955 C 0.184 0.93 0.179 0.914 0.175 0.924 C 0.172 0.933 0.163 0.933 0.167 0.925 C 0.167 0.923 0.167 0.922 0.166 0.923 C 0.165 0.925 0.164 0.923 0.163 0.92 C 0.162 0.918 0.161 0.914 0.16 0.913 C 0.157 0.91 0.159 0.903 0.166 0.891 C 0.173 0.88 0.177 0.861 0.174 0.859 C 0.17 0.857 0.164 0.861 0.161 0.868 C 0.155 0.88 0.152 0.876 0.153 0.858 C 0.153 0.853 0.147 0.85 0.14 0.852 C 0.137 0.852 0.134 0.851 0.132 0.849 C 0.127 0.842 0.132 0.836 0.142 0.835 C 0.151 0.835 0.157 0.82 0.151 0.812 C 0.148 0.809 0.148 0.808 0.15 0.804 C 0.154 0.796 0.156 0.799 0.155 0.81 C 0.154 0.819 0.155 0.819 0.16 0.822 C 0.174 0.828 0.173 0.828 0.172 0.82 C 0.171 0.817 0.17 0.81 0.17 0.806 C 0.17 0.8 0.169 0.797 0.162 0.792 C 0.154 0.785 0.154 0.785 0.154 0.773 L 0.155 0.761 L 0.148 0.762 C 0.144 0.762 0.14 0.764 0.14 0.765 C 0.137 0.769 0.133 0.766 0.131 0.76 C 0.13 0.752 0.126 0.751 0.122 0.757 C 0.117 0.764 0.114 0.76 0.115 0.75 C 0.116 0.742 0.116 0.741 0.113 0.744 C 0.11 0.747 0.109 0.747 0.109 0.736 C 0.109 0.73 0.109 0.725 0.108 0.725 C 0.107 0.725 0.106 0.726 0.106 0.728 C 0.106 0.732 0.1 0.736 0.098 0.733 C 0.097 0.732 0.095 0.731 0.093 0.731 C 0.091 0.731 0.091 0.729 0.092 0.723 C 0.094 0.714 0.094 0.713 0.09 0.716 C 0.088 0.717 0.084 0.717 0.081 0.717 C 0.076 0.717 0.075 0.718 0.075 0.721 C 0.075 0.724 0.074 0.724 0.072 0.722 C 0.068 0.718 0.066 0.722 0.066 0.731 C 0.066 0.738 0.056 0.752 0.055 0.747 C 0.054 0.745 0.054 0.741 0.056 0.736 C 0.057 0.732 0.058 0.725 0.058 0.722 C 0.058 0.718 0.059 0.717 0.062 0.717 C 0.064 0.717 0.066 0.715 0.066 0.714 C 0.066 0.712 0.064 0.711 0.063 0.711 C 0.059 0.711 0.058 0.705 0.062 0.7 C 0.064 0.696 0.065 0.683 0.063 0.683 C 0.062 0.683 0.061 0.685 0.061 0.687 C 0.061 0.69 0.059 0.694 0.057 0.696 C 0.055 0.699 0.053 0.702 0.053 0.704 C 0.053 0.709 0.047 0.715 0.044 0.713 C 0.043 0.712 0.042 0.713 0.042 0.715 C 0.042 0.718 0.042 0.719 0.041 0.719 C 0.04 0.719 0.039 0.724 0.038 0.728 C 0.037 0.733 0.035 0.74 0.034 0.742 C 0.032 0.75 0.033 0.755 0.036 0.758 C 0.04 0.762 0.04 0.772 0.036 0.772 C 0.034 0.772 0.031 0.771 0.03 0.77 C 0.028 0.768 0.027 0.768 0.027 0.774 C 0.027 0.779 0.026 0.783 0.022 0.786 L 0.017 0.792 L 0.018 0.765 L 0.018 0.739 L 0.015 0.741 C 0.013 0.742 0.011 0.741 0.011 0.74 C 0.011 0.738 0.009 0.737 0.008 0.737 C 0.003 0.738 0.002 0.732 0.006 0.73 C 0.009 0.728 0.01 0.727 0.009 0.716 C 0.008 0.708 0.008 0.703 0.01 0.7 C 0.017 0.685 0.016 0.672 0.008 0.674 C 0.006 0.675 0.004 0.674 0.003 0.672 C 0.002 0.67 0.002 0.737 0.002 0.833 Z  M 0.096 0.708 C 0.096 0.71 0.096 0.711 0.097 0.711 C 0.099 0.711 0.1 0.71 0.101 0.708 C 0.101 0.707 0.101 0.706 0.099 0.706 C 0.098 0.706 0.097 0.707 0.096 0.708 Z  M 0.111 0.811 C 0.116 0.816 0.113 0.833 0.106 0.833 C 0.103 0.833 0.095 0.823 0.095 0.818 C 0.095 0.811 0.106 0.806 0.111 0.811 Z  M 0.171 0.839 C 0.17 0.843 0.171 0.845 0.176 0.844 L 0.18 0.843 L 0.176 0.84 C 0.173 0.838 0.172 0.838 0.171 0.839 Z  M 0.158 0.891 C 0.161 0.897 0.159 0.903 0.154 0.903 C 0.151 0.903 0.15 0.901 0.15 0.896 C 0.15 0.885 0.152 0.883 0.158 0.891 Z  M 0.215 0.891 C 0.213 0.894 0.214 0.902 0.216 0.906 C 0.218 0.908 0.219 0.908 0.219 0.905 C 0.218 0.897 0.216 0.889 0.215 0.891 Z " fill-rule="evenodd" fill="rgb(0,0,0)"/></g></g></svg>