<?xml version="1.0" encoding="UTF-8" standalone="no"?><!-- Generator: Gravit.io --><svg xmlns="http://www.w3.org/2000/svg" xmlns:xlink="http://www.w3.org/1999/xlink" style="isolation:isolate" viewBox="0 0 1 1" width="1pt" height="1pt"><defs><clipPath id="_clipPath_d1GmL3QT18h41rTnqJvWcprpFjbps7VN"><rect width="1" height="1"/></clipPath></defs><g clip-path="url(#_clipPath_d1GmL3QT18h41rTnqJvWcprpFjbps7VN)"><g><path d=" M 0 0.122 C 0 0.188 0.001 0.243 0.001 0.242 C 0.009 0.239 0.015 0.254 0.014 0.272 C 0.013 0.279 0.014 0.282 0.015 0.282 C 0.016 0.282 0.018 0.288 0.02 0.295 C 0.023 0.307 0.025 0.31 0.032 0.31 C 0.034 0.31 0.037 0.313 0.039 0.316 C 0.044 0.324 0.06 0.325 0.06 0.317 C 0.06 0.309 0.062 0.304 0.066 0.304 C 0.067 0.304 0.069 0.3 0.071 0.292 C 0.073 0.285 0.075 0.279 0.077 0.278 C 0.078 0.277 0.08 0.275 0.082 0.273 C 0.085 0.269 0.092 0.281 0.092 0.29 C 0.092 0.292 0.093 0.293 0.094 0.293 C 0.095 0.293 0.096 0.294 0.098 0.295 C 0.099 0.296 0.1 0.295 0.1 0.293 C 0.1 0.292 0.102 0.288 0.104 0.285 C 0.107 0.28 0.107 0.279 0.105 0.276 C 0.103 0.275 0.102 0.271 0.102 0.268 C 0.102 0.265 0.1 0.259 0.098 0.256 L 0.094 0.251 L 0.103 0.233 C 0.114 0.214 0.115 0.212 0.109 0.205 L 0.105 0.2 L 0.108 0.19 C 0.11 0.185 0.113 0.179 0.114 0.177 C 0.117 0.174 0.116 0.173 0.114 0.172 C 0.11 0.169 0.11 0.16 0.113 0.155 C 0.116 0.152 0.116 0.151 0.113 0.149 C 0.109 0.145 0.113 0.132 0.119 0.13 C 0.122 0.129 0.123 0.127 0.123 0.124 C 0.122 0.121 0.123 0.12 0.125 0.12 C 0.128 0.12 0.131 0.106 0.129 0.1 C 0.126 0.092 0.138 0.081 0.143 0.088 C 0.147 0.095 0.164 0.093 0.164 0.086 C 0.163 0.083 0.166 0.077 0.168 0.072 C 0.171 0.068 0.174 0.062 0.176 0.06 C 0.178 0.057 0.179 0.056 0.179 0.059 C 0.18 0.061 0.182 0.06 0.186 0.056 C 0.189 0.053 0.195 0.049 0.198 0.048 C 0.202 0.047 0.205 0.045 0.205 0.043 C 0.205 0.041 0.208 0.037 0.21 0.033 C 0.213 0.03 0.216 0.024 0.218 0.022 C 0.22 0.018 0.225 0.016 0.239 0.016 C 0.241 0.016 0.242 0.015 0.241 0.014 C 0.24 0.013 0.24 0.009 0.241 0.006 L 0.242 0 L 0.121 0 L 0 0 L 0 0.122 Z  M 0.845 0.005 C 0.846 0.008 0.845 0.012 0.844 0.017 C 0.84 0.028 0.843 0.034 0.853 0.034 C 0.864 0.034 0.868 0.05 0.858 0.058 C 0.851 0.064 0.857 0.081 0.866 0.077 C 0.871 0.074 0.872 0.08 0.868 0.085 C 0.86 0.094 0.863 0.112 0.872 0.112 C 0.879 0.112 0.88 0.117 0.878 0.126 C 0.875 0.135 0.881 0.155 0.89 0.167 C 0.898 0.178 0.899 0.178 0.901 0.169 C 0.904 0.158 0.91 0.16 0.911 0.173 C 0.911 0.181 0.912 0.183 0.916 0.185 C 0.924 0.188 0.924 0.191 0.918 0.201 C 0.913 0.21 0.913 0.215 0.919 0.215 C 0.92 0.215 0.922 0.217 0.922 0.219 C 0.922 0.223 0.934 0.233 0.94 0.233 C 0.943 0.233 0.944 0.251 0.94 0.254 C 0.938 0.257 0.94 0.27 0.944 0.281 C 0.947 0.292 0.948 0.292 0.965 0.286 C 0.969 0.285 0.97 0.285 0.97 0.289 C 0.97 0.295 0.975 0.295 0.982 0.289 C 0.989 0.283 0.99 0.285 0.987 0.295 C 0.984 0.304 0.984 0.306 0.987 0.308 C 0.989 0.309 0.991 0.312 0.991 0.316 C 0.991 0.319 0.992 0.322 0.994 0.323 C 0.997 0.325 0.998 0.329 0.999 0.346 C 0.999 0.352 1 0.276 1 0.178 L 1 0 L 0.922 0 C 0.848 0 0.843 0 0.845 0.005 Z  M 0.161 0.086 C 0.161 0.088 0.16 0.089 0.158 0.089 C 0.157 0.089 0.155 0.088 0.155 0.085 C 0.155 0.08 0.16 0.081 0.161 0.086 Z  M 0.396 0.17 C 0.389 0.182 0.385 0.187 0.382 0.187 C 0.38 0.187 0.377 0.19 0.375 0.193 C 0.374 0.195 0.369 0.201 0.364 0.206 C 0.359 0.21 0.355 0.216 0.353 0.219 C 0.352 0.222 0.351 0.223 0.349 0.222 C 0.348 0.22 0.348 0.221 0.349 0.226 C 0.352 0.233 0.35 0.242 0.347 0.244 C 0.346 0.245 0.344 0.242 0.343 0.238 C 0.342 0.234 0.34 0.229 0.339 0.227 C 0.337 0.223 0.331 0.228 0.331 0.233 C 0.331 0.236 0.328 0.237 0.313 0.237 C 0.296 0.236 0.295 0.236 0.291 0.242 C 0.289 0.246 0.286 0.251 0.284 0.254 C 0.28 0.259 0.28 0.26 0.282 0.266 C 0.285 0.274 0.28 0.284 0.277 0.276 C 0.275 0.271 0.267 0.271 0.26 0.278 C 0.257 0.28 0.254 0.282 0.253 0.281 C 0.252 0.28 0.247 0.282 0.243 0.286 C 0.239 0.29 0.233 0.294 0.23 0.294 C 0.227 0.295 0.224 0.296 0.223 0.297 C 0.222 0.299 0.226 0.299 0.231 0.298 C 0.242 0.295 0.242 0.304 0.23 0.312 C 0.227 0.315 0.224 0.318 0.224 0.319 C 0.224 0.321 0.221 0.328 0.216 0.338 C 0.215 0.341 0.213 0.345 0.212 0.348 C 0.211 0.351 0.209 0.354 0.208 0.354 C 0.203 0.356 0.201 0.36 0.204 0.367 C 0.205 0.372 0.205 0.377 0.203 0.392 C 0.201 0.409 0.201 0.412 0.203 0.418 C 0.205 0.422 0.205 0.425 0.205 0.425 C 0.204 0.425 0.206 0.43 0.21 0.437 C 0.215 0.447 0.216 0.451 0.215 0.458 C 0.214 0.468 0.228 0.492 0.235 0.492 C 0.24 0.492 0.24 0.492 0.239 0.502 C 0.239 0.511 0.24 0.513 0.242 0.513 C 0.244 0.514 0.246 0.515 0.248 0.516 C 0.249 0.517 0.251 0.517 0.252 0.517 C 0.253 0.517 0.254 0.518 0.254 0.519 C 0.254 0.521 0.253 0.523 0.252 0.523 C 0.251 0.524 0.252 0.525 0.254 0.525 C 0.256 0.525 0.258 0.527 0.258 0.529 C 0.259 0.532 0.26 0.534 0.261 0.534 C 0.262 0.534 0.263 0.535 0.265 0.537 C 0.266 0.539 0.271 0.544 0.277 0.548 C 0.288 0.555 0.289 0.558 0.302 0.581 C 0.304 0.586 0.307 0.589 0.309 0.589 C 0.313 0.589 0.313 0.592 0.309 0.597 C 0.307 0.6 0.307 0.6 0.31 0.6 C 0.313 0.601 0.317 0.597 0.32 0.592 L 0.325 0.583 L 0.328 0.59 C 0.329 0.593 0.331 0.598 0.331 0.601 C 0.331 0.604 0.332 0.606 0.333 0.607 C 0.336 0.609 0.341 0.622 0.339 0.626 C 0.338 0.629 0.341 0.635 0.345 0.638 C 0.347 0.639 0.348 0.641 0.347 0.644 C 0.347 0.646 0.348 0.65 0.35 0.653 C 0.351 0.656 0.353 0.661 0.353 0.664 C 0.353 0.674 0.355 0.681 0.358 0.683 C 0.359 0.683 0.36 0.685 0.36 0.687 C 0.359 0.688 0.362 0.695 0.366 0.702 C 0.37 0.709 0.373 0.717 0.373 0.72 C 0.373 0.725 0.375 0.736 0.379 0.748 C 0.38 0.751 0.383 0.754 0.387 0.756 C 0.396 0.76 0.401 0.765 0.401 0.771 C 0.401 0.774 0.402 0.774 0.403 0.772 C 0.406 0.766 0.408 0.768 0.408 0.775 C 0.408 0.781 0.408 0.782 0.419 0.784 C 0.429 0.785 0.429 0.786 0.429 0.791 C 0.427 0.797 0.431 0.797 0.439 0.789 C 0.443 0.785 0.444 0.785 0.446 0.789 C 0.448 0.792 0.45 0.792 0.452 0.79 C 0.454 0.788 0.455 0.788 0.456 0.79 C 0.456 0.792 0.457 0.791 0.458 0.787 C 0.461 0.778 0.465 0.779 0.464 0.788 C 0.464 0.797 0.476 0.8 0.502 0.798 C 0.509 0.797 0.516 0.796 0.517 0.796 C 0.518 0.796 0.519 0.794 0.519 0.79 C 0.519 0.782 0.526 0.778 0.531 0.783 C 0.535 0.788 0.537 0.789 0.535 0.785 C 0.534 0.781 0.538 0.781 0.544 0.785 C 0.548 0.788 0.549 0.788 0.55 0.785 C 0.55 0.784 0.553 0.782 0.557 0.782 C 0.56 0.782 0.565 0.78 0.568 0.778 C 0.577 0.769 0.578 0.768 0.581 0.768 C 0.587 0.768 0.595 0.76 0.601 0.749 C 0.605 0.743 0.611 0.735 0.615 0.732 C 0.619 0.728 0.624 0.724 0.625 0.721 C 0.626 0.719 0.629 0.716 0.631 0.713 C 0.633 0.711 0.635 0.706 0.636 0.702 C 0.637 0.692 0.642 0.682 0.649 0.677 C 0.652 0.675 0.654 0.672 0.654 0.668 C 0.654 0.665 0.655 0.658 0.658 0.653 C 0.66 0.647 0.662 0.639 0.662 0.636 C 0.663 0.632 0.666 0.625 0.669 0.619 C 0.673 0.613 0.676 0.605 0.676 0.601 C 0.676 0.597 0.678 0.587 0.68 0.579 C 0.683 0.563 0.681 0.553 0.676 0.553 C 0.672 0.553 0.674 0.545 0.678 0.544 C 0.683 0.541 0.692 0.509 0.693 0.488 C 0.693 0.478 0.694 0.469 0.695 0.467 C 0.696 0.465 0.697 0.461 0.696 0.458 C 0.696 0.451 0.7 0.433 0.705 0.425 C 0.709 0.419 0.709 0.418 0.706 0.415 C 0.703 0.41 0.703 0.404 0.708 0.386 C 0.71 0.375 0.711 0.369 0.71 0.365 C 0.709 0.362 0.708 0.354 0.708 0.349 C 0.707 0.343 0.705 0.334 0.702 0.328 C 0.699 0.322 0.697 0.314 0.696 0.311 C 0.695 0.307 0.693 0.304 0.691 0.304 C 0.689 0.304 0.687 0.301 0.686 0.296 C 0.682 0.284 0.675 0.274 0.67 0.274 C 0.665 0.274 0.665 0.266 0.669 0.253 C 0.67 0.248 0.67 0.246 0.669 0.248 C 0.666 0.253 0.662 0.252 0.658 0.244 C 0.656 0.241 0.653 0.237 0.652 0.237 C 0.651 0.237 0.65 0.234 0.648 0.23 C 0.646 0.225 0.645 0.223 0.643 0.224 C 0.636 0.228 0.611 0.211 0.606 0.199 C 0.601 0.189 0.587 0.182 0.573 0.182 C 0.566 0.182 0.56 0.18 0.558 0.179 C 0.553 0.174 0.547 0.185 0.547 0.198 C 0.547 0.21 0.543 0.208 0.542 0.195 C 0.541 0.176 0.535 0.171 0.518 0.171 C 0.514 0.17 0.511 0.169 0.511 0.168 C 0.511 0.166 0.51 0.165 0.509 0.165 C 0.507 0.165 0.506 0.167 0.507 0.172 C 0.508 0.179 0.508 0.179 0.503 0.178 C 0.497 0.176 0.497 0.177 0.497 0.186 C 0.496 0.199 0.493 0.201 0.491 0.191 C 0.49 0.188 0.488 0.184 0.487 0.184 C 0.485 0.184 0.484 0.183 0.484 0.181 C 0.485 0.174 0.484 0.17 0.483 0.17 C 0.482 0.17 0.481 0.173 0.481 0.177 C 0.482 0.182 0.481 0.183 0.477 0.183 C 0.466 0.182 0.45 0.175 0.449 0.171 C 0.448 0.169 0.446 0.168 0.443 0.168 C 0.44 0.168 0.437 0.166 0.437 0.165 C 0.437 0.163 0.436 0.162 0.434 0.162 C 0.432 0.162 0.427 0.16 0.423 0.158 C 0.409 0.151 0.407 0.152 0.396 0.17 Z  M 0 0.827 L 0 1 L 0.118 1 C 0.223 1 0.235 1 0.235 0.996 C 0.235 0.987 0.232 0.98 0.228 0.98 C 0.222 0.98 0.218 0.971 0.218 0.959 C 0.218 0.947 0.22 0.941 0.224 0.943 C 0.225 0.944 0.226 0.943 0.226 0.942 C 0.226 0.94 0.223 0.937 0.219 0.936 C 0.215 0.934 0.212 0.932 0.21 0.931 C 0.205 0.928 0.213 0.913 0.22 0.913 C 0.224 0.913 0.224 0.913 0.222 0.911 C 0.219 0.907 0.217 0.894 0.22 0.891 C 0.223 0.887 0.22 0.886 0.215 0.888 C 0.209 0.891 0.203 0.902 0.207 0.902 C 0.212 0.902 0.206 0.909 0.201 0.91 C 0.197 0.91 0.192 0.913 0.19 0.916 C 0.183 0.926 0.181 0.922 0.187 0.91 C 0.192 0.903 0.193 0.89 0.189 0.893 C 0.187 0.894 0.186 0.893 0.187 0.886 C 0.188 0.878 0.188 0.878 0.183 0.879 C 0.18 0.879 0.177 0.879 0.177 0.878 C 0.177 0.873 0.181 0.863 0.183 0.863 C 0.189 0.863 0.191 0.858 0.185 0.855 C 0.182 0.853 0.18 0.849 0.18 0.847 C 0.18 0.836 0.171 0.824 0.167 0.828 C 0.158 0.837 0.153 0.828 0.159 0.815 C 0.163 0.807 0.165 0.791 0.162 0.782 C 0.161 0.778 0.16 0.768 0.16 0.762 C 0.16 0.747 0.156 0.743 0.143 0.745 C 0.136 0.746 0.135 0.746 0.135 0.742 C 0.135 0.737 0.128 0.731 0.123 0.732 C 0.12 0.732 0.116 0.727 0.11 0.715 C 0.104 0.706 0.099 0.699 0.099 0.7 C 0.094 0.712 0.08 0.723 0.08 0.715 C 0.08 0.714 0.078 0.711 0.075 0.708 C 0.068 0.703 0.066 0.697 0.066 0.68 C 0.065 0.672 0.065 0.669 0.065 0.673 C 0.064 0.676 0.063 0.68 0.061 0.681 C 0.059 0.682 0.058 0.683 0.058 0.684 C 0.058 0.689 0.051 0.693 0.049 0.69 C 0.047 0.687 0.047 0.688 0.048 0.695 C 0.049 0.701 0.048 0.704 0.046 0.707 C 0.044 0.711 0.043 0.71 0.044 0.703 C 0.045 0.696 0.045 0.695 0.044 0.698 C 0.043 0.701 0.042 0.706 0.042 0.71 C 0.042 0.715 0.041 0.721 0.038 0.726 C 0.035 0.733 0.034 0.736 0.034 0.753 C 0.034 0.759 0.03 0.768 0.028 0.768 C 0.023 0.768 0.022 0.748 0.025 0.733 C 0.027 0.725 0.028 0.716 0.028 0.713 C 0.027 0.708 0.027 0.708 0.027 0.713 C 0.027 0.719 0.022 0.719 0.022 0.713 C 0.022 0.71 0.022 0.709 0.02 0.712 C 0.018 0.714 0.018 0.718 0.018 0.722 C 0.019 0.727 0.019 0.729 0.016 0.729 C 0.014 0.729 0.014 0.727 0.015 0.722 C 0.015 0.718 0.015 0.715 0.014 0.715 C 0.011 0.715 0.011 0.705 0.014 0.696 C 0.016 0.691 0.017 0.683 0.017 0.679 C 0.017 0.674 0.018 0.67 0.019 0.67 C 0.02 0.67 0.02 0.669 0.02 0.667 C 0.02 0.666 0.02 0.665 0.019 0.666 C 0.017 0.669 0.015 0.662 0.017 0.658 C 0.019 0.653 0.017 0.652 0.015 0.656 C 0.012 0.661 0.005 0.662 0.002 0.658 C 0 0.654 0 0.669 0 0.827 Z  M 0.069 0.662 C 0.068 0.663 0.068 0.665 0.069 0.666 C 0.071 0.668 0.074 0.666 0.074 0.662 C 0.074 0.659 0.072 0.659 0.069 0.662 Z  M 0.152 0.668 C 0.152 0.673 0.156 0.687 0.157 0.687 C 0.158 0.687 0.158 0.685 0.157 0.682 C 0.156 0.677 0.152 0.666 0.152 0.668 Z  M 0.078 0.692 C 0.078 0.694 0.08 0.696 0.082 0.696 C 0.083 0.696 0.085 0.697 0.085 0.7 C 0.085 0.706 0.09 0.705 0.094 0.698 L 0.098 0.693 L 0.093 0.693 C 0.09 0.693 0.088 0.692 0.088 0.691 C 0.088 0.689 0.086 0.688 0.083 0.688 C 0.08 0.688 0.078 0.69 0.078 0.692 Z  M 0.145 0.706 C 0.144 0.708 0.143 0.711 0.143 0.713 C 0.143 0.715 0.143 0.715 0.145 0.712 C 0.146 0.71 0.148 0.707 0.149 0.705 C 0.15 0.702 0.15 0.701 0.149 0.701 C 0.148 0.701 0.146 0.703 0.145 0.706 Z  M 0.06 0.738 C 0.058 0.743 0.055 0.745 0.055 0.741 C 0.055 0.737 0.058 0.729 0.06 0.731 C 0.061 0.732 0.061 0.734 0.06 0.738 Z  M 0.391 0.776 C 0.392 0.776 0.393 0.778 0.393 0.78 C 0.393 0.781 0.394 0.782 0.395 0.782 C 0.396 0.782 0.396 0.781 0.395 0.778 C 0.394 0.776 0.392 0.774 0.39 0.774 C 0.388 0.774 0.388 0.775 0.391 0.776 Z  M 0.583 0.782 C 0.581 0.784 0.582 0.793 0.584 0.793 C 0.586 0.793 0.589 0.783 0.588 0.781 C 0.587 0.779 0.586 0.779 0.583 0.782 Z  M 0.168 0.802 C 0.168 0.804 0.168 0.808 0.169 0.81 C 0.171 0.813 0.171 0.813 0.17 0.808 C 0.17 0.801 0.168 0.796 0.168 0.802 Z  M 0.174 0.807 C 0.174 0.808 0.175 0.811 0.177 0.814 C 0.18 0.819 0.191 0.818 0.191 0.813 C 0.191 0.811 0.191 0.81 0.19 0.811 C 0.189 0.813 0.183 0.81 0.177 0.806 C 0.175 0.805 0.174 0.805 0.174 0.807 Z " fill-rule="evenodd" fill="rgb(0,0,0)"/></g></g></svg>