<?xml version="1.0" encoding="UTF-8" standalone="no"?><!-- Generator: Gravit.io --><svg xmlns="http://www.w3.org/2000/svg" xmlns:xlink="http://www.w3.org/1999/xlink" style="isolation:isolate" viewBox="0 0 1 1" width="1pt" height="1pt"><defs><clipPath id="_clipPath_RmtPKdkeMorBjjBe2hz8qRWpUVfaiIxX"><rect width="1" height="1"/></clipPath></defs><g clip-path="url(#_clipPath_RmtPKdkeMorBjjBe2hz8qRWpUVfaiIxX)"><g><path d=" M 0 0.148 C 0 0.277 0 0.296 0.002 0.296 C 0.004 0.296 0.005 0.294 0.004 0.29 C 0.004 0.278 0.009 0.281 0.012 0.293 C 0.013 0.299 0.015 0.304 0.016 0.304 C 0.017 0.304 0.017 0.307 0.017 0.309 C 0.017 0.312 0.018 0.313 0.02 0.312 C 0.022 0.311 0.024 0.312 0.024 0.315 C 0.025 0.317 0.026 0.318 0.028 0.318 C 0.03 0.318 0.034 0.322 0.036 0.327 C 0.042 0.335 0.043 0.335 0.049 0.331 C 0.05 0.33 0.053 0.33 0.054 0.331 C 0.055 0.332 0.057 0.33 0.058 0.327 C 0.059 0.324 0.061 0.321 0.062 0.321 C 0.063 0.321 0.064 0.319 0.064 0.317 C 0.064 0.314 0.066 0.313 0.069 0.313 C 0.074 0.313 0.075 0.313 0.074 0.303 C 0.073 0.295 0.074 0.293 0.076 0.293 C 0.077 0.293 0.078 0.291 0.078 0.289 C 0.078 0.281 0.09 0.276 0.091 0.284 C 0.094 0.297 0.102 0.286 0.102 0.268 C 0.102 0.263 0.103 0.26 0.105 0.259 C 0.107 0.258 0.107 0.258 0.105 0.257 C 0.102 0.257 0.102 0.255 0.102 0.25 C 0.103 0.242 0.107 0.237 0.107 0.244 C 0.107 0.25 0.113 0.258 0.114 0.254 C 0.116 0.25 0.114 0.24 0.111 0.238 C 0.11 0.237 0.11 0.238 0.11 0.24 C 0.111 0.242 0.111 0.243 0.11 0.243 C 0.107 0.243 0.109 0.232 0.111 0.229 C 0.114 0.225 0.116 0.226 0.115 0.229 C 0.115 0.231 0.115 0.232 0.116 0.232 C 0.117 0.232 0.118 0.23 0.117 0.228 C 0.117 0.226 0.118 0.223 0.118 0.22 C 0.119 0.216 0.118 0.213 0.116 0.208 C 0.112 0.2 0.112 0.196 0.117 0.196 C 0.12 0.196 0.121 0.195 0.12 0.189 C 0.119 0.184 0.119 0.182 0.12 0.182 C 0.123 0.182 0.124 0.187 0.123 0.192 C 0.121 0.197 0.124 0.215 0.127 0.215 C 0.128 0.215 0.129 0.216 0.129 0.218 C 0.129 0.22 0.129 0.22 0.13 0.219 C 0.131 0.218 0.131 0.216 0.13 0.212 C 0.129 0.21 0.129 0.2 0.129 0.19 C 0.129 0.178 0.129 0.172 0.128 0.17 C 0.126 0.168 0.125 0.165 0.125 0.162 C 0.125 0.159 0.124 0.156 0.123 0.156 C 0.121 0.156 0.121 0.154 0.121 0.15 C 0.122 0.139 0.138 0.14 0.138 0.152 L 0.138 0.158 L 0.141 0.151 C 0.143 0.148 0.144 0.143 0.144 0.141 C 0.144 0.139 0.144 0.14 0.143 0.142 C 0.141 0.15 0.138 0.145 0.139 0.136 C 0.141 0.116 0.144 0.11 0.148 0.119 C 0.15 0.124 0.15 0.124 0.151 0.119 C 0.152 0.116 0.154 0.115 0.158 0.115 C 0.162 0.115 0.164 0.112 0.167 0.106 C 0.171 0.099 0.171 0.098 0.173 0.103 C 0.175 0.107 0.176 0.107 0.178 0.104 C 0.181 0.099 0.186 0.105 0.184 0.112 C 0.184 0.115 0.185 0.118 0.186 0.119 C 0.19 0.121 0.19 0.121 0.189 0.114 C 0.188 0.11 0.189 0.108 0.191 0.107 C 0.193 0.106 0.194 0.103 0.194 0.099 C 0.194 0.089 0.198 0.086 0.203 0.09 C 0.207 0.093 0.208 0.093 0.208 0.09 C 0.208 0.088 0.21 0.087 0.211 0.087 C 0.212 0.087 0.213 0.082 0.214 0.076 C 0.215 0.065 0.215 0.065 0.219 0.067 C 0.223 0.07 0.227 0.068 0.227 0.062 C 0.227 0.06 0.229 0.057 0.23 0.057 C 0.233 0.056 0.233 0.054 0.233 0.05 C 0.231 0.039 0.241 0.043 0.243 0.054 L 0.246 0.063 L 0.247 0.056 C 0.247 0.052 0.249 0.047 0.25 0.044 C 0.252 0.041 0.252 0.039 0.251 0.039 C 0.249 0.039 0.249 0.033 0.251 0.023 C 0.252 0.018 0.253 0.017 0.254 0.019 C 0.257 0.024 0.258 0.023 0.259 0.016 C 0.259 0.013 0.261 0.009 0.262 0.009 C 0.266 0.008 0.267 0.025 0.264 0.031 C 0.262 0.035 0.262 0.036 0.265 0.039 C 0.269 0.043 0.27 0.043 0.27 0.036 C 0.27 0.028 0.273 0.02 0.276 0.02 C 0.277 0.02 0.278 0.023 0.277 0.032 C 0.276 0.04 0.276 0.045 0.277 0.045 C 0.279 0.045 0.28 0.027 0.278 0.01 L 0.277 0 L 0.139 0 L 0 0 L 0 0.148 Z  M 0.757 0.011 C 0.759 0.02 0.759 0.024 0.757 0.026 C 0.752 0.035 0.755 0.039 0.765 0.037 C 0.773 0.036 0.774 0.036 0.773 0.04 C 0.773 0.043 0.774 0.047 0.777 0.052 C 0.781 0.059 0.782 0.063 0.783 0.075 L 0.784 0.091 L 0.779 0.091 C 0.772 0.092 0.772 0.094 0.775 0.1 C 0.777 0.103 0.778 0.104 0.782 0.101 C 0.789 0.097 0.792 0.097 0.791 0.102 C 0.79 0.107 0.792 0.11 0.798 0.113 C 0.801 0.114 0.803 0.116 0.803 0.12 C 0.803 0.123 0.804 0.127 0.805 0.128 C 0.806 0.13 0.807 0.133 0.806 0.134 C 0.806 0.136 0.806 0.137 0.807 0.137 C 0.811 0.137 0.808 0.144 0.804 0.147 L 0.799 0.151 L 0.802 0.157 C 0.806 0.164 0.807 0.164 0.819 0.163 C 0.831 0.161 0.832 0.162 0.833 0.167 C 0.833 0.171 0.834 0.173 0.836 0.172 C 0.84 0.169 0.843 0.178 0.839 0.184 C 0.835 0.192 0.837 0.199 0.843 0.201 C 0.846 0.202 0.85 0.206 0.853 0.209 C 0.858 0.216 0.858 0.216 0.863 0.208 C 0.869 0.198 0.873 0.199 0.873 0.209 C 0.873 0.214 0.874 0.218 0.874 0.218 C 0.875 0.218 0.876 0.221 0.877 0.225 C 0.879 0.233 0.877 0.237 0.874 0.232 C 0.872 0.229 0.871 0.229 0.869 0.232 C 0.865 0.238 0.866 0.244 0.873 0.243 C 0.884 0.242 0.887 0.243 0.888 0.249 C 0.888 0.253 0.889 0.254 0.892 0.253 C 0.898 0.249 0.911 0.269 0.906 0.275 C 0.902 0.279 0.904 0.286 0.909 0.284 C 0.913 0.283 0.914 0.283 0.914 0.287 C 0.915 0.291 0.915 0.29 0.915 0.286 C 0.915 0.281 0.916 0.279 0.919 0.279 C 0.921 0.279 0.922 0.281 0.921 0.285 C 0.919 0.295 0.923 0.304 0.931 0.311 C 0.935 0.314 0.941 0.321 0.945 0.327 C 0.949 0.333 0.953 0.338 0.955 0.338 C 0.956 0.338 0.958 0.34 0.958 0.342 C 0.959 0.345 0.96 0.346 0.961 0.346 C 0.962 0.345 0.964 0.346 0.965 0.348 C 0.967 0.351 0.967 0.352 0.965 0.353 C 0.964 0.353 0.965 0.357 0.968 0.361 C 0.971 0.367 0.972 0.37 0.971 0.376 C 0.969 0.388 0.987 0.394 0.991 0.383 C 0.994 0.371 0.997 0.376 0.996 0.393 C 0.996 0.414 0.995 0.416 0.988 0.416 C 0.983 0.416 0.983 0.417 0.983 0.423 C 0.983 0.431 0.99 0.434 0.992 0.426 C 0.992 0.424 0.994 0.423 0.996 0.423 L 1 0.424 L 1 0.212 L 1 0 L 0.878 0 L 0.756 0 L 0.757 0.011 Z  M 0.733 0.047 C 0.731 0.05 0.732 0.056 0.734 0.056 C 0.736 0.056 0.737 0.054 0.737 0.052 C 0.737 0.047 0.734 0.044 0.733 0.047 Z  M 0.453 0.151 C 0.45 0.16 0.442 0.161 0.436 0.153 C 0.432 0.147 0.407 0.148 0.403 0.154 C 0.401 0.157 0.398 0.159 0.397 0.159 C 0.395 0.159 0.393 0.162 0.392 0.164 C 0.39 0.167 0.388 0.171 0.386 0.172 C 0.383 0.173 0.379 0.179 0.375 0.185 C 0.369 0.195 0.366 0.198 0.358 0.202 C 0.355 0.204 0.354 0.203 0.354 0.2 C 0.354 0.196 0.349 0.193 0.345 0.195 C 0.344 0.196 0.343 0.201 0.343 0.208 C 0.343 0.222 0.339 0.226 0.335 0.215 C 0.334 0.211 0.333 0.209 0.331 0.21 C 0.329 0.211 0.327 0.21 0.326 0.207 C 0.324 0.202 0.324 0.202 0.321 0.208 C 0.319 0.211 0.316 0.215 0.315 0.216 C 0.313 0.217 0.313 0.217 0.315 0.218 C 0.317 0.218 0.318 0.219 0.318 0.22 C 0.318 0.226 0.315 0.228 0.305 0.23 C 0.293 0.231 0.283 0.238 0.275 0.251 C 0.266 0.266 0.254 0.267 0.254 0.254 C 0.254 0.245 0.247 0.243 0.245 0.253 C 0.245 0.257 0.243 0.26 0.24 0.261 C 0.232 0.263 0.226 0.279 0.233 0.279 C 0.238 0.279 0.235 0.287 0.223 0.302 C 0.214 0.315 0.212 0.318 0.213 0.323 C 0.214 0.33 0.211 0.332 0.21 0.326 C 0.208 0.32 0.205 0.329 0.205 0.338 C 0.205 0.344 0.204 0.346 0.203 0.345 C 0.202 0.344 0.201 0.345 0.201 0.348 C 0.201 0.35 0.2 0.353 0.198 0.355 C 0.192 0.364 0.19 0.382 0.19 0.413 C 0.19 0.446 0.191 0.448 0.199 0.456 C 0.203 0.459 0.205 0.463 0.205 0.465 C 0.205 0.47 0.209 0.481 0.214 0.49 C 0.215 0.493 0.216 0.497 0.216 0.499 C 0.216 0.501 0.218 0.503 0.222 0.503 C 0.225 0.503 0.23 0.505 0.233 0.507 C 0.236 0.509 0.241 0.511 0.243 0.51 C 0.247 0.51 0.249 0.519 0.246 0.522 C 0.243 0.526 0.246 0.533 0.252 0.535 C 0.255 0.536 0.258 0.539 0.259 0.542 C 0.26 0.545 0.261 0.547 0.262 0.546 C 0.264 0.544 0.282 0.559 0.288 0.57 L 0.294 0.578 L 0.29 0.584 C 0.287 0.589 0.286 0.589 0.285 0.587 C 0.284 0.584 0.282 0.584 0.276 0.585 C 0.27 0.587 0.269 0.588 0.274 0.589 C 0.276 0.589 0.279 0.591 0.28 0.592 C 0.28 0.593 0.283 0.594 0.287 0.593 C 0.293 0.591 0.301 0.596 0.301 0.602 C 0.301 0.607 0.304 0.607 0.311 0.602 C 0.318 0.597 0.328 0.607 0.328 0.62 C 0.328 0.625 0.328 0.626 0.331 0.624 C 0.333 0.623 0.334 0.624 0.334 0.63 C 0.334 0.638 0.338 0.648 0.341 0.648 C 0.342 0.648 0.343 0.651 0.343 0.654 C 0.343 0.657 0.345 0.661 0.347 0.663 C 0.352 0.666 0.352 0.67 0.348 0.672 C 0.345 0.674 0.345 0.675 0.346 0.68 C 0.346 0.683 0.347 0.689 0.347 0.694 C 0.348 0.698 0.349 0.701 0.35 0.7 C 0.351 0.699 0.353 0.702 0.354 0.706 C 0.357 0.713 0.359 0.715 0.358 0.708 C 0.357 0.705 0.358 0.704 0.36 0.704 C 0.362 0.705 0.363 0.708 0.364 0.714 C 0.364 0.718 0.365 0.721 0.366 0.721 C 0.367 0.72 0.368 0.724 0.369 0.729 C 0.371 0.74 0.382 0.758 0.391 0.765 C 0.394 0.768 0.4 0.774 0.403 0.779 C 0.407 0.784 0.41 0.788 0.411 0.788 C 0.413 0.788 0.415 0.792 0.417 0.797 C 0.42 0.805 0.421 0.806 0.424 0.803 C 0.426 0.801 0.427 0.801 0.428 0.804 C 0.429 0.808 0.43 0.808 0.432 0.805 C 0.435 0.8 0.443 0.802 0.443 0.807 C 0.443 0.811 0.445 0.816 0.447 0.816 C 0.448 0.816 0.448 0.814 0.447 0.811 C 0.447 0.808 0.447 0.808 0.449 0.809 C 0.451 0.81 0.452 0.809 0.452 0.805 C 0.453 0.802 0.454 0.799 0.456 0.798 C 0.457 0.797 0.459 0.795 0.46 0.795 C 0.461 0.794 0.462 0.796 0.463 0.799 C 0.464 0.803 0.465 0.804 0.475 0.802 C 0.488 0.8 0.494 0.8 0.51 0.802 C 0.518 0.802 0.522 0.802 0.525 0.799 C 0.531 0.793 0.535 0.793 0.538 0.799 C 0.541 0.804 0.559 0.806 0.557 0.801 C 0.557 0.8 0.554 0.799 0.552 0.799 L 0.548 0.799 L 0.551 0.793 C 0.553 0.789 0.557 0.787 0.563 0.787 C 0.569 0.787 0.572 0.786 0.572 0.783 C 0.572 0.781 0.573 0.779 0.575 0.779 C 0.576 0.779 0.58 0.777 0.583 0.774 C 0.586 0.771 0.59 0.768 0.593 0.767 C 0.595 0.766 0.6 0.76 0.604 0.753 C 0.607 0.746 0.611 0.74 0.611 0.74 C 0.612 0.74 0.617 0.737 0.622 0.733 C 0.627 0.729 0.632 0.725 0.632 0.725 C 0.633 0.725 0.636 0.718 0.638 0.709 C 0.642 0.694 0.646 0.688 0.646 0.695 C 0.646 0.701 0.65 0.695 0.651 0.689 C 0.652 0.683 0.657 0.673 0.662 0.666 C 0.665 0.663 0.665 0.662 0.663 0.658 C 0.661 0.654 0.661 0.652 0.663 0.652 C 0.664 0.651 0.665 0.648 0.665 0.645 C 0.665 0.642 0.665 0.64 0.666 0.64 C 0.667 0.64 0.668 0.638 0.668 0.637 C 0.668 0.633 0.675 0.614 0.678 0.611 C 0.679 0.61 0.68 0.604 0.68 0.597 C 0.68 0.589 0.681 0.585 0.683 0.582 C 0.685 0.58 0.687 0.576 0.687 0.573 C 0.687 0.57 0.688 0.566 0.689 0.562 C 0.691 0.557 0.691 0.556 0.689 0.553 C 0.687 0.55 0.687 0.549 0.69 0.542 C 0.692 0.537 0.693 0.53 0.693 0.522 C 0.693 0.515 0.694 0.509 0.694 0.507 C 0.695 0.505 0.697 0.494 0.7 0.483 C 0.703 0.468 0.705 0.461 0.707 0.461 C 0.709 0.461 0.71 0.457 0.712 0.448 C 0.713 0.44 0.714 0.432 0.714 0.43 C 0.715 0.428 0.715 0.424 0.715 0.422 C 0.715 0.42 0.715 0.417 0.716 0.415 C 0.717 0.413 0.717 0.399 0.717 0.384 C 0.717 0.343 0.71 0.322 0.685 0.274 C 0.678 0.26 0.674 0.25 0.673 0.244 C 0.672 0.239 0.671 0.235 0.67 0.235 C 0.669 0.235 0.668 0.232 0.668 0.227 C 0.667 0.219 0.667 0.219 0.666 0.226 C 0.665 0.236 0.663 0.236 0.655 0.223 C 0.651 0.217 0.647 0.212 0.646 0.212 C 0.645 0.212 0.644 0.211 0.644 0.209 C 0.644 0.208 0.641 0.207 0.638 0.207 C 0.632 0.207 0.631 0.206 0.628 0.197 C 0.626 0.189 0.625 0.188 0.623 0.19 C 0.622 0.193 0.622 0.193 0.621 0.191 C 0.621 0.189 0.619 0.188 0.617 0.189 C 0.615 0.19 0.608 0.187 0.602 0.183 C 0.595 0.178 0.587 0.176 0.578 0.175 C 0.571 0.175 0.563 0.172 0.561 0.17 C 0.557 0.167 0.556 0.167 0.552 0.171 C 0.546 0.177 0.545 0.177 0.545 0.171 C 0.545 0.164 0.523 0.16 0.503 0.164 C 0.498 0.165 0.494 0.166 0.494 0.168 C 0.494 0.174 0.487 0.169 0.482 0.159 C 0.478 0.148 0.477 0.148 0.476 0.154 C 0.475 0.162 0.47 0.165 0.47 0.158 C 0.47 0.156 0.468 0.152 0.466 0.151 C 0.464 0.149 0.462 0.147 0.462 0.146 C 0.462 0.14 0.456 0.144 0.453 0.151 Z  M 0.323 0.228 C 0.323 0.233 0.32 0.232 0.319 0.227 C 0.318 0.225 0.319 0.223 0.32 0.223 C 0.322 0.223 0.323 0.225 0.323 0.228 Z  M 0.207 0.267 C 0.205 0.268 0.204 0.27 0.204 0.272 C 0.204 0.274 0.203 0.278 0.203 0.281 C 0.202 0.285 0.202 0.286 0.204 0.283 C 0.207 0.277 0.211 0.278 0.208 0.284 C 0.205 0.291 0.208 0.292 0.212 0.285 C 0.215 0.279 0.215 0.278 0.212 0.275 C 0.211 0.273 0.21 0.271 0.211 0.271 C 0.212 0.271 0.213 0.27 0.213 0.268 C 0.213 0.265 0.211 0.265 0.207 0.267 Z  M 0.248 0.272 C 0.248 0.275 0.246 0.277 0.245 0.277 C 0.241 0.277 0.24 0.274 0.242 0.27 C 0.244 0.267 0.248 0.268 0.248 0.272 Z  M 0.201 0.295 C 0.202 0.299 0.202 0.303 0.203 0.304 C 0.206 0.305 0.207 0.296 0.205 0.292 C 0.202 0.286 0.201 0.287 0.201 0.295 Z  M 0.123 0.619 C 0.12 0.629 0.121 0.635 0.125 0.627 C 0.126 0.622 0.128 0.609 0.127 0.609 C 0.126 0.609 0.125 0.613 0.123 0.619 Z  M 0.092 0.622 C 0.091 0.627 0.092 0.635 0.094 0.633 C 0.096 0.63 0.096 0.617 0.094 0.617 C 0.093 0.617 0.092 0.619 0.092 0.622 Z  M 0.008 0.642 C 0.004 0.652 0.002 0.653 0.001 0.646 C 0.001 0.643 0 0.722 0 0.821 L 0 1 L 0.123 1 C 0.191 1 0.246 0.999 0.245 0.998 C 0.244 0.997 0.243 0.992 0.242 0.988 C 0.242 0.984 0.24 0.98 0.238 0.979 C 0.232 0.975 0.237 0.961 0.25 0.946 C 0.251 0.945 0.251 0.943 0.249 0.939 C 0.246 0.935 0.246 0.935 0.241 0.943 C 0.237 0.95 0.237 0.95 0.236 0.945 C 0.234 0.938 0.233 0.936 0.225 0.933 C 0.218 0.929 0.219 0.922 0.229 0.914 C 0.232 0.911 0.235 0.909 0.235 0.909 C 0.237 0.906 0.229 0.9 0.225 0.901 C 0.22 0.903 0.218 0.898 0.222 0.893 C 0.226 0.887 0.224 0.884 0.215 0.882 C 0.207 0.881 0.203 0.877 0.205 0.87 C 0.205 0.867 0.205 0.866 0.203 0.866 C 0.202 0.866 0.201 0.865 0.201 0.863 C 0.201 0.862 0.199 0.861 0.197 0.862 C 0.196 0.862 0.194 0.861 0.194 0.86 C 0.194 0.858 0.193 0.858 0.192 0.86 C 0.191 0.862 0.19 0.863 0.19 0.861 C 0.19 0.858 0.193 0.85 0.193 0.853 C 0.193 0.857 0.196 0.849 0.196 0.845 C 0.196 0.844 0.195 0.844 0.194 0.846 C 0.191 0.849 0.191 0.848 0.191 0.843 C 0.191 0.842 0.19 0.842 0.188 0.843 C 0.184 0.845 0.184 0.839 0.189 0.83 C 0.191 0.826 0.193 0.818 0.193 0.811 L 0.194 0.8 L 0.189 0.801 C 0.185 0.802 0.183 0.801 0.182 0.798 C 0.181 0.791 0.176 0.797 0.175 0.807 C 0.175 0.811 0.174 0.815 0.172 0.815 C 0.169 0.816 0.169 0.815 0.17 0.809 C 0.17 0.805 0.171 0.798 0.172 0.794 C 0.172 0.79 0.172 0.788 0.171 0.789 C 0.169 0.792 0.166 0.777 0.166 0.759 C 0.166 0.74 0.164 0.73 0.159 0.733 C 0.158 0.734 0.156 0.732 0.154 0.73 C 0.152 0.726 0.152 0.726 0.147 0.731 C 0.143 0.736 0.138 0.733 0.138 0.725 C 0.138 0.721 0.121 0.708 0.117 0.709 C 0.116 0.709 0.114 0.706 0.113 0.701 C 0.112 0.696 0.11 0.693 0.109 0.694 C 0.108 0.695 0.106 0.692 0.106 0.688 C 0.104 0.674 0.104 0.673 0.106 0.674 C 0.109 0.677 0.109 0.672 0.105 0.668 C 0.1 0.662 0.099 0.662 0.099 0.681 C 0.099 0.69 0.098 0.69 0.094 0.688 C 0.092 0.687 0.088 0.686 0.086 0.686 C 0.078 0.685 0.075 0.677 0.076 0.663 C 0.077 0.656 0.076 0.651 0.076 0.651 C 0.072 0.651 0.056 0.667 0.054 0.674 C 0.053 0.678 0.05 0.682 0.049 0.682 C 0.045 0.682 0.044 0.688 0.044 0.706 C 0.045 0.716 0.044 0.719 0.041 0.724 C 0.037 0.73 0.031 0.751 0.031 0.762 C 0.031 0.772 0.028 0.768 0.027 0.757 C 0.027 0.752 0.027 0.744 0.029 0.739 C 0.032 0.726 0.034 0.72 0.034 0.712 C 0.034 0.708 0.035 0.703 0.035 0.701 C 0.036 0.698 0.035 0.697 0.033 0.697 C 0.031 0.697 0.03 0.698 0.03 0.699 C 0.03 0.705 0.027 0.7 0.026 0.693 C 0.026 0.687 0.024 0.684 0.021 0.683 C 0.016 0.681 0.016 0.675 0.021 0.669 C 0.023 0.667 0.023 0.665 0.022 0.665 C 0.022 0.665 0.02 0.66 0.02 0.655 C 0.019 0.65 0.018 0.645 0.017 0.645 C 0.017 0.645 0.015 0.643 0.015 0.64 C 0.014 0.632 0.012 0.633 0.008 0.642 Z  M 0.29 0.644 C 0.289 0.645 0.288 0.648 0.288 0.651 C 0.288 0.655 0.287 0.656 0.284 0.657 C 0.279 0.657 0.27 0.675 0.273 0.68 C 0.273 0.682 0.274 0.686 0.275 0.691 C 0.275 0.695 0.277 0.698 0.277 0.698 C 0.278 0.698 0.279 0.701 0.279 0.703 C 0.279 0.709 0.289 0.719 0.298 0.722 C 0.304 0.724 0.314 0.718 0.318 0.71 C 0.322 0.703 0.324 0.702 0.325 0.707 C 0.326 0.708 0.327 0.707 0.329 0.705 C 0.333 0.699 0.333 0.695 0.329 0.697 C 0.325 0.699 0.325 0.691 0.329 0.688 C 0.332 0.686 0.308 0.645 0.304 0.645 C 0.303 0.645 0.299 0.644 0.296 0.644 C 0.293 0.643 0.29 0.643 0.29 0.644 Z  M 0.149 0.656 C 0.147 0.658 0.147 0.66 0.149 0.662 C 0.151 0.667 0.151 0.673 0.148 0.683 C 0.144 0.698 0.144 0.703 0.147 0.705 C 0.15 0.707 0.152 0.705 0.152 0.7 C 0.152 0.697 0.153 0.696 0.154 0.697 C 0.155 0.698 0.157 0.695 0.159 0.69 C 0.16 0.685 0.161 0.682 0.16 0.682 C 0.159 0.682 0.159 0.68 0.159 0.677 C 0.16 0.675 0.159 0.673 0.158 0.673 C 0.156 0.673 0.153 0.666 0.152 0.657 C 0.151 0.655 0.15 0.655 0.149 0.656 Z  M 0.119 0.669 C 0.116 0.678 0.115 0.687 0.118 0.692 C 0.121 0.698 0.122 0.696 0.123 0.68 C 0.124 0.661 0.124 0.659 0.119 0.669 Z  M 0.089 0.709 C 0.089 0.711 0.088 0.712 0.087 0.712 C 0.086 0.712 0.085 0.711 0.085 0.709 C 0.085 0.708 0.086 0.707 0.087 0.707 C 0.088 0.707 0.089 0.708 0.089 0.709 Z  M 0.167 0.714 C 0.167 0.718 0.167 0.723 0.166 0.725 C 0.165 0.728 0.165 0.728 0.169 0.727 C 0.173 0.724 0.174 0.723 0.172 0.713 C 0.17 0.704 0.166 0.705 0.167 0.714 Z  M 0.361 0.73 C 0.362 0.734 0.361 0.738 0.359 0.742 C 0.355 0.748 0.355 0.749 0.358 0.749 C 0.361 0.749 0.361 0.749 0.358 0.753 C 0.354 0.758 0.356 0.761 0.361 0.758 C 0.365 0.756 0.367 0.748 0.364 0.744 C 0.363 0.743 0.362 0.74 0.363 0.736 C 0.364 0.732 0.363 0.729 0.362 0.727 C 0.361 0.726 0.36 0.727 0.361 0.73 Z  M 0.21 0.753 C 0.208 0.757 0.208 0.758 0.21 0.76 C 0.214 0.764 0.215 0.763 0.215 0.756 C 0.215 0.748 0.213 0.747 0.21 0.753 Z  M 0.191 0.757 C 0.191 0.768 0.196 0.772 0.199 0.763 C 0.2 0.759 0.2 0.757 0.198 0.756 C 0.195 0.753 0.191 0.754 0.191 0.757 Z  M 0.226 0.961 C 0.225 0.964 0.224 0.966 0.223 0.966 C 0.223 0.965 0.223 0.961 0.224 0.958 C 0.225 0.955 0.226 0.953 0.227 0.953 C 0.227 0.954 0.227 0.958 0.226 0.961 Z " fill-rule="evenodd" fill="rgb(0,0,0)"/></g></g></svg>