<?xml version="1.0" encoding="UTF-8" standalone="no"?><!-- Generator: Gravit.io --><svg xmlns="http://www.w3.org/2000/svg" xmlns:xlink="http://www.w3.org/1999/xlink" style="isolation:isolate" viewBox="0 0 1 1" width="1pt" height="1pt"><defs><clipPath id="_clipPath_fH4kMKPewAZziMqiSuCzzxfPQN1URYjl"><rect width="1" height="1"/></clipPath></defs><g clip-path="url(#_clipPath_fH4kMKPewAZziMqiSuCzzxfPQN1URYjl)"><g><path d=" M 0 0.164 C 0 0.254 0.001 0.327 0.001 0.325 C 0.001 0.323 0.003 0.322 0.005 0.323 C 0.007 0.324 0.01 0.323 0.012 0.321 C 0.015 0.318 0.016 0.318 0.018 0.322 C 0.019 0.324 0.021 0.327 0.023 0.327 C 0.025 0.328 0.026 0.33 0.026 0.334 C 0.026 0.338 0.027 0.339 0.031 0.34 C 0.035 0.34 0.038 0.341 0.039 0.342 C 0.04 0.343 0.042 0.343 0.043 0.341 C 0.045 0.337 0.049 0.337 0.052 0.343 C 0.055 0.347 0.055 0.347 0.055 0.342 C 0.055 0.336 0.066 0.315 0.068 0.317 C 0.069 0.318 0.071 0.317 0.074 0.315 C 0.082 0.31 0.086 0.298 0.08 0.301 C 0.078 0.302 0.077 0.301 0.077 0.296 C 0.077 0.291 0.077 0.29 0.08 0.292 C 0.082 0.293 0.083 0.292 0.083 0.289 C 0.083 0.283 0.092 0.283 0.095 0.29 C 0.096 0.294 0.097 0.293 0.101 0.284 C 0.103 0.278 0.107 0.274 0.108 0.274 C 0.11 0.274 0.112 0.271 0.113 0.267 C 0.114 0.263 0.115 0.26 0.116 0.26 C 0.117 0.26 0.118 0.258 0.118 0.256 C 0.118 0.254 0.12 0.248 0.123 0.244 C 0.127 0.24 0.13 0.234 0.131 0.232 C 0.132 0.23 0.134 0.229 0.135 0.229 C 0.141 0.231 0.142 0.229 0.138 0.224 C 0.137 0.221 0.135 0.216 0.136 0.212 C 0.136 0.208 0.134 0.203 0.133 0.2 C 0.129 0.196 0.129 0.195 0.132 0.191 C 0.135 0.188 0.135 0.187 0.133 0.183 C 0.131 0.178 0.132 0.173 0.136 0.173 C 0.137 0.173 0.138 0.172 0.138 0.17 C 0.138 0.169 0.139 0.168 0.14 0.168 C 0.142 0.168 0.143 0.169 0.143 0.172 C 0.143 0.174 0.143 0.176 0.144 0.176 C 0.145 0.176 0.146 0.175 0.146 0.173 C 0.146 0.172 0.146 0.17 0.147 0.17 C 0.148 0.17 0.149 0.172 0.149 0.175 C 0.149 0.177 0.15 0.179 0.15 0.179 C 0.154 0.179 0.151 0.164 0.146 0.154 C 0.144 0.15 0.145 0.145 0.147 0.145 C 0.149 0.145 0.164 0.128 0.165 0.124 C 0.168 0.116 0.175 0.12 0.177 0.129 C 0.179 0.139 0.183 0.141 0.192 0.134 C 0.194 0.133 0.197 0.131 0.199 0.13 C 0.203 0.129 0.203 0.128 0.202 0.113 C 0.202 0.099 0.204 0.093 0.206 0.1 C 0.207 0.102 0.208 0.102 0.21 0.102 C 0.211 0.102 0.212 0.102 0.21 0.103 C 0.209 0.103 0.208 0.106 0.208 0.109 C 0.208 0.114 0.209 0.114 0.212 0.11 C 0.214 0.108 0.216 0.107 0.217 0.108 C 0.217 0.109 0.218 0.104 0.218 0.088 C 0.219 0.076 0.225 0.07 0.228 0.079 C 0.231 0.089 0.238 0.095 0.24 0.091 C 0.243 0.087 0.243 0.087 0.243 0.091 C 0.243 0.095 0.243 0.096 0.244 0.093 C 0.246 0.088 0.245 0.079 0.242 0.073 C 0.242 0.071 0.241 0.069 0.242 0.068 C 0.243 0.067 0.244 0.068 0.245 0.07 C 0.246 0.073 0.249 0.075 0.251 0.076 C 0.254 0.077 0.255 0.08 0.255 0.082 C 0.255 0.092 0.258 0.086 0.259 0.074 C 0.262 0.048 0.268 0.04 0.268 0.063 C 0.268 0.08 0.272 0.08 0.277 0.063 C 0.279 0.054 0.281 0.052 0.283 0.052 C 0.287 0.053 0.288 0.049 0.285 0.047 C 0.283 0.046 0.283 0.044 0.285 0.038 C 0.287 0.032 0.287 0.029 0.286 0.025 C 0.285 0.023 0.284 0.016 0.284 0.01 L 0.285 0 L 0.142 0 L 0 0 L 0 0.164 Z  M 0.716 0.011 C 0.712 0.026 0.712 0.028 0.721 0.028 C 0.73 0.028 0.733 0.031 0.731 0.041 C 0.728 0.062 0.731 0.088 0.736 0.077 C 0.737 0.074 0.739 0.073 0.741 0.073 C 0.742 0.074 0.745 0.073 0.746 0.071 C 0.747 0.07 0.747 0.072 0.745 0.076 C 0.737 0.093 0.737 0.1 0.742 0.11 C 0.744 0.114 0.746 0.119 0.746 0.121 C 0.746 0.126 0.75 0.128 0.756 0.128 C 0.759 0.128 0.76 0.13 0.76 0.133 C 0.76 0.138 0.765 0.138 0.769 0.133 C 0.779 0.12 0.791 0.127 0.785 0.142 C 0.778 0.158 0.78 0.169 0.789 0.16 C 0.793 0.156 0.795 0.158 0.795 0.165 C 0.795 0.168 0.793 0.171 0.79 0.173 C 0.784 0.176 0.786 0.182 0.794 0.185 C 0.796 0.185 0.797 0.188 0.797 0.19 C 0.797 0.196 0.8 0.196 0.805 0.189 C 0.81 0.181 0.813 0.18 0.814 0.186 C 0.815 0.189 0.818 0.19 0.823 0.19 C 0.832 0.19 0.833 0.196 0.825 0.204 C 0.823 0.206 0.82 0.209 0.82 0.21 C 0.819 0.212 0.817 0.212 0.815 0.211 C 0.811 0.209 0.808 0.216 0.81 0.222 C 0.812 0.225 0.812 0.228 0.81 0.233 C 0.806 0.243 0.806 0.244 0.814 0.242 C 0.818 0.241 0.822 0.242 0.822 0.243 C 0.823 0.247 0.83 0.244 0.833 0.239 C 0.836 0.234 0.839 0.237 0.845 0.25 C 0.849 0.258 0.86 0.262 0.863 0.257 C 0.864 0.255 0.866 0.254 0.868 0.255 C 0.869 0.256 0.873 0.254 0.876 0.251 C 0.882 0.244 0.885 0.247 0.884 0.258 C 0.883 0.269 0.885 0.277 0.886 0.27 C 0.887 0.266 0.887 0.266 0.89 0.27 C 0.892 0.273 0.893 0.276 0.892 0.276 C 0.889 0.28 0.89 0.307 0.893 0.305 C 0.895 0.304 0.897 0.302 0.897 0.3 C 0.897 0.295 0.897 0.295 0.902 0.299 C 0.904 0.301 0.906 0.305 0.906 0.308 C 0.907 0.313 0.908 0.314 0.911 0.313 C 0.922 0.311 0.927 0.321 0.921 0.332 C 0.919 0.336 0.923 0.344 0.928 0.344 C 0.929 0.344 0.932 0.347 0.935 0.351 C 0.938 0.354 0.942 0.358 0.944 0.358 C 0.947 0.358 0.948 0.358 0.948 0.359 C 0.946 0.362 0.953 0.369 0.954 0.367 C 0.959 0.362 0.964 0.371 0.964 0.384 C 0.963 0.398 0.968 0.41 0.974 0.411 C 0.976 0.412 0.977 0.414 0.978 0.418 C 0.979 0.428 0.982 0.436 0.985 0.436 C 0.988 0.436 0.99 0.44 0.994 0.453 L 1 0.471 L 1 0.235 L 1 0 L 0.859 0 L 0.719 0 L 0.716 0.011 Z  M 0.243 0.106 C 0.242 0.11 0.242 0.112 0.245 0.116 C 0.249 0.12 0.249 0.12 0.249 0.115 C 0.249 0.106 0.245 0.1 0.243 0.106 Z  M 0.451 0.132 C 0.449 0.135 0.448 0.136 0.447 0.136 C 0.446 0.135 0.445 0.136 0.445 0.139 C 0.444 0.143 0.442 0.144 0.429 0.145 C 0.408 0.146 0.39 0.154 0.384 0.164 C 0.382 0.168 0.379 0.17 0.378 0.17 C 0.377 0.17 0.374 0.175 0.372 0.181 C 0.368 0.192 0.364 0.195 0.358 0.195 C 0.353 0.196 0.353 0.191 0.358 0.187 C 0.36 0.185 0.362 0.182 0.362 0.18 C 0.362 0.177 0.363 0.176 0.363 0.177 C 0.364 0.178 0.365 0.176 0.365 0.174 C 0.365 0.171 0.365 0.167 0.365 0.163 C 0.366 0.159 0.365 0.158 0.363 0.158 C 0.361 0.157 0.359 0.156 0.358 0.155 C 0.357 0.154 0.356 0.155 0.356 0.158 C 0.356 0.162 0.355 0.162 0.352 0.161 C 0.347 0.159 0.347 0.16 0.35 0.174 C 0.351 0.178 0.351 0.179 0.348 0.179 C 0.346 0.179 0.345 0.18 0.345 0.182 C 0.345 0.183 0.344 0.184 0.344 0.183 C 0.343 0.183 0.343 0.188 0.343 0.194 C 0.343 0.208 0.34 0.216 0.336 0.214 C 0.334 0.214 0.333 0.211 0.333 0.204 C 0.333 0.195 0.333 0.194 0.327 0.194 C 0.324 0.194 0.322 0.195 0.322 0.196 C 0.324 0.201 0.321 0.204 0.318 0.201 C 0.316 0.199 0.315 0.2 0.313 0.203 C 0.312 0.205 0.311 0.207 0.31 0.207 C 0.309 0.207 0.309 0.205 0.31 0.204 C 0.312 0.202 0.312 0.201 0.311 0.201 C 0.307 0.201 0.307 0.207 0.31 0.215 C 0.314 0.225 0.314 0.225 0.303 0.226 C 0.292 0.227 0.289 0.228 0.282 0.236 C 0.279 0.24 0.275 0.243 0.274 0.243 C 0.272 0.243 0.27 0.245 0.269 0.247 C 0.264 0.256 0.257 0.261 0.255 0.256 C 0.252 0.25 0.248 0.248 0.243 0.253 C 0.24 0.257 0.239 0.257 0.237 0.255 C 0.234 0.252 0.234 0.253 0.233 0.261 C 0.233 0.266 0.233 0.27 0.234 0.271 C 0.237 0.275 0.233 0.284 0.223 0.298 C 0.216 0.307 0.212 0.314 0.212 0.317 C 0.212 0.32 0.212 0.322 0.21 0.322 C 0.209 0.322 0.208 0.322 0.208 0.324 C 0.208 0.326 0.207 0.329 0.205 0.332 C 0.204 0.335 0.202 0.34 0.202 0.342 C 0.202 0.344 0.2 0.347 0.198 0.348 C 0.196 0.349 0.193 0.353 0.191 0.361 C 0.189 0.368 0.186 0.376 0.185 0.38 C 0.179 0.395 0.177 0.455 0.183 0.463 C 0.184 0.466 0.188 0.472 0.19 0.478 C 0.199 0.5 0.208 0.517 0.211 0.517 C 0.213 0.517 0.215 0.518 0.214 0.519 C 0.214 0.521 0.215 0.523 0.217 0.524 C 0.22 0.525 0.222 0.527 0.223 0.53 C 0.224 0.532 0.229 0.534 0.237 0.535 C 0.245 0.537 0.249 0.539 0.252 0.543 C 0.254 0.546 0.258 0.549 0.261 0.549 C 0.263 0.549 0.266 0.55 0.266 0.55 C 0.267 0.551 0.268 0.551 0.269 0.551 C 0.271 0.552 0.279 0.565 0.279 0.569 C 0.279 0.575 0.274 0.573 0.27 0.567 C 0.267 0.56 0.261 0.56 0.256 0.566 C 0.252 0.571 0.251 0.575 0.256 0.575 C 0.257 0.575 0.261 0.577 0.263 0.579 C 0.265 0.581 0.27 0.584 0.273 0.585 C 0.291 0.59 0.296 0.594 0.293 0.599 C 0.288 0.605 0.294 0.607 0.304 0.605 C 0.313 0.602 0.326 0.611 0.326 0.619 C 0.325 0.622 0.327 0.625 0.329 0.626 C 0.331 0.627 0.333 0.629 0.333 0.632 C 0.333 0.64 0.337 0.651 0.341 0.651 C 0.343 0.651 0.343 0.652 0.343 0.658 C 0.342 0.663 0.342 0.665 0.343 0.663 C 0.344 0.662 0.345 0.664 0.345 0.667 C 0.345 0.67 0.344 0.674 0.343 0.675 C 0.341 0.677 0.343 0.706 0.345 0.712 C 0.347 0.715 0.347 0.715 0.348 0.709 C 0.349 0.705 0.35 0.702 0.352 0.702 C 0.356 0.701 0.357 0.704 0.354 0.708 C 0.353 0.71 0.353 0.715 0.354 0.721 C 0.355 0.726 0.356 0.729 0.356 0.726 C 0.356 0.722 0.358 0.725 0.358 0.73 C 0.358 0.732 0.359 0.736 0.359 0.74 C 0.359 0.744 0.36 0.748 0.361 0.749 C 0.363 0.751 0.359 0.765 0.357 0.765 C 0.357 0.765 0.356 0.767 0.356 0.769 C 0.356 0.774 0.36 0.777 0.362 0.775 C 0.363 0.774 0.365 0.775 0.366 0.778 C 0.368 0.784 0.376 0.785 0.376 0.779 C 0.377 0.767 0.372 0.751 0.367 0.751 C 0.366 0.751 0.364 0.742 0.364 0.737 C 0.364 0.732 0.367 0.735 0.372 0.746 C 0.377 0.755 0.384 0.763 0.402 0.783 C 0.413 0.795 0.418 0.803 0.418 0.806 C 0.418 0.81 0.42 0.811 0.428 0.809 C 0.434 0.809 0.44 0.809 0.442 0.811 C 0.445 0.813 0.446 0.813 0.447 0.81 C 0.449 0.802 0.526 0.801 0.529 0.809 C 0.529 0.81 0.53 0.81 0.53 0.807 C 0.53 0.802 0.537 0.803 0.543 0.808 C 0.546 0.81 0.548 0.81 0.552 0.807 C 0.555 0.805 0.557 0.804 0.558 0.807 C 0.561 0.812 0.563 0.81 0.561 0.805 C 0.557 0.799 0.557 0.791 0.56 0.791 C 0.561 0.791 0.563 0.792 0.564 0.795 C 0.567 0.8 0.567 0.8 0.573 0.79 C 0.576 0.786 0.579 0.782 0.581 0.782 C 0.582 0.782 0.583 0.781 0.583 0.78 C 0.583 0.778 0.587 0.775 0.592 0.773 C 0.598 0.769 0.602 0.765 0.606 0.756 C 0.611 0.746 0.615 0.742 0.622 0.737 C 0.632 0.731 0.637 0.727 0.638 0.723 C 0.638 0.714 0.644 0.703 0.648 0.699 C 0.651 0.697 0.654 0.693 0.655 0.689 C 0.657 0.683 0.662 0.673 0.664 0.673 C 0.666 0.673 0.668 0.666 0.668 0.658 C 0.669 0.645 0.671 0.631 0.673 0.631 C 0.673 0.631 0.674 0.63 0.674 0.628 C 0.674 0.626 0.676 0.621 0.678 0.616 C 0.68 0.611 0.682 0.603 0.682 0.598 C 0.682 0.594 0.683 0.588 0.685 0.585 C 0.687 0.582 0.688 0.578 0.688 0.575 C 0.688 0.572 0.689 0.57 0.691 0.57 C 0.695 0.57 0.697 0.563 0.695 0.554 C 0.693 0.546 0.694 0.539 0.697 0.539 C 0.698 0.539 0.699 0.538 0.698 0.536 C 0.693 0.52 0.704 0.466 0.713 0.466 C 0.714 0.466 0.715 0.465 0.715 0.463 C 0.715 0.461 0.716 0.457 0.717 0.455 C 0.718 0.454 0.72 0.447 0.72 0.441 C 0.721 0.435 0.722 0.429 0.723 0.429 C 0.724 0.428 0.724 0.426 0.723 0.424 C 0.723 0.423 0.723 0.422 0.724 0.422 C 0.725 0.423 0.726 0.421 0.726 0.418 C 0.726 0.418 0.725 0.412 0.725 0.405 C 0.724 0.373 0.723 0.363 0.72 0.356 C 0.716 0.34 0.708 0.312 0.708 0.31 C 0.708 0.307 0.701 0.293 0.692 0.277 C 0.689 0.272 0.687 0.266 0.687 0.264 C 0.687 0.263 0.685 0.259 0.682 0.256 C 0.68 0.253 0.675 0.243 0.672 0.234 C 0.668 0.219 0.666 0.216 0.662 0.216 C 0.659 0.216 0.658 0.215 0.658 0.213 C 0.658 0.211 0.655 0.207 0.652 0.205 C 0.648 0.203 0.645 0.2 0.644 0.199 C 0.643 0.197 0.639 0.195 0.636 0.194 C 0.632 0.193 0.629 0.19 0.629 0.186 C 0.628 0.182 0.627 0.181 0.62 0.183 C 0.614 0.184 0.611 0.183 0.607 0.18 C 0.602 0.176 0.585 0.169 0.566 0.164 C 0.559 0.162 0.553 0.159 0.551 0.157 C 0.549 0.155 0.547 0.155 0.546 0.156 C 0.545 0.158 0.541 0.159 0.536 0.159 C 0.524 0.16 0.522 0.16 0.522 0.156 C 0.523 0.154 0.524 0.153 0.526 0.153 C 0.529 0.154 0.53 0.152 0.53 0.142 C 0.531 0.126 0.528 0.124 0.514 0.133 C 0.512 0.134 0.511 0.136 0.513 0.141 C 0.514 0.15 0.511 0.153 0.504 0.149 C 0.501 0.146 0.499 0.146 0.498 0.148 C 0.497 0.15 0.495 0.15 0.493 0.149 C 0.492 0.148 0.491 0.149 0.491 0.151 C 0.491 0.157 0.484 0.153 0.48 0.145 C 0.475 0.137 0.475 0.137 0.472 0.14 C 0.47 0.143 0.47 0.143 0.469 0.14 C 0.469 0.138 0.466 0.137 0.464 0.137 C 0.461 0.137 0.459 0.135 0.458 0.133 C 0.457 0.126 0.454 0.126 0.451 0.132 Z  M 0.167 0.144 C 0.165 0.146 0.165 0.148 0.166 0.149 C 0.169 0.15 0.178 0.147 0.176 0.145 C 0.172 0.141 0.17 0.141 0.167 0.144 Z  M 0.143 0.151 C 0.143 0.155 0.142 0.156 0.139 0.156 C 0.137 0.156 0.135 0.155 0.135 0.153 C 0.135 0.152 0.136 0.151 0.136 0.152 C 0.137 0.153 0.138 0.152 0.138 0.15 C 0.138 0.147 0.139 0.145 0.14 0.145 C 0.142 0.145 0.143 0.148 0.143 0.151 Z  M 0.817 0.266 C 0.816 0.27 0.819 0.276 0.821 0.272 C 0.823 0.269 0.822 0.263 0.82 0.263 C 0.819 0.263 0.818 0.264 0.817 0.266 Z  M 0 0.349 C 0 0.355 0.001 0.357 0.001 0.354 C 0.001 0.351 0.001 0.347 0.001 0.344 C 0.001 0.342 0 0.344 0 0.349 Z  M 0.092 0.558 C 0.089 0.57 0.092 0.575 0.099 0.573 C 0.1 0.573 0.102 0.574 0.104 0.577 C 0.108 0.583 0.111 0.574 0.107 0.566 C 0.106 0.563 0.105 0.561 0.105 0.563 C 0.105 0.564 0.103 0.563 0.101 0.561 C 0.096 0.554 0.093 0.553 0.092 0.558 Z  M 0.155 0.585 C 0.154 0.588 0.153 0.595 0.153 0.599 C 0.152 0.604 0.151 0.609 0.15 0.612 C 0.149 0.614 0.149 0.614 0.151 0.611 C 0.156 0.604 0.158 0.605 0.159 0.613 C 0.16 0.62 0.16 0.62 0.162 0.615 C 0.166 0.604 0.167 0.598 0.162 0.595 C 0.16 0.593 0.158 0.589 0.157 0.586 C 0.156 0.58 0.156 0.58 0.155 0.585 Z  M 0.131 0.59 C 0.129 0.593 0.127 0.598 0.127 0.602 C 0.127 0.606 0.126 0.609 0.126 0.609 C 0.123 0.609 0.119 0.628 0.122 0.63 C 0.125 0.632 0.125 0.632 0.125 0.627 C 0.125 0.625 0.126 0.623 0.127 0.623 C 0.128 0.623 0.129 0.62 0.129 0.617 C 0.129 0.614 0.129 0.612 0.131 0.612 C 0.134 0.612 0.139 0.594 0.137 0.589 C 0.136 0.585 0.135 0.585 0.131 0.59 Z  M 0.066 0.596 C 0.064 0.601 0.062 0.607 0.062 0.61 C 0.063 0.615 0.069 0.616 0.069 0.611 C 0.069 0.609 0.07 0.603 0.07 0.597 C 0.07 0.584 0.071 0.584 0.066 0.596 Z  M 0.132 0.617 C 0.132 0.619 0.132 0.62 0.133 0.62 C 0.134 0.62 0.134 0.622 0.134 0.624 C 0.133 0.627 0.134 0.628 0.135 0.628 C 0.136 0.628 0.136 0.627 0.136 0.626 C 0.135 0.624 0.135 0.623 0.136 0.623 C 0.137 0.623 0.138 0.621 0.139 0.618 C 0.139 0.614 0.139 0.614 0.137 0.617 C 0.136 0.62 0.135 0.62 0.135 0.618 C 0.135 0.616 0.134 0.615 0.133 0.615 C 0.132 0.615 0.132 0.616 0.132 0.617 Z  M 0.182 0.63 C 0.182 0.634 0.183 0.637 0.184 0.637 C 0.186 0.637 0.187 0.634 0.187 0.63 C 0.187 0.626 0.186 0.623 0.184 0.623 C 0.183 0.623 0.182 0.626 0.182 0.63 Z  M 0 0.815 L 0 1 L 0.13 1 C 0.201 0.999 0.257 0.999 0.255 0.998 C 0.251 0.997 0.249 0.992 0.252 0.991 C 0.253 0.991 0.255 0.991 0.255 0.991 C 0.258 0.99 0.259 0.986 0.256 0.986 C 0.254 0.986 0.25 0.982 0.247 0.977 L 0.241 0.968 L 0.248 0.957 C 0.251 0.951 0.254 0.945 0.253 0.945 C 0.252 0.944 0.251 0.942 0.251 0.94 C 0.251 0.935 0.249 0.934 0.238 0.932 C 0.223 0.928 0.221 0.92 0.235 0.914 C 0.239 0.912 0.244 0.909 0.246 0.907 L 0.25 0.904 L 0.246 0.903 C 0.244 0.902 0.241 0.901 0.241 0.899 C 0.24 0.898 0.238 0.897 0.237 0.897 C 0.236 0.897 0.232 0.891 0.229 0.884 C 0.218 0.865 0.218 0.864 0.22 0.86 C 0.221 0.858 0.221 0.857 0.22 0.859 C 0.219 0.86 0.216 0.858 0.214 0.854 L 0.21 0.847 L 0.214 0.845 C 0.217 0.844 0.219 0.843 0.22 0.842 C 0.221 0.842 0.226 0.827 0.224 0.827 C 0.224 0.827 0.222 0.829 0.22 0.831 C 0.218 0.834 0.215 0.836 0.213 0.836 C 0.211 0.837 0.207 0.839 0.205 0.84 C 0.199 0.845 0.198 0.844 0.197 0.839 C 0.196 0.837 0.195 0.835 0.194 0.835 C 0.191 0.835 0.191 0.834 0.194 0.824 C 0.195 0.82 0.195 0.814 0.195 0.812 C 0.194 0.809 0.195 0.805 0.196 0.803 C 0.199 0.797 0.199 0.791 0.197 0.787 C 0.195 0.786 0.194 0.783 0.194 0.78 C 0.194 0.778 0.193 0.777 0.192 0.777 C 0.189 0.777 0.186 0.781 0.187 0.784 C 0.188 0.786 0.187 0.787 0.185 0.786 C 0.183 0.785 0.18 0.786 0.179 0.789 C 0.176 0.793 0.176 0.793 0.175 0.786 C 0.173 0.771 0.173 0.731 0.174 0.724 C 0.177 0.71 0.168 0.697 0.164 0.71 C 0.162 0.716 0.157 0.717 0.157 0.711 C 0.157 0.709 0.159 0.704 0.162 0.698 C 0.169 0.686 0.169 0.686 0.161 0.677 C 0.154 0.668 0.153 0.662 0.156 0.653 C 0.159 0.646 0.159 0.639 0.156 0.646 C 0.155 0.649 0.152 0.652 0.149 0.652 C 0.142 0.653 0.14 0.66 0.144 0.668 C 0.146 0.671 0.147 0.676 0.147 0.678 C 0.146 0.681 0.146 0.684 0.146 0.685 C 0.145 0.695 0.133 0.707 0.13 0.7 C 0.129 0.697 0.127 0.696 0.126 0.696 C 0.123 0.696 0.123 0.677 0.126 0.661 C 0.128 0.643 0.124 0.65 0.115 0.678 C 0.115 0.68 0.115 0.685 0.117 0.689 C 0.118 0.693 0.119 0.696 0.117 0.697 C 0.117 0.698 0.115 0.696 0.115 0.693 C 0.114 0.69 0.113 0.687 0.112 0.687 C 0.11 0.687 0.11 0.685 0.11 0.679 C 0.111 0.673 0.111 0.671 0.107 0.668 C 0.103 0.664 0.102 0.658 0.106 0.654 C 0.109 0.651 0.108 0.641 0.104 0.643 C 0.103 0.644 0.101 0.643 0.1 0.642 C 0.099 0.639 0.099 0.641 0.101 0.646 C 0.102 0.653 0.102 0.655 0.1 0.658 C 0.099 0.659 0.097 0.665 0.097 0.671 C 0.096 0.684 0.092 0.685 0.09 0.673 C 0.088 0.662 0.084 0.659 0.082 0.667 C 0.081 0.676 0.079 0.672 0.078 0.657 C 0.076 0.636 0.075 0.633 0.073 0.637 C 0.072 0.639 0.071 0.643 0.071 0.645 C 0.071 0.65 0.066 0.659 0.065 0.656 C 0.065 0.656 0.06 0.66 0.055 0.666 C 0.044 0.679 0.042 0.687 0.043 0.705 C 0.044 0.717 0.044 0.718 0.039 0.722 C 0.035 0.726 0.035 0.726 0.035 0.722 C 0.036 0.72 0.037 0.718 0.038 0.718 C 0.039 0.718 0.039 0.716 0.038 0.713 C 0.037 0.71 0.037 0.705 0.037 0.701 C 0.039 0.674 0.039 0.661 0.037 0.668 C 0.034 0.674 0.034 0.674 0.035 0.668 C 0.036 0.66 0.032 0.653 0.03 0.659 C 0.029 0.662 0.028 0.666 0.028 0.669 C 0.028 0.68 0.023 0.672 0.023 0.66 C 0.022 0.642 0.014 0.628 0.008 0.635 C 0.004 0.639 0.003 0.639 0.002 0.635 C 0.001 0.631 0 0.692 0 0.815 Z  M 0.164 0.636 C 0.163 0.638 0.163 0.641 0.164 0.642 C 0.165 0.644 0.169 0.637 0.169 0.634 C 0.169 0.63 0.165 0.631 0.164 0.636 Z  M 0.176 0.64 C 0.175 0.643 0.173 0.645 0.171 0.645 C 0.168 0.644 0.167 0.646 0.166 0.652 C 0.164 0.666 0.173 0.659 0.176 0.644 C 0.179 0.633 0.178 0.631 0.176 0.64 Z  M 0.283 0.636 C 0.282 0.637 0.281 0.639 0.281 0.642 C 0.281 0.644 0.278 0.65 0.275 0.655 C 0.267 0.668 0.266 0.691 0.273 0.704 C 0.275 0.708 0.277 0.714 0.277 0.716 C 0.277 0.721 0.292 0.727 0.307 0.728 C 0.315 0.728 0.319 0.729 0.322 0.733 C 0.324 0.737 0.325 0.738 0.326 0.736 C 0.327 0.73 0.331 0.721 0.33 0.727 C 0.33 0.73 0.33 0.732 0.331 0.732 C 0.336 0.732 0.333 0.691 0.327 0.677 C 0.324 0.671 0.321 0.664 0.321 0.662 C 0.315 0.645 0.295 0.632 0.283 0.636 Z  M 0.195 0.672 C 0.194 0.677 0.198 0.684 0.201 0.684 C 0.203 0.684 0.202 0.675 0.2 0.671 C 0.198 0.666 0.196 0.667 0.195 0.672 Z  M 0.181 0.696 C 0.18 0.699 0.183 0.704 0.186 0.703 C 0.187 0.702 0.188 0.7 0.188 0.697 C 0.188 0.692 0.183 0.691 0.181 0.696 Z  M 0.219 0.717 C 0.215 0.718 0.213 0.722 0.217 0.724 C 0.219 0.726 0.227 0.719 0.225 0.717 C 0.224 0.717 0.221 0.717 0.219 0.717 Z  M 0.21 0.737 C 0.207 0.74 0.209 0.749 0.212 0.752 C 0.216 0.756 0.218 0.753 0.215 0.746 C 0.214 0.743 0.213 0.739 0.214 0.737 C 0.215 0.734 0.211 0.734 0.21 0.737 Z  M 0.031 0.747 C 0.031 0.75 0.03 0.751 0.029 0.751 C 0.028 0.751 0.027 0.75 0.027 0.747 C 0.027 0.745 0.028 0.743 0.029 0.743 C 0.03 0.743 0.031 0.745 0.031 0.747 Z  M 0.031 0.762 C 0.031 0.767 0.027 0.766 0.027 0.761 C 0.027 0.758 0.027 0.757 0.028 0.758 C 0.03 0.758 0.031 0.76 0.031 0.762 Z  M 0.192 0.761 C 0.193 0.763 0.192 0.765 0.191 0.765 C 0.19 0.765 0.19 0.767 0.19 0.769 C 0.19 0.772 0.191 0.773 0.192 0.772 C 0.193 0.771 0.194 0.769 0.194 0.766 C 0.194 0.764 0.195 0.763 0.196 0.763 C 0.197 0.763 0.197 0.761 0.197 0.76 C 0.197 0.758 0.196 0.757 0.194 0.757 C 0.192 0.757 0.192 0.758 0.192 0.761 Z  M 0.531 0.815 C 0.531 0.82 0.534 0.821 0.535 0.817 C 0.536 0.814 0.535 0.813 0.534 0.813 C 0.532 0.813 0.531 0.814 0.531 0.815 Z " fill-rule="evenodd" fill="rgb(0,0,0)"/></g></g></svg>