<?xml version="1.0" encoding="UTF-8" standalone="no"?><!-- Generator: Gravit.io --><svg xmlns="http://www.w3.org/2000/svg" xmlns:xlink="http://www.w3.org/1999/xlink" style="isolation:isolate" viewBox="0 0 1 1" width="1pt" height="1pt"><defs><clipPath id="_clipPath_STR3TMV4IJ5rXQ1AKrX4ujJwsKL8z2nj"><rect width="1" height="1"/></clipPath></defs><g clip-path="url(#_clipPath_STR3TMV4IJ5rXQ1AKrX4ujJwsKL8z2nj)"><g><path d=" M 0 0.166 C 0 0.288 0 0.332 0.002 0.331 C 0.003 0.33 0.004 0.331 0.005 0.333 C 0.006 0.336 0.006 0.336 0.008 0.333 C 0.01 0.331 0.012 0.33 0.013 0.331 C 0.014 0.333 0.017 0.335 0.02 0.337 C 0.029 0.341 0.028 0.35 0.019 0.351 C 0.013 0.352 0.013 0.352 0.014 0.362 C 0.014 0.368 0.014 0.372 0.013 0.372 C 0.01 0.372 0.011 0.379 0.015 0.382 C 0.019 0.386 0.02 0.384 0.02 0.375 C 0.02 0.37 0.021 0.369 0.023 0.369 C 0.024 0.37 0.028 0.365 0.031 0.36 C 0.038 0.348 0.047 0.343 0.053 0.345 C 0.057 0.347 0.058 0.346 0.058 0.342 C 0.058 0.333 0.064 0.326 0.07 0.325 C 0.073 0.325 0.077 0.324 0.079 0.324 C 0.08 0.324 0.082 0.321 0.082 0.319 C 0.082 0.316 0.083 0.312 0.084 0.31 C 0.085 0.308 0.086 0.303 0.087 0.298 C 0.087 0.285 0.094 0.285 0.096 0.297 C 0.096 0.302 0.097 0.305 0.098 0.305 C 0.098 0.305 0.099 0.304 0.1 0.304 C 0.101 0.304 0.102 0.301 0.102 0.298 C 0.102 0.293 0.103 0.289 0.106 0.286 C 0.109 0.283 0.111 0.28 0.112 0.278 C 0.112 0.276 0.113 0.276 0.113 0.277 C 0.113 0.279 0.115 0.276 0.117 0.272 C 0.119 0.269 0.121 0.265 0.122 0.265 C 0.123 0.265 0.124 0.262 0.124 0.258 C 0.124 0.253 0.125 0.251 0.128 0.251 C 0.131 0.251 0.132 0.25 0.131 0.245 C 0.131 0.24 0.132 0.239 0.135 0.239 C 0.138 0.239 0.14 0.237 0.141 0.234 C 0.143 0.228 0.141 0.215 0.139 0.215 C 0.136 0.215 0.134 0.206 0.136 0.196 C 0.137 0.184 0.139 0.182 0.146 0.183 C 0.15 0.184 0.152 0.183 0.154 0.179 C 0.157 0.174 0.157 0.173 0.155 0.173 C 0.153 0.173 0.152 0.169 0.151 0.16 C 0.15 0.145 0.153 0.137 0.161 0.137 C 0.164 0.137 0.166 0.135 0.167 0.131 C 0.17 0.12 0.175 0.121 0.176 0.133 C 0.176 0.14 0.176 0.142 0.174 0.141 C 0.172 0.14 0.165 0.145 0.165 0.148 C 0.165 0.15 0.168 0.151 0.171 0.151 C 0.177 0.152 0.178 0.153 0.178 0.159 C 0.179 0.164 0.179 0.165 0.181 0.162 C 0.182 0.16 0.183 0.16 0.183 0.161 C 0.183 0.162 0.185 0.161 0.186 0.158 C 0.188 0.155 0.19 0.154 0.191 0.155 C 0.193 0.157 0.193 0.155 0.191 0.148 C 0.188 0.141 0.19 0.139 0.196 0.141 C 0.201 0.143 0.201 0.144 0.202 0.152 C 0.202 0.157 0.203 0.165 0.204 0.171 C 0.206 0.178 0.207 0.186 0.207 0.195 C 0.206 0.203 0.207 0.21 0.207 0.209 C 0.208 0.209 0.208 0.206 0.208 0.203 C 0.208 0.199 0.209 0.195 0.21 0.194 C 0.211 0.193 0.211 0.191 0.21 0.188 C 0.21 0.185 0.21 0.184 0.211 0.185 C 0.212 0.187 0.214 0.185 0.215 0.18 C 0.216 0.176 0.217 0.173 0.218 0.173 C 0.218 0.173 0.219 0.167 0.219 0.16 C 0.219 0.146 0.219 0.146 0.215 0.147 C 0.211 0.148 0.21 0.147 0.209 0.14 C 0.206 0.126 0.206 0.12 0.21 0.12 C 0.212 0.12 0.213 0.118 0.213 0.116 C 0.213 0.112 0.214 0.111 0.217 0.112 C 0.222 0.113 0.222 0.113 0.222 0.099 C 0.222 0.08 0.226 0.078 0.23 0.095 C 0.232 0.101 0.234 0.106 0.235 0.106 C 0.236 0.106 0.237 0.109 0.238 0.112 C 0.238 0.116 0.239 0.117 0.24 0.114 C 0.241 0.113 0.242 0.112 0.244 0.113 C 0.246 0.115 0.247 0.124 0.245 0.127 C 0.244 0.128 0.244 0.13 0.245 0.133 C 0.249 0.139 0.249 0.138 0.249 0.126 C 0.249 0.12 0.25 0.115 0.251 0.115 C 0.254 0.115 0.252 0.108 0.247 0.105 C 0.244 0.102 0.241 0.1 0.241 0.099 C 0.241 0.091 0.255 0.087 0.256 0.094 C 0.257 0.1 0.26 0.099 0.26 0.091 C 0.26 0.083 0.264 0.075 0.268 0.076 C 0.27 0.077 0.27 0.079 0.27 0.085 C 0.27 0.089 0.271 0.092 0.272 0.092 C 0.274 0.092 0.277 0.08 0.277 0.071 C 0.277 0.067 0.278 0.064 0.279 0.064 C 0.28 0.064 0.28 0.062 0.28 0.059 C 0.279 0.055 0.279 0.053 0.28 0.053 C 0.285 0.053 0.285 0.052 0.285 0.064 C 0.286 0.077 0.287 0.06 0.288 0.032 L 0.289 0 L 0.145 0 L 0 0 L 0 0.166 Z  M 0.694 0.003 C 0.697 0.005 0.698 0.007 0.697 0.013 C 0.696 0.018 0.696 0.025 0.695 0.029 L 0.695 0.038 L 0.707 0.038 C 0.726 0.038 0.729 0.041 0.72 0.048 C 0.715 0.052 0.715 0.054 0.722 0.06 C 0.728 0.066 0.729 0.072 0.724 0.075 C 0.72 0.077 0.72 0.084 0.725 0.084 C 0.729 0.084 0.734 0.093 0.734 0.103 C 0.734 0.107 0.735 0.112 0.736 0.115 C 0.739 0.121 0.739 0.121 0.734 0.128 C 0.729 0.136 0.727 0.145 0.731 0.145 C 0.732 0.145 0.734 0.143 0.735 0.141 C 0.738 0.135 0.747 0.136 0.749 0.141 C 0.75 0.146 0.759 0.146 0.765 0.141 C 0.771 0.137 0.773 0.146 0.77 0.159 C 0.767 0.173 0.767 0.18 0.771 0.177 C 0.772 0.177 0.776 0.179 0.779 0.182 C 0.783 0.185 0.787 0.187 0.788 0.187 C 0.792 0.187 0.792 0.191 0.79 0.202 C 0.789 0.209 0.789 0.21 0.792 0.21 C 0.794 0.21 0.797 0.211 0.798 0.211 C 0.799 0.211 0.801 0.212 0.802 0.212 C 0.805 0.212 0.803 0.224 0.799 0.231 C 0.796 0.237 0.796 0.237 0.798 0.237 C 0.802 0.237 0.802 0.239 0.799 0.247 C 0.795 0.256 0.797 0.263 0.802 0.26 C 0.808 0.255 0.813 0.259 0.813 0.269 C 0.813 0.278 0.817 0.282 0.821 0.277 C 0.824 0.274 0.826 0.262 0.824 0.258 C 0.823 0.256 0.823 0.254 0.823 0.254 C 0.825 0.253 0.829 0.251 0.832 0.25 C 0.836 0.248 0.836 0.251 0.833 0.263 L 0.83 0.272 L 0.835 0.267 C 0.844 0.256 0.851 0.265 0.844 0.279 C 0.841 0.285 0.841 0.287 0.842 0.289 C 0.844 0.29 0.846 0.287 0.849 0.281 C 0.855 0.267 0.874 0.257 0.877 0.266 C 0.878 0.268 0.879 0.281 0.879 0.295 C 0.879 0.315 0.879 0.32 0.881 0.32 C 0.882 0.32 0.884 0.321 0.884 0.323 C 0.885 0.324 0.886 0.324 0.886 0.322 C 0.886 0.314 0.891 0.313 0.896 0.32 C 0.899 0.326 0.901 0.327 0.908 0.325 C 0.916 0.324 0.918 0.33 0.914 0.343 C 0.912 0.349 0.918 0.359 0.922 0.356 C 0.923 0.355 0.927 0.359 0.93 0.366 C 0.933 0.373 0.936 0.377 0.936 0.375 C 0.936 0.373 0.937 0.373 0.941 0.375 C 0.945 0.376 0.95 0.377 0.953 0.377 C 0.959 0.376 0.962 0.38 0.958 0.384 C 0.956 0.386 0.956 0.391 0.957 0.402 C 0.957 0.411 0.958 0.421 0.958 0.426 C 0.959 0.444 0.962 0.446 0.968 0.43 L 0.972 0.418 L 0.978 0.43 C 0.981 0.436 0.985 0.441 0.986 0.441 C 0.987 0.441 0.987 0.444 0.987 0.448 C 0.987 0.452 0.99 0.459 0.994 0.466 L 1 0.477 L 1 0.238 L 1 0 L 0.845 0 C 0.746 0 0.692 0.001 0.694 0.003 Z  M 0.269 0.068 C 0.268 0.071 0.267 0.073 0.266 0.073 C 0.262 0.073 0.263 0.065 0.266 0.064 C 0.27 0.062 0.27 0.063 0.269 0.068 Z  M 0.449 0.117 C 0.448 0.118 0.447 0.121 0.447 0.123 C 0.447 0.126 0.446 0.127 0.442 0.126 C 0.438 0.126 0.437 0.126 0.438 0.13 C 0.44 0.139 0.436 0.142 0.425 0.143 C 0.419 0.143 0.41 0.145 0.405 0.147 C 0.4 0.149 0.394 0.152 0.391 0.153 C 0.385 0.155 0.373 0.17 0.369 0.181 C 0.367 0.187 0.364 0.191 0.361 0.192 C 0.353 0.194 0.353 0.191 0.359 0.18 C 0.364 0.172 0.365 0.169 0.365 0.158 L 0.365 0.145 L 0.36 0.147 C 0.357 0.148 0.355 0.15 0.354 0.151 C 0.354 0.153 0.353 0.154 0.352 0.153 C 0.349 0.152 0.345 0.157 0.346 0.16 C 0.346 0.162 0.344 0.166 0.342 0.17 C 0.339 0.173 0.337 0.179 0.337 0.183 C 0.336 0.189 0.336 0.189 0.338 0.187 C 0.341 0.182 0.344 0.187 0.343 0.195 C 0.34 0.213 0.331 0.214 0.33 0.197 C 0.329 0.186 0.329 0.185 0.326 0.187 C 0.324 0.189 0.323 0.189 0.323 0.188 C 0.323 0.187 0.322 0.187 0.321 0.19 C 0.32 0.192 0.319 0.193 0.317 0.19 C 0.314 0.188 0.314 0.188 0.313 0.192 C 0.312 0.194 0.311 0.195 0.31 0.194 C 0.308 0.193 0.307 0.194 0.309 0.198 C 0.31 0.202 0.31 0.204 0.307 0.205 C 0.306 0.205 0.304 0.205 0.304 0.203 C 0.303 0.201 0.302 0.2 0.302 0.201 C 0.3 0.205 0.303 0.213 0.306 0.211 C 0.307 0.211 0.309 0.212 0.311 0.215 C 0.314 0.222 0.312 0.223 0.3 0.223 C 0.295 0.223 0.29 0.226 0.283 0.232 C 0.278 0.236 0.272 0.24 0.271 0.24 C 0.269 0.24 0.268 0.242 0.268 0.243 C 0.268 0.245 0.266 0.248 0.263 0.251 C 0.26 0.253 0.257 0.256 0.257 0.258 C 0.257 0.259 0.255 0.262 0.252 0.265 C 0.249 0.267 0.246 0.27 0.246 0.271 C 0.246 0.273 0.245 0.274 0.244 0.274 C 0.243 0.274 0.243 0.27 0.244 0.264 L 0.245 0.254 L 0.24 0.259 C 0.235 0.263 0.233 0.27 0.235 0.272 C 0.24 0.275 0.22 0.302 0.211 0.305 C 0.209 0.305 0.208 0.307 0.208 0.309 C 0.208 0.313 0.198 0.327 0.195 0.327 C 0.192 0.327 0.176 0.356 0.176 0.361 C 0.176 0.364 0.174 0.371 0.171 0.377 C 0.167 0.39 0.165 0.434 0.169 0.451 C 0.174 0.471 0.19 0.506 0.194 0.506 C 0.196 0.506 0.204 0.52 0.204 0.524 C 0.204 0.525 0.207 0.529 0.21 0.532 C 0.214 0.535 0.219 0.541 0.222 0.546 C 0.224 0.55 0.228 0.554 0.23 0.554 C 0.244 0.556 0.234 0.581 0.22 0.581 C 0.218 0.581 0.216 0.583 0.215 0.585 C 0.214 0.591 0.218 0.598 0.221 0.596 C 0.222 0.595 0.226 0.594 0.229 0.593 C 0.232 0.593 0.236 0.593 0.238 0.593 C 0.24 0.592 0.242 0.59 0.244 0.588 C 0.249 0.578 0.284 0.587 0.283 0.598 C 0.283 0.604 0.29 0.609 0.299 0.609 C 0.314 0.608 0.321 0.611 0.321 0.619 C 0.321 0.624 0.322 0.626 0.326 0.627 C 0.329 0.628 0.331 0.631 0.332 0.64 C 0.334 0.647 0.336 0.652 0.337 0.653 C 0.34 0.654 0.342 0.671 0.34 0.682 C 0.339 0.688 0.339 0.693 0.341 0.703 C 0.342 0.711 0.344 0.721 0.345 0.726 L 0.346 0.736 L 0.346 0.728 C 0.347 0.708 0.35 0.703 0.356 0.709 C 0.358 0.711 0.357 0.713 0.354 0.717 C 0.351 0.722 0.351 0.724 0.352 0.731 C 0.354 0.737 0.354 0.737 0.354 0.733 C 0.354 0.725 0.359 0.741 0.359 0.75 C 0.359 0.753 0.36 0.757 0.361 0.759 C 0.363 0.763 0.361 0.773 0.357 0.777 C 0.353 0.781 0.353 0.785 0.358 0.785 C 0.365 0.785 0.372 0.799 0.366 0.803 C 0.365 0.803 0.365 0.804 0.367 0.806 C 0.371 0.809 0.375 0.806 0.376 0.799 C 0.376 0.795 0.378 0.793 0.38 0.793 C 0.384 0.793 0.384 0.793 0.382 0.787 C 0.38 0.784 0.379 0.779 0.379 0.777 C 0.379 0.772 0.368 0.754 0.366 0.754 C 0.363 0.754 0.36 0.739 0.362 0.736 C 0.363 0.735 0.367 0.74 0.373 0.75 C 0.378 0.759 0.384 0.769 0.386 0.772 C 0.389 0.774 0.392 0.778 0.393 0.779 C 0.395 0.78 0.398 0.783 0.4 0.785 C 0.409 0.792 0.418 0.805 0.418 0.81 C 0.418 0.816 0.425 0.817 0.432 0.813 C 0.436 0.811 0.438 0.811 0.44 0.813 C 0.443 0.815 0.444 0.815 0.447 0.812 C 0.449 0.81 0.453 0.809 0.456 0.808 C 0.459 0.808 0.47 0.807 0.48 0.806 C 0.49 0.805 0.503 0.806 0.509 0.807 C 0.518 0.81 0.521 0.81 0.523 0.807 C 0.526 0.804 0.527 0.804 0.529 0.809 C 0.531 0.813 0.532 0.813 0.532 0.811 C 0.533 0.806 0.543 0.806 0.545 0.81 C 0.546 0.813 0.548 0.812 0.55 0.81 C 0.552 0.808 0.556 0.807 0.559 0.808 C 0.562 0.81 0.563 0.809 0.561 0.807 C 0.559 0.806 0.559 0.802 0.559 0.799 C 0.56 0.792 0.562 0.792 0.566 0.798 C 0.568 0.801 0.569 0.801 0.571 0.798 C 0.576 0.791 0.594 0.774 0.598 0.774 C 0.599 0.774 0.603 0.767 0.608 0.759 C 0.614 0.747 0.617 0.743 0.625 0.739 C 0.63 0.737 0.635 0.733 0.635 0.732 C 0.635 0.73 0.636 0.729 0.637 0.729 C 0.638 0.729 0.639 0.728 0.639 0.726 C 0.639 0.719 0.646 0.707 0.648 0.709 C 0.65 0.71 0.651 0.709 0.65 0.707 C 0.649 0.705 0.65 0.703 0.653 0.7 C 0.656 0.698 0.658 0.695 0.658 0.693 C 0.658 0.691 0.659 0.687 0.661 0.685 C 0.667 0.68 0.671 0.67 0.671 0.661 C 0.671 0.656 0.673 0.649 0.675 0.643 C 0.677 0.638 0.678 0.634 0.677 0.634 C 0.675 0.634 0.677 0.623 0.68 0.616 C 0.682 0.613 0.683 0.606 0.683 0.601 C 0.683 0.595 0.685 0.59 0.687 0.587 C 0.689 0.585 0.691 0.581 0.692 0.579 C 0.693 0.577 0.694 0.577 0.696 0.579 C 0.697 0.581 0.697 0.58 0.696 0.576 C 0.696 0.573 0.697 0.569 0.698 0.567 C 0.7 0.563 0.7 0.562 0.698 0.558 C 0.695 0.552 0.696 0.538 0.7 0.54 C 0.702 0.542 0.703 0.539 0.701 0.535 C 0.699 0.532 0.699 0.517 0.699 0.505 C 0.699 0.503 0.705 0.49 0.712 0.478 C 0.719 0.463 0.724 0.453 0.724 0.449 C 0.724 0.445 0.726 0.438 0.728 0.432 C 0.732 0.42 0.733 0.399 0.73 0.395 C 0.73 0.394 0.729 0.39 0.729 0.385 C 0.729 0.374 0.725 0.356 0.72 0.345 C 0.718 0.341 0.716 0.336 0.716 0.335 C 0.716 0.333 0.715 0.327 0.713 0.321 C 0.711 0.314 0.71 0.307 0.71 0.305 C 0.71 0.303 0.705 0.293 0.699 0.283 C 0.693 0.272 0.688 0.261 0.688 0.259 C 0.688 0.257 0.686 0.252 0.683 0.249 C 0.68 0.245 0.676 0.237 0.675 0.23 C 0.672 0.217 0.666 0.206 0.661 0.205 C 0.659 0.205 0.653 0.201 0.647 0.196 C 0.642 0.191 0.637 0.188 0.635 0.188 C 0.634 0.189 0.632 0.188 0.631 0.184 C 0.629 0.18 0.627 0.179 0.621 0.179 C 0.617 0.179 0.609 0.177 0.603 0.173 C 0.597 0.17 0.589 0.167 0.586 0.166 C 0.582 0.165 0.578 0.164 0.577 0.162 C 0.575 0.161 0.57 0.159 0.564 0.158 C 0.559 0.157 0.553 0.154 0.551 0.151 C 0.549 0.148 0.548 0.148 0.547 0.15 C 0.545 0.152 0.542 0.153 0.54 0.153 C 0.537 0.153 0.53 0.154 0.524 0.155 C 0.514 0.157 0.513 0.157 0.513 0.153 C 0.513 0.149 0.514 0.148 0.521 0.148 C 0.528 0.148 0.529 0.147 0.531 0.14 C 0.535 0.124 0.528 0.111 0.52 0.119 C 0.518 0.121 0.515 0.124 0.513 0.126 C 0.511 0.127 0.507 0.131 0.504 0.135 C 0.497 0.144 0.477 0.142 0.477 0.131 C 0.476 0.129 0.474 0.128 0.472 0.128 C 0.469 0.128 0.467 0.127 0.466 0.125 C 0.466 0.122 0.465 0.122 0.465 0.125 C 0.463 0.13 0.46 0.129 0.456 0.122 C 0.453 0.114 0.452 0.113 0.449 0.117 Z  M 0.133 0.263 C 0.133 0.272 0.137 0.274 0.14 0.266 C 0.142 0.263 0.142 0.26 0.142 0.259 C 0.135 0.258 0.133 0.258 0.133 0.263 Z  M 0.801 0.277 C 0.799 0.282 0.799 0.285 0.802 0.285 C 0.805 0.285 0.808 0.279 0.806 0.275 C 0.805 0.273 0.803 0.273 0.801 0.277 Z  M 0.857 0.293 C 0.856 0.295 0.855 0.297 0.857 0.299 C 0.859 0.302 0.859 0.302 0.859 0.299 C 0.859 0.297 0.86 0.296 0.862 0.297 C 0.863 0.297 0.864 0.296 0.865 0.294 C 0.866 0.29 0.861 0.289 0.857 0.293 Z  M 0.024 0.361 C 0.024 0.365 0.02 0.362 0.019 0.358 C 0.019 0.356 0.02 0.355 0.021 0.356 C 0.022 0.357 0.024 0.359 0.024 0.361 Z  M 0.092 0.535 C 0.086 0.537 0.085 0.556 0.09 0.556 C 0.092 0.556 0.094 0.557 0.095 0.559 C 0.096 0.561 0.098 0.561 0.1 0.561 C 0.102 0.56 0.103 0.56 0.103 0.562 C 0.103 0.563 0.105 0.563 0.106 0.562 C 0.107 0.561 0.108 0.563 0.108 0.566 C 0.108 0.572 0.113 0.559 0.115 0.548 C 0.116 0.542 0.116 0.541 0.113 0.543 C 0.11 0.544 0.107 0.542 0.104 0.539 C 0.101 0.536 0.098 0.534 0.098 0.534 C 0.097 0.534 0.095 0.535 0.092 0.535 Z  M 0.273 0.56 C 0.275 0.562 0.276 0.565 0.276 0.567 C 0.276 0.572 0.272 0.57 0.268 0.563 C 0.264 0.555 0.268 0.552 0.273 0.56 Z  M 0.135 0.565 C 0.137 0.572 0.134 0.574 0.131 0.568 C 0.129 0.565 0.129 0.565 0.129 0.568 C 0.129 0.57 0.129 0.573 0.13 0.575 C 0.132 0.578 0.132 0.58 0.13 0.587 C 0.128 0.592 0.127 0.601 0.126 0.606 L 0.125 0.615 L 0.128 0.609 C 0.131 0.604 0.132 0.603 0.133 0.608 C 0.134 0.61 0.136 0.612 0.138 0.612 C 0.155 0.61 0.157 0.611 0.159 0.621 C 0.16 0.628 0.17 0.609 0.17 0.6 C 0.171 0.589 0.161 0.574 0.157 0.577 C 0.149 0.582 0.145 0.582 0.146 0.576 C 0.147 0.569 0.144 0.564 0.14 0.566 C 0.139 0.567 0.137 0.566 0.136 0.564 C 0.135 0.561 0.135 0.561 0.135 0.565 Z  M 0.064 0.583 C 0.061 0.593 0.06 0.595 0.057 0.593 C 0.056 0.592 0.055 0.593 0.055 0.595 C 0.055 0.597 0.056 0.597 0.056 0.596 C 0.057 0.595 0.058 0.597 0.058 0.6 C 0.058 0.603 0.059 0.607 0.061 0.609 C 0.063 0.611 0.064 0.613 0.063 0.615 C 0.063 0.617 0.063 0.617 0.064 0.616 C 0.065 0.615 0.066 0.613 0.065 0.612 C 0.065 0.61 0.065 0.609 0.066 0.608 C 0.068 0.607 0.07 0.579 0.068 0.577 C 0.067 0.576 0.065 0.579 0.064 0.583 Z  M 0.19 0.598 C 0.19 0.6 0.189 0.6 0.187 0.599 C 0.185 0.598 0.185 0.598 0.186 0.602 C 0.188 0.605 0.188 0.606 0.186 0.606 C 0.183 0.606 0.179 0.617 0.18 0.622 C 0.18 0.624 0.179 0.626 0.178 0.626 C 0.177 0.626 0.176 0.627 0.175 0.627 C 0.174 0.628 0.171 0.628 0.169 0.628 C 0.167 0.628 0.162 0.633 0.158 0.64 C 0.151 0.652 0.146 0.654 0.148 0.645 C 0.148 0.642 0.148 0.637 0.148 0.635 C 0.146 0.629 0.141 0.653 0.142 0.66 C 0.144 0.675 0.136 0.704 0.134 0.69 C 0.133 0.689 0.132 0.687 0.131 0.687 C 0.128 0.687 0.126 0.676 0.125 0.661 L 0.125 0.647 L 0.12 0.66 C 0.115 0.674 0.113 0.676 0.112 0.668 C 0.111 0.665 0.11 0.662 0.109 0.661 C 0.107 0.66 0.107 0.657 0.107 0.652 C 0.108 0.647 0.108 0.645 0.106 0.643 C 0.104 0.642 0.102 0.64 0.1 0.638 C 0.098 0.634 0.097 0.635 0.097 0.646 C 0.096 0.652 0.095 0.66 0.094 0.662 C 0.092 0.669 0.089 0.66 0.091 0.651 C 0.092 0.644 0.092 0.643 0.09 0.644 C 0.089 0.645 0.088 0.647 0.088 0.648 C 0.088 0.649 0.086 0.651 0.083 0.651 C 0.079 0.653 0.075 0.648 0.075 0.641 C 0.075 0.635 0.073 0.636 0.069 0.645 C 0.066 0.653 0.058 0.656 0.056 0.65 C 0.055 0.648 0.055 0.649 0.054 0.653 C 0.053 0.656 0.051 0.661 0.05 0.663 C 0.045 0.668 0.042 0.69 0.043 0.704 C 0.044 0.714 0.044 0.715 0.041 0.715 C 0.037 0.713 0.037 0.664 0.041 0.657 C 0.043 0.654 0.044 0.649 0.044 0.646 C 0.044 0.641 0.044 0.642 0.042 0.647 C 0.039 0.659 0.023 0.657 0.021 0.645 C 0.02 0.633 0.012 0.622 0.009 0.627 C 0.006 0.632 0.006 0.632 0.003 0.627 C 0 0.622 0 0.624 0 0.811 L 0 1 L 0.131 1 L 0.263 1 L 0.264 0.994 C 0.265 0.988 0.259 0.973 0.256 0.972 C 0.251 0.972 0.251 0.96 0.255 0.953 C 0.262 0.943 0.262 0.938 0.255 0.94 C 0.251 0.942 0.249 0.938 0.253 0.935 C 0.256 0.933 0.252 0.928 0.246 0.926 C 0.235 0.922 0.234 0.922 0.237 0.917 C 0.239 0.915 0.242 0.913 0.244 0.913 C 0.246 0.913 0.248 0.912 0.249 0.909 C 0.25 0.907 0.252 0.905 0.253 0.905 C 0.258 0.905 0.253 0.892 0.248 0.891 C 0.245 0.89 0.243 0.887 0.242 0.884 C 0.241 0.878 0.235 0.872 0.231 0.872 C 0.227 0.872 0.227 0.842 0.23 0.824 C 0.23 0.819 0.225 0.815 0.218 0.814 C 0.217 0.814 0.215 0.813 0.213 0.812 C 0.212 0.811 0.211 0.811 0.21 0.812 C 0.205 0.819 0.202 0.805 0.204 0.784 C 0.205 0.78 0.204 0.777 0.204 0.778 C 0.203 0.779 0.202 0.777 0.202 0.775 C 0.201 0.772 0.201 0.771 0.202 0.773 C 0.204 0.774 0.204 0.773 0.203 0.77 C 0.203 0.767 0.202 0.764 0.202 0.764 C 0.202 0.763 0.201 0.763 0.2 0.764 C 0.199 0.766 0.199 0.765 0.2 0.761 C 0.2 0.759 0.201 0.756 0.201 0.755 C 0.201 0.754 0.201 0.755 0.202 0.755 C 0.203 0.756 0.204 0.754 0.204 0.75 C 0.205 0.743 0.199 0.742 0.198 0.749 C 0.197 0.75 0.196 0.751 0.194 0.751 C 0.193 0.751 0.191 0.754 0.19 0.757 C 0.189 0.76 0.187 0.762 0.186 0.762 C 0.185 0.761 0.184 0.763 0.184 0.766 C 0.184 0.772 0.179 0.779 0.178 0.774 C 0.178 0.772 0.178 0.769 0.178 0.767 C 0.178 0.766 0.179 0.761 0.18 0.758 C 0.182 0.752 0.182 0.745 0.18 0.747 C 0.179 0.749 0.179 0.743 0.179 0.728 C 0.18 0.707 0.182 0.699 0.185 0.703 C 0.187 0.705 0.191 0.698 0.191 0.693 C 0.191 0.688 0.194 0.684 0.199 0.684 C 0.203 0.684 0.208 0.671 0.206 0.664 C 0.202 0.649 0.191 0.654 0.191 0.671 C 0.19 0.682 0.186 0.694 0.183 0.692 C 0.182 0.692 0.179 0.694 0.177 0.698 C 0.172 0.708 0.165 0.706 0.167 0.695 C 0.167 0.689 0.167 0.684 0.164 0.677 C 0.163 0.672 0.161 0.667 0.162 0.667 C 0.162 0.666 0.165 0.664 0.168 0.661 C 0.172 0.658 0.176 0.651 0.178 0.646 C 0.18 0.641 0.183 0.637 0.184 0.637 C 0.184 0.637 0.187 0.633 0.189 0.629 C 0.193 0.623 0.195 0.621 0.199 0.622 C 0.201 0.622 0.203 0.621 0.203 0.62 C 0.202 0.618 0.2 0.617 0.198 0.617 C 0.196 0.617 0.194 0.616 0.194 0.614 C 0.194 0.613 0.194 0.612 0.193 0.613 C 0.191 0.615 0.191 0.612 0.191 0.601 C 0.191 0.598 0.191 0.595 0.19 0.595 C 0.19 0.595 0.19 0.596 0.19 0.598 Z  M 0.028 0.603 C 0.027 0.609 0.028 0.612 0.031 0.612 C 0.032 0.612 0.033 0.609 0.033 0.606 C 0.032 0.598 0.029 0.596 0.028 0.603 Z  M 0.054 0.616 C 0.054 0.626 0.054 0.626 0.055 0.621 C 0.056 0.617 0.056 0.613 0.055 0.61 C 0.054 0.607 0.054 0.608 0.054 0.616 Z  M 0.137 0.636 C 0.136 0.639 0.136 0.642 0.139 0.641 C 0.14 0.64 0.141 0.638 0.141 0.637 C 0.141 0.634 0.139 0.633 0.137 0.636 Z  M 0.276 0.636 C 0.275 0.637 0.273 0.639 0.272 0.641 C 0.272 0.644 0.269 0.645 0.268 0.646 C 0.265 0.646 0.265 0.646 0.267 0.647 C 0.27 0.649 0.271 0.656 0.268 0.658 C 0.264 0.66 0.266 0.697 0.269 0.703 C 0.271 0.707 0.274 0.712 0.275 0.716 C 0.278 0.723 0.297 0.732 0.308 0.731 C 0.313 0.731 0.314 0.732 0.318 0.74 C 0.321 0.746 0.323 0.748 0.322 0.747 C 0.322 0.744 0.322 0.743 0.323 0.743 C 0.325 0.743 0.326 0.741 0.327 0.737 C 0.328 0.731 0.331 0.73 0.331 0.735 C 0.331 0.737 0.332 0.736 0.333 0.734 C 0.335 0.727 0.33 0.69 0.325 0.676 C 0.324 0.671 0.321 0.663 0.32 0.659 C 0.319 0.654 0.317 0.651 0.316 0.651 C 0.315 0.651 0.311 0.647 0.307 0.642 C 0.3 0.634 0.284 0.631 0.276 0.636 Z  M 0.216 0.668 C 0.212 0.676 0.211 0.683 0.215 0.676 C 0.218 0.671 0.222 0.673 0.225 0.679 C 0.227 0.685 0.231 0.686 0.229 0.68 C 0.229 0.678 0.229 0.676 0.231 0.676 C 0.232 0.676 0.234 0.679 0.235 0.684 L 0.236 0.691 L 0.236 0.684 C 0.237 0.676 0.234 0.669 0.232 0.672 C 0.231 0.673 0.23 0.672 0.23 0.669 C 0.23 0.667 0.23 0.665 0.229 0.666 C 0.228 0.667 0.225 0.666 0.223 0.664 C 0.22 0.66 0.219 0.66 0.216 0.668 Z  M 0.995 0.671 C 0.991 0.685 0.992 0.704 0.997 0.703 C 1 0.703 1 0.7 1 0.682 C 1 0.659 1 0.658 0.995 0.671 Z  M 0.221 0.715 C 0.219 0.718 0.217 0.721 0.215 0.721 C 0.214 0.721 0.213 0.722 0.213 0.723 C 0.211 0.727 0.224 0.722 0.226 0.718 C 0.23 0.712 0.225 0.71 0.221 0.715 Z  M 0.309 0.759 C 0.309 0.764 0.308 0.768 0.307 0.77 C 0.306 0.772 0.306 0.773 0.308 0.773 C 0.31 0.773 0.31 0.77 0.31 0.762 C 0.31 0.756 0.31 0.751 0.31 0.751 C 0.309 0.751 0.309 0.755 0.309 0.759 Z  M 0.32 0.78 C 0.32 0.781 0.321 0.783 0.322 0.784 C 0.323 0.785 0.324 0.788 0.324 0.791 C 0.324 0.796 0.326 0.797 0.332 0.796 C 0.337 0.796 0.345 0.811 0.344 0.817 C 0.343 0.819 0.344 0.82 0.346 0.82 C 0.347 0.82 0.348 0.818 0.348 0.815 C 0.348 0.808 0.349 0.806 0.35 0.803 C 0.351 0.799 0.347 0.795 0.343 0.796 C 0.342 0.796 0.342 0.795 0.342 0.794 C 0.344 0.79 0.336 0.779 0.333 0.781 C 0.332 0.782 0.328 0.781 0.325 0.78 C 0.322 0.778 0.32 0.778 0.32 0.78 Z  M 0.61 0.787 C 0.61 0.79 0.612 0.792 0.613 0.793 C 0.617 0.794 0.617 0.789 0.613 0.785 C 0.61 0.782 0.61 0.782 0.61 0.787 Z  M 0.341 0.829 C 0.339 0.832 0.339 0.834 0.34 0.836 C 0.345 0.841 0.35 0.837 0.35 0.827 C 0.35 0.822 0.344 0.824 0.341 0.829 Z  M 0.472 0.836 C 0.472 0.841 0.479 0.847 0.481 0.843 C 0.481 0.842 0.483 0.841 0.485 0.842 C 0.487 0.843 0.487 0.842 0.486 0.839 C 0.485 0.837 0.482 0.836 0.48 0.837 C 0.477 0.837 0.475 0.837 0.475 0.835 C 0.475 0.834 0.474 0.832 0.473 0.832 C 0.472 0.832 0.472 0.834 0.472 0.836 Z  M 0.353 0.846 C 0.353 0.848 0.354 0.848 0.355 0.847 C 0.357 0.846 0.357 0.847 0.357 0.848 C 0.356 0.85 0.357 0.853 0.358 0.855 C 0.361 0.859 0.361 0.857 0.359 0.849 C 0.357 0.843 0.353 0.841 0.353 0.846 Z  M 0.341 0.921 C 0.339 0.924 0.34 0.927 0.343 0.927 C 0.345 0.927 0.346 0.926 0.346 0.924 C 0.345 0.92 0.343 0.918 0.341 0.921 Z  M 0.33 0.94 C 0.329 0.942 0.33 0.948 0.332 0.952 C 0.334 0.957 0.335 0.961 0.335 0.961 C 0.333 0.961 0.34 0.979 0.343 0.982 C 0.344 0.983 0.348 0.987 0.35 0.99 C 0.359 1.001 0.357 0.987 0.346 0.966 C 0.342 0.958 0.338 0.949 0.338 0.947 C 0.337 0.94 0.331 0.935 0.33 0.94 Z  M 0.329 0.986 C 0.328 0.989 0.328 0.991 0.329 0.99 C 0.33 0.989 0.331 0.991 0.331 0.993 C 0.332 0.996 0.331 0.997 0.327 0.998 C 0.324 0.999 0.327 0.999 0.334 0.999 C 0.34 0.999 0.344 0.999 0.341 0.998 C 0.339 0.997 0.337 0.996 0.338 0.994 C 0.339 0.992 0.333 0.98 0.331 0.98 C 0.33 0.98 0.329 0.983 0.329 0.986 Z " fill-rule="evenodd" fill="rgb(0,0,0)"/></g></g></svg>