<svg id="svg" xmlns="http://www.w3.org/2000/svg" xmlns:xlink="http://www.w3.org/1999/xlink" width="400" height="225" viewBox="0, 0, 400,225"><g id="svgg"><path id="path0" d="M0.420 0.413 C -0.329 1.163,-0.072 82.106,0.686 84.282 C 1.286 86.002,2.214 86.591,3.906 86.324 C 4.164 86.283,4.305 86.588,4.219 87.002 C 4.133 87.416,4.484 87.795,5.000 87.844 C 7.129 88.049,7.450 88.164,8.317 89.031 C 9.108 89.822,9.371 89.816,10.393 88.980 C 11.431 88.131,11.440 88.062,10.469 88.367 C 9.102 88.797,8.950 86.756,10.268 85.662 C 10.964 85.085,11.575 85.136,13.042 85.895 C 14.922 86.867,14.924 86.866,14.782 85.153 C 14.566 82.549,15.931 81.480,18.320 82.382 C 20.379 83.159,20.226 83.246,25.217 78.477 C 26.062 77.669,26.567 77.513,26.732 78.008 C 26.868 78.416,27.416 78.750,27.949 78.750 C 28.483 78.750,29.571 79.453,30.367 80.313 C 31.892 81.958,33.125 82.347,33.125 81.182 C 33.125 80.754,33.726 80.640,34.698 80.884 C 35.809 81.163,36.670 80.908,37.628 80.015 C 38.375 79.319,39.355 78.750,39.805 78.750 C 40.256 78.750,40.625 78.422,40.625 78.021 C 40.625 77.620,40.803 77.469,41.020 77.686 C 41.237 77.903,41.940 77.800,42.582 77.456 C 43.496 76.967,43.750 77.048,43.750 77.827 C 43.750 78.375,44.012 78.662,44.332 78.464 C 44.652 78.266,45.072 78.361,45.266 78.674 C 45.658 79.309,43.870 80.267,42.656 80.071 C 41.490 79.883,41.634 84.322,42.809 84.773 C 43.323 84.970,43.584 85.387,43.391 85.701 C 43.197 86.014,42.836 86.145,42.587 85.992 C 42.339 85.838,42.249 86.677,42.386 87.856 C 42.629 89.930,43.096 90.446,43.953 89.589 C 44.179 89.363,44.065 88.817,43.699 88.376 C 43.185 87.757,43.546 87.478,45.284 87.152 C 46.522 86.919,47.817 86.200,48.164 85.552 C 48.839 84.290,50.381 84.042,51.835 84.962 C 52.546 85.412,52.575 85.719,51.975 86.442 C 51.369 87.172,51.419 87.431,52.223 87.740 C 53.620 88.276,53.597 88.298,53.410 86.591 C 53.199 84.675,55.335 82.122,56.930 82.383 C 57.587 82.491,58.125 82.250,58.125 81.847 C 58.125 81.445,57.711 81.275,57.206 81.469 C 56.273 81.827,54.375 80.393,54.375 79.330 C 54.375 78.205,55.672 78.767,56.167 80.107 C 56.475 80.939,56.834 81.197,57.095 80.775 C 57.329 80.396,57.235 79.910,56.885 79.694 C 55.819 79.035,56.178 78.223,57.396 78.542 C 58.658 78.872,58.620 79.002,58.980 73.077 C 59.117 70.816,59.614 68.346,60.084 67.589 C 60.816 66.408,60.804 66.127,60.000 65.616 C 59.213 65.115,59.251 65.018,60.233 65.010 C 61.216 65.002,61.275 64.846,60.603 64.036 C 59.597 62.824,58.829 63.558,58.563 65.988 C 58.179 69.499,56.365 70.818,56.566 67.441 C 56.629 66.377,57.076 65.252,57.559 64.941 C 58.286 64.473,58.293 64.282,57.603 63.836 C 56.436 63.083,56.451 63.022,58.284 61.044 C 59.274 59.976,59.772 58.884,59.543 58.285 C 59.291 57.629,59.409 57.448,59.894 57.747 C 60.890 58.363,60.812 57.741,59.673 56.004 C 58.628 54.408,59.012 52.500,60.379 52.500 C 60.858 52.500,61.250 52.202,61.250 51.838 C 61.250 51.474,61.541 51.356,61.896 51.576 C 62.302 51.826,62.434 51.375,62.250 50.363 C 62.089 49.475,62.250 48.750,62.608 48.750 C 62.966 48.750,63.106 48.351,62.919 47.864 C 62.732 47.377,62.955 46.834,63.415 46.657 C 63.899 46.472,64.392 46.872,64.584 47.606 C 64.766 48.304,65.208 48.695,65.565 48.475 C 66.276 48.035,67.017 50.346,67.140 53.383 C 67.227 55.563,68.416 55.743,68.477 53.586 C 68.498 52.817,68.779 52.234,69.102 52.291 C 70.287 52.499,70.096 45.621,68.904 45.181 C 67.328 44.600,66.895 43.733,66.885 41.131 C 66.879 39.862,66.594 38.650,66.250 38.438 C 65.132 37.747,65.589 36.467,67.217 35.725 C 69.992 34.461,70.373 34.783,70.984 38.905 C 71.484 42.282,71.795 42.921,73.281 43.627 C 74.227 44.076,75.000 44.726,75.000 45.071 C 75.000 45.416,75.286 45.522,75.635 45.306 C 75.985 45.090,76.101 44.639,75.894 44.304 C 75.687 43.969,75.864 43.277,76.288 42.767 C 76.848 42.092,76.882 41.449,76.410 40.414 C 75.895 39.283,76.038 38.532,77.105 36.763 C 78.760 34.020,79.932 35.020,80.896 40.000 C 80.929 40.172,81.166 40.641,81.422 41.043 C 81.677 41.445,81.411 42.249,80.830 42.830 C 79.842 43.819,79.841 43.924,80.825 44.474 C 81.563 44.888,81.875 45.888,81.875 47.844 C 81.875 51.299,82.687 51.426,83.676 48.125 C 84.088 46.750,84.801 45.625,85.261 45.625 C 86.303 45.625,87.739 47.278,87.062 47.697 C 86.624 47.967,86.626 51.311,87.067 56.250 C 87.144 57.109,87.458 58.234,87.766 58.750 C 88.074 59.266,88.092 59.476,87.806 59.217 C 87.521 58.958,86.632 59.175,85.831 59.700 C 84.728 60.423,84.364 60.461,84.331 59.858 C 84.307 59.421,84.045 59.625,83.750 60.313 C 83.455 61.000,83.193 61.211,83.169 60.781 C 83.145 60.352,82.703 60.000,82.188 60.000 C 81.672 60.000,81.246 60.352,81.240 60.781 C 81.233 61.356,81.089 61.338,80.694 60.715 C 80.319 60.123,80.027 60.076,79.729 60.558 C 79.494 60.939,79.529 61.254,79.807 61.260 C 80.085 61.265,79.989 61.476,79.594 61.728 C 79.198 61.981,78.777 62.750,78.656 63.438 C 78.536 64.125,78.031 64.851,77.533 65.051 C 76.873 65.317,77.000 65.512,78.003 65.774 C 78.759 65.972,79.219 65.878,79.026 65.567 C 78.834 65.255,79.326 65.004,80.119 65.010 C 81.155 65.016,81.326 65.169,80.724 65.551 C 80.112 65.938,80.328 66.167,81.520 66.395 C 83.512 66.776,84.185 65.960,82.669 65.002 C 81.954 64.550,81.892 64.388,82.494 64.545 C 83.007 64.679,83.817 64.398,84.294 63.921 C 84.771 63.443,85.553 63.204,86.032 63.387 C 87.173 63.825,89.570 61.409,89.130 60.264 C 88.943 59.775,89.062 59.375,89.395 59.375 C 89.728 59.375,90.000 59.094,90.000 58.750 C 90.000 58.406,89.367 58.121,88.594 58.115 C 87.457 58.108,87.367 57.990,88.125 57.500 C 88.641 57.167,88.817 56.890,88.517 56.885 C 88.217 56.879,88.285 56.498,88.668 56.036 C 89.051 55.575,89.179 55.012,88.953 54.786 C 88.727 54.560,89.001 54.375,89.561 54.375 C 90.659 54.375,92.087 56.455,91.436 57.105 C 91.219 57.322,91.370 57.500,91.771 57.500 C 92.172 57.500,92.500 57.798,92.500 58.162 C 92.500 58.526,92.219 58.650,91.875 58.438 C 91.020 57.909,91.088 59.132,91.994 60.583 C 92.790 61.858,91.849 63.729,90.392 63.770 C 89.115 63.805,84.025 66.552,81.431 68.607 C 80.029 69.717,78.669 70.625,78.408 70.625 C 77.180 70.625,71.250 73.875,71.247 74.550 C 71.246 74.969,70.412 76.200,69.395 77.285 C 67.264 79.559,63.000 87.166,63.549 87.715 C 63.752 87.919,63.567 88.933,63.138 89.969 C 62.701 91.025,62.570 92.338,62.841 92.958 C 63.106 93.565,63.253 94.344,63.167 94.688 C 62.761 96.304,63.071 99.571,63.688 100.188 C 64.066 100.566,64.375 101.384,64.375 102.007 C 64.375 104.706,70.496 111.958,76.834 116.766 C 77.888 117.566,78.919 118.892,79.125 119.713 C 79.331 120.534,80.034 121.375,80.687 121.582 C 81.340 121.790,81.875 122.222,81.875 122.542 C 81.875 122.863,82.508 123.133,83.281 123.142 C 84.142 123.153,85.294 123.980,86.250 125.272 C 87.109 126.435,87.907 127.294,88.022 127.181 C 88.137 127.069,89.034 127.257,90.015 127.599 C 92.164 128.348,91.882 129.764,89.479 130.285 C 85.021 131.251,84.868 131.246,85.292 130.131 C 85.618 129.274,85.543 129.217,84.912 129.844 C 83.778 130.969,82.502 130.805,82.490 129.531 C 82.484 128.828,82.317 128.694,82.022 129.156 C 81.226 130.402,79.052 130.450,79.149 129.219 C 79.197 128.617,79.019 128.125,78.753 128.125 C 78.488 128.125,78.118 127.542,77.932 126.829 L 77.593 125.532 76.296 126.829 C 74.911 128.214,73.023 128.586,73.281 127.422 C 73.554 126.196,72.048 126.146,71.728 127.370 C 71.559 128.015,70.988 128.542,70.458 128.542 C 69.912 128.542,69.633 128.181,69.814 127.708 C 69.990 127.250,69.841 126.875,69.484 126.875 C 69.127 126.875,68.659 126.323,68.445 125.648 C 68.132 124.663,67.685 124.494,66.182 124.795 C 64.257 125.180,64.011 123.045,65.727 120.854 C 66.078 120.406,65.939 120.015,65.348 119.788 C 64.835 119.591,64.251 119.695,64.051 120.019 C 63.543 120.840,60.901 120.303,61.103 119.419 C 61.226 118.880,60.938 118.873,59.968 119.392 C 58.811 120.011,57.756 120.332,55.170 120.852 C 54.747 120.937,53.693 121.673,52.826 122.487 C 51.959 123.302,51.250 123.722,51.250 123.421 C 51.250 121.386,49.387 125.561,49.221 127.969 C 49.191 128.398,48.916 128.750,48.609 128.750 C 48.302 128.750,48.225 129.031,48.438 129.375 C 48.650 129.719,48.491 130.000,48.085 130.000 C 47.604 130.000,47.547 130.272,47.923 130.781 C 49.092 132.365,48.973 138.624,47.802 137.188 C 47.241 136.500,46.929 136.238,47.109 136.606 C 47.809 138.042,48.010 140.625,47.422 140.625 C 47.080 140.625,46.955 140.874,47.144 141.179 C 47.332 141.484,47.138 142.003,46.712 142.332 C 45.323 143.406,43.799 143.710,43.361 143.001 C 43.083 142.551,43.220 142.485,43.750 142.813 C 44.280 143.140,44.417 143.074,44.139 142.624 C 43.903 142.242,43.297 142.088,42.792 142.282 C 42.239 142.494,41.875 142.264,41.875 141.702 C 41.875 141.190,41.369 140.639,40.751 140.477 C 39.428 140.131,39.327 137.894,40.536 135.728 C 40.985 134.925,41.188 134.105,40.988 133.905 C 40.788 133.705,40.625 133.831,40.625 134.186 C 40.625 134.540,39.470 134.830,38.058 134.830 C 36.571 134.830,35.271 135.186,34.967 135.678 C 34.679 136.145,34.225 136.308,33.958 136.042 C 33.692 135.775,33.885 135.303,34.388 134.992 C 35.167 134.511,35.174 134.308,34.434 133.620 C 33.720 132.955,33.655 132.968,34.067 133.690 C 34.402 134.277,34.330 134.421,33.850 134.124 C 32.469 133.271,31.610 131.068,32.921 131.743 C 33.549 132.067,34.414 132.205,34.844 132.051 C 35.308 131.884,35.625 132.299,35.625 133.073 C 35.625 134.637,36.132 134.700,38.030 133.371 L 39.463 132.367 38.013 131.351 C 37.215 130.792,36.422 130.358,36.250 130.386 C 36.078 130.414,35.603 129.987,35.194 129.437 C 34.575 128.604,34.237 128.568,33.163 129.224 C 31.877 130.010,31.485 129.626,32.353 128.430 C 33.094 127.409,36.220 127.476,35.825 128.504 C 35.569 129.172,35.931 129.283,37.406 128.988 C 39.382 128.592,40.392 129.188,41.687 131.511 C 42.265 132.549,42.785 131.826,45.552 126.146 C 49.711 117.611,49.629 116.355,44.976 117.286 C 43.685 117.544,42.736 117.341,41.964 116.643 C 41.343 116.081,40.658 115.800,40.441 116.017 C 40.071 116.388,39.367 115.038,38.455 112.205 C 38.123 111.174,37.962 111.123,37.476 111.893 C 37.156 112.399,36.890 112.567,36.885 112.267 C 36.879 111.967,36.478 112.051,35.993 112.454 C 35.318 113.014,35.002 113.010,34.647 112.434 C 34.369 111.984,34.445 111.845,34.838 112.087 C 35.199 112.310,35.650 112.087,35.840 111.591 C 36.071 110.989,35.885 110.804,35.281 111.036 C 34.783 111.227,34.375 111.042,34.375 110.625 C 34.375 110.208,33.971 110.021,33.478 110.211 C 32.984 110.400,32.443 110.219,32.274 109.809 C 31.923 108.956,29.411 111.707,29.389 112.969 C 29.381 113.398,29.094 113.750,28.750 113.750 C 28.406 113.750,28.125 114.172,28.125 114.688 C 28.125 115.203,27.844 115.625,27.500 115.625 C 27.156 115.625,26.875 116.855,26.875 118.359 C 26.875 123.353,26.301 124.890,24.266 125.336 C 21.685 125.903,21.009 128.004,21.182 134.916 C 21.361 142.056,19.159 151.875,17.380 151.875 C 16.700 151.875,16.739 149.619,17.442 148.273 C 18.353 146.529,19.873 139.028,19.643 137.416 C 18.576 129.963,17.885 129.169,17.677 135.157 C 17.501 140.252,17.342 141.250,16.704 141.250 C 16.414 141.250,16.338 141.512,16.536 141.832 C 16.883 142.394,14.604 144.375,13.611 144.375 C 13.344 144.375,13.121 143.883,13.115 143.281 C 13.107 142.347,13.018 142.324,12.500 143.125 C 11.181 145.165,11.879 142.113,13.453 138.954 C 14.745 136.362,14.915 135.482,14.390 134.103 C 14.038 133.177,13.750 131.566,13.750 130.525 C 13.750 129.483,13.233 127.884,12.602 126.971 C 11.970 126.059,11.267 124.797,11.039 124.167 C 10.230 121.932,9.063 123.466,9.063 126.763 C 9.063 128.554,8.785 129.943,8.438 129.892 C 8.094 129.842,6.547 130.414,5.000 131.164 C 3.453 131.914,2.807 132.411,3.564 132.268 C 4.321 132.125,5.053 132.329,5.192 132.723 C 5.338 133.137,5.999 132.780,6.764 131.875 C 7.489 131.016,8.093 130.644,8.104 131.049 C 8.140 132.312,6.179 133.812,4.987 133.433 C 4.364 133.236,3.656 133.397,3.412 133.791 C 3.090 134.312,2.808 134.276,2.381 133.660 C 1.963 133.058,1.901 133.198,2.164 134.141 C 2.439 135.127,2.211 135.555,1.280 135.798 C 0.036 136.124,0.026 136.529,0.168 180.407 L 0.313 224.688 54.507 224.834 C 107.035 224.975,111.018 224.892,110.266 223.674 C 110.072 223.361,109.581 223.271,109.176 223.475 C 108.770 223.679,109.070 223.287,109.844 222.604 C 111.297 221.321,111.779 220.224,110.558 220.979 C 110.087 221.270,110.008 220.958,110.313 220.000 C 110.558 219.226,110.518 218.742,110.223 218.924 C 109.929 219.106,109.646 218.561,109.595 217.712 C 109.544 216.863,108.985 215.790,108.353 215.328 C 107.240 214.514,107.241 214.447,108.390 213.178 C 109.042 212.457,109.716 212.007,109.887 212.178 C 110.319 212.611,111.875 211.243,111.875 210.429 C 111.875 210.062,111.451 210.307,110.934 210.974 C 110.063 212.097,110.042 212.049,110.660 210.325 C 111.103 209.092,111.116 208.393,110.699 208.254 C 110.353 208.139,110.244 207.592,110.456 207.039 C 110.743 206.291,110.576 206.135,109.805 206.431 C 109.001 206.740,108.796 206.493,108.892 205.334 C 108.960 204.511,109.167 203.852,109.351 203.868 C 110.912 204.007,111.355 203.587,110.156 203.106 C 109.383 202.795,108.759 202.039,108.769 201.426 C 108.787 200.371,108.821 200.370,109.425 201.406 C 109.775 202.008,110.751 202.500,111.594 202.500 C 113.200 202.500,113.683 203.431,112.344 203.946 C 111.914 204.111,113.340 204.104,115.512 203.930 C 118.853 203.663,119.673 203.806,120.825 204.854 C 121.574 205.536,122.818 206.419,123.588 206.816 C 124.358 207.213,124.957 207.740,124.920 207.987 C 124.687 209.536,125.038 210.212,125.721 209.529 C 126.776 208.474,128.750 209.731,128.750 211.459 C 128.750 212.238,129.087 213.212,129.500 213.625 C 130.351 214.476,129.483 214.623,128.245 213.837 C 127.729 213.510,127.573 212.738,127.823 211.744 C 128.103 210.626,127.933 210.060,127.234 209.792 C 126.614 209.554,126.250 209.754,126.250 210.332 C 126.250 211.527,125.339 211.500,124.107 210.268 C 123.299 209.459,123.125 209.443,123.125 210.177 C 123.125 210.668,124.039 211.385,125.156 211.772 C 126.629 212.282,126.758 212.415,125.625 212.255 C 124.766 212.135,123.607 211.843,123.051 211.608 C 121.943 211.138,121.224 212.808,121.321 215.625 L 121.375 217.188 121.929 215.625 C 122.403 214.289,122.439 214.369,122.179 216.172 C 122.012 217.332,121.871 218.598,121.865 218.984 C 121.860 219.371,121.598 219.280,121.283 218.783 C 120.513 217.565,119.663 220.785,120.344 222.342 C 120.608 222.945,120.798 223.590,120.767 223.777 C 120.737 223.963,121.288 224.159,121.992 224.212 C 123.228 224.305,123.232 224.278,122.105 223.424 C 121.463 222.938,121.197 222.531,121.513 222.520 C 121.830 222.509,122.634 222.992,123.299 223.594 C 126.474 226.463,149.872 224.733,149.980 221.622 C 149.991 221.311,149.501 221.508,148.892 222.059 C 147.609 223.220,146.603 222.778,145.980 220.781 C 145.738 220.008,145.313 219.375,145.034 219.375 C 144.755 219.375,144.177 218.531,143.750 217.500 C 143.323 216.469,142.726 215.625,142.424 215.625 C 142.122 215.625,141.875 215.203,141.875 214.688 C 141.875 214.172,141.627 213.750,141.323 213.750 C 141.019 213.750,140.597 213.258,140.385 212.656 C 140.173 212.055,139.824 211.141,139.609 210.625 C 139.395 210.109,140.521 211.094,142.112 212.813 C 143.702 214.531,144.843 215.474,144.647 214.909 C 144.218 213.670,146.522 211.875,148.540 211.875 C 150.619 211.875,150.989 210.641,148.943 210.530 C 147.978 210.477,146.906 210.369,146.563 210.289 C 146.219 210.210,145.555 210.112,145.088 210.072 C 144.506 210.023,144.361 209.517,144.625 208.463 C 144.914 207.313,144.694 206.755,143.756 206.253 C 143.065 205.883,142.500 205.122,142.500 204.561 C 142.500 204.001,142.339 203.702,142.143 203.898 C 141.711 204.330,139.768 203.338,137.031 201.286 C 135.913 200.449,134.389 199.671,133.642 199.557 C 132.896 199.443,131.912 199.040,131.455 198.661 C 130.999 198.282,130.625 198.179,130.625 198.433 C 130.625 198.686,129.922 198.433,129.063 197.870 C 128.203 197.307,127.500 197.028,127.500 197.250 C 127.500 197.472,127.035 197.267,126.466 196.795 C 125.898 196.324,124.883 196.031,124.211 196.145 C 123.370 196.287,123.138 196.110,123.466 195.579 C 123.768 195.089,123.686 194.966,123.239 195.242 C 122.852 195.481,121.856 195.232,121.026 194.688 C 119.652 193.788,116.645 193.772,115.757 194.660 C 115.446 194.971,115.955 195.049,119.688 195.259 C 121.431 195.357,122.600 196.208,122.101 197.015 C 121.870 197.388,121.969 197.516,122.320 197.299 C 122.671 197.082,123.455 197.454,124.063 198.125 C 124.670 198.796,125.411 199.195,125.709 199.011 C 126.006 198.827,126.250 199.021,126.250 199.442 C 126.250 199.864,126.424 200.034,126.637 199.821 C 126.850 199.609,127.425 199.836,127.916 200.327 C 128.407 200.818,130.232 201.719,131.972 202.328 C 135.400 203.530,138.956 206.285,137.644 206.723 C 137.217 206.865,137.049 207.275,137.271 207.634 C 137.492 207.993,137.424 208.173,137.118 208.034 C 134.780 206.966,131.507 205.249,131.250 204.954 C 130.905 204.559,128.557 203.622,128.234 203.751 C 128.122 203.795,127.559 203.309,126.984 202.669 C 126.408 202.030,125.409 201.617,124.762 201.752 C 124.116 201.887,123.347 201.619,123.053 201.155 C 122.658 200.531,122.517 200.515,122.510 201.094 C 122.504 201.523,121.853 201.875,121.062 201.875 C 120.272 201.875,119.225 202.227,118.735 202.656 C 118.246 203.086,118.374 202.805,119.020 202.031 L 120.194 200.625 118.155 200.625 C 116.532 200.625,116.196 200.832,116.505 201.638 C 116.814 202.443,116.604 202.573,115.478 202.271 C 114.699 202.063,113.289 201.888,112.344 201.884 C 110.900 201.876,110.617 201.600,110.576 200.156 C 110.549 199.211,110.387 198.781,110.217 199.200 C 109.748 200.358,107.254 197.793,107.705 196.618 C 108.170 195.405,106.989 194.636,106.071 195.554 C 105.057 196.568,104.374 196.407,104.385 195.156 C 104.393 194.222,104.482 194.199,105.000 195.000 C 105.518 195.801,105.607 195.778,105.615 194.844 C 105.627 193.476,106.464 193.439,107.558 194.757 C 108.972 196.461,110.811 196.844,112.139 195.712 C 112.799 195.149,113.136 195.036,112.887 195.462 C 112.587 195.975,112.745 196.117,113.357 195.882 C 115.076 195.222,115.070 193.820,113.349 194.132 C 112.358 194.312,111.924 194.176,112.177 193.767 C 112.399 193.408,112.137 192.673,111.597 192.132 C 111.056 191.592,110.755 190.920,110.928 190.640 C 111.513 189.694,109.642 189.507,107.378 190.285 C 106.141 190.711,104.741 190.842,104.268 190.578 C 103.795 190.313,102.152 190.137,100.616 190.186 C 98.270 190.262,97.798 190.079,97.667 189.044 C 97.514 187.836,97.523 187.837,98.143 189.063 C 98.719 190.200,98.749 190.177,98.483 188.807 C 98.290 187.813,98.797 186.432,99.977 184.744 C 103.194 180.140,102.800 177.786,99.095 179.474 C 96.734 180.549,95.445 179.743,95.937 177.501 C 96.310 175.804,96.199 175.625,94.774 175.625 C 93.908 175.625,93.004 175.311,92.767 174.926 C 92.124 173.886,91.330 170.028,91.790 170.175 C 92.009 170.245,92.891 169.778,93.750 169.137 C 94.968 168.229,95.037 168.065,94.063 168.398 C 93.112 168.722,92.986 168.649,93.536 168.095 C 94.057 167.570,94.845 167.541,96.349 167.994 C 97.498 168.339,100.125 168.567,102.188 168.500 C 104.250 168.433,106.285 168.634,106.711 168.946 C 107.136 169.259,107.883 169.362,108.371 169.175 C 109.322 168.809,111.250 170.554,111.250 171.780 C 111.250 172.262,110.698 172.385,109.680 172.130 C 108.438 171.818,108.187 171.935,108.478 172.693 C 108.710 173.298,108.425 173.755,107.704 173.933 C 107.076 174.089,107.688 174.107,109.063 173.974 C 110.635 173.822,111.253 173.935,110.728 174.279 C 110.098 174.693,110.244 174.918,111.326 175.201 C 112.114 175.407,112.887 175.446,113.046 175.288 C 113.204 175.129,113.005 175.000,112.604 175.000 C 112.203 175.000,111.875 174.675,111.875 174.278 C 111.875 173.861,112.386 174.019,113.086 174.652 C 113.751 175.254,114.595 175.563,114.961 175.337 C 115.326 175.111,115.625 175.271,115.625 175.692 C 115.625 176.114,115.821 176.262,116.061 176.022 C 116.301 175.782,116.883 176.227,117.354 177.012 C 117.832 177.807,118.063 177.953,117.875 177.344 C 117.690 176.742,117.812 176.250,118.145 176.250 C 119.035 176.250,118.883 178.592,117.969 178.961 C 117.502 179.149,117.628 179.296,118.281 179.326 C 118.883 179.353,119.375 179.748,119.375 180.204 C 119.375 180.659,120.123 181.714,121.038 182.547 C 121.953 183.381,122.499 183.711,122.251 183.281 C 121.965 182.784,122.194 182.500,122.880 182.500 C 123.473 182.500,123.801 182.658,123.608 182.850 C 122.917 183.541,126.089 185.996,128.799 186.869 C 130.319 187.358,131.787 188.122,132.062 188.567 C 132.337 189.011,132.970 189.375,133.469 189.375 C 133.967 189.375,134.375 189.630,134.375 189.942 C 134.375 190.254,135.992 191.003,137.969 191.607 C 139.945 192.211,141.852 192.924,142.207 193.191 C 142.561 193.457,143.546 193.804,144.394 193.961 C 145.243 194.118,146.693 194.594,147.616 195.018 C 148.565 195.454,149.788 195.580,150.429 195.308 C 152.371 194.483,153.650 194.534,153.309 195.421 C 153.134 195.877,153.267 196.250,153.605 196.250 C 154.137 196.250,155.000 193.476,155.000 191.765 C 155.000 191.447,154.016 190.775,152.813 190.272 C 151.609 189.770,150.625 188.950,150.625 188.451 C 150.625 187.952,150.088 187.257,149.431 186.905 C 148.615 186.468,148.347 185.847,148.585 184.940 C 149.078 183.054,155.347 183.472,158.201 185.582 C 159.765 186.739,160.251 186.855,160.672 186.173 C 161.500 184.834,157.490 179.546,156.235 180.322 C 155.452 180.806,155.040 178.960,155.769 178.231 C 156.247 177.753,155.999 177.359,154.905 176.860 C 154.061 176.476,153.067 175.676,152.697 175.083 C 151.621 173.360,154.112 173.531,155.484 175.275 C 156.109 176.069,157.508 176.915,158.593 177.153 C 159.678 177.391,161.212 178.091,162.002 178.707 C 162.791 179.324,164.070 180.026,164.844 180.269 C 166.373 180.748,166.604 181.660,165.568 183.125 C 165.069 183.831,164.826 183.869,164.588 183.281 C 164.079 182.028,163.125 182.381,163.125 183.823 C 163.125 184.838,163.416 185.070,164.375 184.819 C 165.063 184.639,165.625 184.764,165.625 185.095 C 165.625 185.427,165.925 185.513,166.292 185.287 C 166.659 185.060,167.111 185.456,167.297 186.167 C 167.628 187.432,167.683 187.424,169.805 185.805 C 171.459 184.544,172.093 184.341,172.472 184.954 C 172.822 185.521,173.095 185.554,173.396 185.067 C 173.631 184.686,173.596 184.371,173.318 184.365 C 173.040 184.360,173.160 184.135,173.585 183.865 C 174.975 182.982,178.710 183.752,178.294 184.836 C 178.046 185.482,178.214 185.691,178.807 185.476 C 179.291 185.300,179.626 184.867,179.551 184.512 C 179.476 184.158,179.806 183.718,180.284 183.535 C 180.924 183.289,181.078 183.616,180.868 184.776 C 180.667 185.881,180.804 186.213,181.325 185.891 C 182.282 185.300,181.507 186.695,179.860 188.528 C 178.474 190.071,179.172 190.857,181.426 190.291 C 182.979 189.901,183.244 187.873,182.178 184.531 C 181.711 183.068,181.713 183.067,185.953 182.821 C 186.649 182.781,187.575 182.527,188.011 182.258 C 189.017 181.636,201.527 181.586,202.520 182.200 C 203.719 182.941,208.345 182.979,209.516 182.258 C 210.586 181.599,212.773 183.428,212.139 184.454 C 212.001 184.676,212.278 185.181,212.753 185.576 C 213.757 186.408,215.625 184.954,215.625 183.341 C 215.625 182.821,215.977 182.519,216.406 182.669 C 216.836 182.819,217.105 183.405,217.004 183.971 C 216.903 184.537,217.114 185.000,217.473 185.000 C 217.831 185.000,218.125 184.726,218.125 184.391 C 218.125 183.487,221.653 181.829,222.711 182.235 C 223.875 182.682,224.424 184.701,223.605 185.520 C 223.189 185.936,223.317 186.625,223.990 187.586 C 224.546 188.379,225.009 189.598,225.019 190.295 C 225.037 191.470,225.085 191.482,225.686 190.449 C 226.043 189.837,226.284 188.712,226.223 187.949 C 226.050 185.790,226.223 185.240,226.794 186.140 C 227.225 186.820,227.731 186.795,229.624 186.004 C 231.702 185.136,231.966 185.136,232.300 186.006 C 233.010 187.856,235.659 188.311,237.214 186.850 C 238.285 185.844,238.706 185.729,239.001 186.361 C 239.214 186.815,239.253 186.284,239.089 185.180 C 238.795 183.199,239.357 182.367,241.175 182.092 C 241.650 182.020,242.353 181.620,242.738 181.202 C 243.257 180.638,243.249 180.547,242.710 180.850 C 242.309 181.074,241.871 180.927,241.736 180.522 C 241.450 179.662,238.750 179.318,238.750 180.141 C 238.750 180.448,238.469 180.525,238.125 180.313 C 237.781 180.100,237.500 180.241,237.500 180.625 C 237.500 181.009,237.175 181.123,236.778 180.878 C 236.359 180.619,236.225 180.705,236.459 181.083 C 236.680 181.441,236.388 182.117,235.811 182.585 C 235.088 183.171,234.907 183.194,235.229 182.656 C 236.088 181.227,233.250 181.802,232.146 183.281 C 231.437 184.231,231.216 184.332,231.466 183.594 C 231.740 182.783,231.498 182.500,230.529 182.500 C 229.429 182.500,229.347 182.651,230.013 183.453 C 230.447 183.977,230.670 184.539,230.507 184.702 C 230.344 184.865,229.834 184.295,229.374 183.437 C 228.915 182.578,228.292 181.875,227.990 181.875 C 227.143 181.875,229.585 178.792,230.450 178.770 C 230.869 178.759,232.135 178.235,233.262 177.605 C 234.390 176.976,236.594 175.974,238.161 175.379 C 239.728 174.784,242.119 173.154,243.474 171.757 C 245.843 169.314,251.365 166.250,253.397 166.250 C 253.935 166.250,254.375 165.954,254.375 165.593 C 254.375 165.232,255.430 164.498,256.719 163.963 C 258.008 163.428,259.287 162.599,259.562 162.120 C 259.837 161.642,260.440 161.250,260.902 161.250 C 261.363 161.250,261.903 160.828,262.101 160.313 C 262.299 159.797,262.188 159.375,261.855 159.375 C 261.522 159.375,261.250 158.956,261.250 158.445 C 261.250 157.834,261.788 157.558,262.813 157.643 C 263.672 157.714,264.375 157.993,264.375 158.261 C 264.375 158.530,264.666 158.750,265.022 158.750 C 265.468 158.750,265.468 158.374,265.022 157.541 C 264.130 155.875,264.181 155.740,265.781 155.512 C 266.555 155.402,267.208 155.031,267.232 154.688 C 267.337 153.224,269.028 150.621,270.095 150.282 C 271.380 149.875,271.491 149.474,270.678 148.189 C 270.318 147.621,270.548 146.562,271.335 145.160 C 272.001 143.975,272.390 142.514,272.200 141.913 C 272.007 141.307,272.414 140.108,273.114 139.218 C 273.808 138.337,274.375 136.746,274.375 135.683 C 274.375 133.317,276.443 131.029,278.104 131.556 C 279.375 131.959,280.414 130.955,279.385 130.319 C 278.244 129.614,278.717 128.113,280.308 127.389 C 281.311 126.931,281.670 126.436,281.317 125.996 C 280.691 125.215,281.537 122.500,282.407 122.500 C 283.605 122.500,283.624 120.113,282.427 119.800 C 280.895 119.399,280.913 118.096,282.457 117.692 C 283.123 117.518,283.524 117.013,283.352 116.564 C 283.180 116.117,283.340 115.566,283.707 115.339 C 284.075 115.112,284.375 115.241,284.375 115.625 C 284.375 116.009,284.656 116.150,285.000 115.938 C 285.344 115.725,285.625 115.866,285.625 116.250 C 285.625 116.634,285.904 116.776,286.246 116.565 C 286.606 116.343,286.811 116.853,286.735 117.778 C 286.662 118.656,286.336 119.375,286.010 119.375 C 285.683 119.375,285.629 119.586,285.889 119.844 C 287.112 121.058,289.737 120.248,291.333 118.163 C 292.734 116.334,292.850 115.886,292.114 115.150 C 291.639 114.675,291.250 113.884,291.250 113.393 C 291.250 112.141,288.213 111.980,287.460 113.192 C 287.036 113.875,281.273 114.293,280.887 113.669 C 280.559 113.138,285.319 108.386,287.500 107.068 C 289.521 105.847,291.875 102.203,291.875 100.297 C 291.875 99.477,292.566 97.788,293.410 96.544 C 295.371 93.654,294.769 85.705,292.372 82.844 C 292.099 82.517,291.875 81.734,291.875 81.104 C 291.875 80.474,291.102 79.178,290.156 78.224 C 288.120 76.170,287.816 75.188,288.834 73.961 C 289.248 73.463,289.328 73.104,289.012 73.164 C 286.811 73.582,284.857 70.123,286.137 68.074 C 286.631 67.282,286.670 66.418,286.260 65.339 C 285.790 64.102,285.952 63.268,287.008 61.478 C 287.974 59.841,288.101 59.278,287.459 59.490 C 286.966 59.652,286.476 60.372,286.370 61.090 C 286.264 61.807,285.701 62.575,285.120 62.797 C 284.272 63.119,284.217 63.043,284.844 62.412 C 285.273 61.979,285.625 61.162,285.625 60.597 C 285.625 60.031,286.187 59.060,286.875 58.438 C 288.417 57.042,288.495 55.628,287.031 55.615 C 286.124 55.607,286.092 55.508,286.845 55.032 C 287.344 54.716,287.915 54.558,288.113 54.680 C 288.311 54.802,289.168 54.368,290.017 53.715 C 290.867 53.062,291.194 52.522,290.744 52.514 C 290.294 52.506,290.082 52.249,290.271 51.942 C 290.805 51.078,287.772 50.553,286.045 51.209 C 285.197 51.531,284.289 51.602,284.027 51.366 C 283.764 51.130,283.780 51.359,284.063 51.875 C 284.349 52.399,284.337 52.595,284.035 52.320 C 283.738 52.049,283.405 51.065,283.295 50.133 C 283.137 48.790,283.234 48.632,283.762 49.375 C 284.300 50.131,284.394 50.019,284.246 48.799 C 284.145 47.967,283.641 47.172,283.125 47.033 C 282.292 46.808,282.292 46.860,283.125 47.500 C 283.958 48.140,283.958 48.192,283.125 47.963 C 282.609 47.821,282.180 47.307,282.171 46.821 C 282.162 46.335,281.908 45.542,281.606 45.060 C 281.230 44.458,281.284 44.322,281.778 44.628 C 282.175 44.873,282.500 44.739,282.500 44.330 C 282.500 43.548,278.980 43.793,276.563 44.743 C 275.497 45.162,275.427 45.093,276.088 44.278 C 276.515 43.753,276.705 43.163,276.510 42.968 C 276.315 42.774,276.744 42.428,277.462 42.200 C 278.180 41.972,278.607 41.524,278.410 41.205 C 278.213 40.886,278.419 40.621,278.869 40.615 C 279.471 40.608,279.443 40.451,278.764 40.022 C 278.159 39.639,277.514 39.705,276.889 40.212 C 275.335 41.477,272.556 41.497,272.076 40.247 C 271.688 39.237,271.621 39.245,271.192 40.358 C 270.849 41.247,270.754 41.044,270.832 39.586 C 270.900 38.306,271.165 37.798,271.583 38.144 C 271.948 38.445,272.629 38.401,273.146 38.042 C 273.944 37.487,273.941 37.441,273.125 37.685 C 272.609 37.840,271.579 37.413,270.834 36.736 C 269.456 35.484,266.447 35.676,267.244 36.966 C 267.457 37.311,267.089 37.254,266.426 36.840 C 265.211 36.081,264.941 34.185,265.921 33.294 C 266.212 33.029,266.260 33.145,266.028 33.551 C 265.795 33.956,265.895 34.468,266.250 34.688 C 266.605 34.907,266.716 35.376,266.497 35.731 C 266.255 36.123,266.617 36.098,267.425 35.665 C 269.075 34.782,269.092 34.264,267.500 33.270 C 266.500 32.645,265.993 32.646,264.962 33.276 C 263.871 33.942,263.545 33.889,262.834 32.931 C 262.275 32.178,261.852 32.031,261.567 32.493 C 261.261 32.988,260.908 32.994,260.330 32.514 C 259.426 31.764,258.570 33.128,259.065 34.531 C 259.402 35.489,258.189 37.124,256.737 37.668 C 255.542 38.117,253.750 36.677,253.750 35.268 C 253.750 34.777,253.452 34.375,253.088 34.375 C 252.724 34.375,252.600 34.656,252.813 35.000 C 253.025 35.344,252.744 35.625,252.188 35.625 C 251.631 35.625,251.350 35.906,251.563 36.250 C 251.775 36.594,251.782 37.146,251.577 37.476 C 251.056 38.319,248.251 36.955,247.914 35.694 C 247.739 35.041,247.620 35.181,247.573 36.094 C 247.465 38.173,246.458 37.803,246.458 35.685 C 246.458 34.303,246.695 33.950,247.448 34.206 C 248.090 34.425,248.001 34.204,247.194 33.577 C 246.511 33.046,245.742 32.740,245.485 32.899 C 245.229 33.057,244.453 32.259,243.762 31.125 C 243.070 29.990,242.504 29.327,242.502 29.651 C 242.501 29.974,242.083 29.693,241.574 29.026 C 240.965 28.226,240.485 28.041,240.168 28.483 C 239.403 29.551,237.501 30.059,237.489 29.199 C 237.484 28.780,236.860 29.405,236.103 30.588 C 234.565 32.991,233.740 31.877,234.164 27.969 C 234.322 26.516,234.117 26.250,232.837 26.250 C 232.005 26.250,231.150 25.969,230.938 25.625 C 230.725 25.281,230.252 25.000,229.887 25.000 C 229.443 25.000,229.427 25.260,229.838 25.781 C 230.177 26.211,230.493 27.055,230.540 27.656 C 230.726 30.052,230.845 30.613,231.108 30.350 C 231.789 29.669,232.976 31.592,232.348 32.359 C 231.445 33.463,232.255 34.031,235.156 34.327 C 235.414 34.353,235.625 34.797,235.625 35.313 C 235.625 36.651,232.149 36.524,230.759 35.134 C 230.145 34.520,229.090 33.989,228.415 33.954 C 223.953 33.722,221.377 32.562,222.236 31.171 C 222.374 30.949,221.997 30.383,221.399 29.915 C 220.393 29.126,220.382 29.155,221.250 30.313 C 222.122 31.476,222.110 31.502,221.080 30.693 C 220.417 30.173,220.115 29.372,220.328 28.700 C 220.569 27.943,220.226 27.331,219.279 26.823 C 218.236 26.265,217.811 26.256,217.634 26.785 C 217.503 27.178,216.987 27.500,216.487 27.500 C 215.875 27.500,215.637 28.041,215.758 29.153 C 215.872 30.202,215.595 30.905,215.000 31.076 C 214.442 31.236,214.316 31.136,214.688 30.829 C 215.501 30.157,215.640 25.625,214.847 25.625 C 214.513 25.625,214.409 24.951,214.615 24.128 C 214.876 23.090,214.689 22.514,214.007 22.253 C 212.414 21.641,211.890 21.813,212.277 22.820 C 212.544 23.516,212.354 23.655,211.555 23.348 C 210.865 23.084,210.259 23.309,209.892 23.966 C 209.573 24.535,208.884 25.000,208.359 25.000 C 207.834 25.000,205.775 26.254,203.782 27.788 C 199.372 31.181,196.165 31.740,194.302 29.440 C 193.656 28.643,192.738 28.140,192.261 28.323 C 191.784 28.506,190.769 28.219,190.007 27.684 C 189.244 27.150,187.358 26.679,185.817 26.637 C 183.842 26.584,182.707 26.193,181.976 25.312 C 181.180 24.355,180.171 24.061,177.656 24.058 C 174.472 24.053,173.401 24.666,175.312 25.399 C 176.629 25.904,176.488 27.027,175.156 26.646 C 174.555 26.474,172.983 26.525,171.665 26.760 L 169.267 27.188 170.571 28.689 C 172.711 31.154,172.406 31.492,168.252 31.263 C 166.144 31.147,160.677 32.223,158.438 33.196 C 157.750 33.495,156.625 33.689,155.938 33.627 C 154.749 33.520,149.578 36.467,148.603 37.807 C 148.351 38.154,148.140 38.192,148.135 37.892 C 148.129 37.592,147.633 37.733,147.031 38.205 C 146.051 38.973,146.022 38.954,146.755 38.017 C 147.711 36.794,147.429 31.747,146.385 31.399 C 146.006 31.273,145.875 30.695,146.094 30.116 C 146.440 29.202,146.340 29.214,145.337 30.209 C 144.294 31.242,141.660 32.625,140.478 32.760 C 140.225 32.789,138.620 34.148,136.911 35.781 C 134.944 37.660,133.244 38.750,132.281 38.750 C 131.444 38.750,130.598 39.169,130.402 39.681 C 129.985 40.767,127.373 40.019,125.423 38.255 C 124.340 37.275,124.302 37.306,124.691 38.852 C 125.378 41.593,118.665 43.641,117.131 41.159 C 116.626 40.341,115.624 41.160,115.635 42.381 C 115.643 43.291,115.728 43.308,116.250 42.500 C 116.771 41.693,116.857 41.711,116.865 42.625 C 116.871 43.210,117.242 43.913,117.691 44.188 C 118.139 44.463,119.146 45.742,119.929 47.031 L 121.352 49.375 119.270 49.383 C 118.125 49.387,115.531 50.231,113.506 51.258 C 111.481 52.285,109.152 53.125,108.330 53.125 C 107.508 53.125,106.674 53.547,106.476 54.063 C 106.278 54.578,105.748 55.000,105.299 55.000 C 104.849 55.000,103.700 55.827,102.746 56.838 C 101.792 57.849,100.766 58.525,100.466 58.339 C 100.166 58.154,99.404 58.470,98.773 59.042 C 98.017 59.725,97.483 59.853,97.213 59.416 C 96.986 59.050,97.223 58.750,97.739 58.750 C 99.160 58.750,99.569 57.605,98.522 56.558 C 97.329 55.365,96.875 55.378,96.875 56.606 C 96.875 58.280,94.216 57.422,93.951 55.663 C 93.646 53.638,93.491 53.534,90.940 53.630 C 88.734 53.713,87.885 52.483,89.472 51.503 C 89.955 51.204,90.028 51.346,89.692 51.935 C 89.323 52.582,89.383 52.636,89.923 52.142 C 91.600 50.603,91.339 44.140,89.626 44.798 C 88.548 45.211,88.519 44.705,89.517 42.928 C 89.939 42.177,90.334 40.156,90.395 38.438 C 90.456 36.719,90.702 34.609,90.942 33.750 C 91.182 32.891,91.397 31.133,91.419 29.844 C 91.446 28.278,91.748 27.500,92.329 27.500 C 92.808 27.500,93.013 27.800,92.787 28.167 C 92.560 28.533,92.861 29.189,93.456 29.624 C 94.051 30.059,94.718 31.517,94.939 32.864 C 95.245 34.732,95.633 35.322,96.576 35.351 C 97.256 35.372,98.295 35.610,98.886 35.879 C 99.476 36.148,100.294 36.256,100.703 36.120 C 101.536 35.842,102.146 33.125,101.376 33.125 C 101.106 33.125,100.896 32.267,100.910 31.218 C 100.930 29.714,101.167 29.371,102.030 29.597 C 102.632 29.754,103.125 29.628,103.125 29.316 C 103.125 29.005,103.423 28.750,103.787 28.750 C 104.151 28.750,104.291 29.005,104.099 29.317 C 103.906 29.628,104.311 29.736,104.999 29.556 C 106.498 29.164,106.541 28.818,105.310 27.061 C 104.465 25.855,104.477 25.612,105.431 24.658 C 106.406 23.684,106.522 23.680,106.851 24.619 C 107.168 25.522,107.334 25.495,108.286 24.383 C 108.878 23.691,109.787 23.125,110.306 23.125 C 110.965 23.125,111.250 22.476,111.250 20.978 C 111.250 19.797,111.540 18.069,111.894 17.137 L 112.538 15.443 113.966 16.784 C 114.751 17.522,115.544 18.125,115.729 18.125 C 116.088 18.125,117.059 7.801,117.139 3.125 L 117.188 0.313 59.014 0.153 C 27.018 0.065,0.651 0.183,0.420 0.413 M134.773 0.934 C 134.970 1.448,135.442 1.675,135.823 1.440 C 136.204 1.205,137.463 1.076,138.621 1.154 C 139.945 1.243,140.579 1.055,140.327 0.648 C 139.646 -0.453,134.345 -0.180,134.773 0.934 M261.784 0.520 C 260.908 0.876,260.884 1.057,261.627 1.743 C 262.107 2.187,262.500 2.344,262.500 2.093 C 262.500 1.842,262.852 2.088,263.281 2.640 C 263.711 3.193,264.625 3.755,265.313 3.891 C 266.000 4.026,266.485 4.493,266.391 4.927 C 266.296 5.362,266.482 5.555,266.803 5.357 C 269.518 3.679,269.474 6.971,266.752 9.262 C 265.017 10.722,264.934 12.274,266.626 11.625 C 267.107 11.440,267.500 11.525,267.500 11.813 C 267.500 12.316,270.898 12.166,271.776 11.624 C 272.011 11.479,272.903 11.774,273.758 12.282 C 275.233 13.156,275.241 13.188,273.905 12.910 C 273.131 12.749,272.656 12.872,272.849 13.183 C 273.041 13.495,273.715 13.750,274.345 13.750 C 274.975 13.750,275.660 14.190,275.866 14.727 C 276.072 15.265,276.505 15.541,276.827 15.342 C 277.150 15.143,277.575 15.241,277.773 15.561 C 277.970 15.880,279.607 16.023,281.410 15.878 C 286.917 15.435,288.051 18.268,283.152 20.229 C 281.817 20.763,280.562 21.713,280.363 22.341 C 280.021 23.420,279.040 23.722,275.781 23.751 C 274.814 23.760,274.375 24.140,274.375 24.968 C 274.375 26.442,276.788 26.480,277.966 25.025 C 278.440 24.439,278.365 25.003,277.775 26.468 C 276.766 28.975,277.551 30.547,279.844 30.605 C 281.803 30.655,279.665 33.497,277.203 34.114 C 276.003 34.416,275.052 35.882,275.009 37.500 C 275.004 37.672,276.055 37.806,277.344 37.799 C 278.633 37.791,279.977 37.985,280.332 38.230 C 281.749 39.211,284.441 39.305,284.794 38.386 C 285.065 37.680,285.346 37.634,286.010 38.186 C 286.686 38.746,286.875 38.681,286.875 37.889 C 286.875 37.331,287.173 36.875,287.537 36.875 C 287.901 36.875,288.036 37.139,287.836 37.462 C 287.637 37.784,287.943 38.311,288.516 38.631 C 289.469 39.165,289.474 39.335,288.576 40.617 C 287.166 42.630,287.806 43.561,290.521 43.446 C 295.168 43.249,298.340 40.882,295.836 39.480 C 294.930 38.974,294.991 38.834,296.304 38.394 C 298.649 37.609,299.342 37.566,299.722 38.181 C 300.285 39.091,302.650 38.882,302.124 37.969 C 301.877 37.539,301.915 37.407,302.210 37.674 C 303.017 38.409,303.107 40.000,302.341 40.000 C 301.970 40.000,301.838 40.171,302.046 40.380 C 302.255 40.588,301.740 41.500,300.901 42.405 C 300.061 43.309,299.375 44.264,299.375 44.525 C 299.375 44.786,298.883 45.004,298.281 45.010 C 297.347 45.018,297.324 45.107,298.125 45.625 C 298.641 45.958,298.781 46.268,298.438 46.313 C 298.094 46.357,297.531 46.433,297.188 46.481 C 295.614 46.700,293.680 48.292,293.994 49.110 C 294.182 49.600,294.033 50.000,293.664 50.000 C 293.294 50.000,293.165 50.453,293.378 51.007 C 293.654 51.728,293.495 51.911,292.820 51.652 C 292.181 51.407,291.875 51.674,291.875 52.474 C 291.875 53.126,291.181 54.205,290.334 54.872 C 289.486 55.538,288.973 56.265,289.194 56.486 C 289.415 56.707,289.054 57.325,288.392 57.858 C 287.684 58.428,287.556 58.733,288.080 58.596 C 288.571 58.468,289.275 57.822,289.643 57.160 C 290.011 56.498,290.805 55.585,291.406 55.130 C 292.008 54.676,292.500 53.898,292.500 53.402 C 292.500 52.906,293.079 52.500,293.787 52.500 C 294.495 52.500,294.944 52.711,294.786 52.969 C 294.627 53.227,295.293 53.466,296.264 53.502 C 298.094 53.568,297.694 52.488,295.614 51.745 C 295.104 51.563,296.606 51.491,298.951 51.585 C 301.295 51.679,303.405 51.968,303.638 52.227 C 303.872 52.487,303.500 52.513,302.813 52.286 C 301.589 51.881,301.588 51.892,302.761 52.800 C 303.722 53.544,304.149 53.576,304.912 52.958 C 305.680 52.337,305.769 52.348,305.370 53.011 C 305.050 53.542,305.173 53.784,305.719 53.693 C 306.183 53.616,307.067 53.773,307.683 54.041 C 308.300 54.310,308.979 54.354,309.194 54.140 C 309.408 53.925,309.115 53.750,308.542 53.750 C 306.875 53.750,307.342 52.822,309.059 52.723 C 310.039 52.666,310.485 52.898,310.262 53.348 C 310.067 53.741,310.316 53.563,310.815 52.953 C 311.389 52.252,312.424 51.897,313.627 51.989 C 315.713 52.148,315.569 53.199,313.085 55.938 C 312.461 56.625,311.921 57.393,311.886 57.645 C 311.850 57.896,311.411 59.083,310.910 60.281 C 309.313 64.105,309.565 64.518,313.351 64.277 C 316.678 64.064,316.696 64.072,315.799 65.438 C 313.820 68.453,317.687 71.135,320.940 69.004 C 321.681 68.518,322.453 68.287,322.656 68.490 C 322.859 68.692,323.500 68.133,324.081 67.247 C 324.662 66.361,325.355 65.771,325.623 65.936 C 325.890 66.101,326.461 65.811,326.892 65.292 C 327.362 64.726,328.516 64.404,329.775 64.489 C 331.846 64.629,332.445 65.199,331.277 65.921 C 330.949 66.124,330.838 66.703,331.032 67.208 C 331.225 67.712,331.102 68.125,330.759 68.125 C 330.415 68.125,329.966 68.561,329.762 69.095 C 329.548 69.651,329.653 69.902,330.007 69.683 C 330.347 69.473,330.625 69.740,330.625 70.276 C 330.625 70.812,330.953 71.250,331.354 71.250 C 331.755 71.250,331.905 71.071,331.687 70.853 C 331.205 70.372,335.487 66.875,336.557 66.875 C 336.975 66.875,338.076 66.172,339.003 65.312 C 339.931 64.453,340.956 63.750,341.282 63.750 C 341.608 63.750,341.875 63.516,341.875 63.229 C 341.875 62.943,342.847 62.708,344.035 62.708 C 345.223 62.708,346.043 62.955,345.856 63.257 C 345.670 63.558,345.870 64.230,346.302 64.750 C 346.734 65.270,346.822 65.609,346.499 65.504 C 344.940 64.995,343.914 67.103,345.101 68.377 C 345.886 69.219,346.030 69.750,345.555 70.043 C 345.070 70.343,345.110 70.557,345.688 70.750 C 346.307 70.956,346.167 71.471,345.133 72.785 C 344.194 73.980,343.750 74.226,343.750 73.553 C 343.750 73.008,344.242 72.275,344.844 71.925 C 345.445 71.575,345.641 71.279,345.279 71.269 C 344.225 71.239,340.625 75.265,340.625 76.474 C 340.625 77.343,341.015 77.514,342.472 77.284 C 344.834 76.912,345.999 78.134,345.021 79.960 C 344.642 80.670,344.491 81.250,344.688 81.250 C 344.884 81.250,344.707 81.883,344.295 82.656 C 343.642 83.882,343.666 83.963,344.486 83.287 C 345.004 82.860,345.613 82.696,345.839 82.922 C 346.065 83.148,346.250 82.865,346.250 82.292 C 346.250 81.719,346.550 81.250,346.917 81.250 C 347.284 81.250,347.418 80.727,347.215 80.088 C 346.731 78.563,347.409 76.875,348.504 76.875 C 349.528 76.875,349.580 77.199,348.794 78.669 C 348.433 79.342,348.437 80.098,348.805 80.659 C 349.859 82.264,351.775 78.734,351.309 76.047 C 351.259 75.764,351.520 75.718,351.887 75.945 C 352.254 76.172,352.894 76.088,353.309 75.759 C 353.723 75.430,354.484 75.235,355.000 75.327 C 357.123 75.704,357.834 75.967,358.234 76.522 C 358.484 76.870,359.038 76.789,359.600 76.323 C 361.066 75.106,363.315 76.522,362.771 78.319 C 362.324 79.794,362.315 79.868,362.426 81.198 C 362.467 81.685,362.685 81.898,362.911 81.672 C 363.137 81.446,363.630 81.503,364.005 81.799 C 364.380 82.095,365.713 82.667,366.966 83.070 C 369.377 83.846,372.315 88.877,371.709 91.192 C 371.391 92.409,372.513 93.642,373.607 93.277 C 374.030 93.136,374.375 93.342,374.375 93.735 C 374.375 94.127,374.684 94.258,375.062 94.024 C 375.558 93.718,375.564 93.946,375.084 94.842 C 374.718 95.526,374.603 96.269,374.827 96.494 C 375.052 96.718,374.690 96.851,374.024 96.789 C 370.760 96.486,369.375 96.884,369.375 98.125 C 369.375 98.813,369.644 99.375,369.972 99.375 C 370.541 99.375,371.207 101.882,371.413 104.800 C 371.466 105.550,371.737 106.023,372.015 105.851 C 372.293 105.679,372.359 105.277,372.161 104.957 C 371.963 104.637,372.173 104.375,372.627 104.375 C 373.082 104.375,373.731 103.742,374.071 102.969 C 374.882 101.119,377.500 100.672,377.500 102.384 C 377.500 103.079,378.038 103.745,378.750 103.931 C 379.889 104.229,380.304 103.711,380.059 102.297 C 380.009 102.014,380.257 101.960,380.610 102.178 C 380.962 102.396,381.590 102.364,382.005 102.107 C 382.420 101.851,383.449 101.567,384.292 101.477 C 385.135 101.388,386.056 100.948,386.340 100.501 C 386.624 100.053,386.860 99.933,386.865 100.233 C 386.871 100.533,387.256 100.462,387.721 100.076 C 388.372 99.536,388.969 99.747,390.317 100.997 C 391.620 102.204,391.863 102.746,391.267 103.115 C 390.826 103.387,390.659 103.925,390.897 104.310 C 391.135 104.694,390.866 105.187,390.300 105.404 C 387.742 106.385,392.503 107.082,395.329 106.140 C 395.664 106.029,395.938 106.219,395.938 106.563 C 395.938 106.906,395.706 107.110,395.422 107.016 C 395.139 106.921,395.085 107.132,395.303 107.485 C 395.521 107.837,395.424 108.125,395.089 108.125 C 394.754 108.125,394.322 107.773,394.131 107.344 C 393.939 106.914,393.838 107.125,393.907 107.813 C 393.975 108.500,393.811 109.414,393.541 109.844 C 393.236 110.330,393.381 110.625,393.925 110.625 C 394.406 110.625,395.156 109.852,395.593 108.906 L 396.386 107.188 397.332 108.594 C 400.040 112.620,400.016 113.124,399.847 55.156 L 399.688 0.313 331.250 0.207 C 293.609 0.149,262.350 0.290,261.784 0.520 M108.125 20.928 C 108.125 21.021,107.703 21.447,107.188 21.875 C 106.405 22.524,106.250 22.437,106.250 21.346 C 106.250 20.441,106.538 20.150,107.188 20.399 C 107.703 20.597,108.125 20.835,108.125 20.928 M290.382 22.613 C 290.899 23.450,289.370 26.875,288.479 26.875 C 288.070 26.875,287.105 27.727,286.336 28.767 C 285.566 29.808,284.687 30.505,284.382 30.317 C 283.848 29.987,284.024 27.642,284.628 27.039 C 284.789 26.878,284.665 26.075,284.353 25.254 C 284.040 24.430,284.029 23.829,284.330 23.912 C 284.630 23.995,284.833 23.829,284.781 23.543 C 284.490 21.930,289.451 21.107,290.382 22.613 M272.292 24.792 C 271.670 25.414,271.789 26.875,272.461 26.875 C 272.784 26.875,273.005 26.313,272.953 25.625 C 272.847 24.212,272.857 24.226,272.292 24.792 M161.563 26.250 C 161.350 26.594,161.338 27.137,161.536 27.457 C 161.734 27.777,161.610 28.215,161.260 28.431 C 160.459 28.926,160.430 30.000,161.218 30.000 C 162.967 30.000,164.939 27.138,163.716 26.374 C 162.260 25.464,162.055 25.453,161.563 26.250 M150.339 28.707 C 149.912 29.398,150.898 30.143,151.475 29.566 C 152.070 28.972,151.959 28.125,151.287 28.125 C 150.963 28.125,150.537 28.387,150.339 28.707 M257.171 32.527 C 256.949 32.886,257.107 33.589,257.523 34.090 C 258.116 34.805,258.101 35.234,257.450 36.094 C 256.739 37.034,256.749 37.075,257.520 36.385 C 258.014 35.944,258.459 34.749,258.510 33.729 C 258.603 31.883,257.938 31.286,257.171 32.527 M242.634 33.027 C 242.880 33.081,243.407 33.758,243.805 34.531 L 244.529 35.938 243.226 34.583 C 242.323 33.645,241.486 33.344,240.499 33.602 C 239.254 33.927,239.448 34.128,242.037 35.190 C 246.895 37.184,244.301 38.715,238.523 37.265 C 237.001 36.883,236.497 35.000,237.917 35.000 C 238.647 35.000,238.994 34.282,238.855 33.062 C 238.819 32.742,241.229 32.719,242.634 33.027 M264.589 36.531 C 264.833 37.167,264.636 37.321,263.928 37.049 C 263.224 36.779,263.067 36.900,263.406 37.448 C 263.673 37.880,264.422 38.095,265.071 37.925 C 265.721 37.755,266.094 37.872,265.901 38.183 C 265.026 39.599,262.325 38.058,262.928 36.486 C 263.358 35.366,264.150 35.387,264.589 36.531 M257.523 39.035 C 257.107 39.536,256.976 40.282,257.230 40.694 C 257.523 41.168,257.428 41.279,256.972 40.997 C 255.873 40.318,256.096 38.125,257.264 38.125 C 258.081 38.125,258.131 38.302,257.523 39.035 M296.919 39.219 C 297.076 40.900,298.036 42.066,297.948 40.469 C 297.895 39.523,297.632 38.750,297.364 38.750 C 297.095 38.750,296.895 38.961,296.919 39.219 M133.115 41.927 C 133.121 42.471,132.735 42.917,132.258 42.917 C 131.781 42.917,131.479 42.471,131.585 41.927 C 131.692 41.383,131.805 40.516,131.837 40.000 C 131.916 38.705,133.102 40.492,133.115 41.927 M262.726 40.938 C 262.528 41.453,262.162 41.875,261.912 41.875 C 261.663 41.875,261.458 41.453,261.458 40.938 C 261.458 40.422,261.825 40.000,262.272 40.000 C 262.739 40.000,262.932 40.400,262.726 40.938 M133.125 46.816 C 133.125 48.389,132.936 48.585,131.719 48.278 C 128.859 47.555,128.493 45.000,131.250 45.000 C 132.903 45.000,133.125 45.215,133.125 46.816 M69.109 46.175 C 68.642 46.930,66.250 47.506,66.250 46.862 C 66.250 46.576,66.742 46.213,67.344 46.056 C 69.163 45.580,69.464 45.601,69.109 46.175 M288.830 52.307 C 289.301 52.889,289.360 53.169,288.960 52.929 C 288.559 52.689,288.116 52.838,287.975 53.261 C 287.834 53.684,287.555 53.405,287.356 52.640 C 286.924 50.990,287.631 50.830,288.830 52.307 M286.849 53.348 C 286.793 54.854,282.572 56.935,281.979 55.749 C 281.611 55.014,281.802 54.351,282.599 53.594 C 283.232 52.992,283.750 52.697,283.750 52.938 C 283.750 53.178,284.066 53.059,284.451 52.674 C 285.270 51.855,286.887 52.310,286.849 53.348 M61.071 52.887 C 60.859 53.100,61.106 53.696,61.622 54.211 C 62.709 55.298,63.448 54.869,62.909 53.464 C 62.525 52.464,61.741 52.217,61.071 52.887 M281.816 60.534 C 280.892 60.851,280.423 60.207,280.953 59.350 C 281.289 58.806,281.542 58.836,281.933 59.465 C 282.243 59.963,282.194 60.404,281.816 60.534 M66.250 60.224 C 66.250 60.731,65.898 61.288,65.469 61.461 C 64.978 61.659,64.949 61.795,65.392 61.826 C 66.476 61.902,67.695 60.194,66.905 59.706 C 66.545 59.483,66.250 59.716,66.250 60.224 M88.406 60.555 C 88.080 60.860,87.109 61.311,86.250 61.557 C 84.732 61.991,84.723 61.976,85.938 61.022 C 87.254 59.987,89.461 59.570,88.406 60.555 M284.731 65.424 C 284.375 66.351,284.219 66.383,283.749 65.624 C 283.394 65.050,283.457 64.556,283.921 64.269 C 284.920 63.652,285.238 64.104,284.731 65.424 M65.000 66.421 C 65.000 67.477,66.981 68.556,68.416 68.282 C 69.703 68.036,69.884 67.800,69.312 67.112 C 68.268 65.853,66.646 66.000,67.148 67.309 C 67.504 68.237,67.396 68.225,66.277 67.212 C 65.575 66.576,65.000 66.220,65.000 66.421 M62.429 67.695 C 62.390 67.760,62.264 68.656,62.150 69.688 C 61.964 71.360,62.018 71.428,62.644 70.313 C 63.031 69.625,63.736 68.772,64.213 68.417 C 64.908 67.899,64.825 67.753,63.789 67.675 C 63.080 67.621,62.468 67.631,62.429 67.695 M56.201 70.901 C 56.174 71.265,56.009 71.209,55.835 70.777 C 55.661 70.346,55.230 70.171,54.877 70.389 C 54.524 70.607,54.000 70.405,53.713 69.940 C 52.917 68.653,54.547 67.960,55.469 69.194 C 55.898 69.769,56.228 70.537,56.201 70.901 M304.527 69.826 C 304.096 69.981,303.931 70.412,304.161 70.785 C 304.433 71.225,304.189 71.312,303.465 71.034 C 302.685 70.735,301.902 71.126,300.863 72.334 C 298.534 75.042,298.771 75.517,301.717 74.048 C 304.319 72.750,306.807 69.012,304.527 69.826 M329.018 72.707 C 327.489 76.003,331.500 78.512,333.374 75.432 C 334.161 74.141,332.415 72.332,330.931 72.901 C 330.479 73.075,330.014 72.778,329.898 72.241 C 329.741 71.513,329.518 71.631,329.018 72.707 M30.625 86.823 C 30.625 87.138,30.977 87.539,31.406 87.714 C 31.931 87.928,31.680 88.442,30.642 89.280 C 29.793 89.966,28.879 90.392,28.611 90.227 C 28.344 90.061,28.125 90.241,28.125 90.625 C 28.125 91.009,27.868 91.165,27.553 90.970 C 27.239 90.776,26.885 90.906,26.767 91.260 C 26.447 92.222,23.125 92.685,23.125 91.768 C 23.125 91.352,22.728 91.554,22.243 92.217 C 21.758 92.881,21.520 93.681,21.714 93.996 C 21.909 94.311,21.730 94.359,21.316 94.103 C 20.734 93.744,20.733 93.436,21.308 92.743 C 21.912 92.015,21.858 91.921,21.026 92.240 C 19.238 92.926,20.467 95.000,22.662 95.000 C 23.383 95.000,23.654 95.275,23.377 95.723 C 23.070 96.219,23.354 96.336,24.277 96.094 C 25.019 95.901,25.625 95.969,25.625 96.247 C 25.625 97.016,29.094 98.060,29.931 97.542 C 30.336 97.292,30.488 96.619,30.268 96.047 C 30.049 95.475,29.678 95.125,29.445 95.269 C 29.211 95.414,29.030 94.498,29.041 93.235 C 29.064 90.753,28.814 90.841,33.894 91.521 C 35.383 91.720,35.523 91.602,34.988 90.603 C 34.651 89.973,34.375 88.736,34.375 87.854 C 34.375 86.488,34.096 86.250,32.500 86.250 C 31.469 86.250,30.625 86.508,30.625 86.823 M35.635 86.642 C 35.621 87.606,37.311 88.937,37.716 88.282 C 37.895 87.991,37.784 87.344,37.468 86.845 C 36.971 86.059,36.892 86.063,36.875 86.875 C 36.858 87.708,36.789 87.708,36.250 86.875 C 35.917 86.359,35.640 86.255,35.635 86.642 M29.426 92.267 C 29.360 93.985,30.934 95.415,31.607 94.249 C 31.865 93.803,31.836 93.655,31.544 93.921 C 31.251 94.187,30.667 93.624,30.244 92.671 C 29.573 91.156,29.470 91.105,29.426 92.267 M375.156 107.975 C 372.753 110.595,372.334 113.460,374.452 112.788 C 375.182 112.556,376.237 112.294,376.796 112.206 C 377.381 112.114,377.728 111.585,377.614 110.960 C 377.506 110.363,377.692 110.045,378.029 110.253 C 378.705 110.671,378.307 106.836,377.605 106.162 C 377.375 105.942,376.273 106.758,375.156 107.975 M7.500 107.039 C 7.500 107.473,6.779 108.370,5.898 109.031 C 5.017 109.693,3.715 110.738,3.005 111.354 C 2.295 111.970,1.498 112.341,1.235 112.178 C 0.299 111.600,0.043 113.830,0.392 119.532 C 0.587 122.711,0.766 125.637,0.790 126.034 C 0.852 127.059,2.500 126.299,2.500 125.246 C 2.500 124.767,2.219 124.375,1.875 124.375 C 1.531 124.375,1.250 124.094,1.250 123.750 C 1.250 123.406,1.795 123.125,2.461 123.125 C 3.266 123.125,3.642 122.726,3.583 121.936 C 3.525 121.165,3.111 120.820,2.408 120.955 C 1.531 121.124,1.419 120.902,1.826 119.801 C 2.104 119.051,2.580 118.413,2.884 118.384 C 3.403 118.333,4.154 118.077,7.156 116.930 C 8.355 116.472,8.496 115.847,8.794 109.688 C 8.844 108.656,8.855 107.461,8.817 107.031 C 8.729 106.007,7.500 106.014,7.500 107.039 M395.786 110.208 C 395.299 111.277,395.314 111.667,395.842 111.667 C 396.238 111.667,396.603 111.010,396.653 110.208 C 396.766 108.380,396.619 108.380,395.786 110.208 M377.509 114.357 C 376.975 115.356,377.021 115.625,377.724 115.625 C 378.779 115.625,379.571 113.945,378.754 113.440 C 378.443 113.247,377.882 113.660,377.509 114.357 M391.250 115.609 C 391.250 115.940,390.864 116.063,390.393 115.882 C 389.513 115.544,389.068 115.897,386.069 119.310 C 385.111 120.401,384.056 121.127,383.726 120.922 C 383.395 120.718,383.125 121.100,383.125 121.771 C 383.125 123.119,384.736 124.058,385.348 123.068 C 385.561 122.723,386.203 122.486,386.774 122.542 C 388.688 122.730,389.452 122.505,389.059 121.870 C 388.845 121.523,389.321 120.978,390.116 120.659 C 390.912 120.340,391.164 120.061,390.677 120.040 C 390.190 120.018,389.939 119.853,390.119 119.673 C 390.702 119.089,392.506 120.110,392.087 120.787 C 391.851 121.170,391.982 121.258,392.403 120.997 C 392.800 120.752,393.129 119.794,393.135 118.869 C 393.141 117.709,393.308 117.446,393.673 118.022 C 394.075 118.656,394.283 118.544,394.542 117.553 C 394.729 116.837,394.557 116.048,394.160 115.800 C 392.994 115.072,391.250 114.957,391.250 115.609 M6.386 125.603 C 6.415 126.623,6.673 127.312,6.960 127.135 C 7.582 126.751,7.423 123.750,6.780 123.750 C 6.535 123.750,6.357 124.584,6.386 125.603 M376.684 126.063 C 376.175 126.901,376.066 132.109,376.529 133.438 C 376.870 134.417,383.581 138.149,385.617 138.491 C 386.876 138.704,388.125 139.653,388.125 140.399 C 388.125 140.889,388.547 141.451,389.063 141.649 C 390.129 142.058,390.335 144.719,389.347 145.330 C 388.987 145.552,388.756 147.118,388.833 148.809 C 389.030 153.120,390.034 153.857,395.395 153.624 L 399.688 153.438 399.857 140.982 C 399.951 134.132,399.797 128.297,399.516 128.016 C 398.785 127.285,390.085 126.856,389.669 127.530 C 389.241 128.223,381.253 128.011,381.251 127.307 C 381.250 127.029,380.998 126.957,380.690 127.147 C 380.383 127.337,379.970 127.073,379.773 126.559 C 379.575 126.045,379.108 125.625,378.733 125.625 C 378.354 125.625,378.260 125.972,378.521 126.406 C 378.872 126.992,378.739 126.984,377.988 126.376 C 377.437 125.930,376.850 125.789,376.684 126.063 M109.375 133.790 C 109.891 134.091,110.035 134.346,109.697 134.356 C 109.358 134.366,110.134 134.939,111.421 135.629 C 113.598 136.796,115.618 137.302,120.313 137.857 C 127.433 138.698,128.180 139.410,125.335 142.642 C 123.879 144.295,123.768 144.319,121.625 143.423 C 116.746 141.385,109.157 142.256,103.802 145.469 C 103.346 145.742,104.221 146.336,105.411 146.562 C 106.045 146.681,106.703 146.817,106.875 146.862 C 107.047 146.908,106.203 147.281,105.000 147.692 C 103.541 148.189,102.749 148.884,102.621 149.780 C 102.372 151.529,100.342 152.039,99.098 150.664 C 97.839 149.273,97.854 147.565,99.131 147.075 C 100.048 146.723,100.046 146.638,99.104 146.110 C 98.421 145.729,98.206 145.106,98.469 144.276 C 98.855 143.060,98.815 143.053,97.246 144.081 C 96.355 144.666,95.625 145.674,95.625 146.322 C 95.625 146.970,95.203 147.500,94.688 147.500 C 93.614 147.500,93.350 144.071,94.375 143.438 C 95.341 142.841,95.113 140.177,94.063 139.774 C 93.543 139.575,93.125 139.756,93.125 140.182 C 93.125 140.604,92.492 141.358,91.719 141.859 C 89.539 143.268,85.886 145.198,86.384 144.677 C 87.149 143.878,85.638 141.711,84.800 142.406 C 84.268 142.848,84.063 142.598,84.063 141.509 C 84.063 140.114,84.514 139.713,85.828 139.941 C 86.111 139.991,86.162 139.738,85.941 139.380 C 85.720 139.022,85.206 138.923,84.801 139.160 C 84.395 139.397,84.860 138.777,85.835 137.781 C 87.825 135.750,90.149 135.262,93.470 136.179 C 95.838 136.833,97.500 136.545,97.500 135.482 C 97.500 135.068,97.220 135.079,96.698 135.513 C 96.208 135.919,95.545 135.962,94.997 135.623 C 91.997 133.769,106.228 131.955,109.375 133.790 M10.625 134.026 C 10.625 135.417,9.646 135.694,9.544 134.332 C 9.494 133.668,9.716 133.125,10.039 133.125 C 10.361 133.125,10.625 133.530,10.625 134.026 M46.260 134.219 C 46.254 134.992,46.531 135.625,46.875 135.625 C 47.658 135.625,47.658 134.962,46.875 133.750 C 46.385 132.992,46.267 133.082,46.260 134.219 M13.438 145.625 C 13.225 145.969,12.646 146.250,12.151 146.250 C 11.655 146.250,11.250 145.969,11.250 145.625 C 11.250 145.281,11.829 145.000,12.537 145.000 C 13.245 145.000,13.650 145.281,13.438 145.625 M105.418 153.378 C 105.132 155.465,105.260 156.216,105.947 156.480 C 106.487 156.687,106.695 157.242,106.461 157.852 C 106.244 158.416,106.440 159.106,106.896 159.388 C 108.434 160.338,108.065 162.497,106.303 162.864 C 105.414 163.049,104.249 163.434,103.713 163.718 C 103.178 164.003,101.491 164.152,99.966 164.048 C 98.441 163.945,96.770 164.138,96.253 164.477 C 95.485 164.981,95.519 165.030,96.439 164.742 C 97.148 164.520,97.411 164.638,97.149 165.062 C 96.921 165.431,96.224 165.601,95.601 165.438 C 94.764 165.219,94.562 165.409,94.826 166.164 C 95.109 166.974,95.016 167.032,94.378 166.442 C 93.746 165.858,93.128 166.036,91.516 167.266 C 89.509 168.796,89.418 168.807,87.780 167.734 L 86.100 166.633 87.581 165.400 C 88.523 164.616,88.671 164.309,87.989 164.556 C 87.398 164.770,86.744 164.669,86.536 164.332 C 86.328 163.995,86.389 163.778,86.672 163.851 C 88.629 164.352,93.660 162.910,93.961 161.762 C 94.142 161.067,94.553 160.662,94.874 160.860 C 95.195 161.058,95.961 160.665,96.576 159.985 C 97.191 159.306,98.105 158.750,98.607 158.750 C 99.213 158.750,99.411 158.329,99.194 157.501 C 98.944 156.543,99.365 156.017,101.010 155.236 C 102.935 154.323,103.044 154.141,102.086 153.440 C 101.118 152.732,101.188 152.569,102.853 151.668 C 105.576 150.194,105.831 150.364,105.418 153.378 M134.171 152.627 C 134.574 152.941,134.776 153.901,134.621 154.760 C 134.458 155.657,135.047 157.904,136.005 160.037 C 137.440 163.237,137.613 164.250,137.251 167.337 C 136.773 171.402,137.789 171.265,138.356 167.188 C 138.547 165.813,138.713 164.617,138.726 164.531 C 138.909 163.319,139.996 165.014,140.328 167.031 C 140.569 168.492,141.028 170.012,141.347 170.408 C 142.155 171.411,143.130 174.989,142.613 175.052 C 139.940 175.380,139.260 175.302,138.681 174.604 C 138.231 174.062,136.560 173.820,133.673 173.878 C 128.689 173.978,127.192 173.168,129.130 171.420 C 133.482 167.493,133.981 164.795,131.875 156.563 C 131.188 153.874,130.625 151.606,130.625 151.521 C 130.625 151.195,133.474 152.084,134.171 152.627 M86.435 155.640 C 86.633 156.395,86.473 156.869,86.039 156.816 C 84.121 156.581,83.398 156.869,84.369 157.483 C 85.010 157.888,85.921 157.705,87.292 156.896 C 89.271 155.728,89.283 155.729,89.037 157.008 C 88.638 159.081,86.763 160.749,85.174 160.445 C 84.391 160.296,83.750 160.439,83.750 160.764 C 83.750 161.088,83.398 161.231,82.969 161.081 C 82.539 160.931,82.277 160.317,82.386 159.716 C 82.523 158.957,82.333 158.774,81.761 159.113 C 81.308 159.382,81.852 158.654,82.969 157.495 C 84.086 156.336,85.000 155.160,85.000 154.881 C 85.000 153.835,86.117 154.426,86.435 155.640 M81.117 156.094 C 80.974 156.789,80.445 157.109,79.665 156.972 C 78.103 156.697,77.903 156.489,78.412 155.667 C 79.125 154.512,81.369 154.867,81.117 156.094 M96.210 159.736 C 95.810 160.217,95.220 160.449,94.899 160.250 C 94.553 160.036,94.611 159.531,95.040 159.014 C 95.440 158.533,96.030 158.301,96.351 158.500 C 96.697 158.714,96.639 159.219,96.210 159.736 M140.305 162.344 C 140.190 162.945,140.074 163.524,140.048 163.631 C 140.022 163.737,139.705 163.642,139.345 163.419 C 138.897 163.142,138.921 162.735,139.421 162.132 C 140.380 160.977,140.559 161.019,140.305 162.344 M116.482 165.130 C 116.034 165.856,113.125 165.735,113.125 164.990 C 113.125 164.641,113.949 164.418,114.957 164.495 C 115.964 164.571,116.651 164.857,116.482 165.130 M146.867 168.111 C 147.407 169.119,147.354 169.280,146.577 168.982 C 146.053 168.781,145.625 168.224,145.625 167.746 C 145.625 166.525,146.092 166.662,146.867 168.111 M150.000 171.014 C 150.000 171.845,149.830 171.887,149.063 171.250 C 148.547 170.822,148.125 170.366,148.125 170.236 C 148.125 170.106,148.547 170.000,149.063 170.000 C 149.578 170.000,150.000 170.456,150.000 171.014 M91.914 174.447 C 92.464 175.476,92.447 175.711,91.834 175.507 C 91.401 175.363,90.977 174.768,90.891 174.185 C 90.681 172.754,91.059 172.851,91.914 174.447 M252.656 174.833 C 252.227 174.982,251.875 175.392,251.875 175.744 C 251.875 176.096,252.263 176.235,252.736 176.053 C 253.210 175.871,253.881 176.006,254.228 176.353 C 254.652 176.777,254.988 176.776,255.252 176.348 C 255.468 175.998,255.360 175.535,255.010 175.319 C 254.661 175.103,254.371 175.154,254.365 175.432 C 254.360 175.710,254.149 175.628,253.897 175.250 C 253.644 174.872,253.086 174.684,252.656 174.833 M241.717 177.171 C 240.657 178.628,240.667 178.708,242.012 179.651 C 243.806 180.908,244.153 180.881,245.785 179.360 C 246.532 178.664,247.505 178.233,247.947 178.403 C 249.186 178.878,248.900 178.138,247.344 176.840 C 245.389 175.209,243.043 175.347,241.717 177.171 M112.022 178.878 C 112.253 179.570,117.224 182.442,118.262 182.482 C 119.566 182.534,117.713 180.586,115.882 179.982 C 114.710 179.595,113.750 179.019,113.750 178.702 C 113.750 178.384,113.305 178.125,112.760 178.125 C 112.216 178.125,111.884 178.464,112.022 178.878 M121.440 179.401 C 122.222 180.315,122.364 180.978,121.940 181.736 C 121.439 182.632,121.278 182.509,120.890 180.929 C 120.638 179.902,120.124 178.856,119.748 178.603 C 119.318 178.316,119.302 178.141,119.705 178.135 C 120.058 178.129,120.839 178.699,121.440 179.401 M96.902 180.699 C 97.403 180.803,98.469 180.524,99.272 180.080 C 100.075 179.637,100.895 179.437,101.095 179.637 C 101.295 179.837,101.125 180.000,100.717 180.000 C 100.239 180.000,100.115 180.554,100.368 181.563 C 100.610 182.525,100.495 183.125,100.068 183.125 C 99.687 183.125,99.375 183.504,99.375 183.967 C 99.375 184.430,98.813 185.457,98.125 186.250 C 97.438 187.043,96.875 187.494,96.875 187.253 C 96.875 187.012,97.438 185.650,98.125 184.227 C 99.369 181.654,99.846 179.539,98.816 181.164 C 98.144 182.226,94.926 180.880,94.538 179.375 C 94.346 178.631,94.472 178.652,95.144 179.474 C 95.610 180.044,96.402 180.596,96.902 180.699 M145.605 181.288 C 144.647 183.077,143.648 182.783,144.480 180.957 C 144.866 180.109,145.424 179.563,145.718 179.745 C 146.012 179.927,145.961 180.621,145.605 181.288 M226.107 180.508 C 226.243 180.916,225.909 181.250,225.365 181.250 C 224.820 181.250,224.375 180.805,224.375 180.260 C 224.375 179.157,225.720 179.349,226.107 180.508 M198.125 185.156 C 198.125 186.523,197.605 186.538,196.143 185.216 C 195.234 184.393,194.998 184.361,194.990 185.059 C 194.983 185.774,194.868 185.763,194.375 185.000 C 193.857 184.199,193.768 184.222,193.760 185.156 C 193.754 185.758,193.469 186.250,193.125 186.250 C 192.781 186.250,192.500 185.828,192.500 185.313 C 192.500 184.213,190.841 184.039,190.487 185.102 C 190.197 185.973,188.125 186.383,188.125 185.570 C 188.125 185.256,187.882 185.000,187.586 185.000 C 186.829 185.000,187.208 187.674,188.187 189.243 C 189.096 190.698,191.522 191.546,192.685 190.816 C 193.099 190.556,193.950 190.428,194.577 190.531 C 195.287 190.648,195.840 190.250,196.042 189.476 C 196.314 188.439,196.814 188.263,199.060 188.415 C 201.745 188.596,205.417 185.718,203.787 184.710 C 203.470 184.514,202.840 184.851,202.387 185.458 C 201.520 186.620,198.951 187.008,199.219 185.937 C 199.305 185.593,199.703 185.313,200.104 185.313 C 200.505 185.313,200.941 184.990,201.072 184.595 C 201.215 184.167,200.670 183.915,199.719 183.970 C 198.654 184.032,198.126 184.425,198.125 185.156 M219.059 185.006 C 218.617 185.721,219.238 188.100,219.886 188.173 C 220.121 188.199,220.785 188.312,221.363 188.424 C 222.199 188.585,222.312 188.351,221.917 187.282 C 221.643 186.543,221.123 185.938,220.762 185.938 C 220.400 185.938,219.870 185.681,219.583 185.369 C 219.281 185.038,219.390 184.988,219.844 185.249 C 220.273 185.496,220.625 185.401,220.625 185.037 C 220.625 184.196,219.572 184.175,219.059 185.006 M214.372 186.875 C 213.880 188.579,213.866 190.000,214.342 190.000 C 215.271 190.000,215.509 189.164,214.966 187.813 C 214.689 187.125,214.422 186.703,214.372 186.875 M118.900 188.757 C 119.332 189.449,120.011 189.890,120.409 189.737 C 120.807 189.584,121.618 189.996,122.212 190.652 C 122.806 191.309,123.548 191.687,123.861 191.494 C 124.511 191.092,126.363 192.436,125.991 193.040 C 125.855 193.258,126.396 193.477,127.193 193.524 C 129.481 193.661,129.628 191.515,127.438 189.956 C 125.305 188.437,123.346 188.585,123.636 190.243 C 123.805 191.210,123.699 191.253,122.917 190.533 C 122.211 189.881,122.165 189.472,122.719 188.750 C 123.344 187.934,123.295 187.924,122.344 188.670 C 121.399 189.411,121.250 189.390,121.250 188.514 C 121.250 187.848,120.712 187.500,119.682 187.500 C 118.268 187.500,118.191 187.623,118.900 188.757 M216.250 187.813 C 216.250 188.435,218.655 190.512,218.988 190.178 C 219.567 189.600,218.138 187.500,217.166 187.500 C 216.662 187.500,216.250 187.641,216.250 187.813 M232.500 188.683 C 232.500 189.344,234.052 190.009,235.520 189.978 C 236.265 189.962,236.116 189.700,235.000 189.063 C 233.168 188.015,232.500 187.914,232.500 188.683 M199.527 189.790 C 199.096 189.964,198.951 190.434,199.205 190.835 C 199.460 191.235,199.673 191.773,199.678 192.031 C 199.692 192.739,200.935 192.283,200.954 191.563 C 200.963 191.219,201.191 190.586,201.460 190.156 C 201.960 189.357,201.037 189.182,199.527 189.790 M104.482 191.659 C 105.905 192.947,105.944 193.750,104.583 193.750 C 104.010 193.750,103.717 193.574,103.932 193.360 C 104.146 193.145,103.701 192.452,102.942 191.818 C 102.012 191.042,101.852 190.660,102.451 190.646 C 102.939 190.634,103.853 191.090,104.482 191.659 M129.375 193.882 C 129.375 194.233,128.772 194.363,128.035 194.170 C 126.058 193.653,127.486 194.721,129.807 195.494 C 131.459 196.045,131.742 196.006,131.459 195.267 C 131.270 194.776,131.428 194.375,131.808 194.375 C 132.189 194.375,132.500 194.969,132.500 195.695 C 132.500 196.864,132.749 196.967,134.688 196.604 C 136.210 196.318,136.875 196.424,136.875 196.951 C 136.875 197.367,137.053 197.531,137.270 197.314 C 137.487 197.097,138.190 197.200,138.832 197.544 C 139.623 197.967,140.000 197.960,140.000 197.522 C 140.000 197.166,139.671 196.875,139.268 196.875 C 138.865 196.875,138.092 196.478,137.549 195.992 C 136.228 194.810,129.375 193.041,129.375 193.882 M140.849 197.933 C 141.559 198.642,143.864 198.815,143.439 198.127 C 143.226 197.782,142.458 197.500,141.734 197.500 C 141.009 197.500,140.611 197.695,140.849 197.933 M107.458 206.613 C 106.829 207.371,106.571 207.398,106.161 206.748 C 105.840 206.240,106.050 205.638,106.723 205.135 C 108.056 204.139,108.601 205.235,107.458 206.613 M119.396 204.747 C 119.366 205.731,121.304 207.288,123.125 207.742 L 124.688 208.132 123.125 207.351 C 122.266 206.922,121.080 206.007,120.490 205.317 C 119.899 204.627,119.407 204.370,119.396 204.747 " stroke="none" fill="#000000" fill-rule="evenodd"></path></g></svg>