<svg id="svg" xmlns="http://www.w3.org/2000/svg" xmlns:xlink="http://www.w3.org/1999/xlink" width="400" height="225" viewBox="0, 0, 400,225"><g id="svgg"><path id="path0" d="M0.255 0.863 C -0.640 3.194,0.315 93.442,1.250 94.925 C 1.973 96.072,2.009 96.478,1.406 96.696 C 0.305 97.095,0.431 98.750,1.563 98.750 C 2.078 98.750,2.500 98.285,2.500 97.716 C 2.500 96.801,2.657 96.819,3.857 97.872 C 4.604 98.527,5.009 98.711,4.758 98.281 C 4.474 97.795,4.669 97.500,5.276 97.500 C 5.812 97.500,6.250 97.228,6.250 96.895 C 6.250 96.562,6.670 96.450,7.184 96.648 C 7.698 96.845,7.959 97.262,7.766 97.576 C 7.572 97.889,7.152 97.984,6.832 97.786 C 6.512 97.588,6.250 97.724,6.250 98.088 C 6.250 98.452,6.813 98.750,7.500 98.750 C 8.188 98.750,8.750 99.048,8.750 99.412 C 8.750 99.776,8.964 99.941,9.226 99.780 C 9.487 99.618,10.214 99.860,10.840 100.318 C 12.054 101.206,10.627 102.652,9.063 102.118 C 8.719 102.001,7.594 103.184,6.563 104.749 C 5.511 106.343,3.625 108.144,2.269 108.847 L -0.149 110.102 0.257 118.957 C 0.481 123.828,0.585 129.219,0.488 130.938 C 0.391 132.656,0.313 154.453,0.313 179.375 L 0.313 224.688 55.869 224.847 C 111.805 225.008,113.144 224.962,113.115 222.892 C 113.110 222.505,112.833 222.609,112.500 223.125 C 111.979 223.932,111.893 223.914,111.885 223.000 C 111.879 222.415,112.306 221.696,112.832 221.401 C 113.359 221.107,113.965 219.783,114.180 218.461 C 114.404 217.080,114.329 216.202,114.004 216.400 C 112.588 217.260,111.837 215.038,113.112 213.763 C 113.807 213.068,114.150 212.500,113.875 212.500 C 113.600 212.500,113.037 212.838,112.625 213.250 C 112.042 213.833,111.875 213.797,111.875 213.088 C 111.875 212.586,112.466 211.807,113.188 211.356 C 114.201 210.723,114.445 210.056,114.256 208.437 C 114.122 207.282,114.260 206.491,114.564 206.679 C 114.868 206.867,115.015 208.096,114.890 209.409 C 114.764 210.722,114.775 211.683,114.913 211.545 C 115.051 211.407,115.720 211.591,116.399 211.955 C 117.275 212.424,117.833 212.417,118.317 211.933 C 118.811 211.439,118.764 211.250,118.146 211.250 C 117.676 211.250,117.439 211.103,117.619 210.923 C 118.471 210.071,120.000 211.528,120.000 213.192 C 120.000 214.186,120.225 215.000,120.499 215.000 C 120.774 215.000,120.884 215.984,120.744 217.188 C 120.603 218.391,120.208 219.375,119.865 219.375 C 119.522 219.375,119.403 219.797,119.601 220.313 C 119.847 220.953,119.565 221.250,118.711 221.250 C 118.023 221.250,117.279 221.742,117.057 222.344 C 116.835 222.945,116.352 223.664,115.983 223.940 C 115.589 224.235,115.829 224.354,116.563 224.228 C 117.289 224.104,117.776 223.567,117.726 222.945 C 117.667 222.219,118.103 221.875,119.081 221.875 C 119.874 221.875,120.968 221.704,121.511 221.496 C 122.136 221.256,122.500 221.454,122.500 222.034 C 122.500 222.686,122.028 222.861,120.871 222.640 C 119.303 222.341,117.861 223.442,118.489 224.459 C 119.368 225.880,147.044 224.969,148.838 223.460 C 150.392 222.152,150.481 221.909,149.530 221.577 C 147.828 220.982,145.318 215.531,146.369 214.712 C 146.828 214.355,147.557 213.261,147.991 212.282 C 148.496 211.142,149.103 210.627,149.682 210.849 C 150.179 211.039,150.746 210.935,150.943 210.616 C 151.140 210.297,150.586 209.857,149.713 209.638 C 148.604 209.360,148.125 208.817,148.125 207.842 C 148.125 207.073,147.569 205.941,146.890 205.326 C 146.210 204.711,145.832 203.920,146.050 203.568 C 146.294 203.174,145.937 203.061,145.121 203.275 C 144.331 203.481,143.475 203.234,143.001 202.663 C 142.035 201.499,137.349 198.437,136.778 198.596 C 136.553 198.659,136.237 198.368,136.077 197.949 C 135.753 197.102,140.133 196.976,142.001 197.779 C 142.586 198.030,143.360 198.054,143.720 197.831 C 144.080 197.608,144.375 197.724,144.375 198.088 C 144.375 199.098,145.443 198.877,145.863 197.780 C 146.068 197.247,145.972 196.973,145.649 197.173 C 145.327 197.372,144.757 196.965,144.384 196.268 C 144.011 195.570,143.170 195.000,142.515 195.000 C 141.860 195.000,141.166 194.745,140.974 194.434 C 140.781 194.122,140.062 194.014,139.374 194.194 C 138.638 194.387,138.125 194.213,138.125 193.771 C 138.125 193.358,137.776 193.137,137.350 193.279 C 136.924 193.421,136.060 192.882,135.430 192.081 C 134.800 191.280,133.893 190.625,133.414 190.625 C 132.936 190.625,132.239 190.055,131.866 189.357 C 131.493 188.660,130.920 188.255,130.594 188.457 C 130.267 188.659,130.000 188.553,130.000 188.223 C 130.000 187.893,129.156 187.328,128.125 186.969 C 127.094 186.609,126.250 186.036,126.250 185.694 C 126.250 184.667,127.500 184.222,128.366 184.941 C 128.812 185.311,129.386 185.406,129.641 185.151 C 129.896 184.896,130.010 185.109,129.896 185.625 C 129.768 186.202,130.108 186.529,130.781 186.476 C 131.383 186.428,131.875 186.669,131.875 187.011 C 131.875 187.354,132.297 187.472,132.813 187.274 C 133.328 187.076,133.750 187.199,133.750 187.547 C 133.750 187.895,134.102 188.123,134.531 188.054 C 135.908 187.832,137.580 188.880,138.122 190.304 C 138.509 191.323,139.115 191.662,140.418 191.590 C 141.391 191.537,142.891 191.858,143.750 192.305 C 144.609 192.752,145.805 193.119,146.406 193.121 C 147.008 193.123,147.500 193.382,147.500 193.695 C 147.500 194.811,152.300 195.136,154.208 194.149 C 156.679 192.871,158.039 191.250,156.639 191.250 C 155.337 191.250,155.357 190.707,156.715 189.206 C 157.773 188.037,157.746 188.011,155.771 188.322 C 153.934 188.612,152.500 187.617,152.500 186.052 C 152.500 185.129,157.719 185.844,158.789 186.914 C 160.410 188.535,160.839 188.440,160.368 186.563 C 159.887 184.645,160.205 184.601,161.844 186.361 C 163.354 187.982,163.564 187.845,163.847 185.053 C 164.088 182.666,162.642 181.508,162.085 183.641 C 161.860 184.499,161.425 184.788,160.747 184.528 C 159.082 183.889,157.540 182.317,157.941 181.667 C 158.151 181.327,157.996 181.256,157.591 181.507 C 156.748 182.027,154.153 180.093,153.872 178.735 C 153.767 178.228,153.275 177.500,152.778 177.119 C 152.281 176.737,151.863 176.174,151.849 175.869 C 151.834 175.563,150.990 174.623,149.974 173.779 C 148.957 172.936,148.125 171.741,148.125 171.123 C 148.125 170.505,147.724 170.000,147.233 170.000 C 146.329 170.000,143.750 167.160,143.750 166.166 C 143.750 165.868,144.048 165.625,144.412 165.625 C 144.776 165.625,144.900 165.906,144.688 166.250 C 144.475 166.594,144.627 166.875,145.026 166.875 C 145.424 166.875,148.150 169.258,151.083 172.172 C 154.016 175.085,156.941 177.635,157.583 177.839 C 158.225 178.043,158.750 178.463,158.750 178.773 C 158.750 179.082,159.119 179.194,159.570 179.021 C 161.095 178.436,166.390 181.895,166.037 183.246 C 165.864 183.910,166.135 185.442,166.639 186.650 L 167.557 188.846 168.895 187.079 C 169.631 186.108,170.342 185.174,170.476 185.005 C 170.609 184.836,170.986 185.176,171.313 185.760 C 171.972 186.938,173.750 186.593,173.750 185.288 C 173.750 183.956,177.324 183.366,178.466 184.508 C 178.674 184.716,179.737 184.614,180.828 184.282 C 181.920 183.949,183.516 183.545,184.375 183.383 C 185.234 183.221,186.275 182.971,186.687 182.826 C 187.530 182.531,195.923 182.499,205.313 182.754 C 211.176 182.914,211.575 183.008,211.762 184.275 C 211.917 185.318,212.393 185.625,213.860 185.625 C 215.397 185.625,215.686 185.416,215.378 184.531 C 215.030 183.533,215.074 183.536,215.876 184.569 C 216.443 185.298,216.903 185.461,217.171 185.027 C 217.399 184.657,217.848 184.516,218.168 184.714 C 218.488 184.912,218.750 184.495,218.750 183.787 C 218.750 182.842,219.152 182.500,220.261 182.500 C 222.374 182.500,223.750 183.116,223.750 184.062 C 223.750 184.762,225.497 185.876,226.180 185.612 C 226.314 185.560,226.655 185.894,226.938 186.353 C 227.564 187.366,231.381 187.564,232.022 186.617 C 232.335 186.153,232.484 186.186,232.490 186.719 C 232.496 187.148,233.187 187.500,234.026 187.500 C 234.865 187.500,235.755 187.829,236.003 188.231 C 236.302 188.715,236.121 188.834,235.467 188.583 C 234.212 188.102,233.474 189.852,234.441 191.017 C 234.833 191.489,235.611 191.871,236.170 191.865 C 236.876 191.859,236.958 191.710,236.439 191.380 C 235.989 191.094,235.899 190.568,236.213 190.060 C 236.500 189.595,237.056 189.413,237.447 189.655 C 237.950 189.966,238.053 189.485,237.795 188.016 C 237.503 186.350,237.586 186.092,238.215 186.719 C 239.409 187.907,240.000 187.660,240.000 185.974 C 240.000 185.135,240.281 184.275,240.625 184.063 C 240.969 183.850,241.246 183.341,241.240 182.932 C 241.235 182.485,240.989 182.562,240.625 183.125 C 240.292 183.641,240.015 183.758,240.010 183.385 C 239.993 182.188,240.728 181.929,241.977 182.693 C 242.978 183.305,243.302 183.248,243.801 182.370 C 244.135 181.782,244.786 181.447,245.247 181.624 C 245.744 181.815,246.231 181.391,246.442 180.584 C 246.752 179.397,247.084 179.275,249.024 179.639 C 252.997 180.384,251.615 178.078,247.393 176.918 C 244.415 176.099,242.170 176.510,243.840 177.569 C 244.500 177.987,244.446 178.108,243.594 178.115 C 242.618 178.124,242.221 178.807,242.418 180.134 C 242.455 180.379,242.020 180.402,241.452 180.184 C 240.680 179.887,240.555 180.011,240.955 180.675 C 241.390 181.396,241.315 181.421,240.556 180.807 C 239.319 179.807,237.012 180.460,236.541 181.943 C 236.223 182.945,235.775 183.064,233.612 182.718 C 232.087 182.474,231.204 182.544,231.419 182.892 C 231.952 183.755,228.985 183.473,227.881 182.556 C 227.358 182.122,226.636 181.949,226.277 182.171 C 225.919 182.392,225.625 182.105,225.625 181.533 C 225.625 180.902,225.967 180.622,226.491 180.823 C 226.967 181.006,227.895 180.778,228.554 180.317 C 229.212 179.856,230.782 179.285,232.041 179.049 C 233.300 178.813,234.598 178.297,234.926 177.903 C 235.253 177.510,237.365 176.344,239.619 175.313 C 241.873 174.281,243.725 173.100,243.734 172.688 C 243.760 171.471,247.838 168.714,251.033 167.752 C 252.664 167.262,254.618 166.277,255.377 165.564 C 256.538 164.473,256.976 164.385,258.138 165.007 C 259.256 165.605,259.463 165.586,259.224 164.904 C 258.839 163.808,261.074 160.625,262.230 160.625 C 262.722 160.625,263.125 160.203,263.125 159.688 C 263.125 159.172,262.844 158.750,262.500 158.750 C 262.156 158.750,261.875 158.469,261.875 158.125 C 261.875 157.310,264.126 157.323,265.666 158.147 C 266.617 158.656,266.875 158.589,266.875 157.834 C 266.875 157.307,266.594 156.875,266.250 156.875 C 265.906 156.875,265.625 156.563,265.625 156.182 C 265.625 155.770,266.211 155.637,267.071 155.852 C 268.355 156.175,268.583 155.919,269.102 153.576 C 269.472 151.908,270.032 150.937,270.625 150.937 C 271.220 150.937,271.612 150.251,271.698 149.062 C 271.864 146.769,272.203 144.990,272.709 143.750 C 273.170 142.622,274.442 137.131,274.707 135.126 C 274.973 133.111,276.274 131.736,277.590 132.080 C 279.060 132.464,280.036 131.211,279.591 129.510 C 279.312 128.441,279.601 128.008,280.931 127.502 C 282.037 127.082,282.505 126.540,282.277 125.944 C 281.472 123.849,283.634 120.622,285.789 120.700 C 286.902 120.740,288.516 120.592,289.375 120.370 C 290.846 119.991,290.859 120.009,289.604 120.672 C 288.290 121.366,288.303 121.411,290.438 123.609 C 292.669 125.907,293.968 125.655,293.288 123.056 C 293.079 122.258,293.307 121.875,293.990 121.875 C 294.545 121.875,295.000 121.474,295.000 120.983 C 295.000 120.492,295.727 119.519,296.615 118.820 C 297.575 118.065,298.043 117.248,297.769 116.805 C 297.437 116.267,297.088 116.364,296.509 117.155 C 295.657 118.320,294.375 117.982,294.375 116.592 C 294.375 116.134,293.930 115.588,293.386 115.379 C 292.043 114.864,291.875 114.895,291.875 115.662 C 291.875 116.026,292.142 116.159,292.469 115.957 C 292.795 115.755,293.358 116.142,293.719 116.816 C 294.578 118.421,294.547 118.750,293.538 118.750 C 292.238 118.750,291.047 115.685,291.933 114.618 C 292.329 114.140,292.408 113.714,292.108 113.670 C 289.434 113.279,288.184 113.399,286.628 114.198 C 285.271 114.894,285.029 115.257,285.660 115.647 C 286.124 115.933,286.708 116.041,286.958 115.886 C 287.209 115.731,287.617 115.934,287.866 116.336 C 288.148 116.793,288.047 116.901,287.597 116.622 C 287.182 116.366,286.875 116.550,286.875 117.054 C 286.875 118.845,284.674 120.175,283.683 118.982 C 282.628 117.711,282.897 115.512,284.199 114.771 C 284.977 114.327,284.998 114.135,284.310 113.710 C 283.808 113.400,283.279 113.492,282.995 113.939 C 282.667 114.455,282.516 114.366,282.510 113.652 C 282.500 112.620,287.172 108.348,289.844 106.944 C 290.617 106.538,291.250 105.808,291.250 105.322 C 291.250 104.835,291.677 104.198,292.199 103.906 C 292.722 103.614,293.257 102.826,293.390 102.156 C 293.866 99.754,294.067 99.058,294.375 98.750 C 296.613 96.512,297.002 88.965,295.009 86.431 C 294.326 85.563,293.913 84.617,294.091 84.329 C 294.269 84.041,293.982 82.769,293.453 81.503 C 292.869 80.106,292.710 78.928,293.049 78.507 C 293.601 77.819,292.895 75.000,292.171 75.000 C 291.968 75.000,291.975 75.281,292.187 75.625 C 292.400 75.969,292.426 76.250,292.246 76.250 C 290.758 76.250,290.688 73.568,292.147 72.420 C 293.985 70.974,294.210 69.685,292.723 69.115 C 291.325 68.578,291.022 69.031,291.802 70.489 C 292.458 71.715,292.176 72.500,291.079 72.500 C 290.756 72.500,290.643 72.106,290.827 71.624 C 291.169 70.733,290.247 70.622,288.998 71.404 C 287.947 72.062,286.602 68.756,287.562 67.874 C 288.113 67.367,288.193 67.392,287.867 67.969 C 287.229 69.100,287.828 68.928,288.830 67.693 C 289.301 67.111,289.372 66.824,288.987 67.055 C 288.182 67.537,285.625 65.534,285.625 64.421 C 285.625 64.011,285.887 63.838,286.207 64.036 C 286.527 64.234,286.968 64.105,287.188 63.750 C 287.407 63.395,287.848 63.266,288.168 63.464 C 288.488 63.662,288.750 63.509,288.750 63.125 C 288.750 62.741,289.031 62.600,289.375 62.813 C 289.719 63.025,290.000 62.931,290.000 62.605 C 290.000 62.278,290.677 61.841,291.505 61.633 C 294.275 60.938,292.907 58.814,289.945 59.212 C 288.555 59.398,287.500 59.278,287.500 58.933 C 287.500 57.481,294.518 55.590,295.287 56.834 C 295.700 57.503,300.000 56.270,300.000 55.483 C 300.000 55.177,300.286 55.103,300.635 55.319 C 300.985 55.535,301.123 55.950,300.943 56.241 C 300.763 56.533,301.672 56.254,302.964 55.623 C 304.256 54.991,305.401 54.717,305.509 55.014 C 305.617 55.312,306.109 55.400,306.603 55.211 C 307.096 55.021,307.500 55.169,307.500 55.539 C 307.500 55.908,307.865 56.071,308.311 55.900 C 309.440 55.466,309.333 59.686,308.188 60.752 C 307.560 61.336,307.439 61.346,307.753 60.788 C 308.048 60.266,307.869 60.137,307.204 60.393 C 306.434 60.688,306.378 60.963,306.947 61.650 C 307.533 62.356,307.475 62.451,306.651 62.135 C 306.087 61.918,305.625 61.474,305.625 61.146 C 305.625 60.819,305.314 60.744,304.933 60.979 C 304.441 61.283,304.463 61.543,305.011 61.882 C 306.136 62.577,306.323 65.636,305.265 66.042 C 304.780 66.228,304.537 66.632,304.726 66.938 C 305.028 67.425,302.757 69.954,300.948 71.144 C 300.295 71.574,298.125 75.212,298.125 75.878 C 298.125 76.082,298.617 76.246,299.219 76.240 C 300.153 76.232,300.176 76.143,299.375 75.625 C 298.620 75.137,298.716 75.017,299.870 75.010 C 300.658 75.004,301.906 74.437,302.644 73.750 C 303.382 73.063,304.355 72.500,304.805 72.500 C 305.256 72.500,305.595 72.289,305.557 72.031 C 305.378 70.788,306.511 68.751,307.567 68.416 C 308.218 68.210,308.750 67.778,308.750 67.458 C 308.750 67.137,309.453 66.875,310.313 66.875 C 311.789 66.875,312.156 67.410,311.922 69.219 C 311.866 69.648,312.170 70.000,312.598 70.000 C 313.202 70.000,313.208 70.167,312.625 70.750 C 311.457 71.918,311.676 74.294,312.935 74.109 C 313.518 74.023,314.118 73.556,314.269 73.070 C 314.838 71.236,315.743 70.570,316.645 71.319 C 317.115 71.709,317.500 71.819,317.500 71.563 C 317.500 71.306,317.914 71.441,318.420 71.861 C 319.149 72.466,319.524 72.449,320.225 71.781 C 322.281 69.823,323.667 68.875,323.995 69.203 C 324.188 69.396,324.522 69.093,324.738 68.531 C 324.954 67.968,325.355 67.646,325.630 67.815 C 325.904 67.985,326.422 67.280,326.782 66.249 C 327.493 64.210,328.775 63.836,330.000 65.313 C 330.440 65.842,330.505 66.250,330.149 66.250 C 329.624 66.250,328.872 67.740,328.522 69.479 C 328.475 69.708,328.181 70.130,327.869 70.417 C 327.538 70.719,327.488 70.610,327.749 70.156 C 327.996 69.727,327.934 69.375,327.611 69.375 C 326.361 69.375,325.519 74.949,326.547 76.417 C 327.071 77.166,327.500 77.452,327.500 77.053 C 327.500 76.570,328.250 76.450,329.750 76.694 C 331.317 76.948,332.168 76.794,332.553 76.186 C 333.362 74.909,333.270 74.559,331.757 73.149 C 331.005 72.448,330.724 71.875,331.132 71.875 C 331.541 71.875,331.875 71.475,331.875 70.986 C 331.875 70.497,332.930 69.763,334.219 69.354 C 335.508 68.945,337.182 68.222,337.940 67.747 C 339.967 66.477,342.645 67.590,342.208 69.521 C 342.032 70.300,341.753 71.765,341.589 72.777 C 341.424 73.788,340.858 74.857,340.332 75.152 C 337.469 76.754,340.994 80.262,344.063 78.864 C 345.013 78.431,345.625 78.391,345.625 78.763 C 345.625 79.100,345.233 79.375,344.754 79.375 C 344.276 79.375,343.722 79.797,343.524 80.313 C 343.326 80.828,343.507 81.254,343.926 81.260 C 344.401 81.266,344.453 81.442,344.063 81.728 C 342.189 83.105,340.697 87.495,341.887 88.131 C 342.696 88.564,343.185 88.534,343.496 88.030 C 343.773 87.581,343.669 87.476,343.222 87.753 C 342.825 87.998,342.500 87.901,342.500 87.537 C 342.500 87.173,342.795 86.875,343.155 86.875 C 343.516 86.875,344.148 86.102,344.561 85.156 C 345.037 84.068,345.886 83.360,346.875 83.225 C 348.831 82.960,351.123 80.887,351.373 79.158 C 351.596 77.616,355.942 76.472,358.663 77.240 C 359.570 77.496,360.523 77.659,360.781 77.603 C 361.865 77.365,361.130 80.065,359.688 81.622 C 357.542 83.937,357.939 85.122,360.354 83.610 C 360.998 83.207,364.497 84.175,366.094 85.198 C 366.523 85.474,367.124 85.545,367.429 85.356 C 368.239 84.856,369.574 86.705,369.168 87.764 C 368.977 88.262,369.156 88.806,369.566 88.973 C 370.130 89.202,370.132 89.288,369.575 89.326 C 369.062 89.360,368.994 89.923,369.353 91.173 C 369.722 92.460,369.548 93.686,368.741 95.490 C 367.792 97.609,367.743 98.194,368.433 99.179 C 370.911 102.717,371.513 109.011,369.602 111.390 C 368.772 112.422,368.364 113.590,368.565 114.359 C 368.925 115.736,369.692 116.004,370.328 114.975 C 370.549 114.617,371.245 114.488,371.875 114.687 C 372.505 114.887,373.201 114.758,373.422 114.400 C 374.075 113.344,374.996 113.659,374.562 114.790 C 374.333 115.386,374.419 115.671,374.764 115.458 C 375.295 115.130,375.534 115.872,375.768 118.566 C 375.804 118.981,376.048 119.187,376.311 119.025 C 376.574 118.862,376.965 119.015,377.181 119.365 C 377.397 119.714,377.119 120.000,376.563 120.000 C 376.006 120.000,375.684 120.214,375.845 120.476 C 376.375 121.333,374.735 122.887,372.061 124.061 C 370.488 124.752,369.610 125.485,369.873 125.889 C 370.115 126.259,370.313 128.204,370.313 130.210 L 370.313 133.857 372.813 134.800 C 374.188 135.319,376.085 135.889,377.028 136.067 C 380.948 136.807,385.361 143.750,381.912 143.750 C 381.612 143.750,381.513 144.309,381.692 144.993 C 381.976 146.080,385.837 149.049,386.979 149.059 C 387.208 149.061,387.607 149.273,387.865 149.531 C 388.122 149.789,389.324 150.000,390.535 150.000 C 392.607 150.000,398.750 155.237,398.750 157.003 C 398.750 157.276,399.036 157.500,399.386 157.500 C 399.804 157.500,399.964 152.006,399.854 141.406 C 399.692 125.724,399.656 125.317,398.438 125.473 C 397.172 125.635,385.009 125.658,382.939 125.501 C 381.271 125.376,382.744 124.236,386.708 122.586 C 389.737 121.325,390.143 121.293,392.200 122.152 C 393.422 122.663,394.272 122.839,394.090 122.544 C 393.908 122.250,394.399 121.848,395.182 121.651 C 396.664 121.279,397.512 117.968,396.315 117.228 C 395.706 116.851,396.122 114.368,396.792 114.385 C 398.047 114.415,398.583 115.602,398.411 117.969 C 398.268 119.945,398.447 120.625,399.112 120.625 C 399.882 120.625,399.984 112.294,399.847 60.469 L 399.688 0.313 329.060 0.169 C 288.939 0.088,257.623 0.267,256.560 0.584 C 254.868 1.089,254.833 1.148,256.198 1.196 C 257.772 1.252,257.677 1.868,256.058 2.106 C 254.356 2.355,253.125 3.880,253.125 5.738 C 253.125 6.967,252.886 7.426,252.403 7.128 C 251.979 6.866,251.851 6.955,252.092 7.345 C 252.317 7.709,253.063 7.861,253.751 7.681 C 254.520 7.480,255.000 7.662,255.000 8.156 C 255.000 9.018,255.886 8.400,256.016 7.448 C 256.059 7.133,256.129 6.749,256.172 6.595 C 256.215 6.441,257.093 6.609,258.124 6.968 C 259.200 7.343,259.822 7.907,259.584 8.292 C 259.328 8.706,259.544 8.819,260.148 8.587 C 261.950 7.896,261.711 10.247,259.782 12.188 C 258.757 13.219,258.147 13.641,258.426 13.125 C 258.838 12.363,258.776 12.334,258.092 12.969 C 256.783 14.184,258.366 15.540,259.944 14.555 C 261.317 13.698,263.750 14.182,263.750 15.313 C 263.750 15.822,264.473 16.048,265.771 15.946 C 267.033 15.846,268.108 16.168,268.630 16.800 C 269.274 17.578,269.374 17.596,269.063 16.875 C 268.702 16.042,268.751 16.042,269.497 16.875 C 270.677 18.192,273.406 19.711,272.785 18.705 C 272.437 18.142,272.760 18.055,274.022 18.371 C 275.140 18.652,275.591 18.576,275.328 18.150 C 274.888 17.439,275.326 17.363,281.080 17.152 C 284.725 17.018,284.932 17.084,284.339 18.192 C 283.991 18.843,283.419 19.375,283.068 19.375 C 282.717 19.375,280.766 20.201,278.732 21.210 C 276.698 22.219,274.253 23.176,273.298 23.336 C 270.557 23.797,269.348 24.447,269.791 25.222 C 270.016 25.615,269.975 25.734,269.700 25.485 C 269.425 25.236,268.421 25.493,267.470 26.054 C 265.589 27.166,265.645 28.750,267.567 28.750 C 268.218 28.750,268.750 29.006,268.750 29.320 C 268.750 29.786,266.977 29.805,266.406 29.345 C 266.320 29.275,266.039 29.165,265.781 29.100 C 265.523 29.035,264.188 28.650,262.813 28.244 C 259.594 27.295,259.169 27.312,259.578 28.377 C 259.771 28.882,259.143 29.845,258.096 30.647 C 257.096 31.413,256.409 32.252,256.570 32.512 C 256.730 32.771,256.421 33.349,255.883 33.795 C 255.080 34.462,254.814 34.460,254.397 33.786 C 254.118 33.334,253.577 33.158,253.195 33.394 C 252.813 33.631,252.498 33.456,252.496 33.006 C 252.494 32.556,251.936 33.031,251.256 34.063 C 249.781 36.300,247.898 36.542,247.613 34.531 C 247.503 33.758,247.726 33.125,248.109 33.125 C 248.492 33.125,248.722 32.639,248.621 32.045 C 248.520 31.451,248.766 30.959,249.167 30.952 C 249.568 30.944,250.130 30.691,250.417 30.389 C 250.715 30.074,249.648 30.027,247.922 30.278 C 245.207 30.672,244.873 30.587,244.568 29.420 C 244.382 28.708,243.933 28.125,243.570 28.125 C 243.208 28.125,242.379 27.644,241.730 27.056 C 240.773 26.191,240.451 26.146,240.033 26.822 C 238.822 28.780,234.631 27.313,235.437 25.213 C 235.678 24.586,235.024 24.375,232.842 24.375 C 230.797 24.375,230.059 24.159,230.372 23.653 C 230.635 23.228,230.545 23.101,230.152 23.344 C 229.785 23.570,229.618 24.598,229.780 25.628 C 229.947 26.685,229.795 27.500,229.432 27.500 C 229.079 27.500,228.943 27.099,229.131 26.608 C 229.538 25.548,227.282 25.945,226.321 27.102 C 223.947 29.962,225.065 32.050,227.812 29.889 C 229.403 28.638,229.603 28.612,230.302 29.567 C 230.719 30.138,231.244 30.422,231.468 30.199 C 231.692 29.975,231.875 30.089,231.875 30.452 C 231.875 30.854,232.785 30.990,234.196 30.800 C 236.275 30.520,236.430 30.592,235.682 31.493 C 235.223 32.047,235.092 32.510,235.392 32.522 C 235.692 32.534,235.234 32.976,234.375 33.503 C 233.516 34.030,233.305 34.310,233.906 34.125 C 234.508 33.940,235.000 34.062,235.000 34.395 C 235.000 35.078,232.310 35.226,231.662 34.579 C 231.282 34.198,229.406 33.863,226.875 33.722 C 223.644 33.543,223.095 33.128,223.325 31.040 C 223.595 28.589,222.765 26.013,221.880 26.559 C 221.519 26.782,221.250 26.265,221.250 25.349 C 221.250 23.982,220.973 23.750,219.338 23.750 C 218.287 23.750,217.565 23.974,217.734 24.249 C 217.904 24.523,217.815 25.115,217.537 25.565 C 217.182 26.140,216.904 26.177,216.604 25.692 C 216.369 25.311,216.491 25.000,216.875 25.000 C 217.259 25.000,217.397 24.714,217.181 24.365 C 216.965 24.015,216.586 23.855,216.339 24.007 C 216.092 24.160,215.832 23.577,215.760 22.712 C 215.540 20.058,214.231 19.511,211.716 21.022 C 211.257 21.298,211.322 20.992,211.875 20.276 C 212.738 19.159,212.727 19.129,211.743 19.900 C 211.155 20.361,210.503 21.274,210.295 21.930 C 210.087 22.586,209.231 23.294,208.394 23.504 C 207.557 23.714,206.239 24.629,205.467 25.537 C 201.791 29.857,196.392 30.825,194.502 27.504 C 193.444 25.645,192.500 25.054,192.500 26.250 C 192.500 27.269,189.994 26.961,189.583 25.891 C 189.327 25.223,188.743 25.023,187.766 25.268 C 186.974 25.467,186.158 25.357,185.952 25.023 C 185.745 24.689,184.772 24.577,183.789 24.774 C 182.377 25.056,181.919 24.872,181.611 23.902 C 181.272 22.836,180.884 22.735,178.678 23.138 C 177.280 23.394,175.551 23.450,174.837 23.264 C 173.883 23.014,173.631 23.164,173.886 23.828 C 174.517 25.473,168.596 25.620,166.810 24.004 C 165.595 22.904,165.462 22.897,164.735 23.892 C 163.930 24.993,160.376 24.873,158.011 23.664 C 156.870 23.081,154.872 25.322,154.234 27.902 C 153.854 29.435,160.156 29.998,163.493 28.729 C 164.644 28.291,165.404 28.307,165.974 28.780 C 166.569 29.274,167.165 29.264,168.137 28.744 C 169.225 28.162,169.706 28.231,170.677 29.110 C 172.550 30.805,172.111 31.394,169.271 30.997 C 167.839 30.797,165.659 30.898,164.427 31.223 C 163.195 31.548,161.010 31.951,159.570 32.118 C 153.880 32.778,147.106 36.338,147.509 38.457 C 147.629 39.091,144.879 41.249,144.360 40.928 C 144.096 40.765,143.720 41.052,143.523 41.566 C 143.325 42.080,142.828 42.500,142.417 42.500 C 142.005 42.500,142.932 41.255,144.476 39.732 C 147.391 36.859,148.358 32.796,146.818 29.900 C 146.174 28.688,141.993 29.591,141.428 31.063 C 141.256 31.510,140.714 31.875,140.223 31.875 C 139.732 31.875,138.004 33.151,136.384 34.710 C 134.106 36.901,133.112 37.464,132.005 37.191 C 131.141 36.978,130.193 37.217,129.617 37.794 C 128.397 39.014,126.897 39.008,125.139 37.777 C 124.375 37.242,123.715 36.961,123.672 37.152 C 123.629 37.343,123.523 37.781,123.438 38.125 C 123.352 38.469,123.246 39.031,123.203 39.375 C 123.160 39.719,122.733 40.000,122.254 40.000 C 121.776 40.000,121.228 40.406,121.037 40.903 C 120.765 41.612,120.247 41.679,118.631 41.216 C 115.895 40.431,115.625 40.462,115.625 41.563 C 115.625 42.078,115.886 42.500,116.206 42.500 C 116.855 42.500,120.625 47.855,120.625 48.777 C 120.625 49.102,119.992 49.269,119.219 49.150 C 118.445 49.031,117.182 49.345,116.411 49.848 C 115.640 50.351,114.546 50.585,113.980 50.367 C 113.330 50.118,112.623 50.438,112.064 51.236 C 111.578 51.931,110.758 52.500,110.243 52.500 C 109.025 52.500,103.934 54.821,103.457 55.594 C 103.253 55.923,102.201 56.823,101.118 57.594 C 100.035 58.365,99.357 58.659,99.612 58.248 C 99.866 57.837,99.776 57.500,99.412 57.500 C 99.048 57.500,98.750 57.922,98.750 58.438 C 98.750 58.953,98.512 59.375,98.222 59.375 C 97.349 59.375,95.625 57.164,95.625 56.045 C 95.625 55.470,95.314 55.000,94.933 55.000 C 94.553 55.000,94.398 54.593,94.589 54.094 C 94.805 53.530,94.428 53.028,93.590 52.762 C 92.786 52.506,92.148 52.619,92.007 53.042 C 91.437 54.751,90.485 53.604,90.810 51.601 C 91.041 50.178,90.869 49.212,90.301 48.740 C 89.639 48.191,89.595 47.645,90.108 46.358 C 90.474 45.439,90.872 41.906,90.993 38.507 C 91.150 34.078,91.484 32.027,92.170 31.269 C 92.697 30.687,92.916 29.978,92.658 29.693 C 92.399 29.408,92.544 29.380,92.979 29.630 C 93.414 29.881,93.621 30.329,93.438 30.625 C 93.254 30.921,93.420 31.359,93.807 31.597 C 94.304 31.905,94.262 32.190,93.660 32.578 C 93.067 32.961,93.019 33.266,93.500 33.594 C 93.878 33.852,94.320 34.473,94.481 34.974 C 94.642 35.475,96.161 36.371,97.856 36.964 L 100.938 38.042 101.721 36.209 C 102.151 35.200,102.801 34.375,103.164 34.375 C 103.527 34.375,103.668 34.123,103.477 33.814 C 102.920 32.913,103.806 29.533,104.593 29.553 C 106.657 29.607,107.500 29.283,107.500 28.438 C 107.500 27.376,106.521 27.180,105.937 28.125 C 105.725 28.469,105.216 28.746,104.807 28.740 C 104.360 28.735,104.437 28.489,105.000 28.125 C 105.833 27.586,105.833 27.518,105.000 27.507 C 104.484 27.501,104.983 26.934,106.109 26.248 C 107.234 25.561,108.706 25.000,109.378 25.000 C 110.163 25.000,110.742 24.437,110.995 23.430 C 111.212 22.566,111.850 21.565,112.414 21.206 C 113.162 20.728,113.227 20.464,112.656 20.224 C 111.558 19.763,111.680 18.125,112.813 18.125 C 113.328 18.125,113.750 18.557,113.750 19.084 C 113.750 22.162,116.110 18.551,116.506 14.866 C 116.739 12.705,117.173 10.094,117.471 9.063 C 117.769 8.031,118.181 5.570,118.387 3.594 L 118.761 0.000 59.673 0.000 C 9.998 0.000,0.533 0.137,0.255 0.863 M134.385 0.448 C 134.402 1.333,135.605 2.881,135.615 2.031 C 135.627 1.069,138.866 0.991,139.804 1.929 C 140.272 2.397,140.610 2.406,140.887 1.957 C 141.109 1.598,141.706 1.464,142.215 1.659 C 142.843 1.900,143.026 1.720,142.787 1.097 C 142.411 0.115,134.366 -0.506,134.385 0.448 M255.723 4.441 C 255.209 5.830,254.070 6.104,254.050 4.844 C 254.035 3.849,255.174 2.547,255.754 2.898 C 255.996 3.045,255.983 3.739,255.723 4.441 M248.542 20.417 C 247.680 21.279,248.180 21.875,249.764 21.875 C 251.150 21.875,251.283 21.730,250.625 20.938 C 249.778 19.917,249.188 19.770,248.542 20.417 M276.875 27.091 C 276.875 27.209,276.313 27.815,275.625 28.438 C 274.545 29.415,274.375 29.434,274.375 28.580 C 274.375 28.036,274.867 27.463,275.469 27.306 C 276.070 27.149,276.633 26.987,276.719 26.948 C 276.805 26.908,276.875 26.972,276.875 27.091 M150.156 28.574 C 149.304 28.880,149.060 31.250,149.881 31.250 C 150.159 31.250,150.887 30.884,151.499 30.436 C 152.745 29.525,151.667 28.031,150.156 28.574 M252.121 30.364 C 252.329 30.907,252.500 31.461,252.500 31.594 C 252.500 31.727,252.885 31.688,253.355 31.508 C 253.870 31.310,254.351 31.716,254.563 32.528 C 254.780 33.357,255.198 33.701,255.650 33.422 C 256.205 33.079,256.196 32.853,255.612 32.492 C 255.187 32.229,255.033 31.702,255.269 31.320 C 255.531 30.896,255.197 30.625,254.412 30.625 C 253.704 30.625,253.125 30.344,253.125 30.000 C 253.125 29.656,252.814 29.375,252.433 29.375 C 252.053 29.375,251.912 29.820,252.121 30.364 M277.138 32.581 C 276.675 33.329,274.583 33.576,274.583 32.883 C 274.583 32.500,275.213 32.188,275.982 32.188 C 276.751 32.188,277.271 32.364,277.138 32.581 M273.125 34.306 C 273.125 35.061,270.672 37.961,270.646 37.237 C 270.634 36.920,271.117 36.099,271.719 35.412 C 272.763 34.220,272.761 34.182,271.686 34.574 C 271.013 34.820,270.714 34.737,270.942 34.368 C 271.417 33.599,273.125 33.551,273.125 34.306 M242.656 34.948 C 242.914 34.977,243.129 35.492,243.135 36.094 C 243.143 37.028,243.232 37.051,243.750 36.250 C 244.114 35.687,244.360 35.610,244.365 36.057 C 244.382 37.381,243.230 37.561,240.920 36.595 C 238.498 35.583,238.399 34.478,240.755 34.738 C 241.543 34.825,242.398 34.919,242.656 34.948 M70.625 38.114 C 70.625 42.799,71.270 44.517,72.911 44.203 C 74.084 43.979,74.475 44.245,74.784 45.476 C 75.120 46.815,75.256 46.887,75.757 45.992 C 76.077 45.421,76.215 44.612,76.063 44.195 C 75.912 43.778,76.217 42.945,76.741 42.344 C 77.345 41.650,77.430 41.250,76.972 41.250 C 75.533 41.250,76.153 37.083,77.747 36.038 C 79.161 35.111,79.265 35.134,79.614 36.435 C 80.193 38.598,80.062 41.763,79.375 42.188 C 78.239 42.890,78.616 45.637,79.787 45.188 C 80.666 44.851,80.762 45.099,80.417 46.821 C 79.675 50.531,82.247 52.808,83.833 49.845 C 84.300 48.973,84.683 48.738,84.846 49.224 C 84.989 49.655,85.364 49.849,85.678 49.655 C 86.456 49.174,86.404 52.294,85.611 53.777 C 85.075 54.777,85.151 54.912,86.079 54.607 C 86.689 54.406,86.203 54.868,85.000 55.634 C 83.797 56.400,82.595 57.400,82.330 57.857 C 82.034 58.367,81.087 58.591,79.876 58.438 C 78.791 58.300,77.602 58.380,77.233 58.616 C 76.864 58.851,76.281 59.060,75.938 59.081 C 75.594 59.102,75.425 59.528,75.562 60.028 C 75.698 60.528,75.839 61.641,75.874 62.500 C 75.946 64.280,80.316 64.852,81.579 63.247 C 82.247 62.399,84.375 62.832,84.375 63.817 C 84.375 64.124,84.867 64.395,85.469 64.419 C 86.404 64.456,86.381 64.541,85.313 65.000 C 83.440 65.805,83.052 65.728,83.254 64.596 C 83.355 64.030,83.123 63.457,82.738 63.321 C 82.295 63.165,82.150 63.656,82.342 64.663 C 82.557 65.784,82.374 66.250,81.721 66.250 C 81.212 66.250,80.067 66.978,79.178 67.868 C 78.288 68.758,77.265 69.304,76.905 69.081 C 76.545 68.858,76.250 68.953,76.250 69.292 C 76.250 69.631,74.773 70.765,72.969 71.811 C 67.520 74.971,59.965 85.054,61.009 87.773 C 61.232 88.354,60.958 88.901,60.323 89.145 C 59.456 89.478,59.337 90.069,59.662 92.432 C 59.879 94.016,60.206 96.438,60.387 97.813 C 60.568 99.188,61.399 101.208,62.233 102.302 C 63.067 103.396,63.750 104.583,63.750 104.939 C 63.750 107.542,68.569 113.108,75.898 118.967 L 78.123 120.747 76.832 122.561 C 75.315 124.691,74.606 124.838,74.066 123.136 C 73.675 121.903,73.667 121.903,72.334 123.146 C 70.991 124.397,69.569 124.465,69.822 123.267 C 69.897 122.916,69.408 122.772,68.736 122.948 C 67.220 123.344,66.527 121.819,67.444 120.105 C 68.119 118.844,66.894 115.189,66.073 116.011 C 65.512 116.571,63.067 114.648,63.598 114.064 C 64.414 113.167,59.753 116.478,58.005 118.038 C 57.080 118.864,55.609 119.617,54.736 119.713 C 52.866 119.918,51.281 121.343,50.937 123.127 C 50.802 123.828,50.113 125.213,49.406 126.206 C 48.699 127.199,48.290 128.453,48.497 128.992 C 48.727 129.593,48.183 130.680,47.093 131.797 C 46.114 132.801,45.221 134.002,45.109 134.467 C 44.998 134.932,44.662 135.401,44.363 135.509 C 43.645 135.769,44.359 137.599,45.586 138.645 C 46.463 139.392,46.455 139.443,45.508 139.148 C 44.853 138.944,44.379 139.202,44.258 139.830 C 44.102 140.634,43.623 140.439,41.910 138.875 C 40.727 137.793,39.953 136.713,40.192 136.475 C 40.430 136.237,40.625 136.381,40.625 136.795 C 40.625 137.363,40.836 137.352,41.479 136.752 C 42.122 136.151,42.178 135.514,41.707 134.163 C 41.157 132.585,41.290 132.193,42.826 130.873 C 43.785 130.049,44.365 129.375,44.115 129.375 C 43.865 129.375,44.105 128.930,44.649 128.387 C 45.192 127.844,45.477 127.141,45.281 126.825 C 45.086 126.509,45.241 126.250,45.625 126.250 C 46.009 126.250,46.165 125.993,45.970 125.678 C 45.776 125.364,45.903 125.011,46.252 124.895 C 46.602 124.779,47.019 124.002,47.179 123.169 C 47.339 122.336,47.709 121.493,48.000 121.296 C 48.291 121.099,48.717 120.516,48.948 120.000 C 49.178 119.484,49.695 118.609,50.095 118.054 C 51.557 116.030,50.358 115.086,46.759 115.428 C 42.950 115.789,40.000 113.885,40.000 111.065 C 40.000 110.242,39.297 108.752,38.438 107.753 C 37.579 106.755,36.876 106.163,36.876 106.438 C 36.875 106.714,36.219 106.231,35.417 105.366 C 34.258 104.116,33.792 103.949,33.151 104.552 C 32.517 105.150,32.282 105.145,32.057 104.531 C 31.900 104.102,31.483 103.750,31.131 103.750 C 30.779 103.750,30.665 104.202,30.877 104.754 C 31.409 106.141,30.124 110.617,29.078 111.018 C 28.106 111.391,26.250 115.649,26.250 117.506 C 26.250 118.908,24.397 121.337,23.670 120.888 C 22.242 120.006,20.907 126.611,21.132 133.438 C 21.282 138.001,20.063 145.778,18.871 147.856 C 18.079 149.238,18.424 144.532,19.402 140.625 C 19.703 139.422,19.842 137.875,19.710 137.188 C 19.578 136.500,19.449 135.358,19.423 134.651 C 19.310 131.621,17.670 130.869,17.718 133.869 C 17.749 135.791,17.408 137.056,16.658 137.806 C 16.050 138.414,15.701 139.297,15.882 139.768 C 16.063 140.239,15.965 140.625,15.664 140.625 C 15.363 140.625,15.264 141.188,15.444 141.875 C 15.911 143.661,14.489 143.434,13.648 141.588 C 13.086 140.354,13.156 139.733,14.007 138.435 C 15.038 136.862,14.876 134.375,13.744 134.375 C 13.443 134.375,13.343 133.742,13.521 132.969 C 14.451 128.934,14.259 127.652,12.423 125.641 C 10.104 123.102,8.753 123.490,8.740 126.699 C 8.732 128.711,7.537 132.174,7.510 130.264 C 7.504 129.861,6.688 129.713,5.469 129.895 C 4.352 130.061,3.787 130.316,4.213 130.462 C 5.251 130.815,3.613 132.500,2.232 132.500 C 0.704 132.500,1.069 130.874,3.125 128.533 C 4.156 127.358,5.000 125.793,5.000 125.054 C 5.000 124.315,5.438 123.543,5.973 123.337 C 6.509 123.132,6.809 122.606,6.641 122.168 C 6.195 121.003,6.940 120.526,7.927 121.345 C 8.650 121.945,8.649 122.209,7.926 123.058 C 7.369 123.712,7.232 124.609,7.535 125.625 L 8.000 127.188 8.063 125.449 C 8.097 124.493,8.545 123.550,9.059 123.352 C 9.573 123.155,9.837 122.742,9.647 122.435 C 9.457 122.127,9.616 121.875,10.000 121.875 C 10.384 121.875,10.520 121.587,10.303 121.234 C 10.085 120.881,9.791 117.033,9.650 112.683 C 9.474 107.270,9.144 104.596,8.603 104.214 C 8.010 103.794,8.047 103.719,8.750 103.912 C 9.266 104.053,10.391 103.418,11.250 102.500 C 12.109 101.582,13.164 100.949,13.594 101.093 C 14.023 101.237,14.375 101.081,14.375 100.747 C 14.375 100.412,14.837 100.178,15.401 100.226 C 15.966 100.273,16.567 99.916,16.737 99.432 C 16.953 98.815,16.729 98.672,15.990 98.956 C 15.410 99.178,15.095 99.102,15.290 98.786 C 15.486 98.470,15.360 98.035,15.010 97.819 C 14.661 97.603,14.384 97.091,14.395 96.682 C 14.406 96.268,14.780 96.418,15.238 97.022 C 15.691 97.618,16.226 97.941,16.426 97.740 C 16.627 97.539,17.162 97.606,17.615 97.889 C 18.837 98.652,19.849 98.706,21.901 98.118 C 23.294 97.718,23.997 97.836,24.758 98.597 C 25.858 99.697,30.000 100.187,30.000 99.217 C 30.000 98.886,29.592 98.773,29.094 98.964 C 28.489 99.196,28.304 99.011,28.536 98.406 C 28.727 97.908,29.267 97.500,29.735 97.500 C 30.203 97.500,30.462 97.148,30.310 96.719 C 29.931 95.642,31.360 93.909,32.840 93.651 C 34.888 93.293,35.946 91.887,36.202 89.182 C 36.228 88.904,36.531 88.850,36.875 89.063 C 37.219 89.275,37.500 89.034,37.500 88.526 C 37.500 88.019,37.169 87.494,36.764 87.359 C 36.360 87.224,36.236 86.778,36.490 86.368 C 36.808 85.853,37.301 85.809,38.081 86.226 C 38.702 86.559,39.412 86.630,39.657 86.384 C 39.903 86.139,40.047 86.219,39.978 86.563 C 39.524 88.811,40.072 90.000,41.562 90.000 C 43.116 90.000,45.625 88.070,45.625 86.875 C 45.625 85.677,49.915 86.173,50.598 87.450 C 51.065 88.322,51.028 88.735,50.464 88.963 C 50.037 89.135,49.981 89.299,50.340 89.326 C 51.922 89.445,56.875 81.265,56.875 78.533 C 56.875 77.759,57.148 76.852,57.482 76.518 C 57.816 76.184,58.217 75.214,58.373 74.362 C 58.529 73.510,58.707 72.813,58.767 72.813 C 58.827 72.813,58.973 71.758,59.090 70.469 C 59.248 68.744,59.066 68.125,58.402 68.125 C 57.906 68.125,57.500 67.797,57.500 67.396 C 57.500 66.995,57.685 66.852,57.911 67.078 C 58.137 67.304,58.688 67.186,59.134 66.816 C 60.327 65.825,61.275 66.701,60.744 68.303 C 59.924 70.777,60.222 72.188,61.563 72.188 C 62.435 72.188,62.800 71.785,62.771 70.853 C 62.729 69.512,63.395 69.306,64.844 70.211 C 65.275 70.480,65.625 70.416,65.625 70.068 C 65.625 69.721,65.133 69.121,64.531 68.734 C 63.504 68.073,63.506 68.052,64.567 68.384 C 65.655 68.725,68.750 66.154,68.750 64.909 C 68.750 64.615,69.075 64.375,69.472 64.375 C 69.876 64.375,69.685 64.937,69.038 65.652 C 68.252 66.521,68.171 66.818,68.787 66.582 C 70.265 66.015,72.359 60.946,71.462 60.108 C 71.038 59.711,70.833 58.457,70.988 57.205 C 71.143 55.957,70.988 55.000,70.631 55.000 C 70.284 55.000,70.000 54.719,70.000 54.375 C 70.000 54.031,70.352 53.820,70.781 53.906 C 73.074 54.365,72.024 47.179,69.403 44.479 C 67.985 43.018,66.871 41.256,66.866 40.468 C 66.862 39.695,66.689 38.432,66.483 37.662 C 66.192 36.578,66.441 36.139,67.585 35.713 C 69.824 34.881,70.625 35.514,70.625 38.114 M112.813 38.646 C 112.187 39.272,112.523 40.000,113.438 40.000 C 113.953 40.000,114.384 40.492,114.394 41.094 C 114.411 42.099,114.462 42.103,115.020 41.147 C 116.059 39.367,114.199 37.259,112.813 38.646 M132.726 40.313 C 132.924 40.828,132.846 41.250,132.553 41.250 C 131.687 41.250,131.303 43.712,132.089 44.220 C 133.470 45.112,133.034 48.177,131.587 47.748 C 128.237 46.754,126.533 42.837,129.037 41.885 C 129.928 41.546,130.821 40.843,131.020 40.322 C 131.484 39.113,132.264 39.109,132.726 40.313 M287.056 40.626 C 286.664 42.124,284.425 43.278,281.591 43.444 C 277.947 43.656,277.197 43.246,278.533 41.769 C 279.781 40.390,282.401 40.445,283.595 41.875 C 284.269 42.681,284.321 42.651,283.973 41.656 C 283.530 40.390,284.588 39.422,286.275 39.549 C 286.904 39.596,287.214 40.023,287.056 40.626 M137.331 42.694 C 136.913 43.950,135.625 43.858,135.625 42.572 C 135.625 41.673,135.913 41.400,136.589 41.659 C 137.119 41.863,137.453 42.328,137.331 42.694 M279.143 41.745 C 278.974 42.018,279.380 42.281,280.043 42.331 C 280.707 42.381,281.250 42.159,281.250 41.836 C 281.250 41.125,279.571 41.052,279.143 41.745 M298.615 43.275 C 294.511 46.943,293.231 47.848,292.495 47.603 C 292.028 47.447,291.882 47.630,292.140 48.048 C 292.391 48.454,292.093 48.911,291.446 49.113 C 290.823 49.307,289.791 49.748,289.153 50.092 C 288.262 50.573,288.088 50.526,288.401 49.890 C 288.625 49.435,288.339 49.695,287.765 50.469 C 286.687 51.923,285.334 52.296,284.724 51.308 C 284.531 50.997,284.936 50.889,285.624 51.069 C 286.518 51.303,286.875 51.088,286.875 50.318 C 286.875 49.471,286.529 49.326,285.266 49.643 C 283.890 49.989,283.777 49.917,284.485 49.149 C 284.940 48.655,285.400 48.334,285.507 48.435 C 285.825 48.734,288.751 45.844,288.740 45.241 C 288.735 44.936,288.466 45.107,288.141 45.620 C 287.672 46.362,287.394 46.394,286.776 45.776 C 285.663 44.663,284.981 44.820,285.391 46.094 C 285.678 46.985,285.624 47.020,285.100 46.280 C 284.063 44.815,284.793 44.462,288.731 44.520 C 290.773 44.550,292.834 44.251,293.311 43.855 C 293.788 43.459,294.363 43.321,294.589 43.547 C 294.815 43.773,295.000 43.614,295.000 43.192 C 295.000 42.771,295.281 42.600,295.625 42.813 C 295.969 43.025,296.250 42.882,296.250 42.495 C 296.250 42.085,296.751 41.950,297.447 42.171 C 298.106 42.380,298.837 42.239,299.072 41.859 C 299.308 41.478,299.657 41.323,299.848 41.515 C 300.039 41.706,299.485 42.498,298.615 43.275 M94.689 43.119 C 94.236 44.548,94.809 45.817,95.668 45.286 C 96.427 44.817,96.426 41.875,95.667 41.875 C 95.347 41.875,94.907 42.435,94.689 43.119 M66.595 52.993 C 66.655 53.581,66.776 54.344,66.863 54.688 C 67.183 55.939,66.860 56.940,66.257 56.567 C 65.917 56.357,65.787 56.571,65.968 57.042 C 66.251 57.780,64.414 62.497,62.939 64.816 C 62.318 65.794,60.625 65.144,60.625 63.929 C 60.625 63.299,60.978 63.127,61.700 63.404 C 62.291 63.630,62.574 63.616,62.330 63.372 C 62.086 63.127,62.235 62.496,62.662 61.969 C 63.281 61.204,63.279 61.105,62.656 61.479 C 62.227 61.738,61.875 61.658,61.875 61.302 C 61.875 60.874,61.356 60.853,60.335 61.242 C 59.487 61.564,58.662 61.614,58.501 61.353 C 57.961 60.478,59.196 59.254,60.713 59.159 C 62.847 59.027,62.598 56.562,60.263 54.696 C 59.259 53.893,58.668 53.005,58.949 52.722 C 59.230 52.438,59.989 52.905,60.634 53.759 C 61.903 55.439,62.404 55.201,63.618 52.344 C 64.060 51.304,64.107 50.625,63.737 50.625 C 63.400 50.625,63.125 50.217,63.125 49.717 C 63.125 48.448,66.451 51.589,66.595 52.993 M91.971 56.803 C 92.355 57.843,92.287 58.152,91.718 57.944 C 91.289 57.787,90.236 58.256,89.379 58.986 C 87.858 60.281,87.847 60.282,88.911 59.013 C 89.510 58.299,90.000 57.368,90.000 56.945 C 90.000 56.522,90.281 56.350,90.625 56.563 C 90.969 56.775,91.250 56.674,91.250 56.339 C 91.250 56.004,90.962 55.586,90.609 55.411 C 90.257 55.237,90.300 55.157,90.706 55.235 C 91.111 55.313,91.680 56.018,91.971 56.803 M96.952 56.406 C 96.386 57.344,96.361 57.569,96.878 57.080 C 97.304 56.677,98.110 56.519,98.670 56.728 C 99.553 57.059,99.574 56.970,98.830 56.055 C 97.779 54.763,97.964 54.729,96.952 56.406 M84.807 57.546 C 84.037 60.489,87.348 62.024,89.506 59.725 C 91.471 57.631,93.721 58.871,92.116 61.163 C 89.763 64.521,84.902 64.637,85.501 61.320 C 85.663 60.422,85.583 59.885,85.324 60.126 C 84.073 61.289,82.652 58.223,83.875 57.000 C 84.950 55.925,85.193 56.068,84.807 57.546 M297.277 57.813 C 296.192 58.897,295.196 59.025,294.894 58.119 C 294.778 57.772,294.349 58.023,293.940 58.678 C 292.619 60.794,295.636 60.754,297.391 58.633 C 298.931 56.771,298.856 56.233,297.277 57.813 M296.563 63.750 C 296.350 64.094,296.335 64.632,296.530 64.947 C 296.724 65.261,296.593 65.662,296.238 65.837 C 295.884 66.013,295.952 66.072,296.391 65.969 C 296.829 65.866,297.102 65.420,296.998 64.979 C 296.894 64.538,297.175 63.945,297.623 63.661 C 298.193 63.299,298.214 63.141,297.693 63.135 C 297.284 63.129,296.775 63.406,296.563 63.750 M290.615 75.781 C 290.621 76.039,290.344 76.250,290.000 76.250 C 289.656 76.250,289.379 75.617,289.385 74.844 C 289.394 73.502,290.587 74.411,290.615 75.781 M326.250 78.677 C 326.250 78.981,325.727 79.366,325.088 79.533 C 323.695 79.897,322.982 82.854,324.071 83.757 C 324.629 84.220,325.115 83.980,325.830 82.889 C 327.186 80.820,327.815 78.125,326.943 78.125 C 326.562 78.125,326.250 78.373,326.250 78.677 M29.374 80.454 C 30.374 81.725,30.505 82.224,29.889 82.420 C 29.434 82.565,28.834 83.070,28.555 83.542 C 28.276 84.015,27.784 84.238,27.462 84.039 C 27.139 83.839,26.875 84.255,26.875 84.963 C 26.875 85.861,26.450 86.270,25.469 86.316 C 22.074 86.477,21.567 86.603,21.565 87.292 C 21.561 88.532,17.484 89.825,16.159 89.007 C 15.201 88.414,16.350 87.018,17.540 87.329 C 18.206 87.503,18.750 87.332,18.750 86.948 C 18.750 86.564,18.191 86.250,17.507 86.250 C 16.571 86.250,16.295 85.873,16.390 84.722 C 16.487 83.553,16.706 83.350,17.321 83.861 C 17.894 84.337,18.375 84.320,18.997 83.805 C 19.476 83.407,20.109 83.124,20.403 83.177 C 21.760 83.421,22.392 83.016,22.725 81.690 C 23.046 80.408,25.291 78.998,27.298 78.816 C 27.703 78.780,28.637 79.517,29.374 80.454 M308.125 82.736 C 308.125 83.965,309.779 85.238,310.294 84.405 C 310.517 84.045,310.244 83.750,309.688 83.750 C 309.129 83.750,308.861 83.451,309.089 83.082 C 309.316 82.715,309.909 82.571,310.408 82.763 C 310.915 82.957,311.146 82.838,310.933 82.493 C 310.356 81.559,308.125 81.752,308.125 82.736 M38.750 83.088 C 38.750 83.826,37.531 84.614,37.083 84.167 C 36.636 83.719,37.424 82.500,38.162 82.500 C 38.485 82.500,38.750 82.765,38.750 83.088 M48.125 90.625 C 47.609 90.958,47.469 91.239,47.813 91.250 C 48.156 91.261,48.016 91.542,47.500 91.875 C 46.911 92.256,46.845 92.484,47.322 92.490 C 47.739 92.496,48.382 91.938,48.750 91.250 C 49.506 89.837,49.443 89.773,48.125 90.625 M12.500 93.297 C 12.500 94.557,10.924 93.223,10.763 91.826 C 10.594 90.360,10.618 90.351,11.544 91.526 C 12.070 92.193,12.500 92.990,12.500 93.297 M8.450 92.721 C 8.889 92.553,9.434 92.715,9.661 93.082 C 9.919 93.500,9.359 93.750,8.162 93.750 C 6.779 93.750,6.250 93.456,6.250 92.688 C 6.250 91.902,6.433 91.808,6.951 92.326 C 7.337 92.712,8.011 92.889,8.450 92.721 M357.835 97.018 C 357.850 98.660,358.208 99.684,358.903 100.073 C 359.539 100.429,359.794 101.059,359.555 101.682 C 359.270 102.426,359.391 102.564,360.000 102.188 C 360.609 101.811,360.731 101.949,360.446 102.690 C 360.231 103.251,360.291 103.856,360.579 104.034 C 361.321 104.493,364.375 101.965,364.375 100.892 C 364.375 100.401,364.656 100.000,365.000 100.000 C 366.046 100.000,365.702 98.870,364.241 97.509 C 363.479 96.800,362.495 96.358,362.053 96.528 C 361.611 96.697,361.250 96.591,361.250 96.292 C 361.250 95.992,360.477 95.478,359.531 95.148 C 357.843 94.560,357.813 94.593,357.835 97.018 M322.969 96.681 C 321.590 97.041,321.476 99.792,322.839 99.792 C 323.428 99.792,323.667 99.436,323.454 98.879 C 323.261 98.377,323.424 97.580,323.816 97.108 C 324.208 96.636,324.423 96.283,324.295 96.323 C 324.167 96.362,323.570 96.524,322.969 96.681 M346.362 97.813 C 345.686 98.672,344.531 99.375,343.797 99.375 C 343.062 99.375,342.317 99.749,342.142 100.206 C 341.966 100.663,341.202 100.985,340.443 100.922 C 338.880 100.792,335.442 103.742,333.984 106.464 C 333.078 108.156,333.330 109.816,334.263 108.305 C 334.923 107.239,348.884 100.255,351.416 99.725 C 353.292 99.333,354.240 98.587,354.098 97.616 C 353.930 96.468,352.225 96.221,350.393 97.078 C 349.589 97.454,349.357 97.410,349.649 96.937 C 350.532 95.508,347.549 96.303,346.362 97.813 M376.427 102.941 C 375.996 104.064,373.976 106.250,373.370 106.250 C 372.620 106.250,373.855 102.874,374.878 102.125 C 376.178 101.175,376.949 101.581,376.427 102.941 M387.992 101.971 C 389.855 101.846,390.070 101.991,389.890 103.259 C 389.753 104.226,389.266 104.688,388.382 104.688 C 387.664 104.688,386.613 105.071,386.046 105.539 C 385.422 106.054,384.582 106.200,383.914 105.909 C 383.308 105.644,382.461 105.485,382.031 105.554 C 380.903 105.736,381.047 105.359,382.924 103.221 C 383.844 102.172,384.888 101.493,385.244 101.713 C 385.599 101.933,386.836 102.049,387.992 101.971 M360.187 106.406 C 359.507 107.470,357.126 109.286,357.729 108.281 C 358.012 107.811,357.864 107.500,357.357 107.500 C 356.459 107.500,356.007 109.776,356.808 110.271 C 357.378 110.623,360.870 107.450,361.094 106.376 C 361.297 105.399,360.822 105.415,360.187 106.406 M393.202 106.852 C 394.092 110.711,393.610 113.148,392.002 112.915 C 391.073 112.780,389.886 112.888,389.364 113.154 C 388.088 113.806,388.469 108.909,389.813 107.387 C 390.661 106.426,393.019 106.054,393.202 106.852 M385.288 115.408 C 384.654 115.871,383.871 116.250,383.547 116.250 C 383.223 116.250,382.338 116.971,381.580 117.853 C 380.253 119.398,380.207 119.407,380.303 118.096 C 380.358 117.348,380.945 116.440,381.608 116.078 C 382.270 115.716,382.953 115.227,383.125 114.991 C 383.608 114.329,385.249 113.882,385.876 114.242 C 386.186 114.420,385.921 114.945,385.288 115.408 M282.594 119.063 C 282.594 119.389,282.291 119.757,281.922 119.880 C 281.552 120.003,281.250 119.635,281.250 119.063 C 281.250 118.490,281.552 118.122,281.922 118.245 C 282.291 118.368,282.594 118.736,282.594 119.063 M8.393 119.304 C 8.581 119.608,7.971 120.003,7.036 120.182 C 5.445 120.486,5.413 120.451,6.538 119.628 C 7.955 118.592,7.954 118.592,8.393 119.304 M3.519 124.700 C 3.302 125.266,2.817 125.508,2.408 125.256 C 1.956 124.977,1.851 125.080,2.128 125.528 C 2.373 125.925,2.276 126.250,1.912 126.250 C 0.876 126.250,1.136 124.909,2.343 124.026 C 3.637 123.080,4.050 123.316,3.519 124.700 M84.176 125.304 C 86.027 125.907,86.519 127.478,85.167 128.468 C 84.253 129.138,83.976 129.124,83.563 128.389 C 83.288 127.900,82.717 127.500,82.295 127.500 C 81.624 127.500,79.375 125.385,79.375 124.753 C 79.375 124.417,82.582 124.784,84.176 125.304 M290.852 126.388 C 290.212 127.423,291.710 128.415,292.687 127.604 C 293.163 127.209,293.738 127.071,293.964 127.297 C 294.190 127.523,294.375 127.413,294.375 127.052 C 294.375 126.192,291.328 125.618,290.852 126.388 M17.917 126.667 C 17.268 127.315,17.427 129.375,18.125 129.375 C 18.469 129.375,18.750 128.672,18.750 127.813 C 18.750 126.176,18.606 125.978,17.917 126.667 M34.841 127.031 C 35.368 125.465,36.746 126.306,37.146 128.438 C 37.372 129.641,37.856 130.625,38.221 130.625 C 38.632 130.625,38.723 129.976,38.458 128.923 L 38.031 127.221 39.436 128.454 C 40.208 129.133,40.607 129.292,40.323 128.810 C 39.975 128.217,40.041 128.077,40.528 128.378 C 40.925 128.623,41.250 129.246,41.250 129.761 C 41.250 130.277,40.969 130.525,40.625 130.313 C 40.281 130.100,40.000 130.346,40.000 130.858 C 40.000 131.371,39.153 132.393,38.118 133.130 C 37.082 133.867,36.396 134.730,36.592 135.048 C 36.788 135.365,36.651 135.625,36.287 135.625 C 35.555 135.625,35.404 134.805,36.022 134.187 C 36.240 133.968,36.521 132.656,36.646 131.270 C 36.868 128.806,36.435 128.339,34.237 128.670 C 33.990 128.707,33.452 128.108,33.041 127.338 C 32.343 126.028,32.369 125.998,33.437 126.875 C 34.307 127.589,34.641 127.627,34.841 127.031 M32.857 131.774 C 33.101 132.890,33.369 133.076,33.990 132.561 C 34.790 131.896,35.625 132.228,35.625 133.210 C 35.625 133.485,35.157 133.531,34.585 133.312 C 33.824 133.020,33.669 133.151,34.008 133.800 C 34.262 134.288,33.886 134.024,33.173 133.212 C 32.314 132.236,31.904 130.966,31.960 129.462 C 32.020 127.856,32.118 127.647,32.291 128.750 C 32.427 129.609,32.681 130.970,32.857 131.774 M89.577 130.374 C 89.393 130.856,89.013 131.250,88.734 131.250 C 88.455 131.250,87.782 131.421,87.239 131.629 C 86.095 132.068,85.877 130.623,86.928 129.572 C 87.865 128.635,89.997 129.280,89.577 130.374 M288.125 130.260 C 288.125 130.805,288.570 131.250,289.115 131.250 C 290.218 131.250,290.026 129.905,288.867 129.518 C 288.459 129.382,288.125 129.716,288.125 130.260 M106.875 133.750 C 106.875 134.094,106.523 134.379,106.094 134.385 C 104.648 134.402,107.121 135.605,108.624 135.615 C 109.414 135.621,111.228 136.189,112.655 136.878 C 114.081 137.568,117.091 138.441,119.343 138.819 C 124.766 139.730,126.743 140.919,125.365 142.442 C 124.821 143.044,124.375 143.898,124.375 144.340 C 124.375 144.910,123.875 144.808,122.656 143.989 C 121.272 143.060,119.659 142.825,114.375 142.783 C 105.897 142.715,103.813 143.594,102.585 147.753 C 101.615 151.040,100.958 151.679,99.660 150.602 C 98.355 149.519,98.530 148.823,100.313 148.011 C 102.210 147.147,102.301 146.469,100.592 145.927 C 99.588 145.608,99.464 145.334,100.021 144.662 C 100.412 144.191,100.562 143.528,100.353 143.191 C 100.144 142.853,100.469 142.299,101.075 141.960 C 101.681 141.621,102.014 141.180,101.814 140.980 C 101.614 140.781,100.800 141.181,100.005 141.871 C 99.209 142.561,98.067 143.125,97.466 143.125 C 96.813 143.125,96.109 143.880,95.719 145.000 C 94.939 147.238,94.375 147.420,94.375 145.435 C 94.375 144.642,95.320 142.963,96.475 141.701 C 98.667 139.309,98.715 138.750,96.727 138.750 C 95.847 138.750,95.594 138.385,95.753 137.344 C 95.873 136.552,96.339 136.018,96.819 136.122 C 97.288 136.224,98.265 135.750,98.992 135.070 C 99.774 134.338,101.460 133.733,103.125 133.588 C 104.672 133.454,106.148 133.294,106.406 133.234 C 106.664 133.174,106.875 133.406,106.875 133.750 M92.185 137.601 C 92.970 138.387,90.687 138.621,89.648 137.861 C 88.653 137.134,88.704 137.066,90.182 137.145 C 91.080 137.193,91.981 137.398,92.185 137.601 M91.375 140.125 C 90.974 140.526,90.438 140.647,90.185 140.393 C 89.931 140.140,90.129 139.681,90.625 139.375 C 91.792 138.654,92.319 139.181,91.375 140.125 M133.861 155.244 C 134.101 156.925,134.877 159.649,135.586 161.297 C 137.972 166.844,136.432 173.752,132.813 173.738 C 129.807 173.727,129.132 172.979,130.520 171.202 C 132.916 168.134,133.235 163.710,131.532 157.172 C 130.287 152.390,130.348 151.749,132.026 151.988 C 133.185 152.153,133.501 152.715,133.861 155.244 M81.755 155.585 C 81.340 156.250,80.799 156.670,80.553 156.518 C 80.308 156.366,79.981 156.596,79.826 157.027 C 79.672 157.459,79.373 157.655,79.162 157.462 C 78.569 156.921,80.582 154.375,81.603 154.375 C 82.344 154.375,82.372 154.597,81.755 155.585 M87.217 156.775 C 88.359 157.295,88.750 157.290,88.750 156.757 C 88.750 156.364,88.936 156.227,89.163 156.455 C 89.743 157.034,87.462 159.425,86.749 158.985 C 86.428 158.786,86.302 158.265,86.470 157.827 C 86.666 157.318,86.232 157.031,85.263 157.031 C 84.087 157.031,83.750 157.362,83.750 158.516 C 83.750 159.332,84.022 160.000,84.355 160.000 C 84.688 160.000,84.799 159.578,84.601 159.063 C 84.403 158.547,84.523 158.125,84.866 158.125 C 85.857 158.125,86.316 160.014,85.410 160.362 C 84.582 160.679,81.250 159.667,81.250 159.098 C 81.250 158.928,81.693 158.959,82.234 159.167 C 82.874 159.413,83.150 159.242,83.022 158.679 C 82.914 158.202,83.385 157.065,84.069 156.151 C 84.807 155.164,85.388 154.811,85.498 155.283 C 85.600 155.719,86.373 156.390,87.217 156.775 M103.750 156.215 C 103.750 156.769,104.331 157.720,105.042 158.329 C 107.089 160.081,105.938 161.356,102.330 161.333 C 101.721 161.329,101.390 161.596,101.594 161.926 C 101.804 162.266,101.199 162.469,100.201 162.394 C 98.561 162.271,95.803 163.605,93.862 165.461 C 93.407 165.895,92.634 166.250,92.143 166.250 C 91.652 166.250,91.250 166.464,91.250 166.725 C 91.250 168.126,88.773 168.711,88.107 167.467 C 87.355 166.061,88.840 164.317,91.854 163.067 C 92.702 162.716,93.123 162.233,92.791 161.995 C 91.892 161.351,91.767 160.000,92.607 160.000 C 93.010 160.000,93.869 159.520,94.517 158.934 C 95.479 158.064,95.916 158.006,96.901 158.621 C 98.370 159.538,98.955 159.587,98.438 158.750 C 98.225 158.406,98.630 158.125,99.338 158.125 C 100.046 158.125,100.625 157.759,100.625 157.313 C 100.625 156.866,100.916 156.209,101.271 155.854 C 102.257 154.868,103.750 155.085,103.750 156.215 M94.468 159.790 C 93.468 160.877,93.748 161.399,94.938 160.663 C 95.400 160.378,95.673 159.858,95.545 159.509 C 95.410 159.141,94.957 159.259,94.468 159.790 M139.714 165.582 C 139.516 165.902,139.611 166.322,139.925 166.516 C 141.398 167.426,138.675 173.022,136.719 173.105 C 136.072 173.133,136.131 171.459,136.823 170.148 C 137.138 169.551,137.735 168.148,138.149 167.031 C 138.563 165.914,139.165 165.000,139.488 165.000 C 139.810 165.000,139.912 165.262,139.714 165.582 M99.219 168.277 C 99.992 168.266,100.625 168.539,100.625 168.883 C 100.625 169.227,101.047 169.347,101.563 169.149 C 102.078 168.951,102.500 169.060,102.500 169.391 C 102.500 169.955,106.594 169.616,107.656 168.964 C 107.914 168.806,108.403 168.848,108.743 169.058 C 109.560 169.563,107.638 172.500,106.491 172.500 C 106.015 172.500,105.625 172.798,105.625 173.162 C 105.625 173.526,105.273 173.646,104.844 173.428 C 104.414 173.210,104.579 173.454,105.211 173.969 C 106.398 174.937,106.382 177.290,105.189 177.055 C 104.819 176.982,103.570 177.204,102.414 177.550 C 99.328 178.471,96.807 178.741,97.198 178.108 C 97.386 177.804,98.023 177.736,98.614 177.957 C 99.501 178.289,99.556 178.197,98.932 177.428 C 98.517 176.916,98.339 175.879,98.537 175.124 C 98.756 174.284,98.610 173.750,98.161 173.750 C 97.757 173.750,97.599 174.029,97.809 174.370 C 98.020 174.711,97.905 175.485,97.553 176.089 C 96.978 177.076,96.911 177.046,96.894 175.797 C 96.875 174.388,94.197 172.500,92.219 172.500 C 90.992 172.500,90.994 172.042,92.223 170.812 C 92.759 170.277,93.061 169.485,92.895 169.053 C 92.692 168.522,93.036 168.363,93.953 168.562 C 95.088 168.810,95.158 168.738,94.375 168.127 C 93.633 167.547,93.893 167.489,95.625 167.846 C 96.828 168.094,98.445 168.288,99.219 168.277 M250.409 173.463 C 250.633 174.048,250.472 174.355,249.999 174.244 C 249.570 174.144,249.090 174.414,248.932 174.844 C 248.478 176.083,250.246 175.750,251.063 174.442 C 251.780 173.295,251.566 172.500,250.540 172.500 C 250.265 172.500,250.206 172.933,250.409 173.463 M113.098 179.134 C 112.613 180.409,112.657 180.699,113.296 180.453 C 113.746 180.280,114.637 180.521,115.275 180.987 C 115.912 181.453,116.717 181.660,117.064 181.446 C 117.421 181.225,117.500 181.369,117.247 181.778 C 116.859 182.406,117.542 182.760,118.832 182.599 C 119.049 182.572,119.670 183.041,120.213 183.641 C 121.247 184.782,120.833 184.967,116.703 185.204 C 116.035 185.242,115.724 185.608,115.922 186.123 C 116.102 186.593,116.250 187.393,116.250 187.901 C 116.250 188.416,116.555 188.635,116.942 188.396 C 117.413 188.105,117.492 188.417,117.188 189.375 C 116.855 190.421,116.943 190.657,117.530 190.294 C 118.046 189.975,118.162 190.059,117.866 190.539 C 117.617 190.941,117.152 191.109,116.832 190.911 C 116.512 190.713,116.250 190.849,116.250 191.213 C 116.250 191.577,115.929 191.875,115.538 191.875 C 115.146 191.875,114.452 192.367,113.995 192.969 C 113.535 193.575,113.156 193.730,113.145 193.317 C 113.134 192.906,113.758 192.107,114.531 191.540 L 115.938 190.509 114.375 190.957 C 113.516 191.204,113.032 191.174,113.301 190.891 C 114.033 190.121,111.337 188.907,109.622 189.235 C 108.694 189.412,108.125 189.954,108.125 190.661 C 108.125 191.288,107.847 191.973,107.507 192.183 C 107.139 192.411,107.053 192.110,107.294 191.439 C 107.517 190.819,107.466 190.524,107.182 190.783 C 106.897 191.041,106.172 190.808,105.571 190.264 C 104.687 189.464,104.217 189.416,103.104 190.011 C 102.018 190.592,101.579 190.570,101.016 189.905 C 100.624 189.442,100.573 189.273,100.902 189.531 C 101.904 190.317,102.655 190.055,102.271 189.055 C 101.987 188.314,102.242 188.193,103.454 188.498 C 104.449 188.747,105.000 188.621,105.000 188.143 C 105.000 187.643,105.613 187.535,106.874 187.812 C 108.419 188.152,108.682 188.050,108.370 187.237 C 108.158 186.685,108.313 186.250,108.720 186.250 C 109.121 186.250,109.275 185.969,109.063 185.625 C 108.850 185.281,107.849 185.000,106.838 185.000 C 105.827 185.000,105.000 184.719,105.000 184.375 C 105.000 184.031,104.578 183.750,104.063 183.750 C 103.547 183.750,103.125 184.148,103.125 184.635 C 103.125 185.122,102.773 185.663,102.344 185.836 C 101.857 186.033,101.955 186.170,102.604 186.201 C 103.177 186.228,103.771 185.898,103.925 185.469 C 104.078 185.039,104.433 184.901,104.713 185.163 C 105.262 185.676,103.267 187.447,102.104 187.480 C 101.052 187.510,100.618 185.137,101.606 184.757 C 102.070 184.579,102.684 183.526,102.972 182.416 C 103.581 180.067,104.905 179.271,104.692 181.381 C 104.612 182.169,104.669 182.320,104.817 181.719 C 104.965 181.117,105.514 180.625,106.037 180.625 C 106.560 180.625,107.515 179.992,108.160 179.219 C 109.195 177.979,109.336 177.946,109.354 178.943 C 109.366 179.565,109.141 179.929,108.854 179.752 C 108.568 179.575,108.333 179.813,108.333 180.280 C 108.333 180.748,108.708 180.987,109.167 180.811 C 109.625 180.635,110.000 179.929,110.000 179.241 C 110.000 178.453,110.309 178.110,110.838 178.313 C 111.299 178.490,112.072 178.383,112.557 178.077 C 113.786 177.298,113.792 177.309,113.098 179.134 M115.859 177.999 C 116.029 178.273,115.936 178.871,115.654 179.329 C 114.988 180.406,113.696 179.619,114.157 178.417 C 114.541 177.416,115.373 177.211,115.859 177.999 M198.676 184.807 C 198.635 185.085,198.626 185.496,198.656 185.721 C 198.821 186.966,196.804 187.641,196.040 186.597 C 195.109 185.324,190.846 184.918,189.935 186.016 C 189.602 186.418,188.777 186.602,188.102 186.425 C 186.612 186.035,186.515 187.107,187.813 189.596 C 188.325 190.577,188.588 191.632,188.397 191.940 C 187.754 192.981,191.283 192.508,193.823 191.213 C 195.636 190.288,196.568 190.111,197.136 190.583 C 197.572 190.944,198.090 191.077,198.288 190.879 C 198.486 190.680,198.963 191.105,199.346 191.821 C 200.101 193.232,201.250 193.577,201.250 192.393 C 201.250 191.990,201.715 191.147,202.284 190.518 C 203.248 189.454,203.246 189.375,202.265 189.375 C 201.685 189.375,201.056 188.971,200.866 188.477 C 200.677 187.983,200.123 187.732,199.636 187.919 C 198.588 188.321,198.440 186.810,199.429 185.821 C 199.919 185.331,199.919 185.024,199.429 184.721 C 199.056 184.490,198.717 184.529,198.676 184.807 M219.301 186.406 C 219.260 186.836,219.260 187.398,219.301 187.656 C 219.371 188.103,218.446 188.301,217.839 187.969 C 217.682 187.883,217.162 188.348,216.684 189.002 C 216.206 189.656,215.510 190.003,215.138 189.773 C 214.245 189.221,213.700 190.158,214.325 191.170 C 214.709 191.790,215.063 191.723,215.915 190.871 C 216.961 189.825,217.066 189.845,218.179 191.293 L 219.347 192.813 219.361 191.406 C 219.375 189.973,220.253 189.518,220.921 190.598 C 221.427 191.416,222.684 190.849,223.594 189.392 C 224.085 188.606,224.130 188.047,223.722 187.795 C 223.376 187.582,223.171 187.744,223.266 188.157 C 223.360 188.569,223.047 189.048,222.569 189.222 C 222.052 189.410,221.871 189.261,222.123 188.854 C 222.356 188.478,221.973 187.598,221.273 186.898 C 219.798 185.423,219.403 185.325,219.301 186.406 M224.375 186.451 C 224.375 186.954,224.797 187.528,225.313 187.726 C 225.828 187.924,226.250 187.934,226.250 187.748 C 226.250 187.563,225.828 186.989,225.313 186.473 C 224.499 185.660,224.375 185.657,224.375 186.451 M160.358 188.451 C 158.897 189.556,159.248 190.080,161.121 189.590 C 161.879 189.391,162.500 188.840,162.500 188.365 C 162.500 187.271,161.885 187.296,160.358 188.451 M181.250 188.063 C 181.250 188.373,180.220 188.869,178.961 189.167 C 175.966 189.876,177.645 192.252,180.708 191.640 C 182.327 191.316,182.515 191.485,183.147 193.832 C 183.836 196.389,184.532 196.640,184.698 194.391 C 184.747 193.727,184.554 193.327,184.268 193.503 C 183.983 193.680,183.715 193.526,183.672 193.162 C 183.629 192.798,183.523 192.219,183.438 191.875 C 183.352 191.531,183.246 190.406,183.203 189.375 C 183.133 187.703,181.250 186.438,181.250 188.063 M227.920 189.285 C 228.124 190.064,227.979 190.625,227.573 190.625 C 227.189 190.625,226.875 190.344,226.875 190.000 C 226.875 189.656,226.594 189.375,226.250 189.375 C 225.906 189.375,225.625 189.911,225.625 190.566 C 225.625 191.466,225.944 191.675,226.928 191.417 C 228.491 191.009,229.176 189.551,228.243 188.618 C 227.762 188.137,227.670 188.328,227.920 189.285 M241.042 188.542 C 240.177 189.407,240.681 189.816,242.245 189.517 C 243.428 189.291,243.639 189.064,243.026 188.676 C 242.004 188.028,241.584 187.999,241.042 188.542 M112.233 191.250 C 113.249 191.250,113.349 191.803,112.560 193.049 C 111.716 194.383,110.817 193.389,110.812 191.116 C 110.810 189.987,110.928 189.555,111.075 190.156 C 111.222 190.758,111.743 191.250,112.233 191.250 M125.638 192.203 C 126.655 193.429,126.062 194.022,124.585 193.257 C 123.954 192.930,122.944 192.742,122.341 192.839 C 121.738 192.936,121.405 192.754,121.603 192.435 C 121.800 192.116,122.223 192.016,122.543 192.214 C 122.863 192.412,123.125 192.276,123.125 191.912 C 123.125 190.926,124.732 191.112,125.638 192.203 M122.500 196.277 C 122.672 196.344,123.058 196.353,123.358 196.298 C 123.658 196.244,123.725 196.664,123.507 197.232 C 123.228 197.959,123.375 198.163,124.004 197.922 C 124.495 197.733,125.052 197.983,125.241 198.477 C 125.431 198.971,125.910 199.375,126.307 199.375 C 126.804 199.375,126.765 199.035,126.181 198.281 C 125.476 197.371,125.566 197.385,126.715 198.365 C 128.783 200.129,127.767 200.771,125.137 199.361 C 122.155 197.762,121.793 197.794,119.581 199.844 C 118.560 200.789,117.323 201.637,116.832 201.728 C 116.315 201.823,116.520 201.394,117.317 200.712 C 118.758 199.477,118.612 198.750,116.921 198.750 C 115.947 198.750,114.187 196.647,114.717 196.116 C 114.967 195.866,121.804 196.008,122.500 196.277 M114.972 200.781 C 114.987 201.383,114.595 201.875,114.099 201.875 C 112.817 201.875,112.246 200.683,113.329 200.268 C 114.303 199.894,114.032 197.500,113.015 197.500 C 112.691 197.500,112.637 197.159,112.895 196.742 C 113.409 195.911,114.922 198.855,114.972 200.781 M138.848 203.880 C 140.593 204.861,141.250 205.615,141.120 206.487 C 140.844 208.345,139.590 208.397,137.816 206.623 C 136.940 205.747,135.658 204.727,134.969 204.358 C 133.599 203.625,133.873 202.500,135.421 202.500 C 135.955 202.500,137.497 203.121,138.848 203.880 M119.691 205.366 C 119.694 206.273,120.155 206.572,121.595 206.603 C 124.313 206.661,127.103 210.000,124.434 210.000 C 124.122 210.000,124.015 209.433,124.196 208.741 C 124.445 207.790,124.287 207.573,123.552 207.855 C 123.017 208.060,122.723 208.605,122.900 209.065 C 123.212 209.879,116.778 210.161,116.063 209.366 C 115.525 208.767,114.932 204.259,115.429 204.548 C 115.709 204.710,116.500 204.618,117.188 204.343 C 118.920 203.649,119.687 203.963,119.691 205.366 M122.031 211.700 C 121.602 211.854,121.228 212.448,121.201 213.021 C 121.168 213.703,121.040 213.786,120.829 213.260 C 120.461 212.343,121.857 210.382,122.433 211.008 C 122.642 211.235,122.461 211.547,122.031 211.700 M145.368 214.841 C 144.685 215.523,144.217 214.438,144.707 213.308 C 145.172 212.237,145.206 212.238,145.464 213.330 C 145.614 213.959,145.570 214.638,145.368 214.841 " stroke="none" fill="#000000" fill-rule="evenodd"></path></g></svg>