<svg id="svg" xmlns="http://www.w3.org/2000/svg" xmlns:xlink="http://www.w3.org/1999/xlink" width="400" height="225" viewBox="0, 0, 400,225"><g id="svgg"><path id="path0" d="M0.410 0.423 C -0.836 1.669,0.010 100.143,1.263 99.815 C 1.943 99.638,2.656 99.747,2.849 100.059 C 3.415 100.975,4.036 100.716,4.696 99.290 C 5.349 97.876,6.381 97.582,6.755 98.703 C 6.878 99.073,6.534 99.375,5.990 99.375 C 5.445 99.375,5.000 99.673,5.000 100.037 C 5.000 100.401,5.281 100.525,5.625 100.312 C 6.707 99.644,6.305 101.919,4.900 104.420 C 4.110 105.825,2.815 107.079,1.780 107.439 L 0.012 108.056 0.162 166.372 L 0.313 224.688 56.563 224.664 C 114.791 224.639,116.659 224.605,117.312 223.548 C 117.549 223.166,117.294 223.070,116.673 223.309 C 116.105 223.527,115.670 223.504,115.707 223.259 C 115.937 221.715,115.417 221.181,114.968 222.500 L 114.436 224.063 114.562 222.549 C 114.697 220.923,116.250 219.906,116.250 221.444 C 116.250 221.951,116.690 222.535,117.227 222.741 C 117.765 222.947,118.049 223.367,117.859 223.675 C 116.908 225.214,147.032 225.438,148.877 223.905 C 149.395 223.474,150.914 222.721,152.253 222.230 C 154.403 221.442,154.494 221.333,153.030 221.294 C 151.831 221.262,150.968 220.617,149.905 218.959 C 149.098 217.699,147.908 215.851,147.261 214.854 C 146.386 213.504,146.266 212.859,146.793 212.332 C 147.319 211.806,147.500 211.986,147.500 213.037 C 147.500 214.737,148.595 214.240,149.376 212.185 C 149.717 211.288,150.649 210.582,151.838 210.321 C 154.027 209.840,154.327 209.047,152.500 208.569 C 151.779 208.380,151.250 207.716,151.250 207.000 C 151.250 206.317,150.828 205.597,150.313 205.399 C 149.797 205.201,149.375 204.635,149.375 204.141 C 149.375 203.598,148.942 203.350,148.281 203.515 C 147.596 203.686,145.905 202.623,143.750 200.665 C 141.289 198.429,140.623 197.514,141.406 197.443 C 142.008 197.388,142.852 197.297,143.281 197.241 C 143.711 197.184,144.750 197.852,145.591 198.725 C 146.504 199.673,146.962 199.896,146.728 199.279 C 146.512 198.711,146.729 197.727,147.211 197.092 C 148.044 195.992,148.478 196.514,148.199 198.281 C 148.158 198.539,148.406 198.750,148.750 198.750 C 149.728 198.750,149.491 197.817,148.050 195.984 C 147.317 195.052,146.339 194.447,145.862 194.630 C 145.388 194.812,145.000 194.672,145.000 194.318 C 145.000 193.965,144.719 193.850,144.375 194.063 C 144.031 194.275,143.750 194.010,143.750 193.474 C 143.750 192.352,142.720 192.154,142.368 193.209 C 142.213 193.673,141.780 193.566,141.110 192.896 C 140.549 192.335,139.788 191.875,139.420 191.875 C 139.051 191.875,138.750 191.613,138.750 191.292 C 138.750 190.972,138.213 190.539,137.558 190.331 C 136.902 190.123,136.184 189.480,135.962 188.902 C 135.740 188.324,135.759 188.051,136.003 188.295 C 136.248 188.539,136.782 188.461,137.191 188.122 C 138.015 187.438,141.563 190.056,141.563 191.347 C 141.563 191.779,142.704 192.107,144.381 192.157 C 145.931 192.203,147.548 192.456,147.975 192.720 C 148.401 192.983,148.750 193.038,148.750 192.841 C 148.750 192.644,149.784 192.915,151.048 193.443 C 152.615 194.098,153.550 194.200,153.986 193.764 C 154.337 193.413,155.131 193.125,155.750 193.125 C 156.419 193.125,156.875 192.666,156.875 191.994 C 156.875 191.373,157.316 190.318,157.855 189.651 C 158.793 188.489,158.819 188.511,158.468 190.156 C 157.979 192.448,159.214 192.414,161.908 190.061 C 163.863 188.354,164.945 184.608,163.957 182.967 C 163.441 182.109,161.250 183.772,161.250 185.022 C 161.250 185.697,160.978 186.250,160.645 186.250 C 160.312 186.250,160.197 185.840,160.389 185.339 C 160.621 184.735,160.208 184.294,159.165 184.032 C 158.299 183.815,157.431 183.223,157.237 182.716 C 157.043 182.210,156.661 181.933,156.389 182.101 C 155.872 182.421,155.657 182.182,150.586 175.676 C 146.302 170.180,147.405 169.151,152.383 173.999 C 155.945 177.470,159.243 179.715,159.864 179.094 C 160.031 178.927,160.871 179.344,161.730 180.020 C 162.590 180.697,163.804 181.250,164.428 181.250 C 165.316 181.250,165.722 182.065,166.300 185.000 C 166.706 187.063,167.248 188.750,167.505 188.750 C 168.288 188.750,169.440 187.047,169.538 185.744 C 169.675 183.927,171.051 184.784,171.485 186.956 C 171.934 189.202,172.868 188.842,173.449 186.199 L 173.869 184.287 177.558 184.583 C 179.871 184.768,182.356 184.532,184.218 183.950 C 186.989 183.085,196.375 182.829,208.125 183.300 L 211.563 183.438 211.507 185.449 C 211.465 186.973,211.693 187.412,212.444 187.259 C 214.452 186.851,218.452 184.840,218.937 183.995 C 220.089 181.990,222.832 182.982,224.308 185.938 C 225.081 187.484,225.809 188.750,225.926 188.750 C 226.259 188.750,225.952 187.266,225.455 186.472 C 225.209 186.078,225.381 185.613,225.837 185.438 C 226.358 185.238,226.955 185.915,227.440 187.257 C 227.946 188.656,228.468 189.229,228.950 188.916 C 229.917 188.288,234.375 188.269,234.375 188.892 C 234.375 189.158,234.867 189.397,235.469 189.424 C 236.164 189.456,236.269 189.592,235.755 189.798 C 235.135 190.046,235.117 190.325,235.675 190.998 C 236.239 191.678,236.210 191.879,235.545 191.895 C 234.964 191.908,235.072 192.205,235.878 192.816 C 236.942 193.621,237.193 193.575,238.222 192.388 C 239.464 190.956,239.751 189.375,238.770 189.375 C 238.437 189.375,238.325 188.955,238.523 188.441 C 238.720 187.927,239.103 187.645,239.375 187.813 C 239.996 188.196,240.684 186.517,240.132 185.965 C 239.908 185.741,239.717 184.968,239.706 184.248 C 239.695 183.486,239.228 182.868,238.591 182.773 C 237.988 182.683,237.638 182.842,237.813 183.126 C 237.988 183.409,237.216 183.585,236.097 183.515 C 234.978 183.445,233.711 183.645,233.281 183.958 C 232.852 184.272,232.500 184.290,232.500 184.000 C 232.500 183.710,232.062 184.097,231.527 184.861 C 230.267 186.661,229.515 186.615,228.636 184.688 C 228.245 183.828,227.548 183.125,227.087 183.125 C 226.301 183.125,226.047 182.483,226.406 181.406 C 226.492 181.148,226.828 181.026,227.153 181.134 C 227.478 181.243,228.321 181.043,229.028 180.692 C 229.734 180.340,231.475 179.757,232.896 179.397 C 234.317 179.036,235.828 178.321,236.254 177.808 C 236.680 177.295,237.434 176.875,237.931 176.875 C 238.427 176.875,239.755 176.172,240.882 175.313 C 242.009 174.453,243.123 173.750,243.359 173.750 C 243.595 173.750,244.650 172.769,245.703 171.569 C 246.975 170.121,248.682 169.072,250.788 168.447 C 252.531 167.929,254.484 167.030,255.127 166.448 C 256.600 165.114,258.941 164.852,258.472 166.072 C 258.289 166.550,258.417 166.768,258.757 166.558 C 259.097 166.348,259.375 165.827,259.375 165.400 C 259.375 163.680,261.027 161.286,262.462 160.925 C 264.759 160.348,267.622 158.094,267.259 157.149 C 267.077 156.674,267.262 156.435,267.688 156.595 C 268.398 156.861,270.000 154.258,270.000 152.838 C 270.000 152.474,270.588 151.808,271.307 151.359 C 272.265 150.761,272.515 150.146,272.243 149.060 C 272.038 148.244,272.128 147.418,272.442 147.223 C 272.756 147.029,272.938 146.379,272.845 145.779 C 272.753 145.179,272.911 144.535,273.196 144.349 C 273.482 144.162,273.892 142.897,274.108 141.536 C 274.324 140.176,274.775 138.548,275.111 137.920 C 275.447 137.291,275.576 136.398,275.398 135.934 C 275.220 135.471,275.452 134.778,275.914 134.395 C 276.540 133.875,276.836 133.903,277.077 134.505 C 277.283 135.019,277.419 134.914,277.451 134.219 C 277.478 133.617,277.781 133.125,278.125 133.125 C 278.469 133.125,278.750 132.703,278.750 132.188 C 278.750 131.644,279.316 131.250,280.097 131.250 C 281.358 131.250,281.378 131.178,280.418 130.116 C 279.328 128.912,280.007 127.500,281.676 127.500 C 282.501 127.500,283.513 124.699,283.217 123.235 C 282.931 121.827,284.411 120.610,285.941 120.994 C 286.723 121.191,287.552 121.047,287.781 120.676 C 288.011 120.304,288.658 120.000,289.219 120.000 C 290.123 120.000,290.114 120.091,289.143 120.801 C 288.134 121.539,288.229 121.769,290.342 123.691 C 291.721 124.946,292.369 125.945,291.967 126.193 C 291.419 126.532,291.617 129.375,292.189 129.375 C 293.133 129.375,295.566 127.537,295.047 127.216 C 294.042 126.595,294.237 123.764,295.313 123.351 C 295.828 123.153,296.250 122.641,296.250 122.212 C 296.250 121.783,296.954 120.672,297.816 119.743 C 298.958 118.510,299.278 117.642,298.998 116.527 C 298.732 115.470,298.876 114.999,299.463 114.996 C 299.930 114.994,301.156 114.420,302.188 113.721 L 304.063 112.450 302.188 112.874 C 301.156 113.107,300.005 113.537,299.630 113.831 C 299.255 114.124,298.717 114.156,298.436 113.901 C 298.155 113.646,298.115 113.770,298.347 114.176 C 298.580 114.581,298.480 115.093,298.125 115.313 C 297.770 115.532,297.640 115.971,297.836 116.288 C 298.032 116.606,297.875 117.360,297.487 117.964 C 296.831 118.985,296.804 118.986,297.117 117.978 C 297.515 116.697,295.841 115.625,293.442 115.625 C 292.507 115.625,291.967 115.356,292.187 115.000 C 292.548 114.417,291.102 114.050,289.688 114.367 C 289.344 114.444,288.430 114.512,287.656 114.519 C 285.897 114.534,285.823 115.405,287.536 115.949 C 289.242 116.490,288.842 118.416,287.003 118.509 C 286.223 118.549,285.409 118.757,285.194 118.973 C 283.588 120.578,283.064 116.419,284.622 114.430 C 285.134 113.774,285.111 113.479,284.531 113.284 C 283.069 112.792,283.745 111.916,287.344 109.644 C 292.305 106.510,295.625 102.799,295.625 100.388 C 295.625 99.993,296.123 98.689,296.731 97.491 C 298.206 94.586,298.026 89.732,296.320 86.388 C 295.587 84.950,294.898 82.995,294.790 82.043 C 294.681 81.091,294.281 79.569,293.900 78.661 C 293.072 76.687,293.500 74.522,295.054 72.813 C 295.679 72.125,296.767 70.930,297.470 70.156 C 298.764 68.734,299.141 67.500,298.281 67.500 C 298.023 67.500,297.813 66.683,297.813 65.685 C 297.813 64.686,298.046 64.014,298.332 64.191 C 299.250 64.758,298.472 61.591,297.500 60.801 C 296.717 60.165,296.709 60.036,297.451 60.020 C 297.939 60.009,298.853 59.535,299.482 58.966 C 300.862 57.717,301.238 59.762,299.879 61.121 C 298.997 62.003,302.067 65.618,303.711 65.635 C 304.570 65.643,304.574 65.717,303.750 66.250 C 303.234 66.583,303.076 66.860,303.398 66.865 C 303.720 66.871,303.224 67.668,302.296 68.637 C 301.367 69.606,300.799 70.591,301.033 70.825 C 301.267 71.059,301.033 71.250,300.514 71.250 C 299.513 71.250,296.905 73.737,297.872 73.769 C 298.183 73.779,297.957 74.068,297.370 74.411 C 296.718 74.790,296.455 75.432,296.695 76.057 C 296.957 76.741,296.846 76.931,296.356 76.628 C 295.954 76.380,295.625 76.474,295.625 76.838 C 295.625 78.111,298.458 77.449,300.893 75.608 C 302.243 74.586,303.717 73.750,304.169 73.750 C 304.621 73.750,305.486 72.695,306.093 71.406 C 306.929 69.630,307.586 69.048,308.806 69.001 C 311.068 68.914,310.514 71.415,307.603 74.433 C 305.067 77.062,304.489 79.402,306.469 79.020 C 307.157 78.888,307.952 78.421,308.235 77.983 C 308.641 77.356,308.878 77.386,309.355 78.125 C 309.746 78.731,309.744 79.137,309.351 79.272 C 309.016 79.387,308.900 79.738,309.094 80.051 C 309.287 80.364,308.782 80.922,307.971 81.291 C 306.867 81.794,306.528 82.411,306.621 83.748 C 306.867 87.304,308.073 87.351,309.933 83.876 C 310.348 83.100,310.955 82.630,311.281 82.832 C 312.097 83.336,312.030 82.830,310.929 80.196 C 310.409 78.952,310.121 77.795,310.290 77.627 C 310.458 77.459,310.773 77.783,310.990 78.348 C 311.611 79.966,312.678 79.545,312.347 77.813 C 312.158 76.826,312.334 76.250,312.823 76.250 C 313.249 76.250,313.958 75.815,314.400 75.283 C 314.843 74.748,315.367 74.579,315.570 74.904 C 315.991 75.577,321.250 73.288,321.250 72.431 C 321.250 72.125,321.672 71.875,322.188 71.875 C 322.703 71.875,323.125 71.981,323.125 72.111 C 323.125 72.241,323.537 73.334,324.041 74.540 C 325.029 76.904,324.250 78.617,321.768 79.536 C 320.644 79.952,320.594 81.237,321.649 82.593 C 322.010 83.058,322.481 83.930,322.696 84.531 C 323.775 87.558,327.264 84.104,326.693 80.576 C 326.462 79.149,328.240 76.574,328.960 77.293 C 330.164 78.497,333.750 75.351,333.750 73.091 C 333.750 70.080,334.557 69.557,336.383 71.383 C 337.169 72.169,338.061 72.730,338.365 72.628 C 339.190 72.353,338.229 76.422,337.334 76.991 C 336.910 77.260,336.808 77.485,337.108 77.490 C 337.408 77.496,337.390 77.852,337.069 78.281 C 336.748 78.711,336.538 79.414,336.602 79.844 C 336.666 80.273,336.754 80.853,336.797 81.132 C 336.988 82.371,339.551 84.477,339.994 83.759 C 340.321 83.231,340.559 83.303,340.831 84.010 C 341.199 84.968,340.615 85.273,338.864 85.037 C 338.214 84.949,338.192 85.208,338.760 86.268 C 339.819 88.247,340.131 90.625,339.331 90.625 C 338.180 90.625,333.019 96.321,333.361 97.214 C 333.536 97.670,333.344 98.181,332.934 98.348 C 332.523 98.515,332.682 98.674,333.287 98.701 C 333.892 98.728,334.877 98.150,335.475 97.417 C 336.073 96.684,338.597 93.979,341.084 91.405 C 343.571 88.831,345.467 86.499,345.296 86.223 C 345.001 85.746,348.171 83.125,349.043 83.125 C 349.270 83.125,350.154 82.295,351.007 81.281 C 351.930 80.184,352.930 79.579,353.475 79.788 C 353.979 79.982,354.809 79.793,355.320 79.369 C 356.672 78.247,360.352 79.760,359.314 81.011 C 358.926 81.478,358.378 81.719,358.097 81.545 C 357.005 80.870,357.043 82.305,358.180 84.641 C 358.835 85.987,359.231 87.228,359.060 87.398 C 358.890 87.569,358.738 87.451,358.723 87.135 C 358.692 86.497,357.135 90.455,356.183 93.594 C 355.612 95.473,354.375 96.435,354.375 95.000 C 354.375 94.656,354.120 94.375,353.809 94.375 C 353.497 94.375,353.384 94.918,353.558 95.583 C 353.814 96.564,353.623 96.725,352.537 96.441 C 351.802 96.249,351.342 95.949,351.516 95.776 C 351.689 95.603,351.562 94.958,351.233 94.343 C 350.904 93.729,350.844 93.109,351.099 92.965 C 351.354 92.822,351.211 92.791,350.781 92.895 C 349.643 93.173,349.823 92.077,350.989 91.629 C 352.432 91.076,352.500 91.120,352.500 92.604 C 352.500 93.349,352.667 93.791,352.872 93.586 C 353.077 93.382,353.058 92.369,352.831 91.335 C 352.425 89.485,352.400 89.475,351.223 90.652 C 350.478 91.397,349.620 91.690,348.942 91.430 C 348.090 91.103,348.154 91.334,349.240 92.499 C 350.002 93.317,350.616 94.565,350.606 95.274 C 350.586 96.637,349.121 94.944,349.079 93.509 C 349.046 92.388,346.374 91.899,345.975 92.941 C 345.766 93.484,345.432 93.765,345.232 93.565 C 345.031 93.365,344.124 93.903,343.215 94.761 C 338.823 98.908,337.500 100.291,337.500 100.735 C 337.500 101.001,336.664 101.650,335.643 102.178 C 333.662 103.203,331.721 105.040,330.154 107.376 C 328.857 109.309,330.035 110.720,331.704 109.233 C 332.735 108.315,345.812 101.766,346.533 101.807 C 346.711 101.817,347.976 101.431,349.343 100.949 C 351.906 100.045,354.885 100.797,356.022 102.636 C 356.274 103.045,356.154 103.139,355.722 102.872 C 355.304 102.614,355.000 102.805,355.000 103.324 C 355.000 104.585,353.484 105.734,352.766 105.016 C 352.411 104.661,352.210 105.191,352.246 106.387 C 352.287 107.757,352.690 108.480,353.599 108.816 C 354.311 109.080,355.149 109.753,355.462 110.312 C 356.386 111.963,359.130 110.891,359.998 108.539 C 361.087 105.590,361.638 104.676,362.256 104.793 C 362.562 104.851,363.332 104.078,363.968 103.074 C 365.015 101.420,366.395 100.563,366.151 101.719 C 366.096 101.977,366.254 102.647,366.502 103.208 C 366.754 103.779,366.480 105.295,365.880 106.646 C 365.291 107.975,364.870 109.442,364.946 109.906 C 365.022 110.371,364.807 110.580,364.469 110.371 C 363.680 109.883,365.062 113.797,366.049 114.844 C 366.454 115.273,367.087 115.625,367.455 115.625 C 367.824 115.625,368.125 115.873,368.125 116.177 C 368.125 116.481,368.688 116.876,369.375 117.056 C 370.062 117.236,370.625 117.848,370.625 118.416 C 370.625 118.984,370.880 119.291,371.192 119.099 C 371.503 118.906,371.629 119.241,371.471 119.843 C 371.302 120.488,369.980 121.322,368.248 121.875 C 365.647 122.706,365.303 123.026,365.233 124.688 C 365.124 127.253,364.562 129.334,363.697 130.376 C 362.860 131.385,363.923 133.125,365.377 133.125 C 368.037 133.125,374.350 136.529,374.966 138.296 C 375.542 139.948,375.487 140.110,374.436 139.835 C 373.791 139.666,372.881 139.780,372.413 140.088 C 370.686 141.224,374.482 143.413,380.972 145.022 L 387.188 146.563 391.773 151.348 C 396.284 156.054,397.935 157.140,399.302 156.295 C 399.800 155.987,399.950 134.304,399.840 78.091 L 399.688 0.313 325.938 0.205 C 253.645 0.099,247.779 0.184,248.487 1.330 C 248.679 1.641,249.098 1.734,249.418 1.536 C 249.738 1.338,250.000 1.441,250.000 1.765 C 250.000 2.089,249.417 2.507,248.704 2.693 C 247.991 2.880,247.256 3.612,247.070 4.322 C 246.885 5.031,246.440 5.430,246.082 5.209 C 245.705 4.975,245.619 5.109,245.878 5.528 C 246.560 6.633,247.500 6.387,247.500 5.104 C 247.500 4.474,247.668 3.790,247.874 3.585 C 248.367 3.091,250.000 3.735,250.000 4.422 C 250.000 4.718,249.578 4.799,249.063 4.601 C 248.431 4.359,248.125 4.630,248.125 5.433 C 248.125 6.089,247.773 7.004,247.344 7.467 C 246.710 8.150,246.739 8.223,247.500 7.857 C 248.016 7.608,247.774 7.989,246.962 8.702 C 246.150 9.416,245.729 10.009,246.025 10.019 C 246.320 10.029,246.070 10.325,245.469 10.675 C 244.867 11.025,244.375 11.619,244.375 11.993 C 244.375 12.368,243.883 13.080,243.281 13.576 C 242.250 14.425,242.256 14.455,243.370 14.099 C 244.291 13.805,244.402 13.902,243.874 14.538 C 242.282 16.457,247.268 17.822,251.710 16.683 C 252.680 16.435,253.376 16.709,253.987 17.581 C 254.642 18.517,254.961 18.627,255.235 18.013 C 255.437 17.559,255.521 17.750,255.421 18.438 C 255.320 19.125,254.933 19.627,254.560 19.553 C 251.850 19.017,249.422 19.047,248.648 19.628 C 247.593 20.419,246.700 22.466,247.363 22.571 C 249.952 22.982,251.281 22.956,251.569 22.489 C 251.759 22.181,252.328 22.088,252.833 22.282 C 253.363 22.485,253.750 22.274,253.750 21.780 C 253.750 20.424,256.179 19.163,257.184 19.997 C 257.828 20.532,258.116 20.389,258.438 19.375 C 258.711 18.512,259.106 18.244,259.584 18.597 C 259.985 18.893,260.968 19.086,261.770 19.025 C 262.739 18.952,263.441 19.385,263.866 20.317 C 264.277 21.219,265.055 21.719,266.049 21.719 C 267.955 21.719,269.039 22.720,268.540 24.020 C 268.118 25.121,266.875 25.358,266.875 24.338 C 266.875 23.974,267.156 23.850,267.500 24.062 C 267.844 24.275,268.125 23.980,268.125 23.408 C 268.125 22.715,267.794 22.493,267.136 22.746 C 266.593 22.954,266.014 23.125,265.849 23.125 C 265.685 23.125,265.713 23.387,265.911 23.707 C 266.109 24.027,265.997 24.458,265.662 24.664 C 265.328 24.871,265.202 25.424,265.382 25.894 C 265.563 26.364,265.366 26.961,264.946 27.221 C 264.414 27.549,264.339 27.426,264.698 26.815 C 264.995 26.311,264.676 26.409,263.947 27.047 C 262.506 28.308,261.098 27.331,260.922 24.948 C 260.816 23.501,260.165 22.752,259.549 23.367 C 259.301 23.615,259.439 24.028,259.854 24.285 C 260.884 24.922,259.817 28.558,258.142 30.119 C 256.504 31.644,256.524 31.049,258.186 28.802 C 258.907 27.827,259.361 26.502,259.196 25.858 C 258.951 24.904,258.882 24.955,258.823 26.131 C 258.780 26.982,258.477 27.405,258.083 27.162 C 257.688 26.917,257.497 27.194,257.614 27.841 C 257.916 29.504,256.419 29.646,255.906 28.003 C 255.300 26.062,254.383 25.577,252.859 26.392 C 251.439 27.152,250.000 28.474,250.000 29.018 C 250.000 30.004,253.108 29.192,254.015 27.969 C 254.589 27.195,254.888 26.914,254.680 27.344 C 254.471 27.773,254.538 28.125,254.827 28.125 C 255.116 28.125,255.382 28.898,255.419 29.844 C 255.456 30.789,255.356 31.070,255.197 30.469 C 254.664 28.447,251.977 30.090,251.875 32.500 C 251.818 33.858,248.951 35.830,248.378 34.904 C 248.122 34.490,248.204 34.350,248.570 34.576 C 249.341 35.053,250.941 33.340,251.531 31.406 C 252.009 29.838,250.802 29.448,249.500 30.750 C 248.917 31.333,248.750 31.333,248.750 30.750 C 248.750 30.337,249.048 30.000,249.412 30.000 C 249.776 30.000,249.899 29.718,249.686 29.373 C 249.473 29.028,248.632 28.913,247.817 29.117 C 246.777 29.378,246.010 29.109,245.244 28.214 C 244.643 27.513,243.918 27.084,243.631 27.261 C 243.345 27.438,242.937 26.716,242.725 25.657 C 242.384 23.949,242.252 23.850,241.569 24.785 C 240.425 26.349,238.634 26.359,236.987 24.811 C 236.183 24.055,234.493 23.147,233.232 22.792 C 231.970 22.438,230.938 21.828,230.938 21.438 C 230.938 19.807,230.110 20.100,229.323 22.011 C 228.293 24.512,226.037 26.875,224.679 26.875 C 224.127 26.875,223.842 26.607,224.044 26.280 C 224.744 25.147,220.091 21.022,219.069 21.870 C 218.323 22.489,217.978 22.235,217.117 20.429 C 215.482 16.999,212.216 16.876,210.415 20.177 C 209.812 21.283,208.417 22.609,207.315 23.125 C 206.214 23.641,205.038 24.687,204.703 25.451 C 203.218 28.836,196.810 29.051,194.620 25.791 C 193.457 24.058,193.152 23.902,192.492 24.697 C 191.506 25.885,190.234 25.886,189.778 24.698 C 189.523 24.034,188.886 23.879,187.524 24.151 C 186.219 24.412,185.625 24.287,185.625 23.750 C 185.625 23.228,185.045 23.085,183.875 23.319 C 182.600 23.574,181.932 23.361,181.415 22.533 C 180.806 21.557,180.293 21.473,177.784 21.942 C 176.176 22.242,174.617 22.337,174.319 22.153 C 174.021 21.969,172.988 22.401,172.025 23.113 C 170.164 24.489,168.734 24.507,166.327 23.186 C 165.201 22.568,164.731 22.549,164.387 23.106 C 163.803 24.050,159.472 23.324,157.994 22.034 C 157.021 21.186,156.828 21.305,155.847 23.363 C 155.254 24.607,154.610 25.625,154.415 25.625 C 153.385 25.627,153.979 28.927,155.061 29.210 C 155.715 29.381,156.250 29.782,156.250 30.101 C 156.250 30.421,157.375 30.552,158.750 30.395 C 160.125 30.237,161.250 30.364,161.250 30.679 C 161.250 31.195,159.285 31.555,157.883 31.295 C 157.578 31.239,156.105 31.768,154.609 32.471 C 153.113 33.175,151.511 33.750,151.050 33.750 C 150.589 33.750,149.255 35.086,148.086 36.719 C 145.477 40.363,143.149 42.589,142.420 42.138 C 141.848 41.785,143.716 38.804,144.531 38.770 C 144.789 38.759,145.000 38.391,145.000 37.951 C 145.000 37.512,145.516 36.711,146.148 36.170 C 148.631 34.044,147.645 26.784,145.056 28.132 C 144.510 28.417,142.829 29.250,141.322 29.984 C 139.815 30.718,137.225 32.461,135.568 33.859 C 133.166 35.884,132.233 36.318,130.965 36.000 C 130.090 35.781,129.375 35.869,129.375 36.196 C 129.375 37.172,127.343 37.497,124.844 36.922 C 122.811 36.453,122.500 36.529,122.500 37.494 C 122.500 39.268,119.596 40.806,117.122 40.341 C 115.955 40.123,115.000 39.579,115.000 39.135 C 115.000 37.708,112.204 36.839,111.451 38.032 C 110.745 39.151,113.851 41.647,115.038 40.914 C 115.361 40.715,115.625 40.849,115.625 41.213 C 115.625 41.577,115.203 41.875,114.688 41.875 C 113.594 41.875,113.481 43.037,114.444 44.375 C 115.009 45.161,115.060 45.132,114.757 44.195 C 114.538 43.517,114.765 42.936,115.335 42.717 C 116.440 42.293,119.927 45.992,119.725 47.373 C 119.561 48.486,114.680 50.226,112.973 49.779 C 112.134 49.560,111.643 49.816,111.444 50.577 C 111.244 51.341,110.099 51.934,107.854 52.436 C 106.042 52.842,104.025 53.663,103.373 54.262 C 102.721 54.861,101.114 56.163,99.803 57.156 L 97.418 58.961 96.001 57.433 C 94.398 55.704,94.159 53.967,95.456 53.469 C 95.936 53.285,96.154 52.851,95.940 52.504 C 95.726 52.158,95.849 51.875,96.213 51.875 C 96.577 51.875,96.875 51.575,96.875 51.208 C 96.875 50.841,96.383 50.687,95.781 50.866 C 92.417 51.865,91.085 52.023,91.486 51.374 C 91.752 50.943,91.445 50.780,90.655 50.932 C 88.086 51.427,90.473 44.247,93.117 43.527 C 93.690 43.371,93.536 43.241,92.727 43.198 C 91.215 43.115,90.284 39.668,91.400 38.281 C 91.824 37.753,91.805 37.231,91.340 36.671 C 90.837 36.065,90.854 35.306,91.403 33.853 C 92.279 31.531,93.353 31.574,93.634 33.940 C 93.831 35.603,96.022 37.600,98.490 38.365 C 99.206 38.587,99.828 39.116,99.872 39.540 C 100.708 47.570,101.458 49.565,102.361 46.162 C 102.669 44.999,102.679 43.903,102.382 43.704 C 102.087 43.507,101.736 42.804,101.602 42.142 C 101.467 41.479,101.163 40.445,100.924 39.844 C 100.669 39.200,100.776 38.750,101.183 38.750 C 101.564 38.750,101.875 38.211,101.875 37.552 C 101.875 36.893,102.133 36.260,102.448 36.146 C 102.763 36.031,103.127 34.813,103.257 33.438 C 103.446 31.426,103.762 30.898,104.871 30.738 C 105.630 30.628,106.250 30.260,106.250 29.920 C 106.250 29.580,106.508 29.461,106.824 29.656 C 107.140 29.851,107.588 29.148,107.820 28.093 C 108.088 26.870,108.786 25.968,109.745 25.603 C 110.659 25.255,111.250 24.528,111.250 23.750 C 111.250 23.002,111.835 22.239,112.656 21.917 C 114.827 21.064,116.443 18.730,117.006 15.632 C 117.288 14.081,117.602 12.391,117.702 11.875 C 117.803 11.359,118.118 9.250,118.402 7.188 C 118.686 5.125,119.303 2.883,119.772 2.205 C 120.241 1.527,120.625 0.753,120.625 0.486 C 120.625 -0.109,1.004 -0.171,0.410 0.423 M125.781 0.781 C 125.924 1.211,126.417 1.563,126.875 1.563 C 127.333 1.563,127.826 1.211,127.969 0.781 C 128.124 0.317,127.681 0.000,126.875 0.000 C 126.069 0.000,125.626 0.317,125.781 0.781 M128.750 0.548 C 128.750 1.348,130.588 2.746,131.042 2.292 C 131.496 1.838,130.098 0.000,129.298 0.000 C 128.997 0.000,128.750 0.247,128.750 0.548 M134.590 1.558 C 135.396 3.296,136.250 3.620,136.250 2.188 C 136.250 0.933,139.298 0.947,139.780 2.203 C 140.056 2.923,140.351 2.986,140.983 2.462 C 141.444 2.080,142.162 1.978,142.579 2.236 C 143.109 2.564,143.211 2.376,142.919 1.614 C 142.688 1.014,142.500 0.405,142.500 0.261 C 142.500 0.118,140.558 0.000,138.184 0.000 L 133.868 0.000 134.590 1.558 M254.063 11.707 C 253.375 11.879,252.606 12.339,252.353 12.729 C 252.043 13.208,251.891 13.219,251.885 12.760 C 251.870 11.722,252.578 11.243,254.010 11.323 C 255.270 11.393,255.272 11.405,254.063 11.707 M150.619 24.681 C 151.044 25.192,151.646 25.454,151.956 25.262 C 152.754 24.769,151.991 23.750,150.824 23.750 C 150.030 23.750,149.991 23.924,150.619 24.681 M150.167 28.180 C 149.257 28.520,148.899 29.037,149.140 29.664 C 149.587 30.829,150.063 30.867,151.431 29.844 C 152.885 28.758,151.941 27.516,150.167 28.180 M165.261 28.504 C 166.723 29.065,166.464 29.949,164.635 30.645 C 162.732 31.369,161.195 30.743,162.745 29.875 C 163.312 29.558,163.613 29.034,163.414 28.712 C 162.999 28.041,163.815 27.949,165.261 28.504 M170.357 29.018 C 171.523 30.184,171.485 30.418,170.069 30.788 C 168.205 31.275,167.079 30.323,168.085 29.110 C 169.087 27.903,169.236 27.897,170.357 29.018 M231.502 31.006 C 231.710 31.546,231.721 32.244,231.528 32.556 C 231.334 32.869,231.765 33.125,232.485 33.125 C 233.624 33.125,233.702 32.953,233.086 31.803 C 232.522 30.748,232.549 30.538,233.221 30.764 C 233.684 30.920,234.068 31.723,234.075 32.549 C 234.083 33.572,234.480 34.098,235.325 34.201 C 236.005 34.285,236.211 34.194,235.781 33.999 C 235.352 33.805,235.028 32.896,235.062 31.979 L 235.125 30.313 235.553 31.847 C 235.901 33.095,236.429 33.411,238.376 33.535 C 239.694 33.619,240.950 33.881,241.167 34.117 C 241.385 34.353,240.789 34.406,239.844 34.235 C 237.963 33.894,237.708 34.275,238.906 35.640 C 239.388 36.189,239.209 36.148,238.438 35.534 C 237.750 34.986,236.808 34.675,236.345 34.842 C 235.881 35.009,234.897 34.852,234.157 34.493 C 233.418 34.134,231.819 33.678,230.605 33.480 C 228.880 33.198,228.371 32.808,228.279 31.695 C 228.137 29.975,230.882 29.389,231.502 31.006 M227.041 31.719 C 226.701 32.605,224.621 32.778,224.116 31.962 C 223.640 31.191,224.059 30.938,225.806 30.938 C 226.777 30.938,227.231 31.224,227.041 31.719 M70.498 39.480 C 70.666 42.672,70.893 43.181,72.797 44.633 C 74.855 46.203,75.352 48.538,74.070 50.612 C 73.325 51.818,71.875 50.447,71.864 48.527 C 71.857 47.082,71.216 45.934,69.442 44.186 C 65.637 40.437,65.405 35.310,69.063 35.778 C 70.121 35.913,70.341 36.481,70.498 39.480 M79.224 36.406 C 79.256 36.836,79.443 37.929,79.640 38.836 C 79.843 39.769,79.594 41.260,79.066 42.273 C 77.452 45.368,77.839 48.999,80.000 51.039 C 81.921 52.852,82.488 54.943,81.094 55.072 C 80.321 55.143,79.652 55.277,78.438 55.602 C 77.031 55.978,75.882 55.944,74.906 55.496 C 73.066 54.652,72.396 58.392,74.157 59.679 C 74.975 60.278,75.020 60.539,74.373 60.939 C 73.834 61.272,73.708 61.199,74.003 60.722 C 74.265 60.298,74.059 60.000,73.503 60.000 C 72.157 60.000,71.540 55.655,72.526 53.125 C 72.593 52.953,72.615 52.602,72.574 52.344 C 72.459 51.618,73.415 51.790,74.276 52.651 C 75.112 53.487,76.495 52.152,75.859 51.124 C 75.690 50.849,75.824 50.625,76.158 50.625 C 76.853 50.625,76.775 49.459,75.996 48.211 C 75.683 47.710,75.734 47.194,76.121 46.955 C 76.498 46.722,76.735 44.599,76.680 41.967 C 76.598 38.097,76.769 37.248,77.786 36.505 C 79.239 35.442,79.154 35.448,79.224 36.406 M93.477 40.816 C 93.701 41.399,94.135 41.875,94.442 41.875 C 95.375 41.875,95.068 43.057,93.808 44.317 C 92.635 45.490,92.637 45.515,93.937 45.855 C 95.580 46.285,95.514 46.365,95.824 43.551 C 95.966 42.263,95.932 41.360,95.748 41.544 C 95.564 41.727,94.887 41.401,94.243 40.818 C 93.143 39.822,93.096 39.822,93.477 40.816 M130.432 41.277 C 132.726 42.076,133.330 47.500,131.125 47.500 C 130.506 47.500,130.000 47.781,130.000 48.125 C 130.000 48.889,129.347 48.911,128.202 48.186 C 127.729 47.886,127.271 46.555,127.185 45.227 C 127.098 43.899,126.959 42.531,126.877 42.188 C 126.458 40.443,127.370 40.209,130.432 41.277 M137.756 41.784 C 138.020 42.211,135.639 43.750,134.713 43.750 C 134.534 43.750,134.683 42.285,134.952 41.406 C 135.078 40.994,137.467 41.316,137.756 41.784 M292.000 47.625 C 291.417 48.208,291.076 48.188,290.469 47.533 C 289.844 46.860,289.844 46.780,290.469 47.133 C 290.965 47.413,291.250 47.172,291.250 46.474 C 291.250 45.619,291.417 45.542,292.000 46.125 C 292.583 46.708,292.583 47.042,292.000 47.625 M65.987 51.142 C 66.684 52.732,66.647 56.296,65.936 56.023 C 65.592 55.891,65.310 56.635,65.311 57.676 C 65.312 58.717,64.961 59.689,64.531 59.836 C 64.043 60.004,63.750 59.518,63.750 58.542 C 63.750 57.682,63.428 56.872,63.035 56.741 C 62.503 56.563,62.514 55.913,63.079 54.201 C 63.497 52.935,63.662 51.613,63.445 51.262 C 62.871 50.334,63.648 49.375,64.659 49.763 C 65.137 49.947,65.735 50.567,65.987 51.142 M60.566 54.531 C 61.282 55.467,61.257 55.625,60.389 55.625 C 59.766 55.625,59.375 55.103,59.375 54.271 C 59.375 53.526,59.455 53.034,59.552 53.177 C 59.649 53.320,60.105 53.930,60.566 54.531 M97.226 55.700 C 98.289 57.755,99.120 57.775,98.471 55.730 C 98.254 55.048,97.663 54.331,97.156 54.137 C 96.371 53.836,96.381 54.066,97.226 55.700 M302.231 56.804 C 302.043 57.109,302.308 57.706,302.819 58.131 C 303.465 58.667,303.750 58.689,303.750 58.202 C 303.750 57.389,305.396 57.249,305.874 58.022 C 306.051 58.309,305.205 59.017,303.992 59.595 C 302.780 60.173,301.965 60.360,302.181 60.011 C 302.397 59.661,302.309 59.375,301.985 59.375 C 301.099 59.375,300.650 56.979,301.473 56.642 C 302.556 56.197,302.600 56.207,302.231 56.804 M92.091 57.656 C 92.769 58.361,92.839 58.772,92.578 60.526 C 92.491 61.111,82.682 65.617,80.936 65.873 C 80.326 65.963,79.458 66.541,79.006 67.159 C 78.536 67.802,77.771 68.123,77.218 67.911 C 76.685 67.706,76.250 67.780,76.250 68.073 C 76.250 68.367,75.336 69.085,74.219 69.668 C 73.102 70.251,71.419 71.139,70.481 71.642 C 63.994 75.118,57.136 87.317,57.788 94.221 C 58.314 99.802,58.790 101.292,60.950 104.122 C 64.504 108.778,64.409 109.658,59.892 113.850 C 57.729 115.858,55.603 117.500,55.168 117.500 C 54.732 117.500,54.375 117.740,54.375 118.034 C 54.375 118.327,53.612 119.382,52.680 120.377 C 51.747 121.373,50.922 122.581,50.847 123.061 C 50.771 123.541,50.233 124.385,49.652 124.936 C 48.752 125.789,48.766 125.659,49.742 124.063 C 50.875 122.210,50.874 122.199,49.663 123.186 C 48.989 123.736,47.875 124.369,47.188 124.594 C 46.032 124.972,46.020 124.939,47.022 124.158 C 47.618 123.694,47.922 123.131,47.699 122.907 C 47.475 122.683,47.636 122.500,48.058 122.500 C 48.479 122.500,48.650 122.219,48.438 121.875 C 48.225 121.531,48.366 121.250,48.750 121.250 C 49.134 121.250,49.285 120.986,49.086 120.662 C 48.886 120.339,49.344 119.495,50.104 118.787 C 50.864 118.079,51.222 117.496,50.899 117.490 C 50.576 117.485,50.734 117.204,51.250 116.865 C 52.018 116.361,52.037 116.153,51.353 115.711 C 50.894 115.415,50.518 115.000,50.517 114.788 C 50.506 111.860,49.496 111.390,47.796 113.522 C 46.410 115.260,43.092 114.726,44.165 112.937 C 44.478 112.417,44.314 112.431,43.630 112.985 C 42.513 113.890,41.875 112.935,41.875 110.358 C 41.875 109.580,41.313 108.435,40.625 107.813 C 39.938 107.190,39.375 106.162,39.375 105.528 C 39.375 104.894,39.113 104.375,38.792 104.375 C 38.472 104.375,38.031 103.813,37.813 103.126 C 37.595 102.440,36.803 101.724,36.052 101.535 C 35.189 101.319,34.669 100.686,34.638 99.815 C 34.611 99.057,34.507 98.156,34.408 97.813 C 33.906 96.078,34.491 91.848,35.352 90.987 C 35.890 90.449,36.165 89.743,35.964 89.418 C 35.763 89.092,36.149 88.867,36.823 88.918 C 37.496 88.969,38.179 89.514,38.340 90.130 C 38.805 91.908,40.868 91.442,43.761 88.906 C 46.348 86.638,49.375 85.738,49.375 87.237 C 49.375 88.637,52.557 88.056,53.130 86.550 C 53.426 85.770,54.012 85.017,54.431 84.877 C 54.850 84.738,55.235 83.653,55.287 82.468 C 55.339 81.282,55.870 79.390,56.466 78.263 C 57.063 77.136,57.382 75.940,57.176 75.607 C 56.970 75.273,57.220 75.000,57.732 75.000 C 58.462 75.000,58.551 74.609,58.143 73.186 C 57.689 71.604,57.801 71.338,59.020 71.105 C 59.899 70.937,60.417 71.146,60.417 71.669 C 60.417 72.126,60.042 72.500,59.583 72.500 C 59.125 72.500,58.750 72.798,58.750 73.162 C 58.750 73.526,59.005 73.666,59.317 73.474 C 59.628 73.281,59.728 73.718,59.538 74.445 C 59.232 75.614,59.340 75.687,60.477 75.079 C 61.348 74.613,61.656 73.985,61.433 73.133 C 61.223 72.328,61.412 71.872,61.958 71.865 C 62.625 71.858,62.607 71.723,61.875 71.250 C 61.359 70.917,61.258 70.640,61.649 70.635 C 62.041 70.629,62.322 70.163,62.274 69.599 C 62.227 69.034,62.609 68.450,63.125 68.301 C 63.958 68.060,63.958 68.104,63.125 68.693 C 62.081 69.431,62.502 69.575,64.011 68.996 C 64.555 68.787,65.000 68.224,65.000 67.746 C 65.000 67.267,65.281 66.875,65.625 66.875 C 65.969 66.875,66.250 66.478,66.250 65.993 C 66.250 65.508,66.708 65.178,67.267 65.260 C 67.826 65.342,69.155 64.614,70.219 63.642 C 72.200 61.832,74.992 61.258,75.010 62.656 C 75.017 63.233,75.160 63.216,75.555 62.592 C 75.956 61.960,76.401 61.912,77.316 62.401 C 77.989 62.762,79.572 62.929,80.833 62.772 C 82.404 62.578,83.131 62.736,83.145 63.275 C 83.156 63.708,83.743 63.288,84.449 62.341 C 85.156 61.393,85.977 60.769,86.273 60.952 C 86.570 61.135,87.122 60.707,87.500 60.000 C 87.878 59.293,88.498 58.907,88.878 59.142 C 89.281 59.390,89.392 59.283,89.146 58.885 C 88.914 58.509,89.222 57.912,89.831 57.557 C 91.243 56.735,91.203 56.733,92.091 57.656 M64.375 61.581 C 64.375 62.075,63.896 62.258,63.125 62.056 C 61.826 61.716,61.378 60.625,62.537 60.625 C 62.901 60.625,62.988 60.273,62.729 59.844 C 62.410 59.313,62.599 59.337,63.318 59.920 C 63.899 60.392,64.375 61.139,64.375 61.581 M296.368 62.862 C 294.954 63.853,295.184 66.553,296.635 65.996 C 297.264 65.755,297.335 65.947,296.911 66.742 C 296.053 68.354,295.413 70.250,295.537 70.815 C 295.649 71.326,294.924 72.132,292.966 73.670 C 291.322 74.963,291.643 73.497,293.482 71.311 C 294.366 70.260,294.927 69.138,294.728 68.816 C 294.530 68.495,294.715 68.116,295.140 67.974 C 295.742 67.773,295.750 67.383,295.176 66.202 L 294.439 64.688 294.563 66.250 C 294.655 67.397,294.396 67.789,293.591 67.725 C 292.988 67.677,291.829 68.429,291.015 69.397 C 289.536 71.154,289.535 71.154,288.882 69.796 C 287.808 67.561,287.557 65.626,288.340 65.615 C 288.775 65.610,288.713 65.385,288.185 65.051 C 287.558 64.653,287.780 64.523,288.966 64.591 C 290.756 64.695,290.985 65.015,289.985 66.015 C 289.110 66.890,288.685 69.375,289.411 69.375 C 289.735 69.375,290.000 68.672,290.000 67.813 C 290.000 66.953,290.248 66.250,290.552 66.250 C 291.194 66.250,291.877 63.282,291.315 62.937 C 291.108 62.809,291.300 62.795,291.742 62.904 C 292.185 63.014,292.707 62.688,292.902 62.181 C 293.097 61.673,293.488 61.401,293.772 61.576 C 294.056 61.752,294.466 61.609,294.682 61.259 C 294.947 60.830,295.493 60.845,296.349 61.303 C 297.622 61.984,297.622 61.985,296.368 62.862 M299.431 64.965 C 298.308 65.660,299.581 66.371,300.984 65.833 C 301.791 65.523,301.945 65.631,301.568 66.240 C 301.228 66.791,301.298 66.919,301.778 66.622 C 302.756 66.018,302.692 65.772,301.373 65.066 C 300.752 64.734,299.879 64.689,299.431 64.965 M59.838 69.658 C 58.884 70.693,58.464 70.396,58.981 69.050 C 59.193 68.498,59.647 68.219,59.989 68.431 C 60.385 68.676,60.330 69.123,59.838 69.658 M28.572 79.947 C 29.364 81.215,26.928 83.618,25.651 82.828 C 25.340 82.637,24.907 82.770,24.688 83.125 C 24.468 83.480,24.059 83.628,23.778 83.455 C 23.497 83.281,22.919 83.558,22.494 84.069 C 21.461 85.314,18.125 85.309,18.125 84.063 C 18.125 83.547,18.671 83.125,19.338 83.125 C 20.005 83.125,20.728 82.839,20.944 82.490 C 21.160 82.140,21.611 82.024,21.946 82.231 C 22.698 82.696,24.481 81.303,24.042 80.593 C 23.668 79.987,25.521 78.796,26.881 78.769 C 27.400 78.759,28.161 79.288,28.572 79.947 M365.901 88.542 C 364.835 89.321,364.860 89.378,366.287 89.419 C 367.688 89.459,367.710 89.504,366.563 89.973 C 365.875 90.254,365.092 90.281,364.823 90.034 C 364.071 89.342,364.931 87.708,366.047 87.708 C 366.882 87.708,366.858 87.842,365.901 88.542 M321.686 89.219 C 321.032 90.383,320.604 93.413,321.221 92.500 C 322.117 91.177,322.122 93.370,321.228 95.041 C 320.782 95.874,320.782 96.250,321.228 96.250 C 321.584 96.250,321.875 96.548,321.875 96.912 C 321.875 97.276,321.623 97.418,321.315 97.228 C 319.906 96.357,320.101 99.021,321.553 100.473 C 322.418 101.338,323.125 102.323,323.125 102.662 C 323.125 103.001,323.557 102.919,324.086 102.481 C 324.614 102.042,324.967 101.219,324.871 100.651 C 324.775 100.084,325.197 98.855,325.809 97.921 C 326.627 96.673,326.755 95.936,326.292 95.143 C 325.946 94.549,325.654 94.315,325.644 94.623 C 325.634 94.931,324.940 94.443,324.102 93.539 C 323.058 92.413,322.669 91.401,322.864 90.323 C 323.126 88.881,322.306 88.113,321.686 89.219 M365.974 92.207 C 364.950 92.982,364.921 93.125,365.787 93.125 C 366.351 93.125,367.100 92.633,367.450 92.031 C 368.057 90.990,368.088 90.990,368.106 92.031 C 368.116 92.633,367.905 93.125,367.637 93.125 C 367.369 93.125,366.831 93.969,366.441 95.000 C 366.052 96.031,365.458 96.875,365.121 96.875 C 364.316 96.875,363.568 94.891,364.198 94.425 C 364.467 94.226,364.716 93.711,364.750 93.281 C 364.894 91.487,365.051 91.251,366.094 91.270 C 367.083 91.288,367.072 91.377,365.974 92.207 M32.094 94.041 C 32.730 94.523,33.112 95.146,32.942 95.427 C 32.773 95.708,32.447 97.344,32.218 99.063 C 31.990 100.781,31.538 102.455,31.214 102.781 C 30.890 103.108,30.625 104.248,30.625 105.315 C 30.625 106.382,29.846 108.506,28.894 110.034 C 27.943 111.562,26.824 113.586,26.408 114.531 C 25.963 115.542,25.160 116.250,24.459 116.250 C 23.104 116.250,22.702 117.745,22.197 124.654 C 22.022 127.042,21.626 129.249,21.317 129.558 C 21.008 129.867,20.902 131.742,21.081 133.725 C 21.272 135.829,21.147 137.490,20.781 137.716 C 19.939 138.237,18.754 126.316,19.500 124.833 C 19.875 124.087,19.742 123.281,19.090 122.350 C 18.196 121.073,17.744 121.516,18.073 123.347 C 18.216 124.145,16.807 125.657,16.245 125.309 C 15.976 125.143,15.598 125.418,15.405 125.921 C 15.212 126.424,15.300 126.986,15.599 127.171 C 15.898 127.356,16.270 127.154,16.426 126.723 C 16.582 126.291,16.696 127.203,16.680 128.750 C 16.665 130.297,16.350 131.769,15.982 132.022 C 14.527 133.020,14.061 132.411,14.269 129.787 C 14.418 127.915,14.178 126.767,13.495 126.084 C 11.800 124.390,11.162 121.785,10.856 115.313 C 10.694 111.875,10.441 108.705,10.295 108.268 C 9.911 107.120,12.566 101.940,13.379 102.252 C 13.757 102.396,14.437 101.920,14.891 101.192 C 15.346 100.464,15.415 100.056,15.046 100.284 C 14.648 100.530,14.375 100.157,14.375 99.367 C 14.375 98.153,14.462 98.123,15.363 99.024 C 15.906 99.567,16.659 99.821,17.035 99.589 C 18.252 98.837,21.501 99.148,23.988 100.256 C 25.882 101.099,26.568 101.169,27.113 100.576 C 27.644 100.000,27.598 99.939,26.925 100.323 C 26.257 100.705,26.141 100.561,26.456 99.739 C 26.687 99.139,26.875 98.390,26.875 98.074 C 26.875 97.758,27.201 97.570,27.599 97.656 C 27.997 97.742,28.372 97.087,28.434 96.199 C 28.647 93.125,29.906 92.383,32.094 94.041 M382.500 103.962 C 382.500 104.423,381.779 105.128,380.898 105.529 C 379.628 106.108,379.389 106.096,379.745 105.473 C 381.094 103.116,382.500 102.344,382.500 103.962 M392.794 108.848 C 392.477 110.490,392.363 110.603,390.677 110.928 C 389.513 111.152,389.375 110.986,389.746 109.817 C 390.610 107.094,393.296 106.241,392.794 108.848 M294.375 117.188 C 294.375 117.703,294.128 118.125,293.827 118.125 C 293.525 118.125,292.928 117.703,292.500 117.188 C 291.850 116.404,291.940 116.250,293.048 116.250 C 293.811 116.250,294.375 116.649,294.375 117.188 M72.359 118.893 C 72.752 119.366,72.831 120.089,72.542 120.556 C 72.164 121.169,71.915 121.195,71.581 120.654 C 71.261 120.136,70.903 120.235,70.347 120.996 C 69.046 122.775,67.973 121.482,69.040 119.419 C 69.541 118.451,69.750 117.444,69.506 117.182 C 69.262 116.920,69.648 117.010,70.364 117.381 C 71.080 117.753,71.978 118.433,72.359 118.893 M391.250 123.054 C 392.018 123.128,392.034 123.242,391.339 123.682 C 390.873 123.977,389.607 124.132,388.527 124.024 C 387.446 123.917,386.281 123.808,385.938 123.780 C 385.594 123.753,385.658 123.511,386.081 123.242 C 386.763 122.809,388.173 122.758,391.250 123.054 M7.441 127.188 C 7.419 128.219,7.241 128.641,7.044 128.125 C 6.848 127.609,6.459 127.037,6.180 126.853 C 5.901 126.668,5.841 125.871,6.048 125.081 C 6.549 123.166,7.496 124.598,7.441 127.188 M48.125 128.093 C 48.125 128.770,45.373 131.875,44.772 131.875 C 44.554 131.875,44.384 130.961,44.394 129.844 C 44.410 128.161,44.522 128.000,45.050 128.906 C 45.814 130.217,47.155 130.380,46.664 129.103 C 46.379 128.358,46.729 127.941,47.969 127.549 C 48.055 127.522,48.125 127.767,48.125 128.093 M289.003 130.243 C 288.595 131.305,289.143 132.500,290.037 132.500 C 290.825 132.500,290.791 130.176,289.996 129.685 C 289.649 129.471,289.203 129.722,289.003 130.243 M104.091 134.954 C 103.894 135.272,105.342 135.734,107.309 135.980 C 109.276 136.225,111.741 136.948,112.786 137.586 C 113.832 138.224,115.103 138.746,115.612 138.748 C 118.623 138.755,124.975 142.013,124.853 143.488 C 124.708 145.238,123.955 145.386,122.035 144.042 C 119.214 142.066,101.875 142.908,101.875 145.021 C 101.875 145.394,101.620 145.541,101.309 145.349 C 100.450 144.818,101.307 142.345,102.767 141.136 C 104.310 139.860,101.732 140.181,100.093 141.469 C 98.190 142.965,97.484 142.404,98.852 140.482 C 100.169 138.633,100.174 138.548,99.045 137.722 C 97.518 136.606,98.488 135.598,101.687 134.979 C 102.994 134.726,104.149 134.486,104.256 134.447 C 104.362 134.407,104.288 134.636,104.091 134.954 M100.954 150.489 C 100.572 151.482,100.491 151.474,99.885 150.394 C 99.396 149.523,99.447 149.091,100.084 148.696 C 101.103 148.062,101.542 148.965,100.954 150.489 M133.125 154.310 C 133.125 155.281,133.828 158.292,134.688 160.999 C 136.606 167.043,136.683 169.925,134.976 171.757 C 132.876 174.011,129.896 173.262,130.969 170.751 C 131.219 170.166,131.507 169.266,131.610 168.750 C 132.590 163.825,132.550 162.372,131.305 157.566 C 130.572 154.739,130.136 152.160,130.337 151.836 C 131.062 150.662,133.125 152.492,133.125 154.310 M103.177 156.719 C 103.561 160.171,103.641 160.032,101.348 159.877 C 100.062 159.791,99.048 160.044,98.899 160.490 C 98.760 160.908,98.250 161.250,97.766 161.250 C 97.282 161.250,96.080 162.094,95.094 163.125 C 94.109 164.156,92.995 165.000,92.620 165.000 C 92.244 165.000,91.676 165.467,91.357 166.037 C 90.837 166.967,90.701 166.936,90.061 165.740 C 89.428 164.557,89.597 164.243,91.545 162.984 C 92.836 162.149,93.613 161.211,93.427 160.712 C 93.219 160.152,93.434 159.985,94.055 160.223 C 94.671 160.459,95.003 160.212,95.010 159.512 C 95.017 158.671,95.136 158.622,95.556 159.285 C 95.956 159.915,96.211 159.945,96.548 159.399 C 96.797 158.995,97.395 158.816,97.876 159.000 C 98.357 159.185,98.750 159.072,98.750 158.750 C 98.750 158.428,99.143 158.315,99.624 158.500 C 100.105 158.684,100.711 158.491,100.971 158.071 C 101.292 157.551,101.162 157.452,100.565 157.762 C 100.083 158.013,100.233 157.775,100.901 157.234 C 102.211 156.171,103.094 155.972,103.177 156.719 M86.406 158.247 C 84.961 159.692,83.965 159.469,84.591 157.839 C 84.794 157.309,85.595 156.875,86.369 156.875 L 87.778 156.875 86.406 158.247 M139.544 168.750 C 139.140 170.624,137.616 172.500,136.498 172.500 C 135.866 172.500,135.904 171.986,136.669 170.156 C 137.208 168.867,137.927 167.109,138.268 166.250 C 139.069 164.230,140.088 166.228,139.544 168.750 M147.010 170.740 C 146.413 171.337,146.250 171.272,146.250 170.438 C 146.250 169.853,145.828 169.375,145.313 169.375 C 144.797 169.375,144.375 168.953,144.375 168.438 C 144.375 167.922,144.094 167.500,143.750 167.500 C 143.406 167.500,143.125 167.013,143.125 166.417 C 143.125 165.611,143.721 165.929,145.448 167.656 C 147.272 169.481,147.608 170.142,147.010 170.740 M99.039 168.712 C 99.238 169.034,99.958 169.191,100.638 169.060 C 101.318 168.929,101.875 169.024,101.875 169.271 C 101.875 169.518,103.038 169.610,104.460 169.474 L 107.045 169.228 105.927 170.709 C 105.138 171.756,104.149 172.209,102.561 172.252 L 100.313 172.313 102.656 171.671 C 105.165 170.984,105.809 170.000,103.750 170.000 C 103.063 170.000,102.500 170.281,102.500 170.625 C 102.500 170.969,101.586 171.254,100.469 171.260 C 99.352 171.265,98.016 171.542,97.500 171.875 C 96.716 172.382,96.758 172.482,97.760 172.490 C 98.419 172.496,98.798 172.660,98.603 172.856 C 97.882 173.576,93.125 171.685,93.135 170.682 C 93.143 169.812,93.220 169.805,93.750 170.625 C 94.271 171.432,94.357 171.414,94.365 170.500 C 94.382 168.712,98.148 167.270,99.039 168.712 M102.672 175.478 C 102.321 176.416,102.404 176.450,103.293 175.727 C 103.858 175.268,104.618 175.077,104.983 175.302 C 106.310 176.122,104.855 176.880,102.148 176.777 C 99.424 176.674,98.504 175.920,100.273 175.241 C 100.776 175.048,101.009 174.475,100.803 173.938 C 100.496 173.138,100.654 173.097,101.757 173.687 C 102.653 174.166,102.948 174.744,102.672 175.478 M249.712 174.592 C 249.000 175.113,248.810 175.588,249.215 175.839 C 249.575 176.061,250.037 175.805,250.243 175.269 C 250.452 174.725,250.936 174.494,251.342 174.744 C 251.794 175.023,251.899 174.920,251.622 174.472 C 251.068 173.576,251.106 173.573,249.712 174.592 M245.845 176.760 C 245.483 176.995,244.854 177.820,244.447 178.594 C 244.039 179.367,243.137 180.000,242.441 180.000 C 241.745 180.000,241.348 180.278,241.558 180.618 C 241.777 180.972,241.526 181.077,240.970 180.863 C 240.326 180.616,240.000 180.851,240.000 181.563 C 240.000 182.206,240.337 182.504,240.846 182.309 C 241.311 182.131,242.174 182.549,242.765 183.239 C 243.760 184.401,243.895 184.415,244.608 183.441 C 245.031 182.862,245.919 182.484,246.580 182.600 C 247.433 182.751,247.787 182.449,247.798 181.563 C 247.810 180.539,248.180 180.341,249.844 180.471 C 252.691 180.693,252.509 179.099,249.531 177.737 C 248.242 177.147,247.033 176.590,246.845 176.499 C 246.657 176.407,246.207 176.525,245.845 176.760 M116.875 181.899 C 116.875 182.208,117.227 182.385,117.656 182.291 C 118.086 182.198,117.815 182.398,117.055 182.736 C 115.049 183.626,114.771 185.008,116.207 186.950 C 117.346 188.491,116.981 193.440,115.814 192.273 C 115.654 192.112,114.555 192.386,113.372 192.880 C 110.900 193.913,110.584 193.560,110.803 190.000 C 110.889 188.594,110.673 187.863,110.198 187.955 C 109.694 188.052,109.567 187.428,109.798 186.003 C 109.996 184.781,109.849 183.730,109.444 183.480 C 109.062 183.244,108.750 182.788,108.750 182.467 C 108.750 182.146,109.453 182.495,110.313 183.242 C 111.891 184.614,112.401 186.250,111.250 186.250 C 110.906 186.250,110.625 186.534,110.625 186.880 C 110.625 187.254,111.151 187.190,111.914 186.724 C 113.045 186.034,113.388 186.149,114.697 187.656 C 115.518 188.602,116.335 189.375,116.511 189.375 C 117.173 189.375,114.222 184.998,113.532 184.956 C 113.136 184.932,113.375 184.670,114.063 184.375 C 115.188 183.891,115.149 183.833,113.670 183.794 C 112.164 183.754,110.287 182.419,110.893 181.817 C 111.426 181.288,116.875 181.362,116.875 181.899 M122.500 183.125 C 123.228 183.595,123.045 183.733,121.682 183.740 C 120.669 183.746,120.090 183.486,120.313 183.125 C 120.792 182.349,121.299 182.349,122.500 183.125 M197.873 186.406 C 197.332 188.235,196.250 188.756,196.250 187.188 C 196.250 186.672,195.969 186.250,195.625 186.250 C 195.281 186.250,195.000 186.672,195.000 187.188 C 195.000 188.538,194.046 188.341,193.006 186.775 L 192.110 185.425 190.778 186.855 C 189.838 187.864,188.976 188.194,187.848 187.979 C 185.914 187.609,185.613 189.089,187.500 189.688 C 188.747 190.083,189.258 191.250,188.184 191.250 C 187.872 191.250,187.768 191.828,187.953 192.535 C 188.165 193.344,188.628 193.691,189.203 193.470 C 189.705 193.277,190.863 192.936,191.777 192.711 C 192.690 192.486,194.104 191.870,194.920 191.342 C 196.281 190.460,196.472 190.478,197.263 191.560 C 197.737 192.209,198.125 192.501,198.125 192.210 C 198.125 191.919,198.670 192.174,199.336 192.777 C 201.185 194.450,202.272 193.316,200.563 191.497 C 199.021 189.855,199.312 189.401,200.893 190.982 C 202.391 192.480,204.205 190.557,203.256 188.476 C 202.778 187.427,202.798 186.814,203.330 186.249 C 203.898 185.644,203.852 185.533,203.125 185.757 C 202.609 185.915,202.187 186.577,202.186 187.228 C 202.184 189.542,198.864 189.032,198.602 186.678 L 198.381 184.688 197.873 186.406 M218.875 186.375 C 218.516 186.734,218.389 187.461,218.593 187.991 C 218.835 188.624,218.711 188.800,218.231 188.503 C 217.829 188.255,217.500 188.366,217.500 188.750 C 217.500 189.134,217.182 189.252,216.794 189.012 C 216.361 188.745,216.210 188.912,216.403 189.444 C 216.577 189.922,217.025 190.246,217.399 190.164 C 217.774 190.082,217.943 190.371,217.776 190.807 C 217.609 191.242,217.892 192.153,218.404 192.830 C 219.318 194.040,219.336 194.037,219.355 192.656 C 219.376 191.207,220.256 190.772,220.938 191.875 C 221.542 192.853,223.750 192.607,223.750 191.563 C 223.750 191.047,223.312 190.625,222.776 190.625 C 222.240 190.625,221.962 190.365,222.159 190.047 C 223.153 188.438,220.159 185.091,218.875 186.375 M244.792 187.917 C 244.033 188.676,244.360 189.342,245.313 188.976 C 245.828 188.778,246.250 188.365,246.250 188.058 C 246.250 187.403,245.389 187.319,244.792 187.917 M180.360 189.054 C 179.011 189.534,177.605 189.873,177.235 189.807 C 176.865 189.741,176.650 190.320,176.758 191.094 C 176.981 192.701,176.920 192.724,174.674 191.870 C 173.406 191.388,173.080 191.425,173.282 192.026 C 173.462 192.559,174.938 192.806,177.867 192.792 C 182.378 192.771,183.100 193.139,183.115 195.469 C 183.128 197.353,184.778 197.273,185.142 195.370 C 185.339 194.341,185.183 193.959,184.649 194.164 C 183.871 194.462,182.818 191.460,182.915 189.219 C 182.941 188.617,182.928 188.137,182.887 188.152 C 182.846 188.168,181.709 188.573,180.360 189.054 M211.004 189.114 C 210.477 190.488,210.515 190.625,211.429 190.625 C 211.872 190.625,212.276 190.063,212.328 189.375 C 212.440 187.887,211.543 187.710,211.004 189.114 M205.479 189.104 C 205.263 189.320,205.255 189.938,205.462 190.476 C 205.736 191.190,205.597 191.318,204.950 190.948 C 204.267 190.559,204.228 190.621,204.777 191.217 C 206.080 192.630,207.535 191.788,206.643 190.137 C 206.219 189.352,205.696 188.888,205.479 189.104 M241.250 189.746 C 241.250 190.229,241.813 190.625,242.500 190.625 C 243.188 190.625,243.750 190.377,243.750 190.073 C 243.750 189.769,243.188 189.374,242.500 189.194 C 241.688 188.981,241.250 189.175,241.250 189.746 M226.563 190.000 C 226.775 190.344,226.689 190.625,226.372 190.625 C 225.882 190.625,225.816 191.713,226.170 193.938 C 226.276 194.600,229.375 191.243,229.375 190.467 C 229.375 190.137,228.953 190.028,228.438 190.226 C 227.922 190.424,227.500 190.313,227.500 189.980 C 227.500 189.647,227.202 189.375,226.838 189.375 C 226.474 189.375,226.350 189.656,226.563 190.000 M123.976 190.938 C 123.778 191.453,123.904 191.875,124.256 191.875 C 124.608 191.875,125.038 191.523,125.211 191.094 C 125.399 190.627,125.546 190.753,125.576 191.406 C 125.607 192.100,125.168 192.500,124.375 192.500 C 123.171 192.500,122.681 191.277,123.542 190.417 C 124.210 189.748,124.362 189.931,123.976 190.938 M213.750 191.875 C 213.750 193.328,214.539 193.496,215.564 192.260 C 216.120 191.591,216.055 191.309,215.277 191.010 C 213.826 190.453,213.750 190.496,213.750 191.875 M122.188 196.875 C 121.975 197.219,121.396 197.500,120.901 197.500 C 120.405 197.500,120.000 197.219,120.000 196.875 C 120.000 196.531,120.579 196.250,121.287 196.250 C 121.995 196.250,122.400 196.531,122.188 196.875 M327.500 201.932 C 327.500 202.171,323.816 202.238,319.313 202.080 C 313.671 201.883,311.253 201.999,311.533 202.452 C 311.780 202.852,311.559 202.964,310.970 202.738 C 310.398 202.519,310.000 202.702,310.000 203.183 C 310.000 203.818,309.833 203.833,309.250 203.250 C 308.837 202.838,308.205 202.504,307.844 202.510 C 307.483 202.515,307.609 202.813,308.125 203.172 C 308.822 203.658,308.542 203.723,307.031 203.426 C 305.649 203.153,305.000 203.264,305.000 203.773 C 305.000 204.235,304.398 204.406,303.423 204.219 C 302.555 204.053,301.689 204.170,301.499 204.478 C 301.308 204.786,300.190 204.858,299.014 204.637 C 297.717 204.394,296.875 204.486,296.875 204.872 C 296.875 205.222,296.269 205.349,295.527 205.156 C 294.664 204.930,294.327 205.042,294.591 205.468 C 294.854 205.894,294.517 206.007,293.653 205.781 C 292.807 205.559,292.454 205.670,292.706 206.078 C 292.940 206.456,292.087 206.986,290.666 207.347 C 288.715 207.842,288.289 207.801,288.542 207.142 C 288.797 206.476,288.557 206.459,287.295 207.054 C 286.435 207.460,285.863 208.004,286.023 208.264 C 286.184 208.523,285.832 208.550,285.242 208.324 C 284.558 208.061,284.320 208.156,284.586 208.586 C 284.847 209.007,284.562 209.143,283.821 208.950 C 283.172 208.780,282.425 208.990,282.161 209.417 C 281.832 209.950,281.938 210.035,282.500 209.688 C 283.016 209.369,283.167 209.427,282.908 209.845 C 282.683 210.209,281.937 210.361,281.249 210.181 C 280.562 210.001,280.000 210.159,280.000 210.532 C 280.000 210.908,279.536 211.033,278.960 210.812 C 278.200 210.520,278.059 210.638,278.438 211.250 C 278.815 211.861,278.676 211.980,277.923 211.691 C 277.286 211.447,276.947 211.586,277.039 212.054 C 277.121 212.471,276.836 212.742,276.406 212.656 C 275.977 212.570,275.695 212.816,275.781 213.203 C 275.867 213.590,275.547 214.048,275.069 214.222 C 274.486 214.434,274.350 214.254,274.654 213.675 C 274.903 213.201,274.241 213.729,273.183 214.848 C 272.125 215.968,271.120 216.889,270.949 216.896 C 270.778 216.903,270.201 217.077,269.667 217.282 C 269.133 217.487,268.525 217.483,268.316 217.274 C 268.107 217.065,267.603 217.350,267.196 217.906 C 266.727 218.548,265.396 218.962,263.553 219.039 C 260.648 219.160,258.125 220.634,258.125 222.211 C 258.125 222.634,257.563 223.126,256.875 223.306 C 255.531 223.657,255.107 222.769,256.406 222.324 C 256.836 222.177,256.484 222.177,255.625 222.323 C 253.715 222.647,252.847 223.419,253.394 224.305 C 253.934 225.178,390.000 225.292,390.000 224.420 C 390.000 224.092,389.719 223.650,389.375 223.438 C 389.031 223.225,388.750 222.770,388.750 222.426 C 388.750 222.082,389.102 222.012,389.531 222.271 C 390.069 222.593,390.046 222.412,389.460 221.689 C 388.992 221.112,388.359 220.793,388.054 220.981 C 387.749 221.170,387.500 221.026,387.500 220.662 C 387.500 220.298,387.289 220.041,387.031 220.092 C 385.666 220.359,381.098 219.081,380.818 218.353 C 380.640 217.888,380.242 217.663,379.935 217.853 C 379.627 218.043,379.375 217.884,379.375 217.500 C 379.375 217.116,379.106 216.967,378.777 217.171 C 378.449 217.374,377.724 216.845,377.168 215.995 C 376.583 215.103,375.782 214.594,375.271 214.790 C 374.784 214.977,374.209 214.670,373.994 214.109 C 373.739 213.446,373.188 213.219,372.423 213.462 C 371.671 213.701,371.108 213.482,370.869 212.859 C 370.663 212.322,370.242 212.038,369.935 212.228 C 369.627 212.418,369.375 212.276,369.375 211.912 C 369.375 211.548,368.953 211.250,368.438 211.250 C 367.922 211.250,367.500 210.952,367.500 210.588 C 367.500 210.224,367.197 210.113,366.827 210.342 C 366.457 210.571,365.577 210.138,364.871 209.380 C 363.852 208.286,363.477 208.176,363.053 208.845 C 362.686 209.424,362.516 209.453,362.510 208.936 C 362.504 208.467,361.798 208.273,360.633 208.421 C 359.606 208.551,358.603 208.392,358.402 208.068 C 358.202 207.745,357.777 207.641,357.457 207.839 C 357.137 208.037,356.875 207.901,356.875 207.537 C 356.875 207.173,356.474 206.875,355.983 206.875 C 355.492 206.875,354.575 206.219,353.944 205.417 C 353.123 204.374,352.311 204.025,351.086 204.189 C 350.087 204.322,349.375 204.121,349.375 203.705 C 349.375 203.312,348.939 203.159,348.405 203.363 C 347.777 203.605,347.591 203.484,347.877 203.020 C 348.193 202.510,347.665 202.411,346.035 202.676 C 344.768 202.881,343.750 202.786,343.750 202.461 C 343.750 202.139,342.766 201.946,341.564 202.032 C 340.361 202.117,339.377 202.398,339.376 202.656 C 339.376 202.914,338.109 203.125,336.563 203.125 C 335.016 203.125,333.750 202.870,333.750 202.559 C 333.750 202.247,333.144 202.151,332.402 202.344 C 331.543 202.569,331.203 202.457,331.463 202.035 C 331.724 201.614,331.077 201.396,329.686 201.436 C 328.484 201.470,327.500 201.693,327.500 201.932 M144.191 205.355 C 144.779 205.941,144.665 206.359,143.671 207.259 C 142.438 208.375,142.377 208.375,141.758 207.268 C 141.406 206.639,140.599 205.681,139.966 205.138 C 139.332 204.596,138.946 203.938,139.108 203.676 C 139.466 203.097,143.145 204.312,144.191 205.355 M121.296 206.805 C 119.301 207.354,118.983 208.496,120.587 209.355 C 121.295 209.734,121.910 209.893,121.953 209.709 C 121.996 209.526,122.066 209.117,122.109 208.802 C 122.279 207.556,123.125 207.370,123.125 208.579 C 123.125 210.266,121.349 210.908,120.017 209.703 C 119.438 209.179,118.635 208.750,118.232 208.750 C 117.405 208.750,117.360 208.591,117.841 207.339 C 118.047 206.801,119.096 206.438,120.497 206.419 C 122.339 206.395,122.503 206.473,121.296 206.805 M120.625 211.824 C 120.625 212.140,120.814 212.891,121.046 213.495 C 121.375 214.353,121.168 214.293,120.094 213.219 C 119.014 212.139,118.467 211.983,117.527 212.486 C 115.763 213.430,115.205 213.262,116.599 212.207 C 117.949 211.186,120.625 210.931,120.625 211.824 M119.978 214.334 C 120.986 216.218,120.797 219.983,119.688 220.094 C 119.172 220.145,118.398 220.216,117.969 220.250 C 117.532 220.285,117.278 219.788,117.393 219.125 C 117.516 218.410,116.917 217.394,115.886 216.572 C 114.373 215.366,114.142 213.146,115.625 214.063 C 115.921 214.246,116.340 214.110,116.556 213.760 C 117.211 212.700,119.290 213.049,119.978 214.334 " stroke="none" fill="#000000" fill-rule="evenodd"></path></g></svg>