<svg id="svg" xmlns="http://www.w3.org/2000/svg" xmlns:xlink="http://www.w3.org/1999/xlink" width="400" height="225" viewBox="0, 0, 400,225"><g id="svgg"><path id="path0" d="M0.294 0.781 C 0.133 1.211,0.071 51.766,0.157 113.125 L 0.313 224.688 74.063 224.796 C 139.040 224.892,147.937 224.793,148.858 223.962 C 149.433 223.443,151.050 222.865,152.451 222.677 C 155.680 222.244,155.785 222.656,151.094 217.346 C 150.148 216.275,149.353 215.240,149.327 215.044 C 149.301 214.848,149.188 214.215,149.076 213.637 C 148.937 212.916,149.171 212.701,149.821 212.950 C 150.555 213.232,150.673 213.011,150.343 211.970 C 149.965 210.779,150.153 210.624,151.989 210.616 C 153.129 210.612,154.700 210.437,155.479 210.229 L 156.895 209.849 155.282 208.237 C 154.346 207.301,153.790 206.164,153.957 205.526 C 154.165 204.729,153.700 204.249,152.257 203.773 C 151.164 203.412,149.295 202.213,148.104 201.108 C 146.912 200.003,145.760 199.150,145.543 199.212 C 144.557 199.495,143.051 197.037,143.990 196.677 C 144.495 196.483,145.245 196.729,145.656 197.225 C 146.067 197.720,146.720 198.121,147.108 198.115 C 147.495 198.110,147.391 197.833,146.875 197.500 C 146.302 197.129,146.229 196.890,146.688 196.885 C 147.100 196.879,147.713 197.367,148.050 197.969 C 148.387 198.570,148.752 198.972,148.862 198.862 C 148.972 198.752,149.875 198.971,150.868 199.349 C 153.265 200.260,153.803 199.584,151.866 198.096 C 151.011 197.440,150.565 196.897,150.873 196.889 C 151.879 196.864,148.088 193.750,147.051 193.750 C 146.496 193.750,146.253 193.539,146.511 193.281 C 146.768 193.023,149.903 192.801,153.476 192.787 C 159.804 192.761,160.022 192.713,161.915 190.912 C 164.620 188.337,165.346 186.868,164.283 186.123 C 163.689 185.706,163.650 185.442,164.152 185.235 C 164.955 184.904,164.537 182.500,163.677 182.500 C 163.373 182.500,163.125 182.957,163.125 183.516 C 163.125 185.700,155.485 182.441,154.664 179.906 C 154.480 179.338,153.660 178.706,152.842 178.501 C 152.023 178.295,150.762 177.170,150.039 176.001 C 149.316 174.831,148.306 173.713,147.794 173.517 C 147.283 173.321,146.540 172.449,146.144 171.580 C 145.748 170.711,145.115 170.000,144.738 170.000 C 143.809 170.000,142.364 167.600,142.834 166.839 C 143.238 166.186,145.655 168.173,151.427 173.906 C 153.417 175.883,155.316 177.500,155.647 177.500 C 155.979 177.500,156.250 177.713,156.250 177.972 C 156.250 178.394,157.291 178.909,161.563 180.600 C 162.250 180.872,163.588 181.405,164.535 181.786 C 165.483 182.166,166.209 182.693,166.149 182.957 C 166.012 183.557,166.938 188.261,167.325 188.937 C 167.902 189.942,169.375 187.918,169.375 186.121 C 169.375 183.722,170.764 184.114,171.065 186.599 C 171.474 189.968,171.859 190.377,172.839 188.487 C 173.340 187.522,173.750 186.375,173.750 185.939 C 173.750 184.967,176.486 184.366,177.616 185.090 C 178.536 185.680,184.019 185.224,185.562 184.429 C 186.968 183.704,198.586 182.950,199.513 183.523 C 199.933 183.783,201.333 183.919,202.623 183.826 C 203.913 183.733,205.270 183.843,205.640 184.071 C 206.666 184.706,205.036 186.346,203.776 185.946 C 203.150 185.747,202.143 186.237,201.274 187.162 C 199.803 188.728,198.087 188.740,199.385 187.175 C 199.918 186.533,199.783 186.178,198.806 185.655 C 197.697 185.061,197.477 185.188,197.115 186.627 C 196.768 188.013,196.608 188.117,196.131 187.266 C 195.418 185.991,194.375 185.945,194.375 187.188 C 194.375 187.703,194.094 188.125,193.750 188.125 C 193.406 188.125,193.125 187.703,193.125 187.188 C 193.125 186.672,192.864 186.250,192.545 186.250 C 191.720 186.250,189.935 188.139,190.261 188.666 C 190.411 188.909,189.991 189.107,189.329 189.107 C 188.667 189.107,188.125 188.886,188.125 188.616 C 188.125 188.346,187.728 188.125,187.243 188.125 C 186.740 188.125,186.451 188.595,186.570 189.219 C 186.685 189.820,186.832 190.313,186.896 190.313 C 186.960 190.313,187.090 191.241,187.185 192.376 C 187.408 195.047,187.781 195.357,189.714 194.477 C 190.591 194.077,191.942 193.750,192.717 193.750 C 193.491 193.750,194.458 193.417,194.865 193.010 C 195.271 192.604,195.776 192.443,195.986 192.653 C 196.196 192.862,194.847 194.044,192.988 195.278 C 188.903 197.990,186.433 202.123,185.982 206.999 C 185.812 208.832,185.295 211.452,184.832 212.822 C 184.370 214.192,184.008 217.422,184.027 220.000 L 184.063 224.688 291.875 224.688 L 399.688 224.688 399.688 112.500 L 399.688 0.313 319.844 0.313 C 266.989 0.313,240.021 0.524,240.062 0.938 C 240.097 1.281,240.308 1.516,240.531 1.459 C 240.755 1.402,240.981 2.456,241.034 3.802 C 241.101 5.509,240.912 6.115,240.409 5.805 C 240.012 5.561,240.186 6.123,240.796 7.055 C 241.920 8.775,241.496 9.371,240.125 8.000 C 239.591 7.466,239.375 7.454,239.375 7.958 C 239.375 8.811,241.613 9.611,242.487 9.070 C 242.848 8.848,242.954 9.094,242.738 9.655 C 242.534 10.189,242.175 10.625,241.941 10.625 C 241.707 10.625,241.472 11.211,241.418 11.928 C 241.364 12.644,240.699 13.769,239.939 14.428 C 239.180 15.086,238.762 15.625,239.012 15.625 C 239.261 15.625,239.002 16.088,238.436 16.653 C 237.680 17.409,237.604 17.803,238.150 18.140 C 238.702 18.481,238.674 18.684,238.039 18.932 C 237.571 19.115,238.121 19.167,239.263 19.047 C 240.404 18.928,241.706 18.525,242.155 18.152 C 242.773 17.639,243.049 17.765,243.285 18.668 C 243.729 20.368,243.083 21.106,240.935 21.350 C 239.546 21.508,239.011 21.928,238.862 22.977 L 238.661 24.391 235.112 22.445 C 233.160 21.374,231.401 20.239,231.204 19.922 C 231.007 19.605,230.330 19.915,229.701 20.610 C 229.071 21.306,228.782 21.875,229.057 21.875 C 229.332 21.875,228.799 22.578,227.872 23.438 C 225.793 25.364,225.147 25.392,224.333 23.594 C 223.093 20.853,222.071 19.388,221.676 19.783 C 220.266 21.192,217.643 20.395,216.824 18.307 C 216.067 16.377,215.784 16.187,214.160 16.512 C 213.161 16.712,212.105 16.875,211.813 16.875 C 211.521 16.875,210.873 17.667,210.372 18.635 C 209.872 19.603,208.317 21.188,206.918 22.157 C 205.520 23.127,204.375 24.296,204.375 24.756 C 204.375 25.797,201.183 27.500,199.233 27.500 C 197.514 27.500,195.000 25.882,195.000 24.777 C 195.000 23.152,193.652 22.535,192.191 23.492 C 191.011 24.266,190.693 24.273,190.084 23.539 C 189.672 23.042,188.704 22.802,187.805 22.973 C 186.946 23.138,185.858 22.953,185.388 22.563 C 184.918 22.173,184.065 22.033,183.493 22.253 C 182.904 22.479,181.958 22.203,181.310 21.617 C 180.373 20.769,179.685 20.690,177.506 21.179 C 176.043 21.508,174.448 21.624,173.962 21.438 C 173.476 21.251,172.561 21.567,171.928 22.139 C 170.238 23.669,167.726 23.927,165.935 22.753 C 165.077 22.191,164.375 22.012,164.375 22.355 C 164.375 24.185,159.373 23.151,156.630 20.754 C 155.959 20.167,155.617 20.041,155.870 20.474 C 156.124 20.908,155.893 21.697,155.352 22.237 C 154.815 22.774,154.375 23.616,154.375 24.107 C 154.375 25.292,152.559 25.256,152.101 24.063 C 151.765 23.188,150.000 22.697,150.000 23.479 C 150.000 24.580,151.393 26.156,152.120 25.877 C 152.700 25.654,153.102 26.245,153.381 27.730 C 153.606 28.928,154.132 30.049,154.551 30.221 C 155.556 30.633,152.762 32.900,150.645 33.389 C 149.681 33.612,147.841 35.332,145.938 37.789 C 143.716 40.656,142.392 41.830,141.358 41.849 C 139.950 41.874,139.964 41.825,141.773 40.302 C 143.995 38.433,148.329 32.086,147.880 31.360 C 147.707 31.079,147.422 30.062,147.248 29.098 C 146.844 26.874,146.417 26.458,145.490 27.385 C 145.083 27.792,144.123 28.125,143.357 28.125 C 142.591 28.125,141.542 28.547,141.027 29.063 C 140.511 29.578,139.811 30.000,139.471 30.000 C 139.130 30.000,137.367 31.268,135.551 32.817 C 132.705 35.247,131.976 35.583,130.259 35.261 C 129.095 35.043,128.093 35.171,127.847 35.569 C 127.616 35.943,126.207 36.250,124.717 36.250 C 122.886 36.250,121.892 36.554,121.649 37.188 C 121.451 37.703,120.873 38.125,120.363 38.125 C 119.854 38.125,119.212 38.504,118.937 38.968 C 118.662 39.432,117.594 39.983,116.563 40.193 C 115.531 40.403,115.066 40.413,115.529 40.216 C 116.132 39.958,115.812 39.345,114.397 38.053 C 111.989 35.854,111.684 35.835,110.625 37.813 C 110.165 38.672,109.274 39.375,108.644 39.375 C 107.365 39.375,107.230 39.865,108.125 41.250 C 108.654 42.068,108.732 42.059,108.740 41.180 C 108.747 40.446,109.171 40.254,110.305 40.471 C 111.161 40.634,111.701 41.027,111.505 41.343 C 111.308 41.661,111.869 41.787,112.762 41.625 C 114.277 41.350,115.136 42.595,113.906 43.283 C 113.648 43.427,113.780 43.463,114.199 43.362 C 114.617 43.262,115.135 43.463,115.350 43.810 C 115.564 44.157,116.063 44.333,116.458 44.202 C 117.936 43.709,119.864 47.120,118.566 47.931 C 117.674 48.489,116.696 48.746,113.750 49.197 C 112.547 49.381,111.338 49.918,111.063 50.391 C 110.788 50.863,110.140 51.250,109.622 51.250 C 108.051 51.250,102.895 53.829,101.527 55.298 C 99.991 56.948,97.535 57.674,96.245 56.859 C 95.732 56.534,95.533 56.265,95.803 56.260 C 96.073 56.254,95.993 55.687,95.625 55.000 C 95.171 54.153,95.164 53.750,95.603 53.750 C 95.959 53.750,96.250 54.155,96.250 54.651 C 96.250 55.955,97.489 56.521,98.336 55.604 C 98.908 54.983,98.797 54.910,97.813 55.258 C 96.845 55.599,96.730 55.530,97.304 54.952 C 97.875 54.376,97.835 53.995,97.126 53.286 C 96.480 52.641,96.398 52.137,96.849 51.594 C 97.712 50.554,94.513 48.987,93.530 49.970 C 92.589 50.911,90.904 50.776,90.000 49.688 C 89.462 49.040,89.439 48.750,89.923 48.750 C 90.309 48.750,90.625 48.358,90.625 47.879 C 90.625 47.004,91.658 46.343,92.802 46.486 C 93.140 46.528,93.342 47.008,93.249 47.552 C 93.157 48.098,93.512 48.542,94.041 48.542 C 94.988 48.542,95.069 48.290,95.259 44.778 C 95.312 43.796,95.892 42.601,96.547 42.121 C 97.203 41.642,97.496 41.250,97.200 41.250 C 96.903 41.250,96.145 41.717,95.514 42.288 C 94.883 42.859,94.158 43.101,93.902 42.827 C 93.647 42.553,93.789 42.203,94.219 42.050 C 95.492 41.595,95.124 40.585,93.015 38.744 C 90.774 36.787,90.335 35.394,91.622 34.326 C 92.461 33.630,92.883 34.590,92.558 36.454 C 92.508 36.739,93.319 37.293,94.359 37.685 C 95.489 38.112,96.250 38.847,96.250 39.512 C 96.250 40.124,96.522 40.625,96.855 40.625 C 97.188 40.625,97.299 40.203,97.101 39.688 C 96.903 39.172,97.053 38.750,97.433 38.750 C 97.814 38.750,98.125 39.048,98.125 39.412 C 98.125 39.776,98.477 39.863,98.906 39.604 C 99.528 39.231,99.528 39.332,98.904 40.103 C 98.045 41.164,98.504 45.000,99.490 45.000 C 99.811 45.000,99.904 45.275,99.695 45.612 C 99.274 46.294,100.404 48.750,101.138 48.750 C 101.572 48.750,101.794 47.615,101.906 44.830 C 101.953 43.673,102.589 43.836,104.531 45.504 C 105.133 46.021,105.625 46.230,105.625 45.968 C 105.625 45.706,104.901 44.923,104.016 44.227 C 101.824 42.503,101.111 40.417,101.983 38.281 C 102.369 37.336,102.858 35.438,103.070 34.063 C 103.391 31.985,103.692 31.571,104.853 31.612 C 105.623 31.639,106.250 31.289,106.250 30.831 C 106.250 30.374,106.479 30.000,106.758 30.000 C 107.038 30.000,107.653 29.015,108.125 27.812 C 108.597 26.609,109.315 25.694,109.719 25.781 C 112.203 26.310,117.662 16.488,118.322 10.303 C 118.506 8.579,119.279 6.002,120.041 4.575 C 122.695 -0.397,127.857 0.000,60.625 0.000 C 13.166 0.000,0.525 0.164,0.294 0.781 M125.625 0.548 C 125.625 0.850,126.044 1.444,126.556 1.869 C 127.067 2.294,127.325 2.902,127.128 3.221 C 126.921 3.556,127.450 3.629,128.385 3.395 C 129.394 3.142,130.000 3.249,130.000 3.682 C 130.000 4.063,130.281 4.375,130.625 4.375 C 131.670 4.375,131.344 0.795,130.261 0.379 C 128.774 -0.191,125.625 -0.076,125.625 0.548 M133.750 0.486 C 133.750 0.753,134.219 1.642,134.793 2.461 L 135.836 3.950 136.335 2.600 C 136.950 0.937,138.213 0.871,139.621 2.427 C 140.977 3.925,143.747 2.936,143.273 1.122 C 142.968 -0.044,133.750 -0.660,133.750 0.486 M257.095 24.079 C 256.902 24.582,256.479 24.829,256.155 24.629 C 255.235 24.060,250.000 26.771,250.000 27.816 C 250.000 28.880,249.019 29.067,248.431 28.115 C 248.215 27.765,247.762 27.650,247.425 27.859 C 247.087 28.068,246.099 27.470,245.229 26.532 C 243.992 25.196,243.829 24.710,244.480 24.297 C 245.386 23.723,245.261 23.738,251.441 23.457 C 253.780 23.351,255.859 23.100,256.059 22.899 C 256.698 22.261,257.459 23.129,257.095 24.079 M150.156 27.378 C 149.141 27.529,148.750 28.009,148.750 29.106 C 148.750 30.849,150.606 31.217,151.848 29.720 C 152.876 28.482,151.892 27.120,150.156 27.378 M166.250 29.442 C 166.250 30.156,164.555 30.172,164.116 29.462 C 163.934 29.166,163.944 28.764,164.141 28.568 C 164.628 28.080,166.250 28.752,166.250 29.442 M171.094 29.844 C 171.245 30.297,170.823 30.625,170.089 30.625 C 168.722 30.625,167.900 29.809,168.580 29.128 C 169.209 28.499,170.797 28.951,171.094 29.844 M229.585 29.857 C 228.726 30.404,229.712 32.064,231.250 32.662 C 231.979 32.945,231.935 33.037,231.049 33.076 C 229.668 33.136,228.125 31.701,228.125 30.357 C 228.125 29.817,228.617 29.379,229.219 29.385 C 229.933 29.391,230.060 29.555,229.585 29.857 M251.626 30.967 C 251.845 31.842,251.851 32.733,251.638 32.946 C 251.424 33.159,251.250 32.740,251.250 32.015 C 251.250 31.046,250.928 30.759,250.036 30.931 C 249.188 31.094,248.925 30.895,249.165 30.270 C 249.720 28.825,251.193 29.242,251.626 30.967 M233.657 31.321 C 232.371 32.135,230.625 31.977,230.625 31.046 C 230.625 30.474,231.227 30.305,232.563 30.501 C 233.938 30.703,234.256 30.941,233.657 31.321 M240.330 33.765 C 240.836 34.185,241.246 34.845,241.240 35.233 C 241.235 35.620,240.958 35.516,240.625 35.000 C 240.099 34.186,240.018 34.184,240.010 34.983 C 240.003 35.597,239.677 35.442,239.027 34.514 C 238.052 33.122,235.625 32.577,235.625 33.750 C 235.625 34.094,234.992 34.357,234.219 34.335 L 232.813 34.296 234.259 33.716 C 235.054 33.397,235.549 32.882,235.357 32.572 C 234.870 31.783,239.192 32.820,240.330 33.765 M250.376 33.542 C 250.341 34.459,249.891 35.324,249.375 35.465 C 248.542 35.692,248.542 35.646,249.375 35.057 C 250.217 34.462,249.847 34.103,248.594 34.301 C 247.798 34.427,248.078 32.623,248.906 32.289 C 250.297 31.728,250.440 31.849,250.376 33.542 M70.530 39.422 C 70.561 43.421,71.015 44.793,72.432 45.163 C 73.431 45.424,74.678 48.643,74.034 49.296 C 73.388 49.951,71.875 48.608,71.875 47.379 C 71.875 46.570,70.979 45.164,69.771 44.078 C 68.577 43.005,67.535 41.377,67.360 40.313 C 67.190 39.281,66.860 37.993,66.625 37.451 C 66.334 36.778,66.654 36.255,67.630 35.808 C 69.712 34.855,70.502 35.840,70.530 39.422 M79.268 39.031 C 79.540 41.347,78.443 42.461,77.157 41.175 C 76.402 40.420,76.338 39.851,76.853 38.495 C 77.658 36.377,78.991 36.673,79.268 39.031 M92.406 41.940 C 91.331 42.614,90.286 40.526,90.906 38.941 C 91.290 37.956,91.467 38.042,92.298 39.612 C 93.089 41.108,93.107 41.501,92.406 41.940 M129.227 39.954 C 129.824 40.273,130.817 40.691,131.433 40.883 C 132.331 41.162,132.424 41.474,131.902 42.450 C 131.543 43.120,131.250 44.192,131.250 44.833 C 131.250 46.557,125.630 48.401,124.745 46.967 C 124.564 46.675,124.928 45.430,125.554 44.201 C 126.204 42.926,126.482 41.625,126.200 41.170 C 125.192 39.538,127.049 38.792,129.227 39.954 M137.726 41.563 C 137.319 42.624,133.750 42.872,133.750 41.838 C 133.750 41.474,134.012 41.338,134.332 41.536 C 134.652 41.734,135.090 41.610,135.306 41.260 C 135.954 40.212,138.140 40.485,137.726 41.563 M66.018 53.346 C 65.886 54.209,65.334 54.713,64.469 54.758 C 62.933 54.839,62.836 54.443,63.848 52.222 C 64.716 50.317,66.350 51.164,66.018 53.346 M80.122 53.253 C 79.330 54.045,78.125 53.367,78.125 52.129 C 78.125 51.384,78.379 51.342,79.442 51.911 C 80.338 52.390,80.555 52.820,80.122 53.253 M92.397 59.664 C 91.806 60.961,87.470 63.125,85.462 63.125 C 84.864 63.125,84.375 63.406,84.375 63.750 C 84.375 64.094,83.813 64.375,83.125 64.375 C 82.438 64.375,81.875 64.703,81.875 65.104 C 81.875 65.505,81.696 65.654,81.477 65.435 C 81.258 65.216,80.300 65.591,79.349 66.268 C 78.398 66.946,77.205 67.500,76.699 67.500 C 76.192 67.500,75.428 67.922,75.000 68.438 C 74.572 68.953,73.869 69.375,73.438 69.375 C 73.006 69.375,72.303 69.797,71.875 70.313 C 71.447 70.828,70.518 71.250,69.811 71.250 C 68.387 71.250,62.089 77.546,59.547 81.511 C 56.319 86.545,54.698 96.129,56.586 99.011 C 57.091 99.782,57.345 100.572,57.150 100.766 C 56.956 100.961,57.938 102.626,59.333 104.466 C 62.364 108.464,62.486 109.652,60.000 110.938 C 58.969 111.471,58.124 112.111,58.122 112.360 C 58.111 113.966,55.096 116.483,54.136 115.686 C 53.259 114.958,53.125 115.022,53.125 116.173 C 53.125 117.012,53.527 117.508,54.219 117.521 C 55.161 117.539,55.122 117.701,53.933 118.693 C 53.174 119.327,52.752 120.081,52.995 120.371 C 53.239 120.660,52.942 120.517,52.336 120.053 C 51.649 119.526,51.440 118.946,51.782 118.511 C 52.622 117.439,53.280 112.330,52.517 112.802 C 52.167 113.018,51.553 112.477,51.152 111.598 C 50.275 109.673,49.761 109.614,48.125 111.250 C 46.293 113.082,43.153 111.063,43.114 108.029 C 43.108 107.566,42.405 106.525,41.552 105.716 C 40.698 104.906,40.000 103.584,40.000 102.777 C 40.000 101.941,39.101 100.423,37.910 99.249 C 35.242 96.618,34.769 94.787,36.287 92.966 C 36.931 92.194,37.468 91.781,37.479 92.047 C 37.491 92.314,38.344 92.096,39.375 91.563 C 40.406 91.029,41.250 90.752,41.250 90.946 C 41.250 91.279,42.027 90.711,44.037 88.909 C 45.742 87.380,47.974 86.877,48.773 87.840 C 49.259 88.426,50.090 88.601,51.165 88.344 C 53.208 87.854,53.112 87.940,53.422 86.332 C 53.563 85.597,53.873 84.682,54.110 84.299 C 54.490 83.683,55.021 81.815,55.941 77.858 C 56.095 77.196,56.523 76.468,56.892 76.240 C 57.261 76.012,57.608 75.218,57.664 74.475 C 57.871 71.736,59.024 73.226,58.918 76.094 C 58.865 77.516,60.020 76.904,60.686 75.156 C 61.581 72.805,61.602 69.805,60.724 69.512 C 60.326 69.379,60.006 68.802,60.014 68.229 C 60.025 67.429,60.311 67.550,61.250 68.750 C 61.922 69.609,62.478 69.944,62.486 69.494 C 62.494 69.044,62.794 68.858,63.152 69.079 C 63.959 69.578,65.739 68.190,65.269 67.429 C 65.080 67.124,65.241 66.875,65.625 66.875 C 66.009 66.875,66.150 66.594,65.938 66.250 C 65.725 65.906,65.866 65.625,66.250 65.625 C 66.634 65.625,66.775 65.344,66.563 65.000 C 66.350 64.656,66.774 64.375,67.504 64.375 C 69.128 64.375,71.309 63.263,72.299 61.929 C 72.964 61.034,73.077 61.045,73.466 62.047 C 73.799 62.907,74.089 62.997,74.754 62.445 C 75.225 62.054,75.457 61.484,75.269 61.179 C 74.788 60.401,75.424 60.490,76.903 61.406 C 77.942 62.050,78.268 62.023,78.759 61.250 C 79.140 60.652,79.359 60.590,79.365 61.078 C 79.372 61.642,79.799 61.683,80.978 61.235 C 83.089 60.432,86.437 60.443,85.938 61.250 C 85.725 61.594,85.715 61.875,85.916 61.875 C 86.117 61.875,86.548 61.172,86.875 60.313 C 87.202 59.453,87.945 58.750,88.526 58.750 C 89.108 58.750,89.387 58.554,89.147 58.314 C 88.907 58.074,89.342 57.540,90.114 57.127 C 91.938 56.150,93.305 57.670,92.397 59.664 M64.751 57.819 C 64.531 59.315,63.335 60.244,63.324 58.927 C 63.318 58.314,63.623 57.606,64.001 57.353 C 64.916 56.741,64.910 56.737,64.751 57.819 M297.500 66.885 C 296.667 67.432,296.667 67.568,297.500 68.115 C 298.066 68.487,298.142 68.735,297.693 68.740 C 296.725 68.753,296.070 67.672,296.563 66.875 C 296.775 66.531,297.284 66.254,297.693 66.260 C 298.142 66.265,298.066 66.513,297.500 66.885 M58.937 69.790 C 58.688 70.437,58.787 70.676,59.197 70.422 C 59.573 70.190,59.986 70.690,60.157 71.585 C 60.322 72.448,60.170 73.332,59.820 73.549 C 59.454 73.775,59.372 73.635,59.628 73.222 C 59.873 72.825,59.809 72.500,59.485 72.500 C 58.793 72.500,58.040 70.017,58.505 69.267 C 59.063 68.363,59.351 68.711,58.937 69.790 M296.875 73.053 C 296.875 73.508,294.554 75.625,294.055 75.625 C 293.887 75.625,293.750 75.063,293.750 74.375 C 293.750 73.660,294.167 73.125,294.724 73.125 C 295.260 73.125,295.527 72.847,295.317 72.507 C 295.098 72.153,295.349 72.048,295.905 72.262 C 296.439 72.466,296.875 72.822,296.875 73.053 M322.231 75.477 C 322.142 76.312,321.181 77.962,320.097 79.144 C 317.778 81.670,317.375 84.454,319.404 83.924 C 320.192 83.717,320.980 83.997,321.459 84.652 C 322.865 86.574,326.611 84.674,327.243 81.719 C 327.299 81.461,327.412 81.039,327.496 80.781 C 327.580 80.523,327.608 80.081,327.559 79.797 C 327.509 79.514,327.737 79.448,328.065 79.650 C 328.392 79.853,328.840 79.452,329.060 78.759 C 329.533 77.268,331.979 77.057,333.102 78.410 C 333.926 79.403,333.406 80.872,332.441 80.276 C 332.113 80.073,331.897 80.139,331.962 80.422 C 332.027 80.706,331.867 81.695,331.606 82.621 C 331.346 83.547,331.363 84.672,331.644 85.121 C 331.926 85.570,332.075 86.430,331.976 87.031 C 331.872 87.668,332.189 88.125,332.736 88.125 C 333.253 88.125,333.848 88.403,334.058 88.743 C 334.285 89.110,334.005 89.194,333.369 88.950 C 332.522 88.625,332.369 88.807,332.635 89.825 C 332.820 90.533,332.729 91.494,332.433 91.962 C 332.043 92.578,331.872 92.381,331.812 91.250 C 331.756 90.182,331.640 90.034,331.444 90.781 C 331.287 91.383,330.757 91.875,330.267 91.875 C 329.234 91.875,329.008 95.324,330.000 95.938 C 330.933 96.514,329.266 99.317,327.462 100.205 C 326.623 100.617,325.461 101.906,324.878 103.068 C 324.296 104.230,323.544 105.456,323.208 105.792 C 322.872 106.128,322.764 106.836,322.968 107.366 C 323.210 107.999,323.086 108.175,322.606 107.878 C 322.167 107.607,321.875 107.816,321.875 108.401 C 321.875 108.937,321.624 109.375,321.317 109.375 C 321.010 109.375,320.587 109.822,320.378 110.368 C 320.051 111.220,320.372 111.294,322.655 110.893 C 324.116 110.635,326.057 110.399,326.966 110.369 C 327.876 110.338,329.148 109.834,329.793 109.250 C 331.321 107.867,339.138 104.579,344.688 102.985 C 347.094 102.294,349.542 101.486,350.127 101.190 C 352.877 99.798,351.630 103.587,348.311 106.712 C 345.245 109.599,350.298 111.577,356.064 109.747 C 356.877 109.488,357.631 109.726,358.193 110.418 C 358.671 111.008,358.768 111.314,358.408 111.099 C 357.221 110.390,355.862 111.718,356.585 112.879 C 356.941 113.451,357.504 113.901,357.835 113.879 C 358.166 113.857,358.882 114.242,359.426 114.733 C 359.969 115.225,360.602 115.440,360.832 115.210 C 361.062 114.980,361.250 115.118,361.250 115.517 C 361.250 115.920,361.875 116.141,362.656 116.014 C 364.226 115.760,367.500 117.198,367.500 118.141 C 367.500 118.476,367.078 118.750,366.563 118.750 C 366.047 118.750,365.625 118.986,365.625 119.275 C 365.625 119.564,364.496 120.173,363.116 120.628 C 360.002 121.656,358.937 122.782,359.939 123.990 C 360.494 124.658,360.432 124.940,359.664 125.235 C 359.118 125.445,358.834 125.880,359.033 126.202 C 359.232 126.525,359.090 126.977,358.718 127.208 C 358.345 127.438,358.187 128.011,358.368 128.481 C 358.548 128.951,358.450 129.486,358.151 129.671 C 357.852 129.856,357.464 129.654,357.290 129.223 C 357.060 128.653,356.960 128.643,356.924 129.187 C 356.835 130.541,359.959 133.310,361.650 133.374 C 362.689 133.414,363.466 133.899,363.758 134.690 C 364.277 136.094,358.665 137.004,357.829 135.651 C 357.606 135.290,356.738 135.168,355.899 135.378 C 355.061 135.588,354.375 135.519,354.375 135.224 C 354.375 134.929,352.476 134.701,350.156 134.718 C 345.359 134.752,344.485 133.968,346.138 131.113 C 347.520 128.725,346.666 128.301,343.606 129.856 C 340.570 131.397,340.707 131.436,340.520 128.989 C 340.366 126.960,338.000 126.413,336.122 127.972 C 335.654 128.361,334.924 128.464,334.500 128.203 C 334.077 127.941,332.334 127.906,330.627 128.125 C 328.797 128.360,327.262 128.262,326.886 127.886 C 326.455 127.455,326.250 127.698,326.250 128.645 C 326.250 130.628,324.029 131.291,320.982 130.217 C 319.152 129.572,318.412 129.535,318.080 130.073 C 317.822 130.491,316.987 130.632,316.097 130.408 C 314.810 130.085,314.373 130.370,313.410 132.157 C 312.778 133.331,311.626 134.632,310.850 135.047 C 310.074 135.462,309.354 136.395,309.251 137.120 C 309.137 137.918,308.570 138.473,307.813 138.527 C 307.125 138.577,306.211 138.647,305.781 138.684 C 305.352 138.720,305.000 139.140,305.000 139.616 C 305.000 140.092,304.580 141.288,304.066 142.272 C 303.553 143.257,303.131 144.555,303.129 145.156 C 303.121 147.364,301.873 146.174,301.819 143.906 L 301.762 141.563 301.176 143.594 C 300.647 145.427,298.750 146.526,298.750 145.000 C 298.750 144.656,298.469 144.375,298.125 144.375 C 297.781 144.375,297.500 144.888,297.500 145.516 C 297.500 147.843,294.643 149.695,292.858 148.525 C 289.602 146.391,288.609 147.053,288.848 151.199 C 289.102 155.606,288.777 156.081,286.524 154.605 C 284.824 153.491,284.818 153.492,285.532 154.826 C 287.090 157.737,284.700 160.267,282.805 157.713 C 282.103 156.767,281.736 156.693,280.743 157.299 C 279.978 157.765,279.317 157.817,278.940 157.440 C 277.834 156.334,274.701 163.535,275.513 165.317 C 275.947 166.268,275.979 166.968,275.601 167.202 C 275.271 167.407,275.000 167.276,275.000 166.912 C 275.000 166.548,274.736 166.250,274.414 166.250 C 274.089 166.250,273.994 167.267,274.199 168.535 C 274.656 171.348,273.470 170.946,272.900 168.094 C 272.583 166.508,272.288 166.233,271.257 166.560 C 270.439 166.820,270.000 166.676,270.000 166.150 C 270.000 165.704,268.813 164.255,267.362 162.928 C 264.884 160.663,264.799 160.476,265.956 159.843 C 267.531 158.982,268.142 158.047,267.671 157.217 C 267.467 156.857,267.519 156.760,267.787 157.001 C 268.333 157.493,270.000 156.055,270.000 155.093 C 270.000 154.751,270.667 153.676,271.483 152.704 C 272.299 151.733,273.165 149.672,273.408 148.125 C 273.652 146.578,274.098 144.469,274.400 143.438 C 274.703 142.406,275.296 140.256,275.718 138.658 C 276.231 136.713,276.755 135.858,277.305 136.069 C 277.810 136.263,278.125 135.913,278.125 135.158 C 278.125 134.484,278.848 133.152,279.732 132.198 C 280.852 130.990,281.141 130.266,280.685 129.810 C 280.229 129.354,280.595 128.812,281.890 128.024 C 282.913 127.402,283.773 126.397,283.802 125.790 C 283.905 123.604,284.171 121.870,284.446 121.596 C 285.005 121.037,288.836 120.606,288.506 121.139 C 288.320 121.441,289.278 122.620,290.637 123.760 C 292.500 125.323,292.943 126.029,292.439 126.636 C 291.720 127.502,292.233 130.000,293.130 130.000 C 293.431 130.000,293.862 129.700,294.089 129.332 C 294.316 128.965,294.898 128.817,295.383 129.003 C 296.052 129.260,296.171 128.967,295.876 127.791 C 295.636 126.833,295.871 125.655,296.494 124.705 C 297.047 123.860,297.500 122.758,297.500 122.255 C 297.500 121.752,298.226 120.770,299.113 120.072 C 300.282 119.153,300.615 118.452,300.322 117.530 C 300.003 116.525,300.394 115.975,302.173 114.926 C 304.928 113.300,304.655 112.862,301.249 113.438 C 298.625 113.881,297.298 115.353,298.726 116.235 C 299.240 116.553,299.286 116.856,298.860 117.120 C 298.503 117.340,298.023 117.215,297.792 116.843 C 297.562 116.470,296.980 116.316,296.499 116.500 C 296.018 116.685,295.625 116.593,295.625 116.297 C 295.625 116.001,295.250 115.615,294.792 115.439 C 294.333 115.263,293.958 115.502,293.958 115.970 C 293.958 116.437,294.236 116.648,294.576 116.438 C 294.921 116.225,294.997 116.375,294.747 116.778 C 293.907 118.138,292.982 117.506,293.240 115.748 C 293.465 114.218,293.282 113.980,291.793 113.867 C 289.857 113.719,288.766 115.700,289.979 117.162 C 290.871 118.236,290.319 118.493,287.188 118.462 C 284.570 118.436,284.375 118.283,284.375 116.250 C 284.375 115.423,284.792 115.000,285.605 115.000 C 286.442 115.000,286.721 114.700,286.476 114.063 C 286.278 113.547,285.724 113.125,285.246 113.125 C 283.071 113.125,284.599 111.749,290.000 108.843 C 293.319 107.057,295.853 104.416,296.884 101.667 C 297.292 100.578,297.924 99.059,298.289 98.290 C 299.435 95.874,299.191 87.953,297.910 85.999 C 294.630 80.993,294.835 78.365,298.594 77.219 C 299.367 76.984,300.000 76.528,300.000 76.208 C 300.000 75.887,300.563 75.625,301.250 75.625 C 302.609 75.625,302.908 76.842,301.817 77.933 C 301.348 78.402,301.331 78.984,301.764 79.793 C 302.191 80.590,302.183 81.347,301.740 82.139 C 301.213 83.079,301.377 83.545,302.574 84.521 C 303.393 85.188,303.641 85.544,303.125 85.313 C 302.609 85.081,302.891 85.472,303.750 86.182 C 305.322 87.480,306.874 87.902,306.876 87.031 C 306.880 85.928,310.457 82.500,311.605 82.500 C 312.396 82.500,312.893 82.055,312.950 81.292 C 313.055 79.898,314.267 78.589,317.957 75.885 C 321.177 73.527,322.452 73.405,322.231 75.477 M26.250 80.293 C 26.250 80.850,25.883 81.070,25.316 80.852 C 24.802 80.655,24.538 80.242,24.728 79.935 C 25.273 79.052,26.250 79.282,26.250 80.293 M314.654 83.179 C 314.423 83.553,314.588 84.186,315.021 84.586 C 315.636 85.153,315.728 85.081,315.439 84.258 C 315.201 83.580,315.448 83.104,316.128 82.924 C 317.121 82.663,317.121 82.640,316.131 82.573 C 315.549 82.533,314.885 82.806,314.654 83.179 M349.149 85.313 C 348.815 86.182,349.414 86.517,350.938 86.315 C 351.281 86.269,351.029 86.649,350.377 87.158 C 349.724 87.668,348.951 87.937,348.658 87.756 C 348.365 87.574,348.125 87.677,348.125 87.984 C 348.125 88.291,347.742 88.542,347.273 88.542 C 346.757 88.542,346.539 88.093,346.719 87.403 C 346.883 86.777,347.246 86.406,347.526 86.579 C 347.806 86.752,348.215 86.327,348.435 85.634 C 348.654 84.942,348.986 84.375,349.171 84.375 C 349.357 84.375,349.347 84.797,349.149 85.313 M318.093 87.188 C 317.683 88.219,317.304 90.047,317.252 91.250 C 317.199 92.453,316.950 93.765,316.699 94.165 C 316.448 94.566,316.565 95.001,316.959 95.132 C 317.354 95.264,317.781 96.342,317.909 97.529 C 318.105 99.339,321.875 104.319,321.875 102.768 C 321.875 102.536,322.313 102.710,322.848 103.154 C 323.383 103.598,323.759 103.703,323.684 103.387 C 323.521 102.697,324.840 99.375,325.277 99.375 C 325.447 99.375,325.431 99.867,325.242 100.469 C 324.956 101.377,325.073 101.350,325.931 100.313 C 326.499 99.625,327.178 99.117,327.440 99.184 C 327.702 99.251,327.917 98.965,327.917 98.548 C 327.917 98.131,328.115 96.998,328.358 96.030 C 328.640 94.908,328.573 94.411,328.173 94.658 C 327.828 94.871,326.973 94.473,326.273 93.773 C 325.573 93.073,324.578 92.500,324.063 92.500 C 323.547 92.500,323.125 92.202,323.125 91.838 C 323.125 91.474,323.434 91.367,323.812 91.601 C 324.307 91.906,324.315 91.680,323.842 90.796 C 323.365 89.906,323.391 89.357,323.936 88.808 C 324.524 88.215,324.313 88.117,322.969 88.359 C 321.724 88.582,321.250 88.410,321.250 87.734 C 321.250 87.221,320.986 86.964,320.663 87.164 C 320.341 87.363,319.798 87.028,319.457 86.419 C 318.909 85.439,318.753 85.526,318.093 87.188 M336.469 88.895 C 336.758 90.001,336.994 90.131,337.605 89.520 C 338.028 89.097,338.670 88.759,339.031 88.770 C 339.392 88.781,339.145 89.200,338.481 89.702 C 337.264 90.623,335.000 89.535,335.000 88.028 C 335.000 86.907,336.123 87.570,336.469 88.895 M30.625 93.750 C 30.625 94.094,31.060 94.375,31.591 94.375 C 32.364 94.375,32.474 94.842,32.140 96.719 C 31.910 98.008,31.686 99.337,31.642 99.673 C 31.598 100.008,31.183 100.689,30.719 101.186 C 30.161 101.783,30.000 102.874,30.245 104.405 C 30.516 106.102,30.313 107.115,29.484 108.203 C 28.862 109.020,27.986 110.602,27.538 111.719 C 26.941 113.206,26.329 113.750,25.249 113.750 C 23.532 113.750,23.321 114.429,22.910 121.250 C 22.652 125.535,21.534 129.358,20.537 129.370 C 19.824 129.379,19.322 126.232,19.707 124.176 C 19.944 122.915,19.723 121.486,19.108 120.307 L 18.133 118.438 18.129 120.089 C 18.125 121.533,16.797 122.852,15.568 122.632 C 15.365 122.596,15.218 123.676,15.242 125.033 C 15.265 126.390,15.502 127.500,15.767 127.500 C 16.681 127.500,16.248 128.617,15.175 129.029 C 14.584 129.255,14.293 129.249,14.528 129.013 C 14.764 128.778,14.278 127.427,13.449 126.011 C 12.016 123.564,11.952 123.008,12.158 114.688 C 12.489 101.296,15.033 97.573,21.684 100.744 C 25.536 102.580,26.028 102.769,25.520 102.221 C 24.895 101.545,27.366 94.804,28.568 93.906 C 29.830 92.964,30.625 92.903,30.625 93.750 M335.625 98.750 C 335.625 99.094,335.344 99.375,335.000 99.375 C 334.656 99.375,334.375 99.786,334.375 100.288 C 334.375 101.597,332.005 103.622,329.944 104.075 C 328.975 104.288,328.021 104.968,327.825 105.586 C 327.433 106.822,325.000 109.261,325.000 108.418 C 325.000 108.129,325.541 107.312,326.203 106.603 C 326.865 105.893,327.498 104.925,327.609 104.451 C 328.250 101.734,335.625 96.489,335.625 98.750 M5.438 100.901 C 4.899 101.441,4.288 102.414,4.082 103.065 C 3.841 103.824,3.304 104.141,2.582 103.953 C 1.052 103.552,1.153 101.875,2.708 101.875 C 3.396 101.875,3.794 101.711,3.593 101.510 C 3.392 101.309,3.686 100.609,4.246 99.955 C 4.869 99.227,5.489 98.989,5.842 99.342 C 6.195 99.695,6.038 100.301,5.438 100.901 M361.805 106.319 C 363.317 107.942,362.716 110.170,360.727 110.316 C 359.984 110.371,359.353 110.252,359.327 110.052 C 359.301 109.851,359.180 109.160,359.058 108.515 C 358.567 105.906,360.202 104.598,361.805 106.319 M298.750 119.528 C 298.750 119.877,298.335 119.809,297.813 119.375 C 297.297 118.947,296.875 118.316,296.875 117.972 C 296.875 117.623,297.290 117.691,297.813 118.125 C 298.328 118.553,298.750 119.184,298.750 119.528 M348.284 127.477 C 347.653 128.488,347.673 128.644,348.398 128.366 C 349.343 128.003,350.261 126.250,349.506 126.250 C 349.255 126.250,348.706 126.802,348.284 127.477 M289.237 131.014 C 289.536 132.579,291.875 134.434,291.875 133.106 C 291.875 131.993,290.728 130.173,289.802 129.818 C 289.179 129.579,289.025 129.905,289.237 131.014 M112.813 138.279 C 114.531 138.976,116.781 139.902,117.813 140.338 C 118.844 140.773,120.461 141.431,121.406 141.801 C 122.352 142.171,123.125 142.918,123.125 143.461 C 123.125 144.024,122.828 144.265,122.433 144.021 C 121.274 143.305,106.666 142.654,105.048 143.247 C 101.987 144.368,101.494 143.239,104.009 140.866 C 106.116 138.879,106.825 136.988,104.859 138.600 C 103.856 139.423,101.473 139.842,101.346 139.219 C 100.570 135.420,104.890 135.066,112.813 138.279 M333.270 138.230 C 332.346 139.154,328.281 140.573,327.835 140.127 C 327.128 139.419,327.547 138.204,328.594 137.931 C 331.053 137.288,334.022 137.478,333.270 138.230 M132.845 156.094 C 133.078 157.727,133.825 160.750,134.507 162.813 C 136.328 168.323,135.382 173.125,132.476 173.125 C 130.899 173.125,130.713 172.043,131.705 168.657 C 132.450 166.118,132.435 165.027,131.596 160.603 C 130.395 154.276,130.384 153.125,131.524 153.125 C 132.121 153.125,132.565 154.123,132.845 156.094 M102.500 157.776 C 102.500 158.919,101.267 159.730,101.201 158.631 C 101.166 158.048,101.064 158.027,100.848 158.559 C 100.681 158.969,100.141 159.150,99.647 158.961 C 99.154 158.771,98.750 158.974,98.750 159.412 C 98.750 159.850,98.577 160.035,98.365 159.824 C 97.998 159.456,96.235 160.865,92.563 164.461 C 90.995 165.997,90.874 166.024,90.786 164.859 C 90.734 164.171,90.857 163.774,91.059 163.975 C 91.260 164.177,91.909 163.435,92.501 162.327 C 93.099 161.209,94.172 160.224,94.914 160.113 C 95.649 160.003,96.250 159.651,96.250 159.332 C 96.250 159.012,96.759 158.750,97.381 158.750 C 98.002 158.750,99.057 158.337,99.724 157.832 C 101.283 156.654,102.500 156.629,102.500 157.776 M137.807 171.165 L 136.096 172.813 136.495 170.656 C 136.959 168.147,138.170 167.110,138.968 168.537 C 139.364 169.244,139.040 169.976,137.807 171.165 M97.500 170.000 C 97.500 170.344,96.727 170.621,95.781 170.615 C 94.442 170.608,94.269 170.472,95.000 170.000 C 96.223 169.210,97.500 169.210,97.500 170.000 M114.442 187.374 C 114.057 187.502,113.901 187.864,114.095 188.178 C 114.680 189.124,112.712 188.821,111.898 187.840 C 110.706 186.403,111.669 185.558,113.531 186.406 C 114.417 186.810,114.827 187.245,114.442 187.374 M143.125 189.688 C 143.125 190.203,143.453 190.625,143.854 190.625 C 144.255 190.625,144.414 190.794,144.207 191.001 C 144.000 191.208,143.252 190.972,142.544 190.476 C 141.837 189.981,141.444 189.390,141.671 189.163 C 142.386 188.447,143.125 188.714,143.125 189.688 M180.983 189.844 C 180.172 190.609,179.976 190.656,180.332 190.000 C 180.701 189.319,180.497 189.362,179.589 190.156 C 178.902 190.758,178.010 191.250,177.607 191.250 C 177.204 191.250,176.875 191.548,176.875 191.913 C 176.875 192.300,176.083 192.450,174.964 192.274 C 173.677 192.071,173.132 192.212,173.294 192.705 C 173.426 193.108,174.286 193.526,175.204 193.635 C 176.123 193.744,176.875 194.149,176.875 194.536 C 176.875 194.923,177.278 194.693,177.770 194.026 C 178.483 193.060,178.826 192.970,179.449 193.585 C 180.072 194.199,180.453 194.159,181.304 193.389 C 182.105 192.664,182.363 192.627,182.329 193.241 C 182.243 194.789,183.281 198.125,183.848 198.125 C 184.983 198.125,185.162 196.068,184.173 194.393 C 183.615 193.449,183.091 191.793,183.009 190.713 C 182.836 188.451,182.577 188.340,180.983 189.844 M122.650 190.220 C 123.020 189.991,123.138 190.098,122.914 190.460 C 122.692 190.820,121.561 190.986,120.400 190.830 C 118.845 190.620,118.187 190.813,117.899 191.562 C 117.684 192.122,117.234 192.409,116.898 192.202 C 116.562 191.994,115.505 192.208,114.550 192.677 C 112.617 193.625,110.625 193.430,110.625 192.292 C 110.625 190.939,112.763 190.272,117.031 190.292 C 119.408 190.304,121.271 190.040,121.299 189.688 C 121.326 189.344,121.491 189.416,121.665 189.848 C 121.839 190.279,122.282 190.447,122.650 190.220 M163.627 191.034 C 163.478 191.325,163.410 191.914,163.475 192.344 C 163.540 192.773,163.629 193.609,163.672 194.202 C 163.737 195.092,163.925 195.028,164.764 193.831 C 165.665 192.544,165.674 192.281,164.837 191.445 C 164.321 190.928,163.776 190.743,163.627 191.034 M145.634 204.553 C 145.639 204.283,146.005 204.766,146.448 205.625 C 147.348 207.375,146.003 208.593,144.658 207.246 C 143.278 205.863,143.109 203.698,144.436 204.408 C 145.090 204.758,145.629 204.823,145.634 204.553 M119.075 214.164 C 119.953 215.042,120.200 215.066,120.672 214.320 C 121.442 213.103,121.386 213.797,120.511 216.313 C 118.999 220.659,117.256 220.021,117.348 215.156 C 117.395 212.694,117.528 212.617,119.075 214.164 " stroke="none" fill="#000000" fill-rule="evenodd"></path></g></svg>