<svg id="svg" xmlns="http://www.w3.org/2000/svg" xmlns:xlink="http://www.w3.org/1999/xlink" width="400" height="225" viewBox="0, 0, 400,225"><g id="svgg"><path id="path0" d="M0.289 0.781 C 0.125 1.211,0.064 51.766,0.152 113.125 L 0.313 224.688 74.290 224.812 C 140.748 224.923,148.420 224.836,149.771 223.950 C 150.756 223.305,152.082 223.072,153.607 223.276 C 157.085 223.741,157.330 220.445,153.986 218.158 C 149.806 215.299,149.749 210.645,153.893 210.605 C 157.168 210.573,158.839 208.994,157.045 207.625 C 156.049 206.865,155.758 206.162,156.024 205.156 C 156.325 204.019,156.139 203.750,155.053 203.750 C 154.315 203.750,153.553 203.339,153.360 202.836 C 153.167 202.334,152.473 201.752,151.817 201.544 C 151.162 201.336,150.625 200.639,150.625 199.995 C 150.625 198.496,149.551 197.826,148.520 198.681 C 147.660 199.395,146.233 198.468,146.269 197.219 C 146.279 196.858,146.578 197.061,146.932 197.669 C 147.287 198.278,147.845 198.610,148.174 198.407 C 148.502 198.205,148.582 197.733,148.351 197.360 C 147.855 196.558,149.150 197.229,150.758 198.608 C 151.347 199.113,152.243 199.368,152.749 199.173 C 153.255 198.979,153.806 199.156,153.973 199.566 C 154.148 199.996,154.297 199.877,154.326 199.286 C 154.353 198.721,153.935 198.090,153.398 197.884 C 152.860 197.678,152.603 197.213,152.827 196.852 C 153.050 196.491,152.869 195.757,152.425 195.222 C 151.527 194.140,151.089 192.327,151.838 192.790 C 152.101 192.952,153.188 192.757,154.252 192.355 C 155.852 191.751,156.382 191.795,157.312 192.608 C 157.931 193.149,159.537 193.789,160.881 194.030 L 163.325 194.469 161.545 195.636 C 160.566 196.279,159.494 196.636,159.161 196.430 C 158.827 196.224,158.758 196.382,159.006 196.783 C 159.254 197.184,159.039 197.668,158.525 197.865 C 158.015 198.061,157.457 198.585,157.287 199.030 C 157.075 199.582,157.752 199.463,159.426 198.654 C 160.773 198.003,161.875 197.178,161.875 196.821 C 161.875 196.464,162.482 196.259,163.223 196.367 C 163.965 196.475,164.704 196.172,164.867 195.694 C 165.064 195.114,164.876 194.977,164.300 195.280 C 163.826 195.529,164.030 195.217,164.753 194.585 C 166.750 192.843,167.107 191.313,165.422 191.718 C 164.309 191.986,164.204 191.894,164.844 191.210 C 165.273 190.751,165.625 189.869,165.625 189.250 C 165.625 188.631,165.906 188.125,166.250 188.125 C 166.594 188.125,166.875 188.376,166.875 188.683 C 166.875 190.680,168.783 189.702,169.131 187.526 C 169.588 184.664,171.250 184.667,171.250 187.530 C 171.250 188.504,171.531 189.475,171.875 189.688 C 172.219 189.900,172.500 189.703,172.500 189.249 C 172.500 187.492,175.556 185.005,177.039 185.555 C 177.808 185.840,179.844 185.960,181.563 185.823 C 183.281 185.685,185.250 185.531,185.938 185.481 C 186.625 185.431,187.356 185.143,187.562 184.841 C 188.349 183.691,197.500 183.466,197.500 184.597 C 197.500 185.198,196.996 185.625,196.287 185.625 C 195.620 185.625,194.891 185.921,194.667 186.283 C 194.443 186.645,193.935 186.824,193.536 186.680 C 192.314 186.239,190.625 187.474,190.625 188.809 C 190.625 189.505,190.344 189.900,190.000 189.688 C 189.656 189.475,189.375 189.653,189.375 190.083 C 189.375 190.546,189.050 190.420,188.577 189.773 C 188.077 189.089,187.377 188.836,186.702 189.095 C 185.456 189.573,185.286 191.286,186.375 192.375 C 186.958 192.958,186.889 193.125,186.063 193.125 C 185.478 193.125,185.000 193.547,185.000 194.063 C 185.000 194.578,185.328 195.000,185.729 195.000 C 186.130 195.000,186.295 195.163,186.095 195.363 C 185.534 195.925,183.073 194.404,183.179 193.561 C 183.563 190.501,183.123 189.366,181.856 190.151 C 180.823 190.791,180.489 190.780,180.059 190.090 C 179.691 189.499,179.402 189.451,179.104 189.933 C 178.869 190.314,178.904 190.638,179.182 190.653 C 179.460 190.669,178.844 191.068,177.813 191.540 C 176.781 192.012,176.280 192.421,176.699 192.449 C 177.139 192.479,177.296 192.929,177.072 193.514 C 176.740 194.377,176.517 194.308,175.563 193.045 C 174.278 191.344,172.632 192.188,173.388 194.159 C 173.683 194.928,173.958 195.049,174.269 194.547 C 175.024 193.324,176.436 194.679,175.962 196.172 C 175.712 196.960,175.812 197.500,176.208 197.500 C 176.797 197.500,177.162 196.192,176.949 194.844 C 176.832 194.103,178.423 194.298,179.250 195.125 C 179.833 195.708,180.167 195.708,180.750 195.125 C 181.162 194.712,181.661 194.375,181.857 194.375 C 182.580 194.375,182.009 200.016,181.148 201.392 C 180.463 202.485,180.265 205.335,180.285 213.750 L 180.313 224.688 290.000 224.688 L 399.688 224.688 399.688 112.500 L 399.688 0.313 307.321 0.313 C 225.893 0.313,214.885 0.424,214.372 1.250 C 214.007 1.838,214.017 2.266,214.399 2.397 C 214.734 2.512,214.822 2.907,214.595 3.275 C 214.357 3.661,214.476 3.762,214.876 3.514 C 215.258 3.278,215.408 2.661,215.209 2.143 C 214.922 1.395,215.315 1.232,217.111 1.353 C 219.868 1.539,219.875 1.589,217.381 3.106 C 215.556 4.216,215.516 4.304,216.912 4.145 C 219.245 3.879,221.875 3.040,221.875 2.560 C 221.875 2.324,222.859 2.064,224.063 1.983 C 225.384 1.894,226.250 2.121,226.250 2.557 C 226.250 3.071,226.523 3.051,227.203 2.487 C 227.727 2.053,228.351 1.893,228.591 2.132 C 228.830 2.372,228.613 2.860,228.107 3.218 C 227.361 3.746,227.403 3.798,228.332 3.496 C 228.962 3.292,229.806 3.121,230.207 3.115 C 230.638 3.110,230.553 2.834,230.000 2.441 C 229.267 1.922,229.438 1.837,230.781 2.052 C 231.727 2.203,232.500 2.116,232.500 1.858 C 232.500 1.079,234.559 1.499,235.652 2.500 C 236.286 3.082,236.467 3.709,236.128 4.153 C 235.827 4.546,235.624 5.109,235.677 5.403 C 235.978 7.082,235.609 7.816,234.936 6.875 C 234.398 6.122,234.327 6.214,234.575 7.343 C 234.744 8.116,234.611 8.917,234.279 9.122 C 233.945 9.329,234.180 9.878,234.806 10.353 C 236.194 11.405,237.742 11.522,237.128 10.528 C 236.851 10.081,236.956 9.977,237.405 10.254 C 237.925 10.575,237.944 11.046,237.473 11.926 C 237.112 12.600,237.014 13.470,237.255 13.859 C 237.501 14.257,237.417 14.397,237.063 14.179 C 236.517 13.841,235.662 15.066,234.963 17.188 C 234.501 18.590,233.439 19.251,232.664 18.617 C 231.447 17.622,230.164 18.478,228.766 21.220 C 227.636 23.433,225.625 24.715,225.625 23.221 C 225.625 22.929,225.063 22.043,224.375 21.250 C 223.688 20.457,223.125 19.430,223.125 18.967 C 223.125 18.504,222.703 18.125,222.188 18.125 C 221.672 18.125,221.250 18.349,221.250 18.623 C 221.250 18.897,220.507 19.108,219.599 19.092 C 218.018 19.064,217.325 18.377,216.660 16.180 C 216.080 14.262,213.858 14.356,211.941 16.381 C 209.665 18.786,209.504 18.945,206.875 21.403 C 205.672 22.527,204.377 24.008,203.998 24.693 C 202.372 27.630,195.000 26.309,195.000 23.080 C 195.000 21.698,193.686 21.522,191.828 22.656 C 190.748 23.316,190.418 23.261,189.709 22.306 C 189.180 21.592,188.719 21.420,188.461 21.838 C 187.865 22.801,185.816 22.649,185.418 21.611 C 185.208 21.066,184.577 20.853,183.785 21.060 C 183.075 21.246,182.071 21.047,181.555 20.618 C 180.815 20.004,179.821 19.996,176.864 20.577 C 174.800 20.983,172.871 21.167,172.577 20.985 C 172.283 20.803,171.539 21.210,170.924 21.890 C 169.571 23.385,167.648 23.471,165.723 22.124 C 164.406 21.201,164.233 21.205,163.520 22.180 C 162.815 23.144,162.674 23.150,161.922 22.244 C 161.468 21.697,160.612 21.250,160.019 21.250 C 159.426 21.250,158.293 20.688,157.502 20.001 C 155.815 18.539,154.071 19.394,154.601 21.423 C 155.221 23.794,152.756 25.682,151.563 23.750 C 150.665 22.298,149.231 23.114,149.497 24.924 C 149.682 26.185,149.423 26.935,148.631 27.430 C 147.868 27.905,147.500 27.921,147.500 27.477 C 147.500 25.647,138.473 29.008,135.625 31.898 C 133.332 34.225,130.852 35.166,129.260 34.313 C 128.315 33.808,127.851 33.807,127.539 34.312 C 127.304 34.693,125.863 35.168,124.337 35.368 C 122.811 35.569,121.250 36.131,120.869 36.617 C 120.487 37.102,119.730 37.500,119.187 37.500 C 118.643 37.500,118.025 37.781,117.813 38.125 C 117.183 39.144,115.285 38.842,113.501 37.439 C 111.908 36.185,111.739 36.172,109.674 37.152 C 108.067 37.915,107.203 38.010,106.298 37.526 C 104.504 36.566,104.198 36.712,104.517 38.380 C 104.724 39.464,104.568 39.795,103.958 39.561 C 103.383 39.340,103.235 39.559,103.497 40.243 C 103.755 40.914,103.545 41.250,102.870 41.250 C 101.769 41.250,101.815 40.500,103.277 34.688 C 103.852 32.400,104.362 31.561,105.180 31.557 C 105.794 31.554,106.644 30.851,107.069 29.994 C 107.543 29.038,108.477 28.363,109.487 28.245 C 110.587 28.117,111.250 27.584,111.488 26.637 C 111.683 25.859,112.786 23.976,113.938 22.454 C 117.325 17.981,119.319 13.234,118.707 11.101 C 118.094 8.961,118.688 7.148,120.712 4.987 C 121.688 3.944,122.121 2.835,121.990 1.706 L 121.792 0.000 61.189 0.000 C 13.281 0.000,0.524 0.164,0.289 0.781 M126.250 0.902 C 126.250 2.490,128.884 6.419,129.395 5.593 C 129.651 5.179,130.173 5.033,130.555 5.269 C 131.312 5.737,131.535 2.720,130.871 0.989 C 130.370 -0.317,126.250 -0.394,126.250 0.902 M133.125 0.541 C 133.125 0.838,133.720 1.837,134.446 2.761 C 135.796 4.477,136.540 4.443,136.555 2.666 C 136.567 1.082,137.776 1.096,139.505 2.699 C 141.350 4.408,144.374 3.152,143.555 1.017 C 143.128 -0.094,133.125 -0.552,133.125 0.541 M239.601 19.644 C 240.673 19.479,240.663 19.560,239.471 20.670 C 237.858 22.172,236.253 22.227,236.240 20.781 C 236.232 19.847,236.143 19.824,235.625 20.625 C 235.107 21.426,235.018 21.403,235.010 20.469 C 235.004 19.867,235.408 19.375,235.906 19.375 C 236.405 19.375,237.122 19.867,237.499 20.469 C 238.075 21.388,238.124 21.314,237.801 20.000 C 237.590 19.138,237.647 18.748,237.928 19.130 C 238.208 19.511,238.961 19.742,239.601 19.644 M251.250 25.279 C 251.250 26.246,248.797 27.342,247.344 27.023 C 245.672 26.657,246.042 25.175,247.969 24.519 C 249.932 23.851,251.250 24.156,251.250 25.279 M170.545 28.687 C 171.940 29.571,171.118 30.541,169.491 29.929 C 168.696 29.630,168.220 29.102,168.434 28.755 C 168.907 27.990,169.418 27.973,170.545 28.687 M250.269 29.929 C 250.457 30.234,250.217 30.810,249.736 31.210 C 249.122 31.720,248.738 31.736,248.447 31.265 C 248.219 30.896,248.264 30.634,248.547 30.684 C 249.811 30.903,250.233 30.554,249.375 30.000 C 248.812 29.636,248.735 29.390,249.182 29.385 C 249.591 29.379,250.080 29.624,250.269 29.929 M152.184 31.244 C 152.394 31.585,151.567 32.340,150.346 32.922 C 149.124 33.505,148.125 34.217,148.125 34.504 C 148.125 35.140,141.668 41.875,141.058 41.875 C 140.820 41.875,140.625 41.453,140.625 40.938 C 140.625 40.422,140.983 40.000,141.420 40.000 C 141.858 40.000,142.746 39.016,143.394 37.813 C 144.042 36.609,144.809 35.625,145.098 35.625 C 145.388 35.625,145.626 35.273,145.627 34.844 C 145.628 34.414,146.471 33.500,147.500 32.813 C 148.529 32.125,149.372 31.352,149.373 31.094 C 149.376 30.399,151.740 30.525,152.184 31.244 M233.365 32.150 C 233.044 32.988,232.838 33.047,232.446 32.413 C 232.154 31.940,232.249 31.405,232.671 31.144 C 233.650 30.539,233.864 30.850,233.365 32.150 M237.549 33.407 C 238.057 33.093,238.018 32.816,237.410 32.431 C 236.843 32.072,236.809 31.891,237.307 31.885 C 238.556 31.869,238.794 32.935,237.738 33.812 C 236.893 34.513,236.606 34.458,235.870 33.451 C 235.391 32.796,235.000 32.596,235.000 33.006 C 235.000 33.415,234.684 33.750,234.298 33.750 C 233.782 33.750,233.781 33.528,234.293 32.911 C 234.676 32.450,234.921 31.947,234.838 31.793 C 234.755 31.639,235.172 32.038,235.764 32.679 C 236.356 33.321,237.159 33.648,237.549 33.407 M92.188 36.250 C 91.953 36.989,91.620 37.454,91.448 37.282 C 91.276 37.110,91.328 36.364,91.563 35.625 C 91.797 34.886,92.130 34.421,92.302 34.593 C 92.474 34.765,92.422 35.511,92.188 36.250 M70.057 36.406 C 70.089 36.836,70.175 37.891,70.248 38.750 C 70.322 39.609,70.436 41.075,70.503 42.007 C 70.570 42.939,71.142 44.204,71.775 44.819 C 73.342 46.343,73.978 48.173,72.781 47.714 C 72.283 47.523,71.875 47.131,71.875 46.843 C 71.875 46.555,70.916 45.273,69.744 43.993 C 66.676 40.645,66.314 35.625,69.139 35.625 C 69.613 35.625,70.026 35.977,70.057 36.406 M78.994 39.531 C 79.354 41.059,79.223 41.250,77.824 41.250 C 76.308 41.250,75.720 40.114,76.719 39.115 C 76.977 38.857,77.223 38.388,77.266 38.073 C 77.447 36.740,77.526 36.653,78.044 37.219 C 78.344 37.545,78.771 38.586,78.994 39.531 M129.512 38.855 C 133.872 41.064,133.973 41.225,132.035 42.892 C 131.088 43.707,129.696 44.374,128.943 44.374 C 128.190 44.375,127.400 44.656,127.188 45.000 C 126.975 45.344,126.023 45.625,125.071 45.625 C 123.329 45.625,122.854 42.502,124.447 41.518 C 124.751 41.330,125.000 40.349,125.000 39.338 C 125.000 37.101,125.866 37.008,129.512 38.855 M95.258 38.503 C 95.800 38.711,96.095 39.120,95.914 39.413 C 95.514 40.060,93.750 39.464,93.750 38.683 C 93.750 38.024,93.948 38.000,95.258 38.503 M107.518 40.959 C 107.956 41.487,108.290 42.746,108.262 43.757 C 108.219 45.258,108.363 45.455,109.045 44.829 C 109.504 44.407,109.837 43.819,109.784 43.521 C 109.731 43.222,110.180 42.896,110.781 42.795 C 111.383 42.693,111.875 42.839,111.875 43.118 C 111.875 43.397,112.920 43.625,114.198 43.625 C 115.476 43.625,116.625 43.936,116.751 44.316 C 116.878 44.697,117.239 44.849,117.553 44.655 C 117.868 44.460,118.125 45.144,118.125 46.175 C 118.125 47.933,117.942 48.075,115.156 48.479 C 113.523 48.716,111.625 49.212,110.938 49.581 C 110.250 49.950,109.311 50.315,108.851 50.391 C 108.392 50.468,107.548 50.936,106.976 51.431 C 106.405 51.927,105.106 52.530,104.090 52.773 C 103.075 53.015,101.863 53.756,101.399 54.419 C 100.934 55.082,100.241 55.625,99.858 55.625 C 99.474 55.625,98.647 56.090,98.018 56.659 C 97.228 57.375,96.875 57.450,96.875 56.905 C 96.875 56.461,96.466 56.273,95.938 56.476 C 95.356 56.699,95.000 56.473,95.000 55.881 C 95.000 55.323,94.676 55.091,94.219 55.322 C 93.789 55.540,93.913 55.326,94.495 54.848 C 95.567 53.966,97.782 48.502,96.830 49.091 C 95.932 49.645,95.163 47.278,95.463 44.886 C 95.921 41.233,97.609 41.384,98.485 45.156 C 98.545 45.414,98.648 45.695,98.715 45.781 C 98.782 45.867,98.943 46.752,99.073 47.748 C 99.203 48.744,99.647 49.869,100.059 50.248 C 100.625 50.769,100.680 50.708,100.284 50.000 C 99.842 49.209,99.916 49.189,100.762 49.874 C 101.381 50.376,101.908 50.452,102.142 50.074 C 102.350 49.737,102.245 49.291,101.909 49.084 C 101.529 48.849,101.510 48.147,101.859 47.230 C 102.168 46.418,102.227 45.523,101.991 45.241 C 101.755 44.959,102.064 45.113,102.678 45.584 C 103.606 46.296,104.050 46.301,105.334 45.614 C 106.898 44.776,107.397 43.750,106.240 43.750 C 105.891 43.750,105.669 42.906,105.748 41.875 C 105.908 39.776,106.347 39.549,107.518 40.959 M93.125 46.895 C 93.125 47.249,92.703 47.701,92.188 47.899 C 91.672 48.097,91.250 48.651,91.250 49.129 C 91.250 49.608,90.953 50.000,90.590 50.000 C 90.225 50.000,90.426 49.160,91.037 48.125 C 92.142 46.254,93.125 45.675,93.125 46.895 M96.685 54.339 C 96.869 55.046,97.244 55.625,97.518 55.625 C 98.252 55.625,97.816 53.543,97.026 53.279 C 96.620 53.144,96.483 53.569,96.685 54.339 M92.500 56.932 C 93.206 57.431,93.244 57.674,92.656 57.912 C 92.227 58.087,91.875 58.575,91.875 58.997 C 91.875 59.837,85.844 62.709,85.076 62.235 C 84.816 62.074,83.919 62.569,83.083 63.336 C 81.601 64.695,77.092 67.102,76.703 66.743 C 76.595 66.644,75.817 66.999,74.973 67.532 C 74.128 68.066,72.172 68.905,70.625 69.398 C 66.714 70.643,58.255 79.618,56.554 84.327 C 55.985 85.900,55.361 87.609,55.166 88.125 C 53.262 93.159,54.492 101.370,57.646 104.674 C 61.266 108.467,60.466 111.396,55.875 111.159 C 54.400 111.082,53.316 110.822,53.465 110.581 C 53.614 110.339,53.388 109.869,52.962 109.536 C 51.780 108.612,49.419 108.173,49.028 108.805 C 48.019 110.438,46.235 110.667,45.610 109.244 C 45.264 108.457,44.425 106.969,43.744 105.938 C 42.446 103.970,40.002 98.944,39.997 98.229 C 39.995 98.000,39.319 96.970,38.495 95.939 C 36.698 93.694,37.140 92.422,40.132 91.223 C 41.263 90.770,43.387 89.590,44.854 88.601 C 47.327 86.931,47.677 86.858,49.697 87.589 C 52.077 88.449,53.222 87.905,53.454 85.803 C 53.521 85.190,53.791 84.183,54.053 83.567 C 54.315 82.950,54.370 82.287,54.175 82.092 C 53.980 81.897,54.356 80.739,55.010 79.519 C 55.665 78.298,56.054 77.063,55.876 76.775 C 55.697 76.486,55.849 76.250,56.213 76.250 C 56.577 76.250,56.875 75.696,56.875 75.019 C 56.875 73.811,59.226 68.750,59.787 68.750 C 59.945 68.750,59.935 68.974,59.766 69.249 C 59.059 70.392,60.604 71.620,61.418 70.563 C 61.841 70.013,62.335 69.591,62.515 69.625 C 62.695 69.660,63.521 69.055,64.351 68.281 C 65.181 67.508,65.629 66.875,65.346 66.875 C 65.063 66.875,65.547 66.313,66.421 65.625 C 68.234 64.198,69.005 64.018,68.427 65.156 C 68.208 65.586,68.543 65.375,69.171 64.688 C 69.864 63.929,70.927 63.510,71.875 63.621 C 73.159 63.772,73.271 63.678,72.500 63.093 C 71.700 62.486,71.722 62.434,72.656 62.734 C 74.426 63.303,75.523 62.566,75.154 61.053 C 74.862 59.857,75.035 59.920,76.546 61.563 C 77.495 62.594,78.080 63.083,77.846 62.651 C 77.113 61.298,78.090 59.193,79.072 60.008 C 79.673 60.507,80.582 60.523,82.242 60.065 C 84.646 59.401,85.914 59.652,85.286 60.668 C 85.088 60.988,85.071 61.250,85.247 61.250 C 85.703 61.250,89.026 57.908,89.131 57.344 C 89.179 57.086,89.254 56.734,89.297 56.563 C 89.436 56.007,91.535 56.250,92.500 56.932 M61.644 66.575 C 61.432 67.127,60.976 67.404,60.629 67.190 C 60.283 66.976,60.000 67.146,60.000 67.567 C 60.000 67.989,59.811 68.145,59.581 67.914 C 59.350 67.684,59.702 66.970,60.362 66.328 C 61.723 65.005,62.211 65.099,61.644 66.575 M59.481 74.219 C 58.607 75.918,59.308 77.196,60.356 75.814 C 60.826 75.195,61.219 74.336,61.230 73.906 C 61.259 72.755,60.131 72.957,59.481 74.219 M319.263 78.842 C 319.152 79.596,318.506 80.316,317.813 80.462 C 313.336 81.401,312.968 81.408,313.251 80.551 C 313.407 80.076,314.779 78.736,316.299 77.573 C 319.197 75.355,319.744 75.590,319.263 78.842 M297.500 79.375 C 297.500 80.063,297.235 80.625,296.912 80.625 C 296.073 80.625,295.482 79.487,295.938 78.750 C 296.591 77.693,297.500 78.057,297.500 79.375 M300.605 81.741 C 300.532 83.376,298.866 84.402,297.882 83.418 C 296.686 82.221,296.634 81.741,297.596 80.779 C 298.327 80.048,300.647 80.789,300.605 81.741 M311.801 82.969 C 311.634 84.024,311.904 84.995,312.344 84.926 C 313.680 84.715,314.257 85.147,314.528 86.563 C 314.692 87.422,314.617 88.125,314.361 88.125 C 313.470 88.125,313.208 90.696,314.066 91.025 C 314.572 91.220,314.779 91.891,314.583 92.706 C 314.404 93.452,314.267 94.561,314.278 95.170 C 314.290 95.779,314.066 96.133,313.781 95.956 C 313.495 95.780,312.803 96.336,312.241 97.193 C 311.680 98.049,311.509 98.750,311.861 98.750 C 312.212 98.750,312.500 98.517,312.500 98.233 C 312.500 97.949,313.341 97.840,314.369 97.991 C 315.396 98.142,316.095 98.495,315.921 98.777 C 315.747 99.058,315.910 99.477,316.282 99.708 C 316.655 99.938,316.832 100.460,316.676 100.867 C 316.520 101.274,316.852 101.643,317.415 101.687 C 320.127 101.900,321.137 102.177,320.857 102.630 C 320.689 102.902,320.849 103.125,321.213 103.125 C 322.227 103.125,322.000 107.244,320.938 108.125 C 320.422 108.553,320.000 108.681,320.000 108.410 C 320.000 108.139,319.837 108.080,319.638 108.279 C 319.438 108.478,319.767 109.392,320.367 110.308 C 321.819 112.524,325.197 112.059,327.500 109.325 C 328.774 107.812,330.446 107.071,336.563 105.305 C 340.688 104.114,344.998 102.829,346.141 102.450 C 348.530 101.657,349.022 101.908,348.472 103.640 C 348.108 104.788,342.338 108.125,340.719 108.125 C 339.891 108.125,339.858 108.278,340.386 109.654 C 340.598 110.207,341.335 110.961,342.024 111.330 C 342.928 111.814,343.158 111.809,342.851 111.312 C 342.592 110.893,342.990 110.599,343.869 110.559 C 349.669 110.292,352.312 110.908,351.187 112.264 C 350.645 112.916,350.658 113.125,351.239 113.125 C 351.662 113.125,352.845 113.830,353.869 114.692 C 354.893 115.553,356.004 116.089,356.338 115.883 C 357.147 115.383,360.000 116.124,360.000 116.833 C 360.000 117.470,351.675 122.084,349.507 122.648 C 348.515 122.906,347.654 122.598,346.695 121.639 C 345.129 120.075,340.931 119.914,335.396 121.204 C 333.723 121.594,331.811 121.741,331.147 121.530 C 330.483 121.319,329.535 121.483,329.041 121.893 C 328.534 122.314,327.455 122.467,326.571 122.245 C 325.293 121.925,325.000 122.080,325.000 123.076 C 325.000 124.825,323.812 125.324,322.834 123.986 C 322.099 122.980,321.815 122.946,320.423 123.691 C 319.514 124.177,318.164 124.363,317.236 124.130 C 316.261 123.886,315.625 123.989,315.625 124.390 C 315.625 124.756,315.133 124.972,314.531 124.871 C 313.720 124.735,313.393 125.172,313.266 126.563 C 312.942 130.110,312.510 131.102,311.133 131.462 C 310.374 131.660,309.410 131.538,308.992 131.191 C 308.442 130.735,307.738 131.177,306.459 132.780 C 305.485 134.001,304.239 135.000,303.691 135.000 C 303.142 135.000,302.185 135.563,301.563 136.250 C 300.940 136.938,299.857 137.500,299.156 137.500 C 298.455 137.500,297.118 138.231,296.185 139.125 C 295.178 140.090,293.767 140.753,292.713 140.756 C 285.450 140.782,283.706 141.800,285.918 144.724 C 287.122 146.316,287.189 150.625,286.009 150.625 C 285.533 150.625,284.677 149.913,284.107 149.043 C 283.207 147.670,281.328 147.359,282.170 148.722 C 282.601 149.420,281.412 150.207,278.438 151.193 C 277.063 151.648,275.195 152.715,274.287 153.562 C 271.968 155.727,271.442 154.398,273.096 150.554 C 273.834 148.838,274.277 146.926,274.080 146.305 C 273.879 145.671,274.139 144.831,274.673 144.387 C 275.197 143.952,275.625 142.712,275.625 141.631 C 275.625 140.550,276.314 138.652,277.155 137.413 C 277.997 136.174,278.877 134.399,279.111 133.467 C 279.345 132.536,279.922 131.626,280.393 131.445 C 280.864 131.264,281.250 130.584,281.250 129.933 C 281.250 129.282,281.499 128.750,281.803 128.750 C 282.773 128.750,284.528 125.499,284.627 123.519 C 284.708 121.918,285.035 121.543,286.635 121.215 C 287.686 121.000,288.874 120.622,289.273 120.375 C 289.673 120.128,290.000 120.224,290.000 120.588 C 290.000 120.952,289.670 121.250,289.266 121.250 C 288.862 121.250,289.111 121.883,289.819 122.656 C 290.527 123.430,291.294 124.681,291.523 125.437 C 291.784 126.301,292.275 126.682,292.844 126.464 C 293.418 126.244,293.750 126.509,293.750 127.188 C 293.750 127.883,293.421 128.133,292.813 127.899 C 291.565 127.420,291.595 129.006,292.857 130.268 C 293.972 131.382,295.000 131.554,295.000 130.625 C 295.000 130.281,295.452 130.000,296.004 130.000 C 296.691 130.000,296.880 129.665,296.603 128.942 C 296.051 127.505,299.310 120.788,300.739 120.414 C 301.467 120.224,301.875 119.537,301.875 118.503 C 301.875 116.735,303.563 114.375,304.826 114.375 C 305.266 114.375,305.625 114.142,305.625 113.858 C 305.625 113.198,301.985 113.629,300.197 114.501 C 299.446 114.868,298.181 115.003,297.385 114.802 C 295.993 114.451,295.984 114.472,297.151 115.344 C 297.818 115.842,298.559 116.250,298.797 116.250 C 299.035 116.250,299.359 116.927,299.517 117.755 C 299.711 118.769,299.555 119.165,299.041 118.968 C 298.620 118.806,298.313 118.199,298.357 117.618 C 298.418 116.813,298.010 116.608,296.636 116.755 C 295.087 116.921,294.882 116.768,295.171 115.662 C 295.572 114.129,294.467 113.225,293.690 114.451 C 293.390 114.925,293.140 115.092,293.135 114.822 C 293.129 114.552,292.555 114.636,291.857 115.009 C 291.160 115.382,290.758 115.959,290.963 116.292 C 291.168 116.624,291.646 116.704,292.024 116.470 C 292.462 116.200,292.573 116.409,292.329 117.045 C 292.118 117.594,292.260 118.149,292.646 118.278 C 293.031 118.406,293.141 118.844,292.889 119.251 C 292.551 119.799,291.832 119.690,290.122 118.833 C 288.852 118.197,287.180 117.730,286.406 117.796 C 285.628 117.862,285.000 117.564,285.000 117.128 C 285.000 116.143,286.716 114.381,287.701 114.356 C 288.106 114.346,287.950 114.053,287.354 113.706 C 286.271 113.075,287.007 110.625,288.279 110.625 C 289.531 110.625,296.232 105.824,297.151 104.269 C 299.010 101.122,300.187 96.038,300.209 91.065 C 300.223 87.964,300.428 86.545,300.774 87.163 C 301.073 87.698,301.157 88.394,300.961 88.712 C 300.765 89.029,300.934 89.492,301.336 89.741 C 301.739 89.990,301.909 89.936,301.715 89.622 C 301.521 89.308,302.476 88.509,303.838 87.847 C 305.199 87.185,307.072 85.717,308.000 84.586 C 309.490 82.770,312.001 81.701,311.801 82.969 M327.925 88.085 C 327.114 89.759,323.987 90.971,323.547 89.781 C 323.359 89.274,323.029 89.319,322.422 89.935 C 321.949 90.416,321.885 90.628,322.278 90.408 C 323.655 89.637,323.492 91.575,322.065 92.946 C 321.273 93.708,320.603 94.129,320.577 93.884 C 320.551 93.638,320.438 92.964,320.326 92.385 C 320.214 91.806,320.658 90.849,321.311 90.257 C 322.787 88.922,322.810 88.177,321.407 87.151 C 320.047 86.156,320.391 85.792,323.144 85.316 C 324.337 85.109,325.875 84.383,326.563 83.702 C 328.154 82.125,329.193 85.466,327.925 88.085 M33.125 92.813 C 33.125 93.328,32.860 93.750,32.537 93.750 C 31.749 93.750,31.184 92.774,31.684 92.275 C 32.388 91.571,33.125 91.846,33.125 92.813 M29.375 94.479 C 29.375 94.766,29.586 94.967,29.844 94.926 C 31.186 94.714,31.623 95.178,31.758 96.960 C 31.841 98.038,31.458 99.607,30.907 100.446 C 30.197 101.531,30.024 102.670,30.313 104.377 C 30.641 106.320,30.470 107.030,29.422 108.078 C 28.709 108.791,28.125 109.642,28.125 109.969 C 28.125 110.296,27.773 110.789,27.344 111.064 C 25.433 112.291,23.651 115.034,23.388 117.156 C 23.228 118.446,23.351 119.309,23.668 119.113 C 24.620 118.525,24.929 121.156,23.998 121.929 C 23.518 122.327,23.125 123.181,23.125 123.827 C 23.125 124.472,22.703 125.000,22.188 125.000 C 21.518 125.000,21.250 124.319,21.250 122.619 C 21.250 121.310,20.837 119.693,20.332 119.026 C 19.828 118.358,19.402 117.250,19.385 116.563 C 19.363 115.617,19.224 115.520,18.817 116.163 C 18.521 116.631,18.411 117.521,18.573 118.141 C 18.759 118.853,18.380 119.529,17.541 119.978 C 16.812 120.368,16.407 120.998,16.642 121.378 C 16.892 121.783,16.783 121.892,16.378 121.642 C 15.820 121.297,13.890 123.657,14.269 124.219 C 14.783 124.978,14.206 125.516,13.542 124.897 C 12.629 124.044,12.571 118.902,13.458 117.467 C 13.752 116.991,14.080 114.227,14.187 111.325 C 14.555 101.319,16.096 99.156,20.928 101.870 C 23.389 103.252,24.125 103.058,24.479 100.938 C 24.594 100.250,25.055 99.300,25.505 98.826 C 25.954 98.352,26.158 97.538,25.958 97.017 C 25.758 96.496,26.025 95.594,26.550 95.014 C 27.542 93.917,29.375 93.570,29.375 94.479 M54.990 112.656 C 54.996 112.227,55.586 111.875,56.302 111.875 C 57.121 111.875,57.469 112.165,57.240 112.656 C 57.040 113.086,56.709 113.904,56.505 114.473 C 56.077 115.670,53.741 113.857,53.760 112.344 C 53.766 111.823,53.971 111.875,54.375 112.500 C 54.779 113.125,54.984 113.177,54.990 112.656 M288.542 127.292 C 288.313 127.521,288.125 128.174,288.125 128.743 C 288.125 129.916,290.540 135.025,290.640 134.063 C 290.675 133.719,290.982 134.134,291.322 134.985 C 291.794 136.169,292.064 136.331,292.468 135.676 C 293.191 134.507,292.053 131.485,290.388 130.152 C 289.639 129.553,289.125 128.570,289.247 127.969 C 289.478 126.821,289.240 126.593,288.542 127.292 M336.404 130.151 C 336.547 130.577,336.309 131.280,335.876 131.713 C 334.719 132.870,334.239 132.671,334.956 131.332 C 335.300 130.690,335.403 129.987,335.186 129.770 C 334.969 129.553,335.096 129.375,335.469 129.375 C 335.841 129.375,336.262 129.724,336.404 130.151 M104.219 137.656 C 103.825 138.839,101.875 139.007,101.875 137.858 C 101.875 137.279,102.409 136.875,103.177 136.875 C 103.941 136.875,104.372 137.198,104.219 137.656 M112.326 138.737 C 113.735 139.418,114.991 140.284,115.117 140.663 C 115.243 141.041,116.323 141.551,117.517 141.795 C 121.374 142.584,119.512 143.316,114.216 143.093 C 111.382 142.974,107.938 142.921,106.563 142.976 C 102.263 143.147,102.028 142.689,105.024 139.978 C 108.156 137.144,108.802 137.034,112.326 138.737 M132.613 157.606 C 133.921 163.620,133.929 163.750,132.965 163.750 C 131.706 163.750,130.268 158.173,130.556 154.406 C 130.684 152.725,131.995 154.764,132.613 157.606 M102.188 156.719 L 100.938 157.043 102.188 157.597 C 103.336 158.106,103.323 158.129,102.031 157.884 C 101.258 157.737,100.625 157.919,100.625 158.288 C 100.625 158.657,100.444 158.778,100.223 158.557 C 99.606 157.939,101.275 156.241,102.420 156.323 C 103.142 156.374,103.074 156.489,102.188 156.719 M270.871 157.240 C 271.105 157.848,270.965 158.134,270.508 157.982 C 269.574 157.670,269.060 156.250,269.881 156.250 C 270.217 156.250,270.662 156.695,270.871 157.240 M97.036 160.075 C 96.757 161.145,93.369 162.952,92.768 162.352 C 92.594 162.178,93.090 161.318,93.871 160.442 C 95.482 158.633,97.474 158.402,97.036 160.075 M134.621 165.364 C 135.951 168.830,133.719 174.410,131.886 172.201 C 131.185 171.356,131.163 170.907,131.778 169.924 C 132.198 169.250,132.390 168.453,132.204 168.152 C 131.755 167.426,132.937 164.375,133.668 164.375 C 133.983 164.375,134.412 164.820,134.621 165.364 M152.039 175.184 C 154.095 177.176,155.623 178.960,155.436 179.148 C 154.635 179.948,152.339 178.429,148.188 174.352 C 145.752 171.958,143.477 170.000,143.133 170.000 C 142.660 170.000,142.626 168.154,143.079 167.077 C 143.156 166.893,148.068 171.338,152.039 175.184 M158.125 180.104 C 158.125 180.505,158.291 180.667,158.495 180.463 C 158.698 180.260,160.079 180.614,161.563 181.250 C 163.046 181.886,164.425 182.242,164.626 182.040 C 165.022 181.645,167.500 184.248,167.500 185.059 C 167.500 186.679,166.035 186.179,158.792 182.089 C 156.432 180.756,155.589 179.375,157.135 179.375 C 157.680 179.375,158.125 179.703,158.125 180.104 M201.563 184.127 C 202.767 185.054,202.745 185.082,200.986 184.889 C 199.981 184.778,199.043 184.336,198.902 183.906 C 198.550 182.835,200.045 182.959,201.563 184.127 M114.159 187.786 C 113.956 188.316,113.288 188.717,112.676 188.677 C 111.632 188.610,111.631 188.587,112.656 188.319 C 113.258 188.162,113.750 187.585,113.750 187.038 C 113.750 186.490,113.925 186.217,114.140 186.431 C 114.354 186.646,114.363 187.255,114.159 187.786 M123.107 190.782 C 122.258 191.112,120.328 191.475,118.820 191.589 C 117.312 191.704,115.779 192.096,115.414 192.461 C 114.595 193.280,111.455 193.337,110.964 192.543 C 110.452 191.714,111.822 191.019,114.369 190.816 C 117.394 190.574,120.069 190.139,120.368 189.840 C 120.505 189.703,121.526 189.724,122.635 189.886 C 124.634 190.180,124.638 190.188,123.107 190.782 M162.819 192.490 C 162.639 192.780,162.782 193.162,163.137 193.337 C 163.491 193.513,163.423 193.584,162.984 193.495 C 162.546 193.406,162.090 192.832,161.971 192.218 C 161.837 191.523,162.017 191.264,162.450 191.532 C 162.833 191.768,162.998 192.199,162.819 192.490 M167.500 195.313 C 167.500 195.885,167.802 196.253,168.172 196.130 C 168.541 196.007,168.844 195.639,168.844 195.313 C 168.844 194.986,168.541 194.618,168.172 194.495 C 167.802 194.372,167.500 194.740,167.500 195.313 M148.647 206.007 C 148.876 205.869,149.425 206.149,149.868 206.628 C 150.312 207.108,150.593 207.522,150.493 207.548 C 147.861 208.244,146.659 207.540,147.360 205.713 C 147.607 205.070,147.813 205.000,147.981 205.504 C 148.119 205.919,148.419 206.145,148.647 206.007 " stroke="none" fill="#000000" fill-rule="evenodd"></path></g></svg>