<svg id="svg" xmlns="http://www.w3.org/2000/svg" xmlns:xlink="http://www.w3.org/1999/xlink" width="400" height="225" viewBox="0, 0, 400,225"><g id="svgg"><path id="path0" d="M0.289 0.781 C 0.125 1.211,0.064 51.766,0.152 113.125 L 0.313 224.688 74.335 224.836 C 141.472 224.970,148.460 224.891,149.463 223.983 C 150.563 222.987,153.413 223.004,155.743 224.020 C 156.591 224.389,156.882 224.037,157.220 222.233 C 157.707 219.639,157.106 218.681,153.603 216.470 C 149.903 214.134,150.587 210.625,154.743 210.625 C 157.738 210.625,159.835 208.695,158.950 206.752 C 158.501 205.766,158.465 204.862,158.849 204.176 C 159.320 203.335,159.083 202.972,157.689 202.401 C 155.395 201.461,154.927 201.318,153.438 201.111 C 152.750 201.016,152.022 200.712,151.819 200.437 C 151.616 200.162,150.864 199.893,150.147 199.839 C 149.062 199.758,148.952 199.540,149.489 198.536 C 150.011 197.561,150.239 197.496,150.683 198.197 C 150.984 198.673,151.239 198.781,151.250 198.438 C 151.261 198.094,151.538 198.234,151.866 198.750 C 152.370 199.543,152.668 199.560,153.796 198.860 C 154.530 198.405,154.944 198.335,154.716 198.704 C 154.450 199.134,155.100 199.375,156.526 199.375 C 157.883 199.375,158.754 199.679,158.760 200.156 C 158.766 200.641,158.943 200.700,159.228 200.312 C 159.481 199.967,160.451 199.292,161.385 198.811 C 162.318 198.330,162.947 197.717,162.781 197.449 C 162.615 197.181,162.765 196.785,163.115 196.569 C 163.464 196.353,163.750 196.474,163.750 196.838 C 163.750 198.074,164.727 197.507,165.838 195.625 C 166.447 194.594,166.733 193.750,166.473 193.750 C 166.213 193.750,166.324 193.426,166.721 193.029 C 167.233 192.517,167.254 191.958,166.792 191.095 C 166.229 190.043,166.311 189.935,167.412 190.285 C 168.586 190.657,170.015 187.389,169.509 185.491 C 169.444 185.246,169.808 185.206,170.320 185.402 C 170.831 185.598,171.270 186.502,171.294 187.411 C 171.338 189.079,172.309 191.961,172.534 191.094 C 172.870 189.804,172.975 189.323,173.047 188.750 C 173.090 188.406,173.441 188.195,173.828 188.281 C 174.215 188.367,174.673 188.047,174.847 187.569 C 175.058 186.987,174.898 186.864,174.360 187.197 C 173.841 187.517,173.711 187.444,173.991 186.991 C 174.239 186.589,175.593 186.376,177.162 186.494 C 178.667 186.607,180.264 186.473,180.710 186.198 C 181.156 185.922,181.868 185.985,182.293 186.337 C 182.737 186.706,183.676 186.771,184.501 186.490 C 185.291 186.222,186.157 186.061,186.425 186.132 C 186.693 186.204,187.734 185.838,188.738 185.319 C 190.823 184.240,193.750 184.063,193.750 185.016 C 193.750 185.368,192.869 185.832,191.792 186.048 C 190.646 186.277,189.710 186.910,189.537 187.574 C 189.279 188.560,187.615 189.560,186.071 189.657 C 185.801 189.674,185.340 190.075,185.047 190.549 C 184.754 191.023,184.183 191.205,183.778 190.955 C 181.752 189.703,176.291 191.050,177.231 192.571 C 177.420 192.876,177.267 193.125,176.892 193.125 C 176.517 193.125,176.060 192.731,175.875 192.249 C 175.354 190.891,173.462 191.507,173.227 193.111 C 172.982 194.772,174.290 195.849,175.417 194.913 C 176.014 194.418,176.104 194.792,175.815 196.574 C 175.552 198.189,175.701 199.043,176.314 199.438 C 177.057 199.916,177.058 200.084,176.323 200.557 C 175.181 201.293,174.764 206.515,175.706 208.276 C 176.513 209.784,176.816 211.867,177.139 218.125 C 177.254 220.359,177.383 222.821,177.424 223.595 L 177.500 225.003 288.594 224.845 L 399.688 224.688 399.688 112.500 L 399.688 0.313 295.938 0.205 C 203.983 0.109,186.898 0.232,187.649 0.983 C 187.842 1.176,189.991 1.657,193.438 2.280 C 196.039 2.751,197.224 3.460,196.330 4.013 C 195.942 4.253,195.625 4.151,195.625 3.787 C 195.625 3.423,195.149 3.125,194.568 3.125 C 193.646 3.125,193.666 3.242,194.724 4.043 C 196.424 5.328,196.667 5.245,197.406 3.125 C 198.164 0.951,199.341 0.674,199.833 2.553 C 200.092 3.543,200.300 3.656,200.702 3.022 C 201.139 2.333,201.233 2.337,201.240 3.045 C 201.248 3.725,201.439 3.747,202.160 3.148 C 203.227 2.262,204.597 2.875,203.953 3.949 C 203.709 4.355,204.056 4.275,204.724 3.771 C 206.605 2.349,206.648 2.273,205.313 2.714 C 204.096 3.117,204.095 3.103,205.248 2.209 C 206.975 0.871,207.404 1.502,206.821 4.518 C 206.095 8.269,206.069 8.194,207.958 7.720 C 208.897 7.485,210.092 7.296,210.614 7.301 C 211.136 7.307,211.769 7.002,212.022 6.624 C 212.342 6.145,212.484 6.168,212.490 6.699 C 212.496 7.118,212.920 7.300,213.434 7.102 C 213.948 6.905,214.255 6.562,214.117 6.339 C 213.979 6.116,214.614 5.918,215.527 5.900 C 216.440 5.882,218.172 5.672,219.375 5.434 C 220.824 5.148,221.254 5.200,220.650 5.588 C 219.982 6.017,220.275 6.159,221.743 6.117 C 222.847 6.085,223.750 5.830,223.750 5.550 C 223.750 5.269,224.143 5.190,224.624 5.375 C 225.105 5.559,225.684 5.410,225.911 5.043 C 226.138 4.675,226.886 4.375,227.574 4.375 C 228.261 4.375,228.673 4.131,228.488 3.832 C 228.304 3.534,229.080 3.323,230.212 3.364 L 232.272 3.438 231.031 5.542 C 230.070 7.172,229.945 7.893,230.475 8.743 C 230.975 9.542,230.969 10.031,230.455 10.545 C 229.932 11.068,230.095 11.250,231.088 11.250 C 231.824 11.250,232.603 11.536,232.819 11.885 C 233.035 12.235,233.444 12.377,233.728 12.201 C 234.012 12.026,234.409 12.313,234.611 12.840 C 234.820 13.383,234.578 13.951,234.052 14.153 C 233.542 14.349,233.125 14.921,233.125 15.424 C 233.125 16.199,233.275 16.189,234.107 15.357 C 235.517 13.948,236.029 14.143,234.719 15.590 C 234.115 16.258,232.897 16.891,232.013 16.996 C 230.578 17.167,229.305 18.578,227.753 21.719 C 227.100 23.038,226.436 22.612,224.589 19.689 C 223.612 18.142,222.670 16.877,222.496 16.876 C 222.322 16.876,221.281 17.133,220.183 17.447 C 218.290 17.990,218.152 17.913,217.505 15.953 C 216.315 12.345,213.277 12.510,211.148 16.298 C 210.390 17.646,209.414 18.750,208.978 18.750 C 208.543 18.750,207.962 19.147,207.687 19.633 C 205.611 23.300,202.629 25.407,199.757 25.237 C 196.083 25.021,195.625 24.713,195.625 22.463 C 195.625 20.421,192.984 19.711,192.274 21.562 C 191.810 22.772,190.966 22.751,189.715 21.500 C 188.915 20.701,188.531 20.654,187.795 21.264 C 187.066 21.870,186.661 21.850,185.841 21.170 C 185.273 20.699,184.272 20.403,183.617 20.514 C 182.962 20.625,182.091 20.455,181.681 20.136 C 180.579 19.276,178.172 18.794,177.820 19.363 C 177.212 20.346,172.970 20.759,172.409 19.889 C 172.008 19.269,171.780 19.409,171.494 20.453 C 171.030 22.144,167.383 23.075,165.934 21.872 C 165.424 21.449,164.410 21.258,163.681 21.449 C 162.952 21.640,161.896 21.568,161.334 21.289 C 160.772 21.010,159.188 20.210,157.813 19.512 C 154.863 18.013,153.769 18.656,154.206 21.631 C 154.399 22.949,154.140 23.771,153.334 24.390 C 152.704 24.875,152.394 25.027,152.647 24.729 C 153.250 24.015,151.222 22.550,150.182 22.949 C 149.738 23.119,149.375 23.941,149.375 24.774 C 149.375 26.456,147.647 27.499,146.890 26.274 C 146.547 25.719,146.282 25.693,145.979 26.183 C 145.744 26.564,144.724 26.875,143.713 26.875 C 142.702 26.875,141.313 27.438,140.625 28.125 C 139.938 28.813,138.775 29.375,138.042 29.375 C 136.770 29.375,134.375 31.478,134.375 32.596 C 134.375 32.887,133.949 33.125,133.429 33.125 C 132.909 33.125,131.952 33.457,131.303 33.862 C 130.357 34.453,129.800 34.388,128.499 33.535 C 127.094 32.614,126.875 32.599,126.875 33.423 C 126.875 34.064,126.263 34.375,125.000 34.375 C 123.969 34.375,123.125 34.656,123.125 35.000 C 123.125 35.344,122.452 35.625,121.629 35.625 C 120.807 35.625,119.989 36.002,119.812 36.463 C 119.372 37.611,113.816 37.655,112.064 36.525 C 111.308 36.038,110.539 35.883,110.354 36.182 C 109.752 37.157,106.909 37.356,106.177 36.475 C 105.789 36.008,105.085 35.625,104.611 35.625 C 104.070 35.625,103.750 34.924,103.750 33.738 C 103.750 32.037,103.904 31.890,105.313 32.243 C 106.589 32.564,106.875 32.407,106.875 31.385 C 106.875 30.147,108.203 29.169,109.983 29.097 C 110.489 29.076,111.345 27.863,111.885 26.400 C 112.425 24.938,113.910 22.494,115.184 20.970 C 116.458 19.446,117.500 17.804,117.500 17.322 C 117.500 16.839,118.039 15.956,118.699 15.359 C 119.769 14.390,119.809 14.065,119.076 12.320 C 118.135 10.083,118.650 8.108,120.821 5.625 C 122.422 3.794,123.750 1.531,123.750 0.633 C 123.750 -0.380,0.674 -0.233,0.289 0.781 M126.250 0.625 C 126.250 0.969,126.616 1.250,127.063 1.250 C 127.574 1.250,127.875 2.059,127.875 3.438 C 127.875 6.249,128.791 7.232,130.540 6.296 C 131.793 5.625,131.898 4.035,130.903 0.781 C 130.621 -0.142,126.250 -0.289,126.250 0.625 M133.125 0.354 C 133.125 0.548,133.448 1.321,133.844 2.072 C 135.069 4.400,137.252 5.297,136.586 3.199 C 135.986 1.308,137.841 1.156,139.765 2.939 C 140.800 3.898,141.600 4.262,141.742 3.838 C 141.872 3.446,142.518 3.125,143.177 3.125 C 144.552 3.125,144.622 2.880,143.728 1.209 C 143.109 0.052,133.125 -0.754,133.125 0.354 M208.510 3.836 C 207.696 4.999,207.500 5.070,207.500 4.202 C 207.500 3.609,207.811 3.125,208.192 3.125 C 208.593 3.125,208.709 2.665,208.467 2.031 C 208.149 1.196,208.224 1.110,208.785 1.666 C 209.347 2.224,209.283 2.733,208.510 3.836 M202.254 4.114 C 201.743 5.446,201.777 6.250,202.344 6.250 C 202.602 6.249,202.853 5.546,202.903 4.687 C 203.006 2.889,202.796 2.703,202.254 4.114 M231.919 6.168 C 231.575 6.810,231.472 7.513,231.689 7.730 C 231.906 7.947,231.755 8.125,231.354 8.125 C 230.953 8.125,230.625 7.966,230.625 7.771 C 230.625 7.190,231.894 5.000,232.231 5.000 C 232.403 5.000,232.263 5.526,231.919 6.168 M210.857 6.120 C 211.026 6.393,210.620 6.656,209.957 6.706 C 209.293 6.756,208.750 6.534,208.750 6.211 C 208.750 5.500,210.429 5.427,210.857 6.120 M171.615 13.527 C 171.398 14.092,171.361 14.694,171.533 14.866 C 171.932 15.265,173.750 13.774,173.750 13.048 C 173.750 12.078,172.022 12.465,171.615 13.527 M151.737 30.526 C 152.304 30.886,151.908 31.372,150.372 32.199 C 149.182 32.840,148.087 33.827,147.940 34.391 C 147.603 35.679,143.953 38.335,143.509 37.615 C 143.234 37.170,146.204 33.789,149.486 30.813 C 150.487 29.905,150.712 29.876,151.737 30.526 M234.172 31.036 C 233.946 31.262,234.035 31.778,234.370 32.182 C 234.791 32.689,234.692 32.917,234.053 32.917 C 233.542 32.917,233.263 32.778,233.432 32.610 C 233.601 32.441,233.426 31.925,233.043 31.464 C 232.505 30.815,232.601 30.625,233.465 30.625 C 234.080 30.625,234.398 30.810,234.172 31.036 M241.250 32.885 C 241.250 33.893,240.252 34.039,239.681 33.115 C 239.465 32.765,239.027 32.641,238.707 32.839 C 238.084 33.224,237.892 32.316,238.474 31.735 C 239.100 31.108,241.250 31.999,241.250 32.885 M70.202 39.825 C 70.513 42.121,71.190 44.121,71.920 44.905 C 72.583 45.616,73.125 46.363,73.125 46.566 C 73.125 47.208,70.040 44.716,70.020 44.057 C 70.009 43.710,69.478 43.100,68.840 42.701 C 67.441 41.828,66.620 37.623,67.614 36.425 C 68.870 34.911,69.679 35.974,70.202 39.825 M128.750 37.813 C 129.178 38.328,129.986 38.754,130.545 38.760 C 131.105 38.765,131.984 39.052,132.500 39.397 C 133.799 40.268,131.142 42.500,128.806 42.500 C 127.881 42.500,126.858 42.750,126.531 43.055 C 124.930 44.551,123.125 44.485,123.125 42.931 C 123.125 38.354,126.586 35.205,128.750 37.813 M78.640 40.208 C 78.756 40.811,78.443 41.250,77.895 41.250 C 76.734 41.250,76.033 40.231,76.583 39.342 C 77.148 38.427,78.396 38.953,78.640 40.208 M96.086 43.001 C 95.480 43.121,95.138 43.467,95.325 43.770 C 95.512 44.073,96.041 44.176,96.500 44.000 C 96.999 43.809,97.485 44.250,97.706 45.094 C 98.173 46.880,97.888 47.161,96.453 46.326 C 95.826 45.961,95.577 45.654,95.901 45.644 C 96.224 45.634,95.954 45.234,95.299 44.755 C 93.960 43.776,95.087 41.461,96.477 42.336 C 96.941 42.628,96.806 42.859,96.086 43.001 M112.010 43.573 C 113.367 43.652,114.861 44.236,115.604 44.979 C 116.303 45.678,117.176 46.250,117.545 46.250 C 119.418 46.250,115.802 48.332,113.664 48.485 C 112.293 48.582,110.803 48.968,110.352 49.342 C 109.902 49.716,109.076 49.846,108.517 49.631 C 107.958 49.417,107.500 49.521,107.500 49.862 C 107.500 50.451,104.420 52.169,102.577 52.608 C 101.385 52.891,100.991 49.635,101.940 47.344 C 102.568 45.827,102.795 45.682,103.256 46.505 C 103.959 47.762,105.000 47.796,105.000 46.563 C 105.000 46.047,105.262 45.625,105.583 45.625 C 105.903 45.625,106.344 45.063,106.563 44.375 C 107.026 42.916,108.125 42.696,108.125 44.063 C 108.125 44.578,108.425 45.000,108.792 45.000 C 109.184 45.000,109.296 44.421,109.064 43.594 C 108.846 42.820,108.897 42.469,109.178 42.813 C 109.458 43.156,110.733 43.498,112.010 43.573 M98.750 49.645 C 98.750 50.138,99.312 50.719,100.000 50.937 C 101.070 51.277,101.145 51.529,100.519 52.698 C 100.117 53.449,99.836 54.133,99.894 54.219 C 100.377 54.933,99.773 55.510,98.750 55.313 C 98.063 55.180,97.500 55.291,97.500 55.560 C 97.500 56.235,93.252 56.336,92.841 55.671 C 92.657 55.374,92.927 54.970,93.441 54.773 C 93.955 54.575,94.375 54.010,94.375 53.516 C 94.375 52.925,94.803 52.729,95.625 52.944 C 96.313 53.124,96.875 53.566,96.875 53.927 C 96.875 54.288,97.022 54.436,97.202 54.256 C 97.735 53.724,96.795 51.851,96.185 52.228 C 95.309 52.769,95.527 51.668,96.598 50.139 C 97.705 48.559,98.750 48.319,98.750 49.645 M91.495 56.142 C 92.418 57.634,89.438 61.250,87.285 61.250 C 86.611 61.250,86.374 59.372,86.999 58.986 C 87.419 58.726,87.517 58.841,87.247 59.278 C 87.002 59.675,86.936 60.000,87.100 60.000 C 87.264 60.000,88.006 59.016,88.750 57.813 C 90.095 55.637,90.886 55.155,91.495 56.142 M80.313 59.690 C 80.656 59.664,81.559 59.298,82.318 58.876 C 83.692 58.112,85.000 59.228,85.000 61.163 C 85.000 61.956,79.447 65.132,75.011 66.875 C 68.030 69.618,64.851 71.331,63.282 73.195 C 61.915 74.820,61.589 74.959,61.118 74.117 C 60.340 72.727,59.375 72.881,59.375 74.395 C 59.375 75.093,58.937 75.832,58.402 76.038 C 57.866 76.243,57.585 76.820,57.776 77.319 C 57.968 77.818,57.703 78.829,57.187 79.565 C 56.672 80.301,56.250 81.359,56.250 81.917 C 56.250 82.475,55.688 83.440,55.000 84.063 C 53.772 85.174,53.750 85.154,53.750 82.946 C 53.750 81.710,54.031 80.525,54.375 80.313 C 54.719 80.100,55.000 79.240,55.000 78.401 C 55.000 77.562,55.298 76.875,55.662 76.875 C 56.026 76.875,56.150 76.594,55.938 76.250 C 55.725 75.906,55.821 75.625,56.151 75.625 C 56.481 75.625,57.084 74.233,57.493 72.531 C 58.330 69.041,60.289 66.606,59.905 69.531 C 59.785 70.445,59.898 71.205,60.156 71.221 C 61.552 71.307,61.875 71.190,61.875 70.601 C 61.875 69.737,66.591 65.000,67.451 65.000 C 67.822 65.000,68.681 64.444,69.361 63.764 C 70.117 63.008,71.006 62.685,71.651 62.933 C 72.332 63.194,72.555 63.094,72.280 62.649 C 72.046 62.271,72.140 61.785,72.490 61.569 C 73.149 61.161,73.361 61.956,73.141 64.007 C 73.020 65.128,73.077 65.137,74.067 64.147 C 74.647 63.567,74.962 62.678,74.768 62.171 C 74.336 61.046,75.685 60.954,76.831 62.031 C 77.517 62.675,77.603 62.414,77.320 60.542 C 76.892 57.708,78.058 56.184,79.031 58.306 C 79.392 59.093,79.969 59.716,80.313 59.690 M60.018 77.166 C 59.587 77.686,58.941 77.931,58.585 77.710 C 58.187 77.465,58.378 76.985,59.078 76.474 C 60.487 75.443,61.083 75.882,60.018 77.166 M318.003 78.668 C 317.809 80.336,316.390 81.052,314.625 80.375 C 313.853 80.079,313.924 79.714,315.054 78.185 C 316.669 76.001,318.282 76.265,318.003 78.668 M323.049 85.565 C 324.119 86.242,323.405 87.568,322.216 87.112 C 321.075 86.674,320.445 84.997,321.426 85.010 C 321.845 85.015,322.575 85.265,323.049 85.565 M312.368 87.611 C 312.295 88.581,311.994 89.375,311.700 89.375 C 311.406 89.375,311.369 90.008,311.618 90.781 C 312.811 94.489,311.963 96.450,308.499 97.999 C 307.238 98.563,306.884 99.009,307.338 99.463 C 307.792 99.917,308.392 99.901,309.308 99.411 C 310.032 99.023,310.629 98.927,310.635 99.197 C 310.640 99.467,310.917 99.266,311.250 98.750 C 311.654 98.125,311.859 98.073,311.865 98.594 C 311.871 99.023,312.173 99.375,312.537 99.375 C 312.901 99.375,312.998 99.050,312.753 98.653 C 312.478 98.210,312.581 98.101,313.020 98.372 C 313.897 98.914,313.663 100.787,312.551 102.127 C 311.847 102.974,311.881 103.125,312.773 103.125 C 313.351 103.125,313.641 102.829,313.418 102.468 C 312.738 101.368,318.326 102.003,319.375 103.145 C 320.439 104.305,320.950 105.900,320.086 105.366 C 319.773 105.172,319.133 105.487,318.665 106.064 C 318.079 106.787,318.056 106.968,318.594 106.646 C 319.689 105.987,319.566 106.594,318.360 107.801 C 317.423 108.738,317.455 108.934,318.781 110.346 C 321.313 113.041,327.465 111.699,326.940 108.566 C 326.846 108.005,330.306 106.447,332.569 106.032 C 333.390 105.881,335.609 105.316,337.500 104.775 C 342.318 103.398,344.375 103.110,344.375 103.811 C 344.375 104.143,343.883 104.602,343.281 104.832 C 342.680 105.061,341.642 105.756,340.976 106.375 C 340.310 106.994,339.536 107.500,339.257 107.500 C 338.978 107.500,338.202 108.048,337.532 108.718 C 336.230 110.020,337.745 111.320,339.385 110.306 C 339.740 110.087,339.954 110.267,339.859 110.706 C 339.765 111.146,339.969 111.523,340.313 111.544 C 340.656 111.565,341.333 111.832,341.815 112.137 C 342.471 112.552,342.559 112.471,342.164 111.815 C 341.745 111.121,341.823 111.085,342.536 111.647 C 343.032 112.037,344.297 112.539,345.347 112.763 C 346.398 112.988,347.647 113.712,348.124 114.374 C 348.646 115.098,349.255 115.367,349.652 115.048 C 350.016 114.757,351.008 114.782,351.860 115.104 C 353.871 115.864,352.536 116.805,349.761 116.583 C 348.689 116.497,347.418 116.739,346.935 117.120 C 346.396 117.545,342.954 117.813,338.006 117.813 C 331.791 117.813,329.831 118.011,329.415 118.685 C 328.748 119.765,326.875 119.136,326.875 117.832 C 326.875 117.306,326.594 116.875,326.250 116.875 C 325.906 116.875,325.625 117.125,325.625 117.430 C 325.625 117.736,324.672 118.165,323.506 118.383 C 322.068 118.653,321.277 119.205,321.042 120.102 C 320.742 121.252,320.365 121.380,318.158 121.084 C 314.345 120.572,313.070 121.080,313.413 122.974 C 313.786 125.028,312.768 126.875,311.265 126.875 C 310.610 126.875,309.921 127.123,309.734 127.425 C 309.128 128.405,306.286 128.609,305.552 127.725 C 304.558 126.527,304.135 126.639,301.948 128.682 C 298.843 131.583,295.900 130.427,297.737 127.028 C 298.247 126.085,299.081 124.421,299.591 123.332 C 300.102 122.242,301.108 121.035,301.828 120.650 C 302.745 120.159,303.042 119.537,302.822 118.569 C 302.459 116.974,303.401 115.614,305.625 114.521 C 307.174 113.759,306.339 113.755,298.125 114.480 C 297.609 114.525,296.372 114.339,295.376 114.065 C 294.082 113.710,293.689 113.770,294.002 114.277 C 294.277 114.722,294.103 114.856,293.533 114.638 C 292.265 114.151,291.764 115.239,292.459 116.974 C 292.782 117.779,293.064 118.086,293.085 117.656 C 293.141 116.564,294.375 116.673,294.375 117.770 C 294.375 119.230,292.092 119.521,289.875 118.346 C 288.741 117.744,287.250 117.335,286.563 117.437 C 285.429 117.605,285.459 117.481,286.875 116.113 C 287.734 115.283,288.619 114.691,288.841 114.798 C 289.063 114.905,289.398 114.591,289.587 114.099 C 289.775 113.608,289.594 113.069,289.184 112.902 C 288.773 112.735,288.930 112.576,289.531 112.549 C 290.184 112.520,290.625 112.006,290.625 111.276 C 290.625 110.472,291.642 109.470,293.594 108.352 C 298.657 105.451,299.588 103.664,301.291 93.591 C 302.311 87.557,304.155 85.679,308.965 85.776 C 312.446 85.847,312.501 85.876,312.368 87.611 M51.526 88.125 C 53.133 88.125,53.133 88.127,52.786 92.507 C 52.444 96.803,54.113 103.753,55.725 104.749 C 56.205 105.046,58.125 109.087,58.125 109.801 C 58.125 109.951,57.873 109.918,57.565 109.728 C 57.258 109.538,56.845 109.802,56.648 110.316 C 56.450 110.830,55.929 111.246,55.488 111.240 C 54.928 111.234,54.969 111.049,55.625 110.625 C 56.416 110.114,56.383 110.018,55.410 110.010 C 54.776 110.004,54.117 109.461,53.945 108.803 C 53.559 107.329,50.832 106.550,49.609 107.565 C 47.576 109.253,43.125 104.177,43.125 100.171 C 43.125 99.450,42.315 98.179,41.324 97.346 C 40.011 96.241,39.671 95.566,40.069 94.855 C 40.442 94.187,40.321 93.767,39.682 93.522 C 38.127 92.925,38.630 92.012,40.933 91.252 C 42.133 90.855,43.328 90.170,43.589 89.729 C 44.436 88.295,47.714 86.946,48.861 87.559 C 49.442 87.870,50.641 88.125,51.526 88.125 M320.911 90.668 C 320.713 90.988,320.135 91.250,319.626 91.250 C 318.866 91.250,318.845 91.094,319.507 90.378 C 320.364 89.450,321.516 89.688,320.911 90.668 M29.099 95.059 C 29.331 95.435,30.171 95.619,30.964 95.467 C 32.633 95.148,32.621 99.036,30.946 101.428 C 30.338 102.295,30.258 103.096,30.669 104.179 C 31.370 106.023,30.538 107.870,28.751 108.437 C 28.063 108.656,27.500 109.335,27.500 109.946 C 27.500 111.833,25.671 114.842,24.308 115.199 C 23.310 115.460,23.111 115.847,23.441 116.885 C 23.825 118.095,23.735 118.161,22.559 117.532 C 21.839 117.146,21.250 116.419,21.250 115.916 C 21.250 114.416,20.531 114.835,17.424 118.144 C 15.538 120.154,14.313 121.031,14.031 120.574 C 13.788 120.182,13.969 119.626,14.433 119.339 C 14.897 119.052,15.076 118.618,14.831 118.373 C 14.586 118.128,14.641 117.620,14.952 117.245 C 15.722 116.318,16.388 111.815,16.508 106.727 C 16.603 102.695,17.832 99.712,18.569 101.723 C 18.727 102.154,19.114 102.349,19.428 102.155 C 19.743 101.960,20.000 102.116,20.000 102.500 C 20.000 102.884,20.262 103.037,20.582 102.839 C 20.902 102.641,21.351 102.782,21.579 103.152 C 21.847 103.585,22.288 103.424,22.817 102.701 C 23.269 102.082,23.499 101.350,23.328 101.073 C 23.157 100.797,23.337 100.185,23.728 99.714 C 24.118 99.244,24.579 98.080,24.752 97.129 C 25.253 94.363,27.892 93.106,29.099 95.059 M311.976 110.612 C 309.377 112.063,308.917 112.503,310.407 112.112 C 311.464 111.834,315.097 109.374,314.375 109.425 C 314.203 109.437,313.124 109.971,311.976 110.612 M297.790 115.860 C 298.248 115.684,298.807 115.837,299.032 116.200 C 299.280 116.602,299.060 116.715,298.470 116.488 C 297.936 116.284,297.500 116.428,297.500 116.808 C 297.500 117.189,296.938 117.500,296.250 117.500 C 295.563 117.500,295.000 117.228,295.000 116.895 C 295.000 116.562,295.425 116.452,295.945 116.652 C 296.544 116.882,296.810 116.703,296.672 116.163 C 296.553 115.695,296.568 115.508,296.705 115.746 C 296.843 115.985,297.331 116.036,297.790 115.860 M290.625 120.694 C 291.416 121.263,291.392 121.313,290.469 121.016 C 288.924 120.519,289.112 121.410,290.906 123.095 C 292.061 124.180,292.353 124.956,292.093 126.253 C 291.481 129.313,293.609 132.091,296.089 131.469 C 297.993 130.991,297.951 132.484,296.007 134.309 L 294.515 135.712 292.414 132.777 C 291.258 131.163,290.390 129.477,290.485 129.031 C 290.738 127.844,289.328 127.193,288.690 128.201 C 287.828 129.561,288.035 131.250,289.063 131.250 C 289.578 131.250,290.022 131.602,290.048 132.031 C 290.074 132.461,290.186 133.281,290.297 133.854 C 290.516 134.981,288.264 135.879,286.712 135.283 C 285.133 134.678,284.565 135.975,283.647 142.283 C 283.586 142.702,282.873 142.883,281.946 142.715 C 280.999 142.543,280.087 142.785,279.704 143.309 C 276.505 147.684,275.198 142.210,278.098 136.587 C 278.800 135.225,279.375 133.618,279.375 133.015 C 279.375 132.412,279.962 131.605,280.679 131.221 C 281.395 130.838,281.852 130.393,281.692 130.234 C 281.533 130.074,282.212 129.134,283.201 128.145 C 284.844 126.502,285.299 125.113,285.055 122.478 C 284.982 121.686,286.606 120.791,289.375 120.097 C 289.547 120.054,290.109 120.323,290.625 120.694 M294.279 128.144 C 294.468 129.439,294.368 129.523,293.498 128.800 C 292.318 127.821,292.157 126.033,293.281 126.403 C 293.711 126.545,294.160 127.328,294.279 128.144 M110.957 138.758 C 111.872 139.105,112.767 139.949,112.946 140.633 C 113.125 141.318,113.799 141.875,114.448 141.875 C 115.095 141.875,115.625 142.156,115.625 142.500 C 115.625 142.844,114.048 143.125,112.120 143.125 C 108.693 143.125,108.623 143.090,109.007 141.563 C 109.222 140.703,109.223 140.000,109.008 140.000 C 108.793 140.000,108.064 140.703,107.388 141.563 C 106.712 142.422,105.617 143.125,104.955 143.125 C 103.375 143.125,103.427 142.838,105.469 140.279 C 107.285 138.003,108.261 137.732,110.957 138.758 M131.953 158.125 C 131.996 158.469,132.066 159.008,132.109 159.323 C 132.152 159.638,132.398 160.107,132.656 160.365 C 133.352 161.061,133.224 163.125,132.485 163.125 C 131.742 163.125,130.625 160.473,130.625 158.709 C 130.625 157.488,131.808 156.967,131.953 158.125 M95.625 160.625 C 94.185 162.065,93.685 162.202,93.906 161.094 C 94.097 160.139,95.046 159.397,96.094 159.385 C 96.559 159.379,96.369 159.881,95.625 160.625 M133.972 171.125 C 133.629 171.668,133.017 172.224,132.612 172.359 C 131.713 172.658,131.621 170.231,132.510 169.681 C 132.860 169.465,132.975 169.013,132.767 168.677 C 132.559 168.340,132.594 167.586,132.845 167.001 C 133.206 166.159,133.436 166.375,133.948 168.037 C 134.380 169.439,134.388 170.465,133.972 171.125 M143.403 168.364 C 143.855 168.191,144.821 168.807,145.550 169.734 C 146.997 171.574,147.342 172.941,146.094 171.893 C 145.664 171.532,144.539 170.657,143.594 169.948 C 142.648 169.239,141.897 168.328,141.924 167.923 C 141.961 167.370,142.049 167.373,142.277 167.934 C 142.444 168.344,142.951 168.538,143.403 168.364 M151.840 176.094 C 151.859 176.523,151.682 176.875,151.447 176.875 C 150.637 176.875,148.125 174.157,148.125 173.281 C 148.125 172.167,151.789 174.942,151.840 176.094 M153.954 178.916 C 153.521 179.631,152.500 178.813,152.500 177.751 C 152.500 176.991,152.656 176.970,153.372 177.632 C 153.851 178.075,154.113 178.653,153.954 178.916 M166.125 183.250 C 167.245 184.370,167.033 184.924,165.625 184.556 C 164.938 184.376,164.375 183.840,164.375 183.365 C 164.375 182.301,165.127 182.252,166.125 183.250 M128.433 189.993 C 128.652 190.347,128.401 190.452,127.845 190.238 C 127.311 190.034,126.875 190.149,126.875 190.496 C 126.875 190.848,125.226 191.125,123.125 191.125 C 121.063 191.125,119.375 191.003,119.375 190.855 C 119.375 189.632,127.719 188.837,128.433 189.993 M115.625 191.869 C 115.625 192.547,113.193 193.112,112.091 192.689 C 111.395 192.422,111.520 192.161,112.620 191.589 C 114.077 190.832,115.625 190.976,115.625 191.869 M157.728 192.891 C 157.682 193.191,157.441 194.106,157.193 194.922 C 156.883 195.939,156.959 196.272,157.433 195.979 C 157.849 195.722,158.125 196.038,158.125 196.771 C 158.125 199.364,155.342 199.106,154.321 196.419 C 153.669 194.705,154.128 192.274,155.002 192.814 C 155.297 192.996,155.724 192.845,155.952 192.477 C 156.420 191.720,157.857 192.054,157.728 192.891 M161.875 194.208 C 161.875 194.751,159.889 196.875,159.382 196.875 C 159.149 196.875,158.958 196.465,158.958 195.965 C 158.958 195.464,159.241 195.229,159.585 195.443 C 159.941 195.663,160.061 195.436,159.862 194.918 C 159.637 194.330,159.932 193.974,160.694 193.917 C 161.343 193.868,161.875 193.999,161.875 194.208 M167.322 195.187 C 166.979 196.080,167.836 198.003,168.344 197.482 C 168.502 197.320,168.728 196.654,168.847 196.002 C 169.100 194.612,167.808 193.921,167.322 195.187 M178.750 196.771 C 178.750 197.585,178.007 198.126,177.403 197.752 C 176.756 197.353,177.314 196.250,178.162 196.250 C 178.485 196.250,178.750 196.484,178.750 196.771 M161.965 217.442 C 161.336 217.833,161.306 218.086,161.850 218.422 C 162.707 218.952,163.351 218.483,163.034 217.559 C 162.904 217.181,162.463 217.132,161.965 217.442 M160.438 221.021 C 160.244 221.214,160.237 221.767,160.422 222.249 C 160.607 222.731,160.447 223.125,160.067 223.125 C 159.686 223.125,159.375 223.547,159.375 224.063 C 159.375 224.705,160.013 224.997,161.406 224.990 C 163.625 224.980,165.814 223.862,164.598 223.360 C 164.204 223.198,164.032 222.446,164.214 221.689 C 164.479 220.587,164.385 220.462,163.739 221.064 C 163.209 221.559,162.567 221.620,161.861 221.243 C 161.272 220.927,160.631 220.827,160.438 221.021 " stroke="none" fill="#000000" fill-rule="evenodd"></path></g></svg>