<svg id="svg" xmlns="http://www.w3.org/2000/svg" xmlns:xlink="http://www.w3.org/1999/xlink" width="400" height="225" viewBox="0, 0, 400,225"><g id="svgg"><path id="path0" d="M0.289 0.781 C 0.125 1.211,0.064 51.766,0.152 113.125 L 0.313 224.688 74.266 224.846 C 139.253 224.986,148.382 224.891,149.561 224.065 C 151.241 222.888,153.080 222.894,154.651 224.082 C 156.039 225.133,159.789 225.287,162.147 224.390 C 164.191 223.613,164.332 221.184,162.384 220.304 C 160.313 219.369,160.088 217.952,162.134 218.730 C 163.226 219.145,163.750 219.135,163.750 218.698 C 163.750 218.342,164.029 218.224,164.370 218.434 C 164.711 218.645,165.446 218.562,166.004 218.250 C 166.784 217.814,166.417 217.587,164.417 217.267 C 162.794 217.007,161.973 216.598,162.232 216.178 C 162.488 215.763,162.200 215.602,161.480 215.758 C 160.838 215.898,160.394 216.381,160.494 216.833 C 160.611 217.359,160.313 217.514,159.662 217.264 C 159.104 217.050,158.373 216.875,158.037 216.875 C 157.701 216.875,157.600 216.594,157.813 216.250 C 158.025 215.906,157.901 215.625,157.537 215.625 C 157.173 215.625,156.875 215.873,156.875 216.176 C 156.875 217.660,152.304 215.097,152.136 213.519 C 151.884 211.155,153.359 209.882,155.435 210.672 C 156.548 211.095,157.288 211.087,157.727 210.648 C 158.083 210.292,159.514 209.967,160.906 209.927 C 162.298 209.888,162.929 209.723,162.308 209.562 C 160.076 208.984,159.699 206.122,161.650 204.566 L 163.384 203.184 161.984 201.970 C 160.390 200.587,161.411 198.750,163.773 198.750 C 164.424 198.750,165.257 198.188,165.625 197.500 C 165.993 196.813,166.582 196.250,166.934 196.250 C 167.286 196.250,167.401 196.529,167.191 196.870 C 166.980 197.211,167.065 197.950,167.380 198.513 C 168.041 199.695,168.555 199.109,169.381 196.230 C 169.912 194.377,168.757 193.471,167.813 195.000 C 167.240 195.927,166.341 195.757,166.489 194.751 C 166.560 194.270,167.027 193.383,167.527 192.779 C 168.028 192.176,168.371 191.587,168.289 191.470 C 167.969 191.010,170.269 186.875,170.845 186.875 C 171.182 186.875,171.294 187.040,171.093 187.241 C 170.892 187.442,171.023 188.456,171.386 189.495 C 171.900 190.971,171.855 191.504,171.178 191.933 C 170.490 192.368,170.537 192.483,171.406 192.490 C 172.162 192.497,172.500 192.012,172.500 190.918 C 172.500 190.048,172.922 189.174,173.438 188.976 C 173.953 188.778,174.375 188.253,174.375 187.808 C 174.375 187.305,175.180 187.000,176.504 187.000 C 177.675 187.000,179.484 186.813,180.523 186.585 C 181.994 186.262,182.536 186.421,182.967 187.304 C 183.845 189.103,183.536 190.309,182.185 190.352 C 181.499 190.373,180.021 190.874,178.901 191.464 C 177.455 192.226,176.538 192.364,175.742 191.938 C 173.460 190.716,173.102 191.866,174.023 197.451 C 174.268 198.937,174.067 199.929,173.364 200.707 C 172.744 201.391,172.491 202.380,172.711 203.256 C 172.909 204.043,173.012 204.840,172.941 205.027 C 172.871 205.214,173.279 206.079,173.849 206.949 C 174.674 208.209,174.882 210.092,174.870 216.193 C 174.862 220.407,175.114 224.114,175.429 224.429 C 175.775 224.775,220.515 224.941,287.845 224.845 L 399.688 224.688 399.688 112.500 L 399.688 0.313 292.813 0.197 C 232.635 0.132,184.982 0.323,183.750 0.634 C 181.622 1.171,181.613 1.185,183.438 1.152 C 186.359 1.099,187.117 1.217,186.676 1.657 C 186.453 1.881,186.757 2.434,187.353 2.887 C 188.645 3.868,189.604 4.002,189.063 3.125 C 188.850 2.781,189.085 2.500,189.584 2.500 C 190.083 2.500,190.677 2.984,190.904 3.576 C 191.140 4.190,191.504 4.391,191.752 4.045 C 192.419 3.115,193.786 3.002,194.745 3.798 C 195.220 4.192,196.074 4.336,196.643 4.118 C 197.461 3.804,197.529 3.899,196.968 4.575 C 196.412 5.245,196.595 5.582,197.817 6.139 C 198.674 6.529,199.375 7.113,199.375 7.437 C 199.375 8.093,201.469 8.640,205.480 9.032 C 206.947 9.175,208.005 9.062,207.831 8.780 C 207.223 7.796,210.027 7.617,210.989 8.578 C 211.682 9.271,212.147 9.353,212.631 8.869 C 213.003 8.497,214.138 8.359,215.154 8.562 C 216.387 8.809,217.185 8.641,217.554 8.060 C 217.949 7.436,218.109 7.410,218.115 7.969 C 218.122 8.464,218.982 8.727,220.469 8.688 C 222.591 8.631,222.665 8.575,221.250 8.096 C 219.742 7.586,219.752 7.572,221.540 7.690 C 223.098 7.793,223.460 8.141,223.812 9.875 C 224.424 12.897,224.951 13.022,224.553 10.052 C 224.304 8.201,224.433 7.500,225.022 7.500 C 225.468 7.500,225.648 7.685,225.422 7.911 C 225.196 8.137,225.284 8.652,225.618 9.054 C 226.010 9.527,226.008 10.538,225.612 11.920 C 224.619 15.381,224.773 15.740,227.154 15.535 C 229.900 15.299,230.499 15.913,229.066 17.496 C 228.442 18.186,228.125 18.750,228.363 18.750 C 228.600 18.750,228.493 19.313,228.125 20.000 C 227.213 21.705,226.762 21.577,225.354 19.215 C 224.135 17.171,223.971 16.782,223.828 15.603 C 223.778 15.188,223.246 15.233,222.344 15.729 C 219.854 17.097,218.929 16.941,218.133 15.019 C 216.964 12.197,212.550 12.001,211.507 14.726 C 208.672 22.132,194.813 28.278,196.098 21.559 C 196.311 20.445,196.122 20.000,195.436 20.000 C 194.909 20.000,194.032 19.829,193.489 19.621 C 192.858 19.379,192.500 19.581,192.500 20.179 C 192.500 21.674,190.722 21.973,189.988 20.602 C 189.372 19.451,189.236 19.437,187.797 20.380 C 186.383 21.307,186.232 21.305,185.867 20.354 C 185.649 19.787,185.014 19.380,184.454 19.451 C 183.895 19.521,182.356 19.356,181.033 19.084 C 179.532 18.774,177.697 18.868,176.144 19.333 C 174.265 19.896,173.447 19.902,172.790 19.356 C 172.107 18.790,171.601 18.982,170.420 20.255 C 168.878 21.920,166.047 22.438,165.279 21.196 C 165.048 20.822,164.296 20.663,163.607 20.843 C 162.919 21.023,161.896 20.949,161.334 20.677 C 155.621 17.919,155.672 17.933,154.700 18.740 C 154.173 19.177,153.799 20.280,153.869 21.191 C 154.054 23.629,153.279 24.618,152.103 23.442 C 150.665 22.004,149.569 22.312,149.179 24.264 C 148.845 25.933,148.638 26.032,145.310 26.120 C 142.567 26.192,141.561 26.500,140.735 27.520 C 140.153 28.239,138.848 28.918,137.837 29.029 C 136.825 29.140,135.404 29.920,134.679 30.763 C 132.756 32.999,129.469 34.029,128.129 32.816 C 126.802 31.615,126.189 31.614,126.649 32.813 C 126.909 33.489,126.581 33.750,125.472 33.750 C 124.628 33.750,122.651 34.434,121.079 35.269 C 117.145 37.361,106.692 37.253,106.368 35.118 C 106.049 33.009,107.954 30.000,109.609 30.000 C 110.801 30.000,111.242 29.437,112.078 26.848 C 112.638 25.114,114.228 22.354,115.611 20.714 C 116.993 19.074,118.125 17.399,118.125 16.991 C 118.125 16.583,118.387 16.250,118.708 16.250 C 119.765 16.250,120.096 13.791,119.326 11.662 C 118.468 9.289,120.195 6.047,122.660 5.402 C 123.511 5.180,123.787 4.747,123.520 4.053 C 122.985 2.657,124.600 1.194,126.364 1.477 C 127.321 1.631,127.747 2.069,127.620 2.767 C 127.332 4.354,128.737 8.125,129.617 8.125 C 131.609 8.125,132.790 6.446,132.007 4.727 C 131.590 3.813,131.250 2.376,131.250 1.533 L 131.250 0.000 65.918 0.000 C 14.227 0.000,0.524 0.163,0.289 0.781 M133.455 1.381 C 134.277 4.120,137.104 5.731,137.158 3.491 C 137.201 1.729,138.478 1.603,140.078 3.203 C 140.977 4.102,141.574 4.342,141.732 3.867 C 141.868 3.459,142.538 3.125,143.221 3.125 C 144.150 3.125,144.412 2.772,144.262 1.719 C 144.075 0.398,143.727 0.301,138.544 0.131 C 133.049 -0.049,133.027 -0.044,133.455 1.381 M200.747 5.572 C 201.311 6.231,201.608 6.934,201.407 7.135 C 201.206 7.336,201.417 7.500,201.875 7.500 C 202.333 7.500,202.545 7.663,202.345 7.863 C 201.626 8.583,199.272 6.795,199.648 5.814 C 199.927 5.088,199.707 4.931,198.758 5.179 C 198.065 5.360,197.656 5.253,197.849 4.942 C 198.417 4.022,199.649 4.290,200.747 5.572 M172.181 12.895 C 171.497 13.395,171.049 13.862,171.185 13.933 C 171.322 14.004,171.226 14.717,170.972 15.516 C 170.336 17.519,171.030 17.972,172.430 16.469 C 174.878 13.842,174.684 11.064,172.181 12.895 M150.315 31.247 C 150.103 31.589,149.313 32.167,148.559 32.532 C 147.260 33.161,147.265 33.128,148.663 31.910 C 150.255 30.523,150.929 30.253,150.315 31.247 M105.248 33.494 C 105.706 34.688,105.144 35.788,104.332 35.286 C 103.588 34.826,103.568 32.500,104.308 32.500 C 104.615 32.500,105.038 32.947,105.248 33.494 M146.875 34.078 C 146.875 34.602,146.155 35.305,145.275 35.639 C 144.395 35.974,143.849 36.529,144.062 36.874 C 144.275 37.218,144.151 37.500,143.787 37.500 C 142.808 37.500,142.968 36.960,144.531 34.977 C 146.117 32.967,146.875 32.676,146.875 34.078 M69.550 38.349 C 69.474 39.601,69.685 40.625,70.019 40.625 C 70.830 40.625,70.795 42.321,69.973 42.829 C 69.013 43.422,67.369 41.819,67.687 40.601 C 67.838 40.024,67.695 39.076,67.369 38.494 C 66.970 37.781,67.028 37.131,67.544 36.509 C 68.771 35.031,69.699 35.883,69.550 38.349 M129.445 37.344 C 131.075 39.351,130.584 41.050,128.594 40.286 C 127.458 39.850,126.709 40.072,124.826 41.402 C 122.723 42.888,121.991 39.421,123.903 37.031 C 124.832 35.870,128.412 36.072,129.445 37.344 M78.750 40.379 C 78.750 40.858,78.328 41.250,77.813 41.250 C 77.297 41.250,76.875 40.697,76.875 40.020 C 76.875 39.183,77.175 38.904,77.813 39.149 C 78.328 39.347,78.750 39.901,78.750 40.379 M107.813 42.686 C 107.813 43.107,108.979 43.404,110.688 43.418 C 112.270 43.432,114.056 43.851,114.658 44.350 C 115.259 44.849,116.170 45.319,116.683 45.394 C 117.195 45.470,117.800 45.738,118.026 45.990 C 118.252 46.243,117.914 46.261,117.274 46.030 C 116.424 45.724,116.203 45.851,116.453 46.504 C 116.844 47.521,115.659 48.121,113.230 48.134 C 111.420 48.145,108.101 49.217,105.631 50.590 C 102.545 52.305,101.343 52.010,101.535 49.585 C 101.749 46.900,102.897 45.521,103.788 46.880 C 104.762 48.367,106.704 45.373,106.324 42.969 C 106.283 42.711,106.548 42.500,106.912 42.500 C 107.276 42.500,107.371 42.148,107.124 41.719 C 106.863 41.265,106.913 41.156,107.244 41.458 C 107.556 41.745,107.813 42.297,107.813 42.686 M99.268 50.614 L 100.647 52.478 99.386 53.739 C 97.903 55.222,96.762 55.397,97.274 54.063 C 97.472 53.547,97.322 53.125,96.942 53.125 C 96.561 53.125,96.320 53.451,96.406 53.849 C 96.640 54.931,93.046 56.790,92.678 55.777 C 92.521 55.346,92.117 55.163,91.780 55.371 C 91.442 55.580,91.256 55.232,91.364 54.598 C 91.593 53.269,94.217 51.681,95.420 52.142 C 95.868 52.314,96.183 52.254,96.119 52.009 C 95.396 49.236,97.545 48.284,99.268 50.614 M89.977 58.802 C 87.161 61.237,84.792 60.888,87.500 58.438 C 88.188 57.815,88.750 56.984,88.750 56.591 C 88.750 54.871,90.249 54.340,91.053 55.775 C 91.762 57.041,91.651 57.354,89.977 58.802 M78.750 58.438 C 78.750 59.490,79.856 59.645,81.216 58.784 C 82.449 58.004,84.375 59.114,84.375 60.603 C 84.375 61.656,76.695 66.075,74.124 66.503 C 71.663 66.911,64.309 70.302,63.106 71.583 C 62.309 72.431,61.294 73.125,60.850 73.125 C 59.406 73.125,62.360 69.014,65.176 67.104 C 67.726 65.375,68.042 65.074,69.294 63.190 C 69.674 62.618,70.272 62.489,71.031 62.816 C 73.063 63.690,73.819 63.673,74.175 62.744 C 74.377 62.217,74.979 61.982,75.611 62.183 C 76.226 62.378,77.077 62.070,77.568 61.475 C 78.243 60.657,78.263 60.363,77.656 60.159 C 76.549 59.786,76.683 57.500,77.813 57.500 C 78.328 57.500,78.750 57.922,78.750 58.438 M61.865 65.156 C 61.860 65.586,61.560 66.359,61.199 66.875 C 60.693 67.598,60.639 67.473,60.964 66.328 C 61.276 65.223,61.182 64.968,60.595 65.331 C 60.083 65.648,59.963 65.565,60.253 65.097 C 60.846 64.137,61.877 64.175,61.865 65.156 M59.768 70.262 C 59.722 71.437,59.475 72.609,59.217 72.866 C 58.960 73.123,58.750 73.959,58.750 74.725 C 58.750 75.490,58.328 76.278,57.813 76.476 C 57.297 76.674,56.875 77.244,56.875 77.742 C 56.875 78.952,54.872 82.409,53.968 82.759 C 53.041 83.119,53.237 82.069,54.565 79.562 C 55.148 78.462,55.625 77.126,55.625 76.594 C 55.625 76.061,55.859 75.625,56.146 75.625 C 56.432 75.625,56.693 75.273,56.724 74.844 C 56.800 73.824,57.460 70.609,57.879 69.219 C 58.482 67.220,59.857 67.980,59.768 70.262 M308.691 86.984 L 310.351 86.810 310.237 91.061 C 310.174 93.399,310.072 95.313,310.010 95.313 C 309.388 95.313,309.489 99.064,310.122 99.473 C 310.729 99.866,310.594 100.094,309.589 100.370 C 308.847 100.574,308.088 101.347,307.901 102.089 C 307.591 103.324,307.631 103.346,308.381 102.344 C 309.241 101.196,310.354 100.796,309.688 101.875 C 309.475 102.219,309.740 102.500,310.276 102.500 C 310.812 102.500,311.250 102.751,311.250 103.058 C 311.250 103.365,311.712 103.793,312.276 104.010 C 313.148 104.345,313.179 104.256,312.483 103.417 C 311.747 102.530,311.843 102.512,313.439 103.239 C 314.845 103.880,315.267 103.886,315.472 103.270 C 315.615 102.842,315.989 102.651,316.303 102.845 C 316.618 103.040,316.875 102.841,316.875 102.403 C 316.875 101.892,317.267 102.018,317.969 102.754 C 318.774 103.597,318.855 103.977,318.277 104.191 C 317.846 104.351,317.635 104.713,317.809 104.995 C 317.984 105.277,317.522 105.350,316.782 105.157 C 315.903 104.927,315.153 105.196,314.614 105.933 C 313.947 106.845,313.612 106.914,312.864 106.293 C 312.078 105.641,311.986 105.782,312.250 107.238 C 312.421 108.180,312.304 109.117,311.990 109.319 C 311.676 109.522,311.229 110.296,310.997 111.040 C 310.517 112.578,315.940 111.489,316.989 109.836 C 317.260 109.411,317.485 109.266,317.490 109.516 C 317.496 109.765,318.148 109.723,318.939 109.422 C 320.648 108.772,322.593 109.656,322.127 110.870 C 321.924 111.399,322.222 111.666,322.934 111.594 C 325.378 111.346,327.500 110.449,327.500 109.662 C 327.500 107.680,334.373 104.730,335.341 106.297 C 335.538 106.615,335.381 106.875,334.992 106.875 C 334.604 106.875,333.861 107.299,333.342 107.818 C 332.824 108.337,332.097 108.575,331.728 108.347 C 331.349 108.113,331.237 108.223,331.470 108.600 C 331.697 108.968,331.550 109.379,331.143 109.515 C 329.916 109.924,331.096 111.063,333.180 111.480 C 334.699 111.784,335.050 112.115,334.754 112.967 C 334.434 113.883,334.525 113.864,335.311 112.849 C 335.827 112.182,336.250 111.937,336.250 112.305 C 336.250 113.115,341.224 114.465,342.136 113.901 C 343.137 113.283,345.830 113.427,346.058 114.111 C 346.448 115.282,342.813 116.149,341.181 115.273 C 339.924 114.598,339.515 114.627,338.594 115.457 C 337.596 116.357,337.500 116.354,337.500 115.425 C 337.500 114.600,337.206 114.518,335.958 114.992 C 334.868 115.406,333.768 115.308,332.208 114.656 C 330.247 113.836,330.000 113.839,330.000 114.679 C 330.000 115.768,328.684 115.934,327.718 114.968 C 326.524 113.774,321.419 115.491,320.982 117.233 C 320.643 118.584,320.313 118.707,317.386 118.579 C 314.360 118.446,314.135 118.541,313.704 120.135 C 313.228 121.892,310.238 124.946,308.958 124.980 C 308.557 124.991,308.074 125.352,307.884 125.781 C 307.637 126.339,307.309 126.230,306.738 125.401 C 306.298 124.762,305.406 123.543,304.757 122.692 C 302.782 120.103,302.956 116.907,305.138 115.700 C 308.353 113.922,309.342 112.964,307.500 113.413 C 306.641 113.622,304.691 113.932,303.168 114.102 C 299.790 114.478,298.421 115.413,299.444 116.645 C 299.834 117.115,299.978 117.500,299.764 117.500 C 299.550 117.500,299.164 117.500,298.906 117.500 C 298.255 117.500,298.250 116.087,298.898 115.212 C 299.871 113.898,295.735 113.457,294.333 114.725 C 292.735 116.172,292.810 116.772,294.646 117.233 C 295.635 117.481,296.046 117.929,295.822 118.513 C 295.538 119.253,295.319 119.215,294.581 118.300 C 293.752 117.271,293.716 117.297,294.092 118.655 C 294.456 119.969,294.345 120.075,293.035 119.659 C 291.677 119.228,291.639 119.277,292.505 120.352 C 293.018 120.988,292.383 120.677,291.094 119.660 C 289.680 118.546,288.779 117.316,288.823 116.563 C 288.888 115.427,288.922 115.418,289.193 116.468 C 289.597 118.039,291.215 114.994,291.438 112.242 C 291.556 110.790,292.054 110.101,293.454 109.453 C 296.101 108.226,298.666 105.699,300.107 102.896 C 301.524 100.140,301.618 99.741,302.552 92.500 C 303.284 86.817,304.375 84.953,306.121 86.402 C 306.621 86.818,307.778 87.079,308.691 86.984 M51.782 93.750 C 51.694 97.160,52.007 99.374,52.933 101.875 C 54.217 105.342,53.820 106.980,52.052 105.513 C 51.494 105.049,51.250 105.047,51.250 105.506 C 51.250 105.869,50.670 106.350,49.960 106.575 C 48.241 107.121,44.304 103.220,44.771 101.434 C 44.947 100.760,44.653 99.865,44.106 99.411 C 43.566 98.963,43.125 98.210,43.125 97.736 C 43.125 97.262,42.904 96.875,42.635 96.875 C 42.365 96.875,41.694 96.102,41.144 95.156 C 40.013 93.212,40.582 90.625,42.142 90.625 C 42.655 90.625,43.719 89.948,44.506 89.120 C 48.378 85.049,51.948 87.321,51.782 93.750 M28.076 95.253 C 28.959 96.318,30.520 96.174,31.290 94.956 C 31.735 94.254,31.858 94.337,31.865 95.344 C 31.871 96.048,32.197 96.947,32.590 97.340 C 33.413 98.163,32.187 101.875,31.092 101.875 C 30.716 101.875,30.610 102.792,30.831 104.150 C 31.271 106.861,30.415 108.750,28.748 108.750 C 27.929 108.750,27.656 109.053,27.900 109.689 C 28.967 112.471,25.571 116.146,23.512 114.437 C 22.888 113.919,22.485 113.894,22.200 114.355 C 21.974 114.721,21.546 114.870,21.250 114.687 C 20.953 114.504,20.277 114.973,19.747 115.729 C 19.218 116.486,18.219 117.146,17.528 117.197 C 16.549 117.269,16.424 117.106,16.962 116.457 C 17.342 116.000,17.462 115.625,17.229 115.625 C 16.995 115.625,17.221 115.030,17.730 114.303 C 18.239 113.576,18.506 112.592,18.323 112.116 C 18.141 111.640,18.274 111.250,18.619 111.250 C 18.965 111.250,19.206 110.148,19.155 108.802 C 19.104 107.455,19.344 106.400,19.688 106.458 C 20.031 106.515,20.242 106.211,20.156 105.781 C 20.017 105.086,20.833 104.790,22.832 104.809 C 23.197 104.813,23.371 103.905,23.233 102.723 C 23.099 101.573,23.206 100.137,23.472 99.534 C 23.737 98.931,23.979 98.268,24.009 98.060 C 24.318 95.899,27.048 94.015,28.076 95.253 M306.875 98.661 C 306.875 99.303,308.768 100.190,309.205 99.753 C 309.358 99.601,308.895 99.162,308.179 98.779 C 307.461 98.395,306.875 98.342,306.875 98.661 M290.000 121.250 C 290.000 121.594,290.563 121.875,291.250 121.875 C 291.938 121.875,292.500 122.281,292.500 122.777 C 292.500 123.273,293.083 124.667,293.796 125.875 C 294.763 127.514,294.933 128.356,294.465 129.192 C 293.900 130.201,293.773 130.142,293.184 128.594 C 292.368 126.447,291.628 126.347,292.028 128.438 C 292.383 130.294,291.507 130.545,290.938 128.750 C 290.166 126.320,288.529 127.669,288.614 130.665 C 288.670 132.637,287.531 133.327,285.475 132.567 C 284.469 132.195,283.838 132.333,283.240 133.055 C 282.782 133.609,282.573 133.730,282.776 133.324 C 282.979 132.919,282.892 132.429,282.581 132.238 C 281.665 131.672,281.314 134.224,282.151 135.368 C 282.573 135.946,282.792 137.084,282.637 137.897 C 282.337 139.464,281.594 139.813,280.911 138.707 C 280.684 138.340,280.071 138.204,279.549 138.404 C 278.808 138.689,278.692 138.458,279.019 137.353 C 279.250 136.574,279.592 135.101,279.779 134.080 C 279.966 133.058,280.659 131.843,281.320 131.381 C 281.980 130.918,282.384 130.319,282.218 130.049 C 282.051 129.779,282.593 129.248,283.423 128.870 C 284.838 128.226,285.243 127.230,285.871 122.857 C 286.104 121.232,290.000 119.715,290.000 121.250 M109.636 139.129 C 111.015 139.659,110.881 140.791,109.492 140.350 C 108.753 140.115,107.885 140.535,106.996 141.558 C 105.736 143.007,103.750 143.700,103.750 142.690 C 103.750 141.928,107.079 138.750,107.878 138.750 C 108.302 138.750,109.093 138.921,109.636 139.129 M111.107 142.383 C 111.482 143.508,110.190 143.271,109.754 142.135 C 109.520 141.527,109.660 141.241,110.117 141.393 C 110.525 141.529,110.971 141.975,111.107 142.383 M132.357 161.758 C 132.732 162.883,131.440 162.646,131.004 161.510 C 130.770 160.902,130.910 160.616,131.367 160.768 C 131.775 160.904,132.221 161.350,132.357 161.758 M133.750 170.276 C 133.750 171.284,132.865 172.031,132.318 171.484 C 131.830 170.997,132.502 169.375,133.192 169.375 C 133.499 169.375,133.750 169.780,133.750 170.276 M186.519 187.429 C 186.707 187.734,186.348 188.117,185.722 188.281 C 185.032 188.461,184.583 188.243,184.583 187.727 C 184.583 186.779,185.984 186.564,186.519 187.429 M157.500 194.688 C 157.500 195.203,157.189 195.625,156.808 195.625 C 156.428 195.625,156.278 196.047,156.476 196.563 C 156.674 197.078,156.596 197.500,156.303 197.500 C 155.654 197.500,154.936 194.985,155.380 194.267 C 155.924 193.386,157.500 193.699,157.500 194.688 M154.250 199.034 C 155.773 199.273,156.199 199.155,155.877 198.585 C 155.543 197.993,155.639 197.996,156.288 198.598 C 156.998 199.258,156.983 199.535,156.195 200.323 C 154.873 201.645,149.566 200.899,148.693 199.268 C 148.012 197.997,147.721 198.009,154.250 199.034 " stroke="none" fill="#000000" fill-rule="evenodd"></path></g></svg>