<svg id="svg" xmlns="http://www.w3.org/2000/svg" xmlns:xlink="http://www.w3.org/1999/xlink" width="400" height="225" viewBox="0, 0, 400,225"><g id="svgg"><path id="path0" d="M0.289 0.781 C 0.125 1.211,0.064 51.766,0.152 113.125 L 0.313 224.688 74.635 224.846 C 139.285 224.984,149.090 224.886,149.973 224.087 C 150.865 223.280,151.202 223.280,152.753 224.084 C 154.758 225.124,161.599 225.328,162.194 224.365 C 162.410 224.015,162.919 223.916,163.324 224.144 C 163.889 224.461,163.890 224.372,163.330 223.766 C 162.927 223.329,162.746 222.585,162.928 222.111 C 163.110 221.638,162.974 221.250,162.625 221.250 C 162.277 221.250,162.138 220.691,162.317 220.007 C 162.496 219.323,162.876 218.909,163.162 219.085 C 163.448 219.262,164.611 218.973,165.747 218.444 C 166.883 217.915,167.320 217.618,166.719 217.784 C 166.117 217.950,165.625 217.757,165.625 217.355 C 165.625 216.809,165.436 216.814,164.875 217.375 C 164.463 217.787,163.713 218.125,163.208 218.125 C 162.704 218.125,162.466 217.951,162.679 217.738 C 162.891 217.525,162.669 216.955,162.184 216.470 C 161.700 215.985,161.451 215.204,161.632 214.733 C 161.812 214.262,161.616 213.664,161.196 213.404 C 160.668 213.078,160.586 213.203,160.933 213.810 C 161.330 214.506,161.265 214.532,160.618 213.933 C 159.949 213.313,159.961 212.987,160.683 212.112 C 161.445 211.189,161.438 211.090,160.625 211.371 C 160.055 211.568,159.717 212.405,159.763 213.504 C 159.838 215.303,159.819 215.312,156.352 215.212 C 152.970 215.114,152.866 215.058,152.839 213.337 C 152.811 211.459,153.325 211.300,156.972 212.053 C 158.224 212.311,158.704 212.119,158.926 211.270 C 159.138 210.460,159.648 210.225,160.742 210.435 C 161.665 210.611,162.586 210.337,163.083 209.738 C 163.771 208.909,163.746 208.750,162.931 208.750 C 161.867 208.750,160.937 206.637,161.559 205.631 C 161.773 205.284,162.706 204.996,163.631 204.990 C 166.005 204.977,166.901 204.232,166.749 202.397 C 166.656 201.276,166.321 200.887,165.609 201.073 C 163.506 201.623,162.924 199.567,164.980 198.851 C 166.522 198.313,166.875 198.359,166.875 199.095 C 166.875 200.793,167.992 200.004,169.283 197.396 C 170.602 194.729,170.434 192.706,169.049 194.600 C 168.418 195.463,168.171 195.496,167.588 194.793 C 167.202 194.328,167.094 193.739,167.349 193.484 C 167.604 193.229,167.841 192.833,167.876 192.604 C 168.137 190.883,169.649 188.125,170.332 188.125 C 171.717 188.125,172.107 190.583,170.928 191.886 C 169.924 192.995,169.935 193.052,171.140 192.961 C 171.841 192.909,172.276 192.643,172.107 192.370 C 171.939 192.098,172.099 191.875,172.463 191.875 C 172.827 191.875,173.092 191.664,173.051 191.406 C 172.666 188.968,173.147 187.914,174.104 189.099 C 175.041 190.262,175.071 190.239,174.808 188.557 C 174.584 187.120,174.718 186.884,175.548 187.255 C 176.539 187.698,178.959 187.755,180.645 187.377 C 181.109 187.273,181.606 187.750,181.749 188.438 C 181.893 189.125,181.798 189.482,181.537 189.230 C 181.277 188.979,180.568 189.345,179.961 190.045 C 179.002 191.151,178.078 191.454,174.604 191.804 C 173.915 191.873,172.900 194.149,173.079 195.222 C 173.129 195.516,172.843 196.149,172.445 196.628 C 172.047 197.108,171.951 197.500,172.230 197.500 C 172.510 197.500,172.193 197.923,171.526 198.439 C 170.597 199.158,170.558 199.293,171.361 199.015 C 172.465 198.632,172.323 200.899,171.198 201.594 C 170.909 201.773,170.925 202.584,171.234 203.395 C 171.543 204.207,171.650 205.017,171.472 205.195 C 171.294 205.372,171.435 206.052,171.784 206.705 C 172.134 207.358,172.600 211.390,172.820 215.665 C 173.040 219.940,173.330 223.790,173.466 224.220 C 173.662 224.845,196.616 224.971,286.700 224.845 L 399.688 224.688 399.688 112.500 L 399.688 0.313 291.750 0.165 C 221.320 0.069,183.681 0.232,183.432 0.634 C 183.223 0.973,183.419 1.270,183.869 1.294 C 184.319 1.318,184.125 1.580,183.438 1.875 C 182.245 2.388,182.252 2.414,183.594 2.456 C 184.367 2.480,185.000 2.219,185.000 1.875 C 185.000 1.531,185.352 1.259,185.781 1.271 C 186.211 1.282,185.919 1.828,185.133 2.484 C 183.903 3.509,183.859 3.674,184.820 3.665 C 185.435 3.659,186.852 3.803,187.969 3.985 C 189.206 4.186,190.000 4.053,190.000 3.644 C 190.000 3.217,190.347 3.260,190.953 3.763 C 191.477 4.197,191.760 4.698,191.583 4.875 C 191.142 5.317,192.496 6.875,193.321 6.875 C 193.688 6.875,193.443 6.462,192.776 5.957 C 192.108 5.453,191.858 5.031,192.219 5.020 C 192.580 5.009,193.199 5.324,193.596 5.721 C 194.532 6.657,193.391 8.982,192.312 8.335 C 191.869 8.069,191.915 8.320,192.427 8.950 C 193.136 9.825,193.465 9.874,194.265 9.226 C 195.032 8.606,195.140 8.604,194.771 9.219 C 194.501 9.667,194.615 10.000,195.036 10.000 C 195.454 10.000,195.635 9.481,195.456 8.797 C 195.230 7.934,195.397 7.691,196.044 7.940 C 196.553 8.135,196.794 8.728,196.597 9.299 C 196.303 10.149,196.383 10.137,197.092 9.228 C 197.556 8.632,198.090 8.299,198.279 8.487 C 198.467 8.676,199.494 8.855,200.561 8.885 C 201.627 8.915,202.500 9.213,202.500 9.547 C 202.500 9.880,202.927 9.799,203.449 9.365 C 204.227 8.719,204.641 8.790,205.744 9.757 C 206.484 10.406,206.884 10.586,206.633 10.156 C 206.382 9.727,206.474 9.375,206.838 9.375 C 207.202 9.375,207.500 9.666,207.500 10.022 C 207.500 10.453,207.878 10.467,208.635 10.062 C 209.610 9.540,210.910 9.650,214.688 10.576 C 215.553 10.788,215.958 11.253,215.260 11.235 C 214.945 11.227,213.631 10.975,212.340 10.675 C 211.050 10.375,209.874 10.324,209.727 10.560 C 209.581 10.797,210.351 11.059,211.439 11.141 C 212.527 11.224,213.682 11.557,214.006 11.881 C 214.376 12.251,214.088 12.373,213.238 12.209 C 212.180 12.005,211.794 12.319,211.487 13.630 C 211.271 14.555,210.496 15.894,209.766 16.604 C 209.035 17.314,207.734 18.788,206.875 19.880 C 206.016 20.971,204.944 21.866,204.494 21.869 C 204.044 21.872,203.809 22.089,203.970 22.351 C 204.132 22.613,202.646 22.905,200.667 23.001 C 197.102 23.173,197.065 23.157,196.495 21.170 C 195.746 18.557,193.097 18.001,191.593 20.141 L 190.594 21.563 190.224 20.156 C 189.799 18.540,189.728 18.517,188.032 19.425 C 187.059 19.946,186.524 19.876,185.689 19.121 C 184.945 18.447,184.407 18.343,183.962 18.788 C 183.516 19.234,182.796 19.198,181.647 18.675 C 180.351 18.084,179.267 18.080,176.782 18.653 C 174.293 19.228,173.382 19.223,172.669 18.631 C 171.934 18.021,171.637 18.081,171.158 18.936 C 170.831 19.521,170.155 20.000,169.656 20.000 C 169.158 20.000,168.750 20.251,168.750 20.558 C 168.750 21.570,166.730 21.914,166.014 21.024 C 165.628 20.544,164.210 19.987,162.863 19.786 C 161.516 19.584,160.250 19.198,160.051 18.928 C 158.312 16.578,153.354 18.452,153.657 21.344 C 153.753 22.255,153.488 23.213,153.069 23.472 C 152.567 23.783,152.468 23.682,152.780 23.177 C 153.126 22.618,152.687 22.465,151.158 22.612 C 150.006 22.722,149.109 23.094,149.166 23.438 C 149.333 24.451,147.993 25.708,147.107 25.368 C 146.658 25.196,146.118 25.332,145.909 25.671 C 145.696 26.016,144.585 26.111,143.389 25.887 C 142.068 25.639,141.250 25.734,141.250 26.136 C 141.250 27.280,139.332 28.750,137.839 28.750 C 137.044 28.750,135.596 29.164,134.621 29.669 C 132.642 30.696,130.797 29.958,128.608 27.266 C 127.417 25.802,127.147 24.708,128.125 25.312 C 128.469 25.525,128.750 25.401,128.750 25.037 C 128.750 24.673,128.485 24.375,128.162 24.375 C 127.249 24.375,126.748 25.540,127.289 26.406 C 128.206 27.874,128.128 29.173,127.198 27.917 C 126.006 26.308,124.586 28.683,125.603 30.584 C 126.649 32.539,126.366 33.125,124.375 33.125 C 123.344 33.125,122.500 33.399,122.500 33.734 C 122.500 35.819,108.742 37.151,106.884 35.245 C 105.880 34.216,107.972 30.439,109.347 30.799 C 110.741 31.163,112.500 28.975,112.500 26.875 C 112.500 26.163,114.328 23.158,116.563 20.195 C 121.092 14.190,121.007 14.431,119.628 11.525 C 118.377 8.889,120.281 5.409,122.794 5.738 C 124.288 5.934,126.442 4.566,125.934 3.745 C 125.768 3.476,126.038 3.100,126.534 2.910 C 127.457 2.556,127.700 3.040,128.439 6.712 C 128.868 8.845,130.069 10.106,130.484 8.861 C 130.619 8.456,131.145 8.125,131.653 8.125 C 132.546 8.125,132.455 4.669,131.468 1.094 C 131.075 -0.330,0.829 -0.641,0.289 0.781 M133.125 0.291 C 133.125 1.288,135.365 5.006,136.146 5.306 C 137.240 5.726,138.155 4.556,137.688 3.338 C 137.165 1.975,139.216 2.374,140.238 3.834 C 141.102 5.067,141.249 5.091,142.193 4.146 C 142.755 3.584,143.730 3.125,144.361 3.125 C 145.359 3.125,145.414 2.924,144.785 1.567 C 144.124 0.143,133.125 -1.061,133.125 0.291 M149.757 3.673 C 148.758 4.777,148.760 4.870,149.800 5.269 C 150.842 5.669,152.500 4.279,152.500 3.006 C 152.500 2.079,150.833 2.485,149.757 3.673 M221.417 10.875 C 221.617 10.674,222.295 10.809,222.922 11.174 C 223.597 11.566,223.728 11.845,223.244 11.856 C 222.769 11.867,222.614 12.202,222.876 12.656 C 223.123 13.086,223.110 13.243,222.846 13.006 C 222.583 12.769,221.781 13.121,221.066 13.788 C 219.336 15.399,219.006 15.330,217.906 13.125 C 216.993 11.294,217.007 11.250,218.522 11.250 C 219.597 11.250,219.930 11.010,219.604 10.469 C 219.230 9.846,219.329 9.844,220.094 10.463 C 220.621 10.890,221.216 11.075,221.417 10.875 M172.228 12.861 C 170.600 14.490,169.822 16.322,170.480 16.980 C 170.857 17.357,171.680 16.857,172.725 15.615 C 175.148 12.736,174.720 10.369,172.228 12.861 M70.100 41.058 C 70.853 41.965,70.274 43.125,69.068 43.125 C 68.156 43.125,67.810 42.315,67.162 38.651 C 66.824 36.741,66.947 36.327,67.910 36.138 C 68.827 35.958,69.104 36.360,69.265 38.104 C 69.377 39.310,69.753 40.639,70.100 41.058 M127.500 36.543 C 127.500 37.100,127.133 37.320,126.566 37.102 C 126.052 36.905,125.788 36.492,125.978 36.185 C 126.523 35.302,127.500 35.532,127.500 36.543 M78.125 39.896 C 78.125 40.710,77.382 41.251,76.778 40.877 C 76.131 40.478,76.689 39.375,77.537 39.375 C 77.860 39.375,78.125 39.609,78.125 39.896 M106.875 41.875 C 106.305 42.940,106.400 43.125,107.515 43.125 C 108.235 43.125,108.652 42.847,108.442 42.507 C 108.223 42.153,108.474 42.048,109.030 42.262 C 109.564 42.466,110.000 42.876,110.000 43.172 C 110.000 43.468,110.393 43.560,110.874 43.375 C 111.355 43.191,111.937 43.345,112.167 43.718 C 112.398 44.090,112.829 44.246,113.125 44.063 C 113.421 43.879,113.840 44.015,114.056 44.365 C 114.272 44.714,115.179 45.000,116.071 45.000 C 119.169 45.000,115.953 47.274,111.690 48.098 C 109.558 48.510,107.042 49.224,106.099 49.685 C 105.114 50.167,104.235 50.280,104.031 49.949 C 103.836 49.633,103.341 49.379,102.932 49.385 C 102.485 49.390,102.562 49.636,103.125 50.000 C 103.714 50.381,103.780 50.609,103.303 50.615 C 101.900 50.633,101.299 48.531,102.230 46.865 L 103.098 45.313 103.495 46.712 C 103.714 47.481,104.146 47.954,104.456 47.762 C 104.767 47.571,104.854 47.145,104.651 46.816 C 104.448 46.488,104.655 46.296,105.110 46.391 C 105.669 46.507,105.945 45.852,105.961 44.374 C 105.974 43.171,106.201 41.835,106.466 41.405 C 107.257 40.127,107.600 40.521,106.875 41.875 M97.718 49.574 C 97.942 49.350,98.125 49.474,98.125 49.850 C 98.125 50.226,98.594 50.624,99.167 50.735 C 100.048 50.906,99.954 51.229,98.562 52.813 C 97.237 54.321,96.911 54.466,96.895 53.557 C 96.884 52.935,96.589 52.603,96.240 52.819 C 95.890 53.035,95.747 53.441,95.920 53.722 C 96.469 54.610,94.551 55.697,92.782 55.501 C 91.548 55.364,91.033 55.616,90.906 56.419 C 90.598 58.372,87.083 60.828,87.083 59.090 C 87.083 58.589,87.318 58.325,87.604 58.502 C 87.891 58.679,88.134 58.315,88.145 57.693 C 88.169 56.313,89.656 54.239,90.218 54.801 C 90.442 55.025,90.625 54.644,90.625 53.954 C 90.625 52.611,93.315 50.942,95.105 51.175 C 95.895 51.278,96.101 50.896,95.958 49.591 C 95.793 48.092,95.868 48.007,96.540 48.926 C 96.964 49.506,97.494 49.797,97.718 49.574 M81.046 58.070 C 82.288 57.025,85.040 58.943,84.523 60.494 C 84.231 61.369,76.778 65.029,74.869 65.234 C 74.081 65.318,72.734 65.842,71.875 66.397 C 71.016 66.952,68.643 67.986,66.604 68.696 C 64.564 69.406,62.647 70.341,62.344 70.774 C 62.004 71.261,61.960 70.977,62.229 70.029 C 62.720 68.301,63.953 66.875,64.955 66.875 C 65.324 66.875,66.188 66.313,66.875 65.625 C 67.563 64.938,68.125 64.554,68.125 64.772 C 68.125 64.990,68.708 64.428,69.420 63.522 C 70.601 62.021,72.418 61.116,71.603 62.435 C 71.057 63.317,73.190 63.849,74.134 63.066 C 74.601 62.678,75.407 62.522,75.923 62.721 C 76.866 63.082,77.733 61.170,77.473 59.303 C 77.080 56.490,77.491 55.890,78.716 57.484 C 79.804 58.899,80.001 58.949,81.046 58.070 M61.575 66.212 C 61.326 66.995,60.865 67.341,60.424 67.077 C 60.019 66.834,60.109 67.157,60.625 67.794 C 61.340 68.678,61.377 69.016,60.781 69.216 C 60.352 69.361,60.000 70.142,60.000 70.953 C 60.000 71.763,59.719 72.600,59.375 72.813 C 59.031 73.025,58.750 73.745,58.750 74.412 C 58.750 75.525,58.198 75.870,57.054 75.469 C 56.547 75.291,56.798 71.885,57.388 70.938 C 57.602 70.594,57.834 69.936,57.904 69.476 C 57.974 69.017,58.474 68.151,59.015 67.552 C 59.557 66.954,60.004 66.064,60.010 65.576 C 60.017 64.841,60.124 64.850,60.625 65.625 C 61.132 66.409,61.232 66.367,61.240 65.365 C 61.246 64.706,61.416 64.333,61.620 64.536 C 61.823 64.739,61.803 65.494,61.575 66.212 M50.018 89.095 C 50.646 90.270,50.683 91.293,50.175 93.514 C 49.612 95.970,49.696 96.818,50.733 99.162 C 52.494 103.141,52.111 105.353,49.692 105.174 C 47.527 105.014,46.250 103.569,46.250 101.281 C 46.250 100.353,45.723 99.347,45.000 98.895 C 44.313 98.466,43.750 97.695,43.750 97.182 C 43.750 96.669,43.449 96.250,43.080 96.250 C 41.925 96.250,40.938 94.756,40.913 92.969 C 40.899 91.970,41.226 91.250,41.694 91.250 C 42.137 91.250,42.500 90.969,42.500 90.625 C 42.500 90.281,42.811 90.000,43.191 90.000 C 43.571 90.000,44.704 89.309,45.708 88.464 C 47.772 86.727,48.833 86.882,50.018 89.095 M311.072 87.718 C 310.998 88.111,310.516 88.806,310.000 89.263 C 309.167 90.000,309.167 90.043,310.000 89.642 C 310.761 89.277,310.790 89.350,310.156 90.033 C 309.727 90.496,309.375 91.484,309.375 92.228 C 309.375 94.228,306.948 97.040,305.540 96.672 C 304.899 96.504,304.375 96.669,304.375 97.038 C 304.375 97.407,304.173 97.507,303.927 97.260 C 303.457 96.790,303.635 88.191,304.132 87.388 C 304.617 86.603,311.223 86.918,311.072 87.718 M27.996 96.970 C 28.239 96.850,28.887 96.511,29.436 96.218 C 30.056 95.886,30.718 95.968,31.186 96.436 C 31.599 96.849,32.248 97.188,32.628 97.188 C 33.866 97.188,33.669 99.320,32.237 101.430 C 31.107 103.095,30.962 103.776,31.485 104.949 C 32.037 106.185,31.880 106.622,30.442 107.859 C 29.512 108.660,28.750 109.769,28.750 110.324 C 28.750 111.794,27.528 113.841,26.887 113.445 C 26.584 113.258,26.141 113.420,25.903 113.807 C 25.587 114.317,25.341 114.302,25.001 113.752 C 24.641 113.169,24.220 113.164,23.164 113.729 C 20.520 115.144,18.334 115.000,19.825 113.509 C 20.072 113.262,20.348 112.160,20.438 111.061 C 20.702 107.843,20.800 107.500,21.458 107.500 C 21.802 107.500,21.909 107.326,21.696 107.113 C 21.484 106.900,21.747 106.289,22.281 105.754 C 22.942 105.094,23.145 104.116,22.916 102.704 C 22.730 101.560,22.816 100.625,23.106 100.625 C 23.396 100.625,23.486 100.063,23.306 99.375 C 23.126 98.688,23.284 98.125,23.657 98.125 C 24.031 98.125,24.174 97.703,23.976 97.188 C 23.748 96.594,23.985 96.250,24.621 96.250 C 25.173 96.250,25.634 95.898,25.645 95.469 C 25.656 95.039,26.089 95.249,26.609 95.938 C 27.129 96.625,27.753 97.089,27.996 96.970 M304.904 100.989 C 305.024 101.648,305.395 102.469,305.730 102.813 C 306.132 103.225,306.271 103.131,306.138 102.537 C 305.816 101.092,307.790 101.082,309.430 102.521 C 310.259 103.249,310.516 103.642,310.000 103.393 C 309.256 103.035,309.218 103.109,309.814 103.754 C 310.405 104.392,310.301 104.902,309.327 106.140 C 308.498 107.195,308.296 107.921,308.717 108.342 C 309.138 108.763,309.133 109.226,308.702 109.745 C 307.597 111.077,310.505 111.553,311.920 110.272 C 312.583 109.672,313.125 109.405,313.125 109.678 C 313.125 111.118,308.216 113.479,303.930 114.101 C 300.130 114.652,298.945 115.277,298.391 117.020 L 297.948 118.417 297.427 117.007 C 296.779 115.256,295.159 114.572,294.177 115.634 C 293.595 116.263,293.637 116.328,294.375 115.938 C 295.132 115.537,295.164 115.602,294.540 116.275 C 293.922 116.941,293.978 117.342,294.820 118.271 C 296.114 119.701,296.553 121.655,295.357 120.662 C 294.777 120.181,294.246 120.368,293.376 121.360 C 292.722 122.105,292.539 122.509,292.969 122.258 C 293.398 122.007,293.769 122.029,293.792 122.307 C 293.815 122.585,293.954 123.727,294.099 124.844 C 294.378 126.981,294.412 126.961,290.313 127.145 C 289.625 127.176,288.792 127.813,288.462 128.562 C 287.876 129.891,285.881 130.857,284.934 130.272 C 284.673 130.111,284.861 129.210,285.351 128.271 C 285.841 127.331,286.244 125.569,286.246 124.356 C 286.250 122.034,289.646 119.666,290.648 121.287 C 290.901 121.697,291.342 121.579,291.850 120.967 C 292.519 120.162,292.483 120.000,291.639 120.000 C 291.081 120.000,290.603 119.648,290.577 119.219 C 290.551 118.789,290.435 117.945,290.320 117.344 C 290.205 116.742,290.414 116.250,290.784 116.250 C 291.155 116.250,291.273 116.065,291.047 115.839 C 290.821 115.613,290.953 115.045,291.341 114.577 C 291.729 114.110,292.078 113.102,292.117 112.338 C 292.163 111.441,292.876 110.615,294.132 110.006 C 296.560 108.828,301.250 104.119,301.250 102.859 C 301.250 101.822,303.355 100.438,303.980 101.064 C 304.197 101.281,304.375 101.154,304.375 100.781 C 304.375 100.409,304.087 99.961,303.734 99.786 C 303.382 99.612,303.452 99.541,303.891 99.630 C 304.329 99.719,304.785 100.330,304.904 100.989 M321.851 109.794 C 322.010 109.938,321.782 110.631,321.343 111.333 C 320.623 112.487,320.670 112.570,321.836 112.200 C 322.545 111.975,323.125 112.057,323.125 112.381 C 323.125 113.186,321.535 114.451,321.087 114.004 C 320.889 113.805,320.411 114.232,320.026 114.952 C 319.494 115.945,318.951 116.168,317.779 115.873 C 316.919 115.657,315.834 115.817,315.332 116.234 C 314.836 116.646,314.195 116.837,313.907 116.660 C 313.620 116.482,313.339 116.950,313.283 117.700 C 313.227 118.449,312.536 119.564,311.747 120.177 C 310.958 120.789,309.715 121.840,308.985 122.511 L 307.657 123.731 306.016 121.363 C 303.634 117.925,303.851 116.565,307.031 115.007 C 313.341 111.916,314.808 111.181,316.875 110.073 C 318.776 109.054,320.909 108.935,321.851 109.794 M107.112 141.534 C 106.747 142.486,105.013 143.346,104.498 142.831 C 104.014 142.347,106.335 139.979,106.931 140.347 C 107.214 140.522,107.295 141.056,107.112 141.534 " stroke="none" fill="#000000" fill-rule="evenodd"></path></g></svg>