<svg id="svg" xmlns="http://www.w3.org/2000/svg" xmlns:xlink="http://www.w3.org/1999/xlink" width="400" height="225" viewBox="0, 0, 400,225"><g id="svgg"><path id="path0" d="M0.289 0.781 C 0.125 1.211,0.064 51.766,0.152 113.125 L 0.313 224.688 80.944 224.817 C 161.728 224.946,164.200 224.883,162.460 222.740 C 161.915 222.069,161.866 221.818,162.337 222.100 C 162.862 222.416,162.991 222.254,162.738 221.595 C 162.534 221.061,162.115 220.625,161.808 220.625 C 161.501 220.625,161.250 220.327,161.250 219.963 C 161.250 219.599,161.534 219.477,161.881 219.691 C 162.828 220.276,165.000 219.410,165.000 218.447 C 165.000 217.984,165.352 217.438,165.781 217.236 C 166.211 217.033,165.809 217.010,164.889 217.184 C 163.882 217.375,162.854 217.140,162.307 216.593 C 161.808 216.093,161.225 215.859,161.012 216.071 C 160.799 216.284,160.625 216.130,160.625 215.729 C 160.625 215.328,160.913 215.000,161.264 215.000 C 161.616 215.000,161.474 214.345,160.950 213.544 C 160.425 212.743,160.184 211.899,160.414 211.669 C 160.645 211.438,160.489 211.250,160.067 211.250 C 159.646 211.250,159.494 210.939,159.729 210.558 C 160.031 210.070,160.301 210.101,160.650 210.665 C 161.039 211.295,161.481 211.242,162.747 210.413 C 164.287 209.404,164.308 209.311,163.269 208.098 C 161.717 206.285,161.856 206.128,165.156 205.959 C 167.850 205.821,168.242 205.998,168.072 207.274 C 168.042 207.493,168.253 207.845,168.540 208.055 C 170.298 209.342,171.441 214.287,171.519 220.938 L 171.563 224.688 285.625 224.688 L 399.688 224.688 399.688 112.500 L 399.688 0.313 291.666 0.154 C 222.529 0.053,183.270 0.215,182.604 0.604 C 181.655 1.158,181.663 1.214,182.693 1.231 C 183.315 1.241,183.647 1.536,183.431 1.885 C 183.215 2.235,182.809 2.378,182.528 2.205 C 182.247 2.031,181.633 2.362,181.165 2.939 C 180.672 3.547,180.624 3.803,181.051 3.547 C 181.456 3.304,181.965 3.390,182.181 3.740 C 182.397 4.089,183.550 4.375,184.744 4.375 C 186.132 4.375,187.049 4.726,187.288 5.348 C 187.493 5.884,188.047 6.174,188.518 5.993 C 188.989 5.812,189.379 6.007,189.385 6.426 C 189.391 6.908,189.617 6.843,190.000 6.250 C 190.561 5.382,190.908 5.825,190.673 7.108 C 190.619 7.408,191.007 7.487,191.537 7.284 C 192.067 7.081,192.500 7.168,192.500 7.477 C 192.500 7.787,193.062 8.219,193.750 8.437 C 194.437 8.656,195.000 9.237,195.000 9.730 C 195.000 10.833,195.728 10.878,196.842 9.844 C 197.515 9.219,197.595 9.219,197.242 9.844 C 197.000 10.273,197.029 10.648,197.307 10.676 C 200.194 10.966,201.114 11.126,202.188 11.527 C 203.220 11.912,203.274 11.867,202.500 11.268 C 201.743 10.683,201.864 10.628,203.125 10.981 C 203.984 11.222,204.894 11.732,205.147 12.115 C 205.459 12.590,205.609 12.541,205.615 11.962 C 205.621 11.446,206.078 11.670,206.775 12.532 C 207.661 13.626,208.043 13.764,208.434 13.130 C 208.754 12.613,208.699 12.458,208.287 12.712 C 207.926 12.935,207.497 12.768,207.333 12.340 C 207.128 11.807,207.748 11.565,209.298 11.569 C 210.544 11.573,211.492 11.784,211.406 12.038 C 211.320 12.292,211.250 12.924,211.250 13.442 C 211.250 13.960,210.547 14.995,209.688 15.742 C 208.828 16.489,208.125 17.371,208.125 17.701 C 208.125 18.032,207.306 19.084,206.306 20.040 C 205.306 20.997,204.602 21.894,204.744 22.035 C 204.885 22.176,204.590 22.292,204.090 22.292 C 203.589 22.292,203.352 22.014,203.562 21.674 C 203.774 21.331,203.626 21.253,203.229 21.498 C 200.615 23.114,197.163 22.606,196.549 20.517 C 195.888 18.269,192.843 17.183,191.825 18.831 C 191.429 19.471,191.093 19.429,190.194 18.627 C 189.221 17.758,188.949 17.741,188.251 18.502 C 187.687 19.117,187.107 19.209,186.350 18.804 C 184.901 18.028,177.707 17.742,175.156 18.359 C 172.759 18.938,171.741 17.536,173.267 15.758 C 175.411 13.258,174.977 10.776,172.531 11.553 C 171.775 11.793,171.315 12.149,171.510 12.343 C 171.705 12.538,171.574 13.047,171.220 13.473 C 170.866 13.900,170.485 15.266,170.374 16.508 C 170.118 19.356,167.802 21.654,166.378 20.472 C 165.865 20.046,164.649 19.665,163.676 19.626 C 162.703 19.587,161.491 19.210,160.983 18.788 C 158.461 16.694,152.883 18.065,153.267 20.684 C 153.480 22.137,153.370 22.338,152.676 21.761 C 152.065 21.254,151.630 21.245,151.147 21.728 C 150.776 22.099,150.107 22.262,149.661 22.091 C 149.166 21.901,148.768 22.347,148.641 23.233 C 148.486 24.319,148.078 24.650,147.029 24.539 C 146.257 24.457,145.625 24.680,145.625 25.036 C 145.625 25.435,144.791 25.525,143.438 25.271 C 142.077 25.016,141.250 25.107,141.250 25.511 C 141.250 26.651,139.334 28.125,137.852 28.125 C 137.064 28.125,135.703 28.688,134.829 29.375 C 132.910 30.884,131.518 30.975,130.999 29.623 C 130.788 29.071,130.223 28.771,129.744 28.954 C 129.232 29.151,128.746 28.800,128.564 28.105 C 128.354 27.303,127.835 27.003,126.953 27.173 C 125.389 27.474,124.489 26.327,125.701 25.578 C 126.277 25.222,126.682 25.386,126.923 26.075 C 127.145 26.707,127.442 26.849,127.693 26.443 C 128.354 25.374,125.124 22.322,123.720 22.689 C 123.049 22.864,122.500 22.736,122.500 22.405 C 122.500 22.073,122.238 21.963,121.918 22.161 C 121.598 22.359,121.160 22.235,120.944 21.885 C 120.259 20.777,118.749 21.146,119.197 22.312 C 119.442 22.951,119.702 23.082,119.849 22.641 C 120.024 22.116,120.515 22.184,121.576 22.879 C 122.392 23.413,123.215 23.828,123.405 23.800 C 123.595 23.773,123.750 23.891,123.750 24.063 C 123.750 24.234,123.750 24.572,123.750 24.813 C 123.750 25.053,123.413 24.913,123.000 24.500 C 121.941 23.441,121.325 23.569,121.343 24.844 C 121.351 25.445,121.173 26.521,120.947 27.233 C 120.626 28.248,121.019 28.857,122.764 30.046 C 125.369 31.819,125.500 32.263,123.594 32.844 C 122.820 33.080,121.673 33.726,121.043 34.279 C 119.422 35.705,107.616 36.029,107.091 34.663 C 106.595 33.369,108.591 30.547,109.851 30.760 C 110.593 30.886,111.280 29.983,112.228 27.633 C 113.589 24.260,116.509 20.625,117.858 20.625 C 118.270 20.625,119.087 19.615,119.673 18.379 C 120.456 16.730,121.043 16.213,121.885 16.434 C 122.674 16.640,122.928 16.464,122.700 15.870 C 122.518 15.396,122.117 15.163,121.810 15.353 C 121.502 15.543,121.250 15.042,121.250 14.238 C 121.250 13.435,120.813 12.154,120.278 11.390 C 119.454 10.214,119.430 9.747,120.122 8.329 C 121.159 6.200,122.246 5.836,122.674 7.474 C 123.256 9.699,124.535 8.681,125.983 4.844 C 126.375 3.805,128.241 3.232,128.020 4.219 C 127.444 6.785,129.735 10.942,130.738 9.150 C 131.054 8.586,131.739 8.125,132.261 8.125 C 132.869 8.125,133.095 7.732,132.891 7.031 C 132.716 6.430,132.412 4.850,132.216 3.521 C 132.019 2.192,131.705 0.856,131.517 0.552 C 130.938 -0.385,0.646 -0.157,0.289 0.781 M133.373 0.996 C 133.583 1.543,133.923 2.658,134.127 3.473 C 134.512 5.008,136.373 6.009,137.520 5.300 C 137.881 5.077,138.005 4.356,137.796 3.697 C 137.131 1.604,139.081 2.339,141.250 5.000 C 143.462 7.714,145.449 8.211,147.176 6.484 C 147.735 5.926,148.875 5.469,149.709 5.469 C 151.506 5.469,152.787 4.148,152.277 2.820 C 151.778 1.520,150.786 1.634,150.339 3.043 C 149.825 4.661,146.050 3.942,145.713 2.163 C 145.355 0.278,144.493 0.020,138.527 0.010 C 133.717 0.001,133.041 0.131,133.373 0.996 M190.684 8.438 C 190.662 8.781,190.917 9.484,191.250 10.000 C 191.743 10.763,191.858 10.774,191.865 10.059 C 191.873 9.388,192.169 9.447,193.125 10.313 C 193.834 10.954,194.375 11.131,194.375 10.722 C 194.375 10.325,194.077 10.000,193.713 10.000 C 193.349 10.000,193.252 9.674,193.498 9.277 C 193.803 8.783,193.526 8.663,192.628 8.898 C 191.903 9.087,191.178 8.921,191.017 8.527 C 190.856 8.134,190.706 8.094,190.684 8.438 M157.151 10.949 C 156.006 11.844,156.058 11.888,158.077 11.730 C 159.254 11.638,160.332 11.211,160.473 10.781 C 160.831 9.689,158.620 9.800,157.151 10.949 M125.374 19.171 C 125.752 19.455,126.009 20.330,125.946 21.116 C 125.875 21.996,126.054 22.321,126.411 21.964 C 127.235 21.140,126.739 19.214,125.625 18.910 C 125.023 18.746,124.933 18.839,125.374 19.171 M121.250 20.028 C 121.250 20.829,123.145 22.065,123.609 21.566 C 123.858 21.298,123.709 20.953,123.277 20.799 C 122.846 20.644,122.622 20.308,122.781 20.051 C 122.940 19.794,122.661 19.583,122.160 19.583 C 121.660 19.583,121.250 19.783,121.250 20.028 M69.556 39.219 C 70.150 44.342,68.054 44.064,67.203 38.906 C 66.812 36.537,66.897 36.250,67.989 36.250 C 68.984 36.250,69.277 36.805,69.556 39.219 M108.328 42.911 C 108.554 43.137,108.429 43.697,108.049 44.154 C 107.527 44.783,107.619 45.085,108.430 45.396 C 109.019 45.622,109.709 45.472,109.962 45.061 C 110.547 44.114,113.711 43.790,115.197 44.526 C 117.247 45.541,115.202 46.726,108.944 48.152 C 103.021 49.501,101.929 49.382,101.885 47.381 C 101.862 46.365,103.339 46.162,103.868 47.108 C 104.540 48.308,106.426 46.983,106.182 45.483 C 105.885 43.653,107.333 41.917,108.328 42.911 M98.495 50.625 C 99.223 50.625,99.246 50.848,98.621 51.850 C 97.752 53.241,96.866 52.434,96.934 50.313 C 96.956 49.625,97.116 49.414,97.289 49.844 C 97.462 50.273,98.005 50.625,98.495 50.625 M95.799 52.529 C 95.394 54.076,93.273 55.643,92.162 55.216 C 91.707 55.042,90.971 55.609,90.510 56.488 C 89.937 57.581,89.417 57.912,88.835 57.553 C 87.920 56.987,88.399 54.375,89.417 54.375 C 89.738 54.375,90.002 53.742,90.004 52.969 C 90.008 51.723,90.357 51.546,93.068 51.416 C 95.860 51.282,96.099 51.379,95.799 52.529 M79.820 57.478 C 79.415 58.006,79.714 57.900,80.483 57.243 C 81.253 56.587,81.965 56.165,82.065 56.306 C 82.165 56.447,82.646 57.406,83.135 58.438 C 83.623 59.469,84.112 60.484,84.222 60.694 C 84.331 60.903,83.122 61.438,81.535 61.883 C 79.947 62.327,78.265 63.074,77.797 63.542 C 77.078 64.261,76.954 63.880,76.999 61.103 C 77.060 57.398,77.503 56.518,79.306 56.518 C 80.333 56.518,80.424 56.689,79.820 57.478 M86.614 58.351 C 86.680 58.800,86.382 59.167,85.953 59.167 C 85.497 59.167,85.299 58.679,85.478 57.996 C 85.798 56.769,86.410 56.960,86.614 58.351 M72.052 62.656 C 72.820 63.788,73.164 63.910,73.815 63.281 C 74.707 62.421,76.250 62.227,76.250 62.975 C 76.250 63.977,73.624 65.124,72.926 64.426 C 71.898 63.398,71.458 63.609,71.513 65.105 C 71.553 66.191,71.006 66.615,68.750 67.248 C 67.203 67.683,65.273 68.239,64.460 68.485 C 62.288 69.143,63.717 66.674,66.073 65.698 C 67.033 65.300,68.380 64.138,69.066 63.114 C 70.562 60.881,70.820 60.841,72.052 62.656 M62.056 65.000 C 61.876 65.688,61.464 66.250,61.140 66.250 C 60.816 66.250,60.745 66.563,60.982 66.946 C 61.473 67.742,58.273 74.809,57.242 75.205 C 56.716 75.407,56.423 72.720,56.827 71.406 C 56.853 71.320,56.805 71.160,56.719 71.049 C 56.633 70.939,57.055 70.356,57.656 69.754 C 58.258 69.153,58.750 68.259,58.750 67.768 C 58.750 67.277,59.031 66.875,59.375 66.875 C 59.719 66.875,60.000 66.554,60.000 66.163 C 60.000 65.619,61.641 63.901,62.285 63.770 C 62.339 63.759,62.236 64.313,62.056 65.000 M310.000 88.070 C 310.000 88.360,309.578 88.947,309.063 89.375 C 308.547 89.803,308.125 90.778,308.125 91.542 C 308.125 93.007,305.968 95.443,305.441 94.572 C 304.197 92.516,304.750 87.241,306.250 86.852 C 307.854 86.435,310.000 87.133,310.000 88.070 M48.796 87.969 C 48.822 88.227,48.975 89.141,49.136 90.000 C 49.298 90.859,49.131 92.760,48.767 94.225 C 48.245 96.321,48.291 97.185,48.982 98.287 C 50.390 100.534,50.877 104.375,49.753 104.375 C 48.523 104.375,47.808 103.142,48.033 101.408 C 48.164 100.388,47.778 99.837,46.624 99.399 C 45.728 99.058,44.864 98.113,44.642 97.230 C 44.427 96.370,44.067 95.702,43.844 95.745 C 42.755 95.955,41.250 94.731,41.250 93.635 C 41.250 91.150,48.567 85.656,48.796 87.969 M26.354 96.153 C 26.469 96.444,27.406 96.874,28.438 97.110 C 29.753 97.410,30.038 97.356,29.393 96.928 C 28.887 96.592,28.652 96.140,28.870 95.922 C 29.088 95.704,29.994 96.002,30.883 96.584 C 31.856 97.222,32.500 97.366,32.500 96.947 C 32.500 96.564,32.752 96.250,33.061 96.250 C 34.240 96.250,33.363 101.421,31.995 102.528 L 30.652 103.616 31.940 104.471 L 33.228 105.326 31.881 107.038 C 31.140 107.980,30.133 108.750,29.642 108.750 C 28.875 108.750,28.453 109.874,28.661 111.363 C 28.718 111.768,25.073 113.198,23.159 113.522 C 22.662 113.606,21.818 113.419,21.284 113.107 C 20.555 112.680,20.525 112.533,21.167 112.519 C 21.710 112.507,21.902 112.046,21.694 111.251 C 21.514 110.563,21.627 109.841,21.944 109.645 C 22.261 109.449,22.371 109.046,22.188 108.750 C 22.004 108.454,22.104 108.058,22.408 107.870 C 22.712 107.682,23.149 106.353,23.378 104.917 C 23.608 103.481,23.982 102.006,24.209 101.638 C 24.819 100.652,24.772 97.874,24.139 97.414 C 23.837 97.194,23.783 96.702,24.019 96.320 C 24.524 95.503,26.055 95.393,26.354 96.153 M306.223 102.204 C 306.581 101.983,306.875 102.256,306.875 102.813 C 306.875 103.369,306.594 103.650,306.250 103.438 C 305.906 103.225,305.625 103.490,305.625 104.026 C 305.625 104.562,305.334 105.000,304.978 105.000 C 304.539 105.000,304.546 105.403,305.000 106.250 C 305.464 107.118,305.471 107.870,305.022 108.709 C 303.992 110.633,304.143 110.703,308.754 110.433 C 312.375 110.220,313.011 110.321,312.433 111.018 C 312.048 111.482,311.517 111.728,311.253 111.564 C 310.988 111.401,310.106 111.786,309.292 112.421 C 307.598 113.741,302.176 114.743,301.617 113.839 C 301.038 112.902,298.898 113.740,298.559 115.037 C 298.313 115.978,297.818 116.153,296.043 115.926 L 293.834 115.643 294.725 117.353 C 295.883 119.571,295.895 121.314,294.751 120.875 C 293.716 120.478,293.071 121.361,292.837 123.494 C 292.617 125.496,292.583 125.521,289.572 125.900 C 285.449 126.418,285.790 122.274,289.979 120.944 C 291.394 120.495,291.569 119.944,290.602 118.977 C 289.834 118.209,290.849 115.000,291.860 115.000 C 292.212 115.000,292.500 114.213,292.500 113.250 C 292.500 111.282,293.496 110.000,295.026 110.000 C 296.321 110.000,301.170 105.292,301.928 103.299 C 302.241 102.474,302.779 101.974,303.124 102.187 C 303.468 102.400,303.750 102.241,303.750 101.835 C 303.750 101.275,303.970 101.279,304.660 101.852 C 305.161 102.268,305.864 102.426,306.223 102.204 M319.132 112.056 C 319.055 113.560,317.151 114.276,316.080 113.205 C 315.319 112.444,313.263 114.365,312.108 116.915 C 311.257 118.795,307.169 121.175,306.305 120.292 C 304.727 118.679,304.900 116.514,306.682 115.598 C 307.648 115.102,309.411 114.131,310.600 113.442 C 316.202 110.193,319.252 109.698,319.132 112.056 M176.875 188.752 C 176.875 189.073,177.297 189.174,177.813 188.976 C 178.328 188.778,178.750 188.928,178.750 189.308 C 178.750 189.689,178.398 190.043,177.969 190.095 C 177.539 190.148,176.906 190.256,176.563 190.336 C 176.219 190.415,175.569 190.513,175.119 190.553 C 174.669 190.593,174.475 190.906,174.688 191.250 C 174.900 191.594,174.635 191.875,174.099 191.875 C 173.441 191.875,173.141 191.317,173.174 190.156 C 173.201 189.211,173.366 188.789,173.539 189.219 C 173.978 190.307,175.000 190.198,175.000 189.063 C 175.000 188.547,174.702 188.125,174.338 188.125 C 173.974 188.125,173.851 187.843,174.064 187.498 C 174.515 186.767,176.875 187.820,176.875 188.752 M171.757 190.788 C 171.885 191.449,171.581 191.875,170.983 191.875 C 170.442 191.875,170.000 192.280,170.000 192.776 C 170.000 193.271,169.694 193.865,169.321 194.096 C 168.040 194.888,167.590 193.437,168.473 191.358 C 169.422 189.122,171.371 188.783,171.757 190.788 M171.952 196.100 C 171.470 198.233,169.556 201.014,168.972 200.430 C 168.734 200.193,168.851 199.366,169.231 198.593 C 169.611 197.820,170.099 196.555,170.315 195.781 C 170.909 193.664,172.436 193.961,171.952 196.100 M158.750 214.432 C 158.750 214.723,158.328 214.799,157.813 214.601 C 157.297 214.403,156.875 213.815,156.875 213.294 C 156.875 212.523,157.049 212.492,157.813 213.125 C 158.328 213.553,158.750 214.141,158.750 214.432 M168.486 218.047 C 168.300 218.348,168.876 218.594,169.766 218.594 C 170.909 218.594,171.135 218.436,170.535 218.056 C 169.448 217.368,168.907 217.365,168.486 218.047 " stroke="none" fill="#000000" fill-rule="evenodd"></path></g></svg>