<svg id="svg" xmlns="http://www.w3.org/2000/svg" xmlns:xlink="http://www.w3.org/1999/xlink" width="400" height="225" viewBox="0, 0, 400,225"><g id="svgg"><path id="path0" d="M0.292 0.774 C 0.127 1.208,0.064 51.766,0.152 113.125 L 0.313 224.688 80.266 224.833 C 124.241 224.913,161.035 224.767,162.032 224.509 L 163.845 224.039 162.403 222.206 C 161.610 221.197,161.307 220.586,161.730 220.848 C 162.165 221.116,162.500 221.019,162.500 220.625 C 162.500 220.241,162.804 220.114,163.175 220.343 C 163.546 220.573,164.269 220.163,164.780 219.432 C 165.292 218.702,166.043 218.291,166.449 218.519 C 166.983 218.819,166.977 218.706,166.428 218.114 C 166.011 217.663,165.167 217.250,164.553 217.195 C 161.838 216.953,158.892 215.000,161.243 215.000 C 162.048 215.000,161.812 211.701,160.964 211.103 C 160.606 210.851,161.093 210.640,162.047 210.635 C 163.471 210.627,163.848 210.289,164.156 208.750 C 164.656 206.251,166.338 206.593,166.980 209.325 C 167.094 209.811,167.712 210.757,168.354 211.427 C 169.270 212.383,169.457 213.298,169.228 215.686 C 169.067 217.359,169.105 218.900,169.312 219.110 C 169.518 219.321,169.688 220.662,169.688 222.091 L 169.688 224.688 284.688 224.688 L 399.688 224.688 399.688 112.500 L 399.688 0.313 288.783 0.155 C 215.265 0.050,177.667 0.208,177.252 0.623 C 176.833 1.042,177.029 1.251,177.844 1.254 C 178.561 1.256,179.536 2.089,180.211 3.276 L 181.360 5.294 179.967 4.053 L 178.573 2.813 179.363 4.100 C 179.797 4.808,180.891 5.714,181.795 6.113 C 183.187 6.727,184.049 6.957,186.875 7.463 C 187.047 7.494,186.812 7.757,186.354 8.048 C 185.680 8.475,185.706 8.647,186.490 8.948 C 187.024 9.153,187.635 9.038,187.848 8.692 C 188.101 8.284,188.545 8.320,189.118 8.796 C 190.484 9.929,190.161 10.802,188.495 10.483 C 187.459 10.285,187.084 10.441,187.292 10.984 C 187.474 11.460,188.421 11.695,189.678 11.579 C 190.825 11.472,192.702 11.607,193.850 11.878 C 195.136 12.182,195.457 12.412,194.688 12.476 C 193.548 12.570,193.566 12.631,194.890 13.162 C 195.811 13.531,196.769 13.516,197.505 13.122 C 199.036 12.303,202.572 12.276,201.280 13.093 C 200.781 13.409,200.078 13.500,199.717 13.296 C 199.357 13.092,199.259 13.143,199.499 13.410 C 200.139 14.120,204.931 14.367,205.337 13.711 C 205.531 13.397,206.198 13.472,206.853 13.881 C 207.762 14.449,208.244 14.429,209.012 13.792 C 209.672 13.244,210.000 13.205,210.000 13.673 C 210.000 14.059,209.702 14.375,209.338 14.375 C 208.974 14.375,208.850 14.656,209.062 15.000 C 209.275 15.344,209.221 15.627,208.943 15.629 C 208.665 15.631,207.960 16.472,207.377 17.497 C 206.736 18.623,205.971 19.229,205.446 19.027 C 204.967 18.843,204.217 19.125,203.779 19.652 C 203.342 20.180,202.734 20.457,202.429 20.269 C 202.124 20.080,201.875 20.254,201.875 20.655 C 201.875 21.056,201.453 21.222,200.937 21.024 C 200.422 20.826,200.000 20.898,200.000 21.183 C 200.000 21.468,199.297 21.567,198.438 21.403 C 197.578 21.239,196.875 20.697,196.875 20.199 C 196.875 17.845,195.730 16.983,193.326 17.525 C 192.048 17.813,190.586 17.816,190.076 17.530 C 189.499 17.207,188.819 17.342,188.274 17.886 C 187.793 18.368,187.081 18.565,186.692 18.324 C 186.302 18.084,184.567 17.770,182.836 17.627 C 178.550 17.273,178.152 17.281,175.469 17.773 C 173.012 18.223,172.436 17.600,174.062 16.250 C 174.578 15.822,175.000 15.085,175.000 14.611 C 175.000 14.137,175.255 13.750,175.566 13.750 C 176.839 13.750,175.396 11.352,173.958 11.077 C 172.361 10.772,170.000 12.583,170.000 14.113 C 170.000 14.528,169.578 15.028,169.063 15.226 C 168.009 15.630,167.770 17.500,168.772 17.500 C 169.193 17.500,169.163 17.991,168.687 18.906 C 167.689 20.825,167.763 20.784,166.467 20.120 C 165.057 19.398,161.490 18.282,159.375 17.902 C 158.516 17.747,157.039 17.423,156.094 17.180 C 154.987 16.897,154.375 16.986,154.375 17.432 C 154.375 17.813,153.953 18.125,153.438 18.125 C 152.913 18.125,152.500 18.682,152.500 19.390 C 152.500 20.157,151.899 20.885,150.976 21.236 C 150.137 21.554,149.139 22.399,148.757 23.113 C 148.375 23.826,147.783 24.237,147.441 24.026 C 147.100 23.815,146.432 23.965,145.957 24.358 C 145.429 24.797,144.229 24.912,142.860 24.655 C 140.901 24.288,140.625 24.390,140.625 25.489 C 140.625 26.847,139.429 27.554,136.689 27.817 C 135.728 27.909,134.445 28.434,133.837 28.984 C 132.955 29.782,132.565 29.827,131.900 29.210 C 131.227 28.586,131.164 28.618,131.572 29.375 C 131.849 29.891,131.378 29.677,130.523 28.901 C 129.669 28.124,128.765 27.694,128.514 27.944 C 128.264 28.194,128.249 27.904,128.481 27.299 C 128.769 26.548,128.631 26.257,128.045 26.381 C 127.574 26.481,127.258 26.211,127.344 25.781 C 127.430 25.352,127.008 24.980,126.406 24.956 C 125.471 24.919,125.494 24.834,126.563 24.375 C 127.631 23.916,127.654 23.831,126.719 23.794 C 125.169 23.732,125.334 21.450,126.950 20.585 C 128.019 20.013,128.192 20.039,127.842 20.719 C 127.603 21.183,127.833 21.040,128.353 20.402 C 129.214 19.345,129.157 19.100,127.711 17.654 C 126.430 16.373,126.018 16.235,125.572 16.940 C 125.127 17.642,125.017 17.603,125.010 16.738 C 125.003 16.038,124.671 15.791,124.055 16.027 C 123.378 16.287,123.221 16.103,123.500 15.375 C 123.787 14.627,123.625 14.462,122.882 14.747 C 122.328 14.960,121.875 14.954,121.875 14.734 C 121.875 14.514,122.508 14.080,123.281 13.769 L 124.688 13.204 123.318 13.165 C 122.565 13.143,121.748 12.800,121.503 12.403 C 121.210 11.929,121.358 11.838,121.935 12.137 C 122.417 12.388,122.320 12.189,121.719 11.696 C 120.233 10.478,120.338 9.417,121.904 9.826 C 123.120 10.145,126.875 6.886,126.875 5.512 C 126.875 3.862,128.215 5.430,128.804 7.770 C 129.188 9.293,129.910 10.697,130.408 10.888 C 130.946 11.094,131.149 10.967,130.907 10.576 C 130.683 10.213,131.074 9.766,131.777 9.582 C 132.582 9.371,133.125 8.636,133.246 7.593 C 133.427 6.027,133.597 5.949,136.406 6.150 C 139.351 6.361,140.018 5.893,138.680 4.555 C 138.297 4.172,138.113 3.483,138.271 3.023 C 138.449 2.505,139.055 3.019,139.867 4.375 C 142.489 8.756,143.172 8.936,148.845 6.736 C 151.202 5.822,152.539 4.917,152.755 4.091 C 153.238 2.244,152.223 1.618,150.536 2.723 C 148.252 4.217,145.625 3.419,145.625 1.231 C 145.625 -0.290,0.869 -0.745,0.292 0.774 M157.656 10.466 C 155.029 11.773,155.077 12.500,157.791 12.500 C 159.292 12.500,160.154 12.129,160.603 11.291 C 161.814 9.029,161.000 8.802,157.656 10.466 M116.875 24.988 C 116.875 26.496,117.471 27.296,120.000 29.184 C 123.214 31.583,124.038 32.874,121.928 32.204 C 121.269 31.995,120.549 32.117,120.328 32.475 C 120.107 32.832,118.972 33.125,117.807 33.125 C 116.537 33.125,115.469 33.516,115.142 34.099 C 114.029 36.087,107.500 35.818,107.500 33.784 C 107.500 32.517,108.956 31.039,109.585 31.668 C 110.283 32.366,112.338 30.027,112.725 28.096 C 113.582 23.807,116.875 21.341,116.875 24.988 M69.527 38.906 C 70.070 44.007,67.984 44.292,67.236 39.219 C 66.841 36.540,66.918 36.250,68.021 36.250 C 68.998 36.250,69.300 36.783,69.527 38.906 M115.013 44.703 C 116.008 45.902,116.019 45.894,111.779 47.111 C 108.348 48.095,105.625 48.419,105.625 47.842 C 105.625 45.753,107.158 44.489,108.716 45.295 C 110.216 46.071,110.458 46.036,111.134 44.953 C 112.036 43.510,113.921 43.388,115.013 44.703 M97.872 50.107 C 98.527 50.854,98.711 51.259,98.281 51.008 C 97.852 50.757,97.500 50.840,97.500 51.193 C 97.500 51.547,97.106 51.685,96.624 51.500 C 95.914 51.227,95.768 50.326,96.202 48.906 C 96.319 48.524,96.763 48.843,97.872 50.107 M93.740 54.073 C 92.862 55.008,91.857 55.512,91.299 55.298 C 90.777 55.098,90.540 55.123,90.771 55.354 C 91.281 55.865,89.744 57.500,88.753 57.500 C 87.941 57.500,88.554 54.922,89.513 54.305 C 89.839 54.095,90.083 53.743,90.053 53.524 C 89.855 52.039,90.134 51.773,91.524 52.122 C 92.369 52.334,93.236 52.201,93.470 51.823 C 93.770 51.337,94.084 51.334,94.562 51.812 C 95.041 52.291,94.804 52.940,93.740 54.073 M83.032 58.751 C 83.647 60.516,83.594 60.576,80.580 61.577 C 78.886 62.140,77.500 62.859,77.500 63.175 C 77.500 63.491,77.226 63.750,76.890 63.750 C 76.503 63.750,76.492 63.196,76.858 62.231 C 77.176 61.396,77.270 59.693,77.068 58.448 C 76.715 56.274,76.764 56.198,78.282 56.579 C 79.202 56.810,80.046 56.681,80.300 56.270 C 80.915 55.275,82.239 56.478,83.032 58.751 M87.500 58.088 C 87.500 58.412,87.175 58.877,86.778 59.122 C 86.289 59.425,86.227 59.286,86.586 58.690 C 87.036 57.943,86.958 57.940,86.057 58.670 C 85.146 59.409,85.000 59.388,85.000 58.514 C 85.000 57.917,85.514 57.500,86.250 57.500 C 86.938 57.500,87.500 57.765,87.500 58.088 M71.546 63.552 C 71.274 64.176,71.086 64.868,71.129 65.090 C 71.231 65.625,68.031 66.927,66.091 67.140 C 64.728 67.289,64.919 66.953,67.716 64.285 C 70.786 61.357,72.658 60.999,71.546 63.552 M61.578 64.950 C 61.369 65.610,61.076 66.780,60.928 67.551 C 60.596 69.273,57.694 73.750,56.910 73.750 C 56.570 73.750,56.557 72.983,56.878 71.863 C 57.176 70.826,57.443 69.845,57.471 69.683 C 57.499 69.521,58.289 68.120,59.225 66.569 C 60.966 63.687,62.262 62.795,61.578 64.950 M308.370 87.426 C 309.360 88.520,309.362 88.673,308.400 89.636 C 307.831 90.204,307.498 91.175,307.660 91.793 C 307.840 92.481,307.613 92.917,307.075 92.917 C 306.592 92.917,306.341 92.538,306.519 92.076 C 306.696 91.614,306.531 90.553,306.151 89.720 C 304.858 86.881,306.418 85.268,308.370 87.426 M47.866 90.156 C 47.761 91.617,47.471 93.560,47.222 94.473 C 46.958 95.439,47.074 96.704,47.497 97.495 C 47.898 98.244,48.090 98.993,47.924 99.159 C 47.425 99.659,45.000 97.886,45.000 97.022 C 45.000 96.580,44.335 95.966,43.523 95.657 C 40.530 94.520,40.814 91.791,44.193 89.219 C 47.394 86.783,48.096 86.962,47.866 90.156 M33.474 99.523 C 33.445 102.124,33.213 102.839,32.343 103.006 C 31.742 103.122,31.250 103.510,31.250 103.869 C 31.250 104.227,31.812 104.374,32.499 104.194 C 33.187 104.014,33.921 104.146,34.132 104.488 C 34.678 105.370,30.649 109.345,29.612 108.947 C 28.848 108.654,28.419 109.780,28.676 111.406 C 28.717 111.664,28.204 111.875,27.537 111.875 C 26.870 111.875,26.150 112.156,25.938 112.500 C 25.725 112.844,24.989 113.125,24.301 113.125 C 23.614 113.125,23.225 112.844,23.438 112.500 C 23.650 112.156,23.526 111.875,23.162 111.875 C 22.430 111.875,22.530 110.521,23.303 109.949 C 23.573 109.750,23.889 108.607,24.005 107.411 C 24.297 104.396,24.965 102.500,25.734 102.500 C 26.091 102.500,26.223 102.082,26.028 101.572 C 25.636 100.551,27.648 99.137,28.456 99.866 C 28.728 100.111,28.748 99.961,28.501 99.531 C 28.254 99.102,28.279 98.728,28.557 98.702 C 30.497 98.519,31.542 98.073,32.016 97.227 C 33.017 95.438,33.512 96.217,33.474 99.523 M304.010 106.960 C 303.798 107.303,304.212 107.738,304.931 107.926 C 305.968 108.197,306.157 108.590,305.846 109.828 C 305.492 111.241,305.596 111.345,306.946 110.935 C 309.213 110.245,309.510 110.254,309.794 111.021 C 310.166 112.027,308.269 113.750,306.789 113.750 C 306.104 113.750,305.008 114.036,304.355 114.385 C 303.365 114.915,303.010 114.715,302.216 113.180 C 301.692 112.167,300.698 111.159,300.007 110.940 C 297.273 110.072,299.231 106.875,302.496 106.875 C 303.340 106.875,303.661 106.612,303.378 106.153 C 303.099 105.703,303.207 105.602,303.664 105.884 C 304.066 106.133,304.222 106.617,304.010 106.960 M297.500 111.172 C 297.500 111.473,297.682 112.630,297.905 113.743 C 298.285 115.645,298.231 115.726,297.008 115.071 C 296.138 114.605,295.190 114.571,294.145 114.968 C 292.760 115.495,292.612 115.415,292.835 114.258 C 293.312 111.784,297.500 109.013,297.500 111.172 M311.004 115.364 C 310.796 115.907,310.625 116.603,310.625 116.910 C 310.625 117.416,307.420 119.375,306.594 119.375 C 305.605 119.375,306.440 116.270,307.656 115.422 C 309.556 114.096,311.504 114.062,311.004 115.364 M292.647 117.844 C 292.338 119.459,290.625 120.005,290.625 118.489 C 290.625 116.870,291.343 115.700,292.147 116.008 C 292.612 116.187,292.819 116.946,292.647 117.844 M291.875 122.557 C 291.875 123.640,290.297 124.924,289.738 124.296 C 288.778 123.218,288.825 121.323,289.818 121.098 C 291.361 120.749,291.875 121.114,291.875 122.557 M171.250 190.670 C 171.250 192.128,169.354 193.255,167.638 192.817 L 165.938 192.383 168.125 191.259 C 170.783 189.893,171.250 189.805,171.250 190.670 " stroke="none" fill="#000000" fill-rule="evenodd"></path></g></svg>