<svg id="svg" xmlns="http://www.w3.org/2000/svg" xmlns:xlink="http://www.w3.org/1999/xlink" width="400" height="225" viewBox="0, 0, 400,225"><g id="svgg"><path d="M0 225 h400 v-225 h-400 z" stroke="#000000" stroke-width="0.01" fill="none"/><path id="path0" d="M178.646 102.549 C 177.125 103.092,175.190 104.130,174.347 104.855 C 173.503 105.581,172.137 106.754,171.311 107.462 C 170.485 108.170,169.583 108.750,169.308 108.750 C 169.032 108.750,168.622 109.734,168.396 110.938 C 168.171 112.141,167.797 113.125,167.565 113.125 C 165.220 113.125,165.200 116.730,167.531 119.332 C 168.875 120.831,170.139 122.579,170.342 123.216 C 170.544 123.854,171.112 124.375,171.605 124.375 C 172.097 124.375,172.501 124.867,172.503 125.469 C 172.509 127.652,175.898 130.343,179.764 131.234 C 181.785 131.700,183.896 132.470,184.457 132.945 C 185.334 133.689,185.633 133.652,186.599 132.686 C 187.238 132.046,188.760 131.519,190.137 131.461 C 191.466 131.405,193.234 130.913,194.067 130.367 C 194.900 129.821,196.134 129.375,196.811 129.375 C 197.487 129.375,198.206 128.855,198.407 128.220 C 198.609 127.585,199.472 126.747,200.325 126.358 C 201.264 125.930,201.875 125.131,201.875 124.330 C 201.875 123.522,202.374 122.877,203.159 122.672 C 205.854 121.968,203.077 109.734,199.688 107.378 C 199.344 107.139,198.243 106.295,197.241 105.503 C 192.359 101.641,184.632 100.414,178.646 102.549 " stroke="none" fill="#000000" fill-rule="evenodd"></path></g></svg>