<svg id="svg" xmlns="http://www.w3.org/2000/svg" xmlns:xlink="http://www.w3.org/1999/xlink" width="400" height="225" viewBox="0, 0, 400,225"><g id="svgg"><path id="path0" d="M0.290 0.778 C 0.126 1.209,0.064 51.766,0.152 113.125 L 0.313 224.688 80.625 224.836 C 124.797 224.917,161.282 224.764,161.703 224.496 C 162.792 223.802,163.034 220.892,161.985 221.109 C 161.523 221.205,161.344 220.979,161.579 220.599 C 161.810 220.224,162.160 220.077,162.356 220.273 C 162.552 220.469,163.381 220.192,164.197 219.657 C 166.548 218.116,167.829 218.921,167.720 221.871 C 167.593 225.309,157.359 225.049,285.000 224.858 L 399.688 224.688 399.688 112.500 L 399.688 0.313 282.592 0.161 C 208.456 0.065,165.119 0.230,164.467 0.611 C 163.461 1.198,165.190 1.355,173.566 1.435 C 175.156 1.450,176.041 1.708,175.807 2.086 C 175.571 2.469,175.859 2.544,176.548 2.279 C 177.498 1.915,177.553 1.996,176.894 2.790 C 176.415 3.367,176.276 4.393,176.536 5.428 C 176.877 6.786,177.084 6.943,177.584 6.217 C 178.049 5.541,178.107 5.668,177.811 6.719 C 177.579 7.546,177.691 8.125,178.083 8.125 C 178.879 8.125,178.697 9.493,177.813 10.156 C 177.421 10.450,177.537 10.854,178.125 11.240 C 178.641 11.579,178.781 11.880,178.438 11.909 C 178.094 11.939,178.375 12.186,179.063 12.459 C 179.823 12.760,180.492 12.682,180.772 12.258 C 181.053 11.832,181.235 12.012,181.240 12.723 C 181.247 13.514,181.559 13.765,182.220 13.512 C 182.776 13.298,183.027 13.403,182.808 13.757 C 182.598 14.097,182.715 14.375,183.068 14.375 C 183.422 14.375,183.536 14.829,183.323 15.385 C 183.015 16.187,183.211 16.307,184.280 15.968 C 185.113 15.703,185.625 15.809,185.625 16.245 C 185.625 16.632,185.368 16.790,185.053 16.595 C 184.739 16.401,184.339 16.596,184.163 17.027 C 183.947 17.561,183.679 17.602,183.329 17.157 C 182.664 16.313,177.740 15.981,177.266 16.748 C 177.067 17.069,176.183 17.194,175.300 17.026 C 173.769 16.733,173.750 16.680,174.888 15.883 C 175.552 15.418,176.034 14.413,175.973 13.617 C 175.914 12.831,176.076 11.897,176.334 11.542 C 177.311 10.197,175.867 9.221,173.672 9.742 C 172.512 10.017,171.312 10.258,171.006 10.277 C 170.699 10.297,170.137 10.869,169.756 11.548 C 169.374 12.228,168.641 13.163,168.125 13.626 C 167.292 14.374,167.292 14.414,168.125 13.989 C 168.930 13.578,168.942 13.658,168.210 14.561 C 167.742 15.138,167.112 15.459,166.811 15.273 C 166.510 15.087,166.449 15.442,166.676 16.061 C 167.058 17.109,167.004 17.117,165.887 16.177 C 164.422 14.942,162.488 14.866,162.946 16.060 C 163.142 16.571,163.745 16.762,164.452 16.538 C 165.582 16.180,166.855 17.728,166.073 18.510 C 165.469 19.114,161.139 17.585,160.210 16.439 C 159.523 15.592,159.213 15.514,158.961 16.125 C 158.693 16.774,158.337 16.748,157.191 15.998 C 155.822 15.100,155.634 15.192,153.016 18.035 C 151.508 19.672,149.773 21.204,149.160 21.439 C 148.547 21.674,148.221 22.149,148.435 22.496 C 148.649 22.842,148.261 23.125,147.574 23.125 C 146.886 23.125,146.131 23.437,145.896 23.817 C 145.630 24.247,144.546 24.362,143.037 24.121 C 140.883 23.776,140.527 23.905,139.913 25.253 C 139.405 26.368,138.866 26.689,137.892 26.457 C 137.161 26.283,135.818 26.114,134.907 26.081 C 133.869 26.045,133.362 25.736,133.547 25.254 C 133.709 24.830,133.343 24.388,132.734 24.271 C 131.291 23.993,130.991 20.625,132.409 20.625 C 133.118 20.625,133.190 20.440,132.679 19.929 C 131.832 19.082,130.424 19.825,130.837 20.901 C 131.320 22.159,130.402 23.137,129.359 22.477 C 128.736 22.083,128.691 21.891,129.219 21.885 C 130.616 21.867,130.194 16.694,128.691 15.407 C 127.427 14.325,127.422 14.256,128.535 13.396 C 129.459 12.682,129.217 12.695,127.310 13.463 C 125.063 14.367,124.964 14.359,125.506 13.304 C 126.108 12.134,125.820 10.564,124.892 9.954 C 124.591 9.757,124.909 9.085,125.599 8.461 C 127.105 7.098,128.750 8.039,128.750 10.264 C 128.750 11.621,129.801 13.125,130.750 13.125 C 131.025 13.125,131.250 12.713,131.250 12.209 C 131.250 11.706,131.813 10.993,132.500 10.625 C 133.219 10.240,133.750 9.316,133.750 8.451 C 133.750 6.205,138.058 6.000,141.792 8.068 C 144.471 9.552,144.561 9.559,146.583 8.470 C 147.716 7.860,148.931 7.538,149.281 7.755 C 150.576 8.555,154.623 3.249,153.985 1.587 C 153.474 0.253,152.832 0.377,150.878 2.188 C 149.951 3.047,148.975 3.750,148.710 3.750 C 147.270 3.750,146.250 2.819,146.250 1.505 L 146.250 0.018 73.419 0.005 C 15.537 -0.005,0.527 0.154,0.290 0.778 M158.125 9.658 C 157.266 10.139,156.075 10.683,155.479 10.868 C 153.149 11.588,154.986 12.814,158.073 12.600 C 160.552 12.428,161.198 12.140,161.474 11.085 C 162.109 8.659,160.860 8.127,158.125 9.658 M126.875 11.563 C 126.875 12.078,127.331 12.500,127.889 12.500 C 128.720 12.500,128.762 12.330,128.125 11.563 C 127.697 11.047,127.241 10.625,127.111 10.625 C 126.981 10.625,126.875 11.047,126.875 11.563 M188.125 12.540 C 188.125 12.134,188.436 11.994,188.817 12.229 C 189.302 12.529,189.265 12.807,188.690 13.162 C 188.240 13.440,187.604 13.502,187.277 13.300 C 186.950 13.097,186.883 13.257,187.128 13.653 C 187.787 14.720,189.355 14.529,189.816 13.327 C 190.180 12.379,190.257 12.389,190.624 13.435 C 191.032 14.597,193.784 15.305,193.558 14.190 C 193.492 13.862,193.767 13.472,194.170 13.324 C 194.639 13.150,194.781 13.514,194.565 14.339 C 194.154 15.913,194.809 15.979,196.464 14.531 C 197.152 13.930,197.498 13.808,197.232 14.261 C 196.925 14.784,197.057 15.041,197.594 14.968 C 199.780 14.668,200.884 15.162,199.063 15.625 C 197.196 16.100,197.199 16.102,199.531 16.176 C 202.138 16.258,202.395 16.623,200.781 17.946 C 200.180 18.439,200.083 18.638,200.565 18.387 C 201.142 18.088,201.290 18.179,200.997 18.653 C 200.396 19.627,196.894 19.577,196.803 18.594 C 196.763 18.164,196.788 17.281,196.857 16.631 C 196.955 15.718,196.723 15.554,195.835 15.908 C 194.037 16.625,191.041 16.751,189.877 16.157 C 189.123 15.773,188.640 15.932,188.205 16.709 C 187.353 18.232,186.716 17.346,186.491 14.327 C 186.328 12.139,186.434 11.874,187.212 12.521 C 187.904 13.094,188.125 13.099,188.125 12.540 M203.365 13.906 C 203.617 14.829,203.913 15.062,204.223 14.585 C 204.577 14.039,204.978 14.063,205.823 14.681 C 206.534 15.201,206.705 15.656,206.287 15.914 C 205.923 16.140,205.625 16.026,205.625 15.662 C 205.625 15.298,205.314 15.000,204.933 15.000 C 204.553 15.000,204.403 15.422,204.601 15.938 C 204.800 16.456,204.619 16.875,204.196 16.875 C 203.775 16.875,203.123 15.891,202.746 14.688 C 202.370 13.484,202.268 12.500,202.520 12.500 C 202.773 12.500,203.153 13.133,203.365 13.906 M134.026 15.684 C 133.794 16.060,132.933 16.240,132.114 16.083 C 131.138 15.896,130.625 16.090,130.625 16.645 C 130.625 17.533,132.218 17.522,133.656 16.625 C 134.346 16.195,134.365 16.350,133.762 17.478 C 133.356 18.237,133.187 19.020,133.387 19.220 C 133.587 19.420,133.750 19.255,133.750 18.854 C 133.750 18.453,134.102 18.195,134.531 18.281 C 134.961 18.367,135.206 18.016,135.077 17.500 C 134.947 16.984,134.830 16.211,134.816 15.781 C 134.786 14.820,134.576 14.794,134.026 15.684 M168.750 17.761 C 168.750 18.714,167.899 19.934,167.435 19.647 C 166.520 19.082,166.799 17.500,167.813 17.500 C 168.328 17.500,168.750 17.618,168.750 17.761 M132.753 23.222 C 132.475 23.670,132.581 23.773,133.033 23.494 C 133.853 22.987,135.795 24.621,135.146 25.271 C 134.915 25.502,135.209 25.505,135.800 25.279 C 136.391 25.052,136.875 24.599,136.875 24.271 C 136.875 23.944,136.626 23.830,136.321 24.019 C 136.016 24.207,135.419 23.942,134.994 23.431 C 134.067 22.314,133.355 22.247,132.753 23.222 M117.027 27.555 C 119.270 29.798,118.708 30.600,114.881 30.615 C 112.171 30.627,111.390 31.455,112.997 32.613 C 115.588 34.482,115.217 35.000,111.287 35.000 C 107.917 35.000,107.500 34.862,107.500 33.750 C 107.500 32.607,108.178 32.190,109.609 32.452 C 110.412 32.599,112.500 30.562,112.500 29.631 C 112.500 25.751,114.366 24.895,117.027 27.555 M69.165 39.858 C 69.314 42.372,69.170 43.007,68.506 42.752 C 67.642 42.421,66.687 37.685,67.287 36.714 C 68.094 35.408,68.989 36.907,69.165 39.858 M114.821 44.767 C 115.067 45.513,113.821 46.172,111.250 46.656 C 110.391 46.817,109.433 47.201,109.123 47.508 C 108.335 48.287,106.221 47.052,106.610 46.040 C 106.799 45.545,107.605 45.324,108.653 45.477 C 109.744 45.638,110.697 45.354,111.231 44.711 C 112.153 43.599,114.449 43.635,114.821 44.767 M97.548 49.323 C 97.574 49.523,97.692 50.196,97.810 50.817 C 97.955 51.576,97.699 51.884,97.033 51.755 C 95.833 51.522,95.505 48.958,96.675 48.958 C 97.129 48.958,97.522 49.122,97.548 49.323 M94.373 52.634 C 94.376 53.260,89.876 56.250,88.931 56.250 C 88.366 56.250,88.446 55.679,89.218 54.178 C 90.208 52.255,94.366 51.010,94.373 52.634 M81.569 56.260 C 81.785 56.610,82.168 56.768,82.420 56.612 C 82.673 56.456,82.907 57.295,82.940 58.476 C 82.988 60.169,82.757 60.625,81.850 60.625 C 81.217 60.625,80.546 60.873,80.359 61.175 C 79.199 63.052,77.184 62.211,77.039 59.788 C 76.846 56.586,80.170 53.998,81.569 56.260 M70.888 61.956 C 70.739 62.196,70.971 62.518,71.402 62.671 C 72.394 63.022,68.536 66.875,67.193 66.875 C 65.892 66.875,66.002 66.412,67.817 64.256 C 68.678 63.232,69.262 62.197,69.113 61.956 C 68.964 61.715,69.363 61.518,70.000 61.518 C 70.637 61.518,71.036 61.715,70.888 61.956 M60.857 66.085 C 60.350 68.883,57.248 73.121,56.200 72.446 C 55.490 71.989,55.473 71.771,56.115 71.356 C 56.559 71.069,56.737 70.369,56.514 69.787 C 56.201 68.970,56.360 68.831,57.226 69.164 C 58.076 69.490,58.251 69.354,57.960 68.596 C 57.731 68.001,58.179 66.949,59.071 65.987 C 60.961 63.948,61.242 63.964,60.857 66.085 M308.115 88.490 C 308.121 88.862,307.744 89.167,307.278 89.167 C 306.574 89.167,306.356 87.822,306.805 86.250 C 306.946 85.757,308.105 87.737,308.115 88.490 M46.466 91.094 C 45.982 94.832,44.719 96.475,43.105 95.468 C 41.419 94.415,41.686 91.310,43.534 90.467 C 44.340 90.100,45.000 89.423,45.000 88.962 C 45.000 88.502,45.416 88.125,45.926 88.125 C 46.667 88.125,46.775 88.715,46.466 91.094 M33.405 99.995 C 33.308 101.711,33.486 103.275,33.802 103.469 C 34.510 103.907,34.566 106.250,33.868 106.250 C 33.589 106.250,32.680 106.883,31.849 107.656 C 31.017 108.430,30.120 108.992,29.856 108.906 C 29.591 108.820,29.375 108.988,29.375 109.279 C 29.375 110.556,27.080 112.334,25.619 112.189 C 23.546 111.983,23.601 112.066,24.476 110.469 C 24.899 109.695,25.289 108.078,25.342 106.875 C 25.555 102.066,27.255 100.062,30.938 100.281 C 33.420 100.429,33.425 100.425,31.645 99.685 C 29.973 98.990,30.800 97.633,32.656 98.026 C 32.914 98.080,33.125 97.844,33.125 97.500 C 33.125 97.156,33.228 96.875,33.354 96.875 C 33.479 96.875,33.503 98.279,33.405 99.995 M31.250 103.438 C 31.250 104.010,31.552 104.378,31.922 104.255 C 32.291 104.132,32.594 103.764,32.594 103.438 C 32.594 103.111,32.291 102.743,31.922 102.620 C 31.552 102.497,31.250 102.865,31.250 103.438 M304.716 106.927 C 304.732 107.414,305.107 107.734,305.551 107.638 C 306.139 107.511,306.244 107.977,305.941 109.357 C 305.627 110.788,305.748 111.250,306.436 111.250 C 308.326 111.250,309.018 113.054,307.368 113.681 C 304.255 114.865,302.824 114.771,302.624 113.370 C 302.521 112.645,301.737 111.678,300.883 111.221 C 298.949 110.186,299.169 108.703,301.414 107.627 C 302.355 107.176,303.125 106.517,303.125 106.164 C 303.125 105.174,304.684 105.922,304.716 106.927 M296.875 112.500 C 296.875 112.844,296.296 113.125,295.588 113.125 C 294.880 113.125,294.475 112.844,294.688 112.500 C 294.900 112.156,295.479 111.875,295.974 111.875 C 296.470 111.875,296.875 112.156,296.875 112.500 M166.937 211.161 C 166.971 211.725,167.074 213.031,167.165 214.063 C 167.435 217.103,167.004 217.563,164.197 217.224 C 161.133 216.855,159.375 214.596,161.250 213.438 C 161.594 213.225,161.875 212.458,161.875 211.734 C 161.875 211.009,162.053 210.594,162.270 210.811 C 162.487 211.028,163.222 210.815,163.904 210.338 C 165.368 209.312,166.850 209.714,166.937 211.161 " stroke="none" fill="#000000" fill-rule="evenodd"></path></g></svg>