<svg id="svg" xmlns="http://www.w3.org/2000/svg" xmlns:xlink="http://www.w3.org/1999/xlink" width="400" height="225" viewBox="0, 0, 400,225"><g id="svgg"><path id="path0" d="M0.292 0.774 C 0.127 1.208,0.064 51.766,0.152 113.125 L 0.313 224.688 80.000 224.859 C 123.828 224.953,160.320 224.877,161.094 224.691 C 162.596 224.328,162.973 222.598,161.804 221.429 C 160.646 220.271,161.728 219.503,163.896 219.944 C 165.639 220.299,165.983 220.676,166.250 222.524 L 166.563 224.688 283.125 224.688 L 399.688 224.688 399.688 112.500 L 399.688 0.313 281.719 0.313 C 203.385 0.313,163.802 0.522,163.906 0.938 C 163.992 1.281,164.414 1.523,164.844 1.476 C 165.273 1.428,165.625 1.623,165.625 1.909 C 165.625 2.194,166.188 2.320,166.875 2.187 C 167.563 2.055,168.125 2.179,168.125 2.463 C 168.125 2.989,170.519 3.953,171.453 3.802 C 171.736 3.756,171.787 4.012,171.566 4.370 C 171.345 4.728,170.881 4.846,170.536 4.632 C 170.190 4.419,170.256 4.802,170.682 5.484 C 171.204 6.320,172.078 6.698,173.362 6.643 C 174.715 6.586,175.332 6.879,175.492 7.656 C 175.616 8.258,175.398 8.750,175.009 8.750 C 174.620 8.750,174.457 8.498,174.647 8.190 C 174.837 7.883,174.550 7.461,174.008 7.253 C 172.574 6.703,172.500 6.748,172.500 8.162 C 172.500 8.912,172.223 9.277,171.836 9.038 C 171.470 8.812,170.578 9.147,169.853 9.783 C 168.939 10.584,168.678 10.650,169.003 10.000 C 169.260 9.484,168.912 9.695,168.229 10.469 C 167.012 11.847,165.835 12.427,166.526 11.308 C 166.719 10.997,166.314 10.889,165.626 11.069 C 164.938 11.249,164.375 11.634,164.375 11.926 C 164.375 12.217,163.859 12.732,163.229 13.069 C 162.364 13.532,162.083 13.461,162.083 12.779 C 162.083 12.282,162.328 11.875,162.626 11.875 C 162.925 11.875,162.865 11.307,162.493 10.612 C 162.121 9.917,161.975 9.094,162.168 8.782 C 162.360 8.470,161.910 8.022,161.168 7.786 C 160.231 7.489,159.638 7.678,159.233 8.401 C 158.628 9.483,155.920 10.872,153.831 11.172 C 153.532 11.215,153.322 11.883,153.363 12.656 C 153.413 13.611,153.102 14.037,152.393 13.984 C 151.747 13.935,151.475 14.233,151.679 14.765 C 151.860 15.238,151.627 15.635,151.161 15.647 C 150.694 15.659,151.016 16.101,151.875 16.628 C 152.734 17.155,152.945 17.435,152.344 17.250 C 151.742 17.065,151.250 17.210,151.250 17.572 C 151.250 17.933,150.266 19.185,149.063 20.354 C 147.859 21.522,146.875 22.308,146.875 22.100 C 146.875 21.892,146.453 22.072,145.938 22.500 C 145.422 22.928,145.000 23.069,145.000 22.813 C 145.000 22.556,144.524 22.733,143.943 23.205 C 143.345 23.689,143.077 23.742,143.327 23.326 C 143.779 22.573,143.185 22.294,139.599 21.574 C 137.971 21.248,137.695 20.952,137.985 19.842 C 138.310 18.598,138.364 18.586,138.746 19.675 C 139.182 20.918,142.162 21.677,142.767 20.698 C 142.965 20.378,142.565 20.263,141.876 20.444 C 141.149 20.634,140.625 20.463,140.625 20.036 C 140.625 19.632,140.300 19.502,139.903 19.747 C 139.456 20.024,139.352 19.919,139.629 19.470 C 139.932 18.979,140.435 18.939,141.192 19.344 C 141.949 19.749,142.570 19.699,143.121 19.189 C 143.757 18.601,143.837 18.607,143.492 19.219 C 142.949 20.182,144.329 20.238,145.625 19.306 C 146.397 18.751,146.354 18.700,145.380 19.018 C 144.435 19.326,144.340 19.233,144.906 18.551 C 145.296 18.081,145.429 17.512,145.203 17.286 C 144.977 17.060,145.277 16.875,145.870 16.875 C 146.567 16.875,146.783 17.152,146.479 17.656 C 146.160 18.187,146.349 18.163,147.068 17.580 C 148.573 16.359,148.388 15.957,146.250 15.801 C 142.672 15.541,142.018 15.354,142.282 14.665 C 142.428 14.285,143.348 14.091,144.325 14.234 C 145.302 14.378,146.291 14.190,146.521 13.817 C 146.787 13.387,146.563 13.284,145.907 13.536 C 145.320 13.761,144.641 13.555,144.335 13.060 C 143.883 12.329,143.626 12.357,142.752 13.230 C 141.678 14.304,138.750 13.670,138.750 12.363 C 138.750 12.054,139.031 11.975,139.375 12.187 C 140.793 13.064,139.871 11.934,138.361 10.945 C 137.459 10.354,136.888 10.140,137.092 10.470 C 137.305 10.815,136.826 10.948,135.962 10.783 C 133.984 10.404,134.067 8.375,136.061 8.375 C 136.852 8.375,137.500 8.610,137.500 8.897 C 137.500 9.184,138.096 9.100,138.825 8.710 C 139.554 8.319,139.982 8.274,139.775 8.609 C 139.546 8.978,141.111 9.253,143.757 9.307 C 148.371 9.402,150.261 8.619,154.649 4.796 C 155.658 3.916,156.741 3.355,157.055 3.549 C 157.368 3.742,157.306 3.304,156.915 2.575 C 156.525 1.846,155.583 1.214,154.822 1.170 C 154.060 1.126,152.734 0.936,151.875 0.748 C 148.206 -0.057,0.598 -0.032,0.292 0.774 M150.000 1.875 C 150.000 2.219,149.280 2.500,148.401 2.500 C 147.494 2.500,146.968 2.229,147.188 1.875 C 147.400 1.531,148.120 1.250,148.787 1.250 C 149.454 1.250,150.000 1.531,150.000 1.875 M135.981 14.929 C 135.556 15.617,137.149 17.018,137.714 16.453 C 137.940 16.227,138.125 16.527,138.125 17.120 C 138.125 17.713,137.844 18.025,137.500 17.813 C 136.927 17.459,136.597 18.312,136.816 19.578 C 136.866 19.861,136.613 19.912,136.255 19.691 C 135.897 19.470,135.794 18.983,136.025 18.608 C 136.300 18.164,135.978 18.050,135.098 18.280 C 134.357 18.474,133.567 18.334,133.342 17.970 C 133.100 17.579,133.229 17.491,133.658 17.756 C 134.068 18.009,134.518 17.779,134.692 17.227 C 134.861 16.690,135.132 15.828,135.293 15.313 C 135.454 14.797,135.752 14.375,135.955 14.375 C 136.158 14.375,136.170 14.624,135.981 14.929 M204.734 16.060 C 204.539 17.386,203.395 17.817,202.767 16.802 C 202.433 16.261,202.624 16.164,203.423 16.471 C 204.377 16.837,204.430 16.756,203.762 15.952 C 203.113 15.170,203.143 15.000,203.931 15.000 C 204.477 15.000,204.822 15.456,204.734 16.060 M114.681 32.730 C 116.349 33.950,114.325 34.974,110.574 34.809 C 105.845 34.601,107.396 32.339,112.537 31.949 C 113.073 31.908,114.037 32.260,114.681 32.730 M68.750 37.849 C 68.750 38.881,67.762 39.055,67.188 38.125 C 66.678 37.300,67.425 36.130,68.168 36.589 C 68.488 36.787,68.750 37.354,68.750 37.849 M69.375 41.250 C 69.375 41.944,68.958 42.500,68.438 42.500 C 67.486 42.500,67.155 41.178,67.917 40.417 C 68.709 39.624,69.375 40.005,69.375 41.250 M113.733 43.906 C 113.696 45.599,106.875 48.229,106.875 46.551 C 106.875 45.862,107.285 45.704,108.367 45.976 C 109.423 46.241,110.108 45.999,110.711 45.149 C 111.414 44.157,112.212 43.611,113.594 43.174 C 113.680 43.147,113.742 43.477,113.733 43.906 M97.355 50.289 C 97.449 51.423,97.237 51.735,96.554 51.473 C 95.589 51.102,95.319 49.889,96.042 49.167 C 96.816 48.392,97.227 48.743,97.355 50.289 M93.541 53.125 C 92.411 54.579,91.000 55.544,90.476 55.220 C 90.214 55.059,90.000 55.280,90.000 55.713 C 90.000 56.340,89.842 56.342,89.224 55.724 C 88.606 55.106,88.638 54.828,89.380 54.359 C 89.893 54.034,90.067 53.765,89.767 53.760 C 88.218 53.732,90.799 52.188,92.394 52.188 C 93.967 52.188,94.152 52.338,93.541 53.125 M80.313 55.625 C 80.525 55.969,81.174 56.250,81.756 56.250 C 82.524 56.250,82.813 56.787,82.813 58.218 C 82.813 60.644,78.386 62.860,77.738 60.758 C 77.557 60.169,77.129 59.168,76.787 58.534 C 75.738 56.589,79.162 53.764,80.313 55.625 M71.400 62.382 C 71.609 63.179,71.051 63.978,69.587 64.981 C 67.247 66.584,66.090 66.278,67.712 64.486 C 68.283 63.855,68.750 63.066,68.750 62.732 C 68.750 60.721,70.892 60.438,71.400 62.382 M60.251 67.619 C 59.751 68.585,59.069 69.375,58.734 69.375 C 58.399 69.375,58.125 69.938,58.125 70.625 C 58.125 71.313,57.835 71.875,57.480 71.875 C 56.480 71.875,55.975 69.931,56.837 69.398 C 57.261 69.137,57.574 68.673,57.533 68.368 C 57.493 68.062,58.090 67.048,58.862 66.115 C 60.599 64.011,61.572 65.065,60.251 67.619 M45.006 92.476 C 43.885 96.640,41.755 95.483,42.426 91.074 C 42.502 90.569,45.159 89.383,45.510 89.697 C 45.618 89.794,45.392 91.045,45.006 92.476 M34.075 102.188 C 34.107 102.531,34.375 103.348,34.671 104.002 C 35.099 104.951,34.711 105.618,32.760 107.288 C 31.414 108.440,29.805 109.819,29.185 110.351 C 27.665 111.654,24.583 112.026,24.583 110.906 C 24.583 110.437,24.948 109.914,25.394 109.743 C 25.904 109.547,26.185 108.397,26.150 106.651 C 26.066 102.477,27.529 100.972,31.563 101.085 C 32.594 101.114,33.084 100.998,32.652 100.828 C 32.221 100.658,32.049 100.225,32.270 99.866 C 32.666 99.226,33.952 100.880,34.075 102.188 M305.615 109.292 C 305.610 109.509,305.344 110.102,305.023 110.609 C 304.639 111.216,304.696 111.691,305.189 112.005 C 305.760 112.368,305.753 112.483,305.156 112.490 C 304.727 112.496,304.375 113.063,304.375 113.750 C 304.375 114.438,304.094 115.000,303.750 115.000 C 303.406 115.000,303.125 114.485,303.125 113.856 C 303.125 113.226,302.422 112.335,301.563 111.875 C 299.642 110.847,299.548 109.502,301.349 108.836 C 302.769 108.310,305.632 108.616,305.615 109.292 M163.997 210.898 C 165.969 210.403,166.857 212.009,165.666 213.917 C 165.036 214.926,165.043 215.265,165.706 215.675 C 166.869 216.394,166.080 216.946,163.797 217.011 C 161.256 217.083,159.512 215.102,161.071 213.917 C 161.926 213.267,161.965 212.882,161.321 211.468 C 160.659 210.015,160.679 209.891,161.468 210.547 C 161.998 210.986,163.059 211.134,163.997 210.898 " stroke="none" fill="#000000" fill-rule="evenodd"></path></g></svg>