<svg id="svg" xmlns="http://www.w3.org/2000/svg" xmlns:xlink="http://www.w3.org/1999/xlink" width="400" height="225" viewBox="0, 0, 400,225"><g id="svgg"><path id="path0" d="M0.292 0.772 C 0.127 1.207,0.064 51.766,0.152 113.125 L 0.313 224.688 80.000 224.859 C 167.903 225.048,164.738 225.155,161.685 222.101 C 161.446 221.862,161.250 221.132,161.250 220.478 C 161.250 218.738,164.839 221.353,165.114 223.294 L 165.313 224.688 282.500 224.688 L 399.688 224.688 399.688 112.500 L 399.688 0.313 280.625 0.152 C 215.141 0.064,161.141 0.179,160.625 0.408 C 160.109 0.636,159.477 0.779,159.219 0.724 C 158.961 0.670,158.750 0.926,158.750 1.295 C 158.750 1.663,158.316 1.530,157.786 1.000 C 156.469 -0.317,0.792 -0.542,0.292 0.772 M162.973 2.355 C 163.116 2.784,162.694 2.970,161.918 2.821 C 160.584 2.564,160.145 3.380,161.250 4.063 C 162.202 4.651,161.995 6.695,160.942 7.099 C 159.652 7.594,157.714 3.908,158.734 2.897 C 159.269 2.366,159.350 2.447,159.057 3.218 C 158.841 3.785,158.965 4.434,159.332 4.661 C 159.737 4.911,160.000 4.465,160.000 3.526 C 160.000 1.458,162.363 0.527,162.973 2.355 M164.202 4.970 C 164.026 5.641,164.204 6.325,164.598 6.490 C 164.991 6.656,164.656 6.989,163.853 7.232 C 162.729 7.572,162.586 7.808,163.228 8.259 C 163.912 8.740,163.913 8.806,163.234 8.626 C 162.779 8.505,162.427 8.202,162.453 7.953 C 162.479 7.704,162.500 6.656,162.500 5.625 C 162.500 4.315,162.804 3.750,163.510 3.750 C 164.205 3.750,164.421 4.132,164.202 4.970 M156.633 5.978 C 156.340 6.742,156.547 6.865,157.578 6.538 C 158.537 6.233,158.814 6.350,158.590 6.966 C 158.420 7.431,157.965 7.742,157.578 7.656 C 157.191 7.570,156.871 7.852,156.865 8.281 C 156.859 8.804,156.652 8.752,156.240 8.125 C 155.725 7.340,155.564 7.409,155.251 8.551 C 154.725 10.467,153.500 10.738,152.203 9.224 C 151.318 8.190,151.289 8.006,152.060 8.302 C 152.600 8.509,153.173 8.277,153.366 7.773 C 153.556 7.279,154.158 6.875,154.705 6.875 C 155.251 6.875,155.540 6.618,155.345 6.303 C 155.151 5.989,155.346 5.589,155.777 5.415 C 157.003 4.921,157.032 4.940,156.633 5.978 M69.375 41.563 C 69.375 42.078,68.953 42.500,68.438 42.500 C 67.922 42.500,67.500 42.078,67.500 41.563 C 67.500 41.047,67.922 40.625,68.438 40.625 C 68.953 40.625,69.375 41.047,69.375 41.563 M97.076 50.806 C 96.884 51.115,96.459 51.084,96.109 50.734 C 95.765 50.390,95.691 49.773,95.945 49.363 C 96.295 48.796,96.528 48.813,96.912 49.435 C 97.190 49.885,97.264 50.502,97.076 50.806 M92.400 52.921 C 93.038 53.604,92.872 53.877,91.505 54.397 C 89.532 55.147,89.124 54.902,89.639 53.276 C 90.081 51.885,91.287 51.730,92.400 52.921 M82.895 55.853 C 83.833 56.821,82.019 60.062,80.204 60.661 C 79.014 61.053,77.984 61.276,77.914 61.156 C 75.671 57.294,76.714 54.775,80.313 55.361 C 81.688 55.585,82.849 55.806,82.895 55.853 M69.645 64.422 C 68.564 65.616,66.875 66.060,66.875 65.150 C 66.875 63.857,70.304 60.984,70.519 62.098 C 70.637 62.714,70.244 63.760,69.645 64.422 M59.586 68.189 C 58.732 69.040,58.197 69.167,57.500 68.682 C 56.795 68.192,56.756 67.951,57.344 67.713 C 57.773 67.538,58.125 67.099,58.125 66.736 C 58.125 66.372,58.617 65.712,59.219 65.267 C 60.809 64.093,61.130 66.649,59.586 68.189 M34.010 102.900 C 34.206 103.411,34.680 103.636,35.063 103.399 C 36.159 102.721,34.995 105.798,33.815 106.696 C 33.264 107.117,32.602 107.469,32.344 107.480 C 32.086 107.491,31.875 107.922,31.875 108.438 C 31.875 108.953,31.426 109.375,30.878 109.375 C 30.329 109.375,29.118 109.918,28.187 110.581 C 26.073 112.086,24.212 111.391,25.665 109.639 C 26.159 109.044,26.563 107.265,26.563 105.685 L 26.563 102.813 29.375 102.123 C 32.496 101.358,33.481 101.523,34.010 102.900 M302.329 111.004 C 302.109 111.224,301.432 111.214,300.826 110.981 C 299.890 110.622,299.861 110.472,300.637 109.992 C 301.595 109.400,303.058 110.275,302.329 111.004 M165.000 212.776 C 165.000 213.615,164.705 214.483,164.345 214.706 C 163.897 214.983,163.921 215.390,164.421 215.993 C 165.016 216.710,164.876 216.873,163.670 216.865 C 161.235 216.850,160.158 215.875,161.112 214.549 C 161.552 213.938,162.077 212.945,162.279 212.344 C 162.859 210.615,165.000 210.955,165.000 212.776 " stroke="none" fill="#000000" fill-rule="evenodd"></path></g></svg>