<svg id="svg" xmlns="http://www.w3.org/2000/svg" xmlns:xlink="http://www.w3.org/1999/xlink" width="400" height="225" viewBox="0, 0, 400,225"><g id="svgg"><path id="path0" d="M0.289 0.780 C 0.126 1.211,0.064 51.766,0.152 113.125 L 0.313 224.688 200.000 224.688 L 399.688 224.688 399.688 112.500 L 399.688 0.313 200.137 0.155 C 40.824 0.030,0.527 0.156,0.289 0.780 M92.246 52.595 C 92.739 53.393,90.744 55.147,89.921 54.639 C 89.365 54.295,90.629 51.875,91.363 51.875 C 91.604 51.875,92.001 52.199,92.246 52.595 M81.383 55.792 C 83.263 56.767,82.699 59.424,80.389 60.476 C 78.585 61.298,77.888 60.847,77.014 58.292 C 76.014 55.368,78.179 54.129,81.383 55.792 M70.546 62.093 C 71.080 62.736,70.949 63.204,69.994 64.068 C 68.469 65.448,67.840 64.972,68.374 62.842 C 68.820 61.067,69.500 60.832,70.546 62.093 M60.175 66.739 C 59.718 67.978,58.775 68.727,57.656 68.740 C 56.521 68.754,56.696 67.928,58.162 66.354 C 59.584 64.828,60.794 65.059,60.175 66.739 M31.390 103.033 C 31.268 103.607,31.860 103.793,33.388 103.662 C 34.581 103.559,35.726 103.643,35.932 103.849 C 36.368 104.285,32.681 108.125,31.827 108.125 C 31.510 108.125,31.250 108.406,31.250 108.750 C 31.250 109.094,30.828 109.375,30.313 109.375 C 29.797 109.375,29.375 109.637,29.375 109.958 C 29.375 110.737,27.060 111.438,26.215 110.916 C 25.770 110.641,25.898 110.109,26.596 109.338 C 27.382 108.469,27.541 107.601,27.222 105.904 C 26.886 104.113,27.036 103.448,27.929 102.760 C 29.295 101.708,31.631 101.893,31.390 103.033 M163.105 214.962 C 163.461 215.629,163.539 216.307,163.276 216.469 C 162.663 216.848,160.985 215.543,160.781 214.529 C 160.531 213.283,162.392 213.630,163.105 214.962 M163.188 221.313 C 164.110 222.235,164.304 222.821,163.839 223.286 C 163.016 224.109,161.528 223.006,161.064 221.230 C 160.645 219.630,161.540 219.665,163.188 221.313 " stroke="none" fill="#000000" fill-rule="evenodd"></path></g></svg>