<svg id="svg" xmlns="http://www.w3.org/2000/svg" xmlns:xlink="http://www.w3.org/1999/xlink" width="400" height="225" viewBox="0, 0, 400,225"><g id="svgg"><path id="path0" d="M0.289 0.780 C 0.126 1.211,0.064 51.766,0.152 113.125 L 0.313 224.688 200.000 224.688 L 399.688 224.688 399.688 112.500 L 399.688 0.313 200.137 0.155 C 40.824 0.030,0.527 0.156,0.289 0.780 M80.908 55.725 C 82.532 56.465,83.057 57.500,81.808 57.500 C 81.428 57.500,81.282 57.931,81.484 58.458 C 81.729 59.097,81.323 59.616,80.260 60.020 C 78.144 60.824,78.293 60.888,77.164 58.705 C 75.570 55.623,77.432 54.141,80.908 55.725 M70.053 61.530 C 70.368 61.335,70.625 61.605,70.625 62.129 C 70.625 63.063,68.285 64.743,67.741 64.200 C 67.589 64.048,67.788 63.111,68.182 62.118 C 68.581 61.112,69.028 60.660,69.190 61.098 C 69.351 61.529,69.739 61.724,70.053 61.530 M60.679 63.946 C 60.306 64.319,60.000 65.256,60.000 66.027 C 60.000 67.846,57.302 69.954,56.974 68.393 C 56.856 67.834,57.489 66.615,58.380 65.685 C 59.271 64.755,60.000 63.641,60.000 63.210 C 60.000 62.779,60.306 62.615,60.679 62.846 C 61.169 63.149,61.169 63.456,60.679 63.946 M31.875 103.474 C 31.875 104.085,32.161 104.272,32.643 103.974 C 33.833 103.239,36.451 103.415,36.729 104.250 C 36.867 104.663,36.636 105.000,36.218 105.000 C 35.799 105.000,34.804 105.703,34.008 106.563 C 33.211 107.422,32.288 108.125,31.957 108.125 C 31.625 108.125,31.229 108.477,31.075 108.906 C 30.673 110.033,27.707 107.159,27.204 105.156 C 26.738 103.300,27.605 102.524,30.156 102.510 C 31.300 102.503,31.875 102.826,31.875 103.474 " stroke="none" fill="#000000" fill-rule="evenodd"></path></g></svg>