<svg id="svg" xmlns="http://www.w3.org/2000/svg" xmlns:xlink="http://www.w3.org/1999/xlink" width="400" height="225" viewBox="0, 0, 400,225"><g id="svgg"><path id="path0" d="M0.289 0.780 C 0.126 1.211,0.064 51.766,0.152 113.125 L 0.313 224.688 200.000 224.688 L 399.688 224.688 399.688 112.500 L 399.688 0.313 200.137 0.155 C 40.824 0.030,0.527 0.156,0.289 0.780 M82.014 56.724 C 81.594 56.864,81.250 57.368,81.250 57.843 C 81.250 58.678,79.421 60.000,78.266 60.000 C 77.461 60.000,76.287 57.195,76.777 56.442 C 77.468 55.382,78.972 55.160,80.921 55.830 C 81.943 56.182,82.435 56.584,82.014 56.724 M69.890 62.292 C 69.594 63.815,68.408 63.976,68.297 62.508 C 68.241 61.760,68.586 61.250,69.147 61.250 C 69.693 61.250,70.006 61.690,69.890 62.292 M60.820 64.322 C 60.441 65.773,57.660 68.493,57.114 67.947 C 56.899 67.732,57.603 66.676,58.678 65.601 C 59.754 64.525,60.448 63.344,60.220 62.976 C 59.989 62.601,60.099 62.487,60.470 62.717 C 60.834 62.942,60.992 63.664,60.820 64.322 M30.922 103.100 C 31.126 103.429,32.724 103.559,34.473 103.388 L 37.654 103.076 35.768 104.663 C 34.731 105.536,33.588 106.250,33.228 106.250 C 32.868 106.250,32.373 106.575,32.128 106.972 C 31.834 107.447,31.981 107.535,32.560 107.230 C 33.042 106.975,32.742 107.331,31.892 108.022 C 30.309 109.309,29.060 109.222,29.583 107.861 C 29.744 107.441,29.341 106.764,28.688 106.356 C 27.521 105.627,27.097 103.736,27.917 102.917 C 28.539 102.295,30.498 102.414,30.922 103.100 " stroke="none" fill="#000000" fill-rule="evenodd"></path></g></svg>