<svg id="svg" xmlns="http://www.w3.org/2000/svg" xmlns:xlink="http://www.w3.org/1999/xlink" width="400" height="225" viewBox="0, 0, 400,225"><g id="svgg"><path d="M0 225 h400 v-225 h-400 z" stroke="#000000" stroke-width="0.01" fill="none"/><path id="path0" d="M188.648 90.660 C 187.732 90.909,186.044 91.035,184.898 90.939 C 183.751 90.843,182.531 90.991,182.188 91.267 C 181.844 91.543,181.422 91.763,181.250 91.756 C 181.008 91.746,177.092 92.805,175.000 93.446 C 173.076 94.036,171.250 95.099,171.250 95.629 C 171.250 95.992,170.758 96.474,170.156 96.700 C 169.555 96.925,168.130 97.971,166.990 99.024 C 163.139 102.579,162.597 103.029,161.380 103.680 C 160.320 104.247,159.942 105.151,159.028 109.286 C 158.925 109.753,158.258 110.756,157.545 111.514 C 156.833 112.273,156.250 113.159,156.250 113.484 C 156.250 113.809,155.726 114.402,155.085 114.802 C 153.841 115.579,152.863 118.125,153.809 118.125 C 154.120 118.125,154.375 118.484,154.375 118.923 C 154.375 120.097,157.896 123.750,159.027 123.750 C 159.571 123.750,160.000 124.281,160.000 124.955 C 160.000 125.618,160.363 126.532,160.808 126.987 C 161.252 127.441,161.982 128.710,162.431 129.807 C 163.008 131.220,163.792 131.922,165.113 132.212 C 166.701 132.561,166.924 132.844,166.607 134.108 C 166.197 135.741,170.719 140.890,173.764 142.258 C 177.255 143.827,181.715 145.006,184.147 145.003 C 186.216 145.001,186.935 145.312,187.755 146.563 C 189.092 148.603,190.840 148.545,192.398 146.406 C 193.446 144.968,194.143 144.675,196.669 144.609 C 201.413 144.487,205.292 143.306,206.363 141.659 C 206.597 141.299,208.143 140.849,209.800 140.659 C 211.457 140.468,212.850 140.031,212.897 139.688 C 213.214 137.331,214.083 136.152,215.749 135.819 C 217.732 135.422,219.713 133.032,219.189 131.667 C 218.747 130.515,219.361 129.726,221.505 128.690 C 224.202 127.388,224.743 126.162,223.869 123.336 C 223.461 122.017,223.042 119.806,222.938 118.423 C 222.834 117.040,222.512 115.525,222.223 115.057 C 221.710 114.227,221.493 113.034,221.330 110.150 C 221.286 109.373,220.662 108.248,219.943 107.650 C 218.779 106.681,217.383 104.261,217.240 102.962 C 217.211 102.701,216.048 101.716,214.655 100.775 C 213.262 99.833,211.181 98.148,210.031 97.031 C 208.881 95.914,207.478 95.000,206.914 95.000 C 206.351 95.000,204.790 94.440,203.447 93.755 C 202.104 93.070,200.428 92.411,199.721 92.290 C 199.015 92.169,197.614 91.733,196.607 91.321 C 194.278 90.367,190.789 90.077,188.648 90.660 " stroke="none" fill="#000000" fill-rule="evenodd"></path></g></svg>