<svg id="svg" xmlns="http://www.w3.org/2000/svg" xmlns:xlink="http://www.w3.org/1999/xlink" width="400" height="225" viewBox="0, 0, 400,225"><g id="svgg"><path d="M0 225 h400 v-225 h-400 z" stroke="#000000" stroke-width="0.01" fill="none"/><path id="path0" d="M192.971 84.113 C 192.734 84.349,190.634 84.619,188.302 84.712 C 183.839 84.891,182.612 85.082,181.519 85.766 C 181.151 85.996,180.166 86.326,179.331 86.498 C 176.021 87.180,175.214 87.416,172.638 88.451 C 171.167 89.042,169.681 90.054,169.335 90.700 C 168.989 91.346,168.294 91.875,167.791 91.875 C 167.287 91.875,166.875 92.203,166.875 92.604 C 166.875 93.005,166.710 93.169,166.509 92.967 C 166.308 92.766,164.952 93.774,163.495 95.207 C 160.503 98.152,156.893 101.250,156.454 101.250 C 155.321 101.250,154.437 103.217,153.925 106.875 C 153.757 108.078,153.361 109.158,153.046 109.275 C 152.731 109.392,152.028 110.349,151.484 111.402 C 150.940 112.454,149.710 113.976,148.751 114.783 C 146.908 116.334,146.489 119.092,148.008 119.676 C 148.460 119.849,148.654 120.274,148.440 120.621 C 148.226 120.967,148.490 121.250,149.026 121.250 C 149.562 121.250,150.000 121.769,150.000 122.403 C 150.000 123.719,151.661 125.391,153.293 125.717 C 153.939 125.846,155.365 127.869,156.730 130.594 C 158.013 133.155,159.484 135.431,160.000 135.652 C 162.922 136.902,163.439 137.420,163.472 139.131 C 163.519 141.527,164.548 143.297,166.504 144.344 C 167.384 144.815,168.261 145.695,168.454 146.301 C 168.797 147.383,172.812 149.829,174.882 150.217 C 175.462 150.326,177.203 150.795,178.750 151.258 C 180.297 151.721,181.773 152.155,182.031 152.222 C 182.289 152.289,183.859 152.379,185.519 152.422 C 188.068 152.488,188.671 152.746,189.384 154.079 C 190.838 156.796,193.043 156.812,195.301 154.122 C 197.141 151.931,197.441 151.806,200.656 151.902 C 205.450 152.045,208.840 151.127,211.944 148.844 C 214.070 147.280,215.239 146.875,217.623 146.875 C 220.143 146.875,220.625 146.687,220.625 145.702 C 220.625 145.056,221.044 144.181,221.556 143.756 C 222.067 143.331,222.358 142.776,222.202 142.523 C 221.923 142.072,222.952 141.478,226.425 140.083 C 228.402 139.288,229.494 137.073,228.677 135.512 C 227.974 134.169,229.332 132.746,231.845 132.194 C 234.602 131.589,235.798 128.874,234.670 125.784 C 234.199 124.493,233.637 121.539,233.420 119.219 C 233.203 116.898,232.814 115.000,232.554 115.000 C 232.295 115.000,232.055 114.648,232.020 114.219 C 231.555 108.482,231.136 106.548,230.252 106.054 C 228.994 105.350,227.506 103.636,227.438 102.813 C 227.335 101.573,225.333 98.741,224.335 98.425 C 223.774 98.247,221.937 96.816,220.252 95.246 C 216.487 91.737,214.582 90.421,212.898 90.164 C 212.187 90.055,211.029 89.590,210.326 89.129 C 209.306 88.461,199.964 85.273,197.188 84.646 C 196.844 84.568,195.851 84.320,194.981 84.094 C 194.111 83.868,193.207 83.877,192.971 84.113 M2.500 154.823 C 2.500 155.184,1.960 155.620,1.301 155.793 C 0.276 156.061,0.103 156.684,0.112 160.084 C 0.121 163.823,1.092 163.859,1.206 160.125 C 1.230 159.335,1.693 157.832,2.234 156.786 C 2.775 155.740,3.056 154.722,2.859 154.525 C 2.661 154.328,2.500 154.462,2.500 154.823 M18.503 161.651 C 17.660 163.689,17.083 164.349,16.379 164.079 C 15.847 163.875,15.183 164.069,14.903 164.510 C 14.262 165.521,14.215 169.375,14.844 169.375 C 15.242 169.375,15.357 171.518,15.078 173.750 C 15.035 174.094,14.451 174.375,13.779 174.375 C 11.450 174.375,9.375 175.755,9.375 177.303 C 9.375 178.448,8.949 178.866,7.487 179.159 C 6.449 179.367,5.448 179.781,5.263 180.081 C 5.078 180.380,4.350 180.625,3.645 180.625 C 2.063 180.625,2.501 177.955,4.421 175.897 C 5.083 175.188,5.625 174.114,5.625 173.512 C 5.625 172.910,5.907 171.891,6.252 171.247 C 7.173 169.524,5.744 168.927,4.602 170.557 C 3.389 172.290,1.644 172.339,2.188 170.625 C 2.406 169.938,2.318 169.375,1.994 169.375 C 0.117 169.375,-0.012 171.364,0.149 197.885 L 0.313 224.688 40.885 224.688 C 83.684 224.688,83.064 224.732,80.713 221.828 C 79.597 220.450,79.388 220.407,77.839 221.236 C 75.863 222.293,74.646 221.204,75.669 219.294 C 76.416 217.896,76.417 216.698,75.670 217.160 C 75.351 217.357,74.307 216.844,73.350 216.021 L 71.610 214.524 68.614 217.050 C 65.134 219.985,64.396 219.845,66.304 216.612 C 67.622 214.378,67.626 214.293,66.485 213.453 C 65.223 212.523,66.666 211.286,68.030 212.129 C 68.944 212.694,69.446 210.676,68.726 209.330 C 68.141 208.237,67.626 208.591,63.200 213.125 C 59.026 217.401,54.076 220.549,56.955 217.096 C 57.426 216.530,58.273 215.076,58.837 213.864 C 59.442 212.561,60.702 211.256,61.916 210.673 C 63.047 210.131,64.041 209.329,64.126 208.891 C 64.212 208.452,64.138 208.382,63.964 208.734 C 63.789 209.087,63.123 209.375,62.485 209.375 C 61.846 209.375,61.150 209.656,60.938 210.000 C 60.450 210.789,56.250 210.827,56.250 210.043 C 56.250 209.026,59.817 206.875,61.503 206.875 C 63.379 206.875,63.499 206.437,62.151 204.513 C 61.616 203.748,61.346 202.850,61.552 202.517 C 61.758 202.184,61.513 201.113,61.009 200.138 C 60.414 198.988,60.292 198.046,60.661 197.463 C 60.974 196.968,61.235 195.438,61.241 194.063 L 61.251 191.563 58.689 191.632 C 57.280 191.671,55.638 192.121,55.040 192.634 C 54.442 193.146,52.688 193.707,51.144 193.881 C 48.841 194.141,47.885 194.681,45.829 196.884 C 43.145 199.762,41.691 199.842,42.432 197.071 C 43.036 194.814,45.731 192.918,48.418 192.860 C 51.001 192.804,50.999 192.809,49.339 190.086 C 47.172 186.531,50.526 183.916,52.963 187.261 C 54.017 188.709,54.438 188.849,56.621 188.480 C 60.728 187.786,61.082 187.286,59.113 184.946 C 57.955 183.570,57.489 182.421,57.681 181.417 C 57.907 180.234,57.757 180.014,56.952 180.347 C 54.758 181.255,53.750 181.365,53.750 180.698 C 53.750 180.314,54.329 180.000,55.037 180.000 C 55.860 180.000,56.161 179.737,55.872 179.269 C 55.571 178.782,55.757 178.667,56.428 178.924 C 57.118 179.189,57.332 179.040,57.106 178.451 C 56.925 177.978,56.306 177.677,55.732 177.783 C 55.157 177.889,54.017 177.723,53.198 177.414 L 51.708 176.854 53.079 175.665 C 53.940 174.918,55.115 174.560,56.235 174.701 C 57.340 174.841,58.144 174.602,58.347 174.072 C 58.765 172.984,57.162 171.530,56.581 172.470 C 56.358 172.830,55.405 173.125,54.463 173.125 C 53.521 173.125,52.441 173.434,52.063 173.812 C 51.210 174.665,48.574 173.915,49.150 172.983 C 49.380 172.611,49.300 172.472,48.973 172.675 C 47.686 173.470,45.389 170.093,46.048 168.374 C 46.396 167.469,46.144 167.381,44.236 167.739 C 42.617 168.042,41.929 167.918,41.683 167.277 C 41.428 166.613,40.734 166.512,38.816 166.863 C 36.144 167.352,35.625 167.184,35.625 165.833 C 35.625 165.331,36.343 165.000,37.433 165.000 C 39.399 165.000,40.347 163.634,39.469 162.065 C 38.997 161.221,38.893 161.226,38.554 162.109 C 38.332 162.689,37.773 162.951,37.216 162.737 C 36.658 162.523,36.101 162.787,35.876 163.373 C 35.259 164.980,33.111 164.645,33.289 162.969 C 33.399 161.930,33.111 161.563,32.188 161.563 C 31.493 161.563,30.938 161.979,30.938 162.500 C 30.938 163.016,31.310 163.360,31.765 163.266 C 32.220 163.171,32.406 163.396,32.178 163.765 C 31.887 164.236,31.505 164.221,30.892 163.712 C 30.197 163.135,29.899 163.309,29.420 164.569 C 28.496 167.001,21.875 163.974,21.875 161.120 C 21.875 160.043,21.978 160.014,22.816 160.852 C 23.334 161.370,24.318 161.971,25.004 162.189 C 25.689 162.406,26.250 162.920,26.250 163.329 C 26.250 163.739,26.784 164.408,27.436 164.815 C 28.624 165.557,28.731 165.444,29.613 162.500 C 29.664 162.328,29.929 161.837,30.202 161.408 C 30.582 160.808,30.332 160.767,29.117 161.229 C 27.877 161.701,27.414 161.611,26.968 160.814 C 26.592 160.141,25.477 159.771,23.665 159.718 C 22.162 159.674,20.645 159.461,20.296 159.245 C 19.946 159.029,19.139 160.112,18.503 161.651 M60.379 173.385 C 60.588 173.930,61.033 174.375,61.369 174.375 C 62.190 174.375,61.676 172.955,60.742 172.643 C 60.285 172.491,60.145 172.777,60.379 173.385 M72.813 194.202 C 72.125 194.371,71.281 194.715,70.938 194.967 C 70.594 195.218,69.469 195.371,68.438 195.306 C 65.969 195.150,63.932 196.110,63.539 197.614 C 63.067 199.419,64.552 199.629,67.424 198.164 C 68.824 197.449,70.188 196.924,70.454 196.997 C 71.710 197.338,75.545 196.111,75.870 195.263 C 76.078 194.720,75.970 194.474,75.618 194.692 C 75.278 194.902,75.000 194.776,75.000 194.412 C 75.000 193.718,74.842 193.703,72.813 194.202 M83.369 200.111 C 83.176 200.424,83.347 201.077,83.750 201.563 C 84.153 202.048,84.264 202.809,83.996 203.254 C 83.605 203.904,83.698 203.911,84.469 203.287 C 84.996 202.860,85.572 202.656,85.750 202.833 C 86.253 203.336,87.651 201.375,87.251 200.727 C 86.741 199.902,83.787 199.434,83.369 200.111 M83.550 218.533 C 82.836 219.248,83.075 220.000,84.017 220.000 C 84.508 220.000,85.492 220.741,86.205 221.647 C 86.994 222.650,87.500 222.940,87.500 222.389 C 87.500 221.252,84.125 217.958,83.550 218.533 " stroke="none" fill="#000000" fill-rule="evenodd"></path></g></svg>