<svg id="svg" xmlns="http://www.w3.org/2000/svg" xmlns:xlink="http://www.w3.org/1999/xlink" width="400" height="225" viewBox="0, 0, 400,225"><g id="svgg"><path d="M0 225 h400 v-225 h-400 z" stroke="#000000" stroke-width="0.01" fill="none"/><path id="path0" d="M195.625 75.591 C 195.109 75.938,194.232 76.080,193.676 75.907 C 193.120 75.735,191.935 75.871,191.042 76.210 C 190.007 76.604,189.285 76.610,189.048 76.226 C 188.567 75.448,185.810 75.446,185.329 76.223 C 185.126 76.551,184.547 76.662,184.042 76.468 C 183.538 76.275,183.125 76.428,183.125 76.808 C 183.125 77.189,182.914 77.440,182.656 77.367 C 182.398 77.294,181.592 77.566,180.863 77.970 C 180.135 78.375,179.392 78.559,179.212 78.379 C 179.032 78.199,177.893 78.466,176.681 78.973 C 175.469 79.479,174.313 79.730,174.113 79.530 C 173.914 79.330,173.750 79.525,173.750 79.963 C 173.750 80.434,173.344 80.603,172.756 80.377 C 172.209 80.168,171.436 80.200,171.037 80.449 C 170.639 80.698,169.912 80.963,169.422 81.037 C 168.932 81.111,168.282 81.617,167.977 82.161 C 167.672 82.706,167.089 82.960,166.680 82.725 C 166.272 82.491,166.135 82.519,166.376 82.787 C 166.820 83.279,165.307 85.197,164.737 84.866 C 164.567 84.768,164.057 85.195,163.604 85.816 C 163.150 86.437,162.286 87.017,161.684 87.105 C 161.083 87.194,160.567 87.529,160.537 87.852 C 160.454 88.759,153.374 95.041,152.933 94.599 C 152.773 94.440,152.108 94.989,151.454 95.820 C 150.800 96.652,149.644 97.529,148.884 97.770 C 147.467 98.220,146.437 100.660,147.166 101.839 C 147.390 102.203,147.293 102.500,146.951 102.500 C 146.608 102.500,146.302 102.992,146.271 103.594 C 146.075 107.367,145.841 108.171,144.844 108.487 C 144.242 108.678,143.750 109.246,143.750 109.749 C 143.750 110.252,143.330 110.825,142.816 111.023 C 142.302 111.220,142.038 111.633,142.228 111.940 C 142.418 112.248,142.276 112.500,141.912 112.500 C 141.548 112.500,141.250 112.795,141.250 113.155 C 141.250 113.515,140.532 114.429,139.654 115.186 C 138.776 115.943,137.994 116.984,137.917 117.500 C 137.840 118.016,137.570 118.769,137.317 119.174 C 137.035 119.624,137.367 120.072,138.173 120.328 C 139.083 120.617,139.393 121.113,139.178 121.935 C 138.899 123.002,139.421 123.414,140.781 123.199 C 141.039 123.158,141.254 123.758,141.260 124.531 C 141.274 126.683,144.728 129.375,147.475 129.375 C 147.873 129.375,148.023 129.660,147.808 130.008 C 147.592 130.356,147.893 131.551,148.476 132.664 C 149.058 133.777,150.325 136.272,151.290 138.210 C 152.824 141.286,153.387 141.840,155.742 142.585 C 158.340 143.407,158.441 143.534,158.528 146.103 C 158.622 148.867,160.111 151.875,161.386 151.875 C 162.378 151.875,165.625 155.042,165.625 156.008 C 165.625 157.977,177.735 162.307,185.562 163.136 C 190.533 163.663,190.909 163.810,192.639 165.909 C 194.925 168.682,197.267 168.881,199.070 166.454 C 201.398 163.323,202.187 162.632,203.868 162.251 C 204.792 162.042,205.723 162.153,205.936 162.498 C 206.528 163.455,210.455 163.245,212.587 162.142 C 213.633 161.602,214.889 161.313,215.378 161.501 C 216.480 161.924,220.533 159.770,222.100 157.929 C 223.012 156.858,224.158 156.495,227.401 156.250 L 231.539 155.938 233.113 152.980 C 235.440 148.608,236.568 147.776,240.478 147.546 C 242.216 147.444,243.654 143.820,242.914 141.406 C 242.477 139.982,242.446 139.074,242.830 138.934 C 249.402 136.542,251.822 133.336,250.395 128.914 C 249.867 127.277,249.274 124.531,249.078 122.813 C 248.881 121.094,248.638 118.984,248.538 118.125 C 248.437 117.266,248.032 115.967,247.637 115.238 C 247.242 114.510,247.078 113.755,247.272 113.561 C 247.466 113.367,247.422 112.879,247.173 112.476 C 246.800 111.874,246.299 108.221,246.086 104.558 C 246.044 103.838,244.775 103.014,243.438 102.838 C 243.094 102.793,242.883 102.417,242.969 102.003 C 243.055 101.589,242.889 101.250,242.600 101.250 C 242.025 101.250,240.341 98.095,240.516 97.344 C 240.576 97.086,240.353 96.875,240.020 96.875 C 239.687 96.875,239.560 96.495,239.739 96.030 C 240.053 95.210,237.051 92.702,236.094 92.986 C 235.836 93.062,235.625 92.827,235.625 92.463 C 235.625 92.099,235.386 91.949,235.094 92.130 C 234.801 92.310,233.626 91.342,232.482 89.979 C 231.338 88.616,230.131 87.500,229.800 87.500 C 229.469 87.500,228.380 86.644,227.380 85.597 C 225.453 83.582,222.776 82.256,221.823 82.845 C 221.508 83.040,221.250 82.884,221.250 82.500 C 221.250 82.116,220.969 81.975,220.625 82.188 C 220.281 82.400,220.000 82.259,220.000 81.875 C 220.000 81.491,219.751 81.330,219.446 81.519 C 219.141 81.707,218.547 81.446,218.125 80.938 C 217.703 80.429,217.109 80.168,216.804 80.356 C 216.499 80.545,216.250 80.403,216.250 80.041 C 216.250 79.679,215.617 79.486,214.844 79.613 C 214.070 79.739,213.134 79.603,212.763 79.309 C 212.393 79.015,211.408 78.650,210.576 78.496 C 209.744 78.343,208.922 78.164,208.750 78.097 C 208.578 78.031,208.227 78.010,207.969 78.051 C 207.711 78.092,207.500 77.827,207.500 77.463 C 207.500 77.099,207.238 76.963,206.918 77.161 C 206.598 77.359,206.176 77.261,205.980 76.944 C 205.784 76.627,205.062 76.514,204.374 76.694 C 203.687 76.874,203.125 76.754,203.125 76.427 C 203.125 76.101,202.773 75.782,202.344 75.719 C 197.988 75.084,196.424 75.054,195.625 75.591 M0.366 147.344 C 0.177 147.945,0.087 165.594,0.167 186.563 L 0.313 224.688 44.375 224.866 C 94.040 225.067,95.690 224.976,92.919 222.204 C 92.350 221.636,91.599 221.347,91.249 221.563 C 90.479 222.039,88.006 221.333,88.355 220.736 C 88.492 220.503,88.317 219.609,87.967 218.750 C 87.056 216.509,87.141 211.579,88.082 212.161 C 88.402 212.359,88.852 212.215,89.083 211.843 C 89.313 211.470,89.895 211.316,90.376 211.500 C 90.857 211.685,91.250 211.593,91.250 211.297 C 91.250 210.452,89.377 209.932,85.313 209.649 C 82.734 209.469,81.855 209.578,82.500 209.997 C 83.016 210.332,83.156 210.606,82.813 210.606 C 81.522 210.606,80.463 209.463,80.289 207.884 C 80.191 206.985,80.367 206.250,80.680 206.250 C 81.650 206.250,81.308 205.156,80.206 204.733 C 79.632 204.513,78.968 204.647,78.730 205.032 C 78.492 205.417,78.048 205.657,77.743 205.567 C 77.437 205.476,77.095 205.881,76.982 206.467 C 76.869 207.053,77.010 207.492,77.295 207.442 C 78.427 207.245,79.375 207.529,79.375 208.066 C 79.375 208.378,78.742 208.470,77.969 208.271 C 76.716 207.948,76.656 208.022,77.420 208.954 C 77.919 209.562,78.002 210.000,77.619 210.000 C 77.256 210.000,76.790 209.466,76.583 208.814 C 76.342 208.056,75.804 207.734,75.091 207.920 C 74.477 208.081,73.609 207.770,73.161 207.231 C 72.082 205.931,71.757 205.981,69.667 207.777 C 68.690 208.617,67.662 209.162,67.382 208.989 C 66.679 208.555,68.478 206.305,71.320 204.063 C 72.627 203.031,73.589 201.868,73.458 201.478 C 73.326 201.088,73.644 200.162,74.164 199.420 C 75.008 198.214,75.006 197.914,74.140 196.593 C 73.326 195.351,73.311 195.062,74.045 194.781 C 75.461 194.237,76.568 191.799,75.171 192.301 C 74.561 192.520,74.249 192.491,74.477 192.237 C 74.706 191.982,73.792 190.780,72.446 189.564 C 71.101 188.349,70.000 186.841,70.000 186.214 C 70.000 185.587,69.735 184.910,69.411 184.710 C 69.087 184.510,68.633 183.087,68.403 181.548 C 68.172 180.009,67.749 178.750,67.463 178.750 C 67.177 178.750,66.558 177.977,66.086 177.031 C 65.615 176.086,64.896 175.383,64.490 175.469 C 64.083 175.555,63.750 175.327,63.750 174.963 C 63.750 174.599,63.469 174.475,63.125 174.688 C 62.077 175.335,62.435 173.549,63.750 171.563 C 65.158 169.436,65.379 167.893,64.219 168.285 C 63.789 168.431,62.955 167.540,62.365 166.306 C 61.148 163.760,60.987 162.889,61.832 163.411 C 62.152 163.609,62.575 163.509,62.772 163.190 C 63.309 162.322,61.539 162.735,60.256 163.777 C 59.342 164.520,59.233 164.526,59.664 163.810 C 60.023 163.214,59.961 163.075,59.472 163.378 C 57.950 164.318,58.659 166.908,60.624 167.593 C 61.655 167.953,62.339 168.505,62.144 168.821 C 61.948 169.137,61.556 169.252,61.272 169.076 C 60.988 168.900,59.952 169.175,58.971 169.687 C 56.917 170.758,55.000 170.909,55.000 170.000 C 55.000 169.656,54.367 169.353,53.594 169.326 C 52.820 169.299,52.539 169.134,52.969 168.961 C 53.398 168.788,53.750 168.371,53.750 168.036 C 53.750 167.701,53.425 167.627,53.028 167.872 C 52.534 168.178,52.480 168.041,52.855 167.440 C 54.040 165.541,53.544 164.221,52.156 165.583 C 51.366 166.358,48.463 166.703,48.342 166.035 C 48.290 165.745,47.446 164.631,46.467 163.559 C 45.488 162.487,45.180 161.985,45.781 162.444 C 47.095 163.446,47.266 162.353,45.965 161.273 C 45.464 160.857,44.691 160.727,44.246 160.984 C 43.801 161.240,43.614 161.252,43.830 161.010 C 44.046 160.767,43.395 159.741,42.383 158.729 C 41.329 157.675,40.735 156.578,40.993 156.160 C 41.273 155.707,41.171 155.600,40.722 155.878 C 40.325 156.123,40.000 156.602,40.000 156.942 C 40.000 158.994,36.534 160.610,32.383 160.494 C 30.085 160.430,28.337 160.162,28.500 159.899 C 28.663 159.636,28.255 158.880,27.595 158.220 C 26.744 157.369,26.431 156.272,26.520 154.447 C 26.588 153.033,26.415 151.875,26.135 151.875 C 25.854 151.875,25.625 152.156,25.625 152.500 C 25.625 152.844,25.093 153.125,24.442 153.125 C 23.791 153.125,23.092 153.560,22.888 154.092 C 22.684 154.624,22.161 155.012,21.727 154.955 C 19.605 154.677,18.631 155.038,18.988 155.970 C 19.222 156.578,19.105 156.782,18.676 156.517 C 18.223 156.237,18.128 156.526,18.397 157.371 C 18.698 158.320,18.471 158.754,17.517 159.057 C 16.810 159.281,16.395 159.729,16.594 160.051 C 16.793 160.373,16.375 161.375,15.666 162.278 C 14.956 163.180,14.373 164.232,14.371 164.616 C 14.369 164.999,13.951 166.111,13.442 167.087 C 12.500 168.893,13.041 171.250,14.397 171.250 C 15.297 171.250,15.126 173.113,14.219 173.199 C 13.131 173.302,12.956 173.274,11.719 172.792 C 10.820 172.442,10.625 172.713,10.625 174.308 C 10.625 175.568,10.314 176.250,9.739 176.250 C 9.251 176.250,8.364 176.437,7.767 176.666 C 6.798 177.038,6.734 176.790,7.167 174.323 C 7.434 172.805,7.622 170.481,7.586 169.159 C 7.549 167.837,7.817 166.200,8.181 165.521 C 8.821 164.324,8.792 164.319,7.230 165.342 C 5.079 166.751,3.644 165.688,4.167 163.072 C 4.367 162.072,4.212 160.870,3.823 160.401 C 3.280 159.747,3.503 158.855,4.782 156.568 C 7.001 152.598,7.656 149.026,6.358 147.975 C 5.589 147.353,5.484 147.352,5.854 147.969 C 6.629 149.258,5.363 148.850,4.135 147.415 C 3.208 146.332,2.888 146.244,2.443 146.946 C 2.048 147.570,1.891 147.594,1.885 147.031 C 1.870 145.861,0.760 146.090,0.366 147.344 M41.875 152.413 C 41.875 152.709,42.578 152.817,43.438 152.653 C 44.297 152.489,45.000 152.246,45.000 152.115 C 45.000 151.983,44.297 151.875,43.438 151.875 C 42.578 151.875,41.875 152.117,41.875 152.413 M47.519 154.142 C 47.498 155.583,49.133 157.326,49.841 156.618 C 50.080 156.378,49.979 155.986,49.616 155.747 C 49.253 155.508,48.637 154.750,48.247 154.063 C 47.549 152.831,47.538 152.832,47.519 154.142 M32.158 154.247 C 31.062 155.004,31.503 156.563,32.813 156.563 C 33.500 156.563,34.518 157.111,35.076 157.781 C 36.019 158.916,36.160 158.929,37.125 157.964 C 38.253 156.836,35.835 154.410,34.441 155.272 C 34.103 155.481,33.595 155.236,33.311 154.729 C 33.027 154.222,32.508 154.005,32.158 154.247 M57.420 156.988 C 56.641 158.081,56.411 158.730,56.908 158.430 C 57.688 157.960,57.692 158.033,56.939 158.962 C 55.946 160.185,57.667 162.112,59.251 161.552 C 59.699 161.394,59.905 161.523,59.710 161.839 C 59.061 162.889,60.307 163.029,61.569 162.048 C 62.632 161.222,62.649 161.138,61.686 161.471 C 61.019 161.702,60.716 161.609,60.942 161.243 C 61.152 160.903,61.729 160.625,62.224 160.625 C 62.881 160.625,63.102 159.904,63.040 157.969 C 62.991 156.458,62.836 155.936,62.679 156.759 C 62.418 158.125,62.321 158.152,60.935 157.244 C 59.834 156.522,59.400 156.473,59.195 157.047 C 59.044 157.468,58.702 157.608,58.434 157.359 C 58.166 157.109,58.303 156.477,58.737 155.953 C 59.172 155.429,59.372 155.000,59.182 155.000 C 58.991 155.000,58.198 155.895,57.420 156.988 M47.846 159.355 C 46.723 159.757,46.745 159.820,48.131 160.183 C 49.865 160.636,50.099 160.536,49.497 159.598 C 49.256 159.223,48.521 159.114,47.846 159.355 M42.938 184.308 C 43.773 185.646,43.424 186.250,41.815 186.250 C 40.476 186.250,38.602 184.495,39.094 183.700 C 39.716 182.693,42.172 183.082,42.938 184.308 M64.874 188.084 C 65.021 190.017,64.138 191.133,63.403 189.943 C 63.090 189.438,62.833 189.461,62.484 190.027 C 61.879 191.005,54.571 191.447,54.010 190.540 C 53.319 189.422,54.797 188.600,57.717 188.477 C 59.263 188.412,60.972 187.990,61.514 187.540 C 62.056 187.090,62.500 186.911,62.500 187.142 C 62.500 187.446,63.988 186.858,64.711 186.269 C 64.724 186.259,64.797 187.075,64.874 188.084 M75.870 194.733 C 75.648 195.618,75.727 196.602,76.046 196.921 C 76.401 197.276,76.625 196.656,76.625 195.313 C 76.625 192.711,76.418 192.552,75.870 194.733 M84.734 200.329 C 83.709 201.893,83.666 204.370,84.664 204.384 C 85.021 204.388,85.875 204.542,86.563 204.726 C 87.250 204.910,88.375 204.602,89.063 204.041 C 90.133 203.169,90.152 203.074,89.195 203.376 C 87.786 203.821,87.046 202.120,87.990 200.608 C 89.127 198.789,85.923 198.514,84.734 200.329 M69.688 201.250 C 69.504 201.546,69.661 201.978,70.036 202.210 C 70.470 202.478,70.247 202.960,69.421 203.538 C 68.708 204.037,68.125 204.852,68.125 205.348 C 68.125 206.759,67.171 206.409,66.232 204.653 C 65.436 203.167,65.505 202.955,67.220 201.588 C 68.930 200.224,70.450 200.016,69.688 201.250 M75.894 210.070 C 75.658 210.452,75.819 210.984,76.252 211.251 C 76.684 211.518,77.110 212.823,77.199 214.150 C 77.287 215.477,77.227 216.209,77.064 215.777 C 76.901 215.346,76.504 215.155,76.181 215.355 C 75.858 215.555,75.664 215.486,75.749 215.203 C 75.833 214.919,75.412 213.954,74.812 213.057 C 73.635 211.297,73.950 209.375,75.416 209.375 C 75.923 209.375,76.134 209.682,75.894 210.070 M79.291 212.123 C 78.618 213.599,78.447 213.678,77.931 212.756 C 77.501 211.988,77.620 211.545,78.371 211.125 C 78.938 210.808,79.213 210.214,78.984 209.805 C 78.678 209.260,78.765 209.245,79.313 209.749 C 79.892 210.280,79.887 210.815,79.291 212.123 M78.718 219.407 C 77.991 220.134,77.245 220.578,77.060 220.394 C 76.483 219.816,77.504 216.804,78.143 217.199 C 78.477 217.405,78.759 217.206,78.769 216.756 C 78.781 216.241,79.020 216.336,79.414 217.011 C 79.890 217.827,79.723 218.402,78.718 219.407 " stroke="none" fill="#000000" fill-rule="evenodd"></path></g></svg>