<svg id="svg" xmlns="http://www.w3.org/2000/svg" xmlns:xlink="http://www.w3.org/1999/xlink" width="400" height="225" viewBox="0, 0, 400,225"><g id="svgg"><path id="path0" d="M0.420 0.413 C -0.085 0.918,-0.134 53.499,0.369 55.373 C 0.635 56.365,1.089 56.613,2.235 56.394 C 3.463 56.159,3.750 56.362,3.750 57.464 C 3.750 58.212,3.990 58.675,4.284 58.494 C 4.578 58.312,4.789 58.971,4.753 59.958 C 4.717 60.945,4.497 61.635,4.264 61.492 C 3.667 61.126,2.961 63.603,3.440 64.380 C 3.658 64.732,4.098 64.859,4.418 64.661 C 4.738 64.463,5.000 64.616,5.000 65.000 C 5.000 65.384,5.211 65.571,5.469 65.415 C 5.727 65.259,6.300 65.524,6.743 66.003 C 7.187 66.483,7.388 66.875,7.190 66.875 C 6.993 66.875,7.124 67.422,7.482 68.092 C 7.994 69.048,7.899 69.440,7.035 69.925 C 6.114 70.442,6.088 70.590,6.875 70.843 C 7.391 71.009,9.155 71.631,10.795 72.225 C 12.436 72.819,13.949 73.134,14.159 72.925 C 14.368 72.715,15.127 72.956,15.846 73.460 C 17.329 74.498,19.375 74.678,19.375 73.770 C 19.375 73.437,19.788 73.323,20.293 73.516 C 20.797 73.710,21.186 74.053,21.156 74.278 C 20.932 75.969,21.291 76.272,22.656 75.545 C 24.544 74.539,25.581 73.099,25.605 71.450 C 25.618 70.555,26.075 70.018,26.934 69.887 C 27.846 69.748,28.691 68.645,29.721 66.250 C 30.535 64.359,31.211 63.056,31.225 63.353 C 31.239 63.650,31.936 63.444,32.775 62.894 C 34.431 61.810,36.875 63.769,36.875 66.181 C 36.875 66.792,37.744 67.466,39.063 67.879 C 40.972 68.476,41.250 68.429,41.250 67.504 C 41.250 66.268,43.152 64.375,44.393 64.375 C 45.060 64.375,45.083 64.208,44.500 63.625 C 43.593 62.718,43.500 61.647,44.375 62.188 C 44.719 62.400,45.000 62.276,45.000 61.912 C 45.000 61.548,44.297 61.250,43.438 61.250 C 42.292 61.250,41.875 60.917,41.875 60.000 C 41.875 59.313,42.156 58.750,42.500 58.750 C 42.844 58.750,43.125 59.005,43.125 59.316 C 43.125 59.628,43.688 59.736,44.375 59.556 C 45.063 59.376,45.625 59.001,45.625 58.722 C 45.625 58.443,46.067 57.772,46.607 57.232 C 47.500 56.339,47.486 56.249,46.451 56.240 C 45.487 56.232,45.456 56.138,46.250 55.625 C 46.800 55.270,46.883 55.015,46.451 55.010 C 46.046 55.004,45.340 55.374,44.883 55.831 C 44.426 56.289,43.702 56.547,43.276 56.404 C 42.850 56.262,42.311 56.641,42.079 57.246 C 41.687 58.266,41.625 58.258,41.231 57.142 C 40.928 56.284,41.274 55.533,42.434 54.532 C 43.330 53.759,43.842 53.126,43.573 53.126 C 43.304 53.125,44.013 52.195,45.150 51.059 C 47.326 48.882,48.078 46.250,46.524 46.250 C 46.029 46.250,45.625 45.812,45.625 45.276 C 45.625 44.662,45.335 44.475,44.844 44.771 C 44.249 45.128,44.254 45.003,44.867 44.247 C 45.309 43.701,46.191 43.390,46.827 43.556 C 47.464 43.723,48.185 43.534,48.430 43.137 C 48.699 42.702,48.349 42.278,47.548 42.069 C 46.456 41.783,46.374 41.597,47.086 41.017 C 48.588 39.793,48.854 38.125,47.547 38.125 C 46.907 38.125,46.227 37.717,46.036 37.219 C 45.813 36.637,45.989 36.429,46.531 36.637 C 46.994 36.815,47.544 36.685,47.751 36.349 C 48.312 35.441,47.495 33.750,46.496 33.750 C 44.836 33.750,45.734 31.873,47.953 30.705 C 48.718 30.302,50.942 29.850,52.895 29.700 C 57.305 29.362,58.994 28.125,55.047 28.125 C 52.353 28.125,52.345 28.119,52.734 26.172 C 52.949 25.098,53.125 23.691,53.125 23.047 C 53.125 22.309,53.568 21.875,54.323 21.875 C 54.982 21.875,55.636 21.529,55.777 21.107 C 55.964 20.545,56.486 20.636,57.720 21.445 C 59.348 22.511,60.504 22.524,65.400 21.532 C 66.216 21.366,66.902 20.602,67.161 19.569 C 67.395 18.639,67.777 18.148,68.012 18.478 C 68.550 19.237,71.988 19.439,71.521 18.684 C 71.332 18.376,70.630 18.125,69.963 18.125 C 69.296 18.125,68.750 17.703,68.750 17.188 C 68.750 16.604,69.340 16.250,70.313 16.250 C 71.172 16.250,71.875 15.952,71.875 15.588 C 71.875 15.224,72.169 15.108,72.527 15.329 C 72.886 15.551,73.577 15.403,74.063 15.000 C 74.548 14.597,75.219 14.436,75.553 14.643 C 75.887 14.849,76.325 14.498,76.527 13.863 C 76.900 12.687,77.292 12.575,81.394 12.477 C 83.753 12.421,84.923 11.663,83.760 10.944 C 82.734 10.310,83.015 9.710,84.844 8.627 C 85.789 8.068,87.245 7.017,88.080 6.291 C 89.066 5.435,89.811 5.186,90.207 5.582 C 90.603 5.978,91.225 5.973,91.984 5.567 C 93.330 4.847,94.375 5.298,94.375 6.599 C 94.375 7.846,95.168 7.727,97.125 6.187 C 98.337 5.234,98.684 4.528,98.393 3.610 C 98.172 2.914,97.925 1.888,97.843 1.329 C 97.687 0.269,1.469 -0.635,0.420 0.413 M336.646 1.822 C 336.877 2.978,336.662 4.155,336.063 5.010 C 334.676 6.991,336.489 8.617,340.369 8.871 C 344.223 9.122,345.442 10.744,343.125 12.539 C 339.700 15.193,339.759 15.043,341.456 16.740 C 342.500 17.784,343.683 18.299,344.954 18.263 C 347.086 18.203,347.539 19.080,345.681 19.670 C 343.524 20.354,342.817 21.749,343.978 23.031 C 344.541 23.654,344.837 24.329,344.635 24.531 C 344.119 25.048,346.703 26.342,347.993 26.213 C 348.581 26.154,349.414 26.138,349.844 26.178 C 350.765 26.263,350.916 28.750,350.000 28.750 C 349.656 28.750,349.375 29.177,349.375 29.699 C 349.375 30.831,352.456 36.874,353.034 36.876 C 353.256 36.877,354.422 37.720,355.625 38.750 C 358.320 41.056,358.356 41.056,360.421 38.739 C 362.220 36.720,363.194 36.963,363.561 39.523 C 363.901 41.889,364.287 42.500,365.449 42.510 C 368.102 42.532,368.384 43.541,366.344 45.718 C 364.180 48.027,363.923 48.750,365.267 48.750 C 365.757 48.750,366.251 49.229,366.363 49.815 C 366.494 50.493,367.587 51.127,369.375 51.563 C 372.814 52.400,373.357 53.891,370.658 55.086 C 368.734 55.937,368.122 56.875,369.491 56.875 C 369.899 56.875,370.839 56.305,371.581 55.608 C 374.305 53.048,377.184 54.556,374.877 57.335 C 373.289 59.249,377.585 66.670,379.893 65.999 C 380.940 65.696,384.562 65.443,386.170 65.562 C 386.868 65.613,386.880 65.803,386.237 66.578 C 384.570 68.587,386.451 68.178,392.017 65.324 C 394.099 64.256,394.820 65.092,393.474 67.013 C 392.216 68.808,392.247 69.210,393.676 69.664 C 394.338 69.874,395.013 70.847,395.222 71.893 C 395.427 72.915,395.993 73.750,396.480 73.750 C 397.576 73.750,398.125 75.096,398.125 77.787 C 398.125 78.920,398.549 80.199,399.067 80.629 C 399.905 81.324,399.991 76.934,399.848 40.862 L 399.688 0.313 367.983 0.151 L 336.279 -0.011 336.646 1.822 M163.045 34.975 C 162.142 35.161,160.338 36.227,159.038 37.344 C 157.738 38.461,156.144 39.375,155.497 39.375 C 154.723 39.375,154.383 39.749,154.504 40.469 C 154.635 41.248,154.208 41.618,153.017 41.756 C 152.098 41.862,150.692 42.596,149.892 43.387 C 149.092 44.178,147.341 45.216,146.001 45.694 C 144.661 46.172,142.843 47.326,141.962 48.259 C 140.799 49.489,140.216 49.747,139.841 49.196 C 139.556 48.779,139.503 49.740,139.722 51.332 C 140.101 54.090,138.948 56.531,138.252 54.444 C 137.230 51.376,130.625 48.587,130.625 51.222 C 130.625 52.900,125.659 54.072,124.754 52.608 C 124.081 51.519,117.956 52.885,116.571 54.432 C 115.830 55.260,114.681 56.258,114.018 56.649 C 113.100 57.191,112.841 57.975,112.931 59.931 C 113.053 62.593,112.105 63.345,110.724 61.681 C 109.842 60.620,106.990 60.835,104.433 62.157 C 102.890 62.955,102.206 63.034,101.548 62.488 C 100.877 61.931,100.062 62.202,97.858 63.719 C 96.234 64.836,93.977 65.770,92.561 65.911 C 89.836 66.182,87.500 67.214,87.500 68.147 C 87.500 68.479,87.131 68.750,86.680 68.750 C 86.229 68.750,85.230 69.602,84.461 70.642 C 83.691 71.683,82.809 72.378,82.500 72.187 C 81.267 71.426,80.624 74.180,81.788 75.234 C 83.129 76.447,84.141 76.544,84.234 75.469 C 84.271 75.039,84.437 74.125,84.603 73.438 C 84.769 72.750,84.926 71.977,84.952 71.719 C 84.978 71.461,85.211 71.283,85.469 71.324 C 86.783 71.532,87.500 71.149,87.500 70.240 C 87.500 69.504,87.917 69.309,89.031 69.522 C 89.873 69.683,90.684 69.499,90.832 69.112 C 90.980 68.726,91.872 68.346,92.814 68.268 C 94.271 68.148,94.411 68.266,93.749 69.063 C 93.322 69.578,92.460 70.000,91.835 70.000 C 91.210 70.000,90.525 70.281,90.313 70.625 C 90.100 70.969,89.591 71.246,89.182 71.240 C 88.735 71.235,88.812 70.989,89.375 70.625 C 90.184 70.102,90.168 70.018,89.261 70.010 C 88.485 70.003,88.223 70.514,88.264 71.954 C 88.305 73.406,87.813 74.350,86.347 75.630 C 85.263 76.577,84.375 77.598,84.375 77.898 C 84.375 78.199,83.557 78.807,82.556 79.250 C 80.287 80.255,79.634 81.782,81.037 82.808 C 81.918 83.452,81.980 83.885,81.402 85.385 C 80.380 88.042,79.997 93.497,80.778 94.278 C 81.253 94.753,81.198 95.272,80.588 96.067 C 80.115 96.683,79.965 96.989,80.253 96.746 C 81.215 95.938,85.625 101.048,85.625 102.970 C 85.625 105.289,90.281 109.954,93.215 110.575 C 95.343 111.025,95.581 111.578,94.757 114.162 C 94.389 115.315,94.672 115.624,96.695 116.282 C 97.997 116.705,99.287 117.434,99.562 117.901 C 99.837 118.368,100.476 118.750,100.981 118.750 C 101.486 118.750,103.090 119.516,104.544 120.453 C 107.472 122.340,111.671 124.375,112.634 124.375 C 112.977 124.375,114.141 125.082,115.222 125.947 C 120.303 130.011,123.246 133.496,122.276 134.301 C 121.701 134.779,121.267 134.767,120.762 134.262 C 120.233 133.733,119.797 133.765,119.049 134.386 C 117.596 135.592,119.453 136.587,121.306 135.595 C 122.033 135.206,123.230 135.045,123.967 135.238 C 124.883 135.477,126.050 134.990,127.658 133.698 C 130.316 131.562,130.897 131.695,132.165 134.730 C 132.658 135.910,133.480 136.875,133.992 136.875 C 134.613 136.875,135.060 137.788,135.334 139.614 C 135.638 141.643,136.144 142.566,137.284 143.177 C 138.478 143.816,138.739 144.334,138.449 145.490 C 138.219 146.404,138.315 146.831,138.697 146.595 C 139.440 146.136,141.397 148.919,141.166 150.106 C 140.881 151.574,141.929 153.750,142.921 153.750 C 143.480 153.750,143.746 154.110,143.555 154.607 C 143.368 155.093,144.029 156.058,145.080 156.835 C 146.100 157.589,147.390 159.242,147.947 160.509 C 148.505 161.776,149.476 163.956,150.105 165.354 C 150.735 166.751,151.250 168.178,151.250 168.525 C 151.250 168.872,152.989 169.697,155.115 170.359 C 158.173 171.311,161.245 173.475,158.965 173.071 C 157.244 172.765,155.001 173.239,155.005 173.906 C 155.011 174.960,158.244 176.445,158.749 175.626 C 159.351 174.653,161.937 174.751,164.922 175.859 C 166.426 176.418,168.184 176.875,168.829 176.875 C 169.603 176.875,170.000 177.321,170.000 178.192 C 170.000 178.978,170.315 179.396,170.781 179.229 C 178.602 176.426,178.065 176.511,179.052 177.920 C 180.211 179.575,183.125 179.698,183.125 178.092 C 183.125 176.553,184.993 174.743,185.775 175.525 C 186.150 175.900,186.161 176.521,185.803 177.160 C 184.714 179.105,185.591 181.875,187.295 181.875 C 188.155 181.875,188.655 181.602,188.438 181.250 C 188.225 180.906,187.646 180.625,187.151 180.625 C 186.655 180.625,186.250 180.365,186.250 180.047 C 186.250 179.726,189.266 179.488,193.039 179.512 C 196.773 179.536,200.129 179.369,200.496 179.142 C 200.863 178.915,201.303 178.955,201.474 179.231 C 201.644 179.507,202.578 179.675,203.548 179.605 C 204.519 179.534,205.657 179.454,206.078 179.426 C 206.499 179.398,207.279 178.531,207.813 177.500 C 208.946 175.309,210.099 175.173,213.378 176.845 C 215.925 178.143,218.966 178.014,220.544 176.542 C 221.167 175.960,221.878 175.909,223.155 176.354 C 224.604 176.859,225.135 176.740,226.205 175.670 C 226.917 174.958,227.992 174.366,228.594 174.355 C 229.195 174.344,230.233 173.922,230.901 173.418 C 231.568 172.913,232.914 172.500,233.891 172.500 C 235.978 172.500,238.328 171.110,240.938 168.334 C 242.787 166.366,247.112 163.750,248.515 163.750 C 249.548 163.750,255.000 158.236,255.000 157.191 C 255.000 155.989,257.428 153.505,259.641 152.441 C 260.716 151.925,261.719 150.789,262.074 149.688 C 262.406 148.656,263.201 147.066,263.839 146.154 C 264.478 145.241,265.000 144.053,265.000 143.514 C 265.000 142.975,266.166 141.274,267.591 139.734 C 269.539 137.629,270.596 135.646,271.849 131.748 L 273.515 126.563 271.758 125.109 C 269.440 123.191,269.540 122.500,272.136 122.500 C 275.976 122.500,277.374 121.272,275.277 119.739 C 274.398 119.096,274.398 118.849,275.274 117.170 C 275.806 116.148,276.244 114.837,276.246 114.256 C 276.248 113.674,276.531 113.025,276.875 112.813 C 277.219 112.600,277.500 110.870,277.500 108.967 C 277.500 106.034,277.690 105.458,278.750 105.181 C 280.131 104.820,280.247 104.482,279.429 103.191 C 278.588 101.863,279.918 98.660,282.116 96.723 C 283.785 95.252,283.950 94.853,283.277 93.911 C 281.934 92.032,281.725 91.287,282.223 90.156 C 282.488 89.555,282.741 88.922,282.785 88.750 C 282.830 88.578,283.209 87.438,283.629 86.216 C 284.459 83.796,284.322 81.354,283.190 78.438 C 282.790 77.406,282.358 76.259,282.230 75.888 C 281.534 73.877,277.331 68.125,276.558 68.125 C 276.061 68.125,275.155 67.352,274.546 66.406 C 272.225 62.807,270.440 61.250,268.635 61.250 C 266.776 61.250,266.641 59.830,268.209 56.764 C 269.236 54.757,268.099 53.377,266.818 55.075 L 265.704 56.553 263.946 55.129 C 262.979 54.345,261.705 53.544,261.114 53.347 C 260.524 53.151,259.873 52.458,259.666 51.808 C 259.287 50.615,258.563 50.404,255.523 50.600 C 254.607 50.659,253.623 50.304,253.335 49.810 C 253.048 49.316,252.114 48.946,251.261 48.987 C 250.407 49.029,249.669 48.711,249.620 48.281 C 249.437 46.672,249.341 46.585,248.759 47.500 C 248.268 48.273,247.942 48.300,246.903 47.656 C 246.209 47.227,245.287 46.878,244.852 46.881 C 244.418 46.884,243.345 46.013,242.468 44.946 C 240.231 42.226,235.329 40.625,229.234 40.625 C 226.474 40.625,223.827 40.293,223.134 39.861 C 222.075 39.199,221.632 39.366,219.848 41.094 L 217.787 43.092 216.040 40.903 C 215.079 39.699,213.960 38.767,213.553 38.831 C 211.640 39.135,205.064 37.905,205.182 37.266 C 205.305 36.601,203.845 36.582,201.961 37.225 C 201.305 37.448,201.276 37.716,201.835 38.389 C 202.866 39.632,201.671 40.139,200.248 39.062 C 198.481 37.725,198.337 37.866,198.217 41.051 C 198.105 44.018,197.561 45.339,197.046 43.895 C 196.891 43.459,196.433 42.756,196.030 42.333 C 195.626 41.909,194.801 40.789,194.196 39.844 C 192.874 37.778,192.140 37.668,191.670 39.465 C 191.355 40.670,191.028 40.764,188.421 40.407 C 184.687 39.895,183.890 39.401,185.225 38.424 C 186.094 37.789,186.124 37.549,185.409 36.955 C 184.742 36.401,184.295 36.590,183.378 37.810 C 181.869 39.820,180.247 39.818,179.742 37.807 C 179.360 36.286,179.301 36.270,177.776 37.269 C 176.372 38.189,176.122 38.197,175.445 37.348 C 175.028 36.825,173.563 36.229,172.188 36.024 C 170.813 35.819,168.563 35.423,167.188 35.144 C 165.813 34.866,163.948 34.790,163.045 34.975 M281.845 100.569 C 282.691 102.150,283.924 102.301,283.632 100.788 C 283.517 100.191,282.911 99.603,282.285 99.483 C 281.310 99.295,281.247 99.451,281.845 100.569 M32.188 132.500 C 31.975 132.844,32.029 133.129,32.307 133.135 C 32.585 133.140,32.418 133.394,31.935 133.699 C 31.303 134.100,31.504 134.228,32.655 134.159 C 33.971 134.079,34.148 133.870,33.666 132.969 C 32.994 131.712,32.727 131.627,32.188 132.500 M35.360 137.317 C 37.033 139.782,37.176 140.365,36.250 140.938 C 35.906 141.150,35.625 141.035,35.625 140.682 C 35.625 139.314,33.806 140.846,31.565 144.099 C 30.277 145.970,28.946 147.500,28.608 147.500 C 27.556 147.500,24.421 150.457,24.878 151.018 C 25.117 151.310,24.750 151.086,24.063 150.521 C 22.697 149.397,21.250 150.215,21.250 152.109 C 21.250 152.611,21.602 153.177,22.031 153.367 C 22.556 153.600,22.504 153.695,21.875 153.658 C 19.494 153.516,18.955 153.924,17.952 156.630 C 17.365 158.214,17.043 159.767,17.237 160.080 C 17.431 160.394,16.874 161.501,16.000 162.539 C 14.999 163.730,14.260 165.570,14.001 167.516 C 13.575 170.730,12.297 172.547,11.219 171.469 C 10.151 170.401,10.426 166.027,11.769 162.714 C 12.987 159.710,12.311 157.153,10.902 159.433 C 10.646 159.846,10.231 159.826,9.687 159.375 C 9.116 158.901,8.736 158.891,8.456 159.345 C 7.631 160.680,6.081 160.078,6.521 158.594 C 6.750 157.820,7.020 156.906,7.121 156.563 C 7.222 156.219,7.513 155.094,7.767 154.063 C 8.021 153.031,8.380 151.766,8.565 151.250 C 9.335 149.096,9.067 146.536,7.989 145.746 C 7.376 145.297,6.875 144.415,6.875 143.787 C 6.875 142.301,4.405 141.571,4.301 143.027 C 4.260 143.597,4.267 144.294,4.316 144.578 C 4.366 144.861,4.118 144.915,3.765 144.697 C 3.413 144.479,3.121 144.669,3.115 145.119 C 3.108 145.754,2.982 145.742,2.554 145.065 C 2.250 144.585,1.557 144.363,1.014 144.572 C 0.127 144.912,0.041 148.981,0.170 184.819 L 0.313 224.688 47.431 224.848 C 95.416 225.011,97.379 224.926,95.595 222.776 C 95.226 222.331,95.009 221.595,95.114 221.140 C 95.218 220.685,95.107 220.313,94.866 220.313 C 94.626 220.313,94.047 219.790,93.579 219.151 C 93.109 218.508,92.193 218.092,91.528 218.220 C 89.533 218.605,88.001 216.582,88.860 214.697 C 89.815 212.601,90.927 212.713,91.875 215.000 C 92.611 216.776,94.375 217.632,94.375 216.213 C 94.375 215.849,94.598 215.689,94.870 215.857 C 95.143 216.026,95.407 215.614,95.457 214.943 C 95.513 214.203,95.280 213.890,94.865 214.146 C 94.392 214.438,94.306 213.911,94.589 212.441 C 94.877 210.943,94.816 210.590,94.384 211.250 C 93.858 212.052,93.768 212.030,93.760 211.094 C 93.754 210.492,93.469 209.965,93.125 209.922 C 92.781 209.879,92.289 209.798,92.031 209.742 C 87.419 208.738,86.999 207.663,90.429 205.639 C 92.285 204.544,92.558 204.156,91.835 203.644 C 91.123 203.139,91.174 203.084,92.082 203.379 C 92.712 203.583,93.361 203.750,93.526 203.750 C 93.690 203.750,93.652 204.028,93.442 204.368 C 93.219 204.728,93.484 204.823,94.079 204.595 C 94.923 204.271,94.955 204.067,94.267 203.403 C 93.210 202.382,90.591 202.057,89.375 202.796 C 88.566 203.287,88.555 203.220,89.295 202.307 C 89.767 201.726,89.924 201.250,89.645 201.250 C 89.365 201.250,89.647 200.877,90.271 200.420 C 91.641 199.419,88.473 197.725,86.295 198.294 C 85.627 198.469,84.948 198.266,84.786 197.843 C 84.601 197.361,83.733 197.186,82.458 197.373 C 80.737 197.625,80.488 197.508,80.836 196.603 C 81.061 196.015,80.937 194.957,80.559 194.252 C 80.047 193.295,80.075 192.591,80.667 191.484 C 81.640 189.666,82.737 189.517,82.178 191.280 C 81.955 191.984,82.099 192.955,82.500 193.438 C 82.901 193.920,83.045 194.891,82.822 195.595 C 82.599 196.299,82.681 196.875,83.005 196.875 C 83.948 196.875,84.465 193.049,83.654 192.072 C 83.104 191.409,83.103 191.022,83.651 190.474 C 84.871 189.254,84.479 188.899,81.875 188.863 C 80.500 188.844,79.375 189.092,79.375 189.414 C 79.375 190.204,77.674 190.162,77.178 189.360 C 76.960 189.007,77.014 188.759,77.297 188.809 C 78.572 189.030,78.765 188.676,77.862 187.773 C 77.324 187.235,76.604 186.968,76.262 187.180 C 75.526 187.635,76.099 185.845,77.222 184.178 C 78.388 182.450,77.675 180.487,76.174 181.291 C 74.828 182.011,70.750 180.428,70.190 178.968 C 70.013 178.508,69.617 178.288,69.310 178.478 C 69.002 178.668,68.746 178.315,68.740 177.693 C 68.732 176.723,68.636 176.695,68.065 177.500 C 67.552 178.222,67.485 178.042,67.774 176.719 C 68.002 175.675,67.884 175.000,67.475 175.000 C 67.104 175.000,66.975 174.719,67.188 174.375 C 67.400 174.031,67.246 173.750,66.845 173.750 C 66.444 173.750,66.271 173.346,66.461 172.853 C 66.650 172.359,66.469 171.832,66.059 171.681 C 65.488 171.471,65.485 171.223,66.045 170.627 C 66.448 170.198,66.629 169.460,66.447 168.986 C 66.265 168.513,66.428 168.125,66.808 168.125 C 67.189 168.125,67.500 167.630,67.500 167.025 C 67.500 166.421,68.092 165.556,68.815 165.104 C 69.905 164.424,70.050 164.425,69.661 165.110 C 69.301 165.745,69.373 165.770,69.973 165.216 C 70.548 164.686,70.578 164.191,70.084 163.341 C 69.715 162.707,69.404 162.539,69.394 162.969 C 69.384 163.398,69.077 163.750,68.713 163.750 C 68.349 163.750,68.234 163.454,68.458 163.092 C 68.682 162.730,68.265 161.913,67.532 161.277 C 66.552 160.428,66.413 160.022,67.006 159.748 C 67.643 159.453,67.649 159.299,67.031 159.010 C 66.602 158.810,66.250 158.371,66.250 158.036 C 66.250 157.701,66.579 157.630,66.981 157.878 C 67.467 158.178,67.584 157.994,67.329 157.330 C 67.118 156.781,67.281 156.218,67.691 156.080 C 68.263 155.887,68.256 155.608,67.662 154.888 C 67.235 154.371,67.071 153.762,67.297 153.536 C 67.523 153.310,67.350 153.125,66.912 153.125 C 66.474 153.125,66.272 152.718,66.464 152.219 C 66.687 151.637,66.511 151.429,65.969 151.637 C 65.506 151.815,64.914 151.616,64.654 151.196 C 64.352 150.707,64.442 150.593,64.903 150.878 C 66.073 151.601,65.739 149.617,64.531 148.670 C 63.548 147.899,63.521 147.919,64.266 148.871 C 64.988 149.793,64.930 149.917,63.814 149.833 C 62.505 149.734,61.358 148.125,62.596 148.125 C 63.046 148.125,63.013 147.806,62.500 147.188 C 62.072 146.672,61.348 146.250,60.892 146.250 C 60.436 146.250,59.837 145.869,59.562 145.404 C 59.287 144.938,58.422 144.221,57.639 143.810 C 56.856 143.399,56.350 142.843,56.516 142.575 C 57.167 141.522,54.154 142.353,53.353 143.447 C 52.791 144.216,52.500 144.325,52.500 143.765 C 52.500 143.299,52.290 143.127,52.032 143.384 C 51.775 143.642,52.073 144.224,52.695 144.679 C 53.410 145.201,53.581 145.656,53.161 145.915 C 52.261 146.472,53.490 148.750,54.690 148.750 C 55.208 148.750,55.442 149.125,55.244 149.640 C 55.040 150.171,55.488 150.814,56.358 151.237 C 57.745 151.911,57.757 151.899,56.599 150.972 C 55.932 150.437,55.687 150.000,56.054 150.000 C 57.100 150.000,57.888 151.390,58.005 153.438 C 58.089 154.900,57.970 155.106,57.466 154.375 C 56.952 153.630,56.853 153.759,56.984 155.000 C 57.075 155.859,56.944 156.892,56.693 157.295 C 54.663 160.554,56.039 162.217,59.771 161.016 C 60.847 160.670,61.182 160.893,61.502 162.168 C 61.720 163.038,62.208 163.750,62.585 163.750 C 62.963 163.750,63.124 163.189,62.944 162.500 C 62.731 161.688,62.925 161.250,63.496 161.250 C 63.979 161.250,64.375 160.922,64.375 160.521 C 64.375 160.120,64.517 159.934,64.690 160.107 C 65.041 160.457,63.222 164.375,62.709 164.375 C 62.531 164.375,61.665 163.809,60.784 163.116 C 59.904 162.424,59.093 161.949,58.981 162.060 C 58.799 162.243,58.291 164.579,58.171 165.781 C 58.146 166.039,57.546 166.250,56.838 166.250 C 56.130 166.250,55.724 165.971,55.934 165.630 C 56.561 164.617,53.217 161.705,51.840 162.065 C 51.173 162.240,50.442 162.084,50.217 161.720 C 49.958 161.302,50.109 161.244,50.625 161.563 C 51.166 161.897,51.292 161.824,50.997 161.347 C 50.752 160.950,50.005 160.625,49.338 160.625 C 48.671 160.625,48.125 160.327,48.125 159.963 C 48.125 159.599,48.477 159.500,48.906 159.742 C 49.531 160.095,49.531 160.015,48.906 159.342 C 48.299 158.687,47.958 158.667,47.375 159.250 C 46.962 159.662,46.330 159.996,45.969 159.990 C 45.608 159.985,45.734 159.708,46.250 159.375 C 47.193 158.765,46.410 158.405,44.778 158.698 C 43.884 158.858,42.488 157.400,42.899 156.734 C 43.112 156.391,42.898 155.865,42.424 155.565 C 41.748 155.136,41.738 155.017,42.381 155.010 C 42.831 155.004,43.051 154.761,42.871 154.469 C 42.391 153.693,45.215 151.433,46.280 151.741 C 46.779 151.886,46.550 151.534,45.771 150.960 C 44.992 150.385,44.498 149.682,44.673 149.398 C 45.207 148.535,43.214 148.122,41.557 148.752 C 39.730 149.447,39.318 152.729,40.977 153.366 C 42.638 154.004,41.302 155.000,38.786 155.000 C 36.391 155.000,34.792 153.088,36.372 152.112 C 36.718 151.898,36.843 150.934,36.650 149.968 C 36.440 148.918,36.585 148.117,37.012 147.975 C 37.472 147.822,37.538 147.307,37.198 146.525 C 36.908 145.858,36.646 145.058,36.616 144.747 C 36.587 144.436,36.074 144.110,35.477 144.022 C 34.591 143.892,34.509 144.082,35.030 145.057 C 35.382 145.713,35.940 146.250,36.272 146.250 C 37.246 146.250,36.971 147.161,35.532 148.706 C 34.793 149.499,34.160 150.911,34.125 151.844 C 34.091 152.776,33.723 153.540,33.309 153.541 C 32.894 153.541,32.695 153.316,32.866 153.039 C 33.036 152.763,32.461 152.357,31.588 152.138 C 30.715 151.919,30.000 151.472,30.000 151.145 C 30.000 150.819,30.282 150.726,30.627 150.939 C 31.018 151.180,31.178 150.371,31.053 148.788 C 30.942 147.392,31.077 146.250,31.352 146.250 C 31.626 146.250,32.027 145.549,32.242 144.692 C 32.460 143.826,32.924 143.313,33.288 143.538 C 33.655 143.765,33.759 143.645,33.525 143.267 C 33.294 142.892,33.690 142.405,34.413 142.175 C 35.131 141.947,35.768 141.857,35.828 141.974 C 37.456 145.156,38.482 145.115,38.345 141.875 C 38.149 137.256,37.866 136.372,36.661 136.604 C 35.937 136.743,35.622 136.535,35.811 136.040 C 35.980 135.602,35.612 135.218,34.979 135.170 C 33.965 135.094,34.005 135.320,35.360 137.317 M47.182 141.136 C 47.741 143.364,47.748 143.367,49.788 142.261 C 51.030 141.589,51.234 141.293,50.469 141.275 C 49.867 141.261,49.375 141.002,49.375 140.698 C 49.375 140.394,48.787 139.992,48.068 139.804 C 46.917 139.503,46.811 139.662,47.182 141.136 M24.297 145.938 C 23.884 147.590,24.187 149.793,24.795 149.560 C 25.777 149.183,26.294 147.716,25.851 146.563 C 25.512 145.678,24.467 145.258,24.297 145.938 M50.466 146.719 C 48.853 148.523,48.854 150.283,50.469 150.512 C 51.249 150.623,51.875 150.382,51.875 149.971 C 51.875 149.537,52.394 149.365,53.126 149.556 C 53.865 149.750,54.220 149.629,53.993 149.262 C 53.782 148.921,53.078 148.780,52.429 148.950 C 51.686 149.144,51.250 148.933,51.250 148.379 C 51.250 147.896,51.602 147.496,52.031 147.490 C 52.603 147.483,52.584 147.336,51.961 146.941 C 51.241 146.485,51.241 146.349,51.961 146.062 C 52.429 145.876,52.505 145.701,52.128 145.674 C 51.752 145.647,51.004 146.117,50.466 146.719 M46.323 152.239 C 45.504 153.054,44.520 153.538,44.136 153.315 C 43.752 153.092,44.211 153.700,45.157 154.666 C 48.547 158.129,51.686 156.623,50.050 152.319 C 49.276 150.282,48.310 150.261,46.323 152.239 M36.250 159.688 C 36.250 160.226,35.686 160.625,34.923 160.625 C 33.815 160.625,33.725 160.471,34.375 159.688 C 34.803 159.172,35.400 158.750,35.702 158.750 C 36.003 158.750,36.250 159.172,36.250 159.688 M246.311 166.810 C 243.218 168.275,244.324 171.445,247.702 170.799 C 249.277 170.498,250.104 169.375,248.750 169.375 C 248.406 169.375,248.125 168.813,248.125 168.125 C 248.125 167.292,248.542 166.875,249.375 166.875 C 250.063 166.875,250.625 166.654,250.625 166.384 C 250.625 165.597,248.410 165.816,246.311 166.810 M75.999 169.477 C 75.478 170.220,75.243 171.134,75.476 171.508 C 76.104 172.514,76.139 174.995,75.530 175.371 C 75.238 175.551,75.000 175.963,75.000 176.287 C 75.000 177.445,76.451 176.839,78.832 174.688 C 80.164 173.484,80.972 172.500,80.627 172.500 C 80.282 172.500,80.000 172.228,80.000 171.895 C 80.000 171.562,80.425 171.452,80.945 171.652 C 81.614 171.908,81.779 171.727,81.512 171.031 C 81.304 170.490,80.561 169.866,79.860 169.643 C 78.851 169.323,78.765 169.124,79.449 168.691 C 79.924 168.390,80.017 168.140,79.656 168.135 C 79.295 168.129,78.621 168.477,78.158 168.906 C 77.485 169.531,77.405 169.531,77.758 168.906 C 78.517 167.561,76.995 168.055,75.999 169.477 M231.577 174.256 C 230.893 174.940,231.298 176.246,232.557 177.419 C 234.165 178.917,237.022 176.995,235.648 175.340 C 234.915 174.457,232.121 173.713,231.577 174.256 M227.500 176.541 C 227.500 177.309,229.256 178.750,230.193 178.750 C 230.345 178.750,230.469 178.047,230.469 177.188 C 230.469 175.959,230.151 175.625,228.984 175.625 C 228.097 175.625,227.500 175.993,227.500 176.541 M71.343 177.879 C 70.879 178.403,70.681 179.015,70.904 179.238 C 71.414 179.747,73.222 178.647,73.220 177.828 C 73.218 176.831,72.248 176.858,71.343 177.879 M67.746 182.864 C 68.381 184.521,68.197 184.853,66.264 185.527 C 64.291 186.214,63.307 185.604,64.154 184.219 C 65.662 181.752,67.109 181.206,67.746 182.864 M72.848 186.363 C 73.034 187.637,71.513 187.213,70.988 185.844 C 70.745 185.211,70.963 184.974,71.662 185.111 C 72.230 185.222,72.764 185.785,72.848 186.363 M97.877 211.179 C 96.908 212.250,96.904 212.378,97.839 212.736 C 99.538 213.388,100.682 212.398,99.730 211.100 C 98.976 210.070,98.876 210.075,97.877 211.179 " stroke="none" fill="#000000" fill-rule="evenodd"></path></g></svg>