<svg id="svg" xmlns="http://www.w3.org/2000/svg" xmlns:xlink="http://www.w3.org/1999/xlink" width="400" height="225" viewBox="0, 0, 400,225"><g id="svgg"><path id="path0" d="M0.402 0.431 C -0.266 1.099,-0.028 68.321,0.646 69.387 C 1.102 70.108,1.233 70.125,1.240 69.464 C 1.247 68.920,1.635 68.764,2.325 69.029 C 2.916 69.255,3.201 69.243,2.959 69.001 C 2.717 68.759,3.007 68.191,3.603 67.738 C 4.270 67.232,4.387 66.907,3.906 66.895 C 3.477 66.884,3.125 66.313,3.125 65.625 C 3.125 63.329,4.090 64.339,5.066 67.656 C 5.888 70.452,6.278 70.967,7.703 71.135 C 9.448 71.342,10.072 72.500,8.438 72.500 C 7.922 72.500,7.500 72.781,7.500 73.125 C 7.500 73.469,8.046 73.750,8.713 73.750 C 9.380 73.750,10.130 74.079,10.379 74.482 C 10.673 74.958,11.028 74.685,11.396 73.701 C 11.954 72.208,11.974 72.204,12.887 73.438 C 13.709 74.547,13.704 74.710,12.844 74.890 C 11.641 75.140,11.564 77.247,12.741 77.698 C 13.217 77.881,14.131 77.663,14.772 77.214 C 15.413 76.765,16.105 76.294,16.310 76.168 C 16.515 76.041,17.087 76.273,17.581 76.683 C 18.099 77.113,18.831 77.211,19.309 76.916 C 19.765 76.634,20.677 76.544,21.335 76.716 C 22.519 77.026,23.317 76.348,25.869 72.863 C 26.770 71.632,27.598 71.250,29.365 71.250 C 32.192 71.250,36.026 68.480,34.180 67.771 C 33.591 67.545,32.691 67.707,32.180 68.132 C 31.419 68.762,31.250 68.711,31.250 67.852 C 31.250 67.274,31.531 66.975,31.875 67.188 C 32.219 67.400,32.500 67.259,32.500 66.875 C 32.500 66.491,32.755 66.334,33.067 66.526 C 33.378 66.719,33.496 66.353,33.329 65.712 C 33.146 65.013,33.419 64.396,34.012 64.168 C 35.501 63.597,36.843 64.341,37.250 65.965 C 37.501 66.964,37.921 67.299,38.597 67.040 C 39.247 66.791,39.427 66.911,39.128 67.394 C 38.852 67.840,39.082 68.125,39.717 68.125 C 40.359 68.125,40.628 67.785,40.419 67.239 C 40.232 66.752,40.483 66.198,40.977 66.009 C 41.471 65.819,41.875 65.000,41.875 64.188 C 41.875 62.632,44.364 60.783,45.507 61.490 C 45.881 61.721,46.000 61.367,45.802 60.610 C 45.586 59.782,45.956 58.922,46.872 58.128 C 47.692 57.416,48.121 56.516,47.906 55.956 C 47.704 55.430,47.765 55.000,48.040 55.000 C 48.543 55.000,48.672 54.474,48.885 51.563 C 49.005 49.934,49.638 49.534,50.329 50.652 C 50.551 51.011,50.396 51.711,49.984 52.207 C 49.572 52.703,49.422 53.597,49.651 54.193 C 49.970 55.023,50.184 55.088,50.565 54.472 C 50.839 54.029,51.456 53.587,51.938 53.490 C 53.595 53.156,55.000 52.365,55.000 51.766 C 55.000 51.436,54.461 51.337,53.803 51.546 C 53.144 51.755,52.424 51.633,52.203 51.275 C 51.982 50.918,52.210 50.625,52.709 50.625 C 53.756 50.625,54.583 48.953,53.781 48.457 C 53.014 47.982,53.707 45.775,54.749 45.375 C 55.745 44.993,55.953 43.125,55.000 43.125 C 54.656 43.125,54.375 42.703,54.375 42.188 C 54.375 41.672,54.103 41.250,53.770 41.250 C 53.437 41.250,53.309 40.873,53.486 40.413 C 53.662 39.952,53.372 39.215,52.841 38.774 C 52.310 38.333,51.875 37.591,51.875 37.125 C 51.875 36.660,51.174 35.820,50.318 35.259 C 49.461 34.697,48.916 33.988,49.105 33.682 C 49.815 32.532,52.295 33.192,54.364 35.082 C 55.583 36.196,56.609 36.735,56.743 36.332 C 57.034 35.459,58.750 35.389,58.750 36.250 C 58.750 36.594,58.434 36.875,58.048 36.875 C 57.564 36.875,57.587 37.165,58.125 37.813 C 59.054 38.932,60.379 39.029,61.001 38.023 C 61.259 37.605,60.750 36.693,59.805 35.880 C 58.328 34.610,58.228 34.266,58.831 32.537 C 59.200 31.477,59.342 30.191,59.146 29.680 C 58.907 29.058,59.182 28.750,59.975 28.750 C 60.627 28.750,61.583 28.328,62.098 27.812 C 63.319 26.592,63.493 26.618,65.149 28.274 C 66.397 29.522,66.571 29.556,66.757 28.587 C 67.020 27.225,67.465 27.213,68.436 28.541 C 69.097 29.445,69.255 29.273,69.637 27.239 C 69.942 25.613,70.339 24.996,70.935 25.225 C 71.408 25.406,71.899 25.240,72.028 24.854 C 72.156 24.469,72.608 24.368,73.031 24.629 C 73.457 24.893,73.631 25.640,73.421 26.303 C 73.096 27.326,73.357 27.500,75.218 27.500 C 76.416 27.500,77.497 27.804,77.621 28.176 C 78.094 29.594,81.786 26.698,81.737 24.949 C 81.670 22.611,82.116 22.145,85.256 21.266 C 87.981 20.503,89.709 18.826,87.607 18.984 C 86.890 19.038,86.630 18.671,86.778 17.813 C 87.099 15.954,87.387 15.893,88.781 17.389 C 90.257 18.974,90.727 19.119,90.236 17.837 C 89.822 16.759,92.080 16.998,93.508 18.184 C 94.259 18.807,94.235 19.027,93.349 19.675 C 92.777 20.093,92.509 20.759,92.754 21.155 C 93.387 22.179,94.375 22.046,94.375 20.938 C 94.375 20.092,95.117 19.722,96.406 19.926 C 96.853 19.996,97.051 19.071,96.719 18.464 C 96.633 18.307,97.125 17.754,97.813 17.234 C 98.890 16.420,98.917 16.287,98.006 16.270 C 97.424 16.259,96.748 15.925,96.503 15.528 C 96.227 15.081,96.331 14.977,96.778 15.253 C 97.183 15.503,97.504 15.339,97.510 14.881 C 97.517 14.285,97.686 14.317,98.135 15.000 C 98.894 16.157,99.812 15.085,100.408 12.344 C 100.753 10.753,102.500 9.840,102.500 11.250 C 102.500 11.594,102.219 11.875,101.875 11.875 C 101.531 11.875,101.250 12.735,101.250 13.787 C 101.250 14.923,101.508 15.539,101.885 15.306 C 102.235 15.090,102.377 14.682,102.202 14.398 C 101.571 13.377,103.706 9.397,104.684 9.773 C 105.198 9.970,105.439 10.420,105.220 10.774 C 104.786 11.478,104.425 15.625,104.799 15.625 C 105.078 15.625,106.430 12.444,106.525 11.563 C 106.562 11.219,107.078 10.977,107.671 11.024 C 108.409 11.084,108.750 10.651,108.750 9.655 C 108.750 7.147,109.825 7.404,110.242 10.011 C 110.974 14.590,112.475 12.417,112.491 6.756 C 112.496 5.143,112.196 3.636,111.824 3.406 C 111.453 3.177,111.317 2.316,111.524 1.494 L 111.899 0.000 56.366 0.000 C 25.823 0.000,0.639 0.194,0.402 0.431 M301.712 0.465 C 301.580 0.725,301.095 2.133,300.636 3.594 C 299.851 6.086,299.333 6.579,297.813 6.272 C 297.469 6.203,297.422 6.380,297.708 6.667 C 297.995 6.953,298.487 7.187,298.802 7.187 C 299.117 7.188,299.305 7.469,299.219 7.813 C 299.133 8.156,298.849 8.366,298.587 8.279 C 298.326 8.192,298.452 8.666,298.868 9.332 C 299.285 9.999,299.898 10.376,300.231 10.170 C 300.577 9.956,300.671 10.227,300.451 10.803 C 300.189 11.486,300.336 11.707,300.906 11.488 C 301.369 11.310,301.961 11.509,302.221 11.929 C 302.543 12.450,302.433 12.532,301.875 12.188 C 301.362 11.871,301.208 11.927,301.463 12.339 C 301.832 12.936,305.672 13.013,307.188 12.453 C 307.969 12.164,311.250 14.310,311.250 15.109 C 311.250 15.433,310.946 15.511,310.573 15.281 C 310.201 15.051,310.330 15.700,310.859 16.723 C 311.975 18.881,310.976 21.133,309.205 20.454 C 307.633 19.850,307.222 22.014,308.684 23.197 C 309.627 23.961,310.555 24.106,312.373 23.773 C 314.639 23.359,314.848 23.448,315.472 25.102 C 315.953 26.377,316.567 26.875,317.654 26.875 C 318.582 26.875,319.167 27.237,319.167 27.813 C 319.167 28.328,318.922 28.750,318.624 28.750 C 318.325 28.750,318.400 29.346,318.790 30.075 C 319.289 31.007,319.295 31.275,318.812 30.976 C 318.406 30.725,318.125 31.029,318.125 31.717 C 318.125 32.399,317.459 33.129,316.524 33.473 L 314.922 34.063 316.277 34.890 C 317.021 35.345,317.444 35.415,317.216 35.046 C 316.984 34.671,317.260 34.375,317.842 34.375 C 318.495 34.375,318.754 34.713,318.536 35.281 C 318.295 35.910,318.489 36.071,319.172 35.809 C 320.013 35.486,319.996 35.674,319.056 37.110 C 317.825 38.988,318.131 39.769,319.817 39.055 C 320.433 38.794,322.344 38.583,324.063 38.586 C 325.781 38.590,327.469 38.425,327.813 38.220 C 329.089 37.459,329.896 37.660,330.198 38.814 C 330.425 39.682,330.178 40.000,329.280 40.000 C 328.478 40.000,328.205 39.728,328.492 39.219 C 328.845 38.594,328.765 38.594,328.092 39.219 C 327.427 39.836,327.411 40.161,328.017 40.767 C 328.902 41.652,331.051 40.614,330.781 39.433 C 330.580 38.555,331.673 38.543,332.214 39.418 C 332.441 39.785,333.068 39.916,333.607 39.709 C 334.970 39.186,335.748 40.700,334.713 41.861 C 333.989 42.671,333.456 45.364,333.684 47.053 C 333.720 47.323,334.346 47.225,335.075 46.835 C 336.004 46.337,336.274 46.331,335.977 46.812 C 335.707 47.247,336.079 47.441,336.995 47.343 C 337.918 47.243,338.376 47.486,338.266 48.015 C 338.171 48.470,338.395 48.657,338.762 48.430 C 339.129 48.203,339.836 48.354,340.332 48.766 C 341.528 49.758,344.256 49.035,345.606 47.368 C 346.880 45.796,347.856 46.229,348.303 48.566 C 348.536 49.790,348.202 50.783,347.127 52.061 C 344.750 54.885,347.180 58.028,349.752 55.456 C 350.248 54.960,351.859 55.586,353.678 56.981 C 354.498 57.610,355.781 58.125,356.529 58.125 C 358.899 58.125,360.632 60.295,360.006 62.479 C 359.395 64.609,360.088 65.384,362.344 65.092 C 363.402 64.956,363.750 65.226,363.750 66.186 C 363.750 67.520,365.350 67.400,366.465 65.983 C 366.779 65.585,366.843 65.775,366.623 66.453 C 366.074 68.148,370.100 71.250,372.850 71.250 C 373.421 71.250,375.155 72.536,376.704 74.107 C 378.253 75.678,380.073 77.005,380.749 77.056 C 381.425 77.107,382.279 77.720,382.647 78.418 C 383.015 79.116,384.296 80.619,385.494 81.758 C 387.121 83.305,387.492 84.008,386.961 84.539 C 386.042 85.458,386.048 87.301,386.972 87.872 C 387.455 88.171,387.528 88.029,387.192 87.440 C 386.787 86.730,386.852 86.712,387.533 87.344 C 387.996 87.773,389.306 88.125,390.444 88.125 C 391.726 88.125,392.912 88.591,393.563 89.352 C 394.343 90.264,394.823 90.406,395.426 89.906 C 396.041 89.395,396.372 89.589,396.795 90.710 C 397.522 92.633,397.174 93.125,395.088 93.125 C 392.998 93.125,391.875 94.151,391.875 96.063 C 391.875 97.672,392.784 97.858,395.428 96.789 C 396.396 96.398,397.822 96.113,398.598 96.157 L 400.008 96.237 399.848 48.275 L 399.688 0.313 350.820 0.152 C 323.944 0.064,301.845 0.205,301.712 0.465 M102.500 6.855 C 102.500 7.188,102.922 7.299,103.438 7.101 C 103.953 6.903,104.375 7.061,104.375 7.453 C 104.375 8.455,102.316 9.137,102.015 8.234 C 101.879 7.826,101.514 7.649,101.204 7.841 C 100.893 8.033,100.807 7.753,101.012 7.220 C 101.420 6.155,102.500 5.891,102.500 6.855 M292.588 10.787 C 291.488 11.887,291.740 12.998,293.195 13.460 C 295.373 14.151,296.502 12.439,294.731 11.131 C 293.660 10.340,293.122 10.253,292.588 10.787 M96.496 12.864 C 97.026 14.245,96.972 14.508,96.249 14.062 C 95.904 13.849,95.349 14.395,95.014 15.275 C 94.334 17.064,92.834 17.397,92.254 15.886 C 91.716 14.483,91.690 14.515,93.714 14.070 C 94.967 13.795,95.444 13.381,95.210 12.771 C 95.021 12.278,95.148 11.875,95.491 11.875 C 95.835 11.875,96.287 12.320,96.496 12.864 M97.500 24.635 C 97.500 25.180,97.945 25.625,98.490 25.625 C 99.034 25.625,99.368 25.291,99.232 24.883 C 98.845 23.724,97.500 23.532,97.500 24.635 M208.601 32.506 C 208.035 33.413,207.667 33.523,207.016 32.983 C 206.113 32.233,203.448 33.454,200.976 35.750 C 199.512 37.109,198.283 37.253,199.375 35.938 C 200.002 35.182,199.987 35.002,199.295 35.010 C 197.974 35.024,197.188 35.817,197.188 37.135 C 197.188 39.612,194.013 38.098,191.982 34.653 C 191.288 33.476,191.226 33.487,190.046 34.996 C 188.961 36.383,188.782 36.435,188.409 35.465 C 188.179 34.865,187.729 34.375,187.408 34.375 C 187.087 34.375,186.062 33.815,185.131 33.131 C 183.247 31.748,180.020 32.120,179.470 33.784 C 179.217 34.549,179.346 34.544,180.311 33.750 C 181.383 32.868,181.400 32.894,180.591 34.194 C 179.773 35.507,179.670 35.522,178.508 34.506 C 177.835 33.918,177.491 33.789,177.742 34.219 C 178.344 35.248,176.144 35.269,175.118 34.243 C 173.935 33.060,162.797 33.412,160.839 34.694 C 159.981 35.257,158.402 35.621,157.301 35.511 C 155.686 35.350,155.312 35.539,155.310 36.517 C 155.308 37.706,152.086 39.577,151.094 38.965 C 150.836 38.806,150.625 39.223,150.625 39.891 C 150.625 41.938,147.916 43.309,146.944 41.754 C 146.444 40.953,145.728 40.616,144.956 40.818 C 143.754 41.132,143.360 40.599,144.185 39.774 C 146.294 37.664,144.513 37.143,142.289 39.219 C 140.528 40.862,140.462 40.876,140.790 39.531 C 140.979 38.758,140.878 38.125,140.566 38.125 C 139.297 38.125,140.065 40.963,141.516 41.636 C 142.802 42.232,142.972 42.186,142.677 41.323 C 142.435 40.615,142.617 40.679,143.284 41.536 C 143.808 42.209,144.079 43.170,143.887 43.670 C 143.638 44.317,143.794 44.434,144.425 44.073 C 145.162 43.653,145.173 43.715,144.492 44.440 C 143.793 45.183,143.581 45.151,143.055 44.219 C 141.818 42.026,137.505 43.046,137.490 45.536 C 137.475 48.283,136.559 49.223,135.145 47.944 C 134.496 47.356,133.227 46.875,132.326 46.875 C 131.424 46.875,130.447 46.446,130.154 45.923 C 129.704 45.118,129.391 45.215,128.139 46.548 C 127.324 47.415,126.134 48.125,125.494 48.125 C 124.538 48.125,124.446 48.340,124.978 49.334 C 125.877 51.014,125.868 51.025,123.594 51.033 C 118.968 51.049,113.492 53.096,110.463 55.941 C 109.515 56.832,107.898 57.667,106.870 57.797 C 105.052 58.027,104.362 57.343,105.625 56.563 C 105.969 56.350,106.239 55.701,106.225 55.119 C 106.208 54.414,105.882 54.648,105.246 55.823 C 104.262 57.637,102.500 57.270,102.500 55.252 C 102.500 54.072,98.828 54.815,97.147 56.334 C 96.438 56.975,95.515 57.500,95.096 57.500 C 94.678 57.500,94.185 57.894,94.000 58.376 C 93.505 59.666,91.636 59.953,90.263 58.949 C 89.603 58.466,89.133 57.943,89.219 57.786 C 89.305 57.629,89.164 57.570,88.906 57.656 C 88.648 57.742,88.471 58.129,88.511 58.516 C 88.599 59.348,85.758 59.471,85.255 58.656 C 85.063 58.347,83.808 58.964,82.465 60.028 C 81.121 61.092,79.708 61.768,79.324 61.531 C 78.834 61.228,78.796 61.448,79.198 62.268 C 80.018 63.943,79.849 64.828,78.524 65.797 C 77.512 66.537,77.478 66.763,78.262 67.548 C 78.758 68.043,79.060 68.757,78.934 69.135 C 78.792 69.561,79.602 69.791,81.072 69.743 C 82.748 69.687,83.382 69.409,83.246 68.789 C 83.088 68.066,83.224 68.054,84.027 68.721 C 84.856 69.408,85.000 69.331,85.000 68.202 C 85.000 67.472,85.298 66.875,85.662 66.875 C 86.026 66.875,86.170 66.626,85.981 66.321 C 85.532 65.595,87.531 65.088,88.921 65.575 C 90.074 65.980,88.837 68.750,87.505 68.750 C 86.598 68.750,81.250 73.879,81.250 74.748 C 81.250 75.191,80.617 75.997,79.844 76.539 C 79.070 77.081,78.578 77.650,78.750 77.804 C 78.922 77.958,78.633 78.586,78.109 79.198 C 77.584 79.811,77.064 80.594,76.953 80.938 C 76.842 81.281,76.438 82.125,76.056 82.813 C 75.673 83.500,75.429 84.303,75.514 84.597 C 75.599 84.891,75.374 85.487,75.013 85.921 C 74.316 86.761,74.407 88.555,75.211 89.844 C 75.479 90.273,75.440 90.625,75.123 90.625 C 74.806 90.625,74.661 91.398,74.800 92.344 C 74.940 93.289,75.171 95.437,75.314 97.118 C 75.592 100.378,76.509 101.632,79.898 103.385 C 80.980 103.944,81.835 104.607,81.796 104.857 C 81.578 106.288,82.131 107.440,84.074 109.596 C 85.267 110.921,86.093 112.249,85.909 112.547 C 85.585 113.070,86.943 113.555,89.816 113.944 C 90.574 114.047,91.721 114.608,92.365 115.190 C 93.009 115.773,94.036 116.250,94.647 116.250 C 95.395 116.250,95.637 116.567,95.387 117.220 C 95.173 117.776,95.278 118.027,95.632 117.808 C 95.972 117.598,96.270 117.794,96.295 118.244 C 96.389 119.954,100.499 122.545,104.028 123.119 C 105.944 123.431,108.705 124.428,110.162 125.334 C 111.620 126.240,113.584 127.449,114.527 128.022 C 115.470 128.594,116.151 129.340,116.040 129.679 C 115.758 130.545,110.366 131.400,110.104 130.620 C 109.749 129.564,107.577 129.938,106.919 131.168 C 106.087 132.722,106.615 133.125,109.479 133.125 C 110.974 133.125,111.879 133.419,111.885 133.906 C 111.912 136.117,113.012 136.451,114.514 134.704 C 116.092 132.870,118.242 133.168,119.562 135.404 C 120.180 136.450,121.906 136.478,125.182 135.497 C 127.513 134.798,127.764 134.844,128.612 136.122 C 129.116 136.880,129.915 137.500,130.389 137.500 C 130.891 137.500,131.250 138.152,131.250 139.063 C 131.250 140.208,131.583 140.625,132.500 140.625 C 133.405 140.625,133.750 141.042,133.750 142.135 C 133.750 142.991,134.536 144.386,135.567 145.359 C 136.567 146.302,137.240 147.451,137.063 147.912 C 136.883 148.381,137.150 148.750,137.669 148.750 C 138.179 148.750,138.947 149.172,139.375 149.688 C 140.012 150.455,139.970 150.625,139.139 150.625 C 137.174 150.625,138.631 157.785,140.707 158.328 C 141.348 158.495,142.106 159.266,142.393 160.041 L 142.914 161.450 143.957 159.961 L 145.000 158.472 145.000 160.233 C 145.000 161.202,144.481 162.741,143.846 163.654 C 140.086 169.057,141.993 173.204,146.799 170.075 C 147.526 169.602,147.509 169.210,146.694 167.575 C 145.085 164.350,146.667 164.673,150.680 168.388 C 152.752 170.306,154.852 171.875,155.348 171.875 C 155.844 171.875,156.250 172.088,156.250 172.347 C 156.250 172.607,157.105 173.198,158.149 173.661 C 160.346 174.633,159.735 176.260,157.340 175.815 C 156.439 175.647,155.683 175.971,155.225 176.721 C 154.583 177.772,154.693 177.862,156.320 177.623 C 157.357 177.471,158.793 177.794,159.689 178.381 C 160.970 179.221,161.250 179.245,161.250 178.519 C 161.250 178.032,160.781 177.454,160.208 177.234 C 159.426 176.934,159.344 176.656,159.881 176.119 C 161.073 174.927,163.270 177.312,162.428 178.884 C 161.876 179.916,161.954 180.074,162.917 179.877 C 163.610 179.735,163.987 179.205,163.871 178.536 C 163.701 177.559,163.830 177.580,164.964 178.714 C 165.671 179.421,166.250 180.161,166.250 180.357 C 166.250 180.554,166.674 181.139,167.193 181.658 C 167.712 182.176,167.977 182.859,167.781 183.175 C 167.586 183.491,167.736 183.750,168.116 183.750 C 168.495 183.750,168.722 183.282,168.621 182.709 C 168.487 181.951,168.989 181.603,170.469 181.425 C 171.632 181.285,172.500 181.463,172.500 181.840 C 172.500 182.729,174.834 182.686,175.132 181.791 C 175.287 181.326,175.719 181.433,176.387 182.101 C 178.073 183.788,180.639 184.557,180.232 183.254 C 179.928 182.285,179.981 182.289,180.807 183.292 C 181.377 183.985,182.123 184.241,182.806 183.978 C 183.775 183.607,183.731 183.461,182.417 182.674 C 181.448 182.094,181.345 181.916,182.120 182.159 C 183.074 182.457,183.163 182.361,182.581 181.660 C 181.023 179.783,183.498 179.091,185.414 180.867 C 186.659 182.022,187.266 182.253,187.608 181.701 C 188.234 180.688,193.268 180.371,205.417 180.578 C 207.193 180.608,209.387 180.352,210.291 180.008 C 211.620 179.503,212.184 179.614,213.227 180.586 C 214.144 181.440,214.906 181.648,215.853 181.303 C 219.059 180.136,223.110 181.625,223.144 183.983 C 223.162 185.241,223.200 185.250,223.842 184.144 C 224.356 183.259,224.314 182.843,223.666 182.426 C 222.955 181.967,222.969 181.773,223.750 181.260 C 224.377 180.848,224.429 180.641,223.906 180.635 C 223.477 180.629,223.125 180.203,223.125 179.688 C 223.125 179.172,222.703 178.750,222.188 178.750 C 221.672 178.750,221.250 178.469,221.250 178.125 C 221.250 177.365,221.102 177.365,223.722 178.117 C 225.171 178.533,226.003 178.525,226.270 178.093 C 226.540 177.656,227.226 177.664,228.420 178.118 C 229.384 178.485,230.345 178.598,230.555 178.369 C 230.766 178.141,230.586 177.828,230.156 177.675 C 228.328 177.022,235.001 172.500,237.793 172.500 C 238.176 172.500,239.732 171.234,241.250 169.688 C 242.768 168.141,244.514 166.875,245.130 166.875 C 245.746 166.875,246.250 166.620,246.250 166.308 C 246.250 165.996,247.747 165.271,249.576 164.695 C 253.810 163.363,253.803 163.369,255.623 159.875 C 256.464 158.259,257.335 157.234,257.559 157.596 C 258.224 158.672,260.628 157.007,261.605 154.793 C 262.701 152.310,264.008 150.625,264.840 150.625 C 265.744 150.625,266.269 148.210,265.472 147.718 C 265.042 147.452,265.139 147.069,265.749 146.623 C 266.264 146.246,266.708 145.722,266.733 145.458 C 266.958 143.162,267.755 141.250,268.487 141.250 C 268.975 141.250,269.375 140.877,269.375 140.421 C 269.375 139.966,270.060 138.949,270.898 138.162 C 272.040 137.089,272.371 136.212,272.220 134.657 C 272.070 133.106,272.400 132.225,273.528 131.165 C 274.358 130.385,274.907 129.409,274.748 128.995 C 274.589 128.581,275.019 127.736,275.703 127.117 C 276.508 126.388,276.827 125.519,276.608 124.646 C 276.392 123.784,276.701 122.910,277.469 122.215 C 278.472 121.308,278.553 120.877,277.964 119.583 C 277.408 118.364,277.441 117.923,278.120 117.503 C 278.843 117.056,278.847 116.807,278.143 115.959 C 277.507 115.192,277.478 114.772,278.026 114.224 C 278.424 113.826,278.750 113.164,278.750 112.753 C 278.750 110.942,282.245 104.385,283.213 104.380 C 284.081 104.376,284.519 103.585,285.292 100.625 C 285.337 100.453,285.569 99.747,285.807 99.055 C 288.723 90.586,286.519 74.379,281.855 70.000 C 280.609 68.830,277.498 63.953,277.490 63.158 C 277.483 62.406,277.364 62.371,276.965 63.001 C 276.582 63.605,276.035 63.281,274.851 61.751 C 273.973 60.616,272.382 58.723,271.315 57.544 C 269.318 55.337,268.851 53.274,270.071 52.054 C 270.823 51.302,270.243 49.776,269.403 50.295 C 269.122 50.469,268.544 50.192,268.119 49.681 C 267.126 48.484,265.687 48.487,265.226 49.688 C 264.734 50.971,262.912 50.866,261.659 49.482 C 260.519 48.221,260.269 46.250,261.250 46.250 C 261.594 46.250,261.875 45.837,261.875 45.332 C 261.875 44.773,261.509 44.555,260.938 44.774 C 260.422 44.972,260.000 45.641,260.000 46.262 C 260.000 47.544,258.308 47.558,257.520 46.282 C 257.242 45.833,256.702 45.658,256.320 45.894 C 255.938 46.131,255.625 46.007,255.625 45.620 C 255.625 45.233,255.133 45.069,254.531 45.256 C 253.055 45.716,252.086 45.011,251.280 42.892 C 250.850 41.761,250.289 41.245,249.723 41.462 C 247.270 42.404,244.375 42.608,244.375 41.840 C 244.375 41.401,244.190 41.227,243.964 41.453 C 243.738 41.679,243.175 41.551,242.714 41.168 C 242.252 40.785,241.875 40.635,241.875 40.833 C 241.875 41.032,240.680 40.770,239.219 40.250 C 237.758 39.731,234.376 39.194,231.704 39.057 C 228.423 38.890,226.531 38.495,225.878 37.842 C 224.892 36.856,221.875 36.487,221.875 37.352 C 221.875 38.664,219.051 39.040,218.414 37.813 C 217.968 36.952,217.092 36.543,215.602 36.501 C 212.200 36.404,212.047 36.333,212.036 34.844 C 212.015 31.928,211.842 31.514,210.607 31.420 C 209.909 31.368,209.007 31.856,208.601 32.506 M210.849 36.833 C 210.308 37.432,209.268 35.679,209.725 34.940 C 210.087 34.353,210.330 34.461,210.654 35.354 C 210.896 36.019,210.983 36.684,210.849 36.833 M58.219 44.344 C 58.356 44.756,58.673 45.073,58.922 45.047 C 59.669 44.970,59.524 44.112,58.719 43.844 C 58.306 43.706,58.081 43.931,58.219 44.344 M60.168 46.771 C 59.058 47.457,60.155 48.636,61.467 48.167 C 62.428 47.823,62.477 47.634,61.758 47.038 C 61.284 46.644,60.568 46.524,60.168 46.771 M331.875 48.141 C 331.875 48.516,332.156 48.650,332.500 48.438 C 332.844 48.225,333.125 48.289,333.125 48.580 C 333.125 48.871,333.706 49.153,334.415 49.206 C 335.125 49.260,335.601 48.989,335.473 48.606 C 335.165 47.683,331.875 47.258,331.875 48.141 M333.413 50.585 C 333.843 51.280,336.250 51.201,336.250 50.492 C 336.250 50.221,335.530 50.000,334.651 50.000 C 333.771 50.000,333.214 50.263,333.413 50.585 M72.656 65.880 C 71.009 67.618,70.903 68.125,72.188 68.125 C 72.703 68.125,73.125 67.827,73.125 67.463 C 73.125 67.099,73.406 66.975,73.750 67.188 C 74.104 67.407,74.375 66.881,74.375 65.974 C 74.375 64.037,74.402 64.038,72.656 65.880 M91.456 65.365 C 91.247 65.909,90.901 66.120,90.687 65.834 C 90.473 65.547,90.043 65.102,89.732 64.844 C 89.421 64.586,89.767 64.375,90.501 64.375 C 91.462 64.375,91.729 64.652,91.456 65.365 M282.614 113.729 C 281.618 114.772,280.481 115.625,280.089 115.625 C 279.136 115.625,279.179 116.679,280.156 117.289 C 281.619 118.202,283.284 118.191,282.931 117.272 C 282.730 116.748,282.983 116.436,283.570 116.484 C 284.104 116.527,284.617 116.141,284.710 115.625 C 284.803 115.109,285.066 114.224,285.295 113.657 C 286.057 111.766,284.449 111.809,282.614 113.729 M32.500 124.688 C 31.826 126.460,32.060 127.188,33.303 127.188 C 34.473 127.188,34.627 131.817,33.472 132.261 C 31.579 132.987,30.529 131.374,31.577 129.348 C 32.082 128.370,32.265 127.429,31.984 127.255 C 31.088 126.701,29.681 129.002,29.877 130.700 C 30.012 131.858,29.498 132.906,28.117 134.286 C 27.045 135.359,26.363 136.552,26.601 136.938 C 26.840 137.324,26.648 137.885,26.174 138.185 C 25.515 138.602,25.607 138.735,26.563 138.750 C 27.539 138.765,27.620 138.891,26.932 139.327 C 26.447 139.633,25.674 139.740,25.213 139.563 C 24.752 139.386,24.353 139.623,24.327 140.089 C 24.301 140.556,24.179 141.500,24.057 142.188 C 23.875 143.214,24.087 143.125,25.248 141.687 C 26.685 139.905,30.244 138.878,30.961 140.038 C 31.165 140.367,30.754 141.371,30.049 142.267 C 29.344 143.163,28.947 144.189,29.168 144.545 C 29.405 144.929,29.263 145.004,28.819 144.730 C 28.407 144.476,27.607 144.643,27.040 145.102 C 26.306 145.698,26.145 145.713,26.479 145.156 C 27.147 144.044,25.902 144.188,24.732 145.357 C 24.192 145.897,23.750 146.038,23.750 145.670 C 23.750 145.301,23.328 145.000,22.813 145.000 C 22.297 145.000,21.875 145.281,21.875 145.625 C 21.875 145.969,22.156 146.250,22.500 146.250 C 22.844 146.250,23.125 146.813,23.125 147.500 C 23.125 148.188,22.827 148.750,22.463 148.750 C 22.099 148.750,21.963 149.012,22.161 149.332 C 22.359 149.652,22.235 150.090,21.885 150.306 C 21.536 150.522,21.250 150.366,21.250 149.960 C 21.250 149.408,21.016 149.416,20.319 149.994 C 19.808 150.419,19.543 151.016,19.731 151.321 C 19.920 151.626,19.810 151.875,19.488 151.875 C 18.360 151.875,17.330 155.623,17.705 158.361 C 18.033 160.755,17.875 161.256,16.315 162.750 C 14.820 164.182,13.023 168.115,12.859 170.313 C 12.766 171.561,11.557 171.264,11.352 169.943 C 11.165 168.738,11.782 167.046,13.949 162.813 C 14.600 161.540,14.778 160.611,15.321 155.625 C 15.584 153.210,15.525 153.011,14.906 154.219 C 14.040 155.905,13.225 156.020,12.700 154.531 C 12.487 153.930,11.827 152.875,11.231 152.188 C 10.636 151.500,9.958 149.602,9.724 147.969 C 9.490 146.336,9.082 145.000,8.817 145.000 C 8.553 145.000,7.962 144.302,7.506 143.448 C 6.313 141.219,4.391 140.781,3.054 142.433 L 1.967 143.775 1.540 142.430 C 0.301 138.525,0.046 146.233,0.173 183.750 L 0.313 224.688 48.750 224.860 C 96.421 225.029,100.423 224.940,99.676 223.732 C 99.470 223.398,99.619 223.125,100.007 223.125 C 101.264 223.125,100.356 220.365,98.854 219.619 C 95.825 218.115,95.834 217.641,98.949 214.699 C 102.392 211.446,102.147 209.445,98.287 209.297 C 97.167 209.254,95.368 209.184,94.290 209.141 C 92.856 209.083,92.188 208.677,91.799 207.625 C 91.459 206.707,91.490 206.325,91.883 206.568 C 92.223 206.777,92.500 206.677,92.500 206.345 C 92.500 206.014,93.001 205.873,93.612 206.033 C 95.240 206.459,98.295 205.156,97.748 204.270 C 97.443 203.777,97.635 203.668,98.335 203.937 C 99.092 204.227,99.375 203.995,99.375 203.083 C 99.375 202.039,99.174 201.938,98.166 202.478 C 96.306 203.473,95.943 203.276,95.870 201.233 C 95.787 198.907,95.586 198.697,93.267 198.520 C 91.625 198.395,89.292 196.869,89.353 195.960 C 89.426 194.863,89.291 194.788,88.750 195.625 C 88.232 196.426,88.143 196.403,88.135 195.469 C 88.129 194.867,87.703 194.375,87.188 194.375 C 86.672 194.375,86.250 194.127,86.250 193.823 C 86.250 193.519,85.665 193.118,84.951 192.931 C 83.432 192.534,83.469 189.945,85.000 189.533 C 85.833 189.308,85.833 189.354,85.000 189.943 C 84.167 190.532,84.167 190.608,85.000 190.625 C 85.833 190.642,85.833 190.711,85.000 191.250 C 84.074 191.849,84.789 192.204,86.406 191.949 C 86.664 191.908,86.805 192.214,86.719 192.628 C 86.633 193.042,86.844 193.398,87.188 193.419 C 87.531 193.440,88.164 193.680,88.594 193.953 C 89.530 194.547,89.527 194.584,88.778 191.973 C 88.233 190.073,88.684 188.191,90.000 186.875 C 91.078 185.797,90.241 184.673,88.249 184.524 C 87.048 184.435,85.662 183.872,85.169 183.274 C 84.324 182.249,84.294 182.253,84.637 183.333 C 84.877 184.091,84.736 184.382,84.219 184.193 C 83.789 184.035,83.508 183.590,83.594 183.203 C 83.680 182.816,83.469 182.500,83.125 182.500 C 82.316 182.500,82.316 183.563,83.125 184.063 C 83.469 184.275,83.750 184.683,83.750 184.970 C 83.750 185.828,81.949 186.250,81.486 185.501 C 81.225 185.080,81.342 184.983,81.781 185.255 C 82.180 185.501,81.801 184.376,80.939 182.755 C 79.383 179.829,79.381 179.801,80.623 178.931 C 82.775 177.424,82.118 176.565,78.793 176.536 C 77.099 176.522,75.814 176.676,75.940 176.879 C 76.065 177.081,75.909 177.656,75.593 178.155 C 75.056 179.004,74.664 177.822,74.918 176.116 C 74.955 175.871,74.524 175.847,73.961 176.063 C 73.124 176.384,73.011 176.165,73.338 174.860 C 73.692 173.451,73.521 173.233,71.869 172.991 C 70.841 172.840,70.000 172.949,70.000 173.233 C 70.000 173.517,70.759 173.750,71.687 173.750 C 72.908 173.750,73.186 173.939,72.692 174.433 C 71.774 175.351,69.398 174.087,69.310 172.634 C 69.274 172.045,69.178 170.493,69.097 169.187 C 69.015 167.880,69.125 167.095,69.340 167.443 C 69.562 167.803,70.085 167.508,70.552 166.759 C 71.266 165.616,71.244 165.494,70.384 165.824 C 69.551 166.143,69.511 166.015,70.134 165.017 C 70.542 164.365,71.170 163.998,71.531 164.203 C 71.892 164.408,71.979 164.345,71.724 164.064 C 71.469 163.783,71.610 163.121,72.037 162.594 C 72.656 161.829,72.654 161.730,72.031 162.104 C 71.490 162.430,71.250 162.096,71.250 161.019 C 71.250 159.115,69.563 157.305,68.136 157.678 C 67.542 157.834,67.083 157.594,67.083 157.129 C 67.083 156.676,67.301 156.440,67.567 156.604 C 67.833 156.768,67.891 155.918,67.696 154.714 C 67.298 152.265,68.743 149.375,70.364 149.375 C 70.892 149.375,71.150 149.094,70.938 148.750 C 70.725 148.406,70.849 148.125,71.213 148.125 C 71.591 148.125,71.875 146.783,71.875 145.000 C 71.875 141.634,70.796 140.769,69.679 143.241 C 69.340 143.992,68.672 144.732,68.194 144.884 C 67.599 145.075,67.486 144.891,67.833 144.300 C 68.112 143.826,67.688 144.000,66.891 144.688 L 65.443 145.938 66.159 144.572 C 67.046 142.881,67.074 141.875,66.235 141.875 C 65.882 141.875,65.316 142.607,64.976 143.501 C 64.594 144.505,64.025 145.000,63.490 144.794 C 63.013 144.611,62.446 144.637,62.231 144.853 C 60.608 146.476,58.860 144.004,60.054 141.774 C 60.392 141.142,60.499 140.625,60.292 140.625 C 60.085 140.625,60.524 139.770,61.268 138.724 C 62.872 136.472,64.365 137.103,63.926 139.848 C 63.712 141.189,63.797 141.358,64.316 140.625 C 64.682 140.109,64.985 139.055,64.990 138.281 C 65.002 136.638,62.410 133.706,62.010 134.909 C 61.808 135.513,61.532 135.509,60.720 134.890 C 60.152 134.458,59.869 134.322,60.090 134.590 C 60.311 134.857,59.822 135.746,59.003 136.566 C 58.183 137.385,57.663 138.448,57.847 138.928 C 58.031 139.407,57.752 140.157,57.226 140.593 C 56.421 141.261,56.173 141.130,55.651 139.755 C 55.310 138.859,54.743 138.125,54.390 138.125 C 54.038 138.125,53.783 137.914,53.824 137.656 C 54.157 135.546,50.913 133.385,48.370 134.024 C 46.955 134.379,46.053 137.500,47.366 137.500 C 47.636 137.500,47.857 138.063,47.857 138.750 C 47.857 139.438,47.496 140.000,47.054 140.000 C 46.612 140.000,46.250 140.422,46.250 140.938 C 46.250 141.453,45.978 141.875,45.645 141.875 C 45.312 141.875,45.202 142.300,45.402 142.820 C 45.651 143.470,46.407 143.693,47.830 143.536 C 49.629 143.338,49.871 143.479,49.709 144.623 C 49.418 146.667,48.057 150.000,47.512 150.000 C 47.242 150.000,46.850 150.633,46.641 151.406 C 46.269 152.784,46.242 152.776,45.321 151.029 C 44.805 150.048,44.506 149.044,44.658 148.797 C 45.840 146.885,45.444 145.192,43.855 145.366 C 42.945 145.466,41.705 145.100,41.100 144.552 C 40.495 144.004,40.000 143.780,40.000 144.053 C 40.000 144.326,40.440 144.871,40.978 145.265 C 41.849 145.901,41.806 146.169,40.590 147.714 C 39.835 148.674,39.200 150.410,39.168 151.600 C 39.109 153.830,38.924 154.044,37.725 153.272 C 36.687 152.603,37.188 145.345,38.391 143.627 C 38.932 142.854,39.375 141.497,39.375 140.611 C 39.375 139.725,39.712 138.663,40.125 138.250 C 40.675 137.700,40.682 137.500,40.154 137.500 C 39.685 137.500,39.806 136.840,40.498 135.613 C 41.387 134.037,41.421 133.637,40.701 133.183 C 39.751 132.584,40.268 131.244,41.443 131.260 C 41.890 131.265,41.813 131.511,41.250 131.875 C 40.594 132.299,40.553 132.484,41.113 132.490 C 41.554 132.496,42.075 132.080,42.273 131.566 C 42.470 131.052,42.919 130.810,43.272 131.028 C 43.629 131.249,43.782 131.040,43.617 130.556 C 43.449 130.063,42.709 129.777,41.905 129.895 C 40.913 130.040,40.631 129.872,40.962 129.335 C 41.312 128.769,41.003 128.677,39.781 128.983 C 38.801 129.229,38.125 129.139,38.125 128.762 C 38.125 128.412,37.687 128.125,37.151 128.125 C 36.615 128.125,36.350 127.844,36.563 127.500 C 36.775 127.156,36.651 126.875,36.287 126.875 C 35.923 126.875,35.625 126.453,35.625 125.938 C 35.625 125.422,35.286 125.070,34.872 125.156 C 34.458 125.242,34.107 124.984,34.091 124.583 C 34.029 122.989,33.123 123.048,32.500 124.688 M0.625 127.376 C 0.625 128.337,0.902 128.604,1.615 128.331 C 2.159 128.122,2.370 127.776,2.084 127.562 C 1.797 127.348,1.352 126.918,1.094 126.607 C 0.836 126.296,0.625 126.642,0.625 127.376 M105.134 129.526 C 104.756 129.982,104.666 130.710,104.935 131.144 C 105.314 131.758,105.606 131.713,106.247 130.941 C 106.797 130.278,106.864 129.739,106.447 129.322 C 106.030 128.905,105.593 128.973,105.134 129.526 M10.354 131.034 C 10.452 131.927,10.787 132.912,11.098 133.223 C 11.436 133.561,11.552 133.023,11.385 131.887 C 11.042 129.550,10.106 128.776,10.354 131.034 M101.406 131.269 C 100.082 131.802,99.445 132.588,100.469 132.426 C 101.881 132.203,103.149 132.581,102.813 133.125 C 102.600 133.469,102.694 133.750,103.022 133.750 C 103.350 133.750,103.577 133.047,103.528 132.188 C 103.428 130.467,103.416 130.462,101.406 131.269 M8.459 133.438 C 8.220 134.125,7.754 135.357,7.426 136.175 C 7.097 136.992,6.961 137.794,7.123 137.956 C 7.609 138.443,8.792 137.460,8.668 136.672 C 8.605 136.268,8.764 135.455,9.023 134.864 C 9.281 134.274,9.359 133.430,9.194 132.989 C 9.000 132.467,8.744 132.623,8.459 133.438 M29.356 136.391 C 27.788 137.661,27.280 137.551,27.850 136.066 C 28.076 135.476,28.626 135.231,29.217 135.458 C 29.871 135.709,30.052 135.590,29.753 135.106 C 29.505 134.704,29.522 134.023,29.792 133.594 C 30.143 133.036,30.352 133.161,30.524 134.031 C 30.667 134.757,30.195 135.712,29.356 136.391 M32.703 134.001 C 33.055 134.921,32.651 135.625,31.771 135.625 C 31.484 135.625,31.250 135.063,31.250 134.375 C 31.250 132.942,32.202 132.697,32.703 134.001 M95.201 134.614 C 92.451 135.581,92.186 136.031,94.460 135.873 C 96.250 135.750,98.076 134.703,97.458 134.156 C 97.309 134.024,96.294 134.230,95.201 134.614 M10.904 135.054 C 10.381 135.900,11.677 137.294,12.333 136.592 C 12.597 136.310,12.459 135.953,12.027 135.799 C 11.596 135.644,11.401 135.261,11.595 134.947 C 11.790 134.632,11.808 134.375,11.636 134.375 C 11.464 134.375,11.135 134.681,10.904 135.054 M36.479 138.125 C 36.253 138.641,36.050 139.534,36.026 140.110 C 36.002 140.687,35.784 141.036,35.541 140.886 C 35.299 140.736,34.609 141.105,34.007 141.707 C 32.966 142.748,32.934 142.720,33.334 141.126 C 33.565 140.205,33.475 139.279,33.134 139.068 C 32.149 138.459,33.873 137.016,35.474 137.107 C 36.482 137.164,36.770 137.457,36.479 138.125 M27.375 142.445 C 27.120 144.179,27.199 144.319,27.984 143.534 C 28.626 142.891,28.711 142.319,28.276 141.543 C 27.763 140.625,27.621 140.767,27.375 142.445 M35.625 144.688 C 35.625 146.660,35.368 147.500,34.764 147.500 C 33.568 147.500,32.263 149.155,33.067 149.652 C 33.413 149.865,33.538 150.451,33.345 150.954 C 33.152 151.457,32.712 151.694,32.368 151.481 C 31.983 151.243,32.068 150.887,32.590 150.556 C 33.213 150.161,33.231 150.017,32.656 150.010 C 31.566 149.996,31.681 148.408,32.857 147.232 C 33.397 146.692,33.547 146.250,33.189 146.250 C 32.181 146.250,34.246 142.335,35.469 141.927 C 35.555 141.898,35.625 143.141,35.625 144.688 M115.198 145.559 C 115.005 146.297,114.348 146.875,113.702 146.875 C 113.068 146.875,112.261 147.227,111.909 147.656 C 108.934 151.287,108.216 152.383,108.577 152.744 C 109.314 153.481,109.288 155.000,108.538 155.010 C 108.131 155.015,108.224 155.279,108.750 155.612 C 109.266 155.938,109.700 156.566,109.716 157.008 C 109.732 157.451,110.083 157.742,110.497 157.656 C 111.211 157.508,111.535 158.686,111.284 160.522 C 111.216 161.026,111.620 161.259,112.304 161.111 C 112.927 160.976,114.582 161.342,115.981 161.925 C 117.380 162.507,119.701 162.927,121.137 162.857 C 122.574 162.788,123.750 162.960,123.750 163.240 C 123.750 163.521,124.031 163.750,124.375 163.750 C 124.719 163.750,125.000 163.328,125.000 162.813 C 125.000 162.297,125.295 161.875,125.655 161.875 C 126.015 161.875,126.964 161.115,127.763 160.185 L 129.216 158.496 130.936 160.342 C 131.882 161.357,132.330 161.725,131.931 161.160 C 131.361 160.351,131.425 159.915,132.232 159.108 C 134.654 156.685,132.539 153.072,124.837 146.476 C 122.422 144.408,115.667 143.765,115.198 145.559 M55.090 147.991 C 55.678 147.867,55.880 148.356,55.749 149.588 C 55.645 150.565,55.809 151.210,56.114 151.021 C 56.431 150.826,56.474 151.941,56.216 153.621 C 55.966 155.239,55.865 156.736,55.991 156.948 C 56.117 157.160,55.599 157.863,54.840 158.510 C 54.080 159.158,53.790 159.256,54.195 158.728 C 54.795 157.944,54.716 157.768,53.761 157.768 C 53.118 157.768,52.726 157.986,52.891 158.252 C 53.055 158.518,52.755 158.569,52.224 158.365 C 51.692 158.161,51.413 157.742,51.603 157.435 C 51.793 157.127,51.721 156.875,51.443 156.875 C 50.651 156.876,51.285 148.960,52.195 147.487 C 52.492 147.007,52.845 147.008,53.427 147.492 C 53.876 147.864,54.625 148.089,55.090 147.991 M69.107 150.982 C 68.567 151.522,68.147 152.436,68.174 153.013 C 68.215 153.870,68.287 153.891,68.568 153.125 C 68.758 152.609,69.342 151.695,69.866 151.094 C 71.051 149.734,70.445 149.645,69.107 150.982 M78.933 151.883 C 79.151 152.715,78.858 153.358,78.069 153.780 C 77.412 154.132,76.866 154.198,76.855 153.928 C 76.844 153.658,76.459 153.933,76.000 154.538 C 75.525 155.164,74.521 155.569,73.676 155.476 C 72.613 155.359,72.210 155.611,72.266 156.357 C 72.315 157.003,72.017 157.275,71.485 157.071 C 70.687 156.765,70.385 155.836,70.457 153.906 C 70.494 152.912,70.118 152.918,69.110 153.926 C 68.177 154.859,68.979 157.818,69.995 157.191 C 70.341 156.977,70.625 157.099,70.625 157.463 C 70.625 157.827,71.258 158.147,72.031 158.174 C 72.805 158.201,73.086 158.366,72.656 158.539 C 72.227 158.712,71.875 159.456,71.875 160.191 L 71.875 161.528 72.848 160.139 C 73.383 159.375,74.234 158.750,74.738 158.750 C 75.243 158.750,75.935 158.015,76.277 157.117 C 76.758 155.851,77.227 155.547,78.363 155.764 C 80.778 156.225,82.515 151.869,80.261 151.004 C 78.740 150.421,78.579 150.527,78.933 151.883 M83.465 154.331 C 83.145 154.849,84.643 155.810,85.938 155.918 C 86.281 155.947,86.914 156.191,87.344 156.460 C 87.773 156.729,88.125 156.703,88.125 156.403 C 88.125 155.599,83.855 153.700,83.465 154.331 M82.182 156.719 C 81.887 157.430,81.630 157.547,81.445 157.054 C 80.972 155.791,78.865 157.490,79.219 158.848 C 79.385 159.482,79.207 160.000,78.823 160.000 C 77.554 160.000,78.088 162.404,79.453 162.837 C 80.980 163.322,82.035 162.161,81.624 160.448 C 81.460 159.766,81.927 158.961,82.828 158.370 C 83.674 157.816,84.154 157.027,83.958 156.515 C 83.494 155.307,82.729 155.395,82.182 156.719 M81.049 161.540 C 80.930 161.896,80.458 162.188,80.000 162.188 C 79.542 162.188,79.070 161.896,78.951 161.540 C 78.832 161.184,79.304 160.893,80.000 160.893 C 80.696 160.893,81.168 161.184,81.049 161.540 M84.408 161.937 C 85.296 163.596,88.547 163.824,88.427 162.219 C 88.350 161.188,87.894 160.933,86.091 160.916 C 84.191 160.898,83.935 161.053,84.408 161.937 M81.724 164.893 C 81.068 165.703,81.093 165.776,81.875 165.332 C 82.394 165.037,82.595 165.038,82.326 165.335 C 81.775 165.939,80.364 166.332,78.249 166.469 C 77.208 166.537,76.890 166.864,77.097 167.656 C 77.417 168.879,75.881 169.206,75.479 168.000 C 75.326 167.540,75.068 167.672,74.809 168.345 C 74.549 169.023,74.634 169.289,75.032 169.043 C 75.617 168.681,75.451 170.392,74.649 172.983 C 74.462 173.590,74.697 173.622,75.639 173.117 C 76.319 172.754,76.897 172.536,76.923 172.634 C 76.949 172.732,77.070 173.341,77.192 173.988 C 77.643 176.385,81.272 176.000,81.240 173.558 C 81.235 173.108,80.991 173.184,80.625 173.750 C 80.103 174.558,80.018 174.541,80.010 173.629 C 79.995 171.994,82.406 170.556,83.753 171.397 C 84.619 171.938,85.215 171.796,86.572 170.729 C 87.519 169.984,87.999 169.375,87.639 169.375 C 87.279 169.375,86.795 168.250,86.563 166.875 C 86.330 165.500,85.954 164.339,85.726 164.295 C 83.619 163.889,82.388 164.073,81.724 164.893 M247.544 167.460 C 246.504 168.118,246.077 170.000,246.967 170.000 C 247.301 170.000,247.400 170.281,247.188 170.625 C 246.962 170.990,247.604 171.250,248.733 171.250 C 250.163 171.250,250.804 170.884,251.197 169.844 C 251.843 168.133,251.518 167.436,250.292 167.907 C 249.788 168.100,249.375 167.947,249.375 167.567 C 249.375 166.734,248.749 166.697,247.544 167.460 M250.337 168.950 C 251.129 167.890,251.164 167.909,250.834 169.219 C 250.638 169.993,249.997 170.625,249.406 170.625 C 247.977 170.625,247.508 170.080,247.949 168.933 C 248.262 168.117,248.391 168.131,248.899 169.038 C 249.442 170.010,249.549 170.003,250.337 168.950 M123.517 174.707 C 123.128 175.719,124.078 176.507,125.000 175.938 C 125.893 175.386,125.772 174.565,124.739 174.169 C 124.252 173.982,123.702 174.224,123.517 174.707 M235.000 175.389 C 235.000 176.220,234.830 176.262,234.063 175.625 C 233.279 174.975,233.125 175.065,233.125 176.173 C 233.125 177.083,233.518 177.500,234.375 177.500 C 235.292 177.500,235.625 177.083,235.625 175.938 C 235.625 175.078,235.484 174.375,235.313 174.375 C 235.141 174.375,235.000 174.831,235.000 175.389 M241.002 174.896 C 240.802 175.219,241.214 175.633,241.918 175.817 C 242.696 176.021,243.106 175.881,242.965 175.459 C 242.652 174.518,241.448 174.174,241.002 174.896 M190.444 183.125 C 190.695 184.084,190.463 184.375,189.448 184.375 C 188.720 184.375,188.125 184.094,188.125 183.750 C 188.125 183.406,187.844 183.125,187.500 183.125 C 187.156 183.125,186.875 183.563,186.875 184.099 C 186.875 184.635,187.106 184.931,187.389 184.756 C 187.671 184.582,188.592 184.797,189.436 185.235 C 190.280 185.673,191.385 185.894,191.891 185.726 C 192.693 185.461,192.690 185.577,191.875 186.617 C 191.006 187.726,191.018 187.749,192.046 186.942 C 192.656 186.464,193.299 186.216,193.475 186.391 C 193.650 186.567,194.675 185.888,195.751 184.882 L 197.708 183.054 198.511 184.965 C 199.626 187.615,201.312 187.534,201.017 184.844 C 200.754 182.447,196.677 181.707,195.179 183.784 C 194.101 185.276,191.028 184.665,191.453 183.042 C 191.636 182.340,191.431 181.875,190.938 181.875 C 190.425 181.875,190.240 182.344,190.444 183.125 M204.591 184.089 C 204.387 184.620,204.377 185.211,204.569 185.402 C 205.116 185.949,206.250 185.021,206.250 184.026 C 206.250 182.826,205.058 182.872,204.591 184.089 M80.966 184.912 C 80.320 186.944,82.176 187.795,83.696 186.164 C 84.981 184.784,85.000 184.783,85.000 186.059 C 85.000 187.330,83.543 188.097,81.094 188.116 C 79.993 188.125,79.475 185.108,80.417 184.167 C 81.144 183.439,81.346 183.713,80.966 184.912 M88.438 185.625 C 88.225 185.969,87.505 186.250,86.838 186.250 C 86.171 186.250,85.625 185.969,85.625 185.625 C 85.625 185.281,86.345 185.000,87.224 185.000 C 88.131 185.000,88.657 185.271,88.438 185.625 " stroke="none" fill="#000000" fill-rule="evenodd"></path></g></svg>