<svg id="svg" xmlns="http://www.w3.org/2000/svg" xmlns:xlink="http://www.w3.org/1999/xlink" width="400" height="225" viewBox="0, 0, 400,225"><g id="svgg"><path id="path0" d="M0.399 0.434 C -0.554 1.387,0.018 81.041,0.987 82.280 C 1.485 82.916,1.835 83.156,1.765 82.813 C 1.401 81.035,2.658 78.090,3.649 78.399 C 4.220 78.576,5.109 78.451,5.625 78.120 C 6.217 77.741,6.282 77.516,5.801 77.510 C 5.351 77.504,5.201 77.078,5.434 76.470 C 5.754 75.638,5.521 75.499,4.222 75.747 C 3.120 75.958,2.706 75.814,2.907 75.291 C 3.286 74.304,5.159 74.446,5.837 75.512 C 6.254 76.169,6.522 76.116,7.153 75.255 C 7.966 74.141,10.414 74.450,9.717 75.577 C 9.518 75.900,9.627 76.332,9.959 76.537 C 10.560 76.909,10.295 81.163,9.630 81.829 C 9.438 82.020,9.007 81.687,8.672 81.089 C 8.337 80.490,7.678 80.000,7.209 80.000 C 6.739 80.000,6.212 79.648,6.039 79.219 C 5.792 78.607,5.713 78.611,5.674 79.238 C 5.647 79.679,6.047 80.201,6.562 80.399 C 7.871 80.901,7.731 82.055,6.249 82.981 C 4.633 83.990,5.818 86.250,7.963 86.250 C 9.288 86.250,9.625 85.623,9.546 83.300 C 9.532 82.881,10.050 82.370,10.698 82.164 C 11.345 81.959,11.875 81.454,11.875 81.043 C 11.875 79.794,16.728 78.002,18.109 78.741 C 19.660 79.571,20.178 79.543,19.631 78.659 C 19.323 78.161,19.658 78.061,20.729 78.329 C 22.037 78.658,22.628 78.245,24.650 75.594 C 26.908 72.634,27.157 72.487,29.453 72.764 C 31.247 72.980,31.875 72.830,31.875 72.184 C 31.875 71.704,32.244 71.087,32.694 70.812 C 34.064 69.976,35.551 67.410,35.198 66.491 C 35.016 66.015,35.178 65.625,35.558 65.625 C 35.939 65.625,36.461 65.625,36.719 65.625 C 36.977 65.625,37.225 65.836,37.272 66.094 C 37.775 68.901,38.861 70.087,39.694 68.740 C 39.910 68.390,40.334 68.258,40.637 68.445 C 40.939 68.632,41.373 67.793,41.600 66.580 C 41.930 64.824,42.304 64.375,43.436 64.375 C 45.708 64.375,47.796 62.948,48.006 61.250 C 48.263 59.183,50.835 56.843,51.145 58.395 C 51.260 58.967,51.009 59.850,50.588 60.358 C 50.166 60.865,50.001 61.460,50.221 61.679 C 50.840 62.298,53.870 60.700,53.430 59.987 C 53.215 59.639,52.777 59.516,52.457 59.714 C 52.137 59.912,51.875 59.354,51.875 58.474 C 51.875 57.595,52.126 56.875,52.432 56.875 C 52.739 56.875,53.158 56.205,53.363 55.387 C 53.761 53.803,56.009 52.775,56.458 53.973 C 56.808 54.909,58.271 53.399,59.246 51.094 C 59.831 49.712,59.809 49.375,59.136 49.375 C 58.566 49.375,58.400 48.843,58.617 47.710 C 58.876 46.355,58.743 46.119,57.905 46.441 C 57.338 46.658,56.875 46.596,56.875 46.303 C 56.875 46.010,56.247 45.607,55.480 45.406 C 54.374 45.117,54.244 44.881,54.855 44.270 C 55.856 43.269,55.849 41.255,54.844 41.231 C 54.384 41.220,54.491 40.962,55.101 40.606 C 55.699 40.257,56.736 40.220,57.544 40.519 C 60.603 41.651,63.443 39.277,61.435 37.268 C 60.353 36.187,60.692 33.905,62.135 32.549 C 63.793 30.992,65.000 31.250,65.000 33.162 C 65.000 34.216,65.452 34.375,68.453 34.375 C 71.799 34.375,71.918 34.434,72.286 36.271 C 72.653 38.110,72.692 38.129,73.555 36.896 C 74.045 36.197,74.832 35.625,75.304 35.625 C 75.777 35.625,76.253 34.992,76.363 34.219 C 76.473 33.445,76.773 32.883,77.031 32.969 C 77.289 33.055,78.374 33.125,79.443 33.125 C 81.203 33.125,81.349 33.272,80.993 34.688 C 80.541 36.490,82.692 37.031,83.362 35.283 C 83.566 34.751,84.140 34.400,84.638 34.502 C 85.136 34.604,85.561 34.406,85.584 34.063 C 85.607 33.719,85.276 33.438,84.850 33.438 C 84.424 33.438,83.894 32.594,83.674 31.563 C 83.054 28.662,83.069 27.391,83.719 27.793 C 84.045 27.995,84.618 27.590,84.991 26.893 C 85.440 26.052,86.300 25.625,87.542 25.625 C 89.559 25.625,90.764 23.984,89.376 23.126 C 88.923 22.846,88.721 22.054,88.914 21.314 C 89.103 20.591,89.003 20.000,88.691 20.000 C 87.729 20.000,88.067 18.733,89.140 18.321 C 90.008 17.988,91.451 19.364,91.556 20.625 C 91.570 20.797,91.805 21.289,92.078 21.719 C 92.351 22.148,92.368 22.500,92.115 22.500 C 91.863 22.500,92.271 23.154,93.022 23.953 C 93.772 24.752,94.203 25.589,93.979 25.813 C 93.158 26.633,95.106 28.190,96.012 27.438 C 96.478 27.051,97.287 26.899,97.810 27.100 C 98.824 27.489,98.835 28.778,97.831 29.497 C 97.497 29.736,97.425 30.133,97.671 30.379 C 98.949 31.657,100.757 28.414,100.410 25.469 C 100.208 23.759,100.311 22.500,100.654 22.500 C 100.982 22.500,101.259 22.008,101.270 21.406 C 101.288 20.401,101.362 20.407,102.179 21.487 C 103.090 22.691,103.953 21.526,105.247 17.344 C 105.433 16.742,105.895 16.250,106.273 16.250 C 106.650 16.250,106.806 16.742,106.619 17.344 C 106.432 17.945,106.549 18.859,106.880 19.375 C 107.393 20.175,107.482 20.153,107.490 19.219 C 107.496 18.547,107.979 18.125,108.742 18.125 C 109.561 18.125,110.283 17.408,110.865 16.014 C 111.889 13.563,113.061 12.635,113.742 13.737 C 114.611 15.143,114.856 13.508,114.794 6.719 L 114.733 0.000 57.783 0.000 C 26.461 0.000,0.638 0.195,0.399 0.434 M284.709 0.590 C 284.523 0.891,284.543 1.584,284.752 2.131 C 284.969 2.697,284.813 3.125,284.390 3.125 C 283.981 3.125,283.770 3.477,283.921 3.906 C 284.072 4.336,283.986 5.256,283.730 5.950 C 283.300 7.119,283.549 7.226,287.101 7.398 C 291.586 7.614,292.209 8.039,291.532 10.423 C 290.114 15.411,291.397 20.779,293.680 19.413 C 294.392 18.988,294.793 21.043,294.320 22.691 C 293.749 24.683,294.460 26.250,295.936 26.250 C 296.366 26.250,296.887 27.094,297.094 28.125 C 297.443 29.869,297.662 30.000,300.230 30.000 C 302.108 30.000,303.106 30.300,303.351 30.938 C 303.773 32.036,307.280 32.222,307.633 31.165 C 307.763 30.774,309.004 30.414,310.391 30.364 C 312.886 30.274,312.906 30.292,312.272 31.971 C 311.920 32.905,311.475 33.654,311.285 33.635 C 310.143 33.525,309.806 33.844,310.560 34.322 C 311.263 34.767,311.110 35.196,309.779 36.528 C 308.869 37.438,308.125 38.467,308.125 38.815 C 308.125 39.164,307.773 39.238,307.344 38.979 C 306.721 38.605,306.719 38.704,307.338 39.469 C 307.765 39.996,307.906 40.658,307.651 40.939 C 307.396 41.220,307.544 41.245,307.979 40.995 C 308.414 40.744,308.579 40.229,308.345 39.851 C 308.069 39.404,308.296 39.307,308.992 39.574 C 309.629 39.819,309.910 39.735,309.683 39.368 C 309.139 38.488,310.216 38.602,311.217 39.531 C 311.901 40.166,311.964 40.137,311.552 39.375 C 311.273 38.859,311.739 39.141,312.587 40.000 C 313.435 40.859,314.958 42.208,315.971 42.998 C 316.984 43.787,317.461 44.263,317.031 44.055 C 316.511 43.803,316.250 44.211,316.250 45.276 C 316.250 46.155,315.969 46.875,315.625 46.875 C 315.281 46.875,315.009 47.227,315.021 47.656 C 315.032 48.086,315.595 47.774,316.271 46.962 C 316.947 46.150,317.500 45.799,317.500 46.181 C 317.500 47.339,319.100 46.961,320.778 45.406 C 322.154 44.130,325.370 42.338,324.222 43.487 C 323.986 43.722,324.068 44.427,324.404 45.054 C 324.885 45.952,324.616 46.600,323.132 48.118 C 320.002 51.319,320.830 56.875,324.436 56.875 C 325.303 56.875,325.596 57.469,325.745 59.531 C 325.970 62.631,328.854 63.657,329.262 60.781 C 329.372 60.008,329.188 59.375,328.852 59.375 C 327.358 59.375,329.831 56.320,331.819 55.710 C 333.814 55.097,334.252 55.233,337.550 57.484 C 339.514 58.824,341.290 59.751,341.498 59.544 C 341.705 59.336,341.875 59.505,341.875 59.918 C 341.875 60.467,342.200 60.495,343.083 60.023 C 345.812 58.562,347.453 58.168,347.887 58.870 C 348.167 59.324,348.031 59.391,347.500 59.063 C 346.952 58.724,346.833 58.801,347.138 59.294 C 347.449 59.799,348.152 59.434,349.360 58.141 C 351.612 55.730,352.781 55.661,352.251 57.969 C 351.622 60.709,351.460 63.069,351.920 62.785 C 352.153 62.641,352.344 63.279,352.344 64.204 C 352.344 65.129,352.630 65.981,352.981 66.098 C 353.733 66.348,353.231 68.750,352.427 68.750 C 351.533 68.750,351.795 70.406,352.824 71.260 C 353.598 71.902,353.982 71.858,354.905 71.024 C 356.346 69.720,357.386 69.713,357.274 71.009 C 357.214 71.705,357.812 72.091,359.196 72.251 C 360.770 72.434,361.128 72.284,360.849 71.558 C 360.654 71.049,360.242 70.788,359.935 70.978 C 359.627 71.168,359.375 70.745,359.375 70.037 C 359.375 68.358,360.166 68.393,360.946 70.105 C 361.761 71.897,363.803 73.107,364.195 72.031 C 364.572 70.995,367.453 71.026,367.854 72.070 C 368.027 72.522,367.614 74.131,366.935 75.646 C 365.963 77.817,365.859 78.597,366.444 79.321 C 367.042 80.060,367.016 80.137,366.310 79.711 C 365.714 79.352,365.575 79.414,365.878 79.903 C 366.381 80.718,368.125 80.891,368.125 80.127 C 368.125 79.446,371.022 79.552,371.667 80.256 C 371.975 80.593,371.829 80.618,371.310 80.316 C 370.719 79.974,370.578 80.043,370.878 80.528 C 371.123 80.925,371.853 81.250,372.500 81.250 C 373.147 81.250,373.850 81.531,374.063 81.875 C 374.275 82.219,374.730 82.500,375.074 82.500 C 375.418 82.500,375.525 82.219,375.313 81.875 C 374.651 80.805,375.564 81.189,376.932 82.557 C 377.980 83.605,378.793 83.808,381.048 83.583 C 384.396 83.249,385.107 84.216,383.506 86.927 C 382.379 88.835,383.602 93.052,385.027 92.171 C 385.356 91.968,385.625 92.091,385.625 92.445 C 385.625 92.799,386.525 93.322,387.625 93.607 C 389.164 94.006,389.743 94.584,390.141 96.117 C 390.521 97.584,391.105 98.207,392.360 98.482 C 395.397 99.146,395.625 99.314,395.625 100.887 C 395.625 101.740,396.006 102.663,396.471 102.938 C 396.937 103.213,397.650 104.070,398.056 104.844 C 399.902 108.360,400.005 105.406,399.847 53.281 L 399.688 0.313 342.368 0.177 C 310.081 0.101,284.900 0.282,284.709 0.590 M209.375 27.751 C 209.375 28.235,208.113 28.984,206.488 29.462 C 204.580 30.024,203.427 30.772,203.085 31.669 C 202.713 32.647,202.209 32.932,201.281 32.689 C 200.573 32.504,199.609 32.672,199.138 33.062 C 198.668 33.452,197.826 33.596,197.267 33.381 C 196.705 33.166,196.250 33.301,196.250 33.683 C 196.250 34.995,193.788 34.370,191.685 32.524 C 190.042 31.081,189.411 30.839,188.825 31.425 C 188.239 32.011,187.955 31.986,187.537 31.310 C 187.242 30.833,186.559 30.613,186.018 30.820 C 185.440 31.042,184.247 30.535,183.129 29.595 C 181.484 28.211,181.083 28.108,180.180 28.840 C 179.454 29.429,179.278 29.449,179.604 28.906 C 179.931 28.363,179.588 28.125,178.474 28.125 C 177.442 28.125,176.875 28.471,176.875 29.099 C 176.875 29.635,177.130 29.916,177.442 29.724 C 177.753 29.531,177.861 29.935,177.682 30.622 C 177.407 31.673,176.970 31.823,174.928 31.566 C 173.536 31.392,172.500 31.526,172.500 31.881 C 172.500 32.221,171.281 32.500,169.792 32.500 C 166.537 32.500,159.922 33.714,159.094 34.463 C 158.767 34.758,157.762 35.000,156.859 35.000 C 155.932 35.000,154.601 35.657,153.800 36.510 C 152.472 37.923,149.751 39.117,148.517 38.827 C 148.217 38.757,148.138 39.132,148.341 39.662 C 148.544 40.192,148.485 40.625,148.210 40.625 C 147.334 40.625,146.893 39.850,147.361 39.132 C 148.688 37.092,147.897 33.943,146.268 34.788 C 145.399 35.240,144.195 35.453,143.594 35.262 C 142.992 35.072,142.500 35.197,142.500 35.541 C 142.500 35.885,141.727 36.256,140.781 36.365 C 139.056 36.563,138.921 36.883,139.708 38.906 C 140.046 39.776,139.802 40.000,138.516 40.000 C 137.312 40.000,136.799 40.399,136.507 41.563 C 136.291 42.422,135.834 43.125,135.490 43.125 C 135.147 43.125,135.037 43.547,135.246 44.063 C 135.454 44.578,135.782 45.386,135.973 45.857 C 136.165 46.328,135.928 46.865,135.446 47.050 C 134.817 47.291,134.645 46.996,134.834 46.003 C 135.144 44.385,132.509 42.741,131.394 43.856 C 130.964 44.286,130.333 44.263,129.442 43.786 C 128.501 43.282,128.125 43.276,128.125 43.765 C 128.125 44.141,127.867 44.290,127.552 44.095 C 127.238 43.900,126.183 44.078,125.209 44.490 C 123.534 45.198,123.036 45.309,120.524 45.532 C 119.130 45.657,119.464 47.429,121.135 48.783 C 122.688 50.040,121.919 50.625,118.713 50.625 C 117.718 50.625,115.344 51.469,113.438 52.500 C 111.531 53.531,109.569 54.375,109.076 54.375 C 108.584 54.375,107.113 55.102,105.809 55.990 L 103.438 57.605 103.242 55.677 C 103.024 53.536,102.713 53.391,101.043 54.657 C 100.414 55.134,99.234 55.403,98.422 55.256 C 97.462 55.082,96.719 55.374,96.303 56.088 C 95.846 56.873,95.658 56.934,95.644 56.302 C 95.634 55.815,95.440 55.602,95.214 55.828 C 94.988 56.054,94.495 55.984,94.118 55.671 C 93.694 55.319,92.974 55.439,92.223 55.989 C 91.556 56.476,91.299 56.875,91.651 56.875 C 92.004 56.875,92.292 57.297,92.292 57.813 C 92.292 58.328,91.987 58.754,91.615 58.759 C 91.242 58.763,90.234 58.928,89.375 59.125 C 88.150 59.406,88.015 59.339,88.750 58.814 C 90.256 57.738,88.858 58.025,87.155 59.142 C 85.857 59.992,85.733 60.315,86.395 61.118 C 87.030 61.887,87.031 62.131,86.402 62.343 C 85.971 62.488,85.776 62.864,85.970 63.178 C 86.394 63.863,88.157 63.950,88.051 63.281 C 87.816 61.794,88.238 60.625,89.010 60.625 C 89.497 60.625,90.021 60.273,90.175 59.844 C 90.328 59.414,90.646 59.240,90.882 59.457 C 91.117 59.674,90.852 60.309,90.292 60.869 C 89.732 61.428,89.416 62.235,89.588 62.662 C 89.836 63.276,89.912 63.274,89.951 62.656 C 89.978 62.227,90.724 61.875,91.608 61.875 C 94.360 61.875,93.135 63.775,88.875 66.111 C 85.038 68.217,83.449 68.432,84.931 66.646 C 85.526 65.929,85.318 65.640,83.833 65.123 C 82.049 64.501,81.401 65.359,82.685 66.643 C 82.921 66.879,82.765 67.503,82.338 68.028 C 81.701 68.814,81.730 68.921,82.503 68.633 C 84.257 67.978,85.088 69.759,83.389 70.533 C 82.556 70.913,81.875 71.628,81.875 72.122 C 81.875 72.616,81.581 73.119,81.222 73.238 C 80.863 73.358,80.524 74.065,80.467 74.810 C 80.411 75.554,80.168 76.041,79.927 75.892 C 79.218 75.454,77.626 76.270,77.243 77.268 C 77.010 77.875,77.154 78.041,77.663 77.753 C 78.089 77.513,77.875 77.907,77.188 78.628 C 75.010 80.913,74.311 81.875,74.819 81.885 C 75.090 81.890,75.031 82.101,74.688 82.353 C 73.396 83.302,71.207 86.926,71.571 87.513 C 71.779 87.850,71.616 88.125,71.210 88.125 C 70.663 88.125,70.653 88.343,71.168 88.964 C 71.551 89.425,71.717 89.950,71.537 90.129 C 70.888 90.778,70.715 93.107,71.290 93.462 C 71.655 93.688,71.645 94.262,71.264 94.974 C 70.672 96.080,70.775 99.234,71.510 102.500 C 71.703 103.359,72.567 104.578,73.430 105.208 C 74.294 105.839,75.000 106.729,75.000 107.188 C 75.000 107.646,75.211 108.115,75.469 108.229 C 75.727 108.344,77.059 109.833,78.431 111.538 C 80.770 114.446,82.570 116.306,86.208 119.572 C 87.109 120.381,87.397 120.492,86.913 119.844 C 85.923 118.517,86.435 118.399,87.698 119.663 C 88.200 120.165,89.348 120.709,90.248 120.872 C 92.968 121.365,94.409 121.940,94.115 122.414 C 93.963 122.662,94.769 122.755,95.908 122.622 C 97.046 122.489,98.176 122.702,98.419 123.096 C 98.751 123.632,99.077 123.632,99.726 123.093 C 100.387 122.544,100.810 122.596,101.529 123.314 C 102.045 123.830,103.318 124.194,104.359 124.122 C 105.399 124.050,106.250 124.230,106.250 124.523 C 106.250 124.815,106.602 124.981,107.031 124.890 C 108.107 124.664,111.319 126.883,110.899 127.562 C 110.712 127.865,109.720 127.494,108.696 126.736 C 106.846 125.369,106.803 125.367,102.635 126.435 C 100.327 127.026,97.540 127.508,96.443 127.505 C 95.346 127.502,94.248 127.825,94.003 128.222 C 93.715 128.687,93.833 128.773,94.333 128.463 C 94.905 128.110,95.054 128.535,94.898 130.086 C 94.689 132.168,97.456 133.463,98.501 131.772 C 98.686 131.474,99.075 131.377,99.366 131.557 C 99.657 131.737,100.656 131.595,101.586 131.241 C 102.834 130.767,103.528 130.806,104.235 131.393 C 104.762 131.830,106.767 132.233,108.690 132.288 C 110.614 132.344,112.841 132.415,113.641 132.448 C 116.099 132.547,117.705 133.688,116.845 134.724 C 115.792 135.993,117.409 136.478,121.409 136.094 C 125.705 135.681,130.000 137.199,130.000 139.130 C 130.000 140.059,130.495 140.614,131.563 140.882 C 132.545 141.128,133.125 141.716,133.125 142.464 C 133.125 143.118,133.969 144.498,135.000 145.529 C 136.031 146.560,136.875 147.824,136.875 148.337 C 136.875 148.851,137.197 149.378,137.590 149.509 C 138.114 149.684,138.094 150.140,137.515 151.222 C 136.502 153.115,137.160 159.213,138.542 160.740 C 139.741 162.065,140.627 161.707,140.199 160.070 C 140.030 159.422,140.138 158.739,140.440 158.552 C 140.741 158.366,141.035 159.383,141.092 160.814 C 141.154 162.371,141.594 163.706,142.190 164.141 C 144.013 165.475,144.446 170.445,142.840 171.619 C 141.439 172.644,141.648 173.421,143.594 174.426 C 146.020 175.678,147.018 176.713,146.255 177.185 C 144.097 178.518,148.073 179.559,150.905 178.402 C 151.877 178.005,152.413 177.520,152.096 177.324 C 151.398 176.893,151.793 171.875,152.525 171.875 C 152.810 171.875,153.695 172.125,154.491 172.430 C 156.383 173.156,160.553 176.852,159.494 176.865 C 159.044 176.871,158.862 177.175,159.088 177.542 C 159.315 177.908,159.660 178.048,159.856 177.853 C 160.051 177.657,160.698 177.938,161.293 178.477 C 162.024 179.138,162.512 179.236,162.794 178.781 C 163.517 177.610,164.397 178.758,163.997 180.351 C 163.706 181.510,163.864 181.875,164.657 181.875 C 165.230 181.875,165.537 181.613,165.339 181.293 C 165.141 180.973,165.272 180.530,165.630 180.309 C 165.988 180.088,166.241 180.139,166.191 180.422 C 165.879 182.222,166.432 183.804,167.591 184.424 C 168.774 185.057,168.895 184.998,168.615 183.925 C 168.414 183.159,168.612 182.708,169.148 182.708 C 169.617 182.708,170.004 183.154,170.010 183.698 C 170.017 184.465,170.136 184.503,170.539 183.868 C 171.124 182.946,175.625 182.326,175.625 183.168 C 175.625 183.466,176.030 183.555,176.525 183.366 C 177.032 183.171,177.772 183.577,178.222 184.298 C 178.978 185.509,179.082 185.520,180.230 184.506 C 181.406 183.468,181.429 183.500,181.034 185.625 C 180.781 186.983,180.837 187.486,181.181 186.951 C 181.486 186.477,182.016 186.263,182.359 186.475 C 182.702 186.687,183.117 186.154,183.282 185.290 C 183.447 184.427,183.339 183.570,183.041 183.386 C 179.719 181.332,189.440 180.483,206.005 181.379 C 209.858 181.587,210.654 181.842,212.001 183.295 L 213.554 184.971 214.413 183.267 C 214.885 182.329,215.349 181.447,215.444 181.306 C 215.539 181.165,216.165 181.545,216.835 182.151 C 217.966 183.175,218.194 183.182,220.060 182.251 C 221.164 181.701,222.152 181.250,222.255 181.250 C 222.519 181.250,223.406 185.836,223.252 186.406 C 223.064 187.099,223.925 186.941,225.054 186.074 C 226.301 185.117,227.808 182.416,227.620 181.477 C 227.542 181.087,227.905 180.603,228.426 180.403 C 228.948 180.203,229.375 179.729,229.375 179.350 C 229.375 177.808,233.124 175.273,237.530 173.835 C 238.750 173.437,241.130 171.708,242.819 169.993 C 244.508 168.278,246.464 166.866,247.164 166.855 C 247.864 166.844,248.983 166.422,249.651 165.918 C 250.318 165.413,251.384 165.000,252.021 165.000 C 253.385 165.000,255.010 163.488,256.219 161.094 C 256.702 160.137,257.606 159.375,258.260 159.375 C 258.906 159.375,260.086 158.672,260.883 157.813 C 261.679 156.953,262.641 156.250,263.021 156.250 C 263.400 156.250,263.564 155.867,263.384 155.399 C 263.204 154.930,264.203 153.355,265.604 151.897 C 267.004 150.439,268.092 148.924,268.020 148.530 C 267.600 146.225,270.750 138.278,272.322 137.674 C 272.764 137.505,273.125 136.450,273.125 135.330 C 273.125 134.210,273.688 132.578,274.375 131.704 C 275.063 130.830,275.625 129.808,275.625 129.433 C 275.625 128.486,277.952 128.571,278.323 129.531 C 278.489 129.961,278.537 128.441,278.429 126.153 C 278.249 122.341,278.345 121.963,279.574 121.642 C 280.638 121.364,280.756 121.131,280.145 120.520 C 277.746 118.121,281.073 115.739,284.019 117.747 C 285.026 118.434,285.678 118.716,285.467 118.374 C 285.255 118.032,285.341 117.344,285.657 116.845 C 286.135 116.089,286.232 116.116,286.240 117.012 C 286.252 118.277,287.844 117.882,288.382 116.482 C 288.594 115.929,288.470 115.724,288.072 115.970 C 287.707 116.196,287.763 115.812,288.198 115.116 C 289.118 113.643,288.092 111.868,286.330 111.885 C 285.441 111.893,285.431 111.976,286.250 112.543 C 287.021 113.077,286.966 113.154,285.938 112.975 C 285.185 112.844,284.128 113.390,283.282 114.347 C 282.509 115.222,281.876 115.586,281.876 115.156 C 281.875 114.727,281.594 114.375,281.250 114.375 C 280.906 114.375,280.625 114.750,280.625 115.208 C 280.625 115.667,280.203 116.042,279.688 116.042 C 278.473 116.042,278.521 115.247,279.921 112.188 C 281.248 109.288,284.311 105.625,285.410 105.625 C 285.825 105.625,286.344 105.063,286.563 104.375 C 286.781 103.687,287.184 103.125,287.460 103.125 C 287.735 103.125,288.117 101.957,288.309 100.529 C 288.500 99.101,289.256 97.123,289.988 96.132 C 290.721 95.141,291.175 93.848,290.997 93.259 C 290.820 92.670,290.516 90.359,290.322 88.125 C 289.897 83.229,289.116 80.676,286.884 76.891 C 285.957 75.317,284.801 72.882,284.317 71.478 C 283.455 68.978,280.480 64.986,276.375 60.822 C 275.241 59.671,274.485 58.453,274.694 58.115 C 274.903 57.777,274.665 57.500,274.166 57.500 C 273.667 57.500,273.090 57.060,272.884 56.523 C 272.678 55.985,272.259 55.700,271.953 55.889 C 271.298 56.294,269.315 52.478,269.785 51.717 C 269.963 51.430,269.783 50.804,269.385 50.325 C 268.839 49.666,268.842 49.122,269.397 48.084 C 270.089 46.792,270.020 46.730,268.190 46.999 C 267.123 47.155,266.250 47.034,266.250 46.730 C 266.250 46.425,265.998 46.332,265.690 46.522 C 265.383 46.712,264.967 46.441,264.767 45.919 C 264.327 44.772,261.807 43.725,260.938 44.327 C 260.594 44.565,259.750 44.705,259.063 44.639 C 257.530 44.490,253.712 42.509,254.948 42.504 C 255.435 42.502,255.653 42.319,255.432 42.098 C 255.211 41.878,254.580 42.070,254.030 42.527 C 252.981 43.397,251.559 42.267,252.266 41.124 C 252.435 40.849,252.259 40.625,251.875 40.625 C 251.491 40.625,251.334 40.370,251.526 40.058 C 251.719 39.747,251.285 39.646,250.562 39.835 C 249.808 40.032,249.028 39.825,248.734 39.349 C 248.309 38.662,248.039 38.668,247.172 39.388 C 245.670 40.634,244.437 40.705,241.250 39.725 C 239.703 39.250,237.172 38.681,235.625 38.461 C 234.078 38.242,232.138 37.620,231.313 37.080 C 230.351 36.451,228.240 36.070,225.428 36.018 C 222.536 35.965,220.953 35.671,220.781 35.156 C 220.486 34.271,217.500 34.072,217.500 34.938 C 217.500 35.247,216.405 35.458,215.066 35.406 C 212.990 35.326,212.714 35.157,213.192 34.258 C 213.747 33.214,213.561 29.956,212.842 28.104 C 212.365 26.874,209.375 26.569,209.375 27.751 M69.375 29.875 C 69.375 30.649,68.902 31.000,67.857 31.000 C 66.590 31.000,66.439 30.815,66.942 29.875 C 67.273 29.256,67.956 28.750,68.459 28.750 C 68.963 28.750,69.375 29.256,69.375 29.875 M230.276 31.543 C 229.608 32.047,229.344 32.490,229.688 32.527 C 230.031 32.563,230.945 32.711,231.719 32.855 C 233.252 33.141,233.306 33.075,232.746 31.614 C 232.275 30.388,231.819 30.375,230.276 31.543 M87.015 33.483 C 86.946 34.317,87.167 35.000,87.507 35.000 C 88.239 35.000,88.344 32.709,87.633 32.269 C 87.362 32.102,87.084 32.648,87.015 33.483 M84.454 36.701 C 83.078 36.962,82.753 41.711,84.024 42.982 C 84.823 43.781,85.645 42.138,85.355 40.319 C 85.121 38.842,85.291 38.147,85.951 37.894 C 86.882 37.537,87.279 36.177,86.406 36.335 C 86.148 36.382,85.270 36.547,84.454 36.701 M330.676 44.904 C 330.273 45.657,329.342 46.067,327.998 46.085 C 326.865 46.100,326.289 45.979,326.719 45.816 C 327.148 45.654,327.500 45.122,327.500 44.635 C 327.500 44.066,328.177 43.750,329.397 43.750 C 331.048 43.750,331.214 43.900,330.676 44.904 M60.000 47.889 C 60.000 48.720,60.170 48.762,60.938 48.125 C 61.453 47.697,61.875 47.241,61.875 47.111 C 61.875 46.981,61.453 46.875,60.938 46.875 C 60.422 46.875,60.000 47.331,60.000 47.889 M91.634 53.477 C 91.428 54.015,90.979 54.281,90.637 54.070 C 90.270 53.843,90.176 54.106,90.407 54.707 C 90.622 55.270,90.971 55.488,91.181 55.192 C 91.391 54.896,92.336 54.674,93.281 54.700 C 95.294 54.753,95.292 54.756,94.018 53.482 C 92.776 52.240,92.109 52.239,91.634 53.477 M328.750 57.301 C 328.750 57.795,328.469 58.025,328.125 57.813 C 327.781 57.600,327.491 57.794,327.480 58.244 C 327.468 58.753,327.117 58.609,326.553 57.864 C 325.876 56.968,325.823 56.452,326.344 55.825 C 327.162 54.838,328.750 55.812,328.750 57.301 M54.775 56.787 C 53.589 58.109,54.129 61.390,55.488 61.124 C 56.014 61.022,56.526 60.383,56.625 59.705 C 56.724 59.027,57.243 58.152,57.778 57.761 C 58.312 57.370,58.750 56.799,58.750 56.494 C 58.749 55.506,55.724 55.729,54.775 56.787 M50.035 66.853 C 49.499 67.185,49.366 67.794,49.669 68.531 C 50.059 69.477,50.206 69.517,50.479 68.750 C 50.662 68.234,51.082 67.637,51.410 67.422 C 52.341 66.814,50.998 66.258,50.035 66.853 M35.000 120.521 C 35.000 120.807,34.648 121.072,34.219 121.109 C 32.350 121.271,31.185 121.694,30.462 122.473 C 29.929 123.049,29.917 123.179,30.426 122.894 C 30.832 122.666,31.580 123.072,32.088 123.797 C 32.953 125.033,33.031 125.044,33.328 123.964 C 33.502 123.331,33.620 124.420,33.591 126.385 C 33.562 128.350,33.278 130.318,32.960 130.760 C 32.543 131.340,32.478 131.264,32.726 130.489 C 33.144 129.186,32.057 128.412,30.156 128.658 C 29.383 128.758,28.750 128.521,28.750 128.133 C 28.750 127.744,29.031 127.600,29.375 127.813 C 29.719 128.025,30.000 127.901,30.000 127.537 C 30.000 127.173,29.684 126.875,29.298 126.875 C 28.794 126.875,28.803 126.627,29.329 125.993 C 30.195 124.950,29.368 124.232,28.161 124.978 C 27.575 125.340,27.423 126.281,27.662 128.062 C 27.851 129.471,27.752 130.782,27.441 130.974 C 27.129 131.166,26.875 131.877,26.875 132.552 C 26.875 133.280,26.253 134.017,25.351 134.361 C 22.855 135.310,19.818 144.212,21.357 146.066 C 21.867 146.681,21.665 147.255,20.549 148.372 C 18.646 150.276,17.251 154.996,17.670 158.117 C 18.037 160.854,17.689 161.560,16.471 160.549 C 15.346 159.615,15.995 148.915,17.254 147.657 C 17.733 147.178,18.115 146.314,18.103 145.737 C 18.085 144.890,17.934 144.940,17.322 145.997 C 16.146 148.027,11.273 147.772,10.201 145.625 C 9.004 143.227,7.944 141.913,7.452 142.217 C 7.207 142.369,6.845 142.073,6.648 141.559 C 6.450 141.045,5.561 140.625,4.670 140.625 C 3.652 140.625,3.209 140.880,3.476 141.312 C 3.775 141.795,3.507 141.789,2.575 141.290 C 1.846 140.900,1.250 140.253,1.250 139.853 C 1.250 139.364,1.043 139.332,0.621 139.754 C 0.207 140.168,0.046 154.855,0.152 182.536 L 0.313 224.688 52.188 224.836 C 80.719 224.918,104.421 224.757,104.858 224.478 C 106.338 223.535,106.311 221.243,104.813 220.670 C 104.057 220.380,102.877 219.478,102.192 218.665 C 100.978 217.225,100.994 217.227,102.817 218.748 L 104.688 220.308 102.897 218.326 C 101.912 217.236,100.787 216.418,100.397 216.507 C 100.007 216.597,99.900 216.552,100.160 216.407 C 100.420 216.262,100.476 215.889,100.284 215.579 C 100.092 215.268,100.343 215.171,100.842 215.362 C 101.341 215.554,101.961 215.366,102.221 214.946 C 102.548 214.417,102.423 214.337,101.815 214.687 C 101.333 214.965,101.500 214.623,102.188 213.927 C 102.875 213.231,103.552 212.763,103.692 212.888 C 103.833 213.012,104.325 212.801,104.786 212.418 C 105.800 211.577,105.895 210.000,104.933 210.000 C 104.553 210.000,104.400 210.413,104.593 210.917 C 104.787 211.422,104.676 212.001,104.348 212.204 C 104.019 212.408,103.750 212.174,103.750 211.686 C 103.750 211.070,103.225 210.880,102.031 211.065 C 100.444 211.312,100.398 211.263,101.431 210.423 C 102.478 209.572,102.432 209.473,100.698 208.869 C 99.680 208.514,98.537 207.645,98.159 206.938 C 97.574 205.845,97.628 205.714,98.526 206.058 C 99.294 206.353,99.441 206.238,99.068 205.635 C 98.740 205.103,98.799 204.957,99.235 205.226 C 99.608 205.457,100.650 204.963,101.550 204.129 C 102.539 203.213,102.927 202.451,102.531 202.207 C 102.170 201.984,101.847 201.185,101.813 200.432 C 101.755 199.172,101.715 199.187,101.305 200.625 L 100.860 202.188 100.412 200.443 C 100.137 199.376,99.690 198.868,99.260 199.134 C 98.864 199.378,98.729 199.290,98.951 198.930 C 99.723 197.681,97.037 195.963,95.847 196.945 C 94.890 197.734,94.862 197.687,95.538 196.419 C 96.239 195.102,96.181 195.045,94.479 195.385 C 93.088 195.664,92.586 195.482,92.276 194.592 C 92.055 193.957,91.712 193.016,91.515 192.500 C 91.201 191.683,91.237 191.681,91.793 192.482 C 92.145 192.988,92.577 193.257,92.754 193.080 C 93.290 192.543,92.399 189.989,91.804 190.356 C 91.499 190.545,91.250 190.009,91.250 189.166 C 91.250 188.323,91.672 187.472,92.188 187.274 C 93.634 186.719,93.402 183.750,91.912 183.750 C 91.245 183.750,90.533 183.481,90.329 183.152 C 90.126 182.824,89.530 182.719,89.005 182.921 C 88.373 183.164,87.930 182.826,87.693 181.921 C 87.477 181.095,86.997 180.684,86.480 180.883 C 86.010 181.063,85.625 181.070,85.625 180.898 C 85.625 180.726,86.258 180.330,87.031 180.019 C 88.207 179.547,88.247 179.448,87.276 179.415 C 86.339 179.383,86.194 179.058,86.526 177.733 C 86.846 176.460,86.737 176.169,86.040 176.437 C 85.385 176.688,85.232 176.436,85.474 175.509 C 85.770 174.377,85.598 174.282,83.920 174.650 C 82.520 174.958,81.938 174.815,81.661 174.095 C 81.457 173.561,81.609 173.125,81.999 173.125 C 82.389 173.125,82.560 172.977,82.378 172.795 C 82.197 172.614,81.306 172.747,80.399 173.092 C 79.048 173.606,78.750 173.541,78.750 172.730 C 78.750 172.093,79.095 171.874,79.720 172.113 C 80.276 172.327,80.527 172.222,80.308 171.868 C 80.098 171.528,80.241 171.250,80.625 171.250 C 81.009 171.250,81.146 170.962,80.928 170.610 C 80.710 170.257,80.905 170.046,81.360 170.141 C 81.815 170.235,82.127 169.990,82.053 169.595 C 81.973 169.173,82.417 169.009,83.131 169.196 C 84.090 169.446,84.217 169.753,83.733 170.656 C 83.329 171.412,83.337 171.932,83.759 172.193 C 84.109 172.409,84.226 172.919,84.020 173.324 C 83.814 173.730,84.442 173.146,85.416 172.026 C 86.390 170.905,87.505 169.991,87.892 169.994 C 88.280 169.997,88.983 169.508,89.455 168.906 C 90.219 167.932,90.201 167.900,89.292 168.610 C 88.446 169.270,88.205 169.235,87.885 168.402 C 87.253 166.755,87.440 166.266,88.540 166.688 C 89.239 166.957,89.432 166.848,89.128 166.356 C 88.880 165.954,88.941 165.625,89.265 165.625 C 89.589 165.625,90.003 165.054,90.186 164.357 C 90.368 163.660,90.893 163.168,91.352 163.263 C 91.908 163.379,92.195 162.769,92.209 161.437 C 92.221 160.336,92.106 159.561,91.954 159.713 C 91.562 160.105,90.000 158.721,90.000 157.982 C 90.000 157.643,90.422 157.528,90.938 157.726 C 91.453 157.924,91.875 157.813,91.875 157.480 C 91.875 157.147,92.313 156.875,92.849 156.875 C 93.385 156.875,93.650 156.594,93.438 156.250 C 93.225 155.906,93.349 155.625,93.713 155.625 C 94.990 155.625,94.359 152.712,92.787 151.345 C 91.901 150.575,91.394 149.648,91.639 149.251 C 91.937 148.768,91.715 148.678,90.952 148.970 C 90.293 149.224,89.184 148.984,88.283 148.393 C 86.507 147.230,85.391 147.891,85.292 150.167 C 85.258 150.935,84.968 151.671,84.647 151.803 C 84.325 151.935,83.695 152.568,83.246 153.209 C 82.169 154.746,81.282 154.698,81.694 153.125 C 81.874 152.438,82.269 151.875,82.573 151.875 C 83.717 151.875,83.065 150.571,81.582 149.895 C 80.734 149.509,80.189 148.950,80.372 148.654 C 80.555 148.358,80.307 147.718,79.822 147.232 C 79.061 146.472,78.731 146.686,77.438 148.783 C 76.122 150.918,74.198 152.496,75.383 150.469 C 75.634 150.039,75.236 150.217,74.497 150.865 C 73.759 151.512,73.305 152.286,73.489 152.584 C 73.760 153.022,71.421 153.315,69.601 153.072 C 69.382 153.042,68.999 153.347,68.750 153.749 C 68.455 154.228,68.180 154.027,67.956 153.170 C 67.718 152.262,68.003 151.650,68.882 151.179 C 69.802 150.687,70.034 150.689,69.726 151.188 C 68.986 152.386,70.870 151.924,72.670 150.466 C 73.623 149.694,74.515 148.500,74.652 147.813 C 75.079 145.667,76.902 142.552,78.307 141.568 C 79.664 140.617,79.408 140.378,77.275 140.604 C 76.629 140.672,76.287 140.446,76.504 140.094 C 76.719 139.746,76.627 139.295,76.299 139.093 C 75.970 138.890,75.809 138.167,75.940 137.487 C 76.224 136.013,74.687 135.786,74.137 137.220 C 73.896 137.848,74.016 138.034,74.479 137.748 C 74.930 137.470,75.021 137.585,74.727 138.061 C 74.470 138.476,73.940 138.709,73.549 138.579 C 73.157 138.448,72.140 138.988,71.288 139.778 C 70.436 140.568,69.587 140.971,69.401 140.674 C 69.215 140.377,67.938 140.636,66.563 141.249 C 65.188 141.863,63.552 142.534,62.929 142.741 C 62.306 142.947,61.969 143.396,62.180 143.738 C 62.392 144.081,62.190 144.217,61.731 144.041 C 60.793 143.681,60.785 141.712,61.711 139.375 C 62.488 137.417,63.139 137.392,63.843 139.296 L 64.392 140.779 66.047 139.123 C 67.796 137.374,68.457 133.750,67.027 133.750 C 66.595 133.750,65.630 133.047,64.883 132.188 C 63.367 130.444,62.177 130.186,61.675 131.494 C 61.289 132.500,57.744 134.411,57.225 133.892 C 57.033 133.699,56.875 132.594,56.875 131.436 C 56.875 129.523,56.761 129.392,55.622 130.001 C 54.566 130.567,54.259 130.430,53.665 129.125 C 52.930 127.512,50.616 128.185,49.205 130.423 C 48.940 130.844,48.326 131.584,47.843 132.068 C 47.086 132.825,47.091 133.194,47.875 134.706 C 48.500 135.911,48.584 136.666,48.143 137.107 C 47.789 137.461,47.472 139.030,47.438 140.594 C 47.386 142.948,47.289 143.169,46.875 141.875 L 46.375 140.313 46.312 142.031 C 46.255 143.609,46.837 144.042,48.776 143.868 C 49.616 143.792,48.499 148.106,47.286 149.617 L 45.938 151.298 45.110 149.959 C 44.494 148.961,44.481 148.742,45.060 149.100 C 45.612 149.441,45.715 149.262,45.416 148.482 C 44.648 146.480,44.259 143.859,44.946 145.313 C 45.514 146.514,45.539 146.508,45.581 145.156 C 45.605 144.383,45.321 143.750,44.950 143.750 C 44.526 143.750,44.428 143.055,44.688 141.875 C 44.947 140.695,44.849 140.000,44.425 140.000 C 43.829 140.000,43.485 141.895,43.906 142.856 C 44.532 144.284,41.579 144.363,40.173 142.957 L 38.613 141.397 40.835 136.653 C 42.057 134.044,43.773 130.855,44.648 129.568 L 46.239 127.227 42.823 125.526 C 40.944 124.591,38.565 122.965,37.537 121.913 C 35.617 119.949,35.000 119.610,35.000 120.521 M1.042 122.917 C 0.425 123.533,0.536 126.250,1.177 126.250 C 1.665 126.250,2.468 124.246,2.491 122.969 C 2.502 122.388,1.603 122.355,1.042 122.917 M30.625 126.327 C 30.625 127.926,30.782 128.147,31.498 127.554 C 31.978 127.155,32.227 126.277,32.050 125.602 C 31.550 123.690,30.625 124.160,30.625 126.327 M10.490 127.219 C 10.300 127.408,10.387 128.603,10.683 129.875 C 11.383 132.889,11.376 133.276,10.625 132.813 C 10.281 132.600,9.998 131.669,9.996 130.744 L 9.992 129.063 8.750 130.938 C 7.263 133.183,7.178 133.834,8.438 133.351 C 9.135 133.083,9.377 133.449,9.385 134.777 C 9.390 135.820,9.590 136.254,9.865 135.822 C 10.181 135.325,10.681 135.681,11.381 136.902 C 11.981 137.947,12.176 138.877,11.838 139.085 C 10.780 139.739,11.150 142.404,12.276 142.239 C 13.110 142.116,13.279 141.398,13.183 138.388 C 13.118 136.353,13.065 133.497,13.065 132.041 C 13.065 130.316,12.804 129.446,12.314 129.541 C 11.865 129.629,11.641 129.121,11.758 128.281 C 11.940 126.973,11.284 126.424,10.490 127.219 M35.520 135.293 C 35.134 136.141,34.521 136.653,34.158 136.428 C 33.716 136.155,33.747 135.939,34.250 135.771 C 34.662 135.633,35.000 135.122,35.000 134.635 C 35.000 134.148,35.275 133.750,35.612 133.750 C 35.986 133.750,35.950 134.349,35.520 135.293 M45.865 134.853 C 44.409 135.813,44.212 138.060,45.594 137.955 C 46.556 137.883,46.875 137.425,46.875 136.117 C 46.875 134.203,46.867 134.193,45.865 134.853 M7.117 136.406 C 7.165 137.363,7.639 137.877,8.601 138.013 C 9.906 138.198,9.958 138.091,9.281 136.607 C 8.379 134.626,7.020 134.500,7.117 136.406 M26.339 142.656 L 27.566 144.063 27.180 142.660 C 26.878 141.567,27.006 141.340,27.760 141.629 C 28.502 141.914,28.578 142.278,28.087 143.195 C 27.371 144.534,25.454 143.959,24.781 142.205 C 24.255 140.835,24.918 141.027,26.339 142.656 M113.281 142.783 C 112.508 143.134,111.875 143.777,111.875 144.211 C 111.875 144.653,111.119 145.004,110.156 145.010 C 108.798 145.017,108.634 145.151,109.375 145.647 C 110.181 146.188,110.127 146.432,108.982 147.395 C 106.720 149.299,105.804 157.500,107.854 157.500 C 108.347 157.500,108.750 157.922,108.750 158.438 C 108.750 158.953,108.988 159.375,109.279 159.375 C 109.571 159.375,110.073 159.967,110.396 160.691 C 111.142 162.363,114.804 163.672,120.000 164.126 C 122.234 164.321,124.484 164.642,125.000 164.839 C 125.516 165.037,126.180 165.143,126.476 165.076 C 126.773 165.008,127.358 165.421,127.776 165.993 C 128.595 167.113,130.248 166.611,132.656 164.510 C 134.802 162.639,133.764 155.181,130.849 151.521 C 124.721 143.830,118.162 140.567,113.281 142.783 M23.808 144.027 C 24.125 143.831,24.060 144.383,23.663 145.253 C 23.267 146.124,22.678 146.672,22.354 146.472 C 21.993 146.249,22.010 145.865,22.397 145.478 C 22.744 145.131,22.955 144.530,22.866 144.143 C 22.777 143.755,22.823 143.650,22.968 143.910 C 23.113 144.170,23.491 144.222,23.808 144.027 M39.375 145.938 C 39.375 146.453,39.057 146.875,38.668 146.875 C 38.203 146.875,38.076 147.734,38.296 149.375 C 38.480 150.750,38.377 152.032,38.066 152.224 C 37.754 152.416,37.464 152.206,37.421 151.756 C 37.173 149.191,37.190 147.742,37.474 147.188 C 37.650 146.844,37.833 146.352,37.881 146.094 C 38.068 145.096,38.144 145.000,38.750 145.000 C 39.094 145.000,39.375 145.422,39.375 145.938 M11.420 149.416 C 11.200 150.259,10.870 150.495,10.471 150.096 C 9.824 149.449,10.333 148.125,11.228 148.125 C 11.520 148.125,11.606 148.706,11.420 149.416 M55.372 148.847 C 55.648 149.294,55.544 149.398,55.097 149.122 C 54.700 148.877,54.375 148.974,54.375 149.338 C 54.375 149.702,54.630 150.000,54.941 150.000 C 55.253 150.000,55.349 150.606,55.156 151.348 C 54.944 152.156,55.051 152.542,55.422 152.313 C 55.763 152.102,56.042 152.346,56.042 152.854 C 56.042 153.363,55.359 153.950,54.524 154.159 C 53.392 154.444,53.220 154.676,53.847 155.073 C 54.499 155.486,54.508 155.608,53.887 155.615 C 53.446 155.621,52.925 155.205,52.727 154.691 C 52.530 154.177,52.120 153.911,51.817 154.099 C 51.513 154.286,51.450 153.957,51.676 153.367 C 51.979 152.577,51.867 152.431,51.250 152.813 C 50.609 153.208,50.532 153.049,50.922 152.134 C 51.202 151.476,51.450 150.466,51.474 149.890 C 51.498 149.313,51.737 148.977,52.004 149.142 C 52.271 149.307,52.985 149.155,53.589 148.803 C 54.969 147.999,54.847 147.996,55.372 148.847 M82.380 155.149 C 82.873 155.185,82.613 155.725,81.725 156.510 C 80.916 157.227,80.561 157.672,80.938 157.500 C 81.314 157.328,80.975 157.761,80.186 158.461 C 79.396 159.161,78.750 160.059,78.750 160.455 C 78.750 161.677,77.703 161.906,76.049 161.048 L 74.467 160.227 75.995 159.080 C 77.072 158.271,77.408 157.569,77.132 156.700 C 76.872 155.882,76.975 155.613,77.437 155.899 C 77.820 156.136,78.311 155.867,78.528 155.302 C 78.801 154.590,79.328 154.400,80.242 154.682 C 80.968 154.907,81.930 155.117,82.380 155.149 M87.188 155.478 C 88.100 156.148,88.313 157.690,87.417 157.136 C 86.905 156.820,86.784 157.086,87.025 158.004 C 87.389 159.398,86.098 160.991,85.102 160.376 C 84.257 159.853,83.808 156.912,84.595 157.062 C 84.959 157.131,85.304 156.836,85.362 156.406 C 85.421 155.977,85.504 155.484,85.547 155.313 C 85.659 154.863,86.461 154.944,87.188 155.478 M69.011 156.004 C 70.232 156.473,70.313 157.500,69.129 157.500 C 68.651 157.500,68.097 157.078,67.899 156.563 C 67.497 155.514,67.600 155.463,69.011 156.004 M83.874 159.935 C 84.053 161.154,83.898 161.653,83.400 161.462 C 82.994 161.306,82.493 161.616,82.288 162.152 C 81.460 164.308,79.313 162.778,79.415 160.105 C 79.443 159.367,79.619 159.473,80.019 160.469 C 80.552 161.793,82.055 162.533,81.719 161.305 C 81.593 160.845,83.120 158.125,83.505 158.125 C 83.562 158.125,83.728 158.940,83.874 159.935 M73.539 163.190 C 73.054 164.485,72.743 164.786,72.605 164.097 C 72.490 163.529,72.736 162.657,73.150 162.157 C 74.264 160.815,74.347 161.034,73.539 163.190 M76.250 162.166 C 76.250 164.665,73.094 167.717,72.128 166.153 C 71.878 165.749,71.954 165.600,72.300 165.814 C 72.641 166.024,73.383 165.224,73.949 164.036 C 74.802 162.247,76.250 161.071,76.250 162.166 M82.134 164.682 C 81.572 165.539,80.863 166.084,80.557 165.895 C 80.250 165.706,80.000 165.849,80.000 166.213 C 80.000 166.577,79.438 166.875,78.750 166.875 C 78.063 166.875,77.500 167.130,77.500 167.441 C 77.500 167.753,76.890 167.848,76.145 167.654 C 75.069 167.372,74.872 167.514,75.187 168.337 C 75.705 169.685,74.770 169.673,73.670 168.318 C 73.186 167.720,73.133 167.452,73.549 167.702 C 73.987 167.965,74.447 167.634,74.685 166.884 C 74.904 166.192,75.504 165.625,76.017 165.625 C 76.558 165.625,76.763 165.325,76.506 164.909 C 76.201 164.415,76.580 164.292,77.735 164.513 C 78.653 164.689,79.567 164.570,79.766 164.249 C 79.964 163.927,80.511 163.812,80.981 163.993 C 81.451 164.173,82.001 164.051,82.204 163.723 C 82.408 163.394,82.704 163.125,82.864 163.125 C 83.023 163.125,82.695 163.826,82.134 164.682 M106.895 165.587 C 106.464 166.393,106.457 166.929,106.873 167.186 C 107.809 167.764,108.750 166.963,108.750 165.588 C 108.750 164.028,107.730 164.027,106.895 165.587 M149.803 169.781 C 149.560 170.023,148.952 169.679,148.451 169.017 C 147.045 167.158,147.336 166.433,148.872 167.969 C 149.626 168.723,150.045 169.538,149.803 169.781 M99.736 168.047 C 99.550 168.348,100.096 168.594,100.949 168.594 C 101.802 168.594,102.500 168.348,102.500 168.047 C 102.500 167.746,101.954 167.500,101.287 167.500 C 100.620 167.500,99.922 167.746,99.736 168.047 M116.064 168.958 C 115.862 169.485,116.120 170.056,116.653 170.261 C 118.189 170.850,118.586 170.696,118.931 169.375 C 119.144 168.563,118.950 168.125,118.379 168.125 C 117.896 168.125,117.496 168.477,117.490 168.906 C 117.483 169.491,117.348 169.478,116.952 168.854 C 116.523 168.176,116.357 168.195,116.064 168.958 M120.133 168.602 C 119.277 168.887,119.111 170.388,119.883 170.865 C 120.162 171.038,121.167 170.669,122.117 170.046 L 123.844 168.914 122.367 168.631 C 121.555 168.476,120.549 168.463,120.133 168.602 M112.500 169.389 C 112.500 169.747,112.934 170.206,113.464 170.409 C 114.930 170.972,115.102 170.365,113.722 169.502 C 112.948 169.019,112.500 168.978,112.500 169.389 M115.757 171.780 C 115.238 172.109,115.638 172.292,116.875 172.292 C 118.112 172.292,118.512 172.109,117.993 171.780 C 117.550 171.499,117.047 171.269,116.875 171.269 C 116.703 171.269,116.200 171.499,115.757 171.780 M123.970 173.121 C 123.232 173.419,122.444 173.960,122.219 174.324 C 121.961 174.741,122.207 174.833,122.883 174.574 C 123.594 174.301,123.808 174.401,123.517 174.871 C 122.721 176.159,125.341 178.061,127.453 177.728 C 128.510 177.561,129.375 177.692,129.375 178.018 C 129.375 178.344,129.867 178.572,130.468 178.524 C 131.193 178.467,131.633 178.964,131.771 180.000 C 131.887 180.859,132.255 181.844,132.590 182.188 C 132.987 182.595,133.037 182.378,132.732 181.563 C 132.408 180.697,132.763 180.888,133.886 182.182 C 135.617 184.178,135.281 187.155,133.493 185.671 C 133.055 185.308,132.442 185.219,132.130 185.474 C 131.808 185.737,131.788 185.667,132.083 185.313 C 132.370 184.969,132.862 184.652,133.177 184.609 C 133.492 184.566,134.048 184.496,134.412 184.453 C 135.205 184.359,134.556 183.125,133.713 183.125 C 132.557 183.125,130.654 185.598,131.039 186.601 C 131.351 187.415,131.536 187.447,132.015 186.771 C 132.415 186.206,132.498 186.567,132.271 187.892 C 132.059 189.135,132.280 190.272,132.878 191.017 C 133.770 192.126,133.785 192.117,133.164 190.832 C 132.805 190.086,132.726 189.383,132.989 189.269 C 133.253 189.156,134.068 188.103,134.800 186.929 C 136.072 184.890,136.126 184.867,136.034 186.408 C 135.981 187.295,135.656 187.974,135.313 187.916 C 134.392 187.763,134.513 192.461,135.449 193.239 C 136.068 193.752,136.254 193.495,136.269 192.108 C 136.286 190.548,136.374 190.461,136.946 191.444 C 137.308 192.067,137.453 192.972,137.267 193.455 C 136.891 194.436,137.801 195.187,139.688 195.452 C 140.707 195.596,140.765 195.515,140.000 195.011 C 139.238 194.510,139.326 194.392,140.469 194.385 C 141.242 194.379,141.875 194.689,141.875 195.073 C 141.875 195.459,142.424 195.627,143.103 195.450 C 143.847 195.255,144.990 195.695,146.005 196.568 C 147.288 197.670,147.861 197.838,148.458 197.285 C 149.032 196.752,149.049 196.442,148.525 196.103 C 148.133 195.851,148.065 195.640,148.373 195.635 C 148.944 195.625,147.903 194.592,143.188 190.494 C 141.544 189.066,140.697 187.889,140.982 187.429 C 141.257 186.984,141.178 186.846,140.787 187.087 C 140.426 187.310,139.961 187.050,139.753 186.508 C 139.213 185.101,139.233 185.080,140.723 185.469 C 141.694 185.723,141.936 185.605,141.590 185.044 C 141.325 184.616,140.589 184.402,139.952 184.569 C 137.793 185.133,136.315 181.758,137.917 179.921 C 138.687 179.038,138.672 178.854,137.800 178.519 C 137.233 178.301,136.991 177.817,137.246 177.406 C 137.555 176.905,137.275 176.788,136.347 177.031 C 135.605 177.225,135.136 177.160,135.305 176.888 C 135.915 175.901,133.842 174.972,131.479 175.174 C 129.602 175.334,128.755 175.059,127.686 173.940 C 126.185 172.369,125.957 172.319,123.970 173.121 M241.231 175.036 C 240.242 176.883,241.412 178.141,243.579 177.561 C 245.923 176.934,246.012 175.857,243.814 174.720 C 242.024 173.795,241.886 173.812,241.231 175.036 M85.625 179.176 C 85.625 179.971,85.451 180.009,84.694 179.380 C 83.924 178.741,83.660 178.863,83.171 180.085 C 82.767 181.094,82.567 181.230,82.540 180.513 C 82.491 179.232,84.258 177.354,85.050 177.844 C 85.366 178.039,85.625 178.638,85.625 179.176 M225.482 179.258 C 225.618 179.666,225.284 180.000,224.740 180.000 C 224.195 180.000,223.750 179.555,223.750 179.010 C 223.750 177.907,225.095 178.099,225.482 179.258 M238.750 178.677 C 238.750 178.981,239.329 179.381,240.036 179.565 C 241.091 179.841,241.189 179.742,240.584 179.013 C 239.759 178.019,238.750 177.834,238.750 178.677 M231.461 183.899 C 231.536 185.396,231.887 185.974,232.813 186.120 C 233.848 186.283,233.901 186.204,233.125 185.659 C 232.334 185.103,232.407 184.940,233.594 184.615 C 235.181 184.179,235.336 183.711,234.250 182.625 C 232.732 181.107,231.352 181.738,231.461 183.899 M190.920 183.154 C 190.711 183.491,189.425 183.573,187.975 183.341 L 185.401 182.929 186.765 184.845 C 187.515 185.899,188.034 187.139,187.917 187.600 C 187.800 188.060,187.823 188.227,187.967 187.969 C 188.458 187.090,190.561 187.497,191.200 188.594 C 191.756 189.549,191.841 189.489,191.866 188.125 C 191.881 187.261,192.099 186.862,192.353 187.233 C 193.083 188.299,195.000 188.813,195.000 187.943 C 195.000 187.521,195.573 186.818,196.274 186.380 C 196.975 185.942,197.380 185.312,197.175 184.980 C 196.969 184.647,197.099 184.375,197.463 184.375 C 197.827 184.375,198.147 184.867,198.174 185.469 C 198.204 186.122,198.351 186.248,198.539 185.781 C 198.712 185.352,199.142 185.000,199.494 185.000 C 199.846 185.000,199.975 185.413,199.782 185.917 C 199.588 186.422,199.742 187.028,200.124 187.264 C 200.512 187.504,200.644 187.412,200.424 187.055 C 200.207 186.704,200.585 185.914,201.265 185.299 C 202.663 184.034,202.884 183.008,201.719 183.196 C 201.289 183.265,200.426 183.100,199.802 182.828 C 199.133 182.537,198.058 182.659,197.188 183.125 C 196.375 183.560,195.277 183.750,194.750 183.548 C 194.222 183.345,193.624 183.449,193.421 183.777 C 193.217 184.106,192.716 184.371,192.307 184.365 C 191.799 184.359,191.828 184.188,192.396 183.827 C 193.070 183.400,193.044 183.228,192.260 182.927 C 191.726 182.722,191.123 182.824,190.920 183.154 M191.431 184.375 C 191.066 185.771,190.302 185.995,189.628 184.903 C 189.367 184.482,189.455 184.351,189.838 184.587 C 190.199 184.810,190.655 184.573,190.852 184.059 C 191.379 182.686,191.811 182.921,191.431 184.375 M109.657 192.288 C 109.713 193.334,110.141 194.010,110.810 194.108 C 112.074 194.294,112.080 194.260,111.150 192.217 C 110.210 190.154,109.545 190.186,109.657 192.288 M133.438 198.750 C 133.650 199.094,134.206 199.375,134.672 199.375 C 135.139 199.375,135.625 199.688,135.753 200.071 C 135.881 200.454,136.537 200.637,137.211 200.478 C 138.209 200.242,138.004 199.996,136.114 199.157 C 133.425 197.963,132.902 197.884,133.438 198.750 M132.559 205.589 C 132.070 205.891,132.243 206.389,133.110 207.174 C 134.243 208.199,134.375 208.211,134.375 207.284 C 134.375 206.715,134.608 206.250,134.892 206.250 C 135.176 206.250,135.285 207.094,135.133 208.125 C 134.961 209.299,135.132 210.000,135.591 210.000 C 135.994 210.000,136.173 210.244,135.989 210.541 C 135.805 210.839,136.259 211.613,136.997 212.260 C 137.736 212.908,138.134 213.086,137.883 212.656 C 137.632 212.227,137.710 211.875,138.057 211.875 C 138.404 211.875,138.913 212.227,139.188 212.656 C 139.960 213.864,141.981 213.813,141.730 212.592 C 141.610 212.015,141.042 211.644,140.436 211.748 C 139.830 211.853,139.428 211.591,139.521 211.152 C 139.613 210.721,139.266 210.357,138.750 210.341 C 138.234 210.325,137.498 209.339,137.114 208.150 C 136.404 205.954,134.081 204.648,132.559 205.589 M96.336 206.687 C 95.616 206.974,95.616 207.110,96.336 207.566 C 97.014 207.996,96.979 208.108,96.161 208.115 C 95.596 208.121,94.972 207.703,94.774 207.188 C 94.518 206.521,94.815 206.264,95.801 206.299 C 96.608 206.328,96.831 206.490,96.336 206.687 M133.761 213.384 C 134.631 214.507,134.604 214.535,133.322 213.852 C 131.470 212.865,131.139 212.933,131.363 214.253 C 131.468 214.873,131.067 216.124,130.471 217.033 C 129.814 218.037,129.631 218.835,130.007 219.067 C 130.347 219.277,130.625 219.104,130.625 218.683 C 130.625 218.261,130.794 218.085,131.000 218.292 C 132.233 219.525,130.311 219.923,129.013 218.703 C 127.615 217.390,127.508 217.377,127.091 218.463 C 126.826 219.155,126.949 219.712,127.401 219.863 C 129.093 220.427,130.171 223.750,128.662 223.750 C 127.908 223.750,127.493 223.952,127.740 224.198 C 128.476 224.935,142.697 224.435,143.418 223.647 C 143.872 223.150,143.838 223.068,143.302 223.370 C 142.000 224.103,134.314 215.895,135.341 214.867 C 135.501 214.707,135.003 214.038,134.233 213.382 C 132.856 212.206,132.848 212.206,133.761 213.384 M129.424 216.406 C 129.457 217.346,129.592 217.501,129.831 216.875 C 130.027 216.359,130.497 215.731,130.875 215.478 C 131.299 215.195,131.143 215.015,130.469 215.010 C 129.734 215.003,129.391 215.461,129.424 216.406 M136.563 222.500 C 137.514 223.551,137.541 223.750,136.732 223.750 C 136.203 223.750,135.624 223.188,135.444 222.500 C 135.264 221.813,135.188 221.250,135.274 221.250 C 135.361 221.250,135.940 221.813,136.563 222.500 " stroke="none" fill="#000000" fill-rule="evenodd"></path></g></svg>