<svg id="svg" xmlns="http://www.w3.org/2000/svg" xmlns:xlink="http://www.w3.org/1999/xlink" width="400" height="225" viewBox="0, 0, 400,225"><g id="svgg"><path id="path0" d="M0.399 0.434 C -0.201 1.034,-0.031 81.669,0.576 84.375 C 1.155 86.953,2.192 84.682,1.759 81.782 C 1.551 80.380,3.552 77.719,4.273 78.440 C 4.451 78.618,4.054 79.162,3.392 79.649 C 2.268 80.477,2.260 80.564,3.281 80.960 C 4.096 81.275,4.375 82.094,4.375 84.166 C 4.375 85.862,4.619 86.798,5.000 86.563 C 5.344 86.350,5.625 86.441,5.625 86.765 C 5.625 87.089,6.328 87.489,7.188 87.653 C 8.235 87.853,8.750 87.671,8.750 87.101 C 8.750 86.633,9.031 86.250,9.375 86.250 C 9.719 86.250,10.000 85.828,10.000 85.313 C 10.000 84.797,10.284 84.375,10.631 84.375 C 10.978 84.375,12.144 83.531,13.223 82.500 C 15.006 80.797,15.860 80.344,16.466 80.781 C 16.585 80.867,17.189 80.518,17.807 80.005 C 18.842 79.146,18.895 79.183,18.485 80.477 C 18.156 81.511,18.328 81.992,19.138 82.303 C 19.802 82.558,20.344 82.405,20.507 81.916 C 20.810 81.007,22.927 79.063,23.613 79.063 C 23.860 79.063,24.583 78.008,25.221 76.719 C 26.154 74.834,26.728 74.375,28.153 74.375 C 30.274 74.375,31.060 75.320,29.613 76.129 C 28.243 76.896,29.132 78.286,30.678 77.796 C 32.207 77.310,32.391 79.841,30.869 80.425 C 29.974 80.769,29.988 80.881,30.993 81.443 C 31.863 81.931,32.273 81.816,32.780 80.942 C 33.142 80.319,33.930 79.368,34.531 78.828 C 35.976 77.533,35.916 76.427,34.375 75.937 C 32.687 75.402,32.788 74.377,34.531 74.365 C 35.630 74.358,35.739 74.230,35.029 73.781 C 34.245 73.285,34.240 72.983,34.995 71.572 L 35.870 69.937 36.705 71.531 C 37.164 72.408,37.942 73.125,38.433 73.125 C 38.924 73.125,39.870 73.709,40.535 74.422 C 41.308 75.252,41.893 75.477,42.158 75.047 C 42.387 74.677,42.276 74.375,41.912 74.375 C 41.548 74.375,41.250 73.983,41.250 73.504 C 41.250 73.026,40.766 72.448,40.174 72.221 C 39.544 71.979,39.356 71.627,39.719 71.373 C 40.871 70.567,42.555 67.470,42.176 66.856 C 41.713 66.108,45.065 64.745,45.573 65.475 C 46.554 66.883,48.494 66.090,49.144 64.014 C 49.704 62.224,49.674 61.993,48.955 62.590 C 48.274 63.154,48.178 63.089,48.490 62.276 C 48.990 60.974,49.110 60.984,51.641 62.549 C 53.411 63.642,53.641 64.036,53.099 65.049 C 52.657 65.874,52.658 66.250,53.103 66.250 C 53.459 66.250,53.750 65.963,53.750 65.613 C 53.750 65.263,54.383 65.125,55.156 65.307 C 56.882 65.712,58.456 64.792,57.814 63.753 C 57.451 63.165,57.227 63.180,56.831 63.821 C 55.477 66.012,55.773 63.539,57.181 60.889 C 58.345 58.700,58.719 57.195,58.542 55.416 C 58.346 53.464,58.523 52.904,59.408 52.673 C 60.019 52.513,60.692 51.692,60.904 50.850 C 61.333 49.140,60.846 47.914,59.957 48.464 C 59.637 48.662,59.375 48.560,59.375 48.238 C 59.375 47.915,58.483 47.282,57.392 46.830 C 56.302 46.379,55.739 45.899,56.142 45.765 C 56.545 45.631,56.875 45.116,56.875 44.622 C 56.875 43.031,59.495 42.312,61.499 43.352 C 62.479 43.860,63.667 44.128,64.140 43.946 C 65.138 43.563,65.294 42.077,64.369 41.769 C 64.022 41.653,63.619 40.945,63.475 40.195 C 63.331 39.445,62.871 38.180,62.453 37.384 L 61.693 35.938 63.106 37.188 C 63.883 37.875,64.775 39.109,65.089 39.930 C 65.403 40.752,65.831 41.253,66.039 41.044 C 66.248 40.836,66.049 39.775,65.599 38.686 C 64.863 36.909,64.902 36.617,65.983 35.826 C 68.042 34.320,70.902 35.004,71.138 37.059 C 71.307 38.529,71.554 38.742,72.700 38.401 C 73.992 38.017,74.002 38.042,72.901 38.883 C 72.262 39.371,71.843 40.311,71.970 40.972 C 72.265 42.501,74.375 43.001,74.375 41.541 C 74.375 40.865,74.708 40.619,75.313 40.851 C 76.440 41.284,76.584 40.260,75.469 39.740 C 74.845 39.448,74.846 39.301,75.473 39.009 C 75.904 38.808,76.113 38.409,75.936 38.122 C 75.478 37.382,77.386 35.625,78.647 35.625 C 80.413 35.625,82.348 40.941,82.457 46.094 C 82.508 48.521,83.561 48.782,84.132 46.510 C 84.567 44.776,87.196 41.779,87.775 42.358 C 87.967 42.551,88.125 42.240,88.125 41.667 C 88.125 41.094,88.379 40.625,88.691 40.625 C 89.002 40.625,89.106 39.506,88.923 38.138 C 88.691 36.415,88.907 35.166,89.626 34.069 C 90.446 32.817,90.515 32.212,89.956 31.168 C 89.523 30.359,89.499 30.003,89.894 30.247 C 90.249 30.466,90.703 30.379,90.905 30.053 C 91.106 29.728,90.997 29.293,90.664 29.086 C 90.330 28.880,90.092 26.904,90.135 24.694 C 90.199 21.370,90.344 20.856,90.974 21.718 C 91.393 22.291,91.590 23.139,91.413 23.603 C 91.235 24.066,91.694 25.008,92.434 25.697 C 93.173 26.386,93.634 27.182,93.458 27.466 C 93.283 27.751,93.558 28.331,94.069 28.756 C 94.581 29.181,95.000 30.040,95.000 30.665 C 95.000 31.813,95.910 32.678,97.347 32.896 C 97.778 32.962,97.950 32.722,97.728 32.364 C 97.500 31.995,97.702 31.841,98.194 32.008 C 98.688 32.176,98.987 32.953,98.887 33.808 L 98.711 35.313 99.902 33.934 C 100.791 32.905,101.019 31.916,100.800 30.028 C 100.567 28.010,100.709 27.500,101.504 27.500 C 102.052 27.500,102.500 27.781,102.500 28.125 C 102.500 28.469,102.755 28.750,103.066 28.750 C 103.378 28.750,103.486 28.188,103.306 27.500 C 103.075 26.615,103.287 26.250,104.032 26.250 C 104.784 26.250,104.976 25.909,104.704 25.053 C 104.495 24.394,104.617 23.674,104.975 23.453 C 105.332 23.232,105.625 22.388,105.625 21.577 C 105.625 20.766,105.796 19.657,106.004 19.114 C 106.711 17.273,107.500 18.111,107.500 20.701 C 107.500 24.158,109.962 22.842,110.949 18.859 C 111.740 15.661,112.809 14.434,113.875 15.500 C 115.511 17.136,115.726 16.199,116.469 4.219 L 116.731 0.000 58.782 0.000 C 26.910 0.000,0.638 0.195,0.399 0.434 M136.114 0.772 C 137.169 1.280,137.731 1.269,138.270 0.730 C 138.827 0.173,138.487 0.010,136.844 0.042 C 134.819 0.082,134.774 0.126,136.114 0.772 M274.824 0.384 C 274.610 0.598,274.843 1.182,275.342 1.682 C 276.404 2.743,276.571 5.697,275.557 5.469 C 275.159 5.379,274.826 6.287,274.776 7.605 C 274.727 8.866,274.795 9.789,274.927 9.657 C 275.059 9.524,275.881 9.978,276.754 10.664 C 277.627 11.350,278.503 11.683,278.702 11.404 C 278.900 11.124,279.484 10.922,280.000 10.955 C 280.516 10.987,281.619 10.774,282.452 10.481 C 285.067 9.562,286.165 10.495,284.079 11.864 L 282.278 13.046 284.108 13.527 C 285.114 13.792,286.244 13.949,286.618 13.875 C 288.165 13.571,289.606 16.108,288.510 17.205 C 287.069 18.646,287.196 20.225,288.721 19.827 C 290.796 19.284,291.909 20.682,291.974 23.912 C 292.020 26.183,292.271 26.887,293.048 26.924 C 293.702 26.956,293.783 27.086,293.277 27.290 C 292.846 27.464,292.649 27.861,292.841 28.171 C 293.033 28.482,292.742 28.564,292.194 28.354 C 291.647 28.144,291.244 28.217,291.298 28.517 C 291.520 29.733,291.199 30.263,290.709 29.490 C 290.385 28.979,290.240 29.530,290.326 30.940 C 290.515 34.055,291.387 34.810,293.577 33.755 C 296.296 32.445,298.056 32.485,297.793 33.849 C 297.532 35.205,297.436 35.191,300.960 34.304 C 305.683 33.115,308.333 34.527,305.686 36.822 C 305.033 37.389,304.393 38.547,304.265 39.395 C 304.119 40.365,303.690 40.860,303.110 40.729 C 302.603 40.615,302.396 40.729,302.651 40.984 C 302.906 41.239,302.770 41.895,302.349 42.442 C 301.795 43.163,301.945 43.131,302.892 42.326 C 303.929 41.445,304.542 41.344,305.850 41.842 C 306.804 42.204,307.500 42.228,307.500 41.898 C 307.500 41.584,308.032 41.368,308.681 41.417 C 309.447 41.474,309.739 41.829,309.510 42.424 C 309.262 43.071,309.454 43.229,310.158 42.958 C 310.708 42.747,311.492 42.976,311.900 43.468 C 312.308 43.959,312.939 44.178,313.302 43.953 C 313.717 43.696,313.810 43.943,313.551 44.617 C 313.306 45.254,313.390 45.535,313.757 45.308 C 314.711 44.719,314.488 46.003,313.493 46.829 C 312.818 47.389,312.502 47.385,312.147 46.809 C 311.832 46.300,311.947 46.221,312.500 46.563 C 313.030 46.890,313.167 46.824,312.889 46.374 C 312.653 45.992,311.977 45.858,311.386 46.075 C 309.667 46.709,308.637 48.750,310.037 48.750 C 310.401 48.750,310.537 48.488,310.339 48.168 C 310.141 47.848,310.265 47.410,310.615 47.194 C 311.658 46.549,311.334 48.243,310.156 49.589 C 309.489 50.352,309.409 50.636,309.950 50.317 C 310.584 49.944,310.738 50.053,310.492 50.696 C 309.975 52.043,313.016 51.725,314.660 50.261 C 318.363 46.963,321.145 49.702,317.569 53.125 C 315.963 54.663,314.823 58.069,316.199 57.219 C 317.414 56.468,316.908 58.321,315.485 59.836 C 314.307 61.091,314.235 61.404,315.016 61.898 C 316.522 62.851,317.958 62.583,318.297 61.285 C 318.622 60.041,322.109 58.694,323.610 59.234 C 324.824 59.671,323.273 61.252,321.642 61.240 C 320.555 61.233,320.483 61.121,321.250 60.625 C 322.072 60.094,322.066 60.018,321.199 60.010 C 319.612 59.994,316.906 66.434,318.171 67.216 C 318.489 67.413,318.750 67.276,318.750 66.912 C 318.750 66.548,319.172 66.250,319.688 66.250 C 320.203 66.250,320.625 65.934,320.625 65.548 C 320.625 65.041,320.867 65.047,321.498 65.572 C 322.184 66.141,323.259 65.809,326.498 64.029 C 328.768 62.781,330.625 62.059,330.625 62.424 C 330.625 62.789,331.649 62.393,332.900 61.544 C 335.664 59.668,336.626 59.605,337.061 61.270 C 337.293 62.154,336.935 62.842,335.884 63.530 C 333.627 65.009,333.885 66.504,336.312 66.019 C 338.258 65.630,342.076 62.910,341.494 62.327 C 341.090 61.923,346.763 60.715,348.594 60.816 C 350.230 60.905,350.657 64.864,349.192 66.362 C 348.748 66.816,348.357 67.820,348.324 68.594 C 348.291 69.367,348.211 70.070,348.147 70.156 C 348.082 70.242,347.937 70.734,347.825 71.250 C 347.713 71.766,347.418 72.691,347.171 73.307 C 346.863 74.074,346.983 74.369,347.551 74.244 C 348.007 74.144,348.429 74.414,348.487 74.844 C 348.546 75.273,348.629 75.809,348.672 76.033 C 348.715 76.258,349.258 75.856,349.879 75.140 C 350.645 74.256,351.290 74.013,351.889 74.384 C 352.880 74.996,354.568 73.943,354.019 73.054 C 353.830 72.749,354.115 72.500,354.651 72.500 C 355.187 72.500,355.625 72.794,355.625 73.152 C 355.625 73.511,355.977 73.733,356.406 73.646 C 356.836 73.559,357.804 73.829,358.558 74.247 C 359.619 74.834,360.295 74.839,361.550 74.267 C 364.188 73.065,365.718 74.959,364.218 77.572 C 363.016 79.666,362.794 80.904,363.722 80.330 C 364.051 80.126,365.294 80.367,366.484 80.864 C 367.674 81.362,368.835 81.582,369.064 81.353 C 369.292 81.125,369.422 81.219,369.353 81.563 C 369.050 83.065,369.435 83.861,370.305 83.527 C 370.817 83.331,371.170 83.371,371.091 83.616 C 370.732 84.729,372.990 86.887,374.077 86.470 C 374.894 86.157,375.070 86.256,374.715 86.831 C 374.325 87.461,374.505 87.475,375.582 86.898 C 376.329 86.498,377.418 86.297,378.002 86.450 C 378.982 86.709,378.980 86.736,377.981 86.802 C 377.382 86.843,376.724 87.571,376.508 88.433 C 376.290 89.299,375.826 89.812,375.462 89.587 C 375.098 89.362,374.991 89.479,375.220 89.850 C 375.447 90.218,375.294 90.631,374.879 90.769 C 374.412 90.925,374.541 91.180,375.220 91.441 C 375.875 91.692,376.161 91.612,375.933 91.243 C 375.723 90.903,375.826 90.625,376.161 90.625 C 376.496 90.625,376.870 90.922,376.991 91.284 C 377.111 91.647,377.689 92.013,378.275 92.099 C 378.860 92.185,379.558 92.496,379.826 92.790 C 380.093 93.085,379.891 93.119,379.375 92.866 C 378.859 92.614,378.966 92.837,379.612 93.363 C 380.282 93.908,380.658 94.807,380.487 95.459 C 380.323 96.086,380.575 96.960,381.046 97.400 C 381.517 97.840,381.744 98.456,381.551 98.769 C 381.067 99.552,383.983 100.209,385.627 99.687 C 386.365 99.453,386.812 99.103,386.619 98.911 C 386.427 98.719,386.757 98.161,387.353 97.672 C 387.950 97.183,388.042 96.987,387.560 97.238 C 386.983 97.537,386.835 97.446,387.128 96.972 C 387.805 95.876,388.780 96.100,390.255 97.691 C 390.989 98.483,392.110 99.332,392.746 99.576 C 393.637 99.917,393.819 100.436,393.540 101.833 C 393.224 103.412,393.410 103.727,394.980 104.274 C 395.971 104.620,397.257 105.628,397.838 106.514 C 398.419 107.400,399.144 108.125,399.450 108.125 C 399.773 108.125,399.940 85.442,399.847 54.219 L 399.688 0.313 337.451 0.153 C 303.221 0.066,275.039 0.169,274.824 0.384 M209.894 25.000 C 209.684 25.516,208.427 26.486,207.100 27.157 C 205.773 27.827,203.474 29.166,201.991 30.132 C 197.903 32.793,194.385 32.579,190.465 29.431 C 189.861 28.946,189.191 28.725,188.976 28.940 C 188.762 29.155,188.030 29.034,187.351 28.670 C 186.476 28.202,185.917 28.208,185.434 28.691 C 184.942 29.183,184.280 28.919,183.053 27.744 C 181.538 26.293,175.433 25.012,175.821 26.227 C 176.127 27.188,173.829 29.366,172.888 29.005 C 171.999 28.664,171.940 28.840,172.473 30.241 L 173.094 31.875 169.203 31.880 C 167.063 31.882,163.484 32.443,161.250 33.125 C 159.016 33.807,156.652 34.368,155.996 34.370 C 155.341 34.373,153.797 35.148,152.565 36.094 C 147.442 40.024,147.232 39.923,147.287 33.547 C 147.294 32.675,146.991 32.504,145.992 32.821 C 145.275 33.049,144.055 33.213,143.281 33.187 C 142.508 33.161,141.875 33.398,141.875 33.714 C 141.875 34.030,141.249 34.378,140.484 34.488 C 139.720 34.598,138.753 35.373,138.337 36.210 C 137.229 38.441,133.832 41.415,132.832 41.031 C 132.356 40.849,131.630 41.104,131.219 41.600 C 130.149 42.889,129.678 42.747,127.466 40.469 L 125.495 38.438 125.888 40.170 C 126.188 41.492,126.018 41.996,125.172 42.296 C 124.562 42.513,123.610 43.077,123.056 43.550 C 122.282 44.212,121.644 44.256,120.296 43.744 C 118.960 43.236,118.407 43.269,117.980 43.882 C 117.607 44.417,117.545 44.233,117.797 43.334 C 118.005 42.589,117.915 41.819,117.597 41.622 C 117.278 41.426,116.880 41.987,116.711 42.869 C 116.499 43.978,116.718 44.590,117.421 44.852 C 118.506 45.256,120.038 47.093,120.742 48.836 C 121.102 49.725,120.858 49.859,119.254 49.656 C 118.000 49.498,116.794 49.840,115.771 50.644 C 114.910 51.321,113.752 51.884,113.197 51.895 C 112.642 51.906,111.642 52.328,110.974 52.832 C 110.307 53.337,109.287 53.750,108.707 53.750 C 108.127 53.750,107.306 54.169,106.881 54.681 C 106.456 55.192,105.897 55.480,105.638 55.320 C 105.379 55.160,104.664 55.585,104.049 56.265 C 102.744 57.707,101.875 57.857,101.875 56.639 C 101.875 54.983,100.368 54.363,98.587 55.288 C 96.869 56.179,92.975 55.955,92.604 54.944 C 92.164 53.741,91.383 54.446,91.675 55.781 C 91.923 56.911,91.852 57.003,91.314 56.250 C 90.945 55.734,90.649 55.594,90.654 55.938 C 90.668 56.732,92.228 58.813,92.562 58.481 C 92.700 58.344,92.813 59.392,92.813 60.810 C 92.813 63.737,89.413 66.718,85.443 67.272 C 83.936 67.482,83.670 67.393,84.375 66.911 C 85.091 66.421,85.114 66.267,84.473 66.260 C 84.011 66.254,83.488 66.806,83.310 67.485 C 83.070 68.404,82.724 68.581,81.962 68.177 C 80.473 67.387,79.083 68.980,80.347 70.028 C 81.510 70.994,80.439 72.500,78.589 72.500 C 77.897 72.500,76.639 73.247,75.793 74.159 C 74.554 75.496,74.148 75.648,73.700 74.940 C 73.259 74.245,73.142 74.303,73.135 75.223 C 73.129 75.861,72.258 77.478,71.197 78.816 C 70.137 80.155,69.469 81.250,69.712 81.250 C 69.954 81.250,69.803 81.672,69.375 82.188 C 68.947 82.703,68.804 83.125,69.058 83.125 C 69.680 83.125,67.512 86.438,66.490 87.048 C 66.043 87.315,65.817 87.899,65.989 88.347 C 66.161 88.794,66.387 91.529,66.492 94.424 C 66.596 97.319,67.007 100.479,67.403 101.447 C 67.800 102.415,68.125 103.419,68.125 103.678 C 68.125 105.323,76.364 114.375,77.861 114.375 C 78.250 114.375,79.753 116.062,81.199 118.125 C 83.453 121.337,84.108 121.875,85.769 121.875 C 86.836 121.875,87.534 122.049,87.321 122.262 C 86.534 123.050,91.418 126.606,92.429 125.981 C 93.459 125.345,93.759 126.624,92.866 127.845 C 92.314 128.600,91.238 129.000,89.761 129.000 C 88.517 129.000,87.500 129.242,87.500 129.537 C 87.500 129.832,87.206 129.892,86.848 129.671 C 86.489 129.449,85.786 129.607,85.285 130.023 C 84.785 130.438,84.375 130.549,84.375 130.270 C 84.375 129.990,83.976 130.307,83.489 130.973 C 83.001 131.640,82.402 131.985,82.156 131.740 C 81.911 131.495,81.162 131.588,80.491 131.947 C 79.566 132.442,79.007 132.361,78.179 131.611 C 77.578 131.067,76.898 130.810,76.668 131.040 C 76.438 131.270,76.241 131.060,76.231 130.573 C 76.217 129.944,76.025 130.008,75.568 130.794 C 75.213 131.403,74.678 131.750,74.379 131.565 C 74.080 131.380,73.360 131.867,72.778 132.646 C 72.073 133.592,71.844 133.699,72.091 132.969 C 72.294 132.367,72.172 131.875,71.818 131.875 C 71.465 131.875,71.350 131.594,71.562 131.250 C 71.787 130.887,71.169 130.625,70.088 130.625 C 67.651 130.625,66.250 130.057,66.250 129.069 C 66.250 127.900,63.916 127.484,63.071 128.502 C 61.159 130.806,59.744 128.405,61.582 125.974 C 62.087 125.307,62.500 124.383,62.500 123.921 C 62.500 122.657,59.932 124.189,59.540 125.687 C 59.073 127.473,58.142 127.117,57.717 124.990 C 57.404 123.426,57.185 123.234,56.430 123.860 C 55.930 124.275,55.006 124.653,54.376 124.699 C 53.746 124.745,52.228 125.816,51.002 127.079 C 49.775 128.342,48.486 129.375,48.136 129.375 C 47.786 129.375,47.545 129.586,47.601 129.844 C 47.656 130.102,47.328 131.156,46.872 132.188 C 46.416 133.219,46.019 134.250,45.990 134.479 C 45.961 134.708,45.727 135.107,45.469 135.365 C 44.709 136.125,44.931 136.875,45.916 136.875 C 47.104 136.875,48.374 139.147,47.491 139.693 C 47.141 139.909,47.004 140.329,47.188 140.625 C 47.371 140.921,47.235 141.340,46.885 141.556 C 45.647 142.321,46.155 144.283,47.500 143.931 C 48.949 143.552,49.144 144.702,48.040 147.124 C 47.163 149.050,45.625 149.763,45.625 148.244 C 45.625 147.644,45.213 146.565,44.710 145.846 C 44.206 145.127,43.964 144.370,44.171 144.162 C 44.379 143.955,43.806 143.503,42.899 143.158 C 41.992 142.813,41.250 142.226,41.250 141.854 C 41.250 141.481,40.969 141.350,40.625 141.563 C 40.281 141.775,40.000 141.634,40.000 141.250 C 40.000 140.866,39.766 140.696,39.479 140.873 C 38.765 141.314,38.797 139.156,39.511 138.687 C 39.826 138.481,40.176 137.919,40.290 137.437 C 40.844 135.092,41.447 133.750,41.948 133.750 C 42.252 133.750,42.500 133.348,42.500 132.857 C 42.500 132.366,42.889 131.575,43.365 131.099 C 46.172 128.292,49.068 117.762,46.359 120.214 C 44.400 121.987,39.375 120.229,39.375 117.770 C 39.375 116.957,38.609 116.596,37.326 116.807 C 37.059 116.851,36.679 116.467,36.483 115.955 C 36.235 115.311,35.807 115.190,35.094 115.564 C 34.527 115.862,33.148 116.031,32.031 115.938 C 30.379 115.802,30.000 115.997,30.000 116.985 C 30.000 117.652,29.734 118.034,29.409 117.833 C 28.712 117.403,27.662 120.595,26.642 126.250 C 26.239 128.484,25.634 130.323,25.298 130.336 C 22.017 130.465,21.341 131.196,21.505 134.443 C 21.594 136.199,21.418 139.081,21.113 140.849 C 20.808 142.616,20.417 144.906,20.244 145.938 C 19.953 147.674,18.982 150.254,17.391 153.522 C 17.020 154.283,16.927 155.961,17.175 157.428 C 17.488 159.279,17.395 160.000,16.843 160.000 C 15.790 160.000,16.430 149.825,17.668 146.875 C 18.586 144.688,19.509 139.375,18.971 139.375 C 18.455 139.375,16.642 144.042,16.786 145.000 C 16.894 145.714,16.798 145.748,16.386 145.141 C 15.970 144.528,15.583 144.636,14.701 145.610 C 13.399 147.049,11.366 147.281,10.892 146.045 C 10.440 144.866,11.748 141.723,12.499 142.187 C 12.861 142.411,13.125 141.826,13.125 140.801 C 13.125 139.826,13.530 138.449,14.026 137.742 C 14.811 136.622,14.811 136.231,14.026 134.719 C 13.530 133.764,13.125 132.187,13.125 131.215 C 13.125 130.244,12.825 129.263,12.457 129.036 C 12.090 128.809,11.945 128.219,12.134 127.726 C 12.566 126.602,10.669 125.793,10.029 126.828 C 9.770 127.246,9.761 128.694,10.008 130.044 C 10.255 131.395,10.214 132.500,9.916 132.500 C 9.618 132.500,9.353 131.727,9.326 130.781 C 9.297 129.779,9.128 129.453,8.919 130.000 C 8.723 130.516,8.286 131.118,7.948 131.338 C 7.571 131.585,7.701 132.264,8.288 133.101 C 8.962 134.064,9.328 134.221,9.535 133.638 C 9.697 133.184,10.043 133.011,10.304 133.254 C 11.337 134.215,10.047 135.661,8.502 135.273 C 7.256 134.960,6.938 135.147,6.769 136.295 C 6.656 137.067,6.141 137.768,5.625 137.853 C 5.109 137.937,3.908 138.156,2.956 138.339 C 1.957 138.531,1.378 138.424,1.587 138.086 C 1.786 137.764,1.516 137.500,0.987 137.500 C 0.128 137.500,0.040 142.204,0.169 181.094 L 0.313 224.688 53.281 224.688 C 88.136 224.688,106.271 224.474,106.312 224.063 C 106.439 222.770,107.585 221.229,108.156 221.582 C 109.397 222.349,108.685 220.729,107.344 219.735 C 106.570 219.161,106.317 218.880,106.781 219.109 C 107.450 219.439,107.486 219.266,106.955 218.274 C 106.586 217.585,105.855 216.857,105.330 216.656 C 103.907 216.110,104.170 214.779,106.038 213.078 C 106.953 212.244,107.474 211.984,107.196 212.500 C 106.919 213.016,107.295 212.816,108.033 212.057 C 109.742 210.300,109.727 209.609,107.969 209.166 C 106.697 208.846,106.666 208.890,107.647 209.624 C 108.243 210.071,108.565 210.602,108.362 210.805 C 107.808 211.358,103.872 206.036,104.299 205.313 C 104.502 204.969,104.673 204.500,104.678 204.271 C 104.683 204.042,104.944 203.620,105.256 203.333 C 105.587 203.031,105.637 203.140,105.376 203.594 C 105.129 204.023,105.224 204.375,105.588 204.375 C 106.426 204.375,106.451 203.323,105.625 202.813 C 105.281 202.600,105.000 202.145,105.000 201.801 C 105.000 201.457,105.281 201.350,105.625 201.563 C 106.449 202.072,106.418 200.668,105.551 198.180 C 105.102 196.893,104.544 196.291,103.996 196.502 C 103.525 196.682,103.183 196.629,103.235 196.384 C 103.713 194.137,100.074 190.239,99.048 191.899 C 98.843 192.229,99.054 192.500,99.516 192.500 C 100.650 192.500,102.718 196.041,101.885 196.556 C 100.864 197.188,100.090 196.352,100.444 195.000 C 100.694 194.045,100.310 193.557,98.812 192.928 C 97.735 192.475,97.070 191.867,97.333 191.577 C 97.597 191.288,97.325 191.226,96.728 191.440 C 95.988 191.705,95.432 191.390,94.975 190.445 C 94.330 189.113,94.342 189.107,95.278 190.276 C 96.103 191.306,96.250 191.334,96.250 190.463 C 96.250 189.899,95.771 189.169,95.185 188.841 C 94.278 188.334,94.232 187.998,94.875 186.587 C 95.290 185.675,95.881 185.084,96.187 185.274 C 96.493 185.463,96.917 185.166,97.129 184.614 C 97.394 183.923,97.242 183.715,96.640 183.946 C 96.026 184.182,95.859 183.927,96.079 183.085 C 96.251 182.427,96.622 182.031,96.903 182.205 C 97.184 182.378,97.609 182.204,97.848 181.817 C 98.159 181.315,97.558 181.236,95.751 181.541 C 93.063 181.995,90.938 180.763,90.938 178.750 C 90.938 178.234,90.305 177.723,89.531 177.613 C 88.310 177.439,88.138 177.070,88.225 174.800 C 88.313 172.497,88.355 172.428,88.577 174.218 C 88.800 176.016,91.250 178.532,91.250 176.964 C 91.250 176.645,90.828 176.222,90.313 176.024 C 89.073 175.548,89.130 174.495,90.545 171.720 C 91.340 170.160,91.490 169.333,91.013 169.137 C 90.628 168.979,91.133 168.826,92.135 168.799 C 93.138 168.772,93.763 168.554,93.524 168.315 C 92.871 167.662,91.066 167.508,90.334 168.043 C 89.546 168.618,88.691 168.579,87.656 167.922 C 87.227 167.649,86.654 167.563,86.384 167.730 C 86.114 167.897,85.893 167.491,85.893 166.829 C 85.893 166.167,86.130 165.625,86.421 165.625 C 86.711 165.625,86.777 165.347,86.567 165.007 C 86.340 164.640,86.621 164.556,87.258 164.801 C 87.918 165.054,88.177 164.965,87.932 164.568 C 87.677 164.156,88.520 163.983,90.282 164.087 C 93.334 164.267,95.182 162.083,94.616 158.963 C 94.470 158.158,94.654 157.500,95.025 157.500 C 95.395 157.500,95.498 157.175,95.253 156.778 C 94.976 156.330,95.081 156.227,95.533 156.506 C 95.939 156.757,96.424 156.524,96.634 155.977 C 96.840 155.440,97.401 155.000,97.879 155.000 C 99.002 155.000,98.965 153.149,97.813 151.627 C 97.319 150.974,97.064 150.199,97.247 149.904 C 97.430 149.608,97.141 149.198,96.606 148.993 C 96.070 148.787,95.813 148.297,96.033 147.903 C 96.253 147.510,95.784 147.858,94.989 148.678 C 93.610 150.101,93.506 150.117,92.710 149.027 C 91.725 147.680,91.617 146.250,92.500 146.250 C 92.844 146.250,93.125 145.688,93.125 145.000 C 93.125 143.583,92.477 143.398,91.375 144.500 C 90.814 145.061,90.625 145.066,90.625 144.520 C 90.625 143.353,88.605 144.355,86.656 146.488 C 84.413 148.943,81.563 148.660,81.563 145.982 C 81.563 145.614,80.908 145.220,80.108 145.107 C 79.112 144.965,78.768 144.605,79.015 143.962 C 79.213 143.445,79.375 142.483,79.375 141.824 C 79.375 140.224,80.543 140.294,81.148 141.930 C 81.582 143.103,81.714 143.135,82.454 142.242 C 82.907 141.697,83.665 141.250,84.139 141.250 C 85.297 141.250,85.240 139.601,84.066 139.150 C 82.968 138.729,82.916 133.756,84.009 133.740 C 84.382 133.735,84.266 133.458,83.750 133.125 C 83.094 132.701,83.053 132.516,83.613 132.510 C 84.054 132.504,84.579 132.930,84.781 133.455 C 85.576 135.529,87.214 135.637,93.213 134.012 C 100.702 131.983,105.788 131.522,109.382 132.546 C 110.925 132.986,112.412 133.292,112.686 133.226 C 112.960 133.159,113.101 133.591,112.998 134.184 C 112.700 135.918,115.843 136.976,121.854 137.165 C 128.104 137.361,128.750 137.601,128.750 139.724 C 128.750 140.940,129.071 141.250,130.332 141.250 C 131.285 141.250,132.057 141.685,132.274 142.344 C 133.242 145.287,134.498 147.468,135.147 147.335 C 136.193 147.121,136.718 150.595,136.005 153.007 C 135.542 154.568,135.646 155.873,136.426 158.319 C 136.995 160.103,137.644 162.531,137.869 163.715 C 138.229 165.611,138.369 165.741,139.051 164.808 C 140.073 163.411,140.625 163.470,140.625 164.976 C 140.625 165.650,141.195 166.732,141.892 167.381 C 143.517 168.895,144.134 173.017,142.811 173.524 C 141.280 174.112,141.639 176.755,143.281 176.988 C 144.165 177.113,145.020 177.943,145.582 179.219 C 146.210 180.648,146.895 181.250,147.888 181.250 C 148.665 181.250,149.478 181.536,149.694 181.885 C 149.910 182.235,150.323 182.374,150.612 182.196 C 151.626 181.569,157.823 183.347,158.802 184.546 C 159.379 185.251,160.292 185.639,160.990 185.475 C 162.150 185.202,162.148 185.177,160.938 184.667 C 160.250 184.377,159.406 183.796,159.063 183.375 C 158.719 182.954,157.317 182.023,155.947 181.305 C 153.791 180.175,153.498 179.664,155.156 179.926 C 155.414 179.967,155.625 179.472,155.625 178.827 C 155.625 174.246,165.621 178.027,166.141 182.805 C 166.364 184.856,167.328 185.790,168.700 185.285 C 169.188 185.105,169.817 185.319,170.097 185.760 C 170.442 186.305,170.609 186.087,170.615 185.083 C 170.623 183.844,170.879 183.653,172.188 183.903 C 173.047 184.067,173.750 183.937,173.750 183.614 C 173.750 182.833,177.680 183.701,178.262 184.610 C 178.509 184.996,179.277 185.313,179.969 185.313 C 180.660 185.313,181.231 185.523,181.238 185.781 C 181.313 188.708,181.218 189.044,180.568 188.125 C 179.979 187.292,179.933 187.292,180.158 188.125 C 180.297 188.641,180.961 189.144,181.634 189.245 C 183.527 189.527,183.583 184.767,181.702 183.449 C 180.215 182.408,179.851 182.512,186.070 182.200 C 186.831 182.162,187.654 181.929,187.901 181.683 C 188.147 181.437,189.212 181.397,190.268 181.594 C 191.324 181.792,193.313 181.704,194.688 181.399 C 196.379 181.024,198.900 181.132,202.486 181.734 C 206.394 182.390,208.072 182.443,208.883 181.937 C 210.266 181.073,211.250 181.057,211.250 181.897 C 211.250 183.708,213.260 185.597,214.487 184.940 C 215.167 184.576,215.572 183.888,215.388 183.410 C 214.792 181.855,216.304 181.708,217.859 183.168 C 218.693 183.952,219.393 184.333,219.415 184.015 C 219.436 183.697,219.750 184.141,220.111 185.000 C 220.515 185.961,220.883 186.254,221.068 185.760 C 221.233 185.319,221.016 184.534,220.586 184.015 C 219.537 182.751,220.684 181.611,222.441 182.169 C 223.417 182.479,223.688 182.974,223.488 184.079 C 223.209 185.617,224.325 188.736,225.156 188.745 C 225.414 188.748,225.625 188.358,225.625 187.879 C 225.625 187.401,226.047 186.847,226.563 186.649 C 227.078 186.451,227.500 185.859,227.500 185.332 C 227.500 184.806,227.748 184.375,228.052 184.375 C 228.921 184.375,229.407 181.656,228.625 181.173 C 227.527 180.494,229.382 179.003,235.135 175.943 C 236.757 175.081,238.460 174.375,238.920 174.375 C 239.380 174.375,241.172 172.898,242.902 171.094 C 245.350 168.541,246.854 167.565,249.674 166.695 C 251.668 166.081,253.997 165.030,254.848 164.360 C 255.700 163.690,256.642 163.293,256.941 163.478 C 257.241 163.664,257.326 163.399,257.131 162.891 C 256.863 162.192,257.132 162.043,258.232 162.279 C 259.646 162.584,259.653 162.565,258.474 161.609 C 257.293 160.651,257.301 160.625,258.787 160.615 C 260.907 160.602,261.991 159.779,261.517 158.544 C 261.223 157.779,261.457 157.500,262.390 157.500 C 263.234 157.500,263.730 157.027,263.863 156.094 C 263.994 155.171,264.492 154.687,265.313 154.687 C 266.000 154.686,266.524 154.405,266.477 154.062 C 266.431 153.718,267.267 152.333,268.336 150.984 C 269.599 149.389,270.011 148.441,269.514 148.276 C 268.379 147.897,268.575 147.021,270.300 144.759 C 271.457 143.243,271.671 142.546,271.142 142.017 C 270.613 141.488,270.854 140.755,272.091 139.133 C 273.004 137.937,273.750 136.299,273.750 135.493 C 273.750 133.314,275.498 131.158,277.088 131.376 C 278.179 131.527,278.475 131.203,278.633 129.688 C 278.740 128.656,279.260 127.480,279.789 127.073 C 280.383 126.616,280.554 126.019,280.237 125.510 C 279.344 124.079,279.350 122.500,280.250 122.500 C 281.492 122.500,282.042 120.650,280.927 120.222 C 279.585 119.707,279.789 118.063,281.243 117.683 C 281.927 117.504,282.333 117.110,282.146 116.808 C 281.959 116.506,282.525 116.318,283.403 116.390 C 284.281 116.463,285.000 116.883,285.000 117.324 C 285.000 117.764,285.298 118.125,285.662 118.125 C 286.026 118.125,286.193 118.336,286.034 118.594 C 285.875 118.852,286.418 119.063,287.240 119.063 C 288.063 119.063,288.877 118.696,289.048 118.249 C 289.247 117.731,289.079 117.604,288.587 117.900 C 288.080 118.204,288.111 117.997,288.676 117.301 C 289.488 116.300,289.589 116.302,290.371 117.337 C 291.135 118.348,291.182 118.321,290.946 117.015 C 290.803 116.220,290.952 115.753,291.283 115.958 C 291.608 116.159,291.875 116.729,291.875 117.224 C 291.875 117.720,292.105 118.125,292.386 118.125 C 292.667 118.125,292.733 116.930,292.533 115.469 C 292.225 113.223,291.953 112.820,290.772 112.862 C 290.004 112.889,289.375 112.711,289.375 112.466 C 289.375 112.221,288.790 111.868,288.076 111.681 C 287.145 111.438,286.870 111.585,287.106 112.201 C 287.403 112.975,285.868 113.957,284.940 113.586 C 284.735 113.504,284.129 113.801,283.594 114.245 C 282.799 114.905,282.566 114.905,282.320 114.245 C 282.101 113.658,281.768 113.763,281.105 114.626 C 279.825 116.290,278.978 114.761,280.172 112.941 C 281.323 111.187,284.316 108.024,285.938 106.846 C 288.080 105.289,290.469 101.614,290.469 99.873 C 290.469 98.958,291.070 97.445,291.804 96.511 C 292.900 95.118,293.082 94.243,292.819 91.626 C 292.222 85.659,291.944 84.194,291.284 83.534 C 290.922 83.172,290.625 82.277,290.625 81.546 C 290.625 80.816,289.929 79.564,289.078 78.765 C 288.228 77.966,287.054 76.018,286.471 74.437 C 285.887 72.856,285.144 71.213,284.819 70.785 C 284.494 70.357,284.363 69.302,284.527 68.441 C 284.757 67.242,284.565 66.875,283.709 66.875 C 282.549 66.875,280.000 64.120,280.000 62.866 C 280.000 62.473,279.453 61.757,278.785 61.275 C 277.586 60.411,277.588 60.383,278.885 59.258 C 279.608 58.631,280.048 57.965,279.862 57.779 C 279.676 57.593,279.089 57.876,278.557 58.408 C 276.774 60.191,276.619 59.398,278.389 57.551 C 279.350 56.547,279.949 55.422,279.719 55.051 C 279.488 54.677,279.736 54.375,280.276 54.375 C 280.812 54.375,281.250 54.064,281.250 53.683 C 281.250 53.303,281.663 53.150,282.167 53.343 C 282.672 53.537,283.278 53.383,283.514 53.001 C 283.794 52.549,283.655 52.485,283.115 52.818 C 282.509 53.193,282.398 53.043,282.699 52.258 C 282.925 51.668,282.875 51.331,282.587 51.509 C 281.950 51.902,279.371 49.048,279.385 47.964 C 279.391 47.442,279.615 47.495,280.069 48.125 C 280.638 48.916,280.688 48.892,280.391 47.969 C 280.198 47.367,280.312 46.875,280.645 46.875 C 280.978 46.875,281.250 46.559,281.250 46.173 C 281.250 45.687,281.011 45.668,280.469 46.114 C 280.039 46.466,278.992 46.852,278.143 46.971 C 276.995 47.132,276.433 47.750,275.955 49.375 C 275.148 52.124,274.504 53.128,273.557 53.115 C 273.024 53.109,273.010 52.976,273.510 52.647 C 274.137 52.233,275.034 50.169,275.360 48.385 C 275.428 48.013,275.082 47.708,274.590 47.708 C 274.098 47.708,273.839 48.079,274.013 48.533 C 274.433 49.628,271.425 49.401,270.483 48.266 C 269.953 47.628,270.105 47.356,271.140 47.085 C 271.880 46.891,272.323 46.470,272.125 46.149 C 271.910 45.802,271.417 45.852,270.909 46.273 C 269.791 47.201,268.711 46.503,269.149 45.136 C 269.350 44.509,269.273 44.323,268.965 44.688 C 268.308 45.466,266.137 45.689,266.606 44.929 C 266.795 44.624,266.545 44.375,266.053 44.375 C 265.518 44.375,265.156 43.757,265.156 42.846 C 265.156 41.512,265.272 41.432,266.060 42.221 C 267.101 43.261,267.757 43.422,267.185 42.496 C 266.971 42.149,267.235 41.697,267.773 41.491 C 268.310 41.285,268.750 40.748,268.750 40.298 C 268.750 39.848,269.034 39.384,269.381 39.269 C 269.728 39.153,269.458 38.712,268.780 38.289 C 267.734 37.636,267.287 37.743,265.827 38.999 C 264.234 40.369,263.990 40.410,262.522 39.548 C 261.045 38.681,261.020 38.686,262.151 39.622 C 263.352 40.615,263.352 40.625,262.151 40.674 C 261.260 40.711,261.184 40.820,261.864 41.087 C 264.141 41.981,265.161 44.440,263.644 45.378 C 263.165 45.674,263.039 45.500,263.279 44.876 C 263.552 44.164,263.222 43.929,261.979 43.950 C 259.285 43.996,257.160 43.112,258.199 42.377 C 258.837 41.926,258.696 41.847,257.655 42.075 C 256.881 42.245,256.394 42.148,256.572 41.860 C 256.750 41.572,256.605 41.157,256.250 40.938 C 255.895 40.718,255.784 40.248,256.004 39.892 C 256.224 39.536,255.683 39.718,254.802 40.295 C 253.224 41.329,252.515 39.152,253.959 37.707 C 254.808 36.859,254.329 36.250,252.813 36.250 C 251.881 36.250,251.250 36.608,251.250 37.135 C 251.250 37.769,250.444 38.021,248.412 38.021 C 245.801 38.021,245.604 37.912,245.953 36.667 C 246.253 35.595,246.195 35.508,245.676 36.250 C 245.315 36.766,245.015 37.683,245.010 38.289 C 244.998 39.565,241.035 39.255,238.032 37.742 C 237.121 37.284,235.366 36.946,234.130 36.993 C 232.895 37.039,231.390 36.647,230.786 36.122 C 230.182 35.596,229.266 35.129,228.750 35.085 C 228.234 35.040,226.584 34.914,225.081 34.805 C 223.328 34.678,221.844 34.120,220.936 33.246 C 219.753 32.107,219.403 32.026,218.802 32.749 C 217.880 33.861,215.731 34.428,215.270 33.681 C 215.074 33.364,214.671 33.254,214.375 33.438 C 214.079 33.621,213.660 33.485,213.444 33.135 C 213.228 32.786,213.307 32.500,213.621 32.500 C 213.934 32.500,214.169 31.011,214.144 29.191 C 214.098 25.966,214.055 25.888,212.419 26.129 C 211.169 26.312,210.681 26.080,210.508 25.219 C 210.320 24.286,210.202 24.243,209.894 25.000 M87.671 29.831 C 87.474 30.345,86.874 30.510,86.098 30.264 C 85.156 29.965,84.966 30.077,85.334 30.714 C 85.604 31.181,85.585 31.343,85.290 31.076 C 84.560 30.411,84.362 28.750,85.013 28.750 C 85.303 28.750,85.735 28.139,85.972 27.392 L 86.403 26.034 87.196 27.517 C 87.633 28.332,87.846 29.374,87.671 29.831 M216.545 29.219 C 216.646 29.820,217.033 30.246,217.404 30.164 C 217.776 30.082,217.930 30.405,217.747 30.882 C 217.564 31.359,217.759 31.961,218.179 32.221 C 218.668 32.523,218.782 32.433,218.497 31.972 C 218.252 31.575,218.332 31.250,218.674 31.250 C 219.017 31.250,219.257 30.718,219.208 30.069 C 219.156 29.378,218.783 29.017,218.310 29.198 C 217.864 29.369,217.500 29.197,217.500 28.817 C 217.500 28.436,217.244 28.125,216.930 28.125 C 216.617 28.125,216.443 28.617,216.545 29.219 M230.411 29.031 C 230.205 29.568,230.531 30.084,231.214 30.301 C 232.323 30.653,233.489 33.125,232.546 33.125 C 232.291 33.125,232.083 33.547,232.083 34.063 C 232.083 34.578,232.489 35.000,232.985 35.000 C 233.644 35.000,233.819 34.423,233.636 32.856 C 233.499 31.677,233.609 30.850,233.881 31.018 C 234.560 31.438,234.500 30.776,233.728 29.334 C 232.969 27.916,230.911 27.728,230.411 29.031 M69.375 30.313 C 69.375 30.828,68.919 31.250,68.361 31.250 C 67.530 31.250,67.488 31.080,68.125 30.313 C 68.553 29.797,69.009 29.375,69.139 29.375 C 69.269 29.375,69.375 29.797,69.375 30.313 M283.750 31.208 C 283.750 31.528,283.130 31.987,282.373 32.228 C 280.013 32.977,279.187 34.193,280.826 34.507 C 282.259 34.781,285.967 31.800,285.176 31.010 C 284.597 30.430,283.750 30.548,283.750 31.208 M235.758 32.936 C 235.693 33.727,235.917 34.375,236.257 34.375 C 236.597 34.375,236.875 34.077,236.875 33.713 C 236.875 33.349,237.153 33.223,237.493 33.433 C 237.860 33.660,237.944 33.379,237.699 32.742 C 237.432 32.046,237.529 31.819,237.976 32.095 C 238.354 32.329,238.844 32.229,239.064 31.872 C 239.312 31.471,238.779 31.276,237.671 31.360 C 236.296 31.465,235.849 31.832,235.758 32.936 M64.773 34.064 C 64.352 35.162,61.814 35.155,61.453 34.055 C 61.183 33.235,63.893 31.966,64.614 32.575 C 64.918 32.831,64.989 33.501,64.773 34.064 M239.375 32.972 C 239.375 33.316,239.797 33.947,240.313 34.375 C 240.835 34.809,241.250 34.877,241.250 34.528 C 241.250 34.184,240.828 33.553,240.313 33.125 C 239.790 32.691,239.375 32.623,239.375 32.972 M79.688 33.750 C 79.900 34.094,79.495 34.375,78.787 34.375 C 78.079 34.375,77.500 34.094,77.500 33.750 C 77.500 33.406,77.905 33.125,78.401 33.125 C 78.896 33.125,79.475 33.406,79.688 33.750 M277.311 34.772 C 276.463 35.620,276.890 36.865,277.969 36.690 C 279.733 36.404,281.812 35.043,280.520 35.019 C 279.946 35.009,279.088 34.851,278.612 34.668 C 278.136 34.485,277.551 34.532,277.311 34.772 M252.879 38.456 C 252.964 39.035,252.514 39.357,251.663 39.326 C 250.920 39.299,250.664 39.134,251.094 38.961 C 251.523 38.788,251.875 38.201,251.875 37.656 C 251.875 36.485,252.685 37.129,252.879 38.456 M259.149 40.313 C 258.943 40.850,259.136 41.250,259.603 41.250 C 260.050 41.250,260.417 40.828,260.417 40.313 C 260.417 39.797,260.212 39.375,259.963 39.375 C 259.713 39.375,259.347 39.797,259.149 40.313 M303.923 43.158 C 303.727 43.905,303.235 44.311,302.750 44.125 C 302.291 43.949,301.703 44.144,301.444 44.559 C 300.690 45.766,300.578 47.500,301.254 47.500 C 301.596 47.500,301.875 47.798,301.875 48.162 C 301.875 48.526,301.594 48.650,301.250 48.438 C 300.906 48.225,300.625 48.368,300.625 48.755 C 300.625 49.196,301.150 49.298,302.031 49.028 C 304.413 48.298,304.929 47.547,304.570 45.334 C 304.295 43.638,304.451 43.200,305.397 43.010 C 306.524 42.783,306.524 42.761,305.411 42.323 C 304.557 41.987,304.172 42.203,303.923 43.158 M67.747 47.912 C 66.978 48.198,67.352 51.250,68.156 51.250 C 68.916 51.250,69.582 48.700,68.968 48.140 C 68.676 47.874,68.127 47.772,67.747 47.912 M88.125 51.250 C 88.125 51.938,88.256 52.500,88.416 52.500 C 88.575 52.500,89.007 51.938,89.375 51.250 C 89.909 50.252,89.850 50.000,89.084 50.000 C 88.542 50.000,88.125 50.543,88.125 51.250 M272.879 51.614 C 272.671 52.157,272.500 52.877,272.500 53.213 C 272.500 53.549,272.245 53.666,271.934 53.474 C 271.216 53.030,271.812 50.625,272.640 50.625 C 272.980 50.625,273.088 51.070,272.879 51.614 M332.872 57.597 C 333.169 58.077,333.041 58.147,332.490 57.807 C 331.897 57.440,331.771 57.576,332.044 58.289 C 332.514 59.515,330.956 61.041,330.307 59.991 C 330.071 59.609,330.371 58.751,330.973 58.086 C 332.258 56.665,332.291 56.657,332.872 57.597 M87.292 59.167 C 86.205 60.253,86.967 61.215,88.750 61.007 C 90.603 60.792,91.356 61.510,89.844 62.050 C 89.389 62.212,89.294 62.561,89.617 62.883 C 89.939 63.206,90.288 63.111,90.450 62.656 C 90.604 62.227,91.181 61.875,91.734 61.875 C 92.562 61.875,92.527 61.720,91.533 60.993 C 90.869 60.508,90.042 60.281,89.694 60.488 C 89.347 60.695,89.449 60.389,89.920 59.807 C 90.805 58.717,88.342 58.116,87.292 59.167 M86.296 62.757 C 85.365 63.879,86.640 64.860,87.679 63.821 C 88.190 63.310,88.134 63.122,87.469 63.115 C 86.698 63.107,86.703 63.015,87.500 62.500 C 88.016 62.167,88.120 61.890,87.733 61.885 C 87.345 61.879,86.699 62.272,86.296 62.757 M61.069 64.375 C 61.274 65.158,61.088 65.625,60.573 65.625 C 59.950 65.625,59.925 65.800,60.474 66.349 C 61.022 66.897,61.431 66.878,62.161 66.272 C 63.404 65.240,63.393 63.986,62.136 63.504 C 60.733 62.966,60.706 62.988,61.069 64.375 M340.644 67.351 C 337.510 70.623,337.470 72.736,340.594 70.027 C 341.369 69.355,342.959 68.489,344.127 68.104 C 346.365 67.365,346.926 66.018,345.261 65.379 C 343.561 64.727,342.877 65.019,340.644 67.351 M49.975 66.563 C 49.907 66.906,49.884 67.395,49.924 67.649 C 49.963 67.903,48.990 68.530,47.762 69.043 C 45.477 69.998,44.945 71.905,46.875 72.224 C 47.391 72.310,48.305 72.577,48.906 72.819 C 50.148 73.318,50.270 72.923,49.386 71.270 C 48.887 70.339,48.976 70.172,49.855 70.382 C 51.703 70.825,52.718 69.702,52.229 67.756 C 51.919 66.519,51.640 66.244,51.283 66.822 C 50.869 67.492,50.714 67.486,50.437 66.789 C 50.251 66.321,50.043 66.219,49.975 66.563 M54.375 82.433 C 54.375 82.740,54.820 83.162,55.364 83.371 C 56.761 83.907,56.875 83.864,56.875 82.813 C 56.875 82.292,56.319 81.875,55.625 81.875 C 54.938 81.875,54.375 82.126,54.375 82.433 M372.769 98.603 C 372.401 98.856,372.271 99.755,372.479 100.602 L 372.858 102.142 374.264 100.736 C 376.143 98.857,374.926 97.122,372.769 98.603 M5.650 113.408 C 5.211 113.936,4.985 114.876,5.147 115.496 C 5.346 116.256,5.077 116.650,4.319 116.707 C 3.538 116.766,3.295 116.472,3.520 115.740 C 3.805 114.815,3.759 114.820,3.141 115.781 C 2.754 116.383,2.030 116.875,1.531 116.875 C 0.811 116.875,0.631 117.930,0.652 122.031 L 0.680 127.188 1.609 124.688 C 2.120 123.313,2.599 121.019,2.673 119.590 C 2.748 118.161,3.036 117.133,3.315 117.305 C 3.987 117.720,7.126 116.918,6.658 116.450 C 6.458 116.250,6.591 115.530,6.955 114.851 C 7.818 113.239,6.760 112.070,5.650 113.408 M33.596 130.521 C 33.431 131.151,33.609 131.689,33.992 131.716 C 36.988 131.927,38.080 132.285,38.687 133.256 C 39.236 134.135,39.194 134.375,38.495 134.375 C 38.005 134.375,37.510 134.131,37.396 133.833 C 37.023 132.862,34.189 132.255,34.511 133.216 C 34.667 133.681,35.330 134.063,35.983 134.064 C 36.636 134.064,37.266 134.556,37.381 135.157 C 37.621 136.402,36.522 136.656,36.032 135.469 C 35.836 134.995,35.541 135.242,35.282 136.094 C 34.766 137.790,34.327 137.849,33.077 136.390 C 31.794 134.891,31.721 129.375,32.984 129.375 C 33.560 129.375,33.786 129.797,33.596 130.521 M3.438 133.750 C 3.225 134.094,3.233 134.669,3.454 135.027 C 3.676 135.386,3.512 136.096,3.090 136.605 C 2.667 137.114,2.482 137.690,2.677 137.886 C 2.873 138.081,3.521 137.301,4.117 136.152 C 4.738 134.956,5.318 134.408,5.474 134.870 C 5.785 135.791,7.500 134.714,7.500 133.597 C 7.500 133.231,7.135 133.275,6.618 133.704 C 6.015 134.204,5.608 134.228,5.331 133.780 C 4.820 132.952,3.939 132.938,3.438 133.750 M391.875 133.787 C 391.875 134.151,391.594 134.275,391.250 134.063 C 390.906 133.850,390.625 133.965,390.625 134.318 C 390.625 134.672,390.203 134.799,389.688 134.601 C 389.172 134.403,388.750 134.569,388.750 134.970 C 388.750 135.371,388.495 135.541,388.183 135.349 C 387.872 135.156,387.770 135.585,387.957 136.302 C 388.171 137.120,388.461 137.342,388.736 136.898 C 389.246 136.072,390.785 137.584,390.491 138.622 C 390.393 138.967,390.523 139.278,390.781 139.313 C 392.101 139.489,392.536 139.314,392.188 138.750 C 391.975 138.406,392.116 138.125,392.500 138.125 C 392.884 138.125,392.995 137.796,392.747 137.394 C 392.446 136.907,392.632 136.792,393.302 137.049 C 394.090 137.351,394.283 137.068,394.186 135.749 C 394.035 133.682,391.875 131.849,391.875 133.787 M48.750 135.000 C 48.750 135.688,48.502 136.250,48.198 136.250 C 47.894 136.250,47.499 135.688,47.319 135.000 C 47.106 134.188,47.300 133.750,47.871 133.750 C 48.354 133.750,48.750 134.313,48.750 135.000 M10.000 136.533 C 10.000 136.689,9.674 137.533,9.275 138.408 C 8.474 140.166,7.500 140.525,7.500 139.063 C 7.500 138.547,7.781 138.125,8.125 138.125 C 8.469 138.125,8.750 137.703,8.750 137.188 C 8.750 136.672,9.031 136.250,9.375 136.250 C 9.719 136.250,10.000 136.377,10.000 136.533 M63.081 141.682 C 63.105 141.404,63.427 141.363,63.797 141.591 C 64.190 141.834,63.757 142.375,62.751 142.897 C 60.947 143.833,59.181 142.783,60.814 141.745 C 61.226 141.483,61.281 141.261,60.938 141.250 C 60.594 141.239,60.734 140.964,61.250 140.638 C 61.927 140.210,62.305 140.343,62.612 141.117 C 62.846 141.706,63.057 141.960,63.081 141.682 M398.194 142.995 C 397.669 143.978,397.729 144.329,398.473 144.614 C 399.623 145.056,400.440 143.315,399.516 142.391 C 399.066 141.941,398.659 142.127,398.194 142.995 M108.308 144.043 C 105.921 145.359,105.805 145.529,107.058 145.882 C 108.419 146.265,108.421 146.283,107.208 147.210 C 104.847 149.013,105.846 157.776,108.666 160.000 C 110.360 161.336,110.722 162.492,109.750 163.465 C 109.200 164.014,108.750 164.294,108.750 164.085 C 108.750 163.877,108.188 164.007,107.500 164.375 C 106.813 164.743,106.250 165.473,106.250 165.996 C 106.250 166.520,105.964 166.772,105.615 166.556 C 105.265 166.340,105.179 165.831,105.422 165.426 C 105.674 165.005,105.410 165.057,104.807 165.545 C 103.719 166.428,103.304 167.850,104.317 167.224 C 104.628 167.031,104.720 167.506,104.521 168.280 C 104.190 169.563,104.256 169.607,105.265 168.780 C 106.237 167.982,106.438 167.991,106.920 168.852 C 107.283 169.501,108.055 169.739,109.203 169.555 C 110.557 169.338,110.732 169.423,110.000 169.941 C 109.242 170.479,109.384 170.608,110.744 170.615 C 111.669 170.621,112.600 170.906,112.813 171.250 C 113.025 171.594,112.741 171.875,112.181 171.875 C 111.483 171.875,111.226 172.317,111.363 173.281 C 111.594 174.911,114.489 175.578,115.975 174.344 C 116.676 173.762,116.875 173.768,116.875 174.371 C 116.875 174.838,117.372 175.016,118.125 174.819 C 119.148 174.552,119.375 174.800,119.375 176.183 C 119.375 177.520,119.800 178.031,121.406 178.626 C 122.788 179.137,124.026 180.372,125.276 182.486 C 126.287 184.195,127.236 185.472,127.385 185.324 C 127.533 185.175,127.058 184.041,126.327 182.803 C 125.597 181.566,125.000 180.131,125.000 179.615 C 125.000 179.099,124.738 178.838,124.418 179.036 C 124.098 179.234,123.660 179.110,123.444 178.760 C 123.228 178.411,123.471 178.125,123.983 178.125 C 125.038 178.125,127.500 181.291,127.500 182.649 C 127.500 183.140,127.695 183.736,127.933 183.974 C 128.768 184.810,128.801 186.979,127.971 186.493 C 127.540 186.241,127.680 186.598,128.281 187.286 C 128.883 187.973,129.375 188.835,129.375 189.200 C 129.375 190.061,131.853 190.677,133.539 190.236 C 134.444 190.000,135.153 190.320,135.814 191.264 C 136.402 192.103,137.075 192.450,137.547 192.159 C 138.078 191.830,138.159 191.940,137.807 192.510 C 137.433 193.114,137.582 193.227,138.359 192.929 C 139.016 192.677,139.558 192.873,139.777 193.444 C 139.972 193.952,140.383 194.212,140.690 194.022 C 140.998 193.832,141.250 193.974,141.250 194.338 C 141.250 194.702,141.461 194.967,141.719 194.926 C 141.977 194.885,142.328 194.907,142.500 194.974 C 143.526 195.374,145.650 195.651,147.969 195.687 C 150.125 195.721,150.625 195.947,150.625 196.890 C 150.625 198.206,151.606 199.097,151.781 197.941 C 152.378 194.017,151.589 191.205,150.144 192.099 C 149.874 192.266,148.957 191.837,148.108 191.147 C 147.258 190.456,146.942 190.091,147.406 190.334 C 148.086 190.690,148.112 190.519,147.540 189.450 C 147.150 188.721,146.684 188.125,146.504 188.125 C 146.324 188.125,146.350 188.406,146.563 188.750 C 146.775 189.094,146.651 189.375,146.287 189.375 C 145.923 189.375,145.590 188.953,145.547 188.438 C 145.367 186.277,145.219 185.945,144.503 186.094 C 144.089 186.180,143.750 185.828,143.750 185.312 C 143.750 184.797,144.048 184.375,144.412 184.375 C 144.776 184.375,144.929 184.141,144.752 183.854 C 144.575 183.568,143.574 183.459,142.528 183.613 C 140.401 183.925,139.783 182.102,141.525 180.656 C 142.414 179.919,142.184 177.860,141.276 178.421 C 141.018 178.581,140.484 178.001,140.089 177.133 C 139.693 176.265,139.131 175.702,138.839 175.882 C 138.548 176.062,137.776 175.806,137.123 175.312 C 136.457 174.808,134.516 174.406,132.693 174.395 C 130.909 174.384,129.260 174.069,129.029 173.696 C 128.798 173.322,128.078 173.155,127.429 173.325 C 126.228 173.639,126.111 173.454,126.111 171.250 C 126.111 168.695,126.206 168.603,128.413 169.017 C 131.348 169.567,134.091 165.848,133.546 162.054 C 131.621 148.656,125.895 142.443,115.565 142.546 C 111.957 142.583,110.358 142.912,108.308 144.043 M398.980 146.741 C 399.401 147.423,398.884 148.052,396.619 149.617 C 393.808 151.559,395.779 160.340,398.677 158.789 C 400.210 157.969,400.727 147.398,399.278 146.503 C 398.845 146.235,398.726 146.330,398.980 146.741 M54.526 150.781 C 54.443 151.039,54.691 151.250,55.077 151.250 C 55.561 151.250,55.538 151.540,55.000 152.188 C 53.792 153.643,53.092 153.293,53.750 151.563 C 54.132 150.558,54.126 150.000,53.735 150.000 C 53.399 150.000,53.125 150.422,53.125 150.938 C 53.125 151.453,52.863 151.875,52.543 151.875 C 52.222 151.875,52.062 151.102,52.187 150.156 C 52.312 149.211,52.433 148.164,52.457 147.830 C 52.481 147.495,52.990 147.917,53.589 148.767 C 54.188 149.617,54.610 150.523,54.526 150.781 M70.873 151.979 C 70.696 152.266,70.076 152.504,69.494 152.510 C 68.584 152.518,68.567 152.603,69.375 153.125 C 70.104 153.596,70.123 153.733,69.460 153.740 C 68.874 153.747,68.692 154.324,68.878 155.592 C 69.027 156.605,68.918 157.292,68.637 157.118 C 67.812 156.608,68.042 152.007,68.906 151.719 C 70.196 151.289,71.216 151.424,70.873 151.979 M80.749 156.414 C 78.922 158.241,78.750 158.299,78.750 157.086 C 78.750 155.880,80.240 154.654,81.406 154.901 C 81.664 154.955,81.875 154.672,81.875 154.271 C 81.875 153.870,82.072 153.738,82.312 153.978 C 82.552 154.219,81.849 155.315,80.749 156.414 M86.628 155.731 C 86.930 156.220,86.742 156.333,86.060 156.071 C 85.499 155.856,84.892 155.919,84.711 156.212 C 84.086 157.223,86.512 157.592,87.240 156.597 C 88.282 155.172,89.085 155.410,89.232 157.188 C 89.319 158.237,89.043 158.750,88.394 158.750 C 87.862 158.750,87.595 159.023,87.801 159.357 C 88.007 159.690,87.431 160.150,86.521 160.379 C 85.462 160.645,84.689 160.509,84.376 160.001 C 84.051 159.476,83.738 159.884,83.446 161.211 C 82.970 163.380,82.328 163.315,82.164 161.082 C 82.107 160.316,82.457 159.400,82.940 159.046 C 83.424 158.693,83.882 157.989,83.959 157.483 C 84.292 155.273,85.753 154.315,86.628 155.731 M78.260 158.332 C 78.392 159.937,79.375 160.764,79.375 159.271 C 79.375 158.870,79.544 158.711,79.750 158.917 C 80.186 159.353,76.295 164.375,75.520 164.375 C 74.356 164.375,75.003 160.708,76.237 160.317 C 76.918 160.101,77.447 159.730,77.413 159.493 C 77.380 159.256,77.385 158.383,77.426 157.552 C 77.520 155.623,78.079 156.145,78.260 158.332 M141.004 160.364 C 140.796 160.907,140.625 161.751,140.625 162.239 C 140.625 162.726,140.344 163.125,140.000 163.125 C 139.305 163.125,139.137 160.446,139.792 159.792 C 140.583 159.001,141.383 159.378,141.004 160.364 M115.625 164.296 C 117.176 164.685,118.235 167.500,116.831 167.500 C 116.471 167.500,116.350 167.219,116.563 166.875 C 116.775 166.531,116.494 166.250,115.938 166.250 C 115.381 166.250,115.090 166.514,115.289 166.837 C 115.489 167.160,115.091 167.382,114.405 167.330 C 113.719 167.279,113.020 166.879,112.852 166.441 C 112.685 166.004,112.115 165.812,111.586 166.015 C 111.058 166.218,110.625 166.056,110.625 165.655 C 110.625 165.254,110.906 165.100,111.250 165.313 C 111.594 165.525,111.875 165.090,111.875 164.345 C 111.875 163.298,112.123 163.095,112.969 163.448 C 113.570 163.699,114.766 164.081,115.625 164.296 M96.394 166.319 C 94.689 166.950,94.226 167.827,95.515 167.987 C 100.767 168.638,103.545 168.412,103.269 167.357 C 103.112 166.756,102.734 166.418,102.429 166.606 C 102.124 166.795,101.874 166.721,101.873 166.443 C 101.871 165.794,98.048 165.707,96.394 166.319 M148.477 168.845 L 150.313 170.814 148.281 169.352 C 147.164 168.548,146.250 167.662,146.250 167.382 C 146.250 166.572,146.531 166.757,148.477 168.845 M89.680 170.469 C 89.565 171.070,89.449 171.649,89.423 171.756 C 89.397 171.862,89.080 171.767,88.720 171.544 C 88.272 171.267,88.296 170.860,88.796 170.257 C 89.755 169.102,89.934 169.144,89.680 170.469 M114.018 170.357 C 115.058 171.397,115.379 174.375,114.452 174.375 C 113.149 174.375,112.453 172.652,113.578 172.214 C 114.588 171.821,114.556 171.675,113.212 170.579 C 112.400 169.917,112.029 169.375,112.386 169.375 C 112.743 169.375,113.478 169.817,114.018 170.357 M155.712 174.329 C 157.044 175.415,157.081 175.574,156.094 175.958 C 154.501 176.578,153.125 175.854,153.125 174.395 C 153.125 172.807,153.824 172.789,155.712 174.329 M241.302 176.857 C 240.472 178.204,239.628 179.277,239.427 179.243 C 239.227 179.208,238.359 179.502,237.500 179.897 L 235.938 180.614 237.500 180.463 C 238.403 180.376,239.006 180.615,238.928 181.030 C 238.773 181.853,241.071 181.420,241.626 180.522 C 241.822 180.205,241.643 179.536,241.227 179.035 C 240.782 178.498,240.732 178.125,241.107 178.125 C 241.456 178.125,241.903 178.547,242.101 179.063 C 242.299 179.578,242.742 180.000,243.086 180.000 C 243.430 180.000,243.532 179.533,243.312 178.962 C 242.998 178.143,243.195 177.997,244.241 178.271 C 247.038 179.003,247.904 177.226,245.479 175.728 C 242.758 174.046,243.092 173.956,241.302 176.857 M121.855 177.776 C 121.844 178.140,121.422 177.892,120.918 177.224 C 120.413 176.557,120.009 175.713,120.020 175.349 C 120.031 174.985,120.453 175.233,120.957 175.901 C 121.462 176.568,121.866 177.412,121.855 177.776 M225.963 179.417 C 226.538 180.347,225.871 180.853,224.675 180.394 C 224.123 180.182,223.846 179.726,224.060 179.379 C 224.566 178.560,225.444 178.577,225.963 179.417 M152.547 180.172 C 152.470 180.919,151.612 180.774,151.344 179.969 C 151.206 179.556,151.431 179.331,151.844 179.469 C 152.256 179.606,152.573 179.923,152.547 180.172 M236.042 181.667 C 235.333 182.376,235.581 183.125,236.526 183.125 C 237.021 183.125,237.627 183.450,237.872 183.847 C 238.148 184.294,238.044 184.398,237.597 184.122 C 237.169 183.858,236.875 184.073,236.875 184.651 C 236.875 185.607,238.079 186.076,238.173 185.156 C 238.199 184.898,238.315 184.195,238.430 183.594 C 238.553 182.953,238.259 182.500,237.720 182.500 C 237.215 182.500,236.975 182.219,237.188 181.875 C 237.617 181.180,236.696 181.012,236.042 181.667 M231.951 182.440 C 231.407 182.784,231.286 183.299,231.623 183.836 C 231.916 184.304,232.252 185.386,232.369 186.239 C 232.619 188.062,232.428 187.851,234.370 188.450 C 235.765 188.880,235.838 188.823,235.075 187.903 C 234.298 186.967,234.531 186.604,235.781 186.801 C 236.688 186.944,236.236 185.151,234.955 183.522 C 233.545 181.729,233.244 181.621,231.951 182.440 M197.529 183.732 C 197.043 184.033,196.916 184.578,197.215 185.086 C 197.490 185.554,197.152 185.445,196.463 184.843 C 194.997 183.560,191.184 183.636,190.744 184.956 C 190.543 185.557,190.779 185.700,191.510 185.419 C 192.133 185.180,192.409 185.267,192.183 185.632 C 191.627 186.531,189.520 186.388,188.937 185.412 C 188.662 184.951,187.867 184.432,187.171 184.257 L 185.904 183.940 187.171 186.629 C 187.867 188.108,188.873 189.331,189.406 189.346 C 189.939 189.362,190.748 189.727,191.203 190.156 C 191.866 190.781,192.089 190.781,192.318 190.156 C 192.475 189.727,193.314 189.375,194.181 189.375 C 195.277 189.375,195.656 189.108,195.423 188.499 C 195.083 187.615,196.654 186.901,198.973 186.884 C 199.767 186.878,200.016 187.182,199.762 187.845 C 199.548 188.401,199.653 188.652,200.007 188.433 C 200.347 188.223,200.625 188.328,200.625 188.667 C 200.625 189.006,200.133 189.428,199.531 189.606 C 198.663 189.862,198.692 189.902,199.672 189.802 C 200.351 189.733,201.219 189.048,201.602 188.280 C 201.985 187.512,202.811 186.317,203.437 185.625 C 204.063 184.933,204.388 184.180,204.159 183.950 C 203.531 183.323,198.461 183.156,197.529 183.732 M201.746 184.975 C 201.209 185.835,200.844 185.979,200.523 185.460 C 200.272 185.053,200.403 184.506,200.814 184.245 C 202.135 183.405,202.532 183.716,201.746 184.975 M109.628 191.493 C 109.220 192.555,109.768 193.750,110.662 193.750 C 111.450 193.750,111.416 191.426,110.621 190.935 C 110.274 190.721,109.828 190.972,109.628 191.493 M139.592 197.924 C 139.152 198.086,139.486 198.805,140.450 199.768 C 141.373 200.691,142.260 201.115,142.585 200.790 C 143.273 200.102,140.608 197.551,139.592 197.924 M125.995 200.093 C 126.585 201.048,130.403 202.841,131.406 202.634 C 133.021 202.301,132.737 201.130,131.094 201.342 C 129.488 201.550,127.950 200.790,128.423 200.023 C 128.598 199.740,128.067 199.548,127.243 199.598 C 126.419 199.647,125.858 199.870,125.995 200.093 M116.875 202.433 C 116.875 203.123,118.497 203.795,118.984 203.307 C 119.181 203.111,119.191 202.709,119.009 202.413 C 118.570 201.703,116.875 201.719,116.875 202.433 M133.606 204.882 C 134.388 205.676,134.876 206.570,134.691 206.870 C 134.506 207.169,134.628 207.583,134.963 207.789 C 135.297 207.996,135.403 208.601,135.198 209.135 C 134.994 209.668,134.654 209.851,134.444 209.541 C 134.037 208.938,129.136 206.875,128.112 206.875 C 127.776 206.875,127.471 207.367,127.436 207.969 C 127.401 208.570,127.088 208.179,126.740 207.099 C 126.172 205.334,123.425 203.241,122.669 203.998 C 122.204 204.462,123.155 205.680,123.713 205.335 C 124.449 204.881,127.733 212.468,127.830 214.845 C 127.909 216.785,127.860 216.829,126.754 215.828 C 125.881 215.038,125.787 214.661,126.373 214.299 C 126.801 214.034,127.007 213.673,126.830 213.496 C 126.330 212.996,123.750 213.824,123.750 214.485 C 123.750 214.809,124.080 214.870,124.483 214.621 C 124.886 214.372,124.746 214.839,124.171 215.660 C 123.595 216.481,123.147 217.864,123.174 218.733 C 123.227 220.424,123.406 220.119,124.042 217.253 C 124.335 215.935,124.631 215.631,125.133 216.133 C 125.635 216.635,125.607 217.082,125.029 217.778 C 124.592 218.304,124.398 219.160,124.598 219.680 C 124.798 220.200,124.688 220.625,124.355 220.625 C 124.022 220.625,123.746 221.398,123.740 222.344 C 123.733 223.595,123.579 223.823,123.173 223.182 C 122.867 222.697,122.760 221.924,122.937 221.463 C 123.114 221.002,122.917 220.625,122.499 220.625 C 122.008 220.625,121.873 221.159,122.119 222.136 C 122.355 223.079,122.205 223.745,121.718 223.909 C 120.425 224.344,124.791 224.575,134.704 224.596 C 144.553 224.617,147.868 224.127,145.097 223.061 C 144.291 222.750,143.485 221.935,143.306 221.248 C 143.126 220.562,142.747 220.000,142.462 220.000 C 142.178 220.000,141.020 218.453,139.889 216.563 C 138.758 214.672,137.617 213.125,137.354 213.125 C 137.091 213.125,136.875 212.703,136.875 212.188 C 136.875 211.672,136.523 211.246,136.094 211.240 C 135.566 211.234,135.611 211.042,136.234 210.648 C 137.188 210.045,138.320 210.953,139.756 213.472 C 140.635 215.014,141.897 215.051,143.234 213.574 C 143.809 212.938,144.442 212.436,144.640 212.459 C 147.548 212.791,147.205 211.553,144.212 210.913 C 141.676 210.371,140.604 209.533,141.029 208.424 C 141.790 206.442,135.752 202.348,134.097 203.722 C 133.683 204.065,133.084 204.141,132.765 203.891 C 132.446 203.642,132.825 204.087,133.606 204.882 M104.537 207.724 C 105.277 207.917,105.704 208.255,105.485 208.474 C 105.266 208.693,104.229 208.365,103.181 207.746 C 101.863 206.967,101.512 206.472,102.044 206.139 C 102.499 205.854,102.890 206.007,103.002 206.515 C 103.107 206.986,103.797 207.530,104.537 207.724 M128.750 211.515 C 128.750 211.964,129.313 213.047,130.000 213.921 C 131.542 215.880,131.613 217.503,130.156 217.490 C 129.300 217.483,129.248 217.363,129.914 216.941 C 130.602 216.505,130.452 215.865,129.133 213.615 C 127.402 210.660,127.103 209.681,128.125 210.313 C 128.469 210.525,128.750 211.066,128.750 211.515 " stroke="none" fill="#000000" fill-rule="evenodd"></path></g></svg>