<svg id="svg" xmlns="http://www.w3.org/2000/svg" xmlns:xlink="http://www.w3.org/1999/xlink" width="400" height="225" viewBox="0, 0, 400,225"><g id="svgg"><path id="path0" d="M0.689 41.719 C 0.724 64.320,0.973 81.884,1.242 80.750 C 2.491 75.475,4.962 78.106,4.456 84.172 C 4.236 86.802,7.386 87.516,9.477 85.311 C 10.280 84.464,11.226 83.767,11.580 83.761 C 11.933 83.755,12.944 82.927,13.826 81.922 C 16.067 79.367,19.983 78.605,20.040 80.712 L 20.079 82.188 20.644 80.781 C 20.955 80.008,21.622 79.375,22.127 79.375 C 22.631 79.375,23.836 78.256,24.803 76.888 C 25.953 75.263,27.049 74.397,27.969 74.388 C 29.405 74.375,29.922 75.838,28.740 76.569 C 27.743 77.185,28.674 78.125,30.283 78.125 C 31.085 78.125,31.903 78.547,32.101 79.063 C 32.554 80.243,33.750 80.292,33.750 79.129 C 33.750 78.651,34.242 78.068,34.844 77.835 C 35.846 77.446,35.852 77.348,34.922 76.662 C 33.770 75.814,33.541 72.413,34.591 71.750 C 34.972 71.510,35.784 71.766,36.396 72.319 C 37.007 72.873,37.691 73.142,37.915 72.918 C 38.139 72.694,38.746 72.860,39.264 73.287 C 40.084 73.963,40.108 73.882,39.455 72.656 C 38.843 71.508,38.868 71.250,39.589 71.250 C 41.222 71.250,42.027 69.644,42.457 65.525 C 42.481 65.298,43.792 65.132,45.370 65.156 C 48.350 65.201,49.558 64.330,48.898 62.610 C 48.674 62.025,48.797 61.831,49.226 62.095 C 49.604 62.329,50.107 62.208,50.343 61.826 C 50.616 61.384,51.413 61.834,52.538 63.066 C 54.354 65.054,56.489 65.725,55.870 64.113 C 55.683 63.625,56.001 62.507,56.577 61.628 C 57.169 60.724,57.692 58.507,57.779 56.526 C 57.881 54.228,58.324 52.568,59.067 51.701 C 59.821 50.820,59.957 50.298,59.474 50.137 C 59.076 50.004,58.750 49.357,58.750 48.698 C 58.750 48.039,58.451 47.500,58.085 47.500 C 57.713 47.500,57.507 46.616,57.617 45.488 C 57.889 42.686,61.430 41.502,63.157 43.634 C 63.765 44.385,64.569 45.000,64.944 45.000 C 65.910 45.000,65.787 44.319,64.673 43.504 C 63.228 42.448,62.672 38.125,63.981 38.125 C 64.541 38.125,65.000 37.664,65.000 37.100 C 65.000 34.846,69.660 33.396,71.146 35.188 C 71.517 35.635,71.915 37.533,72.031 39.407 C 72.165 41.582,72.513 42.790,72.995 42.750 C 73.410 42.716,74.313 42.645,75.000 42.594 C 76.430 42.486,76.692 40.928,75.365 40.419 C 74.649 40.144,74.790 39.418,76.108 36.602 C 78.282 31.955,80.625 31.934,80.625 36.562 C 80.625 37.364,80.897 38.115,81.230 38.229 C 81.563 38.344,81.894 39.422,81.966 40.625 C 82.038 41.828,82.303 43.094,82.556 43.438 C 82.809 43.781,82.785 45.324,82.502 46.866 C 82.045 49.362,82.085 49.538,82.870 48.465 C 83.354 47.803,83.750 46.752,83.750 46.131 C 83.750 45.509,84.071 45.000,84.462 45.000 C 84.854 45.000,85.575 44.508,86.064 43.906 C 86.748 43.065,87.032 43.003,87.294 43.638 C 88.071 45.525,89.493 40.840,89.487 36.410 C 89.484 33.920,89.735 31.726,90.045 31.535 C 90.355 31.343,90.412 30.146,90.172 28.875 C 88.837 21.801,90.332 17.541,92.299 22.813 C 94.498 28.704,94.827 29.452,95.520 30.145 C 95.922 30.547,96.250 31.232,96.250 31.668 C 96.250 32.127,96.657 32.304,97.218 32.089 C 97.776 31.875,98.560 32.214,99.073 32.890 C 99.879 33.955,99.962 33.786,99.980 31.035 C 99.996 28.619,100.235 27.947,101.163 27.704 C 102.422 27.375,104.592 23.859,105.244 21.094 C 105.551 19.789,106.023 19.375,107.199 19.375 C 108.799 19.375,109.454 21.366,108.125 22.188 C 106.829 22.988,107.562 23.726,108.906 22.974 C 110.922 21.846,111.230 21.245,111.240 18.406 C 111.255 14.421,113.067 13.190,114.643 16.094 C 115.562 17.788,115.575 17.761,115.600 14.219 C 115.614 12.242,115.906 10.625,116.250 10.625 C 116.615 10.625,116.875 8.542,116.875 5.625 L 116.875 0.625 58.750 0.625 L 0.625 0.625 0.689 41.719 M267.204 2.000 C 268.180 2.767,269.838 3.375,270.956 3.375 C 272.996 3.375,272.774 6.680,270.687 7.375 C 270.309 7.501,270.000 8.314,270.000 9.181 C 270.000 10.284,270.266 10.657,270.884 10.420 C 272.363 9.852,279.520 12.606,279.850 13.870 C 280.075 14.728,280.768 15.002,282.729 15.010 C 286.415 15.023,287.201 15.667,286.386 18.005 C 285.617 20.210,285.880 20.620,288.073 20.639 C 288.961 20.647,290.365 21.173,291.193 21.810 L 292.698 22.967 291.349 24.861 C 290.607 25.903,290.000 27.029,290.000 27.364 C 290.000 27.698,289.578 28.322,289.063 28.750 C 288.547 29.178,288.125 30.065,288.125 30.721 C 288.125 31.377,288.547 32.076,289.063 32.274 C 289.578 32.472,290.000 33.327,290.000 34.174 C 290.000 37.180,291.818 38.056,294.881 36.528 C 296.253 35.844,297.164 35.736,297.962 36.163 C 298.585 36.496,299.509 36.552,300.016 36.287 C 301.155 35.690,305.000 36.672,305.000 37.559 C 305.000 38.621,303.669 40.833,302.030 42.494 C 301.186 43.350,300.071 45.108,299.554 46.401 C 299.037 47.693,298.329 48.750,297.981 48.750 C 297.617 48.750,297.678 49.149,298.125 49.688 C 299.620 51.489,303.639 50.355,305.041 47.736 C 305.741 46.427,305.690 46.123,304.642 45.356 C 302.666 43.911,305.768 42.415,308.018 43.727 C 308.919 44.253,308.870 44.340,307.656 44.356 C 306.883 44.366,306.250 44.602,306.250 44.880 C 306.250 45.471,310.929 45.331,312.969 44.679 C 314.689 44.129,314.737 44.814,313.125 46.875 C 310.916 49.699,312.157 51.272,315.306 49.638 C 319.169 47.634,319.883 49.327,316.812 53.205 C 315.746 54.551,314.816 56.484,314.746 57.500 C 314.675 58.517,313.971 60.037,313.181 60.878 C 311.198 62.989,311.987 63.811,315.804 63.608 C 319.647 63.404,320.582 64.793,317.515 66.146 C 315.419 67.071,315.096 67.961,316.642 68.555 C 317.268 68.795,318.050 68.456,318.674 67.673 C 319.751 66.321,323.125 65.373,323.125 66.422 C 323.125 66.765,323.872 66.298,324.785 65.385 C 327.799 62.371,332.835 62.655,332.788 65.835 C 332.764 67.469,333.927 68.106,334.688 66.875 C 334.900 66.531,335.515 66.250,336.055 66.250 C 336.594 66.250,338.126 65.266,339.457 64.063 C 340.789 62.859,342.417 61.875,343.076 61.875 C 343.734 61.875,344.714 61.706,345.253 61.499 C 347.383 60.682,348.554 70.011,346.742 73.359 C 345.829 75.046,345.522 77.638,346.291 77.162 C 346.612 76.964,346.879 76.185,346.885 75.432 C 346.891 74.532,347.062 74.326,347.383 74.832 C 347.858 75.580,349.953 75.489,351.288 74.664 C 352.552 73.883,355.137 73.914,356.781 74.730 C 357.692 75.183,359.497 75.467,360.791 75.363 C 363.257 75.163,364.418 76.732,363.526 79.056 C 363.128 80.094,365.976 81.875,368.032 81.875 C 369.251 81.875,371.875 85.481,371.875 87.156 C 371.875 87.616,372.329 88.165,372.883 88.378 C 373.699 88.691,373.744 88.942,373.119 89.695 C 371.988 91.057,373.357 92.422,376.331 92.898 C 377.662 93.111,378.750 93.547,378.750 93.867 C 378.750 94.187,379.031 94.275,379.375 94.063 C 380.288 93.498,380.139 94.794,379.046 96.906 C 378.175 98.592,378.182 98.750,379.134 98.750 C 379.706 98.750,380.491 99.183,380.878 99.712 C 381.623 100.731,385.892 99.719,387.909 98.045 C 388.998 97.141,392.608 100.877,392.462 102.756 C 392.276 105.170,392.472 105.377,394.688 105.119 C 396.328 104.927,396.875 105.097,396.875 105.800 C 396.875 106.315,397.428 107.400,398.104 108.212 C 399.328 109.681,399.333 109.465,399.354 55.156 L 399.375 0.625 332.416 0.625 L 265.456 0.625 267.204 2.000 M176.420 25.245 C 178.418 26.129,180.298 28.492,179.430 29.029 C 179.109 29.227,177.879 28.819,176.696 28.121 C 174.790 26.997,174.457 26.960,173.759 27.801 C 173.219 28.452,173.192 28.750,173.673 28.750 C 174.059 28.750,174.375 29.453,174.375 30.313 C 174.375 31.982,174.038 32.074,168.438 31.924 C 167.063 31.888,163.840 32.393,161.276 33.047 C 158.712 33.701,156.300 34.115,155.916 33.968 C 154.657 33.485,149.121 37.757,147.694 40.313 C 146.105 43.158,142.923 44.395,141.298 42.800 C 140.531 42.047,140.621 41.846,141.949 41.341 C 146.318 39.680,148.656 30.663,144.463 31.648 C 143.555 31.862,142.545 32.281,142.219 32.581 C 141.892 32.880,141.119 33.125,140.500 33.125 C 139.881 33.125,139.375 33.547,139.375 34.063 C 139.375 34.578,139.105 35.000,138.774 35.000 C 138.444 35.000,137.083 36.101,135.751 37.447 C 133.086 40.138,133.131 41.940,135.848 41.420 C 138.795 40.857,137.961 45.032,134.971 45.814 C 134.188 46.018,133.750 46.671,133.750 47.632 C 133.750 48.972,133.488 49.124,131.274 49.068 C 129.210 49.017,126.624 48.125,128.538 48.125 C 128.879 48.125,129.035 47.281,128.883 46.250 C 128.721 45.142,128.232 44.375,127.689 44.375 C 126.192 44.375,127.153 42.832,128.799 42.593 C 131.373 42.220,131.415 41.011,128.880 40.278 C 126.302 39.533,122.088 41.776,122.763 43.534 C 123.279 44.877,122.493 46.208,121.425 45.798 C 120.774 45.548,120.551 45.716,120.748 46.307 C 120.909 46.791,121.560 47.288,122.195 47.411 C 126.291 48.205,125.046 50.193,120.517 50.090 C 118.228 50.039,116.462 50.506,113.729 51.885 C 111.698 52.911,109.456 53.750,108.748 53.750 C 108.040 53.750,107.299 54.172,107.101 54.688 C 106.903 55.203,106.394 55.625,105.970 55.625 C 105.546 55.625,103.859 56.891,102.221 58.438 C 98.929 61.548,98.425 61.703,96.349 60.249 C 95.562 59.698,94.867 59.347,94.803 59.468 C 92.828 63.219,90.037 65.432,83.906 68.106 C 83.133 68.443,82.500 69.007,82.500 69.360 C 82.500 69.712,82.188 70.000,81.806 70.000 C 80.681 70.000,71.875 74.516,71.875 75.093 C 71.875 75.384,70.928 76.677,69.770 77.967 C 68.613 79.257,67.476 80.924,67.243 81.671 C 67.011 82.419,66.093 84.102,65.205 85.412 C 60.699 92.051,64.333 105.172,72.706 112.500 C 74.081 113.703,76.613 116.023,78.334 117.656 C 80.055 119.289,81.676 120.625,81.937 120.625 C 82.197 120.625,82.858 121.073,83.405 121.620 C 83.952 122.167,84.887 122.683,85.481 122.766 C 86.076 122.850,86.929 123.668,87.378 124.584 C 87.919 125.689,88.691 126.250,89.670 126.250 C 93.635 126.250,94.514 129.019,91.094 130.735 C 87.237 132.670,81.250 133.713,81.250 132.450 C 81.250 132.134,80.952 131.875,80.588 131.875 C 80.224 131.875,80.082 132.127,80.272 132.435 C 80.462 132.742,80.175 133.164,79.633 133.372 C 78.143 133.944,77.697 133.808,78.750 133.103 C 79.549 132.567,79.467 132.290,78.192 131.221 C 76.690 129.962,73.797 131.059,74.712 132.540 C 74.882 132.814,74.711 133.230,74.333 133.463 C 73.956 133.697,73.090 135.187,72.409 136.775 C 71.077 139.883,69.977 140.974,69.292 139.866 C 68.991 139.378,68.591 139.435,67.946 140.055 C 67.441 140.540,66.408 141.359,65.650 141.875 C 64.892 142.391,63.453 143.586,62.454 144.531 C 60.304 146.565,59.128 146.764,59.688 145.000 C 60.026 143.932,59.800 143.750,58.130 143.750 C 56.987 143.750,56.336 143.491,56.562 143.125 C 56.775 142.781,56.695 142.500,56.384 142.500 C 55.642 142.500,54.052 144.374,53.512 145.886 C 53.211 146.730,52.888 146.888,52.422 146.422 C 51.955 145.955,51.968 145.370,52.464 144.442 C 52.930 143.571,52.950 143.125,52.522 143.125 C 52.166 143.125,51.875 142.703,51.875 142.188 C 51.875 141.672,51.594 141.250,51.250 141.250 C 50.906 141.250,50.625 140.785,50.625 140.216 C 50.625 139.281,50.505 139.289,49.390 140.299 C 48.456 141.145,48.225 141.969,48.446 143.677 C 49.119 148.885,46.991 151.397,45.075 147.656 C 43.162 143.921,38.871 141.267,36.807 142.542 C 36.402 142.793,35.237 142.707,34.218 142.352 C 32.782 141.851,32.240 141.900,31.808 142.572 C 31.337 143.303,31.158 143.294,30.658 142.516 C 30.272 141.916,30.301 141.450,30.743 141.177 C 31.180 140.907,31.233 140.127,30.894 138.973 L 30.369 137.188 30.147 139.185 C 29.976 140.729,29.686 141.106,28.869 140.845 C 28.074 140.591,28.017 140.654,28.641 141.101 C 29.292 141.567,29.057 142.146,27.547 143.799 C 26.035 145.455,25.625 145.660,25.625 144.760 C 25.625 144.026,25.305 143.739,24.733 143.958 C 24.243 144.147,23.469 143.842,23.014 143.280 C 22.560 142.719,22.507 142.452,22.898 142.686 C 23.289 142.920,23.596 142.763,23.581 142.337 C 23.510 140.361,23.810 139.375,24.482 139.375 C 24.885 139.375,25.728 138.910,26.357 138.341 C 27.426 137.374,27.500 137.382,27.500 138.475 C 27.500 139.587,27.552 139.591,28.594 138.549 C 29.550 137.592,29.570 137.380,28.750 136.862 C 28.230 136.533,28.134 136.265,28.535 136.260 C 29.262 136.250,29.000 134.045,28.126 132.813 C 27.882 132.469,27.737 130.289,27.803 127.969 C 27.942 123.137,27.446 122.625,26.222 126.335 C 25.753 127.756,25.247 128.553,25.098 128.106 C 24.941 127.637,24.346 128.196,23.690 129.428 C 22.862 130.982,22.545 131.233,22.526 130.349 C 22.500 129.159,22.484 129.158,21.629 130.327 C 21.022 131.157,20.928 131.964,21.316 132.987 C 21.624 133.795,21.875 135.507,21.875 136.791 C 21.875 138.075,22.191 139.441,22.577 139.827 C 23.096 140.346,22.933 141.014,21.952 142.392 C 20.495 144.439,20.237 145.711,21.328 145.469 C 21.715 145.383,22.175 145.709,22.351 146.193 C 22.564 146.781,22.357 146.954,21.728 146.713 C 21.039 146.448,20.351 147.358,19.167 150.102 C 18.237 152.258,17.273 153.683,16.899 153.453 C 16.107 152.963,16.035 148.606,16.805 147.781 C 19.413 144.990,17.505 143.396,14.293 145.683 C 11.805 147.455,11.133 147.033,8.823 142.242 C 6.675 137.789,6.466 137.658,3.750 139.062 C 2.096 139.918,1.881 139.904,1.300 138.906 C 0.863 138.156,0.657 151.387,0.644 181.094 L 0.625 224.375 54.412 224.375 C 83.995 224.375,108.060 224.151,107.891 223.876 C 107.721 223.602,107.824 222.987,108.119 222.509 C 108.758 221.476,106.654 216.991,105.284 216.465 C 103.908 215.937,104.184 214.898,106.301 212.639 L 108.221 210.590 106.767 209.328 C 105.967 208.634,104.539 207.770,103.594 207.409 C 101.427 206.581,101.443 206.220,103.761 203.738 C 105.874 201.476,105.968 201.756,101.513 197.061 C 100.060 195.530,98.390 194.375,97.629 194.375 C 95.691 194.375,95.116 192.733,95.392 187.988 C 95.633 183.853,95.608 183.773,93.756 182.815 C 92.721 182.281,91.866 182.061,91.856 182.328 C 91.846 182.594,91.550 182.320,91.200 181.719 C 90.850 181.117,90.155 180.625,89.656 180.625 C 89.158 180.625,88.741 180.414,88.730 180.156 C 88.720 179.898,87.967 179.145,87.058 178.482 C 85.630 177.440,85.460 177.418,85.808 178.325 C 86.030 178.903,85.991 179.375,85.723 179.375 C 85.454 179.375,85.231 177.617,85.226 175.469 C 85.219 172.045,84.958 171.196,83.114 168.594 C 81.094 165.744,80.000 164.921,80.000 166.250 C 80.000 167.862,78.760 166.624,78.388 164.641 C 78.089 163.048,77.776 162.599,77.297 163.078 C 76.140 164.235,75.473 163.815,75.882 162.188 C 76.108 161.286,76.004 160.625,75.636 160.625 C 74.458 160.625,78.380 154.178,79.670 153.995 C 80.348 153.899,81.268 153.312,81.713 152.691 C 84.401 148.947,86.615 148.016,85.882 150.938 C 85.479 152.540,86.958 153.258,87.813 151.875 C 88.466 150.818,89.375 151.182,89.375 152.500 C 89.375 153.851,91.584 154.310,92.006 153.046 C 92.135 152.659,92.931 152.273,93.776 152.188 C 96.461 151.920,96.584 151.850,95.495 151.214 C 94.907 150.872,94.585 150.180,94.778 149.676 C 94.976 149.162,94.690 148.592,94.127 148.376 C 93.411 148.101,93.119 147.162,93.104 145.089 L 93.083 142.188 91.909 143.595 C 91.163 144.489,90.358 144.858,89.701 144.606 C 89.020 144.345,87.930 144.925,86.504 146.307 C 84.733 148.024,84.141 148.280,83.243 147.719 C 78.785 144.935,74.724 147.539,74.808 153.127 C 74.852 156.001,74.316 157.047,73.488 155.707 C 73.304 155.408,72.091 154.994,70.792 154.787 C 68.410 154.406,66.250 152.598,66.250 150.986 C 66.250 150.066,69.683 146.875,70.673 146.875 C 70.990 146.875,71.250 146.345,71.250 145.696 C 71.250 144.347,74.942 142.301,77.689 142.128 C 79.952 141.986,80.374 141.516,79.348 140.280 C 78.654 139.444,78.665 139.186,79.415 138.712 C 79.909 138.400,80.039 138.140,79.705 138.135 C 79.370 138.129,79.727 137.684,80.496 137.145 C 81.266 136.606,81.754 135.934,81.580 135.653 C 81.406 135.372,81.737 134.758,82.314 134.290 C 82.979 133.751,83.198 133.716,82.909 134.196 C 82.246 135.302,92.675 134.725,96.436 133.448 C 101.550 131.712,110.625 132.157,110.625 134.144 C 110.625 135.519,114.688 136.967,120.313 137.595 C 127.985 138.453,128.805 139.190,125.849 142.566 C 125.365 143.118,125.147 144.032,125.364 144.597 C 125.871 145.918,125.525 145.891,123.004 144.412 C 119.936 142.610,110.682 142.495,106.855 144.211 C 104.074 145.457,104.070 145.464,105.781 145.924 C 107.677 146.433,108.025 147.338,106.544 147.906 C 105.919 148.146,105.724 148.702,105.981 149.513 C 106.198 150.195,106.375 151.743,106.375 152.952 C 106.375 154.202,107.157 156.575,108.188 158.453 C 110.329 162.356,110.415 163.335,108.761 164.989 C 107.525 166.225,107.527 166.232,109.514 167.260 C 110.879 167.965,111.581 168.069,111.742 167.588 C 111.911 167.079,112.323 167.071,113.229 167.556 C 115.140 168.578,115.262 167.819,113.475 166.032 C 111.472 164.029,111.387 162.848,113.281 163.356 C 114.055 163.563,115.461 163.737,116.406 163.741 C 117.567 163.747,118.125 164.077,118.125 164.757 C 118.125 165.579,118.556 165.687,120.469 165.343 L 122.813 164.922 121.250 166.050 C 120.391 166.670,119.406 167.103,119.063 167.011 C 118.719 166.919,119.055 167.343,119.810 167.953 C 121.404 169.242,120.314 171.744,118.468 171.036 C 117.865 170.804,117.500 171.010,117.500 171.582 C 117.500 172.087,118.063 172.500,118.750 172.500 C 119.438 172.500,120.000 172.762,120.000 173.083 C 120.000 173.403,120.633 173.866,121.406 174.110 C 123.949 174.914,126.958 177.683,127.930 180.112 C 128.456 181.426,129.268 182.500,129.736 182.500 C 130.235 182.500,130.437 182.887,130.226 183.438 C 130.028 183.953,130.190 184.375,130.586 184.375 C 130.981 184.375,131.222 184.809,131.121 185.341 C 131.018 185.881,131.762 186.775,132.813 187.372 C 133.844 187.958,134.828 188.606,135.000 188.813 C 135.675 189.623,138.017 190.563,141.813 191.546 C 143.997 192.112,146.464 193.021,147.296 193.566 C 148.600 194.420,149.147 194.444,151.279 193.741 C 154.099 192.810,154.495 191.572,152.161 190.987 C 151.287 190.767,150.391 190.116,150.169 189.540 C 149.333 187.360,145.195 183.125,143.903 183.125 C 143.308 183.125,143.172 182.713,143.462 181.798 C 143.694 181.068,143.950 180.013,144.032 179.454 C 144.254 177.939,146.066 177.864,146.855 179.337 C 147.344 180.251,147.352 180.984,146.883 181.861 C 146.343 182.869,146.396 183.030,147.173 182.732 C 147.697 182.531,148.617 182.571,149.219 182.820 C 149.820 183.070,151.105 183.350,152.074 183.443 C 154.933 183.716,159.375 185.116,159.375 185.743 C 159.375 186.062,159.664 186.145,160.017 185.927 C 160.608 185.562,156.782 182.500,155.734 182.500 C 155.234 182.500,153.532 178.742,153.674 177.951 C 153.722 177.684,153.337 177.302,152.818 177.103 C 152.299 176.904,151.875 176.409,151.875 176.002 C 151.875 174.926,147.436 170.000,146.466 170.000 C 145.727 170.000,143.750 166.305,143.750 164.924 C 143.750 163.898,145.539 164.369,145.894 165.489 C 146.089 166.101,147.814 168.000,149.728 169.707 C 151.643 171.415,154.055 173.586,155.090 174.531 C 156.125 175.477,157.312 176.250,157.729 176.250 C 160.142 176.250,166.570 180.517,166.775 182.255 C 167.044 184.534,168.104 185.213,169.469 183.977 C 170.214 183.303,172.340 182.935,176.626 182.737 C 179.979 182.583,183.868 182.192,185.267 181.868 C 188.298 181.169,199.416 181.156,204.688 181.847 C 206.750 182.117,208.705 182.093,209.031 181.794 C 210.163 180.757,211.113 181.261,212.152 183.452 C 213.278 185.824,214.611 185.847,214.018 183.484 C 213.589 181.772,214.920 181.030,217.025 181.808 C 217.795 182.093,219.242 182.092,220.239 181.806 C 221.237 181.520,222.286 181.430,222.571 181.606 C 222.855 181.782,223.268 181.211,223.487 180.338 C 223.897 178.705,225.477 178.227,226.636 179.386 C 227.208 179.958,231.982 177.940,234.063 176.246 C 234.406 175.966,235.751 175.538,237.051 175.295 C 238.707 174.986,240.442 173.867,242.840 171.563 C 245.197 169.298,247.470 167.821,250.129 166.827 C 254.118 165.335,255.391 164.392,257.252 161.552 C 258.061 160.318,258.721 159.968,259.841 160.182 C 260.914 160.387,261.152 160.277,260.672 159.797 C 259.590 158.715,259.893 157.618,261.406 157.140 C 262.180 156.896,263.180 156.174,263.629 155.535 C 264.078 154.897,264.832 154.375,265.304 154.375 C 266.864 154.375,270.240 148.653,269.438 147.368 C 269.023 146.705,268.987 146.250,269.348 146.250 C 270.293 146.250,271.491 143.614,271.362 141.818 C 271.294 140.873,271.767 139.726,272.498 139.065 C 273.332 138.310,273.750 137.139,273.750 135.560 C 273.750 133.144,277.218 129.365,278.633 130.240 C 278.942 130.431,279.058 129.876,278.892 129.006 C 278.657 127.776,278.888 127.347,279.933 127.074 C 280.821 126.841,281.088 126.483,280.720 126.017 C 279.749 124.785,279.959 121.273,280.980 121.665 C 282.044 122.074,282.164 121.164,281.177 120.177 C 278.676 117.676,280.465 111.895,284.804 108.456 C 288.724 105.349,290.616 103.111,290.631 101.563 C 290.638 100.875,290.991 99.716,291.415 98.988 C 294.226 94.166,294.218 94.198,293.696 89.470 C 293.416 86.944,292.752 84.211,292.219 83.398 C 291.686 82.584,291.250 81.540,291.250 81.076 C 291.250 80.613,290.435 79.453,289.438 78.498 C 288.442 77.544,287.140 75.452,286.544 73.850 C 285.948 72.248,285.216 70.670,284.918 70.344 C 284.619 70.017,284.375 69.103,284.375 68.312 C 284.375 67.522,284.023 66.867,283.594 66.858 C 283.164 66.848,282.109 65.839,281.250 64.615 C 280.391 63.390,278.929 61.479,278.001 60.368 L 276.315 58.347 277.592 57.254 C 279.133 55.934,278.729 55.258,276.963 56.203 C 275.393 57.043,272.424 54.270,270.568 50.230 C 269.319 47.511,266.620 45.250,264.939 45.514 C 264.390 45.601,263.583 45.239,263.144 44.711 C 262.706 44.182,261.842 43.750,261.224 43.750 C 260.029 43.750,256.198 41.916,255.553 41.036 C 255.341 40.747,254.552 40.887,253.799 41.349 C 252.609 42.078,252.350 42.045,251.809 41.094 C 251.381 40.341,250.417 40.000,248.711 40.000 C 247.349 40.000,244.199 39.414,241.711 38.699 C 239.223 37.983,236.200 37.293,234.992 37.166 C 233.785 37.039,231.793 36.516,230.566 36.003 C 229.339 35.490,226.811 34.878,224.949 34.642 C 223.086 34.406,221.076 33.789,220.480 33.270 C 219.670 32.564,219.188 32.502,218.559 33.024 C 217.354 34.024,208.750 34.754,208.750 33.856 C 208.750 33.472,209.585 32.725,210.606 32.197 C 213.408 30.748,215.459 25.008,212.813 26.024 C 212.297 26.222,211.875 26.072,211.875 25.692 C 211.875 24.594,208.482 24.889,207.149 26.104 C 202.288 30.532,195.743 32.422,194.286 29.819 C 193.957 29.231,192.951 28.750,192.049 28.750 C 191.148 28.750,189.967 28.354,189.424 27.871 C 188.209 26.788,186.325 26.516,184.745 27.196 C 183.843 27.585,183.197 27.296,182.089 26.007 C 181.284 25.071,180.621 24.673,180.615 25.121 C 180.610 25.620,180.427 25.694,180.147 25.313 C 179.894 24.969,178.563 24.640,177.188 24.583 C 174.712 24.479,174.705 24.485,176.420 25.245 M278.125 27.515 C 278.125 28.311,278.743 29.016,279.789 29.414 C 281.937 30.230,282.886 29.352,281.776 27.574 C 280.684 25.825,278.125 25.784,278.125 27.515 M87.500 28.796 C 87.500 30.284,87.255 30.670,86.413 30.507 C 85.059 30.247,84.586 28.147,85.720 27.428 C 87.144 26.526,87.500 26.800,87.500 28.796 M69.375 29.923 C 69.375 30.698,67.544 32.127,67.109 31.693 C 66.710 31.294,68.165 29.436,68.906 29.399 C 69.164 29.386,69.375 29.622,69.375 29.923 M65.000 32.449 C 65.000 33.831,64.158 35.000,63.162 35.000 C 61.345 35.000,61.121 34.166,62.628 33.007 C 64.231 31.773,65.000 31.592,65.000 32.449 M281.875 32.588 C 281.359 32.891,279.863 33.569,278.550 34.096 C 275.602 35.278,275.854 36.496,279.103 36.765 C 280.447 36.877,281.907 37.267,282.348 37.633 C 282.926 38.113,283.449 38.039,284.230 37.369 C 284.826 36.858,285.805 36.265,286.406 36.052 C 287.053 35.823,287.500 35.025,287.500 34.102 C 287.500 32.970,287.242 32.638,286.563 32.899 C 286.047 33.097,285.625 33.018,285.625 32.723 C 285.624 31.998,283.038 31.905,281.875 32.588 M208.125 34.308 C 208.125 35.098,206.425 35.653,205.313 35.226 C 203.724 34.616,204.274 33.750,206.250 33.750 C 207.281 33.750,208.125 34.001,208.125 34.308 M267.344 38.598 C 266.172 38.859,265.898 39.709,266.804 40.269 C 267.109 40.457,267.712 40.186,268.143 39.666 C 269.066 38.554,268.848 38.264,267.344 38.598 M65.000 39.439 C 65.000 39.797,65.422 40.511,65.938 41.027 C 66.771 41.860,66.875 41.828,66.875 40.737 C 66.875 40.061,66.453 39.347,65.938 39.149 C 65.422 38.951,65.000 39.082,65.000 39.439 M290.938 41.071 C 288.920 41.556,288.317 42.501,290.031 42.491 C 292.347 42.479,294.403 41.802,294.019 41.179 C 293.659 40.597,293.002 40.574,290.938 41.071 M305.625 47.997 C 305.625 48.355,305.454 49.093,305.246 49.636 C 304.974 50.345,305.239 50.625,306.183 50.625 C 307.712 50.625,307.921 49.252,306.563 48.125 C 305.995 47.654,305.625 47.604,305.625 47.997 M276.563 50.371 C 275.024 51.548,276.644 53.232,278.779 52.673 C 280.243 52.291,280.403 50.288,279.011 49.754 C 277.805 49.292,278.056 49.228,276.563 50.371 M337.500 61.563 C 337.500 62.078,337.078 62.500,336.563 62.500 C 335.587 62.500,335.323 61.761,336.042 61.042 C 336.761 60.323,337.500 60.587,337.500 61.563 M47.813 69.115 C 44.619 72.710,44.505 73.125,46.710 73.125 C 49.440 73.125,51.618 70.247,51.322 67.031 C 51.201 65.717,50.419 66.182,47.813 69.115 M57.645 73.750 C 57.645 74.953,57.774 75.445,57.931 74.844 C 58.088 74.242,58.088 73.258,57.931 72.656 C 57.774 72.055,57.645 72.547,57.645 73.750 M330.000 75.043 C 330.000 76.026,330.337 76.289,331.400 76.137 C 333.477 75.841,333.660 73.750,331.608 73.750 C 330.399 73.750,330.000 74.071,330.000 75.043 M47.656 77.966 C 46.796 78.256,46.563 80.625,47.394 80.625 C 47.680 80.625,48.290 81.328,48.750 82.188 C 49.888 84.313,52.817 84.449,52.116 82.344 C 51.858 81.570,51.638 80.477,51.627 79.915 C 51.615 79.288,51.261 79.025,50.713 79.235 C 50.222 79.424,49.508 79.156,49.128 78.640 C 48.748 78.125,48.086 77.821,47.656 77.966 M43.341 82.393 C 43.910 83.022,44.375 84.167,44.375 84.938 C 44.375 86.184,44.479 86.235,45.313 85.402 C 45.828 84.886,46.250 84.163,46.250 83.795 C 46.250 83.426,45.828 83.125,45.313 83.125 C 44.797 83.125,44.375 82.703,44.375 82.188 C 44.375 81.672,43.910 81.250,43.341 81.250 C 42.378 81.250,42.378 81.329,43.341 82.393 M370.120 97.969 C 372.897 103.762,372.885 103.754,374.904 101.199 C 376.956 98.603,376.322 97.500,372.780 97.500 C 371.194 97.500,369.997 97.711,370.120 97.969 M374.375 110.625 C 374.375 111.431,374.692 111.874,375.156 111.719 C 375.586 111.576,375.938 111.083,375.938 110.625 C 375.938 110.167,375.586 109.674,375.156 109.531 C 374.692 109.376,374.375 109.819,374.375 110.625 M4.089 112.961 C 2.705 114.454,2.636 114.719,3.547 115.039 C 5.336 115.666,7.317 114.323,7.005 112.693 C 6.646 110.816,6.025 110.873,4.089 112.961 M29.523 114.120 C 29.092 114.581,28.683 115.640,28.614 116.472 C 28.537 117.410,28.186 117.869,27.693 117.680 C 27.064 117.439,27.041 117.789,27.582 119.341 C 28.300 121.401,29.765 121.632,29.581 119.656 C 29.522 119.025,30.014 117.822,30.674 116.983 C 32.572 114.570,31.528 111.974,29.523 114.120 M0.770 115.625 C 0.770 116.828,0.899 117.320,1.056 116.719 C 1.213 116.117,1.213 115.133,1.056 114.531 C 0.899 113.930,0.770 114.422,0.770 115.625 M33.215 114.601 C 32.271 115.776,33.511 118.173,34.820 117.703 C 35.435 117.482,35.745 117.515,35.509 117.777 C 35.273 118.039,35.368 118.998,35.720 119.908 C 36.073 120.818,36.468 122.093,36.598 122.741 C 36.891 124.192,36.606 124.027,40.171 124.806 C 42.095 125.227,43.288 125.242,43.530 124.850 C 43.756 124.484,44.100 124.555,44.392 125.027 C 44.711 125.543,45.435 124.593,46.501 122.263 C 48.528 117.832,48.537 117.920,46.094 118.293 C 44.133 118.593,41.671 117.670,39.264 115.733 C 37.682 114.459,33.898 113.751,33.215 114.601 M34.205 121.834 C 34.019 122.544,34.105 123.125,34.397 123.125 C 35.292 123.125,35.801 121.801,35.154 121.154 C 34.755 120.755,34.425 120.991,34.205 121.834 M57.188 121.402 C 56.500 121.809,55.516 122.152,55.000 122.164 C 53.933 122.191,53.277 125.625,54.339 125.625 C 54.784 125.625,54.814 125.994,54.427 126.719 C 53.792 127.911,51.875 132.966,51.875 133.450 C 51.875 133.615,52.438 133.750,53.125 133.750 C 54.042 133.750,54.375 134.167,54.375 135.313 C 54.375 137.143,54.558 137.194,56.518 135.909 C 58.339 134.716,61.054 135.272,61.585 136.946 C 61.794 137.605,62.206 137.994,62.500 137.813 C 62.794 137.631,63.215 138.048,63.435 138.741 C 63.944 140.345,65.025 140.339,66.761 138.722 C 69.709 135.976,72.036 130.625,70.283 130.625 C 69.800 130.625,68.975 129.971,68.451 129.171 C 67.702 128.027,67.083 127.778,65.555 128.002 C 63.145 128.356,62.416 127.340,62.899 124.303 C 63.234 122.192,63.125 121.997,61.223 121.334 C 58.764 120.477,58.752 120.477,57.188 121.402 M50.293 125.031 C 49.699 125.992,50.513 126.612,51.315 125.810 C 51.764 125.361,51.775 125.012,51.348 124.748 C 50.998 124.532,50.523 124.659,50.293 125.031 M10.417 126.042 C 9.674 126.785,9.975 129.061,11.012 130.542 C 11.805 131.674,11.937 132.818,11.621 135.837 L 11.219 139.688 12.471 138.125 C 13.860 136.391,14.005 135.856,13.217 135.369 C 12.924 135.188,12.808 133.799,12.959 132.282 C 13.290 128.972,11.610 124.849,10.417 126.042 M377.674 130.943 C 377.543 134.168,377.623 134.375,379.003 134.375 C 379.811 134.375,380.822 134.797,381.250 135.313 C 381.678 135.828,382.278 136.250,382.583 136.250 C 385.989 136.250,392.520 142.623,391.492 144.944 C 391.250 145.490,391.096 146.148,391.151 146.406 C 391.205 146.664,390.991 146.875,390.675 146.875 C 390.358 146.875,389.907 147.752,389.671 148.823 C 388.937 152.166,390.970 153.373,397.031 153.194 L 399.375 153.125 399.375 141.024 L 399.375 128.922 395.938 128.518 C 392.590 128.125,386.262 128.500,384.375 129.204 C 383.020 129.710,379.814 129.977,380.243 129.549 C 380.577 129.215,378.843 127.559,378.125 127.525 C 377.953 127.517,377.750 129.055,377.674 130.943 M95.625 147.381 C 95.625 147.659,96.004 148.404,96.467 149.038 C 97.416 150.335,98.500 149.378,97.887 147.783 C 97.524 146.836,95.625 146.499,95.625 147.381 M56.042 150.525 C 56.437 151.157,56.543 152.027,56.276 152.457 C 55.607 153.541,53.125 151.979,53.125 150.475 C 53.125 149.018,55.123 149.052,56.042 150.525 M134.930 151.606 C 135.227 151.422,135.327 152.530,135.154 154.066 C 134.927 156.077,135.212 157.724,136.170 159.952 C 136.901 161.653,137.528 164.117,137.563 165.428 L 137.626 167.813 138.185 165.313 C 138.493 163.938,138.892 162.180,139.072 161.406 C 139.676 158.809,141.199 159.739,141.120 162.656 C 141.026 166.167,141.538 168.786,142.795 171.217 C 144.845 175.181,142.884 177.337,138.776 175.636 C 137.825 175.242,135.040 174.898,132.588 174.871 C 127.954 174.820,126.388 174.046,127.110 172.163 C 127.326 171.601,127.223 171.347,126.868 171.567 C 126.528 171.777,126.250 171.674,126.250 171.339 C 126.250 171.004,126.602 170.587,127.031 170.412 C 127.620 170.173,127.581 169.929,126.875 169.423 C 126.097 168.865,126.082 168.657,126.785 168.203 C 127.377 167.822,127.424 167.527,126.942 167.229 C 125.554 166.371,126.268 165.663,127.897 166.282 C 129.140 166.755,129.895 166.678,130.979 165.968 C 132.280 165.116,132.445 165.129,132.744 166.108 C 133.171 167.501,132.668 161.866,132.003 157.813 C 131.721 156.094,131.155 154.073,130.745 153.322 C 129.510 151.059,129.794 150.669,132.196 151.332 C 133.404 151.666,134.634 151.789,134.930 151.606 M89.257 159.625 C 88.462 160.464,87.131 161.244,86.299 161.357 C 85.467 161.470,84.675 161.899,84.539 162.311 C 84.262 163.154,88.548 162.728,89.745 161.794 C 90.120 161.501,90.658 161.469,90.939 161.724 C 91.220 161.979,91.240 161.824,90.984 161.379 C 90.727 160.934,90.837 160.186,91.227 159.716 C 92.544 158.129,90.750 158.045,89.257 159.625 M84.424 167.277 C 84.370 170.129,85.393 171.059,86.858 169.490 C 87.666 168.625,87.648 168.560,86.705 168.921 C 85.900 169.230,85.546 168.914,85.264 167.634 C 84.614 164.680,84.475 164.621,84.424 167.277 M245.000 177.813 C 245.000 178.328,245.281 178.750,245.625 178.750 C 245.969 178.750,246.250 178.328,246.250 177.813 C 246.250 177.297,245.969 176.875,245.625 176.875 C 245.281 176.875,245.000 177.297,245.000 177.813 M152.766 181.458 C 152.295 182.686,150.625 182.865,150.625 181.688 C 150.625 180.525,152.029 179.279,152.645 179.895 C 152.932 180.182,152.986 180.885,152.766 181.458 M233.594 184.236 C 231.996 184.573,232.258 185.433,234.063 185.778 C 234.922 185.942,235.621 185.905,235.615 185.695 C 235.592 184.747,234.593 184.026,233.594 184.236 M189.385 188.864 C 189.372 190.238,191.028 190.693,193.750 190.064 L 195.938 189.558 194.220 189.086 C 193.276 188.827,192.032 188.796,191.458 189.016 C 190.881 189.238,190.184 189.058,189.903 188.615 C 189.524 188.018,189.392 188.082,189.385 188.864 M109.375 191.824 C 109.375 192.834,110.118 194.375,110.605 194.375 C 110.865 194.375,110.942 193.672,110.778 192.813 C 110.499 191.351,109.375 190.560,109.375 191.824 M131.875 200.628 C 131.875 200.887,132.730 201.453,133.776 201.886 C 136.769 203.126,138.750 204.966,138.750 206.508 C 138.750 207.966,141.410 209.736,142.547 209.034 C 143.817 208.249,142.949 206.937,139.219 204.007 C 135.652 201.204,131.875 199.467,131.875 200.628 M125.768 206.367 C 126.155 207.526,127.500 207.718,127.500 206.615 C 127.500 206.070,127.055 205.625,126.510 205.625 C 125.966 205.625,125.632 205.959,125.768 206.367 M130.156 206.300 C 130.758 206.650,131.250 207.362,131.250 207.880 C 131.250 208.399,130.969 208.650,130.625 208.438 C 129.687 207.858,129.911 209.517,130.957 210.901 C 131.462 211.568,131.875 212.649,131.875 213.303 C 131.875 213.957,132.411 214.632,133.067 214.804 C 133.723 214.975,134.426 215.582,134.630 216.152 C 134.834 216.721,135.180 217.586,135.400 218.073 C 135.680 218.696,135.170 218.588,133.681 217.709 C 131.610 216.486,129.658 216.430,128.469 217.561 C 127.547 218.436,126.875 218.227,127.274 217.188 C 127.472 216.672,127.352 216.250,127.009 216.250 C 125.661 216.250,125.779 218.108,127.226 219.670 C 129.027 221.614,129.157 222.826,127.656 223.700 C 126.868 224.159,128.643 224.342,134.003 224.356 C 141.405 224.375,141.438 224.368,140.313 223.125 C 138.789 221.442,140.348 221.442,142.500 223.125 C 144.062 224.347,145.705 224.711,146.422 223.995 C 146.847 223.569,145.934 221.755,144.063 219.308 C 142.826 217.691,142.232 216.841,140.139 213.694 C 138.352 211.007,131.164 205.571,129.496 205.644 C 129.257 205.654,129.555 205.950,130.156 206.300 " stroke="none" fill="#000000" fill-rule="evenodd"></path></g></svg>