<svg id="svg" xmlns="http://www.w3.org/2000/svg" xmlns:xlink="http://www.w3.org/1999/xlink" width="400" height="225" viewBox="0, 0, 400,225"><g id="svgg"><path id="path0" d="M0.625 42.258 L 0.625 83.892 2.435 83.626 C 3.629 83.451,4.151 83.606,3.969 84.080 C 3.817 84.476,4.128 85.160,4.659 85.601 C 6.721 87.313,4.517 88.289,1.834 86.853 C 0.148 85.951,0.315 87.002,2.031 88.095 C 2.805 88.588,4.181 88.919,5.091 88.830 C 6.405 88.703,6.876 89.031,7.385 90.429 C 7.738 91.396,8.049 91.836,8.076 91.406 C 8.103 90.977,8.517 90.625,8.996 90.625 C 10.029 90.625,10.723 89.106,10.250 87.876 C 10.066 87.395,10.203 86.823,10.555 86.606 C 10.907 86.388,11.037 85.797,10.843 85.292 C 10.574 84.590,11.020 84.375,12.746 84.375 C 14.734 84.375,15.000 84.190,15.000 82.813 C 15.000 81.296,16.646 80.604,17.713 81.671 C 18.613 82.572,21.257 82.213,21.596 81.144 C 22.803 77.340,31.875 77.815,31.875 81.682 C 31.875 82.474,32.048 82.510,32.813 81.875 C 33.560 81.254,33.940 81.254,34.688 81.875 C 35.217 82.315,35.625 82.380,35.625 82.024 C 35.625 81.679,36.208 81.243,36.921 81.057 C 37.634 80.870,38.370 80.134,38.557 79.421 C 38.743 78.708,39.074 78.121,39.292 78.116 C 39.509 78.112,40.291 77.946,41.028 77.748 C 42.258 77.418,42.362 77.614,42.278 80.100 C 42.206 82.269,41.968 82.795,41.094 82.726 C 40.492 82.678,40.000 82.889,40.000 83.194 C 40.000 83.500,40.313 83.750,40.695 83.750 C 41.144 83.750,41.250 84.490,40.995 85.851 C 40.535 88.302,42.111 90.393,43.149 88.710 C 44.537 86.458,45.338 85.625,46.112 85.625 C 46.572 85.625,46.784 85.358,46.582 85.031 C 46.380 84.705,46.767 84.142,47.441 83.781 C 49.117 82.884,50.000 82.958,50.000 83.995 C 50.000 84.744,52.941 86.024,53.456 85.499 C 54.679 84.251,54.360 80.632,53.039 80.776 C 51.185 80.979,51.264 78.001,53.205 74.545 C 53.882 73.340,54.305 72.221,54.144 72.061 C 53.736 71.653,55.021 68.125,55.578 68.125 C 55.828 68.125,55.910 67.287,55.760 66.262 C 55.593 65.123,55.993 63.426,56.790 61.897 C 57.507 60.522,57.935 58.983,57.742 58.478 C 57.548 57.973,57.615 57.195,57.890 56.749 C 58.166 56.303,58.308 55.143,58.206 54.170 C 58.085 53.020,58.419 52.111,59.160 51.569 C 60.531 50.566,61.250 50.899,61.250 52.537 C 61.250 53.204,61.501 53.750,61.808 53.750 C 62.632 53.750,63.168 51.975,62.473 51.546 C 62.144 51.342,61.875 50.192,61.875 48.989 C 61.875 47.491,62.103 46.942,62.598 47.248 C 63.094 47.555,63.211 47.271,62.969 46.348 C 62.776 45.606,62.872 45.000,63.184 45.000 C 63.495 45.000,63.750 45.281,63.750 45.625 C 63.750 45.969,64.102 46.180,64.531 46.094 C 64.978 46.004,65.230 46.424,65.119 47.073 C 65.013 47.698,65.508 49.196,66.220 50.402 C 66.932 51.609,67.337 52.883,67.121 53.233 C 66.892 53.604,67.216 53.771,67.895 53.633 C 68.870 53.435,69.048 52.858,68.977 50.136 C 68.925 48.198,69.160 46.875,69.554 46.875 C 69.919 46.875,69.565 46.181,68.768 45.332 C 67.971 44.483,67.056 43.951,66.736 44.149 C 66.385 44.365,66.325 43.363,66.585 41.629 C 66.879 39.672,66.794 38.750,66.321 38.750 C 65.938 38.750,65.625 38.047,65.625 37.188 C 65.625 36.215,65.979 35.625,66.563 35.625 C 67.078 35.625,67.500 35.344,67.500 35.000 C 67.500 34.656,68.203 34.375,69.063 34.375 C 70.035 34.375,70.625 34.729,70.625 35.313 C 70.625 35.828,70.906 36.250,71.250 36.250 C 71.594 36.250,71.875 36.672,71.875 37.188 C 71.875 37.703,71.594 38.125,71.250 38.125 C 70.906 38.125,70.625 38.538,70.625 39.043 C 70.625 39.630,70.988 39.822,71.633 39.574 C 72.473 39.251,72.571 39.504,72.221 41.097 C 71.809 42.973,72.653 44.395,73.431 43.135 C 73.647 42.786,74.335 42.500,74.960 42.500 C 75.927 42.500,76.052 42.103,75.802 39.844 C 75.413 36.341,78.026 32.758,79.728 34.460 C 80.994 35.726,81.182 41.389,80.004 42.808 C 79.322 43.629,79.319 43.784,79.984 43.629 C 80.457 43.519,81.036 44.284,81.348 45.431 C 81.791 47.058,82.149 47.373,83.289 47.143 C 85.962 46.605,87.643 48.097,87.184 50.599 C 86.555 54.028,87.781 52.050,88.717 48.125 C 89.168 46.234,89.706 44.406,89.912 44.063 C 90.118 43.719,90.385 40.766,90.507 37.500 C 90.628 34.234,90.773 30.438,90.829 29.063 C 90.885 27.688,90.702 25.930,90.423 25.156 C 90.013 24.019,90.139 23.750,91.083 23.750 C 92.671 23.750,93.750 24.951,93.750 26.719 C 93.750 27.526,94.150 28.961,94.639 29.906 C 95.128 30.851,95.505 32.033,95.478 32.531 C 95.370 34.491,95.653 35.625,96.250 35.625 C 96.594 35.625,96.875 35.220,96.875 34.724 C 96.875 34.229,97.169 33.642,97.527 33.421 C 98.491 32.825,100.111 34.417,99.714 35.569 C 99.484 36.238,99.679 36.165,100.313 35.346 C 100.943 34.532,101.047 33.922,100.627 33.502 C 99.233 32.108,99.880 28.125,101.501 28.125 C 103.286 28.125,105.562 24.714,105.809 21.668 C 106.060 18.573,107.900 18.694,108.432 21.841 C 109.196 26.366,111.250 24.464,111.250 19.230 C 111.250 16.554,111.501 15.489,112.195 15.223 C 113.505 14.720,115.150 16.235,114.789 17.613 C 114.626 18.238,114.747 18.750,115.059 18.750 C 115.370 18.750,115.625 17.484,115.625 15.938 C 115.625 14.391,115.881 13.125,116.194 13.125 C 116.507 13.125,116.962 10.664,117.206 7.656 C 117.449 4.648,117.931 1.836,118.276 1.406 C 118.777 0.782,106.993 0.625,59.764 0.625 L 0.625 0.625 0.625 42.258 M259.130 1.612 C 257.972 4.630,259.819 6.189,264.257 5.938 C 266.454 5.814,266.750 5.940,266.289 6.803 C 265.738 7.832,265.625 8.269,265.625 9.375 C 265.625 9.719,265.054 10.000,264.355 10.000 C 263.657 10.000,262.924 10.422,262.726 10.937 C 262.528 11.453,261.974 11.875,261.496 11.875 C 261.017 11.875,260.625 12.124,260.625 12.427 C 260.625 13.038,264.167 12.917,264.799 12.284 C 265.018 12.065,265.527 12.159,265.929 12.493 C 266.331 12.827,267.220 13.185,267.904 13.290 C 268.587 13.394,269.939 14.103,270.908 14.865 C 272.454 16.081,273.415 16.250,278.797 16.250 C 282.168 16.250,285.084 16.506,285.278 16.819 C 286.000 17.988,284.841 19.235,281.687 20.683 C 279.900 21.503,278.297 22.329,278.125 22.517 C 277.953 22.706,276.211 23.395,274.253 24.048 C 269.614 25.596,266.894 32.678,271.370 31.555 C 272.381 31.301,273.084 30.510,273.475 29.187 C 273.866 27.864,274.632 27.003,275.769 26.609 C 278.005 25.834,278.537 26.466,277.272 28.396 C 275.934 30.438,275.955 30.508,277.969 30.740 C 278.925 30.850,279.688 31.323,279.688 31.807 C 279.688 32.700,279.094 33.110,276.070 34.306 C 271.693 36.037,275.996 38.380,283.750 38.487 C 293.605 38.623,295.000 38.741,295.000 39.442 C 295.000 39.822,294.553 39.962,294.006 39.752 C 293.459 39.543,292.686 39.583,292.287 39.842 C 291.889 40.101,290.601 40.596,289.425 40.943 C 286.765 41.729,286.269 42.949,288.393 43.482 C 290.571 44.029,292.838 43.381,294.323 41.787 C 295.001 41.059,295.972 40.624,296.482 40.820 C 296.992 41.016,297.745 40.771,298.156 40.275 C 298.987 39.273,301.606 39.058,302.155 39.947 C 302.477 40.468,299.656 44.419,298.629 44.884 C 298.390 44.992,298.361 45.513,298.564 46.041 C 298.993 47.158,297.760 48.102,295.854 48.115 C 294.702 48.124,293.800 49.496,293.759 51.306 C 293.734 52.356,296.922 53.044,298.793 52.391 C 299.912 52.001,300.932 51.944,301.161 52.259 C 301.382 52.564,302.780 52.804,304.267 52.795 C 305.755 52.785,307.108 52.996,307.273 53.263 C 307.796 54.110,311.064 53.789,311.875 52.813 C 312.303 52.297,313.024 51.875,313.477 51.875 C 314.530 51.875,315.332 53.140,314.611 53.664 C 312.654 55.086,309.917 59.585,310.236 60.855 C 310.467 61.774,310.047 63.061,309.025 64.564 L 307.461 66.866 308.938 66.193 C 310.922 65.289,315.136 66.956,314.970 68.579 C 314.776 70.470,314.943 70.580,316.942 69.883 C 318.466 69.352,318.997 69.389,319.408 70.054 C 319.829 70.735,320.014 70.691,320.344 69.830 C 320.571 69.240,321.008 68.913,321.315 69.103 C 321.623 69.293,321.875 69.151,321.875 68.787 C 321.875 68.423,322.242 68.125,322.690 68.125 C 323.138 68.125,324.459 67.141,325.625 65.938 C 328.578 62.890,331.250 63.413,331.250 67.039 C 331.250 69.729,334.366 69.314,339.471 65.944 C 341.395 64.674,341.728 64.604,341.584 65.499 C 341.490 66.084,341.907 67.036,342.510 67.614 C 343.741 68.794,342.724 73.480,340.732 75.796 C 339.194 77.586,340.631 78.508,343.581 77.624 C 347.159 76.552,348.757 77.172,348.122 79.385 C 347.843 80.359,347.774 81.315,347.968 81.510 C 348.693 82.235,350.000 80.410,350.000 78.673 C 350.000 77.331,350.297 76.875,351.173 76.875 C 351.819 76.875,352.707 76.441,353.147 75.911 C 353.702 75.242,354.147 75.147,354.599 75.599 C 354.957 75.957,356.019 76.250,356.959 76.250 C 360.193 76.250,361.875 77.298,361.875 79.314 C 361.875 81.401,364.308 83.744,366.491 83.759 C 368.399 83.772,373.157 88.213,372.524 89.390 C 371.165 91.911,371.144 93.125,372.458 93.125 C 373.190 93.125,373.750 93.531,373.750 94.063 C 373.750 94.578,373.328 95.000,372.813 95.000 C 372.297 95.000,371.875 95.300,371.875 95.667 C 371.875 96.050,371.342 96.165,370.622 95.937 C 368.748 95.342,368.451 96.995,369.752 100.776 C 371.412 105.601,371.890 106.039,372.996 103.754 C 374.854 99.917,378.674 98.239,377.431 101.806 C 376.431 104.674,376.969 104.778,381.256 102.547 C 388.013 99.030,393.903 101.811,388.472 105.954 C 386.441 107.503,386.081 107.582,384.339 106.860 C 381.937 105.865,380.785 106.714,381.846 108.696 C 382.237 109.427,382.388 110.301,382.180 110.638 C 381.595 111.583,379.375 111.361,379.375 110.358 C 379.375 106.398,373.835 106.104,371.355 109.931 C 369.099 113.412,368.766 114.825,370.750 112.500 C 371.596 111.508,371.938 111.337,371.686 112.031 C 371.264 113.195,372.159 113.558,372.818 112.490 C 373.040 112.132,374.118 112.790,375.299 114.006 C 377.458 116.229,377.862 116.309,380.822 115.096 C 381.790 114.699,382.810 114.375,383.089 114.375 C 383.368 114.375,383.971 113.924,384.429 113.372 C 384.887 112.821,385.935 112.114,386.758 111.800 C 387.928 111.356,388.176 110.914,387.892 109.781 C 387.399 107.817,389.493 105.625,391.862 105.625 C 394.016 105.625,394.685 106.502,394.478 109.054 C 394.333 110.854,395.289 112.269,398.408 114.868 C 399.279 115.595,399.375 109.989,399.375 58.150 L 399.375 0.625 329.442 0.625 C 266.292 0.625,259.472 0.721,259.130 1.612 M289.701 24.360 C 288.421 25.774,287.500 25.997,287.500 24.893 C 287.500 23.599,289.536 21.786,290.220 22.470 C 290.637 22.887,290.464 23.517,289.701 24.360 M210.013 23.422 C 209.578 23.946,208.807 24.375,208.301 24.375 C 207.794 24.375,206.144 25.463,204.634 26.792 C 200.779 30.185,197.199 30.704,195.000 28.188 C 193.681 26.679,193.196 26.491,191.890 26.982 C 190.697 27.431,190.169 27.327,189.585 26.528 C 189.050 25.796,187.760 25.459,185.199 25.380 C 182.435 25.295,181.525 25.031,181.379 24.272 C 181.241 23.555,180.627 23.331,179.187 23.473 C 178.087 23.581,176.630 23.688,175.949 23.710 C 174.979 23.741,175.217 24.095,177.042 25.335 C 181.298 28.227,179.796 29.466,175.313 26.761 C 173.303 25.548,170.676 25.071,172.500 26.250 C 173.286 26.758,173.245 26.857,172.248 26.865 C 171.134 26.874,171.144 26.949,172.404 28.042 C 175.018 30.309,173.055 32.178,168.778 31.494 C 167.395 31.273,165.488 31.379,164.538 31.729 C 163.589 32.080,161.125 32.697,159.063 33.102 C 151.389 34.608,151.091 34.760,148.438 38.502 C 145.913 42.063,142.824 44.075,140.972 43.364 C 139.510 42.803,139.803 41.294,141.501 40.648 C 144.767 39.407,147.497 33.874,146.503 30.511 C 146.141 29.284,142.597 30.140,141.680 31.676 C 141.401 32.144,140.895 32.354,140.555 32.144 C 140.214 31.934,139.282 32.420,138.482 33.225 C 134.919 36.809,133.509 37.788,132.161 37.612 C 131.382 37.510,130.560 37.724,130.335 38.088 C 129.777 38.992,125.427 38.927,124.500 38.000 C 123.917 37.417,123.750 37.417,123.750 38.000 C 123.750 38.413,124.031 38.750,124.375 38.750 C 124.719 38.750,125.000 39.031,125.000 39.375 C 125.000 39.719,124.472 40.000,123.827 40.000 C 123.181 40.000,122.303 40.422,121.875 40.938 C 121.447 41.453,120.271 41.875,119.262 41.875 C 118.105 41.875,117.581 42.125,117.844 42.551 C 118.073 42.922,118.934 43.058,119.756 42.851 C 120.956 42.550,121.250 42.721,121.250 43.718 C 121.250 44.501,121.560 44.842,122.089 44.639 C 122.716 44.398,122.914 44.996,122.870 47.002 C 122.814 49.611,122.751 49.692,120.625 49.848 C 117.953 50.043,114.169 51.177,111.274 52.649 C 110.084 53.255,108.608 53.750,107.993 53.750 C 107.378 53.750,106.875 54.031,106.875 54.375 C 106.875 54.719,106.379 55.000,105.773 55.000 C 105.167 55.000,104.113 55.748,103.430 56.663 C 101.260 59.566,98.828 60.697,96.899 59.700 C 95.362 58.905,95.178 58.966,94.051 60.642 C 93.273 61.800,91.075 63.238,87.830 64.712 C 85.070 65.965,82.109 67.316,81.250 67.713 C 80.391 68.110,79.463 68.787,79.188 69.218 C 78.913 69.648,78.139 70.000,77.469 70.000 C 76.799 70.000,76.250 70.276,76.250 70.613 C 76.250 70.950,75.547 71.403,74.687 71.618 C 73.828 71.834,73.125 72.242,73.125 72.526 C 73.125 72.809,72.500 73.239,71.737 73.481 C 69.801 74.096,66.587 77.780,64.278 82.031 C 63.204 84.008,62.084 85.625,61.788 85.625 C 61.492 85.625,61.250 86.586,61.250 87.760 C 61.250 88.935,60.921 90.005,60.520 90.139 C 59.449 90.496,61.072 99.866,62.570 101.971 C 63.219 102.884,63.756 104.009,63.764 104.471 C 63.772 104.934,64.328 106.016,65.000 106.875 C 65.672 107.734,66.234 108.719,66.249 109.063 C 66.285 109.927,70.788 114.192,75.483 117.810 C 77.639 119.472,79.570 121.496,79.773 122.307 C 80.033 123.340,80.362 123.603,80.870 123.181 C 81.726 122.470,87.108 125.577,87.702 127.124 C 87.917 127.686,88.481 127.949,89.023 127.741 C 89.543 127.542,90.406 127.817,90.942 128.353 C 92.300 129.710,91.060 131.565,87.968 132.802 C 85.086 133.955,85.000 133.959,85.000 132.921 C 85.000 132.466,84.297 131.432,83.438 130.625 C 82.578 129.818,81.875 129.400,81.875 129.697 C 81.875 129.994,81.000 129.343,79.931 128.249 C 78.219 126.498,76.252 125.987,77.214 127.543 C 77.412 127.863,77.180 128.125,76.700 128.125 C 75.869 128.125,74.375 130.582,74.375 131.949 C 74.375 132.301,73.931 133.033,73.389 133.575 C 72.847 134.118,72.546 135.110,72.722 135.780 C 72.897 136.450,72.876 136.835,72.676 136.634 C 72.475 136.434,71.972 136.733,71.558 137.299 C 69.537 140.064,68.707 137.608,70.524 134.237 C 73.050 129.554,73.334 127.649,71.476 127.853 C 70.685 127.940,70.063 127.826,70.093 127.599 C 70.294 126.094,69.843 125.556,68.524 125.729 C 65.970 126.064,63.676 122.767,65.625 121.563 C 66.440 121.059,66.440 116.875,65.625 116.875 C 65.281 116.875,65.000 117.156,65.000 117.500 C 65.000 118.515,63.237 118.213,62.608 117.091 C 62.163 116.295,61.832 116.221,61.171 116.769 C 56.443 120.692,54.031 122.123,53.108 121.552 C 51.744 120.709,51.776 123.252,53.148 124.712 C 54.473 126.123,54.520 126.416,53.782 128.653 C 53.178 130.484,53.156 131.391,53.694 132.396 C 54.085 133.126,54.276 134.432,54.119 135.299 C 53.922 136.384,54.112 136.875,54.729 136.875 C 55.222 136.875,55.625 136.626,55.625 136.322 C 55.625 135.358,58.970 133.471,59.240 134.283 C 59.373 134.682,59.725 134.858,60.022 134.674 C 60.633 134.296,62.015 136.527,61.493 137.048 C 61.308 137.234,61.739 137.571,62.453 137.798 C 63.166 138.024,63.750 138.612,63.750 139.105 C 63.750 140.192,65.713 140.287,66.750 139.250 C 67.333 138.667,67.500 138.717,67.500 139.475 C 67.500 140.011,66.748 140.981,65.829 141.631 C 64.910 142.281,63.541 143.445,62.788 144.219 C 61.253 145.796,60.000 146.051,60.000 144.786 C 60.000 143.402,55.701 141.365,55.039 142.436 C 54.373 143.515,52.500 142.885,52.500 141.582 C 52.500 141.056,52.078 140.625,51.563 140.625 C 51.047 140.625,50.625 140.344,50.625 140.000 C 50.625 138.773,48.875 139.403,47.823 141.009 C 46.890 142.433,46.853 143.000,47.530 145.418 C 48.076 147.370,48.110 148.390,47.645 148.855 C 46.658 149.842,45.478 148.807,45.844 147.276 C 46.375 145.055,41.080 139.884,39.362 140.945 C 39.025 141.154,38.750 140.885,38.750 140.349 C 38.750 139.172,37.914 139.108,36.222 140.156 C 35.199 140.790,34.862 140.778,34.434 140.090 C 34.024 139.430,33.800 139.413,33.430 140.012 C 32.774 141.073,31.244 137.344,31.669 135.720 C 31.887 134.886,31.566 134.254,30.684 133.782 C 29.964 133.396,29.371 133.302,29.365 133.572 C 29.334 135.196,28.110 131.663,27.775 128.979 C 27.277 124.996,27.814 123.125,29.454 123.125 C 30.139 123.125,30.525 123.406,30.312 123.750 C 30.100 124.094,30.223 124.375,30.586 124.375 C 30.949 124.375,31.646 123.461,32.135 122.344 C 32.623 121.227,33.046 120.770,33.074 121.330 C 33.162 123.076,34.866 124.066,35.108 122.512 C 35.303 121.264,36.144 120.724,36.344 121.719 C 36.532 122.652,38.473 123.711,40.031 123.730 C 40.908 123.741,41.931 124.056,42.304 124.429 C 42.772 124.897,43.110 124.906,43.387 124.457 C 43.609 124.098,44.133 123.936,44.551 124.097 C 45.195 124.343,49.375 117.744,49.375 116.482 C 49.375 116.264,48.342 116.254,47.080 116.459 C 42.940 117.131,39.401 114.859,39.385 111.520 C 39.376 109.806,38.974 109.398,35.607 107.689 C 32.331 106.026,31.887 105.930,32.212 106.951 C 32.417 107.599,32.285 108.125,31.917 108.125 C 31.550 108.125,31.250 108.688,31.250 109.375 C 31.250 110.063,30.969 110.625,30.625 110.625 C 30.281 110.625,30.000 111.015,30.000 111.491 C 30.000 111.967,29.297 112.817,28.438 113.380 C 27.204 114.188,26.875 114.928,26.875 116.892 C 26.875 118.260,26.313 120.429,25.625 121.712 C 24.938 122.994,24.375 124.567,24.375 125.206 C 24.375 125.844,23.813 126.514,23.125 126.694 C 22.438 126.874,21.875 127.494,21.875 128.073 C 21.875 128.652,21.601 129.399,21.265 129.735 C 20.869 130.131,20.905 131.157,21.368 132.664 C 22.119 135.112,20.454 147.771,19.285 148.493 C 18.991 148.675,18.750 149.335,18.750 149.960 C 18.750 150.585,18.328 151.447,17.813 151.875 C 16.551 152.922,16.528 150.514,17.767 147.004 C 18.258 145.613,18.492 143.835,18.287 143.052 C 17.938 141.717,17.889 141.705,17.488 142.846 C 17.254 143.515,16.738 144.098,16.343 144.141 C 15.948 144.184,15.203 144.254,14.688 144.297 C 14.172 144.340,13.750 144.767,13.750 145.246 C 13.750 145.724,13.305 146.287,12.761 146.496 C 11.407 147.015,11.436 147.030,11.069 145.625 C 10.818 144.667,11.050 144.375,12.059 144.375 C 13.082 144.375,13.208 144.208,12.625 143.625 C 11.271 142.271,12.312 136.875,13.927 136.875 C 14.258 136.875,14.145 136.414,13.677 135.850 C 13.151 135.215,12.824 133.250,12.820 130.694 C 12.813 126.888,12.702 126.547,11.406 126.363 C 9.803 126.135,9.416 128.456,10.710 130.529 C 11.545 131.866,10.863 138.971,9.954 138.409 C 9.636 138.212,9.371 138.419,9.365 138.869 C 9.358 139.519,9.245 139.513,8.817 138.837 C 8.521 138.369,8.428 137.414,8.611 136.714 C 8.908 135.579,8.747 135.492,7.128 135.911 C 3.270 136.909,1.696 136.971,1.172 136.145 C 0.882 135.687,0.640 155.352,0.635 179.844 L 0.625 224.375 55.662 224.375 C 89.222 224.375,110.559 224.149,110.341 223.797 C 110.145 223.479,110.308 222.507,110.705 221.637 C 111.663 219.533,110.382 216.364,108.243 215.551 L 106.682 214.958 108.373 213.192 C 110.271 211.211,110.506 209.896,109.437 207.242 C 108.880 205.858,108.529 205.596,107.977 206.148 C 107.049 207.076,105.455 207.080,104.531 206.156 C 103.759 205.384,104.974 203.365,108.186 200.085 C 109.384 198.861,109.682 198.100,109.324 197.182 C 108.949 196.223,108.828 196.173,108.794 196.964 C 108.728 198.504,106.875 199.002,106.875 197.480 C 106.875 196.804,107.173 196.250,107.537 196.250 C 107.901 196.250,108.003 195.933,107.763 195.545 C 107.466 195.064,107.142 195.170,106.747 195.876 C 106.227 196.804,106.044 196.764,104.980 195.487 C 104.121 194.457,103.781 194.322,103.752 195.000 C 103.720 195.742,103.579 195.710,103.075 194.844 C 102.725 194.242,101.768 193.750,100.949 193.750 C 100.008 193.750,99.313 193.289,99.063 192.500 C 98.844 191.813,98.391 191.250,98.055 191.250 C 97.712 191.250,97.567 190.171,97.725 188.795 C 97.880 187.445,97.826 186.160,97.605 185.939 C 97.384 185.718,97.172 185.205,97.134 184.800 C 97.096 184.394,97.023 183.604,96.970 183.045 C 96.918 182.485,96.011 181.669,94.956 181.232 C 93.325 180.556,93.093 180.193,93.412 178.812 C 93.661 177.735,93.597 177.473,93.222 178.035 C 92.560 179.028,91.554 177.900,92.188 176.875 C 92.400 176.531,92.155 176.250,91.644 176.250 C 88.716 176.250,88.068 173.055,90.322 169.732 C 91.837 167.500,91.843 167.451,90.496 168.395 C 88.422 169.848,87.648 169.603,87.165 167.344 C 86.926 166.227,86.447 164.961,86.101 164.531 C 85.284 163.517,86.777 161.527,87.679 162.429 C 88.071 162.821,88.754 162.775,89.611 162.299 C 90.341 161.894,90.975 161.563,91.021 161.563 C 91.067 161.563,91.295 160.670,91.529 159.580 C 92.051 157.141,90.091 157.252,88.452 159.753 C 87.788 160.766,86.882 161.250,85.647 161.250 C 84.644 161.250,83.637 161.552,83.408 161.922 C 83.141 162.354,82.482 162.114,81.563 161.250 C 80.058 159.837,77.500 160.498,77.500 162.301 C 77.500 162.714,77.236 163.215,76.913 163.414 C 76.590 163.614,76.368 163.208,76.421 162.514 C 76.473 161.819,76.737 161.250,77.008 161.250 C 77.279 161.250,77.509 160.055,77.520 158.594 C 77.542 155.699,78.624 153.750,80.209 153.750 C 80.764 153.750,81.644 152.926,82.165 151.919 C 83.529 149.281,87.607 148.441,86.625 151.001 C 86.429 151.512,86.681 151.875,87.233 151.875 C 87.752 151.875,88.776 152.433,89.508 153.115 C 90.412 153.957,91.393 154.258,92.561 154.052 C 93.840 153.826,94.354 154.030,94.560 154.843 C 94.749 155.590,94.987 155.292,95.309 153.906 C 95.809 151.754,96.680 151.264,97.270 152.801 C 97.540 153.506,97.911 153.574,98.825 153.085 C 99.486 152.731,100.301 152.612,100.638 152.820 C 100.975 153.029,101.250 152.901,101.250 152.537 C 101.250 152.173,101.039 151.866,100.781 151.855 C 98.215 151.746,97.494 147.500,100.042 147.500 C 100.706 147.500,101.250 147.219,101.250 146.875 C 101.250 146.531,100.517 146.250,99.621 146.250 C 98.429 146.250,98.088 145.998,98.351 145.313 C 98.570 144.741,98.352 144.375,97.793 144.375 C 97.288 144.375,96.875 144.676,96.875 145.045 C 96.875 145.910,95.285 147.500,94.420 147.500 C 93.571 147.500,93.536 143.956,94.379 143.435 C 94.726 143.221,95.435 142.221,95.956 141.214 L 96.903 139.382 95.052 139.585 C 93.224 139.785,88.480 143.213,85.827 146.250 C 84.732 147.503,84.305 147.658,83.668 147.031 C 81.794 145.186,75.871 146.721,75.227 149.219 C 75.028 149.992,74.614 150.625,74.307 150.625 C 74.001 150.625,73.750 151.328,73.750 152.188 C 73.750 153.047,74.031 153.750,74.375 153.750 C 74.719 153.750,75.000 154.313,75.000 155.000 C 75.000 155.694,74.583 156.250,74.063 156.250 C 73.547 156.250,73.125 155.812,73.125 155.276 C 73.125 154.740,72.831 154.483,72.473 154.704 C 71.587 155.252,68.750 153.322,68.750 152.173 C 68.750 151.665,68.328 151.250,67.813 151.250 C 67.297 151.250,66.875 150.994,66.875 150.681 C 66.875 149.987,70.492 146.875,71.298 146.875 C 71.615 146.875,71.875 146.322,71.875 145.647 C 71.875 144.061,73.609 143.152,75.825 143.576 C 77.236 143.845,77.643 143.652,77.923 142.580 C 78.114 141.849,78.489 141.250,78.755 141.250 C 79.022 141.250,79.415 140.551,79.629 139.697 C 79.875 138.718,80.615 137.994,81.631 137.739 C 82.824 137.440,83.025 137.196,82.403 136.802 C 81.902 136.484,81.847 136.265,82.267 136.260 C 82.655 136.254,83.312 136.660,83.729 137.162 C 84.379 137.945,84.718 137.857,86.147 136.532 C 87.519 135.260,88.260 135.045,90.387 135.300 C 91.956 135.489,93.668 135.261,94.763 134.719 C 97.425 133.402,107.765 132.783,107.310 133.967 C 107.074 134.582,107.554 134.980,108.846 135.238 C 109.879 135.445,111.616 136.030,112.706 136.539 C 113.796 137.048,117.034 138.006,119.903 138.667 C 125.884 140.045,126.893 140.702,125.776 142.491 C 125.360 143.156,125.186 144.134,125.390 144.663 C 125.889 145.965,125.096 145.869,122.559 144.323 C 117.401 141.178,102.064 143.406,104.293 146.976 C 105.006 148.117,104.992 148.256,104.195 147.950 C 103.519 147.691,103.352 147.921,103.581 148.797 C 103.925 150.111,102.791 150.485,102.303 149.219 C 102.138 148.789,102.034 149.070,102.072 149.844 C 102.154 151.504,102.406 151.559,104.195 150.306 C 106.140 148.944,106.724 151.140,105.319 154.531 C 104.998 155.307,105.158 155.625,105.871 155.625 C 106.423 155.625,106.875 155.991,106.875 156.438 C 106.875 156.884,107.208 157.583,107.615 157.990 C 109.446 159.821,108.630 161.166,104.738 162.727 L 100.938 164.252 103.281 164.696 C 104.570 164.940,105.625 165.355,105.625 165.619 C 105.625 166.705,111.286 168.178,115.695 168.239 L 118.368 168.276 116.528 169.051 C 115.516 169.477,114.433 169.681,114.122 169.504 C 113.811 169.327,113.738 169.475,113.959 169.833 C 114.180 170.191,113.942 170.831,113.431 171.256 C 111.766 172.638,113.427 173.909,117.051 174.026 C 117.663 174.046,118.366 174.349,118.613 174.700 C 118.860 175.051,119.838 175.679,120.785 176.095 C 121.733 176.511,122.436 177.172,122.348 177.564 C 122.260 177.955,123.031 178.770,124.063 179.375 C 125.094 179.980,125.877 180.761,125.803 181.111 C 125.728 181.461,126.221 181.602,126.896 181.426 C 127.792 181.191,128.128 181.420,128.135 182.271 C 128.142 183.139,128.278 183.226,128.667 182.612 C 129.069 181.978,129.610 182.201,131.002 183.572 C 131.998 184.554,134.115 186.113,135.708 187.037 C 137.301 187.961,138.768 189.146,138.970 189.671 C 139.171 190.196,139.961 190.625,140.724 190.625 C 141.488 190.625,144.462 191.390,147.332 192.325 C 153.260 194.255,154.559 193.977,154.884 190.705 C 154.993 189.615,154.852 188.762,154.572 188.810 C 153.293 189.030,152.747 188.618,151.959 186.839 C 150.928 184.509,151.388 183.903,153.379 184.969 C 154.205 185.411,155.183 185.586,155.552 185.357 C 155.922 185.129,156.792 185.246,157.487 185.618 C 158.562 186.193,158.750 186.105,158.750 185.022 C 158.750 184.205,158.340 183.750,157.603 183.750 C 156.275 183.750,153.125 180.457,153.125 179.068 C 153.125 178.549,152.914 178.119,152.656 178.112 C 152.398 178.104,151.084 176.557,149.734 174.674 C 148.274 172.636,146.812 171.250,146.121 171.250 C 145.483 171.250,144.799 170.828,144.601 170.313 C 144.403 169.797,143.779 169.353,143.214 169.326 C 142.566 169.294,142.475 169.160,142.969 168.961 C 143.734 168.652,144.096 166.875,143.393 166.875 C 141.731 166.875,140.805 171.451,142.281 172.367 C 144.997 174.051,142.751 176.214,139.638 174.912 C 138.612 174.483,135.867 174.225,133.371 174.322 C 129.645 174.467,128.863 174.321,128.517 173.418 C 128.058 172.223,129.091 170.625,130.322 170.625 C 130.759 170.625,131.287 170.180,131.496 169.636 C 132.113 168.027,131.953 167.930,130.378 168.962 C 128.987 169.874,128.859 169.860,128.574 168.768 C 128.372 167.998,128.537 167.698,129.053 167.895 C 129.485 168.061,130.007 167.759,130.212 167.223 C 130.418 166.688,130.991 166.250,131.486 166.250 C 132.799 166.250,132.278 158.741,130.665 154.416 C 129.179 150.430,129.117 150.602,131.833 151.158 C 133.915 151.584,133.975 151.683,134.172 154.980 C 134.283 156.841,134.891 159.365,135.524 160.588 C 136.157 161.812,136.883 163.652,137.136 164.679 C 137.568 166.425,137.642 166.465,138.290 165.304 C 139.777 162.635,140.625 162.268,140.625 164.293 C 140.625 166.730,141.537 167.257,142.751 165.523 L 143.713 164.150 146.680 167.075 C 148.312 168.684,149.867 170.000,150.136 170.000 C 150.405 170.000,150.625 170.355,150.625 170.789 C 150.625 171.223,151.383 172.137,152.309 172.820 C 153.235 173.504,154.551 174.695,155.234 175.469 C 155.917 176.242,156.987 176.875,157.613 176.875 C 158.238 176.875,158.750 177.156,158.750 177.500 C 158.750 177.844,159.453 178.125,160.313 178.125 C 161.172 178.125,161.875 178.340,161.875 178.603 C 161.875 178.865,163.000 179.568,164.375 180.163 C 166.063 180.894,166.875 181.641,166.875 182.461 C 166.875 183.129,167.168 183.857,167.525 184.078 C 167.883 184.299,168.005 185.019,167.796 185.678 C 167.243 187.420,168.053 187.147,168.731 185.362 C 169.373 183.675,174.374 182.614,177.966 183.403 C 178.981 183.625,181.803 183.355,184.237 182.801 C 191.432 181.165,211.325 181.764,212.179 183.643 C 212.958 185.355,214.375 185.411,214.375 183.730 C 214.375 182.091,215.374 181.747,220.431 181.646 C 223.538 181.583,224.645 181.327,224.838 180.625 C 225.063 179.806,225.015 179.804,224.457 180.607 C 224.105 181.113,223.610 181.319,223.357 181.065 C 222.414 180.122,224.139 179.316,225.771 179.937 C 226.947 180.384,227.678 180.312,228.529 179.667 C 229.166 179.185,230.104 178.781,230.612 178.770 C 232.114 178.738,243.723 172.874,243.737 172.140 C 243.763 170.804,246.668 168.772,250.017 167.747 C 251.898 167.172,254.036 166.061,254.768 165.279 C 255.499 164.497,256.765 163.762,257.580 163.647 C 258.667 163.493,259.115 162.979,259.260 161.719 C 259.393 160.568,259.822 160.000,260.560 160.000 C 261.301 160.000,261.645 159.539,261.612 158.594 C 261.574 157.509,261.955 157.142,263.281 156.990 C 264.265 156.877,265.000 156.409,265.000 155.896 C 265.000 155.403,265.293 155.000,265.651 155.000 C 266.657 155.000,268.545 152.974,269.041 151.361 C 269.337 150.400,269.809 150.033,270.438 150.274 C 271.192 150.563,271.306 150.307,270.988 149.041 C 270.767 148.162,270.793 147.109,271.045 146.701 C 271.632 145.751,271.947 143.924,271.924 141.595 C 271.914 140.581,272.333 139.280,272.855 138.703 C 273.378 138.125,273.939 136.845,274.103 135.858 C 274.634 132.655,275.697 131.250,277.590 131.250 C 279.199 131.250,279.313 131.098,278.975 129.405 C 278.656 127.809,278.821 127.506,280.199 127.160 C 281.108 126.932,281.665 126.429,281.495 125.988 C 281.332 125.563,281.485 124.464,281.834 123.545 C 282.335 122.228,282.284 121.875,281.594 121.875 C 280.710 121.875,280.708 121.698,281.506 114.746 C 281.760 112.541,283.487 110.092,285.338 109.314 C 287.058 108.591,290.611 105.845,290.617 105.233 C 290.622 104.845,291.049 104.176,291.568 103.745 C 292.087 103.315,292.685 101.874,292.898 100.544 C 293.111 99.213,293.469 98.125,293.695 98.125 C 296.142 98.125,296.444 90.131,294.156 85.938 C 293.593 84.906,293.131 83.697,293.129 83.250 C 293.123 82.013,291.193 78.504,290.199 77.922 C 289.113 77.286,285.625 69.803,285.625 68.109 C 285.625 67.430,285.222 66.875,284.730 66.875 C 284.237 66.875,283.656 66.312,283.438 65.625 C 283.219 64.938,282.782 64.375,282.466 64.375 C 281.973 64.375,280.178 60.905,280.203 60.000 C 280.207 59.828,279.863 59.037,279.437 58.241 C 278.863 57.168,278.844 56.577,279.363 55.952 C 279.748 55.488,280.206 54.319,280.381 53.355 C 280.556 52.390,280.950 51.298,281.258 50.928 C 282.358 49.603,281.744 47.526,280.456 48.216 C 279.683 48.629,279.040 48.625,278.533 48.204 C 277.516 47.360,276.472 48.085,275.672 50.190 C 274.918 52.173,275.914 54.465,277.299 53.933 C 277.777 53.750,278.125 54.049,278.125 54.643 C 278.125 55.475,277.889 55.543,276.875 55.000 C 276.188 54.632,275.625 54.043,275.625 53.691 C 275.625 53.339,275.375 53.206,275.070 53.395 C 274.208 53.927,271.086 49.447,271.422 48.160 C 271.651 47.284,271.168 46.861,269.297 46.300 C 267.965 45.901,266.875 45.305,266.875 44.975 C 266.875 44.645,266.426 44.375,265.878 44.375 C 265.329 44.375,264.134 43.980,263.221 43.497 C 258.278 40.881,254.855 39.959,254.071 41.032 C 253.201 42.221,251.613 41.584,252.125 40.251 C 252.370 39.612,251.923 39.391,250.448 39.423 C 247.711 39.483,241.600 38.288,238.921 37.169 C 237.712 36.663,235.983 36.247,235.080 36.243 C 234.177 36.240,232.057 35.818,230.369 35.306 C 228.682 34.794,226.487 34.375,225.493 34.375 C 224.498 34.375,222.649 33.672,221.384 32.813 C 218.715 30.999,217.948 30.895,216.862 32.203 C 216.428 32.727,215.934 33.018,215.766 32.850 C 215.598 32.682,214.905 32.841,214.226 33.205 C 213.350 33.674,212.792 33.667,212.308 33.183 C 211.814 32.689,211.854 32.500,212.452 32.500 C 213.094 32.500,213.115 32.303,212.542 31.613 C 211.963 30.916,212.026 30.602,212.838 30.148 C 213.972 29.514,214.582 24.375,213.523 24.375 C 213.186 24.375,212.437 23.946,211.858 23.422 C 210.914 22.567,210.722 22.567,210.013 23.422 M286.507 27.943 C 285.380 29.730,284.426 29.604,284.651 27.697 C 284.764 26.729,284.890 25.666,284.929 25.335 C 284.968 25.003,285.487 25.220,286.083 25.815 C 286.903 26.635,287.006 27.152,286.507 27.943 M159.583 26.667 C 159.583 27.209,160.001 27.386,160.732 27.154 C 161.363 26.953,162.582 26.714,163.441 26.623 C 166.410 26.306,165.853 25.594,162.724 25.705 C 160.545 25.782,159.583 26.076,159.583 26.667 M231.875 26.543 C 231.875 27.102,232.241 27.320,232.813 27.101 C 233.328 26.903,233.750 26.490,233.750 26.183 C 233.750 25.876,233.328 25.625,232.813 25.625 C 232.297 25.625,231.875 26.038,231.875 26.543 M87.500 28.750 C 87.500 29.438,87.235 30.000,86.912 30.000 C 86.073 30.000,85.482 28.862,85.938 28.125 C 86.591 27.068,87.500 27.432,87.500 28.750 M211.250 32.500 C 211.250 32.844,210.828 33.125,210.313 33.125 C 209.797 33.125,209.375 32.844,209.375 32.500 C 209.375 32.156,209.797 31.875,210.313 31.875 C 210.828 31.875,211.250 32.156,211.250 32.500 M208.125 33.750 C 208.125 34.094,207.422 34.375,206.563 34.375 C 205.703 34.375,205.000 34.094,205.000 33.750 C 205.000 33.406,205.703 33.125,206.563 33.125 C 207.422 33.125,208.125 33.406,208.125 33.750 M266.911 38.595 C 266.054 39.289,265.691 39.967,266.056 40.193 C 266.927 40.731,268.983 39.136,268.661 38.171 C 268.473 37.607,267.985 37.725,266.911 38.595 M133.388 40.339 C 133.747 41.770,133.882 41.832,134.751 40.964 C 136.176 39.539,137.424 39.791,137.876 41.594 C 138.306 43.306,136.646 45.214,135.176 44.697 C 134.154 44.338,133.478 45.551,133.626 47.482 C 133.800 49.766,128.247 49.931,127.785 47.656 C 127.628 46.883,127.360 45.569,127.188 44.737 C 126.791 42.811,127.383 41.250,128.510 41.250 C 128.993 41.250,129.869 40.688,130.458 40.000 C 131.903 38.311,132.909 38.428,133.388 40.339 M126.875 48.438 C 126.875 49.446,126.303 49.596,124.742 48.997 C 123.470 48.509,124.090 47.500,125.662 47.500 C 126.329 47.500,126.875 47.922,126.875 48.438 M80.761 48.847 C 81.086 49.820,82.484 49.990,82.533 49.063 C 82.551 48.719,82.097 48.340,81.524 48.222 C 80.872 48.087,80.586 48.321,80.761 48.847 M311.875 59.375 C 311.875 60.063,311.619 60.625,311.305 60.625 C 310.853 60.625,310.806 59.574,311.202 58.281 C 311.408 57.610,311.875 58.370,311.875 59.375 M36.250 73.677 C 36.250 73.981,36.813 74.376,37.500 74.556 C 38.188 74.736,38.750 75.340,38.750 75.899 C 38.750 77.381,36.839 77.900,35.934 76.664 C 35.517 76.093,34.854 75.625,34.462 75.625 C 33.690 75.625,33.491 74.218,34.167 73.542 C 34.773 72.935,36.250 73.031,36.250 73.677 M327.307 75.057 C 328.273 76.023,331.998 76.097,332.329 75.156 C 332.524 74.602,331.736 74.375,329.615 74.375 C 327.456 74.375,326.814 74.564,327.307 75.057 M324.844 81.227 C 323.626 82.413,323.442 83.125,324.353 83.125 C 324.957 83.125,326.533 80.675,326.144 80.340 C 326.031 80.242,325.445 80.641,324.844 81.227 M52.500 82.813 C 52.500 83.328,52.044 83.750,51.486 83.750 C 50.655 83.750,50.613 83.580,51.250 82.813 C 51.678 82.297,52.134 81.875,52.264 81.875 C 52.394 81.875,52.500 82.297,52.500 82.813 M29.448 83.594 C 29.358 84.559,27.101 86.875,26.250 86.875 C 25.906 86.875,25.625 87.156,25.625 87.500 C 25.625 89.231,22.117 91.284,21.026 90.192 C 20.305 89.471,18.213 89.352,17.807 90.009 C 17.598 90.348,16.617 90.625,15.627 90.625 C 14.213 90.625,13.848 90.893,13.922 91.875 C 13.975 92.576,14.464 93.125,15.036 93.125 C 15.597 93.125,16.559 93.681,17.174 94.360 C 17.789 95.040,18.548 95.437,18.861 95.244 C 19.174 95.051,19.769 95.157,20.184 95.481 C 21.557 96.553,23.520 96.714,24.700 95.851 C 26.451 94.571,27.659 94.765,27.188 96.250 C 26.640 97.975,27.661 97.818,28.479 96.051 C 29.162 94.577,28.379 93.125,26.901 93.125 C 26.543 93.125,26.250 92.563,26.250 91.875 C 26.250 90.472,28.432 90.095,28.961 91.406 C 29.165 91.913,29.294 91.837,29.326 91.191 C 29.381 90.077,31.296 88.125,32.334 88.125 C 32.705 88.125,32.861 88.688,32.681 89.375 C 32.498 90.074,32.662 90.625,33.052 90.625 C 34.026 90.625,33.888 88.672,32.813 87.252 C 32.319 86.599,32.063 85.826,32.244 85.533 C 32.426 85.240,32.015 85.000,31.333 85.000 C 30.650 85.000,29.963 84.508,29.806 83.906 C 29.649 83.305,29.487 83.164,29.448 83.594 M11.875 88.125 C 11.875 89.615,12.835 89.783,13.371 88.386 C 13.907 86.989,13.864 86.875,12.813 86.875 C 12.292 86.875,11.875 87.431,11.875 88.125 M1.260 92.969 C 1.288 94.339,2.481 95.248,2.490 93.906 C 2.496 93.133,2.219 92.500,1.875 92.500 C 1.531 92.500,1.254 92.711,1.260 92.969 M8.393 95.357 C 8.933 95.897,9.375 96.882,9.375 97.545 C 9.375 98.943,11.350 99.199,12.397 97.936 C 13.832 96.207,12.538 94.375,9.882 94.375 C 7.635 94.375,7.500 94.464,8.393 95.357 M358.750 97.399 C 358.750 97.768,359.389 99.011,360.170 100.163 L 361.591 102.256 363.006 100.928 C 364.562 99.468,364.324 97.506,362.589 97.491 C 362.025 97.487,360.930 97.313,360.156 97.106 C 359.338 96.887,358.750 97.009,358.750 97.399 M347.154 99.429 C 346.923 99.803,347.021 100.396,347.372 100.747 C 347.805 101.180,348.235 100.963,348.714 100.067 C 349.479 98.638,348.013 98.039,347.154 99.429 M340.897 102.435 C 341.087 102.742,340.758 103.180,340.165 103.408 C 339.572 103.635,338.990 103.532,338.872 103.179 C 338.728 102.748,338.417 102.743,337.923 103.165 C 337.518 103.510,336.625 104.182,335.938 104.658 C 333.759 106.167,335.284 106.287,338.639 104.869 C 341.498 103.661,343.033 101.875,341.213 101.875 C 340.849 101.875,340.707 102.127,340.897 102.435 M5.663 107.281 C 4.253 109.073,1.558 110.724,0.982 110.148 C 0.786 109.952,0.658 112.440,0.699 115.677 C 0.742 119.090,0.940 120.775,1.170 119.688 C 1.501 118.131,1.912 117.779,3.596 117.617 C 4.829 117.498,5.881 116.940,6.281 116.193 C 6.642 115.518,7.205 115.130,7.531 115.332 C 7.858 115.534,8.127 114.909,8.130 113.943 C 8.133 112.978,8.313 110.711,8.530 108.906 C 8.991 105.071,7.891 104.448,5.663 107.281 M386.711 115.474 C 385.254 116.300,383.299 117.901,382.366 119.030 C 381.401 120.199,379.840 121.251,378.744 121.470 C 377.336 121.752,376.642 122.356,376.169 123.715 C 375.490 125.661,373.968 126.534,372.342 125.910 C 371.581 125.618,371.326 126.165,371.109 128.552 C 370.831 131.614,371.419 133.750,372.540 133.750 C 374.195 133.750,382.364 138.369,383.670 140.044 L 385.153 141.944 383.761 143.426 C 381.681 145.640,383.412 146.975,392.663 150.292 C 394.312 150.883,395.956 151.962,396.350 152.711 C 399.334 158.383,399.375 158.234,399.375 141.756 L 399.375 126.467 389.900 126.665 C 383.590 126.796,380.145 126.629,379.587 126.167 C 378.475 125.243,378.525 124.375,379.691 124.375 C 380.208 124.375,382.106 123.652,383.909 122.769 C 386.267 121.614,388.329 121.131,391.250 121.048 L 395.313 120.934 395.367 117.498 L 395.422 114.063 392.391 114.017 C 390.277 113.985,388.559 114.426,386.711 115.474 M292.500 120.918 C 292.500 121.477,292.866 121.695,293.438 121.476 C 293.953 121.278,294.375 120.865,294.375 120.558 C 294.375 120.251,293.953 120.000,293.438 120.000 C 292.922 120.000,292.500 120.413,292.500 120.918 M27.191 139.381 C 27.639 140.106,27.002 142.505,26.364 142.490 C 24.922 142.458,24.277 141.352,24.957 140.079 C 25.727 138.642,26.571 138.378,27.191 139.381 M116.686 163.620 C 117.855 164.363,116.602 165.761,114.978 165.523 C 114.185 165.407,113.405 164.916,113.245 164.432 C 113.045 163.827,113.275 163.674,113.977 163.943 C 114.540 164.159,115.000 164.063,115.000 163.730 C 115.000 163.009,115.657 162.966,116.686 163.620 M96.875 164.955 C 96.875 166.670,100.117 168.202,100.938 166.875 C 101.150 166.531,100.736 166.250,100.017 166.250 C 99.299 166.250,98.549 165.828,98.351 165.313 C 97.957 164.287,96.875 164.025,96.875 164.955 M245.625 178.438 C 245.625 178.953,245.906 179.375,246.250 179.375 C 246.594 179.375,246.875 178.953,246.875 178.438 C 246.875 177.922,246.594 177.500,246.250 177.500 C 245.906 177.500,245.625 177.922,245.625 178.438 M233.125 185.552 C 233.125 185.856,233.704 186.256,234.411 186.440 C 235.466 186.716,235.564 186.617,234.959 185.888 C 234.134 184.894,233.125 184.709,233.125 185.552 M125.030 188.474 C 126.141 189.813,131.223 192.735,131.668 192.290 C 132.514 191.445,131.077 189.882,128.399 188.733 C 124.909 187.237,123.942 187.163,125.030 188.474 M194.063 189.211 C 193.031 189.362,191.848 189.766,191.434 190.109 C 191.019 190.452,190.416 190.569,190.093 190.370 C 189.770 190.170,189.336 190.450,189.128 190.992 C 188.560 192.472,188.670 192.830,189.451 192.049 C 189.837 191.663,190.484 191.475,190.890 191.631 C 191.296 191.787,192.739 191.433,194.096 190.845 C 195.452 190.257,197.085 189.849,197.725 189.939 C 198.425 190.037,198.721 189.833,198.469 189.426 C 198.047 188.743,197.461 188.714,194.063 189.211 M109.129 192.239 C 108.086 194.957,110.133 196.879,112.929 195.806 C 114.310 195.276,113.843 194.375,112.188 194.375 C 110.938 194.375,110.625 194.063,110.625 192.813 C 110.625 191.067,109.713 190.717,109.129 192.239 M132.158 192.548 C 131.626 193.409,132.163 193.915,133.327 193.649 C 134.100 193.472,134.114 193.310,133.409 192.662 C 132.835 192.134,132.436 192.098,132.158 192.548 M127.500 196.404 C 127.500 197.210,134.124 201.154,136.566 201.802 C 140.801 202.925,143.415 205.554,142.435 207.705 C 141.298 210.202,142.691 210.983,145.102 209.201 C 147.439 207.473,147.441 207.477,143.281 203.808 C 139.790 200.728,133.130 197.500,130.268 197.500 C 129.571 197.500,128.663 197.162,128.250 196.750 C 127.837 196.338,127.500 196.182,127.500 196.404 M123.750 201.186 C 123.750 201.519,123.142 201.984,122.398 202.220 C 120.994 202.666,125.431 207.465,127.271 207.490 C 127.951 207.500,128.702 209.164,129.011 211.349 C 129.131 212.197,128.885 212.283,127.663 211.818 C 123.871 210.376,121.389 215.668,124.431 218.710 C 126.488 220.767,126.655 221.250,125.313 221.250 C 124.304 221.250,124.154 221.822,124.754 223.386 C 125.289 224.779,143.125 224.886,143.125 223.496 C 143.125 222.926,143.562 222.731,144.368 222.942 C 145.052 223.121,145.457 223.516,145.269 223.821 C 145.080 224.126,145.471 224.375,146.137 224.375 C 147.635 224.375,149.106 222.794,148.155 222.206 C 147.795 221.983,147.500 221.397,147.500 220.902 C 147.500 216.707,133.083 202.541,128.494 202.227 C 127.432 202.154,125.930 201.754,125.156 201.338 C 124.355 200.906,123.750 200.841,123.750 201.186 " stroke="none" fill="#000000" fill-rule="evenodd"></path></g></svg>