<svg id="svg" xmlns="http://www.w3.org/2000/svg" xmlns:xlink="http://www.w3.org/1999/xlink" width="400" height="225" viewBox="0, 0, 400,225"><g id="svgg"><path id="path0" d="M0.625 45.625 C 0.625 75.208,0.839 90.625,1.250 90.625 C 1.594 90.625,1.875 91.047,1.875 91.563 C 1.875 92.078,1.594 92.500,1.250 92.500 C 0.332 92.500,0.484 96.236,1.406 96.330 C 1.836 96.373,3.250 96.370,4.548 96.323 C 6.280 96.260,7.020 96.530,7.326 97.337 C 7.968 99.033,8.902 99.687,10.824 99.784 C 12.039 99.845,12.488 99.620,12.272 99.058 C 11.737 97.664,14.049 96.013,15.085 97.050 C 15.604 97.568,17.554 97.961,20.004 98.041 C 22.236 98.113,24.530 98.313,25.101 98.486 C 26.147 98.801,27.118 96.427,27.167 93.438 C 27.182 92.538,27.564 92.226,28.530 92.325 C 29.560 92.431,29.802 92.192,29.570 91.302 C 29.190 89.851,30.496 88.935,31.015 90.289 C 31.445 91.408,33.125 90.465,33.125 89.104 C 33.125 88.695,33.758 87.681,34.531 86.851 C 35.305 86.021,35.937 85.054,35.938 84.702 C 35.938 83.674,38.433 83.967,38.468 85.000 C 38.677 91.149,39.905 91.618,44.196 87.188 C 48.093 83.164,47.521 83.359,49.645 85.328 L 51.348 86.906 52.861 84.675 C 53.866 83.194,54.344 81.666,54.281 80.128 C 54.205 78.242,54.139 78.131,53.927 79.531 C 53.745 80.735,53.299 81.250,52.439 81.250 C 51.088 81.250,50.079 79.488,51.060 78.843 C 51.399 78.620,52.199 77.031,52.838 75.313 C 53.476 73.594,54.182 72.047,54.406 71.875 C 54.786 71.584,55.375 69.512,55.916 66.563 C 56.043 65.875,56.202 65.172,56.270 65.000 C 56.338 64.828,56.341 64.179,56.276 63.556 C 56.212 62.934,56.531 61.977,56.986 61.429 C 57.440 60.881,57.878 59.562,57.957 58.498 C 58.037 57.433,58.177 55.578,58.270 54.375 C 58.467 51.805,61.250 50.597,61.250 53.082 C 61.250 53.793,61.568 54.375,61.957 54.375 C 62.419 54.375,62.537 53.597,62.298 52.122 C 61.841 49.304,62.439 46.121,63.364 46.447 C 63.748 46.582,63.980 47.155,63.879 47.721 C 63.777 48.293,64.103 48.750,64.614 48.750 C 65.782 48.750,67.486 52.105,67.089 53.623 C 66.636 55.357,68.519 56.713,69.051 55.037 C 69.274 54.333,69.906 53.308,70.455 52.759 C 71.059 52.156,71.210 51.599,70.837 51.350 C 69.675 50.572,69.358 48.717,70.323 48.347 C 71.735 47.805,71.455 47.025,69.063 44.829 C 67.421 43.322,66.875 42.313,66.875 40.786 C 66.875 39.666,66.594 38.750,66.250 38.750 C 64.725 38.750,65.691 35.901,67.485 35.107 C 69.986 34.000,70.625 34.558,70.625 37.849 C 70.625 39.376,70.871 40.625,71.172 40.625 C 71.473 40.625,71.888 41.469,72.094 42.500 C 72.318 43.620,72.861 44.375,73.441 44.375 C 73.976 44.375,74.576 44.797,74.774 45.313 C 75.543 47.315,75.938 46.060,75.938 41.615 C 75.938 36.537,77.775 33.413,79.781 35.078 C 80.920 36.023,80.864 41.274,79.691 43.522 C 78.414 45.971,78.505 46.822,80.000 46.431 C 81.248 46.105,81.758 47.112,80.681 47.778 C 80.368 47.972,80.182 48.621,80.268 49.221 C 80.462 50.568,83.125 51.115,83.125 49.807 C 83.125 48.396,84.536 47.586,86.016 48.148 C 87.056 48.543,87.274 49.023,87.020 50.357 C 86.784 51.588,86.904 51.931,87.451 51.593 C 87.867 51.335,88.061 50.978,87.881 50.798 C 87.701 50.618,88.162 49.310,88.906 47.891 C 90.252 45.325,91.257 36.742,91.201 28.287 C 91.180 25.113,92.944 23.801,93.220 26.786 C 93.400 28.730,93.498 29.067,94.301 30.527 C 94.744 31.332,94.944 32.636,94.747 33.424 C 94.281 35.278,95.740 36.514,97.788 36.000 C 99.012 35.692,99.264 35.812,98.976 36.562 C 98.409 38.041,100.370 37.045,101.539 35.260 C 102.415 33.924,102.419 33.750,101.577 33.750 C 100.878 33.750,100.648 33.126,100.710 31.406 C 100.763 29.955,100.898 29.598,101.066 30.469 C 101.451 32.465,102.134 32.213,103.115 29.714 C 103.625 28.412,104.728 27.176,105.887 26.603 C 107.664 25.727,107.698 25.652,106.334 25.639 C 104.914 25.626,104.895 25.566,105.849 24.109 C 106.589 22.981,106.647 22.527,106.078 22.336 C 105.493 22.139,105.515 21.833,106.170 21.039 C 107.495 19.435,108.846 19.711,108.399 21.494 C 108.192 22.316,108.332 23.179,108.710 23.413 C 109.087 23.646,109.217 24.125,108.999 24.478 C 108.767 24.853,109.089 25.028,109.770 24.898 C 110.506 24.759,111.011 24.044,111.135 22.963 C 111.252 21.951,111.714 21.250,112.264 21.250 C 114.747 21.250,116.761 17.524,117.213 12.093 C 117.453 9.213,117.897 6.703,118.200 6.516 C 118.502 6.329,118.750 5.088,118.750 3.759 C 118.750 1.982,119.040 1.266,119.844 1.056 C 120.445 0.899,93.867 0.737,60.781 0.698 L 0.625 0.625 0.625 45.625 M139.010 1.094 C 139.641 1.725,142.500 1.749,142.500 1.123 C 142.500 0.849,141.609 0.625,140.521 0.625 C 139.432 0.625,138.753 0.836,139.010 1.094 M254.243 1.155 C 255.455 1.924,254.228 4.448,251.918 5.938 C 250.852 6.625,250.062 7.609,250.162 8.125 C 250.262 8.641,249.801 9.508,249.138 10.052 C 248.052 10.944,248.035 11.082,248.966 11.439 C 249.535 11.657,250.000 11.547,250.000 11.193 C 250.000 10.840,250.281 10.725,250.625 10.938 C 250.969 11.150,251.250 10.891,251.250 10.363 C 251.250 9.255,258.362 9.362,259.486 10.486 C 260.324 11.324,258.793 13.727,257.690 13.304 C 256.543 12.864,253.026 14.389,253.298 15.208 C 253.679 16.349,256.647 16.762,259.329 16.046 C 261.752 15.400,262.001 15.461,263.491 17.068 C 264.362 18.008,265.361 18.600,265.711 18.384 C 269.152 16.258,273.053 22.031,269.743 24.353 C 266.541 26.599,262.500 30.902,262.500 32.065 C 262.500 32.762,262.661 33.173,262.857 32.977 C 263.053 32.780,263.934 32.994,264.814 33.451 C 265.839 33.982,266.909 34.094,267.785 33.760 C 269.075 33.270,272.346 32.921,274.328 33.062 C 275.017 33.111,274.946 33.443,274.015 34.531 C 271.757 37.172,271.197 38.596,272.257 39.003 C 272.778 39.203,273.029 39.649,272.815 39.996 C 272.365 40.724,273.315 40.852,274.010 40.156 C 274.268 39.898,277.407 39.672,280.986 39.653 C 284.564 39.634,287.174 39.815,286.786 40.055 C 285.780 40.677,286.649 43.585,288.068 44.344 C 289.249 44.976,297.029 43.058,298.406 41.795 C 299.185 41.080,300.000 41.100,300.000 41.833 C 300.000 42.153,299.483 42.580,298.850 42.781 C 298.218 42.981,297.358 43.774,296.940 44.542 C 296.521 45.309,295.216 46.641,294.040 47.500 C 292.864 48.359,291.737 49.551,291.536 50.149 C 291.335 50.746,290.303 51.460,289.242 51.735 C 285.996 52.576,285.796 54.729,288.946 54.915 C 290.359 54.998,291.877 55.367,292.320 55.735 C 292.893 56.211,293.366 56.203,293.964 55.707 C 294.425 55.324,294.982 55.190,295.201 55.409 C 295.845 56.053,299.359 56.157,299.738 55.543 C 299.930 55.233,300.348 55.141,300.668 55.339 C 300.988 55.537,301.250 55.384,301.250 55.000 C 301.250 54.616,301.461 54.431,301.719 54.590 C 301.977 54.748,303.734 55.072,305.625 55.310 C 307.516 55.548,309.180 55.857,309.324 55.997 C 309.783 56.445,307.942 59.375,307.201 59.375 C 306.810 59.375,305.943 59.792,305.276 60.301 C 303.853 61.386,305.058 62.727,307.031 62.254 C 309.230 61.727,305.744 67.866,301.613 71.796 C 300.394 72.956,299.535 74.129,299.705 74.403 C 300.127 75.086,304.986 72.984,304.994 72.116 C 305.009 70.485,307.626 68.125,309.420 68.125 C 311.199 68.125,311.250 68.212,311.250 71.243 C 311.250 74.498,313.241 75.557,315.116 73.298 C 315.956 72.285,317.319 72.268,317.651 73.266 C 317.798 73.705,319.619 72.352,321.922 70.095 L 325.938 66.158 326.148 68.235 C 326.268 69.417,325.876 71.212,325.238 72.400 C 324.135 74.455,324.139 74.504,325.493 75.525 C 328.563 77.842,335.655 75.405,333.145 72.895 C 331.869 71.619,332.475 69.950,334.531 69.080 C 335.739 68.569,336.651 68.465,336.780 68.824 C 336.909 69.183,337.352 69.132,337.873 68.700 C 338.606 68.092,338.684 68.318,338.354 70.080 C 338.029 71.819,338.105 72.051,338.792 71.406 C 340.727 69.591,340.899 72.570,339.026 75.447 C 337.918 77.149,337.874 78.124,338.906 78.128 C 342.658 78.145,345.950 80.828,343.828 82.139 C 343.527 82.325,343.281 83.191,343.281 84.063 C 343.281 85.410,343.423 85.529,344.224 84.855 C 344.743 84.419,346.324 83.500,347.737 82.813 C 349.151 82.125,350.635 80.892,351.035 80.072 C 352.072 77.946,353.036 77.527,356.237 77.813 C 357.791 77.952,359.273 78.079,359.531 78.095 C 359.789 78.112,360.000 78.547,360.000 79.063 C 360.000 79.578,360.311 80.000,360.692 80.000 C 361.072 80.000,361.243 80.366,361.072 80.813 C 360.900 81.260,361.142 82.314,361.608 83.156 C 362.855 85.408,362.684 87.120,361.143 87.821 C 359.068 88.764,357.310 91.565,357.223 94.064 C 357.164 95.764,356.780 96.496,355.653 97.063 C 353.323 98.234,353.485 99.133,356.224 100.229 C 359.318 101.467,359.392 102.370,356.558 104.299 C 354.061 106.000,353.934 106.608,355.647 108.665 C 357.218 110.551,359.627 109.334,359.859 106.537 C 359.938 105.577,360.586 104.346,361.299 103.802 C 362.012 103.258,363.431 102.004,364.453 101.016 C 366.265 99.263,368.008 99.747,368.105 102.031 C 368.116 102.289,368.688 103.062,369.375 103.750 C 371.154 105.529,369.441 109.637,367.437 108.398 C 366.957 108.102,366.845 108.195,367.128 108.653 C 367.373 109.050,367.346 109.376,367.068 109.376 C 365.540 109.380,366.318 113.656,367.974 114.352 C 371.263 115.737,372.500 116.552,372.500 117.336 C 372.500 117.770,372.781 118.125,373.125 118.125 C 373.469 118.125,373.750 117.872,373.750 117.562 C 373.750 117.253,374.784 117.095,376.047 117.213 C 377.311 117.330,378.879 117.140,379.532 116.791 C 380.577 116.231,380.642 116.300,380.073 117.364 C 379.259 118.885,376.914 120.440,374.596 120.997 C 373.615 121.233,372.048 121.810,371.115 122.280 C 370.181 122.751,368.747 123.191,367.930 123.259 C 366.796 123.352,366.434 123.760,366.406 124.972 C 366.385 125.847,366.165 127.898,365.916 129.531 C 365.558 131.871,365.647 132.500,366.334 132.500 C 367.747 132.500,374.639 136.065,375.882 137.439 C 377.263 138.965,376.786 140.625,374.968 140.625 C 370.922 140.625,375.412 142.953,384.063 145.340 C 387.365 146.251,388.335 146.922,392.188 150.954 C 394.594 153.472,397.195 155.713,397.969 155.933 L 399.375 156.334 399.375 139.503 L 399.375 122.672 397.813 122.843 C 396.289 123.011,395.698 122.290,396.800 121.609 C 397.648 121.085,398.014 118.264,397.324 117.574 C 396.986 117.236,396.878 116.518,397.085 115.980 C 397.782 114.163,398.677 114.982,398.917 117.656 C 399.049 119.117,399.206 93.383,399.266 60.469 L 399.375 0.625 326.406 0.635 C 286.273 0.640,253.800 0.874,254.243 1.155 M113.750 17.500 C 114.375 17.904,114.427 18.109,113.906 18.115 C 113.477 18.121,113.125 18.688,113.125 19.375 C 113.125 20.069,112.708 20.625,112.188 20.625 C 111.563 20.625,111.250 20.000,111.250 18.750 C 111.250 16.816,112.062 16.409,113.750 17.500 M210.720 21.262 C 210.295 22.222,209.268 23.173,208.429 23.384 C 207.592 23.594,205.798 24.887,204.440 26.258 C 200.609 30.128,193.750 29.013,193.750 24.520 C 193.750 23.685,193.552 23.755,192.777 24.861 C 191.579 26.571,189.990 26.661,189.567 25.042 C 189.295 24.000,189.037 23.931,187.706 24.537 C 186.476 25.098,186.047 25.058,185.606 24.343 C 185.267 23.796,184.310 23.523,183.150 23.645 C 181.703 23.797,181.250 23.592,181.250 22.787 C 181.250 21.995,180.896 21.824,179.844 22.106 C 179.070 22.313,177.251 22.487,175.801 22.491 C 173.716 22.498,173.240 22.696,173.524 23.438 C 173.766 24.069,173.495 24.375,172.692 24.375 C 172.036 24.375,171.194 24.681,170.821 25.054 C 170.353 25.522,170.015 25.531,169.738 25.082 C 169.516 24.723,168.912 24.592,168.394 24.791 C 167.877 24.989,166.901 24.652,166.227 24.041 C 165.552 23.431,165.000 23.226,165.000 23.585 C 165.000 24.492,161.916 25.183,161.034 24.474 C 159.323 23.100,156.250 22.961,156.250 24.258 C 156.250 24.937,155.850 25.645,155.362 25.832 C 153.271 26.634,154.761 28.442,157.376 28.275 C 158.774 28.185,160.094 28.396,160.308 28.743 C 160.908 29.714,162.500 29.492,162.500 28.438 C 162.500 27.375,165.316 27.119,165.938 28.125 C 166.519 29.066,167.509 28.876,167.133 27.895 C 166.446 26.106,169.583 26.180,171.063 27.988 C 172.648 29.923,172.672 30.010,171.952 31.147 C 171.539 31.798,170.904 31.838,169.061 31.329 C 167.534 30.908,165.790 30.881,164.130 31.253 C 162.718 31.570,159.313 32.265,156.563 32.798 C 152.118 33.659,151.335 34.026,149.520 36.102 C 143.207 43.318,143.373 43.180,141.170 43.042 C 139.160 42.916,134.846 44.073,133.369 45.134 C 132.987 45.409,132.818 46.380,132.992 47.294 C 133.261 48.700,133.135 48.888,132.174 48.519 C 131.533 48.273,130.844 48.395,130.595 48.799 C 129.204 51.049,126.566 47.900,126.426 43.825 L 126.290 39.852 128.145 40.223 C 129.701 40.534,130.000 40.395,130.000 39.359 C 130.000 38.680,130.301 38.125,130.670 38.125 C 131.691 38.125,133.125 39.782,133.125 40.962 C 133.125 41.811,133.347 41.739,134.282 40.585 L 135.438 39.157 137.361 40.526 L 139.284 41.896 139.695 40.601 C 139.921 39.889,140.430 39.414,140.826 39.546 C 143.312 40.375,147.760 32.055,146.370 29.178 C 146.007 28.427,145.691 28.164,145.667 28.594 C 145.644 29.023,144.912 29.375,144.041 29.375 C 143.169 29.375,141.692 29.859,140.759 30.450 C 137.978 32.214,134.098 35.257,133.561 36.097 C 133.257 36.573,132.456 36.731,131.529 36.498 C 130.528 36.247,130.000 36.380,130.000 36.882 C 130.000 37.434,128.952 37.574,126.287 37.382 C 124.244 37.234,122.723 37.355,122.906 37.651 C 123.432 38.502,120.205 41.138,118.295 41.418 L 116.563 41.671 118.594 42.535 C 119.711 43.010,120.625 43.565,120.625 43.768 C 120.625 43.970,121.070 44.682,121.614 45.349 C 122.458 46.385,122.552 46.403,122.258 45.469 C 121.840 44.138,122.845 43.994,123.351 45.313 C 123.549 45.828,124.111 46.250,124.601 46.250 C 125.359 46.250,126.612 48.061,126.108 48.429 C 126.014 48.497,123.828 48.864,121.250 49.243 C 114.051 50.302,112.303 50.733,111.352 51.684 C 110.869 52.167,109.659 52.725,108.662 52.924 C 107.665 53.123,106.698 53.531,106.513 53.831 C 106.328 54.130,105.640 54.375,104.985 54.375 C 104.330 54.375,103.491 54.942,103.120 55.634 C 102.749 56.327,101.336 57.594,99.978 58.451 L 97.510 60.010 96.204 58.704 L 94.898 57.398 93.816 59.415 C 92.708 61.481,83.619 66.875,81.246 66.875 C 80.645 66.875,79.803 67.297,79.375 67.813 C 78.947 68.328,78.224 68.750,77.767 68.750 C 77.311 68.750,75.728 69.558,74.250 70.546 C 72.772 71.534,70.944 72.533,70.187 72.766 C 67.731 73.522,59.375 84.789,59.375 87.345 C 59.375 87.980,59.040 88.835,58.630 89.245 C 58.053 89.822,58.069 91.296,58.703 95.773 C 59.503 101.424,59.676 101.826,63.134 106.067 C 63.473 106.483,63.750 107.216,63.750 107.696 C 63.750 108.177,64.733 109.858,65.935 111.431 C 67.982 114.112,68.041 114.317,66.878 114.687 C 65.392 115.158,64.375 114.636,64.375 113.401 C 64.375 111.634,62.503 112.551,59.197 115.938 C 57.351 117.828,55.558 119.375,55.213 119.375 C 53.808 119.375,52.909 122.345,53.721 124.306 C 54.147 125.334,54.278 126.526,54.013 126.956 C 53.397 127.952,53.251 131.875,53.829 131.875 C 54.565 131.875,54.047 135.180,52.922 137.656 C 51.844 140.031,50.625 140.777,50.625 139.063 C 50.625 137.367,49.502 138.080,47.705 140.915 C 45.844 143.851,44.375 144.571,44.375 142.545 C 44.375 140.790,42.681 139.375,40.580 139.375 C 39.574 139.375,38.750 139.161,38.750 138.900 C 38.750 138.639,38.158 138.056,37.435 137.604 C 36.711 137.152,36.306 137.085,36.534 137.454 C 36.778 137.849,36.420 138.125,35.662 138.125 C 34.954 138.125,34.375 137.746,34.375 137.283 C 34.375 136.820,33.812 135.793,33.125 135.000 C 32.437 134.207,31.875 133.321,31.875 133.029 C 31.875 132.738,31.523 132.499,31.094 132.498 C 30.664 132.496,29.784 131.210,29.138 129.639 C 27.775 126.325,28.606 123.403,30.753 123.964 C 31.371 124.126,31.719 124.003,31.526 123.692 C 31.169 123.114,31.988 122.900,33.854 123.084 C 34.428 123.140,35.079 122.610,35.303 121.906 C 35.862 120.142,36.527 120.296,38.335 122.606 C 42.198 127.542,49.498 122.827,49.302 115.522 C 49.263 114.032,49.105 113.286,48.952 113.865 C 48.485 115.634,45.291 115.917,43.133 114.380 C 41.300 113.076,40.979 112.461,41.217 110.720 C 41.281 110.257,40.951 109.413,40.483 108.845 C 40.016 108.277,39.244 107.035,38.769 106.084 C 37.530 103.610,34.779 102.355,32.620 103.281 C 30.297 104.278,30.226 104.367,31.263 105.008 C 31.991 105.458,32.019 105.731,31.401 106.349 C 30.974 106.776,30.625 107.515,30.625 107.992 C 30.625 108.468,29.767 110.052,28.719 111.512 C 27.671 112.972,26.766 114.786,26.709 115.542 C 26.645 116.401,26.075 117.052,25.194 117.273 C 23.747 117.636,22.618 120.902,23.313 122.714 C 23.613 123.496,22.853 128.434,22.094 130.625 C 21.916 131.141,21.681 133.813,21.572 136.563 C 21.385 141.269,19.450 148.864,18.076 150.281 C 17.284 151.098,17.337 148.958,18.175 146.246 C 18.546 145.045,18.836 143.148,18.819 142.031 C 18.802 140.914,19.019 140.000,19.302 140.000 C 19.993 140.000,19.389 133.604,18.624 132.813 C 18.232 132.407,18.092 132.909,18.225 134.244 C 18.353 135.530,18.098 136.506,17.545 136.847 C 17.058 137.148,16.357 138.332,15.986 139.478 C 15.520 140.921,14.928 141.563,14.063 141.563 C 12.258 141.563,12.110 139.140,13.812 137.438 L 15.201 136.049 13.915 135.008 C 12.834 134.133,12.683 133.486,12.969 130.952 C 13.220 128.729,13.011 127.385,12.172 125.828 C 10.638 122.979,9.644 123.525,9.874 127.090 C 10.018 129.320,9.766 130.303,8.781 131.361 C 8.076 132.117,7.500 132.894,7.500 133.087 C 7.500 133.995,1.283 133.459,1.031 132.529 C 0.888 131.998,0.737 152.445,0.698 177.969 L 0.625 224.375 56.599 224.375 C 91.815 224.375,112.438 224.155,112.207 223.781 C 112.005 223.454,112.410 222.122,113.107 220.821 C 114.922 217.436,114.556 216.568,110.625 214.932 C 109.133 214.311,109.115 214.243,110.228 213.426 C 112.234 211.953,113.062 209.678,112.499 207.185 C 112.145 205.615,112.211 204.849,112.713 204.694 C 113.111 204.571,114.492 204.146,115.781 203.749 C 117.070 203.352,118.125 202.732,118.125 202.369 C 118.125 201.971,117.197 201.829,115.781 202.011 C 114.492 202.176,112.631 201.975,111.645 201.563 L 109.853 200.815 111.801 199.427 C 112.873 198.664,113.750 197.706,113.750 197.297 C 113.750 195.279,125.333 194.080,126.875 195.938 C 127.303 196.453,128.012 196.875,128.451 196.875 C 128.890 196.875,130.697 197.849,132.466 199.040 C 134.235 200.230,136.724 201.380,137.997 201.594 C 141.575 202.197,142.276 202.457,144.011 203.821 C 145.662 205.120,146.129 207.371,144.985 208.515 C 143.696 209.804,146.447 211.389,148.506 210.544 C 149.965 209.946,150.093 209.752,149.174 209.535 C 148.109 209.283,148.104 209.215,149.100 208.487 C 150.533 207.439,149.122 205.192,145.967 203.495 C 144.748 202.840,143.750 202.092,143.750 201.833 C 143.750 200.091,128.991 193.779,124.746 193.706 C 123.339 193.682,121.628 193.444,120.945 193.177 C 120.245 192.904,117.983 193.084,115.764 193.590 C 111.083 194.658,109.836 194.100,110.417 191.195 C 110.700 189.782,110.554 189.375,109.766 189.375 C 109.207 189.375,108.750 189.797,108.750 190.313 C 108.750 191.676,104.831 190.792,103.673 189.167 C 103.458 188.865,102.710 188.928,102.000 189.308 C 100.140 190.304,98.610 189.547,99.142 187.895 C 99.378 187.162,99.574 186.211,99.577 185.781 C 99.581 185.352,100.116 185.000,100.766 185.000 C 101.417 185.000,101.787 184.738,101.589 184.418 C 101.391 184.098,101.484 183.679,101.796 183.487 C 102.107 183.294,102.552 182.378,102.785 181.451 C 103.017 180.523,103.681 179.377,104.260 178.903 C 105.428 177.947,102.677 178.106,98.069 179.261 L 95.825 179.823 96.261 177.441 C 96.500 176.131,96.526 175.092,96.317 175.131 C 96.108 175.170,95.094 174.867,94.063 174.457 C 93.031 174.048,91.836 173.589,91.406 173.439 C 89.990 172.941,90.591 170.644,92.755 168.282 C 94.814 166.036,94.958 165.984,97.018 166.729 C 99.855 167.755,100.654 167.690,102.477 166.289 C 104.006 165.115,104.028 165.117,105.455 166.657 C 106.319 167.589,107.627 168.230,108.728 168.261 C 110.496 168.312,112.026 170.054,110.693 170.498 C 109.554 170.878,111.327 173.630,113.214 174.412 C 114.246 174.839,115.177 175.800,115.393 176.661 C 115.650 177.687,116.094 178.062,116.791 177.845 C 118.155 177.421,120.930 178.866,120.966 180.018 C 120.982 180.524,121.349 180.862,121.781 180.770 C 122.214 180.678,123.178 181.029,123.923 181.551 C 124.668 182.073,125.768 182.500,126.367 182.500 C 127.957 182.500,133.284 184.373,134.375 185.316 C 134.891 185.761,136.383 186.417,137.690 186.772 C 138.998 187.127,140.636 188.140,141.329 189.022 C 142.023 189.903,143.103 190.625,143.730 190.625 C 144.356 190.625,146.758 191.209,149.067 191.922 C 153.113 193.172,157.517 192.795,156.581 191.279 C 156.232 190.715,158.004 188.125,158.740 188.125 C 159.039 188.125,159.412 188.617,159.569 189.219 C 159.743 189.884,159.883 189.631,159.927 188.574 C 159.970 187.553,159.613 186.687,159.063 186.476 C 158.547 186.278,158.125 185.755,158.125 185.313 C 158.125 184.872,157.422 184.334,156.563 184.118 C 155.703 183.903,155.000 183.310,155.000 182.801 C 155.000 182.292,154.742 181.875,154.426 181.875 C 154.110 181.875,153.244 180.891,152.500 179.688 C 151.756 178.484,150.749 177.500,150.262 177.500 C 149.774 177.500,149.375 176.952,149.375 176.282 C 149.375 174.277,146.562 171.692,144.941 172.206 C 143.817 172.563,143.636 172.448,143.966 171.589 C 144.597 169.943,143.293 167.920,142.233 168.904 C 141.622 169.470,141.585 169.811,142.097 170.132 C 143.093 170.755,140.608 172.538,139.293 172.143 C 138.732 171.975,138.112 172.259,137.914 172.773 C 137.294 174.388,129.635 173.832,129.855 172.188 C 130.352 168.475,130.648 167.367,131.439 166.237 C 132.413 164.846,131.975 160.471,130.258 154.464 C 129.144 150.568,129.168 150.511,131.594 151.159 C 133.251 151.601,133.452 151.931,133.583 154.419 C 133.836 159.246,136.958 168.189,137.657 166.092 C 138.389 163.895,139.734 163.890,140.464 166.081 L 141.033 167.787 142.151 166.081 C 143.284 164.352,144.375 163.835,144.375 165.027 C 144.375 166.072,155.795 176.841,157.344 177.258 C 158.117 177.465,158.750 177.905,158.750 178.235 C 158.750 178.565,159.314 178.655,160.003 178.437 C 160.823 178.176,161.381 178.365,161.618 178.981 C 161.817 179.500,162.802 180.104,163.807 180.325 C 164.813 180.546,165.915 181.249,166.256 181.887 C 166.598 182.525,167.369 183.044,167.970 183.041 C 170.376 183.028,171.553 183.623,171.954 185.057 C 172.354 186.485,172.379 186.492,172.438 185.193 C 172.523 183.316,172.947 183.177,176.730 183.779 C 179.011 184.142,181.325 184.032,184.263 183.419 C 188.314 182.574,195.718 182.326,206.563 182.671 C 211.060 182.814,211.625 182.971,212.179 184.228 C 213.029 186.151,214.251 185.981,214.490 183.906 C 214.621 182.767,215.001 182.257,215.619 182.394 C 216.132 182.507,216.976 182.558,217.494 182.506 C 218.013 182.454,219.790 182.351,221.443 182.277 C 223.286 182.194,224.667 181.788,225.014 181.227 C 225.325 180.724,226.222 180.265,227.008 180.207 C 229.907 179.994,233.804 178.702,237.014 176.890 C 238.828 175.866,241.113 174.578,242.092 174.029 C 243.071 173.480,244.688 172.100,245.685 170.964 C 246.905 169.575,248.471 168.656,250.468 168.157 C 252.101 167.748,254.141 166.758,255.000 165.955 C 255.859 165.153,257.125 164.396,257.813 164.273 C 258.557 164.140,259.146 163.463,259.269 162.599 C 259.397 161.697,260.165 160.858,261.296 160.382 C 262.551 159.854,262.916 159.416,262.469 158.969 C 262.023 158.523,262.130 158.067,262.812 157.500 C 263.563 156.877,263.978 156.853,264.526 157.401 C 264.924 157.799,265.686 158.121,266.219 158.115 C 267.009 158.108,267.029 158.006,266.330 157.563 C 265.159 156.821,265.766 155.318,267.239 155.315 C 268.045 155.313,268.629 154.662,269.024 153.323 C 269.346 152.229,270.118 151.202,270.739 151.039 C 271.636 150.805,271.788 150.346,271.481 148.809 C 271.221 147.512,271.339 146.875,271.839 146.875 C 272.281 146.875,272.434 146.402,272.216 145.713 C 272.008 145.060,272.238 144.227,272.740 143.810 C 273.232 143.402,273.551 142.319,273.451 141.403 C 273.350 140.487,273.669 139.126,274.158 138.379 C 274.648 137.632,275.004 136.777,274.950 136.479 C 274.655 134.855,275.104 133.125,275.820 133.125 C 277.218 133.125,279.375 130.653,279.375 129.050 C 279.375 127.943,279.804 127.416,280.938 127.132 C 282.238 126.805,282.500 126.367,282.500 124.513 C 282.500 123.288,282.965 121.772,283.534 121.143 C 284.103 120.514,284.260 120.000,283.884 120.000 C 283.507 120.000,283.025 120.281,282.813 120.625 C 282.229 121.570,280.625 121.374,280.625 120.357 C 280.625 119.866,281.047 119.042,281.563 118.527 C 282.078 118.011,282.504 116.796,282.509 115.826 C 282.526 112.313,283.219 111.337,287.564 108.711 C 289.935 107.279,291.875 105.878,291.875 105.598 C 291.875 105.318,292.227 104.718,292.656 104.263 C 296.904 99.773,298.455 90.091,295.531 86.322 C 294.895 85.502,294.374 84.237,294.373 83.509 C 294.370 81.906,292.142 78.119,290.540 76.996 C 289.899 76.547,289.375 75.692,289.375 75.097 C 289.375 74.501,288.813 72.911,288.125 71.562 C 287.438 70.214,286.875 68.748,286.875 68.304 C 286.875 67.860,285.924 66.584,284.761 65.467 C 281.524 62.358,280.271 59.572,281.880 59.061 C 282.565 58.844,283.125 58.403,283.125 58.083 C 283.125 57.320,282.053 57.332,281.578 58.100 C 281.364 58.446,280.686 58.255,279.980 57.650 C 278.771 56.615,278.777 56.579,280.462 55.131 C 281.402 54.323,282.203 53.330,282.241 52.925 C 282.279 52.519,282.352 51.715,282.405 51.138 C 282.457 50.561,282.885 49.705,283.355 49.234 C 285.905 46.684,284.528 44.311,281.094 45.335 C 278.966 45.970,274.090 48.375,273.854 48.906 C 273.507 49.687,272.438 49.431,272.547 48.594 C 272.773 46.849,272.392 46.415,270.000 45.699 C 268.625 45.287,267.500 44.668,267.500 44.323 C 267.500 43.977,267.148 43.751,266.719 43.819 C 264.854 44.116,259.878 41.160,260.196 39.945 C 260.367 39.288,260.253 38.750,259.941 38.750 C 259.630 38.750,259.375 39.155,259.375 39.651 C 259.375 41.125,258.172 41.424,256.542 40.357 C 255.297 39.541,254.787 39.498,253.786 40.123 C 252.538 40.902,251.053 40.296,252.251 39.497 C 253.177 38.880,253.830 36.875,253.105 36.875 C 252.772 36.875,252.500 37.095,252.500 37.363 C 252.500 38.166,248.944 39.256,248.075 38.719 C 247.632 38.445,245.606 38.028,243.574 37.792 C 241.542 37.556,239.133 36.974,238.221 36.498 C 237.309 36.022,235.824 35.631,234.922 35.629 C 234.020 35.627,232.086 35.203,230.625 34.688 C 229.164 34.172,227.039 33.750,225.904 33.750 C 224.768 33.750,223.465 33.376,223.007 32.918 C 222.550 32.460,221.404 31.892,220.463 31.656 C 219.339 31.374,218.750 30.813,218.750 30.025 C 218.750 28.158,217.563 27.877,216.912 29.589 C 216.141 31.618,215.700 31.781,213.250 30.938 L 211.187 30.229 212.781 29.503 C 213.658 29.104,214.398 28.279,214.427 27.670 C 214.456 27.061,214.561 25.859,214.661 25.000 C 214.762 24.141,214.565 23.087,214.223 22.660 C 213.882 22.232,213.732 21.388,213.889 20.785 C 214.400 18.833,211.609 19.253,210.720 21.262 M248.552 20.747 C 248.165 20.986,248.031 21.365,248.255 21.588 C 248.747 22.080,252.500 21.323,252.500 20.732 C 252.500 20.179,249.452 20.191,248.552 20.747 M232.056 25.625 C 231.876 26.313,231.329 26.875,230.840 26.875 C 230.111 26.875,230.096 27.032,230.757 27.747 C 231.593 28.652,232.773 28.448,232.188 27.500 C 232.004 27.204,232.141 26.784,232.491 26.568 C 232.841 26.352,233.401 26.895,233.736 27.775 C 234.513 29.821,235.625 29.843,235.625 27.813 C 235.625 26.953,235.314 26.250,234.933 26.250 C 234.553 26.250,234.403 25.828,234.601 25.313 C 234.849 24.666,234.561 24.375,233.672 24.375 C 232.909 24.375,232.250 24.885,232.056 25.625 M178.662 26.341 C 179.403 27.528,179.379 27.635,178.448 27.278 C 177.870 27.056,177.140 26.875,176.824 26.875 C 176.508 26.875,176.250 26.453,176.250 25.938 C 176.250 24.556,177.698 24.798,178.662 26.341 M226.919 27.134 C 226.453 27.696,226.257 28.341,226.484 28.567 C 227.068 29.151,228.316 27.761,228.016 26.861 C 227.844 26.344,227.505 26.428,226.919 27.134 M207.292 32.813 C 207.292 33.454,206.683 33.734,205.365 33.699 L 203.438 33.648 205.313 32.790 C 206.344 32.318,207.211 31.919,207.240 31.903 C 207.268 31.888,207.292 32.297,207.292 32.813 M267.344 37.550 C 266.282 38.168,265.776 40.645,266.719 40.605 C 267.718 40.563,269.375 38.875,269.375 37.900 C 269.375 36.728,268.897 36.645,267.344 37.550 M85.000 54.963 C 85.000 55.287,85.286 55.728,85.635 55.944 C 85.985 56.160,86.082 56.642,85.851 57.015 C 85.610 57.404,85.721 57.515,86.110 57.274 C 86.483 57.043,86.964 57.138,87.177 57.484 C 87.887 58.631,89.312 56.695,88.661 55.469 C 88.063 54.340,85.000 53.917,85.000 54.963 M68.191 58.627 C 67.859 59.248,67.795 60.091,68.049 60.502 C 68.756 61.646,70.937 59.840,70.434 58.528 C 69.916 57.179,68.943 57.222,68.191 58.627 M81.625 59.626 C 82.002 60.607,84.375 61.438,84.375 60.588 C 84.375 60.083,82.380 58.750,81.623 58.750 C 81.440 58.750,81.440 59.144,81.625 59.626 M29.212 78.906 C 30.277 80.260,30.724 84.611,29.712 83.770 C 29.064 83.232,28.290 83.369,26.471 84.344 C 25.132 85.062,22.908 85.625,21.416 85.625 C 19.949 85.625,18.750 85.906,18.750 86.250 C 18.750 87.216,16.254 86.988,15.870 85.988 C 15.343 84.614,17.511 81.732,18.815 82.073 C 19.488 82.249,20.865 81.528,22.307 80.245 C 24.812 78.015,28.021 77.393,29.212 78.906 M40.000 80.313 C 40.000 80.828,39.719 81.250,39.375 81.250 C 39.031 81.250,38.750 80.828,38.750 80.313 C 38.750 79.797,39.031 79.375,39.375 79.375 C 39.719 79.375,40.000 79.797,40.000 80.313 M322.436 80.040 C 321.816 80.423,321.762 80.992,322.223 82.307 C 323.347 85.517,326.959 84.468,325.931 81.229 C 325.525 79.951,323.625 79.305,322.436 80.040 M13.385 86.027 C 13.884 87.326,13.576 87.634,12.277 87.135 C 11.028 86.656,10.907 85.000,12.121 85.000 C 12.599 85.000,13.169 85.462,13.385 86.027 M366.970 85.979 C 369.408 87.373,369.947 90.694,368.316 94.268 C 366.402 98.461,365.624 98.715,362.537 96.151 C 359.696 93.791,359.503 93.144,361.185 91.622 C 362.191 90.711,362.777 89.085,363.240 85.921 C 363.354 85.142,365.568 85.176,366.970 85.979 M2.915 88.395 C 2.708 88.934,2.249 89.375,1.895 89.375 C 1.176 89.375,1.011 87.322,1.677 86.656 C 2.363 85.970,3.327 87.323,2.915 88.395 M13.750 89.740 C 13.750 90.284,13.416 90.618,13.008 90.482 C 11.849 90.095,11.657 88.750,12.760 88.750 C 13.305 88.750,13.750 89.195,13.750 89.740 M12.221 93.179 C 12.865 94.222,11.417 95.417,10.554 94.554 C 9.833 93.833,10.285 92.500,11.250 92.500 C 11.553 92.500,11.990 92.806,12.221 93.179 M345.625 94.828 C 345.625 95.118,344.756 95.869,343.693 96.496 C 341.835 97.594,338.276 100.488,332.663 105.464 C 331.206 106.756,330.011 108.164,330.007 108.594 C 329.999 109.512,331.015 109.636,331.542 108.782 C 331.744 108.456,334.888 106.699,338.529 104.876 C 342.171 103.054,345.313 101.141,345.512 100.625 C 345.711 100.109,346.369 99.155,346.974 98.504 C 347.780 97.635,347.912 97.021,347.471 96.195 C 346.779 94.902,345.625 94.048,345.625 94.828 M390.625 103.125 C 390.625 103.813,390.220 104.375,389.724 104.375 C 388.620 104.375,387.914 103.346,388.438 102.500 C 389.117 101.400,390.625 101.831,390.625 103.125 M383.405 103.715 C 384.469 104.890,384.430 104.960,382.176 105.902 C 378.460 107.455,377.372 106.378,380.000 103.750 C 381.555 102.195,382.025 102.190,383.405 103.715 M5.304 105.379 C 4.382 106.588,2.952 107.834,2.126 108.148 L 0.625 108.719 0.725 118.891 C 0.780 124.485,0.926 128.078,1.050 126.875 C 1.443 123.050,1.803 122.135,3.646 120.265 C 6.292 117.582,7.697 116.563,8.750 116.563 C 9.723 116.563,9.770 116.043,9.500 108.275 C 9.326 103.278,7.741 102.184,5.304 105.379 M394.375 107.834 C 394.375 109.777,392.409 111.875,390.590 111.875 C 388.333 111.875,388.104 111.402,389.152 108.906 C 390.104 106.636,394.375 105.760,394.375 107.834 M71.466 117.002 C 77.636 121.310,79.714 124.256,77.250 125.202 C 76.769 125.386,76.044 126.544,75.638 127.774 C 74.824 130.239,73.416 130.166,74.037 127.691 C 74.824 124.555,73.923 123.755,69.375 123.550 C 67.409 123.461,66.782 122.592,67.592 121.079 C 67.938 120.432,68.053 119.463,67.846 118.926 C 66.714 115.974,68.576 114.984,71.466 117.002 M292.269 121.406 C 291.671 123.637,291.806 124.375,292.813 124.375 C 293.328 124.375,293.750 124.021,293.750 123.588 C 293.750 123.155,294.378 122.408,295.146 121.929 C 296.508 121.079,296.512 121.044,295.303 120.572 C 293.251 119.771,292.664 119.932,292.269 121.406 M395.583 122.876 C 396.956 124.244,386.978 125.627,382.201 124.731 C 379.392 124.204,379.571 123.946,383.520 122.827 C 386.259 122.050,394.790 122.085,395.583 122.876 M83.642 125.352 C 86.095 126.576,86.560 127.311,85.608 128.458 C 84.772 129.466,83.491 129.050,84.149 127.985 C 84.407 127.567,84.275 127.488,83.805 127.779 C 82.999 128.277,81.305 126.525,81.270 125.156 C 81.245 124.172,81.281 124.175,83.642 125.352 M88.570 129.251 C 89.532 129.862,88.926 132.299,87.695 132.771 C 86.281 133.314,85.625 132.621,85.625 130.588 C 85.625 128.715,86.851 128.158,88.570 129.251 M10.936 132.494 C 11.389 133.923,10.816 135.192,9.957 134.661 C 9.198 134.192,9.199 131.250,9.958 131.250 C 10.278 131.250,10.718 131.810,10.936 132.494 M106.250 134.375 C 106.250 134.719,105.758 135.034,105.156 135.075 C 104.555 135.115,105.750 135.522,107.813 135.979 C 109.875 136.435,114.375 137.822,117.813 139.061 C 121.250 140.299,124.561 141.473,125.169 141.670 C 125.974 141.930,126.099 142.241,125.627 142.810 C 125.270 143.240,125.154 144.049,125.369 144.608 C 125.869 145.911,125.467 145.887,122.631 144.447 C 117.449 141.814,101.946 142.894,102.876 145.824 C 103.187 146.806,103.049 146.980,102.209 146.657 C 101.625 146.433,100.890 146.250,100.574 146.250 C 99.584 146.250,99.946 144.331,101.293 142.440 C 102.781 140.350,102.024 139.984,100.255 141.939 C 99.601 142.662,98.291 143.653,97.345 144.143 C 96.399 144.632,95.625 145.447,95.625 145.954 C 95.625 146.460,95.344 146.875,95.000 146.875 C 94.006 146.875,94.276 144.374,95.313 143.976 C 95.828 143.778,96.250 143.268,96.250 142.842 C 96.250 142.417,96.813 141.560,97.500 140.938 C 98.766 139.792,99.280 137.724,98.121 138.440 C 97.774 138.654,97.325 138.396,97.121 137.865 C 96.680 136.714,94.864 136.883,93.309 138.220 C 91.309 139.940,90.704 140.056,89.427 138.962 C 87.832 137.596,88.761 136.250,91.297 136.250 C 92.270 136.250,93.831 135.902,94.765 135.476 C 96.007 134.910,96.527 134.892,96.699 135.410 C 96.980 136.251,99.375 135.756,99.375 134.856 C 99.375 134.513,100.219 134.357,101.250 134.508 C 102.281 134.660,103.125 134.551,103.125 134.267 C 103.125 133.983,103.828 133.750,104.688 133.750 C 105.547 133.750,106.250 134.031,106.250 134.375 M58.410 139.375 C 58.890 139.375,59.426 139.867,59.601 140.469 C 59.776 141.070,59.867 140.719,59.804 139.688 C 59.655 137.288,62.003 137.370,64.344 139.846 C 65.804 141.390,65.821 141.497,64.711 142.139 C 64.071 142.509,63.030 143.305,62.399 143.906 C 60.765 145.462,60.001 145.263,59.990 143.281 C 59.984 142.102,59.815 141.824,59.452 142.396 C 59.027 143.067,58.850 143.037,58.544 142.240 C 58.335 141.695,57.734 141.250,57.207 141.250 C 56.681 141.250,56.250 140.828,56.250 140.313 C 56.250 139.178,55.218 139.065,54.818 140.156 C 54.603 140.741,54.341 140.759,53.775 140.229 C 53.190 139.679,53.287 139.327,54.207 138.666 C 54.860 138.197,55.623 137.250,55.902 136.563 C 56.353 135.452,56.472 135.539,56.973 137.344 C 57.282 138.461,57.929 139.375,58.410 139.375 M18.750 138.250 C 18.750 139.260,18.565 139.440,18.054 138.929 C 17.672 138.547,17.548 137.928,17.779 137.554 C 18.425 136.508,18.750 136.741,18.750 138.250 M83.750 139.428 C 83.750 139.721,83.258 139.797,82.656 139.597 C 81.956 139.363,82.160 139.764,83.224 140.710 C 84.748 142.065,85.968 145.964,85.047 146.534 C 84.843 146.659,83.413 146.527,81.870 146.239 C 79.808 145.854,78.576 145.954,77.230 146.616 C 75.806 147.317,75.292 147.347,74.924 146.753 C 74.571 146.181,74.126 146.282,73.163 147.153 C 72.455 147.794,71.875 148.014,71.875 147.642 C 71.875 147.270,73.000 146.469,74.375 145.862 C 75.750 145.256,76.879 144.603,76.885 144.411 C 76.890 144.219,77.743 143.100,78.780 141.924 C 80.083 140.445,80.437 139.645,79.929 139.331 C 79.438 139.028,79.587 138.793,80.378 138.625 C 81.899 138.301,83.750 138.742,83.750 139.428 M12.635 146.365 C 11.681 147.319,10.976 146.615,11.506 145.235 C 11.818 144.420,12.089 144.339,12.645 144.895 C 13.202 145.452,13.199 145.801,12.635 146.365 M70.545 149.427 C 70.028 149.749,69.595 149.691,69.455 149.283 C 69.327 148.910,69.608 148.366,70.080 148.073 C 70.597 147.751,71.030 147.809,71.170 148.217 C 71.298 148.590,71.017 149.134,70.545 149.427 M102.813 149.375 C 101.745 151.439,99.589 151.911,98.941 150.222 C 98.458 148.963,100.276 147.500,102.323 147.500 C 103.743 147.500,103.756 147.550,102.813 149.375 M86.703 150.589 C 86.227 152.409,91.499 155.792,92.793 154.498 C 93.013 154.279,93.437 154.494,93.736 154.978 C 94.202 155.732,94.437 155.729,95.382 154.960 C 96.362 154.162,96.440 154.181,96.084 155.131 C 95.576 156.486,99.800 154.448,101.584 152.476 C 103.525 150.332,105.140 150.856,104.720 153.495 C 104.421 155.381,104.564 155.791,105.619 156.067 C 109.118 156.982,105.446 161.250,101.159 161.250 C 99.907 161.250,94.487 164.507,90.974 167.372 C 89.273 168.759,89.076 168.792,88.359 167.811 C 87.179 166.197,89.183 162.292,91.081 162.507 C 91.655 162.572,92.531 158.681,92.099 157.983 C 91.711 157.353,89.364 158.603,87.988 160.171 C 86.626 161.725,82.979 161.208,81.620 159.268 C 81.086 158.505,80.314 158.111,79.767 158.321 C 79.193 158.541,78.740 158.269,78.601 157.622 C 78.246 155.972,78.809 154.375,79.746 154.375 C 80.214 154.375,81.091 153.602,81.696 152.656 C 83.766 149.420,87.401 147.919,86.703 150.589 M100.625 164.688 C 100.625 165.746,100.515 165.784,99.061 165.226 C 98.231 164.907,98.189 164.719,98.854 164.298 C 100.086 163.517,100.625 163.635,100.625 164.688 M117.188 164.375 C 116.975 164.719,116.396 165.000,115.901 165.000 C 115.405 165.000,115.000 164.719,115.000 164.375 C 115.000 164.031,115.579 163.750,116.287 163.750 C 116.995 163.750,117.400 164.031,117.188 164.375 M246.198 178.907 C 246.169 179.336,246.076 180.320,245.990 181.094 C 245.897 181.927,246.173 182.500,246.667 182.500 C 247.125 182.500,247.444 182.289,247.376 182.031 C 247.008 180.639,248.249 178.900,249.397 179.200 C 250.072 179.376,250.624 179.277,250.624 178.979 C 250.622 178.090,246.257 178.018,246.198 178.907 M117.748 179.479 C 117.571 179.766,117.560 180.000,117.724 180.000 C 117.889 180.000,118.421 180.153,118.907 180.339 C 119.406 180.531,119.792 180.304,119.792 179.819 C 119.792 178.885,118.271 178.633,117.748 179.479 M118.125 185.313 C 118.125 186.457,120.771 188.105,121.739 187.564 C 122.963 186.879,122.972 186.309,121.772 185.548 C 120.871 184.977,118.125 184.800,118.125 185.313 M158.125 187.619 C 158.125 188.274,157.412 188.248,156.315 187.554 C 155.769 187.208,155.610 186.569,155.891 185.844 C 156.345 184.674,158.125 186.088,158.125 187.619 M167.956 185.378 C 167.705 185.628,167.500 186.265,167.500 186.792 C 167.500 187.495,167.685 187.565,168.195 187.055 C 168.578 186.672,168.783 186.036,168.651 185.641 C 168.519 185.245,168.206 185.127,167.956 185.378 M123.400 186.310 C 122.800 187.281,125.686 189.843,127.998 190.393 C 128.927 190.613,131.402 191.740,133.498 192.897 C 140.734 196.891,141.921 194.882,135.241 189.947 C 130.627 186.539,124.435 184.637,123.400 186.310 M191.875 188.221 C 191.875 189.686,191.388 190.673,190.156 191.703 L 188.438 193.140 190.301 192.716 C 191.326 192.483,192.510 192.292,192.931 192.292 C 193.352 192.292,193.840 191.917,194.016 191.458 C 194.421 190.403,197.493 190.358,197.519 191.406 C 197.529 191.838,197.825 191.695,198.178 191.089 C 199.010 189.661,198.329 188.601,196.876 189.062 C 195.133 189.615,192.370 188.740,192.748 187.755 C 192.925 187.293,192.801 186.749,192.473 186.546 C 192.139 186.339,191.875 187.079,191.875 188.221 M122.753 199.472 C 122.477 199.919,122.581 200.023,123.028 199.747 C 123.448 199.488,123.750 199.683,123.750 200.214 C 123.750 200.717,122.836 201.486,121.719 201.923 L 119.688 202.719 121.405 202.963 C 122.597 203.133,123.239 203.673,123.504 204.729 C 123.714 205.565,124.214 206.250,124.616 206.250 C 127.016 206.250,127.639 209.630,125.517 211.136 C 122.668 213.157,122.210 217.095,124.622 218.843 C 124.930 219.066,124.956 219.769,124.679 220.406 C 124.403 221.042,124.221 221.773,124.276 222.031 C 124.368 222.466,123.214 222.728,121.444 222.674 C 121.035 222.662,120.552 223.039,120.370 223.513 C 120.096 224.228,122.208 224.375,132.774 224.375 C 145.200 224.375,145.500 224.345,145.181 223.125 C 144.782 221.600,145.200 221.540,146.584 222.924 C 149.463 225.803,151.046 220.636,148.275 217.406 C 147.287 216.255,145.833 214.243,145.044 212.937 C 144.254 211.630,142.979 210.149,142.209 209.644 C 141.439 209.140,140.320 207.818,139.721 206.707 C 137.462 202.513,124.333 196.915,122.753 199.472 M327.908 203.552 C 327.627 203.833,323.835 204.249,319.480 204.478 C 310.887 204.928,304.441 205.781,301.674 206.832 C 300.709 207.200,299.206 207.500,298.335 207.500 C 297.464 207.500,295.865 207.889,294.782 208.365 C 293.699 208.841,291.125 209.698,289.063 210.270 C 281.348 212.409,280.405 212.805,277.468 215.144 C 275.814 216.460,272.844 218.094,270.868 218.774 C 268.892 219.454,266.833 220.387,266.294 220.848 C 265.475 221.546,264.093 222.262,262.500 222.813 C 262.328 222.872,261.766 223.085,261.250 223.286 C 260.734 223.487,259.891 223.792,259.375 223.964 C 258.859 224.136,259.790 224.299,261.443 224.326 C 263.299 224.356,264.301 224.136,264.063 223.750 C 263.850 223.406,264.255 223.125,264.963 223.125 C 265.671 223.125,266.250 223.406,266.250 223.750 C 266.250 224.162,287.236 224.375,327.958 224.375 L 389.665 224.375 387.413 222.845 C 386.174 222.003,384.351 221.120,383.362 220.882 C 381.676 220.477,374.412 216.902,372.880 215.723 C 371.192 214.424,366.740 212.435,361.273 210.537 C 358.020 209.408,354.868 207.993,354.268 207.393 C 353.668 206.793,351.970 206.157,350.495 205.979 C 349.020 205.801,346.398 205.386,344.670 205.058 C 342.941 204.729,339.863 204.571,337.830 204.706 C 335.796 204.841,333.836 204.707,333.473 204.407 C 332.475 203.583,328.488 202.970,327.908 203.552 M128.231 222.913 C 127.605 224.032,127.239 223.612,126.633 221.078 L 126.218 219.343 127.504 220.629 C 128.412 221.537,128.626 222.208,128.231 222.913 " stroke="none" fill="#000000" fill-rule="evenodd"></path></g></svg>