<svg id="svg" xmlns="http://www.w3.org/2000/svg" xmlns:xlink="http://www.w3.org/1999/xlink" width="400" height="225" viewBox="0, 0, 400,225"><g id="svgg"><path id="path0" d="M0.625 49.864 L 0.625 99.102 2.118 99.226 C 3.186 99.314,3.713 98.960,3.969 97.981 L 4.327 96.612 5.913 98.102 C 8.537 100.567,7.648 102.826,2.809 105.998 C 1.478 106.869,1.331 106.854,1.063 105.818 C 0.902 105.196,0.737 131.617,0.698 164.531 L 0.625 224.375 57.188 224.375 C 104.180 224.375,113.750 224.233,113.750 223.534 C 113.750 223.071,114.190 221.809,114.728 220.731 C 115.628 218.927,115.619 218.621,114.613 216.917 C 113.420 214.897,114.840 210.625,116.705 210.625 C 117.142 210.625,117.500 210.344,117.500 210.000 C 117.500 209.656,117.219 209.375,116.875 209.375 C 116.531 209.375,116.246 208.883,116.240 208.281 C 116.232 207.347,116.143 207.324,115.625 208.125 C 115.089 208.954,115.018 208.952,115.010 208.108 C 115.000 207.110,116.673 204.363,117.726 203.648 C 119.272 202.598,121.593 203.618,122.901 205.922 C 123.637 207.218,124.480 208.456,124.776 208.671 C 125.715 209.356,125.670 210.647,124.693 211.022 C 124.174 211.221,123.741 211.846,123.730 212.411 C 123.719 212.975,123.308 213.969,122.817 214.618 C 121.787 215.978,122.563 218.125,124.084 218.125 C 126.671 218.125,124.188 220.994,121.100 221.573 C 119.325 221.906,118.957 222.219,119.209 223.181 C 119.504 224.309,120.255 224.375,132.873 224.375 L 146.226 224.375 146.617 222.817 C 146.832 221.960,147.233 221.398,147.508 221.567 C 147.783 221.737,147.861 222.438,147.681 223.126 C 147.498 223.824,147.662 224.375,148.052 224.375 C 148.436 224.375,148.750 224.146,148.750 223.866 C 148.750 223.586,149.734 222.887,150.938 222.313 C 153.485 221.099,153.607 220.621,151.784 219.003 C 151.046 218.348,149.490 216.336,148.327 214.531 C 147.163 212.726,145.400 210.326,144.409 209.197 C 141.730 206.146,141.181 202.534,143.434 202.781 C 146.354 203.102,148.455 205.189,148.314 207.628 C 148.192 209.726,148.234 209.764,150.659 209.726 C 152.017 209.705,153.128 209.477,153.127 209.219 C 153.126 208.961,153.125 208.103,153.125 207.313 C 153.125 206.302,152.374 205.423,150.589 204.344 C 148.130 202.859,140.462 197.539,138.933 196.258 C 138.517 195.910,137.876 195.625,137.506 195.625 C 137.137 195.625,135.789 195.162,134.511 194.596 C 132.038 193.500,131.850 193.451,127.500 192.755 C 124.241 192.233,122.621 192.325,116.375 193.382 C 110.965 194.298,109.310 193.707,110.589 191.317 C 111.567 189.490,110.376 187.907,108.319 188.301 C 107.525 188.452,106.875 188.318,106.875 188.001 C 106.875 187.685,106.581 187.608,106.223 187.829 C 105.864 188.051,105.139 187.875,104.612 187.438 C 103.941 186.881,103.529 186.846,103.234 187.321 C 102.606 188.332,100.483 188.555,100.165 187.643 C 100.005 187.185,100.703 186.565,101.819 186.176 C 102.881 185.806,103.750 185.215,103.750 184.862 C 103.750 184.500,104.178 184.577,104.735 185.040 C 105.542 185.709,105.811 185.710,106.222 185.045 C 106.546 184.521,106.806 184.473,106.956 184.909 C 107.110 185.359,107.501 185.383,108.125 184.980 C 108.713 184.601,108.829 184.200,108.438 183.906 C 105.017 181.341,105.270 178.732,109.093 177.135 C 113.199 175.419,114.032 175.922,114.770 180.567 C 115.456 184.885,117.594 187.500,120.437 187.500 C 121.066 187.500,122.631 188.063,123.913 188.750 C 125.196 189.437,126.602 190.000,127.038 190.000 C 127.474 190.000,128.871 190.558,130.143 191.239 C 131.414 191.921,132.851 192.326,133.334 192.141 C 133.818 191.955,134.602 192.178,135.076 192.637 C 137.266 194.755,144.375 196.102,144.375 194.398 C 144.375 194.147,143.109 192.790,141.563 191.383 C 137.229 187.439,139.873 185.370,144.390 189.171 C 147.650 191.914,158.125 193.023,158.125 190.625 C 158.125 189.938,158.406 189.375,158.750 189.375 C 159.094 189.375,159.375 189.771,159.375 190.256 C 159.375 190.848,159.980 190.606,161.218 189.520 C 163.196 187.784,163.182 186.875,161.177 186.875 C 160.490 186.875,158.702 185.632,157.205 184.113 C 155.707 182.594,154.317 181.516,154.116 181.717 C 153.915 181.919,153.750 181.755,153.750 181.354 C 153.750 180.953,153.255 180.625,152.650 180.625 C 151.566 180.625,150.725 179.625,148.706 175.938 C 148.141 174.906,147.137 173.781,146.473 173.438 C 145.810 173.094,144.590 172.178,143.762 171.403 C 142.753 170.458,142.050 170.200,141.628 170.622 C 141.283 170.967,140.494 171.250,139.875 171.250 C 139.256 171.250,138.750 171.538,138.750 171.890 C 138.750 172.799,135.398 174.007,135.128 173.196 C 134.989 172.779,134.407 172.797,133.415 173.249 C 132.278 173.767,131.676 173.738,130.942 173.129 C 129.965 172.318,129.992 171.948,131.355 167.394 C 132.003 165.230,131.768 162.499,130.172 153.635 C 129.914 152.200,130.052 152.006,131.127 152.287 C 132.409 152.622,133.101 154.175,133.116 156.753 C 133.121 157.545,133.698 159.452,134.399 160.990 C 135.149 162.636,135.707 165.257,135.755 167.362 C 135.801 169.328,135.962 170.387,136.115 169.714 C 136.914 166.182,139.085 164.799,140.930 166.644 C 141.872 167.587,141.976 167.563,142.298 166.332 C 142.763 164.550,142.306 164.244,149.190 170.951 C 152.549 174.224,156.075 177.246,157.024 177.666 C 157.973 178.086,158.750 178.643,158.750 178.903 C 158.750 179.162,159.269 179.375,159.904 179.375 C 161.344 179.375,164.906 181.067,166.563 182.539 C 167.250 183.150,168.655 183.743,169.685 183.856 C 171.191 184.022,171.634 184.429,171.954 185.938 L 172.352 187.813 172.426 186.074 C 172.519 183.892,173.439 183.535,176.949 184.322 C 179.035 184.789,180.827 184.712,184.086 184.016 C 186.780 183.440,191.413 183.115,196.250 183.161 C 200.547 183.203,205.258 183.225,206.719 183.210 C 209.988 183.177,210.057 183.749,207.031 185.790 C 204.508 187.492,199.679 191.889,199.490 192.656 C 199.196 193.852,198.438 192.612,198.438 190.938 C 198.438 189.485,198.130 189.019,197.070 188.868 C 196.317 188.761,195.577 188.198,195.423 187.618 C 195.233 186.895,195.122 187.019,195.073 188.015 C 194.997 189.517,192.813 189.817,192.813 188.325 C 192.812 187.231,191.889 186.540,191.780 187.552 C 191.581 189.401,191.483 189.727,190.699 191.153 C 190.138 192.173,189.515 192.519,188.647 192.292 C 187.723 192.050,187.495 192.210,187.763 192.909 C 187.962 193.428,188.125 194.131,188.125 194.471 C 188.125 194.812,188.866 194.508,189.772 193.795 C 190.678 193.083,191.991 192.500,192.691 192.500 C 193.391 192.500,194.461 192.051,195.068 191.501 C 196.336 190.354,197.500 190.807,197.500 192.449 C 197.500 193.153,196.168 194.369,193.945 195.694 C 189.377 198.416,185.515 205.093,186.987 207.723 C 187.420 208.496,187.208 209.584,186.232 211.599 C 185.290 213.545,184.806 215.923,184.646 219.388 L 184.415 224.375 291.895 224.375 L 399.375 224.375 399.375 192.813 C 399.375 161.987,399.347 161.250,398.162 161.250 C 396.433 161.250,396.013 160.206,396.891 158.087 C 397.700 156.133,398.445 155.753,398.961 157.031 C 399.134 157.461,399.299 122.445,399.326 79.219 L 399.375 0.625 322.381 0.625 C 258.273 0.625,245.576 0.764,246.520 1.454 C 247.679 2.302,247.442 5.000,246.208 5.000 C 245.887 5.000,245.625 5.281,245.625 5.625 C 245.625 5.969,246.171 6.250,246.838 6.250 C 248.997 6.250,248.868 7.435,246.439 9.899 C 242.539 13.856,242.329 14.237,243.791 14.701 C 244.489 14.922,245.456 14.775,245.940 14.373 C 246.895 13.580,248.367 14.103,247.794 15.030 C 247.600 15.343,247.746 16.167,248.118 16.862 C 248.574 17.714,248.583 18.125,248.147 18.125 C 247.791 18.125,247.500 18.631,247.500 19.250 C 247.500 19.869,247.194 20.681,246.821 21.054 C 245.613 22.262,252.389 23.415,254.181 22.307 C 263.456 16.575,268.570 23.483,260.650 31.045 C 258.257 33.330,256.445 35.435,256.624 35.724 C 256.969 36.283,256.271 36.426,253.750 36.312 C 252.891 36.273,251.525 36.758,250.716 37.391 C 249.145 38.619,249.133 38.618,240.938 36.533 C 238.875 36.009,236.203 35.477,235.000 35.351 C 233.797 35.225,231.582 34.673,230.078 34.124 C 228.574 33.574,226.729 33.125,225.978 33.125 C 225.228 33.125,224.068 32.712,223.401 32.207 C 222.733 31.703,221.548 31.281,220.766 31.270 C 219.838 31.257,219.139 30.712,218.755 29.699 C 218.149 28.107,216.250 28.084,216.250 29.669 C 216.250 30.110,215.634 30.390,214.844 30.307 C 214.070 30.226,213.086 30.124,212.656 30.080 C 212.227 30.036,211.875 29.713,211.875 29.363 C 211.875 29.006,212.523 28.889,213.352 29.097 C 214.530 29.393,214.909 29.173,215.219 28.015 C 215.852 25.650,215.679 21.997,214.922 21.745 C 214.535 21.616,214.219 20.819,214.219 19.974 C 214.218 17.471,211.663 17.745,210.404 20.384 C 209.797 21.657,208.937 22.500,208.244 22.500 C 207.612 22.500,206.552 23.078,205.891 23.785 C 202.182 27.746,201.630 28.125,199.568 28.125 C 197.290 28.125,194.375 25.860,194.375 24.091 C 194.375 23.560,193.953 23.125,193.438 23.125 C 192.922 23.125,192.500 23.406,192.500 23.750 C 192.500 24.551,190.193 24.568,189.700 23.770 C 189.495 23.438,188.528 23.326,187.552 23.521 C 186.550 23.721,185.591 23.576,185.351 23.188 C 185.118 22.810,184.155 22.500,183.213 22.500 C 182.271 22.500,181.184 22.184,180.797 21.797 C 180.005 21.005,173.125 21.614,173.125 22.477 C 173.125 23.710,167.109 24.473,166.183 23.357 C 165.702 22.777,165.189 22.800,163.919 23.459 C 163.016 23.928,161.976 24.122,161.607 23.892 C 161.239 23.661,160.656 23.416,160.313 23.346 C 159.969 23.276,158.829 23.034,157.781 22.806 C 156.116 22.446,155.766 22.618,155.021 24.166 C 153.937 26.419,153.741 28.730,154.628 28.819 C 160.196 29.383,162.772 29.242,163.434 28.337 C 164.371 27.056,166.875 27.780,166.875 29.332 C 166.875 30.495,163.762 31.250,158.967 31.250 C 157.807 31.250,156.299 31.531,155.617 31.875 C 154.934 32.219,153.816 32.781,153.133 33.125 C 152.451 33.469,151.537 33.755,151.102 33.762 C 150.668 33.768,148.704 35.696,146.739 38.045 L 143.165 42.317 138.795 42.723 C 133.196 43.243,131.288 44.074,131.739 45.796 C 132.010 46.834,131.859 47.002,130.963 46.659 C 130.262 46.390,129.473 46.640,128.831 47.335 C 128.098 48.129,126.768 48.460,124.085 48.519 C 118.929 48.631,111.815 50.054,111.433 51.050 C 111.259 51.504,110.463 51.875,109.665 51.875 C 108.867 51.875,107.792 52.297,107.277 52.812 C 106.761 53.328,105.824 53.750,105.194 53.750 C 104.564 53.750,103.352 54.594,102.500 55.625 C 101.648 56.656,100.689 57.500,100.369 57.500 C 100.048 57.500,99.249 57.986,98.592 58.581 C 97.460 59.605,97.366 59.605,96.793 58.581 C 96.118 57.374,94.375 57.107,94.375 58.210 C 94.375 59.366,91.402 61.777,88.251 63.177 C 73.571 69.699,68.003 72.632,65.909 74.945 C 64.792 76.178,63.146 77.976,62.251 78.940 C 58.085 83.423,54.372 96.891,56.875 98.438 C 57.219 98.650,57.500 99.494,57.500 100.313 C 57.500 101.131,57.766 101.966,58.092 102.167 C 59.018 102.739,62.501 108.102,62.490 108.938 C 62.485 109.350,61.641 110.640,60.615 111.803 C 59.589 112.967,58.746 114.233,58.741 114.616 C 58.737 114.999,57.190 117.128,55.304 119.346 C 52.313 122.864,50.770 125.757,52.432 124.730 C 52.738 124.541,53.438 125.072,53.987 125.910 C 54.568 126.797,54.737 127.589,54.392 127.802 C 54.029 128.027,54.016 128.743,54.359 129.645 C 54.668 130.457,54.815 131.227,54.686 131.356 C 54.557 131.485,54.315 132.339,54.149 133.255 C 53.783 135.272,51.259 138.830,50.519 138.372 C 50.226 138.191,49.124 138.905,48.070 139.959 C 45.421 142.608,44.511 142.436,44.246 139.238 C 44.144 138.002,43.744 137.713,41.972 137.594 C 38.954 137.390,33.710 133.998,34.772 132.936 C 34.949 132.759,34.538 132.438,33.859 132.222 C 33.180 132.007,32.450 131.137,32.238 130.290 C 32.025 129.443,31.584 128.750,31.258 128.750 C 30.931 128.750,30.845 128.279,31.066 127.704 C 31.370 126.912,31.213 126.755,30.421 127.059 C 29.661 127.351,29.375 127.124,29.375 126.230 C 29.375 125.533,29.797 125.000,30.349 125.000 C 30.885 125.000,31.150 125.281,30.937 125.625 C 30.314 126.634,31.244 126.346,32.954 125.000 C 33.828 124.313,34.909 123.750,35.355 123.750 C 35.801 123.750,36.344 123.187,36.563 122.500 C 36.781 121.812,37.191 121.250,37.475 121.250 C 38.171 121.250,38.841 123.097,38.403 123.806 C 38.045 124.386,38.963 124.561,42.031 124.497 C 42.977 124.478,43.750 124.740,43.750 125.080 C 43.750 126.279,45.008 124.894,47.705 120.725 C 50.230 116.822,50.398 116.305,49.981 113.724 C 49.734 112.191,49.496 111.242,49.453 111.613 C 49.075 114.882,43.128 112.734,43.126 109.328 C 43.125 108.786,42.453 107.712,41.632 106.940 C 40.811 106.169,39.974 104.711,39.772 103.702 C 39.509 102.388,38.557 101.327,36.421 99.968 L 33.438 98.070 32.741 100.441 C 32.283 102.004,31.699 102.783,31.028 102.727 C 30.238 102.660,30.098 103.008,30.398 104.289 C 30.951 106.643,30.362 109.375,29.302 109.375 C 28.998 109.375,28.750 109.741,28.750 110.187 C 28.750 111.688,25.451 116.144,24.586 115.812 C 23.685 115.466,23.577 116.208,23.738 121.639 C 23.794 123.504,23.385 125.853,22.761 127.264 C 22.116 128.721,21.639 131.557,21.565 134.375 C 21.497 136.953,21.070 140.693,20.615 142.685 C 19.573 147.250,18.323 148.343,19.107 144.004 C 19.921 139.500,19.509 128.627,18.486 127.598 C 17.788 126.896,17.703 127.029,17.965 128.401 C 18.149 129.361,17.897 130.489,17.360 131.116 C 16.854 131.705,16.256 132.703,16.032 133.333 C 15.260 135.504,14.065 133.994,13.744 130.442 C 13.519 127.952,13.076 126.665,12.231 126.047 C 10.964 125.120,10.780 119.900,11.567 107.188 C 11.737 104.438,11.916 101.414,11.965 100.469 C 12.064 98.556,11.876 98.617,17.500 98.685 C 20.330 98.719,21.770 99.016,22.245 99.664 C 23.021 100.722,25.041 99.694,25.408 98.055 C 25.515 97.578,25.794 96.349,26.027 95.323 C 26.617 92.730,27.672 91.877,29.934 92.163 C 31.203 92.324,31.875 92.138,31.875 91.626 C 31.875 91.195,32.535 90.223,33.342 89.465 L 34.809 88.086 37.372 89.454 L 39.936 90.823 42.024 89.230 C 43.172 88.354,44.804 86.908,45.650 86.017 C 47.120 84.468,49.245 83.693,48.437 85.001 C 48.224 85.346,48.788 85.908,49.691 86.251 C 51.995 87.127,52.500 87.037,52.500 85.750 C 52.500 85.131,52.745 84.358,53.045 84.031 C 53.345 83.705,53.766 82.172,53.982 80.625 C 54.342 78.039,54.298 77.910,53.437 79.026 C 52.922 79.693,52.500 80.466,52.500 80.744 C 52.500 81.486,50.768 81.361,50.288 80.586 C 50.062 80.220,50.371 79.376,50.973 78.711 C 51.576 78.045,51.858 77.500,51.600 77.500 C 51.342 77.500,51.861 76.255,52.753 74.732 C 53.645 73.210,54.375 71.373,54.375 70.650 C 54.375 69.927,54.760 69.188,55.231 69.007 C 55.732 68.815,56.252 67.269,56.487 65.271 C 56.862 62.082,58.885 58.676,59.838 59.630 C 60.426 60.218,61.875 58.686,61.875 57.476 C 61.875 56.859,61.523 56.226,61.094 56.068 C 60.551 55.870,60.721 55.389,61.648 54.495 C 62.757 53.426,62.951 52.618,62.790 49.729 C 62.684 47.816,62.822 46.250,63.097 46.250 C 63.938 46.250,65.131 48.032,64.728 48.684 C 64.519 49.022,64.823 49.563,65.402 49.888 C 67.111 50.844,67.594 56.692,66.158 59.046 C 65.524 60.086,65.026 61.500,65.052 62.188 C 65.078 62.897,65.239 63.089,65.423 62.630 C 65.682 61.984,65.934 61.978,66.684 62.601 C 67.447 63.234,67.732 63.181,68.217 62.314 C 68.544 61.729,69.190 61.250,69.651 61.250 C 71.539 61.250,72.233 47.163,70.396 46.134 C 69.835 45.820,69.375 45.188,69.375 44.729 C 69.375 44.271,68.813 43.749,68.125 43.569 C 67.132 43.309,66.875 42.716,66.875 40.684 C 66.875 39.276,66.594 38.125,66.250 38.125 C 65.182 38.125,65.565 36.233,66.719 35.807 C 67.320 35.585,67.995 35.131,68.218 34.798 C 69.293 33.195,70.625 35.037,70.625 38.127 C 70.625 41.443,71.979 44.375,73.509 44.375 C 74.035 44.375,74.379 45.051,74.385 46.094 C 74.395 48.011,75.567 50.466,75.653 48.750 C 75.678 48.234,75.921 46.467,76.192 44.821 C 76.462 43.176,76.455 41.689,76.175 41.516 C 75.451 41.069,76.240 37.366,77.297 36.250 C 78.081 35.422,78.325 35.495,79.391 36.875 C 80.670 38.532,81.049 41.250,80.000 41.250 C 79.656 41.250,79.375 41.766,79.375 42.396 C 79.375 43.026,79.186 43.731,78.955 43.962 C 78.315 44.602,78.139 50.690,78.771 50.299 C 79.075 50.111,79.915 50.319,80.638 50.760 C 81.769 51.451,82.076 51.394,82.851 50.349 C 83.698 49.207,85.984 48.289,85.324 49.356 C 85.155 49.630,85.575 50.563,86.258 51.430 L 87.499 53.008 84.332 53.443 C 81.851 53.785,81.245 54.085,81.531 54.831 C 81.732 55.355,81.618 56.119,81.279 56.528 C 80.860 57.033,80.971 57.715,81.623 58.647 C 82.874 60.432,83.614 59.927,83.262 57.528 C 83.050 56.078,83.223 55.625,83.992 55.625 C 84.614 55.625,85.000 56.151,85.000 57.000 C 85.000 58.069,85.167 58.208,85.750 57.625 C 86.163 57.213,86.963 56.875,87.528 56.875 C 88.094 56.875,89.071 56.306,89.701 55.610 C 90.482 54.748,91.049 54.549,91.485 54.985 C 92.646 56.146,93.604 55.653,93.883 53.750 C 94.196 51.622,92.111 51.022,90.625 52.812 C 88.227 55.702,87.294 52.174,89.312 47.854 C 90.195 45.965,90.588 43.307,90.846 37.500 C 91.207 29.354,91.618 26.875,92.610 26.875 C 92.934 26.875,93.037 27.137,92.839 27.457 C 92.641 27.777,92.770 28.218,93.125 28.438 C 93.480 28.657,93.609 29.098,93.411 29.418 C 93.213 29.738,93.349 30.000,93.713 30.000 C 94.077 30.000,94.375 31.221,94.375 32.716 C 94.375 35.678,95.462 37.144,98.125 37.770 C 100.434 38.313,102.500 36.042,102.500 32.960 C 102.500 31.428,105.250 28.018,107.039 27.331 C 107.636 27.102,108.125 26.608,108.125 26.233 C 108.125 25.858,107.844 25.725,107.500 25.937 C 107.156 26.150,106.875 26.029,106.875 25.669 C 106.875 25.309,107.367 25.056,107.969 25.106 C 110.406 25.311,111.250 24.962,111.250 23.750 C 111.250 23.056,111.667 22.500,112.188 22.500 C 112.703 22.500,113.125 22.209,113.125 21.854 C 113.125 21.499,113.959 20.393,114.978 19.396 C 116.547 17.863,116.896 16.930,117.250 13.324 C 117.480 10.980,117.886 8.781,118.153 8.438 C 118.420 8.094,118.835 6.758,119.076 5.469 C 119.317 4.180,119.764 3.125,120.070 3.125 C 120.375 3.125,120.625 2.563,120.625 1.875 C 120.625 0.634,120.208 0.625,60.625 0.625 L 0.625 0.625 0.625 49.864 M126.546 1.223 C 126.749 1.551,127.328 1.662,127.833 1.468 C 128.337 1.275,128.750 1.398,128.750 1.741 C 128.750 2.085,129.172 2.528,129.688 2.726 C 130.325 2.971,130.625 2.692,130.625 1.855 C 130.625 0.862,130.197 0.625,128.401 0.625 C 127.145 0.625,126.337 0.885,126.546 1.223 M134.794 1.615 C 135.003 2.159,135.346 2.342,135.556 2.021 C 135.766 1.700,136.359 1.277,136.875 1.081 C 137.426 0.871,137.112 0.703,136.113 0.674 C 134.810 0.636,134.503 0.855,134.794 1.615 M139.484 1.627 C 140.127 2.270,140.962 2.477,141.814 2.207 C 143.674 1.617,142.821 0.625,140.454 0.625 C 138.645 0.625,138.565 0.708,139.484 1.627 M219.667 22.533 C 218.803 23.931,220.080 25.966,221.017 24.685 C 221.489 24.039,221.875 23.314,221.875 23.072 C 221.875 22.333,220.064 21.891,219.667 22.533 M231.520 24.173 C 231.674 24.578,231.396 25.245,230.900 25.656 C 230.405 26.067,230.000 26.790,230.000 27.264 C 230.000 28.424,231.650 28.364,232.101 27.188 C 232.500 26.147,234.375 25.889,234.375 26.875 C 234.375 27.219,233.883 27.504,233.281 27.510 C 232.431 27.517,232.376 27.638,233.034 28.056 C 234.250 28.826,237.231 27.537,237.332 26.196 C 237.385 25.492,237.103 25.192,236.577 25.393 C 236.099 25.577,235.565 25.170,235.336 24.448 C 235.037 23.506,234.459 23.214,233.086 23.309 C 231.965 23.387,231.349 23.726,231.520 24.173 M227.025 26.242 C 225.723 28.326,226.160 29.052,227.793 27.518 C 228.642 26.721,229.188 25.828,229.006 25.534 C 228.481 24.684,227.859 24.906,227.025 26.242 M238.541 27.608 C 238.154 29.086,238.487 30.000,239.412 30.000 C 239.735 30.000,240.000 29.156,240.000 28.125 C 240.000 25.951,239.061 25.619,238.541 27.608 M145.441 27.702 C 145.216 28.290,144.364 28.750,143.502 28.750 C 142.656 28.750,141.556 29.158,141.057 29.658 C 140.557 30.157,140.011 30.427,139.842 30.258 C 139.673 30.089,138.022 31.247,136.173 32.831 C 133.399 35.209,132.460 35.672,130.791 35.483 C 129.679 35.356,128.695 35.471,128.604 35.736 C 128.512 36.002,126.961 36.271,125.156 36.334 C 123.044 36.407,121.875 36.721,121.875 37.215 C 121.875 38.126,118.738 40.337,117.740 40.129 C 116.065 39.780,115.619 41.672,117.205 42.394 C 118.069 42.788,119.030 43.781,119.342 44.602 C 120.690 48.147,126.226 44.574,125.307 40.753 C 124.777 38.551,125.447 38.114,127.826 39.108 C 129.750 39.913,130.000 39.908,130.000 39.071 C 130.000 37.910,130.882 37.851,131.987 38.937 C 133.006 39.938,139.996 40.093,140.010 39.115 C 140.015 38.742,140.281 38.851,140.601 39.357 C 140.920 39.863,141.290 40.144,141.423 39.982 C 146.050 34.324,147.470 30.805,146.315 27.858 C 145.893 26.781,145.801 26.764,145.441 27.702 M149.739 28.528 C 149.218 29.887,149.244 29.917,150.625 29.556 C 152.083 29.175,152.254 28.404,150.989 27.919 C 150.502 27.732,149.940 28.006,149.739 28.528 M171.111 28.473 C 172.967 29.773,172.902 31.250,170.989 31.250 C 167.814 31.250,166.590 29.910,168.250 28.250 C 169.214 27.286,169.441 27.303,171.111 28.473 M244.454 28.594 C 244.454 29.195,244.366 30.250,244.259 30.938 C 244.142 31.678,244.414 32.188,244.924 32.188 C 246.849 32.188,247.527 29.772,245.933 28.594 C 244.523 27.552,244.453 27.552,244.454 28.594 M241.684 28.525 C 241.018 29.190,241.852 29.969,242.829 29.595 C 243.332 29.402,243.587 28.992,243.397 28.685 C 242.992 28.029,242.249 27.960,241.684 28.525 M271.875 35.878 C 271.875 36.320,271.313 37.190,270.625 37.813 C 269.938 38.435,269.371 38.689,269.366 38.378 C 269.362 38.067,269.195 37.205,268.996 36.463 C 268.733 35.483,268.949 35.043,269.786 34.854 C 271.229 34.529,271.875 34.845,271.875 35.878 M267.188 36.227 C 268.335 36.699,268.348 36.777,267.344 37.187 C 266.742 37.433,266.250 38.272,266.250 39.053 C 266.250 41.145,264.781 42.115,262.677 41.412 C 261.374 40.976,260.958 40.451,261.019 39.321 C 261.150 36.918,261.226 36.643,261.645 37.061 C 261.862 37.278,262.627 37.044,263.346 36.540 C 264.799 35.523,265.363 35.477,267.188 36.227 M258.947 37.111 C 259.657 38.962,256.990 40.082,255.667 38.488 C 255.085 37.787,255.168 37.463,256.059 36.944 C 257.615 36.039,258.556 36.094,258.947 37.111 M271.920 41.875 C 272.239 41.875,272.491 42.367,272.480 42.969 C 272.462 43.948,272.355 43.932,271.459 42.813 C 270.690 41.853,270.542 41.809,270.822 42.624 C 271.337 44.126,268.792 44.883,267.798 43.524 C 267.394 42.971,266.881 42.703,266.657 42.926 C 266.433 43.150,266.250 43.022,266.250 42.641 C 266.250 41.315,267.463 41.213,268.685 42.435 C 269.893 43.643,269.914 43.643,269.825 42.458 C 269.775 41.794,269.496 41.250,269.205 41.250 C 268.914 41.250,268.851 40.967,269.065 40.620 C 269.307 40.230,269.813 40.349,270.397 40.933 C 270.915 41.451,271.600 41.875,271.920 41.875 M283.366 41.916 C 283.679 42.201,283.508 42.831,282.972 43.368 C 282.450 43.889,281.869 44.161,281.681 43.972 C 281.492 43.783,279.913 44.429,278.173 45.408 C 275.827 46.727,274.752 47.025,274.018 46.562 C 273.011 45.926,272.743 44.718,273.594 44.650 C 275.005 44.535,278.786 42.439,278.479 41.941 C 277.687 40.661,281.964 40.639,283.366 41.916 M294.612 45.909 C 294.152 47.107,288.941 50.688,287.500 50.797 C 286.812 50.849,286.250 51.112,286.250 51.383 C 286.250 51.654,285.834 51.875,285.326 51.875 C 284.310 51.875,285.247 48.902,286.550 47.992 C 286.901 47.746,287.188 47.193,287.188 46.762 C 287.188 46.283,288.284 45.888,290.000 45.747 C 291.547 45.621,292.901 45.276,293.009 44.981 C 293.117 44.686,293.592 44.593,294.063 44.774 C 294.535 44.955,294.782 45.466,294.612 45.909 M283.125 55.901 C 283.125 57.021,282.092 57.708,281.220 57.169 C 280.772 56.892,280.796 56.485,281.296 55.882 C 282.241 54.744,283.125 54.753,283.125 55.901 M60.000 56.808 C 60.000 57.459,59.578 58.153,59.063 58.351 C 58.385 58.611,58.125 58.283,58.125 57.168 C 58.125 56.213,58.482 55.625,59.063 55.625 C 59.578 55.625,60.000 56.157,60.000 56.808 M73.375 56.351 C 73.121 56.763,73.541 57.575,74.345 58.226 C 76.087 59.637,77.137 59.710,76.629 58.386 C 76.421 57.843,76.250 56.999,76.250 56.511 C 76.250 55.447,74.011 55.323,73.375 56.351 M299.006 56.966 C 298.691 57.476,299.085 57.552,300.376 57.230 C 302.417 56.722,307.422 56.589,307.865 57.031 C 308.581 57.747,307.225 59.375,305.913 59.375 C 305.023 59.375,303.960 60.078,303.168 61.190 C 301.368 63.717,301.515 64.416,303.750 63.969 C 304.781 63.762,305.625 63.783,305.625 64.015 C 305.625 65.251,303.583 68.050,301.407 69.799 C 300.047 70.891,298.467 72.772,297.894 73.979 C 297.321 75.186,296.295 76.350,295.614 76.566 C 294.933 76.782,294.375 77.222,294.375 77.542 C 294.375 78.447,294.836 78.281,298.835 75.938 C 300.887 74.734,302.757 73.750,302.989 73.750 C 303.220 73.750,304.459 72.602,305.742 71.199 C 309.521 67.065,311.970 69.228,308.704 73.815 C 307.393 75.655,307.659 76.250,309.792 76.250 C 312.090 76.250,311.699 78.540,309.219 79.606 C 306.734 80.673,304.375 82.855,304.375 84.087 C 304.375 85.618,307.174 85.124,308.942 83.281 C 309.849 82.336,311.171 81.011,311.880 80.336 C 312.728 79.529,313.108 78.487,312.991 77.291 C 312.757 74.911,314.416 73.709,316.306 74.890 C 317.495 75.632,317.841 75.464,320.058 73.062 C 321.401 71.607,322.500 70.762,322.500 71.183 C 322.500 71.604,322.711 71.818,322.969 71.659 C 323.227 71.499,323.418 72.890,323.395 74.748 C 323.372 76.606,323.090 78.165,322.770 78.211 C 322.450 78.257,321.558 79.027,320.788 79.923 L 319.388 81.552 321.213 83.376 C 323.730 85.893,326.621 84.405,326.050 80.886 C 325.674 78.569,328.598 76.363,331.157 77.032 C 331.791 77.198,332.985 76.959,333.811 76.501 C 334.637 76.044,335.523 75.659,335.781 75.647 C 336.484 75.614,336.346 78.617,335.625 79.062 C 334.492 79.763,334.973 81.829,336.503 82.831 C 337.836 83.705,339.134 86.370,338.853 87.656 C 338.796 87.914,339.172 88.125,339.687 88.125 C 340.831 88.125,340.850 88.713,339.755 90.156 C 339.298 90.758,338.323 91.250,337.587 91.250 C 336.852 91.250,336.250 91.546,336.250 91.908 C 336.250 92.269,335.406 92.859,334.375 93.219 C 333.344 93.578,332.500 94.315,332.500 94.856 C 332.500 95.397,332.049 96.337,331.498 96.946 C 329.724 98.906,330.840 99.639,332.926 97.884 C 333.994 96.985,335.334 96.250,335.904 96.250 C 336.493 96.250,337.222 95.441,337.594 94.375 C 337.953 93.344,338.589 92.500,339.007 92.500 C 340.005 92.500,345.165 87.655,346.477 85.486 C 347.679 83.499,351.132 82.270,352.351 83.395 C 353.623 84.568,354.458 88.125,353.461 88.125 C 353.006 88.125,352.474 88.542,352.278 89.052 C 352.076 89.579,351.508 89.820,350.961 89.610 C 350.433 89.407,350.000 89.544,350.000 89.914 C 350.000 90.283,349.641 90.448,349.202 90.280 C 348.763 90.111,347.443 90.682,346.268 91.549 C 345.093 92.416,343.806 93.125,343.407 93.125 C 342.572 93.125,334.375 101.119,334.375 101.933 C 334.375 102.231,333.320 103.015,332.031 103.676 C 329.648 104.898,326.875 107.629,326.875 108.755 C 326.875 109.665,328.810 109.510,329.951 108.509 C 331.327 107.300,341.548 103.200,349.623 100.618 C 353.050 99.523,353.478 101.397,350.625 105.000 C 347.732 108.653,348.512 109.768,353.443 109.029 C 357.321 108.447,357.707 108.014,357.824 104.108 C 357.945 100.041,358.453 99.100,359.053 101.830 C 359.458 103.673,359.660 103.860,361.406 104.000 C 365.188 104.303,364.406 110.548,360.469 111.488 C 358.095 112.055,359.270 114.751,361.693 114.300 C 362.665 114.119,366.250 115.165,366.250 115.630 C 366.250 116.431,368.899 116.973,372.344 116.876 C 378.894 116.693,375.804 119.630,368.777 120.267 C 366.558 120.468,364.463 120.912,364.121 121.254 C 363.779 121.596,362.994 121.875,362.375 121.875 C 361.082 121.875,361.012 122.137,361.873 123.746 C 362.358 124.652,362.150 125.320,360.935 126.764 C 358.528 129.624,359.306 131.746,363.125 132.738 C 367.239 133.807,369.965 138.125,366.526 138.125 C 364.480 138.125,364.589 139.243,366.719 140.090 C 367.792 140.517,368.123 140.890,367.602 141.082 C 367.142 141.252,366.453 141.078,366.070 140.695 C 365.688 140.313,364.869 140.000,364.250 140.000 C 363.631 140.000,363.125 139.548,363.125 138.996 C 363.125 138.337,362.785 138.122,362.136 138.371 C 361.593 138.579,360.608 138.750,359.949 138.750 C 359.280 138.750,358.750 139.181,358.750 139.724 C 358.750 140.260,358.469 140.525,358.125 140.313 C 357.781 140.100,357.500 139.256,357.500 138.438 C 357.500 136.444,356.429 135.894,355.023 137.167 C 354.305 137.816,353.726 137.967,353.480 137.568 C 352.990 136.776,351.183 137.407,350.207 138.710 C 349.806 139.247,349.243 139.451,348.957 139.164 C 348.671 138.877,349.141 138.067,350.000 137.363 C 351.501 136.134,351.507 136.101,350.156 136.521 C 349.303 136.787,348.750 136.697,348.750 136.292 C 348.750 135.330,345.907 135.470,345.074 136.473 C 344.682 136.945,344.537 138.152,344.745 139.196 C 345.098 140.959,343.669 142.646,342.896 141.379 C 342.326 140.445,342.912 133.713,343.625 133.000 C 344.942 131.683,344.584 130.242,343.241 131.458 C 342.617 132.022,341.211 132.797,340.116 133.178 C 339.021 133.560,338.125 134.267,338.125 134.749 C 338.125 135.231,337.844 135.625,337.500 135.625 C 337.156 135.625,336.873 136.117,336.871 136.719 C 336.862 139.058,329.593 142.103,327.723 140.551 C 325.574 138.768,327.552 136.250,331.101 136.250 C 333.179 136.250,333.872 135.869,335.784 133.674 C 338.415 130.654,338.270 129.666,335.118 129.145 C 330.528 128.386,326.255 128.660,326.649 129.688 C 326.891 130.319,326.620 130.625,325.817 130.625 C 325.161 130.625,324.276 130.974,323.849 131.401 C 323.266 131.984,322.961 131.996,322.624 131.451 C 321.930 130.327,318.853 129.762,317.870 130.577 C 317.395 130.971,316.766 131.254,316.472 131.204 C 315.071 130.970,313.194 132.140,312.864 133.455 C 312.662 134.259,311.935 135.095,311.249 135.313 C 310.475 135.559,310.000 136.259,310.000 137.154 C 310.000 138.162,309.447 138.827,308.170 139.356 C 305.764 140.353,304.603 141.716,303.931 144.332 C 303.335 146.653,301.887 147.700,301.856 145.833 C 301.838 144.738,301.808 144.737,301.185 145.809 C 300.800 146.470,300.101 146.793,299.481 146.596 C 298.844 146.394,297.691 146.968,296.558 148.051 C 294.879 149.657,294.528 149.760,293.125 149.061 C 288.995 147.005,288.920 147.058,289.475 151.670 C 290.066 156.573,289.899 156.886,287.450 155.481 C 285.670 154.459,285.628 154.463,286.241 155.608 C 287.717 158.365,284.388 160.628,282.513 158.142 C 281.723 157.094,281.379 156.996,280.742 157.633 C 280.308 158.067,279.474 158.426,278.890 158.430 C 277.260 158.441,275.566 162.371,275.957 165.231 C 276.240 167.292,276.137 167.590,275.260 167.254 C 274.400 166.924,274.294 167.168,274.615 168.742 C 275.765 174.370,275.789 174.705,274.991 173.950 C 274.563 173.544,273.696 171.716,273.064 169.888 C 272.433 168.059,271.907 166.914,271.895 167.344 C 271.856 168.851,270.296 168.105,269.439 166.168 C 268.963 165.092,268.099 164.088,267.520 163.936 C 265.213 163.333,263.871 158.750,266.001 158.750 C 266.661 158.750,266.788 158.309,266.481 157.085 C 266.143 155.740,266.250 155.491,267.035 155.793 C 267.972 156.152,270.000 154.535,270.000 153.429 C 270.000 153.134,270.564 152.293,271.252 151.560 C 271.968 150.798,272.577 149.174,272.674 147.770 C 272.768 146.418,273.095 144.912,273.401 144.423 C 273.915 143.601,274.524 141.259,275.444 136.563 C 275.646 135.531,276.743 133.834,277.882 132.790 C 279.372 131.424,279.857 130.526,279.612 129.588 C 279.342 128.555,279.671 128.144,281.198 127.612 C 283.113 126.944,283.532 125.850,283.226 122.311 C 283.161 121.562,283.809 120.941,285.158 120.458 L 287.188 119.733 285.313 119.377 C 283.536 119.040,283.444 118.874,283.568 116.229 C 283.787 111.569,284.120 111.051,288.178 109.063 C 295.001 105.719,298.212 100.465,298.353 92.411 C 298.418 88.732,298.196 87.367,297.389 86.473 C 296.812 85.835,295.885 83.972,295.329 82.333 C 294.384 79.547,291.653 74.884,289.462 72.316 C 288.936 71.699,288.415 70.574,288.304 69.816 C 288.193 69.058,287.504 67.620,286.773 66.621 C 285.103 64.340,285.772 63.046,289.017 62.279 C 291.522 61.686,292.599 60.217,291.185 59.321 C 290.355 58.796,291.629 58.486,294.219 58.582 C 294.648 58.598,295.000 58.327,295.000 57.979 C 295.000 57.618,295.402 57.680,295.938 58.125 C 296.702 58.760,296.875 58.725,296.875 57.935 C 296.875 57.402,297.367 56.838,297.969 56.681 C 298.570 56.524,299.149 56.362,299.256 56.323 C 299.362 56.283,299.250 56.572,299.006 56.966 M296.238 64.382 C 294.992 65.153,295.920 65.872,297.221 65.144 C 297.806 64.816,298.025 64.387,297.707 64.190 C 297.388 63.993,296.728 64.080,296.238 64.382 M303.440 77.497 C 301.848 79.257,302.317 79.996,304.375 78.969 C 306.342 77.988,306.914 76.458,305.315 76.458 C 304.801 76.458,303.957 76.926,303.440 77.497 M27.500 79.063 C 28.524 80.296,27.151 82.093,25.512 81.664 C 24.887 81.501,24.375 81.647,24.375 81.990 C 24.375 83.028,21.653 84.957,20.156 84.979 C 19.383 84.991,18.750 84.694,18.750 84.319 C 18.750 83.325,21.377 81.295,22.693 81.271 C 23.332 81.259,23.644 80.960,23.412 80.583 C 22.415 78.970,26.242 77.546,27.500 79.063 M341.250 80.625 C 341.250 81.313,341.003 81.875,340.702 81.875 C 339.882 81.875,338.699 80.259,339.172 79.786 C 340.028 78.931,341.250 79.424,341.250 80.625 M13.125 85.974 C 13.125 86.470,12.703 86.875,12.188 86.875 C 11.246 86.875,10.903 85.556,11.650 84.809 C 12.233 84.225,13.125 84.930,13.125 85.974 M354.855 92.399 C 354.380 92.970,353.692 94.141,353.326 95.000 C 352.193 97.659,348.750 98.509,348.750 96.130 C 348.750 94.355,351.193 90.569,352.320 90.598 C 353.307 90.622,354.973 89.913,354.913 89.493 C 354.880 89.256,354.927 88.781,355.020 88.438 C 355.112 88.094,355.307 88.611,355.453 89.587 C 355.599 90.562,355.330 91.828,354.855 92.399 M365.993 94.841 C 365.310 95.523,364.842 94.438,365.332 93.308 C 365.797 92.237,365.831 92.238,366.089 93.330 C 366.239 93.959,366.195 94.638,365.993 94.841 M319.474 96.094 C 319.529 96.352,319.342 97.095,319.060 97.747 C 318.486 99.071,320.050 100.625,321.958 100.625 C 323.768 100.625,323.752 99.752,321.903 97.635 C 320.219 95.706,319.264 95.100,319.474 96.094 M389.375 102.813 C 389.375 103.328,388.953 103.750,388.438 103.750 C 387.462 103.750,387.198 103.011,387.917 102.292 C 388.636 101.573,389.375 101.837,389.375 102.813 M381.520 104.307 C 381.823 104.796,379.345 106.875,378.459 106.875 C 377.648 106.875,378.229 105.002,379.219 104.425 C 380.588 103.627,381.085 103.602,381.520 104.307 M393.290 107.249 C 393.990 107.948,392.995 109.375,391.808 109.375 C 390.658 109.375,390.201 108.132,391.042 107.292 C 391.559 106.774,392.792 106.750,393.290 107.249 M72.049 119.382 C 73.374 120.930,73.427 121.875,72.188 121.875 C 71.672 121.875,71.250 121.574,71.250 121.205 C 71.250 120.837,70.808 120.978,70.268 121.518 C 68.191 123.595,67.152 121.486,69.159 119.268 C 70.463 117.828,70.727 117.838,72.049 119.382 M292.384 121.249 L 290.740 123.122 292.498 124.374 C 295.466 126.487,298.349 123.289,295.908 120.592 C 294.475 119.009,294.326 119.036,292.384 121.249 M8.750 122.619 C 8.750 122.898,8.459 123.125,8.103 123.125 C 7.691 123.125,7.659 123.521,8.015 124.219 C 9.144 126.427,9.288 129.050,8.351 130.313 L 7.423 131.563 6.483 130.313 C 5.851 129.472,5.666 128.346,5.917 126.875 C 6.123 125.672,6.384 123.844,6.498 122.813 C 6.841 119.702,6.882 119.644,7.832 120.901 C 8.337 121.568,8.750 122.341,8.750 122.619 M391.250 122.188 C 391.250 122.703,390.985 123.125,390.662 123.125 C 389.874 123.125,389.309 122.149,389.809 121.650 C 390.513 120.946,391.250 121.221,391.250 122.188 M382.134 123.038 C 382.316 123.334,382.306 123.736,382.109 123.932 C 381.622 124.420,380.000 123.748,380.000 123.058 C 380.000 122.344,381.695 122.328,382.134 123.038 M75.901 126.136 C 74.846 128.250,73.750 129.261,73.750 128.121 C 73.750 126.616,76.075 123.367,76.703 123.995 C 76.801 124.092,76.440 125.056,75.901 126.136 M45.298 134.422 C 44.695 136.320,45.304 136.515,46.135 134.690 C 46.527 133.829,46.592 133.125,46.279 133.125 C 45.966 133.125,45.524 133.709,45.298 134.422 M326.875 135.104 C 326.875 135.505,326.690 135.648,326.464 135.422 C 326.238 135.196,325.675 135.324,325.214 135.707 C 324.376 136.402,323.999 135.584,324.792 134.792 C 325.474 134.109,326.875 134.319,326.875 135.104 M108.750 136.451 C 109.609 136.517,111.213 137.061,112.313 137.661 C 113.413 138.260,114.693 138.750,115.156 138.750 C 115.620 138.750,116.326 139.076,116.725 139.475 C 117.124 139.874,118.798 140.648,120.444 141.194 C 122.738 141.955,123.486 142.527,123.644 143.642 C 123.834 144.989,123.741 145.038,122.394 144.306 C 120.136 143.080,106.490 142.875,103.247 144.019 C 100.398 145.025,100.214 144.859,101.563 142.500 C 102.807 140.323,102.712 139.843,101.196 140.654 C 99.469 141.578,99.007 140.993,99.905 139.021 C 100.577 137.547,100.533 137.445,99.382 137.810 C 98.506 138.088,98.125 137.926,98.125 137.275 C 98.125 136.046,99.571 135.734,103.750 136.062 C 105.641 136.210,107.891 136.386,108.750 136.451 M63.750 139.397 C 63.750 140.072,64.172 140.625,64.688 140.625 C 65.983 140.625,65.868 141.837,64.531 142.264 C 63.930 142.456,62.805 142.916,62.032 143.287 C 61.259 143.657,60.506 143.840,60.359 143.692 C 59.843 143.176,59.486 138.120,59.988 138.430 C 60.266 138.602,60.660 138.310,60.863 137.782 C 61.382 136.428,63.750 137.752,63.750 139.397 M81.479 140.161 C 81.433 140.739,81.941 141.385,82.609 141.597 C 83.474 141.871,83.767 142.443,83.630 143.584 C 83.347 145.939,81.840 146.636,79.527 145.482 C 77.796 144.618,77.511 144.624,76.515 145.545 C 75.911 146.105,76.467 145.091,77.752 143.293 C 79.037 141.495,79.895 139.710,79.658 139.327 C 79.385 138.885,79.655 138.718,80.395 138.870 C 81.037 139.002,81.525 139.583,81.479 140.161 M321.719 139.993 C 322.836 140.674,323.750 141.496,323.750 141.820 C 323.750 142.144,324.242 142.519,324.844 142.654 C 325.775 142.863,323.377 143.021,316.366 143.213 C 312.786 143.310,315.410 139.010,319.063 138.792 C 319.406 138.771,320.602 139.312,321.719 139.993 M376.760 142.107 C 381.889 143.842,384.593 145.391,384.044 146.279 C 383.645 146.926,381.609 146.086,380.935 144.997 C 380.724 144.655,379.654 144.372,378.557 144.368 C 376.216 144.360,370.819 142.814,369.599 141.802 C 367.094 139.723,370.091 139.850,376.760 142.107 M341.875 141.228 C 341.875 141.560,341.313 142.132,340.625 142.500 C 339.248 143.237,338.945 142.555,340.125 141.375 C 341.029 140.471,341.875 140.400,341.875 141.228 M12.594 145.938 C 12.594 146.264,12.291 146.632,11.922 146.755 C 11.552 146.878,11.250 146.510,11.250 145.938 C 11.250 145.365,11.552 144.997,11.922 145.120 C 12.291 145.243,12.594 145.611,12.594 145.938 M101.912 149.589 C 101.494 150.690,100.976 151.106,100.333 150.859 C 98.937 150.323,99.162 149.039,100.781 148.298 C 102.569 147.481,102.670 147.596,101.912 149.589 M86.250 150.732 C 86.250 153.115,88.013 154.375,91.347 154.375 C 93.012 154.375,94.375 154.493,94.375 154.636 C 94.375 155.589,93.489 156.875,92.833 156.875 C 92.402 156.875,91.084 157.530,89.904 158.331 C 85.801 161.115,84.720 160.986,82.953 157.498 C 81.602 154.830,82.078 151.243,83.845 150.781 C 84.480 150.615,85.000 150.231,85.000 149.927 C 85.000 149.623,85.281 149.375,85.625 149.375 C 85.969 149.375,86.250 149.986,86.250 150.732 M104.591 153.438 C 104.269 155.782,104.375 156.250,105.228 156.250 C 108.393 156.250,104.845 159.842,101.228 160.300 C 99.249 160.550,95.141 163.088,91.881 166.074 C 89.870 167.917,88.750 167.884,88.750 165.982 C 88.750 164.471,90.190 162.500,91.295 162.500 C 91.614 162.500,91.875 162.111,91.875 161.635 C 91.875 160.550,96.573 156.250,97.759 156.250 C 98.243 156.250,99.320 155.440,100.154 154.450 C 100.987 153.460,102.277 152.457,103.022 152.220 C 103.766 151.984,104.375 151.528,104.375 151.208 C 104.375 150.887,104.510 150.625,104.676 150.625 C 104.841 150.625,104.803 151.891,104.591 153.438 M392.593 152.550 C 393.998 153.302,392.674 155.625,390.841 155.625 C 389.905 155.625,389.847 155.322,390.394 153.281 C 390.827 151.665,390.897 151.642,392.593 152.550 M397.500 154.375 C 398.742 155.178,397.181 155.178,395.313 154.375 L 394.063 153.838 395.313 153.803 C 396.000 153.785,396.984 154.042,397.500 154.375 M105.738 167.656 C 105.890 168.731,106.282 169.014,107.399 168.858 C 108.535 168.698,108.808 168.907,108.625 169.795 C 108.496 170.423,107.908 170.898,107.320 170.851 C 105.977 170.742,105.930 172.390,107.224 174.237 C 108.187 175.612,107.933 177.216,106.857 176.552 C 106.551 176.362,105.797 176.465,105.182 176.780 C 102.062 178.376,98.856 178.599,98.500 177.244 C 98.311 176.526,98.431 175.844,98.766 175.729 C 99.651 175.426,99.513 173.767,98.594 173.655 C 98.164 173.602,97.531 173.502,97.188 173.431 C 96.844 173.361,95.367 173.086,93.906 172.822 C 91.238 172.338,89.730 169.375,92.152 169.375 C 92.648 169.375,93.483 168.763,94.006 168.015 C 94.839 166.827,95.162 166.748,96.571 167.390 C 98.798 168.405,101.568 168.310,102.500 167.188 C 103.683 165.762,105.506 166.026,105.738 167.656 M110.641 179.044 C 109.997 179.819,110.054 180.302,110.949 181.668 C 111.996 183.266,112.084 183.289,112.898 182.176 C 114.390 180.136,112.227 177.133,110.641 179.044 M125.740 181.316 C 126.536 181.730,127.593 182.257,128.088 182.486 C 129.848 183.300,129.614 184.435,127.826 183.755 C 126.914 183.408,125.374 183.125,124.404 183.125 C 122.080 183.125,119.299 180.906,120.573 180.068 C 121.458 179.485,122.885 179.830,125.740 181.316 M167.832 186.433 C 167.564 187.050,167.521 187.729,167.735 187.944 C 168.370 188.578,168.882 187.687,168.589 186.455 C 168.331 185.363,168.297 185.362,167.832 186.433 M125.063 195.767 L 127.188 196.534 125.000 196.889 C 122.342 197.319,118.821 196.360,120.096 195.552 C 121.262 194.814,122.581 194.871,125.063 195.767 M121.719 199.930 C 122.148 199.969,122.500 200.311,122.500 200.692 C 122.500 201.109,122.066 201.201,121.406 200.925 C 120.805 200.672,119.539 200.451,118.594 200.432 C 117.648 200.413,116.875 200.171,116.875 199.894 C 116.875 199.617,117.789 199.496,118.906 199.625 C 120.023 199.754,121.289 199.892,121.719 199.930 M141.107 203.008 C 141.259 203.465,140.973 203.605,140.365 203.371 C 139.820 203.162,139.375 202.717,139.375 202.381 C 139.375 201.560,140.795 202.074,141.107 203.008 " stroke="none" fill="#000000" fill-rule="evenodd"></path></g></svg>