<svg id="svg" xmlns="http://www.w3.org/2000/svg" xmlns:xlink="http://www.w3.org/1999/xlink" width="400" height="225" viewBox="0, 0, 400,225"><g id="svgg"><path id="path0" d="M0.625 112.500 L 0.625 224.375 58.073 224.375 C 89.961 224.375,115.614 224.134,115.729 223.833 C 116.160 222.711,118.743 222.379,119.132 223.394 C 119.676 224.811,147.780 224.832,149.651 223.418 C 150.318 222.913,151.762 222.500,152.859 222.500 C 155.576 222.500,156.142 220.498,153.920 218.749 C 153.046 218.062,152.139 217.500,151.903 217.500 C 151.245 217.500,145.052 205.832,145.020 204.531 C 144.986 203.174,147.951 203.684,149.970 205.383 C 151.492 206.664,151.758 207.201,151.200 207.873 C 150.638 208.550,150.839 208.862,152.160 209.365 C 155.238 210.535,157.211 209.997,155.678 208.406 C 155.363 208.080,155.012 207.126,154.897 206.287 C 154.739 205.136,153.717 204.249,150.736 202.677 C 144.397 199.333,141.859 195.579,145.631 195.126 C 148.875 194.736,149.023 194.417,146.857 192.484 C 145.712 191.461,144.554 190.625,144.284 190.625 C 144.015 190.625,143.508 190.091,143.159 189.438 C 142.251 187.741,146.490 188.170,148.405 189.970 C 149.555 191.050,150.514 191.254,154.085 191.176 C 156.895 191.116,158.467 191.337,158.627 191.818 C 158.809 192.364,159.121 192.345,159.844 191.745 C 160.379 191.301,160.985 191.008,161.190 191.094 C 161.395 191.180,161.598 190.969,161.641 190.625 C 161.684 190.281,161.754 189.719,161.797 189.375 C 161.840 189.031,162.267 188.750,162.746 188.750 C 164.209 188.750,164.439 186.980,163.034 186.534 C 161.433 186.026,156.694 182.851,155.639 181.579 C 155.203 181.054,154.238 180.625,153.495 180.625 C 152.300 180.625,148.125 176.241,148.125 174.987 C 148.125 174.761,147.441 174.264,146.605 173.883 C 143.748 172.581,141.878 170.478,141.802 168.481 C 141.763 167.426,141.601 167.055,141.444 167.656 C 141.287 168.258,140.757 168.750,140.267 168.750 C 139.776 168.750,139.375 169.297,139.375 169.965 C 139.375 171.264,136.705 173.552,136.368 172.541 C 136.240 172.157,135.566 172.166,134.514 172.566 C 130.942 173.924,130.068 172.989,131.107 168.918 C 131.819 166.127,131.878 164.677,131.366 162.500 C 129.951 156.487,129.812 153.621,130.947 153.851 C 132.026 154.070,135.545 165.930,135.599 169.531 C 135.613 170.477,135.906 171.250,136.250 171.250 C 136.594 171.250,136.875 170.884,136.875 170.437 C 136.875 168.762,138.485 166.296,139.794 165.967 C 142.249 165.350,142.694 165.659,151.556 174.147 C 155.204 177.641,161.715 181.250,164.369 181.250 C 165.513 181.250,166.304 181.745,166.879 182.820 C 167.433 183.854,168.078 184.276,168.771 184.056 C 170.750 183.428,171.872 184.396,171.937 186.786 C 171.991 188.762,172.057 188.856,172.432 187.500 C 172.987 185.497,175.627 184.173,177.599 184.908 C 179.243 185.521,182.798 185.428,184.688 184.722 C 187.233 183.771,187.932 183.660,193.537 183.316 C 202.879 182.743,206.431 184.115,201.586 186.425 C 200.051 187.157,199.297 187.254,198.991 186.759 C 198.702 186.292,198.257 186.454,197.645 187.249 C 197.006 188.081,196.644 188.203,196.439 187.656 C 195.995 186.474,195.134 186.719,194.677 188.158 C 194.332 189.245,194.119 189.317,193.283 188.627 C 192.689 188.136,192.209 188.061,192.076 188.438 C 191.253 190.770,190.087 192.215,188.891 192.387 C 188.089 192.502,187.496 193.032,187.490 193.637 C 187.474 195.483,186.422 196.445,184.482 196.390 C 182.768 196.341,182.594 196.519,182.588 198.324 C 182.584 199.418,182.279 202.000,181.911 204.063 C 181.543 206.125,181.084 211.539,180.892 216.094 L 180.543 224.375 289.959 224.375 L 399.375 224.375 399.375 112.500 L 399.375 0.625 317.656 0.698 C 272.711 0.737,236.430 0.899,237.031 1.056 C 237.633 1.213,238.125 1.659,238.125 2.046 C 238.125 2.543,238.346 2.529,238.875 2.000 C 241.025 -0.150,242.957 4.019,240.877 6.317 C 239.846 7.456,239.836 7.681,240.746 9.244 C 241.845 11.133,241.376 13.328,239.740 13.956 C 239.189 14.167,238.750 15.054,238.750 15.955 C 238.750 17.061,238.989 17.426,239.505 17.107 C 241.270 16.016,243.264 16.274,242.931 17.551 C 242.742 18.274,242.908 18.743,243.336 18.691 C 246.300 18.328,246.356 19.594,243.438 20.979 C 242.234 21.550,241.250 22.235,241.250 22.502 C 241.250 23.722,237.042 23.717,234.512 22.495 L 231.895 21.230 230.635 22.490 C 229.942 23.183,229.154 23.750,228.885 23.750 C 228.198 23.750,226.050 27.508,226.487 27.945 C 226.684 28.142,227.295 27.930,227.845 27.473 C 228.576 26.867,228.964 26.835,229.285 27.355 C 229.758 28.120,235.482 28.048,236.756 27.261 C 237.706 26.674,238.750 27.310,238.750 28.474 C 238.750 29.058,239.408 29.375,240.620 29.375 C 241.813 29.375,242.772 29.828,243.270 30.625 C 244.162 32.052,244.888 32.159,246.315 31.071 C 247.774 29.961,248.514 27.390,247.234 27.881 C 246.653 28.104,246.103 27.844,245.870 27.236 C 245.604 26.543,245.246 26.411,244.750 26.823 C 244.326 27.175,243.654 27.202,243.144 26.887 C 242.048 26.209,243.479 24.137,244.716 24.612 C 245.137 24.773,246.078 24.488,246.807 23.978 C 247.765 23.306,248.911 23.166,250.947 23.472 C 252.820 23.753,254.070 23.637,254.685 23.127 C 255.193 22.705,256.049 22.529,256.587 22.735 C 257.125 22.942,257.411 22.862,257.224 22.558 C 257.036 22.255,257.279 21.854,257.764 21.667 C 258.798 21.271,259.373 22.481,259.790 25.928 C 259.955 27.298,260.352 28.734,260.672 29.119 C 261.578 30.211,255.994 34.673,253.627 34.750 C 252.408 34.790,251.314 35.336,250.625 36.250 C 249.677 37.507,249.198 37.634,246.802 37.263 C 245.295 37.030,243.359 36.746,242.500 36.632 C 240.100 36.312,235.348 35.035,227.967 32.728 C 224.271 31.572,221.037 30.659,220.780 30.700 C 218.876 30.999,218.596 30.545,218.920 27.676 C 219.226 24.960,219.187 24.849,218.427 26.270 C 216.694 29.507,215.745 27.465,216.069 21.196 L 216.325 16.224 214.349 16.375 C 213.080 16.472,211.954 17.090,211.198 18.106 C 209.784 20.006,209.630 20.159,206.977 22.282 C 205.831 23.200,204.630 24.643,204.308 25.488 C 203.067 28.752,195.034 26.846,195.010 23.281 C 194.998 21.627,194.260 21.512,192.222 22.847 C 190.964 23.672,190.617 23.689,189.934 22.957 C 189.491 22.483,188.479 22.220,187.686 22.371 C 186.892 22.523,185.836 22.310,185.339 21.897 C 184.835 21.479,183.849 21.333,183.110 21.567 C 182.260 21.837,181.372 21.613,180.632 20.944 C 179.753 20.148,179.191 20.055,178.266 20.550 C 177.599 20.907,175.958 21.270,174.620 21.357 C 173.282 21.444,171.661 22.000,171.018 22.593 C 169.738 23.773,166.766 23.706,165.268 22.463 C 164.632 21.935,164.375 21.923,164.375 22.423 C 164.375 23.321,162.083 23.342,161.531 22.449 C 161.302 22.078,160.497 21.928,159.743 22.118 C 158.819 22.350,158.086 22.062,157.488 21.234 C 156.504 19.868,155.072 21.420,155.022 23.906 C 155.010 24.508,154.719 25.000,154.375 25.000 C 154.031 25.000,153.750 25.703,153.750 26.563 C 153.750 27.813,153.438 28.125,152.188 28.125 C 150.501 28.125,150.209 27.541,151.333 26.417 C 152.137 25.613,151.563 23.483,150.688 24.024 C 150.374 24.218,150.252 24.893,150.417 25.523 C 150.858 27.207,147.804 29.182,146.995 27.737 C 146.553 26.946,146.166 26.876,145.174 27.407 C 144.481 27.778,143.772 27.939,143.598 27.764 C 143.142 27.308,135.603 31.829,135.240 32.777 C 134.684 34.226,130.389 35.252,128.684 34.343 C 127.319 33.615,127.263 33.636,128.045 34.585 C 128.517 35.157,128.658 35.650,128.358 35.680 C 128.058 35.711,126.423 35.841,124.725 35.970 C 122.793 36.117,121.436 36.564,121.100 37.165 C 120.805 37.693,120.014 38.125,119.344 38.125 C 118.674 38.125,118.125 38.406,118.125 38.750 C 118.125 39.763,115.613 39.467,113.511 38.206 C 111.614 37.067,111.496 37.067,109.063 38.189 L 106.563 39.342 109.434 39.359 C 111.498 39.370,112.625 39.727,113.437 40.625 C 114.060 41.312,115.044 41.875,115.625 41.875 C 116.206 41.875,117.184 42.431,117.799 43.110 C 118.414 43.790,119.192 44.175,119.528 43.968 C 119.865 43.760,120.358 43.943,120.625 44.375 C 120.892 44.807,121.440 44.956,121.844 44.707 C 122.990 43.998,123.921 41.321,124.295 37.656 C 124.413 36.502,126.570 36.705,129.795 38.174 C 133.995 40.087,140.874 39.995,141.936 38.011 C 143.966 34.217,149.450 29.931,152.030 30.123 C 155.317 30.366,155.640 31.392,152.758 32.435 C 150.339 33.309,150.022 33.582,145.467 38.685 C 142.554 41.949,142.422 42.018,138.592 42.239 C 135.055 42.444,131.635 43.521,126.668 45.994 C 125.695 46.479,123.831 46.875,122.526 46.875 C 121.221 46.875,119.818 47.279,119.408 47.773 C 118.998 48.267,117.131 48.862,115.259 49.096 C 113.205 49.353,111.642 49.902,111.317 50.482 C 111.022 51.011,110.376 51.288,109.883 51.099 C 109.389 50.909,108.300 51.282,107.461 51.926 C 106.623 52.570,105.480 53.103,104.920 53.111 C 104.361 53.119,103.547 53.554,103.111 54.079 C 101.698 55.782,96.919 58.702,96.542 58.093 C 95.879 57.020,94.384 57.472,92.647 59.272 C 91.707 60.246,89.391 61.711,87.500 62.527 C 85.609 63.343,83.316 64.514,82.404 65.130 C 81.491 65.746,80.312 66.250,79.784 66.250 C 79.256 66.250,78.669 66.500,78.480 66.806 C 78.291 67.111,77.446 67.535,76.602 67.747 C 69.708 69.477,63.756 74.123,58.591 81.806 C 55.362 86.608,53.703 95.492,55.402 98.875 C 55.869 99.803,56.250 101.045,56.250 101.635 C 56.250 102.225,56.667 103.153,57.176 103.698 C 61.737 108.575,61.794 108.731,59.967 111.297 C 59.261 112.288,58.563 113.724,58.416 114.487 C 58.269 115.250,56.765 117.295,55.073 119.031 C 51.961 122.226,50.034 126.677,52.108 125.882 C 53.375 125.395,54.517 126.145,53.926 127.074 C 53.668 127.480,53.417 128.305,53.369 128.906 C 53.321 129.508,53.246 130.238,53.203 130.529 C 53.160 130.821,52.492 131.390,51.719 131.795 C 50.433 132.468,50.490 132.503,52.383 132.211 C 54.260 131.920,54.415 132.014,54.039 133.200 C 53.493 134.919,51.792 136.875,50.843 136.875 C 50.429 136.875,49.608 137.356,49.021 137.943 C 46.320 140.645,44.160 137.923,46.527 134.800 C 47.361 133.700,47.410 133.700,48.036 134.800 C 48.649 135.878,48.757 135.864,50.105 134.531 C 51.277 133.373,51.344 133.125,50.488 133.125 C 49.159 133.125,48.364 131.875,49.319 131.285 C 49.853 130.955,49.872 130.369,49.389 129.099 C 48.699 127.286,46.875 127.768,46.875 129.764 C 46.875 130.238,46.664 130.627,46.406 130.629 C 45.778 130.634,43.750 134.248,43.750 135.363 C 43.750 135.851,43.398 136.290,42.969 136.338 C 40.923 136.570,39.112 136.211,38.666 135.487 C 37.446 133.509,36.421 132.205,34.521 130.217 C 32.401 127.999,32.499 125.625,34.709 125.625 C 35.213 125.625,35.629 125.273,35.635 124.844 C 35.641 124.285,35.802 124.311,36.196 124.935 C 36.500 125.415,37.199 125.634,37.749 125.423 C 38.328 125.201,38.754 125.361,38.760 125.801 C 38.766 126.326,38.912 126.351,39.228 125.883 C 39.861 124.946,42.500 124.343,42.500 125.135 C 42.500 125.516,42.882 125.461,43.438 125.000 C 44.192 124.374,44.375 124.387,44.375 125.066 C 44.375 126.571,47.283 122.971,49.508 118.710 C 52.452 113.075,51.618 107.043,48.346 110.314 C 46.979 111.682,45.674 111.460,45.023 109.748 C 44.709 108.922,44.154 108.062,43.789 107.836 C 43.424 107.611,43.125 106.910,43.125 106.280 C 43.125 105.650,42.703 104.972,42.188 104.774 C 41.672 104.576,41.250 103.718,41.250 102.867 C 41.250 101.785,40.309 100.509,38.125 98.628 C 34.343 95.371,34.465 91.250,38.344 91.250 C 39.449 91.250,44.368 87.674,45.848 85.794 C 46.802 84.583,47.137 84.471,47.723 85.168 C 50.422 88.371,52.249 87.569,52.737 82.968 C 52.837 82.022,53.106 81.061,53.334 80.832 C 54.515 79.651,53.536 79.358,52.297 80.522 C 50.587 82.128,49.849 81.729,50.647 79.629 C 50.960 78.808,51.067 77.750,50.886 77.277 C 50.701 76.797,51.425 75.688,52.528 74.760 C 53.612 73.848,54.354 72.721,54.176 72.257 C 53.998 71.793,54.344 70.603,54.945 69.613 C 56.236 67.488,57.130 64.503,56.935 62.969 C 56.858 62.357,57.204 61.875,57.721 61.875 C 58.230 61.875,58.807 61.523,59.005 61.094 C 59.202 60.664,59.206 60.945,59.015 61.719 C 58.771 62.700,58.945 63.125,59.590 63.125 C 60.107 63.125,60.445 62.653,60.357 62.054 C 60.271 61.465,60.713 60.113,61.341 59.049 C 62.518 57.054,63.231 53.308,63.214 49.219 C 63.206 47.512,63.467 46.875,64.175 46.875 C 64.877 46.875,65.062 47.313,64.843 48.460 C 64.629 49.577,64.884 50.228,65.707 50.669 C 66.999 51.360,67.434 57.081,66.250 57.813 C 65.906 58.025,65.625 58.869,65.625 59.688 C 65.625 60.506,65.344 61.350,65.000 61.563 C 64.656 61.775,64.375 62.398,64.375 62.946 C 64.375 63.805,64.554 63.782,65.663 62.778 C 66.718 61.823,67.047 61.767,67.481 62.470 C 68.140 63.536,70.000 61.949,70.000 60.320 C 70.000 59.760,70.281 59.475,70.625 59.688 C 71.246 60.071,71.338 59.068,71.451 50.721 C 71.493 47.597,71.278 46.628,70.440 46.159 C 69.854 45.831,69.375 45.256,69.375 44.882 C 69.375 44.507,68.916 43.864,68.354 43.454 C 66.637 42.198,66.130 36.802,67.599 35.414 C 69.613 33.512,70.625 34.517,70.625 38.418 C 70.625 40.319,70.906 41.875,71.250 41.875 C 71.594 41.875,71.875 42.375,71.875 42.986 C 71.875 43.597,72.438 44.579,73.125 45.167 C 73.813 45.756,74.375 46.944,74.375 47.806 C 74.375 49.477,75.508 49.867,76.750 48.625 C 77.333 48.042,77.500 48.169,77.500 49.198 C 77.500 49.926,77.148 50.666,76.719 50.843 C 76.289 51.020,76.852 51.009,77.969 50.817 C 79.313 50.587,80.000 50.719,80.000 51.209 C 80.000 51.616,80.281 51.775,80.625 51.563 C 80.969 51.350,81.250 51.518,81.250 51.935 C 81.250 52.430,81.648 52.334,82.393 51.659 C 83.022 51.090,83.865 50.625,84.268 50.625 C 85.058 50.625,85.306 52.455,84.531 52.568 C 84.273 52.606,82.805 52.731,81.267 52.846 C 79.646 52.968,78.169 53.470,77.750 54.042 C 77.195 54.801,76.667 54.890,75.454 54.429 C 73.551 53.705,73.125 54.050,73.125 56.312 C 73.125 57.784,75.236 59.589,75.861 58.651 C 75.939 58.533,76.487 57.664,77.079 56.719 C 78.433 54.553,78.773 54.570,80.313 56.875 C 81.537 58.708,83.365 59.512,82.799 57.969 C 82.385 56.837,83.482 55.386,84.348 55.921 C 84.753 56.171,84.938 56.761,84.757 57.231 C 84.577 57.701,84.699 58.251,85.027 58.454 C 85.356 58.658,85.625 58.245,85.625 57.537 C 85.625 56.614,86.028 56.250,87.048 56.250 C 87.831 56.250,89.035 55.856,89.722 55.374 C 90.410 54.892,91.661 54.400,92.502 54.280 C 94.119 54.050,95.943 51.318,95.066 50.441 C 94.194 49.569,91.540 50.625,90.564 52.232 C 88.548 55.555,87.093 52.707,88.987 49.145 C 90.346 46.588,90.573 45.362,90.566 40.611 C 90.556 34.529,91.066 30.813,91.987 30.243 C 93.084 29.565,94.326 32.099,94.012 34.375 C 93.570 37.579,99.024 41.163,99.804 38.181 C 99.992 37.463,100.530 36.875,100.998 36.875 C 101.864 36.875,102.791 34.338,102.653 32.344 C 102.612 31.742,102.841 31.250,103.164 31.250 C 103.486 31.250,103.750 30.734,103.750 30.104 C 103.750 28.511,104.417 28.007,105.423 28.842 C 106.350 29.611,108.824 27.944,108.569 26.722 C 108.497 26.377,108.789 25.965,109.219 25.807 C 109.648 25.650,110.000 25.966,110.000 26.510 C 110.000 27.055,110.281 27.500,110.625 27.500 C 110.969 27.500,111.250 26.940,111.250 26.255 C 111.250 25.221,113.410 21.793,116.258 18.308 C 116.597 17.892,116.875 17.008,116.875 16.343 C 116.875 15.678,117.297 14.972,117.812 14.774 C 118.952 14.337,119.036 11.718,117.969 9.910 C 117.344 8.851,117.344 8.530,117.969 8.304 C 118.398 8.148,118.750 7.660,118.750 7.220 C 118.750 6.779,119.313 5.703,120.000 4.829 C 120.688 3.955,121.250 2.652,121.250 1.933 L 121.250 0.625 60.938 0.625 L 0.625 0.625 0.625 112.500 M128.667 3.262 C 128.814 4.734,129.056 5.586,129.206 5.156 C 129.356 4.727,129.853 4.375,130.311 4.375 C 131.464 4.375,130.531 0.997,129.312 0.762 C 128.596 0.624,128.458 1.161,128.667 3.262 M133.750 1.412 C 133.750 1.845,134.282 2.531,134.932 2.937 C 135.948 3.572,136.071 3.514,135.811 2.520 C 135.612 1.759,135.903 1.262,136.661 1.067 C 137.324 0.896,136.950 0.739,135.781 0.698 C 134.526 0.653,133.750 0.926,133.750 1.412 M139.388 2.096 C 140.240 2.905,141.031 3.327,141.146 3.033 C 141.260 2.740,141.753 2.500,142.240 2.500 C 142.727 2.500,143.125 2.078,143.125 1.563 C 143.125 0.877,142.415 0.625,140.482 0.625 L 137.839 0.625 139.388 2.096 M224.205 1.076 C 225.314 1.214,227.283 1.216,228.580 1.081 C 229.877 0.946,228.969 0.833,226.563 0.830 C 224.156 0.827,223.095 0.938,224.205 1.076 M221.129 19.844 C 218.521 22.881,220.135 27.487,223.382 26.272 C 224.955 25.683,224.832 23.563,223.117 21.723 C 222.485 21.044,222.117 20.097,222.300 19.619 C 222.756 18.433,222.260 18.528,221.129 19.844 M166.563 29.115 C 166.563 30.720,162.854 31.199,162.267 29.669 C 162.014 29.011,162.151 28.738,162.650 28.904 C 163.077 29.047,163.813 28.776,164.286 28.304 C 165.404 27.185,166.563 27.597,166.563 29.115 M171.485 28.427 C 172.882 29.486,172.391 31.582,170.881 31.002 C 170.340 30.795,169.490 30.625,168.992 30.625 C 167.726 30.625,167.134 28.740,168.190 28.071 C 169.389 27.312,170.116 27.391,171.485 28.427 M160.938 30.009 C 160.938 30.600,160.199 31.009,158.906 31.133 C 156.691 31.347,155.914 29.724,157.969 29.174 C 159.768 28.693,160.938 29.022,160.938 30.009 M215.000 29.375 C 215.000 30.169,213.103 30.169,211.875 29.375 C 211.164 28.915,211.427 28.767,212.969 28.760 C 214.086 28.754,215.000 29.031,215.000 29.375 M202.500 32.539 C 202.500 32.861,201.586 33.121,200.469 33.115 C 199.280 33.110,198.751 32.907,199.194 32.625 C 200.306 31.918,202.500 31.861,202.500 32.539 M79.128 37.344 C 79.314 37.945,79.765 38.987,80.131 39.659 C 80.619 40.556,80.596 40.947,80.045 41.131 C 79.632 41.269,79.038 42.055,78.725 42.878 C 77.105 47.140,75.019 41.493,76.565 37.031 C 76.967 35.870,78.738 36.086,79.128 37.344 M265.855 37.061 C 266.880 36.036,266.099 38.051,265.024 39.205 C 262.767 41.628,260.269 39.886,262.383 37.364 C 263.033 36.587,263.584 36.451,264.371 36.873 C 264.971 37.194,265.638 37.278,265.855 37.061 M98.750 42.188 C 98.750 42.703,98.868 43.125,99.011 43.125 C 99.155 43.125,99.718 43.296,100.261 43.504 C 100.970 43.776,101.250 43.511,101.250 42.567 C 101.250 41.667,100.854 41.250,100.000 41.250 C 99.306 41.250,98.750 41.667,98.750 42.188 M78.125 45.938 C 78.125 46.453,77.703 46.875,77.188 46.875 C 76.672 46.875,76.250 46.453,76.250 45.938 C 76.250 45.422,76.672 45.000,77.188 45.000 C 77.703 45.000,78.125 45.422,78.125 45.938 M290.000 48.125 C 290.000 48.958,289.583 49.375,288.750 49.375 C 287.374 49.375,287.329 49.298,287.879 47.864 C 288.423 46.447,290.000 46.642,290.000 48.125 M302.500 59.761 C 302.500 61.202,298.900 64.044,297.306 63.861 C 295.256 63.626,293.542 64.805,294.041 66.107 C 294.271 66.706,294.089 66.899,293.506 66.675 C 292.631 66.339,291.637 68.223,291.835 69.844 C 291.887 70.273,291.355 70.625,290.652 70.625 C 289.445 70.625,289.105 70.034,289.321 68.314 C 289.373 67.902,288.843 67.259,288.145 66.886 C 287.446 66.512,286.875 65.818,286.875 65.344 C 286.875 64.365,292.358 61.088,293.163 61.586 C 293.452 61.765,295.320 61.350,297.313 60.664 C 301.110 59.357,302.500 59.116,302.500 59.761 M303.125 66.359 C 303.125 66.683,302.844 66.775,302.500 66.563 C 302.156 66.350,301.875 66.491,301.875 66.875 C 301.875 67.259,301.594 67.400,301.250 67.188 C 300.906 66.975,300.625 67.082,300.625 67.424 C 300.625 67.767,300.093 68.007,299.444 67.958 C 298.678 67.901,298.386 67.546,298.615 66.951 C 298.867 66.292,298.672 66.146,297.921 66.434 C 297.346 66.655,296.875 66.563,296.875 66.230 C 296.875 65.897,297.262 65.625,297.736 65.625 C 298.210 65.625,298.938 65.214,299.356 64.711 C 300.168 63.732,303.125 65.025,303.125 66.359 M297.615 70.135 C 297.208 70.542,296.875 71.466,296.875 72.188 C 296.875 73.882,295.733 75.000,294.004 75.000 C 290.936 75.000,292.475 71.304,296.250 69.608 C 298.043 68.802,298.696 69.054,297.615 70.135 M308.386 69.754 C 309.808 70.300,309.605 72.294,308.087 72.691 C 306.680 73.059,305.877 71.874,306.476 70.313 C 306.881 69.258,307.001 69.223,308.386 69.754 M302.164 74.338 C 302.535 74.937,300.179 77.500,299.257 77.500 C 298.127 77.500,298.852 79.219,300.313 80.000 C 302.041 80.925,302.255 81.909,301.121 83.724 C 300.205 85.190,302.216 88.034,303.360 86.890 C 303.712 86.538,304.476 86.250,305.058 86.250 C 305.640 86.250,306.262 85.870,306.440 85.406 C 307.134 83.597,319.192 74.442,319.921 75.171 C 320.428 75.678,320.625 75.681,320.625 75.184 C 320.625 74.800,321.181 74.637,321.875 74.819 C 323.818 75.327,323.551 77.727,321.593 77.353 C 320.751 77.192,320.081 77.229,320.105 77.436 C 320.325 79.355,319.850 80.629,318.906 80.651 C 313.311 80.785,313.341 84.094,318.939 84.278 C 320.934 84.343,322.762 84.425,323.002 84.460 C 324.676 84.702,325.721 84.126,326.563 82.500 C 327.849 80.013,328.750 80.126,328.750 82.776 C 328.750 83.958,328.977 85.067,329.254 85.238 C 329.861 85.613,329.771 89.478,329.131 90.514 C 328.881 90.919,328.974 91.250,329.338 91.250 C 329.702 91.250,330.000 91.016,330.000 90.729 C 330.000 90.443,331.266 90.208,332.813 90.208 C 335.823 90.208,336.519 90.894,334.219 91.593 C 333.445 91.828,331.903 92.701,330.792 93.534 C 329.263 94.679,328.869 94.793,329.173 94.001 C 329.453 93.271,329.308 93.047,328.693 93.261 C 328.209 93.429,327.886 93.989,327.975 94.505 C 328.196 95.777,326.547 99.600,325.349 100.595 C 324.535 101.270,324.375 101.236,324.375 100.389 C 324.375 99.831,323.935 99.375,323.398 99.375 C 322.842 99.375,322.469 98.904,322.533 98.281 C 322.751 96.138,322.469 95.877,319.974 95.907 C 316.455 95.949,316.332 100.084,319.833 100.625 C 320.945 100.797,322.398 101.407,323.062 101.980 C 323.726 102.553,324.467 102.834,324.708 102.605 C 325.592 101.763,324.202 106.626,322.986 108.627 C 322.297 109.762,321.905 110.863,322.116 111.075 C 322.327 111.286,322.500 111.139,322.500 110.749 C 322.500 110.359,322.894 110.190,323.376 110.375 C 323.857 110.560,325.566 109.707,327.173 108.481 C 328.781 107.254,330.552 106.250,331.110 106.250 C 332.274 106.250,343.664 102.775,346.762 101.475 C 350.647 99.844,351.175 102.020,347.691 105.305 C 346.421 106.503,344.392 107.810,343.182 108.209 C 341.081 108.903,341.047 108.960,342.423 109.469 C 343.217 109.762,344.156 109.823,344.511 109.603 C 344.867 109.384,346.880 109.202,348.985 109.199 C 351.090 109.196,352.953 108.988,353.125 108.738 C 353.297 108.487,354.108 108.533,354.928 108.840 L 356.419 109.397 354.795 110.793 C 352.694 112.598,353.335 113.594,357.047 114.287 C 358.650 114.586,360.717 115.326,361.640 115.931 C 362.928 116.774,364.094 116.950,366.659 116.685 C 369.623 116.379,370.000 116.471,370.000 117.503 C 370.000 119.005,368.445 119.463,362.738 119.640 C 360.182 119.720,357.783 120.092,357.407 120.468 C 357.030 120.845,356.342 121.006,355.877 120.828 C 355.412 120.649,354.077 121.093,352.911 121.814 C 351.744 122.535,350.120 123.102,349.301 123.072 C 348.482 123.043,346.471 122.980,344.830 122.933 C 342.774 122.873,341.939 122.611,342.139 122.087 C 342.543 121.036,340.781 120.770,337.813 121.433 C 335.490 121.951,330.780 122.451,326.719 122.612 C 325.506 122.659,325.000 123.010,325.000 123.803 C 325.000 125.467,323.787 125.914,322.829 124.604 C 322.071 123.567,321.768 123.538,319.668 124.297 C 317.736 124.996,317.259 124.997,316.831 124.305 C 316.425 123.647,316.231 123.698,315.906 124.545 C 315.679 125.135,315.211 125.443,314.865 125.229 C 314.005 124.698,313.077 126.317,313.486 127.633 C 314.213 129.969,309.916 133.762,308.726 131.836 C 308.433 131.362,307.953 131.597,307.294 132.538 C 306.748 133.317,306.439 134.175,306.606 134.445 C 306.773 134.716,305.946 135.118,304.767 135.339 C 303.589 135.560,302.041 136.412,301.328 137.232 C 300.536 138.143,299.649 138.576,299.047 138.345 C 298.493 138.133,297.459 138.509,296.687 139.203 C 294.887 140.821,293.429 141.323,289.931 141.526 C 285.805 141.766,285.508 142.102,286.821 145.035 C 288.675 149.176,287.078 152.759,284.441 150.373 C 283.418 149.446,283.224 149.440,282.501 150.311 C 282.055 150.849,281.207 151.122,280.589 150.926 C 279.979 150.733,279.299 150.867,279.078 151.225 C 278.857 151.582,278.151 151.875,277.508 151.875 C 276.866 151.875,275.639 152.771,274.782 153.867 C 272.171 157.202,270.232 154.733,272.264 150.660 C 272.821 149.542,273.318 147.821,273.368 146.835 C 273.417 145.849,273.805 144.695,274.229 144.271 C 274.653 143.847,275.000 142.711,275.000 141.748 C 275.000 140.079,279.170 131.167,280.156 130.729 C 280.414 130.615,280.625 130.138,280.625 129.671 C 280.625 129.203,281.139 128.453,281.768 128.004 C 283.129 127.032,284.469 123.471,283.966 122.162 C 283.723 121.528,284.227 121.019,285.554 120.556 C 287.637 119.830,287.622 118.750,285.529 118.750 C 284.357 118.750,284.291 118.493,284.688 115.469 C 285.179 111.731,285.856 111.005,291.646 108.019 C 298.755 104.351,302.935 89.040,298.037 84.608 C 294.574 81.474,294.403 77.998,297.634 76.411 C 298.503 75.983,299.567 75.210,299.996 74.692 C 300.892 73.613,301.641 73.491,302.164 74.338 M14.063 85.365 C 14.063 86.131,13.556 86.634,12.656 86.762 C 11.103 86.983,10.566 84.753,12.031 84.167 C 13.316 83.653,14.063 84.093,14.063 85.365 M348.565 87.258 C 348.827 88.043,345.044 90.877,344.483 90.316 C 344.253 90.086,344.503 89.569,345.040 89.168 C 345.576 88.766,346.209 87.922,346.445 87.292 C 346.879 86.136,348.184 86.115,348.565 87.258 M29.683 89.844 C 28.743 92.127,28.627 93.125,29.302 93.125 C 29.686 93.125,30.000 92.703,30.000 92.188 C 30.000 91.672,30.470 91.250,31.045 91.250 C 31.619 91.250,32.610 90.779,33.247 90.202 C 34.913 88.694,36.306 90.087,34.798 91.753 C 34.221 92.390,33.750 93.646,33.750 94.544 C 33.750 95.442,33.469 96.350,33.125 96.563 C 32.781 96.775,32.500 97.779,32.500 98.793 C 32.500 99.819,31.983 101.080,31.334 101.635 C 30.418 102.420,30.234 103.218,30.477 105.368 C 30.718 107.509,30.564 108.188,29.768 108.493 C 29.208 108.708,28.750 109.232,28.750 109.657 C 28.750 110.083,28.047 111.248,27.188 112.247 C 26.329 113.245,25.626 114.273,25.626 114.531 C 25.625 114.789,25.219 115.000,24.723 115.000 C 24.101 115.000,23.931 115.435,24.174 116.406 C 24.968 119.579,25.082 122.375,24.434 122.776 C 24.058 123.009,23.749 123.674,23.747 124.256 C 23.745 124.837,23.052 126.156,22.207 127.188 L 20.670 129.063 20.638 127.188 C 20.620 126.156,20.399 125.594,20.147 125.938 C 19.894 126.281,18.787 126.553,17.687 126.541 C 16.269 126.526,15.707 126.798,15.755 127.478 C 15.917 129.767,15.581 131.875,15.055 131.875 C 14.742 131.875,14.560 131.383,14.652 130.781 C 14.866 129.367,13.797 126.864,12.372 125.444 C 11.003 124.080,10.943 121.653,12.192 118.113 C 13.336 114.870,13.963 104.390,13.141 102.231 C 12.545 100.663,13.288 99.372,14.065 100.628 C 14.306 101.019,14.896 100.745,15.548 99.940 L 16.631 98.603 19.397 99.939 L 22.163 101.276 23.227 99.865 C 23.813 99.088,24.467 97.520,24.681 96.379 C 24.895 95.239,25.617 93.758,26.285 93.090 C 26.953 92.422,27.500 91.509,27.500 91.063 C 27.500 90.128,28.731 88.750,29.567 88.750 C 29.879 88.750,29.931 89.242,29.683 89.844 M317.195 91.238 C 316.941 91.648,317.015 92.265,317.359 92.609 C 318.173 93.423,318.821 92.376,318.162 91.310 C 317.778 90.688,317.545 90.671,317.195 91.238 M5.625 99.099 C 5.625 99.635,5.906 99.900,6.250 99.688 C 7.590 98.860,6.783 100.770,5.156 102.278 C 2.100 105.112,1.250 105.310,1.250 103.189 C 1.250 101.883,1.620 101.217,2.500 100.938 C 3.783 100.530,4.245 99.375,3.125 99.375 C 2.781 99.375,2.500 99.094,2.500 98.750 C 2.500 98.406,3.203 98.125,4.063 98.125 C 5.061 98.125,5.625 98.477,5.625 99.099 M330.182 102.607 C 328.697 104.091,328.094 104.323,326.883 103.875 L 325.402 103.327 327.441 101.820 C 328.562 100.991,329.617 100.453,329.784 100.625 C 329.951 100.797,330.410 100.375,330.804 99.688 C 331.489 98.490,331.530 98.487,331.759 99.614 C 331.901 100.311,331.259 101.530,330.182 102.607 M370.507 104.538 C 370.650 105.280,370.317 105.625,369.458 105.625 C 368.024 105.625,367.231 104.692,367.834 103.715 C 368.442 102.731,370.268 103.293,370.507 104.538 M361.693 108.361 C 361.260 109.659,359.375 109.552,359.375 108.229 C 359.375 107.291,359.684 107.073,360.651 107.326 C 361.352 107.509,361.821 107.975,361.693 108.361 M301.345 114.928 C 300.881 115.222,300.600 115.895,300.720 116.424 C 300.889 117.170,301.189 117.048,302.060 115.880 C 303.196 114.358,302.889 113.950,301.345 114.928 M70.625 120.974 C 70.625 121.893,69.291 122.207,68.547 121.464 C 67.982 120.899,69.383 119.306,70.071 119.731 C 70.376 119.920,70.625 120.479,70.625 120.974 M297.238 119.918 C 297.016 120.277,296.424 120.413,295.923 120.220 C 295.406 120.022,294.838 120.320,294.612 120.909 C 294.393 121.480,293.842 121.804,293.389 121.630 C 292.835 121.418,292.692 121.647,292.953 122.328 C 293.249 123.101,293.081 123.242,292.244 122.921 C 290.405 122.215,291.459 123.932,293.650 125.212 C 295.873 126.510,297.550 125.363,298.433 121.941 C 298.847 120.338,297.934 118.793,297.238 119.918 M38.750 123.058 C 38.750 123.709,38.297 124.415,37.743 124.628 C 37.006 124.911,36.838 124.747,37.118 124.018 C 37.328 123.471,37.500 122.765,37.500 122.449 C 37.500 122.133,37.781 121.875,38.125 121.875 C 38.469 121.875,38.750 122.407,38.750 123.058 M75.297 126.780 C 74.693 127.348,74.336 127.531,74.503 127.188 C 74.670 126.844,75.024 126.000,75.289 125.313 C 75.628 124.432,75.863 124.311,76.083 124.905 C 76.255 125.369,75.901 126.212,75.297 126.780 M339.068 125.781 C 338.819 126.555,338.301 128.383,337.916 129.844 C 337.531 131.305,336.998 132.500,336.733 132.500 C 336.467 132.500,336.250 133.224,336.250 134.108 C 336.250 135.309,335.973 135.660,335.156 135.492 C 334.555 135.368,333.781 135.624,333.438 136.059 C 333.007 136.605,332.521 136.661,331.875 136.238 C 331.229 135.816,331.151 135.479,331.625 135.156 C 332.620 134.478,333.750 132.148,333.750 130.775 C 333.750 130.125,334.453 128.932,335.313 128.125 C 336.172 127.318,336.875 126.308,336.875 125.881 C 336.875 125.149,337.762 124.535,338.979 124.424 C 339.277 124.397,339.317 125.008,339.068 125.781 M294.492 128.164 C 294.643 128.615,295.135 129.107,295.586 129.258 C 296.055 129.414,296.289 129.180,296.133 128.711 C 295.982 128.260,295.490 127.768,295.039 127.617 C 294.570 127.461,294.336 127.695,294.492 128.164 M356.542 130.958 C 359.010 133.426,359.304 134.375,357.600 134.375 C 356.968 134.375,356.123 133.656,355.723 132.777 C 355.322 131.898,354.712 131.354,354.367 131.568 C 352.800 132.536,351.075 131.213,352.295 129.980 C 353.855 128.402,354.025 128.442,356.542 130.958 M348.482 132.507 C 348.482 133.199,348.215 133.676,347.889 133.567 C 347.004 133.272,346.868 131.250,347.734 131.250 C 348.145 131.250,348.482 131.816,348.482 132.507 M21.459 133.858 C 21.868 135.419,21.432 136.437,20.582 135.911 C 19.841 135.453,19.816 132.500,20.552 132.500 C 20.856 132.500,21.264 133.111,21.459 133.858 M60.965 136.205 C 60.768 136.524,61.150 136.957,61.814 137.168 C 62.477 137.379,63.377 138.454,63.813 139.557 C 64.249 140.660,64.699 141.717,64.813 141.906 C 64.928 142.095,64.033 142.250,62.825 142.250 C 60.353 142.250,59.678 141.187,60.378 138.397 C 60.680 137.198,60.596 136.819,60.098 137.127 C 59.642 137.409,59.522 137.219,59.762 136.595 C 59.966 136.061,60.401 135.625,60.729 135.625 C 61.056 135.625,61.162 135.886,60.965 136.205 M108.438 137.128 C 110.764 137.473,116.370 140.296,115.821 140.846 C 115.598 141.068,116.022 141.250,116.762 141.250 C 119.776 141.250,123.750 142.745,123.750 143.880 C 123.750 145.227,123.547 145.238,120.168 144.060 C 118.187 143.370,115.560 143.207,109.699 143.411 C 100.964 143.715,100.220 143.317,103.906 140.307 C 105.202 139.249,105.420 138.906,104.508 139.359 C 102.332 140.440,100.740 139.681,101.111 137.741 C 101.441 136.014,101.112 136.042,108.438 137.128 M331.563 136.875 C 331.775 137.219,331.721 137.522,331.443 137.548 C 331.165 137.574,330.445 137.690,329.844 137.805 C 329.220 137.924,328.750 137.635,328.750 137.132 C 328.750 136.129,330.975 135.925,331.563 136.875 M80.921 140.027 C 80.699 140.386,80.985 141.393,81.556 142.265 C 83.027 144.510,82.408 145.841,80.334 144.896 C 79.463 144.499,78.750 143.854,78.750 143.462 C 78.750 142.354,80.254 139.385,80.818 139.380 C 81.096 139.377,81.142 139.669,80.921 140.027 M101.250 149.688 C 101.250 150.203,100.828 150.625,100.313 150.625 C 99.337 150.625,99.073 149.886,99.792 149.167 C 100.511 148.448,101.250 148.712,101.250 149.688 M86.250 150.617 C 86.250 150.916,85.808 151.603,85.268 152.143 C 84.375 153.036,84.389 153.126,85.424 153.134 C 86.050 153.140,87.688 153.542,89.063 154.030 C 90.438 154.517,92.195 154.763,92.969 154.577 C 93.785 154.381,94.375 154.530,94.375 154.932 C 94.375 155.313,94.149 155.555,93.872 155.469 C 93.252 155.276,88.516 157.636,88.229 158.281 C 87.782 159.288,85.495 158.702,85.181 157.500 C 85.001 156.813,84.606 156.250,84.302 156.250 C 83.998 156.250,83.750 155.547,83.750 154.688 C 83.750 153.828,83.469 153.125,83.125 153.125 C 82.088 153.125,82.418 152.000,83.845 150.671 C 85.127 149.476,86.250 149.451,86.250 150.617 M103.643 153.906 C 105.396 157.288,104.947 158.352,101.250 159.572 C 99.359 160.197,97.719 160.970,97.604 161.291 C 97.490 161.612,97.034 161.875,96.591 161.875 C 96.149 161.875,94.696 163.000,93.362 164.374 C 92.029 165.749,90.586 166.874,90.156 166.874 C 88.882 166.875,89.266 164.483,90.781 162.980 C 91.555 162.213,92.469 161.041,92.813 160.375 C 93.156 159.710,95.125 158.028,97.188 156.638 C 99.250 155.249,101.162 153.749,101.437 153.306 C 102.164 152.135,102.816 152.312,103.643 153.906 M271.220 157.108 C 272.142 159.535,272.223 160.338,271.563 160.547 C 270.773 160.797,268.604 156.992,269.089 156.208 C 269.718 155.189,270.638 155.577,271.220 157.108 M105.098 167.344 C 105.153 167.945,105.188 168.767,105.176 169.169 C 105.165 169.572,105.542 169.753,106.015 169.571 C 106.488 169.390,106.875 169.553,106.875 169.933 C 106.875 170.314,106.594 170.625,106.250 170.625 C 105.189 170.625,105.561 173.878,106.719 174.728 C 107.721 175.465,107.662 175.589,106.007 176.221 C 105.014 176.600,104.030 176.723,103.820 176.494 C 103.609 176.266,103.789 175.953,104.219 175.800 C 105.041 175.506,105.259 173.277,104.627 171.630 C 104.289 170.750,104.161 170.750,103.281 171.630 C 102.640 172.271,101.647 172.493,100.373 172.280 C 99.308 172.103,97.242 171.774,95.781 171.549 C 93.496 171.197,93.125 170.928,93.125 169.619 C 93.125 167.604,95.729 166.289,97.239 167.543 C 97.803 168.011,99.189 168.314,100.319 168.217 C 101.449 168.120,102.559 168.340,102.786 168.708 C 103.013 169.075,103.534 169.366,103.943 169.355 C 104.361 169.344,104.218 168.978,103.615 168.521 C 102.800 167.901,102.717 167.533,103.272 166.978 C 104.309 165.941,104.984 166.077,105.098 167.344 M108.750 169.688 C 108.750 170.203,108.469 170.625,108.125 170.625 C 107.781 170.625,107.500 170.203,107.500 169.688 C 107.500 169.172,107.781 168.750,108.125 168.750 C 108.469 168.750,108.750 169.172,108.750 169.688 M114.539 177.869 C 114.867 179.585,114.271 179.818,113.116 178.426 C 112.417 177.584,112.098 177.613,110.279 178.687 C 108.101 179.972,107.357 179.850,107.949 178.307 C 108.951 175.695,114.058 175.356,114.539 177.869 M129.205 182.253 C 128.768 182.690,126.875 181.803,126.875 181.161 C 126.875 180.842,127.461 180.895,128.179 181.279 C 128.895 181.662,129.358 182.101,129.205 182.253 M115.363 185.276 C 115.851 185.943,116.250 186.951,116.250 187.515 C 116.250 188.783,117.512 188.901,121.646 188.019 C 124.324 187.449,125.192 187.504,126.898 188.355 C 128.022 188.916,129.310 189.375,129.759 189.375 C 130.209 189.375,131.157 189.999,131.868 190.761 L 133.159 192.147 131.834 192.637 C 131.106 192.907,130.199 192.935,129.819 192.701 C 128.794 192.067,121.607 192.333,116.083 193.209 C 110.675 194.066,109.352 193.628,110.556 191.379 C 111.031 190.492,111.034 189.567,110.568 188.231 C 109.300 184.593,113.136 182.229,115.363 185.276 M167.500 187.151 C 167.500 187.646,167.781 188.225,168.125 188.438 C 168.469 188.650,168.750 188.245,168.750 187.537 C 168.750 186.829,168.469 186.250,168.125 186.250 C 167.781 186.250,167.500 186.655,167.500 187.151 M137.439 192.740 C 137.986 193.398,137.961 193.679,137.334 193.920 C 136.517 194.233,134.375 193.042,134.375 192.275 C 134.375 191.519,136.722 191.875,137.439 192.740 M120.485 204.564 C 120.805 204.071,121.284 204.014,121.891 204.398 C 122.398 204.719,122.531 204.989,122.188 205.000 C 121.844 205.011,121.903 205.235,122.318 205.499 C 123.432 206.207,123.786 213.251,122.777 214.630 C 122.091 215.568,122.122 216.100,122.965 217.869 C 124.157 220.368,123.981 220.631,120.833 221.045 C 117.786 221.445,114.435 216.140,116.600 214.344 C 117.095 213.933,117.500 213.069,117.500 212.423 C 117.500 211.753,117.939 211.250,118.524 211.250 C 119.401 211.250,119.498 210.692,119.198 207.386 C 118.975 204.924,119.057 203.847,119.424 204.417 C 119.857 205.090,120.121 205.127,120.485 204.564 " stroke="none" fill="#000000" fill-rule="evenodd"></path></g></svg>