<svg id="svg" xmlns="http://www.w3.org/2000/svg" xmlns:xlink="http://www.w3.org/1999/xlink" width="400" height="225" viewBox="0, 0, 400,225"><g id="svgg"><path id="path0" d="M0.625 112.500 L 0.625 224.375 59.412 224.375 C 98.444 224.375,118.069 224.165,117.813 223.750 C 117.600 223.406,117.724 223.125,118.088 223.125 C 118.452 223.125,118.750 223.406,118.750 223.750 C 118.750 224.880,149.166 224.572,149.601 223.438 C 150.009 222.374,152.294 222.215,154.594 223.089 C 155.791 223.544,156.227 223.462,156.509 222.726 C 157.257 220.778,156.801 219.945,153.818 217.801 C 150.804 215.637,149.948 213.965,149.653 209.668 C 149.604 208.969,149.241 207.793,148.845 207.053 C 147.368 204.293,148.799 203.232,152.125 204.621 C 153.904 205.364,154.144 205.725,153.912 207.307 C 153.625 209.261,155.547 211.774,156.091 210.156 C 156.236 209.727,156.753 209.375,157.240 209.375 C 158.290 209.375,158.413 208.377,157.437 207.774 C 157.059 207.540,156.900 206.593,157.085 205.670 C 157.469 203.748,155.325 202.286,151.091 201.582 C 146.359 200.796,144.490 196.134,148.745 195.730 C 152.373 195.386,152.690 192.569,149.218 191.524 C 146.892 190.824,146.329 189.664,148.092 189.203 C 148.847 189.005,150.028 189.396,151.010 190.168 C 152.440 191.294,152.982 191.380,155.095 190.816 C 156.939 190.324,157.641 190.353,157.984 190.938 C 159.041 192.740,161.094 192.616,161.942 190.700 C 162.480 189.485,163.355 188.735,164.504 188.505 C 166.814 188.043,166.711 187.213,164.219 186.205 C 163.102 185.753,162.047 185.226,161.875 185.034 C 161.703 184.841,160.367 183.873,158.906 182.882 C 157.445 181.891,156.250 180.815,156.250 180.490 C 156.250 180.161,155.426 180.082,154.383 180.311 C 152.829 180.652,152.401 180.477,151.823 179.267 C 150.936 177.405,145.069 172.500,143.731 172.500 C 143.170 172.500,142.348 171.821,141.903 170.990 C 140.889 169.095,138.750 168.397,138.750 169.962 C 138.750 170.564,138.187 171.566,137.499 172.188 C 136.275 173.296,136.251 173.283,136.391 171.586 C 136.470 170.632,136.901 169.711,137.349 169.539 C 137.796 169.367,138.009 168.745,137.822 168.155 C 137.507 167.162,137.892 166.837,141.406 165.124 C 141.664 164.999,141.875 165.322,141.875 165.843 C 141.875 166.364,142.367 166.957,142.969 167.161 C 143.570 167.365,146.734 170.097,150.000 173.234 C 154.009 177.084,157.054 179.433,159.375 180.466 C 161.266 181.308,163.019 182.321,163.272 182.717 C 163.607 183.243,163.733 183.226,163.740 182.656 C 163.757 181.314,165.898 181.802,167.118 183.426 C 167.758 184.279,168.531 184.823,168.834 184.635 C 170.184 183.801,171.877 185.121,171.960 187.073 C 172.023 188.542,172.116 188.695,172.316 187.657 C 172.650 185.921,174.131 185.534,179.375 185.812 C 181.609 185.930,183.859 185.814,184.375 185.555 C 186.251 184.611,191.263 183.750,194.808 183.764 L 198.438 183.778 196.875 184.990 C 196.016 185.657,194.469 186.387,193.438 186.611 C 191.057 187.129,190.000 187.982,190.000 189.385 C 190.000 190.482,188.444 191.543,187.128 191.343 C 186.752 191.286,185.735 191.896,184.869 192.699 C 183.478 193.988,183.219 194.043,182.647 193.173 C 182.070 192.296,181.948 192.314,181.533 193.344 C 181.251 194.047,181.370 194.688,181.837 194.976 C 182.386 195.316,182.144 195.815,180.990 196.722 C 180.102 197.421,179.375 198.144,179.375 198.330 C 179.375 198.515,178.516 200.049,177.466 201.737 C 175.595 204.748,175.577 204.854,176.525 207.247 C 177.072 208.629,177.608 212.398,177.759 215.938 C 177.906 219.375,178.048 222.680,178.076 223.281 C 178.122 224.319,183.828 224.375,288.750 224.375 L 399.375 224.375 399.375 112.500 L 399.375 0.625 309.656 0.625 C 215.547 0.625,216.250 0.606,216.250 3.141 C 216.250 4.468,222.721 3.997,226.175 2.419 C 229.311 0.985,233.354 1.285,234.336 3.024 C 234.805 3.856,235.079 3.907,235.711 3.281 C 236.145 2.852,236.725 2.500,237.000 2.500 C 237.692 2.500,237.613 8.854,236.907 9.970 C 236.591 10.469,236.490 11.132,236.682 11.443 C 236.874 11.754,237.266 11.629,237.552 11.166 C 237.956 10.512,238.241 10.491,238.820 11.070 C 239.400 11.650,239.218 12.279,238.012 13.877 C 235.909 16.662,235.479 18.482,236.923 18.482 C 237.533 18.482,237.892 18.191,237.720 17.835 C 237.548 17.479,237.850 17.733,238.391 18.401 C 239.767 20.098,239.617 21.165,237.944 21.585 C 236.337 21.989,233.125 20.973,233.125 20.061 C 233.125 18.569,230.868 19.163,229.832 20.928 C 225.514 28.288,225.590 29.231,230.454 28.645 C 232.702 28.375,234.784 28.304,235.083 28.489 C 235.381 28.673,235.625 28.526,235.625 28.162 C 235.625 27.164,238.113 27.367,238.509 28.398 C 238.698 28.892,239.272 29.135,239.784 28.939 C 240.296 28.742,241.527 29.182,242.520 29.916 C 244.879 31.660,245.885 31.599,247.446 29.614 C 248.639 28.097,248.694 26.449,247.528 27.170 C 246.363 27.890,245.377 25.606,246.407 24.575 C 247.593 23.389,253.482 25.733,252.723 27.088 C 252.466 27.546,252.626 27.525,253.158 27.031 C 254.909 25.406,255.764 26.174,254.375 28.125 C 253.641 29.156,253.270 30.004,253.551 30.010 C 253.832 30.015,253.641 30.293,253.125 30.628 C 252.465 31.057,253.056 31.173,255.126 31.021 C 258.356 30.783,258.584 31.239,256.378 33.518 C 254.819 35.129,253.980 35.376,253.630 34.329 C 253.507 33.960,252.592 34.413,251.597 35.335 C 249.923 36.887,249.515 36.982,246.142 36.600 C 239.724 35.874,224.622 31.411,223.737 29.979 C 223.499 29.594,222.912 29.354,222.433 29.445 C 220.767 29.762,217.480 28.666,217.853 27.918 C 218.054 27.516,217.775 27.733,217.234 28.401 C 216.693 29.068,216.250 29.299,216.250 28.914 C 216.250 28.529,216.658 27.806,217.158 27.307 C 217.657 26.807,217.868 26.201,217.626 25.960 C 216.939 25.272,217.072 20.365,217.792 19.853 C 218.164 19.588,217.959 19.390,217.307 19.385 C 216.673 19.379,216.356 19.085,216.584 18.714 C 218.867 15.022,213.916 13.839,211.400 17.476 C 210.458 18.838,209.426 19.963,209.107 19.976 C 208.423 20.004,204.375 24.312,204.375 25.012 C 204.375 25.875,202.584 26.204,199.547 25.900 C 196.367 25.581,194.733 24.236,195.224 22.344 C 195.436 21.526,195.128 21.250,194.004 21.250 C 193.177 21.250,192.500 21.531,192.500 21.875 C 192.500 22.689,190.190 22.687,189.686 21.873 C 189.473 21.528,188.609 21.418,187.766 21.630 C 186.919 21.843,185.830 21.680,185.332 21.266 C 184.836 20.854,184.166 20.680,183.844 20.880 C 183.521 21.079,182.292 20.838,181.111 20.345 C 179.237 19.562,178.622 19.565,176.276 20.374 C 174.797 20.883,173.278 21.197,172.901 21.071 C 172.523 20.945,171.646 21.378,170.951 22.033 C 169.978 22.949,169.184 23.128,167.500 22.809 C 166.297 22.582,164.398 22.428,163.281 22.467 C 162.164 22.507,161.250 22.249,161.250 21.895 C 161.250 21.540,160.462 21.250,159.500 21.250 C 158.537 21.250,157.437 20.937,157.054 20.554 C 156.011 19.511,155.000 20.468,155.000 22.500 C 155.000 23.491,154.719 24.475,154.375 24.688 C 154.031 24.900,153.750 25.593,153.750 26.227 C 153.750 27.419,147.621 28.468,146.861 27.406 C 146.210 26.496,142.175 27.055,141.069 28.209 C 140.023 29.300,139.142 29.644,137.928 29.435 C 137.647 29.387,136.544 30.334,135.476 31.541 C 133.319 33.977,129.973 35.024,128.431 33.744 C 127.667 33.110,127.500 33.168,127.500 34.064 C 127.500 34.938,127.135 35.083,125.669 34.790 C 124.662 34.589,123.748 34.624,123.638 34.868 C 122.819 36.686,115.172 38.461,112.805 37.383 C 111.772 36.912,110.559 36.898,108.831 37.337 C 107.112 37.773,106.139 37.764,105.682 37.307 C 104.808 36.433,104.244 37.056,104.740 38.348 C 105.033 39.112,105.937 39.375,108.265 39.375 C 111.088 39.375,111.364 39.498,111.069 40.625 C 110.750 41.844,111.726 42.245,114.219 41.922 C 114.648 41.866,115.000 42.289,115.000 42.862 C 115.000 43.708,115.173 43.760,115.920 43.139 C 116.654 42.531,117.031 42.567,117.784 43.320 C 119.743 45.279,121.627 43.891,123.125 39.384 C 124.052 36.595,128.750 34.524,128.750 36.904 C 128.750 37.305,129.172 37.472,129.688 37.274 C 130.203 37.076,130.625 37.165,130.625 37.471 C 130.625 39.346,141.146 39.827,141.838 37.984 C 142.246 36.896,146.042 32.500,146.573 32.500 C 146.772 32.500,147.561 31.772,148.326 30.883 C 149.532 29.481,150.028 29.324,152.046 29.702 C 154.867 30.231,154.992 30.843,152.492 31.878 C 150.705 32.618,142.500 40.313,142.500 41.249 C 142.500 41.492,140.606 41.723,138.292 41.762 C 133.615 41.842,128.809 42.797,125.885 44.229 C 124.824 44.748,123.068 45.042,121.979 44.882 C 120.734 44.699,120.000 44.859,120.000 45.312 C 120.000 46.772,117.108 48.655,114.211 49.081 C 112.574 49.322,111.081 49.768,110.893 50.072 C 110.705 50.376,109.885 50.625,109.070 50.625 C 108.256 50.625,107.167 51.047,106.652 51.563 C 106.136 52.078,105.343 52.501,104.888 52.501 C 104.434 52.502,103.078 53.345,101.875 54.375 C 100.672 55.405,99.336 56.248,98.906 56.249 C 98.477 56.249,98.125 56.515,98.125 56.840 C 98.125 57.164,97.091 57.363,95.827 57.282 C 93.931 57.161,93.192 57.497,91.608 59.200 C 90.423 60.475,88.252 61.762,85.938 62.562 C 83.875 63.275,81.766 64.209,81.250 64.637 C 80.045 65.637,76.000 67.488,74.906 67.540 C 73.290 67.616,64.747 72.196,64.095 73.336 C 63.733 73.967,62.135 75.795,60.542 77.398 C 58.950 79.001,57.042 81.719,56.302 83.438 C 55.562 85.156,54.673 87.070,54.326 87.691 C 51.615 92.547,54.346 105.013,58.803 108.125 C 59.633 108.705,59.596 110.302,58.709 112.188 C 57.631 114.479,54.382 118.112,54.378 117.031 C 54.376 116.602,54.703 116.250,55.104 116.250 C 55.505 116.250,55.645 116.061,55.414 115.831 C 54.698 115.115,51.820 118.244,52.472 119.029 C 53.181 119.883,50.758 124.456,49.375 124.873 C 48.618 125.102,48.588 124.996,49.219 124.328 C 49.648 123.873,50.000 122.994,50.000 122.375 C 50.000 121.756,50.251 121.250,50.558 121.250 C 50.865 121.250,51.278 120.828,51.476 120.313 C 51.674 119.797,51.571 119.375,51.246 119.375 C 50.647 119.375,48.676 122.734,48.784 123.572 C 48.817 123.824,48.512 124.142,48.106 124.277 C 46.821 124.706,48.109 121.774,50.697 118.380 C 53.225 115.065,53.695 112.831,52.515 109.728 C 51.900 108.109,49.822 107.521,49.063 108.750 C 48.047 110.393,42.500 104.342,42.500 101.591 C 42.500 100.516,37.868 95.625,36.850 95.625 C 36.520 95.625,36.250 95.076,36.250 94.404 C 36.250 93.152,36.597 92.849,42.500 88.949 C 44.391 87.700,46.157 86.310,46.425 85.860 C 46.812 85.212,47.382 85.306,49.175 86.313 C 51.838 87.809,52.475 87.286,52.490 83.594 C 52.497 81.964,52.225 81.250,51.598 81.250 C 49.655 81.250,51.343 74.532,53.417 74.012 C 54.503 73.739,54.745 73.323,54.515 72.122 C 54.336 71.184,54.649 70.108,55.315 69.372 C 55.917 68.707,56.515 67.256,56.644 66.148 C 56.773 65.040,57.229 63.911,57.658 63.639 C 58.270 63.251,58.261 63.142,57.619 63.135 C 57.169 63.129,56.997 62.808,57.237 62.420 C 57.537 61.935,57.847 62.025,58.228 62.706 C 58.947 63.991,60.625 63.347,60.625 61.786 C 60.625 61.123,61.056 59.924,61.582 59.120 C 62.504 57.713,63.234 54.659,63.209 52.310 C 63.194 50.860,64.747 50.262,65.945 51.257 C 67.154 52.259,67.161 56.883,65.957 58.474 C 64.674 60.171,64.780 60.949,66.406 61.763 C 67.734 62.427,67.716 62.446,66.094 62.103 C 65.148 61.903,64.375 62.008,64.375 62.337 C 64.375 63.195,67.638 63.165,68.758 62.296 C 71.521 60.152,72.933 48.394,70.661 46.449 C 69.954 45.843,69.375 45.103,69.375 44.805 C 69.375 44.507,68.842 43.796,68.191 43.225 C 66.684 41.904,65.836 35.625,67.165 35.625 C 67.636 35.625,68.139 35.273,68.284 34.844 C 68.980 32.775,70.625 35.827,70.625 39.187 C 70.625 42.142,70.875 42.846,72.500 44.471 C 73.731 45.702,74.375 46.976,74.375 48.178 C 74.375 49.840,74.489 49.940,75.597 49.248 C 77.226 48.230,77.790 48.927,76.793 50.728 C 76.348 51.531,76.056 52.433,76.143 52.733 C 76.230 53.033,75.894 53.122,75.397 52.931 C 73.714 52.286,72.165 54.769,73.128 56.569 C 74.133 58.446,75.667 58.577,76.730 56.875 C 77.737 55.263,78.633 55.297,80.463 57.017 C 81.562 58.049,81.840 58.136,81.540 57.355 C 81.082 56.161,83.491 55.248,85.628 55.807 C 86.305 55.984,87.496 55.636,88.274 55.033 C 89.051 54.430,90.039 54.059,90.469 54.208 C 90.898 54.357,91.250 54.034,91.250 53.490 C 91.250 52.945,90.819 52.500,90.293 52.500 C 88.832 52.500,88.496 50.794,89.619 49.080 C 90.172 48.235,90.625 46.550,90.625 45.334 C 90.625 44.119,90.906 43.125,91.250 43.125 C 91.594 43.125,91.875 42.563,91.875 41.875 C 91.875 41.188,91.594 40.625,91.250 40.625 C 90.906 40.625,90.625 39.078,90.625 37.188 C 90.625 34.231,90.791 33.750,91.808 33.750 C 93.379 33.750,93.877 35.223,92.789 36.658 C 92.308 37.293,91.906 38.218,91.895 38.713 C 91.880 39.390,92.075 39.341,92.678 38.516 C 93.435 37.480,93.629 37.498,96.161 38.850 C 97.636 39.637,98.563 40.375,98.222 40.489 C 97.877 40.604,98.186 41.793,98.918 43.163 C 99.642 44.520,100.393 45.395,100.586 45.106 C 100.779 44.817,101.500 44.262,102.188 43.872 C 103.187 43.305,103.233 43.159,102.417 43.144 C 101.279 43.123,100.393 40.806,101.395 40.473 C 101.745 40.356,102.162 38.444,102.321 36.224 C 102.586 32.516,104.418 29.210,105.569 30.361 C 106.015 30.807,108.750 27.984,108.750 27.079 C 108.750 26.623,109.031 26.250,109.375 26.250 C 109.719 26.250,110.000 26.672,110.000 27.188 C 110.000 28.893,111.087 28.160,111.481 26.188 C 111.831 24.438,115.232 19.369,116.402 18.854 C 116.662 18.740,116.875 18.195,116.875 17.644 C 116.875 17.094,117.468 16.012,118.193 15.240 C 119.427 13.926,119.450 13.717,118.553 11.919 C 117.563 9.935,118.533 6.250,120.046 6.250 C 120.364 6.250,120.625 5.929,120.625 5.538 C 120.625 5.146,121.018 4.513,121.499 4.131 C 121.980 3.750,122.562 2.805,122.792 2.031 L 123.209 0.625 61.917 0.625 L 0.625 0.625 0.625 112.500 M127.969 1.039 C 128.403 1.214,128.750 2.417,128.750 3.744 C 128.750 5.847,128.904 6.093,130.035 5.797 C 130.838 5.587,131.190 5.121,130.973 4.554 C 130.782 4.056,130.625 2.968,130.625 2.136 C 130.625 0.892,130.321 0.634,128.906 0.674 C 127.961 0.701,127.539 0.866,127.969 1.039 M133.125 0.840 C 133.125 0.959,133.782 1.820,134.585 2.755 C 136.032 4.439,136.045 4.441,135.991 3.008 C 135.919 1.070,138.024 0.793,139.856 2.500 C 140.623 3.214,141.250 3.506,141.250 3.149 C 141.250 2.792,141.804 2.500,142.480 2.500 C 143.317 2.500,143.596 2.200,143.351 1.563 C 143.033 0.733,133.125 0.033,133.125 0.840 M221.165 18.583 C 220.211 18.799,219.375 21.217,219.375 23.760 C 219.375 24.740,220.475 25.327,223.510 25.968 C 223.894 26.049,224.556 25.899,224.983 25.635 C 226.806 24.509,223.333 18.094,221.165 18.583 M150.487 25.390 C 150.749 26.759,150.895 26.862,151.372 26.011 C 151.954 24.969,151.578 23.750,150.675 23.750 C 150.399 23.750,150.314 24.488,150.487 25.390 M166.563 28.759 C 166.563 29.269,165.930 29.777,165.156 29.887 C 163.788 30.082,163.204 28.879,164.188 27.895 C 164.916 27.167,166.563 27.766,166.563 28.759 M172.188 29.375 C 172.188 30.817,168.516 30.631,168.236 29.175 C 168.053 28.229,168.368 28.071,170.102 28.238 C 171.450 28.367,172.188 28.769,172.188 29.375 M214.021 28.686 C 214.718 28.959,214.956 29.329,214.582 29.560 C 214.226 29.780,213.401 29.556,212.748 29.062 C 211.472 28.097,212.067 27.921,214.021 28.686 M161.092 29.549 C 160.722 30.675,156.875 30.930,156.875 29.828 C 156.875 29.256,157.650 28.923,159.109 28.869 C 160.617 28.812,161.261 29.033,161.092 29.549 M205.625 31.250 C 205.625 31.594,205.203 31.875,204.688 31.875 C 204.172 31.875,203.750 31.594,203.750 31.250 C 203.750 30.906,204.172 30.625,204.688 30.625 C 205.203 30.625,205.625 30.906,205.625 31.250 M93.623 32.614 C 93.772 33.388,93.496 33.566,92.536 33.316 C 91.829 33.131,91.250 32.570,91.250 32.069 C 91.250 30.819,93.371 31.307,93.623 32.614 M200.349 32.207 C 198.770 33.402,197.753 33.389,198.750 32.188 C 199.178 31.672,199.986 31.259,200.545 31.270 C 201.400 31.287,201.369 31.436,200.349 32.207 M79.375 39.022 C 79.375 41.902,78.371 44.375,77.203 44.375 C 76.455 44.375,76.250 43.569,76.250 40.625 C 76.250 37.042,76.319 36.875,77.813 36.875 C 79.176 36.875,79.375 37.149,79.375 39.022 M78.125 45.938 C 78.125 46.453,77.703 46.875,77.188 46.875 C 76.212 46.875,75.948 46.136,76.667 45.417 C 77.386 44.698,78.125 44.962,78.125 45.938 M64.881 47.969 C 64.627 49.286,63.518 49.203,63.235 47.846 C 63.118 47.279,63.462 46.875,64.063 46.875 C 64.706 46.875,65.013 47.285,64.881 47.969 M91.875 49.989 C 91.073 50.498,91.144 50.791,92.361 52.011 L 93.785 53.438 94.153 52.031 C 94.355 51.258,94.786 50.625,95.110 50.625 C 95.434 50.625,95.525 50.344,95.313 50.000 C 94.827 49.214,93.104 49.209,91.875 49.989 M79.688 51.875 C 79.900 52.219,79.652 52.500,79.136 52.500 C 78.621 52.500,78.025 52.219,77.813 51.875 C 77.600 51.531,77.848 51.250,78.364 51.250 C 78.879 51.250,79.475 51.531,79.688 51.875 M298.125 76.563 C 298.125 77.078,297.572 77.500,296.895 77.500 C 296.058 77.500,295.779 77.200,296.024 76.563 C 296.222 76.047,296.776 75.625,297.254 75.625 C 297.733 75.625,298.125 76.047,298.125 76.563 M318.627 77.897 C 318.880 79.660,317.190 81.250,315.064 81.250 C 314.076 81.250,312.767 81.863,311.991 82.689 L 310.638 84.129 312.663 84.820 C 314.699 85.516,316.685 85.549,317.823 84.907 C 319.077 84.200,324.381 84.738,325.310 85.667 C 326.689 87.046,322.816 92.444,319.063 94.375 C 315.099 96.414,314.281 100.625,317.849 100.625 C 321.189 100.625,322.821 104.225,320.848 107.236 C 319.875 108.721,319.891 108.868,321.161 110.051 C 321.897 110.737,322.500 111.015,322.500 110.669 C 322.500 110.323,322.922 110.201,323.438 110.399 C 324.040 110.630,324.375 110.386,324.375 109.717 C 324.375 109.145,324.658 108.851,325.004 109.065 C 325.351 109.279,325.793 109.040,325.987 108.534 C 326.403 107.450,327.952 106.815,334.688 104.970 C 339.335 103.697,344.444 102.032,347.031 100.949 C 347.865 100.600,348.125 100.794,348.125 101.763 C 348.125 103.221,345.375 105.625,343.708 105.625 C 343.090 105.625,342.406 106.188,342.188 106.875 C 341.969 107.563,341.512 108.125,341.171 108.125 C 340.830 108.125,340.740 108.431,340.971 108.804 C 341.202 109.178,341.944 109.339,342.620 109.163 C 343.536 108.923,343.755 109.086,343.480 109.803 C 343.189 110.561,343.435 110.683,344.647 110.378 C 345.742 110.104,346.362 110.308,346.803 111.090 C 347.299 111.969,347.579 112.032,348.211 111.406 C 348.645 110.977,348.783 110.625,348.518 110.625 C 348.253 110.625,348.476 110.185,349.013 109.648 C 349.551 109.110,350.316 108.872,350.715 109.118 C 351.225 109.433,351.117 109.802,350.350 110.362 C 348.669 111.591,349.639 113.750,351.872 113.750 C 352.856 113.750,354.100 114.190,354.638 114.727 C 355.175 115.264,356.906 115.825,358.485 115.973 C 361.555 116.261,362.500 116.620,362.500 117.501 C 362.500 117.995,361.477 117.970,359.688 117.430 C 359.344 117.326,357.601 117.739,355.814 118.348 C 353.439 119.156,352.244 119.282,351.371 118.815 C 350.681 118.446,346.566 118.239,341.623 118.326 C 336.919 118.409,332.746 118.277,332.351 118.033 C 331.955 117.788,330.844 118.149,329.883 118.834 C 328.011 120.166,326.905 119.953,326.826 118.244 C 326.795 117.594,326.655 117.488,326.461 117.969 C 326.288 118.398,325.159 118.750,323.952 118.750 C 322.310 118.750,321.679 119.054,321.442 119.957 C 321.027 121.545,319.872 121.930,317.536 121.260 C 315.996 120.819,315.625 120.899,315.625 121.673 C 315.625 122.250,315.267 122.497,314.730 122.290 C 314.075 122.039,313.849 122.432,313.887 123.764 C 313.948 125.905,312.805 127.500,311.210 127.500 C 310.585 127.500,309.900 127.781,309.688 128.125 C 309.163 128.974,306.043 128.918,305.169 128.044 C 304.643 127.518,303.853 127.839,302.089 129.294 C 300.783 130.370,299.428 131.261,299.076 131.274 C 298.725 131.287,297.868 132.201,297.171 133.305 C 296.391 134.541,295.383 135.320,294.548 135.331 C 293.802 135.342,293.003 135.539,292.772 135.770 C 292.541 136.000,291.576 136.034,290.627 135.844 C 289.639 135.647,288.712 135.806,288.458 136.217 C 288.125 136.755,287.789 136.749,287.117 136.191 C 285.738 135.047,285.391 135.909,285.345 140.593 C 285.295 145.679,284.883 146.320,282.876 144.435 C 282.003 143.614,281.221 143.291,280.995 143.657 C 280.782 144.002,279.557 144.626,278.273 145.045 C 276.988 145.464,275.738 146.115,275.495 146.492 C 274.255 148.410,273.826 145.741,275.002 143.433 C 275.689 142.087,276.250 140.526,276.250 139.964 C 276.250 139.402,276.637 138.125,277.110 137.127 C 277.582 136.129,278.354 134.398,278.825 133.281 C 279.295 132.164,279.893 131.250,280.153 131.250 C 280.412 131.250,280.625 130.941,280.625 130.563 C 280.625 130.186,281.469 129.088,282.500 128.125 C 284.001 126.723,284.375 125.856,284.375 123.779 C 284.375 121.459,284.573 121.116,286.250 120.531 C 288.573 119.721,288.662 118.897,286.454 118.635 C 284.074 118.353,283.983 117.170,286.175 114.979 C 287.221 113.933,288.121 112.877,288.175 112.632 C 288.439 111.434,290.009 109.974,293.278 107.885 C 298.455 104.577,300.479 100.313,300.793 92.049 C 300.872 89.958,301.098 88.346,301.294 88.466 C 301.491 88.587,303.707 86.702,306.220 84.277 C 313.637 77.120,318.181 74.783,318.627 77.897 M13.632 85.788 C 13.777 86.538,13.440 86.875,12.546 86.875 C 11.651 86.875,11.250 86.474,11.250 85.579 C 11.250 83.978,13.319 84.159,13.632 85.788 M30.000 89.621 C 30.000 90.099,29.578 90.653,29.063 90.851 C 28.180 91.190,27.697 93.125,28.495 93.125 C 28.699 93.125,29.580 92.563,30.454 91.875 C 32.713 90.099,34.664 90.183,34.065 92.031 C 33.814 92.805,33.628 94.141,33.653 95.000 C 33.702 96.764,31.844 102.500,31.223 102.500 C 31.000 102.500,30.845 103.742,30.878 105.260 C 30.924 107.390,30.617 108.297,29.531 109.239 C 28.758 109.910,28.125 110.601,28.125 110.775 C 28.125 112.247,25.409 116.911,24.967 116.197 C 24.679 115.730,24.242 115.550,23.996 115.796 C 23.750 116.041,24.016 116.758,24.587 117.389 C 25.997 118.947,25.892 121.367,24.330 123.353 C 22.298 125.936,21.900 125.419,21.869 120.156 C 21.865 119.383,21.703 118.750,21.511 118.750 C 20.923 118.750,19.249 120.622,19.799 120.665 C 20.081 120.686,19.680 120.959,18.906 121.269 C 18.074 121.604,17.500 122.370,17.500 123.147 C 17.500 124.175,17.229 124.373,16.250 124.063 C 15.533 123.835,15.000 123.950,15.000 124.333 C 15.000 124.700,14.438 125.000,13.750 125.000 C 12.001 125.000,12.073 120.630,13.884 116.875 C 15.014 114.533,15.247 112.914,15.277 107.188 L 15.313 100.313 17.087 100.109 C 18.080 99.996,19.337 100.337,19.943 100.886 C 21.137 101.966,23.750 98.471,23.750 95.793 C 23.750 95.120,24.313 94.060,25.000 93.438 C 25.688 92.815,26.250 92.069,26.250 91.778 C 26.250 90.961,28.345 88.860,29.219 88.802 C 29.648 88.773,30.000 89.142,30.000 89.621 M315.190 90.770 C 314.297 92.731,315.065 94.240,316.238 92.827 C 316.801 92.149,316.873 91.442,316.471 90.541 C 315.898 89.257,315.878 89.260,315.190 90.770 M370.000 104.063 C 370.000 104.583,369.444 105.000,368.750 105.000 C 368.056 105.000,367.500 104.583,367.500 104.063 C 367.500 103.542,368.056 103.125,368.750 103.125 C 369.444 103.125,370.000 103.542,370.000 104.063 M300.765 115.110 C 299.420 116.455,301.168 117.768,302.590 116.481 C 303.228 115.904,303.750 115.194,303.750 114.903 C 303.750 114.116,301.610 114.265,300.765 115.110 M296.411 120.278 C 295.511 120.688,295.126 121.287,295.335 121.947 C 295.713 123.136,294.272 123.887,292.656 123.342 C 292.018 123.127,292.409 123.800,293.597 124.959 C 295.127 126.452,295.542 127.302,295.269 128.387 C 295.022 129.371,295.223 129.952,295.899 130.211 C 296.677 130.510,296.814 130.286,296.535 129.175 C 296.311 128.284,296.625 127.188,297.379 126.223 C 298.038 125.378,298.776 124.055,299.019 123.281 C 299.261 122.508,299.713 121.875,300.023 121.875 C 300.984 121.875,299.973 120.137,298.863 119.881 C 298.285 119.748,297.182 119.926,296.411 120.278 M340.019 123.715 C 339.272 125.111,338.125 125.445,338.125 124.268 C 338.125 123.230,340.237 121.022,340.493 121.792 C 340.610 122.143,340.397 123.009,340.019 123.715 M44.499 125.795 C 45.247 126.070,45.461 125.925,45.223 125.306 C 44.984 124.681,45.266 124.498,46.195 124.677 C 48.068 125.038,49.001 125.705,48.285 126.172 C 47.192 126.885,44.375 131.831,44.375 133.036 C 44.375 133.688,43.985 134.546,43.507 134.942 C 42.230 136.002,39.191 134.520,39.582 133.027 C 39.741 132.417,39.690 131.941,39.467 131.970 C 38.140 132.143,37.622 131.621,36.974 129.459 C 36.089 126.504,36.074 126.067,36.875 126.563 C 37.219 126.775,37.500 126.677,37.500 126.345 C 37.500 126.014,37.992 125.860,38.594 126.004 C 39.195 126.148,40.391 125.893,41.250 125.438 C 42.109 124.983,42.953 124.789,43.125 125.007 C 43.297 125.225,43.915 125.580,44.499 125.795 M334.428 133.896 C 334.029 135.840,333.868 135.941,331.062 136.008 C 328.591 136.068,328.232 135.936,328.845 135.197 C 329.362 134.575,329.704 134.521,330.010 135.017 C 330.492 135.797,332.039 134.529,333.160 132.434 C 334.123 130.636,334.910 131.544,334.428 133.896 M107.813 137.774 C 109.924 137.898,113.750 139.727,113.750 140.613 C 113.750 140.932,114.805 141.384,116.094 141.616 C 118.893 142.122,120.625 142.946,120.625 143.772 C 120.625 144.545,118.314 144.562,117.839 143.792 C 117.641 143.472,115.395 143.338,112.847 143.494 C 110.046 143.666,108.060 143.525,107.820 143.137 C 107.553 142.706,107.042 142.701,106.253 143.123 C 103.005 144.862,102.044 142.759,104.781 139.902 L 106.438 138.173 104.156 138.543 C 102.853 138.755,101.875 138.655,101.875 138.311 C 101.875 137.192,102.767 136.806,104.356 137.236 C 105.226 137.472,106.781 137.714,107.813 137.774 M62.778 138.694 C 63.277 139.501,62.481 141.312,61.810 140.897 C 61.065 140.437,61.089 138.125,61.838 138.125 C 62.162 138.125,62.584 138.381,62.778 138.694 M123.750 144.063 C 123.750 144.578,123.328 145.000,122.813 145.000 C 122.297 145.000,121.875 144.578,121.875 144.063 C 121.875 143.547,122.297 143.125,122.813 143.125 C 123.328 143.125,123.750 143.547,123.750 144.063 M88.750 154.347 C 88.750 153.734,88.939 153.689,89.433 154.183 C 90.347 155.097,89.204 157.236,87.574 157.662 C 86.210 158.018,85.517 156.486,86.075 154.350 C 86.391 153.145,86.473 153.133,87.579 154.134 C 88.460 154.931,88.750 154.984,88.750 154.347 M104.375 156.183 C 104.375 158.032,103.474 158.750,101.155 158.750 C 99.778 158.750,94.615 162.088,93.079 163.971 C 90.931 166.605,90.612 164.653,92.642 161.296 C 94.833 157.673,96.969 155.767,99.203 155.443 C 99.967 155.331,100.788 155.046,101.026 154.808 C 102.285 153.549,104.375 154.407,104.375 156.183 M132.877 159.844 C 133.163 161.477,133.406 163.234,133.417 163.750 C 133.428 164.266,133.679 164.864,133.974 165.079 C 134.973 165.807,135.150 170.868,134.220 172.108 C 131.771 175.372,129.881 170.827,131.981 166.724 C 132.350 166.004,132.215 165.011,131.581 163.787 C 130.351 161.407,130.292 156.875,131.492 156.875 C 132.036 156.875,132.551 157.979,132.877 159.844 M115.869 185.888 C 116.450 188.201,115.703 189.471,113.889 189.253 C 111.379 188.950,110.618 187.059,112.413 185.586 C 114.382 183.970,115.410 184.060,115.869 185.888 M167.500 187.151 C 167.500 187.646,167.781 188.225,168.125 188.438 C 168.469 188.650,168.750 188.245,168.750 187.537 C 168.750 186.829,168.469 186.250,168.125 186.250 C 167.781 186.250,167.500 186.655,167.500 187.151 M130.755 189.026 C 132.593 189.795,135.019 191.778,134.295 191.921 C 134.167 191.947,130.266 192.025,125.625 192.096 C 120.032 192.182,116.624 192.509,115.515 193.067 C 113.584 194.039,110.625 193.529,110.625 192.224 C 110.625 191.106,112.276 190.603,122.813 188.517 C 125.573 187.971,128.710 188.172,130.755 189.026 M173.438 193.750 C 173.225 194.094,173.473 194.375,173.989 194.375 C 174.504 194.375,175.100 194.094,175.313 193.750 C 175.525 193.406,175.277 193.125,174.761 193.125 C 174.246 193.125,173.650 193.406,173.438 193.750 M178.125 193.986 C 178.125 194.460,178.477 195.139,178.906 195.495 C 179.495 195.984,179.688 195.771,179.688 194.634 C 179.688 193.804,179.336 193.125,178.906 193.125 C 178.477 193.125,178.125 193.512,178.125 193.986 M123.124 212.053 C 123.125 212.323,122.653 213.265,122.075 214.146 C 121.235 215.428,121.173 215.983,121.763 216.928 C 122.814 218.611,122.675 219.809,121.388 220.145 C 120.038 220.498,118.750 219.245,118.750 217.578 C 118.750 216.905,118.487 216.260,118.165 216.146 C 116.448 215.535,119.008 211.425,121.062 211.493 C 122.196 211.531,123.124 211.783,123.124 212.053 M161.076 223.099 C 160.830 224.038,161.042 224.375,161.878 224.375 C 162.591 224.375,162.956 223.980,162.859 223.315 C 162.631 221.762,161.462 221.620,161.076 223.099 " stroke="none" fill="#000000" fill-rule="evenodd"></path></g></svg>