<svg id="svg" xmlns="http://www.w3.org/2000/svg" xmlns:xlink="http://www.w3.org/1999/xlink" width="400" height="225" viewBox="0, 0, 400,225"><g id="svgg"><path id="path0" d="M0.625 112.500 L 0.625 224.375 74.923 224.375 C 140.204 224.375,149.316 224.261,150.000 223.438 C 150.986 222.249,152.544 222.242,154.099 223.418 C 156.559 225.278,161.066 224.667,160.937 222.490 C 160.825 220.616,158.518 217.503,157.235 217.497 C 153.209 217.476,149.388 213.181,151.321 210.851 C 151.712 210.381,151.669 209.109,151.200 207.248 C 150.308 203.706,151.109 202.295,153.665 202.905 C 156.614 203.608,157.083 204.386,155.543 206.025 C 153.316 208.396,154.771 211.057,157.453 209.518 C 158.801 208.744,159.241 208.095,159.030 207.191 C 158.689 205.730,159.200 204.847,160.938 203.897 C 162.821 202.867,159.870 201.928,153.925 201.666 C 147.260 201.373,143.796 197.448,149.806 197.000 C 152.419 196.805,154.317 194.618,153.345 192.922 C 153.114 192.518,153.140 192.382,153.404 192.619 C 153.667 192.856,154.469 192.504,155.184 191.837 C 156.896 190.242,157.397 190.308,157.868 192.187 C 158.266 193.770,160.178 194.354,160.938 193.125 C 161.563 192.113,163.129 192.387,162.726 193.437 C 162.528 193.953,162.678 194.375,163.058 194.375 C 163.439 194.375,163.750 193.813,163.750 193.125 C 163.750 192.438,163.486 191.875,163.164 191.875 C 162.841 191.875,162.619 191.332,162.669 190.668 C 162.719 190.005,162.963 189.587,163.212 189.741 C 163.460 189.895,163.830 189.752,164.032 189.424 C 164.235 189.095,164.982 188.939,165.692 189.075 C 167.396 189.403,170.423 186.312,169.235 185.457 C 168.677 185.055,168.782 184.994,169.582 185.254 C 170.212 185.458,170.985 185.625,171.301 185.625 C 171.617 185.625,171.886 186.539,171.900 187.656 L 171.925 189.688 172.819 188.043 C 173.745 186.337,181.314 185.016,182.752 186.309 C 183.062 186.588,183.839 186.537,184.478 186.195 C 185.117 185.853,185.988 185.644,186.413 185.730 C 186.839 185.817,187.766 185.566,188.473 185.174 C 189.180 184.781,190.586 184.371,191.598 184.261 C 194.475 183.950,193.856 185.610,190.697 186.677 C 189.190 187.187,187.275 188.415,186.441 189.406 C 185.558 190.455,184.029 191.376,182.780 191.610 C 181.601 191.831,180.791 192.262,180.980 192.569 C 181.169 192.875,180.727 193.125,179.997 193.125 C 178.280 193.125,175.280 196.682,175.510 198.442 C 175.608 199.186,175.252 200.157,174.719 200.599 C 173.488 201.620,173.488 203.595,174.718 206.538 C 175.590 208.625,175.806 212.435,175.634 222.656 L 175.605 224.375 287.490 224.375 L 399.375 224.375 399.375 112.500 L 399.375 0.625 306.526 0.625 C 249.910 0.625,213.815 0.850,214.033 1.202 C 214.229 1.520,213.529 2.392,212.477 3.142 C 208.570 5.924,211.748 6.811,218.709 4.880 C 221.866 4.005,222.853 3.930,223.238 4.537 C 223.609 5.120,223.733 5.088,223.740 4.406 C 223.748 3.734,223.932 3.682,224.454 4.204 C 224.920 4.670,225.662 4.717,226.642 4.345 C 227.787 3.909,228.125 3.991,228.125 4.703 C 228.125 5.210,228.423 5.625,228.787 5.625 C 229.151 5.625,229.250 5.273,229.008 4.844 C 228.655 4.219,228.735 4.219,229.408 4.844 C 229.871 5.273,230.739 5.625,231.336 5.625 C 231.970 5.625,232.405 6.080,232.380 6.719 C 232.356 7.320,232.503 8.626,232.706 9.620 C 232.908 10.614,232.776 11.984,232.412 12.664 C 231.955 13.518,231.953 13.775,232.406 13.495 C 233.207 13.001,234.592 15.393,234.031 16.301 C 233.810 16.659,232.937 17.215,232.091 17.537 C 230.964 17.965,229.866 19.632,227.972 23.790 C 225.708 28.760,225.231 29.410,224.101 29.059 C 223.392 28.839,222.391 28.683,221.875 28.711 C 219.530 28.840,216.581 28.664,216.296 28.379 C 215.684 27.768,217.341 25.938,218.506 25.938 C 219.156 25.938,219.985 25.558,220.350 25.094 C 220.865 24.437,221.531 24.394,223.354 24.897 C 225.316 25.439,225.758 25.382,226.079 24.543 C 226.432 23.623,223.292 16.863,222.522 16.885 C 221.796 16.905,220.776 17.881,220.062 19.236 C 219.321 20.643,217.777 20.558,218.321 19.141 C 218.664 18.248,216.736 14.000,216.088 14.219 C 215.833 14.305,214.986 14.375,214.205 14.375 C 213.222 14.375,212.421 15.050,211.606 16.563 C 210.958 17.766,210.104 18.750,209.708 18.750 C 209.312 18.750,208.020 19.892,206.838 21.288 C 205.655 22.684,204.379 24.167,204.003 24.585 C 202.391 26.369,195.960 24.917,195.746 22.720 C 195.539 20.580,193.344 19.328,192.707 20.986 C 192.244 22.193,190.194 22.111,189.493 20.857 C 189.103 20.161,188.785 20.063,188.487 20.545 C 187.851 21.574,185.646 21.407,185.220 20.297 C 184.970 19.645,184.621 19.537,184.117 19.954 C 183.631 20.358,182.580 20.291,181.027 19.756 C 179.041 19.074,178.219 19.096,175.780 19.899 C 173.677 20.591,172.822 20.655,172.648 20.131 C 172.507 19.709,171.786 20.081,170.908 21.029 C 169.664 22.370,169.059 22.577,167.360 22.236 C 166.234 22.010,164.609 21.751,163.750 21.660 C 162.891 21.570,161.766 21.340,161.250 21.149 C 155.486 19.013,154.371 19.075,154.835 21.501 C 155.008 22.407,154.655 23.682,153.970 24.622 C 152.568 26.547,151.875 26.672,151.875 25.000 C 151.875 24.306,151.458 23.750,150.938 23.750 C 150.422 23.750,150.000 24.294,150.000 24.958 C 150.000 26.395,148.789 26.801,145.000 26.635 C 142.785 26.538,141.895 26.816,140.811 27.943 C 140.054 28.731,138.743 29.375,137.898 29.375 C 136.966 29.375,135.755 30.096,134.819 31.207 C 133.087 33.266,129.284 34.347,127.879 33.180 C 127.220 32.633,126.935 32.693,126.649 33.437 C 126.387 34.121,125.814 34.289,124.701 34.010 C 123.735 33.768,123.125 33.879,123.125 34.299 C 123.125 36.421,110.605 37.957,104.885 36.537 C 103.405 36.169,103.249 36.275,103.552 37.435 C 103.747 38.182,103.599 38.750,103.209 38.750 C 102.792 38.750,102.550 37.516,102.593 35.603 C 102.667 32.331,103.857 30.851,105.810 31.600 C 106.370 31.815,106.838 31.459,107.047 30.660 C 107.291 29.726,107.892 29.375,109.244 29.375 C 111.124 29.375,111.845 28.294,111.866 25.442 C 111.871 24.826,112.165 23.983,112.520 23.567 C 112.874 23.152,114.140 21.688,115.332 20.313 C 116.524 18.938,117.499 17.452,117.500 17.012 C 117.500 16.571,117.945 16.040,118.489 15.831 C 119.302 15.519,119.404 14.817,119.062 11.869 C 118.646 8.284,120.323 5.000,122.571 5.000 C 122.930 5.000,123.031 4.440,122.803 3.720 C 122.580 3.016,122.736 2.032,123.150 1.533 C 123.807 0.740,116.078 0.625,62.264 0.625 L 0.625 0.625 0.625 112.500 M127.382 1.071 C 128.410 1.267,128.796 1.738,128.719 2.705 C 128.450 6.098,128.711 6.745,130.312 6.653 C 131.936 6.559,132.511 4.842,131.191 4.026 C 130.815 3.794,130.635 2.933,130.792 2.114 C 131.056 0.731,130.894 0.631,128.507 0.710 C 126.993 0.760,126.531 0.909,127.382 1.071 M133.750 1.218 C 133.750 1.975,135.711 4.375,136.330 4.375 C 136.566 4.375,136.619 3.844,136.450 3.196 C 136.016 1.539,137.159 1.054,139.200 2.029 C 141.223 2.994,144.564 2.758,144.205 1.674 C 143.893 0.728,133.750 0.286,133.750 1.218 M193.304 1.088 C 195.293 1.212,198.387 1.211,200.179 1.085 C 201.971 0.959,200.344 0.857,196.563 0.859 C 192.781 0.860,191.315 0.963,193.304 1.088 M251.579 27.527 C 252.566 29.123,249.066 32.370,247.151 31.635 C 246.333 31.321,246.445 30.911,247.851 29.068 C 249.535 26.859,250.835 26.322,251.579 27.527 M166.250 28.438 C 166.250 28.958,165.694 29.375,165.000 29.375 C 163.755 29.375,163.374 28.709,164.167 27.917 C 164.928 27.155,166.250 27.486,166.250 28.438 M172.109 28.624 C 172.512 29.275,171.583 30.765,170.868 30.617 C 169.486 30.330,168.124 29.258,168.457 28.719 C 168.902 27.999,171.679 27.927,172.109 28.624 M238.439 28.752 C 238.687 29.153,239.221 29.167,239.925 28.790 C 241.190 28.113,243.296 29.278,245.911 32.100 C 247.062 33.341,247.865 33.728,248.617 33.401 C 250.454 32.603,251.250 32.584,251.260 33.337 C 251.265 33.747,251.532 33.655,251.875 33.125 C 252.279 32.500,252.484 32.448,252.490 32.969 C 252.496 33.398,251.938 34.313,251.250 35.000 C 249.811 36.439,247.357 36.724,247.868 35.393 C 248.358 34.116,246.383 33.636,244.811 34.650 C 243.186 35.697,237.715 34.758,230.625 32.214 C 229.078 31.659,227.391 31.055,226.875 30.871 C 224.777 30.121,228.317 28.718,232.025 28.829 C 234.016 28.889,235.828 28.755,236.052 28.531 C 236.664 27.920,238.001 28.043,238.439 28.752 M160.625 29.338 C 160.625 30.321,159.389 30.764,157.777 30.359 C 155.505 29.789,155.931 28.750,158.438 28.750 C 159.641 28.750,160.625 29.015,160.625 29.338 M152.130 30.193 C 153.152 30.941,153.014 31.135,150.520 32.458 C 149.020 33.254,147.094 34.849,146.240 36.002 C 145.386 37.155,144.125 38.283,143.438 38.509 C 142.750 38.734,141.992 39.224,141.753 39.597 C 141.514 39.971,141.100 40.058,140.833 39.792 C 140.567 39.525,140.628 39.111,140.968 38.872 C 141.309 38.633,141.921 37.678,142.329 36.749 C 142.966 35.299,149.658 29.377,150.662 29.375 C 150.854 29.375,151.514 29.743,152.130 30.193 M205.938 30.625 C 205.725 30.969,204.989 31.250,204.301 31.250 C 203.614 31.250,203.225 30.969,203.438 30.625 C 203.650 30.281,204.386 30.000,205.074 30.000 C 205.761 30.000,206.150 30.281,205.938 30.625 M200.313 31.875 C 200.100 32.219,199.240 32.500,198.401 32.500 C 197.562 32.500,196.875 32.219,196.875 31.875 C 196.875 31.531,197.735 31.250,198.787 31.250 C 199.902 31.250,200.538 31.510,200.313 31.875 M69.662 35.197 C 70.144 35.680,70.464 37.350,70.436 39.235 C 70.405 41.288,70.735 42.855,71.349 43.569 C 72.332 44.713,73.296 46.875,72.822 46.875 C 71.905 46.875,69.375 45.306,69.375 44.738 C 69.375 44.360,68.813 43.699,68.125 43.270 C 67.221 42.706,66.875 41.813,66.875 40.047 C 66.875 38.703,66.523 37.440,66.094 37.240 C 65.479 36.953,65.486 36.795,66.129 36.499 C 66.577 36.292,67.281 35.740,67.691 35.273 C 68.629 34.204,68.667 34.203,69.662 35.197 M93.028 35.905 C 93.167 36.618,92.941 36.918,92.403 36.739 C 91.941 36.585,91.465 35.958,91.347 35.345 C 91.208 34.632,91.434 34.332,91.972 34.511 C 92.434 34.665,92.910 35.292,93.028 35.905 M130.442 37.261 C 131.425 38.243,133.041 39.025,134.492 39.220 C 137.673 39.647,138.085 40.476,135.330 40.906 C 134.117 41.095,132.100 41.411,130.846 41.608 C 129.332 41.846,128.401 41.697,128.072 41.164 C 127.685 40.538,127.307 40.606,126.343 41.478 C 124.693 42.972,121.622 42.636,121.395 40.938 C 120.778 36.322,126.983 33.801,130.442 37.261 M79.063 40.009 C 79.063 41.144,78.684 41.616,77.656 41.762 C 76.250 41.962,75.560 39.649,76.688 38.520 C 77.615 37.593,79.063 38.500,79.063 40.009 M96.091 40.265 C 98.429 42.953,99.494 44.927,99.020 45.694 C 98.713 46.191,98.823 46.279,99.345 45.956 C 99.929 45.595,100.034 45.855,99.748 46.953 C 99.492 47.938,99.726 47.738,100.442 46.359 C 101.286 44.734,101.832 44.341,102.948 44.554 C 104.606 44.871,104.858 43.697,103.438 42.277 C 102.378 41.218,102.176 40.351,103.125 40.938 C 103.469 41.150,103.750 41.058,103.750 40.733 C 103.750 39.301,107.689 39.617,110.955 41.312 C 112.926 42.334,115.022 42.966,116.057 42.848 C 117.022 42.738,118.210 42.966,118.695 43.355 C 119.360 43.888,119.643 43.869,119.841 43.281 C 120.102 42.508,121.875 42.153,121.875 42.874 C 121.875 43.321,118.425 46.594,116.623 47.856 C 115.921 48.348,114.495 48.754,113.455 48.759 C 111.241 48.770,107.153 50.097,106.105 51.145 C 105.703 51.547,105.179 51.875,104.939 51.875 C 104.699 51.875,102.716 52.945,100.533 54.252 C 98.349 55.559,95.757 56.683,94.771 56.751 C 93.693 56.824,92.102 57.726,90.773 59.017 C 89.559 60.196,87.915 61.324,87.119 61.524 C 86.324 61.723,83.342 62.997,80.493 64.355 C 77.644 65.713,72.922 67.675,70.000 68.716 C 67.078 69.757,64.330 71.105,63.894 71.711 C 63.457 72.317,61.810 74.134,60.233 75.750 C 58.657 77.366,56.584 80.168,55.627 81.977 C 53.507 85.986,52.500 86.498,52.500 83.566 C 52.500 82.376,52.103 81.074,51.618 80.671 C 50.852 80.036,50.739 78.677,51.161 75.206 C 51.210 74.804,52.052 74.298,53.033 74.083 C 54.506 73.759,54.766 73.431,54.529 72.192 C 54.355 71.282,54.765 69.958,55.572 68.824 C 56.304 67.797,56.863 66.727,56.815 66.447 C 56.587 65.121,56.947 64.295,57.651 64.529 C 58.683 64.873,59.559 63.900,60.600 61.250 C 61.073 60.047,61.731 58.707,62.063 58.274 C 62.394 57.840,62.765 56.634,62.886 55.594 C 63.176 53.101,64.277 51.114,65.199 51.418 C 66.267 51.771,66.911 57.652,65.967 58.438 C 65.555 58.781,65.059 59.625,64.867 60.313 C 64.674 61.000,64.324 62.029,64.089 62.598 C 63.727 63.474,64.023 63.600,66.004 63.416 C 68.506 63.184,69.234 62.406,70.368 58.755 C 71.090 56.431,73.296 55.147,72.709 57.393 C 72.534 58.062,72.740 58.825,73.167 59.089 C 73.667 59.398,73.785 59.312,73.497 58.847 C 72.895 57.872,74.532 57.919,75.578 58.906 C 76.257 59.547,76.352 59.380,76.105 57.983 C 75.716 55.780,77.527 55.090,79.795 56.575 C 80.680 57.155,81.213 57.320,80.979 56.942 C 80.300 55.843,83.505 54.643,84.629 55.576 C 85.621 56.399,88.125 55.523,88.125 54.353 C 88.125 54.021,88.547 53.750,89.063 53.750 C 89.578 53.750,90.000 53.328,90.000 52.813 C 90.000 52.297,89.719 51.875,89.375 51.875 C 88.426 51.875,88.628 50.254,89.688 49.375 C 90.231 48.924,90.625 47.560,90.625 46.129 C 90.625 44.771,90.977 43.269,91.406 42.790 C 93.261 40.721,93.750 40.014,93.750 39.401 C 93.750 38.315,94.702 38.666,96.091 40.265 M92.335 49.124 C 92.129 49.329,92.115 49.899,92.304 50.390 C 92.667 51.337,94.375 50.437,94.375 49.298 C 94.375 48.679,92.905 48.553,92.335 49.124 M316.868 77.180 C 318.135 78.706,317.223 79.663,313.353 80.866 C 304.879 83.501,303.234 86.497,310.541 85.990 C 312.822 85.832,315.776 85.381,317.106 84.988 C 319.787 84.198,320.517 84.575,320.953 86.976 C 321.275 88.752,317.801 92.720,317.002 91.490 C 316.457 90.652,314.319 90.593,313.309 91.389 C 312.894 91.715,312.234 91.784,311.842 91.542 C 311.385 91.259,311.210 91.519,311.355 92.269 C 311.478 92.910,311.997 93.463,312.508 93.497 C 314.920 93.659,314.981 93.719,314.360 95.353 C 313.220 98.350,314.563 101.046,316.836 100.325 C 318.375 99.837,319.915 101.821,320.097 104.526 C 320.281 107.249,320.144 107.435,317.761 107.705 C 315.202 107.994,313.750 108.736,313.750 109.754 C 313.750 110.901,314.336 110.854,315.728 109.595 C 316.961 108.478,321.869 108.093,324.170 108.933 C 325.156 109.293,325.839 109.097,326.670 108.217 C 328.018 106.788,331.242 105.373,334.574 104.749 C 335.886 104.504,338.620 103.582,340.649 102.702 C 342.679 101.822,344.764 101.266,345.284 101.465 C 346.681 102.001,345.755 103.702,343.837 104.123 C 341.581 104.619,334.595 107.889,334.108 108.677 C 333.884 109.040,334.736 109.593,336.075 109.955 C 337.374 110.306,339.141 111.261,340.000 112.078 C 341.273 113.287,341.823 113.445,342.967 112.931 C 343.944 112.493,345.133 112.529,346.873 113.051 C 350.173 114.039,350.251 115.625,347.000 115.625 C 345.694 115.625,344.299 115.951,343.901 116.349 C 343.397 116.853,342.933 116.876,342.370 116.425 C 341.926 116.069,339.766 115.824,337.571 115.880 C 335.376 115.936,332.903 115.631,332.074 115.201 C 330.823 114.552,330.509 114.574,330.217 115.335 C 329.774 116.489,328.496 116.513,327.559 115.383 C 326.437 114.032,321.939 115.374,321.216 117.276 C 320.730 118.555,320.240 118.750,317.515 118.750 C 314.833 118.750,314.375 118.925,314.375 119.952 C 314.375 121.384,311.480 125.000,310.333 125.000 C 309.890 125.000,309.178 125.422,308.750 125.938 C 307.618 127.301,307.205 127.122,305.902 124.703 C 304.642 122.363,303.125 121.341,303.125 122.832 C 303.125 123.337,302.874 123.750,302.568 123.750 C 302.261 123.750,301.834 124.453,301.618 125.313 C 301.212 126.932,300.056 127.465,299.926 126.094 C 299.783 124.581,300.107 123.554,301.014 122.646 C 302.281 121.380,301.783 120.350,299.792 120.114 C 298.712 119.987,297.985 120.264,297.742 120.896 C 297.535 121.434,296.928 121.875,296.391 121.875 C 295.855 121.875,295.605 122.063,295.836 122.294 C 296.066 122.524,295.805 123.398,295.257 124.236 C 294.535 125.337,294.448 125.948,294.942 126.442 C 295.980 127.480,295.810 131.250,294.724 131.250 C 294.229 131.250,293.658 130.981,293.454 130.652 C 293.251 130.324,292.659 130.218,292.137 130.418 C 291.602 130.624,290.804 130.272,290.302 129.610 C 289.360 128.366,289.179 128.692,289.347 131.323 C 289.467 133.191,287.253 134.217,285.766 132.983 C 285.108 132.437,284.771 132.480,284.337 133.165 C 283.658 134.239,283.577 134.681,283.232 139.219 C 283.106 140.878,282.349 141.010,280.955 139.615 C 279.831 138.492,277.500 139.871,277.500 141.659 C 277.500 142.122,277.236 142.500,276.912 142.500 C 275.976 142.500,276.489 139.912,277.991 137.056 C 278.752 135.609,279.375 133.886,279.375 133.226 C 279.375 132.567,279.797 131.678,280.313 131.250 C 280.828 130.822,281.250 130.085,281.250 129.611 C 281.250 129.137,281.656 128.750,282.152 128.750 C 283.567 128.750,285.000 126.195,285.000 123.672 C 285.000 121.679,285.250 121.285,286.875 120.719 C 288.992 119.981,289.145 119.507,287.824 117.776 C 287.023 116.726,286.814 116.689,286.271 117.500 C 285.926 118.016,285.640 118.120,285.635 117.733 C 285.629 117.345,286.047 116.678,286.563 116.250 C 287.078 115.822,287.500 115.054,287.500 114.544 C 287.500 113.976,287.864 113.756,288.438 113.976 C 289.075 114.221,289.375 113.942,289.375 113.105 C 289.375 112.429,289.637 111.875,289.958 111.875 C 290.278 111.875,290.718 111.318,290.934 110.637 C 291.150 109.957,292.505 108.870,293.944 108.222 C 298.678 106.094,301.664 99.712,301.964 91.085 C 302.035 89.053,302.519 86.831,303.076 85.986 C 305.785 81.872,307.905 79.398,308.750 79.363 C 309.266 79.341,310.953 78.670,312.500 77.872 C 316.026 76.052,315.943 76.065,316.868 77.180 M13.438 85.981 C 13.438 86.635,12.945 87.265,12.344 87.381 C 11.244 87.593,10.760 85.698,11.680 84.779 C 12.418 84.040,13.438 84.738,13.438 85.981 M48.890 86.350 C 50.390 87.418,51.018 87.555,51.897 87.006 C 52.874 86.396,52.978 86.516,52.755 88.000 C 51.708 94.971,51.785 97.998,53.070 100.517 C 53.788 101.924,54.375 103.354,54.375 103.694 C 54.375 104.034,55.219 105.563,56.250 107.091 C 58.440 110.335,58.476 110.543,57.033 111.598 C 55.774 112.518,54.387 111.732,54.355 110.080 C 54.312 107.893,52.751 106.771,50.371 107.218 C 48.832 107.506,48.125 107.409,48.125 106.908 C 48.125 106.505,47.865 106.337,47.548 106.533 C 46.574 107.135,44.108 103.184,43.798 100.527 C 43.772 100.302,42.357 98.672,40.655 96.906 C 37.004 93.118,37.075 92.585,41.624 89.675 C 43.462 88.499,45.323 86.966,45.758 86.269 C 46.729 84.714,46.587 84.710,48.890 86.350 M34.375 91.486 C 34.375 91.960,33.946 92.703,33.422 93.138 C 32.569 93.846,32.573 94.045,33.463 95.028 C 34.636 96.324,33.825 100.516,32.129 101.923 C 31.462 102.477,31.257 103.319,31.498 104.522 C 31.916 106.613,30.777 108.750,29.244 108.750 C 28.518 108.750,28.288 109.073,28.542 109.734 C 29.513 112.266,27.437 115.625,24.900 115.625 C 23.112 115.625,22.500 115.881,22.500 116.629 C 22.500 117.182,22.147 117.498,21.715 117.333 C 20.887 117.015,19.706 118.008,19.660 119.063 C 19.538 121.844,16.369 124.409,14.120 123.546 C 13.150 123.174,13.671 119.413,14.898 117.936 C 16.596 115.889,17.639 110.885,17.363 106.110 C 17.085 101.308,18.396 99.048,19.616 102.227 C 20.148 103.613,21.250 102.718,21.250 100.901 C 21.250 100.062,21.501 99.375,21.807 99.375 C 22.316 99.375,23.428 96.452,23.258 95.561 C 23.043 94.433,27.475 91.083,27.859 92.084 C 28.079 92.657,28.526 93.125,28.854 93.125 C 29.181 93.125,29.319 92.914,29.160 92.656 C 29.002 92.398,29.756 92.123,30.838 92.044 C 31.919 91.966,32.899 91.614,33.016 91.263 C 33.332 90.318,34.375 90.489,34.375 91.486 M369.375 103.750 C 369.375 104.094,368.813 104.375,368.125 104.375 C 367.438 104.375,366.875 104.094,366.875 103.750 C 366.875 103.406,367.438 103.125,368.125 103.125 C 368.813 103.125,369.375 103.406,369.375 103.750 M302.031 114.816 C 301.258 114.965,300.625 115.357,300.625 115.688 C 300.625 116.700,302.460 117.061,303.445 116.243 C 304.420 115.435,304.709 114.314,303.906 114.460 C 303.648 114.507,302.805 114.667,302.031 114.816 M301.875 119.063 C 301.875 119.578,302.156 120.000,302.500 120.000 C 302.844 120.000,303.125 119.578,303.125 119.063 C 303.125 118.547,302.844 118.125,302.500 118.125 C 302.156 118.125,301.875 118.547,301.875 119.063 M26.875 119.933 C 26.875 121.024,25.178 122.262,24.547 121.631 C 24.123 121.207,25.594 118.750,26.272 118.750 C 26.604 118.750,26.875 119.282,26.875 119.933 M333.750 132.776 C 333.750 133.271,333.469 133.850,333.125 134.063 C 332.781 134.275,332.500 133.870,332.500 133.162 C 332.500 132.454,332.781 131.875,333.125 131.875 C 333.469 131.875,333.750 132.280,333.750 132.776 M110.656 139.079 C 111.670 139.603,112.500 140.427,112.500 140.910 C 112.500 141.393,113.133 141.878,113.906 141.988 C 114.680 142.098,115.172 142.465,115.000 142.805 C 114.580 143.635,108.945 143.946,108.462 143.165 C 108.214 142.763,107.555 142.786,106.580 143.231 C 103.213 144.765,102.313 143.042,104.965 140.139 C 107.028 137.880,107.991 137.701,110.656 139.079 M104.375 155.805 C 104.375 157.296,102.236 158.750,100.042 158.750 C 98.551 158.750,97.412 159.177,96.708 160.000 C 94.461 162.624,92.649 160.855,94.844 158.181 C 96.896 155.681,104.375 153.816,104.375 155.805 M132.432 160.984 C 133.322 163.446,133.166 163.966,131.708 163.407 C 130.069 162.778,129.596 158.750,131.161 158.750 C 131.416 158.750,131.987 159.755,132.432 160.984 M134.006 168.354 C 134.497 170.976,133.907 172.627,132.578 172.349 C 131.918 172.211,131.616 171.598,131.715 170.599 C 132.174 165.978,133.344 164.830,134.006 168.354 M144.531 169.072 C 146.508 170.624,148.125 172.170,148.125 172.509 C 148.125 172.848,148.437 173.125,148.819 173.125 C 149.694 173.125,155.000 178.465,155.000 179.345 C 155.000 180.182,152.526 180.210,152.422 179.375 C 152.379 179.031,152.309 178.399,152.266 177.970 C 152.223 177.540,151.766 177.189,151.250 177.188 C 150.734 177.188,149.134 175.965,147.694 174.471 C 146.255 172.977,144.780 171.937,144.419 172.160 C 143.597 172.668,140.671 170.601,140.645 169.494 C 140.634 169.044,140.373 168.832,140.065 169.022 C 139.394 169.437,138.598 167.626,139.097 166.819 C 139.753 165.757,140.930 166.245,144.531 169.072 M137.982 170.742 C 137.595 171.901,136.250 172.093,136.250 170.990 C 136.250 170.445,136.695 170.000,137.240 170.000 C 137.784 170.000,138.118 170.334,137.982 170.742 M166.291 183.147 C 168.353 184.251,167.751 185.500,165.156 185.501 C 162.011 185.501,160.525 183.472,163.281 182.941 C 164.055 182.792,164.776 182.632,164.885 182.585 C 164.993 182.538,165.626 182.791,166.291 183.147 M117.759 187.522 C 118.155 187.926,118.178 188.154,117.813 188.070 C 117.469 187.991,116.717 188.133,116.143 188.386 C 114.962 188.906,112.500 187.814,112.500 186.771 C 112.500 185.917,116.785 186.529,117.759 187.522 M134.531 189.648 C 138.227 191.288,135.573 191.914,126.702 191.495 C 119.089 191.135,117.488 191.224,115.796 192.099 C 113.346 193.366,112.500 193.394,112.500 192.209 C 112.500 191.016,114.801 189.802,116.313 190.198 C 116.965 190.368,117.668 190.234,117.875 189.899 C 118.082 189.564,118.645 189.441,119.126 189.625 C 119.607 189.810,120.000 189.719,120.000 189.424 C 120.000 188.768,133.001 188.969,134.531 189.648 M151.250 190.916 C 151.250 191.450,150.793 191.639,150.000 191.431 C 148.592 191.063,148.354 190.246,149.531 189.824 C 150.570 189.451,151.250 189.883,151.250 190.916 M173.750 193.750 C 173.750 194.094,174.172 194.375,174.688 194.375 C 175.203 194.375,175.625 194.094,175.625 193.750 C 175.625 193.406,175.203 193.125,174.688 193.125 C 174.172 193.125,173.750 193.406,173.750 193.750 " stroke="none" fill="#000000" fill-rule="evenodd"></path></g></svg>