<svg id="svg" xmlns="http://www.w3.org/2000/svg" xmlns:xlink="http://www.w3.org/1999/xlink" width="400" height="225" viewBox="0, 0, 400,225"><g id="svgg"><path id="path0" d="M0.625 112.500 L 0.625 224.375 74.637 224.375 C 143.962 224.375,148.773 224.306,150.605 223.281 C 152.469 222.240,152.601 222.240,153.381 223.281 C 153.994 224.100,155.099 224.375,157.770 224.375 C 161.015 224.375,161.250 224.286,160.357 223.393 C 159.224 222.259,159.112 221.486,160.002 220.936 C 160.411 220.684,160.418 220.157,160.024 219.419 C 159.691 218.798,159.578 218.131,159.772 217.936 C 159.966 217.742,158.368 217.044,156.221 216.385 C 151.995 215.088,150.595 212.620,152.822 210.393 C 154.014 209.200,154.004 207.567,152.797 206.233 C 150.795 204.020,156.788 201.371,158.936 203.520 C 159.488 204.071,155.626 207.574,154.936 207.148 C 154.628 206.957,154.375 207.397,154.375 208.125 C 154.375 208.853,154.639 209.286,154.962 209.086 C 155.284 208.887,155.808 209.188,156.125 209.755 C 156.519 210.458,156.841 210.561,157.138 210.080 C 157.378 209.692,158.401 209.375,159.412 209.375 C 161.225 209.375,162.069 207.877,160.542 207.368 C 158.995 206.852,160.648 204.453,162.687 204.256 L 164.688 204.063 162.371 202.290 C 160.945 201.199,159.748 200.707,159.258 201.010 C 157.309 202.214,149.413 201.865,148.706 200.542 C 147.639 198.550,148.439 197.593,151.347 197.381 C 153.389 197.233,154.092 196.895,154.350 195.938 C 155.105 193.142,157.500 190.715,157.500 192.746 C 157.500 193.884,159.402 194.598,160.230 193.770 C 161.287 192.713,162.500 193.036,162.500 194.375 C 162.500 195.063,162.781 195.625,163.125 195.625 C 163.469 195.625,163.750 196.188,163.750 196.875 C 163.750 198.344,164.322 198.446,165.935 197.267 C 167.073 196.434,167.069 196.396,165.810 195.996 C 165.050 195.755,164.379 194.879,164.194 193.886 C 164.019 192.952,163.724 191.556,163.537 190.784 C 163.262 189.645,163.515 189.312,164.880 189.014 C 167.617 188.419,170.000 187.388,170.000 186.799 C 170.000 185.285,171.880 186.427,171.924 187.969 L 171.974 189.688 172.574 188.051 C 173.305 186.059,182.110 185.709,183.184 187.628 C 184.112 189.286,177.313 194.481,175.600 193.422 C 174.585 192.795,172.985 194.390,173.730 195.288 C 174.507 196.224,173.576 199.716,172.120 201.324 C 171.283 202.249,171.229 202.659,171.844 203.401 C 172.737 204.476,173.954 217.061,173.586 221.406 L 173.334 224.375 286.355 224.375 L 399.375 224.375 399.375 112.500 L 399.375 0.625 305.675 0.625 L 211.974 0.625 209.291 3.281 C 207.815 4.742,206.528 5.867,206.429 5.781 C 206.331 5.695,206.246 5.836,206.242 6.094 C 206.238 6.352,206.730 6.593,207.336 6.631 C 207.942 6.668,209.891 6.878,211.668 7.097 C 213.978 7.381,214.981 7.273,215.190 6.716 C 215.362 6.259,215.753 6.582,216.139 7.500 C 216.580 8.548,216.809 8.715,216.835 8.006 C 216.900 6.292,217.958 6.123,219.338 7.604 C 220.046 8.364,220.625 8.680,220.625 8.305 C 220.625 7.931,221.609 7.625,222.813 7.625 C 224.016 7.625,225.000 7.897,225.000 8.230 C 225.000 8.563,225.600 8.644,226.336 8.410 C 227.506 8.039,227.634 8.185,227.366 9.587 C 227.184 10.540,227.333 11.138,227.734 11.063 C 228.105 10.994,228.510 11.641,228.636 12.500 C 228.761 13.359,229.238 14.484,229.695 15.000 C 230.712 16.148,229.688 19.003,227.586 20.877 C 226.259 22.061,226.248 22.056,225.565 20.096 C 225.187 19.012,224.654 18.125,224.381 18.125 C 223.463 18.125,223.074 16.044,223.885 15.478 C 224.395 15.122,224.118 15.071,223.125 15.338 C 222.266 15.569,221.090 16.357,220.511 17.088 C 219.309 18.611,218.748 18.265,217.834 15.438 C 217.079 13.102,214.436 12.356,213.027 14.082 C 212.565 14.647,210.819 16.562,209.146 18.336 C 207.473 20.111,205.687 22.189,205.177 22.955 C 204.413 24.102,203.795 24.305,201.656 24.110 C 200.230 23.981,198.461 23.846,197.726 23.812 C 196.709 23.765,196.290 23.222,195.975 21.545 C 195.748 20.332,195.314 19.493,195.012 19.680 C 194.709 19.867,194.256 19.688,194.005 19.281 C 193.693 18.778,193.105 19.098,192.156 20.288 C 190.776 22.018,189.375 22.012,189.375 20.276 C 189.375 19.189,188.637 19.113,187.651 20.099 C 187.135 20.615,186.697 20.631,186.120 20.154 C 185.676 19.786,184.609 19.450,183.750 19.407 C 176.267 19.033,172.581 19.404,170.494 20.740 C 168.081 22.284,167.004 22.471,166.186 21.485 C 165.685 20.882,164.863 20.681,163.893 20.924 C 163.061 21.133,162.015 21.001,161.569 20.630 C 161.123 20.260,159.321 19.787,157.566 19.579 L 154.375 19.201 154.375 21.399 C 154.375 24.080,152.720 25.862,151.783 24.189 C 150.968 22.732,150.357 22.853,149.387 24.665 C 148.656 26.030,148.203 26.187,145.375 26.047 C 142.576 25.910,141.980 26.109,140.486 27.680 C 139.291 28.937,138.419 29.354,137.558 29.081 C 136.654 28.794,135.951 29.204,134.890 30.640 C 133.835 32.066,133.071 32.516,132.037 32.318 C 131.261 32.170,130.625 32.291,130.625 32.587 C 130.625 33.379,128.271 33.242,127.763 32.420 C 127.465 31.938,127.147 32.036,126.757 32.732 C 126.432 33.314,125.398 33.750,124.344 33.750 C 123.330 33.750,122.500 33.986,122.500 34.275 C 122.500 34.563,123.325 34.750,124.333 34.690 C 127.590 34.496,131.250 36.625,131.250 38.713 C 131.250 40.659,130.277 40.902,128.474 39.406 C 127.595 38.675,127.205 38.733,125.748 39.810 C 124.733 40.561,123.232 41.018,122.020 40.946 C 119.507 40.797,118.760 40.126,120.040 39.168 C 123.115 36.866,122.088 36.419,113.984 36.533 C 104.243 36.670,100.039 34.919,103.794 32.290 C 104.570 31.746,104.814 31.251,104.403 31.051 C 104.014 30.862,104.062 30.788,104.516 30.880 C 104.954 30.968,105.490 31.861,105.707 32.864 C 105.971 34.081,106.133 34.272,106.196 33.438 C 106.342 31.495,107.793 30.000,109.533 30.000 C 111.189 30.000,111.875 29.001,111.875 26.588 C 111.875 25.799,112.297 24.803,112.812 24.375 C 113.328 23.947,113.750 23.210,113.750 22.736 C 113.750 22.262,113.971 21.875,114.242 21.875 C 114.875 21.875,119.375 15.862,119.375 15.016 C 119.375 14.664,119.640 14.375,119.963 14.375 C 120.286 14.375,120.147 13.602,119.654 12.656 C 117.794 9.090,121.011 3.020,123.636 5.145 C 124.430 5.788,124.523 5.785,124.129 5.129 C 123.538 4.146,125.308 1.250,126.500 1.250 C 127.738 1.250,128.919 2.919,129.058 4.864 C 129.357 9.047,129.253 8.872,130.625 7.500 C 131.850 6.275,132.249 3.577,131.496 1.614 C 131.153 0.721,124.790 0.625,65.871 0.625 L 0.625 0.625 0.625 112.500 M134.010 1.406 C 134.210 1.836,134.548 2.680,134.760 3.281 C 134.972 3.883,135.732 4.375,136.448 4.375 C 137.461 4.375,137.583 4.208,137.000 3.625 C 135.910 2.535,136.079 1.875,137.449 1.875 C 139.368 1.875,140.625 2.558,140.625 3.601 C 140.625 4.450,140.765 4.442,141.768 3.534 C 142.397 2.965,143.240 2.500,143.643 2.500 C 144.046 2.500,144.375 2.078,144.375 1.563 C 144.375 0.802,143.362 0.625,139.010 0.625 C 134.941 0.625,133.734 0.814,134.010 1.406 M186.942 0.900 C 187.093 1.051,189.460 1.338,192.202 1.538 C 198.566 2.001,201.164 2.371,202.080 2.947 C 203.098 3.586,205.137 3.168,205.914 2.161 C 206.271 1.698,207.547 1.209,208.750 1.073 C 209.953 0.936,205.477 0.780,198.802 0.725 C 192.128 0.670,186.790 0.749,186.942 0.900 M150.417 3.542 C 149.819 4.139,149.903 5.000,150.558 5.000 C 150.865 5.000,151.278 4.578,151.476 4.063 C 151.842 3.110,151.176 2.783,150.417 3.542 M202.259 5.977 C 202.031 6.570,202.332 6.875,203.145 6.875 C 204.567 6.875,204.793 5.919,203.489 5.419 C 203.002 5.232,202.448 5.483,202.259 5.977 M223.015 24.781 C 223.394 25.459,224.059 25.690,224.957 25.455 C 225.733 25.252,226.232 25.367,226.114 25.721 C 226.000 26.064,225.663 26.299,225.367 26.243 C 225.070 26.188,224.629 26.464,224.386 26.857 C 223.751 27.885,216.875 28.520,216.875 27.551 C 216.875 27.117,216.545 26.999,216.094 27.271 C 215.629 27.550,215.692 27.248,216.250 26.526 C 217.664 24.696,218.316 24.381,219.190 25.106 C 219.770 25.588,220.090 25.493,220.372 24.758 C 220.873 23.453,222.279 23.465,223.015 24.781 M166.250 28.474 C 166.250 28.970,165.828 29.375,165.313 29.375 C 164.371 29.375,164.028 28.056,164.775 27.309 C 165.358 26.725,166.250 27.430,166.250 28.474 M170.625 29.099 C 170.625 30.131,169.637 30.305,169.063 29.375 C 168.553 28.550,169.300 27.380,170.043 27.839 C 170.363 28.037,170.625 28.604,170.625 29.099 M234.691 29.375 C 235.852 29.375,236.965 29.639,237.164 29.963 C 237.390 30.328,238.182 30.322,239.259 29.947 C 240.847 29.393,244.218 29.476,243.947 30.062 C 243.120 31.848,243.058 32.697,243.726 33.110 C 245.735 34.352,239.905 34.461,236.563 33.244 C 235.531 32.868,233.071 32.099,231.095 31.535 C 229.119 30.971,227.343 30.252,227.149 29.937 C 226.591 29.035,229.521 28.222,231.134 28.830 C 231.930 29.130,233.531 29.375,234.691 29.375 M160.000 29.375 C 160.000 29.719,159.297 30.000,158.438 30.000 C 157.578 30.000,156.875 29.719,156.875 29.375 C 156.875 29.031,157.578 28.750,158.438 28.750 C 159.297 28.750,160.000 29.031,160.000 29.375 M151.567 29.776 C 152.719 30.218,149.988 33.125,148.421 33.125 C 148.003 33.125,146.992 34.107,146.174 35.308 C 144.855 37.246,141.875 38.461,141.875 37.061 C 141.875 36.460,145.755 32.500,146.344 32.500 C 146.605 32.500,147.521 31.797,148.381 30.938 C 150.113 29.205,150.096 29.211,151.567 29.776 M205.000 30.313 C 205.000 30.833,204.444 31.250,203.750 31.250 C 202.505 31.250,202.124 30.584,202.917 29.792 C 203.678 29.030,205.000 29.361,205.000 30.313 M199.036 31.207 C 199.234 31.527,199.135 31.950,198.817 32.146 C 198.078 32.603,196.250 31.917,196.250 31.183 C 196.250 30.443,198.576 30.463,199.036 31.207 M70.367 39.966 C 70.526 43.217,70.398 43.750,69.463 43.750 C 67.816 43.750,66.875 42.474,66.875 40.240 C 66.875 39.134,66.544 38.119,66.139 37.984 C 65.138 37.650,66.063 36.284,67.720 35.647 C 69.661 34.901,70.159 35.714,70.367 39.966 M79.375 39.176 C 79.375 40.118,77.936 41.875,77.166 41.875 C 76.282 41.875,75.846 39.362,76.599 38.610 C 76.978 38.230,79.375 38.720,79.375 39.176 M95.457 39.326 C 95.251 40.112,95.767 41.126,96.946 42.256 C 98.261 43.515,98.755 44.588,98.770 46.211 C 98.791 48.631,98.787 48.633,101.608 44.713 C 102.296 43.755,102.653 43.653,103.244 44.244 C 104.442 45.442,104.804 45.139,104.516 43.181 C 104.309 41.768,104.593 41.136,105.787 40.354 C 107.278 39.376,109.375 39.569,109.375 40.683 C 109.375 41.383,113.493 43.123,114.885 43.011 C 117.722 42.784,121.250 43.193,121.250 43.750 C 121.250 44.094,120.898 44.375,120.467 44.375 C 120.036 44.375,118.911 45.193,117.967 46.193 C 116.600 47.642,115.353 48.163,111.838 48.756 C 108.804 49.268,105.923 50.331,102.619 52.156 C 99.975 53.617,96.761 55.190,95.476 55.654 C 94.191 56.117,92.081 57.427,90.788 58.565 C 89.495 59.703,87.734 60.817,86.875 61.042 C 86.016 61.266,83.009 62.529,80.194 63.850 C 77.379 65.170,74.848 66.252,74.569 66.254 C 74.291 66.256,73.359 66.624,72.500 67.073 C 71.641 67.521,69.512 68.400,67.769 69.027 C 63.528 70.551,57.070 76.649,54.645 81.418 C 52.964 84.726,52.795 84.881,52.604 83.293 C 52.489 82.341,51.959 81.076,51.425 80.482 C 50.068 78.970,51.443 73.750,53.199 73.750 C 54.070 73.750,54.460 73.127,54.758 71.262 C 54.977 69.893,55.543 68.453,56.015 68.060 C 56.488 67.668,56.875 67.070,56.875 66.732 C 56.875 66.394,57.578 65.564,58.438 64.888 C 59.297 64.212,60.000 63.407,60.000 63.098 C 60.000 62.790,60.723 60.955,61.608 59.022 C 62.492 57.089,63.062 55.354,62.874 55.166 C 62.243 54.534,64.559 51.360,65.413 51.688 C 66.676 52.172,66.426 57.364,64.986 60.537 C 64.306 62.035,63.750 63.348,63.750 63.454 C 63.750 65.536,69.938 62.054,69.980 59.948 C 69.991 59.404,70.211 58.747,70.469 58.490 C 70.727 58.232,70.938 57.716,70.938 57.344 C 70.938 56.971,71.289 56.549,71.719 56.406 C 72.231 56.235,72.500 56.809,72.500 58.073 C 72.500 59.133,72.781 60.000,73.125 60.000 C 73.469 60.000,73.750 59.559,73.750 59.020 C 73.750 58.325,74.113 58.156,75.000 58.438 C 75.935 58.734,76.252 58.548,76.260 57.698 C 76.276 55.730,77.273 54.658,78.296 55.508 C 78.989 56.083,79.596 56.044,81.019 55.334 C 83.288 54.202,85.700 54.680,85.163 56.155 C 84.850 57.017,85.012 56.991,86.144 55.997 C 86.890 55.342,87.500 54.428,87.500 53.966 C 87.500 53.503,87.713 53.125,87.972 53.125 C 88.733 53.125,89.955 49.877,90.391 46.695 C 90.613 45.075,91.038 43.750,91.335 43.750 C 91.632 43.750,91.875 43.222,91.875 42.577 C 91.875 41.272,93.322 39.780,93.964 40.422 C 94.190 40.648,94.375 40.561,94.375 40.229 C 94.375 39.897,94.038 39.288,93.625 38.875 C 93.042 38.292,93.197 38.125,94.323 38.125 C 95.444 38.125,95.700 38.397,95.457 39.326 M133.676 40.045 C 132.806 40.583,131.875 40.248,131.875 39.397 C 131.875 39.105,132.461 39.020,133.178 39.208 C 134.128 39.456,134.263 39.683,133.676 40.045 M72.500 45.208 C 72.500 46.505,71.760 46.933,70.839 46.168 C 69.627 45.163,69.808 44.375,71.250 44.375 C 71.938 44.375,72.500 44.750,72.500 45.208 M92.215 45.580 C 92.017 45.901,92.128 46.333,92.463 46.539 C 92.797 46.746,92.912 47.328,92.718 47.833 C 92.525 48.337,92.678 48.750,93.058 48.750 C 93.439 48.750,93.754 48.398,93.760 47.969 C 93.766 47.448,93.971 47.500,94.375 48.125 C 94.866 48.886,94.983 48.801,94.990 47.678 C 95.001 46.205,92.839 44.571,92.215 45.580 M311.250 78.705 C 311.250 79.419,308.197 81.875,307.309 81.875 C 306.952 81.875,306.140 82.346,305.503 82.923 C 303.753 84.507,302.741 83.112,304.271 81.224 C 305.906 79.204,311.250 77.275,311.250 78.705 M13.750 85.572 C 13.750 85.814,13.364 86.539,12.892 87.185 C 11.955 88.466,10.678 86.431,11.542 85.033 C 11.939 84.391,13.750 84.833,13.750 85.572 M317.087 84.735 C 318.937 85.445,317.030 88.687,313.873 90.198 C 310.487 91.819,309.080 97.838,311.915 98.579 C 312.728 98.792,313.066 99.252,312.841 99.839 C 312.590 100.493,312.779 100.652,313.487 100.380 C 314.042 100.167,315.299 100.573,316.307 101.290 C 318.278 102.694,318.665 103.750,317.209 103.750 C 316.459 103.750,312.498 107.019,312.501 107.635 C 312.501 107.733,314.540 107.834,317.032 107.861 C 322.755 107.923,325.503 108.910,324.317 110.479 C 323.724 111.264,323.715 111.371,324.287 110.868 C 325.459 109.837,329.008 110.745,329.278 112.145 C 329.461 113.096,329.237 113.227,328.032 112.877 C 324.818 111.944,324.428 111.972,324.049 113.166 C 323.816 113.902,323.100 114.375,322.222 114.375 C 321.428 114.375,320.428 114.797,320.000 115.313 C 319.572 115.828,318.624 116.254,317.892 116.259 C 315.559 116.274,313.750 116.993,313.750 117.907 C 313.750 119.446,311.781 121.875,310.534 121.875 C 309.875 121.875,309.174 122.297,308.976 122.813 C 308.370 124.393,307.242 123.867,305.625 121.250 C 304.775 119.875,303.865 118.750,303.602 118.750 C 302.726 118.750,303.112 116.841,304.063 116.476 C 305.659 115.863,305.096 115.000,303.101 115.000 C 301.406 115.000,301.222 115.183,301.383 116.705 C 301.489 117.716,301.244 118.448,300.781 118.502 C 300.352 118.553,299.753 118.629,299.451 118.672 C 299.149 118.715,298.552 119.594,298.125 120.625 C 297.698 121.656,296.931 122.500,296.420 122.500 C 295.860 122.500,295.631 122.865,295.843 123.417 C 296.037 123.922,295.915 124.508,295.572 124.720 C 295.230 124.932,295.120 125.644,295.329 126.303 C 295.708 127.497,294.134 127.917,290.452 127.603 C 289.791 127.547,289.101 128.140,288.748 129.067 C 288.274 130.314,287.724 130.625,285.990 130.625 C 283.578 130.625,282.583 129.740,284.064 128.911 C 284.649 128.584,285.184 127.069,285.421 125.068 C 285.773 122.098,286.022 121.665,287.901 120.770 C 289.787 119.870,289.899 119.674,289.055 118.742 C 287.888 117.453,288.050 114.322,289.272 114.535 C 290.170 114.691,290.614 114.085,291.795 111.094 C 292.168 110.148,292.919 109.375,293.464 109.375 C 294.922 109.375,300.624 104.249,300.625 102.938 C 300.625 102.319,301.071 100.950,301.617 99.895 C 302.207 98.754,302.751 95.599,302.959 92.113 L 303.309 86.250 306.186 86.200 C 307.768 86.172,310.328 85.787,311.875 85.344 C 315.352 84.348,315.908 84.283,317.087 84.735 M49.435 86.838 L 51.447 88.676 50.748 92.897 C 50.296 95.625,50.262 97.375,50.652 97.846 C 52.254 99.776,53.118 104.597,52.069 105.756 C 50.973 106.967,49.375 107.260,49.375 106.250 C 49.375 105.906,48.969 105.625,48.473 105.625 C 47.290 105.625,45.625 103.209,45.625 101.493 C 45.625 100.673,44.717 99.433,43.326 98.350 C 37.492 93.815,37.410 92.948,42.465 89.267 C 44.508 87.780,46.195 86.211,46.215 85.781 C 46.271 84.535,47.273 84.863,49.435 86.838 M27.528 92.656 C 28.555 93.293,28.888 93.276,29.331 92.565 C 30.084 91.355,31.875 92.184,31.875 93.742 C 31.875 94.815,32.144 94.956,33.522 94.610 L 35.169 94.197 34.720 97.255 C 34.429 99.242,33.709 100.906,32.666 102.009 C 31.359 103.389,31.202 103.876,31.823 104.625 C 32.675 105.651,31.800 108.005,30.221 108.937 C 29.756 109.212,29.375 110.174,29.375 111.076 C 29.375 113.368,27.685 115.000,25.313 115.000 C 24.120 115.000,22.869 115.497,22.201 116.235 C 21.586 116.915,20.839 117.320,20.541 117.136 C 20.244 116.952,20.000 117.786,20.000 118.989 C 20.000 121.490,19.239 122.188,16.508 122.188 C 14.609 122.188,14.364 118.097,16.191 116.890 C 17.530 116.007,20.768 105.745,20.732 102.500 C 20.712 100.641,22.730 96.021,24.601 93.643 C 26.196 91.616,25.971 91.692,27.528 92.656 M341.799 101.815 C 342.992 102.571,342.140 103.702,340.668 103.317 C 339.951 103.130,339.598 102.647,339.798 102.126 C 340.185 101.117,340.596 101.053,341.799 101.815 M281.761 132.813 C 281.370 133.672,280.813 134.375,280.525 134.375 C 279.692 134.375,279.916 132.013,280.781 131.664 C 282.289 131.055,282.467 131.264,281.761 132.813 M108.931 139.140 C 109.596 139.805,106.168 143.750,104.926 143.750 C 103.299 143.750,103.456 142.492,105.338 140.462 C 106.879 138.801,108.131 138.340,108.931 139.140 M110.844 142.166 C 112.055 143.084,111.766 144.375,110.348 144.375 C 109.893 144.375,109.386 143.672,109.222 142.813 C 108.883 141.040,109.195 140.916,110.844 142.166 M103.844 156.563 C 103.452 158.799,96.875 159.834,96.875 157.659 C 96.875 157.187,97.127 156.957,97.435 157.147 C 97.742 157.337,98.147 157.094,98.334 156.607 C 99.059 154.718,104.174 154.676,103.844 156.563 M96.250 159.338 C 96.250 160.076,95.031 160.864,94.583 160.417 C 94.136 159.969,94.924 158.750,95.662 158.750 C 95.985 158.750,96.250 159.015,96.250 159.338 M131.969 162.188 C 131.969 162.514,131.666 162.882,131.297 163.005 C 130.927 163.128,130.625 162.760,130.625 162.188 C 130.625 161.615,130.927 161.247,131.297 161.370 C 131.666 161.493,131.969 161.861,131.969 162.188 M144.037 169.212 C 146.653 172.034,145.475 172.906,141.946 170.760 C 140.493 169.876,140.237 169.422,140.712 168.572 C 141.538 167.096,142.191 167.221,144.037 169.212 M134.375 169.949 C 134.375 170.265,134.546 170.968,134.754 171.511 C 135.024 172.215,134.764 172.500,133.854 172.500 C 132.355 172.500,131.621 171.565,132.113 170.283 C 132.492 169.294,134.375 169.017,134.375 169.949 M150.000 174.011 C 150.000 174.155,150.172 174.721,150.382 175.268 C 150.656 175.982,150.493 176.160,149.805 175.896 C 148.486 175.390,147.934 173.750,149.082 173.750 C 149.587 173.750,150.000 173.868,150.000 174.011 M166.250 184.442 C 166.250 184.749,165.688 185.000,165.000 185.000 C 163.782 185.000,163.371 184.337,164.124 183.585 C 164.624 183.084,166.250 183.739,166.250 184.442 M127.500 189.841 C 127.500 189.950,126.867 190.279,126.094 190.572 C 124.484 191.180,123.210 190.720,124.424 189.969 C 125.183 189.501,127.500 189.404,127.500 189.841 M136.758 190.775 C 136.939 191.730,136.594 191.815,133.951 191.469 C 130.482 191.014,130.350 190.951,130.932 190.008 C 131.645 188.855,136.515 189.496,136.758 190.775 M167.917 196.667 C 166.981 197.603,167.458 198.938,168.438 198.125 C 168.953 197.697,169.375 197.100,169.375 196.798 C 169.375 196.151,168.510 196.073,167.917 196.667 " stroke="none" fill="#000000" fill-rule="evenodd"></path></g></svg>