<svg id="svg" xmlns="http://www.w3.org/2000/svg" xmlns:xlink="http://www.w3.org/1999/xlink" width="400" height="225" viewBox="0, 0, 400,225"><g id="svgg"><path id="path0" d="M0.625 112.500 L 0.625 224.375 75.276 224.375 C 124.369 224.375,150.058 224.161,150.313 223.750 C 150.525 223.406,151.261 223.125,151.949 223.125 C 152.636 223.125,153.025 223.406,152.812 223.750 C 152.567 224.147,154.091 224.349,156.994 224.302 C 159.507 224.263,161.070 224.101,160.469 223.944 C 159.158 223.602,159.053 221.569,160.229 219.315 C 161.255 217.350,159.872 216.137,156.250 215.824 C 153.057 215.547,152.500 215.208,152.500 213.534 C 152.500 211.702,153.985 210.342,155.395 210.883 C 155.965 211.101,156.882 210.873,157.434 210.376 C 157.986 209.879,159.386 209.380,160.545 209.268 C 163.437 208.986,161.494 206.429,158.125 206.081 C 156.457 205.909,155.938 205.569,155.938 204.647 C 155.938 202.741,161.567 202.506,162.060 204.390 C 162.601 206.457,166.003 205.905,165.768 203.789 C 165.547 201.807,163.861 201.047,160.000 201.189 C 152.988 201.448,150.625 201.058,150.625 199.645 C 150.625 199.153,150.836 198.783,151.094 198.824 C 153.035 199.131,153.944 198.511,154.818 196.286 C 155.707 194.025,157.500 192.342,157.500 193.770 C 157.500 194.554,159.757 194.549,161.229 193.761 C 162.379 193.146,163.543 194.374,162.653 195.264 C 160.915 197.001,163.601 199.546,165.504 197.966 C 166.196 197.392,166.562 197.476,167.206 198.356 C 167.987 199.426,168.057 199.419,168.700 198.218 C 169.543 196.643,169.560 196.062,168.750 196.563 C 168.406 196.775,168.125 196.467,168.125 195.878 C 168.125 194.902,168.027 194.894,167.031 195.782 C 165.854 196.833,165.455 196.590,163.901 193.874 C 163.239 192.718,163.264 192.500,164.057 192.500 C 164.576 192.500,165.000 192.202,165.000 191.838 C 165.000 191.474,164.719 191.350,164.375 191.562 C 164.031 191.775,163.750 191.658,163.750 191.303 C 163.750 190.539,167.188 188.647,167.681 189.140 C 167.868 189.326,168.662 188.838,169.446 188.054 L 170.872 186.628 171.658 188.470 L 172.444 190.313 172.472 188.667 C 172.505 186.757,174.475 185.911,176.273 187.035 C 177.102 187.552,177.998 187.557,179.639 187.053 C 182.630 186.135,182.640 187.319,179.667 190.292 C 177.688 192.271,176.817 192.758,175.543 192.599 C 174.673 192.490,173.227 194.870,172.185 198.125 C 171.580 200.016,170.853 201.858,170.570 202.219 C 169.463 203.629,169.194 208.033,170.156 208.995 C 171.337 210.176,172.549 218.224,172.072 221.719 L 171.710 224.375 285.543 224.375 L 399.375 224.375 399.375 112.500 L 399.375 0.625 292.463 0.625 C 221.348 0.625,185.681 0.834,185.938 1.250 C 186.150 1.594,186.886 1.875,187.574 1.875 C 188.313 1.875,188.653 2.152,188.405 2.553 C 188.117 3.019,188.995 3.151,191.210 2.974 C 192.984 2.833,194.591 2.969,194.781 3.276 C 194.971 3.584,195.520 3.684,196.001 3.500 C 196.482 3.315,196.875 3.437,196.875 3.770 C 196.875 4.103,197.438 4.375,198.125 4.375 C 198.813 4.375,199.375 4.676,199.375 5.045 C 199.375 5.413,199.772 6.111,200.257 6.596 C 200.742 7.081,201.286 7.834,201.467 8.270 C 201.720 8.877,201.988 8.839,202.617 8.107 C 203.565 7.003,206.571 6.959,208.553 8.020 C 209.304 8.421,210.623 8.750,211.485 8.750 C 212.346 8.750,213.216 9.017,213.418 9.343 C 213.620 9.670,215.117 9.779,216.746 9.586 C 220.425 9.151,224.723 10.692,224.131 12.235 C 223.921 12.781,223.750 13.485,223.750 13.801 C 223.750 14.117,223.421 14.375,223.018 14.375 C 222.615 14.375,221.746 14.863,221.087 15.460 C 219.786 16.637,219.816 16.657,217.317 12.942 C 216.503 11.733,212.500 12.507,212.500 13.873 C 212.500 14.217,211.727 15.244,210.781 16.155 C 209.836 17.067,208.008 19.125,206.719 20.730 C 204.500 23.492,204.234 23.635,201.719 23.418 C 200.258 23.291,198.430 23.174,197.656 23.156 C 196.698 23.135,196.250 22.743,196.250 21.926 C 196.250 18.874,193.653 17.545,191.875 19.688 C 190.806 20.976,190.208 20.863,189.798 19.293 C 189.476 18.062,189.372 18.038,188.430 18.981 C 187.321 20.090,186.698 20.240,186.020 19.562 C 184.876 18.417,171.250 18.374,171.250 19.515 C 171.250 20.804,167.393 21.972,166.326 21.007 C 165.697 20.437,164.703 20.195,163.880 20.410 C 163.117 20.609,162.107 20.452,161.635 20.060 C 159.562 18.340,154.044 18.904,154.268 20.814 C 154.469 22.529,153.513 24.375,152.423 24.375 C 152.122 24.375,151.875 23.953,151.875 23.438 C 151.875 22.030,150.869 22.306,149.458 24.099 C 148.767 24.978,147.832 25.637,147.382 25.563 C 146.931 25.488,146.092 25.634,145.518 25.887 C 144.943 26.140,143.900 26.040,143.200 25.665 C 142.135 25.095,141.806 25.215,141.183 26.398 C 140.214 28.237,139.424 28.729,137.420 28.740 C 136.517 28.746,135.415 29.187,134.972 29.722 C 133.573 31.407,131.888 32.039,130.925 31.240 C 130.446 30.842,129.793 30.679,129.473 30.877 C 129.153 31.074,128.544 30.817,128.119 30.306 C 127.694 29.794,126.939 29.375,126.441 29.375 C 125.269 29.375,123.945 28.036,123.661 26.563 C 123.448 25.457,123.385 25.454,122.344 26.496 C 120.852 27.987,120.928 28.191,123.705 30.155 C 125.428 31.374,126.045 32.210,125.830 33.034 C 125.602 33.907,126.159 34.509,128.077 35.458 C 130.147 36.481,130.464 36.855,129.762 37.438 C 129.094 37.993,128.813 37.940,128.532 37.207 C 128.234 36.433,127.879 36.389,126.607 36.968 C 125.370 37.532,124.625 37.475,123.006 36.690 C 120.549 35.500,120.021 35.797,121.563 37.500 C 122.905 38.983,122.745 39.232,120.111 39.759 C 118.290 40.123,118.125 40.022,118.125 38.544 C 118.125 36.717,117.413 36.508,109.496 36.008 C 105.279 35.742,103.125 34.968,103.125 33.718 C 103.125 32.732,105.176 31.184,106.042 31.516 C 106.526 31.702,107.088 31.421,107.291 30.893 C 107.498 30.355,108.244 30.007,108.986 30.103 C 110.902 30.350,111.875 29.533,111.875 27.678 C 111.875 26.208,114.540 21.866,115.757 21.354 C 116.030 21.239,117.284 19.591,118.545 17.692 L 120.836 14.240 119.731 12.188 C 117.915 8.815,121.543 3.184,123.496 6.345 C 124.112 7.341,125.625 5.190,125.625 3.318 C 125.625 2.308,125.988 1.875,126.833 1.875 C 128.292 1.875,129.060 3.690,129.280 7.656 C 129.430 10.367,131.875 7.618,131.875 4.739 C 131.875 0.229,138.224 0.625,65.871 0.625 L 0.625 0.625 0.625 112.500 M134.010 1.406 C 134.210 1.836,134.548 2.680,134.760 3.281 C 134.972 3.883,135.732 4.375,136.448 4.375 C 137.461 4.375,137.583 4.208,137.000 3.625 C 135.836 2.461,136.106 1.875,137.807 1.875 C 138.664 1.875,139.692 2.400,140.093 3.041 C 140.513 3.713,141.286 4.085,141.919 3.920 C 143.040 3.626,144.693 5.724,143.936 6.480 C 143.719 6.697,144.134 6.875,144.859 6.875 C 146.794 6.875,147.114 5.829,145.657 4.265 C 144.952 3.508,144.375 2.380,144.375 1.757 C 144.375 0.752,143.772 0.625,139.010 0.625 C 134.941 0.625,133.734 0.814,134.010 1.406 M150.654 3.696 C 150.170 4.600,150.160 5.000,150.623 5.000 C 151.380 5.000,152.206 3.247,151.690 2.732 C 151.504 2.546,151.037 2.980,150.654 3.696 M206.235 5.331 C 205.874 5.765,205.027 5.977,204.352 5.800 C 202.913 5.424,202.700 4.375,204.063 4.375 C 204.578 4.375,205.000 4.059,205.000 3.673 C 205.000 3.191,205.296 3.217,205.945 3.756 C 206.623 4.319,206.705 4.764,206.235 5.331 M171.841 13.594 C 170.704 16.706,170.661 16.875,171.013 16.875 C 171.727 16.875,173.709 14.024,173.729 12.969 C 173.761 11.274,172.541 11.678,171.841 13.594 M228.125 16.911 C 228.125 17.743,227.066 18.159,225.994 17.748 C 224.344 17.114,224.810 15.762,226.563 16.097 C 227.422 16.261,228.125 16.628,228.125 16.911 M165.719 27.813 C 165.719 28.139,165.416 28.507,165.047 28.630 C 164.677 28.753,164.375 28.385,164.375 27.813 C 164.375 27.240,164.677 26.872,165.047 26.995 C 165.416 27.118,165.719 27.486,165.719 27.813 M170.625 28.438 C 170.625 28.953,170.203 29.375,169.688 29.375 C 169.172 29.375,168.750 28.953,168.750 28.438 C 168.750 27.922,169.172 27.500,169.688 27.500 C 170.203 27.500,170.625 27.922,170.625 28.438 M204.724 29.707 C 204.057 30.212,203.073 30.616,202.537 30.605 C 201.758 30.589,201.806 30.401,202.776 29.668 C 203.443 29.163,204.427 28.759,204.963 28.770 C 205.742 28.786,205.694 28.974,204.724 29.707 M150.859 29.874 C 151.453 30.833,150.158 31.982,148.719 31.773 C 147.333 31.572,147.317 31.512,148.365 30.469 C 149.556 29.284,150.374 29.089,150.859 29.874 M198.630 30.672 C 198.507 31.041,198.139 31.344,197.813 31.344 C 197.486 31.344,197.118 31.041,196.995 30.672 C 196.872 30.302,197.240 30.000,197.813 30.000 C 198.385 30.000,198.753 30.302,198.630 30.672 M235.849 30.933 C 236.254 31.987,235.990 32.042,233.213 31.486 C 230.870 31.018,231.085 30.326,233.634 30.132 C 234.810 30.042,235.620 30.335,235.849 30.933 M240.000 31.563 C 240.000 32.111,239.431 32.500,238.631 32.500 C 237.292 32.500,237.289 32.479,238.474 31.582 C 239.996 30.432,240.000 30.432,240.000 31.563 M146.513 33.045 C 146.853 33.595,143.314 36.875,142.380 36.875 C 141.507 36.875,141.820 36.228,143.594 34.365 C 145.434 32.433,145.982 32.185,146.513 33.045 M70.196 39.217 C 70.407 41.266,70.303 43.072,69.954 43.421 C 68.902 44.473,67.203 42.841,66.980 40.564 C 66.866 39.397,66.490 38.102,66.145 37.686 C 65.213 36.563,66.091 35.625,68.074 35.625 C 69.746 35.625,69.842 35.787,70.196 39.217 M78.438 40.321 C 78.438 42.070,76.607 41.876,76.355 40.101 C 76.195 38.967,76.405 38.688,77.293 38.859 C 77.944 38.985,78.438 39.615,78.438 40.321 M97.268 44.944 C 97.664 47.096,98.409 48.095,99.635 48.115 C 99.951 48.121,100.044 47.960,99.842 47.759 C 98.923 46.839,102.095 44.406,103.695 44.805 C 105.160 45.169,105.230 45.107,104.437 44.145 C 103.705 43.256,103.697 42.830,104.386 41.541 C 105.310 39.815,107.776 39.439,108.351 40.938 C 108.549 41.453,109.239 41.875,109.884 41.875 C 110.530 41.875,111.987 42.338,113.122 42.905 C 114.736 43.710,115.437 43.778,116.335 43.217 C 117.748 42.335,120.625 42.273,120.625 43.125 C 120.625 43.469,120.063 43.750,119.375 43.750 C 118.688 43.750,118.125 44.149,118.125 44.637 C 118.125 45.988,114.431 47.961,110.938 48.475 C 109.219 48.727,106.594 49.455,105.104 50.092 C 103.615 50.729,101.857 51.250,101.198 51.250 C 100.539 51.250,100.000 51.537,100.000 51.888 C 100.000 52.240,99.227 52.867,98.281 53.282 C 97.336 53.697,96.422 54.198,96.250 54.395 C 96.078 54.592,94.953 55.224,93.750 55.801 C 92.547 56.378,90.443 57.837,89.076 59.044 C 87.708 60.251,86.302 61.197,85.951 61.146 C 85.244 61.043,83.393 61.656,81.727 62.546 C 81.130 62.864,80.346 63.125,79.983 63.125 C 79.621 63.125,78.562 63.676,77.631 64.350 C 76.700 65.024,75.234 65.664,74.375 65.772 C 73.516 65.881,72.391 66.239,71.875 66.569 C 71.359 66.899,69.598 67.646,67.961 68.228 C 64.293 69.533,59.429 72.556,59.398 73.548 C 59.385 73.953,58.709 74.808,57.896 75.448 C 57.082 76.088,55.586 77.945,54.572 79.575 C 52.809 82.407,52.682 82.487,51.691 81.392 C 49.927 79.443,51.361 73.752,53.616 73.748 C 54.407 73.747,54.699 73.195,54.731 71.636 C 54.759 70.305,55.461 68.634,56.634 67.107 C 57.656 65.776,58.834 63.984,59.251 63.125 C 59.669 62.266,60.595 60.593,61.311 59.409 C 62.026 58.224,62.708 56.537,62.825 55.659 C 62.943 54.781,63.093 53.992,63.160 53.906 C 63.227 53.820,63.316 53.425,63.359 53.028 C 63.402 52.631,63.896 52.239,64.457 52.157 C 66.085 51.918,66.475 57.211,65.038 60.024 C 63.839 62.371,63.645 65.078,64.688 64.923 C 67.269 64.541,70.625 60.365,70.625 57.534 C 70.625 57.172,71.047 56.875,71.563 56.875 C 72.146 56.875,72.500 57.465,72.500 58.438 C 72.500 60.251,73.406 60.484,74.325 58.906 C 74.909 57.903,74.964 57.900,74.981 58.869 C 74.991 59.451,75.320 60.124,75.712 60.366 C 76.216 60.678,76.310 60.189,76.034 58.684 C 75.540 55.987,76.093 55.164,78.438 55.112 C 79.469 55.090,81.367 54.884,82.656 54.655 C 84.789 54.276,85.000 54.364,85.000 55.633 C 85.000 58.219,87.169 55.568,89.699 49.891 C 90.650 47.758,90.875 47.619,92.861 47.942 C 95.576 48.382,96.014 46.060,93.438 44.886 C 91.913 44.192,91.220 41.875,92.537 41.875 C 92.901 41.875,93.040 41.618,92.845 41.303 C 92.651 40.989,92.846 40.603,93.277 40.445 C 94.559 39.978,96.825 42.532,97.268 44.944 M71.922 45.172 C 71.845 45.919,70.987 45.774,70.719 44.969 C 70.581 44.556,70.806 44.331,71.219 44.469 C 71.631 44.606,71.948 44.923,71.922 45.172 M306.250 79.353 C 306.250 80.010,304.235 81.250,303.166 81.250 C 301.961 81.250,302.471 79.971,303.906 79.394 C 305.779 78.642,306.250 78.633,306.250 79.353 M13.125 85.938 C 13.125 86.453,12.703 86.875,12.188 86.875 C 11.672 86.875,11.250 86.453,11.250 85.938 C 11.250 85.422,11.672 85.000,12.188 85.000 C 12.703 85.000,13.125 85.422,13.125 85.938 M48.786 86.723 L 50.630 88.446 49.503 92.511 C 48.433 96.369,48.431 96.672,49.453 98.445 C 51.636 102.228,51.667 105.000,49.526 105.000 C 47.895 105.000,47.621 104.738,47.322 102.894 C 46.978 100.776,43.064 96.250,41.576 96.250 C 41.173 96.250,40.207 95.573,39.429 94.745 L 38.016 93.240 39.975 91.368 C 41.053 90.338,42.903 88.836,44.088 88.029 C 45.272 87.222,46.243 86.211,46.246 85.781 C 46.252 84.629,46.739 84.809,48.786 86.723 M313.397 86.622 C 313.845 88.408,312.764 90.235,311.539 89.765 C 310.384 89.322,309.375 90.665,309.375 92.645 C 309.375 93.631,308.965 94.571,308.450 94.769 C 306.831 95.390,307.648 99.109,309.347 98.858 C 310.145 98.740,311.095 99.137,311.595 99.796 C 312.242 100.650,312.465 100.711,312.480 100.037 C 312.495 99.375,312.726 99.445,313.351 100.300 C 314.533 101.917,314.021 103.259,311.716 104.582 C 309.762 105.703,310.237 107.224,312.295 106.435 C 312.760 106.256,313.547 106.447,314.043 106.859 C 314.539 107.271,315.169 107.476,315.441 107.315 C 316.340 106.784,319.118 108.137,318.242 108.678 C 317.754 108.979,318.180 109.167,319.350 109.167 C 321.761 109.167,321.964 109.398,321.518 111.627 C 321.081 113.812,318.950 115.020,316.883 114.255 C 315.202 113.634,313.637 114.763,312.540 117.389 C 311.083 120.874,305.000 122.163,305.000 118.986 C 305.000 118.512,304.728 118.125,304.395 118.125 C 303.332 118.125,304.346 116.558,306.109 115.474 L 307.813 114.427 305.101 114.744 C 303.499 114.931,302.032 114.764,301.517 114.337 C 300.824 113.762,300.530 113.918,300.080 115.102 C 299.769 115.920,298.777 116.984,297.875 117.467 C 296.434 118.238,296.284 118.609,296.642 120.518 C 297.009 122.475,296.925 122.659,295.798 122.364 C 294.819 122.108,294.364 122.499,293.717 124.148 C 293.079 125.772,292.620 126.174,291.727 125.890 C 291.088 125.688,290.157 125.861,289.658 126.275 C 289.158 126.689,288.750 126.819,288.750 126.563 C 288.750 126.306,288.321 126.453,287.797 126.888 C 286.610 127.873,286.401 127.661,286.243 125.313 C 286.038 122.257,286.167 121.950,288.063 120.970 C 289.753 120.096,289.840 119.873,289.347 117.690 C 289.057 116.402,288.874 115.340,288.941 115.330 C 290.011 115.176,291.614 113.608,291.888 112.446 C 292.082 111.621,293.214 110.380,294.402 109.687 C 297.689 107.769,301.250 104.284,301.250 102.985 C 301.250 102.347,301.861 100.998,302.608 99.988 C 303.784 98.397,303.961 97.359,303.933 92.236 L 303.900 86.322 307.106 85.735 C 312.438 84.760,312.947 84.832,313.397 86.622 M27.718 93.184 C 28.335 93.905,29.030 94.288,29.264 94.036 C 29.497 93.785,29.336 93.453,28.906 93.300 C 28.477 93.146,28.125 92.763,28.125 92.448 C 28.125 91.348,29.446 91.888,30.928 93.594 C 32.233 95.096,32.582 95.214,33.702 94.531 C 35.637 93.351,36.250 93.577,36.247 95.469 C 36.241 97.984,35.046 101.875,34.278 101.875 C 33.878 101.875,33.774 102.511,34.017 103.478 C 34.341 104.769,33.987 105.513,32.193 107.307 C 30.740 108.760,30.086 109.910,30.310 110.617 C 30.810 112.194,28.744 114.369,26.482 114.649 C 25.406 114.781,23.648 115.344,22.575 115.898 C 21.503 116.453,20.623 116.689,20.621 116.422 C 20.619 116.156,20.187 116.763,19.661 117.771 C 19.135 118.780,18.847 119.975,19.020 120.428 C 19.195 120.882,18.916 121.250,18.398 121.250 C 16.770 121.250,16.599 119.263,18.017 116.800 C 18.764 115.502,19.375 113.919,19.375 113.282 C 19.375 112.646,19.618 111.858,19.915 111.531 C 21.493 109.796,22.419 101.419,21.171 100.171 C 20.416 99.416,22.663 95.000,23.801 95.000 C 24.117 95.000,24.375 94.634,24.375 94.188 C 24.375 91.997,26.226 91.441,27.718 93.184 M107.385 141.719 C 107.244 142.949,106.788 143.494,105.781 143.637 C 104.112 143.874,103.946 142.760,105.409 141.143 C 106.883 139.515,107.614 139.728,107.385 141.719 M103.405 156.077 C 104.145 158.006,100.877 159.483,98.790 158.163 C 97.632 157.430,98.831 155.824,100.827 155.435 C 101.575 155.289,102.368 155.132,102.589 155.085 C 102.810 155.038,103.177 155.485,103.405 156.077 M143.247 169.179 C 144.211 170.103,145.000 171.087,145.000 171.367 C 145.000 172.215,143.328 171.935,142.511 170.951 C 141.916 170.234,141.457 170.180,140.465 170.711 C 139.376 171.293,139.246 171.237,139.593 170.334 C 139.817 169.750,140.000 168.874,140.000 168.386 C 140.000 167.012,141.321 167.335,143.247 169.179 " stroke="none" fill="#000000" fill-rule="evenodd"></path></g></svg>