<svg id="svg" xmlns="http://www.w3.org/2000/svg" xmlns:xlink="http://www.w3.org/1999/xlink" width="400" height="225" viewBox="0, 0, 400,225"><g id="svgg"><path d="M0,0 h400 v225 h-400 z"/><path id="path0" d="M179.200 103.099 C 175.653 104.310,169.573 109.125,169.073 111.120 C 168.865 111.948,168.131 113.387,167.443 114.319 C 166.089 116.149,166.613 119.368,168.266 119.381 C 168.704 119.385,169.534 120.510,170.110 121.881 C 170.701 123.290,171.585 124.375,172.141 124.375 C 172.708 124.375,173.125 124.904,173.125 125.625 C 173.125 128.087,177.918 131.250,181.649 131.250 C 182.579 131.250,183.879 131.738,184.538 132.335 C 185.622 133.316,185.808 133.326,186.463 132.439 C 186.861 131.898,188.573 131.268,190.267 131.037 C 191.960 130.807,193.811 130.198,194.379 129.684 C 194.946 129.170,196.003 128.750,196.726 128.750 C 197.467 128.750,198.205 128.234,198.416 127.567 C 198.623 126.917,199.345 126.240,200.021 126.063 C 200.770 125.867,201.250 125.209,201.250 124.375 C 201.250 123.550,201.728 122.883,202.457 122.692 C 204.208 122.234,204.402 121.151,203.403 117.401 C 202.915 115.565,202.511 113.574,202.507 112.976 C 202.462 106.380,187.794 100.164,179.200 103.099 " stroke="none" fill="#000000" fill-rule="evenodd"></path></g></svg>