<svg id="svg" xmlns="http://www.w3.org/2000/svg" xmlns:xlink="http://www.w3.org/1999/xlink" width="400" height="225" viewBox="0, 0, 400,225"><g id="svgg"><path id="path0" d="M0.625 112.500 L 0.625 224.375 81.094 224.355 C 148.138 224.339,161.380 224.197,160.469 223.505 C 157.915 221.566,159.417 218.761,163.020 218.740 C 163.937 218.735,165.109 218.458,165.625 218.125 C 166.329 217.670,166.022 217.517,164.387 217.510 C 162.013 217.499,155.625 215.103,155.625 214.223 C 155.625 213.922,155.344 213.850,155.000 214.063 C 154.656 214.275,154.375 214.192,154.375 213.877 C 154.375 213.563,155.289 213.045,156.406 212.726 C 157.798 212.328,158.500 211.710,158.637 210.760 C 158.848 209.300,161.416 208.752,162.189 210.002 C 162.443 210.413,163.028 210.386,163.895 209.923 C 165.990 208.801,167.554 211.313,166.263 213.725 C 165.833 214.529,165.888 215.065,166.448 215.530 C 166.983 215.974,167.185 217.535,167.063 220.283 L 166.881 224.375 283.128 224.375 L 399.375 224.375 399.375 112.500 L 399.375 0.625 282.031 0.709 C 205.104 0.763,166.508 0.994,169.973 1.379 C 175.853 2.032,179.708 3.330,179.029 4.429 C 178.734 4.906,179.007 5.003,179.870 4.729 C 180.921 4.395,181.088 4.545,180.818 5.580 C 180.358 7.337,183.598 10.423,186.468 10.961 C 187.723 11.197,188.750 11.639,188.750 11.945 C 188.750 12.250,189.172 12.500,189.688 12.500 C 190.203 12.500,190.625 12.779,190.625 13.121 C 190.625 13.463,191.258 13.644,192.031 13.523 C 192.805 13.403,194.062 13.587,194.825 13.932 C 195.794 14.370,196.473 14.343,197.076 13.843 C 198.814 12.400,206.410 13.361,206.739 15.066 C 207.579 19.428,197.608 22.195,196.528 17.900 C 196.224 16.692,195.815 16.577,192.314 16.707 C 190.182 16.786,185.441 16.964,181.779 17.102 C 178.117 17.239,174.812 17.543,174.435 17.775 C 173.450 18.384,173.581 17.857,175.027 15.407 C 177.820 10.673,174.558 8.298,169.747 11.562 C 168.481 12.422,167.056 13.125,166.580 13.125 C 165.672 13.125,162.905 16.239,163.386 16.719 C 163.539 16.873,164.739 17.041,166.051 17.093 C 168.015 17.171,168.473 17.436,168.637 18.594 C 168.844 20.051,167.327 20.613,166.556 19.365 C 166.340 19.015,165.886 18.901,165.547 19.111 C 164.562 19.719,159.468 17.985,159.788 17.151 C 159.944 16.744,159.662 16.254,159.160 16.061 C 158.598 15.846,158.127 16.175,157.932 16.921 C 157.716 17.748,157.156 18.080,156.160 17.972 C 155.160 17.862,154.509 18.252,154.079 19.219 C 153.735 19.992,153.220 20.625,152.935 20.625 C 152.650 20.625,151.521 21.268,150.427 22.055 C 147.255 24.335,144.728 25.004,142.891 24.050 C 141.499 23.328,141.231 23.383,140.457 24.549 L 139.588 25.858 137.138 24.339 C 135.790 23.504,134.477 22.889,134.219 22.973 C 133.961 23.056,133.750 22.870,133.750 22.559 C 133.750 22.247,133.188 22.139,132.500 22.319 C 131.773 22.509,131.250 22.338,131.250 21.911 C 131.250 21.507,131.006 21.327,130.709 21.511 C 130.411 21.695,129.664 21.290,129.049 20.610 C 128.434 19.931,128.113 19.375,128.335 19.375 C 128.556 19.375,128.248 18.806,127.650 18.111 C 125.883 16.057,125.675 14.220,127.037 12.701 C 128.157 11.453,128.178 11.225,127.293 9.961 C 126.477 8.796,126.460 8.451,127.182 7.729 C 128.139 6.772,129.010 6.574,128.478 7.435 C 128.288 7.742,128.552 8.155,129.066 8.352 C 129.580 8.550,130.000 9.423,130.000 10.293 C 130.000 11.520,130.316 11.873,131.406 11.865 C 132.539 11.858,132.630 11.740,131.875 11.258 C 131.080 10.751,131.152 10.509,132.354 9.662 C 133.133 9.114,133.621 8.423,133.439 8.127 C 132.542 6.676,139.283 6.302,141.269 7.693 C 144.586 10.016,154.321 6.272,154.365 2.656 C 154.380 1.485,150.790 1.691,150.113 2.901 C 149.247 4.449,146.002 3.518,146.439 1.847 C 146.754 0.640,145.885 0.625,73.691 0.625 L 0.625 0.625 0.625 112.500 M158.696 9.753 C 158.238 10.304,157.149 11.051,156.276 11.413 C 154.824 12.015,154.795 12.096,155.938 12.353 C 156.625 12.508,157.521 12.905,157.929 13.236 C 159.502 14.511,162.266 11.746,161.476 9.688 C 161.006 8.464,159.741 8.493,158.696 9.753 M115.203 26.036 C 115.676 26.509,114.493 28.125,113.673 28.125 C 113.372 28.125,113.125 27.563,113.125 26.875 C 113.125 25.674,114.347 25.181,115.203 26.036 M115.819 32.678 C 118.041 34.134,117.940 34.877,115.469 35.252 C 111.208 35.898,107.220 35.390,106.985 34.172 C 106.468 31.488,112.458 30.475,115.819 32.678 M69.375 36.563 C 69.996 37.310,69.996 37.690,69.375 38.438 C 68.837 39.085,68.814 39.375,69.298 39.375 C 70.183 39.375,70.226 42.912,69.348 43.454 C 68.208 44.158,66.875 42.423,66.875 40.236 C 66.875 39.075,66.584 38.125,66.228 38.125 C 65.789 38.125,65.796 37.722,66.250 36.875 C 67.044 35.391,68.298 35.265,69.375 36.563 M106.875 41.213 C 106.875 41.877,105.704 42.718,104.531 42.896 C 103.708 43.021,103.458 41.750,104.167 41.042 C 104.797 40.411,106.875 40.543,106.875 41.213 M115.395 43.311 C 117.003 44.920,109.033 48.750,104.079 48.750 C 101.994 48.750,101.021 49.146,99.473 50.625 C 98.394 51.656,97.093 52.500,96.581 52.500 C 96.069 52.500,94.168 53.625,92.356 55.001 C 90.545 56.377,88.725 57.375,88.313 57.220 C 87.901 57.066,87.407 57.434,87.215 58.039 C 86.902 59.024,82.962 61.244,81.509 61.254 C 81.195 61.256,80.234 61.623,79.375 62.069 C 76.012 63.814,75.627 63.825,76.261 62.158 C 76.627 61.195,76.617 60.029,76.235 59.022 C 75.466 57.001,75.386 57.348,77.076 55.381 C 79.477 52.587,83.467 53.328,83.361 56.549 L 83.284 58.879 84.792 57.252 C 85.622 56.357,86.580 55.625,86.923 55.625 C 87.265 55.625,88.104 54.289,88.789 52.656 C 90.898 47.623,92.138 45.592,92.920 45.892 C 93.332 46.050,93.763 45.897,93.878 45.552 C 94.005 45.174,94.808 45.299,95.905 45.868 C 96.905 46.387,97.925 46.686,98.171 46.534 C 98.417 46.382,98.780 46.677,98.977 47.191 C 99.560 48.708,102.458 48.411,102.056 46.875 C 101.687 45.464,102.048 45.339,103.791 46.272 C 104.952 46.893,105.331 46.471,105.074 44.844 C 105.033 44.586,105.532 44.375,106.183 44.375 C 106.834 44.375,107.506 44.010,107.677 43.565 C 108.022 42.666,114.535 42.452,115.395 43.311 M64.128 54.649 C 63.918 55.488,64.021 56.344,64.357 56.552 C 65.265 57.112,64.743 59.978,63.218 62.803 C 61.806 65.422,61.517 66.875,62.408 66.875 C 63.766 66.875,67.208 63.876,67.402 62.524 C 67.960 58.628,70.810 56.885,71.906 59.770 C 72.501 61.333,72.590 61.362,73.704 60.354 C 75.154 59.042,75.748 59.852,75.232 62.436 C 74.999 63.600,74.438 64.404,73.828 64.447 C 71.938 64.581,71.565 64.692,70.000 65.582 C 69.141 66.071,66.609 67.101,64.375 67.871 C 61.345 68.916,59.949 69.794,58.881 71.328 C 58.094 72.459,56.618 73.734,55.600 74.162 C 54.583 74.590,53.750 75.181,53.750 75.475 C 53.750 75.770,53.332 76.557,52.821 77.224 C 51.919 78.401,51.897 78.395,52.082 77.001 C 52.188 76.211,52.746 75.013,53.324 74.338 C 53.902 73.663,54.375 72.399,54.375 71.530 C 54.375 70.082,56.555 66.220,57.648 65.732 C 57.902 65.619,58.838 64.075,59.729 62.301 C 60.620 60.527,61.650 58.889,62.018 58.662 C 62.386 58.434,62.743 57.588,62.812 56.781 C 62.952 55.143,63.716 53.125,64.197 53.125 C 64.369 53.125,64.338 53.811,64.128 54.649 M308.625 88.178 C 308.917 91.655,307.164 92.704,306.295 89.574 C 305.326 86.084,305.436 85.511,307.031 85.738 C 308.147 85.896,308.476 86.400,308.625 88.178 M45.779 92.813 C 44.677 96.423,44.563 96.555,42.706 96.367 C 40.084 96.102,36.263 99.983,36.255 102.921 C 36.252 104.083,35.639 105.636,34.775 106.671 C 33.964 107.642,32.821 109.374,32.234 110.518 C 30.914 113.091,27.681 114.583,24.655 114.015 C 22.412 113.594,21.672 111.703,23.166 110.209 C 23.787 109.588,25.955 102.446,26.687 98.609 C 26.951 97.227,27.215 97.013,28.087 97.479 C 28.856 97.891,29.753 97.665,31.247 96.683 C 34.814 94.340,37.141 93.186,38.362 93.155 C 39.008 93.139,41.118 91.508,43.050 89.531 C 47.182 85.304,47.832 86.086,45.779 92.813 M26.717 93.503 C 27.520 94.306,27.573 94.739,26.985 95.682 C 26.581 96.329,26.250 97.284,26.250 97.804 C 26.250 99.010,25.375 99.017,24.381 97.819 C 23.956 97.308,23.385 97.027,23.112 97.195 C 22.303 97.696,23.222 94.780,24.248 93.594 C 25.404 92.257,25.469 92.254,26.717 93.503 M305.979 105.288 C 306.533 106.134,307.495 106.988,308.117 107.185 C 309.625 107.664,309.058 109.774,307.297 110.234 C 306.237 110.511,306.119 110.744,306.730 111.355 C 307.892 112.517,307.655 113.750,306.270 113.750 C 305.433 113.750,305.154 114.050,305.399 114.688 C 305.662 115.373,305.321 115.625,304.129 115.625 C 303.093 115.625,302.500 115.282,302.500 114.682 C 302.500 114.163,301.670 112.870,300.655 111.808 L 298.809 109.877 300.967 107.655 C 302.154 106.433,303.125 105.055,303.125 104.592 C 303.125 103.206,304.899 103.639,305.979 105.288 M103.125 157.188 C 103.125 157.703,102.844 158.125,102.500 158.125 C 102.156 158.125,101.875 157.703,101.875 157.188 C 101.875 156.672,102.156 156.250,102.500 156.250 C 102.844 156.250,103.125 156.672,103.125 157.188 M142.121 170.364 C 142.679 171.820,142.637 171.875,140.974 171.875 C 139.021 171.875,138.401 170.890,139.831 170.057 C 141.348 169.174,141.681 169.219,142.121 170.364 M169.901 191.875 C 169.139 192.906,168.022 193.750,167.419 193.750 C 166.817 193.750,166.150 194.031,165.938 194.375 C 165.268 195.458,164.215 195.065,164.681 193.906 C 164.923 193.305,165.190 192.391,165.276 191.875 C 165.418 191.010,167.476 190.253,170.175 190.074 C 171.173 190.008,171.145 190.192,169.901 191.875 M164.887 204.151 C 165.587 205.401,165.093 207.635,164.184 207.332 C 163.089 206.967,162.277 205.233,162.693 204.147 C 163.196 202.839,164.154 202.840,164.887 204.151 " stroke="none" fill="#000000" fill-rule="evenodd"></path></g></svg>