<svg id="svg" xmlns="http://www.w3.org/2000/svg" xmlns:xlink="http://www.w3.org/1999/xlink" width="400" height="225" viewBox="0, 0, 400,225"><g id="svgg"><path id="path0" d="M0.625 112.500 L 0.625 224.375 81.034 224.375 C 159.730 224.375,161.421 224.350,160.379 223.198 C 159.126 221.814,159.599 218.750,161.065 218.750 C 163.144 218.750,165.625 220.864,165.625 222.635 L 165.625 224.375 282.500 224.375 L 399.375 224.375 399.375 112.500 L 399.375 0.625 281.094 0.679 C 174.642 0.727,160.057 0.909,168.125 2.092 C 169.154 2.242,169.655 2.691,169.591 3.405 C 169.522 4.182,169.832 4.401,170.685 4.178 C 171.339 4.007,171.875 4.139,171.875 4.470 C 171.875 4.802,172.156 4.900,172.500 4.687 C 172.844 4.475,173.145 4.669,173.169 5.119 C 173.193 5.569,173.455 5.375,173.750 4.688 C 174.045 4.000,174.307 3.756,174.331 4.146 C 174.355 4.535,174.938 5.001,175.625 5.181 C 176.523 5.416,176.875 6.034,176.875 7.375 C 176.875 9.276,178.027 10.238,179.587 9.639 C 180.714 9.207,182.110 10.986,181.629 12.240 C 181.300 13.098,181.702 13.214,184.364 13.029 C 187.165 12.835,187.448 12.931,187.119 13.968 C 186.809 14.943,186.981 15.051,188.215 14.659 C 189.534 14.240,189.592 14.298,188.801 15.251 C 188.319 15.832,187.557 16.166,187.107 15.993 C 186.658 15.821,186.120 15.955,185.911 16.292 C 185.484 16.984,183.259 16.810,181.935 15.981 C 181.297 15.582,181.195 15.655,181.563 16.250 C 181.929 16.843,181.826 16.919,181.190 16.528 C 179.214 15.313,176.252 12.241,175.868 11.006 C 175.298 9.180,174.428 8.761,172.626 9.446 C 171.778 9.768,170.560 9.865,169.917 9.661 C 169.116 9.407,168.750 9.598,168.750 10.270 C 168.750 11.352,166.557 11.628,165.938 10.625 C 165.725 10.281,165.028 10.000,164.389 10.000 C 163.749 10.000,162.346 9.508,161.270 8.906 C 159.406 7.865,159.274 7.865,158.494 8.906 C 158.043 9.508,157.407 10.000,157.080 10.000 C 156.753 10.000,155.906 10.540,155.197 11.201 C 154.488 11.861,153.099 12.494,152.110 12.607 C 151.057 12.727,150.287 13.201,150.251 13.750 C 150.218 14.266,150.148 16.132,150.095 17.898 C 150.004 20.965,149.916 21.120,148.113 21.385 C 145.897 21.710,144.910 20.792,145.412 18.874 C 145.832 17.265,146.875 17.028,146.875 18.542 C 146.875 20.199,147.801 18.822,147.925 16.979 C 147.987 16.063,147.915 14.459,147.765 13.415 C 147.483 11.442,147.245 11.329,142.813 11.067 C 141.609 10.996,140.625 10.759,140.625 10.542 C 140.625 10.324,140.034 9.991,139.312 9.802 C 138.508 9.592,138.175 9.175,138.453 8.725 C 138.702 8.322,139.082 8.233,139.297 8.527 C 140.145 9.690,145.456 9.483,148.328 8.175 C 149.897 7.460,151.429 6.875,151.732 6.875 C 152.609 6.875,154.857 4.219,155.568 2.344 C 156.415 0.107,153.461 -0.123,150.645 1.959 C 149.484 2.817,148.434 3.136,147.701 2.852 C 146.613 2.430,146.617 2.371,147.776 1.518 C 148.830 0.742,139.248 0.625,74.807 0.625 L 0.625 0.625 0.625 112.500 M137.345 8.597 C 137.475 8.988,137.004 9.260,136.290 9.206 C 134.966 9.106,134.672 8.661,135.430 7.904 C 135.999 7.334,137.051 7.714,137.345 8.597 M204.459 16.134 C 204.921 17.394,204.829 17.530,203.745 17.186 C 202.875 16.910,202.500 17.076,202.500 17.738 C 202.500 18.577,202.251 18.582,200.333 17.781 C 197.714 16.686,197.290 16.655,197.872 17.597 C 198.148 18.044,198.044 18.148,197.597 17.872 C 196.265 17.049,196.858 15.811,198.906 15.141 C 201.972 14.137,203.849 14.473,204.459 16.134 M113.125 31.366 C 113.125 31.774,112.513 32.758,111.766 33.553 C 110.083 35.345,107.500 35.511,107.500 33.827 C 107.500 32.324,108.939 31.122,110.170 31.594 C 110.694 31.796,111.309 31.660,111.536 31.293 C 112.091 30.396,113.125 30.443,113.125 31.366 M68.750 37.463 C 68.750 38.474,69.031 39.475,69.375 39.688 C 70.294 40.255,70.136 42.939,69.162 43.313 C 67.594 43.915,67.005 42.818,66.964 39.219 C 66.932 36.463,67.135 35.625,67.836 35.625 C 68.431 35.625,68.750 36.267,68.750 37.463 M112.729 43.885 C 112.515 44.232,112.727 44.786,113.201 45.117 C 113.908 45.612,113.894 45.670,113.125 45.440 C 112.609 45.285,111.615 45.678,110.915 46.313 C 108.917 48.124,106.612 48.130,106.354 46.325 C 106.166 45.006,106.325 44.883,107.758 45.243 C 109.635 45.714,109.838 45.205,108.281 43.929 C 107.680 43.436,107.513 43.194,107.911 43.392 C 108.309 43.590,109.293 43.508,110.099 43.208 C 111.792 42.579,113.297 42.967,112.729 43.885 M98.569 46.875 C 98.749 47.563,99.285 48.125,99.760 48.125 C 100.974 48.125,100.840 48.754,99.266 50.428 C 96.880 52.968,95.000 52.068,95.000 48.386 C 95.000 47.460,95.363 46.875,95.938 46.875 C 96.453 46.875,96.875 46.594,96.875 46.250 C 96.875 45.104,98.237 45.607,98.569 46.875 M94.610 50.080 C 95.056 52.311,94.026 53.877,91.126 55.376 C 87.960 57.014,87.431 56.156,88.963 51.874 C 90.782 46.790,93.762 45.843,94.610 50.080 M80.328 54.400 C 80.549 54.758,81.304 54.869,82.006 54.646 C 86.035 53.367,83.832 59.746,79.681 61.377 C 76.964 62.444,74.966 62.430,76.704 61.356 C 77.183 61.060,77.234 60.588,76.852 59.984 C 76.024 58.675,76.113 55.387,77.000 54.500 C 77.922 53.578,79.785 53.522,80.328 54.400 M86.875 57.111 C 86.875 58.291,85.210 59.579,84.362 59.054 C 83.887 58.761,84.007 58.251,84.744 57.438 C 86.010 56.039,86.875 55.906,86.875 57.111 M64.089 57.457 C 63.891 57.777,64.005 58.209,64.341 58.417 C 65.018 58.835,63.945 61.762,62.730 62.813 C 61.402 63.961,61.312 67.416,62.617 67.165 C 63.240 67.045,63.750 67.212,63.750 67.536 C 63.750 67.860,63.072 68.125,62.243 68.125 C 60.852 68.125,57.500 71.199,57.500 72.475 C 57.500 72.752,56.797 73.114,55.938 73.278 C 53.159 73.809,55.327 66.883,58.588 64.813 C 59.021 64.538,59.375 63.901,59.375 63.398 C 59.375 62.290,60.513 60.183,62.140 58.281 C 63.305 56.919,64.817 56.280,64.089 57.457 M70.625 59.792 C 70.625 60.327,71.406 60.625,72.813 60.625 C 75.238 60.625,75.356 60.862,74.063 63.125 C 73.352 64.369,73.165 64.457,73.147 63.557 C 73.135 62.935,72.839 62.603,72.490 62.819 C 72.140 63.035,72.014 63.470,72.210 63.786 C 72.405 64.102,72.128 64.193,71.595 63.988 C 71.061 63.784,70.625 63.885,70.625 64.213 C 70.625 64.912,65.765 67.223,65.291 66.750 C 64.829 66.288,65.655 64.375,66.317 64.375 C 66.624 64.375,66.875 63.624,66.875 62.705 C 66.875 60.828,68.280 58.958,69.690 58.958 C 70.204 58.958,70.625 59.333,70.625 59.792 M45.159 91.277 C 44.366 94.425,43.883 95.222,42.260 96.060 C 39.508 97.480,36.085 101.335,36.874 102.124 C 37.811 103.061,37.667 103.514,35.719 105.760 C 34.739 106.889,33.544 108.656,33.063 109.688 C 31.265 113.539,25.381 114.765,23.502 111.680 C 22.942 110.760,23.086 110.322,24.266 109.353 C 25.066 108.697,25.552 107.887,25.346 107.554 C 24.697 106.505,26.497 101.709,27.656 101.398 C 28.258 101.236,28.750 100.706,28.750 100.220 C 28.750 99.734,29.170 99.175,29.684 98.977 C 30.198 98.780,30.462 98.367,30.272 98.060 C 30.082 97.752,30.183 97.500,30.497 97.500 C 30.811 97.500,31.755 96.867,32.595 96.094 C 33.435 95.320,35.234 94.297,36.593 93.820 C 39.742 92.714,43.625 90.009,44.096 88.594 C 45.168 85.366,46.073 87.649,45.159 91.277 M26.589 93.082 C 26.391 93.402,26.516 93.841,26.866 94.057 C 27.297 94.324,27.292 94.845,26.850 95.671 C 26.161 96.959,22.251 97.234,22.727 95.960 C 22.860 95.604,23.285 95.383,23.672 95.469 C 24.059 95.555,24.375 95.083,24.375 94.421 C 24.375 93.759,24.867 93.088,25.469 92.931 C 26.070 92.774,26.649 92.612,26.756 92.573 C 26.862 92.533,26.787 92.762,26.589 93.082 M305.268 107.232 C 306.382 108.347,306.554 109.375,305.625 109.375 C 305.281 109.375,305.000 109.938,305.000 110.625 C 305.000 111.319,304.583 111.875,304.063 111.875 C 302.855 111.875,302.878 112.342,304.146 113.610 C 304.785 114.249,304.911 114.717,304.482 114.860 C 303.726 115.112,299.375 111.025,299.375 110.063 C 299.375 109.731,299.938 109.281,300.626 109.062 C 301.314 108.844,302.167 108.122,302.523 107.458 C 303.306 105.993,303.974 105.938,305.268 107.232 M141.838 170.556 C 142.382 171.572,142.215 171.775,140.643 172.006 C 138.836 172.271,138.762 171.982,140.174 170.156 C 140.967 169.131,141.092 169.161,141.838 170.556 M167.745 192.139 C 167.208 193.537,165.893 193.743,165.893 192.429 C 165.893 191.722,166.332 191.250,166.989 191.250 C 167.681 191.250,167.960 191.579,167.745 192.139 M165.368 213.936 C 165.419 217.220,165.314 217.500,164.034 217.500 C 160.159 217.500,153.936 214.211,156.417 213.474 C 156.841 213.348,157.750 213.033,158.438 212.773 C 159.125 212.514,159.969 212.366,160.313 212.445 C 160.656 212.525,160.586 212.232,160.156 211.795 C 158.769 210.384,159.314 209.981,162.344 210.179 L 165.313 210.372 165.368 213.936 " stroke="none" fill="#000000" fill-rule="evenodd"></path></g></svg>