<svg id="svg" xmlns="http://www.w3.org/2000/svg" xmlns:xlink="http://www.w3.org/1999/xlink" width="400" height="225" viewBox="0, 0, 400,225"><g id="svgg"><path id="path0" d="M0.625 112.500 L 0.625 224.375 81.406 224.326 C 125.836 224.299,161.833 224.133,161.399 223.959 C 159.236 223.087,159.261 218.686,161.428 218.785 C 162.603 218.838,165.165 222.420,164.768 223.453 C 164.457 224.264,178.628 224.375,281.895 224.375 L 399.375 224.375 399.375 112.500 L 399.375 0.625 200.000 0.625 L 0.625 0.625 0.625 112.500 M161.508 3.294 C 162.709 4.495,163.899 6.934,163.486 7.348 C 162.887 7.946,160.000 4.877,160.000 3.641 C 160.000 2.298,160.417 2.202,161.508 3.294 M160.313 5.625 C 160.525 5.969,160.276 6.250,159.760 6.250 C 159.243 6.250,158.315 7.106,157.696 8.153 C 156.482 10.208,153.218 10.628,152.619 8.807 C 152.413 8.180,152.650 8.049,153.440 8.352 C 154.190 8.640,154.847 8.354,155.467 7.469 C 156.806 5.558,159.611 4.490,160.313 5.625 M68.750 37.849 C 68.750 38.789,68.390 39.375,67.813 39.375 C 66.877 39.375,66.470 36.864,67.275 36.059 C 67.983 35.350,68.750 36.281,68.750 37.849 M69.881 41.719 C 69.765 42.320,69.116 42.813,68.438 42.813 C 67.759 42.813,67.110 42.320,66.994 41.719 C 66.836 40.900,67.199 40.625,68.438 40.625 C 69.676 40.625,70.039 40.900,69.881 41.719 M113.597 44.531 C 113.455 44.961,112.729 45.402,111.982 45.512 C 111.236 45.622,110.625 45.928,110.625 46.193 C 110.625 46.857,107.712 48.129,107.250 47.667 C 106.362 46.779,106.854 44.829,107.773 45.592 C 108.811 46.453,111.550 45.366,110.918 44.344 C 110.716 44.017,111.294 43.750,112.203 43.750 C 113.244 43.750,113.759 44.038,113.597 44.531 M99.375 49.339 C 99.375 51.158,96.315 52.414,95.291 51.014 C 94.825 50.377,94.135 50.074,93.725 50.328 C 93.168 50.672,93.174 50.894,93.749 51.250 C 94.323 51.604,94.256 52.101,93.473 53.296 C 92.425 54.894,89.017 56.725,88.342 56.051 C 87.665 55.374,88.807 51.189,89.770 50.819 C 90.293 50.619,90.978 49.778,91.292 48.952 C 91.768 47.701,92.066 47.558,93.078 48.100 C 94.930 49.091,95.584 48.898,96.393 47.123 L 97.134 45.496 98.255 46.880 C 98.871 47.641,99.375 48.747,99.375 49.339 M82.554 54.781 C 86.211 55.529,81.968 61.875,77.811 61.875 C 77.299 61.875,77.058 61.499,77.250 61.001 C 77.434 60.520,77.285 59.941,76.918 59.714 C 74.735 58.365,76.854 53.523,79.375 54.096 C 80.234 54.291,81.665 54.600,82.554 54.781 M63.637 61.372 C 62.777 62.508,61.871 64.256,61.625 65.256 C 61.082 67.456,57.562 71.698,55.311 72.866 C 53.757 73.672,53.698 73.646,54.107 72.326 C 54.632 70.627,57.467 65.430,58.103 65.000 C 58.357 64.828,59.091 63.563,59.733 62.188 C 61.337 58.756,63.137 57.286,64.319 58.444 C 65.076 59.185,64.979 59.599,63.637 61.372 M70.625 59.688 C 70.625 60.203,71.047 60.625,71.563 60.625 C 72.115 60.625,72.504 61.202,72.510 62.031 C 72.517 63.142,72.641 63.244,73.101 62.518 C 73.420 62.012,73.900 61.817,74.167 62.083 C 74.761 62.678,73.211 63.727,71.719 63.740 C 71.117 63.746,70.625 63.989,70.625 64.280 C 70.625 64.572,69.500 65.252,68.125 65.792 C 65.736 66.731,65.625 66.721,65.625 65.575 C 65.625 64.915,65.906 64.375,66.250 64.375 C 66.594 64.375,66.875 63.831,66.875 63.166 C 66.875 60.854,68.059 58.750,69.360 58.750 C 70.068 58.750,70.625 59.163,70.625 59.688 M41.755 96.453 C 40.274 98.326,38.570 100.004,37.969 100.183 C 36.635 100.579,36.505 102.500,37.813 102.500 C 39.415 102.500,38.856 103.808,36.094 106.519 C 34.633 107.953,32.918 109.905,32.282 110.857 C 31.547 111.957,30.779 112.453,30.172 112.220 C 29.646 112.018,28.891 112.124,28.493 112.454 C 28.095 112.784,27.358 112.972,26.854 112.871 C 23.618 112.227,22.692 110.353,25.156 109.437 C 26.344 108.995,26.563 108.452,26.563 105.941 C 26.563 103.633,26.839 102.811,27.798 102.265 C 29.757 101.151,30.656 99.783,29.790 99.232 C 29.390 98.978,29.273 98.765,29.531 98.760 C 29.789 98.754,30.139 98.749,30.310 98.747 C 30.480 98.746,31.462 97.863,32.492 96.785 C 34.434 94.753,37.072 93.125,38.423 93.125 C 38.852 93.125,40.296 92.253,41.633 91.188 L 44.063 89.251 44.255 91.149 C 44.404 92.610,43.828 93.832,41.755 96.453 M26.517 94.169 C 27.017 95.472,25.634 96.410,24.545 95.506 C 23.934 95.000,23.910 94.623,24.444 93.980 C 25.387 92.843,26.031 92.902,26.517 94.169 M303.352 109.684 C 303.155 110.198,302.742 110.462,302.435 110.272 C 302.127 110.082,301.875 110.388,301.875 110.953 C 301.875 111.517,301.541 111.868,301.133 111.732 C 299.808 111.290,299.931 110.223,301.389 109.521 C 303.364 108.569,303.767 108.602,303.352 109.684 M141.949 172.051 C 140.545 173.455,138.651 172.275,139.768 170.691 C 140.775 169.261,140.860 169.246,141.663 170.345 C 142.154 171.016,142.273 171.727,141.949 172.051 M163.117 210.607 C 164.300 211.355,164.561 217.500,163.410 217.500 C 161.564 217.500,156.250 215.360,156.250 214.617 C 156.250 214.166,157.433 213.480,158.879 213.090 C 161.034 212.510,161.316 212.274,160.442 211.785 C 159.855 211.457,159.375 210.921,159.375 210.594 C 159.375 209.832,161.905 209.840,163.117 210.607 " stroke="none" fill="#000000" fill-rule="evenodd"></path></g></svg>