<svg id="svg" xmlns="http://www.w3.org/2000/svg" xmlns:xlink="http://www.w3.org/1999/xlink" width="400" height="225" viewBox="0, 0, 400,225"><g id="svgg"><path id="path0" d="M0.625 112.500 L 0.625 224.375 81.359 224.375 L 162.093 224.375 160.613 222.800 C 159.222 221.319,159.197 221.160,160.191 220.166 C 161.538 218.819,163.194 220.172,163.343 222.740 L 163.438 224.374 281.406 224.375 L 399.375 224.375 399.375 112.500 L 399.375 0.625 200.000 0.625 L 0.625 0.625 0.625 112.500 M68.750 37.500 C 68.750 38.194,68.333 38.750,67.813 38.750 C 67.292 38.750,66.875 38.194,66.875 37.500 C 66.875 36.806,67.292 36.250,67.813 36.250 C 68.333 36.250,68.750 36.806,68.750 37.500 M69.721 41.304 C 69.952 41.678,69.875 42.250,69.550 42.575 C 68.765 43.360,66.875 42.597,66.875 41.496 C 66.875 40.470,69.112 40.319,69.721 41.304 M112.722 42.864 C 113.772 43.267,113.408 45.006,112.277 44.990 C 110.657 44.969,109.615 43.798,110.625 43.135 C 111.751 42.396,111.564 42.420,112.722 42.864 M98.750 48.462 C 98.750 50.643,95.888 52.279,94.885 50.673 C 93.980 49.225,92.191 50.967,92.841 52.662 C 93.272 53.785,92.027 54.835,89.782 55.242 C 88.110 55.545,88.058 55.478,88.469 53.560 C 89.015 51.012,89.257 50.625,90.304 50.625 C 90.774 50.625,91.254 50.133,91.371 49.531 C 91.525 48.740,92.185 48.438,93.760 48.438 C 95.687 48.438,95.961 48.234,96.141 46.664 C 96.395 44.438,98.750 46.061,98.750 48.462 M108.125 46.250 C 108.125 46.938,107.874 47.500,107.567 47.500 C 106.864 47.500,106.209 45.874,106.710 45.374 C 107.462 44.621,108.125 45.032,108.125 46.250 M80.313 54.375 C 80.525 54.719,81.385 55.000,82.224 55.000 C 84.374 55.000,84.230 57.117,81.923 59.423 C 79.020 62.326,76.315 61.318,76.270 57.317 C 76.239 54.563,79.129 52.459,80.313 54.375 M64.485 59.085 C 64.373 59.760,63.600 61.312,62.766 62.534 C 61.932 63.755,61.250 65.108,61.250 65.539 C 61.250 67.559,56.259 72.340,54.977 71.549 C 54.389 71.185,57.279 65.000,58.038 65.000 C 58.297 65.000,59.027 63.805,59.660 62.344 C 61.528 58.031,65.052 55.651,64.485 59.085 M70.625 60.067 C 70.625 60.374,71.047 60.625,71.563 60.625 C 73.839 60.625,71.382 64.028,68.394 65.014 C 66.238 65.726,64.658 65.382,66.016 64.497 C 66.382 64.258,66.889 63.220,67.142 62.191 C 67.854 59.285,70.625 57.595,70.625 60.067 M43.527 92.357 C 43.613 92.946,43.169 93.992,42.539 94.682 C 41.909 95.373,41.199 96.579,40.961 97.363 C 40.723 98.147,39.812 99.453,38.936 100.265 C 37.359 101.728,37.356 101.745,38.672 102.163 C 40.665 102.795,40.285 103.904,37.481 105.634 C 36.096 106.488,34.137 108.213,33.129 109.467 C 31.978 110.896,30.763 111.743,29.866 111.740 C 29.080 111.736,27.847 111.928,27.124 112.165 C 24.768 112.940,23.186 110.643,25.311 109.530 C 26.798 108.750,26.947 108.394,26.589 106.484 C 26.025 103.479,26.657 101.875,28.403 101.875 C 29.905 101.875,31.259 100.693,31.480 99.187 C 31.777 97.165,33.824 95.171,37.267 93.551 C 39.286 92.602,41.359 91.588,41.875 91.298 C 42.974 90.681,43.312 90.897,43.527 92.357 M26.250 94.709 C 26.250 95.475,25.998 95.534,25.000 95.000 C 24.313 94.632,23.750 94.200,23.750 94.041 C 23.750 93.881,24.313 93.750,25.000 93.750 C 25.707 93.750,26.250 94.167,26.250 94.709 M141.739 171.264 C 142.392 172.310,142.370 172.589,141.613 172.880 C 139.831 173.563,138.867 172.912,139.432 171.406 C 140.085 169.666,140.717 169.627,141.739 171.264 M161.927 213.661 C 162.376 217.123,161.943 217.333,157.813 215.658 L 155.938 214.897 158.103 213.770 C 160.096 212.731,161.800 212.683,161.927 213.661 " stroke="none" fill="#000000" fill-rule="evenodd"></path></g></svg>