<svg id="svg" xmlns="http://www.w3.org/2000/svg" xmlns:xlink="http://www.w3.org/1999/xlink" width="400" height="225" viewBox="0, 0, 400,225"><g id="svgg"><path id="path0" d="M0.625 112.500 L 0.625 224.375 200.000 224.375 L 399.375 224.375 399.375 112.500 L 399.375 0.625 200.000 0.625 L 0.625 0.625 0.625 112.500 M68.750 37.537 C 68.750 38.204,68.328 38.750,67.813 38.750 C 66.885 38.750,66.502 36.831,67.275 36.059 C 67.926 35.407,68.750 36.232,68.750 37.537 M113.125 43.103 C 113.125 44.124,110.956 44.968,109.966 44.331 C 109.182 43.827,109.186 43.669,110.000 43.135 C 111.207 42.342,113.125 42.323,113.125 43.103 M108.125 46.563 C 108.125 47.078,107.874 47.500,107.567 47.500 C 107.260 47.500,106.847 47.078,106.649 46.563 C 106.430 45.991,106.648 45.625,107.207 45.625 C 107.712 45.625,108.125 46.047,108.125 46.563 M98.750 48.417 C 98.750 49.536,96.440 51.441,95.664 50.962 C 94.863 50.466,94.775 48.750,95.552 48.750 C 95.856 48.750,96.263 48.141,96.458 47.397 C 96.840 45.935,98.750 46.784,98.750 48.417 M92.553 52.025 C 92.154 53.974,89.392 55.850,88.393 54.851 C 87.722 54.180,89.669 50.938,90.748 50.930 C 91.319 50.925,91.994 50.714,92.248 50.461 C 92.969 49.740,92.994 49.869,92.553 52.025 M80.842 54.664 C 81.477 55.146,82.391 55.388,82.873 55.203 C 83.435 54.987,83.743 55.284,83.730 56.027 C 83.679 59.020,78.354 62.135,76.998 59.965 C 74.758 56.378,77.717 52.297,80.842 54.664 M63.197 62.082 C 62.126 63.639,61.250 65.157,61.250 65.455 C 61.250 65.754,60.115 67.180,58.727 68.624 C 55.996 71.466,54.277 72.071,54.819 70.000 C 54.999 69.313,55.394 68.750,55.698 68.750 C 56.002 68.750,56.250 68.325,56.250 67.806 C 56.250 67.287,56.813 66.381,57.500 65.792 C 58.188 65.204,58.750 64.321,58.750 63.832 C 58.750 61.831,63.221 57.329,64.218 58.325 C 65.037 59.144,64.918 59.581,63.197 62.082 M70.783 60.518 L 72.504 61.653 71.056 63.014 C 70.259 63.763,68.992 64.375,68.241 64.375 C 67.490 64.375,66.875 64.656,66.875 65.000 C 66.875 65.344,66.538 65.625,66.125 65.625 C 65.542 65.625,65.542 65.458,66.125 64.875 C 66.538 64.463,66.875 63.600,66.875 62.959 C 66.875 59.769,68.299 58.880,70.783 60.518 M42.500 92.403 C 42.500 93.037,41.968 94.038,41.318 94.626 C 40.668 95.215,40.245 96.172,40.379 96.754 C 40.512 97.336,40.271 98.258,39.842 98.803 C 38.972 99.908,34.375 100.882,34.375 99.961 C 34.375 99.639,34.068 99.445,33.692 99.531 C 33.316 99.617,32.711 99.238,32.348 98.688 C 31.480 97.374,32.932 95.952,37.841 93.308 C 42.227 90.945,42.500 90.892,42.500 92.403 M39.921 102.800 C 40.645 103.505,40.350 103.905,38.046 105.346 C 36.543 106.285,34.367 108.017,33.212 109.193 C 32.037 110.389,30.727 111.183,30.238 110.995 C 29.757 110.811,28.710 110.909,27.911 111.212 C 25.601 112.091,24.326 110.897,26.102 109.518 C 27.339 108.557,27.466 108.053,27.116 105.498 C 26.719 102.601,26.733 102.572,28.827 101.946 C 31.516 101.142,38.795 101.702,39.921 102.800 M141.734 173.224 C 141.248 173.530,140.640 173.329,140.176 172.709 C 139.049 171.201,139.934 170.372,141.327 171.632 C 142.250 172.467,142.344 172.837,141.734 173.224 M161.852 220.910 C 162.268 221.411,162.426 222.114,162.204 222.473 C 161.545 223.540,160.169 223.215,159.828 221.911 C 159.311 219.932,160.537 219.326,161.852 220.910 " stroke="none" fill="#000000" fill-rule="evenodd"></path></g></svg>