<svg id="svg" xmlns="http://www.w3.org/2000/svg" xmlns:xlink="http://www.w3.org/1999/xlink" width="400" height="225" viewBox="0, 0, 400,225"><g id="svgg"><path d="M0,0 h400 v225 h-400 z" stroke="black" stroke-width="0.1"/><path id="path0" d="M185.625 91.819 C 177.641 92.871,174.460 94.433,165.475 101.717 C 162.145 104.416,161.120 105.660,160.583 107.657 C 160.209 109.046,158.800 111.644,157.451 113.429 C 155.109 116.531,154.331 118.750,155.585 118.750 C 155.906 118.750,156.521 119.724,156.951 120.914 C 157.508 122.453,158.219 123.184,159.414 123.446 C 160.635 123.714,161.094 124.202,161.094 125.234 C 161.094 127.335,164.168 131.875,165.591 131.875 C 166.814 131.875,167.876 133.886,167.216 134.953 C 165.602 137.565,177.649 144.375,183.885 144.375 C 185.669 144.375,186.693 144.788,187.758 145.938 C 189.610 147.936,190.845 147.913,192.347 145.851 C 193.427 144.369,194.007 144.183,198.063 144.021 C 201.777 143.872,202.949 143.556,204.679 142.237 C 205.835 141.355,207.857 140.463,209.172 140.255 C 212.325 139.756,212.627 139.517,212.135 137.916 C 211.907 137.172,211.919 136.750,212.162 136.979 C 212.405 137.208,213.143 136.857,213.802 136.198 C 214.461 135.539,215.528 135.000,216.173 135.000 C 217.812 135.000,218.957 133.409,218.533 131.722 C 218.072 129.885,218.661 129.041,220.763 128.526 C 223.383 127.885,223.969 126.183,222.896 122.332 C 221.402 116.972,220.625 113.215,220.625 111.354 C 220.625 110.289,219.889 108.775,218.750 107.500 C 217.719 106.345,216.875 105.160,216.875 104.866 C 216.875 104.348,215.944 103.392,210.858 98.681 C 206.200 94.369,193.172 90.826,185.625 91.819 " stroke="none" fill="#000000" fill-rule="evenodd"></path></g></svg>