<svg id="svg" xmlns="http://www.w3.org/2000/svg" xmlns:xlink="http://www.w3.org/1999/xlink" width="400" height="225" viewBox="0, 0, 400,225"><g id="svgg"><path d="M0,0 h400 v225 h-400 z"/><path id="path0" d="M185.182 86.031 C 181.632 86.705,171.748 90.388,170.313 91.573 C 169.281 92.424,165.766 95.263,162.500 97.883 C 157.068 102.240,156.494 102.908,155.761 105.736 C 155.301 107.506,153.632 110.650,151.854 113.094 C 148.502 117.702,148.190 118.757,149.784 120.080 C 150.353 120.551,151.204 121.860,151.676 122.988 C 152.297 124.474,153.051 125.141,154.416 125.415 C 155.661 125.663,156.259 126.134,156.178 126.802 C 156.045 127.892,157.297 131.331,158.021 131.862 C 158.264 132.041,158.803 132.961,159.218 133.906 C 159.750 135.118,160.432 135.625,161.527 135.625 C 163.345 135.625,164.633 137.577,164.043 139.435 C 163.735 140.407,164.305 141.294,166.509 143.274 C 168.085 144.691,169.376 146.151,169.377 146.519 C 169.380 147.175,174.022 149.375,175.404 149.375 C 175.791 149.375,176.898 149.785,177.865 150.287 C 178.831 150.788,181.568 151.390,183.947 151.625 C 187.636 151.988,188.507 152.314,189.864 153.838 C 191.975 156.207,193.331 156.091,195.410 153.366 C 197.056 151.207,197.264 151.122,200.079 151.455 C 201.699 151.647,203.821 151.547,204.794 151.232 C 205.767 150.918,207.288 150.519,208.174 150.345 C 209.060 150.172,210.607 149.268,211.611 148.336 C 212.982 147.064,214.255 146.573,216.719 146.368 C 219.988 146.096,220.367 145.745,220.047 143.281 C 219.991 142.852,220.312 142.500,220.760 142.500 C 221.208 142.500,221.904 141.972,222.306 141.328 C 222.709 140.683,224.040 139.967,225.264 139.738 C 227.608 139.298,228.615 137.552,227.883 135.201 C 227.410 133.681,228.027 132.908,230.517 131.900 C 233.611 130.648,234.779 128.549,233.835 125.938 C 233.012 123.660,231.524 116.884,230.515 110.811 C 230.041 107.956,229.509 106.697,228.498 106.035 C 227.744 105.540,226.614 104.050,225.987 102.724 C 224.532 99.641,215.991 92.225,212.402 90.928 C 198.743 85.990,191.893 84.758,185.182 86.031 M0.961 157.031 C 0.474 158.553,0.258 162.492,0.687 162.031 C 0.926 161.773,1.229 160.367,1.359 158.906 C 1.594 156.266,1.439 155.537,0.961 157.031 M24.875 161.375 C 25.458 161.958,25.792 161.958,26.375 161.375 C 26.958 160.792,26.792 160.625,25.625 160.625 C 24.458 160.625,24.292 160.792,24.875 161.375 M17.000 164.812 C 15.792 166.313,15.624 166.372,15.615 165.292 C 15.607 164.269,15.504 164.220,15.000 165.000 C 14.204 166.232,14.204 168.750,15.000 168.750 C 15.344 168.750,15.625 170.016,15.625 171.563 C 15.625 173.855,15.417 174.375,14.500 174.375 C 12.313 174.375,10.010 175.890,10.005 177.332 C 10.001 178.331,9.512 178.847,8.281 179.154 C 7.336 179.389,5.648 180.093,4.531 180.717 L 2.500 181.854 2.500 179.410 C 2.500 177.593,2.875 176.671,3.959 175.818 C 4.924 175.059,5.558 173.722,5.833 171.866 C 6.215 169.290,6.172 169.161,5.312 170.276 C 4.797 170.943,4.375 171.716,4.375 171.994 C 4.375 172.273,3.780 172.500,3.052 172.500 C 1.977 172.500,1.785 172.207,2.029 170.932 C 2.272 169.663,2.166 169.499,1.477 170.071 C 0.782 170.648,0.625 175.715,0.625 197.577 L 0.625 224.375 41.071 224.375 C 79.593 224.375,81.466 224.323,80.422 223.281 C 79.819 222.680,78.423 222.188,77.319 222.188 C 75.404 222.188,75.316 222.080,75.384 219.844 C 75.437 218.104,75.195 217.479,74.446 217.420 C 73.891 217.376,72.734 217.267,71.875 217.176 C 71.016 217.086,69.961 217.297,69.531 217.645 C 69.102 217.993,68.750 218.083,68.750 217.844 C 68.750 217.606,68.308 217.853,67.768 218.393 C 66.720 219.441,64.375 219.741,64.375 218.827 C 64.375 218.525,64.766 217.953,65.245 217.556 C 65.723 217.159,66.264 216.265,66.446 215.569 C 66.722 214.513,66.625 214.430,65.857 215.067 C 65.102 215.693,64.874 215.591,64.589 214.501 C 64.258 213.235,64.134 213.274,61.965 215.323 C 58.228 218.853,53.589 220.061,56.768 216.676 C 57.515 215.882,58.129 214.688,58.135 214.022 C 58.146 212.532,58.770 211.549,60.000 211.081 C 61.627 210.461,59.341 210.543,57.106 211.184 C 55.159 211.742,55.159 211.742,55.841 209.934 C 56.217 208.939,56.792 208.125,57.119 208.125 C 58.219 208.125,59.919 206.141,59.578 205.254 C 59.393 204.770,59.520 204.375,59.860 204.375 C 60.903 204.375,61.151 201.321,60.175 200.511 C 59.310 199.793,59.344 198.360,60.277 196.150 C 60.585 195.421,60.331 194.991,59.420 194.702 C 58.708 194.476,58.125 193.904,58.125 193.432 C 58.125 191.979,56.859 191.696,55.571 192.862 C 54.735 193.618,54.549 194.174,54.985 194.610 C 55.720 195.345,55.861 198.760,55.156 198.730 C 54.379 198.698,51.250 195.733,51.250 195.030 C 51.250 194.670,50.547 194.375,49.688 194.375 C 48.828 194.375,48.125 194.594,48.125 194.862 C 48.125 195.730,43.634 200.000,42.722 200.000 C 41.597 200.000,40.772 197.972,41.763 197.642 C 42.168 197.506,42.500 196.900,42.500 196.295 C 42.500 194.786,44.407 193.188,47.092 192.447 L 49.332 191.828 48.338 189.742 C 46.511 185.911,50.688 183.441,53.672 186.587 C 54.921 187.903,55.517 188.087,57.422 187.743 C 60.333 187.218,60.364 187.175,58.809 185.843 C 58.089 185.227,57.500 184.333,57.500 183.857 C 57.500 183.331,57.119 183.138,56.529 183.364 C 55.121 183.904,52.984 181.665,53.231 179.907 C 53.389 178.781,53.109 178.391,52.031 178.238 C 51.258 178.128,50.625 177.642,50.625 177.158 C 50.625 176.675,49.893 175.799,48.998 175.213 C 48.104 174.627,46.694 173.074,45.866 171.761 C 44.966 170.335,43.872 169.375,43.148 169.375 C 42.482 169.375,41.678 168.912,41.361 168.346 C 40.885 167.494,40.068 167.374,36.642 167.649 C 32.348 167.993,31.527 167.497,33.594 165.805 C 34.577 165.001,34.468 164.948,32.508 165.282 C 31.310 165.486,29.964 166.018,29.517 166.465 C 28.377 167.605,24.914 166.992,24.546 165.586 C 24.118 163.950,22.495 163.561,21.156 164.773 C 19.910 165.900,19.868 165.889,18.967 164.208 C 18.429 163.202,18.252 163.257,17.000 164.812 M48.125 176.798 C 48.125 177.721,46.347 178.884,45.622 178.436 C 45.134 178.134,45.148 177.762,45.671 177.132 C 46.479 176.158,48.125 175.935,48.125 176.798 M64.844 196.681 C 63.669 196.988,63.308 198.750,64.420 198.750 C 65.122 198.750,66.875 197.220,66.875 196.607 C 66.875 196.223,66.549 196.235,64.844 196.681 " stroke="none" fill="#000000" fill-rule="evenodd"></path></g></svg>