<svg id="svg" xmlns="http://www.w3.org/2000/svg" xmlns:xlink="http://www.w3.org/1999/xlink" width="400" height="225" viewBox="0, 0, 400,225"><g id="svgg"><path d="M0,0 h400 v225 h-400 z"/><path id="path0" d="M192.825 77.498 C 191.801 77.826,189.938 77.930,188.686 77.730 C 187.296 77.507,185.587 77.721,184.298 78.278 C 182.429 79.086,174.861 81.418,171.621 82.184 C 170.396 82.474,167.580 84.706,166.689 86.094 C 166.414 86.523,165.821 86.875,165.373 86.875 C 164.924 86.875,163.851 87.508,162.987 88.281 C 162.122 89.055,158.731 91.901,155.451 94.606 L 149.486 99.525 148.399 104.138 C 147.712 107.058,147.004 108.750,146.469 108.750 C 146.005 108.750,145.625 109.014,145.625 109.338 C 145.625 109.661,144.222 111.756,142.507 113.993 C 139.239 118.257,139.088 119.231,141.350 121.431 C 141.983 122.046,142.500 123.100,142.500 123.774 C 142.500 124.448,142.781 125.000,143.125 125.000 C 143.469 125.000,143.750 125.517,143.750 126.150 C 143.750 127.380,146.107 128.750,148.222 128.750 C 149.274 128.750,149.441 129.028,149.130 130.267 C 148.883 131.250,149.105 132.141,149.761 132.797 C 150.318 133.354,150.623 133.961,150.438 134.145 C 150.254 134.330,150.504 134.949,150.994 135.522 C 151.484 136.094,151.887 136.771,151.890 137.026 C 151.908 138.881,154.340 141.580,156.155 141.759 C 158.634 142.004,160.231 144.173,159.647 146.501 C 159.210 148.241,160.695 151.250,161.990 151.250 C 162.765 151.250,166.250 154.913,166.250 155.727 C 166.250 156.502,172.278 159.375,173.903 159.375 C 174.697 159.375,175.950 159.797,176.686 160.313 C 177.423 160.829,180.228 161.554,182.919 161.924 C 185.610 162.294,188.667 162.717,189.711 162.864 C 190.983 163.044,191.967 163.737,192.693 164.965 C 194.655 168.287,197.382 168.052,200.030 164.333 C 201.868 161.752,203.884 161.053,206.890 161.953 C 208.865 162.545,209.741 162.489,211.872 161.637 C 213.294 161.068,214.712 160.759,215.023 160.952 C 215.754 161.404,218.428 160.002,221.492 157.561 C 223.579 155.899,224.434 155.625,227.544 155.625 C 231.436 155.625,232.452 154.677,231.563 151.875 C 231.253 150.900,231.450 150.625,232.458 150.625 C 233.176 150.625,233.750 150.218,233.750 149.709 C 233.750 148.457,236.105 147.128,238.631 146.953 C 241.111 146.782,242.032 145.364,242.111 141.595 L 242.188 137.977 244.990 136.880 C 249.838 134.983,250.920 132.489,249.062 127.500 C 248.486 125.953,247.598 122.578,247.088 120.000 C 246.168 115.338,244.474 105.751,244.409 104.830 C 244.390 104.565,243.702 104.042,242.879 103.667 C 242.057 103.292,240.637 101.510,239.725 99.707 C 238.766 97.812,236.705 95.269,234.842 93.683 C 233.069 92.173,230.182 89.611,228.428 87.990 C 222.480 82.496,198.914 75.552,192.825 77.498 M0.635 187.344 L 0.625 224.375 45.709 224.375 C 89.952 224.375,90.766 224.353,89.299 223.200 C 88.477 222.553,87.425 220.936,86.960 219.606 C 84.844 213.550,80.960 212.118,81.112 217.449 C 81.155 218.962,78.615 221.250,76.891 221.250 C 76.008 221.250,75.605 219.330,76.240 218.144 C 76.737 217.215,76.576 216.935,75.366 216.632 C 74.376 216.383,73.865 215.789,73.831 214.848 C 73.631 209.341,71.606 205.625,70.078 207.965 C 68.768 209.971,65.383 210.033,66.622 208.028 C 66.899 207.580,66.794 207.477,66.342 207.756 C 65.922 208.015,65.441 207.727,65.199 207.071 C 64.970 206.448,64.392 205.703,63.916 205.417 C 62.920 204.818,63.786 203.146,66.495 200.437 C 69.006 197.925,70.874 193.806,69.705 193.358 C 68.143 192.758,65.522 193.712,64.235 195.348 C 62.121 198.036,60.819 197.066,61.131 193.038 C 61.222 191.862,58.883 191.229,55.960 191.637 C 54.838 191.794,53.563 191.511,52.841 190.945 C 50.982 189.488,52.708 188.171,56.735 187.973 C 60.547 187.785,62.763 184.527,60.303 182.728 C 59.385 182.057,59.329 181.746,59.984 180.957 C 61.471 179.165,62.597 179.783,62.154 182.147 C 61.764 184.223,61.830 184.313,64.157 184.893 C 69.587 186.247,69.349 186.264,68.708 184.577 C 68.387 183.734,68.125 182.286,68.125 181.360 C 68.125 179.944,67.604 179.430,64.844 178.120 C 61.593 176.577,61.564 176.538,61.727 173.935 L 61.891 171.308 59.087 171.471 C 57.545 171.560,56.088 171.829,55.850 172.067 C 54.883 173.034,53.064 172.421,52.500 170.938 C 51.818 169.143,50.285 168.923,48.666 170.388 C 46.924 171.965,45.435 171.038,45.949 168.695 C 46.348 166.883,46.293 166.808,45.062 167.467 C 43.830 168.126,43.750 168.015,43.750 165.647 C 43.750 164.260,43.469 163.125,43.125 163.125 C 42.781 163.125,42.500 163.415,42.500 163.770 C 42.500 164.691,39.811 165.611,39.094 164.935 C 38.767 164.627,38.001 164.375,37.390 164.375 C 36.458 164.375,36.378 164.120,36.890 162.772 C 37.729 160.565,37.690 160.479,36.094 160.998 C 35.320 161.250,33.633 161.398,32.344 161.328 C 30.589 161.232,30.000 161.443,30.000 162.167 C 30.000 162.982,29.799 163.011,28.731 162.349 C 27.351 161.494,26.279 162.390,26.260 164.414 C 26.243 166.060,22.551 169.219,21.891 168.151 C 21.547 167.594,21.675 166.616,22.233 165.537 C 22.724 164.588,23.125 163.236,23.125 162.531 C 23.125 161.581,23.529 161.250,24.688 161.250 C 25.547 161.250,26.250 160.969,26.250 160.625 C 26.250 160.281,25.688 160.000,25.000 160.000 C 23.528 160.000,23.354 158.607,24.688 157.500 C 25.734 156.631,25.974 153.750,25.000 153.750 C 24.656 153.750,24.375 154.165,24.375 154.673 C 24.375 155.181,23.672 156.057,22.813 156.620 C 21.953 157.183,21.250 158.023,21.250 158.487 C 21.250 159.565,18.927 160.827,17.764 160.380 C 17.244 160.181,16.875 160.420,16.875 160.957 C 16.875 161.462,16.662 161.875,16.403 161.875 C 16.143 161.875,15.562 162.789,15.112 163.906 C 14.661 165.023,14.030 166.426,13.709 167.023 C 12.797 168.718,13.015 169.897,14.375 170.625 C 16.065 171.530,16.036 173.750,14.334 173.750 C 13.624 173.750,12.560 173.491,11.969 173.176 C 11.083 172.701,10.900 172.880,10.917 174.205 C 10.932 175.374,10.387 176.119,8.908 176.954 L 6.878 178.098 7.081 172.189 L 7.284 166.280 5.829 166.645 C 5.029 166.846,4.375 166.747,4.375 166.424 C 4.375 166.102,3.771 165.861,3.032 165.888 C 1.222 165.955,0.854 164.624,2.560 164.178 C 3.777 163.860,3.877 163.544,3.502 161.202 C 3.210 159.375,3.342 158.276,3.939 157.572 C 6.890 154.088,6.581 151.121,3.331 151.742 C 2.370 151.926,1.525 151.703,1.193 151.179 C 0.874 150.676,0.640 165.831,0.635 187.344 M38.438 159.375 C 38.225 159.719,38.473 160.000,38.989 160.000 C 39.504 160.000,40.100 159.719,40.313 159.375 C 40.525 159.031,40.277 158.750,39.761 158.750 C 39.246 158.750,38.650 159.031,38.438 159.375 M44.416 182.522 C 46.566 183.673,45.083 187.500,42.487 187.500 C 41.132 187.500,38.125 185.165,38.125 184.113 C 38.125 182.409,42.254 181.365,44.416 182.522 M68.375 188.851 C 67.812 189.763,68.450 190.117,70.249 189.891 L 71.862 189.688 70.306 188.965 C 69.322 188.508,68.613 188.466,68.375 188.851 M63.007 200.523 C 64.556 201.866,63.797 203.125,61.438 203.125 C 60.348 203.125,60.000 202.772,60.000 201.667 C 60.000 199.141,60.983 198.767,63.007 200.523 M86.091 200.367 C 85.317 201.141,85.566 202.923,86.563 203.750 C 87.319 204.378,87.488 204.362,87.438 203.670 C 87.303 201.815,86.532 199.926,86.091 200.367 " stroke="none" fill="#000000" fill-rule="evenodd"></path></g></svg>