<svg id="svg" xmlns="http://www.w3.org/2000/svg" xmlns:xlink="http://www.w3.org/1999/xlink" width="400" height="225" viewBox="0, 0, 400,225"><g id="svgg"><path id="path0" d="M0.625 27.812 C 0.625 42.766,0.836 54.939,1.094 54.864 C 4.060 54.003,6.617 57.404,6.131 61.564 C 5.965 62.989,6.137 63.750,6.626 63.750 C 7.039 63.750,7.893 65.000,8.526 66.529 C 9.642 69.229,10.688 69.972,13.397 69.991 C 14.063 69.996,15.237 70.592,16.008 71.316 C 17.978 73.167,24.688 73.305,24.688 71.494 C 24.688 69.845,25.510 68.751,26.756 68.744 C 27.403 68.740,28.284 67.667,29.028 65.973 C 29.697 64.452,30.681 63.056,31.216 62.872 C 31.750 62.687,32.681 62.177,33.284 61.738 C 34.459 60.884,37.500 63.533,37.500 65.410 C 37.500 65.872,37.758 66.250,38.074 66.250 C 38.390 66.250,39.093 66.421,39.636 66.629 C 40.198 66.845,40.625 66.686,40.625 66.261 C 40.625 65.849,41.258 64.976,42.031 64.319 C 43.338 63.210,43.360 63.078,42.344 62.469 C 41.742 62.108,41.250 61.235,41.250 60.528 C 41.250 59.821,40.523 58.671,39.635 57.972 L 38.020 56.702 41.823 52.865 C 46.079 48.571,46.292 47.966,44.058 46.502 L 42.491 45.475 43.876 43.206 C 44.637 41.958,45.694 40.606,46.224 40.201 C 47.086 39.542,47.079 39.422,46.155 39.064 C 44.543 38.438,44.307 36.368,45.735 35.368 C 46.919 34.539,46.925 34.465,45.855 33.866 C 44.256 32.972,45.794 30.200,48.179 29.676 C 49.360 29.416,49.817 29.000,49.585 28.396 C 49.358 27.804,49.661 27.500,50.480 27.500 C 51.744 27.500,52.922 24.313,52.131 23.033 C 51.020 21.236,55.843 18.813,57.517 20.328 C 59.195 21.846,65.976 21.389,65.838 19.767 C 65.783 19.124,66.627 17.780,67.713 16.781 C 68.799 15.782,70.151 14.531,70.718 14.002 C 71.437 13.330,71.878 13.250,72.179 13.737 C 72.476 14.217,73.294 14.030,74.815 13.132 C 76.028 12.417,78.254 11.662,79.760 11.456 C 81.337 11.239,82.500 10.748,82.500 10.298 C 82.500 9.868,83.372 8.851,84.437 8.039 C 85.502 7.227,86.838 6.101,87.406 5.536 C 88.344 4.603,90.470 4.271,95.834 4.218 C 96.853 4.208,97.289 4.006,96.860 3.741 C 96.422 3.470,96.289 2.736,96.538 1.953 L 96.959 0.625 48.792 0.625 L 0.625 0.625 0.625 27.812 M337.419 1.707 C 337.847 2.472,337.732 3.285,337.027 4.479 C 335.585 6.919,336.775 8.125,340.625 8.125 C 345.209 8.125,346.705 11.863,342.827 13.629 C 339.797 15.010,342.397 18.645,345.803 17.790 C 347.985 17.243,348.484 18.486,346.582 19.732 C 343.649 21.654,344.927 25.625,348.479 25.625 C 350.978 25.625,351.713 26.717,350.606 28.786 C 349.510 30.833,351.853 35.381,355.338 37.969 C 358.635 40.418,358.970 40.449,359.906 38.395 C 361.018 35.953,363.341 36.523,363.750 39.337 C 364.010 41.126,364.398 41.574,366.063 42.003 C 368.888 42.733,369.028 43.376,366.838 45.566 C 364.830 47.574,364.857 48.750,366.912 48.750 C 367.579 48.750,368.125 49.134,368.125 49.603 C 368.125 50.516,373.243 52.798,375.313 52.807 C 376.593 52.813,376.859 56.729,375.631 57.500 C 374.788 58.030,375.443 61.120,376.898 63.474 C 378.386 65.883,378.564 65.907,385.469 64.616 C 387.077 64.315,387.500 64.446,387.500 65.243 C 387.500 66.551,389.362 66.534,392.158 65.200 C 394.811 63.936,395.529 64.413,394.147 66.521 C 392.813 68.558,392.858 69.159,394.375 69.556 C 395.144 69.757,395.625 70.409,395.625 71.250 C 395.625 72.094,396.106 72.743,396.882 72.946 C 398.164 73.281,398.552 74.252,398.950 78.125 C 399.074 79.328,399.220 62.383,399.275 40.469 L 399.375 0.625 368.094 0.625 C 338.610 0.625,336.848 0.687,337.419 1.707 M64.844 19.844 C 64.997 20.302,64.566 20.625,63.802 20.625 C 63.034 20.625,62.500 20.221,62.500 19.642 C 62.500 18.493,64.450 18.661,64.844 19.844 M158.487 38.750 C 155.831 41.300,154.079 42.500,153.013 42.500 C 152.150 42.500,150.954 43.041,150.355 43.703 C 149.756 44.365,147.719 45.689,145.827 46.646 C 143.936 47.603,142.014 48.920,141.556 49.573 C 141.083 50.249,140.407 50.564,139.988 50.305 C 139.424 49.956,139.420 50.167,139.972 51.198 C 140.790 52.726,140.363 54.727,139.118 55.205 C 138.639 55.389,137.916 54.813,137.423 53.856 C 136.950 52.938,136.272 51.877,135.918 51.498 C 135.067 50.589,132.500 51.538,132.500 52.762 C 132.500 53.534,131.306 53.668,125.328 53.563 C 118.629 53.446,118.062 53.531,116.734 54.850 C 115.952 55.627,114.609 56.804,113.750 57.466 C 112.349 58.544,112.274 58.811,113.023 60.038 C 114.159 61.899,112.328 64.142,111.056 62.449 C 110.129 61.217,107.167 61.368,104.422 62.788 C 103.303 63.367,101.978 63.683,101.478 63.491 C 100.978 63.300,99.245 63.830,97.628 64.671 C 96.011 65.512,93.624 66.314,92.324 66.454 C 91.023 66.593,89.758 66.921,89.511 67.182 C 89.264 67.443,90.702 67.458,92.706 67.215 C 97.092 66.683,96.937 68.655,92.446 70.541 C 91.108 71.103,90.010 71.770,90.006 72.024 C 90.000 72.469,88.840 74.032,86.875 76.243 C 86.359 76.823,85.626 77.835,85.246 78.492 C 84.865 79.150,84.021 79.785,83.371 79.904 C 81.439 80.259,80.956 81.095,81.785 82.645 C 82.391 83.777,82.362 84.944,81.640 88.388 C 80.836 92.224,80.841 92.874,81.689 94.167 C 82.214 94.969,82.435 95.625,82.180 95.625 C 81.925 95.625,82.872 96.879,84.285 98.412 C 86.413 100.721,86.792 101.507,86.496 102.991 C 86.022 105.358,91.524 110.625,94.470 110.625 C 96.203 110.625,96.294 110.753,96.121 112.947 C 95.970 114.857,96.159 115.306,97.188 115.483 C 97.875 115.601,98.859 115.867,99.375 116.073 C 99.891 116.279,100.664 116.390,101.094 116.321 C 101.523 116.252,101.875 116.465,101.875 116.796 C 101.875 117.126,101.523 117.538,101.094 117.711 C 100.664 117.884,100.954 118.049,101.738 118.076 C 102.523 118.103,103.326 118.547,103.524 119.063 C 103.722 119.578,104.183 120.000,104.549 120.000 C 104.915 120.000,105.658 120.380,106.201 120.844 C 106.743 121.309,108.875 122.354,110.938 123.167 C 115.354 124.908,116.019 125.405,120.990 130.677 C 121.935 131.680,123.224 132.500,123.854 132.500 C 125.295 132.500,125.313 133.062,123.906 134.130 C 122.905 134.890,122.945 134.962,124.392 134.980 C 125.306 134.992,126.865 134.184,128.092 133.063 L 130.213 131.126 131.343 132.594 C 131.964 133.402,132.478 134.536,132.486 135.114 C 132.494 135.693,132.992 136.325,133.594 136.519 C 134.801 136.910,136.409 139.862,135.880 140.718 C 135.476 141.371,136.751 142.717,138.346 143.321 C 138.994 143.567,139.359 144.141,139.173 144.624 C 138.991 145.099,139.384 146.069,140.046 146.780 C 140.708 147.491,141.254 148.577,141.259 149.193 C 141.276 151.460,142.023 153.018,143.246 153.338 C 143.936 153.518,144.334 153.936,144.129 154.267 C 143.925 154.598,145.022 156.150,146.566 157.717 C 148.111 159.284,149.375 161.099,149.375 161.749 C 149.375 162.793,150.342 165.316,151.809 168.097 C 152.073 168.597,153.531 169.324,155.050 169.712 C 158.472 170.586,160.625 171.889,160.625 173.088 C 160.625 173.797,160.792 173.833,161.375 173.250 C 162.533 172.092,163.125 172.354,163.125 174.025 C 163.125 175.455,163.396 175.576,167.516 175.982 C 171.510 176.376,171.872 176.526,171.517 177.644 C 171.082 179.014,172.336 178.845,175.838 177.063 C 177.397 176.270,177.741 176.274,178.651 177.098 C 179.447 177.818,179.972 177.878,180.905 177.356 C 181.817 176.845,182.186 176.870,182.381 177.456 C 182.537 177.925,182.933 177.653,183.370 176.775 C 184.386 174.738,185.984 174.854,185.770 176.950 C 185.575 178.867,190.462 179.564,200.625 179.067 C 203.547 178.924,206.289 178.795,206.719 178.779 C 207.148 178.763,207.500 178.181,207.500 177.485 C 207.500 175.622,210.358 174.681,212.250 175.921 C 213.930 177.021,214.616 177.146,214.063 176.250 C 213.548 175.417,214.964 175.460,217.528 176.354 C 219.120 176.908,219.676 176.908,219.861 176.354 C 219.995 175.953,221.233 175.625,222.612 175.625 C 223.991 175.625,226.007 175.163,227.091 174.598 C 230.771 172.682,231.232 172.500,232.415 172.500 C 234.621 172.500,238.066 170.638,240.448 168.159 C 241.754 166.801,244.215 165.072,245.918 164.319 C 247.621 163.566,249.417 162.548,249.908 162.057 C 250.399 161.566,251.437 160.747,252.216 160.237 C 252.994 159.727,253.819 158.551,254.049 157.623 C 254.594 155.429,256.676 153.230,259.219 152.165 C 260.505 151.626,261.250 150.876,261.250 150.119 C 261.250 149.462,261.950 147.894,262.805 146.634 C 263.660 145.374,264.520 143.702,264.717 142.918 C 264.913 142.135,266.152 140.448,267.468 139.170 C 268.785 137.892,270.001 136.080,270.171 135.142 C 270.341 134.205,271.040 131.927,271.726 130.080 C 273.000 126.650,272.312 124.375,270.000 124.375 C 268.717 124.375,269.432 122.621,270.861 122.262 C 273.088 121.703,276.423 114.625,276.760 109.741 C 276.905 107.649,277.341 105.543,277.730 105.060 C 278.119 104.578,278.359 103.718,278.262 103.150 C 277.990 101.541,279.892 97.540,281.747 95.821 C 283.305 94.377,283.348 94.209,282.338 93.470 C 280.904 92.422,280.996 91.017,282.769 86.909 C 283.779 84.567,284.076 83.105,283.721 82.222 C 283.437 81.515,283.039 79.912,282.836 78.660 C 282.634 77.407,281.601 75.297,280.542 73.972 C 279.483 72.647,278.372 70.930,278.073 70.156 C 277.762 69.348,277.000 68.750,276.282 68.750 C 275.528 68.750,274.651 68.013,274.073 66.895 C 272.627 64.099,269.925 61.875,267.975 61.875 C 265.930 61.875,265.665 60.205,267.230 57.188 C 267.808 56.074,267.882 55.630,267.414 56.094 C 266.194 57.302,264.582 57.025,262.869 55.313 C 262.010 54.453,261.045 53.750,260.725 53.750 C 260.405 53.750,259.666 53.020,259.081 52.128 C 258.389 51.072,257.624 50.610,256.886 50.803 C 254.111 51.529,244.361 47.854,242.163 45.255 C 240.230 42.969,234.598 41.250,229.037 41.250 C 226.428 41.250,223.736 40.952,223.055 40.587 C 221.249 39.621,218.775 42.103,218.761 44.896 C 218.747 47.651,217.297 47.213,216.875 44.326 C 216.251 40.057,214.109 38.850,207.031 38.777 C 205.570 38.762,204.375 38.469,204.375 38.125 C 204.375 37.781,203.948 37.500,203.426 37.500 C 202.723 37.500,202.579 37.909,202.872 39.077 C 203.248 40.575,203.156 40.641,201.044 40.379 C 198.883 40.111,198.814 40.167,198.628 42.347 C 198.396 45.077,197.345 45.592,196.371 43.454 C 195.975 42.585,195.212 41.875,194.674 41.875 C 194.135 41.875,193.741 41.523,193.797 41.094 C 193.994 39.578,193.743 38.750,193.086 38.750 C 192.720 38.750,192.509 39.383,192.617 40.156 C 192.784 41.361,192.544 41.550,190.938 41.473 C 186.620 41.267,179.879 39.788,179.569 38.979 C 179.381 38.489,178.337 38.125,177.121 38.125 C 175.954 38.125,175.000 37.844,175.000 37.500 C 175.000 37.156,174.367 36.872,173.594 36.868 C 172.820 36.865,170.807 36.443,169.119 35.931 C 163.821 34.323,162.820 34.589,158.487 38.750 M0.625 185.580 L 0.625 224.375 47.500 224.375 C 89.625 224.375,94.375 224.276,94.375 223.396 C 94.375 221.536,93.093 220.000,91.541 220.000 C 89.229 220.000,87.500 217.913,87.500 215.125 C 87.500 212.540,88.408 211.158,89.764 211.678 C 90.237 211.860,90.625 211.709,90.625 211.342 C 90.625 210.975,89.430 210.351,87.969 209.954 C 86.508 209.557,84.961 209.133,84.531 209.011 C 82.266 208.369,85.394 205.008,88.281 204.981 C 89.876 204.966,90.092 204.833,89.289 204.364 C 87.903 203.555,87.189 200.578,88.227 199.937 C 89.613 199.081,88.455 198.760,86.215 199.379 C 84.155 199.949,81.667 202.500,83.172 202.500 C 85.199 202.500,82.940 204.030,80.707 204.169 C 79.209 204.262,77.362 204.885,76.447 205.604 C 73.558 207.877,72.635 206.814,75.302 204.284 C 77.089 202.589,77.498 199.800,75.867 200.426 C 75.027 200.749,74.929 200.496,75.279 198.903 C 75.691 197.027,75.659 196.996,73.474 197.199 C 72.251 197.313,71.250 197.300,71.250 197.170 C 71.250 196.067,72.902 193.748,73.694 193.740 C 76.100 193.717,76.608 192.561,74.531 191.836 C 73.362 191.428,72.492 190.690,72.482 190.095 C 72.438 187.627,68.955 184.968,67.060 185.956 C 63.518 187.803,61.565 185.884,64.118 183.064 C 65.737 181.274,66.309 177.551,65.272 175.546 C 64.778 174.592,64.375 172.560,64.375 171.030 C 64.375 167.671,62.860 166.844,57.633 167.346 C 54.894 167.609,54.375 167.495,54.375 166.627 C 54.375 165.450,51.607 164.120,49.575 164.319 C 48.644 164.411,46.982 163.241,44.324 160.624 C 42.185 158.519,40.267 157.029,40.061 157.314 C 38.102 160.031,32.500 162.490,32.500 160.633 C 32.500 160.294,31.538 159.615,30.363 159.124 C 27.712 158.016,26.899 156.554,26.790 152.697 C 26.743 151.042,26.579 150.353,26.424 151.166 C 26.270 151.979,25.605 152.786,24.947 152.958 C 24.289 153.130,23.750 153.452,23.750 153.673 C 23.750 154.720,21.138 155.685,20.264 154.960 C 19.521 154.343,19.435 154.521,19.742 156.053 C 20.004 157.362,19.796 158.139,19.013 158.785 C 18.001 159.619,17.951 159.544,18.353 157.813 C 18.669 156.449,18.615 156.193,18.154 156.875 C 17.805 157.391,17.515 158.598,17.510 159.559 C 17.504 160.544,16.820 162.038,15.937 162.990 C 14.500 164.540,14.277 165.276,14.074 169.159 C 14.004 170.493,12.722 172.500,11.941 172.500 C 9.993 172.500,9.200 167.993,10.567 164.693 C 11.342 162.825,11.845 160.793,11.685 160.179 C 11.415 159.141,11.390 159.139,11.323 160.156 C 11.231 161.534,9.375 161.610,9.375 160.236 C 9.375 159.408,9.204 159.364,8.444 159.995 C 7.854 160.484,7.649 161.316,7.886 162.259 C 8.172 163.397,8.006 163.750,7.188 163.750 C 6.355 163.750,6.202 163.400,6.507 162.188 C 6.722 161.328,6.642 160.625,6.329 160.625 C 5.088 160.625,5.041 158.471,6.238 156.443 C 6.932 155.266,7.500 153.476,7.500 152.464 C 7.500 151.453,7.781 150.625,8.125 150.625 C 8.469 150.625,8.750 150.327,8.750 149.963 C 8.750 149.599,8.488 149.463,8.168 149.661 C 7.215 150.250,6.706 148.769,7.523 147.785 C 8.331 146.811,7.521 146.512,6.531 147.419 C 5.273 148.573,2.601 148.762,1.608 147.768 C 0.714 146.875,0.625 150.303,0.625 185.580 M28.215 148.681 C 27.623 149.056,27.576 149.348,28.058 149.646 C 28.851 150.136,30.000 149.584,30.000 148.713 C 30.000 147.986,29.330 147.975,28.215 148.681 M61.250 150.080 C 61.250 151.127,62.699 154.375,63.167 154.375 C 63.466 154.375,63.532 153.883,63.314 153.281 C 62.863 152.037,61.250 149.536,61.250 150.080 M31.875 155.442 C 31.875 155.887,32.438 156.250,33.125 156.250 C 33.819 156.250,34.375 156.667,34.375 157.188 C 34.375 158.519,36.426 158.348,38.125 156.875 L 39.566 155.625 37.596 155.625 C 36.512 155.625,35.625 155.413,35.625 155.155 C 35.625 154.896,34.781 154.674,33.750 154.660 C 32.621 154.645,31.875 154.956,31.875 155.442 M58.482 158.482 C 57.942 159.022,57.509 159.796,57.520 160.201 C 57.532 160.666,57.830 160.593,58.330 160.000 C 58.764 159.484,59.515 158.711,59.997 158.281 C 60.535 157.803,60.602 157.500,60.170 157.500 C 59.782 157.500,59.022 157.942,58.482 158.482 M24.355 165.663 C 23.760 166.774,22.500 167.357,22.500 166.521 C 22.500 165.538,23.889 163.762,24.408 164.083 C 24.780 164.313,24.760 164.906,24.355 165.663 M156.406 174.181 C 157.008 174.338,157.500 174.727,157.500 175.046 C 157.500 175.364,157.816 175.625,158.202 175.625 C 158.686 175.625,158.663 175.335,158.125 174.688 C 157.697 174.172,156.889 173.783,156.330 173.823 C 155.471 173.884,155.483 173.940,156.406 174.181 M233.260 175.528 C 232.491 176.016,232.821 178.125,233.667 178.125 C 234.316 178.125,235.591 175.799,235.172 175.380 C 234.670 174.879,234.230 174.913,233.260 175.528 M67.510 180.052 C 67.515 180.539,67.797 181.359,68.136 181.875 C 68.626 182.619,68.713 182.526,68.560 181.422 C 68.336 179.824,67.495 178.726,67.510 180.052 M70.000 181.086 C 70.000 181.414,70.551 182.180,71.225 182.790 C 72.537 183.977,76.875 183.704,76.875 182.435 C 76.875 182.086,76.634 181.950,76.339 182.133 C 75.832 182.446,73.503 181.915,71.094 180.936 C 70.492 180.691,70.000 180.759,70.000 181.086 " stroke="none" fill="#000000" fill-rule="evenodd"></path></g></svg>