<svg id="svg" xmlns="http://www.w3.org/2000/svg" xmlns:xlink="http://www.w3.org/1999/xlink" width="400" height="225" viewBox="0, 0, 400,225"><g id="svgg"><path id="path0" d="M0.625 33.750 C 0.625 62.661,0.743 66.875,1.555 66.875 C 2.143 66.875,2.430 66.367,2.336 65.494 C 2.055 62.882,4.244 63.396,5.368 66.207 C 5.928 67.605,6.636 68.750,6.943 68.750 C 7.249 68.750,7.500 69.205,7.500 69.760 C 7.500 70.452,7.882 70.671,8.710 70.454 C 9.409 70.272,10.060 70.504,10.253 71.007 C 10.436 71.484,11.147 71.875,11.834 71.875 C 12.520 71.875,14.023 72.702,15.174 73.712 C 17.227 75.515,17.966 75.664,20.156 74.715 C 20.758 74.454,21.674 74.404,22.193 74.603 C 22.746 74.815,23.455 74.455,23.906 73.733 C 24.329 73.055,25.030 72.500,25.463 72.500 C 25.896 72.500,26.250 72.078,26.250 71.563 C 26.250 70.919,26.896 70.625,28.312 70.625 C 30.301 70.625,30.365 70.547,30.119 68.437 C 29.920 66.738,30.088 66.250,30.869 66.250 C 31.422 66.250,31.875 65.838,31.875 65.334 C 31.875 63.412,36.426 62.304,37.101 64.063 C 38.251 67.059,41.221 64.514,41.241 60.515 C 41.247 59.452,41.649 58.737,42.344 58.556 C 43.351 58.293,43.348 58.264,42.302 58.198 C 41.452 58.143,41.217 57.705,41.365 56.454 C 41.566 54.752,43.125 53.572,43.125 55.122 C 43.125 56.507,45.686 58.412,46.273 57.462 C 46.882 56.477,46.090 54.217,45.010 53.857 C 44.533 53.698,44.380 53.877,44.637 54.294 C 44.877 54.682,44.778 55.000,44.416 55.000 C 43.482 55.000,43.978 52.509,45.046 51.833 C 46.238 51.079,47.041 51.101,46.563 51.875 C 46.350 52.219,46.486 52.500,46.866 52.500 C 47.245 52.500,47.498 52.148,47.429 51.719 C 47.360 51.289,47.523 50.431,47.793 49.812 C 48.131 49.035,47.871 48.248,46.954 47.272 C 45.189 45.393,45.275 44.375,47.199 44.375 C 48.567 44.375,48.722 44.169,48.382 42.813 C 48.150 41.889,48.258 41.250,48.645 41.250 C 49.674 41.250,50.122 42.394,49.516 43.476 C 48.816 44.726,50.018 48.750,51.090 48.750 C 51.522 48.750,51.875 49.048,51.875 49.412 C 51.875 49.776,52.157 49.899,52.502 49.686 C 52.918 49.429,52.920 48.910,52.508 48.139 C 52.166 47.501,51.984 45.268,52.102 43.178 C 52.252 40.524,52.062 39.164,51.471 38.674 C 51.006 38.288,50.625 37.444,50.625 36.798 C 50.625 36.149,50.187 35.625,49.644 35.625 C 48.984 35.625,48.728 35.165,48.863 34.219 C 49.229 31.637,55.607 31.942,55.646 34.543 L 55.667 35.938 56.896 34.462 C 57.572 33.650,58.103 32.666,58.076 32.275 C 58.044 31.815,57.915 31.839,57.711 32.344 C 56.973 34.172,55.520 33.155,55.924 31.094 C 56.792 26.669,58.207 25.275,59.730 27.344 C 60.497 28.385,60.556 28.385,60.960 27.344 C 61.248 26.601,62.063 26.250,63.500 26.250 C 65.060 26.250,66.052 25.760,67.277 24.385 C 68.793 22.683,69.007 22.613,69.714 23.580 C 70.370 24.476,70.645 24.511,71.495 23.806 C 72.779 22.741,74.610 24.033,74.175 25.697 C 74.017 26.302,74.300 26.952,74.808 27.147 C 76.239 27.696,76.363 27.591,75.924 26.206 C 75.613 25.227,75.830 24.829,76.819 24.571 C 77.658 24.351,78.125 23.724,78.125 22.816 C 78.125 20.629,79.514 19.805,81.599 20.755 C 82.976 21.383,83.392 21.387,83.596 20.774 C 83.738 20.348,84.228 20.000,84.685 20.000 C 85.165 20.000,85.691 18.959,85.932 17.534 C 86.320 15.237,86.452 15.108,87.856 15.642 C 89.676 16.333,91.250 15.833,91.250 14.562 C 91.250 14.051,91.820 13.484,92.518 13.302 C 93.420 13.065,93.678 12.633,93.413 11.798 C 92.667 9.449,96.720 10.259,97.710 12.656 L 98.548 14.688 99.036 13.125 C 99.304 12.266,99.955 11.070,100.483 10.469 C 101.089 9.779,101.177 9.375,100.722 9.375 C 99.827 9.375,99.800 8.107,100.648 5.876 C 101.141 4.581,101.471 4.346,102.023 4.898 C 103.106 5.981,103.640 5.786,103.863 4.225 C 103.973 3.455,104.521 2.738,105.081 2.631 C 106.504 2.360,107.068 6.182,105.815 7.607 C 104.998 8.536,105.035 8.725,106.157 9.325 C 107.916 10.267,108.122 10.191,108.145 8.594 C 108.168 6.937,109.496 5.000,110.609 5.000 C 111.183 5.000,111.279 5.751,110.970 7.813 C 110.696 9.644,110.780 10.625,111.212 10.625 C 111.942 10.625,112.079 6.630,111.474 2.969 L 111.086 0.625 55.856 0.625 L 0.625 0.625 0.625 33.750 M302.652 3.164 C 303.118 4.999,303.100 5.900,302.586 6.414 C 300.591 8.409,301.742 9.370,305.640 8.962 C 308.915 8.620,309.356 8.698,309.025 9.559 C 308.781 10.195,309.347 11.178,310.605 12.306 C 312.216 13.751,312.626 14.673,312.914 17.500 L 313.264 20.938 311.234 21.075 C 308.647 21.251,308.265 21.658,309.514 22.907 C 310.344 23.736,310.867 23.788,312.539 23.205 C 315.287 22.247,316.457 22.309,316.042 23.392 C 315.627 24.471,316.603 25.313,318.906 25.863 C 320.017 26.129,320.625 26.684,320.625 27.435 C 320.625 28.074,321.044 28.944,321.556 29.369 C 322.067 29.794,322.332 30.391,322.144 30.696 C 321.955 31.001,322.099 31.250,322.463 31.250 C 323.930 31.250,322.997 32.899,321.132 33.603 L 319.139 34.356 320.548 35.856 C 321.873 37.266,322.269 37.337,327.135 37.034 C 332.029 36.728,332.330 36.783,332.660 38.045 C 332.878 38.879,333.345 39.251,333.905 39.037 C 335.535 38.411,336.589 40.464,335.344 41.840 C 333.747 43.605,334.344 45.191,336.795 45.692 C 337.950 45.928,339.694 46.713,340.672 47.436 C 342.853 49.049,342.563 49.066,344.747 47.188 C 347.278 45.011,348.750 45.126,348.750 47.500 C 348.750 48.531,348.986 49.375,349.275 49.375 C 349.563 49.375,350.115 50.068,350.501 50.915 C 351.322 52.718,350.448 53.650,349.035 52.477 C 348.322 51.886,347.922 51.891,347.188 52.500 C 345.410 53.975,346.062 55.119,348.594 54.966 C 353.109 54.695,354.214 54.942,354.571 56.306 C 354.824 57.276,355.233 57.510,356.158 57.217 C 358.880 56.353,364.039 60.850,361.866 62.193 C 360.370 63.118,361.243 64.533,363.084 64.164 C 364.486 63.884,364.984 64.049,365.199 64.868 C 365.403 65.644,365.500 65.551,365.552 64.531 C 365.603 63.550,366.015 63.125,366.917 63.125 C 367.894 63.125,368.119 63.409,367.839 64.292 C 367.126 66.537,368.600 68.754,371.716 70.127 C 373.350 70.847,375.922 72.519,377.432 73.843 C 378.941 75.167,380.669 76.250,381.271 76.250 C 381.873 76.250,382.539 76.701,382.751 77.252 C 382.962 77.804,383.486 78.120,383.915 77.956 C 384.343 77.791,385.036 78.023,385.454 78.470 C 386.046 79.103,386.047 79.339,385.459 79.534 C 384.997 79.689,385.395 80.426,386.487 81.438 C 387.880 82.729,388.182 83.437,387.870 84.680 C 387.177 87.441,394.224 88.868,395.625 86.250 C 396.988 83.702,397.980 84.786,397.828 88.660 C 397.650 93.227,397.323 93.750,394.651 93.750 C 392.773 93.750,392.500 93.949,392.500 95.313 C 392.500 97.078,395.371 97.639,396.001 95.997 C 396.191 95.503,397.001 95.192,397.856 95.286 L 399.375 95.453 399.375 48.039 L 399.375 0.625 350.691 0.625 L 302.008 0.625 302.652 3.164 M292.900 11.059 C 292.153 11.806,292.496 13.125,293.438 13.125 C 293.953 13.125,294.375 12.720,294.375 12.224 C 294.375 11.180,293.483 10.475,292.900 11.059 M181.422 34.444 C 180.260 36.412,176.676 36.588,174.452 34.787 C 172.843 33.485,162.797 33.693,161.331 35.059 C 160.628 35.714,159.494 36.250,158.812 36.250 C 158.129 36.250,157.203 36.772,156.754 37.410 C 156.305 38.049,155.234 38.788,154.375 39.054 C 153.516 39.320,151.615 40.634,150.151 41.974 C 147.636 44.276,146.621 44.856,143.281 45.896 C 142.268 46.212,141.875 46.081,141.875 45.427 C 141.875 44.507,139.641 43.765,138.258 44.227 C 137.817 44.374,137.500 45.633,137.500 47.240 C 137.500 50.356,135.682 51.192,134.343 48.691 C 133.875 47.816,133.237 47.488,132.420 47.702 C 131.650 47.903,130.928 47.593,130.474 46.866 C 129.784 45.760,129.694 45.772,128.427 47.140 C 127.698 47.927,126.699 48.729,126.207 48.923 C 125.536 49.188,125.585 49.289,126.406 49.326 C 127.008 49.353,127.496 49.586,127.490 49.844 C 127.463 51.194,126.151 51.729,122.188 52.006 C 117.409 52.341,113.442 53.968,110.313 56.878 C 106.889 60.060,101.875 60.461,101.875 57.552 C 101.874 55.352,99.033 55.037,98.496 57.177 C 98.257 58.131,97.517 58.715,96.222 58.974 C 93.190 59.581,90.813 63.125,93.438 63.125 C 95.413 63.125,94.147 64.814,89.693 68.125 C 85.810 71.010,85.123 71.788,85.414 72.969 C 85.773 74.425,84.699 74.975,84.193 73.594 C 83.683 72.204,82.292 74.152,82.292 76.256 C 82.292 77.602,82.041 78.083,81.458 77.859 C 81.000 77.683,80.625 77.918,80.625 78.381 C 80.625 78.843,80.227 79.552,79.741 79.955 C 77.295 81.986,76.227 86.092,76.353 92.983 C 76.488 100.362,76.658 100.795,80.114 102.558 C 81.426 103.228,82.500 104.201,82.500 104.722 C 82.500 105.753,84.035 108.354,85.776 110.274 C 86.381 110.940,86.875 111.855,86.875 112.305 C 86.875 112.825,87.672 113.125,89.050 113.125 C 90.246 113.125,92.285 113.526,93.581 114.017 C 94.877 114.508,96.632 114.859,97.480 114.798 C 99.141 114.679,100.110 116.659,98.790 117.475 C 97.527 118.256,98.782 119.867,100.973 120.278 C 102.164 120.501,103.404 121.228,103.774 121.919 C 104.139 122.602,104.716 122.988,105.057 122.777 C 105.919 122.245,112.982 125.791,115.607 128.075 L 117.777 129.962 116.322 131.317 C 115.219 132.344,114.749 132.480,114.378 131.880 C 114.016 131.295,113.093 131.223,110.850 131.607 C 108.238 132.053,108.075 132.159,109.688 132.361 C 110.719 132.490,111.799 132.826,112.089 133.106 C 112.379 133.386,113.644 133.481,114.902 133.317 C 117.657 132.957,120.625 133.984,120.625 135.297 C 120.625 136.472,121.915 136.510,124.551 135.413 C 127.502 134.186,131.250 136.379,131.250 139.333 C 131.250 140.425,131.508 140.627,132.500 140.313 C 133.527 139.986,133.750 140.200,133.750 141.513 C 133.750 143.267,135.442 145.625,136.701 145.625 C 137.141 145.625,137.500 146.194,137.500 146.888 C 137.500 147.630,138.146 148.446,139.063 148.864 C 140.965 149.731,141.071 150.625,139.325 151.082 C 138.349 151.337,138.119 151.752,138.402 152.742 C 138.610 153.468,138.952 154.851,139.163 155.816 C 139.389 156.855,139.860 157.448,140.319 157.272 C 140.744 157.108,141.456 157.655,141.902 158.487 C 142.801 160.167,143.931 160.573,143.327 158.999 C 143.044 158.263,143.255 158.058,144.123 158.225 C 144.866 158.369,145.423 159.145,145.626 160.320 C 145.804 161.347,146.228 162.047,146.569 161.875 C 146.909 161.703,147.503 162.539,147.889 163.733 C 148.705 166.259,152.908 170.210,156.536 171.863 C 157.927 172.496,160.157 173.883,161.493 174.945 C 162.829 176.006,164.269 176.875,164.693 176.875 C 165.117 176.875,166.117 177.828,166.915 178.993 C 168.150 180.796,168.536 181.005,169.515 180.399 C 170.412 179.843,170.785 179.884,171.221 180.585 C 171.674 181.312,171.959 181.333,172.727 180.696 C 173.994 179.645,177.188 180.041,177.188 181.250 C 177.188 182.180,178.023 183.097,178.887 183.115 C 179.134 183.121,179.173 182.700,178.973 182.180 C 178.710 181.494,178.897 181.346,179.655 181.637 C 180.379 181.914,180.802 181.646,181.033 180.764 C 181.216 180.064,181.832 179.324,182.402 179.120 C 182.971 178.916,183.753 178.597,184.139 178.412 C 184.525 178.226,184.984 178.622,185.159 179.291 C 185.451 180.406,185.869 180.476,190.083 180.121 C 195.178 179.691,197.592 179.674,204.063 180.019 C 207.022 180.178,208.943 179.972,210.000 179.384 C 212.219 178.149,213.829 178.150,215.158 179.388 C 216.383 180.530,223.462 181.050,222.781 179.949 C 222.586 179.633,221.677 179.375,220.762 179.375 L 219.097 179.375 220.364 178.108 C 221.309 177.163,222.534 176.818,225.190 176.748 C 227.679 176.682,228.750 176.405,228.750 175.827 C 228.750 175.372,229.186 175.000,229.720 175.000 C 230.253 175.000,231.730 174.448,233.001 173.774 C 234.272 173.099,236.046 172.401,236.943 172.222 C 237.839 172.042,239.804 170.625,241.308 169.073 C 242.813 167.520,244.224 166.250,244.444 166.250 C 244.664 166.250,246.497 165.488,248.516 164.558 C 250.535 163.627,252.469 162.853,252.813 162.839 C 253.156 162.824,254.237 161.195,255.214 159.219 C 256.818 155.974,258.125 154.632,258.125 156.230 C 258.125 157.362,259.885 156.167,260.234 154.799 C 260.591 153.398,262.503 151.209,264.664 149.727 C 265.756 148.978,265.790 148.764,264.976 147.778 C 264.276 146.930,264.245 146.610,264.844 146.409 C 265.273 146.264,265.625 145.607,265.625 144.948 C 265.625 144.289,265.906 143.750,266.250 143.750 C 266.594 143.750,266.875 143.450,266.875 143.083 C 266.875 142.309,269.968 138.030,271.016 137.354 C 271.407 137.102,271.743 135.734,271.763 134.315 C 271.789 132.443,272.153 131.486,273.087 130.831 C 273.795 130.335,274.375 129.445,274.375 128.854 C 274.375 128.262,274.792 127.183,275.301 126.456 C 276.107 125.305,276.110 125.037,275.324 124.385 C 274.547 123.740,274.597 123.399,275.686 121.926 C 276.489 120.839,276.961 119.208,276.980 117.452 C 276.996 115.931,277.214 114.406,277.463 114.063 C 277.712 113.719,278.736 111.261,279.739 108.602 C 280.975 105.323,281.889 103.763,282.575 103.758 C 283.256 103.753,283.839 102.778,284.355 100.781 C 284.777 99.148,285.280 97.391,285.472 96.875 C 285.665 96.359,285.761 95.565,285.686 95.110 C 285.610 94.655,285.815 93.952,286.140 93.547 C 286.466 93.143,286.671 90.000,286.597 86.563 C 286.398 77.367,283.929 72.583,273.908 61.980 C 270.879 58.774,269.252 56.515,268.995 55.156 C 268.781 54.024,268.227 53.125,267.743 53.125 C 267.228 53.125,266.850 52.426,266.813 51.406 C 266.751 49.714,266.744 49.711,266.327 51.204 C 265.700 53.446,264.982 53.349,261.898 50.606 C 260.363 49.241,258.746 48.125,258.304 48.125 C 257.862 48.125,257.500 47.844,257.500 47.500 C 257.500 47.156,256.366 46.875,254.979 46.875 C 252.750 46.875,252.305 46.616,251.139 44.640 C 250.139 42.945,249.679 42.605,249.238 43.234 C 248.782 43.882,248.586 43.893,248.338 43.282 C 248.147 42.812,247.447 42.646,246.574 42.865 C 245.738 43.075,243.263 42.557,240.718 41.639 C 237.730 40.561,234.640 39.976,231.124 39.823 C 228.271 39.699,225.149 39.215,224.186 38.746 C 222.661 38.005,222.203 38.031,220.652 38.947 C 218.396 40.280,218.125 40.267,218.125 38.825 C 218.125 37.314,209.211 36.502,201.094 37.274 C 199.117 37.462,197.500 37.871,197.500 38.183 C 197.500 39.662,194.849 38.489,193.003 36.192 C 191.033 33.741,190.933 33.695,190.603 35.095 C 190.206 36.777,188.125 37.510,188.125 35.968 C 188.125 35.419,187.422 34.702,186.563 34.375 C 185.703 34.048,185.000 33.553,185.000 33.273 C 185.000 31.901,182.427 32.743,181.422 34.444 M129.375 51.615 C 129.375 52.718,128.030 52.526,127.643 51.367 C 127.507 50.959,127.841 50.625,128.385 50.625 C 128.930 50.625,129.375 51.070,129.375 51.615 M82.969 60.431 C 82.367 60.588,81.875 61.095,81.875 61.557 C 81.875 62.020,81.693 62.913,81.471 63.543 C 81.140 64.479,81.219 64.545,81.908 63.906 C 83.197 62.710,84.751 62.856,83.737 64.078 C 82.421 65.664,83.663 65.954,85.112 64.398 C 86.418 62.997,86.424 62.923,85.299 62.100 C 84.659 61.633,84.471 61.250,84.881 61.250 C 85.290 61.250,85.625 60.969,85.625 60.625 C 85.625 59.983,84.887 59.929,82.969 60.431 M99.375 61.563 C 99.375 62.083,98.819 62.500,98.125 62.500 C 96.880 62.500,96.499 61.834,97.292 61.042 C 98.053 60.280,99.375 60.611,99.375 61.563 M80.970 66.684 C 81.011 67.611,81.337 68.466,81.695 68.586 C 82.772 68.945,83.188 66.849,82.230 65.891 C 81.010 64.670,80.885 64.749,80.970 66.684 M49.729 139.066 C 48.432 141.475,48.849 142.809,50.299 140.892 C 51.060 139.886,51.645 136.875,51.080 136.875 C 50.986 136.875,50.378 137.861,49.729 139.066 M37.274 139.688 C 36.815 140.884,37.455 142.602,38.190 142.147 C 38.919 141.697,38.920 138.750,38.192 138.750 C 37.885 138.750,37.472 139.172,37.274 139.688 M3.750 144.375 C 2.229 146.510,1.467 146.731,1.056 145.156 C 0.899 144.555,0.737 162.133,0.698 184.219 L 0.625 224.375 49.844 224.365 C 76.914 224.360,98.754 224.149,98.377 223.897 C 98.001 223.644,97.508 222.683,97.282 221.760 C 97.057 220.838,96.336 219.913,95.681 219.705 C 93.050 218.870,94.984 215.760,100.246 212.366 C 100.719 212.061,100.594 211.577,99.852 210.835 C 98.822 209.804,98.673 209.840,96.902 211.536 C 95.163 213.203,95.007 213.243,94.595 212.130 C 94.031 210.606,93.352 210.149,90.461 209.349 C 87.550 208.543,88.083 206.815,91.756 205.147 C 93.024 204.571,94.183 204.018,94.329 203.918 C 95.151 203.360,91.955 201.945,90.528 202.235 C 88.499 202.648,87.592 201.465,89.095 200.366 C 90.757 199.151,89.748 198.320,86.196 197.979 C 82.977 197.669,81.715 196.770,82.312 195.213 C 82.499 194.727,82.212 194.375,81.629 194.375 C 81.077 194.375,80.625 194.110,80.625 193.786 C 80.625 193.462,80.063 193.305,79.375 193.438 C 78.688 193.570,78.125 193.379,78.125 193.013 C 78.125 192.592,77.780 192.633,77.188 193.125 C 76.672 193.553,76.254 193.658,76.260 193.358 C 76.274 192.564,77.477 190.822,77.500 191.563 C 77.523 192.303,78.726 190.561,78.740 189.767 C 78.746 189.467,78.328 189.572,77.813 190.000 C 76.972 190.697,76.627 190.457,76.780 189.283 C 76.809 189.060,76.279 189.023,75.604 189.199 C 73.910 189.642,74.031 188.251,75.859 186.284 C 76.708 185.370,77.476 183.610,77.656 182.166 L 77.970 179.644 75.866 179.890 C 74.359 180.066,73.655 179.854,73.381 179.142 C 72.799 177.623,70.750 179.012,70.510 181.088 C 70.385 182.174,69.882 182.884,69.135 183.025 C 68.153 183.212,68.024 182.980,68.354 181.624 C 68.572 180.731,68.932 179.255,69.154 178.344 C 69.406 177.307,69.324 176.833,68.933 177.075 C 67.870 177.731,66.875 174.504,66.875 170.403 C 66.875 166.142,65.845 163.917,64.171 164.559 C 63.616 164.773,62.734 164.520,62.211 163.997 C 61.362 163.148,61.068 163.162,59.422 164.134 C 57.503 165.268,55.625 164.633,55.625 162.851 C 55.625 161.980,48.919 158.998,47.412 159.199 C 46.788 159.283,46.079 158.596,45.603 157.448 C 45.155 156.366,44.484 155.689,44.030 155.863 C 43.567 156.041,43.046 155.473,42.772 154.490 C 41.933 151.480,41.943 151.142,42.861 151.495 C 44.190 152.004,43.933 151.040,42.502 150.147 C 40.324 148.786,40.286 148.831,40.095 153.037 C 40.006 155.009,39.896 155.108,38.281 154.674 C 37.336 154.420,35.791 154.154,34.848 154.082 C 31.862 153.855,30.462 152.013,30.926 148.921 C 31.146 147.452,31.103 146.250,30.829 146.250 C 29.269 146.250,23.099 149.944,22.217 151.406 C 21.646 152.352,20.638 153.125,19.977 153.125 C 18.586 153.125,18.119 154.665,18.298 158.656 C 18.397 160.877,18.137 161.604,16.877 162.624 C 15.230 163.958,13.126 168.737,13.126 171.146 C 13.125 173.395,11.594 172.412,11.359 170.012 C 11.248 168.869,11.581 167.062,12.101 165.998 C 13.543 163.043,13.987 161.707,14.096 160.000 C 14.150 159.141,14.383 158.006,14.613 157.478 C 14.911 156.793,14.668 156.518,13.765 156.518 C 13.069 156.518,12.500 156.739,12.500 157.009 C 12.500 158.308,11.363 157.285,11.046 155.700 C 10.795 154.444,10.205 153.780,9.093 153.501 C 7.130 153.008,7.042 151.642,8.889 150.348 C 9.653 149.813,9.966 149.375,9.584 149.375 C 9.202 149.375,8.704 148.391,8.479 147.188 C 8.253 145.984,7.819 145.000,7.514 145.000 C 7.209 145.000,6.781 144.438,6.563 143.750 C 6.015 142.026,5.312 142.182,3.750 144.375 M116.094 144.737 C 115.836 144.996,115.625 145.724,115.625 146.354 C 115.625 147.182,115.148 147.506,113.906 147.523 C 111.919 147.549,108.369 151.572,109.292 152.753 C 109.587 153.129,110.012 154.211,110.238 155.156 C 110.464 156.102,110.925 156.875,111.262 156.875 C 111.599 156.875,111.875 157.388,111.875 158.014 C 111.875 159.312,115.922 161.521,119.375 162.108 C 122.020 162.558,125.802 161.341,127.533 159.484 C 128.906 158.010,129.717 157.787,130.297 158.725 C 130.511 159.071,131.190 158.879,131.897 158.274 C 133.482 156.917,133.471 156.056,131.875 156.563 C 130.321 157.056,130.097 155.163,131.640 154.571 C 132.833 154.113,123.584 145.005,121.913 144.993 C 121.377 144.989,119.953 144.824,118.750 144.626 C 117.547 144.427,116.352 144.477,116.094 144.737 M60.005 147.494 C 59.263 147.955,59.231 148.231,59.849 148.849 C 60.860 149.860,60.830 151.256,59.751 153.498 C 58.169 156.784,58.014 157.949,59.100 158.366 C 60.346 158.844,61.250 158.341,61.250 157.170 C 61.250 156.686,61.602 156.421,62.031 156.583 C 62.461 156.745,63.292 156.033,63.877 155.001 C 64.463 153.969,64.683 153.125,64.366 153.125 C 64.049 153.125,63.951 152.703,64.149 152.188 C 64.366 151.622,64.152 151.250,63.610 151.250 C 62.791 151.250,61.650 149.599,61.139 147.676 C 61.004 147.166,60.630 147.106,60.005 147.494 M48.196 150.364 C 46.724 152.235,46.488 154.363,47.625 155.500 C 48.924 156.799,49.273 156.346,49.718 152.784 C 50.238 148.620,49.941 148.146,48.196 150.364 M36.250 159.375 C 36.250 159.719,35.828 160.000,35.313 160.000 C 34.797 160.000,34.375 159.719,34.375 159.375 C 34.375 159.031,34.797 158.750,35.313 158.750 C 35.828 158.750,36.250 159.031,36.250 159.375 M67.147 160.372 C 67.372 161.269,67.244 162.368,66.861 162.829 C 66.299 163.506,66.500 163.575,67.928 163.193 C 69.765 162.702,69.855 162.463,69.078 160.156 C 68.381 158.088,66.623 158.285,67.147 160.372 M144.599 164.057 C 144.889 164.812,144.573 165.687,143.659 166.660 C 142.355 168.047,142.346 168.126,143.485 168.145 C 144.671 168.164,144.671 168.177,143.483 169.076 C 141.954 170.233,142.496 170.807,144.614 170.275 C 146.265 169.861,146.884 167.966,145.623 167.186 C 145.278 166.973,145.160 166.143,145.361 165.342 C 145.575 164.488,145.403 163.687,144.944 163.403 C 144.382 163.056,144.285 163.239,144.599 164.057 M84.335 169.110 C 83.658 169.927,83.672 170.193,84.415 170.663 C 85.847 171.569,86.250 171.355,86.250 169.688 C 86.250 167.900,85.522 167.681,84.335 169.110 M76.875 169.949 C 76.875 172.433,78.891 173.322,79.967 171.312 C 80.453 170.403,80.374 170.037,79.625 169.750 C 78.188 169.198,76.875 169.293,76.875 169.949 M90.625 215.625 C 90.226 216.371,89.758 216.841,89.586 216.670 C 89.414 216.498,89.601 215.746,90.000 215.000 C 90.399 214.254,90.867 213.784,91.039 213.955 C 91.211 214.127,91.024 214.879,90.625 215.625 " stroke="none" fill="#000000" fill-rule="evenodd"></path></g></svg>