<svg id="svg" xmlns="http://www.w3.org/2000/svg" xmlns:xlink="http://www.w3.org/1999/xlink" width="400" height="225" viewBox="0, 0, 400,225"><g id="svgg"><path id="path0" d="M0.674 37.344 C 0.701 57.539,0.856 73.741,1.017 73.348 C 1.178 72.954,1.877 72.781,2.571 72.962 C 3.265 73.144,4.520 72.924,5.361 72.474 C 6.666 71.776,7.003 71.801,7.664 72.650 C 8.089 73.197,8.999 73.742,9.686 73.862 C 10.442 73.993,10.936 74.569,10.936 75.321 C 10.937 76.318,11.375 76.572,13.165 76.610 C 14.390 76.636,15.751 76.879,16.188 77.149 C 16.626 77.420,17.297 77.328,17.679 76.946 C 18.667 75.958,20.030 76.084,21.357 77.284 C 22.424 78.250,22.500 78.244,22.500 77.201 C 22.500 75.876,26.876 71.177,27.659 71.661 C 27.957 71.845,29.098 71.630,30.194 71.183 C 33.133 69.985,35.064 67.273,32.500 67.944 C 31.532 68.197,31.250 67.963,31.250 66.906 C 31.250 65.825,31.510 65.623,32.500 65.938 C 33.387 66.219,33.750 66.050,33.750 65.355 C 33.750 64.007,37.432 64.043,38.425 65.401 C 39.091 66.312,39.371 66.171,40.912 64.151 C 41.867 62.899,43.132 61.875,43.724 61.875 C 44.315 61.875,45.120 61.172,45.511 60.313 C 45.903 59.453,46.510 58.750,46.862 58.750 C 47.213 58.750,47.500 58.342,47.500 57.844 C 47.500 57.346,48.555 56.151,49.844 55.188 C 51.133 54.225,52.483 53.061,52.845 52.600 C 53.207 52.140,53.910 51.822,54.407 51.893 C 56.713 52.224,57.120 51.884,55.842 50.693 C 55.145 50.043,54.622 48.855,54.681 48.052 C 54.741 47.239,54.212 46.101,53.488 45.484 C 52.216 44.400,52.214 44.356,53.374 43.457 C 54.338 42.711,54.416 42.365,53.789 41.609 C 52.906 40.546,53.396 39.375,54.724 39.375 C 55.220 39.375,55.625 39.094,55.625 38.750 C 55.625 38.406,56.047 38.125,56.563 38.125 C 57.078 38.125,57.500 38.547,57.500 39.063 C 57.500 39.578,57.781 40.000,58.125 40.000 C 58.469 40.000,58.750 39.719,58.750 39.375 C 58.750 39.031,59.031 38.750,59.375 38.750 C 59.719 38.750,60.000 39.172,60.000 39.688 C 60.000 40.203,60.281 40.625,60.625 40.625 C 61.966 40.625,60.937 37.344,58.901 35.130 C 58.095 34.254,58.373 33.125,59.394 33.125 C 60.178 33.125,65.821 29.244,66.437 28.281 C 67.535 26.566,70.484 27.367,71.214 29.577 C 71.934 31.759,73.782 32.085,77.188 30.631 C 77.875 30.337,79.141 29.947,80.000 29.764 C 81.473 29.450,81.550 29.232,81.348 25.966 C 81.152 22.786,81.795 21.479,82.776 23.066 C 82.969 23.378,83.618 23.559,84.219 23.469 C 84.821 23.378,84.961 23.425,84.531 23.573 C 84.102 23.721,83.750 24.390,83.750 25.060 C 83.750 26.193,83.853 26.211,85.206 25.325 C 86.007 24.800,86.804 24.512,86.977 24.685 C 87.329 25.037,87.499 23.987,87.686 20.313 C 87.824 17.580,90.217 16.301,91.362 18.347 C 92.601 20.561,95.442 21.969,96.512 20.899 C 97.413 19.998,97.501 20.011,97.510 21.049 C 97.517 21.929,97.642 21.994,98.058 21.337 C 98.654 20.397,98.287 18.250,97.321 17.016 C 96.978 16.578,96.901 16.016,97.150 15.767 C 97.399 15.518,97.931 15.760,98.332 16.304 C 98.734 16.848,99.836 17.486,100.781 17.721 C 101.727 17.956,102.500 18.565,102.500 19.074 C 102.500 21.234,103.644 19.760,104.045 17.083 C 104.900 11.387,107.500 9.611,107.500 14.724 C 107.500 18.474,109.186 18.527,110.952 14.833 C 111.936 12.773,112.525 12.220,113.608 12.336 C 115.079 12.494,115.548 11.538,114.219 11.092 C 113.611 10.888,113.639 10.451,114.345 9.126 C 115.031 7.839,115.084 7.152,114.561 6.315 C 114.180 5.706,113.917 4.176,113.976 2.916 L 114.084 0.625 57.355 0.625 L 0.625 0.625 0.674 37.344 M286.094 3.033 C 284.475 6.551,284.632 6.874,287.969 6.885 C 291.888 6.897,292.791 7.511,292.225 9.777 C 291.025 14.584,292.305 20.287,294.052 17.921 C 294.516 17.293,295.411 16.864,296.042 16.968 C 296.672 17.071,297.609 16.907,298.125 16.602 C 298.689 16.269,298.564 16.649,297.813 17.555 C 294.612 21.415,294.372 22.890,296.563 25.253 C 297.422 26.181,298.125 27.317,298.125 27.778 C 298.125 28.800,299.494 29.375,301.926 29.375 C 303.131 29.375,303.750 29.693,303.750 30.313 C 303.750 31.480,305.568 31.528,307.205 30.403 C 311.406 27.515,316.180 29.037,313.523 32.416 C 310.714 35.988,311.839 38.400,315.387 36.411 C 316.863 35.583,317.500 35.924,317.500 37.543 C 317.500 38.201,316.714 38.902,315.501 39.325 C 313.333 40.080,314.167 41.385,317.188 41.965 C 317.875 42.097,318.438 42.599,318.438 43.081 C 318.438 44.574,319.691 44.473,321.605 42.827 C 323.693 41.032,324.879 40.832,325.399 42.188 C 325.652 42.847,326.680 43.125,328.863 43.125 C 332.511 43.125,332.896 44.581,329.683 46.229 C 328.654 46.756,327.637 47.429,327.422 47.723 C 327.207 48.018,326.473 48.082,325.791 47.865 C 324.075 47.321,322.666 49.006,323.747 50.309 C 324.372 51.062,324.326 51.544,323.511 52.787 C 322.042 55.029,322.203 55.211,325.285 54.788 C 326.979 54.556,328.231 54.665,328.478 55.066 C 328.990 55.894,331.718 55.247,332.962 54.002 C 333.983 52.981,335.148 53.645,337.640 56.664 C 338.983 58.292,343.381 59.209,344.679 58.132 C 345.166 57.728,346.071 57.514,346.689 57.657 C 347.307 57.800,348.721 57.382,349.832 56.727 C 352.353 55.242,353.363 55.791,352.937 58.414 C 352.565 60.710,353.328 62.627,353.959 60.982 C 354.305 60.080,354.462 60.087,355.595 61.057 C 356.285 61.647,356.629 62.284,356.361 62.471 C 355.113 63.346,355.586 69.268,356.878 68.930 C 357.564 68.751,358.125 68.215,358.125 67.740 C 358.125 66.693,358.268 66.682,360.251 67.586 C 361.109 67.976,361.895 68.891,361.999 69.617 C 362.150 70.673,362.554 70.898,364.014 70.741 C 368.154 70.295,370.297 72.557,367.969 74.917 C 367.111 75.786,368.773 77.500,370.474 77.500 C 370.947 77.500,372.255 78.203,373.382 79.063 C 374.509 79.922,376.224 80.625,377.194 80.625 C 378.165 80.625,378.773 80.811,378.546 81.038 C 377.988 81.595,380.477 83.290,381.199 82.844 C 383.001 81.730,384.975 83.713,384.853 86.515 C 384.717 89.622,386.504 92.268,388.978 92.623 C 389.732 92.731,390.383 93.349,390.495 94.063 C 390.873 96.493,392.075 98.125,393.486 98.125 C 394.550 98.125,395.420 99.064,397.109 102.031 L 399.331 105.938 399.353 53.281 L 399.375 0.625 343.281 0.641 L 287.188 0.657 286.094 3.033 M97.649 24.368 C 97.049 25.329,97.184 25.684,98.466 26.523 C 99.896 27.461,99.999 27.454,99.980 26.421 C 99.942 24.309,98.487 23.027,97.649 24.368 M180.388 30.081 C 179.812 30.753,179.100 31.154,178.804 30.971 C 178.509 30.788,178.135 31.143,177.974 31.760 C 177.723 32.721,176.846 32.904,171.816 33.049 C 163.430 33.291,156.060 35.036,153.579 37.367 C 152.770 38.127,151.792 38.750,151.407 38.750 C 151.021 38.750,149.914 39.858,148.947 41.213 C 147.196 43.663,145.962 44.350,143.281 44.366 C 141.406 44.378,141.493 43.272,143.438 42.386 C 144.297 41.995,145.000 41.281,145.000 40.800 C 145.000 40.320,145.221 40.063,145.491 40.230 C 145.761 40.397,146.021 40.062,146.070 39.485 C 146.118 38.909,146.248 37.880,146.360 37.199 C 146.506 36.309,146.191 35.939,145.241 35.882 C 144.515 35.839,143.600 35.606,143.210 35.365 C 142.788 35.104,142.500 35.350,142.500 35.968 C 142.500 36.782,142.139 36.920,140.856 36.598 C 139.139 36.167,139.072 36.528,140.308 39.531 C 140.653 40.369,140.451 40.625,139.442 40.625 C 138.718 40.625,138.125 40.923,138.125 41.287 C 138.125 41.651,137.910 41.816,137.647 41.653 C 137.384 41.491,137.212 42.612,137.263 44.143 C 137.364 47.139,136.219 48.960,134.455 48.611 C 133.750 48.472,133.438 47.747,133.438 46.248 C 133.438 44.179,133.340 44.086,131.154 44.075 C 129.897 44.068,129.000 44.273,129.159 44.531 C 129.770 45.519,128.683 46.258,127.528 45.640 C 126.693 45.193,126.172 45.278,125.614 45.951 C 125.192 46.459,124.530 46.871,124.142 46.865 C 123.755 46.860,123.859 46.583,124.375 46.250 C 124.938 45.886,125.015 45.640,124.568 45.635 C 123.145 45.616,123.054 46.894,124.347 48.710 C 125.889 50.876,125.718 51.012,121.250 51.183 C 117.042 51.344,115.955 51.652,112.981 53.529 C 111.699 54.338,110.242 55.000,109.745 55.000 C 109.247 55.000,108.454 55.385,107.983 55.856 C 106.035 57.805,102.948 58.957,102.233 58.003 C 101.081 56.468,99.395 56.208,97.718 57.307 C 96.483 58.116,95.877 58.192,95.004 57.648 C 94.026 57.037,93.843 57.203,93.583 58.942 C 93.419 60.040,93.582 61.127,93.946 61.359 C 95.134 62.115,93.579 64.131,89.376 67.282 C 86.763 69.242,85.314 70.771,85.314 71.570 C 85.313 72.253,84.961 72.742,84.531 72.656 C 84.102 72.570,83.750 72.781,83.750 73.125 C 83.750 73.469,83.188 74.313,82.500 75.000 C 81.813 75.688,81.250 76.641,81.250 77.120 C 81.250 77.598,80.550 78.165,79.695 78.380 C 78.692 78.632,77.665 79.708,76.801 81.416 C 76.064 82.872,74.974 84.766,74.377 85.625 C 71.985 89.070,71.317 102.520,73.451 104.274 C 74.146 104.845,75.399 106.297,76.236 107.500 C 79.780 112.598,83.373 116.250,84.844 116.250 C 85.658 116.250,86.168 116.501,85.979 116.808 C 85.789 117.115,86.388 117.556,87.309 117.787 C 88.231 118.019,89.288 118.622,89.658 119.128 C 90.092 119.721,91.977 120.186,94.963 120.436 C 98.351 120.720,99.993 121.171,101.077 122.113 C 101.892 122.822,103.460 123.450,104.561 123.509 C 105.662 123.567,106.703 123.678,106.875 123.755 C 107.047 123.831,107.469 123.932,107.813 123.978 C 108.861 124.120,111.875 127.047,111.875 127.925 C 111.875 129.178,109.714 128.911,108.438 127.500 C 107.070 125.989,104.873 125.895,102.791 127.259 C 100.915 128.488,100.807 129.375,102.531 129.375 C 103.236 129.375,104.572 129.757,105.500 130.224 C 106.428 130.691,108.172 131.242,109.375 131.448 C 116.845 132.728,118.846 133.544,117.301 134.678 C 115.655 135.887,117.843 136.492,121.861 135.939 C 125.597 135.426,130.815 137.368,130.501 139.156 C 130.377 139.863,130.845 140.360,131.875 140.613 C 132.734 140.824,133.442 141.441,133.447 141.984 C 133.463 143.776,135.190 146.250,136.423 146.250 C 137.415 146.250,137.562 146.544,137.230 147.865 C 136.967 148.912,137.053 149.338,137.475 149.078 C 137.842 148.851,138.125 149.220,138.125 149.926 C 138.125 150.614,137.827 151.360,137.463 151.586 C 136.645 152.091,137.343 158.675,138.347 159.927 C 138.911 160.629,139.106 160.512,139.390 159.302 C 139.605 158.384,140.269 157.736,141.119 157.613 C 142.558 157.405,142.918 158.074,141.917 159.094 C 141.575 159.441,141.549 160.595,141.853 161.875 C 142.138 163.078,142.401 163.664,142.436 163.177 C 142.508 162.181,143.306 162.748,143.488 163.924 C 143.553 164.344,143.709 165.391,143.834 166.250 C 143.960 167.109,144.284 167.976,144.555 168.177 C 145.202 168.655,143.970 171.875,143.140 171.875 C 142.788 171.875,142.500 172.267,142.500 172.746 C 142.500 173.745,144.191 174.562,145.098 174.002 C 145.434 173.795,146.072 174.122,146.516 174.730 C 147.543 176.134,150.587 176.345,150.724 175.021 C 151.000 172.351,148.813 168.750,146.916 168.750 C 146.453 168.750,145.656 166.711,145.634 165.469 C 145.613 164.360,147.033 165.172,149.082 167.439 C 150.956 169.513,153.624 171.400,160.927 175.813 C 165.397 178.515,167.500 180.188,167.500 181.043 C 167.500 181.862,168.147 181.977,171.406 181.733 C 173.555 181.573,175.972 181.737,176.779 182.098 C 177.945 182.621,178.360 182.550,178.806 181.752 C 179.754 180.058,210.171 179.877,211.397 181.558 C 211.665 181.926,211.860 181.778,211.865 181.202 C 211.876 180.091,214.871 180.190,217.312 181.381 C 218.325 181.876,219.198 181.841,220.628 181.249 C 222.086 180.645,222.748 180.623,223.285 181.160 C 224.475 182.350,225.271 181.960,224.159 180.732 C 222.903 179.344,222.804 177.500,223.986 177.500 C 224.460 177.500,225.197 177.922,225.625 178.438 C 226.678 179.706,226.887 179.651,229.185 177.497 C 230.283 176.467,231.619 175.625,232.154 175.625 C 232.688 175.625,233.125 175.364,233.125 175.044 C 233.125 174.725,234.649 174.021,236.512 173.479 C 239.089 172.730,240.480 171.834,242.331 169.731 C 244.197 167.611,245.690 166.656,248.747 165.626 C 252.781 164.267,254.773 163.203,254.903 162.337 C 255.180 160.494,257.289 157.888,259.126 157.121 C 260.319 156.622,261.540 155.590,261.840 154.826 C 262.412 153.371,264.622 151.250,265.565 151.250 C 266.209 151.250,266.980 149.596,267.167 147.813 C 267.479 144.849,268.306 141.875,268.820 141.875 C 269.125 141.875,269.375 141.550,269.375 141.153 C 269.375 140.756,270.078 139.509,270.938 138.382 C 271.797 137.255,272.500 135.514,272.500 134.514 C 272.500 133.487,273.045 132.200,273.750 131.562 C 274.438 130.940,275.000 129.912,275.000 129.278 C 275.000 128.536,275.452 128.125,276.270 128.125 C 277.895 128.125,278.482 126.592,277.599 124.655 C 276.793 122.886,277.246 121.250,278.541 121.250 C 279.062 121.250,279.261 120.946,279.008 120.537 C 276.808 116.977,281.396 105.000,284.960 105.000 C 285.326 105.000,285.625 104.613,285.625 104.139 C 285.625 103.665,286.025 102.946,286.514 102.541 C 287.002 102.135,287.589 100.696,287.818 99.342 C 288.047 97.989,288.495 96.720,288.815 96.523 C 289.134 96.325,289.229 95.895,289.026 95.566 C 288.823 95.238,288.889 95.046,289.172 95.141 C 289.611 95.287,290.090 94.727,289.960 94.219 C 289.938 94.133,289.827 92.797,289.714 91.250 C 289.197 84.190,288.826 81.907,287.924 80.234 C 286.075 76.803,283.125 70.449,283.125 69.897 C 283.125 69.279,280.297 66.088,276.719 62.665 C 275.430 61.433,274.374 60.118,274.373 59.743 C 274.372 59.369,273.599 58.542,272.654 57.905 C 271.710 57.269,269.948 55.019,268.739 52.905 C 266.828 49.567,266.295 49.060,264.676 49.040 C 263.570 49.026,262.813 48.685,262.813 48.201 C 262.813 47.751,261.755 47.020,260.463 46.576 C 259.171 46.132,257.764 45.480,257.338 45.128 C 256.911 44.775,255.472 44.283,254.138 44.034 C 252.486 43.725,251.612 43.190,251.393 42.354 C 251.109 41.268,250.709 41.174,247.873 41.528 C 245.555 41.817,244.129 41.656,242.700 40.944 C 240.603 39.897,233.957 38.406,226.250 37.252 C 223.672 36.866,220.973 36.215,220.252 35.805 C 219.511 35.383,218.696 35.293,218.377 35.599 C 218.067 35.896,216.266 36.199,214.375 36.272 C 209.425 36.464,208.614 36.344,208.912 35.469 C 209.059 35.039,209.755 34.770,210.459 34.871 C 211.541 35.027,211.777 34.656,211.986 32.458 C 212.338 28.767,211.072 28.359,205.508 30.369 C 204.675 30.670,204.575 31.069,205.032 32.272 C 205.772 34.218,204.371 34.883,201.674 33.866 C 200.410 33.388,199.535 33.358,199.033 33.774 C 198.621 34.116,197.826 34.221,197.267 34.006 C 196.705 33.791,196.250 33.926,196.250 34.308 C 196.250 35.667,193.813 34.967,191.908 33.061 C 190.227 31.381,189.833 31.235,188.945 31.968 C 188.144 32.629,187.865 32.643,187.659 32.031 C 187.514 31.602,186.567 31.250,185.553 31.250 C 184.537 31.250,183.558 30.851,183.370 30.361 C 182.810 28.902,181.503 28.779,180.388 30.081 M67.299 32.808 C 66.510 33.385,66.432 33.676,67.013 33.872 C 68.119 34.245,71.709 33.495,70.938 33.052 C 69.360 32.146,68.302 32.075,67.299 32.808 M57.500 34.375 C 57.500 35.292,57.083 35.625,55.938 35.625 C 55.078 35.625,54.375 35.327,54.375 34.963 C 54.375 34.599,54.656 34.475,55.000 34.688 C 55.344 34.900,55.625 34.635,55.625 34.099 C 55.625 33.563,56.047 33.125,56.563 33.125 C 57.083 33.125,57.500 33.681,57.500 34.375 M326.529 60.054 C 325.885 61.097,327.333 62.292,328.196 61.429 C 328.917 60.708,328.465 59.375,327.500 59.375 C 327.197 59.375,326.760 59.681,326.529 60.054 M0.770 78.750 C 0.770 79.953,0.899 80.445,1.056 79.844 C 1.213 79.242,1.213 78.258,1.056 77.656 C 0.899 77.055,0.770 77.547,0.770 78.750 M37.239 125.403 C 36.207 128.093,37.302 129.335,40.234 128.798 C 40.535 128.743,41.286 129.155,41.903 129.713 C 43.494 131.153,44.731 129.062,43.381 127.215 C 42.896 126.553,42.500 126.238,42.500 126.515 C 42.500 126.792,41.867 126.614,41.094 126.119 C 38.706 124.591,37.628 124.391,37.239 125.403 M62.238 131.603 C 61.971 132.268,61.614 133.656,61.443 134.688 C 61.272 135.719,60.812 136.984,60.421 137.500 C 59.978 138.083,60.196 138.024,60.997 137.344 C 62.777 135.833,63.657 135.974,64.126 137.844 C 64.497 139.321,64.583 139.355,65.304 138.312 C 67.009 135.846,67.044 134.425,65.417 133.684 C 64.570 133.298,63.618 132.400,63.300 131.688 C 62.738 130.429,62.709 130.427,62.238 131.603 M52.969 132.601 C 51.914 133.370,51.250 134.438,51.250 135.365 C 51.250 136.195,51.027 136.875,50.755 136.875 C 49.667 136.875,48.240 141.160,49.204 141.530 C 50.502 142.028,50.625 141.977,50.625 140.938 C 50.625 140.422,50.906 140.000,51.250 140.000 C 51.594 140.000,51.875 139.438,51.875 138.750 C 51.875 138.063,52.253 137.500,52.714 137.500 C 53.976 137.500,55.918 133.537,55.244 132.337 C 54.747 131.454,54.503 131.482,52.969 132.601 M26.847 133.906 C 25.973 135.023,25.360 136.430,25.487 137.031 C 25.747 138.271,28.091 138.542,28.188 137.344 C 28.223 136.914,28.348 135.508,28.465 134.219 C 28.723 131.389,28.805 131.405,26.847 133.906 M53.125 138.750 C 53.125 139.094,53.397 139.375,53.730 139.375 C 54.063 139.375,54.174 139.797,53.976 140.313 C 53.778 140.828,53.944 141.250,54.345 141.250 C 54.746 141.250,54.900 140.969,54.688 140.625 C 54.475 140.281,54.569 140.000,54.896 140.000 C 55.224 140.000,55.668 139.538,55.885 138.974 C 56.214 138.116,56.123 138.078,55.327 138.738 C 54.676 139.279,54.375 139.307,54.375 138.827 C 54.375 138.441,54.094 138.125,53.750 138.125 C 53.406 138.125,53.125 138.406,53.125 138.750 M73.125 141.563 C 73.125 142.535,73.479 143.125,74.063 143.125 C 74.646 143.125,75.000 142.535,75.000 141.563 C 75.000 140.590,74.646 140.000,74.063 140.000 C 73.479 140.000,73.125 140.590,73.125 141.563 M0.644 182.969 L 0.625 224.375 52.344 224.281 C 80.789 224.230,103.289 224.071,102.344 223.927 C 100.712 223.680,99.919 222.588,101.250 222.422 C 101.594 222.379,102.133 222.309,102.448 222.266 C 103.647 222.102,103.903 221.249,102.760 221.227 C 102.102 221.214,100.494 220.288,99.187 219.169 L 96.812 217.134 99.447 214.696 C 100.897 213.354,101.755 212.148,101.354 212.014 C 100.953 211.880,100.625 211.402,100.625 210.952 C 100.625 209.911,99.759 209.591,95.507 209.060 C 89.514 208.311,88.875 206.402,94.162 205.039 C 95.826 204.610,97.869 203.934,98.701 203.536 L 100.215 202.813 98.701 202.603 C 97.869 202.488,96.920 202.137,96.594 201.822 C 96.267 201.507,95.666 201.250,95.257 201.250 C 94.849 201.250,93.288 199.998,91.789 198.467 C 87.591 194.181,87.488 194.021,88.329 193.111 C 88.894 192.499,88.885 192.417,88.289 192.753 C 87.853 192.999,86.802 192.528,85.885 191.678 L 84.254 190.166 86.033 189.665 C 87.012 189.390,88.027 189.141,88.290 189.113 C 88.913 189.047,90.690 185.625,90.102 185.625 C 89.855 185.625,89.023 186.067,88.252 186.606 C 87.481 187.146,86.223 187.671,85.457 187.772 C 84.690 187.874,83.271 188.276,82.303 188.666 C 80.004 189.592,79.580 189.562,79.149 188.438 C 78.951 187.922,78.359 187.500,77.832 187.500 C 76.645 187.500,76.643 187.261,77.808 185.009 C 78.321 184.016,78.571 182.761,78.363 182.219 C 78.155 181.677,78.356 180.787,78.809 180.241 C 79.963 178.851,80.030 177.678,79.003 176.826 C 78.520 176.425,78.125 175.710,78.125 175.236 C 78.125 174.762,77.773 174.379,77.344 174.385 C 76.069 174.400,74.810 175.437,75.233 176.122 C 75.472 176.509,75.128 176.628,74.355 176.426 C 73.627 176.236,72.584 176.546,71.914 177.153 C 70.799 178.161,70.725 178.127,70.352 176.432 C 69.647 173.221,69.460 164.234,70.065 162.643 C 71.281 159.442,67.795 156.669,66.056 159.453 C 65.224 160.786,63.125 161.042,63.125 159.810 C 63.125 159.362,64.109 158.041,65.312 156.875 C 68.045 154.227,68.038 154.124,65.020 152.127 C 62.080 150.181,61.439 148.646,62.772 146.742 C 63.951 145.059,64.098 143.660,62.928 145.260 C 62.465 145.893,61.212 146.430,60.064 146.487 C 57.334 146.625,56.389 148.281,58.034 150.046 C 58.702 150.764,59.159 151.821,59.048 152.394 C 58.937 152.968,58.824 153.607,58.798 153.814 C 58.493 156.207,53.782 158.732,52.500 157.188 C 52.072 156.672,51.335 156.250,50.861 156.250 C 49.801 156.250,49.699 152.046,50.674 148.535 C 51.783 144.542,50.251 145.986,46.604 152.371 C 46.350 152.816,46.585 153.856,47.127 154.682 C 47.781 155.682,47.890 156.321,47.451 156.593 C 47.088 156.817,46.636 156.410,46.448 155.688 C 46.259 154.966,45.693 154.375,45.190 154.375 C 44.512 154.375,44.376 153.919,44.663 152.612 C 44.986 151.140,44.787 150.729,43.463 150.125 C 41.649 149.299,41.390 147.833,42.909 146.983 C 44.149 146.289,43.552 144.077,42.258 144.574 C 41.788 144.754,41.065 144.573,40.653 144.170 C 40.117 143.645,40.133 143.945,40.709 145.225 C 41.401 146.763,41.371 147.116,40.493 147.758 C 39.932 148.168,39.380 149.471,39.268 150.653 C 38.988 153.587,37.272 153.878,36.482 151.125 C 35.797 148.735,34.049 148.072,33.446 149.974 C 32.820 151.945,31.993 150.929,31.546 147.642 C 30.901 142.891,30.657 142.320,29.635 143.169 C 29.148 143.573,28.750 144.397,28.750 145.000 C 28.750 146.035,26.856 148.170,26.532 147.500 C 26.449 147.328,24.669 148.313,22.577 149.688 C 18.190 152.571,17.176 154.410,17.774 158.396 C 18.170 161.042,18.095 161.233,16.300 162.162 C 14.638 163.021,14.452 163.025,14.771 162.195 C 14.971 161.675,15.395 161.250,15.714 161.250 C 16.067 161.250,16.064 160.820,15.705 160.150 C 15.381 159.544,15.217 158.349,15.339 157.493 C 16.219 151.363,16.178 148.429,15.235 150.000 C 14.366 151.447,14.318 151.460,14.584 150.179 C 14.952 148.406,13.301 146.839,12.462 148.165 C 12.150 148.659,11.890 149.575,11.885 150.202 C 11.862 152.882,9.689 150.987,9.630 148.236 C 9.544 144.285,6.210 141.204,3.625 142.688 C 2.033 143.601,1.849 143.596,1.280 142.621 C 0.869 141.916,0.657 155.407,0.644 182.969 M65.841 142.839 C 65.637 143.370,65.639 143.972,65.845 144.179 C 66.290 144.624,68.125 143.211,68.125 142.423 C 68.125 141.480,66.230 141.825,65.841 142.839 M70.631 143.740 C 70.235 144.479,69.430 144.920,68.639 144.833 C 67.662 144.726,67.184 145.143,66.834 146.406 C 65.948 149.607,69.800 148.108,70.933 144.811 C 71.804 142.279,71.668 141.800,70.631 143.740 M113.594 142.977 C 112.992 143.109,112.500 143.650,112.500 144.180 C 112.500 144.710,111.525 146.037,110.333 147.128 C 107.008 150.174,106.518 155.332,109.296 158.047 C 110.371 159.098,111.250 160.344,111.250 160.817 C 111.250 161.966,117.201 163.296,122.962 163.436 C 126.426 163.519,127.804 163.826,128.835 164.741 C 129.672 165.484,130.275 165.675,130.426 165.245 C 130.897 163.909,132.653 162.026,132.258 163.281 C 132.069 163.883,132.170 164.375,132.483 164.375 C 134.456 164.375,133.248 155.147,130.876 152.097 C 129.878 150.815,128.781 149.281,128.438 148.688 C 126.286 144.977,118.369 141.931,113.594 142.977 M78.316 151.028 C 77.946 151.993,79.513 153.750,80.744 153.750 C 81.520 153.750,81.344 151.594,80.500 150.750 C 79.472 149.722,78.784 149.810,78.316 151.028 M72.769 156.320 C 72.300 157.079,73.684 158.224,74.688 157.907 C 75.031 157.798,75.403 157.240,75.515 156.667 C 75.747 155.470,73.472 155.183,72.769 156.320 M87.969 161.113 C 86.158 161.345,85.691 162.152,87.063 162.678 C 87.997 163.037,91.078 161.566,90.241 161.161 C 89.936 161.013,88.914 160.992,87.969 161.113 M84.167 165.417 C 83.311 166.273,83.794 168.105,85.054 168.779 C 86.730 169.676,87.356 169.039,86.361 167.446 C 85.933 166.760,85.749 165.929,85.953 165.600 C 86.369 164.927,84.815 164.768,84.167 165.417 M13.125 167.813 C 13.125 168.328,12.703 168.750,12.188 168.750 C 11.672 168.750,11.250 168.328,11.250 167.813 C 11.250 167.297,11.672 166.875,12.188 166.875 C 12.703 166.875,13.125 167.297,13.125 167.813 M12.813 171.146 C 12.813 172.276,11.589 172.070,11.347 170.899 C 11.212 170.247,11.446 169.961,11.972 170.136 C 12.434 170.291,12.813 170.745,12.813 171.146 M77.274 170.938 C 77.472 171.453,77.322 171.875,76.942 171.875 C 76.561 171.875,76.250 172.288,76.250 172.793 C 76.250 173.352,76.616 173.570,77.188 173.351 C 77.703 173.153,78.125 172.599,78.125 172.121 C 78.125 171.642,78.406 171.250,78.750 171.250 C 79.094 171.250,79.375 170.969,79.375 170.625 C 79.375 170.281,78.821 170.000,78.145 170.000 C 77.308 170.000,77.029 170.300,77.274 170.938 M212.500 183.088 C 212.500 184.136,213.608 184.395,213.977 183.434 C 214.195 182.867,213.975 182.500,213.418 182.500 C 212.913 182.500,212.500 182.765,212.500 183.088 " stroke="none" fill="#000000" fill-rule="evenodd"></path></g></svg>