<svg id="svg" xmlns="http://www.w3.org/2000/svg" xmlns:xlink="http://www.w3.org/1999/xlink" width="400" height="225" viewBox="0, 0, 400,225"><g id="svgg"><path id="path0" d="M0.625 37.849 C 0.625 65.002,0.813 74.958,1.320 74.644 C 1.702 74.408,2.243 74.584,2.522 75.036 C 2.934 75.702,3.211 75.707,3.987 75.062 C 4.553 74.593,5.277 74.481,5.754 74.790 C 6.199 75.077,7.547 75.603,8.750 75.958 C 12.075 76.938,11.809 78.999,8.326 79.252 C 5.725 79.442,5.716 79.451,6.064 81.596 C 6.290 82.988,6.163 83.750,5.707 83.750 C 4.416 83.750,4.976 85.413,6.500 86.108 C 8.269 86.914,8.750 86.578,8.750 84.538 C 8.750 83.489,9.054 83.095,9.753 83.235 C 10.305 83.347,11.849 82.397,13.185 81.125 C 15.858 78.579,19.174 77.366,21.948 77.921 C 23.446 78.220,23.750 78.074,23.750 77.050 C 23.750 75.227,26.073 73.456,28.661 73.305 C 29.913 73.232,31.430 73.145,32.031 73.110 C 32.648 73.075,33.125 72.553,33.125 71.913 C 33.125 71.289,33.531 70.441,34.026 70.030 C 34.522 69.619,35.014 68.389,35.120 67.297 C 35.393 64.482,38.261 64.367,38.744 67.152 C 38.919 68.164,39.273 68.937,39.531 68.871 C 39.789 68.804,40.281 68.750,40.625 68.750 C 40.969 68.750,41.250 68.053,41.250 67.202 C 41.250 66.195,41.851 65.272,42.969 64.560 C 43.914 63.959,44.894 63.179,45.147 62.827 C 45.399 62.475,45.610 62.413,45.615 62.688 C 45.621 62.964,46.290 62.472,47.103 61.595 C 47.916 60.718,48.900 60.000,49.290 60.000 C 49.681 60.000,50.000 59.297,50.000 58.438 C 50.000 57.189,50.313 56.875,51.555 56.875 C 52.795 56.875,53.080 56.590,52.961 55.469 C 52.839 54.308,53.120 54.063,54.572 54.063 C 55.583 54.063,56.589 53.607,56.934 52.992 C 57.698 51.633,57.003 48.750,55.912 48.750 C 54.792 48.750,54.232 46.745,54.748 44.584 C 55.401 41.859,56.110 41.321,58.734 41.561 C 60.511 41.724,61.426 41.466,62.230 40.578 C 63.191 39.516,63.202 39.375,62.323 39.375 C 61.619 39.375,61.201 38.537,60.899 36.524 C 60.397 33.177,61.832 31.250,64.826 31.250 C 66.044 31.250,66.767 30.821,67.196 29.844 C 68.272 27.389,70.435 27.667,70.742 30.298 C 70.937 31.967,70.794 32.459,70.182 32.224 C 69.245 31.864,66.250 33.076,66.250 33.814 C 66.250 34.083,67.445 34.390,68.906 34.495 C 71.136 34.657,71.595 34.919,71.767 36.130 C 71.933 37.300,72.140 37.433,72.861 36.835 C 73.350 36.429,73.750 36.316,73.750 36.583 C 73.750 36.850,74.295 36.576,74.961 35.973 C 75.626 35.371,76.470 35.062,76.836 35.288 C 77.711 35.829,77.677 35.266,76.742 33.770 C 75.732 32.152,76.316 31.713,78.842 32.189 C 80.684 32.536,80.943 32.825,80.983 34.573 C 81.009 35.667,81.529 37.608,82.139 38.886 C 82.882 40.443,83.176 42.247,83.030 44.355 C 82.911 46.085,83.023 47.501,83.281 47.500 C 83.539 47.500,83.750 46.813,83.750 45.974 C 83.750 45.135,84.019 44.283,84.348 44.079 C 84.676 43.876,84.769 43.251,84.554 42.690 C 84.293 42.010,84.405 41.820,84.891 42.120 C 85.333 42.393,85.906 41.941,86.348 40.973 C 86.748 40.094,87.267 39.375,87.501 39.375 C 87.735 39.375,87.975 38.017,88.034 36.357 C 88.139 33.368,88.123 33.342,86.339 33.604 C 84.773 33.833,84.446 33.604,83.832 31.841 C 82.770 28.796,82.933 27.500,84.375 27.500 C 85.109 27.500,85.625 27.083,85.625 26.492 C 85.625 25.747,86.074 25.549,87.344 25.737 C 89.024 25.984,89.063 25.920,89.063 22.851 C 89.063 18.605,90.792 18.065,92.369 21.818 C 92.956 23.217,93.770 24.365,94.177 24.369 C 94.583 24.372,95.106 24.975,95.339 25.708 C 95.646 26.675,95.897 26.822,96.255 26.242 C 96.527 25.802,97.199 25.616,97.749 25.827 C 98.857 26.252,99.109 28.454,98.120 29.065 C 97.726 29.309,97.827 29.791,98.388 30.352 C 99.752 31.716,100.000 31.470,100.000 28.750 C 100.000 27.375,100.281 26.250,100.625 26.250 C 102.060 26.250,101.092 24.870,99.063 24.022 C 97.859 23.520,96.875 22.951,96.875 22.759 C 96.875 21.051,102.128 20.005,102.737 21.592 C 103.276 22.995,104.373 22.665,104.395 21.094 C 104.422 19.144,105.929 17.343,107.297 17.626 C 108.102 17.792,108.403 18.360,108.320 19.556 C 108.249 20.575,108.520 21.250,109.001 21.250 C 109.986 21.250,111.250 18.598,111.250 16.533 C 111.250 15.690,111.550 15.000,111.917 15.000 C 112.300 15.000,112.415 14.467,112.187 13.750 C 111.960 13.033,112.075 12.500,112.458 12.500 C 114.214 12.500,114.090 12.335,114.303 14.948 C 114.541 17.872,115.220 13.999,115.551 7.834 L 115.938 0.625 58.281 0.625 L 0.625 0.625 0.625 37.849 M277.415 1.296 C 278.648 1.789,278.821 2.172,278.456 3.600 C 278.216 4.542,277.972 6.156,277.916 7.188 L 277.813 9.063 282.500 9.123 C 290.040 9.220,291.327 9.763,287.813 11.364 C 285.759 12.299,285.834 12.617,288.438 14.019 C 290.866 15.327,291.290 16.818,289.375 17.319 C 287.590 17.786,287.805 19.375,289.652 19.375 C 291.436 19.375,293.125 21.471,293.125 23.684 C 293.125 24.525,293.617 25.759,294.219 26.424 C 295.271 27.589,295.235 27.699,293.281 29.332 C 291.203 31.068,290.568 33.125,292.111 33.125 C 292.585 33.125,293.322 32.703,293.750 32.188 C 294.812 30.908,298.532 30.971,299.265 32.280 C 299.834 33.298,303.082 33.275,305.643 32.235 C 307.997 31.280,308.995 33.294,307.636 36.258 C 306.269 39.241,306.435 40.849,308.057 40.334 C 308.626 40.153,310.139 40.567,311.419 41.253 C 312.698 41.939,314.309 42.500,314.998 42.500 C 316.380 42.500,316.563 43.469,315.640 45.897 C 315.103 47.311,315.195 47.511,316.422 47.593 C 317.187 47.643,318.234 47.742,318.750 47.813 C 319.266 47.883,320.013 47.982,320.410 48.032 C 321.426 48.162,320.717 50.645,319.180 52.344 C 318.071 53.569,318.042 53.750,318.954 53.750 C 320.242 53.750,320.255 54.030,319.048 55.871 C 317.681 57.958,318.407 59.474,320.409 58.713 C 323.008 57.725,325.000 58.592,325.000 60.712 C 325.000 62.750,326.452 63.698,328.039 62.697 C 329.304 61.899,329.986 59.302,329.199 58.281 C 328.868 57.852,328.702 57.478,328.830 57.452 C 329.488 57.317,331.094 56.891,332.344 56.521 C 334.042 56.018,334.143 56.802,332.732 59.531 L 331.714 61.499 333.393 60.399 C 337.049 58.004,339.824 59.878,337.214 62.980 C 335.930 64.505,335.803 64.935,336.550 65.221 C 337.126 65.442,338.076 64.786,339.075 63.476 C 341.443 60.373,349.119 58.128,350.432 60.156 C 350.710 60.586,350.958 63.469,350.982 66.563 C 351.017 71.000,351.215 72.188,351.920 72.188 C 352.411 72.188,353.019 72.469,353.272 72.813 C 353.559 73.203,353.734 73.153,353.740 72.678 C 353.763 70.875,356.061 70.619,357.795 72.226 C 359.270 73.593,359.877 73.748,362.555 73.441 C 365.854 73.064,366.663 74.393,365.012 77.477 C 364.303 78.802,366.756 80.871,368.323 80.270 C 368.865 80.062,370.094 80.981,371.469 82.621 C 372.710 84.101,373.731 84.984,373.738 84.582 C 373.747 84.042,374.349 84.016,376.035 84.482 C 377.292 84.829,379.401 85.010,380.723 84.884 C 383.083 84.658,384.032 85.616,382.429 86.606 C 381.968 86.891,381.875 88.219,382.152 90.549 C 382.383 92.482,382.625 94.906,382.692 95.938 C 382.956 100.047,384.367 100.353,386.618 96.788 L 388.251 94.201 390.616 96.788 C 391.916 98.211,393.294 99.375,393.678 99.375 C 394.061 99.375,394.375 100.045,394.375 100.864 C 394.375 101.768,395.358 103.335,396.875 104.853 L 399.375 107.353 399.375 53.989 L 399.375 0.625 337.656 0.665 C 298.158 0.690,276.470 0.917,277.415 1.296 M107.760 15.848 C 107.544 16.413,106.974 16.875,106.496 16.875 C 105.233 16.875,105.425 15.136,106.719 14.848 C 108.139 14.532,108.231 14.621,107.760 15.848 M179.688 26.728 C 179.344 26.981,179.063 27.609,179.063 28.125 C 179.063 28.806,178.487 29.016,176.960 28.894 C 175.229 28.756,174.927 28.908,175.252 29.755 C 175.987 31.672,174.441 32.499,170.080 32.522 C 167.801 32.535,164.250 32.982,162.188 33.517 C 160.125 34.051,157.609 34.644,156.596 34.833 C 154.220 35.278,149.415 38.769,147.813 41.215 C 146.993 42.465,145.852 43.257,144.502 43.511 C 141.497 44.078,141.346 43.378,143.946 40.926 C 145.935 39.050,146.250 38.370,146.250 35.954 L 146.250 33.156 144.219 33.551 C 143.102 33.769,142.021 34.198,141.818 34.506 C 141.614 34.814,141.192 35.006,140.880 34.934 C 139.810 34.685,138.204 35.728,138.494 36.484 C 138.653 36.900,137.969 37.842,136.973 38.579 C 135.976 39.316,135.023 40.642,134.854 41.527 C 134.609 42.806,134.715 42.996,135.371 42.452 C 136.633 41.404,137.657 42.413,137.197 44.248 C 136.186 48.274,132.803 48.572,132.220 44.686 C 131.839 42.144,131.681 41.935,130.586 42.521 C 129.920 42.877,129.371 42.948,129.365 42.678 C 129.360 42.408,129.115 42.568,128.820 43.033 C 128.412 43.677,127.981 43.717,127.017 43.201 C 126.011 42.663,125.671 42.727,125.370 43.514 C 125.150 44.085,124.589 44.351,124.043 44.141 C 123.286 43.851,123.222 44.013,123.721 44.945 C 124.218 45.875,124.101 46.176,123.140 46.427 C 122.477 46.600,121.819 46.421,121.678 46.027 C 121.537 45.634,121.235 45.483,121.008 45.692 C 120.207 46.428,121.412 48.228,122.514 47.940 C 123.114 47.783,124.038 48.161,124.567 48.779 C 125.812 50.232,124.932 50.624,120.418 50.627 C 118.086 50.629,116.145 51.150,113.438 52.500 C 111.375 53.529,109.195 54.371,108.594 54.373 C 107.992 54.374,107.500 54.661,107.500 55.010 C 107.500 55.359,106.516 56.115,105.313 56.688 C 104.109 57.262,103.125 57.965,103.125 58.251 C 103.125 58.537,102.141 59.240,100.938 59.813 C 99.734 60.387,98.750 61.086,98.750 61.366 C 98.750 61.646,98.456 61.875,98.097 61.875 C 97.689 61.875,97.597 61.057,97.851 59.702 L 98.259 57.529 96.378 58.467 C 94.376 59.466,93.376 61.021,94.495 61.394 C 96.449 62.046,88.451 68.118,84.688 68.840 C 84.000 68.972,83.438 69.416,83.438 69.827 C 83.437 70.706,79.486 73.750,78.345 73.750 C 77.142 73.750,70.625 80.266,70.625 81.469 C 70.625 82.051,69.879 83.655,68.966 85.033 C 67.105 87.846,66.593 97.684,68.106 101.563 C 69.848 106.029,76.228 113.750,78.177 113.750 C 78.939 113.750,81.824 116.930,81.862 117.813 C 81.877 118.156,83.050 118.994,84.469 119.674 C 85.888 120.354,87.923 121.737,88.993 122.747 C 90.062 123.757,91.570 124.617,92.342 124.656 C 97.778 124.936,94.062 130.625,88.443 130.625 C 87.559 130.625,86.673 131.050,86.473 131.570 C 85.963 132.900,87.470 134.536,88.694 133.981 C 89.240 133.733,90.672 133.477,91.875 133.412 C 93.078 133.346,94.675 133.255,95.424 133.209 C 96.173 133.163,97.235 132.676,97.784 132.127 C 100.005 129.905,113.992 131.862,113.586 134.338 C 113.352 135.768,116.254 136.896,120.000 136.832 C 125.993 136.729,128.750 137.442,128.750 139.095 C 128.750 140.160,129.206 140.626,130.535 140.918 C 131.936 141.225,132.502 141.861,133.165 143.873 C 133.631 145.282,134.482 146.558,135.058 146.709 C 136.397 147.059,137.011 150.673,136.151 153.141 C 135.654 154.565,135.737 155.704,136.503 157.971 C 137.054 159.603,137.760 161.922,138.071 163.125 L 138.637 165.313 138.702 163.438 C 138.851 159.131,140.058 157.818,142.467 159.341 C 143.215 159.815,143.119 160.117,141.909 161.097 C 140.631 162.132,140.531 162.510,141.112 164.109 C 141.611 165.482,141.790 165.626,141.830 164.688 C 141.904 162.933,143.750 166.486,143.750 168.384 C 143.750 169.135,144.059 170.059,144.437 170.437 C 145.353 171.353,144.587 173.593,143.083 174.398 C 141.445 175.274,141.559 176.250,143.298 176.250 C 146.105 176.250,148.838 179.396,146.719 180.188 C 146.189 180.386,146.289 180.625,147.031 180.932 C 148.540 181.555,150.055 180.863,150.445 179.372 C 150.658 178.556,151.298 178.125,152.296 178.125 C 153.747 178.125,153.774 178.058,152.848 176.736 C 152.313 175.972,151.870 174.917,151.864 174.392 C 151.853 173.457,147.456 169.380,146.448 169.370 C 145.559 169.362,144.323 166.052,144.967 165.408 C 145.341 165.034,146.909 166.178,149.208 168.501 C 151.214 170.529,153.690 172.672,154.709 173.263 C 155.729 173.855,156.984 174.596,157.500 174.910 C 158.016 175.223,159.281 175.856,160.313 176.315 C 163.790 177.863,167.500 180.678,167.500 181.769 C 167.500 183.099,170.017 183.422,172.916 182.466 C 174.364 181.988,175.303 181.993,176.219 182.484 C 177.174 182.995,177.858 182.967,178.906 182.374 C 179.680 181.936,181.297 181.530,182.500 181.472 C 183.703 181.413,187.922 181.198,191.875 180.993 C 195.888 180.785,201.043 180.914,203.545 181.283 C 207.069 181.804,208.315 181.771,209.365 181.129 C 210.527 180.419,210.828 180.475,211.672 181.563 C 212.344 182.427,212.734 182.571,212.936 182.031 C 213.297 181.069,216.997 180.997,217.933 181.933 C 218.427 182.427,219.002 182.409,220.009 181.870 C 220.776 181.460,222.282 181.288,223.358 181.489 C 224.805 181.759,225.044 181.694,224.277 181.241 C 223.638 180.863,223.367 180.149,223.569 179.376 C 223.961 177.876,224.837 177.784,226.283 179.092 C 227.162 179.888,227.508 179.916,228.233 179.248 C 230.117 177.517,237.464 173.750,238.959 173.750 C 239.397 173.750,241.160 172.273,242.877 170.469 C 245.423 167.791,246.710 166.980,249.873 166.057 C 252.006 165.435,253.750 164.661,253.750 164.338 C 253.750 164.015,254.172 163.750,254.688 163.750 C 255.203 163.750,255.625 163.442,255.625 163.065 C 255.625 161.572,258.171 158.807,259.187 159.197 C 259.875 159.461,260.056 159.346,259.746 158.845 C 259.458 158.378,259.943 157.815,261.050 157.332 C 262.019 156.909,262.813 156.149,262.813 155.643 C 262.813 155.138,263.502 154.380,264.346 153.960 C 266.535 152.869,268.095 150.605,268.111 148.496 C 268.119 147.498,268.842 145.740,269.719 144.590 C 270.596 143.441,270.999 142.500,270.615 142.500 C 269.659 142.500,270.463 140.022,271.947 138.397 C 272.595 137.688,273.125 136.208,273.125 135.110 C 273.125 133.838,273.604 132.718,274.445 132.025 C 275.171 131.427,276.117 130.604,276.547 130.196 C 277.108 129.666,277.522 129.647,278.005 130.130 C 278.488 130.613,278.586 130.446,278.349 129.540 C 278.164 128.833,278.430 127.896,278.951 127.418 C 279.777 126.660,279.775 126.441,278.930 125.494 C 277.722 124.140,278.344 120.960,279.714 121.486 C 280.735 121.878,280.928 121.188,280.050 120.281 C 279.532 119.746,279.156 116.361,279.314 113.648 C 279.348 113.076,281.625 110.310,284.375 107.500 C 287.500 104.307,289.376 101.884,289.378 101.039 C 289.380 100.296,290.074 98.563,290.921 97.188 C 292.501 94.622,293.079 89.807,291.895 89.075 C 291.562 88.869,291.311 87.798,291.337 86.694 C 291.393 84.280,289.783 80.352,287.741 77.926 C 286.921 76.951,286.250 75.881,286.250 75.547 C 286.250 75.213,285.688 73.775,285.000 72.352 C 284.313 70.929,283.750 69.406,283.750 68.966 C 283.750 68.527,281.781 66.218,279.375 63.836 C 276.969 61.453,274.992 59.123,274.983 58.658 C 274.973 58.193,274.006 57.109,272.832 56.250 C 271.631 55.371,270.266 53.567,269.709 52.125 C 268.534 49.086,266.252 46.772,264.207 46.547 C 263.396 46.458,260.964 45.493,258.801 44.401 C 256.639 43.309,254.438 42.582,253.910 42.785 C 253.341 43.003,252.586 42.634,252.057 41.879 C 251.355 40.876,250.542 40.625,248.239 40.699 C 246.629 40.751,243.350 40.182,240.951 39.435 C 238.553 38.689,235.497 37.940,234.161 37.773 C 232.825 37.605,231.258 37.214,230.679 36.904 C 230.100 36.594,227.812 36.144,225.594 35.904 C 223.377 35.663,221.076 35.042,220.480 34.522 C 219.672 33.816,219.187 33.753,218.561 34.272 C 218.101 34.655,216.900 34.927,215.893 34.877 C 214.886 34.827,212.023 35.012,209.531 35.287 C 205.556 35.725,205.000 35.662,205.000 34.768 C 205.000 33.956,205.666 33.750,208.285 33.750 C 211.304 33.750,211.634 33.604,212.367 31.948 C 213.911 28.461,211.132 25.446,208.022 27.233 C 207.219 27.694,205.893 28.372,205.075 28.739 C 204.256 29.106,202.747 30.004,201.721 30.735 C 198.615 32.946,190.670 32.308,190.632 29.844 C 190.628 29.586,189.805 29.375,188.802 29.375 C 187.799 29.375,186.815 29.023,186.615 28.594 C 186.323 27.969,186.177 27.969,185.885 28.594 C 185.317 29.811,184.102 29.520,182.617 27.813 C 181.182 26.163,180.700 25.984,179.688 26.728 M53.750 59.384 C 53.750 61.413,55.213 61.886,56.435 60.252 C 57.053 59.426,57.334 58.714,57.060 58.670 C 54.385 58.242,53.750 58.379,53.750 59.384 M320.125 62.625 C 319.039 63.711,319.203 64.375,320.558 64.375 C 321.745 64.375,322.740 62.948,322.040 62.249 C 321.481 61.689,320.958 61.792,320.125 62.625 M342.505 66.234 C 341.763 66.703,341.731 66.981,342.349 67.599 C 342.967 68.217,343.125 68.217,343.125 67.598 C 343.125 67.170,343.588 66.903,344.154 67.004 C 344.720 67.105,345.306 66.836,345.456 66.406 C 345.777 65.488,343.861 65.376,342.505 66.234 M10.000 81.369 C 10.000 82.190,8.580 81.676,8.268 80.742 C 8.116 80.285,8.402 80.145,9.010 80.379 C 9.555 80.588,10.000 81.033,10.000 81.369 M37.408 120.441 C 35.098 120.796,34.400 125.000,36.651 125.000 C 37.421 125.000,38.241 125.308,38.474 125.684 C 38.706 126.060,39.567 126.240,40.386 126.083 C 41.205 125.926,41.875 126.032,41.875 126.317 C 41.875 126.602,42.297 126.674,42.813 126.476 C 43.437 126.236,43.754 126.504,43.761 127.277 C 43.773 128.648,45.818 125.671,46.564 123.196 C 46.967 121.858,46.859 121.744,45.513 122.081 C 44.561 122.320,43.272 122.008,41.991 121.229 C 40.879 120.553,39.766 120.042,39.516 120.094 C 39.267 120.145,38.318 120.302,37.408 120.441 M109.531 125.870 C 110.133 126.327,110.625 127.021,110.625 127.413 C 110.625 128.630,109.036 128.198,107.500 126.563 C 105.811 124.764,107.373 124.232,109.531 125.870 M54.601 127.011 C 55.081 128.508,54.049 128.960,52.863 127.774 C 52.089 127.000,51.875 126.972,51.875 127.643 C 51.875 128.114,52.218 128.843,52.636 129.261 C 53.234 129.859,53.179 130.455,52.378 132.042 C 51.817 133.153,51.191 135.022,50.987 136.195 L 50.616 138.327 51.819 136.940 C 52.900 135.693,53.081 135.657,53.601 136.586 C 53.919 137.155,54.856 137.578,55.683 137.527 C 62.467 137.109,63.102 137.273,63.936 139.652 C 64.446 141.106,68.501 136.903,68.555 134.864 C 68.616 132.524,64.944 129.020,63.156 129.712 C 60.011 130.930,58.547 130.845,58.908 129.465 C 59.292 127.995,57.849 126.808,56.334 127.348 C 55.865 127.515,55.205 127.267,54.869 126.795 C 54.394 126.130,54.334 126.178,54.601 127.011 M26.189 131.115 C 25.115 133.199,24.426 133.730,23.338 133.313 C 22.877 133.136,22.500 133.319,22.500 133.720 C 22.500 134.121,22.781 134.275,23.125 134.063 C 23.469 133.850,23.750 134.245,23.750 134.941 C 23.750 135.637,24.320 136.511,25.018 136.884 C 25.715 137.257,26.093 137.873,25.858 138.253 C 25.599 138.673,25.718 138.766,26.164 138.491 C 26.566 138.242,26.748 137.801,26.569 137.510 C 26.389 137.220,26.563 136.875,26.954 136.744 C 27.816 136.457,28.410 130.250,27.621 129.763 C 27.315 129.573,26.670 130.182,26.189 131.115 M76.250 134.442 C 76.250 134.827,75.795 134.959,75.224 134.740 C 74.366 134.411,74.328 134.502,74.988 135.298 C 75.639 136.083,75.604 136.250,74.786 136.250 C 73.702 136.250,72.143 138.595,72.396 139.844 C 72.483 140.273,72.191 140.668,71.746 140.720 C 71.301 140.773,70.656 140.881,70.313 140.961 C 69.969 141.040,68.973 141.138,68.100 141.178 C 67.198 141.219,65.320 142.329,63.750 143.750 C 60.666 146.541,59.031 147.006,59.572 144.940 C 59.760 144.219,59.752 143.205,59.553 142.687 C 59.017 141.290,56.687 146.713,57.117 148.357 C 57.990 151.696,54.899 158.134,53.884 155.090 C 53.753 154.697,53.295 154.375,52.866 154.375 C 51.667 154.375,50.669 151.890,50.482 148.438 L 50.313 145.313 48.442 148.281 C 46.409 151.508,45.679 151.904,45.192 150.043 C 45.019 149.380,44.476 148.683,43.986 148.494 C 43.380 148.262,43.221 147.648,43.488 146.582 C 43.786 145.395,43.600 144.911,42.723 144.598 C 42.085 144.371,41.104 143.793,40.544 143.314 C 39.631 142.533,39.484 142.721,39.120 145.128 C 38.896 146.604,38.440 148.234,38.107 148.750 C 37.161 150.212,36.271 148.356,36.887 146.207 C 37.284 144.824,37.204 144.528,36.507 144.795 C 36.022 144.981,35.625 145.353,35.625 145.621 C 35.625 145.889,34.831 146.225,33.860 146.367 C 31.987 146.642,30.625 145.682,30.625 144.089 C 30.625 142.621,29.753 142.931,28.282 144.922 C 26.892 146.801,23.897 147.420,22.969 146.020 C 22.668 145.566,22.364 145.807,22.122 146.690 C 21.914 147.447,21.141 148.463,20.403 148.948 C 18.629 150.113,17.236 154.972,17.752 158.198 C 18.103 160.397,18.012 160.694,17.046 160.500 C 15.495 160.188,15.556 149.303,17.119 147.576 C 17.672 146.965,18.106 145.924,18.083 145.263 C 18.044 144.157,17.990 144.167,17.394 145.397 C 16.074 148.123,9.881 147.727,9.165 144.872 C 8.481 142.149,5.356 139.733,4.118 140.972 C 3.138 141.952,2.991 141.948,1.848 140.913 C 0.635 139.816,0.625 140.162,0.625 182.091 L 0.625 224.375 53.052 224.375 L 105.479 224.375 105.832 223.028 C 106.191 221.653,104.063 218.228,102.807 218.160 C 100.758 218.047,100.553 215.488,102.456 213.789 C 104.964 211.550,104.982 210.392,102.500 210.938 C 100.716 211.329,99.735 210.401,101.361 209.859 C 102.695 209.414,101.305 208.274,98.913 207.850 C 94.308 207.034,93.966 206.844,95.315 205.858 C 95.961 205.386,97.104 205.000,97.855 205.000 C 98.607 205.000,99.572 204.578,100.000 204.063 C 100.428 203.547,101.165 203.125,101.639 203.125 C 103.628 203.125,101.561 200.216,99.351 199.904 C 98.505 199.785,97.559 199.112,97.250 198.408 C 96.695 197.145,94.226 195.625,92.730 195.625 C 91.294 195.625,90.985 188.974,92.232 184.899 C 92.535 183.906,90.401 182.977,87.500 182.838 C 86.984 182.814,86.199 182.563,85.754 182.280 C 85.305 181.996,84.601 182.053,84.170 182.410 C 82.341 183.929,81.261 180.736,82.038 176.111 C 82.196 175.175,82.112 174.541,81.853 174.701 C 81.593 174.862,81.214 174.558,81.010 174.026 C 80.768 173.396,80.891 173.216,81.363 173.508 C 81.854 173.811,81.952 173.603,81.669 172.864 C 81.438 172.264,81.250 171.639,81.250 171.474 C 81.250 171.310,80.921 171.380,80.519 171.628 C 80.020 171.936,79.921 171.733,80.206 170.989 C 80.437 170.389,80.625 169.764,80.625 169.599 C 80.625 169.435,80.874 169.455,81.179 169.643 C 81.483 169.831,81.867 169.279,82.032 168.415 C 82.330 166.859,80.068 166.675,79.479 168.208 C 79.365 168.506,78.742 168.750,78.095 168.750 C 77.448 168.750,76.619 169.310,76.253 169.994 C 75.887 170.678,75.245 171.170,74.825 171.088 C 74.406 171.005,74.060 171.451,74.058 172.078 C 74.053 173.320,71.932 174.918,71.797 173.781 C 71.754 173.420,71.669 172.773,71.608 172.344 C 71.546 171.914,71.863 171.008,72.311 170.330 C 73.302 168.828,73.383 167.267,72.439 167.850 C 71.952 168.151,71.851 166.861,72.093 163.414 C 72.413 158.842,73.192 157.082,74.529 157.908 C 75.319 158.396,76.875 156.876,76.875 155.615 C 76.875 154.486,78.029 153.766,79.895 153.730 C 81.656 153.697,83.385 150.756,82.625 149.086 C 81.148 145.846,76.734 147.025,76.606 150.693 C 76.521 153.153,74.902 155.801,73.658 155.515 C 73.189 155.407,72.174 155.951,71.403 156.722 C 69.155 158.970,66.615 158.643,67.110 156.169 C 67.392 154.757,67.133 153.617,66.179 152.073 C 65.452 150.897,64.960 149.879,65.085 149.811 C 65.210 149.743,66.400 149.133,67.730 148.456 C 69.059 147.778,70.850 146.302,71.710 145.175 C 72.570 144.047,73.531 143.125,73.845 143.125 C 74.160 143.125,75.193 142.331,76.141 141.361 C 77.420 140.053,78.382 139.634,79.868 139.737 C 80.970 139.813,81.715 139.622,81.524 139.313 C 81.333 139.003,80.490 138.750,79.651 138.750 C 78.812 138.750,78.125 138.452,78.125 138.088 C 78.125 137.724,77.844 137.600,77.500 137.813 C 76.849 138.215,76.658 137.532,76.757 135.156 C 76.790 134.383,76.689 133.750,76.533 133.750 C 76.377 133.750,76.250 134.061,76.250 134.442 M11.710 135.563 C 11.343 136.966,11.688 137.500,12.960 137.500 C 13.505 137.500,13.761 136.986,13.637 136.143 C 13.375 134.362,12.123 133.985,11.710 135.563 M22.028 138.543 C 21.981 140.619,22.059 140.759,22.616 139.595 C 23.026 138.740,23.045 137.872,22.670 137.201 C 22.217 136.392,22.069 136.701,22.028 138.543 M55.417 142.917 C 54.658 143.676,54.985 144.342,55.938 143.976 C 56.453 143.778,56.875 143.365,56.875 143.058 C 56.875 142.403,56.014 142.319,55.417 142.917 M110.625 142.953 C 110.109 143.149,109.463 143.689,109.188 144.154 C 108.913 144.619,108.069 145.033,107.313 145.073 C 106.255 145.128,106.190 145.211,107.031 145.431 C 108.290 145.760,108.502 147.395,107.344 147.838 C 105.957 148.369,106.499 156.499,108.022 158.022 C 108.720 158.720,109.729 159.960,110.264 160.776 C 111.350 162.433,118.954 164.457,123.288 164.243 C 125.256 164.146,125.951 164.478,127.550 166.282 C 128.601 167.468,129.284 168.086,129.068 167.656 C 128.842 167.205,129.070 166.875,129.608 166.875 C 130.121 166.875,130.719 166.313,130.938 165.625 C 131.374 164.249,132.489 163.918,132.519 165.156 C 132.529 165.586,132.844 165.410,133.219 164.765 C 134.109 163.233,132.284 154.955,130.377 151.875 C 129.632 150.672,128.686 148.914,128.275 147.969 C 127.863 147.023,127.169 146.249,126.732 146.247 C 126.295 146.246,124.672 145.403,123.125 144.375 C 120.343 142.526,113.740 141.775,110.625 142.953 M86.580 150.093 C 85.016 151.952,84.855 153.520,86.385 151.990 C 87.510 150.865,89.273 151.104,90.145 152.500 C 91.051 153.951,92.635 154.204,92.101 152.813 C 91.886 152.252,92.096 151.875,92.625 151.875 C 93.111 151.875,93.814 152.648,94.188 153.594 L 94.867 155.313 94.924 153.750 C 94.995 151.791,94.110 150.329,93.195 150.894 C 92.794 151.142,92.500 150.895,92.500 150.313 C 92.500 149.756,92.206 149.483,91.848 149.704 C 91.489 149.926,90.524 149.668,89.704 149.131 C 88.281 148.198,88.137 148.243,86.580 150.093 M397.493 150.781 C 395.607 153.875,396.017 158.112,398.187 157.949 C 399.238 157.869,399.375 157.332,399.375 153.304 C 399.375 148.151,399.222 147.946,397.493 150.781 M88.837 160.669 C 88.025 161.332,86.987 161.875,86.530 161.875 C 86.073 161.875,85.549 162.117,85.366 162.413 C 84.892 163.181,89.959 162.166,90.800 161.325 C 92.140 159.985,90.389 159.401,88.837 160.669 M123.750 170.500 C 123.750 171.463,123.459 172.541,123.104 172.896 C 122.660 173.340,122.757 173.542,123.417 173.542 C 124.111 173.542,124.375 172.882,124.375 171.146 C 124.375 169.828,124.234 168.750,124.063 168.750 C 123.891 168.750,123.750 169.537,123.750 170.500 M128.125 175.070 C 128.125 175.397,128.547 175.826,129.063 176.024 C 129.578 176.222,130.000 176.916,130.000 177.567 C 130.000 178.793,130.430 178.955,133.205 178.777 C 134.978 178.663,138.260 182.046,137.726 183.437 C 137.572 183.838,137.880 184.167,138.411 184.167 C 138.941 184.167,139.410 183.651,139.453 183.021 C 139.566 181.368,139.654 181.021,140.162 180.222 C 140.654 179.449,138.993 178.460,137.594 178.693 C 137.129 178.770,136.910 178.574,137.106 178.258 C 137.657 177.365,134.705 174.913,133.591 175.340 C 133.054 175.546,131.604 175.436,130.369 175.095 C 128.968 174.709,128.125 174.699,128.125 175.070 M243.858 176.660 C 243.978 177.286,244.566 177.892,245.163 178.007 C 246.676 178.299,246.525 177.066,244.944 176.220 C 243.826 175.622,243.670 175.685,243.858 176.660 M136.561 186.028 C 135.730 186.859,135.692 187.158,136.360 187.581 C 138.245 188.777,140.000 187.809,140.000 185.574 C 140.000 184.620,137.660 184.930,136.561 186.028 M188.755 187.656 C 188.761 188.711,191.751 190.081,192.258 189.262 C 192.469 188.920,193.188 188.784,193.856 188.959 C 194.816 189.210,194.925 189.101,194.376 188.438 C 193.982 187.964,192.880 187.701,191.840 187.833 C 190.828 187.961,190.000 187.798,190.000 187.470 C 190.000 187.143,189.719 186.875,189.375 186.875 C 189.031 186.875,188.752 187.227,188.755 187.656 M141.250 189.980 C 141.250 190.313,141.718 190.406,142.290 190.187 C 142.938 189.938,143.176 190.037,142.922 190.448 C 142.697 190.811,142.933 191.456,143.444 191.881 C 144.532 192.783,144.640 192.288,143.728 190.584 C 143.063 189.341,141.250 188.900,141.250 189.980 M136.680 206.654 C 135.865 207.469,136.254 208.125,137.552 208.125 C 138.279 208.125,138.745 207.797,138.607 207.383 C 138.302 206.469,137.259 206.075,136.680 206.654 M132.115 210.901 C 131.919 211.412,132.366 212.684,133.109 213.728 C 133.852 214.771,134.306 215.625,134.118 215.625 C 133.388 215.625,136.052 219.618,137.209 220.260 C 137.882 220.632,139.223 221.460,140.190 222.099 C 143.907 224.557,143.082 221.562,138.750 216.875 C 137.034 215.018,135.491 213.062,135.322 212.529 C 134.812 210.922,132.548 209.773,132.115 210.901 M131.694 221.251 C 131.514 221.939,131.592 222.362,131.868 222.192 C 132.143 222.022,132.524 222.286,132.713 222.779 C 132.958 223.417,132.482 223.748,131.060 223.925 C 129.961 224.063,131.172 224.178,133.750 224.181 C 136.328 224.185,137.659 224.070,136.708 223.926 C 135.757 223.783,135.130 223.420,135.316 223.120 C 135.650 222.578,133.286 220.000,132.455 220.000 C 132.216 220.000,131.874 220.563,131.694 221.251 " stroke="none" fill="#000000" fill-rule="evenodd"></path></g></svg>