<?xml version="1.0" encoding="UTF-8" standalone="no"?><!-- Generator: Gravit.io --><svg xmlns="http://www.w3.org/2000/svg" xmlns:xlink="http://www.w3.org/1999/xlink" style="isolation:isolate" viewBox="0 0 1 1" width="1pt" height="1pt"><defs><clipPath id="_clipPath_GLfm5iITccHldAW1ZwzlD0fyUmECaPbW"><rect width="1" height="1"/></clipPath></defs><g clip-path="url(#_clipPath_GLfm5iITccHldAW1ZwzlD0fyUmECaPbW)"><g><path d=" M 0.001 0.004 C -0.001 0.014 0.001 0.415 0.003 0.422 C 0.005 0.427 0.005 0.429 0.004 0.43 C 0.001 0.431 0.001 0.439 0.004 0.439 C 0.006 0.439 0.007 0.437 0.007 0.434 C 0.007 0.43 0.007 0.43 0.01 0.435 C 0.012 0.438 0.013 0.438 0.012 0.437 C 0.012 0.434 0.012 0.433 0.014 0.433 C 0.015 0.433 0.016 0.432 0.016 0.43 C 0.016 0.429 0.017 0.428 0.018 0.429 C 0.02 0.43 0.02 0.432 0.02 0.433 C 0.019 0.435 0.018 0.435 0.017 0.434 C 0.017 0.433 0.016 0.434 0.016 0.436 C 0.016 0.437 0.017 0.439 0.019 0.439 C 0.021 0.439 0.022 0.44 0.022 0.442 C 0.022 0.443 0.023 0.444 0.023 0.443 C 0.024 0.442 0.026 0.444 0.027 0.446 C 0.031 0.45 0.027 0.456 0.023 0.454 C 0.022 0.453 0.019 0.458 0.017 0.465 C 0.014 0.472 0.009 0.48 0.006 0.483 L 0 0.489 L 0.001 0.528 C 0.002 0.55 0.002 0.574 0.002 0.582 C 0.001 0.589 0.001 0.686 0.001 0.797 L 0.001 0.998 L 0.14 0.999 C 0.28 0.999 0.283 0.999 0.283 0.99 C 0.283 0.988 0.282 0.989 0.282 0.991 C 0.28 0.995 0.28 0.994 0.28 0.99 C 0.28 0.988 0.281 0.985 0.282 0.983 C 0.284 0.982 0.285 0.976 0.286 0.97 C 0.286 0.964 0.286 0.96 0.285 0.961 C 0.282 0.965 0.28 0.955 0.283 0.949 C 0.285 0.946 0.286 0.944 0.285 0.944 C 0.284 0.944 0.283 0.945 0.282 0.947 C 0.28 0.95 0.28 0.95 0.28 0.946 C 0.28 0.944 0.282 0.941 0.283 0.939 C 0.286 0.936 0.286 0.933 0.286 0.926 C 0.286 0.921 0.286 0.917 0.287 0.918 C 0.288 0.919 0.288 0.924 0.288 0.93 C 0.287 0.936 0.287 0.94 0.288 0.94 C 0.288 0.939 0.29 0.94 0.291 0.941 C 0.294 0.943 0.295 0.943 0.296 0.941 C 0.297 0.939 0.297 0.938 0.296 0.938 C 0.295 0.938 0.294 0.938 0.294 0.937 C 0.297 0.933 0.3 0.939 0.3 0.947 C 0.3 0.951 0.301 0.955 0.302 0.955 C 0.302 0.955 0.303 0.959 0.302 0.965 C 0.302 0.97 0.301 0.974 0.3 0.974 C 0.299 0.974 0.299 0.976 0.299 0.978 C 0.3 0.981 0.299 0.983 0.297 0.983 C 0.295 0.983 0.294 0.985 0.293 0.987 C 0.292 0.99 0.291 0.993 0.29 0.995 C 0.289 0.996 0.29 0.996 0.292 0.996 C 0.294 0.995 0.295 0.993 0.295 0.99 C 0.295 0.987 0.296 0.985 0.298 0.985 C 0.3 0.985 0.303 0.985 0.304 0.984 C 0.306 0.983 0.307 0.984 0.307 0.986 C 0.307 0.989 0.305 0.99 0.303 0.989 C 0.299 0.987 0.295 0.992 0.297 0.997 C 0.299 1.003 0.368 0.999 0.372 0.992 C 0.376 0.987 0.377 0.986 0.374 0.984 C 0.37 0.981 0.364 0.957 0.366 0.954 C 0.367 0.952 0.369 0.947 0.37 0.943 C 0.372 0.938 0.373 0.935 0.375 0.936 C 0.376 0.937 0.377 0.937 0.378 0.935 C 0.378 0.934 0.377 0.932 0.375 0.931 C 0.372 0.93 0.371 0.927 0.371 0.923 C 0.371 0.92 0.369 0.915 0.368 0.912 C 0.366 0.909 0.365 0.906 0.365 0.904 C 0.366 0.902 0.365 0.902 0.363 0.903 C 0.361 0.904 0.359 0.903 0.358 0.9 C 0.355 0.895 0.344 0.881 0.342 0.882 C 0.342 0.882 0.341 0.881 0.341 0.879 C 0.34 0.875 0.351 0.875 0.355 0.878 C 0.357 0.879 0.359 0.88 0.36 0.879 C 0.361 0.878 0.361 0.878 0.361 0.88 C 0.361 0.884 0.364 0.883 0.365 0.878 C 0.365 0.876 0.365 0.875 0.364 0.876 C 0.364 0.877 0.362 0.875 0.361 0.872 C 0.36 0.869 0.358 0.866 0.357 0.866 C 0.355 0.866 0.353 0.865 0.353 0.864 C 0.352 0.862 0.35 0.862 0.349 0.862 C 0.347 0.863 0.346 0.863 0.346 0.861 C 0.346 0.859 0.345 0.858 0.344 0.858 C 0.343 0.859 0.34 0.857 0.339 0.853 C 0.337 0.85 0.335 0.847 0.334 0.847 C 0.333 0.847 0.331 0.844 0.33 0.841 C 0.329 0.838 0.328 0.836 0.327 0.837 C 0.326 0.838 0.325 0.837 0.325 0.836 C 0.325 0.834 0.323 0.832 0.321 0.83 C 0.318 0.829 0.316 0.826 0.316 0.825 C 0.316 0.82 0.319 0.818 0.321 0.821 C 0.322 0.823 0.324 0.823 0.324 0.822 C 0.325 0.821 0.325 0.822 0.325 0.824 C 0.325 0.827 0.326 0.828 0.327 0.828 C 0.329 0.828 0.33 0.829 0.33 0.831 C 0.33 0.832 0.331 0.833 0.332 0.832 C 0.334 0.831 0.335 0.831 0.335 0.833 C 0.335 0.834 0.336 0.835 0.337 0.835 C 0.34 0.834 0.344 0.839 0.346 0.845 C 0.347 0.85 0.348 0.851 0.351 0.851 C 0.354 0.851 0.358 0.852 0.36 0.854 C 0.362 0.856 0.365 0.858 0.366 0.858 C 0.368 0.858 0.369 0.859 0.369 0.86 C 0.369 0.865 0.381 0.867 0.386 0.862 C 0.392 0.857 0.395 0.849 0.392 0.849 C 0.389 0.849 0.389 0.847 0.392 0.84 C 0.395 0.835 0.395 0.835 0.39 0.836 C 0.385 0.838 0.382 0.833 0.382 0.826 C 0.382 0.822 0.395 0.825 0.397 0.83 C 0.401 0.837 0.402 0.837 0.401 0.829 C 0.4 0.82 0.401 0.82 0.405 0.828 C 0.409 0.835 0.409 0.834 0.41 0.822 C 0.411 0.811 0.407 0.806 0.406 0.816 C 0.405 0.819 0.404 0.821 0.402 0.82 C 0.398 0.817 0.394 0.81 0.395 0.807 C 0.396 0.805 0.395 0.805 0.394 0.806 C 0.392 0.808 0.386 0.8 0.385 0.794 C 0.385 0.792 0.384 0.788 0.382 0.787 C 0.381 0.785 0.38 0.782 0.38 0.781 C 0.38 0.78 0.378 0.776 0.375 0.772 C 0.373 0.768 0.371 0.763 0.371 0.76 C 0.371 0.757 0.37 0.755 0.368 0.755 C 0.366 0.755 0.36 0.742 0.36 0.738 C 0.36 0.737 0.36 0.736 0.361 0.736 C 0.362 0.736 0.363 0.737 0.362 0.738 C 0.362 0.74 0.362 0.741 0.363 0.741 C 0.364 0.741 0.371 0.752 0.378 0.765 C 0.385 0.778 0.393 0.789 0.394 0.79 C 0.396 0.791 0.397 0.793 0.397 0.794 C 0.397 0.795 0.398 0.796 0.399 0.795 C 0.403 0.792 0.416 0.808 0.415 0.814 C 0.415 0.817 0.416 0.824 0.417 0.829 L 0.419 0.839 L 0.423 0.831 C 0.424 0.827 0.426 0.822 0.427 0.822 C 0.427 0.821 0.428 0.822 0.429 0.825 C 0.43 0.83 0.435 0.829 0.435 0.823 C 0.435 0.817 0.444 0.814 0.446 0.819 C 0.447 0.82 0.45 0.82 0.452 0.818 C 0.455 0.817 0.459 0.815 0.461 0.814 C 0.463 0.814 0.466 0.813 0.467 0.812 C 0.469 0.811 0.49 0.811 0.514 0.812 C 0.528 0.812 0.529 0.813 0.53 0.818 C 0.53 0.823 0.531 0.824 0.535 0.824 C 0.539 0.824 0.54 0.823 0.539 0.82 C 0.538 0.815 0.538 0.815 0.54 0.82 C 0.541 0.823 0.543 0.824 0.543 0.822 C 0.544 0.82 0.545 0.819 0.546 0.82 C 0.547 0.821 0.547 0.819 0.547 0.816 C 0.547 0.812 0.548 0.811 0.551 0.811 C 0.556 0.811 0.56 0.813 0.56 0.817 C 0.56 0.821 0.564 0.826 0.566 0.824 C 0.566 0.824 0.567 0.826 0.568 0.828 C 0.569 0.832 0.579 0.833 0.58 0.829 C 0.581 0.827 0.582 0.827 0.582 0.829 C 0.582 0.831 0.583 0.833 0.585 0.833 C 0.587 0.833 0.59 0.834 0.59 0.836 C 0.591 0.838 0.591 0.839 0.589 0.838 C 0.586 0.835 0.584 0.843 0.586 0.848 C 0.587 0.85 0.589 0.852 0.591 0.852 C 0.592 0.852 0.593 0.851 0.591 0.85 C 0.59 0.849 0.59 0.846 0.591 0.844 C 0.592 0.842 0.593 0.841 0.594 0.842 C 0.595 0.844 0.595 0.842 0.595 0.835 C 0.594 0.828 0.594 0.826 0.596 0.829 C 0.599 0.835 0.6 0.833 0.6 0.826 C 0.6 0.822 0.601 0.818 0.602 0.817 C 0.603 0.817 0.603 0.814 0.603 0.812 C 0.603 0.81 0.603 0.811 0.602 0.813 C 0.601 0.816 0.6 0.816 0.6 0.814 C 0.6 0.809 0.602 0.808 0.605 0.811 C 0.608 0.814 0.609 0.814 0.61 0.81 C 0.611 0.807 0.612 0.806 0.613 0.807 C 0.615 0.807 0.616 0.806 0.616 0.802 C 0.617 0.797 0.618 0.796 0.623 0.798 C 0.633 0.801 0.629 0.791 0.619 0.786 C 0.611 0.782 0.606 0.784 0.61 0.789 C 0.612 0.79 0.611 0.791 0.609 0.791 C 0.607 0.791 0.606 0.794 0.606 0.8 C 0.606 0.801 0.605 0.801 0.604 0.8 C 0.602 0.799 0.602 0.799 0.603 0.802 C 0.604 0.806 0.604 0.806 0.602 0.803 C 0.599 0.799 0.593 0.801 0.592 0.808 C 0.591 0.813 0.59 0.813 0.584 0.811 C 0.581 0.81 0.578 0.811 0.579 0.812 C 0.58 0.816 0.573 0.815 0.57 0.811 C 0.569 0.809 0.567 0.808 0.566 0.809 C 0.565 0.81 0.564 0.809 0.564 0.806 C 0.564 0.803 0.565 0.802 0.567 0.803 C 0.568 0.804 0.57 0.803 0.572 0.801 C 0.573 0.799 0.577 0.796 0.58 0.795 C 0.584 0.794 0.587 0.792 0.588 0.79 C 0.588 0.788 0.594 0.783 0.599 0.779 C 0.605 0.774 0.61 0.769 0.61 0.767 C 0.61 0.762 0.62 0.749 0.628 0.745 C 0.632 0.743 0.637 0.738 0.639 0.735 C 0.642 0.73 0.643 0.73 0.646 0.733 C 0.648 0.736 0.649 0.735 0.648 0.732 C 0.647 0.728 0.653 0.713 0.656 0.713 C 0.657 0.713 0.658 0.712 0.658 0.709 C 0.658 0.707 0.657 0.705 0.657 0.705 C 0.656 0.705 0.655 0.704 0.655 0.702 C 0.655 0.699 0.661 0.699 0.664 0.702 C 0.667 0.705 0.667 0.704 0.667 0.701 C 0.667 0.699 0.667 0.697 0.666 0.697 C 0.665 0.697 0.664 0.695 0.664 0.694 C 0.664 0.692 0.666 0.691 0.668 0.692 C 0.671 0.694 0.672 0.692 0.673 0.682 C 0.674 0.675 0.675 0.67 0.677 0.67 C 0.678 0.67 0.679 0.667 0.68 0.662 C 0.68 0.652 0.681 0.644 0.682 0.638 C 0.683 0.633 0.686 0.609 0.687 0.6 C 0.688 0.591 0.691 0.585 0.694 0.587 C 0.698 0.588 0.7 0.583 0.699 0.575 C 0.699 0.57 0.699 0.569 0.703 0.566 C 0.705 0.564 0.707 0.562 0.706 0.559 C 0.704 0.55 0.709 0.536 0.715 0.536 C 0.718 0.536 0.722 0.536 0.724 0.535 C 0.727 0.533 0.727 0.533 0.724 0.536 C 0.721 0.539 0.721 0.539 0.726 0.549 C 0.732 0.559 0.735 0.558 0.734 0.547 C 0.733 0.543 0.734 0.541 0.735 0.541 C 0.737 0.541 0.738 0.54 0.738 0.537 C 0.738 0.535 0.74 0.531 0.742 0.528 C 0.744 0.524 0.745 0.521 0.745 0.519 C 0.744 0.516 0.743 0.517 0.742 0.52 C 0.739 0.526 0.736 0.524 0.736 0.518 C 0.736 0.516 0.735 0.513 0.734 0.512 C 0.73 0.51 0.73 0.51 0.73 0.514 C 0.73 0.515 0.731 0.516 0.731 0.515 C 0.732 0.514 0.734 0.516 0.735 0.519 C 0.737 0.526 0.737 0.527 0.734 0.527 C 0.731 0.527 0.728 0.514 0.73 0.509 C 0.731 0.507 0.731 0.505 0.731 0.505 C 0.724 0.503 0.721 0.504 0.717 0.507 C 0.713 0.51 0.713 0.512 0.714 0.514 C 0.716 0.515 0.717 0.515 0.718 0.515 C 0.718 0.514 0.719 0.515 0.72 0.517 C 0.721 0.519 0.72 0.519 0.719 0.518 C 0.718 0.517 0.717 0.518 0.717 0.52 C 0.717 0.528 0.712 0.534 0.709 0.528 C 0.707 0.523 0.708 0.513 0.711 0.51 C 0.713 0.508 0.713 0.507 0.711 0.505 C 0.71 0.504 0.708 0.504 0.708 0.506 C 0.707 0.508 0.707 0.508 0.707 0.505 C 0.707 0.5 0.718 0.481 0.725 0.475 C 0.727 0.473 0.728 0.47 0.728 0.468 C 0.728 0.466 0.729 0.463 0.731 0.462 C 0.732 0.46 0.733 0.457 0.734 0.454 C 0.735 0.443 0.735 0.44 0.736 0.439 C 0.742 0.429 0.743 0.395 0.738 0.384 C 0.736 0.38 0.735 0.376 0.736 0.375 C 0.736 0.373 0.735 0.368 0.734 0.362 C 0.732 0.356 0.732 0.351 0.733 0.349 C 0.734 0.346 0.733 0.333 0.731 0.333 C 0.73 0.333 0.73 0.334 0.731 0.336 C 0.731 0.337 0.731 0.339 0.731 0.339 C 0.727 0.339 0.727 0.327 0.731 0.322 C 0.735 0.315 0.736 0.31 0.732 0.307 C 0.729 0.305 0.728 0.307 0.73 0.313 C 0.731 0.319 0.731 0.322 0.728 0.322 C 0.727 0.322 0.727 0.32 0.727 0.318 C 0.728 0.314 0.726 0.314 0.723 0.317 C 0.72 0.32 0.717 0.305 0.719 0.302 C 0.721 0.299 0.721 0.299 0.72 0.302 C 0.718 0.307 0.72 0.306 0.722 0.301 C 0.724 0.298 0.724 0.297 0.723 0.298 C 0.721 0.3 0.714 0.291 0.714 0.286 C 0.714 0.284 0.715 0.284 0.716 0.284 C 0.717 0.285 0.718 0.285 0.718 0.283 C 0.719 0.282 0.72 0.281 0.721 0.282 C 0.722 0.283 0.722 0.282 0.722 0.28 C 0.722 0.279 0.723 0.278 0.724 0.279 C 0.725 0.28 0.725 0.28 0.725 0.278 C 0.725 0.277 0.727 0.275 0.729 0.274 C 0.736 0.271 0.733 0.261 0.725 0.263 C 0.722 0.264 0.719 0.263 0.719 0.262 C 0.719 0.255 0.737 0.247 0.739 0.252 C 0.74 0.255 0.75 0.25 0.75 0.246 C 0.75 0.245 0.751 0.245 0.752 0.246 C 0.753 0.247 0.753 0.249 0.753 0.25 C 0.752 0.251 0.754 0.25 0.758 0.247 C 0.761 0.244 0.764 0.243 0.764 0.244 C 0.764 0.246 0.766 0.246 0.767 0.245 C 0.768 0.244 0.769 0.245 0.769 0.247 C 0.769 0.248 0.77 0.249 0.771 0.248 C 0.774 0.246 0.774 0.265 0.771 0.27 C 0.769 0.272 0.769 0.273 0.77 0.27 C 0.77 0.268 0.77 0.267 0.768 0.268 C 0.766 0.27 0.766 0.271 0.768 0.274 C 0.769 0.277 0.769 0.277 0.767 0.276 C 0.765 0.275 0.764 0.273 0.764 0.272 C 0.764 0.27 0.764 0.27 0.763 0.271 C 0.761 0.272 0.761 0.273 0.763 0.275 C 0.766 0.278 0.766 0.292 0.763 0.293 C 0.762 0.294 0.762 0.296 0.762 0.297 C 0.763 0.3 0.757 0.311 0.753 0.316 C 0.751 0.318 0.746 0.334 0.746 0.337 C 0.746 0.338 0.747 0.339 0.748 0.339 C 0.751 0.339 0.751 0.338 0.749 0.336 C 0.747 0.334 0.747 0.333 0.75 0.333 C 0.752 0.333 0.755 0.331 0.757 0.328 C 0.759 0.325 0.761 0.322 0.762 0.322 C 0.763 0.322 0.764 0.321 0.764 0.32 C 0.764 0.314 0.767 0.305 0.769 0.304 C 0.771 0.303 0.772 0.301 0.772 0.3 C 0.772 0.298 0.774 0.297 0.776 0.297 C 0.78 0.297 0.781 0.299 0.78 0.307 C 0.78 0.309 0.781 0.311 0.782 0.311 C 0.783 0.311 0.783 0.312 0.782 0.314 C 0.779 0.319 0.779 0.33 0.783 0.329 C 0.784 0.329 0.786 0.327 0.786 0.325 C 0.787 0.316 0.79 0.313 0.792 0.317 C 0.793 0.319 0.794 0.319 0.794 0.318 C 0.794 0.317 0.795 0.317 0.796 0.319 C 0.798 0.322 0.799 0.322 0.801 0.319 C 0.806 0.31 0.809 0.306 0.81 0.307 C 0.811 0.308 0.812 0.307 0.812 0.304 C 0.813 0.302 0.814 0.301 0.814 0.301 C 0.815 0.302 0.816 0.299 0.817 0.294 C 0.819 0.285 0.822 0.284 0.825 0.29 C 0.826 0.292 0.827 0.294 0.826 0.294 C 0.824 0.294 0.822 0.301 0.822 0.309 C 0.821 0.31 0.821 0.312 0.82 0.313 C 0.819 0.314 0.819 0.314 0.82 0.312 C 0.82 0.31 0.82 0.308 0.819 0.308 C 0.816 0.308 0.814 0.333 0.817 0.339 C 0.818 0.343 0.819 0.344 0.819 0.342 C 0.819 0.34 0.821 0.34 0.825 0.341 C 0.829 0.342 0.831 0.341 0.832 0.338 C 0.834 0.333 0.833 0.331 0.83 0.325 C 0.828 0.322 0.827 0.319 0.828 0.319 C 0.829 0.319 0.83 0.318 0.83 0.315 C 0.83 0.313 0.833 0.31 0.836 0.308 C 0.839 0.306 0.843 0.303 0.845 0.301 C 0.85 0.295 0.857 0.3 0.856 0.309 C 0.855 0.312 0.855 0.319 0.854 0.323 C 0.854 0.328 0.852 0.333 0.851 0.334 C 0.844 0.341 0.853 0.357 0.86 0.35 C 0.863 0.348 0.864 0.348 0.864 0.35 C 0.864 0.351 0.863 0.353 0.862 0.353 C 0.861 0.353 0.86 0.354 0.859 0.357 C 0.859 0.359 0.859 0.361 0.86 0.361 C 0.861 0.361 0.861 0.362 0.86 0.363 C 0.856 0.369 0.852 0.389 0.855 0.391 C 0.857 0.393 0.858 0.393 0.859 0.391 C 0.86 0.389 0.859 0.389 0.858 0.39 C 0.857 0.391 0.857 0.39 0.857 0.389 C 0.857 0.387 0.857 0.386 0.858 0.386 C 0.859 0.386 0.861 0.382 0.862 0.378 C 0.863 0.373 0.865 0.37 0.867 0.37 C 0.872 0.369 0.878 0.359 0.879 0.352 C 0.879 0.345 0.89 0.34 0.897 0.343 C 0.899 0.344 0.902 0.345 0.902 0.345 C 0.905 0.344 0.903 0.356 0.899 0.363 C 0.894 0.373 0.895 0.378 0.901 0.371 C 0.903 0.37 0.912 0.374 0.915 0.378 C 0.917 0.38 0.918 0.38 0.919 0.379 C 0.921 0.377 0.924 0.385 0.923 0.39 C 0.923 0.392 0.923 0.394 0.924 0.395 C 0.926 0.396 0.926 0.397 0.924 0.397 C 0.923 0.397 0.923 0.399 0.924 0.405 C 0.925 0.411 0.924 0.416 0.922 0.424 C 0.92 0.434 0.92 0.436 0.921 0.441 C 0.928 0.456 0.929 0.484 0.924 0.495 C 0.922 0.499 0.921 0.505 0.922 0.508 C 0.923 0.514 0.924 0.515 0.926 0.511 C 0.927 0.509 0.928 0.509 0.93 0.509 C 0.932 0.51 0.933 0.51 0.934 0.508 C 0.935 0.503 0.938 0.505 0.937 0.51 C 0.936 0.513 0.936 0.514 0.937 0.513 C 0.938 0.511 0.939 0.515 0.94 0.527 C 0.94 0.528 0.94 0.529 0.941 0.529 C 0.942 0.528 0.943 0.529 0.943 0.53 C 0.944 0.532 0.943 0.533 0.942 0.533 C 0.94 0.533 0.939 0.534 0.94 0.535 C 0.941 0.539 0.937 0.546 0.93 0.551 C 0.926 0.554 0.924 0.557 0.925 0.559 C 0.926 0.561 0.926 0.569 0.926 0.578 L 0.926 0.595 L 0.932 0.599 C 0.936 0.601 0.94 0.604 0.943 0.604 C 0.953 0.608 0.964 0.638 0.955 0.638 C 0.954 0.638 0.954 0.641 0.954 0.644 C 0.955 0.649 0.965 0.662 0.968 0.662 C 0.968 0.662 0.969 0.663 0.97 0.664 C 0.971 0.665 0.974 0.666 0.977 0.666 C 0.982 0.666 0.997 0.689 0.997 0.697 C 0.997 0.699 0.998 0.7 0.999 0.7 C 1 0.7 1 0.675 1 0.628 C 0.999 0.558 0.999 0.557 0.996 0.557 C 0.993 0.558 0.963 0.558 0.958 0.557 C 0.953 0.557 0.957 0.552 0.967 0.544 C 0.975 0.539 0.976 0.539 0.981 0.543 C 0.984 0.545 0.986 0.546 0.985 0.544 C 0.985 0.543 0.986 0.541 0.988 0.54 C 0.992 0.539 0.994 0.524 0.991 0.521 C 0.99 0.519 0.991 0.508 0.992 0.508 C 0.995 0.508 0.997 0.513 0.996 0.524 C 0.996 0.533 0.996 0.536 0.998 0.536 C 1 0.536 1 0.499 1 0.269 L 0.999 0.002 L 0.823 0.001 C 0.723 0.001 0.644 0.001 0.642 0.003 C 0.637 0.005 0.637 0.005 0.641 0.005 C 0.645 0.006 0.644 0.008 0.64 0.009 C 0.636 0.011 0.633 0.017 0.633 0.026 C 0.633 0.031 0.633 0.033 0.631 0.032 C 0.63 0.031 0.63 0.031 0.631 0.033 C 0.631 0.034 0.633 0.035 0.635 0.034 C 0.637 0.033 0.638 0.034 0.638 0.036 C 0.638 0.04 0.64 0.037 0.64 0.033 C 0.64 0.032 0.641 0.03 0.641 0.029 C 0.641 0.029 0.643 0.029 0.646 0.031 C 0.648 0.033 0.65 0.035 0.649 0.037 C 0.649 0.039 0.649 0.039 0.651 0.038 C 0.655 0.035 0.655 0.046 0.65 0.054 C 0.647 0.059 0.646 0.061 0.646 0.058 C 0.647 0.055 0.647 0.055 0.646 0.058 C 0.642 0.063 0.646 0.069 0.65 0.065 C 0.654 0.061 0.66 0.063 0.66 0.068 C 0.66 0.07 0.661 0.071 0.665 0.071 C 0.668 0.07 0.671 0.072 0.672 0.075 C 0.673 0.078 0.674 0.078 0.673 0.075 C 0.672 0.071 0.672 0.071 0.674 0.075 C 0.677 0.081 0.684 0.088 0.682 0.083 C 0.681 0.081 0.682 0.08 0.685 0.082 C 0.688 0.083 0.689 0.083 0.689 0.081 C 0.688 0.078 0.689 0.077 0.703 0.076 C 0.712 0.076 0.713 0.076 0.711 0.081 C 0.71 0.084 0.709 0.086 0.708 0.086 C 0.707 0.086 0.702 0.09 0.697 0.094 C 0.692 0.099 0.686 0.103 0.684 0.104 C 0.677 0.106 0.674 0.109 0.675 0.112 C 0.675 0.114 0.675 0.114 0.675 0.113 C 0.674 0.112 0.671 0.113 0.669 0.116 C 0.664 0.121 0.664 0.128 0.669 0.128 C 0.671 0.128 0.672 0.129 0.672 0.13 C 0.672 0.132 0.668 0.132 0.666 0.13 C 0.666 0.13 0.665 0.13 0.665 0.129 C 0.664 0.129 0.661 0.127 0.657 0.126 C 0.649 0.121 0.648 0.121 0.649 0.126 C 0.65 0.128 0.648 0.133 0.646 0.136 C 0.643 0.14 0.641 0.143 0.642 0.144 C 0.642 0.146 0.641 0.148 0.64 0.15 C 0.638 0.153 0.637 0.153 0.636 0.15 C 0.636 0.148 0.634 0.147 0.633 0.148 C 0.632 0.149 0.632 0.149 0.632 0.147 C 0.632 0.145 0.63 0.147 0.628 0.151 C 0.625 0.161 0.62 0.162 0.619 0.153 C 0.619 0.15 0.62 0.147 0.621 0.147 C 0.622 0.147 0.622 0.145 0.622 0.142 C 0.622 0.14 0.622 0.138 0.623 0.138 C 0.624 0.138 0.626 0.136 0.626 0.135 C 0.627 0.134 0.624 0.133 0.62 0.135 C 0.613 0.136 0.612 0.136 0.612 0.131 C 0.611 0.128 0.61 0.125 0.609 0.125 C 0.608 0.125 0.606 0.123 0.605 0.12 C 0.602 0.116 0.601 0.116 0.6 0.119 C 0.597 0.128 0.587 0.121 0.589 0.112 C 0.589 0.109 0.588 0.108 0.582 0.108 C 0.577 0.108 0.575 0.107 0.576 0.105 C 0.577 0.103 0.577 0.103 0.576 0.104 C 0.575 0.105 0.574 0.109 0.575 0.114 C 0.575 0.119 0.575 0.122 0.574 0.122 C 0.573 0.122 0.573 0.12 0.573 0.118 C 0.574 0.114 0.569 0.115 0.566 0.12 C 0.56 0.133 0.563 0.142 0.57 0.133 C 0.574 0.127 0.574 0.127 0.576 0.131 C 0.577 0.134 0.578 0.135 0.579 0.134 C 0.58 0.133 0.58 0.134 0.58 0.135 C 0.58 0.137 0.582 0.138 0.586 0.137 C 0.591 0.136 0.591 0.136 0.59 0.14 C 0.588 0.142 0.588 0.144 0.589 0.145 C 0.59 0.145 0.588 0.147 0.586 0.149 C 0.584 0.151 0.584 0.152 0.585 0.152 C 0.587 0.151 0.588 0.151 0.588 0.153 C 0.588 0.156 0.581 0.157 0.579 0.154 C 0.579 0.152 0.574 0.15 0.567 0.15 C 0.559 0.149 0.558 0.147 0.559 0.138 C 0.559 0.127 0.557 0.116 0.555 0.118 C 0.554 0.119 0.553 0.117 0.553 0.113 C 0.553 0.107 0.553 0.106 0.549 0.106 C 0.546 0.106 0.544 0.107 0.545 0.108 C 0.545 0.109 0.545 0.112 0.544 0.114 C 0.543 0.116 0.543 0.116 0.542 0.114 C 0.541 0.113 0.542 0.111 0.542 0.111 C 0.543 0.111 0.544 0.11 0.543 0.108 C 0.543 0.107 0.542 0.106 0.541 0.107 C 0.541 0.107 0.54 0.105 0.54 0.101 C 0.539 0.089 0.536 0.087 0.53 0.093 C 0.528 0.095 0.529 0.093 0.53 0.09 C 0.532 0.085 0.532 0.085 0.53 0.088 C 0.528 0.091 0.527 0.095 0.526 0.098 C 0.526 0.1 0.523 0.104 0.521 0.104 C 0.519 0.105 0.516 0.109 0.514 0.114 C 0.505 0.133 0.491 0.137 0.487 0.122 C 0.484 0.114 0.482 0.111 0.482 0.117 C 0.482 0.121 0.475 0.12 0.474 0.115 C 0.474 0.112 0.472 0.111 0.47 0.112 C 0.468 0.113 0.466 0.113 0.465 0.111 C 0.465 0.11 0.462 0.109 0.46 0.11 C 0.456 0.111 0.455 0.111 0.454 0.106 C 0.453 0.102 0.453 0.101 0.447 0.103 C 0.444 0.104 0.439 0.104 0.437 0.103 C 0.435 0.102 0.434 0.103 0.435 0.106 C 0.437 0.113 0.422 0.114 0.417 0.107 C 0.414 0.102 0.414 0.102 0.412 0.106 C 0.41 0.111 0.401 0.111 0.395 0.105 C 0.393 0.103 0.388 0.113 0.386 0.124 C 0.385 0.131 0.401 0.133 0.409 0.128 C 0.412 0.126 0.414 0.126 0.415 0.128 C 0.417 0.13 0.418 0.13 0.421 0.128 C 0.423 0.125 0.425 0.125 0.427 0.129 C 0.432 0.137 0.431 0.14 0.423 0.138 C 0.42 0.137 0.414 0.137 0.411 0.139 C 0.408 0.14 0.403 0.142 0.399 0.143 C 0.385 0.146 0.368 0.161 0.369 0.171 C 0.369 0.174 0.363 0.183 0.361 0.182 C 0.361 0.181 0.36 0.182 0.359 0.185 C 0.359 0.187 0.357 0.189 0.356 0.189 C 0.355 0.189 0.358 0.183 0.362 0.177 C 0.369 0.164 0.371 0.146 0.367 0.133 C 0.366 0.128 0.355 0.132 0.354 0.138 C 0.353 0.14 0.352 0.142 0.351 0.142 C 0.35 0.142 0.345 0.147 0.341 0.154 C 0.336 0.164 0.333 0.166 0.33 0.165 C 0.328 0.164 0.326 0.165 0.324 0.168 C 0.321 0.173 0.318 0.173 0.313 0.168 C 0.311 0.165 0.31 0.164 0.31 0.165 C 0.309 0.166 0.309 0.168 0.309 0.169 C 0.309 0.171 0.308 0.173 0.308 0.175 C 0.308 0.176 0.307 0.178 0.306 0.178 C 0.305 0.178 0.303 0.18 0.303 0.182 C 0.302 0.185 0.301 0.185 0.297 0.183 C 0.29 0.18 0.289 0.18 0.289 0.185 C 0.289 0.187 0.29 0.189 0.291 0.189 C 0.292 0.189 0.302 0.213 0.302 0.217 C 0.302 0.218 0.3 0.219 0.298 0.218 C 0.296 0.218 0.293 0.219 0.291 0.221 C 0.289 0.224 0.287 0.225 0.285 0.224 C 0.284 0.223 0.282 0.224 0.28 0.228 C 0.279 0.231 0.277 0.233 0.276 0.233 C 0.273 0.233 0.26 0.244 0.259 0.247 C 0.258 0.248 0.256 0.252 0.253 0.256 C 0.25 0.259 0.249 0.261 0.249 0.259 C 0.25 0.257 0.25 0.255 0.249 0.255 C 0.248 0.255 0.247 0.257 0.247 0.26 C 0.247 0.262 0.247 0.264 0.246 0.264 C 0.244 0.264 0.239 0.254 0.239 0.249 C 0.239 0.246 0.239 0.244 0.238 0.244 C 0.237 0.244 0.236 0.243 0.237 0.24 C 0.237 0.238 0.236 0.236 0.234 0.234 C 0.232 0.233 0.231 0.234 0.23 0.236 C 0.229 0.243 0.227 0.238 0.227 0.229 C 0.228 0.223 0.228 0.219 0.226 0.217 C 0.224 0.214 0.224 0.212 0.226 0.206 C 0.227 0.202 0.228 0.186 0.228 0.171 C 0.228 0.151 0.229 0.142 0.231 0.139 C 0.232 0.136 0.233 0.133 0.232 0.132 C 0.231 0.131 0.232 0.131 0.233 0.132 C 0.234 0.133 0.234 0.135 0.234 0.136 C 0.233 0.137 0.234 0.139 0.235 0.14 C 0.236 0.142 0.236 0.143 0.234 0.145 C 0.233 0.146 0.233 0.148 0.234 0.149 C 0.235 0.15 0.236 0.153 0.237 0.155 C 0.237 0.158 0.241 0.162 0.245 0.164 L 0.253 0.169 L 0.255 0.161 C 0.256 0.156 0.257 0.153 0.258 0.153 C 0.259 0.153 0.26 0.152 0.259 0.15 C 0.258 0.146 0.26 0.131 0.262 0.131 C 0.267 0.132 0.269 0.13 0.269 0.126 C 0.269 0.122 0.267 0.121 0.265 0.125 C 0.265 0.127 0.263 0.128 0.262 0.128 C 0.261 0.128 0.261 0.127 0.263 0.125 C 0.265 0.123 0.265 0.122 0.263 0.122 C 0.262 0.122 0.263 0.12 0.266 0.117 C 0.268 0.114 0.272 0.111 0.274 0.111 C 0.276 0.111 0.277 0.109 0.278 0.104 C 0.278 0.1 0.28 0.096 0.281 0.094 C 0.283 0.092 0.283 0.091 0.282 0.09 C 0.279 0.088 0.28 0.081 0.282 0.081 C 0.284 0.081 0.285 0.083 0.285 0.085 C 0.285 0.099 0.291 0.082 0.292 0.066 C 0.292 0.057 0.293 0.045 0.294 0.04 C 0.295 0.036 0.296 0.025 0.296 0.016 L 0.297 0 L 0.15 0 C 0.025 0 0.002 0.001 0.001 0.004 Z  M 0.336 0.002 C 0.336 0.006 0.339 0.013 0.339 0.009 C 0.339 0.005 0.347 0.005 0.35 0.009 C 0.351 0.011 0.352 0.011 0.353 0.009 C 0.353 0.007 0.355 0.007 0.356 0.007 C 0.357 0.009 0.358 0.008 0.357 0.005 C 0.356 0.001 0.336 -0.002 0.336 0.002 Z  M 0.64 0.02 C 0.638 0.026 0.635 0.027 0.635 0.022 C 0.635 0.017 0.638 0.011 0.64 0.013 C 0.64 0.014 0.64 0.017 0.64 0.02 Z  M 0.622 0.091 C 0.619 0.095 0.621 0.097 0.625 0.097 C 0.628 0.097 0.629 0.097 0.627 0.093 C 0.625 0.089 0.623 0.088 0.622 0.091 Z  M 0.692 0.12 C 0.692 0.121 0.691 0.124 0.689 0.126 C 0.687 0.131 0.686 0.131 0.686 0.127 C 0.686 0.125 0.687 0.122 0.689 0.121 C 0.69 0.121 0.692 0.12 0.692 0.12 C 0.692 0.12 0.692 0.12 0.692 0.12 Z  M 0.376 0.127 C 0.374 0.128 0.373 0.139 0.375 0.139 C 0.376 0.139 0.378 0.137 0.379 0.135 C 0.382 0.131 0.379 0.125 0.376 0.127 Z  M 0.631 0.135 C 0.631 0.137 0.632 0.14 0.632 0.14 C 0.632 0.141 0.633 0.141 0.634 0.14 C 0.635 0.139 0.636 0.141 0.637 0.145 C 0.637 0.148 0.638 0.15 0.639 0.149 C 0.641 0.147 0.641 0.146 0.639 0.144 C 0.638 0.143 0.638 0.141 0.638 0.139 C 0.639 0.137 0.638 0.136 0.636 0.136 C 0.635 0.136 0.633 0.135 0.633 0.133 C 0.633 0.132 0.632 0.131 0.631 0.131 C 0.63 0.131 0.63 0.133 0.631 0.135 Z  M 0.693 0.145 C 0.692 0.148 0.687 0.149 0.687 0.146 C 0.687 0.144 0.688 0.143 0.69 0.143 C 0.692 0.143 0.693 0.144 0.693 0.145 Z  M 0.683 0.152 C 0.683 0.156 0.677 0.169 0.677 0.165 C 0.677 0.164 0.678 0.16 0.68 0.157 C 0.682 0.152 0.682 0.152 0.68 0.154 C 0.678 0.155 0.677 0.154 0.678 0.153 C 0.679 0.149 0.683 0.149 0.683 0.152 Z  M 0.607 0.155 C 0.608 0.155 0.608 0.158 0.608 0.16 C 0.608 0.165 0.608 0.165 0.61 0.161 C 0.611 0.159 0.611 0.158 0.611 0.16 C 0.611 0.166 0.608 0.167 0.603 0.163 C 0.597 0.158 0.596 0.153 0.602 0.154 C 0.604 0.155 0.606 0.155 0.607 0.155 Z  M 0.177 0.169 C 0.177 0.19 0.179 0.198 0.183 0.196 C 0.186 0.195 0.187 0.197 0.187 0.202 C 0.188 0.208 0.188 0.208 0.19 0.204 C 0.191 0.202 0.191 0.198 0.191 0.196 C 0.19 0.195 0.191 0.191 0.192 0.188 C 0.194 0.185 0.194 0.183 0.193 0.183 C 0.189 0.183 0.191 0.165 0.195 0.16 C 0.198 0.156 0.199 0.156 0.199 0.162 C 0.201 0.172 0.201 0.186 0.199 0.187 C 0.196 0.191 0.197 0.203 0.2 0.201 C 0.202 0.199 0.202 0.2 0.201 0.208 C 0.2 0.225 0.206 0.235 0.21 0.221 C 0.211 0.218 0.212 0.217 0.212 0.219 C 0.213 0.221 0.214 0.221 0.215 0.221 C 0.216 0.218 0.216 0.232 0.214 0.239 C 0.213 0.243 0.213 0.244 0.216 0.243 C 0.217 0.242 0.216 0.244 0.213 0.247 C 0.21 0.251 0.207 0.255 0.206 0.257 C 0.205 0.259 0.203 0.26 0.2 0.26 C 0.197 0.259 0.194 0.259 0.193 0.26 C 0.193 0.261 0.191 0.262 0.19 0.262 C 0.189 0.263 0.189 0.264 0.189 0.267 C 0.19 0.269 0.19 0.274 0.19 0.278 C 0.19 0.286 0.201 0.288 0.204 0.281 C 0.206 0.277 0.211 0.279 0.211 0.284 C 0.211 0.285 0.213 0.286 0.214 0.286 C 0.216 0.286 0.216 0.287 0.214 0.289 C 0.209 0.292 0.208 0.292 0.208 0.287 C 0.209 0.284 0.208 0.282 0.207 0.281 C 0.206 0.281 0.206 0.283 0.206 0.287 C 0.207 0.292 0.206 0.294 0.205 0.294 C 0.203 0.294 0.201 0.298 0.198 0.301 C 0.196 0.305 0.194 0.308 0.193 0.307 C 0.192 0.306 0.191 0.306 0.191 0.308 C 0.191 0.309 0.187 0.314 0.183 0.319 C 0.169 0.333 0.15 0.378 0.153 0.39 C 0.153 0.392 0.153 0.395 0.151 0.396 C 0.149 0.397 0.149 0.4 0.15 0.411 C 0.15 0.418 0.151 0.428 0.151 0.434 C 0.152 0.441 0.154 0.45 0.156 0.454 C 0.158 0.459 0.16 0.465 0.16 0.466 C 0.16 0.478 0.172 0.502 0.19 0.528 L 0.196 0.536 L 0.192 0.544 C 0.189 0.554 0.187 0.554 0.186 0.547 C 0.185 0.541 0.185 0.541 0.181 0.547 C 0.178 0.553 0.174 0.553 0.175 0.547 C 0.175 0.546 0.174 0.545 0.172 0.546 C 0.168 0.548 0.167 0.541 0.169 0.533 C 0.171 0.528 0.168 0.512 0.166 0.515 C 0.164 0.518 0.158 0.509 0.159 0.507 C 0.161 0.503 0.15 0.517 0.145 0.524 C 0.143 0.528 0.139 0.531 0.137 0.532 C 0.133 0.533 0.129 0.539 0.128 0.547 C 0.127 0.55 0.126 0.556 0.124 0.561 C 0.122 0.565 0.121 0.571 0.122 0.573 C 0.122 0.576 0.121 0.58 0.118 0.585 C 0.116 0.59 0.113 0.595 0.113 0.597 C 0.113 0.599 0.112 0.601 0.111 0.602 C 0.109 0.603 0.111 0.611 0.114 0.616 C 0.117 0.619 0.116 0.619 0.114 0.618 C 0.112 0.617 0.111 0.618 0.111 0.621 C 0.111 0.625 0.109 0.624 0.105 0.617 C 0.102 0.612 0.1 0.607 0.101 0.606 C 0.101 0.605 0.102 0.606 0.102 0.608 C 0.102 0.61 0.102 0.61 0.104 0.607 C 0.106 0.605 0.106 0.602 0.105 0.596 C 0.103 0.589 0.104 0.587 0.107 0.581 C 0.11 0.578 0.111 0.575 0.111 0.575 C 0.11 0.575 0.111 0.573 0.112 0.57 C 0.113 0.568 0.114 0.565 0.114 0.563 C 0.113 0.562 0.113 0.561 0.114 0.561 C 0.115 0.561 0.116 0.56 0.115 0.558 C 0.115 0.557 0.115 0.555 0.116 0.555 C 0.117 0.554 0.118 0.551 0.118 0.547 C 0.119 0.543 0.12 0.54 0.12 0.539 C 0.121 0.538 0.122 0.535 0.123 0.533 C 0.123 0.531 0.125 0.527 0.126 0.524 C 0.129 0.515 0.126 0.511 0.117 0.513 C 0.108 0.514 0.1 0.506 0.1 0.493 C 0.1 0.49 0.099 0.483 0.096 0.479 C 0.094 0.474 0.093 0.472 0.093 0.473 C 0.093 0.474 0.091 0.472 0.089 0.468 C 0.086 0.462 0.085 0.462 0.083 0.464 C 0.082 0.467 0.081 0.467 0.081 0.464 C 0.08 0.462 0.079 0.461 0.078 0.461 C 0.077 0.461 0.077 0.463 0.078 0.465 C 0.079 0.471 0.076 0.491 0.073 0.493 C 0.071 0.495 0.066 0.514 0.066 0.522 C 0.066 0.528 0.061 0.539 0.06 0.537 C 0.056 0.533 0.053 0.562 0.053 0.593 C 0.054 0.613 0.051 0.647 0.048 0.657 C 0.046 0.663 0.046 0.642 0.049 0.625 C 0.05 0.619 0.05 0.612 0.05 0.609 C 0.049 0.606 0.049 0.601 0.049 0.598 C 0.049 0.585 0.045 0.581 0.045 0.595 C 0.045 0.603 0.044 0.609 0.042 0.612 C 0.04 0.615 0.04 0.619 0.04 0.621 C 0.041 0.623 0.04 0.625 0.04 0.625 C 0.039 0.625 0.039 0.627 0.039 0.63 C 0.04 0.638 0.037 0.637 0.034 0.629 C 0.033 0.623 0.033 0.621 0.035 0.615 C 0.038 0.608 0.038 0.597 0.035 0.597 C 0.034 0.597 0.034 0.594 0.034 0.591 C 0.036 0.573 0.036 0.567 0.031 0.558 C 0.026 0.547 0.022 0.548 0.022 0.563 C 0.022 0.572 0.019 0.587 0.019 0.579 C 0.019 0.577 0.017 0.576 0.014 0.577 C 0.011 0.578 0.01 0.579 0.011 0.579 C 0.013 0.581 0.009 0.588 0.006 0.588 C 0.002 0.588 0.003 0.581 0.008 0.571 C 0.011 0.566 0.013 0.559 0.013 0.555 C 0.013 0.552 0.014 0.549 0.015 0.548 C 0.017 0.547 0.017 0.545 0.017 0.543 C 0.016 0.537 0.018 0.535 0.02 0.539 C 0.022 0.542 0.022 0.543 0.02 0.547 C 0.019 0.549 0.018 0.553 0.019 0.558 L 0.02 0.565 L 0.021 0.557 C 0.021 0.553 0.022 0.549 0.023 0.548 C 0.024 0.547 0.025 0.545 0.024 0.544 C 0.024 0.542 0.024 0.541 0.025 0.541 C 0.026 0.541 0.027 0.54 0.026 0.538 C 0.026 0.537 0.025 0.52 0.024 0.5 C 0.024 0.476 0.023 0.465 0.022 0.463 C 0.02 0.461 0.02 0.461 0.022 0.462 C 0.024 0.462 0.026 0.459 0.028 0.455 C 0.031 0.451 0.033 0.448 0.034 0.449 C 0.035 0.45 0.036 0.449 0.036 0.447 C 0.036 0.446 0.037 0.445 0.039 0.445 C 0.04 0.445 0.042 0.444 0.042 0.442 C 0.043 0.439 0.042 0.438 0.04 0.44 C 0.039 0.441 0.038 0.44 0.039 0.439 C 0.039 0.437 0.039 0.435 0.038 0.434 C 0.037 0.434 0.036 0.431 0.036 0.429 C 0.036 0.428 0.037 0.428 0.038 0.431 C 0.04 0.434 0.041 0.435 0.041 0.434 C 0.042 0.433 0.043 0.434 0.044 0.435 C 0.047 0.438 0.05 0.438 0.055 0.436 C 0.059 0.434 0.06 0.435 0.062 0.438 C 0.065 0.443 0.075 0.445 0.075 0.441 C 0.075 0.439 0.074 0.439 0.073 0.44 C 0.072 0.441 0.071 0.44 0.072 0.437 C 0.072 0.435 0.074 0.433 0.075 0.433 C 0.076 0.433 0.077 0.432 0.076 0.43 C 0.075 0.425 0.079 0.417 0.082 0.416 C 0.088 0.414 0.09 0.408 0.091 0.396 C 0.091 0.395 0.092 0.395 0.093 0.396 C 0.093 0.397 0.094 0.395 0.094 0.393 C 0.094 0.391 0.093 0.389 0.092 0.388 C 0.091 0.387 0.091 0.385 0.092 0.384 C 0.092 0.381 0.094 0.381 0.096 0.383 C 0.097 0.384 0.099 0.385 0.1 0.384 C 0.1 0.383 0.1 0.383 0.1 0.385 C 0.099 0.394 0.101 0.4 0.104 0.4 C 0.108 0.4 0.114 0.391 0.114 0.386 C 0.114 0.381 0.125 0.383 0.127 0.388 C 0.128 0.392 0.128 0.394 0.127 0.395 C 0.125 0.396 0.125 0.397 0.126 0.397 C 0.13 0.397 0.143 0.361 0.143 0.349 C 0.143 0.345 0.143 0.341 0.144 0.34 C 0.145 0.338 0.146 0.334 0.146 0.33 C 0.147 0.327 0.147 0.323 0.147 0.323 C 0.147 0.323 0.148 0.319 0.148 0.313 C 0.148 0.305 0.148 0.303 0.146 0.303 C 0.145 0.303 0.144 0.301 0.144 0.299 C 0.144 0.298 0.145 0.297 0.145 0.298 C 0.146 0.299 0.147 0.298 0.148 0.297 C 0.151 0.292 0.154 0.296 0.152 0.303 C 0.15 0.314 0.151 0.321 0.154 0.321 C 0.156 0.321 0.157 0.319 0.157 0.315 C 0.157 0.309 0.159 0.308 0.162 0.312 C 0.164 0.313 0.164 0.313 0.164 0.311 C 0.164 0.31 0.163 0.307 0.162 0.305 C 0.159 0.302 0.159 0.302 0.162 0.304 C 0.164 0.305 0.172 0.294 0.172 0.288 C 0.172 0.287 0.173 0.286 0.174 0.286 C 0.175 0.286 0.175 0.288 0.173 0.292 C 0.171 0.296 0.171 0.297 0.172 0.296 C 0.176 0.293 0.181 0.271 0.179 0.267 C 0.178 0.265 0.177 0.26 0.178 0.254 C 0.178 0.249 0.178 0.244 0.177 0.244 C 0.176 0.244 0.175 0.243 0.175 0.242 C 0.175 0.24 0.176 0.239 0.177 0.239 C 0.183 0.242 0.18 0.21 0.174 0.198 C 0.17 0.191 0.168 0.183 0.168 0.18 C 0.168 0.176 0.167 0.171 0.167 0.167 C 0.166 0.163 0.166 0.161 0.169 0.159 C 0.175 0.155 0.177 0.158 0.177 0.169 Z  M 0.282 0.172 C 0.281 0.175 0.282 0.178 0.284 0.178 C 0.285 0.178 0.286 0.18 0.286 0.183 C 0.286 0.187 0.286 0.187 0.288 0.183 C 0.29 0.175 0.286 0.166 0.282 0.172 Z  M 0.332 0.179 C 0.333 0.181 0.332 0.183 0.332 0.183 C 0.33 0.183 0.329 0.194 0.331 0.196 C 0.334 0.2 0.333 0.214 0.329 0.212 C 0.321 0.208 0.317 0.19 0.323 0.186 C 0.325 0.185 0.327 0.181 0.328 0.179 C 0.329 0.174 0.331 0.174 0.332 0.179 Z  M 0.718 0.181 C 0.717 0.187 0.711 0.192 0.704 0.193 C 0.695 0.194 0.693 0.192 0.697 0.186 C 0.7 0.179 0.706 0.18 0.709 0.186 C 0.711 0.19 0.711 0.19 0.71 0.185 C 0.709 0.179 0.712 0.175 0.716 0.176 C 0.718 0.176 0.718 0.178 0.718 0.181 Z  M 0.344 0.19 C 0.343 0.195 0.339 0.195 0.339 0.189 C 0.339 0.185 0.34 0.184 0.342 0.185 C 0.343 0.186 0.344 0.188 0.344 0.19 Z  M 0.698 0.185 C 0.698 0.187 0.699 0.188 0.7 0.188 C 0.702 0.188 0.703 0.187 0.703 0.186 C 0.703 0.183 0.699 0.182 0.698 0.185 Z  M 0.747 0.192 C 0.737 0.209 0.733 0.213 0.732 0.212 C 0.73 0.211 0.73 0.212 0.731 0.213 C 0.731 0.215 0.731 0.217 0.729 0.218 C 0.727 0.219 0.725 0.221 0.723 0.223 C 0.721 0.225 0.721 0.224 0.721 0.222 C 0.722 0.22 0.721 0.221 0.72 0.224 C 0.717 0.231 0.714 0.232 0.712 0.228 C 0.712 0.227 0.713 0.226 0.714 0.227 C 0.717 0.228 0.717 0.227 0.717 0.224 C 0.717 0.22 0.717 0.219 0.713 0.221 C 0.71 0.222 0.71 0.222 0.712 0.218 C 0.713 0.216 0.714 0.215 0.714 0.215 C 0.715 0.217 0.722 0.204 0.722 0.201 C 0.722 0.2 0.721 0.2 0.721 0.203 C 0.719 0.206 0.719 0.206 0.717 0.203 C 0.714 0.198 0.713 0.199 0.714 0.205 C 0.714 0.209 0.714 0.209 0.713 0.206 C 0.71 0.199 0.712 0.198 0.722 0.198 C 0.727 0.198 0.732 0.197 0.734 0.195 C 0.735 0.193 0.736 0.192 0.737 0.193 C 0.737 0.194 0.738 0.194 0.738 0.192 C 0.738 0.19 0.738 0.189 0.739 0.19 C 0.74 0.191 0.741 0.191 0.741 0.189 C 0.741 0.187 0.742 0.186 0.744 0.187 C 0.746 0.188 0.747 0.188 0.748 0.186 C 0.749 0.184 0.749 0.184 0.75 0.184 C 0.75 0.185 0.749 0.189 0.747 0.192 Z  M 0.237 0.192 C 0.236 0.198 0.237 0.204 0.24 0.201 C 0.241 0.199 0.241 0.186 0.24 0.186 C 0.239 0.186 0.238 0.189 0.237 0.192 Z  M 0.167 0.235 C 0.167 0.238 0.167 0.241 0.168 0.243 C 0.168 0.249 0.168 0.253 0.166 0.251 C 0.165 0.25 0.165 0.251 0.165 0.253 C 0.166 0.257 0.161 0.278 0.158 0.288 C 0.156 0.292 0.152 0.289 0.152 0.284 C 0.152 0.281 0.153 0.28 0.155 0.282 C 0.156 0.283 0.157 0.283 0.156 0.282 C 0.156 0.28 0.156 0.278 0.157 0.275 C 0.159 0.272 0.159 0.271 0.157 0.273 C 0.156 0.274 0.155 0.274 0.155 0.272 C 0.155 0.27 0.154 0.27 0.151 0.272 C 0.149 0.274 0.147 0.274 0.147 0.273 C 0.145 0.269 0.148 0.263 0.152 0.263 C 0.157 0.262 0.157 0.251 0.151 0.243 C 0.149 0.239 0.147 0.235 0.148 0.234 C 0.148 0.233 0.15 0.235 0.152 0.239 C 0.155 0.246 0.156 0.245 0.159 0.233 C 0.161 0.228 0.161 0.225 0.16 0.225 C 0.159 0.225 0.158 0.223 0.158 0.221 C 0.158 0.215 0.166 0.229 0.167 0.235 Z  M 0.23 0.252 C 0.231 0.257 0.231 0.258 0.23 0.257 C 0.229 0.257 0.226 0.259 0.224 0.262 C 0.22 0.268 0.22 0.268 0.223 0.262 C 0.224 0.259 0.225 0.255 0.225 0.253 C 0.225 0.251 0.226 0.25 0.227 0.251 C 0.228 0.252 0.228 0.252 0.228 0.25 C 0.228 0.249 0.228 0.247 0.227 0.246 C 0.226 0.245 0.226 0.245 0.227 0.245 C 0.228 0.246 0.23 0.249 0.23 0.252 Z  M 0.243 0.251 C 0.241 0.255 0.241 0.256 0.243 0.254 C 0.244 0.252 0.246 0.251 0.247 0.252 C 0.249 0.253 0.249 0.253 0.247 0.249 C 0.245 0.243 0.245 0.243 0.243 0.251 Z  M 0.212 0.256 C 0.21 0.269 0.219 0.276 0.224 0.265 C 0.229 0.256 0.235 0.262 0.231 0.272 C 0.225 0.287 0.213 0.287 0.214 0.272 C 0.215 0.268 0.214 0.266 0.214 0.267 C 0.211 0.272 0.207 0.259 0.21 0.253 C 0.213 0.248 0.213 0.249 0.212 0.256 Z  M 0.743 0.257 C 0.741 0.262 0.738 0.262 0.738 0.258 C 0.737 0.257 0.736 0.258 0.735 0.261 C 0.732 0.27 0.739 0.27 0.744 0.26 C 0.748 0.252 0.747 0.25 0.743 0.257 Z  M 0.742 0.283 C 0.741 0.285 0.741 0.287 0.742 0.289 C 0.742 0.29 0.742 0.292 0.741 0.292 C 0.74 0.293 0.74 0.294 0.741 0.293 C 0.742 0.293 0.743 0.291 0.743 0.289 C 0.743 0.287 0.743 0.284 0.744 0.283 C 0.746 0.281 0.746 0.281 0.745 0.28 C 0.743 0.28 0.742 0.282 0.742 0.283 Z  M 0.727 0.337 C 0.727 0.338 0.726 0.339 0.725 0.339 C 0.724 0.339 0.724 0.336 0.724 0.332 C 0.724 0.327 0.727 0.331 0.727 0.337 Z  M 0.816 0.349 C 0.816 0.351 0.815 0.353 0.813 0.353 C 0.81 0.355 0.808 0.368 0.81 0.372 C 0.812 0.374 0.813 0.373 0.815 0.368 C 0.818 0.359 0.82 0.347 0.818 0.347 C 0.817 0.347 0.816 0.348 0.816 0.349 Z  M 0.074 0.357 C 0.076 0.363 0.077 0.365 0.075 0.366 C 0.074 0.367 0.072 0.369 0.072 0.371 C 0.071 0.373 0.07 0.374 0.069 0.373 C 0.068 0.372 0.068 0.374 0.068 0.377 C 0.068 0.381 0.066 0.383 0.064 0.383 C 0.056 0.384 0.054 0.385 0.054 0.388 C 0.054 0.393 0.044 0.399 0.041 0.395 C 0.038 0.393 0.041 0.387 0.044 0.388 C 0.046 0.389 0.047 0.388 0.047 0.386 C 0.047 0.385 0.046 0.383 0.044 0.383 C 0.042 0.383 0.041 0.381 0.041 0.376 C 0.042 0.371 0.042 0.37 0.044 0.373 C 0.045 0.375 0.046 0.375 0.048 0.372 C 0.049 0.37 0.051 0.369 0.051 0.369 C 0.055 0.371 0.056 0.369 0.057 0.363 C 0.058 0.357 0.064 0.351 0.069 0.35 C 0.07 0.35 0.072 0.353 0.074 0.357 Z  M 0.771 0.368 C 0.771 0.373 0.775 0.379 0.776 0.375 C 0.777 0.373 0.776 0.372 0.775 0.372 C 0.773 0.372 0.772 0.371 0.773 0.369 C 0.774 0.367 0.775 0.367 0.776 0.368 C 0.778 0.368 0.778 0.368 0.778 0.366 C 0.776 0.362 0.771 0.363 0.771 0.368 Z  M 0.097 0.369 C 0.097 0.372 0.094 0.376 0.093 0.374 C 0.092 0.372 0.094 0.366 0.096 0.366 C 0.097 0.366 0.097 0.368 0.097 0.369 Z  M 0.121 0.403 C 0.119 0.404 0.119 0.405 0.12 0.405 C 0.121 0.405 0.12 0.407 0.119 0.408 C 0.118 0.41 0.117 0.411 0.119 0.411 C 0.12 0.411 0.121 0.408 0.122 0.405 C 0.124 0.399 0.124 0.399 0.121 0.403 Z  M 0.032 0.414 C 0.032 0.42 0.028 0.414 0.027 0.408 C 0.027 0.401 0.027 0.401 0.029 0.407 C 0.031 0.41 0.032 0.413 0.032 0.414 Z  M 0.021 0.412 C 0.023 0.411 0.024 0.412 0.025 0.413 C 0.025 0.415 0.024 0.416 0.021 0.416 C 0.017 0.416 0.016 0.415 0.016 0.412 C 0.016 0.408 0.016 0.408 0.018 0.41 C 0.019 0.412 0.02 0.413 0.021 0.412 Z  M 0.895 0.431 C 0.895 0.438 0.896 0.443 0.898 0.445 C 0.899 0.446 0.9 0.449 0.899 0.452 C 0.898 0.455 0.899 0.456 0.9 0.454 C 0.902 0.452 0.902 0.453 0.901 0.456 C 0.901 0.459 0.901 0.461 0.902 0.462 C 0.904 0.464 0.911 0.453 0.911 0.448 C 0.911 0.446 0.912 0.444 0.913 0.444 C 0.915 0.444 0.915 0.439 0.911 0.433 C 0.909 0.43 0.907 0.428 0.905 0.429 C 0.904 0.43 0.903 0.429 0.903 0.428 C 0.903 0.426 0.901 0.424 0.899 0.423 C 0.895 0.42 0.895 0.42 0.895 0.431 Z  M 0.808 0.429 C 0.804 0.431 0.804 0.443 0.807 0.443 C 0.809 0.443 0.809 0.442 0.809 0.439 C 0.808 0.437 0.809 0.433 0.81 0.431 C 0.811 0.429 0.811 0.428 0.811 0.428 C 0.811 0.428 0.809 0.429 0.808 0.429 Z  M 0.866 0.434 C 0.864 0.438 0.862 0.441 0.86 0.441 C 0.858 0.441 0.856 0.443 0.856 0.445 C 0.855 0.447 0.853 0.449 0.851 0.448 C 0.847 0.448 0.839 0.461 0.835 0.473 C 0.833 0.48 0.834 0.488 0.836 0.481 C 0.838 0.476 0.872 0.445 0.879 0.443 C 0.883 0.441 0.886 0.438 0.886 0.434 C 0.885 0.428 0.881 0.427 0.876 0.431 C 0.874 0.433 0.874 0.433 0.874 0.431 C 0.877 0.424 0.869 0.428 0.866 0.434 Z  M 0.941 0.457 C 0.94 0.462 0.935 0.472 0.934 0.472 C 0.932 0.472 0.935 0.457 0.937 0.454 C 0.941 0.449 0.943 0.451 0.941 0.457 Z  M 0.97 0.453 C 0.975 0.452 0.975 0.453 0.975 0.459 C 0.975 0.463 0.973 0.465 0.971 0.465 C 0.969 0.465 0.967 0.467 0.965 0.469 C 0.964 0.471 0.962 0.472 0.96 0.47 C 0.959 0.469 0.956 0.469 0.955 0.469 C 0.953 0.47 0.953 0.468 0.958 0.458 C 0.96 0.454 0.962 0.451 0.963 0.452 C 0.964 0.453 0.967 0.453 0.97 0.453 Z  M 0.901 0.473 C 0.899 0.477 0.893 0.485 0.895 0.481 C 0.895 0.479 0.895 0.477 0.894 0.477 C 0.891 0.477 0.89 0.488 0.892 0.49 C 0.894 0.491 0.902 0.477 0.903 0.472 C 0.904 0.468 0.902 0.468 0.901 0.473 Z  M 0.983 0.475 C 0.985 0.492 0.984 0.503 0.98 0.502 C 0.978 0.501 0.975 0.501 0.974 0.503 C 0.97 0.505 0.971 0.484 0.975 0.477 C 0.977 0.473 0.983 0.471 0.983 0.475 Z  M 0.963 0.513 C 0.962 0.515 0.96 0.516 0.959 0.516 C 0.958 0.516 0.956 0.52 0.954 0.523 C 0.951 0.53 0.951 0.53 0.951 0.525 C 0.951 0.521 0.953 0.517 0.954 0.516 C 0.956 0.514 0.958 0.512 0.958 0.511 C 0.959 0.508 0.963 0.506 0.965 0.507 C 0.966 0.508 0.965 0.511 0.963 0.513 Z  M 0.707 0.529 C 0.707 0.53 0.706 0.532 0.705 0.532 C 0.704 0.533 0.703 0.531 0.703 0.529 C 0.703 0.526 0.704 0.525 0.705 0.525 C 0.706 0.526 0.707 0.527 0.707 0.529 Z  M 0.021 0.53 C 0.022 0.531 0.02 0.533 0.018 0.534 C 0.014 0.535 0.014 0.535 0.017 0.531 C 0.02 0.527 0.02 0.527 0.021 0.53 Z  M 0.009 0.554 C 0.009 0.556 0.007 0.557 0.006 0.556 C 0.005 0.555 0.005 0.556 0.006 0.558 C 0.006 0.559 0.006 0.561 0.005 0.561 C 0.003 0.561 0.003 0.555 0.006 0.551 C 0.009 0.547 0.01 0.548 0.009 0.554 Z  M 0.211 0.557 C 0.215 0.559 0.217 0.566 0.213 0.571 C 0.211 0.574 0.21 0.574 0.209 0.57 C 0.209 0.568 0.207 0.566 0.206 0.566 C 0.204 0.566 0.199 0.557 0.199 0.554 C 0.199 0.553 0.207 0.554 0.211 0.557 Z  M 0.727 0.561 C 0.726 0.566 0.73 0.57 0.732 0.567 C 0.733 0.565 0.735 0.564 0.735 0.565 C 0.736 0.566 0.736 0.566 0.736 0.564 C 0.736 0.56 0.729 0.558 0.727 0.561 Z  M 0.045 0.563 C 0.044 0.565 0.044 0.575 0.046 0.575 C 0.047 0.575 0.047 0.571 0.047 0.568 C 0.047 0.56 0.047 0.56 0.045 0.563 Z  M 0.087 0.564 C 0.089 0.557 0.092 0.561 0.093 0.57 C 0.094 0.576 0.095 0.58 0.096 0.58 C 0.097 0.58 0.097 0.577 0.097 0.573 L 0.095 0.565 L 0.099 0.571 C 0.101 0.574 0.102 0.574 0.101 0.572 C 0.1 0.569 0.1 0.569 0.102 0.57 C 0.103 0.571 0.103 0.574 0.103 0.576 C 0.103 0.579 0.103 0.58 0.102 0.579 C 0.101 0.578 0.1 0.579 0.1 0.581 C 0.1 0.583 0.098 0.588 0.096 0.591 C 0.093 0.595 0.091 0.598 0.092 0.6 C 0.092 0.601 0.092 0.602 0.091 0.602 C 0.089 0.602 0.089 0.599 0.09 0.596 C 0.091 0.595 0.092 0.589 0.092 0.583 C 0.093 0.572 0.091 0.57 0.086 0.571 C 0.085 0.572 0.084 0.569 0.083 0.566 C 0.081 0.56 0.081 0.56 0.084 0.564 C 0.086 0.567 0.087 0.567 0.087 0.564 Z  M 0.083 0.585 C 0.083 0.59 0.084 0.591 0.085 0.589 C 0.087 0.586 0.089 0.587 0.089 0.592 C 0.089 0.593 0.088 0.593 0.087 0.592 C 0.085 0.591 0.085 0.591 0.085 0.594 C 0.086 0.596 0.085 0.595 0.083 0.592 C 0.081 0.587 0.08 0.582 0.08 0.575 C 0.08 0.568 0.081 0.567 0.081 0.572 C 0.081 0.576 0.082 0.582 0.083 0.585 Z  M 0.224 0.579 C 0.224 0.581 0.223 0.583 0.222 0.583 C 0.221 0.583 0.22 0.584 0.218 0.585 C 0.216 0.587 0.215 0.58 0.218 0.575 C 0.22 0.571 0.225 0.574 0.224 0.579 Z  M 0.721 0.579 C 0.721 0.581 0.722 0.583 0.723 0.583 C 0.726 0.583 0.725 0.577 0.722 0.575 C 0.721 0.575 0.721 0.576 0.721 0.579 Z  M 0.268 0.594 C 0.268 0.596 0.267 0.597 0.266 0.597 C 0.262 0.597 0.268 0.602 0.272 0.602 C 0.274 0.602 0.278 0.605 0.282 0.608 C 0.286 0.611 0.293 0.615 0.299 0.617 C 0.312 0.621 0.317 0.626 0.314 0.633 C 0.312 0.635 0.311 0.639 0.311 0.641 C 0.311 0.644 0.31 0.643 0.307 0.64 C 0.304 0.635 0.299 0.634 0.286 0.634 C 0.265 0.634 0.26 0.638 0.257 0.656 C 0.254 0.671 0.253 0.674 0.249 0.669 C 0.246 0.664 0.247 0.661 0.251 0.657 C 0.256 0.654 0.256 0.651 0.252 0.648 C 0.249 0.647 0.249 0.645 0.25 0.643 C 0.251 0.64 0.252 0.637 0.251 0.636 C 0.251 0.634 0.252 0.632 0.253 0.631 C 0.255 0.629 0.255 0.627 0.255 0.626 C 0.254 0.625 0.252 0.627 0.25 0.63 C 0.248 0.633 0.246 0.636 0.244 0.636 C 0.242 0.636 0.241 0.639 0.24 0.644 C 0.238 0.654 0.236 0.655 0.236 0.646 C 0.236 0.642 0.239 0.635 0.242 0.629 C 0.247 0.619 0.247 0.616 0.242 0.616 C 0.24 0.616 0.239 0.615 0.24 0.61 C 0.24 0.606 0.241 0.604 0.242 0.605 C 0.244 0.605 0.246 0.603 0.248 0.6 C 0.25 0.597 0.254 0.594 0.258 0.593 C 0.262 0.593 0.266 0.592 0.266 0.592 C 0.267 0.591 0.268 0.593 0.268 0.594 Z  M 0.231 0.611 C 0.233 0.615 0.227 0.616 0.224 0.612 C 0.222 0.609 0.222 0.609 0.226 0.609 C 0.228 0.609 0.23 0.61 0.231 0.611 Z  M 0.229 0.622 C 0.228 0.624 0.226 0.625 0.226 0.624 C 0.225 0.622 0.226 0.62 0.227 0.619 C 0.23 0.616 0.231 0.618 0.229 0.622 Z  M 0.335 0.689 C 0.336 0.697 0.338 0.709 0.339 0.716 C 0.345 0.741 0.341 0.772 0.332 0.772 C 0.325 0.772 0.323 0.768 0.327 0.76 C 0.333 0.747 0.333 0.727 0.329 0.698 C 0.326 0.677 0.326 0.674 0.33 0.675 C 0.333 0.676 0.334 0.678 0.335 0.689 Z  M 0.205 0.691 C 0.204 0.694 0.202 0.696 0.202 0.695 C 0.201 0.694 0.2 0.695 0.2 0.697 C 0.2 0.699 0.199 0.7 0.198 0.699 C 0.197 0.697 0.202 0.686 0.204 0.686 C 0.206 0.686 0.206 0.687 0.205 0.691 Z  M 0.218 0.696 C 0.221 0.699 0.222 0.699 0.222 0.696 C 0.222 0.694 0.223 0.694 0.223 0.695 C 0.225 0.697 0.219 0.708 0.217 0.706 C 0.216 0.705 0.216 0.703 0.217 0.701 C 0.217 0.699 0.216 0.697 0.214 0.697 C 0.211 0.697 0.21 0.699 0.21 0.704 C 0.21 0.708 0.21 0.711 0.211 0.711 C 0.212 0.711 0.212 0.709 0.212 0.706 C 0.211 0.704 0.212 0.702 0.213 0.702 C 0.215 0.702 0.216 0.711 0.214 0.712 C 0.212 0.714 0.203 0.709 0.203 0.707 C 0.203 0.706 0.205 0.706 0.206 0.707 C 0.208 0.708 0.208 0.707 0.208 0.705 C 0.208 0.703 0.209 0.698 0.211 0.694 C 0.212 0.689 0.214 0.688 0.214 0.69 C 0.214 0.692 0.216 0.695 0.218 0.696 Z  M 0.26 0.694 C 0.26 0.696 0.261 0.7 0.263 0.703 C 0.268 0.711 0.265 0.717 0.256 0.717 C 0.255 0.717 0.254 0.718 0.254 0.719 C 0.255 0.721 0.253 0.722 0.251 0.721 C 0.247 0.721 0.24 0.727 0.235 0.735 C 0.234 0.737 0.232 0.738 0.231 0.738 C 0.229 0.738 0.228 0.739 0.228 0.74 C 0.228 0.747 0.222 0.749 0.221 0.744 C 0.219 0.738 0.222 0.73 0.23 0.724 C 0.232 0.723 0.233 0.721 0.232 0.719 C 0.23 0.717 0.23 0.711 0.232 0.711 C 0.233 0.711 0.235 0.708 0.237 0.706 C 0.239 0.702 0.24 0.702 0.243 0.704 C 0.246 0.709 0.248 0.709 0.246 0.705 C 0.246 0.704 0.247 0.702 0.249 0.702 C 0.25 0.702 0.252 0.701 0.252 0.699 C 0.252 0.697 0.253 0.694 0.254 0.692 C 0.256 0.688 0.26 0.689 0.26 0.694 Z  M 0.237 0.71 C 0.234 0.715 0.235 0.717 0.238 0.714 C 0.239 0.712 0.24 0.71 0.239 0.708 C 0.239 0.707 0.238 0.707 0.237 0.71 Z  M 0.35 0.735 C 0.349 0.737 0.349 0.739 0.35 0.74 C 0.354 0.744 0.347 0.768 0.342 0.769 C 0.341 0.769 0.341 0.761 0.342 0.756 C 0.343 0.753 0.345 0.747 0.346 0.742 C 0.347 0.737 0.348 0.733 0.349 0.733 C 0.35 0.733 0.35 0.734 0.35 0.735 Z  M 0.248 0.747 C 0.25 0.747 0.252 0.749 0.252 0.75 C 0.252 0.752 0.253 0.752 0.254 0.751 C 0.256 0.75 0.257 0.751 0.257 0.752 C 0.257 0.755 0.267 0.753 0.269 0.75 C 0.27 0.75 0.271 0.75 0.272 0.751 C 0.274 0.753 0.269 0.766 0.267 0.766 C 0.265 0.766 0.264 0.767 0.264 0.769 C 0.264 0.771 0.264 0.771 0.262 0.77 C 0.261 0.769 0.262 0.77 0.263 0.773 C 0.266 0.777 0.266 0.787 0.263 0.786 C 0.262 0.786 0.259 0.787 0.256 0.789 C 0.249 0.793 0.242 0.794 0.243 0.791 C 0.244 0.79 0.245 0.789 0.247 0.79 C 0.249 0.792 0.249 0.791 0.248 0.788 C 0.247 0.786 0.246 0.781 0.247 0.778 C 0.247 0.774 0.247 0.772 0.246 0.772 C 0.245 0.772 0.244 0.773 0.245 0.774 C 0.245 0.776 0.245 0.779 0.244 0.782 C 0.243 0.786 0.243 0.786 0.243 0.781 C 0.243 0.775 0.236 0.766 0.231 0.766 C 0.228 0.766 0.228 0.764 0.231 0.759 C 0.232 0.756 0.233 0.753 0.233 0.751 C 0.232 0.748 0.233 0.748 0.235 0.749 C 0.238 0.75 0.238 0.749 0.236 0.747 C 0.234 0.744 0.235 0.744 0.239 0.745 C 0.242 0.747 0.246 0.747 0.248 0.747 Z  M 0.626 0.77 C 0.627 0.773 0.626 0.774 0.625 0.774 C 0.624 0.773 0.623 0.775 0.623 0.777 C 0.621 0.782 0.626 0.781 0.628 0.775 C 0.63 0.77 0.629 0.766 0.627 0.766 C 0.626 0.766 0.626 0.768 0.626 0.77 Z  M 0.283 0.796 C 0.282 0.801 0.282 0.803 0.284 0.801 C 0.285 0.801 0.287 0.802 0.289 0.804 C 0.29 0.806 0.292 0.807 0.293 0.806 C 0.294 0.805 0.294 0.806 0.293 0.807 C 0.292 0.81 0.294 0.812 0.297 0.811 C 0.298 0.811 0.3 0.813 0.301 0.816 C 0.303 0.821 0.302 0.821 0.292 0.823 C 0.29 0.823 0.29 0.824 0.29 0.827 C 0.291 0.829 0.291 0.832 0.291 0.835 C 0.291 0.837 0.292 0.838 0.293 0.837 C 0.294 0.835 0.294 0.837 0.293 0.841 C 0.292 0.846 0.293 0.847 0.294 0.845 C 0.295 0.844 0.296 0.844 0.295 0.846 C 0.294 0.848 0.293 0.849 0.292 0.848 C 0.292 0.847 0.291 0.848 0.291 0.849 C 0.291 0.851 0.29 0.852 0.289 0.852 C 0.288 0.852 0.286 0.854 0.285 0.857 C 0.284 0.86 0.283 0.86 0.283 0.859 C 0.283 0.857 0.285 0.853 0.287 0.851 L 0.29 0.846 L 0.286 0.848 C 0.284 0.849 0.283 0.849 0.284 0.848 C 0.285 0.844 0.279 0.839 0.274 0.84 C 0.272 0.841 0.271 0.844 0.271 0.847 C 0.271 0.85 0.27 0.853 0.269 0.854 C 0.268 0.855 0.268 0.853 0.269 0.85 C 0.269 0.847 0.269 0.846 0.268 0.847 C 0.268 0.848 0.266 0.847 0.264 0.845 C 0.262 0.841 0.261 0.841 0.258 0.844 C 0.255 0.846 0.254 0.846 0.253 0.843 C 0.252 0.841 0.252 0.841 0.253 0.842 C 0.255 0.845 0.257 0.844 0.256 0.84 C 0.255 0.836 0.256 0.836 0.259 0.837 C 0.261 0.838 0.263 0.838 0.263 0.836 C 0.263 0.833 0.264 0.833 0.268 0.834 C 0.271 0.836 0.272 0.835 0.271 0.832 C 0.271 0.829 0.271 0.827 0.272 0.827 C 0.273 0.827 0.274 0.826 0.273 0.824 C 0.272 0.823 0.27 0.822 0.267 0.822 C 0.265 0.822 0.263 0.82 0.263 0.819 C 0.263 0.817 0.262 0.816 0.26 0.816 C 0.259 0.816 0.258 0.818 0.258 0.82 C 0.258 0.822 0.257 0.825 0.256 0.825 C 0.255 0.826 0.255 0.827 0.257 0.827 C 0.258 0.827 0.26 0.826 0.26 0.824 C 0.261 0.822 0.261 0.821 0.262 0.822 C 0.263 0.825 0.259 0.832 0.256 0.833 C 0.253 0.833 0.252 0.822 0.254 0.821 C 0.256 0.82 0.257 0.815 0.258 0.81 C 0.259 0.8 0.263 0.796 0.262 0.806 C 0.262 0.809 0.262 0.81 0.262 0.807 C 0.263 0.804 0.264 0.802 0.265 0.802 C 0.267 0.802 0.269 0.799 0.271 0.796 C 0.273 0.79 0.274 0.79 0.274 0.795 C 0.274 0.797 0.273 0.799 0.272 0.798 C 0.272 0.798 0.271 0.799 0.271 0.801 C 0.271 0.803 0.272 0.804 0.273 0.803 C 0.274 0.802 0.275 0.799 0.275 0.796 C 0.275 0.793 0.276 0.791 0.277 0.792 C 0.279 0.793 0.281 0.792 0.282 0.791 C 0.285 0.787 0.285 0.787 0.283 0.796 Z  M 0.29 0.791 C 0.29 0.792 0.29 0.794 0.289 0.796 C 0.288 0.801 0.285 0.798 0.286 0.792 C 0.287 0.788 0.289 0.787 0.29 0.791 Z  M 0.497 0.821 C 0.497 0.822 0.497 0.824 0.497 0.825 C 0.497 0.83 0.492 0.833 0.49 0.829 C 0.488 0.823 0.477 0.821 0.475 0.826 C 0.474 0.828 0.472 0.829 0.471 0.828 C 0.467 0.826 0.467 0.831 0.47 0.842 C 0.471 0.846 0.472 0.851 0.471 0.852 C 0.47 0.857 0.479 0.855 0.485 0.849 C 0.489 0.845 0.492 0.844 0.493 0.846 C 0.494 0.848 0.496 0.849 0.496 0.848 C 0.497 0.847 0.498 0.849 0.499 0.852 C 0.501 0.858 0.503 0.86 0.503 0.854 C 0.503 0.853 0.505 0.849 0.506 0.846 C 0.508 0.841 0.508 0.841 0.506 0.841 C 0.505 0.841 0.503 0.839 0.502 0.837 C 0.502 0.835 0.501 0.834 0.499 0.835 C 0.497 0.836 0.496 0.83 0.499 0.825 C 0.5 0.823 0.5 0.822 0.499 0.82 C 0.498 0.819 0.497 0.82 0.497 0.821 Z  M 0.549 0.828 C 0.548 0.83 0.548 0.832 0.549 0.833 C 0.549 0.835 0.546 0.836 0.545 0.835 C 0.545 0.834 0.543 0.836 0.542 0.839 C 0.541 0.842 0.539 0.844 0.538 0.843 C 0.536 0.84 0.535 0.845 0.536 0.849 C 0.537 0.852 0.538 0.851 0.54 0.848 C 0.543 0.843 0.543 0.843 0.546 0.85 L 0.549 0.856 L 0.549 0.85 C 0.549 0.844 0.551 0.842 0.553 0.846 C 0.554 0.85 0.557 0.848 0.559 0.841 C 0.561 0.838 0.561 0.835 0.56 0.834 C 0.559 0.833 0.558 0.834 0.558 0.836 C 0.559 0.837 0.558 0.84 0.557 0.84 C 0.555 0.841 0.555 0.841 0.556 0.839 C 0.556 0.837 0.555 0.833 0.553 0.83 C 0.55 0.824 0.549 0.823 0.549 0.828 Z  M 0.561 0.828 C 0.561 0.83 0.562 0.833 0.564 0.834 C 0.565 0.835 0.566 0.835 0.566 0.834 C 0.566 0.833 0.565 0.83 0.564 0.828 C 0.562 0.825 0.561 0.825 0.561 0.828 Z  M 0.401 0.837 C 0.398 0.842 0.398 0.844 0.403 0.842 C 0.405 0.841 0.407 0.839 0.407 0.837 C 0.407 0.832 0.405 0.832 0.401 0.837 Z  M 0.453 0.835 C 0.453 0.837 0.451 0.839 0.448 0.84 C 0.44 0.843 0.444 0.854 0.452 0.851 C 0.456 0.85 0.457 0.85 0.458 0.861 C 0.46 0.872 0.462 0.873 0.462 0.863 C 0.462 0.86 0.462 0.859 0.461 0.859 C 0.46 0.86 0.46 0.859 0.459 0.858 C 0.459 0.856 0.459 0.854 0.459 0.852 C 0.459 0.851 0.458 0.846 0.458 0.841 C 0.458 0.834 0.453 0.828 0.453 0.835 Z  M 0.57 0.841 C 0.571 0.844 0.57 0.847 0.569 0.847 C 0.568 0.847 0.567 0.845 0.567 0.844 C 0.567 0.842 0.567 0.841 0.566 0.841 C 0.565 0.841 0.564 0.843 0.564 0.846 C 0.564 0.85 0.565 0.851 0.568 0.85 C 0.572 0.848 0.573 0.842 0.571 0.838 C 0.57 0.836 0.569 0.836 0.57 0.841 Z  M 0.603 0.837 C 0.601 0.841 0.602 0.843 0.606 0.842 C 0.609 0.841 0.609 0.84 0.608 0.838 C 0.605 0.835 0.604 0.835 0.603 0.837 Z  M 0.281 0.849 C 0.283 0.849 0.284 0.852 0.282 0.857 C 0.28 0.863 0.277 0.859 0.277 0.849 C 0.277 0.844 0.278 0.842 0.278 0.845 C 0.278 0.847 0.28 0.849 0.281 0.849 Z  M 0.314 0.854 C 0.317 0.859 0.315 0.862 0.312 0.858 C 0.31 0.857 0.308 0.856 0.306 0.856 C 0.305 0.857 0.304 0.856 0.304 0.855 C 0.305 0.853 0.306 0.853 0.307 0.854 C 0.307 0.855 0.308 0.854 0.308 0.852 C 0.308 0.848 0.312 0.849 0.314 0.854 Z  M 0.307 0.872 C 0.307 0.872 0.308 0.872 0.309 0.872 C 0.309 0.872 0.31 0.873 0.309 0.876 C 0.308 0.879 0.309 0.88 0.31 0.879 C 0.312 0.878 0.313 0.879 0.313 0.881 C 0.314 0.884 0.315 0.885 0.316 0.885 C 0.317 0.885 0.317 0.884 0.316 0.881 C 0.314 0.877 0.314 0.877 0.317 0.881 C 0.322 0.889 0.32 0.892 0.313 0.885 C 0.306 0.878 0.305 0.878 0.299 0.888 C 0.297 0.892 0.294 0.896 0.292 0.896 C 0.291 0.896 0.292 0.894 0.294 0.891 C 0.297 0.886 0.297 0.883 0.293 0.883 C 0.29 0.883 0.286 0.873 0.287 0.871 C 0.288 0.87 0.305 0.871 0.307 0.872 Z  M 0.288 0.892 C 0.288 0.894 0.287 0.897 0.286 0.897 C 0.282 0.897 0.281 0.891 0.284 0.889 C 0.286 0.888 0.285 0.877 0.283 0.877 C 0.282 0.877 0.282 0.876 0.283 0.874 C 0.284 0.87 0.288 0.883 0.288 0.892 Z  M 0.347 0.905 C 0.352 0.91 0.353 0.913 0.353 0.917 C 0.352 0.925 0.349 0.926 0.345 0.918 C 0.343 0.914 0.339 0.909 0.338 0.908 C 0.334 0.904 0.335 0.899 0.339 0.899 C 0.34 0.899 0.344 0.902 0.347 0.905 Z  M 0.3 0.912 C 0.3 0.916 0.301 0.917 0.304 0.918 C 0.311 0.918 0.318 0.933 0.311 0.933 C 0.311 0.933 0.31 0.93 0.311 0.927 C 0.311 0.923 0.311 0.922 0.309 0.923 C 0.308 0.924 0.307 0.926 0.308 0.928 C 0.308 0.932 0.292 0.933 0.29 0.93 C 0.289 0.927 0.288 0.907 0.289 0.908 C 0.29 0.909 0.292 0.909 0.293 0.908 C 0.298 0.904 0.3 0.906 0.3 0.912 Z  M 0.305 0.94 C 0.304 0.941 0.303 0.944 0.303 0.946 C 0.303 0.949 0.303 0.949 0.302 0.947 C 0.301 0.943 0.305 0.934 0.306 0.937 C 0.307 0.938 0.306 0.94 0.305 0.94 Z  M 0.364 0.954 C 0.362 0.957 0.361 0.952 0.362 0.947 C 0.363 0.943 0.363 0.943 0.364 0.947 C 0.364 0.95 0.364 0.953 0.364 0.954 Z " fill-rule="evenodd" fill="rgb(0,0,0)"/></g></g></svg>