<?xml version="1.0" encoding="UTF-8" standalone="no"?><!-- Generator: Gravit.io --><svg xmlns="http://www.w3.org/2000/svg" xmlns:xlink="http://www.w3.org/1999/xlink" style="isolation:isolate" viewBox="0 0 1 1" width="1pt" height="1pt"><defs><clipPath id="_clipPath_imqIic53l6sBQhhSk15nXgTOwQa1M7Bc"><rect width="1" height="1"/></clipPath></defs><g clip-path="url(#_clipPath_imqIic53l6sBQhhSk15nXgTOwQa1M7Bc)"><g><path d=" M 0 0.004 C 0 0.006 0 0.231 0 0.503 L 0 0.999 L 0.185 1 C 0.348 1 0.37 1 0.372 0.996 C 0.374 0.994 0.378 0.991 0.381 0.99 C 0.389 0.989 0.39 0.99 0.378 0.967 C 0.375 0.962 0.373 0.957 0.373 0.957 C 0.373 0.956 0.373 0.953 0.373 0.95 C 0.372 0.947 0.373 0.946 0.375 0.947 C 0.376 0.948 0.377 0.947 0.376 0.943 C 0.375 0.938 0.375 0.937 0.38 0.937 C 0.383 0.937 0.387 0.936 0.389 0.935 L 0.392 0.933 L 0.388 0.926 C 0.386 0.922 0.385 0.917 0.385 0.914 C 0.386 0.911 0.384 0.909 0.381 0.906 C 0.378 0.905 0.373 0.899 0.37 0.895 C 0.367 0.89 0.364 0.886 0.364 0.886 C 0.361 0.887 0.358 0.876 0.36 0.875 C 0.361 0.874 0.363 0.875 0.364 0.877 C 0.365 0.88 0.367 0.881 0.368 0.881 C 0.369 0.881 0.369 0.88 0.367 0.879 C 0.366 0.877 0.366 0.876 0.367 0.876 C 0.368 0.876 0.369 0.878 0.37 0.881 C 0.371 0.883 0.372 0.885 0.372 0.885 C 0.373 0.884 0.375 0.885 0.377 0.887 C 0.383 0.891 0.385 0.888 0.38 0.881 C 0.378 0.878 0.377 0.876 0.377 0.876 C 0.38 0.876 0.37 0.862 0.368 0.862 C 0.366 0.862 0.366 0.861 0.366 0.86 C 0.367 0.859 0.375 0.858 0.384 0.858 C 0.4 0.857 0.4 0.857 0.405 0.849 C 0.412 0.838 0.414 0.831 0.411 0.828 C 0.409 0.826 0.409 0.825 0.411 0.824 C 0.413 0.823 0.411 0.812 0.409 0.812 C 0.409 0.812 0.408 0.814 0.408 0.816 C 0.408 0.826 0.389 0.812 0.387 0.8 C 0.386 0.798 0.384 0.795 0.382 0.794 C 0.38 0.793 0.377 0.788 0.375 0.783 C 0.373 0.778 0.371 0.773 0.37 0.772 C 0.368 0.771 0.366 0.767 0.365 0.763 C 0.364 0.759 0.363 0.756 0.362 0.756 C 0.36 0.756 0.356 0.746 0.357 0.742 C 0.358 0.739 0.364 0.748 0.379 0.774 C 0.384 0.782 0.388 0.79 0.389 0.79 C 0.39 0.79 0.391 0.791 0.391 0.792 C 0.391 0.794 0.393 0.796 0.404 0.803 C 0.406 0.805 0.409 0.807 0.411 0.809 C 0.414 0.81 0.416 0.813 0.416 0.814 C 0.415 0.817 0.417 0.837 0.418 0.84 C 0.42 0.845 0.424 0.836 0.424 0.828 C 0.424 0.817 0.427 0.819 0.428 0.83 C 0.429 0.845 0.43 0.847 0.432 0.838 C 0.434 0.834 0.435 0.829 0.435 0.827 C 0.435 0.823 0.441 0.82 0.444 0.823 C 0.447 0.826 0.46 0.824 0.464 0.82 C 0.468 0.817 0.497 0.814 0.499 0.816 C 0.5 0.818 0.504 0.818 0.507 0.818 C 0.51 0.817 0.513 0.818 0.514 0.819 C 0.517 0.822 0.513 0.829 0.51 0.827 C 0.508 0.826 0.506 0.828 0.503 0.833 C 0.5 0.84 0.495 0.84 0.499 0.833 C 0.5 0.83 0.5 0.828 0.497 0.826 C 0.494 0.823 0.494 0.824 0.493 0.83 C 0.492 0.836 0.492 0.837 0.491 0.833 C 0.489 0.827 0.486 0.827 0.486 0.833 C 0.486 0.835 0.485 0.837 0.485 0.837 C 0.484 0.837 0.483 0.835 0.483 0.833 C 0.483 0.83 0.482 0.829 0.482 0.829 C 0.48 0.829 0.475 0.837 0.476 0.839 C 0.476 0.84 0.475 0.841 0.474 0.841 C 0.472 0.841 0.471 0.84 0.471 0.839 C 0.471 0.838 0.47 0.837 0.468 0.837 C 0.467 0.837 0.466 0.839 0.467 0.842 C 0.467 0.844 0.467 0.847 0.467 0.847 C 0.468 0.847 0.468 0.851 0.468 0.856 C 0.469 0.868 0.47 0.869 0.474 0.865 C 0.477 0.863 0.48 0.862 0.482 0.862 C 0.484 0.862 0.486 0.86 0.487 0.859 C 0.488 0.857 0.49 0.856 0.49 0.857 C 0.491 0.858 0.487 0.863 0.483 0.869 C 0.472 0.881 0.466 0.899 0.465 0.921 C 0.465 0.929 0.463 0.941 0.462 0.947 C 0.461 0.953 0.46 0.967 0.46 0.979 L 0.46 0.999 L 0.73 0.999 L 1 0.999 L 1 0.501 L 1 0.002 L 0.8 0.002 C 0.668 0.002 0.6 0.003 0.601 0.005 C 0.601 0.006 0.601 0.007 0.602 0.007 C 0.602 0.007 0.603 0.011 0.603 0.017 C 0.603 0.025 0.603 0.028 0.601 0.026 C 0.6 0.025 0.601 0.028 0.602 0.032 C 0.605 0.04 0.604 0.042 0.601 0.036 C 0.599 0.034 0.599 0.034 0.599 0.036 C 0.599 0.04 0.604 0.043 0.607 0.041 C 0.607 0.04 0.608 0.041 0.607 0.043 C 0.607 0.046 0.606 0.048 0.605 0.048 C 0.605 0.048 0.604 0.05 0.604 0.054 C 0.604 0.057 0.602 0.062 0.6 0.065 C 0.598 0.068 0.597 0.07 0.598 0.07 C 0.599 0.07 0.598 0.072 0.596 0.075 C 0.595 0.078 0.594 0.08 0.596 0.081 C 0.597 0.083 0.597 0.084 0.595 0.085 C 0.594 0.086 0.596 0.086 0.599 0.085 C 0.601 0.085 0.605 0.083 0.606 0.081 C 0.607 0.079 0.608 0.08 0.609 0.084 C 0.61 0.091 0.608 0.094 0.603 0.095 C 0.599 0.096 0.598 0.098 0.598 0.103 L 0.597 0.109 L 0.588 0.1 C 0.583 0.096 0.579 0.091 0.578 0.089 C 0.578 0.088 0.576 0.089 0.575 0.092 C 0.573 0.095 0.572 0.098 0.573 0.098 C 0.574 0.098 0.572 0.101 0.57 0.105 C 0.565 0.113 0.563 0.113 0.561 0.105 C 0.558 0.093 0.555 0.087 0.554 0.088 C 0.551 0.095 0.544 0.091 0.542 0.082 C 0.54 0.073 0.54 0.073 0.536 0.074 C 0.533 0.075 0.531 0.076 0.53 0.076 C 0.529 0.076 0.527 0.079 0.526 0.083 C 0.525 0.088 0.521 0.095 0.518 0.099 C 0.514 0.103 0.511 0.109 0.511 0.111 C 0.511 0.115 0.503 0.123 0.498 0.123 C 0.494 0.123 0.488 0.116 0.488 0.111 C 0.488 0.103 0.484 0.101 0.481 0.105 C 0.478 0.108 0.477 0.108 0.475 0.105 C 0.474 0.103 0.472 0.102 0.47 0.103 C 0.468 0.103 0.465 0.103 0.464 0.101 C 0.462 0.099 0.46 0.098 0.459 0.099 C 0.457 0.1 0.455 0.099 0.453 0.097 C 0.451 0.093 0.449 0.093 0.444 0.095 C 0.44 0.096 0.436 0.097 0.435 0.096 C 0.434 0.095 0.432 0.096 0.43 0.099 C 0.426 0.106 0.419 0.107 0.415 0.102 C 0.413 0.099 0.411 0.098 0.411 0.1 C 0.411 0.108 0.399 0.103 0.392 0.093 C 0.39 0.09 0.389 0.09 0.39 0.092 C 0.39 0.093 0.39 0.097 0.389 0.099 C 0.387 0.102 0.386 0.106 0.386 0.108 C 0.386 0.113 0.382 0.113 0.38 0.108 C 0.38 0.104 0.375 0.101 0.375 0.105 C 0.375 0.11 0.379 0.117 0.38 0.116 C 0.382 0.115 0.383 0.117 0.384 0.124 C 0.384 0.129 0.385 0.134 0.386 0.135 C 0.389 0.137 0.382 0.147 0.377 0.149 C 0.374 0.15 0.37 0.158 0.365 0.169 C 0.359 0.181 0.356 0.187 0.353 0.187 C 0.35 0.187 0.35 0.186 0.355 0.18 C 0.36 0.171 0.371 0.143 0.37 0.14 C 0.369 0.139 0.369 0.134 0.368 0.13 C 0.367 0.12 0.366 0.118 0.364 0.122 C 0.363 0.124 0.36 0.126 0.358 0.126 C 0.357 0.126 0.354 0.127 0.353 0.13 C 0.351 0.132 0.35 0.134 0.349 0.134 C 0.348 0.134 0.343 0.14 0.339 0.146 C 0.332 0.157 0.33 0.159 0.326 0.157 C 0.323 0.156 0.32 0.157 0.32 0.159 C 0.319 0.16 0.316 0.162 0.312 0.162 C 0.307 0.162 0.305 0.163 0.304 0.166 C 0.304 0.168 0.302 0.17 0.301 0.17 C 0.3 0.17 0.298 0.172 0.297 0.174 C 0.297 0.176 0.294 0.178 0.291 0.179 C 0.289 0.18 0.288 0.18 0.289 0.179 C 0.29 0.178 0.29 0.175 0.286 0.17 C 0.28 0.16 0.279 0.16 0.277 0.169 C 0.275 0.172 0.273 0.176 0.272 0.176 C 0.268 0.176 0.268 0.178 0.27 0.184 C 0.272 0.188 0.272 0.188 0.272 0.184 C 0.272 0.18 0.273 0.179 0.276 0.18 C 0.278 0.181 0.279 0.183 0.279 0.184 C 0.278 0.186 0.28 0.186 0.282 0.186 C 0.286 0.184 0.288 0.19 0.285 0.193 C 0.284 0.194 0.284 0.194 0.286 0.193 C 0.287 0.193 0.288 0.194 0.288 0.195 C 0.289 0.197 0.29 0.198 0.291 0.197 C 0.295 0.195 0.3 0.21 0.296 0.214 C 0.294 0.216 0.292 0.217 0.284 0.219 C 0.281 0.22 0.278 0.222 0.278 0.225 C 0.277 0.227 0.275 0.228 0.274 0.228 C 0.27 0.228 0.257 0.24 0.254 0.246 C 0.25 0.254 0.244 0.257 0.241 0.253 C 0.239 0.252 0.239 0.251 0.239 0.251 C 0.24 0.251 0.24 0.248 0.239 0.245 C 0.238 0.241 0.238 0.239 0.239 0.239 C 0.24 0.239 0.241 0.241 0.241 0.243 C 0.241 0.249 0.244 0.252 0.246 0.248 C 0.247 0.245 0.247 0.245 0.244 0.246 C 0.242 0.248 0.242 0.247 0.243 0.245 C 0.245 0.242 0.245 0.241 0.243 0.237 C 0.241 0.235 0.241 0.232 0.242 0.23 C 0.244 0.225 0.236 0.218 0.234 0.223 C 0.231 0.227 0.227 0.226 0.225 0.221 C 0.224 0.219 0.224 0.217 0.225 0.217 C 0.226 0.217 0.227 0.216 0.227 0.213 C 0.227 0.21 0.229 0.207 0.232 0.207 C 0.233 0.207 0.233 0.21 0.233 0.212 C 0.233 0.214 0.234 0.216 0.235 0.216 C 0.237 0.216 0.238 0.215 0.238 0.2 C 0.238 0.195 0.24 0.19 0.241 0.188 C 0.243 0.186 0.244 0.184 0.243 0.184 C 0.242 0.184 0.24 0.186 0.239 0.189 C 0.237 0.191 0.235 0.192 0.235 0.191 C 0.234 0.19 0.234 0.188 0.236 0.187 C 0.239 0.185 0.238 0.181 0.232 0.173 C 0.227 0.164 0.226 0.158 0.229 0.153 C 0.231 0.15 0.232 0.154 0.231 0.163 C 0.231 0.164 0.233 0.166 0.236 0.168 C 0.239 0.17 0.241 0.173 0.241 0.176 C 0.241 0.179 0.241 0.181 0.242 0.181 C 0.243 0.181 0.243 0.179 0.243 0.177 C 0.242 0.175 0.243 0.173 0.244 0.173 C 0.245 0.173 0.245 0.174 0.245 0.176 C 0.245 0.177 0.246 0.178 0.247 0.177 C 0.249 0.175 0.249 0.175 0.247 0.179 C 0.245 0.184 0.246 0.201 0.249 0.201 C 0.25 0.201 0.25 0.202 0.249 0.203 C 0.248 0.206 0.251 0.217 0.253 0.217 C 0.254 0.217 0.254 0.212 0.255 0.2 C 0.255 0.195 0.256 0.195 0.261 0.203 C 0.263 0.205 0.264 0.206 0.264 0.205 C 0.264 0.204 0.262 0.2 0.26 0.197 C 0.255 0.189 0.253 0.18 0.255 0.171 C 0.256 0.167 0.257 0.158 0.258 0.152 C 0.258 0.143 0.259 0.141 0.262 0.141 C 0.264 0.141 0.266 0.14 0.266 0.138 C 0.266 0.136 0.266 0.134 0.267 0.134 C 0.268 0.134 0.269 0.13 0.27 0.124 C 0.271 0.119 0.273 0.115 0.274 0.115 C 0.281 0.118 0.294 0.074 0.296 0.046 C 0.296 0.039 0.298 0.027 0.3 0.021 C 0.307 -0.001 0.32 0.001 0.151 0.001 C 0.033 0.001 0.001 0.001 0 0.004 Z  M 0.314 0.003 C 0.314 0.004 0.315 0.007 0.316 0.009 C 0.318 0.011 0.318 0.013 0.318 0.015 C 0.317 0.016 0.319 0.017 0.321 0.016 C 0.324 0.015 0.325 0.015 0.325 0.017 C 0.325 0.019 0.326 0.02 0.327 0.02 C 0.329 0.02 0.328 0.004 0.326 0.002 C 0.322 0 0.314 0 0.314 0.003 Z  M 0.334 0.003 C 0.334 0.004 0.336 0.008 0.337 0.011 L 0.34 0.018 L 0.341 0.012 C 0.342 0.005 0.346 0.004 0.349 0.011 C 0.353 0.018 0.359 0.014 0.358 0.006 C 0.358 0 0.334 -0.002 0.334 0.003 Z  M 0.643 0.108 C 0.643 0.11 0.642 0.111 0.641 0.11 C 0.638 0.108 0.625 0.12 0.625 0.124 C 0.625 0.129 0.623 0.13 0.621 0.126 C 0.621 0.124 0.62 0.123 0.619 0.124 C 0.618 0.125 0.616 0.123 0.613 0.118 C 0.61 0.113 0.61 0.11 0.612 0.109 C 0.614 0.106 0.614 0.106 0.629 0.105 C 0.635 0.104 0.64 0.103 0.641 0.102 C 0.642 0.1 0.644 0.103 0.643 0.108 Z  M 0.375 0.122 C 0.373 0.123 0.372 0.125 0.372 0.13 C 0.372 0.138 0.377 0.139 0.38 0.133 C 0.382 0.127 0.38 0.121 0.375 0.122 Z  M 0.416 0.131 C 0.416 0.135 0.412 0.135 0.41 0.132 C 0.41 0.13 0.41 0.128 0.41 0.128 C 0.412 0.125 0.416 0.128 0.416 0.131 Z  M 0.428 0.133 C 0.428 0.135 0.427 0.137 0.425 0.137 C 0.422 0.137 0.42 0.133 0.422 0.13 C 0.423 0.127 0.427 0.129 0.428 0.133 Z  M 0.574 0.133 C 0.572 0.136 0.575 0.143 0.578 0.146 C 0.58 0.147 0.58 0.147 0.578 0.148 C 0.574 0.148 0.571 0.141 0.571 0.136 C 0.571 0.133 0.572 0.131 0.573 0.131 C 0.575 0.131 0.575 0.132 0.574 0.133 Z  M 0.629 0.138 C 0.63 0.142 0.63 0.146 0.629 0.147 C 0.629 0.148 0.629 0.146 0.629 0.143 C 0.629 0.139 0.628 0.137 0.625 0.138 C 0.623 0.139 0.623 0.138 0.623 0.135 C 0.625 0.129 0.628 0.131 0.629 0.138 Z  M 0.584 0.14 C 0.581 0.143 0.577 0.143 0.577 0.139 C 0.577 0.136 0.578 0.135 0.582 0.136 C 0.585 0.137 0.586 0.138 0.584 0.14 Z  M 0.601 0.151 C 0.602 0.153 0.603 0.155 0.603 0.157 C 0.603 0.159 0.603 0.158 0.602 0.156 C 0.601 0.153 0.6 0.153 0.6 0.156 C 0.6 0.159 0.6 0.158 0.598 0.154 C 0.595 0.148 0.589 0.145 0.589 0.151 C 0.589 0.152 0.588 0.153 0.586 0.153 L 0.582 0.153 L 0.586 0.15 C 0.588 0.149 0.589 0.147 0.589 0.145 C 0.588 0.142 0.598 0.146 0.601 0.151 Z  M 0.626 0.15 C 0.626 0.154 0.625 0.158 0.624 0.158 C 0.622 0.159 0.622 0.159 0.624 0.156 C 0.626 0.154 0.625 0.152 0.622 0.153 C 0.62 0.154 0.621 0.146 0.623 0.144 C 0.626 0.142 0.626 0.142 0.626 0.15 Z  M 0.176 0.176 C 0.176 0.194 0.177 0.2 0.181 0.201 C 0.183 0.202 0.187 0.217 0.185 0.22 C 0.183 0.223 0.18 0.217 0.18 0.211 C 0.18 0.208 0.177 0.201 0.174 0.196 C 0.171 0.192 0.169 0.184 0.168 0.18 C 0.168 0.175 0.167 0.169 0.166 0.167 C 0.166 0.164 0.167 0.162 0.169 0.16 C 0.174 0.155 0.176 0.16 0.176 0.176 Z  M 0.198 0.174 C 0.199 0.184 0.196 0.189 0.193 0.184 C 0.191 0.18 0.191 0.178 0.192 0.172 C 0.194 0.162 0.197 0.164 0.198 0.174 Z  M 0.231 0.187 C 0.228 0.19 0.226 0.181 0.227 0.174 C 0.228 0.169 0.229 0.17 0.231 0.177 C 0.233 0.183 0.233 0.185 0.231 0.187 Z  M 0.323 0.178 C 0.325 0.18 0.327 0.181 0.329 0.182 C 0.331 0.184 0.331 0.185 0.33 0.189 C 0.329 0.192 0.328 0.197 0.328 0.2 C 0.328 0.208 0.314 0.216 0.312 0.209 C 0.311 0.208 0.312 0.203 0.314 0.197 C 0.316 0.191 0.316 0.186 0.316 0.184 C 0.313 0.176 0.318 0.173 0.323 0.178 Z  M 0.344 0.185 C 0.343 0.19 0.334 0.191 0.334 0.187 C 0.334 0.185 0.335 0.184 0.336 0.185 C 0.337 0.186 0.338 0.186 0.338 0.184 C 0.34 0.179 0.345 0.181 0.344 0.185 Z  M 0.165 0.238 C 0.165 0.242 0.163 0.244 0.161 0.244 C 0.157 0.244 0.157 0.243 0.159 0.233 C 0.162 0.224 0.166 0.228 0.165 0.238 Z  M 0.2 0.237 C 0.198 0.241 0.195 0.238 0.195 0.232 C 0.195 0.229 0.196 0.229 0.199 0.231 C 0.201 0.233 0.201 0.235 0.2 0.237 Z  M 0.231 0.266 C 0.229 0.272 0.219 0.281 0.214 0.281 C 0.212 0.281 0.211 0.282 0.211 0.284 C 0.211 0.285 0.209 0.287 0.208 0.287 C 0.206 0.287 0.205 0.288 0.205 0.29 C 0.205 0.292 0.204 0.292 0.204 0.291 C 0.203 0.29 0.201 0.292 0.198 0.295 C 0.196 0.298 0.193 0.301 0.192 0.301 C 0.19 0.301 0.188 0.302 0.187 0.305 C 0.186 0.307 0.185 0.309 0.183 0.309 C 0.182 0.309 0.181 0.311 0.18 0.313 C 0.179 0.315 0.176 0.317 0.174 0.317 C 0.171 0.317 0.155 0.345 0.149 0.363 C 0.141 0.385 0.137 0.428 0.141 0.441 C 0.143 0.444 0.143 0.448 0.143 0.448 C 0.142 0.449 0.145 0.457 0.148 0.465 C 0.156 0.483 0.156 0.488 0.15 0.494 C 0.147 0.496 0.145 0.499 0.145 0.5 C 0.145 0.507 0.138 0.518 0.135 0.515 C 0.133 0.512 0.133 0.512 0.133 0.517 C 0.133 0.521 0.134 0.523 0.135 0.523 C 0.138 0.523 0.138 0.524 0.135 0.528 C 0.133 0.531 0.132 0.534 0.132 0.536 C 0.133 0.537 0.132 0.536 0.131 0.534 C 0.129 0.532 0.128 0.529 0.129 0.527 C 0.131 0.523 0.133 0.5 0.131 0.502 C 0.13 0.503 0.129 0.501 0.128 0.497 C 0.126 0.488 0.124 0.488 0.12 0.495 C 0.116 0.503 0.108 0.494 0.108 0.481 C 0.108 0.479 0.106 0.474 0.104 0.471 C 0.102 0.467 0.1 0.461 0.1 0.457 C 0.1 0.454 0.098 0.447 0.095 0.442 C 0.088 0.43 0.087 0.422 0.091 0.414 C 0.092 0.41 0.093 0.409 0.094 0.41 C 0.094 0.411 0.096 0.41 0.098 0.408 C 0.101 0.405 0.103 0.404 0.103 0.405 C 0.103 0.406 0.105 0.404 0.11 0.396 C 0.114 0.389 0.12 0.387 0.122 0.391 C 0.123 0.394 0.125 0.394 0.128 0.393 C 0.133 0.391 0.133 0.391 0.133 0.384 C 0.134 0.381 0.135 0.377 0.135 0.375 C 0.136 0.373 0.137 0.364 0.14 0.347 C 0.14 0.344 0.141 0.34 0.142 0.339 C 0.143 0.338 0.144 0.335 0.144 0.332 C 0.145 0.319 0.147 0.326 0.147 0.339 C 0.147 0.345 0.15 0.342 0.152 0.335 C 0.154 0.324 0.154 0.311 0.152 0.31 C 0.151 0.309 0.15 0.306 0.15 0.304 C 0.15 0.3 0.151 0.301 0.153 0.306 C 0.155 0.31 0.156 0.311 0.156 0.309 C 0.156 0.307 0.157 0.307 0.158 0.308 C 0.16 0.31 0.164 0.304 0.163 0.3 C 0.163 0.299 0.163 0.298 0.164 0.298 C 0.165 0.298 0.165 0.297 0.165 0.295 C 0.164 0.294 0.165 0.292 0.166 0.292 C 0.166 0.292 0.167 0.291 0.166 0.29 C 0.166 0.288 0.167 0.287 0.169 0.287 C 0.173 0.287 0.178 0.282 0.181 0.276 C 0.182 0.272 0.183 0.272 0.184 0.276 C 0.184 0.28 0.185 0.281 0.187 0.278 C 0.188 0.276 0.189 0.274 0.188 0.273 C 0.187 0.269 0.188 0.269 0.192 0.274 C 0.195 0.276 0.196 0.276 0.197 0.273 C 0.198 0.27 0.198 0.27 0.198 0.272 C 0.198 0.275 0.199 0.275 0.202 0.273 C 0.208 0.269 0.216 0.269 0.215 0.273 C 0.214 0.274 0.214 0.276 0.215 0.276 C 0.215 0.276 0.216 0.272 0.217 0.269 C 0.218 0.265 0.22 0.262 0.221 0.262 C 0.223 0.262 0.223 0.261 0.223 0.26 C 0.222 0.259 0.223 0.256 0.225 0.255 C 0.23 0.25 0.233 0.257 0.231 0.266 Z  M 0.162 0.258 C 0.161 0.264 0.158 0.268 0.158 0.263 C 0.158 0.26 0.159 0.257 0.16 0.256 C 0.162 0.253 0.162 0.253 0.162 0.258 Z  M 0.744 0.298 C 0.742 0.3 0.742 0.301 0.744 0.303 C 0.746 0.305 0.746 0.306 0.745 0.306 C 0.742 0.306 0.741 0.301 0.742 0.298 C 0.742 0.296 0.744 0.295 0.745 0.295 C 0.746 0.295 0.746 0.296 0.744 0.298 Z  M 0.147 0.311 C 0.147 0.314 0.147 0.315 0.148 0.314 C 0.149 0.313 0.15 0.315 0.15 0.319 C 0.151 0.323 0.15 0.327 0.149 0.328 C 0.148 0.329 0.148 0.328 0.149 0.326 C 0.15 0.324 0.149 0.323 0.149 0.323 C 0.147 0.323 0.145 0.312 0.146 0.308 C 0.148 0.304 0.148 0.306 0.147 0.311 Z  M 0.743 0.325 C 0.743 0.327 0.737 0.337 0.736 0.337 C 0.735 0.337 0.735 0.334 0.735 0.331 C 0.735 0.328 0.736 0.326 0.737 0.326 C 0.739 0.326 0.739 0.324 0.739 0.323 C 0.738 0.321 0.739 0.321 0.74 0.322 C 0.742 0.323 0.743 0.324 0.743 0.325 Z  M 0.806 0.336 C 0.806 0.34 0.804 0.347 0.801 0.352 C 0.795 0.364 0.794 0.376 0.799 0.374 C 0.801 0.373 0.803 0.374 0.804 0.377 C 0.808 0.385 0.817 0.377 0.819 0.364 C 0.819 0.363 0.819 0.361 0.819 0.36 C 0.82 0.359 0.82 0.357 0.819 0.355 C 0.819 0.354 0.82 0.354 0.821 0.355 C 0.822 0.356 0.823 0.354 0.823 0.351 C 0.824 0.344 0.831 0.343 0.833 0.349 C 0.835 0.354 0.834 0.36 0.832 0.357 C 0.831 0.357 0.83 0.357 0.831 0.358 C 0.831 0.359 0.83 0.364 0.83 0.368 C 0.829 0.372 0.829 0.377 0.83 0.379 C 0.83 0.381 0.831 0.385 0.831 0.387 C 0.83 0.39 0.831 0.392 0.832 0.392 C 0.834 0.392 0.835 0.394 0.836 0.395 C 0.836 0.397 0.836 0.397 0.834 0.396 C 0.832 0.395 0.832 0.395 0.832 0.4 C 0.833 0.403 0.832 0.407 0.832 0.409 C 0.831 0.412 0.83 0.411 0.83 0.406 C 0.83 0.401 0.83 0.401 0.829 0.404 C 0.829 0.407 0.827 0.409 0.826 0.409 C 0.824 0.409 0.823 0.424 0.826 0.427 C 0.828 0.43 0.824 0.442 0.819 0.446 C 0.817 0.448 0.814 0.454 0.813 0.459 C 0.811 0.464 0.809 0.469 0.809 0.471 C 0.808 0.472 0.807 0.475 0.808 0.478 C 0.809 0.481 0.808 0.481 0.807 0.48 C 0.806 0.479 0.805 0.48 0.805 0.482 C 0.805 0.485 0.805 0.487 0.804 0.487 C 0.803 0.487 0.802 0.489 0.802 0.491 C 0.801 0.495 0.801 0.495 0.807 0.494 C 0.811 0.492 0.816 0.491 0.818 0.491 C 0.82 0.491 0.823 0.489 0.825 0.486 C 0.829 0.48 0.848 0.465 0.862 0.458 C 0.868 0.455 0.875 0.452 0.876 0.45 C 0.883 0.444 0.88 0.461 0.871 0.475 C 0.864 0.488 0.876 0.497 0.891 0.488 C 0.893 0.487 0.895 0.488 0.896 0.491 C 0.897 0.494 0.898 0.495 0.897 0.494 C 0.894 0.491 0.89 0.497 0.892 0.502 C 0.893 0.505 0.894 0.507 0.895 0.507 C 0.896 0.507 0.898 0.508 0.899 0.511 C 0.901 0.513 0.902 0.514 0.903 0.513 C 0.903 0.512 0.904 0.512 0.904 0.514 C 0.904 0.516 0.905 0.517 0.907 0.516 C 0.911 0.515 0.919 0.522 0.919 0.526 C 0.919 0.527 0.918 0.528 0.917 0.528 C 0.916 0.528 0.915 0.529 0.915 0.531 C 0.915 0.532 0.912 0.535 0.908 0.537 C 0.901 0.541 0.898 0.546 0.901 0.552 C 0.902 0.555 0.902 0.556 0.9 0.557 C 0.898 0.558 0.898 0.56 0.898 0.562 C 0.899 0.563 0.898 0.565 0.897 0.566 C 0.897 0.567 0.896 0.57 0.897 0.572 C 0.897 0.574 0.897 0.576 0.896 0.577 C 0.895 0.578 0.894 0.577 0.894 0.575 C 0.893 0.572 0.893 0.572 0.893 0.575 C 0.893 0.581 0.901 0.593 0.905 0.593 C 0.907 0.594 0.909 0.596 0.91 0.599 C 0.911 0.606 0.897 0.61 0.895 0.604 C 0.895 0.602 0.893 0.601 0.89 0.602 C 0.888 0.603 0.887 0.603 0.887 0.602 C 0.887 0.6 0.882 0.599 0.876 0.599 C 0.864 0.6 0.862 0.596 0.866 0.583 C 0.869 0.573 0.867 0.571 0.86 0.578 C 0.852 0.585 0.852 0.585 0.852 0.574 C 0.852 0.565 0.846 0.563 0.841 0.569 C 0.84 0.571 0.838 0.572 0.837 0.57 C 0.836 0.569 0.831 0.569 0.827 0.57 C 0.823 0.571 0.819 0.571 0.818 0.569 C 0.817 0.567 0.816 0.568 0.816 0.572 C 0.816 0.581 0.811 0.584 0.803 0.579 C 0.798 0.577 0.797 0.576 0.796 0.579 C 0.795 0.581 0.793 0.581 0.791 0.58 C 0.788 0.579 0.786 0.58 0.784 0.588 C 0.782 0.593 0.78 0.599 0.778 0.601 C 0.776 0.603 0.774 0.607 0.774 0.61 C 0.773 0.614 0.772 0.616 0.77 0.616 C 0.768 0.617 0.766 0.617 0.765 0.617 C 0.764 0.617 0.763 0.619 0.763 0.621 C 0.763 0.623 0.762 0.629 0.761 0.633 C 0.759 0.637 0.758 0.643 0.758 0.646 C 0.758 0.656 0.755 0.65 0.755 0.64 L 0.755 0.63 L 0.753 0.639 C 0.752 0.647 0.747 0.652 0.747 0.645 C 0.747 0.644 0.747 0.642 0.746 0.642 C 0.745 0.642 0.744 0.645 0.744 0.647 C 0.744 0.658 0.737 0.666 0.733 0.661 C 0.724 0.651 0.722 0.654 0.723 0.673 C 0.723 0.692 0.722 0.694 0.717 0.688 C 0.713 0.683 0.713 0.683 0.714 0.689 C 0.718 0.702 0.712 0.713 0.707 0.702 C 0.706 0.697 0.705 0.697 0.702 0.7 C 0.7 0.702 0.699 0.702 0.698 0.7 C 0.695 0.696 0.687 0.728 0.689 0.735 C 0.69 0.74 0.69 0.743 0.689 0.744 C 0.689 0.745 0.688 0.744 0.688 0.743 C 0.688 0.741 0.687 0.74 0.686 0.74 C 0.686 0.74 0.685 0.744 0.686 0.75 C 0.687 0.762 0.684 0.76 0.683 0.748 C 0.682 0.741 0.681 0.74 0.679 0.741 C 0.677 0.742 0.675 0.741 0.675 0.739 C 0.675 0.737 0.672 0.731 0.669 0.725 C 0.663 0.715 0.662 0.714 0.665 0.711 C 0.669 0.707 0.671 0.703 0.67 0.699 C 0.669 0.698 0.669 0.697 0.67 0.698 C 0.671 0.701 0.675 0.694 0.675 0.69 C 0.675 0.688 0.677 0.684 0.679 0.679 C 0.681 0.675 0.683 0.666 0.684 0.659 C 0.685 0.652 0.686 0.643 0.686 0.638 C 0.687 0.634 0.689 0.624 0.69 0.617 C 0.691 0.608 0.692 0.604 0.694 0.605 C 0.695 0.606 0.696 0.605 0.696 0.601 C 0.696 0.598 0.698 0.592 0.7 0.588 C 0.703 0.583 0.703 0.58 0.702 0.578 C 0.701 0.576 0.702 0.573 0.705 0.57 C 0.708 0.567 0.71 0.562 0.71 0.56 C 0.71 0.55 0.711 0.542 0.712 0.541 C 0.713 0.539 0.723 0.537 0.722 0.539 C 0.721 0.54 0.724 0.546 0.727 0.551 C 0.732 0.558 0.733 0.561 0.732 0.564 C 0.73 0.567 0.731 0.578 0.733 0.578 C 0.734 0.578 0.735 0.577 0.736 0.575 C 0.736 0.574 0.738 0.573 0.739 0.574 C 0.741 0.575 0.741 0.574 0.74 0.569 C 0.74 0.564 0.74 0.559 0.742 0.555 C 0.743 0.551 0.744 0.546 0.744 0.544 C 0.744 0.542 0.746 0.537 0.748 0.534 C 0.751 0.53 0.752 0.527 0.751 0.523 C 0.751 0.519 0.751 0.516 0.756 0.511 C 0.763 0.504 0.762 0.502 0.754 0.505 C 0.747 0.507 0.744 0.513 0.747 0.517 C 0.749 0.519 0.749 0.52 0.748 0.521 C 0.747 0.522 0.746 0.522 0.745 0.52 C 0.744 0.518 0.743 0.518 0.742 0.518 C 0.741 0.519 0.74 0.519 0.74 0.518 C 0.74 0.516 0.739 0.515 0.737 0.514 C 0.736 0.513 0.735 0.514 0.735 0.516 C 0.735 0.518 0.736 0.519 0.737 0.518 C 0.738 0.517 0.738 0.518 0.737 0.52 C 0.735 0.526 0.733 0.523 0.734 0.515 C 0.734 0.508 0.734 0.507 0.73 0.507 C 0.725 0.506 0.722 0.515 0.725 0.521 C 0.728 0.526 0.726 0.527 0.718 0.527 C 0.712 0.527 0.711 0.526 0.711 0.517 C 0.711 0.514 0.712 0.512 0.714 0.512 C 0.717 0.512 0.717 0.51 0.717 0.508 C 0.716 0.505 0.715 0.503 0.714 0.503 C 0.708 0.503 0.712 0.497 0.725 0.484 C 0.734 0.476 0.74 0.465 0.743 0.453 C 0.744 0.448 0.745 0.441 0.746 0.437 C 0.749 0.427 0.748 0.392 0.745 0.383 C 0.737 0.361 0.738 0.349 0.747 0.344 C 0.749 0.343 0.751 0.341 0.751 0.339 C 0.751 0.338 0.752 0.337 0.754 0.337 C 0.757 0.337 0.758 0.342 0.755 0.347 C 0.754 0.349 0.754 0.352 0.755 0.355 C 0.756 0.359 0.756 0.362 0.755 0.366 C 0.754 0.37 0.754 0.372 0.757 0.376 C 0.759 0.379 0.76 0.381 0.758 0.38 C 0.757 0.379 0.758 0.381 0.76 0.384 C 0.764 0.389 0.768 0.391 0.768 0.387 C 0.768 0.383 0.777 0.367 0.78 0.367 C 0.782 0.367 0.783 0.365 0.783 0.362 C 0.783 0.356 0.786 0.35 0.795 0.338 C 0.804 0.327 0.807 0.327 0.806 0.336 Z  M 0.065 0.357 C 0.065 0.36 0.064 0.361 0.063 0.36 C 0.062 0.359 0.061 0.357 0.062 0.356 C 0.063 0.352 0.065 0.353 0.065 0.357 Z  M 0.787 0.37 C 0.787 0.372 0.787 0.375 0.788 0.377 C 0.79 0.379 0.79 0.379 0.789 0.375 C 0.789 0.372 0.789 0.37 0.791 0.369 C 0.793 0.368 0.793 0.368 0.791 0.368 C 0.789 0.367 0.788 0.369 0.787 0.37 Z  M 0.874 0.38 C 0.873 0.384 0.874 0.385 0.878 0.384 C 0.879 0.384 0.878 0.386 0.877 0.388 C 0.875 0.39 0.873 0.391 0.872 0.391 C 0.872 0.39 0.871 0.39 0.871 0.392 C 0.871 0.393 0.87 0.394 0.869 0.394 C 0.868 0.394 0.867 0.392 0.867 0.389 C 0.868 0.386 0.869 0.385 0.869 0.385 C 0.87 0.386 0.871 0.384 0.872 0.381 C 0.872 0.378 0.873 0.376 0.874 0.376 C 0.874 0.376 0.874 0.378 0.874 0.38 Z  M 0.796 0.388 C 0.795 0.393 0.794 0.401 0.794 0.406 C 0.794 0.412 0.793 0.417 0.792 0.419 C 0.792 0.421 0.792 0.423 0.793 0.423 C 0.794 0.424 0.795 0.429 0.795 0.434 C 0.796 0.442 0.805 0.464 0.805 0.457 C 0.805 0.456 0.806 0.457 0.808 0.459 C 0.809 0.461 0.81 0.462 0.81 0.46 C 0.809 0.457 0.813 0.442 0.814 0.442 C 0.814 0.442 0.814 0.445 0.814 0.447 C 0.813 0.451 0.813 0.451 0.815 0.446 C 0.817 0.443 0.819 0.441 0.819 0.441 C 0.82 0.442 0.82 0.44 0.82 0.439 C 0.82 0.437 0.821 0.432 0.821 0.427 C 0.822 0.422 0.822 0.42 0.821 0.421 C 0.82 0.422 0.818 0.421 0.816 0.417 C 0.815 0.414 0.812 0.412 0.811 0.412 C 0.809 0.412 0.808 0.41 0.808 0.409 C 0.808 0.407 0.809 0.407 0.81 0.408 C 0.811 0.409 0.811 0.408 0.81 0.404 C 0.809 0.4 0.809 0.398 0.81 0.395 C 0.812 0.393 0.811 0.392 0.808 0.393 C 0.805 0.394 0.804 0.394 0.804 0.391 C 0.804 0.388 0.803 0.387 0.802 0.388 C 0.801 0.389 0.8 0.387 0.799 0.385 C 0.798 0.38 0.797 0.381 0.796 0.388 Z  M 0.842 0.396 C 0.843 0.401 0.843 0.401 0.845 0.399 C 0.846 0.397 0.847 0.395 0.848 0.395 C 0.849 0.395 0.848 0.397 0.847 0.399 C 0.844 0.403 0.838 0.399 0.838 0.392 C 0.838 0.387 0.841 0.39 0.842 0.396 Z  M 0.076 0.417 C 0.076 0.419 0.077 0.42 0.079 0.42 C 0.081 0.42 0.081 0.422 0.08 0.431 C 0.08 0.436 0.079 0.442 0.079 0.444 C 0.079 0.445 0.078 0.448 0.077 0.45 C 0.075 0.453 0.075 0.458 0.075 0.465 C 0.076 0.472 0.076 0.477 0.073 0.482 C 0.072 0.485 0.07 0.492 0.069 0.497 C 0.067 0.504 0.066 0.506 0.063 0.506 C 0.059 0.506 0.058 0.509 0.057 0.54 C 0.056 0.559 0.054 0.576 0.051 0.576 C 0.049 0.576 0.048 0.562 0.049 0.553 C 0.05 0.547 0.049 0.541 0.048 0.535 L 0.045 0.527 L 0.045 0.534 C 0.045 0.541 0.042 0.547 0.039 0.546 C 0.038 0.546 0.038 0.55 0.038 0.556 C 0.038 0.562 0.039 0.567 0.039 0.567 C 0.041 0.567 0.04 0.572 0.038 0.574 C 0.036 0.575 0.035 0.575 0.036 0.574 C 0.037 0.573 0.035 0.567 0.033 0.561 C 0.03 0.55 0.03 0.547 0.03 0.51 C 0.031 0.451 0.037 0.434 0.054 0.448 C 0.064 0.457 0.065 0.457 0.064 0.455 C 0.062 0.452 0.068 0.422 0.071 0.418 C 0.074 0.414 0.076 0.414 0.076 0.417 Z  M 0.84 0.44 C 0.84 0.441 0.839 0.442 0.838 0.442 C 0.837 0.442 0.837 0.444 0.837 0.446 C 0.837 0.452 0.831 0.461 0.825 0.463 C 0.823 0.464 0.821 0.467 0.82 0.47 C 0.819 0.475 0.813 0.486 0.813 0.483 C 0.813 0.481 0.814 0.478 0.816 0.474 C 0.818 0.471 0.819 0.467 0.82 0.465 C 0.821 0.453 0.84 0.429 0.84 0.44 Z  M 0.013 0.449 C 0.012 0.452 0.01 0.456 0.01 0.459 C 0.009 0.462 0.008 0.464 0.006 0.463 C 0.002 0.461 0.003 0.453 0.006 0.453 C 0.008 0.453 0.009 0.453 0.009 0.452 C 0.008 0.451 0.009 0.448 0.01 0.445 C 0.012 0.442 0.013 0.441 0.014 0.442 C 0.015 0.444 0.015 0.446 0.013 0.449 Z  M 0.905 0.473 C 0.909 0.48 0.907 0.49 0.902 0.491 C 0.901 0.491 0.899 0.491 0.899 0.49 C 0.899 0.489 0.899 0.486 0.898 0.483 C 0.897 0.471 0.901 0.466 0.905 0.473 Z  M 0.747 0.532 C 0.747 0.533 0.746 0.533 0.745 0.531 C 0.744 0.529 0.743 0.527 0.743 0.525 C 0.743 0.523 0.744 0.524 0.745 0.526 C 0.746 0.528 0.747 0.53 0.747 0.532 Z  M 0.871 0.567 C 0.87 0.572 0.87 0.572 0.872 0.571 C 0.874 0.57 0.876 0.562 0.874 0.562 C 0.874 0.562 0.872 0.564 0.871 0.567 Z  M 0.724 0.583 C 0.724 0.59 0.73 0.598 0.73 0.592 C 0.73 0.587 0.727 0.579 0.725 0.578 C 0.723 0.577 0.723 0.578 0.724 0.583 Z  M 0.282 0.615 C 0.286 0.618 0.292 0.622 0.295 0.624 C 0.297 0.626 0.301 0.629 0.304 0.631 C 0.306 0.633 0.308 0.636 0.308 0.638 C 0.308 0.641 0.307 0.642 0.306 0.641 C 0.303 0.638 0.267 0.635 0.263 0.637 C 0.255 0.642 0.254 0.637 0.26 0.627 C 0.265 0.618 0.267 0.61 0.262 0.617 C 0.26 0.62 0.254 0.622 0.253 0.619 C 0.251 0.603 0.262 0.601 0.282 0.615 Z  M 0.834 0.615 C 0.831 0.619 0.821 0.625 0.82 0.623 C 0.818 0.62 0.819 0.615 0.822 0.614 C 0.828 0.611 0.836 0.612 0.834 0.615 Z  M 0.332 0.694 C 0.333 0.702 0.335 0.715 0.336 0.724 C 0.341 0.749 0.339 0.77 0.331 0.77 C 0.327 0.77 0.327 0.765 0.329 0.75 C 0.331 0.739 0.331 0.734 0.329 0.715 C 0.326 0.686 0.326 0.681 0.329 0.681 C 0.33 0.681 0.331 0.686 0.332 0.694 Z  M 0.256 0.702 C 0.256 0.707 0.253 0.711 0.253 0.706 C 0.253 0.703 0.253 0.703 0.252 0.705 C 0.252 0.707 0.25 0.708 0.249 0.707 C 0.248 0.706 0.247 0.707 0.247 0.709 C 0.247 0.711 0.246 0.712 0.246 0.711 C 0.245 0.709 0.241 0.716 0.231 0.732 C 0.227 0.738 0.227 0.739 0.227 0.733 C 0.227 0.73 0.227 0.729 0.228 0.729 C 0.228 0.73 0.23 0.727 0.231 0.722 C 0.233 0.717 0.235 0.713 0.237 0.712 C 0.239 0.712 0.241 0.71 0.241 0.709 C 0.241 0.707 0.242 0.706 0.243 0.706 C 0.245 0.706 0.248 0.704 0.249 0.702 C 0.253 0.697 0.256 0.697 0.256 0.702 Z  M 0.345 0.761 L 0.34 0.769 L 0.341 0.759 C 0.342 0.748 0.346 0.743 0.347 0.75 C 0.348 0.753 0.348 0.756 0.345 0.761 Z  M 0.244 0.756 C 0.244 0.758 0.242 0.759 0.239 0.759 C 0.236 0.759 0.236 0.758 0.237 0.756 C 0.241 0.753 0.244 0.753 0.244 0.756 Z  M 0.286 0.834 C 0.285 0.834 0.285 0.836 0.285 0.837 C 0.287 0.841 0.282 0.84 0.28 0.836 C 0.277 0.829 0.279 0.825 0.284 0.829 C 0.286 0.831 0.287 0.833 0.286 0.834 Z  M 0.358 0.844 C 0.358 0.846 0.359 0.848 0.36 0.848 C 0.361 0.848 0.361 0.849 0.361 0.85 C 0.36 0.851 0.358 0.85 0.356 0.847 C 0.355 0.845 0.354 0.842 0.354 0.841 C 0.356 0.838 0.358 0.839 0.358 0.844 Z  M 0.453 0.844 C 0.451 0.848 0.45 0.848 0.451 0.845 C 0.452 0.842 0.451 0.842 0.449 0.846 C 0.447 0.849 0.445 0.851 0.444 0.851 C 0.443 0.851 0.442 0.852 0.442 0.854 C 0.442 0.855 0.44 0.856 0.438 0.855 C 0.434 0.854 0.433 0.855 0.433 0.857 C 0.434 0.859 0.436 0.861 0.438 0.861 C 0.44 0.862 0.442 0.864 0.442 0.865 C 0.442 0.867 0.443 0.866 0.445 0.863 C 0.446 0.859 0.447 0.858 0.449 0.861 C 0.45 0.864 0.451 0.864 0.453 0.86 C 0.455 0.857 0.456 0.857 0.456 0.86 C 0.456 0.866 0.458 0.881 0.46 0.881 C 0.463 0.881 0.463 0.872 0.461 0.865 C 0.459 0.861 0.458 0.853 0.458 0.848 C 0.457 0.838 0.457 0.838 0.453 0.844 Z  M 0.307 0.846 C 0.308 0.845 0.308 0.846 0.307 0.847 C 0.307 0.849 0.304 0.85 0.301 0.849 C 0.297 0.848 0.295 0.849 0.295 0.852 C 0.294 0.855 0.293 0.856 0.292 0.855 C 0.291 0.854 0.289 0.855 0.286 0.857 C 0.282 0.861 0.277 0.86 0.277 0.855 C 0.277 0.849 0.282 0.846 0.293 0.846 C 0.299 0.847 0.303 0.845 0.303 0.844 C 0.303 0.842 0.304 0.843 0.304 0.845 C 0.305 0.846 0.306 0.847 0.307 0.846 Z  M 0.409 0.85 C 0.409 0.851 0.409 0.854 0.409 0.856 C 0.409 0.858 0.409 0.861 0.409 0.864 C 0.409 0.868 0.41 0.868 0.412 0.862 C 0.414 0.856 0.414 0.855 0.412 0.852 C 0.411 0.849 0.41 0.848 0.409 0.85 Z  M 0.364 0.91 C 0.364 0.909 0.365 0.911 0.366 0.915 C 0.368 0.922 0.365 0.928 0.362 0.922 C 0.358 0.916 0.358 0.906 0.361 0.909 C 0.363 0.911 0.364 0.911 0.364 0.91 Z  M 0.298 0.953 C 0.3 0.957 0.301 0.957 0.302 0.953 C 0.304 0.948 0.303 0.951 0.301 0.962 C 0.298 0.981 0.293 0.979 0.293 0.957 C 0.294 0.946 0.294 0.946 0.298 0.953 Z " fill-rule="evenodd" fill="rgb(0,0,0)"/></g></g></svg>