<?xml version="1.0" encoding="UTF-8" standalone="no"?><!-- Generator: Gravit.io --><svg xmlns="http://www.w3.org/2000/svg" xmlns:xlink="http://www.w3.org/1999/xlink" style="isolation:isolate" viewBox="0 0 1 1" width="1pt" height="1pt"><defs><clipPath id="_clipPath_hGpoW1OEbso7NHaDz91Y8GTTjBLgUGmq"><rect width="1" height="1"/></clipPath></defs><g clip-path="url(#_clipPath_hGpoW1OEbso7NHaDz91Y8GTTjBLgUGmq)"><g><path d=" M 0 0.004 C 0 0.006 0 0.231 0 0.503 L 0.001 0.999 L 0.186 1 C 0.352 1 0.371 1 0.375 0.996 C 0.377 0.993 0.38 0.992 0.384 0.993 C 0.393 0.995 0.393 0.98 0.385 0.97 C 0.375 0.958 0.374 0.937 0.385 0.937 C 0.393 0.937 0.397 0.93 0.393 0.923 C 0.39 0.92 0.39 0.917 0.39 0.912 C 0.391 0.907 0.39 0.906 0.388 0.906 C 0.386 0.906 0.384 0.904 0.384 0.902 C 0.383 0.9 0.381 0.897 0.38 0.896 C 0.378 0.895 0.377 0.892 0.377 0.89 C 0.377 0.883 0.374 0.88 0.371 0.884 C 0.369 0.887 0.366 0.883 0.366 0.877 C 0.366 0.876 0.367 0.876 0.367 0.879 C 0.368 0.882 0.37 0.883 0.371 0.882 C 0.371 0.882 0.372 0.879 0.371 0.878 C 0.37 0.874 0.373 0.877 0.377 0.883 C 0.378 0.886 0.381 0.887 0.382 0.886 C 0.383 0.885 0.385 0.886 0.385 0.888 C 0.385 0.89 0.386 0.889 0.386 0.886 C 0.386 0.884 0.385 0.881 0.384 0.88 C 0.382 0.879 0.382 0.877 0.382 0.876 C 0.383 0.874 0.382 0.871 0.381 0.868 C 0.379 0.863 0.378 0.855 0.38 0.857 C 0.38 0.858 0.383 0.857 0.386 0.856 C 0.39 0.853 0.391 0.853 0.393 0.857 C 0.395 0.859 0.399 0.862 0.402 0.863 L 0.408 0.865 L 0.404 0.87 C 0.402 0.873 0.399 0.875 0.398 0.874 C 0.397 0.873 0.397 0.873 0.398 0.875 C 0.398 0.877 0.398 0.879 0.396 0.88 C 0.395 0.881 0.394 0.883 0.393 0.885 C 0.393 0.888 0.395 0.887 0.399 0.884 C 0.402 0.881 0.405 0.877 0.405 0.875 C 0.405 0.874 0.406 0.873 0.408 0.873 C 0.41 0.874 0.412 0.873 0.412 0.87 C 0.413 0.868 0.412 0.867 0.411 0.869 C 0.41 0.87 0.41 0.868 0.412 0.865 C 0.417 0.858 0.418 0.851 0.414 0.853 C 0.411 0.854 0.411 0.853 0.412 0.85 C 0.413 0.848 0.414 0.844 0.414 0.842 C 0.414 0.839 0.415 0.837 0.416 0.837 C 0.417 0.837 0.417 0.838 0.417 0.839 C 0.417 0.848 0.422 0.844 0.423 0.834 C 0.424 0.821 0.428 0.821 0.428 0.834 C 0.428 0.838 0.429 0.843 0.43 0.844 C 0.431 0.845 0.431 0.844 0.431 0.842 C 0.431 0.834 0.439 0.823 0.443 0.825 C 0.445 0.827 0.45 0.827 0.454 0.826 C 0.458 0.826 0.463 0.825 0.465 0.825 C 0.467 0.825 0.469 0.823 0.469 0.822 C 0.471 0.817 0.494 0.816 0.494 0.821 C 0.494 0.824 0.493 0.826 0.491 0.826 C 0.489 0.826 0.487 0.827 0.487 0.829 C 0.486 0.83 0.485 0.831 0.484 0.83 C 0.481 0.828 0.477 0.834 0.477 0.84 C 0.477 0.843 0.476 0.845 0.475 0.844 C 0.474 0.843 0.474 0.844 0.474 0.845 C 0.474 0.847 0.473 0.847 0.472 0.844 C 0.47 0.841 0.469 0.84 0.467 0.841 C 0.464 0.843 0.463 0.851 0.466 0.856 C 0.468 0.858 0.467 0.859 0.465 0.859 C 0.464 0.859 0.463 0.861 0.463 0.863 C 0.463 0.865 0.464 0.867 0.465 0.867 C 0.466 0.867 0.466 0.868 0.465 0.869 C 0.464 0.871 0.458 0.865 0.458 0.861 C 0.459 0.847 0.458 0.842 0.455 0.846 C 0.452 0.849 0.451 0.849 0.45 0.845 C 0.449 0.843 0.449 0.843 0.448 0.845 C 0.447 0.846 0.447 0.848 0.448 0.848 C 0.449 0.848 0.447 0.85 0.445 0.852 C 0.442 0.854 0.441 0.856 0.442 0.856 C 0.443 0.856 0.443 0.858 0.443 0.861 C 0.442 0.865 0.441 0.864 0.439 0.859 C 0.436 0.851 0.432 0.855 0.434 0.864 C 0.434 0.867 0.435 0.868 0.436 0.865 C 0.438 0.86 0.441 0.866 0.44 0.873 C 0.439 0.876 0.44 0.878 0.441 0.878 C 0.442 0.878 0.443 0.873 0.443 0.867 C 0.442 0.863 0.446 0.864 0.448 0.868 C 0.45 0.87 0.451 0.87 0.452 0.868 C 0.453 0.866 0.454 0.865 0.455 0.865 C 0.457 0.865 0.455 0.89 0.453 0.896 C 0.451 0.901 0.451 0.913 0.451 0.951 L 0.451 0.999 L 0.725 0.999 L 1 0.999 L 1 0.501 L 1 0.002 L 0.769 0.002 C 0.565 0.002 0.538 0.002 0.536 0.006 C 0.535 0.009 0.535 0.01 0.536 0.011 C 0.537 0.012 0.537 0.013 0.537 0.015 C 0.536 0.017 0.536 0.017 0.537 0.016 C 0.538 0.015 0.539 0.012 0.538 0.01 C 0.538 0.007 0.539 0.006 0.543 0.006 C 0.55 0.007 0.55 0.007 0.544 0.014 C 0.539 0.019 0.539 0.02 0.543 0.019 C 0.548 0.018 0.555 0.014 0.555 0.012 C 0.555 0.011 0.557 0.01 0.56 0.009 C 0.564 0.009 0.566 0.01 0.566 0.012 C 0.566 0.014 0.567 0.014 0.568 0.011 C 0.57 0.009 0.571 0.009 0.572 0.01 C 0.572 0.011 0.572 0.013 0.571 0.015 C 0.569 0.017 0.569 0.017 0.571 0.016 C 0.573 0.015 0.575 0.014 0.576 0.014 C 0.577 0.014 0.577 0.013 0.575 0.011 C 0.573 0.009 0.574 0.009 0.577 0.009 C 0.58 0.01 0.582 0.01 0.582 0.009 C 0.582 0.005 0.587 0.007 0.589 0.011 C 0.591 0.014 0.592 0.017 0.591 0.019 C 0.59 0.021 0.589 0.023 0.59 0.024 C 0.59 0.032 0.589 0.035 0.588 0.031 C 0.586 0.028 0.586 0.028 0.587 0.033 C 0.587 0.036 0.587 0.04 0.586 0.041 C 0.585 0.042 0.586 0.044 0.587 0.046 C 0.591 0.051 0.595 0.052 0.593 0.047 C 0.592 0.045 0.593 0.045 0.594 0.046 C 0.595 0.047 0.595 0.049 0.594 0.053 C 0.593 0.056 0.593 0.06 0.593 0.062 C 0.594 0.064 0.594 0.064 0.593 0.063 C 0.592 0.062 0.59 0.067 0.588 0.077 C 0.587 0.083 0.584 0.086 0.582 0.083 C 0.579 0.079 0.576 0.083 0.572 0.095 C 0.569 0.105 0.564 0.11 0.564 0.104 C 0.564 0.102 0.563 0.098 0.561 0.095 C 0.56 0.091 0.558 0.087 0.558 0.085 C 0.558 0.083 0.557 0.081 0.556 0.081 C 0.554 0.081 0.553 0.082 0.553 0.083 C 0.553 0.084 0.552 0.085 0.549 0.085 C 0.545 0.085 0.544 0.082 0.542 0.072 C 0.54 0.064 0.535 0.064 0.53 0.073 C 0.524 0.084 0.524 0.085 0.517 0.096 C 0.514 0.101 0.511 0.107 0.51 0.11 C 0.506 0.123 0.488 0.117 0.488 0.103 C 0.488 0.097 0.484 0.096 0.48 0.101 C 0.477 0.104 0.476 0.104 0.474 0.1 C 0.473 0.096 0.472 0.096 0.471 0.097 C 0.47 0.102 0.465 0.101 0.464 0.096 C 0.463 0.094 0.462 0.093 0.46 0.094 C 0.458 0.095 0.455 0.094 0.454 0.092 C 0.452 0.089 0.45 0.089 0.442 0.092 C 0.437 0.094 0.432 0.094 0.432 0.094 C 0.431 0.093 0.429 0.095 0.427 0.098 C 0.424 0.104 0.419 0.105 0.414 0.099 C 0.411 0.095 0.411 0.095 0.409 0.099 C 0.407 0.103 0.407 0.103 0.405 0.099 C 0.404 0.097 0.402 0.095 0.4 0.095 C 0.399 0.095 0.396 0.092 0.394 0.089 C 0.39 0.083 0.385 0.087 0.387 0.096 C 0.388 0.106 0.382 0.115 0.379 0.106 C 0.377 0.1 0.373 0.103 0.374 0.111 C 0.374 0.117 0.374 0.12 0.372 0.122 C 0.37 0.124 0.369 0.125 0.369 0.123 C 0.369 0.114 0.346 0.129 0.339 0.142 C 0.333 0.153 0.327 0.157 0.323 0.153 C 0.321 0.151 0.32 0.151 0.319 0.153 C 0.318 0.155 0.315 0.157 0.311 0.158 C 0.307 0.159 0.303 0.161 0.302 0.163 C 0.301 0.165 0.299 0.167 0.298 0.167 C 0.297 0.167 0.295 0.168 0.295 0.17 C 0.293 0.174 0.288 0.173 0.284 0.167 C 0.28 0.161 0.279 0.161 0.274 0.166 C 0.27 0.169 0.268 0.169 0.266 0.167 C 0.261 0.163 0.26 0.164 0.261 0.171 C 0.262 0.176 0.261 0.177 0.26 0.176 C 0.258 0.175 0.258 0.176 0.259 0.179 C 0.259 0.182 0.259 0.184 0.257 0.184 C 0.254 0.184 0.255 0.18 0.258 0.155 C 0.26 0.144 0.261 0.141 0.263 0.141 C 0.264 0.141 0.267 0.138 0.268 0.134 C 0.269 0.129 0.271 0.126 0.274 0.126 C 0.276 0.125 0.278 0.123 0.279 0.119 C 0.279 0.115 0.282 0.107 0.285 0.1 C 0.293 0.08 0.298 0.059 0.297 0.05 C 0.295 0.04 0.297 0.032 0.302 0.023 C 0.304 0.018 0.305 0.013 0.305 0.008 L 0.305 0 L 0.153 0 C 0.033 0 0.001 0.001 0 0.004 Z  M 0.316 0.004 C 0.316 0.011 0.322 0.029 0.324 0.025 C 0.324 0.023 0.325 0.023 0.326 0.024 C 0.328 0.026 0.329 0.012 0.327 0.005 C 0.326 -0.001 0.316 -0.001 0.316 0.004 Z  M 0.333 0.003 C 0.333 0.004 0.334 0.009 0.336 0.013 C 0.34 0.02 0.341 0.02 0.341 0.012 C 0.341 0.005 0.345 0.005 0.349 0.012 C 0.353 0.02 0.361 0.014 0.359 0.005 C 0.358 0 0.333 -0.002 0.333 0.003 Z  M 0.599 0.088 C 0.602 0.087 0.602 0.087 0.599 0.092 C 0.595 0.099 0.591 0.099 0.591 0.093 C 0.591 0.089 0.591 0.089 0.589 0.092 C 0.588 0.096 0.588 0.096 0.588 0.091 C 0.588 0.089 0.589 0.087 0.59 0.087 C 0.591 0.087 0.593 0.089 0.594 0.091 C 0.596 0.095 0.596 0.095 0.595 0.089 C 0.594 0.085 0.594 0.084 0.595 0.085 C 0.596 0.087 0.598 0.088 0.599 0.088 Z  M 0.629 0.113 C 0.629 0.117 0.622 0.122 0.619 0.121 C 0.615 0.119 0.615 0.112 0.62 0.109 C 0.625 0.106 0.629 0.108 0.629 0.113 Z  M 0.427 0.128 C 0.43 0.132 0.428 0.136 0.424 0.133 C 0.422 0.132 0.421 0.13 0.421 0.128 C 0.422 0.125 0.424 0.125 0.427 0.128 Z  M 0.626 0.133 C 0.627 0.135 0.626 0.137 0.625 0.139 C 0.623 0.141 0.622 0.141 0.621 0.139 C 0.621 0.138 0.621 0.137 0.622 0.137 C 0.625 0.138 0.626 0.136 0.624 0.134 C 0.622 0.132 0.622 0.131 0.623 0.131 C 0.624 0.131 0.626 0.132 0.626 0.133 Z  M 0.381 0.139 C 0.381 0.141 0.379 0.144 0.376 0.147 C 0.373 0.149 0.37 0.152 0.37 0.154 C 0.37 0.157 0.354 0.187 0.353 0.187 C 0.352 0.187 0.352 0.185 0.352 0.182 C 0.352 0.18 0.353 0.178 0.354 0.178 C 0.355 0.178 0.357 0.174 0.359 0.168 C 0.36 0.163 0.362 0.159 0.363 0.159 C 0.364 0.159 0.364 0.157 0.364 0.155 C 0.364 0.153 0.366 0.149 0.369 0.146 C 0.371 0.143 0.374 0.14 0.374 0.139 C 0.374 0.136 0.379 0.136 0.381 0.139 Z  M 0.584 0.143 C 0.583 0.147 0.582 0.147 0.581 0.144 C 0.581 0.142 0.581 0.14 0.582 0.139 C 0.584 0.136 0.585 0.138 0.584 0.143 Z  M 0.594 0.149 C 0.595 0.147 0.595 0.146 0.594 0.145 C 0.592 0.143 0.592 0.142 0.594 0.142 C 0.597 0.142 0.597 0.147 0.595 0.151 C 0.593 0.154 0.592 0.154 0.59 0.149 C 0.589 0.146 0.588 0.145 0.588 0.147 C 0.588 0.149 0.587 0.15 0.586 0.15 C 0.585 0.15 0.585 0.149 0.586 0.147 C 0.587 0.145 0.588 0.142 0.587 0.142 C 0.587 0.141 0.588 0.143 0.59 0.146 C 0.591 0.149 0.593 0.15 0.594 0.149 Z  M 0.23 0.162 C 0.23 0.165 0.229 0.167 0.229 0.166 C 0.228 0.165 0.228 0.162 0.229 0.159 C 0.229 0.155 0.23 0.153 0.231 0.154 C 0.231 0.155 0.231 0.158 0.23 0.162 Z  M 0.175 0.162 C 0.175 0.164 0.175 0.169 0.176 0.173 C 0.176 0.176 0.176 0.183 0.176 0.187 C 0.176 0.191 0.178 0.197 0.179 0.2 C 0.183 0.206 0.185 0.215 0.182 0.212 C 0.181 0.212 0.18 0.21 0.18 0.209 C 0.18 0.207 0.177 0.202 0.174 0.196 C 0.167 0.181 0.166 0.159 0.173 0.159 C 0.174 0.159 0.175 0.16 0.175 0.162 Z  M 0.197 0.176 C 0.198 0.183 0.198 0.184 0.194 0.184 C 0.191 0.184 0.189 0.179 0.192 0.174 C 0.192 0.173 0.193 0.171 0.193 0.17 C 0.194 0.164 0.194 0.163 0.195 0.166 C 0.196 0.167 0.197 0.172 0.197 0.176 Z  M 0.324 0.173 C 0.335 0.183 0.335 0.184 0.33 0.191 C 0.328 0.195 0.324 0.198 0.322 0.198 C 0.321 0.198 0.319 0.199 0.318 0.2 C 0.317 0.202 0.315 0.203 0.313 0.203 C 0.308 0.203 0.307 0.189 0.311 0.185 C 0.312 0.184 0.313 0.18 0.313 0.175 C 0.313 0.165 0.315 0.165 0.324 0.173 Z  M 0.238 0.172 C 0.239 0.172 0.24 0.174 0.24 0.176 C 0.239 0.178 0.234 0.176 0.234 0.172 C 0.234 0.169 0.235 0.169 0.238 0.172 Z  M 0.269 0.182 C 0.27 0.185 0.271 0.19 0.271 0.195 C 0.271 0.202 0.271 0.202 0.273 0.2 C 0.274 0.198 0.275 0.195 0.274 0.194 C 0.274 0.193 0.275 0.191 0.277 0.191 C 0.278 0.19 0.28 0.191 0.28 0.192 C 0.28 0.193 0.282 0.194 0.286 0.194 C 0.289 0.194 0.292 0.196 0.292 0.197 C 0.292 0.199 0.293 0.2 0.294 0.199 C 0.295 0.198 0.295 0.201 0.295 0.206 C 0.295 0.213 0.295 0.214 0.288 0.216 C 0.284 0.217 0.279 0.219 0.277 0.221 C 0.276 0.222 0.273 0.224 0.272 0.224 C 0.271 0.225 0.269 0.227 0.267 0.229 C 0.266 0.231 0.263 0.234 0.26 0.235 C 0.258 0.236 0.255 0.239 0.253 0.242 C 0.252 0.245 0.251 0.248 0.25 0.248 C 0.249 0.248 0.247 0.25 0.245 0.252 C 0.243 0.255 0.242 0.256 0.242 0.253 C 0.242 0.251 0.241 0.251 0.24 0.251 C 0.238 0.252 0.237 0.251 0.237 0.249 C 0.237 0.246 0.237 0.245 0.236 0.246 C 0.234 0.247 0.235 0.246 0.236 0.244 C 0.239 0.24 0.244 0.216 0.242 0.219 C 0.24 0.221 0.238 0.211 0.239 0.2 C 0.24 0.184 0.244 0.184 0.246 0.201 C 0.246 0.202 0.247 0.204 0.247 0.204 C 0.247 0.204 0.247 0.208 0.248 0.213 C 0.248 0.217 0.249 0.222 0.25 0.224 C 0.252 0.226 0.252 0.226 0.251 0.223 C 0.25 0.219 0.25 0.219 0.252 0.222 C 0.253 0.224 0.255 0.225 0.255 0.223 C 0.256 0.221 0.256 0.22 0.255 0.219 C 0.254 0.218 0.254 0.214 0.255 0.21 C 0.255 0.207 0.256 0.203 0.255 0.202 C 0.254 0.2 0.255 0.201 0.257 0.203 C 0.259 0.206 0.26 0.206 0.263 0.203 C 0.267 0.199 0.268 0.195 0.266 0.195 C 0.265 0.195 0.264 0.191 0.264 0.187 C 0.265 0.177 0.266 0.176 0.269 0.182 Z  M 0.233 0.209 C 0.233 0.21 0.232 0.212 0.23 0.213 C 0.229 0.214 0.228 0.217 0.228 0.219 C 0.228 0.221 0.227 0.223 0.226 0.223 C 0.226 0.223 0.226 0.219 0.228 0.214 C 0.23 0.206 0.233 0.203 0.233 0.209 Z  M 0.242 0.242 C 0.242 0.245 0.243 0.248 0.244 0.248 C 0.246 0.248 0.245 0.238 0.243 0.237 C 0.242 0.237 0.241 0.239 0.242 0.242 Z  M 0.231 0.253 C 0.233 0.256 0.233 0.257 0.232 0.258 C 0.231 0.259 0.23 0.261 0.23 0.263 C 0.23 0.266 0.215 0.279 0.213 0.277 C 0.212 0.276 0.21 0.279 0.208 0.282 C 0.204 0.288 0.193 0.299 0.192 0.297 C 0.191 0.297 0.189 0.298 0.187 0.301 C 0.185 0.303 0.18 0.307 0.176 0.309 C 0.167 0.314 0.146 0.354 0.141 0.375 C 0.14 0.382 0.138 0.39 0.138 0.392 C 0.133 0.415 0.136 0.451 0.144 0.466 C 0.153 0.483 0.151 0.496 0.14 0.495 C 0.136 0.494 0.133 0.493 0.134 0.492 C 0.134 0.491 0.133 0.489 0.132 0.487 C 0.129 0.483 0.123 0.481 0.122 0.484 C 0.12 0.491 0.115 0.492 0.114 0.486 C 0.113 0.483 0.111 0.476 0.109 0.471 C 0.106 0.463 0.1 0.44 0.1 0.437 C 0.1 0.436 0.098 0.431 0.096 0.427 C 0.092 0.417 0.093 0.411 0.1 0.406 C 0.103 0.404 0.108 0.399 0.112 0.394 C 0.118 0.387 0.119 0.387 0.124 0.39 C 0.13 0.394 0.133 0.391 0.133 0.382 C 0.134 0.379 0.134 0.375 0.135 0.372 C 0.136 0.369 0.136 0.366 0.135 0.365 C 0.135 0.364 0.136 0.359 0.137 0.354 C 0.139 0.348 0.14 0.343 0.14 0.342 C 0.139 0.34 0.139 0.339 0.14 0.339 C 0.141 0.339 0.142 0.337 0.142 0.334 C 0.142 0.329 0.148 0.306 0.149 0.306 C 0.15 0.306 0.15 0.307 0.149 0.308 C 0.148 0.313 0.151 0.319 0.153 0.314 C 0.154 0.312 0.156 0.31 0.156 0.31 C 0.157 0.31 0.159 0.307 0.161 0.304 C 0.163 0.3 0.164 0.298 0.163 0.298 C 0.163 0.298 0.164 0.295 0.166 0.292 C 0.17 0.286 0.172 0.285 0.171 0.29 C 0.17 0.292 0.171 0.291 0.173 0.288 C 0.175 0.285 0.177 0.283 0.18 0.283 C 0.183 0.284 0.183 0.283 0.181 0.281 C 0.179 0.278 0.179 0.278 0.182 0.279 C 0.186 0.282 0.189 0.279 0.188 0.272 C 0.187 0.266 0.188 0.267 0.191 0.274 C 0.194 0.279 0.195 0.281 0.195 0.279 C 0.193 0.273 0.195 0.264 0.198 0.267 C 0.199 0.269 0.201 0.269 0.206 0.267 C 0.212 0.264 0.215 0.266 0.213 0.27 C 0.213 0.272 0.213 0.273 0.213 0.273 C 0.214 0.273 0.223 0.258 0.223 0.255 C 0.223 0.254 0.223 0.253 0.223 0.252 C 0.224 0.249 0.229 0.25 0.231 0.253 Z  M 0.154 0.296 C 0.153 0.299 0.152 0.3 0.151 0.299 C 0.151 0.298 0.15 0.299 0.15 0.301 C 0.15 0.303 0.149 0.303 0.149 0.302 C 0.148 0.301 0.149 0.298 0.151 0.295 C 0.154 0.289 0.155 0.29 0.154 0.296 Z  M 0.149 0.33 C 0.146 0.338 0.148 0.344 0.151 0.337 C 0.152 0.335 0.153 0.331 0.153 0.329 C 0.153 0.324 0.15 0.325 0.149 0.33 Z  M 0.799 0.351 C 0.798 0.354 0.797 0.357 0.795 0.358 C 0.784 0.362 0.783 0.362 0.784 0.358 C 0.784 0.356 0.788 0.35 0.791 0.345 C 0.799 0.335 0.8 0.336 0.799 0.351 Z  M 0.744 0.353 C 0.744 0.356 0.744 0.359 0.743 0.359 C 0.741 0.359 0.739 0.354 0.74 0.35 C 0.742 0.346 0.744 0.347 0.744 0.353 Z  M 0.752 0.364 C 0.752 0.371 0.748 0.376 0.745 0.371 C 0.742 0.366 0.742 0.364 0.744 0.359 C 0.746 0.356 0.752 0.36 0.752 0.364 Z  M 0.78 0.369 C 0.78 0.374 0.78 0.378 0.781 0.378 C 0.785 0.377 0.786 0.379 0.787 0.385 C 0.787 0.389 0.787 0.392 0.786 0.392 C 0.784 0.392 0.784 0.404 0.786 0.405 C 0.787 0.406 0.788 0.409 0.787 0.413 C 0.787 0.416 0.786 0.421 0.786 0.423 C 0.786 0.426 0.786 0.428 0.785 0.427 C 0.784 0.426 0.783 0.429 0.781 0.432 C 0.78 0.436 0.779 0.439 0.78 0.439 C 0.781 0.439 0.782 0.438 0.782 0.437 C 0.782 0.436 0.784 0.435 0.786 0.436 C 0.789 0.437 0.791 0.438 0.79 0.44 C 0.79 0.441 0.79 0.443 0.791 0.444 C 0.792 0.445 0.793 0.447 0.792 0.449 C 0.792 0.451 0.793 0.452 0.794 0.452 C 0.801 0.453 0.803 0.455 0.803 0.457 C 0.802 0.458 0.803 0.459 0.804 0.459 C 0.806 0.459 0.806 0.477 0.803 0.481 C 0.802 0.483 0.801 0.484 0.801 0.482 C 0.801 0.481 0.8 0.481 0.8 0.482 C 0.799 0.483 0.8 0.487 0.801 0.491 C 0.805 0.501 0.814 0.499 0.819 0.486 C 0.823 0.48 0.827 0.476 0.842 0.469 C 0.852 0.463 0.863 0.458 0.866 0.456 C 0.872 0.452 0.873 0.453 0.872 0.461 C 0.871 0.466 0.856 0.481 0.852 0.481 C 0.85 0.481 0.85 0.482 0.852 0.488 C 0.852 0.49 0.854 0.494 0.856 0.495 C 0.858 0.497 0.859 0.497 0.858 0.495 C 0.857 0.493 0.858 0.492 0.86 0.492 C 0.875 0.491 0.881 0.493 0.879 0.499 C 0.877 0.502 0.877 0.503 0.879 0.503 C 0.88 0.503 0.883 0.506 0.885 0.51 C 0.888 0.514 0.891 0.516 0.892 0.516 C 0.894 0.513 0.901 0.517 0.901 0.52 C 0.901 0.523 0.88 0.543 0.874 0.546 C 0.872 0.547 0.87 0.545 0.867 0.541 C 0.863 0.534 0.853 0.533 0.839 0.539 C 0.835 0.541 0.83 0.542 0.828 0.541 C 0.827 0.54 0.824 0.54 0.823 0.542 C 0.822 0.544 0.819 0.545 0.817 0.544 C 0.814 0.542 0.813 0.543 0.813 0.548 C 0.813 0.555 0.81 0.558 0.808 0.552 C 0.806 0.547 0.805 0.547 0.802 0.55 C 0.799 0.552 0.796 0.553 0.794 0.552 C 0.791 0.551 0.79 0.552 0.79 0.553 C 0.79 0.555 0.788 0.556 0.787 0.556 C 0.785 0.555 0.784 0.557 0.784 0.563 C 0.783 0.579 0.782 0.583 0.778 0.585 C 0.776 0.586 0.774 0.585 0.773 0.584 C 0.772 0.582 0.77 0.584 0.767 0.591 C 0.764 0.596 0.761 0.601 0.76 0.601 C 0.758 0.601 0.756 0.603 0.754 0.606 C 0.753 0.609 0.75 0.612 0.748 0.612 C 0.747 0.612 0.743 0.615 0.741 0.619 C 0.738 0.623 0.735 0.626 0.732 0.626 C 0.714 0.626 0.71 0.631 0.715 0.644 C 0.718 0.651 0.718 0.67 0.716 0.67 C 0.714 0.67 0.712 0.667 0.711 0.663 C 0.708 0.657 0.704 0.655 0.706 0.662 C 0.707 0.665 0.704 0.668 0.697 0.673 C 0.693 0.675 0.688 0.679 0.686 0.683 C 0.68 0.693 0.679 0.687 0.683 0.67 C 0.685 0.662 0.686 0.654 0.686 0.651 C 0.685 0.648 0.686 0.644 0.687 0.642 C 0.688 0.64 0.69 0.635 0.69 0.63 C 0.69 0.625 0.691 0.617 0.693 0.611 C 0.695 0.606 0.698 0.598 0.698 0.594 C 0.699 0.59 0.7 0.586 0.701 0.585 C 0.703 0.584 0.704 0.581 0.704 0.578 C 0.704 0.575 0.704 0.573 0.705 0.573 C 0.707 0.573 0.712 0.558 0.712 0.55 C 0.712 0.542 0.713 0.541 0.717 0.539 C 0.72 0.538 0.723 0.537 0.724 0.536 C 0.725 0.534 0.725 0.535 0.725 0.536 C 0.725 0.538 0.725 0.539 0.724 0.539 C 0.723 0.539 0.723 0.542 0.725 0.546 C 0.727 0.549 0.729 0.555 0.729 0.558 C 0.73 0.562 0.731 0.564 0.733 0.563 C 0.734 0.562 0.735 0.563 0.735 0.566 C 0.735 0.569 0.734 0.57 0.733 0.569 C 0.729 0.567 0.729 0.574 0.733 0.58 C 0.735 0.584 0.738 0.585 0.738 0.581 C 0.738 0.58 0.739 0.578 0.741 0.578 C 0.742 0.578 0.743 0.577 0.742 0.574 C 0.741 0.567 0.749 0.537 0.752 0.536 C 0.754 0.535 0.755 0.532 0.755 0.527 C 0.755 0.519 0.759 0.509 0.763 0.509 C 0.764 0.509 0.765 0.508 0.765 0.507 C 0.765 0.504 0.755 0.506 0.751 0.509 C 0.749 0.511 0.746 0.512 0.744 0.511 C 0.74 0.509 0.74 0.509 0.743 0.513 C 0.745 0.515 0.747 0.517 0.748 0.517 C 0.748 0.517 0.749 0.52 0.749 0.524 C 0.75 0.528 0.749 0.53 0.748 0.529 C 0.747 0.529 0.746 0.526 0.746 0.523 C 0.747 0.52 0.746 0.519 0.742 0.519 C 0.738 0.52 0.738 0.519 0.738 0.515 C 0.739 0.508 0.737 0.504 0.735 0.509 C 0.734 0.511 0.733 0.512 0.733 0.511 C 0.733 0.51 0.732 0.51 0.73 0.512 C 0.728 0.513 0.727 0.516 0.728 0.517 C 0.728 0.519 0.73 0.519 0.731 0.518 C 0.732 0.517 0.732 0.518 0.731 0.521 C 0.731 0.523 0.731 0.526 0.732 0.526 C 0.733 0.527 0.733 0.529 0.733 0.531 C 0.732 0.533 0.73 0.532 0.726 0.529 C 0.723 0.526 0.718 0.524 0.716 0.524 C 0.715 0.524 0.713 0.523 0.713 0.521 C 0.713 0.517 0.717 0.509 0.72 0.509 C 0.721 0.509 0.72 0.507 0.719 0.506 C 0.716 0.503 0.718 0.492 0.721 0.492 C 0.724 0.492 0.741 0.471 0.743 0.464 C 0.748 0.45 0.751 0.427 0.751 0.405 C 0.751 0.391 0.752 0.385 0.752 0.388 C 0.753 0.39 0.753 0.393 0.753 0.395 C 0.752 0.396 0.753 0.398 0.754 0.399 C 0.755 0.4 0.755 0.4 0.755 0.399 C 0.754 0.397 0.757 0.394 0.76 0.391 C 0.764 0.388 0.768 0.381 0.771 0.376 C 0.774 0.368 0.781 0.364 0.78 0.369 Z  M 0.82 0.392 C 0.818 0.399 0.811 0.405 0.809 0.4 C 0.809 0.397 0.808 0.397 0.807 0.4 C 0.805 0.402 0.805 0.403 0.806 0.402 C 0.81 0.399 0.809 0.407 0.806 0.414 C 0.804 0.417 0.802 0.419 0.802 0.418 C 0.802 0.417 0.802 0.414 0.801 0.411 C 0.801 0.409 0.802 0.404 0.804 0.402 C 0.808 0.396 0.808 0.392 0.804 0.388 C 0.801 0.383 0.802 0.382 0.808 0.38 C 0.811 0.379 0.815 0.376 0.817 0.372 C 0.821 0.365 0.824 0.38 0.82 0.392 Z  M 0.083 0.413 C 0.083 0.415 0.082 0.417 0.081 0.417 C 0.079 0.417 0.078 0.413 0.079 0.411 C 0.081 0.407 0.083 0.409 0.083 0.413 Z  M 0.073 0.42 C 0.073 0.422 0.074 0.423 0.074 0.422 C 0.078 0.421 0.079 0.424 0.079 0.431 C 0.079 0.436 0.078 0.443 0.077 0.447 C 0.075 0.452 0.075 0.457 0.076 0.464 C 0.076 0.473 0.076 0.476 0.073 0.481 C 0.072 0.484 0.07 0.488 0.07 0.489 C 0.07 0.491 0.069 0.493 0.068 0.494 C 0.063 0.5 0.059 0.512 0.058 0.521 C 0.058 0.527 0.058 0.531 0.059 0.53 C 0.061 0.527 0.062 0.539 0.06 0.542 C 0.059 0.544 0.058 0.548 0.058 0.551 C 0.058 0.554 0.057 0.556 0.055 0.556 C 0.054 0.556 0.053 0.553 0.053 0.546 C 0.053 0.54 0.052 0.532 0.051 0.53 C 0.049 0.527 0.048 0.522 0.048 0.519 C 0.048 0.514 0.048 0.514 0.047 0.517 C 0.046 0.519 0.046 0.523 0.046 0.526 C 0.047 0.529 0.046 0.532 0.044 0.534 C 0.042 0.535 0.041 0.538 0.041 0.54 C 0.042 0.542 0.042 0.542 0.041 0.541 C 0.039 0.54 0.034 0.55 0.035 0.553 C 0.037 0.556 0.035 0.558 0.034 0.556 C 0.031 0.552 0.031 0.529 0.033 0.523 C 0.034 0.52 0.035 0.508 0.035 0.495 C 0.036 0.451 0.04 0.441 0.052 0.453 C 0.058 0.459 0.06 0.459 0.061 0.449 C 0.061 0.446 0.062 0.442 0.064 0.44 C 0.065 0.438 0.065 0.434 0.065 0.432 C 0.064 0.429 0.065 0.425 0.066 0.423 C 0.069 0.418 0.073 0.416 0.073 0.42 Z  M 0.137 0.501 C 0.137 0.499 0.139 0.498 0.141 0.498 C 0.143 0.498 0.144 0.499 0.143 0.501 C 0.142 0.503 0.142 0.507 0.141 0.509 C 0.14 0.515 0.134 0.507 0.134 0.5 C 0.134 0.498 0.135 0.498 0.136 0.501 C 0.137 0.503 0.137 0.504 0.137 0.501 Z  M 0.722 0.566 C 0.721 0.567 0.721 0.57 0.721 0.573 C 0.721 0.578 0.727 0.601 0.727 0.596 C 0.727 0.595 0.728 0.597 0.729 0.6 C 0.73 0.606 0.731 0.606 0.732 0.604 C 0.733 0.598 0.731 0.585 0.726 0.579 C 0.725 0.576 0.723 0.572 0.724 0.569 C 0.724 0.564 0.724 0.563 0.722 0.566 Z  M 0.842 0.579 C 0.842 0.581 0.841 0.584 0.84 0.586 C 0.837 0.591 0.836 0.59 0.838 0.584 C 0.839 0.581 0.839 0.578 0.839 0.577 C 0.838 0.576 0.838 0.576 0.839 0.576 C 0.84 0.576 0.841 0.577 0.842 0.579 Z  M 0.261 0.612 C 0.26 0.618 0.255 0.618 0.255 0.613 C 0.255 0.611 0.256 0.609 0.258 0.609 C 0.26 0.609 0.261 0.61 0.261 0.612 Z  M 0.281 0.617 C 0.284 0.62 0.288 0.624 0.288 0.626 C 0.288 0.627 0.291 0.63 0.294 0.631 C 0.303 0.634 0.299 0.638 0.286 0.637 C 0.278 0.636 0.27 0.636 0.266 0.636 C 0.256 0.637 0.255 0.635 0.263 0.623 C 0.27 0.61 0.272 0.61 0.281 0.617 Z  M 0.332 0.701 C 0.335 0.728 0.335 0.728 0.332 0.728 C 0.329 0.728 0.326 0.704 0.326 0.687 C 0.327 0.679 0.33 0.688 0.332 0.701 Z  M 0.255 0.697 L 0.252 0.699 L 0.255 0.701 C 0.258 0.703 0.258 0.703 0.255 0.702 C 0.253 0.702 0.252 0.702 0.252 0.704 C 0.252 0.706 0.251 0.706 0.251 0.705 C 0.249 0.703 0.253 0.695 0.256 0.695 C 0.258 0.696 0.258 0.696 0.255 0.697 Z  M 0.678 0.699 C 0.678 0.702 0.678 0.703 0.677 0.703 C 0.674 0.701 0.673 0.695 0.675 0.695 C 0.676 0.695 0.677 0.697 0.678 0.699 Z  M 0.243 0.712 C 0.242 0.717 0.233 0.725 0.232 0.722 C 0.231 0.721 0.233 0.718 0.235 0.714 C 0.239 0.706 0.244 0.705 0.243 0.712 Z  M 0.337 0.736 C 0.34 0.751 0.334 0.776 0.33 0.766 C 0.328 0.762 0.328 0.76 0.33 0.756 C 0.331 0.753 0.331 0.749 0.331 0.748 C 0.329 0.745 0.332 0.731 0.334 0.731 C 0.335 0.731 0.336 0.733 0.337 0.736 Z  M 0.38 0.779 C 0.385 0.788 0.389 0.796 0.389 0.797 C 0.387 0.8 0.381 0.794 0.371 0.775 C 0.364 0.765 0.359 0.756 0.358 0.756 C 0.357 0.756 0.357 0.748 0.358 0.743 C 0.358 0.742 0.37 0.762 0.38 0.779 Z  M 0.395 0.801 C 0.395 0.803 0.396 0.804 0.396 0.803 C 0.397 0.802 0.4 0.803 0.404 0.806 C 0.408 0.809 0.411 0.811 0.412 0.81 C 0.413 0.808 0.419 0.819 0.419 0.823 C 0.419 0.83 0.415 0.828 0.397 0.81 C 0.391 0.804 0.389 0.798 0.393 0.798 C 0.394 0.798 0.395 0.799 0.395 0.801 Z  M 0.504 0.819 C 0.507 0.823 0.507 0.823 0.503 0.822 C 0.5 0.822 0.498 0.82 0.498 0.818 C 0.497 0.813 0.5 0.814 0.504 0.819 Z  M 0.285 0.835 C 0.285 0.838 0.283 0.839 0.282 0.839 C 0.279 0.839 0.279 0.839 0.282 0.838 C 0.283 0.837 0.284 0.834 0.284 0.832 C 0.284 0.829 0.285 0.828 0.285 0.829 C 0.286 0.83 0.286 0.833 0.285 0.835 Z  M 0.308 0.849 C 0.306 0.85 0.301 0.852 0.297 0.852 C 0.293 0.853 0.289 0.854 0.289 0.856 C 0.287 0.86 0.279 0.86 0.277 0.856 C 0.276 0.853 0.28 0.85 0.286 0.849 C 0.294 0.848 0.3 0.846 0.301 0.844 C 0.301 0.844 0.304 0.844 0.307 0.845 C 0.312 0.846 0.312 0.846 0.308 0.849 Z  M 0.407 0.856 C 0.407 0.857 0.407 0.859 0.408 0.86 C 0.409 0.861 0.409 0.861 0.408 0.861 C 0.407 0.86 0.405 0.858 0.405 0.855 C 0.405 0.852 0.405 0.851 0.406 0.852 C 0.407 0.853 0.408 0.855 0.407 0.856 Z  M 0.419 0.869 C 0.419 0.871 0.42 0.873 0.421 0.872 C 0.422 0.872 0.422 0.87 0.422 0.869 C 0.422 0.867 0.422 0.866 0.421 0.865 C 0.42 0.865 0.419 0.866 0.419 0.869 Z  M 0.372 0.916 C 0.372 0.916 0.374 0.917 0.375 0.919 C 0.376 0.921 0.377 0.923 0.376 0.923 C 0.37 0.926 0.367 0.923 0.369 0.915 C 0.369 0.912 0.37 0.912 0.37 0.914 C 0.37 0.916 0.371 0.917 0.372 0.916 Z " fill-rule="evenodd" fill="rgb(0,0,0)"/></g></g></svg>