<?xml version="1.0" encoding="UTF-8" standalone="no"?><!-- Generator: Gravit.io --><svg xmlns="http://www.w3.org/2000/svg" xmlns:xlink="http://www.w3.org/1999/xlink" style="isolation:isolate" viewBox="0 0 1 1" width="1pt" height="1pt"><defs><clipPath id="_clipPath_mzZ728sX8q6v6V5Se0e9LS0tPUQMrM6B"><rect width="1" height="1"/></clipPath></defs><g clip-path="url(#_clipPath_mzZ728sX8q6v6V5Se0e9LS0tPUQMrM6B)"><g><path d=" M 0 0.004 C 0 0.006 0 0.231 0 0.503 L 0.001 0.999 L 0.201 1 C 0.311 1 0.403 1 0.405 0.998 L 0.41 0.996 L 0.406 0.988 C 0.404 0.984 0.403 0.981 0.404 0.982 C 0.406 0.983 0.406 0.983 0.406 0.981 C 0.406 0.979 0.407 0.979 0.408 0.98 C 0.409 0.981 0.411 0.979 0.412 0.976 C 0.413 0.973 0.415 0.971 0.416 0.972 C 0.418 0.973 0.418 0.973 0.416 0.97 C 0.415 0.968 0.413 0.966 0.412 0.966 C 0.405 0.965 0.397 0.956 0.403 0.956 C 0.405 0.956 0.405 0.942 0.403 0.939 C 0.402 0.938 0.403 0.937 0.405 0.937 C 0.409 0.937 0.41 0.935 0.411 0.928 C 0.412 0.917 0.416 0.919 0.418 0.931 C 0.418 0.933 0.419 0.937 0.421 0.94 C 0.423 0.945 0.424 0.949 0.423 0.959 C 0.423 0.967 0.423 0.974 0.423 0.974 C 0.424 0.975 0.424 0.981 0.424 0.988 L 0.424 0.999 L 0.712 0.999 L 1 0.999 L 1 0.501 L 1 0.002 L 0.722 0.001 C 0.538 0.001 0.444 0.002 0.443 0.003 C 0.442 0.005 0.443 0.006 0.445 0.006 C 0.447 0.006 0.449 0.01 0.451 0.015 L 0.454 0.024 L 0.45 0.019 L 0.447 0.013 L 0.449 0.019 C 0.45 0.022 0.452 0.026 0.455 0.028 C 0.458 0.031 0.46 0.032 0.467 0.034 C 0.468 0.034 0.467 0.035 0.466 0.036 C 0.464 0.038 0.464 0.039 0.466 0.04 C 0.468 0.041 0.469 0.041 0.47 0.039 C 0.47 0.038 0.472 0.038 0.473 0.04 C 0.476 0.045 0.476 0.049 0.471 0.047 C 0.469 0.046 0.468 0.047 0.468 0.05 C 0.469 0.052 0.471 0.053 0.474 0.052 C 0.477 0.052 0.482 0.052 0.485 0.054 C 0.488 0.055 0.489 0.056 0.487 0.056 C 0.484 0.057 0.484 0.057 0.487 0.059 C 0.49 0.061 0.492 0.061 0.494 0.059 C 0.498 0.055 0.507 0.055 0.503 0.059 C 0.502 0.06 0.5 0.061 0.5 0.06 C 0.499 0.059 0.498 0.059 0.499 0.06 C 0.501 0.063 0.513 0.065 0.514 0.062 C 0.514 0.06 0.516 0.061 0.517 0.062 C 0.52 0.065 0.521 0.065 0.523 0.062 C 0.524 0.06 0.525 0.059 0.525 0.061 C 0.525 0.063 0.525 0.065 0.524 0.065 C 0.523 0.065 0.522 0.066 0.523 0.067 C 0.523 0.069 0.523 0.07 0.523 0.07 C 0.522 0.07 0.52 0.074 0.519 0.078 C 0.517 0.083 0.515 0.086 0.514 0.085 C 0.513 0.084 0.511 0.086 0.51 0.088 C 0.509 0.09 0.507 0.092 0.506 0.091 C 0.506 0.09 0.505 0.091 0.505 0.093 C 0.505 0.094 0.504 0.095 0.503 0.094 C 0.501 0.093 0.5 0.094 0.5 0.095 C 0.5 0.096 0.498 0.097 0.496 0.096 C 0.494 0.095 0.492 0.093 0.492 0.09 C 0.492 0.08 0.49 0.076 0.484 0.079 C 0.48 0.08 0.477 0.08 0.475 0.079 C 0.474 0.077 0.472 0.078 0.471 0.08 C 0.47 0.082 0.468 0.083 0.467 0.082 C 0.466 0.081 0.462 0.08 0.457 0.079 C 0.447 0.077 0.446 0.078 0.439 0.08 C 0.433 0.082 0.431 0.079 0.435 0.073 C 0.437 0.071 0.438 0.068 0.438 0.066 C 0.438 0.064 0.438 0.062 0.439 0.062 C 0.442 0.062 0.439 0.051 0.435 0.05 C 0.431 0.049 0.425 0.057 0.425 0.063 C 0.425 0.065 0.424 0.068 0.423 0.068 C 0.42 0.07 0.42 0.078 0.422 0.078 C 0.423 0.078 0.423 0.081 0.422 0.085 C 0.419 0.093 0.42 0.093 0.416 0.09 C 0.413 0.087 0.404 0.082 0.399 0.08 C 0.396 0.08 0.393 0.078 0.39 0.077 C 0.388 0.076 0.386 0.076 0.386 0.078 C 0.386 0.08 0.385 0.081 0.384 0.081 C 0.382 0.081 0.381 0.084 0.381 0.087 C 0.381 0.09 0.38 0.094 0.378 0.095 C 0.375 0.097 0.373 0.1 0.372 0.103 C 0.371 0.107 0.37 0.108 0.369 0.107 C 0.368 0.107 0.366 0.107 0.365 0.109 C 0.364 0.111 0.361 0.111 0.357 0.11 C 0.352 0.109 0.352 0.109 0.352 0.114 C 0.352 0.12 0.349 0.123 0.342 0.124 C 0.339 0.125 0.336 0.127 0.335 0.13 C 0.332 0.133 0.331 0.133 0.33 0.131 C 0.328 0.128 0.328 0.128 0.329 0.131 C 0.33 0.134 0.329 0.133 0.326 0.129 C 0.324 0.126 0.322 0.124 0.321 0.125 C 0.321 0.126 0.321 0.125 0.321 0.122 C 0.322 0.119 0.322 0.117 0.32 0.118 C 0.319 0.118 0.318 0.117 0.318 0.115 C 0.319 0.113 0.318 0.112 0.316 0.112 C 0.314 0.111 0.314 0.111 0.316 0.109 C 0.319 0.107 0.319 0.107 0.317 0.106 C 0.313 0.106 0.313 0.096 0.317 0.092 C 0.32 0.09 0.321 0.09 0.32 0.093 C 0.319 0.095 0.32 0.094 0.321 0.091 C 0.323 0.087 0.323 0.086 0.319 0.079 C 0.316 0.073 0.315 0.073 0.314 0.076 C 0.313 0.079 0.313 0.079 0.313 0.075 C 0.313 0.072 0.312 0.071 0.31 0.072 C 0.308 0.073 0.308 0.072 0.309 0.069 C 0.31 0.066 0.309 0.065 0.307 0.066 C 0.306 0.067 0.305 0.067 0.305 0.066 C 0.305 0.065 0.306 0.063 0.308 0.062 L 0.312 0.059 L 0.308 0.059 C 0.306 0.059 0.304 0.058 0.304 0.056 C 0.303 0.054 0.303 0.053 0.305 0.055 C 0.306 0.056 0.306 0.055 0.304 0.053 C 0.301 0.047 0.301 0.043 0.305 0.044 C 0.308 0.046 0.317 0.031 0.317 0.025 C 0.317 0.018 0.321 0.025 0.322 0.035 C 0.323 0.042 0.325 0.048 0.326 0.049 C 0.327 0.05 0.328 0.049 0.327 0.048 C 0.327 0.046 0.328 0.044 0.33 0.043 C 0.332 0.042 0.333 0.039 0.333 0.034 C 0.334 0.028 0.334 0.027 0.341 0.028 C 0.348 0.029 0.35 0.027 0.347 0.021 C 0.346 0.019 0.345 0.016 0.346 0.014 C 0.346 0.012 0.348 0.014 0.35 0.02 C 0.356 0.04 0.358 0.04 0.372 0.031 C 0.378 0.027 0.381 0.023 0.382 0.019 C 0.383 0.011 0.381 0.008 0.376 0.013 C 0.371 0.019 0.364 0.016 0.364 0.006 C 0.364 -0.001 0.002 -0.003 0 0.004 Z  M 0.394 0.047 C 0.388 0.053 0.388 0.056 0.395 0.056 C 0.398 0.056 0.401 0.055 0.402 0.051 C 0.405 0.041 0.403 0.04 0.394 0.047 Z  M 0.292 0.112 C 0.292 0.118 0.294 0.122 0.3 0.13 C 0.308 0.141 0.31 0.147 0.305 0.144 C 0.303 0.143 0.301 0.143 0.301 0.145 C 0.3 0.147 0.297 0.148 0.295 0.148 C 0.291 0.148 0.289 0.15 0.288 0.152 C 0.285 0.161 0.269 0.16 0.269 0.151 C 0.269 0.145 0.272 0.139 0.274 0.141 C 0.276 0.145 0.281 0.134 0.282 0.126 C 0.284 0.107 0.292 0.096 0.292 0.112 Z  M 0.174 0.174 C 0.175 0.196 0.17 0.198 0.168 0.175 C 0.167 0.163 0.167 0.162 0.17 0.162 C 0.172 0.162 0.173 0.164 0.174 0.174 Z  M 0.288 0.199 C 0.29 0.205 0.29 0.205 0.279 0.21 C 0.271 0.214 0.264 0.216 0.264 0.213 C 0.264 0.204 0.268 0.198 0.272 0.202 C 0.276 0.205 0.276 0.205 0.278 0.2 C 0.28 0.194 0.285 0.194 0.288 0.199 Z  M 0.245 0.223 C 0.246 0.227 0.247 0.229 0.246 0.227 C 0.245 0.226 0.244 0.227 0.244 0.228 C 0.244 0.23 0.243 0.23 0.242 0.23 C 0.24 0.228 0.239 0.224 0.24 0.218 C 0.241 0.216 0.242 0.218 0.245 0.223 Z  M 0.234 0.241 C 0.232 0.245 0.23 0.247 0.228 0.246 C 0.227 0.246 0.226 0.246 0.227 0.247 C 0.228 0.249 0.224 0.256 0.222 0.256 C 0.22 0.256 0.221 0.245 0.224 0.242 C 0.225 0.241 0.225 0.24 0.225 0.239 C 0.225 0.232 0.225 0.231 0.229 0.232 C 0.231 0.233 0.233 0.233 0.234 0.231 C 0.234 0.229 0.235 0.229 0.236 0.231 C 0.238 0.233 0.237 0.236 0.234 0.241 Z  M 0.208 0.262 C 0.209 0.27 0.209 0.27 0.201 0.274 C 0.197 0.277 0.194 0.28 0.194 0.281 C 0.194 0.283 0.193 0.284 0.192 0.284 C 0.191 0.284 0.191 0.282 0.192 0.277 C 0.193 0.274 0.193 0.266 0.193 0.26 C 0.192 0.251 0.192 0.25 0.196 0.252 C 0.198 0.253 0.2 0.253 0.201 0.251 C 0.202 0.246 0.206 0.252 0.208 0.262 Z  M 0.219 0.259 C 0.219 0.26 0.218 0.262 0.217 0.263 C 0.216 0.265 0.216 0.264 0.216 0.262 C 0.218 0.258 0.217 0.258 0.215 0.261 C 0.213 0.265 0.212 0.265 0.212 0.261 C 0.212 0.258 0.214 0.256 0.216 0.256 C 0.217 0.256 0.219 0.257 0.219 0.259 Z  M 0.179 0.283 C 0.178 0.286 0.178 0.289 0.178 0.29 C 0.178 0.292 0.17 0.298 0.165 0.299 C 0.162 0.3 0.162 0.298 0.169 0.286 C 0.177 0.273 0.182 0.272 0.179 0.283 Z  M 0.154 0.289 C 0.153 0.292 0.153 0.298 0.152 0.301 C 0.151 0.309 0.144 0.328 0.142 0.328 C 0.141 0.328 0.141 0.325 0.142 0.32 C 0.143 0.315 0.143 0.311 0.144 0.31 C 0.144 0.31 0.146 0.303 0.148 0.297 C 0.152 0.284 0.156 0.28 0.154 0.289 Z  M 0.771 0.389 C 0.774 0.394 0.774 0.395 0.772 0.399 C 0.77 0.402 0.769 0.406 0.77 0.409 C 0.77 0.412 0.77 0.414 0.768 0.414 C 0.767 0.414 0.766 0.412 0.767 0.41 C 0.767 0.408 0.767 0.403 0.766 0.399 C 0.763 0.387 0.767 0.38 0.771 0.389 Z  M 0.12 0.401 C 0.119 0.408 0.119 0.417 0.118 0.421 C 0.117 0.425 0.118 0.43 0.119 0.434 C 0.12 0.437 0.12 0.441 0.12 0.441 C 0.118 0.444 0.112 0.436 0.112 0.432 C 0.112 0.43 0.111 0.427 0.109 0.426 C 0.101 0.421 0.102 0.409 0.11 0.397 C 0.118 0.386 0.12 0.387 0.12 0.401 Z  M 0.083 0.443 C 0.083 0.455 0.083 0.458 0.081 0.458 C 0.079 0.459 0.078 0.461 0.078 0.462 C 0.078 0.464 0.079 0.465 0.081 0.464 C 0.083 0.463 0.085 0.464 0.085 0.465 C 0.087 0.469 0.076 0.487 0.074 0.485 C 0.072 0.484 0.071 0.489 0.071 0.496 C 0.072 0.497 0.07 0.498 0.069 0.498 C 0.067 0.498 0.065 0.499 0.065 0.501 C 0.064 0.502 0.062 0.503 0.061 0.503 C 0.059 0.503 0.058 0.502 0.058 0.501 C 0.059 0.499 0.059 0.498 0.058 0.498 C 0.056 0.498 0.056 0.492 0.058 0.489 C 0.059 0.488 0.06 0.483 0.06 0.478 C 0.061 0.465 0.062 0.456 0.064 0.456 C 0.065 0.456 0.065 0.454 0.065 0.452 C 0.064 0.448 0.069 0.441 0.071 0.445 C 0.072 0.446 0.072 0.445 0.071 0.443 C 0.07 0.441 0.07 0.439 0.071 0.439 C 0.076 0.439 0.079 0.437 0.08 0.433 C 0.082 0.425 0.084 0.428 0.083 0.443 Z  M 0.761 0.476 C 0.76 0.478 0.761 0.48 0.763 0.48 C 0.765 0.482 0.766 0.483 0.765 0.489 C 0.764 0.495 0.765 0.496 0.768 0.494 C 0.774 0.491 0.774 0.491 0.775 0.494 C 0.776 0.499 0.771 0.506 0.768 0.506 C 0.766 0.506 0.763 0.508 0.761 0.509 C 0.759 0.511 0.758 0.511 0.756 0.504 C 0.755 0.499 0.752 0.495 0.751 0.494 C 0.744 0.49 0.749 0.476 0.757 0.476 C 0.759 0.476 0.76 0.475 0.759 0.472 C 0.758 0.47 0.759 0.47 0.76 0.471 C 0.761 0.472 0.761 0.475 0.761 0.476 Z  M 0.744 0.495 C 0.744 0.496 0.745 0.501 0.745 0.506 C 0.746 0.515 0.746 0.515 0.743 0.512 C 0.741 0.51 0.738 0.51 0.736 0.512 C 0.732 0.514 0.732 0.514 0.733 0.508 C 0.734 0.498 0.744 0.485 0.744 0.495 Z  M 0.778 0.513 C 0.778 0.516 0.777 0.519 0.777 0.52 C 0.777 0.523 0.769 0.531 0.767 0.531 C 0.765 0.531 0.767 0.517 0.77 0.514 C 0.774 0.508 0.779 0.508 0.778 0.513 Z  M 0.732 0.524 C 0.731 0.532 0.727 0.534 0.727 0.527 C 0.727 0.52 0.729 0.515 0.731 0.516 C 0.732 0.517 0.733 0.52 0.732 0.524 Z  M 0.73 0.545 C 0.73 0.55 0.726 0.556 0.725 0.553 C 0.722 0.548 0.723 0.54 0.725 0.539 C 0.729 0.537 0.73 0.539 0.73 0.545 Z  M 0.428 0.848 C 0.428 0.855 0.424 0.86 0.419 0.858 L 0.415 0.856 L 0.42 0.851 C 0.427 0.845 0.428 0.844 0.428 0.848 Z " fill-rule="evenodd" fill="rgb(0,0,0)"/></g></g></svg>