<?xml version="1.0" encoding="UTF-8" standalone="no"?><!-- Generator: Gravit.io --><svg xmlns="http://www.w3.org/2000/svg" xmlns:xlink="http://www.w3.org/1999/xlink" style="isolation:isolate" viewBox="0 0 1 1" width="1pt" height="1pt"><defs><clipPath id="_clipPath_iL3TWAaWURcdnEMaZ7HPUxzkRqbds9mh"><rect width="1" height="1"/></clipPath></defs><g clip-path="url(#_clipPath_iL3TWAaWURcdnEMaZ7HPUxzkRqbds9mh)"><g><path d=" M 0 0.003 C 0 0.005 0 0.23 0 0.503 L 0.001 0.999 L 0.2 1 C 0.31 1 0.401 1 0.403 0.999 C 0.407 0.997 0.408 0.99 0.405 0.985 C 0.402 0.979 0.404 0.976 0.41 0.978 C 0.414 0.98 0.415 0.981 0.416 0.989 L 0.417 0.999 L 0.708 0.999 L 1 0.999 L 1 0.5 L 1 0.001 L 0.705 0.001 C 0.509 0.001 0.41 0.002 0.41 0.003 C 0.41 0.005 0.411 0.006 0.412 0.006 C 0.413 0.006 0.414 0.007 0.414 0.008 C 0.414 0.009 0.416 0.01 0.417 0.009 C 0.419 0.008 0.42 0.009 0.42 0.01 C 0.42 0.013 0.426 0.017 0.429 0.016 C 0.43 0.016 0.43 0.017 0.429 0.019 C 0.429 0.02 0.427 0.021 0.427 0.02 C 0.426 0.019 0.426 0.021 0.427 0.024 C 0.428 0.027 0.43 0.029 0.434 0.029 C 0.437 0.029 0.439 0.03 0.439 0.033 C 0.439 0.036 0.439 0.038 0.438 0.038 C 0.437 0.038 0.436 0.037 0.437 0.036 C 0.437 0.034 0.437 0.033 0.435 0.032 C 0.432 0.029 0.431 0.029 0.431 0.036 C 0.431 0.039 0.431 0.041 0.43 0.04 C 0.429 0.039 0.427 0.04 0.425 0.043 C 0.423 0.046 0.422 0.047 0.423 0.044 C 0.423 0.042 0.422 0.042 0.421 0.046 C 0.418 0.052 0.415 0.055 0.416 0.05 C 0.417 0.048 0.416 0.048 0.414 0.049 C 0.413 0.049 0.411 0.051 0.411 0.052 C 0.411 0.054 0.41 0.056 0.408 0.057 C 0.406 0.06 0.405 0.059 0.405 0.056 C 0.405 0.054 0.406 0.052 0.407 0.052 C 0.407 0.052 0.407 0.05 0.406 0.047 C 0.405 0.043 0.405 0.04 0.406 0.038 C 0.406 0.037 0.405 0.035 0.403 0.034 C 0.401 0.033 0.399 0.033 0.398 0.037 C 0.397 0.041 0.39 0.048 0.385 0.049 C 0.384 0.049 0.383 0.052 0.384 0.056 C 0.384 0.06 0.383 0.062 0.381 0.062 C 0.379 0.061 0.379 0.063 0.379 0.065 C 0.38 0.067 0.379 0.069 0.378 0.069 C 0.377 0.069 0.378 0.071 0.38 0.073 C 0.382 0.076 0.382 0.077 0.381 0.076 C 0.379 0.075 0.378 0.076 0.378 0.077 C 0.378 0.079 0.376 0.085 0.373 0.09 C 0.37 0.095 0.367 0.099 0.367 0.098 C 0.367 0.097 0.366 0.098 0.365 0.099 C 0.364 0.101 0.363 0.102 0.363 0.101 C 0.363 0.1 0.361 0.1 0.36 0.103 C 0.358 0.105 0.358 0.105 0.358 0.103 C 0.36 0.1 0.358 0.099 0.349 0.095 C 0.345 0.094 0.344 0.093 0.345 0.088 C 0.346 0.082 0.346 0.082 0.347 0.087 C 0.348 0.092 0.356 0.096 0.357 0.091 C 0.358 0.09 0.357 0.089 0.355 0.09 C 0.353 0.091 0.352 0.09 0.352 0.088 C 0.352 0.087 0.351 0.086 0.35 0.087 C 0.349 0.088 0.348 0.088 0.349 0.086 C 0.35 0.084 0.351 0.084 0.353 0.085 C 0.355 0.087 0.357 0.087 0.358 0.085 C 0.359 0.082 0.36 0.082 0.359 0.085 C 0.357 0.089 0.361 0.089 0.364 0.085 C 0.366 0.083 0.366 0.083 0.364 0.084 C 0.361 0.085 0.361 0.085 0.362 0.082 C 0.363 0.08 0.364 0.077 0.363 0.076 C 0.363 0.075 0.363 0.074 0.365 0.074 C 0.367 0.074 0.367 0.076 0.366 0.078 C 0.366 0.08 0.366 0.08 0.368 0.078 C 0.372 0.072 0.371 0.07 0.366 0.07 C 0.357 0.068 0.355 0.068 0.356 0.065 C 0.356 0.063 0.358 0.062 0.361 0.063 C 0.363 0.063 0.366 0.062 0.366 0.061 C 0.367 0.059 0.367 0.058 0.365 0.06 C 0.363 0.061 0.362 0.06 0.361 0.057 C 0.36 0.054 0.359 0.054 0.357 0.058 C 0.354 0.063 0.347 0.06 0.347 0.054 C 0.347 0.053 0.348 0.053 0.349 0.054 C 0.352 0.057 0.35 0.052 0.346 0.048 C 0.344 0.045 0.342 0.044 0.343 0.046 C 0.343 0.047 0.342 0.048 0.34 0.047 C 0.335 0.046 0.335 0.037 0.34 0.037 C 0.342 0.037 0.344 0.038 0.344 0.039 C 0.344 0.04 0.345 0.04 0.347 0.038 C 0.349 0.036 0.35 0.036 0.35 0.038 C 0.349 0.039 0.353 0.04 0.359 0.041 C 0.371 0.041 0.376 0.038 0.387 0.021 C 0.389 0.017 0.392 0.014 0.393 0.015 C 0.394 0.016 0.393 0.014 0.392 0.011 C 0.391 0.008 0.389 0.005 0.387 0.005 C 0.385 0.004 0.382 0.003 0.38 0.003 C 0.371 -0.001 0.001 -0.001 0 0.003 Z  M 0.375 0.008 C 0.375 0.009 0.373 0.01 0.371 0.01 C 0.369 0.01 0.368 0.009 0.368 0.008 C 0.369 0.006 0.37 0.005 0.372 0.005 C 0.374 0.005 0.375 0.006 0.375 0.008 Z  M 0.34 0.066 C 0.339 0.069 0.343 0.075 0.344 0.073 C 0.345 0.072 0.345 0.073 0.345 0.075 C 0.345 0.078 0.345 0.08 0.344 0.079 C 0.342 0.077 0.342 0.081 0.342 0.086 C 0.342 0.088 0.342 0.088 0.341 0.087 C 0.34 0.086 0.34 0.084 0.34 0.082 C 0.341 0.08 0.34 0.08 0.338 0.081 C 0.336 0.082 0.334 0.081 0.333 0.079 C 0.333 0.078 0.333 0.077 0.334 0.078 C 0.335 0.079 0.336 0.078 0.337 0.076 C 0.337 0.074 0.338 0.07 0.338 0.067 C 0.339 0.065 0.339 0.063 0.34 0.063 C 0.34 0.063 0.341 0.064 0.34 0.066 Z  M 0.512 0.071 C 0.512 0.077 0.509 0.079 0.507 0.074 C 0.506 0.072 0.507 0.071 0.509 0.073 C 0.511 0.074 0.511 0.074 0.51 0.07 C 0.508 0.067 0.508 0.066 0.51 0.066 C 0.511 0.066 0.512 0.068 0.512 0.071 Z  M 0.287 0.145 C 0.291 0.15 0.286 0.155 0.276 0.154 C 0.265 0.153 0.268 0.143 0.281 0.141 C 0.283 0.141 0.285 0.143 0.287 0.145 Z  M 0.172 0.168 C 0.172 0.172 0.169 0.173 0.168 0.169 C 0.167 0.165 0.168 0.16 0.17 0.162 C 0.171 0.163 0.172 0.166 0.172 0.168 Z  M 0.173 0.183 C 0.173 0.186 0.172 0.188 0.171 0.188 C 0.169 0.188 0.168 0.183 0.17 0.179 C 0.172 0.176 0.173 0.177 0.173 0.183 Z  M 0.284 0.195 C 0.284 0.202 0.267 0.214 0.267 0.206 C 0.267 0.203 0.268 0.203 0.271 0.204 C 0.274 0.205 0.275 0.204 0.277 0.2 C 0.279 0.196 0.281 0.193 0.284 0.191 C 0.284 0.191 0.284 0.193 0.284 0.195 Z  M 0.243 0.223 C 0.244 0.228 0.243 0.229 0.241 0.228 C 0.239 0.227 0.238 0.221 0.24 0.218 C 0.242 0.215 0.243 0.216 0.243 0.223 Z  M 0.234 0.236 C 0.231 0.242 0.227 0.246 0.226 0.245 C 0.225 0.244 0.225 0.245 0.225 0.247 C 0.225 0.25 0.225 0.25 0.223 0.247 C 0.221 0.244 0.222 0.243 0.223 0.241 C 0.225 0.24 0.225 0.239 0.224 0.239 C 0.22 0.238 0.227 0.232 0.231 0.232 C 0.235 0.232 0.235 0.232 0.234 0.236 Z  M 0.201 0.247 C 0.201 0.248 0.203 0.25 0.204 0.25 C 0.206 0.25 0.207 0.252 0.207 0.258 C 0.207 0.269 0.196 0.279 0.194 0.27 C 0.194 0.267 0.193 0.263 0.192 0.26 C 0.189 0.251 0.198 0.239 0.201 0.247 Z  M 0.178 0.277 C 0.179 0.28 0.178 0.284 0.174 0.288 C 0.168 0.296 0.165 0.294 0.169 0.286 C 0.171 0.283 0.172 0.28 0.172 0.278 C 0.172 0.269 0.177 0.268 0.178 0.277 Z  M 0.151 0.3 C 0.149 0.304 0.148 0.308 0.147 0.308 C 0.146 0.308 0.145 0.31 0.145 0.314 C 0.145 0.317 0.144 0.319 0.144 0.319 C 0.141 0.319 0.14 0.31 0.142 0.308 C 0.143 0.307 0.144 0.305 0.144 0.304 C 0.144 0.302 0.145 0.298 0.147 0.293 C 0.151 0.284 0.154 0.289 0.151 0.3 Z  M 0.112 0.411 C 0.11 0.429 0.104 0.424 0.106 0.405 C 0.106 0.402 0.113 0.397 0.114 0.398 C 0.114 0.399 0.113 0.404 0.112 0.411 Z  M 0.085 0.454 C 0.085 0.456 0.086 0.459 0.086 0.462 C 0.088 0.466 0.087 0.469 0.082 0.477 C 0.078 0.482 0.074 0.488 0.073 0.49 C 0.069 0.496 0.061 0.498 0.061 0.493 C 0.061 0.491 0.062 0.488 0.063 0.488 C 0.065 0.487 0.065 0.482 0.065 0.474 C 0.065 0.455 0.069 0.449 0.079 0.449 C 0.081 0.449 0.083 0.449 0.081 0.448 C 0.08 0.447 0.08 0.445 0.08 0.444 C 0.081 0.441 0.085 0.448 0.085 0.454 Z  M 0.765 0.486 C 0.765 0.487 0.764 0.489 0.763 0.491 C 0.762 0.494 0.762 0.496 0.764 0.498 C 0.765 0.499 0.765 0.5 0.763 0.5 C 0.762 0.5 0.761 0.502 0.761 0.505 C 0.761 0.508 0.761 0.511 0.76 0.511 C 0.759 0.511 0.758 0.509 0.758 0.506 C 0.758 0.503 0.757 0.499 0.754 0.497 C 0.75 0.493 0.749 0.487 0.754 0.484 C 0.757 0.481 0.765 0.483 0.765 0.486 Z  M 0.41 0.938 C 0.415 0.935 0.417 0.943 0.414 0.951 C 0.413 0.956 0.413 0.957 0.414 0.959 C 0.417 0.962 0.415 0.965 0.41 0.965 C 0.403 0.965 0.399 0.956 0.403 0.951 C 0.405 0.948 0.405 0.947 0.403 0.94 C 0.402 0.934 0.402 0.933 0.404 0.936 C 0.405 0.938 0.408 0.939 0.41 0.938 Z " fill-rule="evenodd" fill="rgb(0,0,0)"/></g></g></svg>