<?xml version="1.0" encoding="UTF-8" standalone="no"?><!-- Generator: Gravit.io --><svg xmlns="http://www.w3.org/2000/svg" xmlns:xlink="http://www.w3.org/1999/xlink" style="isolation:isolate" viewBox="0 0 1 1" width="1pt" height="1pt"><defs><clipPath id="_clipPath_q3ZgVE4rA8Qco5ZszuqZzEOEY8A90CVX"><rect width="1" height="1"/></clipPath></defs><g clip-path="url(#_clipPath_q3ZgVE4rA8Qco5ZszuqZzEOEY8A90CVX)"><g><path d=" M 0 0.004 C 0 0.006 0 0.231 0 0.503 L 0.001 0.999 L 0.2 1 C 0.42 1 0.412 1.001 0.404 0.987 C 0.404 0.986 0.403 0.983 0.403 0.98 C 0.403 0.972 0.412 0.984 0.413 0.993 L 0.413 0.999 L 0.707 0.999 L 1 0.999 L 1 0.5 L 1 0.002 L 0.702 0.001 C 0.538 0.001 0.403 0.001 0.402 0.002 C 0.4 0.003 0.399 0.004 0.398 0.004 C 0.398 0.003 0.397 0.005 0.397 0.006 C 0.397 0.008 0.396 0.007 0.395 0.005 C 0.391 -0.001 0.002 -0.002 0 0.004 Z  M 0.408 0.011 C 0.408 0.013 0.407 0.014 0.405 0.013 C 0.402 0.012 0.401 0.015 0.403 0.019 C 0.406 0.021 0.405 0.03 0.403 0.032 C 0.399 0.034 0.394 0.018 0.397 0.013 C 0.398 0.011 0.399 0.011 0.398 0.015 C 0.397 0.017 0.398 0.02 0.398 0.021 C 0.399 0.022 0.4 0.02 0.4 0.016 C 0.4 0.007 0.406 0.003 0.408 0.011 Z  M 0.411 0.023 C 0.41 0.026 0.411 0.029 0.412 0.029 C 0.413 0.03 0.412 0.032 0.41 0.033 C 0.407 0.034 0.407 0.035 0.408 0.037 C 0.41 0.039 0.41 0.04 0.408 0.039 C 0.407 0.038 0.406 0.037 0.406 0.036 C 0.406 0.035 0.406 0.03 0.406 0.025 C 0.406 0.02 0.407 0.017 0.409 0.017 C 0.411 0.017 0.411 0.019 0.411 0.023 Z  M 0.392 0.027 C 0.391 0.03 0.392 0.031 0.394 0.03 C 0.396 0.028 0.397 0.029 0.397 0.031 C 0.396 0.033 0.395 0.035 0.394 0.034 C 0.393 0.034 0.392 0.035 0.392 0.037 C 0.392 0.04 0.392 0.039 0.391 0.037 C 0.389 0.033 0.389 0.033 0.388 0.038 C 0.387 0.047 0.384 0.048 0.381 0.041 C 0.378 0.037 0.378 0.036 0.38 0.037 C 0.382 0.038 0.383 0.037 0.384 0.035 C 0.384 0.033 0.386 0.031 0.387 0.031 C 0.388 0.031 0.389 0.03 0.388 0.028 C 0.388 0.027 0.388 0.025 0.39 0.025 C 0.393 0.022 0.393 0.022 0.392 0.027 Z  M 0.173 0.185 C 0.173 0.187 0.172 0.189 0.171 0.189 C 0.17 0.189 0.169 0.187 0.169 0.185 C 0.169 0.183 0.17 0.181 0.171 0.181 C 0.172 0.181 0.173 0.183 0.173 0.185 Z  M 0.243 0.226 C 0.242 0.228 0.241 0.227 0.24 0.226 C 0.239 0.224 0.239 0.222 0.24 0.22 C 0.241 0.217 0.241 0.217 0.242 0.22 C 0.243 0.222 0.243 0.225 0.243 0.226 Z  M 0.231 0.236 C 0.233 0.239 0.232 0.24 0.229 0.242 C 0.224 0.246 0.223 0.244 0.224 0.237 C 0.225 0.231 0.228 0.23 0.231 0.236 Z  M 0.207 0.249 C 0.21 0.253 0.205 0.267 0.2 0.27 C 0.197 0.272 0.195 0.273 0.195 0.272 C 0.189 0.255 0.192 0.244 0.201 0.246 C 0.204 0.247 0.207 0.248 0.207 0.249 Z  M 0.174 0.287 C 0.171 0.292 0.167 0.294 0.167 0.29 C 0.167 0.284 0.176 0.271 0.176 0.276 C 0.176 0.279 0.176 0.284 0.174 0.287 Z  M 0.149 0.303 C 0.147 0.307 0.145 0.308 0.144 0.306 C 0.142 0.303 0.142 0.302 0.143 0.301 C 0.144 0.301 0.145 0.299 0.145 0.297 C 0.145 0.295 0.146 0.292 0.148 0.29 C 0.152 0.285 0.153 0.297 0.149 0.303 Z  M 0.085 0.458 C 0.085 0.46 0.087 0.461 0.087 0.46 C 0.09 0.457 0.087 0.471 0.084 0.475 C 0.083 0.476 0.081 0.478 0.081 0.478 C 0.08 0.478 0.079 0.48 0.079 0.482 C 0.079 0.485 0.078 0.486 0.077 0.486 C 0.076 0.486 0.073 0.489 0.07 0.492 C 0.065 0.499 0.06 0.495 0.064 0.488 C 0.065 0.485 0.066 0.477 0.066 0.47 L 0.066 0.457 L 0.073 0.454 C 0.081 0.451 0.084 0.452 0.085 0.458 Z  M 0.756 0.494 C 0.756 0.495 0.754 0.495 0.753 0.494 C 0.75 0.492 0.75 0.491 0.752 0.489 C 0.755 0.487 0.758 0.49 0.756 0.494 Z  M 0.413 0.946 C 0.413 0.95 0.412 0.954 0.411 0.955 C 0.41 0.956 0.41 0.958 0.411 0.96 C 0.413 0.963 0.412 0.964 0.409 0.964 C 0.403 0.964 0.401 0.96 0.403 0.954 C 0.404 0.951 0.405 0.947 0.406 0.944 C 0.407 0.936 0.413 0.938 0.413 0.946 Z " fill-rule="evenodd" fill="rgb(0,0,0)"/></g></g></svg>