<?xml version="1.0" encoding="UTF-8" standalone="no"?><!-- Generator: Gravit.io --><svg xmlns="http://www.w3.org/2000/svg" xmlns:xlink="http://www.w3.org/1999/xlink" style="isolation:isolate" viewBox="0 0 1 1" width="1pt" height="1pt"><defs><clipPath id="_clipPath_VromXGXCw3rg8aB357RqY84XBfJTlt4m"><rect width="1" height="1"/></clipPath></defs><g clip-path="url(#_clipPath_VromXGXCw3rg8aB357RqY84XBfJTlt4m)"><g><path d=" M 0.001 0.002 C 0 0.004 0 0.238 0.001 0.246 C 0.002 0.251 0.003 0.252 0.006 0.251 C 0.009 0.25 0.009 0.251 0.009 0.256 C 0.009 0.259 0.01 0.261 0.011 0.26 C 0.011 0.259 0.012 0.262 0.012 0.267 C 0.012 0.271 0.011 0.274 0.011 0.274 C 0.009 0.272 0.007 0.283 0.009 0.286 C 0.009 0.288 0.01 0.289 0.011 0.288 C 0.012 0.287 0.012 0.287 0.012 0.289 C 0.012 0.291 0.013 0.292 0.014 0.291 C 0.014 0.29 0.016 0.292 0.017 0.294 C 0.018 0.296 0.018 0.298 0.018 0.298 C 0.017 0.298 0.018 0.3 0.019 0.303 C 0.02 0.307 0.02 0.309 0.018 0.311 C 0.015 0.313 0.015 0.314 0.017 0.315 C 0.018 0.316 0.023 0.319 0.027 0.321 C 0.031 0.324 0.035 0.325 0.035 0.324 C 0.036 0.323 0.038 0.325 0.04 0.327 C 0.043 0.331 0.048 0.332 0.048 0.328 C 0.048 0.327 0.049 0.326 0.051 0.327 C 0.052 0.328 0.053 0.329 0.053 0.33 C 0.052 0.338 0.053 0.339 0.057 0.336 C 0.061 0.332 0.064 0.325 0.064 0.318 C 0.064 0.314 0.065 0.311 0.067 0.311 C 0.07 0.31 0.072 0.305 0.074 0.295 C 0.076 0.286 0.078 0.281 0.078 0.282 C 0.078 0.283 0.08 0.282 0.082 0.28 C 0.086 0.275 0.092 0.284 0.092 0.294 C 0.092 0.297 0.094 0.3 0.098 0.302 C 0.102 0.305 0.103 0.304 0.103 0.3 C 0.103 0.295 0.108 0.286 0.111 0.286 C 0.113 0.286 0.113 0.286 0.111 0.283 C 0.109 0.279 0.109 0.274 0.111 0.277 C 0.112 0.278 0.112 0.277 0.112 0.275 C 0.112 0.274 0.111 0.273 0.109 0.273 C 0.106 0.273 0.105 0.271 0.105 0.267 C 0.105 0.264 0.105 0.261 0.106 0.261 C 0.107 0.261 0.108 0.263 0.108 0.264 C 0.108 0.265 0.109 0.266 0.111 0.265 C 0.113 0.264 0.114 0.263 0.114 0.261 C 0.114 0.26 0.115 0.257 0.117 0.255 C 0.119 0.251 0.119 0.25 0.116 0.25 C 0.114 0.25 0.114 0.25 0.116 0.248 C 0.117 0.246 0.117 0.245 0.116 0.245 C 0.115 0.245 0.113 0.246 0.112 0.248 C 0.111 0.25 0.109 0.252 0.108 0.251 C 0.107 0.25 0.106 0.252 0.105 0.255 C 0.104 0.259 0.104 0.259 0.103 0.254 C 0.102 0.25 0.103 0.247 0.106 0.243 C 0.108 0.239 0.11 0.236 0.109 0.236 C 0.108 0.236 0.11 0.232 0.113 0.227 C 0.118 0.218 0.12 0.206 0.116 0.206 C 0.115 0.206 0.114 0.204 0.114 0.202 C 0.114 0.199 0.113 0.198 0.112 0.199 C 0.111 0.201 0.111 0.2 0.112 0.197 C 0.113 0.194 0.115 0.193 0.117 0.194 C 0.119 0.195 0.12 0.194 0.121 0.192 C 0.122 0.19 0.121 0.188 0.119 0.187 C 0.116 0.186 0.116 0.185 0.118 0.183 C 0.121 0.177 0.122 0.17 0.119 0.17 C 0.117 0.17 0.116 0.168 0.115 0.166 C 0.115 0.163 0.115 0.162 0.116 0.163 C 0.117 0.164 0.119 0.163 0.119 0.162 C 0.121 0.158 0.119 0.15 0.116 0.15 C 0.112 0.15 0.114 0.142 0.12 0.137 C 0.122 0.135 0.127 0.133 0.132 0.132 C 0.143 0.131 0.147 0.125 0.138 0.125 C 0.131 0.125 0.131 0.125 0.132 0.117 C 0.132 0.112 0.133 0.106 0.133 0.103 C 0.133 0.099 0.134 0.097 0.136 0.097 C 0.137 0.097 0.139 0.096 0.139 0.094 C 0.14 0.092 0.141 0.092 0.144 0.096 C 0.148 0.1 0.151 0.1 0.164 0.096 C 0.166 0.095 0.167 0.092 0.168 0.087 C 0.168 0.083 0.169 0.081 0.17 0.082 C 0.171 0.086 0.18 0.087 0.179 0.083 C 0.178 0.082 0.177 0.081 0.175 0.081 C 0.173 0.081 0.172 0.079 0.172 0.077 C 0.172 0.074 0.173 0.072 0.176 0.072 C 0.178 0.072 0.18 0.071 0.18 0.07 C 0.18 0.068 0.18 0.067 0.181 0.068 C 0.182 0.069 0.184 0.069 0.185 0.067 C 0.186 0.065 0.188 0.064 0.189 0.065 C 0.19 0.066 0.191 0.065 0.191 0.062 C 0.192 0.057 0.193 0.056 0.204 0.056 C 0.209 0.055 0.212 0.052 0.209 0.049 C 0.207 0.046 0.208 0.043 0.212 0.039 C 0.214 0.036 0.218 0.031 0.22 0.028 C 0.223 0.024 0.225 0.023 0.226 0.025 C 0.227 0.027 0.228 0.027 0.23 0.025 C 0.233 0.022 0.236 0.024 0.236 0.03 C 0.236 0.035 0.238 0.035 0.243 0.028 C 0.246 0.024 0.247 0.02 0.246 0.016 C 0.245 0.013 0.245 0.009 0.245 0.006 C 0.244 0.001 0.004 -0.003 0.001 0.002 Z  M 0.842 0.008 C 0.842 0.013 0.842 0.019 0.84 0.023 C 0.837 0.031 0.841 0.039 0.851 0.04 C 0.861 0.041 0.864 0.048 0.858 0.056 C 0.849 0.068 0.85 0.067 0.854 0.075 C 0.856 0.079 0.859 0.082 0.863 0.081 C 0.868 0.081 0.869 0.085 0.864 0.088 C 0.859 0.091 0.857 0.097 0.86 0.103 C 0.862 0.105 0.862 0.108 0.862 0.109 C 0.86 0.112 0.867 0.117 0.87 0.117 C 0.872 0.116 0.874 0.116 0.875 0.117 C 0.877 0.117 0.877 0.128 0.875 0.128 C 0.874 0.128 0.874 0.13 0.874 0.132 C 0.874 0.137 0.881 0.164 0.883 0.164 C 0.883 0.164 0.886 0.168 0.889 0.172 C 0.896 0.183 0.896 0.183 0.901 0.172 C 0.906 0.163 0.908 0.165 0.909 0.176 C 0.91 0.186 0.911 0.189 0.914 0.189 C 0.92 0.189 0.921 0.194 0.916 0.203 C 0.911 0.214 0.91 0.217 0.913 0.217 C 0.915 0.217 0.916 0.219 0.916 0.222 C 0.916 0.225 0.919 0.228 0.924 0.229 C 0.932 0.233 0.934 0.24 0.927 0.245 C 0.922 0.249 0.921 0.253 0.924 0.253 C 0.925 0.253 0.927 0.251 0.929 0.247 C 0.936 0.236 0.943 0.243 0.937 0.255 C 0.933 0.264 0.944 0.297 0.95 0.294 C 0.953 0.292 0.962 0.291 0.966 0.292 C 0.967 0.292 0.967 0.293 0.966 0.296 C 0.962 0.305 0.966 0.303 0.98 0.291 C 0.985 0.286 0.987 0.29 0.984 0.298 C 0.981 0.306 0.981 0.308 0.984 0.31 C 0.986 0.311 0.988 0.315 0.988 0.32 C 0.989 0.324 0.99 0.328 0.991 0.328 C 0.994 0.328 0.996 0.334 0.996 0.346 C 0.996 0.351 0.997 0.357 0.998 0.359 C 1 0.362 1 0.342 1 0.182 L 0.999 0.002 L 0.92 0.001 L 0.841 0 L 0.842 0.008 Z  M 0.408 0.156 C 0.405 0.157 0.401 0.161 0.398 0.166 C 0.394 0.171 0.39 0.175 0.389 0.175 C 0.387 0.175 0.386 0.177 0.386 0.18 C 0.387 0.184 0.386 0.185 0.383 0.186 C 0.38 0.186 0.377 0.19 0.375 0.193 C 0.373 0.197 0.368 0.201 0.365 0.203 C 0.362 0.205 0.357 0.211 0.355 0.215 C 0.352 0.22 0.351 0.221 0.35 0.219 C 0.349 0.217 0.349 0.221 0.349 0.228 C 0.35 0.241 0.347 0.252 0.346 0.242 C 0.343 0.229 0.327 0.216 0.327 0.228 C 0.327 0.235 0.314 0.241 0.312 0.234 C 0.31 0.229 0.295 0.235 0.291 0.242 C 0.29 0.246 0.287 0.25 0.285 0.252 C 0.283 0.254 0.282 0.258 0.282 0.267 C 0.283 0.278 0.28 0.282 0.277 0.274 C 0.275 0.27 0.268 0.271 0.261 0.277 C 0.257 0.28 0.256 0.28 0.254 0.278 C 0.252 0.276 0.25 0.277 0.245 0.283 C 0.241 0.288 0.235 0.293 0.231 0.293 C 0.225 0.294 0.219 0.299 0.219 0.303 C 0.219 0.305 0.218 0.306 0.217 0.306 C 0.216 0.306 0.213 0.31 0.211 0.314 C 0.209 0.319 0.207 0.322 0.206 0.321 C 0.203 0.318 0.202 0.33 0.204 0.335 C 0.208 0.34 0.21 0.34 0.211 0.336 C 0.211 0.334 0.211 0.33 0.212 0.327 C 0.212 0.324 0.212 0.32 0.212 0.319 C 0.212 0.318 0.213 0.317 0.214 0.317 C 0.217 0.318 0.219 0.317 0.219 0.312 C 0.219 0.309 0.22 0.308 0.223 0.309 C 0.225 0.31 0.227 0.309 0.227 0.307 C 0.227 0.306 0.23 0.304 0.232 0.304 C 0.236 0.303 0.236 0.304 0.234 0.307 C 0.233 0.31 0.231 0.311 0.23 0.311 C 0.228 0.311 0.226 0.313 0.226 0.314 C 0.225 0.316 0.224 0.317 0.223 0.317 C 0.222 0.317 0.222 0.316 0.223 0.314 C 0.225 0.312 0.225 0.311 0.223 0.311 C 0.221 0.311 0.221 0.314 0.221 0.32 C 0.221 0.327 0.22 0.331 0.216 0.336 C 0.213 0.341 0.211 0.345 0.211 0.347 C 0.211 0.348 0.209 0.351 0.206 0.353 C 0.201 0.357 0.199 0.364 0.203 0.368 C 0.205 0.371 0.205 0.373 0.204 0.38 C 0.201 0.392 0.2 0.416 0.202 0.419 C 0.203 0.421 0.203 0.424 0.201 0.427 C 0.2 0.43 0.2 0.431 0.201 0.43 C 0.203 0.427 0.214 0.449 0.214 0.458 C 0.214 0.468 0.226 0.489 0.233 0.492 C 0.238 0.494 0.239 0.496 0.237 0.508 C 0.236 0.513 0.237 0.514 0.242 0.517 C 0.245 0.519 0.248 0.522 0.249 0.524 C 0.25 0.526 0.251 0.528 0.252 0.528 C 0.254 0.528 0.258 0.532 0.261 0.536 C 0.269 0.544 0.279 0.553 0.282 0.553 C 0.282 0.553 0.285 0.556 0.288 0.56 C 0.301 0.578 0.308 0.594 0.306 0.597 C 0.304 0.599 0.303 0.599 0.302 0.597 C 0.301 0.595 0.3 0.595 0.298 0.598 C 0.294 0.603 0.299 0.607 0.303 0.603 C 0.305 0.601 0.308 0.601 0.31 0.601 C 0.312 0.602 0.315 0.6 0.319 0.595 C 0.326 0.585 0.327 0.586 0.33 0.599 C 0.332 0.604 0.334 0.609 0.335 0.609 C 0.337 0.609 0.338 0.613 0.338 0.621 C 0.339 0.63 0.34 0.634 0.343 0.637 C 0.346 0.64 0.347 0.642 0.346 0.647 C 0.346 0.651 0.346 0.653 0.347 0.652 C 0.349 0.65 0.354 0.662 0.353 0.668 C 0.352 0.674 0.355 0.684 0.357 0.684 C 0.359 0.684 0.359 0.685 0.359 0.688 C 0.358 0.69 0.36 0.694 0.363 0.697 C 0.365 0.701 0.369 0.708 0.37 0.714 C 0.371 0.719 0.374 0.729 0.375 0.735 C 0.377 0.742 0.378 0.748 0.378 0.749 C 0.378 0.751 0.383 0.755 0.388 0.758 C 0.396 0.762 0.403 0.771 0.397 0.77 C 0.393 0.768 0.388 0.77 0.388 0.773 C 0.388 0.778 0.396 0.785 0.397 0.781 C 0.398 0.777 0.405 0.777 0.412 0.782 C 0.416 0.784 0.421 0.787 0.422 0.787 C 0.424 0.787 0.425 0.788 0.425 0.792 C 0.425 0.796 0.426 0.798 0.427 0.797 C 0.447 0.785 0.445 0.785 0.448 0.791 C 0.451 0.799 0.458 0.799 0.458 0.792 C 0.458 0.785 0.463 0.777 0.465 0.781 C 0.465 0.782 0.465 0.785 0.465 0.788 C 0.462 0.796 0.464 0.809 0.468 0.809 C 0.47 0.809 0.472 0.808 0.471 0.806 C 0.471 0.804 0.469 0.803 0.468 0.803 C 0.467 0.803 0.466 0.802 0.466 0.801 C 0.466 0.799 0.473 0.798 0.483 0.798 C 0.492 0.798 0.5 0.798 0.501 0.797 C 0.502 0.796 0.503 0.796 0.504 0.797 C 0.504 0.798 0.507 0.799 0.509 0.799 C 0.511 0.798 0.514 0.798 0.515 0.798 C 0.516 0.798 0.518 0.794 0.52 0.789 C 0.522 0.78 0.525 0.779 0.534 0.786 C 0.54 0.792 0.548 0.792 0.551 0.785 C 0.553 0.782 0.555 0.782 0.558 0.784 C 0.562 0.786 0.563 0.786 0.566 0.781 C 0.567 0.778 0.57 0.775 0.572 0.775 C 0.573 0.775 0.576 0.773 0.577 0.771 C 0.579 0.769 0.582 0.767 0.585 0.767 C 0.59 0.767 0.596 0.761 0.602 0.749 C 0.607 0.74 0.618 0.728 0.621 0.728 C 0.624 0.728 0.638 0.704 0.638 0.699 C 0.638 0.694 0.644 0.683 0.649 0.678 C 0.652 0.676 0.654 0.671 0.655 0.666 C 0.656 0.661 0.658 0.654 0.66 0.65 C 0.661 0.646 0.663 0.641 0.663 0.638 C 0.663 0.636 0.666 0.628 0.669 0.621 C 0.674 0.612 0.677 0.603 0.68 0.586 L 0.684 0.563 L 0.68 0.556 C 0.674 0.548 0.674 0.545 0.68 0.545 C 0.69 0.545 0.694 0.539 0.688 0.533 C 0.686 0.53 0.686 0.529 0.688 0.521 C 0.69 0.517 0.691 0.511 0.691 0.508 C 0.691 0.506 0.691 0.503 0.692 0.502 C 0.693 0.501 0.694 0.493 0.694 0.485 C 0.694 0.472 0.694 0.469 0.697 0.468 C 0.7 0.466 0.701 0.465 0.699 0.459 C 0.697 0.453 0.7 0.439 0.705 0.43 C 0.71 0.424 0.71 0.422 0.708 0.418 C 0.705 0.409 0.704 0.406 0.706 0.401 C 0.706 0.398 0.707 0.396 0.707 0.395 C 0.707 0.394 0.708 0.389 0.709 0.383 C 0.711 0.373 0.711 0.362 0.708 0.349 C 0.707 0.344 0.706 0.339 0.706 0.338 C 0.704 0.329 0.693 0.303 0.692 0.303 C 0.69 0.303 0.688 0.3 0.687 0.295 C 0.681 0.279 0.676 0.273 0.672 0.273 C 0.667 0.273 0.667 0.266 0.671 0.253 C 0.673 0.244 0.67 0.238 0.667 0.245 L 0.664 0.252 L 0.66 0.245 C 0.658 0.242 0.654 0.238 0.653 0.237 C 0.651 0.237 0.65 0.233 0.649 0.231 C 0.648 0.225 0.647 0.224 0.639 0.225 C 0.637 0.225 0.634 0.224 0.633 0.222 C 0.633 0.219 0.63 0.218 0.628 0.218 C 0.626 0.218 0.624 0.217 0.624 0.215 C 0.624 0.208 0.623 0.207 0.622 0.211 C 0.621 0.215 0.62 0.215 0.617 0.212 C 0.616 0.21 0.613 0.209 0.612 0.209 C 0.611 0.209 0.608 0.205 0.606 0.2 C 0.601 0.188 0.588 0.181 0.573 0.181 C 0.566 0.181 0.56 0.179 0.558 0.177 C 0.555 0.174 0.554 0.175 0.55 0.183 L 0.545 0.192 L 0.54 0.182 C 0.538 0.177 0.535 0.173 0.534 0.173 C 0.529 0.174 0.513 0.169 0.513 0.166 C 0.513 0.163 0.51 0.163 0.505 0.166 C 0.503 0.167 0.503 0.168 0.505 0.171 C 0.507 0.176 0.504 0.179 0.501 0.174 C 0.496 0.168 0.496 0.169 0.496 0.183 C 0.495 0.196 0.494 0.202 0.493 0.195 C 0.492 0.193 0.491 0.19 0.49 0.188 C 0.489 0.187 0.487 0.182 0.486 0.177 C 0.482 0.168 0.48 0.168 0.479 0.176 C 0.478 0.181 0.478 0.181 0.471 0.18 C 0.462 0.178 0.46 0.175 0.463 0.171 C 0.465 0.168 0.465 0.167 0.464 0.165 C 0.462 0.162 0.461 0.163 0.459 0.168 C 0.455 0.177 0.451 0.177 0.449 0.168 C 0.448 0.162 0.448 0.161 0.445 0.166 C 0.441 0.17 0.44 0.17 0.439 0.166 C 0.438 0.164 0.434 0.161 0.431 0.16 C 0.427 0.159 0.421 0.158 0.418 0.156 C 0.415 0.155 0.41 0.155 0.408 0.156 Z  M 0.705 0.447 C 0.707 0.454 0.71 0.455 0.709 0.448 C 0.709 0.446 0.707 0.443 0.706 0.442 C 0.703 0.442 0.703 0.442 0.705 0.447 Z  M 0.08 0.589 C 0.08 0.591 0.08 0.592 0.081 0.592 C 0.081 0.592 0.081 0.593 0.08 0.595 C 0.078 0.596 0.079 0.597 0.082 0.597 C 0.085 0.596 0.085 0.595 0.084 0.591 C 0.082 0.586 0.082 0.585 0.08 0.589 Z  M 0.088 0.611 C 0.093 0.622 0.093 0.624 0.091 0.627 C 0.09 0.628 0.089 0.627 0.089 0.626 C 0.089 0.62 0.084 0.626 0.079 0.641 C 0.076 0.649 0.072 0.656 0.072 0.656 C 0.069 0.656 0.061 0.669 0.062 0.672 C 0.063 0.673 0.062 0.672 0.06 0.669 C 0.057 0.664 0.053 0.668 0.053 0.676 C 0.053 0.679 0.054 0.681 0.055 0.682 C 0.056 0.683 0.056 0.683 0.055 0.683 C 0.049 0.683 0.047 0.684 0.045 0.697 C 0.043 0.704 0.043 0.71 0.043 0.712 C 0.044 0.713 0.042 0.718 0.04 0.723 C 0.037 0.728 0.036 0.736 0.035 0.745 C 0.034 0.759 0.031 0.767 0.028 0.762 C 0.025 0.758 0.026 0.738 0.029 0.724 C 0.032 0.71 0.031 0.699 0.027 0.709 C 0.027 0.711 0.026 0.711 0.024 0.709 C 0.023 0.707 0.022 0.707 0.021 0.709 C 0.019 0.715 0.015 0.712 0.016 0.705 C 0.017 0.702 0.018 0.698 0.018 0.696 C 0.018 0.695 0.019 0.69 0.019 0.685 C 0.02 0.681 0.021 0.675 0.021 0.673 C 0.023 0.663 0.023 0.652 0.02 0.648 C 0.018 0.646 0.017 0.642 0.017 0.639 C 0.017 0.633 0.011 0.63 0.011 0.636 C 0.011 0.639 0.011 0.642 0.011 0.643 C 0.011 0.644 0.01 0.644 0.009 0.643 C 0.008 0.642 0.008 0.643 0.008 0.645 C 0.008 0.648 0.007 0.648 0.006 0.645 C 0.006 0.643 0.004 0.642 0.002 0.643 C 0 0.644 0 0.663 0 0.822 L 0.001 0.999 L 0.119 1 C 0.239 1 0.243 1 0.239 0.991 C 0.238 0.989 0.238 0.985 0.238 0.983 C 0.238 0.981 0.238 0.98 0.237 0.98 C 0.237 0.98 0.235 0.977 0.234 0.974 C 0.233 0.972 0.231 0.97 0.229 0.97 C 0.224 0.972 0.22 0.963 0.222 0.955 C 0.225 0.945 0.227 0.946 0.23 0.956 C 0.232 0.964 0.236 0.968 0.236 0.961 C 0.236 0.96 0.237 0.959 0.237 0.96 C 0.238 0.961 0.239 0.959 0.239 0.956 C 0.239 0.952 0.238 0.951 0.237 0.952 C 0.236 0.953 0.236 0.951 0.236 0.945 C 0.237 0.938 0.237 0.936 0.236 0.939 C 0.235 0.943 0.234 0.943 0.234 0.939 C 0.234 0.936 0.234 0.934 0.233 0.933 C 0.232 0.933 0.231 0.933 0.23 0.933 C 0.219 0.928 0.218 0.923 0.226 0.914 C 0.231 0.91 0.231 0.908 0.23 0.906 C 0.228 0.903 0.228 0.903 0.23 0.904 C 0.232 0.905 0.233 0.906 0.234 0.906 C 0.234 0.906 0.234 0.907 0.234 0.909 C 0.233 0.91 0.234 0.911 0.235 0.91 C 0.237 0.908 0.237 0.907 0.236 0.904 C 0.233 0.9 0.227 0.898 0.223 0.902 C 0.221 0.904 0.221 0.904 0.223 0.9 C 0.224 0.897 0.225 0.895 0.224 0.895 C 0.223 0.895 0.224 0.893 0.226 0.891 C 0.229 0.887 0.221 0.879 0.216 0.882 C 0.214 0.882 0.212 0.882 0.212 0.88 C 0.212 0.878 0.209 0.877 0.206 0.878 C 0.202 0.879 0.201 0.878 0.202 0.874 C 0.203 0.872 0.202 0.867 0.201 0.864 C 0.2 0.859 0.2 0.856 0.202 0.851 C 0.204 0.843 0.207 0.843 0.205 0.851 C 0.205 0.854 0.205 0.858 0.206 0.86 C 0.207 0.862 0.208 0.867 0.207 0.87 C 0.207 0.873 0.207 0.875 0.208 0.875 C 0.21 0.875 0.211 0.858 0.209 0.854 C 0.208 0.851 0.208 0.849 0.209 0.847 C 0.212 0.842 0.211 0.84 0.205 0.84 C 0.201 0.84 0.198 0.841 0.198 0.842 C 0.198 0.846 0.194 0.846 0.193 0.842 C 0.192 0.84 0.193 0.839 0.193 0.84 C 0.196 0.841 0.197 0.839 0.195 0.835 C 0.193 0.833 0.192 0.831 0.191 0.832 C 0.189 0.834 0.19 0.826 0.193 0.819 C 0.196 0.811 0.194 0.803 0.19 0.806 C 0.187 0.809 0.177 0.802 0.175 0.796 C 0.175 0.794 0.174 0.793 0.173 0.794 C 0.173 0.794 0.172 0.793 0.172 0.79 C 0.172 0.786 0.172 0.786 0.17 0.789 C 0.169 0.792 0.169 0.792 0.169 0.786 C 0.17 0.781 0.17 0.778 0.169 0.778 C 0.168 0.778 0.167 0.777 0.168 0.775 C 0.169 0.774 0.168 0.773 0.167 0.773 C 0.166 0.773 0.166 0.771 0.166 0.769 C 0.167 0.766 0.166 0.764 0.165 0.763 C 0.164 0.762 0.164 0.761 0.165 0.759 C 0.166 0.757 0.167 0.754 0.166 0.751 C 0.166 0.749 0.166 0.748 0.167 0.748 C 0.168 0.748 0.169 0.745 0.169 0.743 C 0.169 0.74 0.17 0.736 0.172 0.734 C 0.175 0.731 0.175 0.731 0.174 0.734 C 0.173 0.737 0.173 0.737 0.175 0.735 C 0.176 0.732 0.176 0.73 0.175 0.726 C 0.174 0.724 0.174 0.723 0.173 0.725 C 0.173 0.727 0.173 0.728 0.172 0.728 C 0.171 0.728 0.171 0.727 0.171 0.725 C 0.172 0.724 0.171 0.72 0.169 0.717 C 0.166 0.713 0.166 0.712 0.168 0.71 C 0.169 0.709 0.169 0.708 0.168 0.707 C 0.167 0.706 0.166 0.704 0.166 0.703 C 0.166 0.701 0.166 0.701 0.167 0.702 C 0.169 0.703 0.169 0.703 0.168 0.7 C 0.168 0.697 0.168 0.695 0.169 0.694 C 0.171 0.693 0.171 0.692 0.169 0.689 C 0.168 0.686 0.168 0.684 0.168 0.683 C 0.169 0.682 0.168 0.681 0.167 0.681 C 0.166 0.681 0.166 0.679 0.166 0.677 C 0.167 0.674 0.166 0.673 0.165 0.674 C 0.164 0.675 0.162 0.674 0.162 0.672 C 0.161 0.67 0.161 0.67 0.162 0.671 C 0.165 0.674 0.164 0.665 0.161 0.661 C 0.159 0.658 0.159 0.658 0.161 0.662 C 0.162 0.666 0.162 0.667 0.16 0.666 C 0.156 0.666 0.153 0.659 0.156 0.659 C 0.158 0.659 0.158 0.657 0.156 0.655 C 0.155 0.652 0.153 0.65 0.152 0.65 C 0.151 0.65 0.15 0.649 0.149 0.647 C 0.148 0.645 0.146 0.641 0.144 0.64 C 0.142 0.638 0.141 0.635 0.141 0.634 C 0.143 0.629 0.135 0.633 0.133 0.638 C 0.132 0.641 0.131 0.642 0.131 0.639 C 0.131 0.637 0.131 0.636 0.13 0.638 C 0.129 0.639 0.13 0.641 0.132 0.643 C 0.134 0.646 0.134 0.648 0.133 0.649 C 0.131 0.651 0.134 0.661 0.137 0.661 C 0.138 0.661 0.139 0.663 0.138 0.665 C 0.138 0.668 0.139 0.671 0.141 0.673 C 0.144 0.676 0.144 0.675 0.141 0.671 C 0.14 0.669 0.139 0.667 0.14 0.667 C 0.143 0.667 0.145 0.673 0.145 0.682 C 0.145 0.689 0.145 0.69 0.144 0.686 C 0.142 0.683 0.142 0.684 0.142 0.689 C 0.143 0.693 0.142 0.698 0.142 0.699 C 0.137 0.714 0.14 0.721 0.149 0.716 C 0.152 0.714 0.153 0.715 0.154 0.721 C 0.154 0.725 0.156 0.728 0.156 0.728 C 0.157 0.728 0.158 0.726 0.157 0.723 C 0.157 0.719 0.157 0.717 0.159 0.717 C 0.16 0.717 0.161 0.716 0.161 0.714 C 0.161 0.712 0.161 0.711 0.162 0.712 C 0.163 0.714 0.158 0.731 0.157 0.731 C 0.156 0.731 0.154 0.728 0.152 0.725 C 0.15 0.722 0.148 0.72 0.147 0.721 C 0.147 0.721 0.146 0.732 0.145 0.737 C 0.145 0.738 0.144 0.739 0.142 0.739 C 0.14 0.739 0.139 0.738 0.14 0.737 C 0.141 0.732 0.133 0.719 0.13 0.721 C 0.128 0.721 0.126 0.721 0.126 0.719 C 0.125 0.717 0.125 0.717 0.127 0.718 C 0.128 0.72 0.128 0.72 0.127 0.717 C 0.127 0.716 0.125 0.714 0.123 0.714 C 0.122 0.714 0.12 0.713 0.12 0.711 C 0.12 0.71 0.121 0.709 0.122 0.71 C 0.124 0.712 0.124 0.712 0.122 0.709 C 0.121 0.706 0.12 0.706 0.118 0.708 C 0.117 0.71 0.116 0.711 0.115 0.711 C 0.114 0.711 0.114 0.71 0.116 0.709 C 0.118 0.706 0.116 0.704 0.112 0.706 C 0.11 0.706 0.106 0.7 0.107 0.697 C 0.108 0.695 0.107 0.693 0.106 0.692 C 0.104 0.69 0.104 0.689 0.106 0.689 C 0.107 0.689 0.108 0.688 0.107 0.687 C 0.106 0.683 0.113 0.673 0.116 0.675 C 0.117 0.675 0.116 0.674 0.114 0.671 C 0.112 0.669 0.111 0.666 0.112 0.664 C 0.113 0.661 0.108 0.659 0.104 0.661 C 0.099 0.665 0.098 0.679 0.102 0.682 C 0.107 0.685 0.103 0.689 0.097 0.689 C 0.091 0.689 0.087 0.681 0.091 0.676 C 0.092 0.675 0.092 0.671 0.092 0.667 C 0.091 0.662 0.091 0.659 0.093 0.658 C 0.094 0.657 0.094 0.655 0.093 0.652 C 0.092 0.649 0.092 0.645 0.092 0.644 C 0.091 0.642 0.09 0.641 0.089 0.64 C 0.086 0.64 0.086 0.641 0.088 0.645 C 0.088 0.648 0.09 0.65 0.091 0.65 C 0.093 0.65 0.092 0.654 0.089 0.661 C 0.087 0.665 0.085 0.671 0.085 0.675 C 0.085 0.679 0.084 0.683 0.083 0.683 C 0.082 0.683 0.082 0.682 0.082 0.681 C 0.083 0.679 0.081 0.678 0.079 0.677 C 0.077 0.676 0.075 0.674 0.075 0.672 C 0.075 0.671 0.076 0.67 0.077 0.671 C 0.078 0.672 0.078 0.669 0.078 0.662 C 0.077 0.655 0.078 0.65 0.078 0.65 C 0.079 0.65 0.08 0.647 0.081 0.643 C 0.081 0.64 0.082 0.637 0.083 0.638 C 0.084 0.639 0.084 0.639 0.084 0.637 C 0.083 0.635 0.084 0.633 0.086 0.632 C 0.088 0.631 0.089 0.631 0.09 0.631 C 0.094 0.646 0.096 0.645 0.096 0.631 C 0.095 0.61 0.095 0.606 0.092 0.607 C 0.09 0.608 0.089 0.607 0.09 0.605 C 0.09 0.603 0.089 0.601 0.087 0.601 C 0.085 0.601 0.085 0.602 0.088 0.611 Z  M 0.118 0.628 C 0.119 0.638 0.119 0.638 0.124 0.633 C 0.128 0.63 0.128 0.628 0.126 0.628 C 0.125 0.628 0.123 0.627 0.123 0.626 C 0.123 0.624 0.122 0.623 0.12 0.622 C 0.117 0.62 0.117 0.621 0.118 0.628 Z  M 0.061 0.649 C 0.06 0.656 0.06 0.666 0.062 0.665 C 0.064 0.663 0.066 0.657 0.065 0.652 C 0.064 0.648 0.061 0.646 0.061 0.649 Z  M 0.126 0.652 C 0.122 0.66 0.122 0.668 0.126 0.669 C 0.128 0.67 0.13 0.669 0.13 0.667 C 0.13 0.665 0.131 0.664 0.133 0.665 C 0.135 0.666 0.136 0.665 0.135 0.664 C 0.134 0.662 0.133 0.662 0.131 0.662 C 0.129 0.663 0.128 0.662 0.128 0.66 C 0.128 0.658 0.129 0.656 0.13 0.656 C 0.132 0.656 0.131 0.655 0.13 0.653 C 0.128 0.651 0.128 0.651 0.13 0.65 C 0.131 0.649 0.131 0.648 0.13 0.648 C 0.129 0.648 0.128 0.65 0.126 0.652 Z  M 0.116 0.677 C 0.114 0.681 0.111 0.683 0.11 0.682 C 0.109 0.681 0.111 0.683 0.113 0.688 C 0.121 0.703 0.129 0.696 0.125 0.677 C 0.123 0.668 0.121 0.668 0.116 0.677 Z  M 0.091 0.71 C 0.091 0.712 0.089 0.714 0.087 0.714 C 0.085 0.714 0.084 0.714 0.086 0.71 C 0.087 0.708 0.088 0.706 0.089 0.706 C 0.09 0.706 0.091 0.708 0.091 0.71 Z  M 0.616 0.742 C 0.608 0.748 0.611 0.762 0.619 0.759 C 0.623 0.758 0.625 0.753 0.622 0.753 C 0.621 0.753 0.62 0.751 0.62 0.748 C 0.62 0.744 0.621 0.742 0.624 0.742 C 0.625 0.742 0.627 0.741 0.627 0.74 C 0.627 0.736 0.621 0.737 0.616 0.742 Z  M 0.19 0.754 C 0.189 0.757 0.188 0.761 0.189 0.763 C 0.19 0.767 0.19 0.778 0.189 0.78 C 0.188 0.781 0.188 0.782 0.188 0.784 C 0.188 0.789 0.191 0.786 0.197 0.777 C 0.2 0.771 0.202 0.767 0.202 0.767 C 0.201 0.767 0.2 0.766 0.2 0.764 C 0.2 0.763 0.201 0.762 0.202 0.763 C 0.204 0.764 0.204 0.764 0.204 0.761 C 0.203 0.758 0.201 0.755 0.2 0.754 C 0.197 0.753 0.197 0.752 0.199 0.75 C 0.2 0.749 0.2 0.748 0.199 0.748 C 0.198 0.748 0.197 0.749 0.195 0.751 C 0.194 0.754 0.194 0.754 0.194 0.751 C 0.196 0.745 0.193 0.747 0.19 0.754 Z  M 0.579 0.775 C 0.577 0.778 0.578 0.784 0.582 0.789 C 0.586 0.796 0.593 0.787 0.589 0.78 C 0.587 0.776 0.58 0.772 0.579 0.775 Z  M 0.569 0.785 C 0.569 0.788 0.573 0.795 0.576 0.795 C 0.576 0.795 0.576 0.792 0.576 0.788 C 0.576 0.782 0.575 0.781 0.573 0.781 C 0.57 0.781 0.569 0.783 0.569 0.785 Z  M 0.178 0.791 C 0.177 0.793 0.177 0.796 0.177 0.797 C 0.179 0.799 0.183 0.794 0.183 0.791 C 0.183 0.786 0.181 0.786 0.178 0.791 Z  M 0.169 0.813 C 0.171 0.82 0.171 0.822 0.166 0.825 C 0.161 0.828 0.158 0.825 0.16 0.819 C 0.164 0.808 0.168 0.806 0.169 0.813 Z  M 0.182 0.829 C 0.183 0.834 0.179 0.832 0.177 0.826 C 0.177 0.824 0.177 0.823 0.179 0.823 C 0.181 0.824 0.182 0.826 0.182 0.829 Z  M 0.245 0.939 C 0.242 0.944 0.242 0.944 0.245 0.946 C 0.249 0.949 0.252 0.944 0.249 0.939 C 0.247 0.934 0.247 0.934 0.245 0.939 Z " fill-rule="evenodd" fill="rgb(0,0,0)"/></g></g></svg>