<?xml version="1.0" encoding="UTF-8" standalone="no"?><!-- Generator: Gravit.io --><svg xmlns="http://www.w3.org/2000/svg" xmlns:xlink="http://www.w3.org/1999/xlink" style="isolation:isolate" viewBox="0 0 1 1" width="1pt" height="1pt"><defs><clipPath id="_clipPath_HwG5rakJMlASdoH0qPXxAhIsirXcxow8"><rect width="1" height="1"/></clipPath></defs><g clip-path="url(#_clipPath_HwG5rakJMlASdoH0qPXxAhIsirXcxow8)"><g><path d=" M 0.001 0.002 C -0.001 0.006 0 0.36 0.003 0.366 C 0.004 0.369 0.005 0.37 0.005 0.368 C 0.004 0.36 0.007 0.347 0.009 0.349 C 0.011 0.349 0.013 0.349 0.014 0.347 C 0.016 0.346 0.016 0.345 0.015 0.345 C 0.014 0.345 0.013 0.343 0.014 0.34 C 0.015 0.336 0.014 0.336 0.011 0.337 C 0.008 0.338 0.007 0.337 0.007 0.335 C 0.008 0.33 0.013 0.331 0.015 0.336 C 0.016 0.339 0.017 0.339 0.018 0.335 C 0.02 0.33 0.026 0.331 0.025 0.336 C 0.024 0.338 0.024 0.339 0.025 0.34 C 0.027 0.342 0.026 0.361 0.024 0.364 C 0.024 0.365 0.023 0.363 0.022 0.361 C 0.021 0.358 0.019 0.356 0.018 0.356 C 0.017 0.356 0.016 0.354 0.015 0.352 C 0.015 0.35 0.015 0.35 0.014 0.352 C 0.014 0.354 0.015 0.357 0.017 0.358 C 0.02 0.36 0.02 0.365 0.016 0.369 C 0.012 0.374 0.015 0.384 0.02 0.384 C 0.023 0.384 0.024 0.381 0.024 0.37 C 0.024 0.369 0.025 0.366 0.027 0.365 C 0.029 0.364 0.03 0.362 0.03 0.36 C 0.03 0.355 0.042 0.347 0.045 0.35 C 0.049 0.354 0.051 0.354 0.049 0.35 C 0.049 0.348 0.049 0.347 0.052 0.348 C 0.055 0.35 0.057 0.348 0.062 0.336 C 0.067 0.323 0.068 0.322 0.074 0.324 C 0.078 0.325 0.08 0.324 0.08 0.321 C 0.08 0.319 0.081 0.316 0.082 0.315 C 0.085 0.311 0.089 0.3 0.088 0.296 C 0.088 0.294 0.088 0.292 0.089 0.292 C 0.09 0.292 0.091 0.292 0.092 0.292 C 0.093 0.292 0.093 0.293 0.093 0.294 C 0.095 0.306 0.097 0.312 0.099 0.306 C 0.1 0.304 0.101 0.304 0.102 0.304 C 0.103 0.305 0.104 0.301 0.104 0.296 C 0.105 0.288 0.106 0.286 0.109 0.286 C 0.114 0.286 0.12 0.28 0.12 0.272 C 0.121 0.263 0.127 0.253 0.128 0.26 C 0.128 0.262 0.128 0.266 0.127 0.268 C 0.126 0.271 0.125 0.273 0.126 0.274 C 0.127 0.277 0.135 0.27 0.134 0.267 C 0.133 0.265 0.132 0.265 0.131 0.266 C 0.131 0.266 0.13 0.264 0.13 0.26 C 0.13 0.256 0.131 0.253 0.131 0.253 C 0.132 0.253 0.133 0.25 0.134 0.246 C 0.135 0.239 0.14 0.235 0.141 0.24 C 0.142 0.244 0.146 0.237 0.148 0.227 C 0.15 0.221 0.15 0.22 0.148 0.22 C 0.147 0.22 0.146 0.217 0.147 0.212 C 0.147 0.206 0.147 0.205 0.145 0.207 C 0.144 0.208 0.142 0.207 0.142 0.206 C 0.142 0.205 0.141 0.203 0.139 0.202 C 0.136 0.201 0.136 0.2 0.137 0.197 C 0.14 0.192 0.14 0.183 0.137 0.183 C 0.136 0.183 0.136 0.182 0.138 0.181 C 0.139 0.179 0.142 0.179 0.144 0.18 C 0.152 0.185 0.159 0.175 0.154 0.166 C 0.151 0.161 0.152 0.151 0.156 0.145 C 0.16 0.138 0.163 0.139 0.163 0.147 C 0.163 0.152 0.164 0.153 0.171 0.153 C 0.18 0.153 0.18 0.153 0.181 0.161 C 0.182 0.169 0.182 0.17 0.184 0.164 C 0.185 0.161 0.187 0.158 0.188 0.158 C 0.19 0.158 0.191 0.156 0.191 0.152 C 0.191 0.149 0.192 0.146 0.193 0.147 C 0.193 0.147 0.196 0.147 0.199 0.147 C 0.203 0.147 0.204 0.148 0.203 0.154 C 0.202 0.162 0.207 0.165 0.209 0.157 C 0.209 0.155 0.211 0.153 0.212 0.153 C 0.213 0.154 0.214 0.153 0.214 0.151 C 0.214 0.15 0.213 0.149 0.212 0.149 C 0.211 0.149 0.21 0.145 0.209 0.14 C 0.208 0.127 0.208 0.122 0.21 0.124 C 0.21 0.125 0.212 0.123 0.213 0.12 C 0.214 0.116 0.216 0.114 0.219 0.114 C 0.224 0.114 0.227 0.107 0.224 0.103 C 0.223 0.102 0.222 0.098 0.223 0.095 C 0.223 0.092 0.223 0.089 0.222 0.089 C 0.22 0.089 0.22 0.083 0.223 0.081 C 0.225 0.08 0.229 0.086 0.229 0.092 C 0.229 0.092 0.23 0.095 0.23 0.097 C 0.231 0.098 0.231 0.1 0.231 0.1 C 0.23 0.1 0.231 0.103 0.233 0.107 C 0.235 0.11 0.236 0.114 0.235 0.115 C 0.233 0.118 0.238 0.125 0.24 0.122 C 0.241 0.12 0.243 0.12 0.245 0.121 C 0.247 0.122 0.247 0.128 0.245 0.131 C 0.244 0.132 0.244 0.134 0.244 0.135 C 0.248 0.141 0.252 0.126 0.251 0.113 C 0.251 0.106 0.251 0.1 0.252 0.1 C 0.253 0.1 0.253 0.098 0.253 0.095 C 0.253 0.091 0.254 0.091 0.256 0.096 C 0.258 0.101 0.26 0.096 0.263 0.077 C 0.264 0.074 0.265 0.072 0.266 0.072 C 0.267 0.072 0.267 0.074 0.267 0.077 C 0.266 0.08 0.267 0.084 0.267 0.086 C 0.269 0.09 0.269 0.09 0.269 0.085 C 0.269 0.082 0.27 0.081 0.272 0.081 C 0.274 0.081 0.276 0.077 0.277 0.071 C 0.28 0.06 0.283 0.056 0.285 0.061 C 0.287 0.067 0.287 0.06 0.287 0.03 L 0.287 0 L 0.145 0 C 0.066 0 0.002 0.001 0.001 0.002 Z  M 0.712 0.003 C 0.712 0.004 0.712 0.007 0.712 0.009 C 0.713 0.012 0.712 0.014 0.711 0.014 C 0.71 0.014 0.71 0.015 0.71 0.017 C 0.71 0.019 0.71 0.023 0.71 0.026 C 0.708 0.032 0.709 0.032 0.718 0.033 C 0.729 0.034 0.731 0.036 0.729 0.046 C 0.726 0.069 0.729 0.092 0.734 0.086 C 0.736 0.084 0.737 0.094 0.736 0.101 C 0.735 0.11 0.736 0.117 0.74 0.117 C 0.741 0.117 0.742 0.12 0.743 0.125 C 0.744 0.133 0.744 0.133 0.751 0.133 C 0.756 0.133 0.758 0.135 0.759 0.138 C 0.76 0.142 0.768 0.143 0.769 0.139 C 0.77 0.137 0.773 0.135 0.776 0.135 C 0.782 0.135 0.783 0.135 0.781 0.142 C 0.78 0.146 0.779 0.15 0.778 0.15 C 0.776 0.149 0.775 0.151 0.777 0.153 C 0.778 0.155 0.778 0.157 0.775 0.162 C 0.772 0.166 0.771 0.171 0.771 0.173 C 0.771 0.174 0.77 0.175 0.769 0.173 C 0.767 0.172 0.767 0.172 0.769 0.176 C 0.77 0.178 0.77 0.181 0.769 0.182 C 0.769 0.183 0.769 0.183 0.77 0.182 C 0.771 0.181 0.772 0.179 0.771 0.177 C 0.77 0.175 0.771 0.175 0.773 0.176 C 0.774 0.177 0.775 0.177 0.774 0.175 C 0.773 0.171 0.776 0.172 0.778 0.176 C 0.78 0.179 0.78 0.178 0.779 0.175 C 0.778 0.173 0.78 0.174 0.782 0.178 C 0.784 0.182 0.788 0.188 0.79 0.191 C 0.793 0.195 0.794 0.197 0.793 0.196 C 0.792 0.195 0.791 0.197 0.791 0.201 C 0.791 0.205 0.79 0.208 0.789 0.208 C 0.788 0.208 0.788 0.21 0.788 0.212 C 0.788 0.214 0.789 0.212 0.791 0.209 C 0.793 0.205 0.794 0.204 0.794 0.205 C 0.794 0.211 0.798 0.209 0.802 0.202 C 0.806 0.196 0.814 0.188 0.811 0.193 C 0.81 0.194 0.81 0.198 0.811 0.2 C 0.812 0.204 0.812 0.207 0.808 0.214 C 0.8 0.228 0.802 0.253 0.811 0.253 C 0.814 0.253 0.814 0.256 0.815 0.265 C 0.815 0.279 0.822 0.283 0.823 0.27 C 0.824 0.267 0.823 0.264 0.822 0.264 C 0.819 0.264 0.825 0.25 0.83 0.248 C 0.835 0.245 0.836 0.246 0.844 0.256 C 0.849 0.262 0.853 0.266 0.854 0.265 C 0.855 0.264 0.855 0.265 0.855 0.266 C 0.855 0.269 0.856 0.269 0.858 0.267 C 0.865 0.26 0.869 0.259 0.87 0.262 C 0.871 0.264 0.87 0.264 0.869 0.263 C 0.868 0.261 0.867 0.262 0.868 0.264 C 0.869 0.266 0.871 0.264 0.874 0.259 C 0.879 0.248 0.882 0.248 0.881 0.258 C 0.879 0.27 0.879 0.28 0.88 0.279 C 0.881 0.279 0.881 0.281 0.881 0.286 C 0.881 0.29 0.882 0.293 0.883 0.294 C 0.885 0.295 0.883 0.306 0.881 0.306 C 0.879 0.306 0.88 0.313 0.882 0.317 C 0.884 0.32 0.885 0.32 0.888 0.316 C 0.891 0.31 0.894 0.31 0.893 0.316 C 0.893 0.319 0.895 0.321 0.898 0.321 C 0.902 0.322 0.903 0.321 0.902 0.318 C 0.902 0.316 0.901 0.315 0.9 0.316 C 0.899 0.317 0.899 0.315 0.899 0.311 C 0.899 0.304 0.901 0.304 0.903 0.312 C 0.905 0.32 0.91 0.325 0.911 0.32 C 0.912 0.316 0.919 0.316 0.92 0.321 C 0.92 0.323 0.919 0.33 0.918 0.336 C 0.915 0.346 0.915 0.35 0.916 0.353 C 0.918 0.356 0.918 0.356 0.916 0.354 C 0.915 0.353 0.914 0.353 0.915 0.355 C 0.916 0.359 0.921 0.36 0.921 0.356 C 0.921 0.353 0.928 0.354 0.929 0.357 C 0.93 0.358 0.93 0.359 0.929 0.357 C 0.927 0.356 0.927 0.356 0.927 0.358 C 0.928 0.36 0.93 0.361 0.932 0.361 C 0.933 0.361 0.935 0.363 0.935 0.364 C 0.936 0.366 0.937 0.367 0.938 0.367 C 0.939 0.367 0.939 0.366 0.939 0.364 C 0.937 0.359 0.939 0.361 0.943 0.367 C 0.945 0.372 0.947 0.373 0.953 0.372 C 0.961 0.37 0.963 0.375 0.959 0.387 C 0.956 0.395 0.959 0.414 0.963 0.41 C 0.964 0.409 0.964 0.41 0.964 0.411 C 0.964 0.413 0.967 0.415 0.969 0.416 C 0.973 0.418 0.975 0.421 0.976 0.427 C 0.977 0.434 0.978 0.437 0.981 0.438 C 0.989 0.441 0.989 0.442 0.989 0.449 C 0.989 0.452 0.99 0.457 0.991 0.458 C 0.993 0.459 0.994 0.463 0.995 0.466 C 1 0.482 1 0.469 1 0.237 L 0.999 0.001 L 0.856 0.001 C 0.775 0 0.712 0.001 0.712 0.003 Z  M 0.524 0.123 C 0.524 0.126 0.521 0.129 0.516 0.131 C 0.512 0.134 0.509 0.137 0.508 0.141 C 0.507 0.145 0.506 0.146 0.503 0.145 C 0.502 0.145 0.499 0.145 0.498 0.147 C 0.497 0.149 0.495 0.149 0.493 0.148 C 0.492 0.147 0.491 0.148 0.491 0.15 C 0.491 0.156 0.485 0.153 0.479 0.145 C 0.475 0.138 0.474 0.137 0.472 0.14 C 0.471 0.142 0.47 0.142 0.469 0.139 C 0.468 0.137 0.467 0.136 0.465 0.137 C 0.464 0.138 0.461 0.136 0.458 0.132 C 0.454 0.125 0.453 0.125 0.451 0.128 C 0.449 0.131 0.448 0.131 0.449 0.129 C 0.45 0.126 0.449 0.125 0.446 0.125 C 0.444 0.125 0.442 0.127 0.442 0.129 C 0.442 0.132 0.443 0.133 0.444 0.132 C 0.445 0.131 0.445 0.133 0.444 0.136 C 0.444 0.141 0.443 0.142 0.438 0.14 C 0.434 0.14 0.431 0.14 0.431 0.142 C 0.431 0.143 0.428 0.145 0.425 0.145 C 0.417 0.145 0.4 0.15 0.398 0.153 C 0.397 0.155 0.395 0.156 0.392 0.156 C 0.39 0.156 0.387 0.159 0.385 0.162 C 0.381 0.169 0.375 0.174 0.372 0.173 C 0.371 0.172 0.371 0.174 0.371 0.176 C 0.372 0.179 0.371 0.181 0.371 0.181 C 0.369 0.181 0.367 0.177 0.369 0.174 C 0.372 0.165 0.37 0.151 0.366 0.155 C 0.364 0.157 0.361 0.158 0.359 0.157 C 0.358 0.156 0.356 0.157 0.356 0.158 C 0.356 0.16 0.355 0.161 0.352 0.162 C 0.348 0.163 0.348 0.164 0.35 0.173 C 0.35 0.177 0.35 0.178 0.347 0.178 C 0.344 0.178 0.342 0.18 0.342 0.185 C 0.341 0.189 0.34 0.192 0.339 0.192 C 0.338 0.192 0.338 0.194 0.338 0.196 C 0.339 0.198 0.34 0.202 0.34 0.204 C 0.341 0.206 0.34 0.208 0.339 0.209 C 0.337 0.21 0.337 0.209 0.337 0.205 C 0.338 0.197 0.332 0.19 0.329 0.195 C 0.328 0.197 0.326 0.197 0.324 0.195 C 0.321 0.192 0.321 0.192 0.321 0.195 C 0.321 0.196 0.32 0.197 0.319 0.196 C 0.318 0.195 0.316 0.196 0.313 0.198 C 0.309 0.201 0.308 0.202 0.302 0.202 C 0.298 0.203 0.299 0.211 0.303 0.217 C 0.307 0.223 0.305 0.225 0.297 0.225 C 0.295 0.225 0.289 0.229 0.284 0.233 C 0.279 0.238 0.274 0.242 0.273 0.242 C 0.272 0.242 0.268 0.245 0.265 0.249 L 0.259 0.256 L 0.258 0.248 C 0.258 0.238 0.257 0.237 0.253 0.243 C 0.251 0.245 0.248 0.246 0.246 0.246 C 0.244 0.245 0.242 0.246 0.241 0.249 C 0.24 0.253 0.239 0.253 0.239 0.25 C 0.239 0.248 0.239 0.247 0.238 0.248 C 0.238 0.249 0.236 0.249 0.236 0.248 C 0.234 0.246 0.233 0.247 0.231 0.249 C 0.229 0.251 0.228 0.253 0.229 0.253 C 0.23 0.253 0.231 0.255 0.231 0.257 C 0.231 0.259 0.23 0.261 0.229 0.261 C 0.228 0.261 0.226 0.262 0.224 0.263 C 0.221 0.264 0.22 0.264 0.222 0.262 C 0.226 0.257 0.222 0.258 0.218 0.263 C 0.215 0.267 0.215 0.268 0.216 0.272 C 0.218 0.275 0.218 0.276 0.216 0.277 C 0.215 0.278 0.215 0.28 0.215 0.281 C 0.216 0.284 0.221 0.284 0.22 0.281 C 0.22 0.275 0.221 0.27 0.223 0.27 C 0.224 0.27 0.225 0.268 0.226 0.266 C 0.226 0.264 0.227 0.263 0.227 0.264 C 0.228 0.265 0.227 0.268 0.226 0.271 C 0.225 0.273 0.224 0.277 0.224 0.279 C 0.225 0.281 0.225 0.281 0.225 0.279 C 0.225 0.277 0.227 0.275 0.229 0.275 C 0.236 0.275 0.233 0.284 0.222 0.294 C 0.213 0.303 0.209 0.304 0.213 0.296 C 0.214 0.293 0.214 0.292 0.21 0.29 C 0.205 0.287 0.204 0.291 0.207 0.296 C 0.208 0.297 0.207 0.3 0.206 0.303 C 0.204 0.306 0.205 0.307 0.206 0.305 C 0.211 0.302 0.213 0.31 0.209 0.314 C 0.207 0.315 0.205 0.319 0.205 0.321 C 0.205 0.323 0.204 0.325 0.203 0.326 C 0.202 0.326 0.202 0.329 0.201 0.333 C 0.201 0.336 0.201 0.338 0.2 0.338 C 0.198 0.336 0.194 0.339 0.193 0.344 C 0.193 0.346 0.193 0.347 0.194 0.346 C 0.195 0.345 0.195 0.346 0.193 0.35 C 0.188 0.36 0.186 0.364 0.187 0.364 C 0.188 0.364 0.188 0.365 0.187 0.366 C 0.184 0.37 0.178 0.387 0.179 0.389 C 0.18 0.391 0.179 0.392 0.178 0.392 C 0.177 0.392 0.177 0.393 0.178 0.396 C 0.179 0.398 0.18 0.4 0.179 0.401 C 0.177 0.404 0.177 0.414 0.178 0.416 C 0.179 0.417 0.179 0.419 0.178 0.422 C 0.177 0.427 0.177 0.441 0.179 0.456 C 0.179 0.46 0.182 0.465 0.184 0.468 C 0.186 0.471 0.188 0.475 0.188 0.477 C 0.188 0.479 0.188 0.481 0.189 0.481 C 0.19 0.482 0.193 0.488 0.196 0.496 C 0.202 0.509 0.207 0.517 0.216 0.532 C 0.218 0.535 0.219 0.536 0.218 0.533 C 0.215 0.527 0.216 0.527 0.219 0.532 C 0.221 0.534 0.224 0.537 0.226 0.538 C 0.233 0.54 0.236 0.542 0.236 0.544 C 0.235 0.546 0.237 0.546 0.24 0.545 C 0.243 0.545 0.246 0.546 0.246 0.547 C 0.247 0.55 0.248 0.55 0.25 0.547 C 0.251 0.545 0.252 0.545 0.254 0.548 C 0.255 0.551 0.259 0.552 0.261 0.552 C 0.264 0.552 0.266 0.552 0.266 0.554 C 0.266 0.555 0.267 0.556 0.268 0.555 C 0.271 0.554 0.279 0.564 0.277 0.567 C 0.277 0.569 0.275 0.567 0.272 0.564 C 0.267 0.558 0.267 0.558 0.257 0.562 C 0.251 0.565 0.244 0.567 0.241 0.567 C 0.239 0.567 0.236 0.568 0.235 0.57 C 0.235 0.572 0.235 0.573 0.236 0.571 C 0.237 0.57 0.238 0.572 0.237 0.579 C 0.237 0.588 0.244 0.594 0.246 0.586 C 0.247 0.585 0.248 0.584 0.249 0.585 C 0.249 0.586 0.252 0.585 0.254 0.584 C 0.257 0.582 0.259 0.582 0.261 0.584 C 0.262 0.586 0.267 0.588 0.272 0.588 C 0.277 0.589 0.282 0.589 0.284 0.589 C 0.29 0.589 0.294 0.595 0.292 0.599 C 0.29 0.605 0.294 0.607 0.304 0.605 C 0.314 0.603 0.325 0.61 0.325 0.619 C 0.325 0.623 0.326 0.625 0.329 0.627 C 0.332 0.628 0.333 0.63 0.333 0.634 C 0.333 0.636 0.335 0.643 0.338 0.647 C 0.34 0.652 0.342 0.657 0.342 0.66 C 0.342 0.662 0.343 0.664 0.344 0.665 C 0.346 0.666 0.345 0.668 0.344 0.673 C 0.341 0.681 0.343 0.708 0.347 0.715 C 0.35 0.721 0.352 0.719 0.351 0.712 C 0.35 0.709 0.351 0.706 0.351 0.705 C 0.352 0.704 0.353 0.709 0.353 0.715 C 0.353 0.722 0.354 0.728 0.356 0.73 C 0.36 0.736 0.361 0.758 0.357 0.763 C 0.354 0.768 0.354 0.771 0.359 0.776 C 0.365 0.781 0.368 0.786 0.366 0.788 C 0.36 0.794 0.37 0.799 0.377 0.793 C 0.38 0.792 0.381 0.789 0.38 0.789 C 0.379 0.787 0.38 0.764 0.382 0.764 C 0.382 0.764 0.384 0.765 0.386 0.767 C 0.391 0.77 0.402 0.787 0.399 0.787 C 0.398 0.787 0.397 0.788 0.398 0.79 C 0.399 0.791 0.399 0.792 0.4 0.791 C 0.4 0.79 0.402 0.791 0.403 0.794 C 0.405 0.797 0.407 0.797 0.407 0.795 C 0.409 0.79 0.411 0.795 0.41 0.802 C 0.41 0.807 0.41 0.809 0.412 0.809 C 0.413 0.809 0.414 0.808 0.414 0.806 C 0.413 0.805 0.413 0.803 0.414 0.802 C 0.415 0.801 0.416 0.801 0.416 0.802 C 0.415 0.81 0.416 0.817 0.419 0.82 C 0.422 0.823 0.422 0.823 0.422 0.818 C 0.421 0.815 0.422 0.813 0.423 0.813 C 0.424 0.813 0.425 0.815 0.425 0.817 C 0.425 0.82 0.426 0.821 0.427 0.818 C 0.428 0.814 0.439 0.811 0.439 0.815 C 0.439 0.816 0.44 0.816 0.442 0.815 C 0.443 0.815 0.445 0.816 0.446 0.82 C 0.448 0.825 0.448 0.825 0.451 0.821 C 0.454 0.816 0.454 0.816 0.453 0.826 C 0.452 0.832 0.452 0.834 0.453 0.831 C 0.454 0.829 0.455 0.828 0.456 0.829 C 0.457 0.83 0.458 0.828 0.458 0.824 C 0.459 0.82 0.459 0.816 0.458 0.816 C 0.45 0.806 0.474 0.803 0.515 0.807 C 0.525 0.808 0.527 0.809 0.53 0.815 L 0.534 0.823 L 0.536 0.815 C 0.537 0.811 0.539 0.807 0.539 0.806 C 0.539 0.806 0.541 0.807 0.542 0.81 C 0.545 0.815 0.546 0.815 0.55 0.811 C 0.553 0.808 0.556 0.806 0.556 0.806 C 0.557 0.806 0.559 0.826 0.558 0.829 C 0.558 0.832 0.56 0.831 0.563 0.828 C 0.566 0.823 0.57 0.811 0.569 0.807 C 0.569 0.805 0.57 0.803 0.571 0.802 C 0.573 0.801 0.574 0.799 0.574 0.798 C 0.574 0.791 0.583 0.779 0.594 0.773 C 0.597 0.771 0.603 0.764 0.607 0.756 C 0.612 0.748 0.616 0.742 0.618 0.742 C 0.62 0.742 0.623 0.74 0.624 0.738 C 0.626 0.736 0.629 0.734 0.63 0.734 C 0.634 0.734 0.638 0.727 0.641 0.716 C 0.642 0.712 0.644 0.709 0.646 0.709 C 0.648 0.709 0.65 0.706 0.652 0.702 C 0.654 0.698 0.657 0.695 0.658 0.695 C 0.659 0.695 0.659 0.693 0.659 0.691 C 0.658 0.689 0.661 0.682 0.664 0.676 C 0.668 0.669 0.67 0.662 0.67 0.661 C 0.669 0.65 0.677 0.615 0.681 0.612 C 0.682 0.612 0.683 0.607 0.683 0.602 C 0.683 0.597 0.684 0.59 0.686 0.586 C 0.688 0.582 0.689 0.577 0.689 0.576 C 0.689 0.571 0.695 0.572 0.696 0.576 C 0.696 0.578 0.697 0.571 0.696 0.561 C 0.696 0.544 0.696 0.542 0.699 0.541 C 0.702 0.54 0.702 0.539 0.701 0.536 C 0.695 0.525 0.703 0.515 0.71 0.524 C 0.713 0.527 0.714 0.528 0.714 0.526 C 0.713 0.525 0.714 0.522 0.714 0.52 C 0.716 0.516 0.716 0.516 0.716 0.52 C 0.716 0.526 0.72 0.524 0.721 0.518 C 0.722 0.516 0.721 0.515 0.72 0.516 C 0.72 0.517 0.72 0.515 0.721 0.512 C 0.723 0.505 0.72 0.498 0.716 0.498 C 0.714 0.498 0.714 0.498 0.716 0.501 C 0.718 0.503 0.718 0.503 0.715 0.502 C 0.713 0.502 0.711 0.504 0.708 0.509 C 0.707 0.512 0.705 0.514 0.705 0.512 C 0.705 0.51 0.704 0.509 0.703 0.509 C 0.703 0.509 0.702 0.51 0.702 0.512 C 0.702 0.514 0.701 0.516 0.699 0.516 C 0.696 0.516 0.697 0.513 0.7 0.499 C 0.703 0.486 0.711 0.47 0.714 0.47 C 0.715 0.47 0.716 0.467 0.717 0.464 C 0.717 0.461 0.718 0.459 0.719 0.459 C 0.72 0.459 0.721 0.453 0.721 0.447 C 0.721 0.441 0.723 0.432 0.725 0.428 C 0.727 0.423 0.728 0.417 0.728 0.415 C 0.727 0.412 0.727 0.402 0.726 0.392 C 0.725 0.37 0.723 0.359 0.717 0.342 C 0.715 0.335 0.712 0.324 0.711 0.318 C 0.709 0.307 0.701 0.289 0.691 0.27 C 0.688 0.265 0.686 0.26 0.687 0.258 C 0.688 0.257 0.687 0.256 0.686 0.256 C 0.684 0.256 0.683 0.254 0.682 0.251 C 0.682 0.249 0.681 0.248 0.68 0.249 C 0.678 0.25 0.674 0.233 0.675 0.23 C 0.675 0.229 0.675 0.226 0.674 0.224 C 0.672 0.221 0.672 0.218 0.674 0.214 C 0.675 0.208 0.675 0.208 0.671 0.209 C 0.668 0.21 0.666 0.209 0.666 0.208 C 0.666 0.206 0.665 0.206 0.664 0.207 C 0.664 0.208 0.663 0.207 0.662 0.204 C 0.661 0.199 0.655 0.194 0.653 0.197 C 0.652 0.198 0.65 0.199 0.648 0.199 C 0.644 0.198 0.635 0.189 0.638 0.189 C 0.639 0.189 0.639 0.188 0.639 0.187 C 0.638 0.186 0.637 0.187 0.635 0.189 C 0.633 0.193 0.629 0.188 0.631 0.183 C 0.631 0.182 0.631 0.181 0.63 0.181 C 0.629 0.181 0.629 0.18 0.629 0.178 C 0.63 0.177 0.628 0.176 0.627 0.177 C 0.625 0.178 0.623 0.177 0.622 0.175 C 0.621 0.172 0.62 0.172 0.618 0.175 C 0.614 0.181 0.611 0.181 0.603 0.177 C 0.599 0.175 0.593 0.172 0.589 0.171 C 0.585 0.17 0.581 0.167 0.579 0.165 C 0.576 0.162 0.571 0.16 0.564 0.16 C 0.557 0.16 0.553 0.159 0.552 0.156 C 0.551 0.152 0.544 0.152 0.544 0.155 C 0.544 0.157 0.541 0.158 0.538 0.157 C 0.533 0.157 0.532 0.156 0.533 0.152 C 0.535 0.148 0.534 0.133 0.532 0.125 C 0.531 0.12 0.524 0.118 0.524 0.123 Z  M 0.174 0.133 C 0.174 0.136 0.172 0.138 0.17 0.138 C 0.167 0.138 0.166 0.137 0.168 0.133 C 0.168 0.13 0.17 0.128 0.171 0.128 C 0.173 0.128 0.174 0.13 0.174 0.133 Z  M 0.576 0.14 C 0.574 0.143 0.574 0.144 0.574 0.145 C 0.575 0.145 0.578 0.145 0.58 0.146 C 0.583 0.147 0.584 0.147 0.582 0.141 C 0.581 0.135 0.58 0.135 0.576 0.14 Z  M 0.218 0.149 C 0.218 0.153 0.218 0.156 0.219 0.156 C 0.221 0.156 0.221 0.145 0.219 0.144 C 0.219 0.143 0.218 0.145 0.218 0.149 Z  M 0.211 0.163 C 0.208 0.164 0.207 0.185 0.21 0.191 C 0.212 0.195 0.214 0.187 0.214 0.179 C 0.213 0.173 0.213 0.17 0.215 0.169 C 0.217 0.167 0.218 0.161 0.216 0.162 C 0.216 0.162 0.213 0.163 0.211 0.163 Z  M 0.827 0.2 C 0.826 0.203 0.824 0.205 0.82 0.205 C 0.817 0.205 0.816 0.204 0.817 0.204 C 0.818 0.203 0.819 0.201 0.819 0.199 C 0.819 0.196 0.821 0.195 0.824 0.195 C 0.828 0.195 0.828 0.195 0.827 0.2 Z  M 0.15 0.213 C 0.15 0.217 0.151 0.217 0.153 0.214 C 0.154 0.212 0.155 0.21 0.155 0.21 C 0.155 0.209 0.154 0.208 0.153 0.208 C 0.151 0.208 0.15 0.21 0.15 0.213 Z  M 0.229 0.238 C 0.229 0.24 0.228 0.241 0.227 0.24 C 0.226 0.239 0.226 0.241 0.226 0.243 C 0.227 0.246 0.228 0.247 0.228 0.245 C 0.229 0.244 0.231 0.243 0.233 0.243 C 0.238 0.244 0.238 0.244 0.235 0.238 C 0.232 0.232 0.231 0.232 0.229 0.238 Z  M 0.822 0.255 C 0.822 0.257 0.821 0.258 0.821 0.257 C 0.82 0.256 0.819 0.257 0.819 0.259 C 0.819 0.261 0.818 0.261 0.817 0.257 C 0.815 0.253 0.815 0.251 0.816 0.248 C 0.818 0.244 0.822 0.248 0.822 0.255 Z  M 0.137 0.253 C 0.134 0.258 0.136 0.273 0.139 0.272 C 0.14 0.271 0.142 0.269 0.142 0.266 C 0.142 0.263 0.143 0.259 0.145 0.257 C 0.146 0.255 0.147 0.253 0.147 0.251 C 0.147 0.247 0.14 0.248 0.137 0.253 Z  M 0.125 0.297 C 0.124 0.299 0.124 0.301 0.124 0.305 C 0.125 0.309 0.126 0.309 0.126 0.306 C 0.127 0.303 0.128 0.301 0.129 0.3 C 0.131 0.297 0.128 0.295 0.125 0.297 Z  M 0.088 0.536 C 0.088 0.537 0.087 0.538 0.086 0.539 C 0.081 0.539 0.078 0.541 0.076 0.545 C 0.075 0.547 0.075 0.548 0.076 0.547 C 0.077 0.546 0.079 0.547 0.08 0.551 C 0.083 0.556 0.083 0.556 0.084 0.551 C 0.084 0.548 0.084 0.553 0.084 0.562 C 0.084 0.571 0.083 0.58 0.083 0.582 C 0.082 0.584 0.081 0.584 0.082 0.58 C 0.083 0.575 0.08 0.571 0.076 0.572 C 0.074 0.573 0.072 0.572 0.072 0.57 C 0.072 0.568 0.073 0.567 0.074 0.568 C 0.075 0.569 0.075 0.569 0.075 0.567 C 0.075 0.566 0.074 0.564 0.073 0.564 C 0.072 0.564 0.072 0.563 0.074 0.56 C 0.076 0.556 0.074 0.552 0.071 0.556 C 0.069 0.557 0.069 0.562 0.069 0.57 C 0.07 0.576 0.07 0.582 0.069 0.582 C 0.068 0.583 0.067 0.586 0.067 0.589 C 0.067 0.593 0.066 0.596 0.064 0.598 C 0.057 0.602 0.05 0.641 0.054 0.65 C 0.055 0.652 0.054 0.655 0.052 0.66 C 0.047 0.668 0.043 0.689 0.044 0.703 C 0.045 0.715 0.044 0.718 0.041 0.714 C 0.039 0.71 0.04 0.662 0.043 0.657 C 0.045 0.655 0.046 0.651 0.045 0.648 C 0.045 0.644 0.045 0.645 0.044 0.649 C 0.041 0.658 0.028 0.657 0.026 0.648 C 0.023 0.637 0.02 0.631 0.019 0.632 C 0.018 0.633 0.017 0.632 0.017 0.63 C 0.016 0.627 0.014 0.625 0.012 0.625 C 0.009 0.625 0.008 0.627 0.009 0.628 C 0.01 0.631 0.009 0.631 0.007 0.628 C 0.005 0.627 0.003 0.624 0.003 0.622 C 0.003 0.62 0.003 0.62 0.002 0.622 C 0.001 0.623 0 0.689 0.001 0.812 L 0.001 0.999 L 0.131 1 C 0.202 1 0.261 1 0.262 0.998 C 0.266 0.994 0.266 0.984 0.262 0.981 C 0.26 0.98 0.257 0.976 0.256 0.972 C 0.253 0.966 0.253 0.966 0.257 0.973 L 0.262 0.98 L 0.257 0.971 C 0.255 0.966 0.252 0.962 0.251 0.963 C 0.25 0.963 0.25 0.963 0.251 0.962 C 0.251 0.962 0.251 0.96 0.251 0.959 C 0.25 0.957 0.251 0.957 0.252 0.958 C 0.254 0.959 0.255 0.958 0.256 0.956 C 0.257 0.954 0.256 0.953 0.255 0.955 C 0.254 0.956 0.254 0.954 0.256 0.951 C 0.257 0.948 0.259 0.946 0.259 0.947 C 0.26 0.947 0.261 0.946 0.262 0.945 C 0.265 0.941 0.265 0.934 0.263 0.934 C 0.262 0.934 0.261 0.936 0.262 0.938 C 0.262 0.94 0.262 0.943 0.261 0.944 C 0.26 0.945 0.26 0.944 0.26 0.941 C 0.26 0.939 0.258 0.938 0.255 0.939 C 0.251 0.94 0.251 0.94 0.254 0.936 C 0.256 0.932 0.256 0.932 0.252 0.929 C 0.249 0.927 0.247 0.923 0.246 0.92 C 0.244 0.915 0.244 0.915 0.247 0.916 C 0.248 0.918 0.249 0.917 0.248 0.915 C 0.247 0.912 0.247 0.911 0.248 0.913 C 0.249 0.914 0.252 0.912 0.254 0.908 C 0.257 0.904 0.258 0.9 0.257 0.899 C 0.256 0.898 0.255 0.895 0.255 0.891 C 0.255 0.886 0.255 0.886 0.253 0.892 L 0.252 0.899 L 0.251 0.891 C 0.251 0.887 0.249 0.884 0.248 0.886 C 0.247 0.887 0.247 0.886 0.248 0.885 C 0.25 0.879 0.243 0.871 0.24 0.876 C 0.237 0.879 0.237 0.879 0.239 0.874 C 0.241 0.868 0.241 0.867 0.236 0.869 C 0.233 0.87 0.232 0.869 0.231 0.865 C 0.23 0.863 0.23 0.858 0.229 0.856 C 0.228 0.852 0.228 0.852 0.23 0.856 C 0.231 0.858 0.232 0.859 0.232 0.859 C 0.233 0.856 0.231 0.845 0.23 0.847 C 0.229 0.847 0.228 0.845 0.228 0.841 C 0.228 0.838 0.229 0.834 0.231 0.833 C 0.234 0.83 0.234 0.817 0.23 0.817 C 0.228 0.817 0.227 0.816 0.226 0.815 C 0.226 0.813 0.224 0.813 0.223 0.813 C 0.221 0.815 0.22 0.813 0.219 0.809 C 0.219 0.805 0.218 0.804 0.216 0.804 C 0.215 0.805 0.214 0.805 0.214 0.805 C 0.214 0.804 0.216 0.802 0.218 0.801 C 0.221 0.798 0.221 0.798 0.218 0.798 C 0.216 0.798 0.216 0.796 0.217 0.79 C 0.217 0.785 0.217 0.783 0.215 0.785 C 0.214 0.786 0.213 0.785 0.214 0.781 C 0.215 0.776 0.214 0.775 0.21 0.777 C 0.207 0.778 0.205 0.777 0.204 0.774 C 0.204 0.772 0.204 0.77 0.205 0.77 C 0.206 0.77 0.207 0.769 0.206 0.768 C 0.206 0.768 0.203 0.768 0.201 0.77 C 0.198 0.772 0.197 0.772 0.197 0.768 C 0.197 0.765 0.198 0.764 0.2 0.765 C 0.201 0.766 0.202 0.766 0.201 0.764 C 0.2 0.763 0.201 0.762 0.202 0.762 C 0.203 0.762 0.203 0.76 0.203 0.759 C 0.202 0.757 0.202 0.756 0.204 0.757 C 0.205 0.757 0.206 0.756 0.205 0.754 C 0.205 0.752 0.206 0.752 0.208 0.752 C 0.21 0.754 0.211 0.755 0.21 0.759 C 0.209 0.762 0.209 0.765 0.21 0.766 C 0.211 0.767 0.211 0.769 0.21 0.771 C 0.21 0.773 0.211 0.77 0.214 0.765 C 0.216 0.76 0.219 0.756 0.22 0.756 C 0.221 0.756 0.223 0.754 0.224 0.751 C 0.226 0.747 0.226 0.747 0.223 0.75 C 0.221 0.753 0.221 0.753 0.22 0.749 C 0.218 0.742 0.219 0.739 0.222 0.741 C 0.223 0.743 0.224 0.742 0.223 0.74 C 0.222 0.738 0.223 0.737 0.223 0.737 C 0.224 0.737 0.225 0.734 0.226 0.731 C 0.226 0.728 0.227 0.726 0.229 0.726 C 0.23 0.727 0.231 0.724 0.231 0.718 C 0.231 0.713 0.23 0.71 0.23 0.71 C 0.229 0.712 0.225 0.706 0.225 0.703 C 0.225 0.701 0.226 0.701 0.228 0.701 C 0.229 0.702 0.23 0.702 0.23 0.7 C 0.23 0.699 0.231 0.698 0.232 0.698 C 0.234 0.698 0.234 0.696 0.234 0.695 C 0.233 0.693 0.234 0.692 0.235 0.692 C 0.238 0.692 0.236 0.679 0.232 0.673 C 0.23 0.67 0.229 0.666 0.229 0.664 C 0.23 0.662 0.23 0.661 0.228 0.663 C 0.226 0.664 0.223 0.663 0.221 0.66 C 0.216 0.655 0.214 0.658 0.213 0.668 C 0.213 0.671 0.213 0.675 0.212 0.675 C 0.211 0.676 0.209 0.679 0.208 0.681 C 0.206 0.688 0.203 0.688 0.204 0.681 C 0.205 0.678 0.206 0.675 0.207 0.675 C 0.21 0.675 0.208 0.67 0.204 0.667 C 0.202 0.665 0.201 0.662 0.201 0.661 C 0.202 0.66 0.201 0.657 0.2 0.655 C 0.198 0.651 0.197 0.652 0.194 0.662 C 0.191 0.671 0.186 0.678 0.189 0.669 C 0.189 0.667 0.188 0.668 0.186 0.671 C 0.185 0.674 0.183 0.677 0.184 0.679 C 0.185 0.681 0.179 0.682 0.174 0.681 C 0.174 0.681 0.173 0.682 0.172 0.684 C 0.171 0.686 0.171 0.685 0.17 0.681 C 0.17 0.677 0.17 0.674 0.172 0.672 C 0.175 0.67 0.175 0.67 0.175 0.672 C 0.173 0.678 0.177 0.676 0.182 0.669 C 0.184 0.666 0.187 0.66 0.187 0.657 C 0.188 0.648 0.192 0.634 0.196 0.63 C 0.199 0.625 0.199 0.624 0.193 0.625 C 0.192 0.626 0.191 0.625 0.191 0.623 C 0.192 0.621 0.192 0.619 0.191 0.619 C 0.19 0.618 0.19 0.614 0.19 0.611 C 0.191 0.605 0.187 0.604 0.186 0.61 C 0.185 0.613 0.185 0.614 0.186 0.613 C 0.188 0.611 0.188 0.612 0.187 0.614 C 0.186 0.616 0.185 0.617 0.184 0.616 C 0.183 0.616 0.181 0.618 0.178 0.622 C 0.176 0.625 0.174 0.627 0.174 0.626 C 0.173 0.624 0.17 0.625 0.167 0.628 C 0.163 0.631 0.159 0.634 0.158 0.635 C 0.156 0.636 0.155 0.638 0.156 0.639 C 0.156 0.641 0.156 0.641 0.155 0.641 C 0.152 0.639 0.152 0.63 0.155 0.62 C 0.156 0.611 0.158 0.611 0.16 0.619 L 0.161 0.626 L 0.165 0.619 C 0.17 0.611 0.171 0.595 0.168 0.595 C 0.167 0.595 0.164 0.592 0.162 0.588 C 0.159 0.58 0.156 0.579 0.154 0.585 C 0.153 0.589 0.145 0.598 0.143 0.595 C 0.143 0.595 0.142 0.59 0.142 0.585 C 0.142 0.576 0.142 0.575 0.139 0.578 C 0.137 0.581 0.136 0.58 0.134 0.574 C 0.133 0.567 0.127 0.57 0.123 0.58 C 0.123 0.582 0.121 0.585 0.12 0.587 C 0.118 0.591 0.118 0.592 0.12 0.599 C 0.121 0.604 0.122 0.608 0.121 0.61 C 0.12 0.611 0.119 0.618 0.119 0.625 C 0.119 0.636 0.118 0.637 0.117 0.631 L 0.116 0.624 L 0.116 0.632 C 0.116 0.639 0.117 0.641 0.122 0.64 C 0.124 0.639 0.121 0.659 0.118 0.665 L 0.115 0.673 L 0.113 0.667 C 0.111 0.662 0.111 0.661 0.113 0.663 C 0.114 0.665 0.115 0.664 0.114 0.66 C 0.112 0.651 0.111 0.64 0.113 0.646 C 0.114 0.652 0.114 0.652 0.114 0.646 C 0.114 0.642 0.114 0.639 0.113 0.639 C 0.112 0.639 0.111 0.636 0.112 0.631 C 0.113 0.626 0.112 0.623 0.111 0.623 C 0.11 0.623 0.109 0.631 0.11 0.635 C 0.112 0.642 0.104 0.642 0.101 0.636 L 0.097 0.629 L 0.102 0.608 C 0.105 0.596 0.11 0.582 0.112 0.576 L 0.116 0.566 L 0.107 0.558 C 0.103 0.554 0.097 0.547 0.094 0.542 C 0.089 0.533 0.088 0.532 0.088 0.536 Z  M 0.003 0.547 C 0.001 0.549 0.002 0.561 0.003 0.561 C 0.004 0.561 0.006 0.553 0.006 0.547 C 0.006 0.544 0.004 0.544 0.003 0.547 Z  M 0.077 0.562 C 0.077 0.569 0.077 0.57 0.079 0.567 C 0.08 0.565 0.081 0.562 0.08 0.559 C 0.079 0.55 0.077 0.552 0.077 0.562 Z  M 0.026 0.566 C 0.026 0.567 0.026 0.572 0.027 0.578 C 0.029 0.591 0.029 0.593 0.027 0.591 C 0.026 0.59 0.025 0.586 0.025 0.581 L 0.025 0.574 L 0.022 0.582 C 0.018 0.592 0.018 0.595 0.021 0.593 C 0.023 0.592 0.024 0.593 0.024 0.599 C 0.024 0.604 0.024 0.606 0.025 0.604 C 0.026 0.602 0.027 0.603 0.029 0.609 C 0.03 0.613 0.031 0.618 0.03 0.619 C 0.027 0.621 0.028 0.633 0.031 0.633 C 0.033 0.632 0.033 0.629 0.033 0.615 C 0.033 0.606 0.033 0.594 0.033 0.587 C 0.033 0.58 0.032 0.576 0.031 0.576 C 0.03 0.576 0.029 0.574 0.03 0.57 C 0.03 0.565 0.028 0.562 0.026 0.566 Z  M 0.089 0.602 C 0.088 0.605 0.087 0.608 0.086 0.607 C 0.085 0.606 0.085 0.605 0.086 0.604 C 0.087 0.603 0.088 0.601 0.088 0.599 C 0.088 0.597 0.088 0.595 0.089 0.595 C 0.09 0.595 0.09 0.597 0.089 0.602 Z  M 0.115 0.6 C 0.111 0.604 0.111 0.614 0.114 0.614 C 0.117 0.613 0.117 0.611 0.117 0.605 C 0.117 0.597 0.117 0.597 0.115 0.6 Z  M 0.018 0.607 C 0.018 0.611 0.019 0.613 0.022 0.614 C 0.025 0.615 0.025 0.614 0.023 0.608 C 0.021 0.599 0.018 0.598 0.018 0.607 Z  M 0.066 0.634 L 0.069 0.641 L 0.068 0.634 C 0.067 0.63 0.068 0.629 0.07 0.63 C 0.071 0.631 0.072 0.633 0.07 0.637 C 0.069 0.643 0.064 0.64 0.062 0.632 C 0.061 0.626 0.063 0.627 0.066 0.634 Z  M 0.283 0.635 C 0.282 0.637 0.28 0.639 0.28 0.641 C 0.28 0.643 0.278 0.645 0.276 0.645 C 0.272 0.645 0.272 0.646 0.274 0.648 C 0.276 0.65 0.276 0.651 0.273 0.656 C 0.267 0.664 0.265 0.7 0.27 0.7 C 0.271 0.7 0.272 0.702 0.272 0.705 C 0.272 0.707 0.273 0.709 0.273 0.709 C 0.274 0.709 0.275 0.711 0.276 0.715 C 0.278 0.722 0.287 0.728 0.3 0.73 C 0.306 0.731 0.311 0.732 0.313 0.733 C 0.314 0.734 0.316 0.734 0.316 0.734 C 0.317 0.734 0.319 0.736 0.32 0.738 C 0.322 0.743 0.326 0.741 0.332 0.732 C 0.337 0.723 0.335 0.69 0.327 0.674 C 0.312 0.64 0.296 0.625 0.283 0.635 Z  M 0.06 0.641 C 0.061 0.64 0.06 0.642 0.059 0.646 C 0.058 0.65 0.057 0.652 0.056 0.651 C 0.055 0.65 0.055 0.649 0.056 0.647 C 0.057 0.645 0.058 0.643 0.057 0.641 C 0.057 0.639 0.057 0.639 0.058 0.64 C 0.058 0.641 0.059 0.641 0.06 0.641 Z  M 0.099 0.649 C 0.099 0.651 0.098 0.653 0.097 0.653 C 0.096 0.653 0.095 0.657 0.096 0.664 C 0.096 0.67 0.096 0.676 0.095 0.677 C 0.095 0.678 0.094 0.677 0.094 0.675 C 0.093 0.663 0.093 0.657 0.094 0.655 C 0.094 0.653 0.095 0.651 0.095 0.65 C 0.095 0.645 0.096 0.645 0.097 0.645 C 0.098 0.645 0.099 0.647 0.099 0.649 Z  M 0.029 0.664 C 0.028 0.668 0.027 0.669 0.026 0.668 C 0.025 0.665 0.026 0.659 0.028 0.659 C 0.029 0.659 0.029 0.661 0.029 0.664 Z  M 0.139 0.662 C 0.139 0.664 0.139 0.664 0.138 0.663 C 0.137 0.662 0.136 0.663 0.136 0.664 C 0.136 0.666 0.137 0.667 0.138 0.667 C 0.138 0.667 0.139 0.67 0.138 0.673 C 0.138 0.677 0.138 0.678 0.139 0.677 C 0.14 0.676 0.14 0.678 0.14 0.68 C 0.14 0.682 0.139 0.685 0.137 0.686 C 0.134 0.687 0.133 0.688 0.135 0.69 C 0.136 0.691 0.136 0.692 0.135 0.692 C 0.134 0.692 0.133 0.69 0.132 0.688 C 0.132 0.686 0.131 0.684 0.13 0.685 C 0.129 0.686 0.129 0.685 0.129 0.682 C 0.13 0.679 0.13 0.678 0.128 0.68 C 0.127 0.681 0.127 0.681 0.128 0.677 C 0.128 0.674 0.129 0.669 0.129 0.667 C 0.129 0.664 0.13 0.663 0.13 0.663 C 0.131 0.664 0.133 0.663 0.134 0.662 C 0.138 0.658 0.137 0.658 0.139 0.662 Z  M 0.206 0.69 C 0.207 0.69 0.207 0.693 0.205 0.696 C 0.203 0.699 0.202 0.701 0.203 0.7 C 0.204 0.7 0.203 0.702 0.201 0.705 C 0.199 0.708 0.197 0.712 0.197 0.714 C 0.197 0.719 0.194 0.72 0.19 0.716 L 0.186 0.713 L 0.19 0.707 C 0.193 0.704 0.194 0.701 0.193 0.697 C 0.192 0.693 0.193 0.692 0.194 0.693 C 0.195 0.694 0.196 0.693 0.197 0.691 C 0.197 0.688 0.199 0.687 0.201 0.688 C 0.203 0.689 0.205 0.69 0.206 0.69 Z  M 0.218 0.691 C 0.22 0.694 0.221 0.701 0.219 0.699 C 0.217 0.697 0.217 0.699 0.218 0.703 C 0.219 0.709 0.215 0.716 0.213 0.713 C 0.211 0.711 0.21 0.698 0.212 0.698 C 0.213 0.699 0.213 0.697 0.214 0.696 C 0.214 0.694 0.214 0.691 0.214 0.691 C 0.214 0.689 0.216 0.689 0.218 0.691 Z  M 0.173 0.694 C 0.176 0.696 0.176 0.7 0.173 0.7 C 0.172 0.7 0.17 0.699 0.17 0.696 C 0.169 0.692 0.169 0.691 0.173 0.694 Z  M 0.21 0.711 C 0.21 0.717 0.21 0.719 0.209 0.718 C 0.208 0.717 0.206 0.719 0.206 0.721 C 0.204 0.731 0.199 0.724 0.199 0.712 C 0.199 0.709 0.199 0.709 0.2 0.714 C 0.202 0.72 0.205 0.723 0.205 0.717 C 0.204 0.715 0.208 0.703 0.209 0.703 C 0.209 0.703 0.21 0.707 0.21 0.711 Z  M 0.184 0.726 C 0.183 0.732 0.182 0.733 0.182 0.73 C 0.181 0.727 0.182 0.723 0.183 0.721 C 0.186 0.715 0.186 0.716 0.184 0.726 Z  M 0.191 0.721 C 0.191 0.732 0.183 0.746 0.181 0.739 C 0.18 0.737 0.18 0.736 0.181 0.737 C 0.182 0.738 0.184 0.735 0.185 0.73 C 0.187 0.722 0.191 0.716 0.191 0.721 Z  M 0.206 0.732 C 0.204 0.736 0.202 0.739 0.202 0.738 C 0.201 0.737 0.2 0.738 0.2 0.739 C 0.2 0.741 0.199 0.742 0.197 0.742 C 0.195 0.742 0.194 0.743 0.194 0.745 C 0.194 0.746 0.192 0.746 0.191 0.746 C 0.188 0.744 0.187 0.745 0.188 0.749 C 0.189 0.755 0.187 0.755 0.184 0.749 C 0.183 0.746 0.183 0.745 0.184 0.746 C 0.185 0.747 0.186 0.746 0.187 0.742 C 0.187 0.739 0.189 0.737 0.19 0.737 C 0.192 0.737 0.192 0.735 0.191 0.733 C 0.191 0.731 0.192 0.731 0.195 0.732 C 0.197 0.732 0.199 0.732 0.2 0.73 C 0.2 0.729 0.202 0.729 0.203 0.729 C 0.204 0.73 0.205 0.73 0.206 0.728 C 0.206 0.727 0.207 0.725 0.207 0.725 C 0.208 0.725 0.207 0.729 0.206 0.732 Z  M 0.267 0.736 C 0.266 0.74 0.266 0.742 0.267 0.744 C 0.27 0.746 0.272 0.743 0.272 0.736 C 0.272 0.729 0.27 0.729 0.267 0.736 Z  M 0.375 0.755 C 0.374 0.756 0.373 0.755 0.371 0.752 C 0.368 0.743 0.369 0.74 0.372 0.747 C 0.374 0.75 0.375 0.754 0.375 0.755 Z  M 0.25 0.747 C 0.249 0.749 0.25 0.75 0.253 0.75 C 0.255 0.75 0.256 0.749 0.256 0.747 C 0.256 0.746 0.255 0.745 0.253 0.745 C 0.252 0.745 0.25 0.746 0.25 0.747 Z  M 0.29 0.751 C 0.29 0.754 0.291 0.756 0.292 0.757 C 0.296 0.76 0.297 0.759 0.298 0.753 C 0.298 0.75 0.298 0.748 0.296 0.748 C 0.295 0.748 0.294 0.749 0.294 0.751 C 0.294 0.754 0.294 0.754 0.293 0.751 C 0.292 0.748 0.291 0.748 0.29 0.751 Z  M 0.301 0.75 C 0.298 0.751 0.298 0.758 0.3 0.76 C 0.301 0.761 0.303 0.759 0.306 0.756 L 0.31 0.751 L 0.306 0.75 C 0.304 0.749 0.302 0.749 0.301 0.75 Z  M 0.281 0.753 C 0.281 0.755 0.283 0.757 0.284 0.758 C 0.288 0.76 0.288 0.758 0.285 0.754 C 0.283 0.752 0.281 0.751 0.281 0.753 Z  M 0.29 0.764 C 0.288 0.765 0.289 0.766 0.292 0.766 C 0.296 0.766 0.297 0.765 0.295 0.764 C 0.294 0.763 0.293 0.762 0.292 0.762 C 0.292 0.762 0.291 0.763 0.29 0.764 Z  M 0.31 0.77 C 0.308 0.771 0.306 0.774 0.306 0.775 C 0.305 0.777 0.306 0.778 0.307 0.776 C 0.309 0.775 0.31 0.776 0.309 0.778 C 0.307 0.783 0.314 0.792 0.319 0.79 C 0.322 0.79 0.324 0.79 0.324 0.792 C 0.324 0.793 0.325 0.794 0.326 0.794 C 0.328 0.794 0.329 0.796 0.33 0.801 C 0.33 0.804 0.331 0.809 0.332 0.81 C 0.333 0.812 0.333 0.811 0.332 0.807 C 0.331 0.804 0.332 0.804 0.335 0.81 C 0.339 0.819 0.338 0.832 0.334 0.826 C 0.333 0.824 0.331 0.824 0.331 0.825 C 0.33 0.826 0.33 0.826 0.33 0.824 C 0.331 0.823 0.332 0.821 0.333 0.821 C 0.334 0.821 0.335 0.821 0.336 0.82 C 0.338 0.82 0.337 0.814 0.335 0.814 C 0.332 0.814 0.327 0.825 0.328 0.83 C 0.329 0.833 0.329 0.834 0.33 0.831 C 0.331 0.828 0.331 0.83 0.331 0.836 C 0.33 0.841 0.331 0.846 0.332 0.85 C 0.335 0.854 0.335 0.854 0.333 0.849 C 0.332 0.845 0.332 0.842 0.333 0.842 C 0.333 0.841 0.335 0.837 0.337 0.831 C 0.34 0.822 0.341 0.822 0.34 0.829 C 0.34 0.833 0.339 0.836 0.339 0.836 C 0.336 0.835 0.337 0.856 0.339 0.859 C 0.34 0.862 0.341 0.861 0.341 0.854 C 0.341 0.847 0.341 0.847 0.343 0.851 C 0.344 0.854 0.344 0.858 0.343 0.86 C 0.342 0.865 0.345 0.868 0.349 0.869 C 0.352 0.87 0.352 0.87 0.35 0.867 C 0.348 0.865 0.349 0.865 0.351 0.864 C 0.353 0.864 0.355 0.866 0.355 0.868 C 0.355 0.869 0.356 0.87 0.358 0.869 C 0.36 0.868 0.363 0.87 0.365 0.874 C 0.368 0.879 0.37 0.88 0.371 0.877 C 0.373 0.875 0.373 0.874 0.372 0.872 C 0.371 0.871 0.37 0.87 0.371 0.87 C 0.373 0.87 0.37 0.865 0.358 0.847 C 0.354 0.841 0.352 0.836 0.353 0.834 C 0.353 0.832 0.353 0.831 0.352 0.832 C 0.351 0.833 0.35 0.832 0.35 0.829 C 0.348 0.823 0.348 0.823 0.352 0.825 C 0.354 0.826 0.355 0.825 0.354 0.823 C 0.354 0.821 0.352 0.82 0.35 0.821 C 0.345 0.823 0.341 0.808 0.345 0.8 C 0.347 0.796 0.347 0.795 0.345 0.794 C 0.343 0.793 0.343 0.791 0.343 0.789 C 0.344 0.787 0.343 0.786 0.341 0.787 C 0.339 0.788 0.338 0.788 0.338 0.787 C 0.34 0.782 0.335 0.778 0.329 0.779 C 0.324 0.78 0.322 0.779 0.319 0.774 C 0.316 0.767 0.315 0.766 0.31 0.77 Z  M 0.603 0.778 C 0.601 0.787 0.604 0.792 0.609 0.79 C 0.615 0.787 0.615 0.782 0.61 0.777 C 0.605 0.773 0.605 0.773 0.603 0.778 Z  M 0.214 0.797 C 0.214 0.8 0.214 0.801 0.212 0.798 C 0.21 0.795 0.209 0.795 0.208 0.801 C 0.207 0.805 0.207 0.806 0.207 0.803 C 0.206 0.797 0.211 0.789 0.213 0.791 C 0.214 0.792 0.214 0.794 0.214 0.797 Z  M 0.564 0.797 C 0.564 0.799 0.563 0.801 0.562 0.801 C 0.561 0.801 0.56 0.799 0.56 0.796 C 0.56 0.791 0.563 0.792 0.564 0.797 Z  M 0.597 0.795 C 0.597 0.796 0.599 0.798 0.6 0.799 C 0.603 0.8 0.603 0.799 0.602 0.796 C 0.6 0.792 0.597 0.791 0.597 0.795 Z  M 0.579 0.818 C 0.579 0.825 0.58 0.827 0.582 0.828 C 0.585 0.828 0.585 0.828 0.583 0.826 C 0.581 0.823 0.581 0.822 0.584 0.821 C 0.588 0.819 0.589 0.817 0.586 0.812 C 0.582 0.805 0.579 0.808 0.579 0.818 Z  M 0.478 0.815 C 0.477 0.816 0.474 0.816 0.47 0.815 L 0.464 0.814 L 0.467 0.822 C 0.469 0.827 0.47 0.832 0.47 0.834 C 0.47 0.836 0.47 0.837 0.47 0.836 C 0.471 0.832 0.477 0.834 0.478 0.839 C 0.48 0.843 0.48 0.843 0.48 0.837 C 0.48 0.833 0.48 0.831 0.481 0.833 C 0.483 0.837 0.488 0.84 0.488 0.836 C 0.488 0.834 0.489 0.831 0.491 0.829 C 0.493 0.827 0.494 0.824 0.493 0.823 C 0.493 0.821 0.493 0.82 0.494 0.82 C 0.495 0.82 0.496 0.822 0.496 0.825 C 0.496 0.828 0.496 0.828 0.497 0.826 C 0.497 0.824 0.498 0.823 0.499 0.823 C 0.5 0.823 0.5 0.825 0.5 0.827 C 0.499 0.829 0.5 0.832 0.501 0.833 C 0.502 0.834 0.502 0.833 0.501 0.832 C 0.501 0.83 0.502 0.827 0.503 0.824 C 0.507 0.818 0.507 0.814 0.505 0.815 C 0.503 0.815 0.501 0.814 0.5 0.813 C 0.498 0.812 0.495 0.812 0.493 0.814 C 0.491 0.816 0.488 0.817 0.487 0.816 C 0.486 0.815 0.484 0.816 0.484 0.817 C 0.483 0.819 0.482 0.82 0.481 0.82 C 0.48 0.82 0.48 0.819 0.481 0.818 C 0.483 0.816 0.483 0.815 0.481 0.814 C 0.48 0.813 0.478 0.813 0.478 0.815 Z  M 0.479 0.82 C 0.478 0.826 0.476 0.827 0.474 0.822 C 0.474 0.82 0.474 0.82 0.475 0.821 C 0.476 0.822 0.477 0.821 0.477 0.819 C 0.479 0.812 0.48 0.813 0.479 0.82 Z  M 0.274 0.855 C 0.275 0.86 0.276 0.863 0.277 0.863 C 0.28 0.864 0.28 0.864 0.278 0.855 C 0.276 0.846 0.274 0.846 0.274 0.855 Z  M 0.334 0.884 C 0.334 0.885 0.336 0.887 0.337 0.887 C 0.338 0.887 0.339 0.888 0.34 0.89 C 0.34 0.891 0.342 0.892 0.343 0.892 C 0.346 0.891 0.345 0.889 0.341 0.886 C 0.334 0.88 0.332 0.88 0.334 0.884 Z  M 0.332 0.914 C 0.33 0.916 0.331 0.918 0.333 0.921 C 0.336 0.926 0.336 0.926 0.336 0.922 C 0.336 0.919 0.337 0.917 0.337 0.917 C 0.338 0.917 0.338 0.921 0.338 0.926 C 0.338 0.931 0.338 0.934 0.339 0.934 C 0.34 0.934 0.341 0.935 0.34 0.936 C 0.34 0.938 0.341 0.941 0.343 0.944 C 0.345 0.947 0.346 0.948 0.345 0.946 C 0.344 0.944 0.345 0.942 0.345 0.942 C 0.346 0.942 0.348 0.944 0.348 0.946 C 0.35 0.951 0.355 0.951 0.355 0.945 C 0.354 0.943 0.353 0.941 0.351 0.942 C 0.35 0.942 0.349 0.941 0.349 0.939 C 0.349 0.937 0.348 0.936 0.347 0.935 C 0.346 0.935 0.344 0.931 0.343 0.926 C 0.341 0.916 0.335 0.91 0.332 0.914 Z  M 0.241 0.919 C 0.239 0.92 0.239 0.921 0.241 0.923 C 0.243 0.925 0.243 0.926 0.241 0.926 C 0.239 0.926 0.238 0.924 0.237 0.921 C 0.237 0.918 0.237 0.917 0.24 0.917 C 0.242 0.918 0.242 0.918 0.241 0.919 Z  M 0.335 0.949 C 0.337 0.954 0.337 0.954 0.334 0.951 C 0.329 0.947 0.328 0.947 0.329 0.953 C 0.329 0.956 0.328 0.961 0.326 0.965 C 0.325 0.97 0.324 0.973 0.325 0.974 C 0.326 0.975 0.327 0.974 0.327 0.973 C 0.327 0.971 0.327 0.97 0.328 0.971 C 0.331 0.976 0.326 0.978 0.323 0.973 C 0.319 0.967 0.319 0.967 0.318 0.972 C 0.317 0.975 0.318 0.977 0.319 0.978 C 0.323 0.98 0.326 0.995 0.322 0.995 C 0.32 0.995 0.319 0.996 0.32 0.997 C 0.321 1 0.357 0.998 0.359 0.995 C 0.36 0.992 0.36 0.992 0.358 0.993 C 0.355 0.997 0.336 0.96 0.339 0.956 C 0.339 0.955 0.338 0.952 0.336 0.949 C 0.332 0.944 0.332 0.944 0.335 0.949 Z  M 0.324 0.962 C 0.324 0.967 0.324 0.967 0.325 0.965 C 0.325 0.962 0.326 0.959 0.327 0.958 C 0.328 0.957 0.328 0.956 0.326 0.956 C 0.325 0.956 0.324 0.958 0.324 0.962 Z  M 0.342 0.99 C 0.344 0.994 0.344 0.995 0.342 0.995 C 0.341 0.995 0.339 0.993 0.339 0.99 C 0.338 0.986 0.338 0.984 0.338 0.984 C 0.339 0.984 0.34 0.986 0.342 0.99 Z " fill-rule="evenodd" fill="rgb(0,0,0)"/></g></g></svg>