<?xml version="1.0" encoding="UTF-8" standalone="no"?><!-- Generator: Gravit.io --><svg xmlns="http://www.w3.org/2000/svg" xmlns:xlink="http://www.w3.org/1999/xlink" style="isolation:isolate" viewBox="0 0 1 1" width="1pt" height="1pt"><defs><clipPath id="_clipPath_CA6OAwc1uMs6MjedQjHbkirUoGAFqoHq"><rect width="1" height="1"/></clipPath></defs><g clip-path="url(#_clipPath_CA6OAwc1uMs6MjedQjHbkirUoGAFqoHq)"><g><path d=" M 0.001 0.002 C -0.001 0.005 0 0.365 0.002 0.375 C 0.003 0.382 0.006 0.385 0.01 0.384 C 0.01 0.384 0.011 0.385 0.011 0.387 C 0.01 0.389 0.011 0.39 0.013 0.39 C 0.018 0.391 0.019 0.392 0.021 0.396 C 0.023 0.399 0.024 0.399 0.026 0.396 C 0.029 0.392 0.029 0.391 0.026 0.393 C 0.023 0.395 0.022 0.386 0.026 0.381 C 0.027 0.378 0.029 0.378 0.033 0.382 C 0.037 0.386 0.037 0.386 0.037 0.379 C 0.036 0.367 0.04 0.362 0.046 0.366 C 0.051 0.37 0.051 0.37 0.063 0.349 C 0.065 0.345 0.066 0.345 0.067 0.347 C 0.067 0.349 0.069 0.35 0.07 0.35 C 0.071 0.35 0.074 0.353 0.076 0.357 C 0.08 0.364 0.083 0.366 0.083 0.361 C 0.083 0.359 0.084 0.358 0.087 0.36 C 0.09 0.361 0.092 0.36 0.094 0.356 C 0.096 0.353 0.098 0.35 0.1 0.35 C 0.101 0.35 0.102 0.349 0.102 0.347 C 0.102 0.345 0.102 0.344 0.103 0.345 C 0.103 0.346 0.105 0.346 0.107 0.344 C 0.109 0.342 0.109 0.343 0.109 0.346 C 0.109 0.348 0.11 0.35 0.111 0.349 C 0.112 0.348 0.113 0.348 0.113 0.35 C 0.114 0.353 0.11 0.357 0.107 0.356 C 0.104 0.355 0.104 0.375 0.107 0.377 C 0.108 0.378 0.109 0.38 0.109 0.381 C 0.108 0.382 0.107 0.383 0.107 0.382 C 0.106 0.382 0.106 0.385 0.106 0.391 C 0.107 0.4 0.108 0.402 0.11 0.398 C 0.111 0.397 0.11 0.395 0.109 0.393 C 0.108 0.39 0.109 0.389 0.113 0.387 C 0.116 0.386 0.12 0.383 0.121 0.38 C 0.122 0.375 0.126 0.374 0.13 0.378 C 0.131 0.38 0.132 0.381 0.13 0.384 C 0.129 0.387 0.129 0.389 0.131 0.39 C 0.134 0.392 0.134 0.392 0.134 0.385 C 0.133 0.376 0.138 0.365 0.142 0.366 C 0.144 0.367 0.145 0.366 0.145 0.364 C 0.145 0.362 0.144 0.361 0.143 0.362 C 0.141 0.364 0.136 0.357 0.136 0.353 C 0.136 0.348 0.139 0.35 0.141 0.356 C 0.141 0.36 0.142 0.361 0.143 0.359 C 0.143 0.357 0.143 0.355 0.142 0.354 C 0.14 0.351 0.141 0.348 0.144 0.349 C 0.147 0.351 0.147 0.351 0.148 0.325 C 0.148 0.315 0.149 0.304 0.15 0.3 C 0.152 0.295 0.152 0.294 0.15 0.292 C 0.148 0.289 0.148 0.289 0.151 0.289 C 0.153 0.289 0.153 0.288 0.152 0.285 C 0.149 0.279 0.147 0.283 0.147 0.293 C 0.146 0.309 0.141 0.315 0.142 0.3 C 0.142 0.295 0.143 0.29 0.144 0.289 C 0.146 0.287 0.146 0.286 0.144 0.284 C 0.141 0.28 0.141 0.28 0.146 0.271 C 0.148 0.267 0.15 0.262 0.149 0.259 C 0.148 0.256 0.149 0.255 0.15 0.257 C 0.152 0.26 0.152 0.257 0.149 0.249 C 0.147 0.242 0.148 0.233 0.151 0.233 C 0.152 0.233 0.153 0.232 0.153 0.231 C 0.153 0.229 0.154 0.228 0.155 0.229 C 0.156 0.23 0.156 0.228 0.156 0.224 C 0.155 0.22 0.156 0.217 0.157 0.217 C 0.158 0.217 0.158 0.215 0.157 0.213 C 0.157 0.211 0.157 0.208 0.159 0.207 C 0.16 0.207 0.161 0.208 0.162 0.212 C 0.162 0.215 0.163 0.217 0.164 0.216 C 0.166 0.214 0.168 0.224 0.168 0.237 C 0.168 0.247 0.171 0.248 0.171 0.238 C 0.171 0.235 0.172 0.232 0.173 0.233 C 0.176 0.233 0.175 0.203 0.172 0.201 C 0.168 0.198 0.167 0.195 0.167 0.183 C 0.167 0.177 0.167 0.172 0.166 0.171 C 0.163 0.168 0.164 0.162 0.168 0.159 C 0.175 0.153 0.176 0.155 0.178 0.173 C 0.179 0.188 0.18 0.191 0.183 0.194 C 0.186 0.196 0.188 0.199 0.188 0.2 C 0.188 0.202 0.188 0.202 0.189 0.201 C 0.19 0.201 0.19 0.199 0.19 0.197 C 0.189 0.196 0.19 0.192 0.191 0.19 C 0.192 0.187 0.192 0.184 0.191 0.18 C 0.19 0.175 0.19 0.171 0.193 0.164 C 0.197 0.151 0.2 0.156 0.202 0.178 C 0.202 0.179 0.203 0.181 0.204 0.183 C 0.204 0.184 0.204 0.188 0.202 0.19 C 0.2 0.195 0.2 0.195 0.202 0.198 C 0.204 0.2 0.205 0.204 0.205 0.213 C 0.205 0.228 0.207 0.229 0.209 0.214 C 0.21 0.208 0.212 0.203 0.213 0.203 C 0.216 0.203 0.219 0.21 0.218 0.212 C 0.217 0.213 0.217 0.228 0.218 0.25 C 0.218 0.254 0.219 0.259 0.22 0.261 C 0.22 0.264 0.22 0.264 0.22 0.263 C 0.219 0.262 0.217 0.263 0.215 0.265 C 0.212 0.269 0.211 0.269 0.211 0.266 C 0.211 0.264 0.21 0.265 0.209 0.268 C 0.209 0.271 0.208 0.272 0.208 0.27 C 0.208 0.268 0.207 0.267 0.206 0.267 C 0.204 0.267 0.203 0.268 0.203 0.27 C 0.203 0.273 0.203 0.273 0.202 0.27 C 0.201 0.267 0.2 0.267 0.199 0.269 C 0.199 0.271 0.199 0.272 0.2 0.272 C 0.2 0.272 0.2 0.273 0.199 0.274 C 0.198 0.276 0.197 0.279 0.197 0.282 C 0.196 0.285 0.195 0.288 0.194 0.289 C 0.192 0.29 0.193 0.291 0.195 0.292 C 0.197 0.293 0.198 0.293 0.198 0.292 C 0.197 0.29 0.198 0.289 0.2 0.289 C 0.203 0.289 0.203 0.29 0.202 0.291 C 0.2 0.293 0.201 0.294 0.204 0.295 C 0.209 0.297 0.211 0.293 0.207 0.289 C 0.205 0.287 0.205 0.286 0.206 0.287 C 0.208 0.288 0.21 0.286 0.211 0.284 C 0.212 0.282 0.214 0.281 0.215 0.282 C 0.218 0.284 0.224 0.273 0.223 0.268 C 0.222 0.266 0.223 0.264 0.224 0.264 C 0.224 0.264 0.225 0.263 0.225 0.261 C 0.225 0.26 0.224 0.258 0.222 0.258 C 0.219 0.258 0.219 0.258 0.22 0.256 C 0.222 0.254 0.222 0.253 0.221 0.253 C 0.221 0.253 0.221 0.251 0.222 0.249 C 0.223 0.247 0.223 0.245 0.222 0.244 C 0.222 0.243 0.223 0.242 0.224 0.242 C 0.227 0.242 0.23 0.251 0.229 0.254 C 0.228 0.255 0.229 0.256 0.23 0.256 C 0.231 0.256 0.231 0.257 0.231 0.259 C 0.231 0.26 0.231 0.261 0.23 0.26 C 0.228 0.257 0.228 0.263 0.23 0.269 C 0.232 0.275 0.23 0.283 0.226 0.284 C 0.223 0.284 0.21 0.296 0.204 0.305 C 0.2 0.31 0.197 0.314 0.196 0.314 C 0.193 0.314 0.178 0.328 0.178 0.331 C 0.178 0.333 0.176 0.339 0.174 0.344 C 0.168 0.354 0.158 0.387 0.159 0.39 C 0.159 0.391 0.159 0.395 0.158 0.4 C 0.157 0.405 0.157 0.41 0.157 0.413 C 0.158 0.416 0.158 0.419 0.158 0.421 C 0.157 0.428 0.158 0.443 0.159 0.445 C 0.16 0.447 0.161 0.451 0.161 0.453 C 0.161 0.465 0.176 0.498 0.192 0.519 C 0.195 0.523 0.197 0.528 0.198 0.532 C 0.198 0.536 0.2 0.539 0.202 0.54 C 0.203 0.541 0.205 0.543 0.205 0.545 C 0.205 0.546 0.206 0.547 0.208 0.547 C 0.21 0.547 0.213 0.551 0.216 0.557 C 0.218 0.562 0.22 0.566 0.22 0.565 C 0.22 0.565 0.223 0.566 0.225 0.567 C 0.231 0.57 0.23 0.577 0.224 0.579 C 0.213 0.583 0.212 0.583 0.213 0.578 C 0.214 0.575 0.214 0.574 0.212 0.577 C 0.21 0.582 0.206 0.581 0.206 0.576 C 0.206 0.573 0.206 0.572 0.205 0.574 C 0.203 0.58 0.198 0.58 0.198 0.574 C 0.198 0.572 0.198 0.569 0.197 0.569 C 0.196 0.569 0.195 0.567 0.195 0.564 L 0.194 0.558 L 0.191 0.564 C 0.187 0.57 0.183 0.571 0.183 0.566 C 0.184 0.561 0.18 0.561 0.179 0.566 C 0.179 0.569 0.178 0.571 0.176 0.571 C 0.175 0.571 0.174 0.57 0.175 0.568 C 0.175 0.566 0.175 0.564 0.174 0.564 C 0.173 0.564 0.172 0.561 0.171 0.558 C 0.17 0.554 0.169 0.553 0.166 0.555 C 0.161 0.556 0.16 0.547 0.164 0.537 C 0.165 0.535 0.165 0.533 0.163 0.532 C 0.162 0.531 0.161 0.532 0.16 0.533 C 0.159 0.537 0.152 0.535 0.153 0.531 C 0.153 0.528 0.152 0.528 0.15 0.531 C 0.147 0.533 0.144 0.535 0.138 0.537 C 0.137 0.537 0.134 0.541 0.132 0.544 C 0.13 0.548 0.128 0.55 0.128 0.549 C 0.128 0.539 0.124 0.558 0.123 0.569 C 0.123 0.571 0.122 0.572 0.122 0.572 C 0.121 0.572 0.121 0.573 0.121 0.575 C 0.122 0.576 0.121 0.578 0.12 0.578 C 0.119 0.578 0.119 0.579 0.12 0.581 C 0.123 0.588 0.123 0.616 0.12 0.61 C 0.118 0.607 0.117 0.605 0.118 0.607 C 0.12 0.613 0.12 0.625 0.119 0.625 C 0.118 0.625 0.117 0.626 0.118 0.627 C 0.118 0.629 0.118 0.631 0.117 0.633 C 0.113 0.637 0.11 0.639 0.108 0.635 C 0.108 0.633 0.108 0.633 0.109 0.635 C 0.111 0.636 0.111 0.636 0.11 0.634 C 0.11 0.632 0.108 0.631 0.107 0.632 C 0.106 0.633 0.105 0.632 0.105 0.63 C 0.105 0.627 0.104 0.625 0.102 0.624 C 0.099 0.623 0.098 0.613 0.101 0.603 C 0.103 0.6 0.103 0.596 0.103 0.595 C 0.102 0.594 0.102 0.595 0.102 0.596 C 0.102 0.598 0.099 0.599 0.095 0.599 C 0.092 0.599 0.088 0.601 0.088 0.603 C 0.087 0.605 0.086 0.606 0.085 0.605 C 0.084 0.603 0.085 0.601 0.086 0.6 C 0.088 0.598 0.088 0.597 0.086 0.594 C 0.084 0.591 0.084 0.591 0.085 0.594 C 0.086 0.597 0.086 0.597 0.085 0.596 C 0.081 0.592 0.079 0.582 0.082 0.585 C 0.084 0.587 0.086 0.588 0.087 0.587 C 0.088 0.586 0.089 0.588 0.089 0.591 C 0.089 0.598 0.09 0.599 0.095 0.593 L 0.099 0.588 L 0.095 0.584 C 0.093 0.581 0.091 0.579 0.091 0.579 C 0.09 0.58 0.089 0.578 0.088 0.575 C 0.087 0.572 0.086 0.571 0.083 0.574 C 0.08 0.578 0.079 0.576 0.081 0.571 C 0.083 0.566 0.091 0.567 0.09 0.571 C 0.089 0.574 0.09 0.575 0.094 0.573 C 0.099 0.571 0.101 0.574 0.104 0.584 C 0.106 0.589 0.107 0.586 0.114 0.561 C 0.124 0.523 0.124 0.517 0.113 0.521 C 0.109 0.522 0.107 0.522 0.105 0.518 C 0.103 0.516 0.102 0.515 0.101 0.516 C 0.1 0.517 0.099 0.511 0.096 0.499 C 0.095 0.494 0.095 0.494 0.094 0.497 C 0.093 0.5 0.092 0.5 0.092 0.499 C 0.092 0.498 0.091 0.498 0.09 0.5 C 0.088 0.502 0.088 0.502 0.087 0.5 C 0.086 0.498 0.086 0.497 0.087 0.498 C 0.088 0.499 0.089 0.498 0.09 0.496 C 0.09 0.493 0.09 0.492 0.088 0.493 C 0.087 0.494 0.086 0.494 0.086 0.492 C 0.086 0.49 0.085 0.489 0.084 0.49 C 0.083 0.491 0.081 0.49 0.081 0.488 C 0.08 0.484 0.074 0.496 0.074 0.502 C 0.074 0.504 0.073 0.506 0.072 0.506 C 0.071 0.506 0.07 0.507 0.07 0.51 C 0.07 0.512 0.07 0.514 0.069 0.514 C 0.068 0.514 0.067 0.519 0.067 0.526 C 0.067 0.548 0.066 0.555 0.061 0.557 C 0.054 0.56 0.053 0.569 0.053 0.6 C 0.053 0.631 0.048 0.675 0.044 0.675 C 0.042 0.675 0.042 0.665 0.044 0.659 C 0.046 0.651 0.05 0.618 0.049 0.611 C 0.047 0.578 0.045 0.574 0.044 0.601 C 0.044 0.623 0.043 0.628 0.042 0.628 C 0.041 0.628 0.041 0.629 0.041 0.63 C 0.042 0.633 0.037 0.642 0.034 0.642 C 0.033 0.642 0.033 0.639 0.033 0.637 C 0.033 0.633 0.033 0.632 0.031 0.636 C 0.028 0.645 0.03 0.632 0.034 0.618 C 0.037 0.606 0.037 0.602 0.036 0.596 C 0.035 0.592 0.034 0.585 0.034 0.58 C 0.034 0.575 0.033 0.568 0.032 0.564 C 0.03 0.56 0.028 0.555 0.028 0.552 C 0.026 0.542 0.023 0.549 0.023 0.563 C 0.023 0.571 0.022 0.577 0.021 0.577 C 0.02 0.577 0.016 0.58 0.013 0.583 C 0.009 0.586 0.007 0.588 0.009 0.588 C 0.011 0.587 0.013 0.588 0.013 0.59 C 0.013 0.592 0.015 0.59 0.017 0.586 C 0.019 0.582 0.02 0.581 0.02 0.582 C 0.02 0.588 0.016 0.595 0.013 0.593 C 0.011 0.592 0.009 0.593 0.009 0.595 C 0.008 0.597 0.007 0.597 0.006 0.594 C 0.005 0.591 0.005 0.592 0.005 0.596 C 0.006 0.601 0.006 0.602 0.003 0.603 C 0 0.605 0 0.607 0 0.802 L 0.001 0.998 L 0.136 0.999 C 0.268 1 0.278 0.999 0.276 0.994 C 0.275 0.992 0.274 0.992 0.273 0.993 C 0.272 0.994 0.273 0.992 0.275 0.989 C 0.278 0.983 0.28 0.979 0.277 0.982 C 0.275 0.983 0.275 0.982 0.276 0.978 C 0.277 0.974 0.276 0.972 0.276 0.973 C 0.275 0.974 0.274 0.971 0.274 0.967 C 0.274 0.964 0.273 0.959 0.271 0.957 C 0.268 0.953 0.268 0.953 0.271 0.947 C 0.273 0.944 0.274 0.942 0.275 0.943 C 0.276 0.945 0.28 0.939 0.28 0.935 C 0.28 0.933 0.279 0.934 0.277 0.937 C 0.275 0.942 0.275 0.942 0.277 0.935 C 0.278 0.929 0.278 0.926 0.277 0.925 C 0.276 0.925 0.276 0.922 0.276 0.92 C 0.277 0.917 0.277 0.916 0.275 0.917 C 0.273 0.919 0.272 0.918 0.272 0.912 C 0.273 0.909 0.273 0.906 0.273 0.906 C 0.277 0.906 0.279 0.905 0.276 0.902 C 0.274 0.901 0.272 0.898 0.272 0.895 C 0.272 0.89 0.272 0.89 0.274 0.895 C 0.275 0.898 0.277 0.9 0.279 0.9 C 0.283 0.9 0.284 0.904 0.281 0.906 C 0.28 0.907 0.283 0.907 0.289 0.906 C 0.297 0.905 0.299 0.906 0.302 0.91 C 0.304 0.913 0.307 0.917 0.309 0.919 C 0.311 0.921 0.313 0.923 0.312 0.924 C 0.312 0.931 0.313 0.934 0.314 0.931 C 0.317 0.926 0.322 0.932 0.322 0.94 C 0.322 0.943 0.323 0.947 0.324 0.949 C 0.326 0.953 0.324 0.954 0.321 0.95 C 0.319 0.949 0.319 0.945 0.32 0.941 C 0.32 0.936 0.32 0.933 0.318 0.932 C 0.317 0.931 0.316 0.932 0.316 0.935 C 0.316 0.94 0.313 0.94 0.31 0.934 C 0.308 0.931 0.308 0.931 0.308 0.934 C 0.308 0.936 0.31 0.939 0.313 0.941 C 0.317 0.943 0.317 0.944 0.314 0.943 C 0.312 0.943 0.309 0.941 0.308 0.94 C 0.305 0.938 0.303 0.946 0.303 0.958 L 0.304 0.965 L 0.305 0.958 C 0.306 0.952 0.306 0.953 0.306 0.961 C 0.305 0.966 0.305 0.971 0.305 0.973 C 0.305 0.975 0.304 0.974 0.303 0.972 C 0.301 0.967 0.299 0.981 0.301 0.988 C 0.302 0.991 0.302 0.993 0.302 0.994 C 0.302 0.995 0.303 0.996 0.305 0.996 C 0.308 0.997 0.308 0.997 0.305 0.993 C 0.304 0.991 0.303 0.989 0.304 0.989 C 0.305 0.989 0.307 0.991 0.308 0.994 C 0.316 1.006 0.375 0.999 0.375 0.985 C 0.375 0.983 0.374 0.984 0.372 0.987 C 0.369 0.992 0.367 0.99 0.365 0.981 C 0.364 0.978 0.363 0.975 0.363 0.975 C 0.362 0.975 0.361 0.971 0.36 0.966 C 0.358 0.962 0.357 0.958 0.356 0.958 C 0.355 0.958 0.355 0.956 0.355 0.954 C 0.355 0.952 0.354 0.95 0.353 0.95 C 0.353 0.95 0.352 0.948 0.351 0.945 C 0.351 0.942 0.35 0.938 0.349 0.936 C 0.349 0.934 0.351 0.938 0.355 0.946 C 0.359 0.953 0.362 0.957 0.362 0.955 C 0.361 0.949 0.366 0.941 0.371 0.941 C 0.377 0.941 0.378 0.936 0.372 0.935 C 0.37 0.935 0.367 0.935 0.367 0.934 C 0.366 0.934 0.364 0.934 0.363 0.933 C 0.361 0.933 0.361 0.931 0.362 0.926 C 0.362 0.921 0.362 0.919 0.36 0.916 C 0.358 0.915 0.356 0.911 0.356 0.909 C 0.356 0.906 0.356 0.905 0.355 0.906 C 0.354 0.908 0.35 0.904 0.343 0.894 C 0.34 0.891 0.336 0.887 0.334 0.887 C 0.332 0.886 0.33 0.884 0.329 0.883 C 0.328 0.881 0.327 0.881 0.327 0.882 C 0.327 0.883 0.325 0.882 0.323 0.879 C 0.321 0.877 0.319 0.875 0.319 0.876 C 0.319 0.877 0.318 0.877 0.316 0.874 C 0.315 0.872 0.312 0.871 0.311 0.872 C 0.309 0.872 0.308 0.871 0.309 0.869 C 0.31 0.867 0.309 0.866 0.308 0.868 C 0.307 0.869 0.305 0.868 0.303 0.865 C 0.299 0.861 0.292 0.861 0.29 0.865 C 0.289 0.866 0.29 0.867 0.299 0.868 C 0.304 0.868 0.307 0.872 0.305 0.875 C 0.305 0.877 0.305 0.878 0.306 0.877 C 0.307 0.876 0.309 0.877 0.31 0.88 C 0.312 0.883 0.314 0.885 0.314 0.884 C 0.315 0.883 0.316 0.884 0.316 0.886 C 0.316 0.888 0.316 0.889 0.317 0.888 C 0.317 0.887 0.319 0.888 0.32 0.89 C 0.321 0.892 0.326 0.896 0.33 0.899 C 0.339 0.904 0.348 0.917 0.344 0.919 C 0.343 0.919 0.343 0.921 0.343 0.923 C 0.344 0.924 0.344 0.925 0.343 0.924 C 0.337 0.92 0.329 0.912 0.328 0.911 C 0.327 0.909 0.322 0.905 0.321 0.905 C 0.32 0.906 0.319 0.903 0.318 0.901 C 0.316 0.898 0.314 0.896 0.312 0.896 C 0.31 0.897 0.308 0.896 0.308 0.894 C 0.307 0.891 0.306 0.891 0.306 0.894 C 0.306 0.895 0.305 0.897 0.303 0.897 C 0.301 0.897 0.298 0.899 0.297 0.9 C 0.296 0.902 0.296 0.901 0.298 0.898 L 0.301 0.891 L 0.296 0.891 C 0.291 0.891 0.291 0.892 0.291 0.896 C 0.292 0.9 0.292 0.9 0.289 0.899 C 0.287 0.898 0.283 0.897 0.281 0.897 C 0.277 0.897 0.277 0.896 0.277 0.889 C 0.276 0.885 0.276 0.883 0.276 0.885 C 0.274 0.89 0.268 0.879 0.269 0.874 C 0.271 0.868 0.268 0.865 0.265 0.869 C 0.263 0.873 0.261 0.873 0.261 0.867 C 0.261 0.863 0.261 0.863 0.263 0.866 C 0.264 0.87 0.264 0.87 0.264 0.866 C 0.264 0.86 0.266 0.86 0.269 0.865 C 0.273 0.873 0.277 0.875 0.28 0.87 C 0.282 0.867 0.283 0.867 0.282 0.869 C 0.282 0.871 0.282 0.871 0.284 0.87 C 0.288 0.867 0.288 0.861 0.283 0.863 C 0.281 0.863 0.28 0.863 0.281 0.861 C 0.281 0.859 0.28 0.856 0.279 0.854 C 0.278 0.851 0.277 0.848 0.277 0.847 C 0.279 0.843 0.274 0.842 0.269 0.846 C 0.265 0.847 0.262 0.848 0.261 0.847 C 0.26 0.846 0.255 0.845 0.252 0.845 C 0.246 0.845 0.245 0.845 0.244 0.84 C 0.244 0.835 0.244 0.835 0.245 0.84 C 0.247 0.845 0.247 0.845 0.246 0.839 C 0.246 0.835 0.247 0.828 0.25 0.821 C 0.258 0.8 0.257 0.79 0.248 0.798 C 0.242 0.802 0.239 0.799 0.24 0.789 C 0.241 0.781 0.241 0.78 0.237 0.78 C 0.235 0.78 0.233 0.779 0.232 0.777 C 0.23 0.773 0.228 0.756 0.23 0.756 C 0.23 0.757 0.232 0.754 0.234 0.752 C 0.238 0.748 0.238 0.747 0.235 0.748 C 0.233 0.75 0.233 0.749 0.234 0.747 C 0.235 0.745 0.237 0.745 0.241 0.747 C 0.244 0.748 0.25 0.749 0.256 0.749 C 0.261 0.748 0.266 0.749 0.267 0.751 C 0.268 0.752 0.27 0.753 0.271 0.752 C 0.273 0.75 0.278 0.758 0.278 0.763 C 0.278 0.765 0.277 0.766 0.274 0.765 C 0.271 0.764 0.271 0.764 0.271 0.767 C 0.272 0.77 0.271 0.772 0.269 0.773 C 0.268 0.774 0.269 0.774 0.273 0.773 C 0.277 0.772 0.278 0.773 0.277 0.774 C 0.275 0.776 0.276 0.777 0.278 0.779 C 0.28 0.779 0.282 0.78 0.283 0.779 C 0.283 0.778 0.283 0.778 0.282 0.778 C 0.281 0.778 0.28 0.776 0.28 0.774 C 0.28 0.773 0.281 0.773 0.283 0.776 C 0.284 0.779 0.287 0.78 0.288 0.779 C 0.288 0.778 0.289 0.779 0.289 0.781 C 0.289 0.783 0.29 0.783 0.29 0.782 C 0.291 0.781 0.292 0.783 0.294 0.787 C 0.295 0.79 0.295 0.791 0.295 0.788 C 0.294 0.785 0.295 0.783 0.295 0.783 C 0.298 0.783 0.297 0.794 0.295 0.795 C 0.294 0.796 0.294 0.797 0.296 0.797 C 0.297 0.797 0.299 0.799 0.299 0.801 C 0.299 0.803 0.3 0.807 0.303 0.811 C 0.305 0.815 0.306 0.816 0.306 0.814 C 0.305 0.812 0.306 0.811 0.307 0.811 C 0.309 0.811 0.31 0.812 0.309 0.813 C 0.307 0.816 0.315 0.826 0.322 0.83 C 0.326 0.833 0.33 0.836 0.33 0.838 C 0.331 0.84 0.333 0.841 0.334 0.841 C 0.335 0.841 0.336 0.843 0.336 0.844 C 0.336 0.845 0.34 0.849 0.345 0.851 C 0.35 0.854 0.355 0.857 0.356 0.858 C 0.357 0.86 0.359 0.861 0.361 0.862 C 0.363 0.863 0.367 0.865 0.369 0.867 C 0.372 0.869 0.375 0.869 0.376 0.868 C 0.381 0.864 0.384 0.864 0.383 0.868 C 0.383 0.87 0.383 0.872 0.384 0.872 C 0.385 0.872 0.388 0.86 0.388 0.852 C 0.388 0.851 0.385 0.848 0.382 0.845 C 0.379 0.843 0.377 0.84 0.377 0.837 C 0.377 0.835 0.375 0.832 0.374 0.831 C 0.372 0.829 0.371 0.826 0.372 0.822 C 0.373 0.813 0.388 0.815 0.396 0.825 C 0.4 0.83 0.401 0.83 0.402 0.827 C 0.404 0.821 0.394 0.798 0.391 0.801 C 0.389 0.803 0.388 0.795 0.39 0.792 C 0.391 0.79 0.39 0.788 0.387 0.786 C 0.385 0.784 0.383 0.781 0.382 0.778 C 0.379 0.77 0.385 0.771 0.389 0.779 C 0.39 0.782 0.394 0.786 0.397 0.787 C 0.399 0.788 0.403 0.791 0.405 0.794 C 0.407 0.797 0.41 0.8 0.412 0.801 C 0.416 0.803 0.417 0.807 0.414 0.814 C 0.413 0.817 0.412 0.817 0.412 0.814 C 0.41 0.809 0.408 0.81 0.408 0.817 C 0.408 0.821 0.409 0.822 0.411 0.821 C 0.413 0.82 0.414 0.821 0.414 0.822 C 0.414 0.824 0.415 0.824 0.416 0.823 C 0.417 0.822 0.418 0.824 0.418 0.827 C 0.419 0.833 0.419 0.833 0.425 0.826 C 0.429 0.82 0.43 0.819 0.431 0.822 C 0.432 0.824 0.433 0.825 0.434 0.822 C 0.434 0.821 0.434 0.819 0.433 0.819 C 0.433 0.819 0.433 0.818 0.434 0.817 C 0.438 0.813 0.447 0.817 0.446 0.821 C 0.445 0.824 0.446 0.825 0.447 0.824 C 0.448 0.823 0.449 0.821 0.449 0.82 C 0.449 0.818 0.45 0.816 0.451 0.816 C 0.452 0.814 0.453 0.816 0.452 0.821 C 0.452 0.826 0.452 0.827 0.453 0.826 C 0.456 0.823 0.454 0.83 0.45 0.838 C 0.446 0.845 0.448 0.848 0.454 0.846 C 0.458 0.844 0.458 0.835 0.456 0.82 C 0.454 0.813 0.454 0.813 0.465 0.812 C 0.467 0.812 0.469 0.811 0.47 0.81 C 0.473 0.807 0.504 0.807 0.506 0.81 C 0.509 0.813 0.521 0.813 0.524 0.81 C 0.527 0.807 0.532 0.815 0.531 0.82 C 0.53 0.821 0.531 0.823 0.532 0.825 C 0.535 0.828 0.539 0.822 0.539 0.815 C 0.539 0.812 0.54 0.811 0.541 0.812 C 0.542 0.812 0.543 0.815 0.543 0.817 C 0.542 0.82 0.543 0.822 0.544 0.822 C 0.545 0.822 0.545 0.821 0.545 0.819 C 0.545 0.815 0.554 0.808 0.557 0.81 C 0.56 0.812 0.561 0.821 0.559 0.824 C 0.558 0.826 0.558 0.829 0.56 0.834 C 0.562 0.837 0.563 0.842 0.563 0.846 C 0.563 0.851 0.563 0.851 0.564 0.846 C 0.565 0.844 0.566 0.839 0.566 0.835 C 0.565 0.826 0.566 0.823 0.567 0.827 C 0.568 0.83 0.569 0.83 0.574 0.827 C 0.579 0.823 0.58 0.823 0.581 0.827 C 0.583 0.835 0.589 0.837 0.593 0.83 C 0.596 0.826 0.597 0.825 0.598 0.828 C 0.598 0.83 0.598 0.828 0.598 0.823 C 0.597 0.814 0.599 0.81 0.603 0.809 C 0.604 0.809 0.606 0.807 0.607 0.805 C 0.608 0.803 0.608 0.802 0.607 0.804 C 0.606 0.805 0.605 0.804 0.605 0.802 C 0.604 0.798 0.597 0.797 0.597 0.8 C 0.597 0.802 0.596 0.802 0.595 0.801 C 0.595 0.8 0.594 0.801 0.594 0.803 C 0.594 0.804 0.593 0.805 0.592 0.804 C 0.591 0.803 0.591 0.803 0.591 0.805 C 0.592 0.806 0.591 0.809 0.59 0.811 C 0.588 0.814 0.587 0.814 0.588 0.812 C 0.59 0.805 0.583 0.808 0.581 0.814 C 0.579 0.819 0.578 0.819 0.579 0.816 C 0.58 0.812 0.579 0.811 0.576 0.811 C 0.574 0.811 0.574 0.812 0.575 0.815 C 0.576 0.818 0.577 0.82 0.576 0.821 C 0.576 0.821 0.575 0.819 0.574 0.815 C 0.572 0.811 0.571 0.808 0.57 0.808 C 0.568 0.808 0.574 0.794 0.576 0.794 C 0.577 0.794 0.58 0.792 0.583 0.789 C 0.586 0.786 0.592 0.782 0.596 0.779 C 0.599 0.777 0.605 0.769 0.609 0.763 C 0.615 0.752 0.629 0.739 0.634 0.739 C 0.635 0.739 0.636 0.737 0.636 0.736 C 0.636 0.734 0.639 0.731 0.642 0.729 C 0.645 0.726 0.648 0.723 0.649 0.72 C 0.65 0.718 0.651 0.717 0.652 0.717 C 0.654 0.717 0.655 0.715 0.655 0.712 C 0.656 0.71 0.656 0.708 0.655 0.708 C 0.654 0.708 0.653 0.706 0.653 0.704 C 0.653 0.701 0.655 0.7 0.657 0.701 C 0.659 0.701 0.661 0.702 0.661 0.703 C 0.661 0.704 0.662 0.705 0.663 0.705 C 0.664 0.705 0.664 0.704 0.663 0.7 C 0.66 0.693 0.661 0.692 0.665 0.691 C 0.667 0.691 0.668 0.689 0.668 0.687 C 0.669 0.681 0.673 0.669 0.675 0.668 C 0.679 0.666 0.679 0.664 0.677 0.659 C 0.676 0.656 0.677 0.651 0.679 0.645 C 0.68 0.64 0.681 0.633 0.681 0.631 C 0.68 0.628 0.681 0.623 0.683 0.619 C 0.685 0.615 0.686 0.608 0.686 0.603 C 0.686 0.592 0.691 0.582 0.695 0.585 C 0.699 0.586 0.701 0.582 0.699 0.579 C 0.696 0.576 0.697 0.569 0.701 0.566 C 0.703 0.564 0.704 0.562 0.703 0.56 C 0.702 0.556 0.704 0.544 0.706 0.544 C 0.709 0.544 0.709 0.534 0.706 0.532 C 0.702 0.531 0.702 0.525 0.706 0.523 C 0.708 0.522 0.709 0.52 0.709 0.518 C 0.708 0.516 0.709 0.514 0.709 0.513 C 0.71 0.512 0.711 0.512 0.711 0.514 C 0.711 0.516 0.712 0.516 0.713 0.515 C 0.714 0.514 0.714 0.515 0.714 0.517 C 0.714 0.518 0.715 0.519 0.716 0.518 C 0.717 0.517 0.717 0.519 0.717 0.523 C 0.717 0.527 0.716 0.531 0.715 0.531 C 0.714 0.531 0.714 0.531 0.715 0.533 C 0.718 0.538 0.725 0.534 0.729 0.525 C 0.732 0.517 0.732 0.515 0.73 0.512 C 0.729 0.51 0.728 0.506 0.728 0.504 C 0.728 0.498 0.721 0.498 0.719 0.503 C 0.718 0.506 0.703 0.508 0.702 0.505 C 0.702 0.503 0.713 0.482 0.719 0.476 C 0.724 0.47 0.73 0.454 0.73 0.446 C 0.73 0.442 0.732 0.435 0.734 0.429 C 0.739 0.416 0.737 0.381 0.731 0.368 C 0.73 0.367 0.73 0.363 0.73 0.361 C 0.73 0.358 0.728 0.352 0.726 0.348 C 0.72 0.339 0.72 0.334 0.722 0.329 C 0.723 0.327 0.724 0.325 0.723 0.325 C 0.717 0.327 0.712 0.312 0.716 0.303 C 0.717 0.299 0.717 0.295 0.716 0.29 C 0.715 0.285 0.715 0.281 0.718 0.273 C 0.72 0.266 0.72 0.264 0.719 0.265 C 0.718 0.265 0.716 0.268 0.716 0.272 C 0.716 0.275 0.714 0.278 0.713 0.279 C 0.711 0.281 0.711 0.28 0.712 0.277 C 0.713 0.276 0.714 0.272 0.714 0.269 C 0.714 0.267 0.716 0.263 0.717 0.26 C 0.721 0.254 0.721 0.247 0.718 0.247 C 0.715 0.247 0.715 0.247 0.717 0.245 C 0.719 0.243 0.72 0.243 0.72 0.243 C 0.721 0.244 0.723 0.242 0.725 0.239 C 0.727 0.236 0.728 0.234 0.727 0.234 C 0.726 0.233 0.725 0.232 0.726 0.231 C 0.727 0.227 0.72 0.225 0.715 0.228 C 0.713 0.229 0.711 0.229 0.71 0.228 C 0.71 0.227 0.71 0.228 0.71 0.231 C 0.711 0.233 0.711 0.234 0.71 0.233 C 0.71 0.231 0.709 0.227 0.708 0.223 C 0.708 0.217 0.708 0.216 0.71 0.22 C 0.711 0.223 0.711 0.222 0.711 0.217 C 0.711 0.213 0.709 0.21 0.708 0.209 C 0.706 0.208 0.706 0.208 0.708 0.211 C 0.71 0.214 0.71 0.214 0.708 0.213 C 0.707 0.213 0.706 0.21 0.706 0.208 C 0.706 0.206 0.705 0.203 0.704 0.2 C 0.703 0.198 0.703 0.197 0.705 0.198 C 0.706 0.2 0.706 0.199 0.706 0.197 C 0.706 0.194 0.698 0.195 0.692 0.199 C 0.689 0.201 0.689 0.201 0.69 0.197 C 0.691 0.195 0.692 0.192 0.691 0.191 C 0.691 0.19 0.692 0.189 0.694 0.188 C 0.696 0.187 0.697 0.185 0.696 0.183 C 0.696 0.182 0.696 0.181 0.697 0.181 C 0.699 0.181 0.699 0.18 0.697 0.178 C 0.696 0.176 0.694 0.177 0.692 0.179 C 0.689 0.184 0.682 0.185 0.68 0.179 C 0.679 0.175 0.679 0.175 0.678 0.18 C 0.677 0.183 0.677 0.183 0.677 0.176 C 0.677 0.17 0.678 0.168 0.679 0.17 C 0.68 0.171 0.682 0.171 0.683 0.169 C 0.685 0.167 0.685 0.167 0.683 0.168 C 0.682 0.168 0.679 0.166 0.677 0.163 C 0.674 0.158 0.666 0.159 0.668 0.164 C 0.669 0.166 0.668 0.166 0.666 0.164 C 0.663 0.161 0.663 0.152 0.665 0.148 C 0.666 0.147 0.666 0.147 0.665 0.149 C 0.665 0.151 0.665 0.153 0.666 0.154 C 0.667 0.155 0.667 0.157 0.666 0.159 C 0.666 0.161 0.667 0.161 0.669 0.159 C 0.673 0.155 0.673 0.152 0.669 0.148 C 0.666 0.145 0.665 0.145 0.663 0.148 C 0.66 0.151 0.659 0.151 0.657 0.147 C 0.656 0.143 0.655 0.143 0.654 0.145 C 0.653 0.147 0.652 0.147 0.651 0.145 C 0.649 0.141 0.647 0.147 0.648 0.154 C 0.649 0.158 0.646 0.165 0.642 0.168 C 0.639 0.17 0.635 0.163 0.635 0.157 C 0.635 0.155 0.634 0.153 0.633 0.153 C 0.632 0.153 0.632 0.154 0.632 0.156 C 0.633 0.157 0.632 0.158 0.631 0.158 C 0.629 0.158 0.629 0.16 0.629 0.161 C 0.63 0.163 0.63 0.165 0.629 0.167 C 0.628 0.17 0.621 0.164 0.62 0.159 C 0.62 0.156 0.619 0.157 0.619 0.161 C 0.619 0.17 0.616 0.168 0.616 0.159 C 0.616 0.153 0.617 0.151 0.619 0.152 C 0.62 0.153 0.62 0.152 0.618 0.149 C 0.616 0.147 0.615 0.146 0.614 0.146 C 0.613 0.147 0.611 0.144 0.61 0.139 C 0.608 0.133 0.606 0.131 0.606 0.132 C 0.606 0.133 0.605 0.132 0.604 0.129 C 0.603 0.126 0.601 0.125 0.601 0.127 C 0.599 0.132 0.594 0.134 0.594 0.13 C 0.594 0.128 0.592 0.131 0.59 0.136 C 0.587 0.147 0.585 0.142 0.586 0.124 C 0.586 0.118 0.585 0.117 0.582 0.117 C 0.58 0.117 0.578 0.116 0.578 0.114 C 0.577 0.113 0.576 0.111 0.575 0.111 C 0.574 0.111 0.574 0.112 0.575 0.115 C 0.576 0.117 0.576 0.12 0.577 0.123 C 0.577 0.134 0.577 0.136 0.578 0.135 C 0.58 0.132 0.583 0.141 0.581 0.144 C 0.579 0.149 0.581 0.151 0.588 0.153 C 0.589 0.153 0.589 0.155 0.589 0.157 C 0.589 0.163 0.581 0.162 0.577 0.156 C 0.576 0.154 0.573 0.151 0.571 0.151 C 0.56 0.15 0.554 0.145 0.556 0.139 C 0.556 0.138 0.555 0.135 0.554 0.133 C 0.551 0.13 0.551 0.13 0.553 0.135 C 0.555 0.14 0.555 0.14 0.553 0.137 C 0.551 0.134 0.55 0.131 0.551 0.128 C 0.552 0.124 0.551 0.122 0.548 0.119 C 0.546 0.117 0.545 0.117 0.544 0.119 C 0.544 0.121 0.543 0.122 0.541 0.122 C 0.54 0.122 0.539 0.125 0.54 0.13 C 0.54 0.134 0.539 0.138 0.538 0.138 C 0.536 0.139 0.536 0.139 0.537 0.137 C 0.539 0.134 0.539 0.114 0.537 0.114 C 0.536 0.114 0.536 0.111 0.537 0.107 C 0.537 0.103 0.537 0.1 0.535 0.099 C 0.531 0.096 0.53 0.097 0.531 0.102 C 0.532 0.105 0.531 0.105 0.529 0.104 C 0.527 0.103 0.526 0.104 0.525 0.107 C 0.524 0.109 0.522 0.111 0.521 0.111 C 0.52 0.111 0.515 0.117 0.51 0.124 C 0.499 0.139 0.491 0.141 0.486 0.131 C 0.484 0.127 0.482 0.125 0.481 0.126 C 0.48 0.127 0.477 0.126 0.475 0.123 C 0.473 0.121 0.469 0.119 0.465 0.119 C 0.46 0.118 0.457 0.117 0.455 0.113 C 0.453 0.108 0.451 0.107 0.444 0.107 C 0.436 0.107 0.434 0.11 0.438 0.113 C 0.442 0.115 0.441 0.12 0.438 0.119 C 0.437 0.118 0.433 0.118 0.429 0.119 L 0.423 0.121 L 0.427 0.128 C 0.432 0.139 0.431 0.14 0.421 0.139 C 0.415 0.139 0.402 0.143 0.396 0.148 C 0.395 0.149 0.392 0.15 0.39 0.15 C 0.387 0.149 0.374 0.162 0.372 0.168 C 0.371 0.17 0.37 0.17 0.37 0.169 C 0.37 0.167 0.369 0.168 0.368 0.17 C 0.365 0.173 0.365 0.173 0.367 0.169 C 0.369 0.164 0.369 0.141 0.366 0.14 C 0.365 0.139 0.365 0.137 0.365 0.134 C 0.366 0.13 0.366 0.13 0.363 0.134 C 0.361 0.139 0.354 0.145 0.351 0.146 C 0.351 0.146 0.347 0.152 0.342 0.159 C 0.337 0.168 0.333 0.172 0.331 0.172 C 0.329 0.172 0.327 0.174 0.326 0.177 C 0.325 0.181 0.319 0.178 0.314 0.17 C 0.311 0.166 0.311 0.166 0.312 0.173 C 0.314 0.185 0.297 0.194 0.293 0.183 C 0.292 0.179 0.289 0.183 0.289 0.189 C 0.289 0.193 0.289 0.193 0.291 0.189 C 0.292 0.185 0.292 0.186 0.292 0.19 C 0.292 0.192 0.293 0.195 0.294 0.197 C 0.295 0.198 0.298 0.203 0.3 0.209 L 0.303 0.22 L 0.298 0.22 C 0.295 0.22 0.289 0.223 0.284 0.228 C 0.279 0.233 0.273 0.236 0.271 0.236 C 0.269 0.236 0.267 0.238 0.266 0.24 C 0.266 0.243 0.264 0.245 0.263 0.245 C 0.262 0.245 0.259 0.248 0.257 0.253 C 0.255 0.257 0.252 0.26 0.251 0.259 C 0.251 0.259 0.249 0.26 0.247 0.263 C 0.245 0.266 0.244 0.266 0.243 0.264 C 0.243 0.263 0.243 0.261 0.244 0.261 C 0.248 0.261 0.249 0.256 0.246 0.251 C 0.243 0.246 0.242 0.246 0.242 0.252 C 0.242 0.259 0.236 0.255 0.235 0.248 C 0.234 0.239 0.234 0.238 0.227 0.238 C 0.222 0.239 0.22 0.233 0.224 0.229 C 0.225 0.228 0.225 0.228 0.224 0.231 C 0.223 0.234 0.224 0.234 0.225 0.232 C 0.229 0.225 0.228 0.196 0.224 0.199 C 0.221 0.201 0.221 0.199 0.224 0.191 C 0.225 0.188 0.226 0.179 0.226 0.171 C 0.226 0.163 0.227 0.154 0.227 0.15 C 0.228 0.146 0.229 0.139 0.229 0.133 C 0.229 0.126 0.229 0.122 0.231 0.122 C 0.232 0.122 0.233 0.124 0.232 0.125 C 0.232 0.127 0.232 0.13 0.234 0.132 C 0.235 0.134 0.237 0.14 0.237 0.146 C 0.238 0.155 0.239 0.157 0.242 0.157 C 0.243 0.157 0.246 0.158 0.247 0.16 C 0.249 0.161 0.251 0.161 0.252 0.161 C 0.254 0.159 0.255 0.147 0.254 0.147 C 0.253 0.147 0.252 0.144 0.252 0.139 C 0.252 0.132 0.253 0.131 0.255 0.132 C 0.257 0.132 0.258 0.132 0.258 0.13 C 0.258 0.129 0.259 0.128 0.26 0.128 C 0.26 0.128 0.261 0.129 0.26 0.13 C 0.26 0.132 0.261 0.132 0.263 0.132 C 0.266 0.13 0.266 0.128 0.263 0.12 C 0.261 0.115 0.261 0.114 0.264 0.11 C 0.266 0.105 0.266 0.105 0.267 0.11 C 0.268 0.114 0.268 0.113 0.271 0.109 C 0.272 0.105 0.275 0.103 0.276 0.103 C 0.278 0.103 0.278 0.1 0.278 0.093 C 0.278 0.088 0.279 0.081 0.28 0.076 L 0.281 0.069 L 0.285 0.075 C 0.287 0.078 0.289 0.081 0.289 0.081 C 0.29 0.081 0.293 0.035 0.293 0.014 L 0.293 0.002 L 0.148 0.001 C 0.068 0.001 0.002 0.001 0.001 0.002 Z  M 0.337 0.004 C 0.338 0.007 0.339 0.008 0.34 0.007 C 0.341 0.006 0.344 0.005 0.347 0.005 C 0.35 0.006 0.352 0.005 0.351 0.003 C 0.349 -0.002 0.336 -0.001 0.337 0.004 Z  M 0.655 0.003 C 0.652 0.004 0.652 0.005 0.654 0.008 C 0.655 0.01 0.656 0.011 0.656 0.01 C 0.656 0.008 0.657 0.01 0.658 0.012 C 0.659 0.014 0.662 0.017 0.663 0.018 C 0.665 0.018 0.666 0.02 0.666 0.022 C 0.666 0.024 0.666 0.025 0.667 0.024 C 0.674 0.017 0.674 0.031 0.667 0.041 C 0.663 0.048 0.663 0.055 0.667 0.052 C 0.668 0.051 0.669 0.051 0.669 0.053 C 0.669 0.055 0.677 0.054 0.68 0.052 C 0.68 0.051 0.682 0.053 0.685 0.055 C 0.688 0.059 0.688 0.059 0.685 0.058 C 0.683 0.057 0.682 0.057 0.682 0.059 C 0.683 0.06 0.684 0.061 0.686 0.061 C 0.688 0.061 0.689 0.063 0.69 0.066 C 0.69 0.068 0.691 0.069 0.692 0.068 C 0.693 0.068 0.694 0.068 0.695 0.069 C 0.695 0.071 0.699 0.071 0.704 0.071 C 0.717 0.069 0.72 0.081 0.708 0.09 C 0.705 0.092 0.702 0.097 0.701 0.099 C 0.7 0.104 0.698 0.106 0.69 0.106 C 0.687 0.106 0.686 0.107 0.686 0.111 C 0.686 0.118 0.692 0.118 0.695 0.111 C 0.696 0.109 0.696 0.111 0.695 0.118 C 0.692 0.129 0.694 0.136 0.7 0.136 C 0.705 0.136 0.699 0.149 0.693 0.152 C 0.69 0.153 0.688 0.16 0.688 0.167 C 0.688 0.168 0.69 0.168 0.694 0.168 C 0.697 0.168 0.7 0.169 0.701 0.17 C 0.705 0.174 0.711 0.175 0.712 0.171 C 0.713 0.168 0.714 0.167 0.715 0.17 C 0.717 0.172 0.717 0.172 0.717 0.169 C 0.717 0.166 0.718 0.164 0.719 0.164 C 0.72 0.164 0.72 0.165 0.72 0.167 C 0.719 0.168 0.72 0.17 0.721 0.172 C 0.724 0.174 0.724 0.175 0.722 0.181 C 0.718 0.19 0.72 0.194 0.726 0.193 C 0.738 0.192 0.746 0.182 0.74 0.176 C 0.738 0.173 0.738 0.173 0.741 0.171 C 0.747 0.167 0.749 0.167 0.749 0.17 C 0.751 0.174 0.757 0.173 0.755 0.169 C 0.755 0.167 0.755 0.166 0.756 0.168 C 0.758 0.171 0.758 0.178 0.756 0.178 C 0.755 0.178 0.755 0.179 0.755 0.18 C 0.756 0.181 0.755 0.185 0.752 0.189 C 0.75 0.193 0.749 0.197 0.749 0.198 C 0.749 0.199 0.747 0.2 0.746 0.2 C 0.744 0.2 0.743 0.201 0.745 0.203 C 0.747 0.204 0.747 0.206 0.746 0.206 C 0.745 0.206 0.744 0.207 0.743 0.207 C 0.739 0.208 0.734 0.215 0.735 0.218 C 0.736 0.221 0.735 0.222 0.734 0.222 C 0.733 0.222 0.733 0.224 0.734 0.227 C 0.734 0.23 0.734 0.231 0.732 0.23 C 0.731 0.229 0.73 0.23 0.73 0.233 C 0.73 0.236 0.728 0.241 0.726 0.244 C 0.724 0.247 0.723 0.25 0.723 0.251 C 0.724 0.252 0.723 0.255 0.721 0.257 C 0.719 0.26 0.719 0.261 0.72 0.261 C 0.722 0.26 0.723 0.257 0.724 0.254 C 0.725 0.251 0.727 0.247 0.729 0.245 C 0.73 0.243 0.731 0.24 0.731 0.237 C 0.731 0.235 0.733 0.233 0.735 0.233 C 0.736 0.233 0.738 0.234 0.737 0.236 C 0.737 0.237 0.738 0.238 0.741 0.238 C 0.745 0.238 0.744 0.233 0.739 0.23 C 0.738 0.229 0.742 0.229 0.748 0.229 C 0.753 0.23 0.759 0.231 0.759 0.232 C 0.76 0.233 0.759 0.234 0.757 0.233 C 0.754 0.231 0.754 0.231 0.757 0.235 C 0.759 0.238 0.761 0.238 0.762 0.235 C 0.764 0.233 0.765 0.233 0.764 0.236 C 0.763 0.238 0.763 0.239 0.764 0.239 C 0.766 0.238 0.768 0.239 0.769 0.24 C 0.771 0.241 0.773 0.242 0.773 0.241 C 0.774 0.24 0.773 0.239 0.772 0.239 C 0.767 0.239 0.769 0.235 0.773 0.234 C 0.775 0.234 0.776 0.235 0.776 0.237 C 0.775 0.239 0.776 0.238 0.777 0.235 C 0.779 0.232 0.781 0.231 0.784 0.231 C 0.789 0.232 0.789 0.237 0.783 0.249 C 0.781 0.252 0.78 0.255 0.78 0.256 C 0.78 0.257 0.779 0.263 0.777 0.268 C 0.773 0.285 0.774 0.287 0.784 0.286 C 0.792 0.285 0.792 0.285 0.79 0.291 C 0.785 0.304 0.794 0.316 0.803 0.307 C 0.804 0.305 0.806 0.304 0.807 0.304 C 0.807 0.305 0.809 0.303 0.81 0.299 C 0.812 0.295 0.814 0.292 0.814 0.293 C 0.815 0.294 0.816 0.293 0.817 0.29 C 0.819 0.288 0.821 0.286 0.825 0.287 C 0.83 0.287 0.831 0.29 0.828 0.293 C 0.828 0.294 0.827 0.297 0.828 0.299 C 0.828 0.301 0.828 0.303 0.827 0.303 C 0.826 0.303 0.825 0.305 0.825 0.307 C 0.824 0.31 0.824 0.311 0.825 0.31 C 0.826 0.309 0.827 0.31 0.827 0.312 C 0.827 0.315 0.828 0.317 0.829 0.317 C 0.83 0.317 0.83 0.316 0.829 0.315 C 0.828 0.313 0.839 0.297 0.842 0.297 C 0.843 0.297 0.845 0.294 0.848 0.29 C 0.85 0.287 0.853 0.283 0.853 0.283 C 0.854 0.283 0.855 0.282 0.855 0.281 C 0.855 0.28 0.857 0.279 0.86 0.279 C 0.863 0.279 0.865 0.28 0.865 0.281 C 0.864 0.283 0.865 0.286 0.866 0.288 C 0.867 0.29 0.867 0.292 0.866 0.291 C 0.863 0.289 0.86 0.298 0.863 0.304 C 0.865 0.308 0.865 0.31 0.864 0.311 C 0.863 0.313 0.863 0.314 0.864 0.315 C 0.866 0.315 0.866 0.318 0.863 0.324 C 0.861 0.329 0.86 0.33 0.86 0.327 C 0.86 0.325 0.861 0.321 0.862 0.32 C 0.864 0.318 0.864 0.317 0.863 0.317 C 0.861 0.317 0.852 0.335 0.852 0.34 C 0.852 0.344 0.853 0.345 0.856 0.344 C 0.862 0.342 0.865 0.347 0.863 0.355 C 0.862 0.359 0.861 0.361 0.862 0.361 C 0.862 0.361 0.862 0.364 0.861 0.367 C 0.859 0.373 0.859 0.373 0.861 0.37 C 0.863 0.368 0.864 0.368 0.865 0.369 C 0.865 0.37 0.866 0.368 0.866 0.366 C 0.866 0.363 0.867 0.361 0.867 0.361 C 0.868 0.361 0.869 0.359 0.868 0.356 C 0.867 0.349 0.869 0.342 0.871 0.342 C 0.874 0.342 0.874 0.343 0.872 0.35 C 0.871 0.353 0.871 0.356 0.872 0.359 C 0.875 0.366 0.88 0.35 0.878 0.338 C 0.878 0.337 0.879 0.337 0.88 0.338 C 0.881 0.339 0.882 0.338 0.883 0.337 C 0.885 0.335 0.886 0.334 0.888 0.335 C 0.893 0.337 0.895 0.338 0.896 0.34 C 0.896 0.342 0.898 0.341 0.899 0.339 C 0.903 0.334 0.908 0.34 0.907 0.348 C 0.906 0.355 0.906 0.355 0.906 0.361 C 0.906 0.363 0.907 0.364 0.907 0.363 C 0.908 0.362 0.909 0.362 0.91 0.364 C 0.911 0.365 0.914 0.367 0.918 0.369 C 0.924 0.373 0.931 0.395 0.929 0.405 C 0.929 0.411 0.931 0.416 0.934 0.415 C 0.935 0.414 0.936 0.415 0.936 0.417 C 0.936 0.418 0.937 0.419 0.938 0.418 C 0.939 0.417 0.939 0.418 0.938 0.422 C 0.937 0.425 0.937 0.428 0.937 0.429 C 0.938 0.43 0.937 0.43 0.935 0.43 C 0.927 0.429 0.924 0.431 0.924 0.436 C 0.924 0.439 0.924 0.442 0.925 0.442 C 0.927 0.442 0.928 0.453 0.929 0.466 C 0.929 0.469 0.93 0.471 0.93 0.47 C 0.931 0.47 0.931 0.468 0.931 0.466 C 0.93 0.465 0.931 0.464 0.932 0.464 C 0.933 0.464 0.935 0.461 0.935 0.458 C 0.937 0.449 0.944 0.447 0.944 0.455 C 0.944 0.458 0.945 0.461 0.947 0.462 C 0.95 0.463 0.951 0.461 0.95 0.455 C 0.95 0.453 0.951 0.453 0.952 0.454 C 0.953 0.455 0.954 0.455 0.955 0.454 C 0.956 0.453 0.959 0.451 0.961 0.451 C 0.963 0.451 0.965 0.449 0.966 0.447 C 0.967 0.445 0.967 0.444 0.967 0.446 C 0.967 0.447 0.968 0.447 0.97 0.445 C 0.971 0.442 0.973 0.443 0.976 0.449 C 0.979 0.454 0.98 0.457 0.978 0.458 C 0.977 0.46 0.977 0.462 0.977 0.464 C 0.978 0.465 0.977 0.468 0.976 0.468 C 0.97 0.473 0.981 0.476 0.989 0.472 C 0.989 0.471 0.99 0.472 0.99 0.474 C 0.99 0.475 0.989 0.476 0.989 0.476 C 0.988 0.475 0.988 0.476 0.988 0.478 C 0.989 0.479 0.989 0.481 0.988 0.481 C 0.987 0.481 0.986 0.479 0.986 0.477 C 0.985 0.475 0.985 0.476 0.985 0.479 C 0.985 0.482 0.985 0.486 0.984 0.488 C 0.983 0.49 0.984 0.492 0.985 0.492 C 0.986 0.492 0.988 0.488 0.989 0.484 L 0.991 0.476 L 0.994 0.483 C 1 0.501 1 0.503 1 0.245 L 0.999 0.002 L 0.828 0.001 C 0.734 0.001 0.656 0.002 0.655 0.003 Z  M 0.27 0.093 C 0.27 0.094 0.269 0.096 0.268 0.097 C 0.266 0.1 0.266 0.1 0.266 0.095 C 0.266 0.091 0.266 0.09 0.268 0.091 C 0.269 0.092 0.27 0.093 0.27 0.093 Z  M 0.726 0.101 C 0.727 0.104 0.724 0.12 0.721 0.12 C 0.72 0.12 0.718 0.123 0.716 0.128 C 0.714 0.133 0.712 0.136 0.711 0.135 C 0.71 0.133 0.71 0.123 0.712 0.12 C 0.712 0.12 0.712 0.116 0.711 0.112 C 0.71 0.109 0.71 0.106 0.711 0.106 C 0.712 0.107 0.712 0.106 0.712 0.105 C 0.711 0.098 0.724 0.094 0.726 0.101 Z  M 0.681 0.11 C 0.679 0.113 0.68 0.12 0.681 0.12 C 0.682 0.12 0.683 0.117 0.683 0.114 C 0.682 0.108 0.682 0.108 0.681 0.11 Z  M 0.404 0.117 C 0.404 0.118 0.403 0.121 0.404 0.122 C 0.404 0.124 0.404 0.126 0.403 0.127 C 0.401 0.129 0.401 0.134 0.403 0.134 C 0.408 0.134 0.412 0.121 0.409 0.117 C 0.406 0.113 0.405 0.113 0.404 0.117 Z  M 0.376 0.128 C 0.375 0.131 0.377 0.134 0.379 0.132 C 0.38 0.129 0.38 0.125 0.378 0.125 C 0.378 0.125 0.376 0.126 0.376 0.128 Z  M 0.643 0.145 C 0.643 0.146 0.643 0.149 0.644 0.152 C 0.645 0.155 0.645 0.157 0.644 0.161 C 0.642 0.165 0.642 0.165 0.644 0.162 C 0.645 0.16 0.646 0.155 0.646 0.15 C 0.647 0.142 0.645 0.139 0.643 0.145 Z  M 0.607 0.147 C 0.607 0.147 0.609 0.15 0.61 0.154 L 0.611 0.16 L 0.608 0.154 C 0.606 0.15 0.604 0.148 0.601 0.15 C 0.598 0.151 0.599 0.152 0.605 0.157 C 0.617 0.165 0.611 0.172 0.596 0.166 C 0.593 0.164 0.591 0.156 0.595 0.156 C 0.597 0.156 0.598 0.153 0.597 0.147 C 0.597 0.146 0.603 0.146 0.607 0.147 Z  M 0.662 0.163 C 0.662 0.165 0.662 0.166 0.66 0.165 C 0.658 0.164 0.658 0.164 0.659 0.167 C 0.659 0.169 0.661 0.169 0.663 0.169 C 0.664 0.168 0.665 0.168 0.665 0.17 C 0.663 0.176 0.656 0.169 0.657 0.162 C 0.659 0.157 0.661 0.157 0.662 0.163 Z  M 0.644 0.174 C 0.643 0.176 0.643 0.179 0.643 0.181 C 0.644 0.183 0.644 0.184 0.643 0.182 C 0.64 0.179 0.64 0.17 0.643 0.17 C 0.645 0.17 0.645 0.17 0.644 0.174 Z  M 0.742 0.174 C 0.743 0.182 0.745 0.187 0.745 0.18 C 0.745 0.176 0.744 0.172 0.744 0.172 C 0.743 0.172 0.742 0.173 0.742 0.174 Z  M 0.333 0.186 C 0.333 0.189 0.332 0.191 0.331 0.191 C 0.33 0.191 0.329 0.189 0.329 0.186 C 0.329 0.184 0.33 0.18 0.33 0.178 C 0.33 0.172 0.333 0.18 0.333 0.186 Z  M 0.657 0.182 C 0.656 0.184 0.656 0.186 0.655 0.186 C 0.654 0.186 0.654 0.184 0.654 0.182 C 0.654 0.18 0.655 0.178 0.656 0.178 C 0.657 0.178 0.658 0.18 0.657 0.182 Z  M 0.333 0.208 C 0.333 0.215 0.332 0.216 0.329 0.215 C 0.322 0.211 0.321 0.2 0.328 0.2 C 0.332 0.2 0.333 0.201 0.333 0.208 Z  M 0.173 0.205 C 0.172 0.209 0.166 0.211 0.166 0.208 C 0.166 0.207 0.167 0.206 0.168 0.205 C 0.173 0.203 0.174 0.203 0.173 0.205 Z  M 0.722 0.233 C 0.723 0.235 0.724 0.236 0.723 0.235 C 0.722 0.234 0.72 0.235 0.72 0.237 C 0.72 0.239 0.719 0.237 0.719 0.234 C 0.717 0.227 0.719 0.226 0.722 0.233 Z  M 0.717 0.237 C 0.717 0.244 0.707 0.253 0.705 0.248 C 0.704 0.245 0.705 0.242 0.707 0.238 C 0.708 0.236 0.71 0.234 0.71 0.235 C 0.71 0.236 0.71 0.236 0.711 0.234 C 0.713 0.231 0.717 0.233 0.717 0.237 Z  M 0.153 0.235 C 0.152 0.236 0.153 0.239 0.154 0.241 C 0.157 0.246 0.159 0.244 0.157 0.238 C 0.156 0.233 0.154 0.232 0.153 0.235 Z  M 0.705 0.269 C 0.702 0.271 0.701 0.268 0.703 0.264 C 0.703 0.261 0.704 0.262 0.705 0.264 C 0.706 0.267 0.706 0.269 0.705 0.269 Z  M 0.166 0.268 C 0.166 0.27 0.165 0.272 0.164 0.273 C 0.163 0.274 0.162 0.275 0.164 0.275 C 0.166 0.275 0.169 0.268 0.167 0.265 C 0.166 0.264 0.166 0.266 0.166 0.268 Z  M 0.221 0.269 C 0.22 0.271 0.218 0.273 0.216 0.274 C 0.212 0.276 0.212 0.276 0.215 0.271 C 0.218 0.267 0.224 0.265 0.221 0.269 Z  M 0.712 0.291 C 0.711 0.295 0.711 0.295 0.71 0.292 C 0.709 0.289 0.709 0.287 0.71 0.286 C 0.712 0.283 0.713 0.285 0.712 0.291 Z  M 0.163 0.295 C 0.163 0.3 0.168 0.305 0.171 0.304 C 0.174 0.302 0.175 0.301 0.173 0.298 C 0.171 0.293 0.167 0.293 0.168 0.299 C 0.169 0.303 0.169 0.303 0.166 0.299 C 0.164 0.296 0.163 0.294 0.163 0.295 Z  M 0.156 0.301 C 0.156 0.301 0.156 0.305 0.155 0.31 C 0.155 0.317 0.155 0.318 0.157 0.313 C 0.158 0.31 0.159 0.306 0.161 0.304 C 0.162 0.302 0.162 0.301 0.16 0.301 C 0.158 0.301 0.156 0.301 0.156 0.301 Z  M 0.141 0.315 C 0.141 0.317 0.14 0.317 0.14 0.315 C 0.139 0.313 0.138 0.312 0.137 0.313 C 0.136 0.314 0.135 0.313 0.134 0.311 C 0.132 0.305 0.136 0.302 0.139 0.308 C 0.14 0.31 0.141 0.314 0.141 0.315 Z  M 0.762 0.31 C 0.76 0.311 0.76 0.313 0.761 0.315 C 0.761 0.317 0.761 0.317 0.759 0.316 C 0.757 0.314 0.755 0.316 0.752 0.322 C 0.747 0.334 0.747 0.336 0.754 0.329 C 0.761 0.323 0.767 0.307 0.762 0.31 Z  M 0.823 0.323 C 0.819 0.338 0.829 0.349 0.834 0.335 C 0.836 0.33 0.831 0.322 0.828 0.324 C 0.826 0.325 0.825 0.324 0.825 0.321 C 0.825 0.318 0.824 0.318 0.823 0.323 Z  M 0.077 0.386 C 0.077 0.387 0.078 0.389 0.079 0.39 C 0.08 0.391 0.079 0.393 0.077 0.397 C 0.075 0.4 0.072 0.402 0.072 0.401 C 0.071 0.4 0.07 0.401 0.07 0.403 C 0.07 0.405 0.07 0.405 0.069 0.404 C 0.068 0.403 0.067 0.404 0.067 0.406 C 0.066 0.41 0.058 0.412 0.058 0.408 C 0.058 0.406 0.057 0.407 0.056 0.41 C 0.054 0.413 0.054 0.416 0.054 0.418 C 0.055 0.419 0.054 0.419 0.053 0.418 C 0.052 0.417 0.052 0.415 0.053 0.412 C 0.055 0.409 0.055 0.409 0.053 0.41 C 0.048 0.413 0.051 0.422 0.057 0.422 C 0.059 0.422 0.059 0.423 0.059 0.425 C 0.058 0.428 0.058 0.428 0.061 0.427 C 0.063 0.426 0.064 0.427 0.064 0.428 C 0.064 0.431 0.073 0.436 0.075 0.434 C 0.076 0.432 0.076 0.429 0.076 0.427 C 0.075 0.424 0.074 0.423 0.074 0.423 C 0.073 0.424 0.073 0.42 0.073 0.414 C 0.073 0.403 0.072 0.404 0.085 0.407 C 0.089 0.408 0.089 0.407 0.088 0.403 C 0.087 0.4 0.086 0.394 0.086 0.391 C 0.086 0.384 0.085 0.383 0.081 0.383 C 0.079 0.383 0.077 0.385 0.077 0.386 Z  M 0.089 0.385 C 0.089 0.389 0.093 0.395 0.094 0.392 C 0.095 0.391 0.095 0.388 0.094 0.386 C 0.093 0.383 0.092 0.383 0.092 0.386 C 0.092 0.39 0.092 0.39 0.091 0.386 C 0.09 0.384 0.089 0.383 0.089 0.385 Z  M 0.074 0.41 C 0.073 0.418 0.077 0.424 0.079 0.419 C 0.08 0.417 0.08 0.416 0.079 0.417 C 0.078 0.419 0.077 0.416 0.076 0.412 C 0.074 0.405 0.074 0.405 0.074 0.41 Z  M 0.938 0.48 C 0.932 0.492 0.931 0.504 0.936 0.501 C 0.938 0.5 0.941 0.499 0.942 0.499 C 0.944 0.498 0.945 0.496 0.944 0.493 C 0.944 0.491 0.944 0.489 0.945 0.49 C 0.947 0.492 0.946 0.475 0.944 0.472 C 0.944 0.471 0.941 0.474 0.938 0.48 Z  M 0.019 0.476 C 0.019 0.478 0.017 0.482 0.015 0.485 C 0.013 0.488 0.009 0.492 0.008 0.495 C 0.006 0.498 0.004 0.499 0.003 0.499 C 0.001 0.496 0 0.506 0.001 0.531 C 0.002 0.545 0.002 0.558 0.002 0.56 C 0.002 0.565 0.006 0.561 0.006 0.557 C 0.006 0.554 0.006 0.553 0.005 0.553 C 0.004 0.553 0.003 0.551 0.003 0.55 C 0.003 0.548 0.005 0.547 0.006 0.547 C 0.008 0.547 0.009 0.545 0.009 0.542 C 0.009 0.538 0.008 0.537 0.006 0.538 C 0.004 0.538 0.004 0.537 0.005 0.532 C 0.005 0.529 0.007 0.526 0.007 0.526 C 0.009 0.526 0.01 0.525 0.018 0.52 C 0.021 0.518 0.021 0.515 0.022 0.488 C 0.022 0.483 0.022 0.478 0.022 0.476 C 0.022 0.471 0.019 0.471 0.019 0.476 Z  M 0.99 0.49 C 0.988 0.495 0.989 0.496 0.99 0.496 C 0.991 0.496 0.992 0.493 0.992 0.49 C 0.992 0.482 0.992 0.482 0.99 0.49 Z  M 0.944 0.508 C 0.943 0.513 0.943 0.514 0.945 0.514 C 0.947 0.514 0.949 0.506 0.947 0.504 C 0.946 0.503 0.945 0.505 0.944 0.508 Z  M 0.978 0.514 C 0.978 0.515 0.977 0.516 0.976 0.515 C 0.974 0.514 0.973 0.515 0.965 0.53 C 0.963 0.535 0.96 0.538 0.96 0.537 C 0.959 0.537 0.958 0.538 0.958 0.541 C 0.958 0.547 0.962 0.551 0.964 0.547 C 0.964 0.545 0.966 0.544 0.967 0.545 C 0.972 0.545 0.974 0.544 0.973 0.542 C 0.972 0.54 0.974 0.538 0.976 0.536 C 0.978 0.535 0.978 0.534 0.977 0.533 C 0.976 0.533 0.975 0.533 0.976 0.532 C 0.977 0.529 0.981 0.534 0.98 0.537 C 0.98 0.539 0.98 0.539 0.981 0.538 C 0.982 0.537 0.983 0.532 0.983 0.528 C 0.983 0.523 0.983 0.522 0.984 0.525 C 0.985 0.527 0.986 0.527 0.987 0.522 C 0.987 0.519 0.987 0.516 0.986 0.515 C 0.983 0.511 0.978 0.511 0.978 0.514 Z  M 0.016 0.558 C 0.016 0.563 0.017 0.566 0.017 0.565 C 0.019 0.563 0.019 0.55 0.017 0.55 C 0.016 0.55 0.016 0.554 0.016 0.558 Z  M 0.942 0.56 C 0.941 0.564 0.94 0.587 0.942 0.593 C 0.942 0.597 0.959 0.614 0.964 0.615 C 0.967 0.616 0.971 0.621 0.971 0.624 C 0.971 0.626 0.972 0.629 0.973 0.629 C 0.976 0.631 0.976 0.643 0.974 0.646 C 0.973 0.647 0.972 0.654 0.972 0.661 C 0.973 0.68 0.975 0.684 0.989 0.683 L 0.999 0.682 L 1 0.627 C 1 0.596 1 0.57 0.999 0.569 C 0.997 0.566 0.975 0.564 0.974 0.567 C 0.973 0.57 0.953 0.569 0.953 0.566 C 0.953 0.565 0.953 0.564 0.952 0.565 C 0.951 0.566 0.95 0.565 0.95 0.562 C 0.949 0.56 0.948 0.558 0.947 0.558 C 0.946 0.558 0.946 0.56 0.947 0.562 C 0.947 0.564 0.947 0.564 0.945 0.562 C 0.944 0.56 0.942 0.559 0.942 0.56 Z  M 0.274 0.595 C 0.275 0.596 0.275 0.597 0.274 0.597 C 0.274 0.597 0.275 0.6 0.279 0.603 C 0.284 0.608 0.289 0.61 0.301 0.613 C 0.319 0.616 0.321 0.62 0.313 0.634 C 0.31 0.641 0.31 0.641 0.304 0.637 C 0.292 0.628 0.273 0.632 0.26 0.646 C 0.258 0.648 0.261 0.65 0.264 0.651 C 0.265 0.652 0.267 0.652 0.267 0.653 C 0.268 0.653 0.266 0.655 0.263 0.656 C 0.259 0.659 0.257 0.662 0.257 0.666 C 0.256 0.673 0.251 0.676 0.248 0.67 C 0.245 0.663 0.245 0.656 0.248 0.654 C 0.25 0.652 0.25 0.652 0.248 0.649 C 0.246 0.648 0.246 0.645 0.246 0.641 C 0.247 0.636 0.247 0.636 0.243 0.64 C 0.241 0.643 0.239 0.647 0.239 0.65 C 0.239 0.653 0.238 0.655 0.237 0.655 C 0.234 0.655 0.233 0.64 0.236 0.637 C 0.238 0.635 0.238 0.623 0.235 0.621 C 0.234 0.62 0.233 0.621 0.233 0.623 C 0.233 0.625 0.231 0.628 0.229 0.63 C 0.224 0.637 0.215 0.645 0.216 0.643 C 0.218 0.639 0.214 0.63 0.212 0.633 C 0.211 0.635 0.21 0.634 0.21 0.629 C 0.21 0.623 0.211 0.621 0.215 0.622 C 0.215 0.622 0.216 0.621 0.215 0.619 C 0.214 0.618 0.213 0.617 0.212 0.618 C 0.211 0.619 0.212 0.617 0.215 0.612 C 0.22 0.603 0.225 0.601 0.234 0.605 C 0.24 0.608 0.244 0.607 0.244 0.602 C 0.244 0.6 0.243 0.6 0.242 0.602 C 0.241 0.604 0.239 0.604 0.238 0.603 C 0.23 0.594 0.266 0.586 0.274 0.595 Z  M 0.027 0.596 C 0.027 0.602 0.024 0.603 0.024 0.597 C 0.024 0.594 0.024 0.592 0.025 0.592 C 0.026 0.592 0.027 0.593 0.027 0.596 Z  M 0.116 0.596 C 0.116 0.6 0.116 0.603 0.117 0.603 C 0.119 0.603 0.119 0.6 0.117 0.594 C 0.116 0.591 0.116 0.591 0.116 0.596 Z  M 0.034 0.647 C 0.033 0.649 0.032 0.65 0.03 0.65 C 0.029 0.65 0.028 0.649 0.028 0.647 C 0.028 0.646 0.03 0.644 0.031 0.644 C 0.033 0.644 0.034 0.646 0.034 0.647 Z  M 0.264 0.682 C 0.263 0.691 0.263 0.694 0.265 0.695 C 0.266 0.696 0.267 0.699 0.266 0.701 C 0.266 0.704 0.266 0.707 0.267 0.708 C 0.271 0.713 0.27 0.722 0.266 0.724 C 0.264 0.725 0.261 0.726 0.259 0.728 C 0.258 0.729 0.254 0.729 0.25 0.729 C 0.246 0.729 0.242 0.729 0.241 0.731 C 0.239 0.733 0.239 0.733 0.241 0.732 C 0.243 0.731 0.244 0.732 0.243 0.733 C 0.242 0.735 0.241 0.736 0.239 0.735 C 0.237 0.734 0.237 0.735 0.237 0.738 C 0.238 0.742 0.238 0.742 0.236 0.74 C 0.234 0.737 0.233 0.738 0.229 0.743 C 0.224 0.75 0.224 0.75 0.22 0.745 L 0.215 0.74 L 0.219 0.735 C 0.221 0.732 0.222 0.73 0.22 0.731 C 0.219 0.732 0.217 0.732 0.216 0.73 C 0.216 0.729 0.216 0.728 0.217 0.728 C 0.222 0.73 0.234 0.724 0.235 0.719 C 0.235 0.716 0.236 0.714 0.237 0.715 C 0.238 0.716 0.24 0.714 0.242 0.711 C 0.243 0.708 0.245 0.705 0.247 0.705 C 0.248 0.705 0.249 0.704 0.248 0.7 C 0.247 0.696 0.249 0.693 0.253 0.69 C 0.257 0.686 0.258 0.685 0.255 0.682 C 0.253 0.679 0.253 0.678 0.257 0.674 C 0.264 0.667 0.265 0.668 0.264 0.682 Z  M 0.336 0.678 C 0.337 0.68 0.337 0.684 0.337 0.688 C 0.336 0.692 0.338 0.702 0.34 0.711 C 0.344 0.725 0.344 0.73 0.343 0.744 C 0.342 0.762 0.345 0.761 0.346 0.743 C 0.346 0.737 0.347 0.732 0.347 0.731 C 0.347 0.726 0.35 0.733 0.351 0.742 C 0.352 0.749 0.353 0.755 0.353 0.757 C 0.356 0.762 0.358 0.778 0.357 0.778 C 0.35 0.779 0.348 0.779 0.347 0.776 C 0.346 0.773 0.342 0.772 0.334 0.773 C 0.322 0.773 0.318 0.77 0.323 0.762 C 0.334 0.744 0.335 0.732 0.33 0.696 C 0.328 0.684 0.327 0.674 0.327 0.673 C 0.327 0.672 0.334 0.676 0.336 0.678 Z  M 0.216 0.692 C 0.217 0.695 0.216 0.697 0.215 0.697 C 0.21 0.696 0.209 0.697 0.211 0.7 C 0.213 0.702 0.215 0.701 0.218 0.697 C 0.223 0.692 0.223 0.692 0.223 0.698 C 0.222 0.707 0.217 0.714 0.213 0.713 C 0.211 0.712 0.209 0.713 0.209 0.714 C 0.209 0.716 0.209 0.716 0.208 0.716 C 0.206 0.715 0.206 0.712 0.206 0.71 C 0.206 0.706 0.206 0.706 0.205 0.707 C 0.203 0.708 0.205 0.705 0.208 0.7 C 0.21 0.695 0.213 0.69 0.213 0.688 C 0.213 0.684 0.215 0.686 0.216 0.692 Z  M 0.203 0.694 C 0.203 0.697 0.201 0.698 0.199 0.698 C 0.195 0.696 0.195 0.695 0.196 0.692 C 0.198 0.687 0.204 0.688 0.203 0.694 Z  M 0.241 0.71 C 0.24 0.712 0.238 0.713 0.237 0.712 C 0.236 0.711 0.237 0.709 0.238 0.707 C 0.239 0.704 0.24 0.703 0.241 0.704 C 0.242 0.705 0.242 0.708 0.241 0.71 Z  M 0.351 0.721 C 0.351 0.724 0.35 0.727 0.35 0.727 C 0.35 0.728 0.349 0.727 0.348 0.726 C 0.347 0.725 0.347 0.723 0.349 0.72 C 0.351 0.715 0.352 0.716 0.351 0.721 Z  M 0.291 0.734 C 0.29 0.737 0.283 0.736 0.283 0.733 C 0.283 0.732 0.285 0.731 0.288 0.731 C 0.29 0.731 0.292 0.733 0.291 0.734 Z  M 0.367 0.747 C 0.369 0.752 0.369 0.752 0.367 0.751 C 0.365 0.75 0.364 0.748 0.364 0.745 C 0.364 0.74 0.365 0.741 0.367 0.747 Z  M 0.375 0.76 C 0.375 0.764 0.375 0.764 0.373 0.761 C 0.371 0.759 0.37 0.757 0.37 0.756 C 0.37 0.756 0.371 0.755 0.373 0.755 C 0.374 0.755 0.375 0.757 0.375 0.76 Z  M 0.23 0.775 C 0.231 0.78 0.231 0.781 0.23 0.78 C 0.229 0.779 0.228 0.777 0.227 0.774 C 0.227 0.768 0.228 0.768 0.23 0.775 Z  M 0.632 0.777 C 0.631 0.778 0.63 0.779 0.63 0.781 C 0.63 0.783 0.631 0.783 0.632 0.782 C 0.633 0.782 0.635 0.782 0.636 0.784 C 0.637 0.786 0.638 0.786 0.638 0.784 C 0.639 0.782 0.639 0.78 0.638 0.779 C 0.637 0.778 0.636 0.778 0.636 0.78 C 0.636 0.781 0.636 0.78 0.635 0.779 C 0.634 0.777 0.633 0.776 0.632 0.777 Z  M 0.604 0.787 C 0.602 0.794 0.602 0.794 0.605 0.798 C 0.61 0.804 0.611 0.804 0.615 0.797 C 0.616 0.794 0.619 0.792 0.62 0.793 C 0.623 0.795 0.622 0.792 0.619 0.786 C 0.614 0.779 0.608 0.779 0.604 0.787 Z  M 0.28 0.795 C 0.281 0.798 0.293 0.811 0.296 0.811 C 0.299 0.811 0.294 0.802 0.29 0.8 C 0.287 0.798 0.284 0.795 0.284 0.794 C 0.284 0.793 0.283 0.792 0.282 0.792 C 0.281 0.792 0.28 0.793 0.28 0.795 Z  M 0.304 0.797 C 0.306 0.801 0.306 0.804 0.305 0.808 C 0.304 0.812 0.303 0.811 0.302 0.804 C 0.302 0.799 0.3 0.795 0.299 0.794 C 0.298 0.792 0.298 0.792 0.299 0.792 C 0.3 0.792 0.302 0.794 0.304 0.797 Z  M 0.242 0.803 C 0.244 0.803 0.246 0.802 0.248 0.8 C 0.25 0.798 0.252 0.797 0.253 0.798 C 0.253 0.799 0.253 0.8 0.252 0.8 C 0.251 0.8 0.25 0.802 0.251 0.807 C 0.252 0.811 0.251 0.814 0.25 0.814 C 0.249 0.814 0.249 0.815 0.249 0.817 C 0.249 0.82 0.247 0.824 0.245 0.828 C 0.244 0.831 0.242 0.833 0.242 0.832 C 0.242 0.831 0.244 0.825 0.245 0.819 C 0.249 0.807 0.25 0.798 0.247 0.805 C 0.245 0.81 0.237 0.804 0.236 0.797 C 0.236 0.794 0.236 0.794 0.238 0.798 C 0.239 0.8 0.241 0.803 0.242 0.803 Z  M 0.364 0.806 C 0.362 0.814 0.359 0.812 0.361 0.804 C 0.362 0.8 0.364 0.798 0.364 0.799 C 0.365 0.8 0.365 0.803 0.364 0.806 Z  M 0.565 0.802 C 0.566 0.804 0.565 0.805 0.564 0.805 C 0.562 0.805 0.561 0.803 0.561 0.801 C 0.561 0.796 0.564 0.797 0.565 0.802 Z  M 0.495 0.823 C 0.495 0.829 0.494 0.829 0.491 0.823 C 0.488 0.819 0.488 0.819 0.488 0.822 C 0.488 0.826 0.487 0.825 0.486 0.822 C 0.485 0.819 0.485 0.819 0.485 0.823 C 0.485 0.825 0.484 0.828 0.483 0.828 C 0.482 0.828 0.481 0.826 0.481 0.823 C 0.481 0.819 0.477 0.818 0.476 0.823 C 0.476 0.826 0.47 0.828 0.47 0.825 C 0.47 0.823 0.47 0.822 0.469 0.822 C 0.467 0.822 0.468 0.834 0.471 0.841 C 0.473 0.847 0.479 0.851 0.482 0.848 C 0.483 0.847 0.485 0.846 0.487 0.847 C 0.488 0.847 0.49 0.845 0.49 0.842 C 0.491 0.837 0.492 0.837 0.498 0.837 C 0.505 0.838 0.514 0.825 0.51 0.821 C 0.509 0.82 0.507 0.821 0.506 0.824 C 0.504 0.829 0.498 0.831 0.498 0.826 C 0.498 0.825 0.499 0.823 0.5 0.823 C 0.501 0.823 0.503 0.822 0.503 0.82 C 0.503 0.818 0.502 0.817 0.499 0.817 C 0.497 0.818 0.495 0.82 0.495 0.823 Z  M 0.548 0.822 C 0.547 0.825 0.548 0.836 0.55 0.836 C 0.55 0.836 0.552 0.837 0.554 0.837 C 0.556 0.838 0.556 0.837 0.555 0.832 C 0.554 0.829 0.553 0.826 0.552 0.826 C 0.551 0.826 0.55 0.825 0.549 0.824 C 0.548 0.822 0.549 0.822 0.55 0.823 C 0.551 0.824 0.552 0.824 0.552 0.822 C 0.552 0.818 0.549 0.818 0.548 0.822 Z  M 0.536 0.83 C 0.535 0.838 0.535 0.844 0.536 0.844 C 0.538 0.844 0.539 0.841 0.538 0.835 C 0.537 0.832 0.536 0.83 0.536 0.83 Z  M 0.297 0.839 C 0.298 0.842 0.3 0.844 0.301 0.843 C 0.302 0.842 0.304 0.844 0.306 0.847 C 0.307 0.85 0.309 0.852 0.31 0.851 C 0.311 0.849 0.316 0.855 0.315 0.858 C 0.315 0.859 0.316 0.86 0.318 0.86 C 0.324 0.861 0.324 0.851 0.319 0.844 C 0.313 0.837 0.308 0.838 0.309 0.845 C 0.31 0.85 0.309 0.85 0.307 0.847 C 0.306 0.844 0.306 0.842 0.307 0.839 C 0.308 0.835 0.308 0.835 0.306 0.838 C 0.304 0.842 0.303 0.842 0.303 0.838 C 0.303 0.835 0.302 0.833 0.299 0.833 C 0.296 0.833 0.296 0.834 0.297 0.839 Z  M 0.541 0.835 C 0.541 0.837 0.547 0.847 0.548 0.845 C 0.549 0.842 0.545 0.833 0.543 0.833 C 0.542 0.833 0.541 0.834 0.541 0.835 Z  M 0.581 0.838 C 0.581 0.841 0.585 0.844 0.589 0.844 C 0.591 0.844 0.59 0.843 0.588 0.84 C 0.583 0.835 0.581 0.835 0.581 0.838 Z  M 0.499 0.843 C 0.498 0.844 0.498 0.846 0.498 0.848 C 0.499 0.85 0.499 0.852 0.499 0.853 C 0.499 0.856 0.502 0.854 0.503 0.851 C 0.503 0.85 0.503 0.847 0.504 0.845 C 0.505 0.841 0.503 0.841 0.499 0.843 Z  M 0.261 0.852 C 0.265 0.857 0.265 0.861 0.262 0.861 C 0.26 0.861 0.259 0.86 0.26 0.859 C 0.26 0.858 0.259 0.855 0.257 0.852 C 0.255 0.849 0.255 0.847 0.256 0.847 C 0.257 0.847 0.26 0.849 0.261 0.852 Z  M 0.324 0.862 C 0.324 0.863 0.322 0.864 0.32 0.863 C 0.315 0.861 0.319 0.865 0.325 0.869 C 0.329 0.871 0.329 0.871 0.329 0.868 C 0.328 0.865 0.329 0.864 0.33 0.864 C 0.331 0.864 0.331 0.866 0.331 0.87 C 0.331 0.875 0.332 0.875 0.337 0.874 C 0.341 0.872 0.342 0.873 0.342 0.875 C 0.342 0.877 0.343 0.878 0.343 0.877 C 0.344 0.876 0.346 0.876 0.347 0.878 C 0.349 0.88 0.35 0.88 0.35 0.878 C 0.35 0.876 0.349 0.875 0.348 0.875 C 0.347 0.875 0.345 0.873 0.344 0.871 C 0.341 0.866 0.324 0.858 0.324 0.862 Z  M 0.352 0.88 C 0.354 0.883 0.36 0.883 0.359 0.88 C 0.358 0.879 0.356 0.878 0.354 0.878 C 0.353 0.878 0.352 0.878 0.352 0.88 Z  M 0.269 0.918 C 0.267 0.921 0.267 0.922 0.266 0.919 C 0.265 0.916 0.265 0.914 0.267 0.912 C 0.27 0.907 0.272 0.912 0.269 0.918 Z  M 0.299 0.91 C 0.299 0.914 0.303 0.921 0.308 0.923 L 0.312 0.925 L 0.308 0.921 C 0.306 0.919 0.303 0.915 0.301 0.912 C 0.3 0.909 0.299 0.908 0.299 0.91 Z " fill-rule="evenodd" fill="rgb(0,0,0)"/></g></g></svg>