<?xml version="1.0" encoding="UTF-8" standalone="no"?><!-- Generator: Gravit.io --><svg xmlns="http://www.w3.org/2000/svg" xmlns:xlink="http://www.w3.org/1999/xlink" style="isolation:isolate" viewBox="0 0 1 1" width="1pt" height="1pt"><defs><clipPath id="_clipPath_V2E4QC8pG6uzdHAX3wNsmmV8pcm9KZro"><rect width="1" height="1"/></clipPath></defs><g clip-path="url(#_clipPath_V2E4QC8pG6uzdHAX3wNsmmV8pcm9KZro)"><g><path d=" M 0.002 0.002 C -0.002 0.007 0.001 0.445 0.004 0.444 C 0.005 0.443 0.007 0.443 0.008 0.445 C 0.009 0.449 0.011 0.448 0.012 0.441 C 0.014 0.435 0.016 0.434 0.017 0.439 C 0.018 0.44 0.017 0.442 0.015 0.442 C 0.014 0.442 0.013 0.443 0.013 0.445 C 0.013 0.446 0.014 0.447 0.015 0.446 C 0.017 0.443 0.016 0.453 0.013 0.464 C 0.011 0.47 0.008 0.476 0.005 0.477 L 0.001 0.48 L 0.001 0.739 L 0.001 0.999 L 0.142 0.998 C 0.287 0.998 0.292 0.998 0.294 0.993 C 0.294 0.992 0.294 0.991 0.292 0.992 C 0.291 0.993 0.29 0.993 0.29 0.992 C 0.29 0.985 0.289 0.983 0.288 0.989 L 0.287 0.996 L 0.287 0.989 C 0.287 0.982 0.291 0.977 0.291 0.984 C 0.291 0.986 0.292 0.989 0.294 0.99 C 0.295 0.991 0.296 0.993 0.295 0.994 C 0.293 1.001 0.368 1.002 0.373 0.995 C 0.374 0.993 0.378 0.99 0.381 0.988 C 0.386 0.984 0.387 0.984 0.383 0.983 C 0.38 0.983 0.378 0.98 0.375 0.973 C 0.373 0.967 0.37 0.959 0.369 0.955 C 0.366 0.949 0.366 0.946 0.367 0.944 C 0.369 0.941 0.369 0.942 0.369 0.947 C 0.369 0.954 0.372 0.952 0.374 0.943 C 0.375 0.939 0.377 0.936 0.38 0.935 C 0.385 0.933 0.386 0.929 0.382 0.927 C 0.38 0.926 0.379 0.923 0.379 0.92 C 0.379 0.917 0.378 0.914 0.376 0.913 C 0.375 0.912 0.374 0.909 0.374 0.907 C 0.374 0.905 0.373 0.904 0.371 0.904 C 0.369 0.905 0.365 0.9 0.36 0.892 C 0.354 0.882 0.352 0.878 0.354 0.877 C 0.355 0.877 0.358 0.877 0.359 0.877 C 0.36 0.876 0.362 0.879 0.364 0.883 C 0.367 0.887 0.368 0.888 0.367 0.886 C 0.367 0.883 0.367 0.879 0.368 0.876 C 0.371 0.871 0.372 0.873 0.371 0.881 C 0.371 0.882 0.371 0.883 0.372 0.883 C 0.375 0.883 0.374 0.879 0.371 0.871 C 0.369 0.867 0.366 0.864 0.365 0.865 C 0.364 0.866 0.363 0.865 0.363 0.864 C 0.363 0.862 0.362 0.861 0.361 0.862 C 0.361 0.863 0.36 0.862 0.36 0.86 C 0.36 0.855 0.357 0.854 0.356 0.859 C 0.356 0.861 0.355 0.86 0.353 0.857 C 0.352 0.855 0.35 0.853 0.349 0.853 C 0.348 0.853 0.347 0.852 0.347 0.85 C 0.347 0.849 0.346 0.847 0.344 0.846 C 0.343 0.845 0.341 0.842 0.34 0.839 C 0.34 0.837 0.34 0.836 0.34 0.837 C 0.341 0.838 0.342 0.838 0.343 0.836 C 0.345 0.833 0.354 0.845 0.354 0.85 C 0.354 0.852 0.357 0.854 0.361 0.854 C 0.365 0.854 0.369 0.855 0.37 0.856 C 0.371 0.858 0.372 0.858 0.372 0.857 C 0.372 0.856 0.375 0.857 0.378 0.86 C 0.382 0.863 0.384 0.863 0.385 0.861 C 0.386 0.86 0.388 0.858 0.39 0.858 C 0.391 0.858 0.393 0.856 0.393 0.853 C 0.393 0.85 0.394 0.846 0.395 0.843 C 0.397 0.838 0.397 0.838 0.397 0.845 C 0.395 0.855 0.398 0.855 0.405 0.845 C 0.41 0.837 0.413 0.82 0.41 0.813 C 0.409 0.809 0.404 0.817 0.404 0.822 C 0.404 0.825 0.403 0.828 0.402 0.828 C 0.401 0.828 0.401 0.826 0.401 0.824 C 0.402 0.821 0.401 0.819 0.398 0.818 C 0.396 0.817 0.394 0.814 0.394 0.812 C 0.393 0.81 0.392 0.809 0.391 0.809 C 0.39 0.811 0.39 0.81 0.377 0.781 C 0.366 0.756 0.369 0.752 0.381 0.773 C 0.39 0.789 0.399 0.799 0.4 0.796 C 0.401 0.795 0.403 0.797 0.405 0.8 C 0.407 0.803 0.41 0.805 0.411 0.805 C 0.414 0.805 0.415 0.809 0.416 0.822 C 0.417 0.831 0.419 0.839 0.419 0.839 C 0.421 0.839 0.424 0.831 0.424 0.825 C 0.425 0.817 0.428 0.821 0.429 0.831 C 0.43 0.841 0.433 0.839 0.434 0.827 L 0.435 0.819 L 0.444 0.82 C 0.45 0.821 0.456 0.82 0.461 0.817 C 0.468 0.814 0.491 0.813 0.521 0.815 L 0.529 0.815 L 0.529 0.824 C 0.529 0.831 0.53 0.833 0.532 0.832 C 0.537 0.83 0.547 0.821 0.548 0.818 C 0.551 0.809 0.557 0.813 0.561 0.826 C 0.563 0.833 0.565 0.839 0.565 0.839 C 0.566 0.839 0.565 0.832 0.564 0.829 C 0.563 0.827 0.564 0.825 0.565 0.824 C 0.566 0.823 0.568 0.826 0.569 0.832 C 0.57 0.838 0.572 0.841 0.573 0.84 C 0.575 0.837 0.586 0.837 0.586 0.839 C 0.586 0.841 0.588 0.842 0.589 0.842 C 0.591 0.842 0.591 0.843 0.59 0.843 C 0.588 0.845 0.588 0.846 0.59 0.849 C 0.591 0.852 0.591 0.853 0.589 0.853 C 0.588 0.853 0.588 0.854 0.59 0.857 C 0.593 0.86 0.593 0.86 0.596 0.855 C 0.599 0.849 0.6 0.842 0.597 0.842 C 0.596 0.842 0.596 0.84 0.597 0.837 C 0.597 0.835 0.598 0.834 0.599 0.835 C 0.6 0.836 0.602 0.829 0.601 0.826 C 0.6 0.825 0.6 0.822 0.6 0.819 C 0.6 0.815 0.598 0.813 0.597 0.812 C 0.595 0.812 0.594 0.813 0.595 0.814 C 0.595 0.815 0.593 0.816 0.591 0.816 C 0.588 0.815 0.585 0.816 0.584 0.818 C 0.583 0.819 0.582 0.819 0.582 0.818 C 0.582 0.816 0.581 0.818 0.579 0.822 C 0.576 0.83 0.574 0.829 0.572 0.821 C 0.571 0.817 0.569 0.814 0.568 0.814 C 0.566 0.814 0.566 0.811 0.566 0.806 C 0.567 0.805 0.567 0.804 0.568 0.805 C 0.569 0.805 0.571 0.805 0.573 0.803 C 0.575 0.801 0.579 0.799 0.583 0.797 C 0.586 0.796 0.59 0.792 0.591 0.79 C 0.592 0.788 0.594 0.786 0.595 0.786 C 0.596 0.786 0.6 0.783 0.603 0.779 C 0.605 0.775 0.608 0.772 0.609 0.772 C 0.609 0.772 0.612 0.768 0.615 0.762 C 0.618 0.756 0.622 0.751 0.627 0.749 C 0.632 0.746 0.637 0.742 0.638 0.74 C 0.642 0.734 0.648 0.733 0.647 0.738 C 0.646 0.74 0.646 0.741 0.647 0.74 C 0.648 0.739 0.649 0.737 0.649 0.735 C 0.649 0.727 0.653 0.717 0.657 0.715 C 0.662 0.713 0.669 0.703 0.669 0.698 C 0.668 0.696 0.669 0.695 0.67 0.696 C 0.671 0.697 0.675 0.686 0.675 0.679 C 0.675 0.678 0.677 0.675 0.679 0.673 C 0.681 0.67 0.682 0.667 0.681 0.662 C 0.68 0.659 0.681 0.655 0.681 0.654 C 0.682 0.653 0.683 0.651 0.682 0.648 C 0.682 0.645 0.683 0.642 0.683 0.641 C 0.684 0.641 0.685 0.635 0.686 0.629 C 0.686 0.623 0.687 0.616 0.688 0.613 C 0.689 0.61 0.689 0.606 0.689 0.604 C 0.688 0.602 0.689 0.599 0.69 0.597 C 0.692 0.595 0.692 0.595 0.693 0.598 C 0.694 0.6 0.694 0.6 0.694 0.596 C 0.694 0.594 0.695 0.592 0.696 0.592 C 0.697 0.592 0.697 0.59 0.697 0.587 C 0.697 0.585 0.699 0.583 0.701 0.583 C 0.704 0.583 0.704 0.583 0.701 0.578 C 0.699 0.573 0.7 0.567 0.705 0.567 C 0.707 0.567 0.709 0.554 0.708 0.548 C 0.708 0.541 0.711 0.536 0.715 0.538 C 0.717 0.539 0.719 0.538 0.72 0.536 C 0.72 0.535 0.722 0.533 0.723 0.533 C 0.726 0.533 0.726 0.534 0.723 0.537 C 0.721 0.54 0.721 0.541 0.726 0.55 C 0.73 0.555 0.731 0.56 0.73 0.561 C 0.729 0.562 0.729 0.575 0.731 0.575 C 0.733 0.575 0.739 0.567 0.738 0.565 C 0.735 0.563 0.736 0.55 0.739 0.548 C 0.74 0.547 0.741 0.545 0.741 0.543 C 0.741 0.541 0.743 0.536 0.745 0.532 C 0.748 0.527 0.749 0.523 0.748 0.518 C 0.747 0.513 0.748 0.511 0.749 0.511 C 0.75 0.511 0.753 0.508 0.756 0.505 L 0.761 0.5 L 0.756 0.502 C 0.753 0.503 0.75 0.505 0.749 0.506 C 0.748 0.507 0.747 0.507 0.746 0.506 C 0.746 0.505 0.746 0.506 0.746 0.507 C 0.747 0.509 0.747 0.511 0.746 0.512 C 0.745 0.513 0.744 0.515 0.745 0.517 C 0.745 0.518 0.745 0.522 0.744 0.524 C 0.742 0.529 0.742 0.529 0.743 0.524 C 0.744 0.519 0.74 0.514 0.734 0.514 C 0.732 0.514 0.73 0.513 0.731 0.511 C 0.732 0.508 0.728 0.507 0.725 0.508 C 0.724 0.509 0.721 0.509 0.72 0.509 C 0.715 0.509 0.715 0.513 0.719 0.515 C 0.723 0.518 0.722 0.526 0.718 0.527 C 0.716 0.527 0.714 0.528 0.713 0.529 C 0.709 0.536 0.708 0.517 0.712 0.509 C 0.713 0.506 0.713 0.504 0.712 0.503 C 0.708 0.501 0.71 0.497 0.719 0.487 C 0.731 0.473 0.739 0.457 0.739 0.446 C 0.739 0.444 0.741 0.439 0.742 0.433 C 0.746 0.42 0.745 0.399 0.741 0.384 C 0.739 0.378 0.738 0.369 0.737 0.365 C 0.737 0.36 0.736 0.354 0.735 0.35 C 0.733 0.341 0.734 0.331 0.738 0.324 C 0.74 0.321 0.742 0.315 0.744 0.312 C 0.747 0.305 0.748 0.3 0.746 0.3 C 0.745 0.3 0.745 0.296 0.745 0.292 C 0.745 0.287 0.745 0.284 0.746 0.285 C 0.748 0.288 0.747 0.274 0.744 0.27 C 0.742 0.267 0.742 0.267 0.744 0.267 C 0.745 0.267 0.747 0.265 0.749 0.262 C 0.753 0.256 0.753 0.266 0.75 0.272 C 0.748 0.276 0.756 0.292 0.76 0.292 C 0.762 0.292 0.762 0.292 0.76 0.294 C 0.758 0.296 0.758 0.297 0.759 0.297 C 0.76 0.297 0.758 0.301 0.756 0.305 C 0.754 0.309 0.752 0.314 0.753 0.315 C 0.754 0.316 0.753 0.317 0.752 0.317 C 0.749 0.317 0.743 0.328 0.745 0.328 C 0.746 0.328 0.745 0.329 0.744 0.331 C 0.742 0.332 0.742 0.335 0.742 0.338 C 0.743 0.341 0.742 0.342 0.741 0.341 C 0.74 0.339 0.739 0.34 0.739 0.341 C 0.739 0.347 0.747 0.344 0.753 0.336 C 0.756 0.331 0.76 0.328 0.761 0.328 C 0.762 0.328 0.764 0.323 0.766 0.317 C 0.768 0.309 0.769 0.307 0.772 0.307 C 0.778 0.306 0.777 0.317 0.769 0.331 C 0.763 0.342 0.762 0.353 0.767 0.351 C 0.768 0.351 0.77 0.349 0.771 0.347 C 0.772 0.344 0.773 0.344 0.774 0.347 C 0.775 0.35 0.775 0.352 0.774 0.352 C 0.773 0.353 0.773 0.354 0.773 0.356 C 0.774 0.357 0.772 0.36 0.77 0.361 C 0.768 0.363 0.767 0.366 0.767 0.372 C 0.768 0.388 0.771 0.388 0.775 0.373 C 0.776 0.369 0.778 0.367 0.779 0.368 C 0.781 0.37 0.78 0.368 0.778 0.356 C 0.776 0.351 0.776 0.346 0.776 0.345 C 0.777 0.344 0.777 0.346 0.778 0.348 C 0.779 0.355 0.782 0.354 0.781 0.346 C 0.781 0.341 0.781 0.339 0.782 0.339 C 0.783 0.339 0.785 0.337 0.786 0.335 C 0.787 0.332 0.789 0.331 0.789 0.333 C 0.79 0.336 0.803 0.326 0.803 0.322 C 0.803 0.321 0.805 0.319 0.806 0.319 C 0.807 0.319 0.808 0.32 0.808 0.32 C 0.808 0.321 0.809 0.326 0.81 0.331 C 0.813 0.342 0.811 0.349 0.805 0.353 C 0.802 0.355 0.802 0.361 0.804 0.367 C 0.805 0.369 0.807 0.373 0.807 0.376 C 0.81 0.389 0.819 0.374 0.817 0.358 C 0.817 0.352 0.821 0.34 0.823 0.343 C 0.826 0.349 0.835 0.335 0.835 0.325 C 0.835 0.311 0.837 0.309 0.841 0.317 C 0.843 0.321 0.845 0.323 0.846 0.323 C 0.848 0.322 0.846 0.34 0.844 0.342 C 0.843 0.343 0.842 0.344 0.843 0.344 C 0.844 0.344 0.844 0.346 0.843 0.348 C 0.842 0.35 0.842 0.353 0.842 0.355 C 0.842 0.357 0.842 0.359 0.842 0.361 C 0.843 0.366 0.849 0.375 0.85 0.372 C 0.851 0.37 0.852 0.37 0.852 0.373 C 0.853 0.378 0.852 0.379 0.848 0.378 C 0.846 0.378 0.846 0.379 0.847 0.383 C 0.85 0.392 0.851 0.403 0.849 0.403 C 0.846 0.403 0.833 0.428 0.834 0.432 C 0.834 0.434 0.834 0.436 0.833 0.437 C 0.832 0.438 0.832 0.439 0.834 0.439 C 0.835 0.439 0.838 0.436 0.839 0.433 C 0.841 0.43 0.847 0.418 0.853 0.406 C 0.859 0.395 0.864 0.384 0.864 0.383 C 0.863 0.381 0.871 0.369 0.873 0.369 C 0.874 0.369 0.876 0.366 0.878 0.361 C 0.88 0.356 0.883 0.354 0.884 0.355 C 0.885 0.355 0.887 0.355 0.889 0.353 C 0.892 0.348 0.901 0.354 0.899 0.36 C 0.898 0.362 0.896 0.363 0.896 0.362 C 0.893 0.359 0.893 0.366 0.896 0.376 C 0.897 0.382 0.898 0.388 0.898 0.388 C 0.898 0.389 0.897 0.389 0.897 0.387 C 0.897 0.384 0.893 0.402 0.891 0.416 C 0.889 0.424 0.886 0.429 0.886 0.422 C 0.886 0.421 0.886 0.419 0.885 0.419 C 0.884 0.419 0.884 0.422 0.884 0.425 C 0.885 0.429 0.884 0.43 0.882 0.429 C 0.88 0.428 0.879 0.426 0.879 0.426 C 0.88 0.425 0.879 0.422 0.878 0.419 C 0.878 0.417 0.877 0.414 0.878 0.413 C 0.879 0.413 0.878 0.412 0.877 0.413 C 0.874 0.414 0.875 0.409 0.878 0.407 C 0.881 0.405 0.882 0.405 0.882 0.412 C 0.882 0.415 0.882 0.417 0.883 0.416 C 0.883 0.415 0.883 0.41 0.882 0.406 C 0.881 0.398 0.881 0.398 0.878 0.403 C 0.877 0.406 0.874 0.407 0.873 0.406 C 0.871 0.405 0.871 0.406 0.873 0.411 C 0.875 0.415 0.877 0.42 0.877 0.423 C 0.877 0.429 0.873 0.422 0.873 0.416 C 0.873 0.411 0.866 0.408 0.865 0.413 C 0.865 0.415 0.864 0.417 0.863 0.416 C 0.863 0.415 0.861 0.417 0.858 0.421 C 0.847 0.44 0.844 0.446 0.844 0.448 C 0.844 0.449 0.842 0.452 0.839 0.454 C 0.835 0.459 0.83 0.467 0.826 0.477 C 0.822 0.486 0.825 0.492 0.83 0.485 C 0.832 0.481 0.865 0.452 0.867 0.452 C 0.867 0.452 0.87 0.451 0.874 0.449 C 0.88 0.445 0.888 0.448 0.89 0.456 C 0.891 0.458 0.891 0.458 0.89 0.457 C 0.889 0.456 0.888 0.457 0.888 0.459 C 0.888 0.465 0.884 0.47 0.882 0.467 C 0.881 0.465 0.881 0.467 0.881 0.473 C 0.881 0.479 0.882 0.482 0.884 0.484 C 0.886 0.485 0.888 0.488 0.889 0.49 C 0.891 0.498 0.898 0.493 0.9 0.482 C 0.903 0.469 0.904 0.465 0.906 0.466 C 0.907 0.466 0.909 0.463 0.91 0.458 C 0.913 0.451 0.916 0.447 0.916 0.452 C 0.916 0.453 0.916 0.456 0.917 0.459 C 0.917 0.461 0.917 0.468 0.915 0.474 C 0.914 0.48 0.913 0.486 0.913 0.488 C 0.913 0.49 0.912 0.491 0.912 0.49 C 0.91 0.488 0.913 0.506 0.915 0.51 C 0.916 0.512 0.918 0.514 0.919 0.514 C 0.92 0.514 0.921 0.515 0.921 0.516 C 0.921 0.518 0.922 0.519 0.924 0.52 C 0.925 0.521 0.927 0.524 0.927 0.526 C 0.927 0.529 0.928 0.53 0.928 0.529 C 0.929 0.528 0.929 0.53 0.929 0.533 C 0.929 0.535 0.925 0.539 0.921 0.542 C 0.914 0.545 0.914 0.547 0.913 0.554 C 0.913 0.566 0.912 0.575 0.91 0.579 C 0.907 0.584 0.91 0.592 0.914 0.592 C 0.92 0.592 0.936 0.607 0.938 0.615 C 0.939 0.622 0.939 0.623 0.936 0.621 C 0.935 0.621 0.933 0.621 0.931 0.623 C 0.927 0.628 0.937 0.637 0.953 0.644 L 0.968 0.651 L 0.98 0.673 C 0.991 0.694 0.995 0.698 0.999 0.695 C 1 0.693 1 0.597 1 0.347 L 1 0.001 L 0.815 0.001 C 0.634 0 0.62 0.001 0.622 0.006 C 0.622 0.007 0.623 0.008 0.624 0.007 C 0.625 0.006 0.625 0.006 0.625 0.008 C 0.625 0.009 0.624 0.011 0.622 0.012 C 0.62 0.013 0.619 0.016 0.618 0.019 C 0.618 0.022 0.616 0.024 0.616 0.023 C 0.615 0.022 0.614 0.023 0.615 0.025 C 0.617 0.029 0.619 0.028 0.619 0.023 C 0.619 0.02 0.62 0.017 0.62 0.016 C 0.621 0.014 0.625 0.017 0.625 0.02 C 0.625 0.021 0.624 0.021 0.623 0.02 C 0.621 0.019 0.621 0.021 0.621 0.024 C 0.621 0.027 0.62 0.031 0.619 0.033 C 0.617 0.036 0.617 0.037 0.619 0.035 C 0.62 0.034 0.62 0.036 0.618 0.039 C 0.616 0.042 0.615 0.044 0.615 0.045 C 0.616 0.045 0.616 0.046 0.614 0.047 C 0.613 0.049 0.611 0.052 0.611 0.053 C 0.611 0.055 0.61 0.058 0.609 0.06 C 0.606 0.064 0.606 0.064 0.609 0.063 C 0.611 0.061 0.611 0.062 0.61 0.065 C 0.606 0.073 0.619 0.079 0.63 0.074 C 0.632 0.073 0.634 0.074 0.635 0.078 C 0.637 0.082 0.638 0.083 0.638 0.08 C 0.639 0.078 0.639 0.079 0.639 0.082 C 0.639 0.085 0.638 0.087 0.637 0.087 C 0.63 0.085 0.624 0.085 0.622 0.087 C 0.619 0.091 0.617 0.1 0.619 0.1 C 0.625 0.102 0.629 0.102 0.629 0.1 C 0.63 0.099 0.631 0.098 0.632 0.099 C 0.634 0.1 0.635 0.099 0.635 0.097 C 0.635 0.091 0.641 0.085 0.643 0.089 C 0.645 0.091 0.646 0.091 0.646 0.086 C 0.647 0.082 0.648 0.081 0.649 0.083 C 0.65 0.084 0.653 0.085 0.655 0.085 C 0.657 0.084 0.659 0.086 0.66 0.09 C 0.661 0.094 0.663 0.097 0.666 0.097 C 0.67 0.097 0.673 0.101 0.672 0.107 C 0.671 0.112 0.668 0.113 0.668 0.108 C 0.668 0.107 0.668 0.106 0.669 0.107 C 0.67 0.108 0.671 0.107 0.671 0.104 C 0.671 0.101 0.67 0.1 0.668 0.101 C 0.667 0.102 0.665 0.103 0.665 0.103 C 0.665 0.103 0.665 0.104 0.665 0.105 C 0.666 0.107 0.665 0.109 0.665 0.11 C 0.664 0.111 0.663 0.113 0.664 0.115 C 0.664 0.117 0.664 0.12 0.663 0.121 C 0.661 0.122 0.661 0.122 0.662 0.119 C 0.663 0.117 0.662 0.117 0.66 0.12 C 0.657 0.126 0.653 0.121 0.653 0.111 C 0.652 0.104 0.651 0.101 0.649 0.104 C 0.649 0.105 0.649 0.107 0.65 0.108 C 0.653 0.111 0.65 0.127 0.646 0.134 C 0.642 0.141 0.642 0.138 0.646 0.128 C 0.648 0.124 0.649 0.118 0.648 0.115 C 0.648 0.111 0.648 0.111 0.647 0.116 C 0.647 0.12 0.647 0.122 0.646 0.121 C 0.645 0.12 0.644 0.121 0.644 0.124 C 0.645 0.131 0.641 0.132 0.64 0.124 C 0.639 0.116 0.636 0.114 0.633 0.117 C 0.629 0.121 0.625 0.127 0.625 0.129 C 0.625 0.133 0.633 0.13 0.635 0.124 C 0.637 0.121 0.638 0.12 0.637 0.122 C 0.637 0.123 0.637 0.125 0.637 0.125 C 0.638 0.125 0.639 0.128 0.639 0.133 C 0.639 0.137 0.639 0.138 0.638 0.135 C 0.637 0.126 0.63 0.134 0.63 0.144 C 0.63 0.15 0.623 0.159 0.621 0.155 C 0.621 0.153 0.621 0.153 0.622 0.154 C 0.624 0.156 0.628 0.148 0.629 0.14 C 0.63 0.133 0.627 0.131 0.624 0.137 C 0.623 0.139 0.622 0.139 0.622 0.137 C 0.622 0.135 0.623 0.133 0.624 0.133 C 0.625 0.133 0.625 0.132 0.625 0.131 C 0.624 0.129 0.622 0.128 0.62 0.129 C 0.617 0.131 0.615 0.129 0.613 0.125 C 0.612 0.122 0.61 0.12 0.609 0.121 C 0.609 0.122 0.608 0.119 0.607 0.114 C 0.606 0.106 0.606 0.106 0.604 0.11 C 0.601 0.117 0.597 0.117 0.593 0.11 C 0.591 0.107 0.587 0.103 0.583 0.101 C 0.58 0.1 0.578 0.097 0.578 0.095 C 0.578 0.088 0.576 0.089 0.574 0.098 C 0.571 0.109 0.565 0.119 0.562 0.119 C 0.561 0.119 0.56 0.118 0.561 0.117 C 0.562 0.112 0.551 0.093 0.548 0.097 C 0.546 0.1 0.545 0.099 0.543 0.091 C 0.539 0.076 0.531 0.075 0.526 0.09 C 0.525 0.095 0.521 0.1 0.519 0.103 C 0.516 0.105 0.513 0.11 0.512 0.113 C 0.508 0.128 0.492 0.129 0.487 0.115 C 0.484 0.107 0.483 0.106 0.482 0.11 C 0.479 0.115 0.476 0.115 0.475 0.11 C 0.474 0.107 0.473 0.106 0.469 0.107 C 0.466 0.108 0.464 0.108 0.464 0.106 C 0.464 0.103 0.463 0.103 0.46 0.104 C 0.457 0.105 0.455 0.104 0.454 0.1 C 0.452 0.096 0.451 0.095 0.445 0.098 C 0.441 0.099 0.437 0.099 0.436 0.098 C 0.435 0.098 0.433 0.1 0.43 0.103 C 0.426 0.109 0.422 0.109 0.416 0.103 C 0.413 0.1 0.412 0.1 0.411 0.103 C 0.41 0.107 0.399 0.104 0.395 0.098 C 0.393 0.094 0.393 0.095 0.39 0.104 C 0.389 0.109 0.387 0.114 0.386 0.114 C 0.384 0.114 0.385 0.129 0.388 0.13 C 0.39 0.131 0.391 0.132 0.391 0.134 C 0.391 0.135 0.394 0.136 0.397 0.135 C 0.401 0.134 0.404 0.135 0.404 0.136 C 0.404 0.139 0.399 0.14 0.395 0.139 C 0.394 0.139 0.391 0.141 0.387 0.144 C 0.383 0.147 0.379 0.15 0.378 0.15 C 0.377 0.15 0.374 0.156 0.371 0.163 C 0.364 0.179 0.358 0.189 0.356 0.187 C 0.355 0.186 0.36 0.172 0.362 0.172 C 0.362 0.172 0.363 0.171 0.363 0.169 C 0.363 0.167 0.364 0.163 0.366 0.161 C 0.372 0.151 0.37 0.119 0.363 0.125 C 0.362 0.126 0.358 0.13 0.354 0.133 C 0.35 0.137 0.344 0.144 0.339 0.15 C 0.333 0.159 0.331 0.161 0.328 0.16 C 0.326 0.159 0.324 0.159 0.324 0.161 C 0.324 0.165 0.319 0.167 0.313 0.164 C 0.307 0.162 0.307 0.162 0.307 0.167 C 0.307 0.175 0.299 0.181 0.293 0.179 C 0.29 0.178 0.288 0.176 0.288 0.174 C 0.288 0.168 0.281 0.164 0.279 0.169 C 0.277 0.174 0.285 0.185 0.288 0.182 C 0.289 0.181 0.29 0.182 0.29 0.183 C 0.29 0.185 0.288 0.186 0.287 0.186 C 0.284 0.186 0.284 0.191 0.287 0.197 C 0.288 0.201 0.288 0.201 0.287 0.196 C 0.287 0.193 0.287 0.191 0.289 0.19 C 0.292 0.188 0.3 0.204 0.3 0.211 C 0.299 0.215 0.287 0.223 0.283 0.221 C 0.281 0.22 0.28 0.221 0.279 0.225 C 0.279 0.228 0.276 0.231 0.27 0.233 C 0.266 0.235 0.261 0.238 0.259 0.241 C 0.257 0.244 0.253 0.25 0.25 0.254 L 0.244 0.262 L 0.24 0.255 C 0.236 0.248 0.236 0.24 0.239 0.238 C 0.24 0.237 0.241 0.235 0.24 0.233 C 0.24 0.232 0.24 0.231 0.241 0.231 C 0.242 0.231 0.243 0.229 0.243 0.228 C 0.243 0.226 0.241 0.225 0.24 0.226 C 0.232 0.23 0.228 0.231 0.229 0.228 C 0.23 0.226 0.229 0.226 0.227 0.226 C 0.221 0.229 0.227 0.197 0.233 0.193 C 0.235 0.193 0.234 0.192 0.232 0.192 C 0.228 0.192 0.226 0.176 0.229 0.17 C 0.23 0.168 0.23 0.165 0.229 0.163 C 0.228 0.16 0.228 0.157 0.229 0.15 C 0.231 0.14 0.234 0.14 0.235 0.151 C 0.235 0.158 0.241 0.167 0.247 0.17 C 0.248 0.171 0.25 0.174 0.25 0.176 C 0.252 0.211 0.254 0.22 0.256 0.205 C 0.257 0.2 0.257 0.195 0.256 0.194 C 0.256 0.193 0.255 0.19 0.254 0.187 C 0.254 0.184 0.253 0.18 0.253 0.177 C 0.252 0.174 0.252 0.172 0.253 0.172 C 0.254 0.172 0.255 0.17 0.255 0.167 C 0.255 0.164 0.256 0.161 0.257 0.161 C 0.257 0.16 0.258 0.155 0.259 0.149 C 0.259 0.14 0.26 0.137 0.263 0.137 C 0.265 0.136 0.266 0.134 0.266 0.133 C 0.266 0.131 0.267 0.131 0.268 0.132 C 0.268 0.133 0.269 0.13 0.27 0.125 C 0.271 0.119 0.272 0.115 0.275 0.114 C 0.277 0.112 0.279 0.109 0.279 0.106 C 0.279 0.102 0.28 0.099 0.282 0.097 C 0.288 0.094 0.292 0.083 0.293 0.069 C 0.294 0.063 0.294 0.055 0.295 0.053 C 0.295 0.05 0.296 0.041 0.296 0.032 C 0.297 0.023 0.299 0.013 0.3 0.01 C 0.301 0.007 0.302 0.003 0.302 0.002 C 0.302 0 0.003 -0.001 0.002 0.002 Z  M 0.315 0.003 C 0.315 0.005 0.316 0.007 0.318 0.007 C 0.319 0.007 0.32 0.005 0.32 0.003 C 0.321 0.001 0.32 0 0.318 0 C 0.316 0 0.315 0.001 0.315 0.003 Z  M 0.322 0.002 C 0.322 0.006 0.327 0.012 0.328 0.01 C 0.329 0.008 0.326 0 0.324 0 C 0.323 0 0.322 0.001 0.322 0.002 Z  M 0.337 0.007 C 0.339 0.015 0.341 0.016 0.341 0.01 C 0.341 0.004 0.349 0.004 0.35 0.01 C 0.351 0.013 0.351 0.013 0.353 0.011 C 0.354 0.009 0.356 0.009 0.357 0.01 C 0.358 0.011 0.358 0.011 0.358 0.007 C 0.357 0.005 0.357 0.002 0.357 0.001 C 0.357 0.001 0.352 0 0.346 0 L 0.335 0 L 0.337 0.007 Z  M 0.636 0.052 C 0.634 0.053 0.632 0.055 0.631 0.057 C 0.63 0.059 0.63 0.059 0.63 0.057 C 0.63 0.052 0.632 0.05 0.635 0.05 C 0.639 0.051 0.639 0.051 0.636 0.052 Z  M 0.377 0.11 C 0.378 0.112 0.38 0.113 0.38 0.112 C 0.382 0.11 0.38 0.106 0.377 0.106 C 0.376 0.106 0.375 0.106 0.377 0.11 Z  M 0.376 0.125 C 0.374 0.127 0.373 0.129 0.373 0.132 C 0.374 0.137 0.376 0.137 0.379 0.133 C 0.383 0.128 0.38 0.122 0.376 0.125 Z  M 0.414 0.127 C 0.417 0.129 0.417 0.133 0.412 0.136 C 0.407 0.139 0.403 0.137 0.407 0.133 C 0.409 0.131 0.409 0.129 0.409 0.128 C 0.408 0.125 0.41 0.124 0.414 0.127 Z  M 0.426 0.129 C 0.429 0.134 0.429 0.135 0.426 0.137 C 0.421 0.139 0.418 0.135 0.421 0.129 C 0.423 0.124 0.424 0.124 0.426 0.129 Z  M 0.579 0.138 C 0.58 0.14 0.58 0.143 0.579 0.145 C 0.579 0.146 0.58 0.147 0.582 0.147 C 0.584 0.147 0.585 0.146 0.583 0.141 C 0.582 0.137 0.582 0.136 0.583 0.137 C 0.585 0.137 0.586 0.141 0.586 0.145 C 0.586 0.149 0.587 0.152 0.589 0.152 C 0.59 0.152 0.591 0.152 0.59 0.151 C 0.589 0.15 0.588 0.146 0.588 0.142 L 0.588 0.135 L 0.589 0.142 C 0.59 0.147 0.591 0.148 0.596 0.149 C 0.6 0.149 0.603 0.151 0.603 0.152 C 0.604 0.153 0.602 0.153 0.6 0.152 C 0.595 0.151 0.595 0.152 0.598 0.158 C 0.599 0.161 0.598 0.161 0.596 0.158 C 0.595 0.155 0.592 0.154 0.591 0.155 C 0.59 0.156 0.588 0.155 0.586 0.153 C 0.584 0.152 0.58 0.15 0.577 0.149 C 0.573 0.148 0.571 0.146 0.571 0.141 C 0.571 0.133 0.578 0.131 0.579 0.138 Z  M 0.568 0.141 C 0.567 0.145 0.562 0.146 0.561 0.142 C 0.559 0.139 0.561 0.137 0.565 0.137 C 0.567 0.137 0.568 0.139 0.568 0.141 Z  M 0.177 0.175 C 0.177 0.19 0.178 0.192 0.182 0.198 C 0.188 0.205 0.189 0.216 0.186 0.225 C 0.184 0.23 0.18 0.224 0.18 0.216 C 0.18 0.209 0.179 0.204 0.174 0.196 C 0.165 0.18 0.164 0.157 0.173 0.159 C 0.176 0.16 0.176 0.162 0.177 0.175 Z  M 0.199 0.162 C 0.199 0.164 0.199 0.169 0.2 0.173 C 0.2 0.177 0.199 0.183 0.198 0.188 C 0.194 0.202 0.195 0.218 0.2 0.227 C 0.205 0.235 0.207 0.244 0.203 0.245 C 0.201 0.245 0.2 0.246 0.197 0.247 C 0.193 0.249 0.19 0.249 0.188 0.247 C 0.183 0.243 0.181 0.259 0.186 0.265 C 0.188 0.268 0.188 0.269 0.186 0.271 C 0.185 0.272 0.185 0.272 0.185 0.27 C 0.186 0.268 0.186 0.267 0.184 0.267 C 0.181 0.267 0.179 0.247 0.182 0.236 C 0.182 0.235 0.182 0.234 0.182 0.233 C 0.182 0.229 0.184 0.23 0.186 0.234 C 0.188 0.238 0.192 0.232 0.19 0.227 C 0.19 0.226 0.19 0.225 0.191 0.225 C 0.193 0.225 0.192 0.22 0.19 0.214 C 0.19 0.212 0.19 0.21 0.191 0.209 C 0.192 0.208 0.192 0.198 0.192 0.187 C 0.192 0.169 0.192 0.166 0.195 0.162 C 0.199 0.158 0.198 0.158 0.199 0.162 Z  M 0.234 0.181 C 0.235 0.184 0.236 0.186 0.237 0.186 C 0.239 0.186 0.238 0.191 0.235 0.197 C 0.232 0.202 0.232 0.202 0.235 0.204 C 0.239 0.206 0.239 0.206 0.24 0.194 C 0.24 0.188 0.24 0.184 0.24 0.185 C 0.239 0.185 0.238 0.184 0.236 0.181 C 0.233 0.177 0.233 0.177 0.234 0.181 Z  M 0.327 0.183 C 0.332 0.187 0.334 0.211 0.328 0.211 C 0.327 0.211 0.325 0.212 0.325 0.214 C 0.325 0.217 0.324 0.217 0.321 0.214 C 0.32 0.213 0.319 0.207 0.318 0.201 C 0.318 0.195 0.318 0.189 0.318 0.187 C 0.317 0.18 0.319 0.179 0.327 0.183 Z  M 0.345 0.186 C 0.345 0.188 0.34 0.194 0.337 0.194 C 0.337 0.194 0.337 0.188 0.338 0.184 C 0.338 0.182 0.344 0.184 0.345 0.186 Z  M 0.73 0.212 C 0.729 0.214 0.728 0.214 0.727 0.211 C 0.725 0.208 0.725 0.208 0.727 0.209 C 0.728 0.211 0.728 0.21 0.728 0.207 C 0.728 0.203 0.729 0.202 0.73 0.205 C 0.732 0.208 0.732 0.209 0.73 0.212 Z  M 0.165 0.227 C 0.167 0.234 0.167 0.25 0.165 0.249 C 0.164 0.248 0.164 0.252 0.164 0.256 C 0.164 0.261 0.163 0.265 0.162 0.266 C 0.161 0.267 0.16 0.265 0.16 0.26 C 0.16 0.256 0.159 0.253 0.158 0.252 C 0.157 0.251 0.157 0.248 0.158 0.241 C 0.159 0.235 0.16 0.229 0.159 0.228 C 0.158 0.224 0.16 0.219 0.162 0.221 C 0.163 0.222 0.165 0.225 0.165 0.227 Z  M 0.152 0.242 C 0.154 0.246 0.154 0.247 0.151 0.247 C 0.15 0.247 0.149 0.245 0.149 0.241 C 0.149 0.238 0.149 0.236 0.149 0.236 C 0.15 0.237 0.151 0.24 0.152 0.242 Z  M 0.244 0.248 C 0.246 0.257 0.248 0.257 0.247 0.248 C 0.246 0.245 0.245 0.241 0.243 0.241 C 0.241 0.239 0.241 0.24 0.244 0.248 Z  M 0.756 0.252 C 0.755 0.254 0.756 0.256 0.757 0.258 C 0.759 0.261 0.76 0.261 0.76 0.259 C 0.76 0.255 0.764 0.254 0.765 0.258 C 0.765 0.259 0.763 0.262 0.76 0.265 C 0.757 0.267 0.755 0.268 0.756 0.267 C 0.756 0.265 0.756 0.264 0.755 0.264 C 0.753 0.264 0.752 0.253 0.754 0.252 C 0.757 0.25 0.757 0.25 0.756 0.252 Z  M 0.231 0.256 C 0.232 0.259 0.233 0.261 0.232 0.269 C 0.232 0.272 0.207 0.292 0.203 0.293 C 0.201 0.293 0.199 0.296 0.198 0.298 C 0.197 0.301 0.195 0.303 0.194 0.302 C 0.192 0.301 0.191 0.301 0.191 0.303 C 0.191 0.304 0.189 0.307 0.186 0.31 C 0.183 0.312 0.179 0.316 0.177 0.318 C 0.16 0.334 0.143 0.388 0.145 0.419 C 0.146 0.444 0.147 0.45 0.153 0.463 C 0.162 0.483 0.161 0.487 0.15 0.506 C 0.145 0.515 0.139 0.522 0.138 0.522 C 0.137 0.522 0.136 0.523 0.136 0.525 C 0.136 0.526 0.135 0.531 0.132 0.535 C 0.13 0.539 0.128 0.545 0.128 0.547 C 0.127 0.549 0.126 0.553 0.125 0.555 C 0.122 0.559 0.122 0.558 0.125 0.551 C 0.128 0.543 0.128 0.543 0.125 0.547 C 0.123 0.55 0.12 0.553 0.118 0.554 C 0.116 0.555 0.116 0.555 0.118 0.552 C 0.12 0.55 0.12 0.547 0.12 0.546 C 0.119 0.545 0.12 0.544 0.121 0.544 C 0.122 0.544 0.122 0.543 0.122 0.542 C 0.121 0.54 0.121 0.539 0.122 0.539 C 0.123 0.539 0.124 0.538 0.123 0.536 C 0.123 0.535 0.124 0.531 0.126 0.528 C 0.128 0.525 0.129 0.522 0.128 0.522 C 0.127 0.522 0.127 0.521 0.129 0.519 C 0.131 0.517 0.131 0.516 0.129 0.514 C 0.128 0.513 0.127 0.511 0.127 0.51 C 0.127 0.497 0.124 0.495 0.12 0.504 C 0.117 0.512 0.108 0.51 0.111 0.502 C 0.112 0.5 0.111 0.5 0.11 0.502 C 0.107 0.506 0.105 0.502 0.105 0.49 C 0.105 0.487 0.104 0.482 0.102 0.479 C 0.1 0.476 0.099 0.472 0.099 0.469 C 0.099 0.466 0.098 0.464 0.097 0.464 C 0.097 0.464 0.096 0.461 0.095 0.458 C 0.094 0.455 0.092 0.452 0.091 0.451 C 0.088 0.45 0.087 0.447 0.087 0.444 C 0.087 0.44 0.087 0.436 0.087 0.435 C 0.085 0.427 0.087 0.408 0.089 0.404 C 0.09 0.402 0.091 0.399 0.09 0.397 C 0.09 0.396 0.091 0.395 0.093 0.395 C 0.094 0.395 0.096 0.398 0.096 0.401 C 0.097 0.408 0.103 0.406 0.11 0.395 C 0.116 0.385 0.124 0.381 0.124 0.388 C 0.124 0.394 0.132 0.391 0.133 0.385 C 0.134 0.381 0.136 0.378 0.137 0.377 C 0.138 0.377 0.139 0.372 0.139 0.366 C 0.139 0.361 0.14 0.353 0.142 0.348 C 0.143 0.343 0.144 0.337 0.143 0.336 C 0.143 0.335 0.144 0.333 0.145 0.333 C 0.147 0.333 0.147 0.332 0.146 0.325 C 0.145 0.318 0.145 0.317 0.148 0.316 C 0.15 0.315 0.152 0.316 0.152 0.319 C 0.152 0.321 0.151 0.322 0.149 0.322 C 0.148 0.322 0.147 0.324 0.147 0.325 C 0.147 0.327 0.148 0.327 0.149 0.327 C 0.15 0.326 0.15 0.328 0.149 0.331 C 0.149 0.336 0.149 0.336 0.152 0.334 C 0.154 0.332 0.155 0.329 0.154 0.325 C 0.154 0.321 0.154 0.319 0.155 0.319 C 0.157 0.319 0.157 0.319 0.155 0.317 C 0.154 0.315 0.154 0.314 0.155 0.314 C 0.156 0.314 0.156 0.312 0.156 0.309 C 0.156 0.307 0.157 0.304 0.158 0.304 C 0.16 0.302 0.16 0.303 0.158 0.305 C 0.156 0.309 0.157 0.309 0.161 0.307 C 0.162 0.306 0.163 0.303 0.163 0.301 C 0.163 0.299 0.164 0.297 0.165 0.297 C 0.165 0.297 0.166 0.295 0.166 0.293 C 0.166 0.291 0.167 0.29 0.169 0.29 C 0.17 0.29 0.173 0.287 0.176 0.283 C 0.181 0.275 0.188 0.272 0.188 0.278 C 0.188 0.281 0.188 0.281 0.189 0.278 C 0.19 0.275 0.191 0.275 0.194 0.277 C 0.195 0.279 0.199 0.28 0.203 0.279 C 0.206 0.278 0.208 0.279 0.208 0.281 C 0.208 0.283 0.21 0.281 0.212 0.277 C 0.213 0.273 0.215 0.27 0.216 0.271 C 0.217 0.272 0.218 0.27 0.219 0.267 C 0.22 0.264 0.222 0.262 0.223 0.263 C 0.224 0.264 0.224 0.263 0.223 0.262 C 0.223 0.26 0.224 0.257 0.225 0.256 C 0.229 0.252 0.228 0.252 0.231 0.256 Z  M 0.161 0.274 C 0.161 0.276 0.16 0.277 0.158 0.276 C 0.155 0.274 0.154 0.269 0.157 0.269 C 0.158 0.269 0.158 0.268 0.157 0.266 C 0.156 0.264 0.157 0.264 0.159 0.266 C 0.16 0.268 0.161 0.272 0.161 0.274 Z  M 0.741 0.279 C 0.738 0.284 0.738 0.296 0.742 0.293 C 0.744 0.292 0.744 0.293 0.743 0.297 C 0.74 0.304 0.739 0.312 0.739 0.315 C 0.739 0.317 0.738 0.321 0.733 0.327 C 0.729 0.333 0.729 0.327 0.734 0.317 C 0.736 0.312 0.738 0.307 0.737 0.306 C 0.737 0.304 0.737 0.303 0.738 0.302 C 0.74 0.301 0.74 0.299 0.738 0.294 L 0.736 0.287 L 0.737 0.294 C 0.737 0.3 0.736 0.301 0.734 0.301 C 0.733 0.301 0.73 0.304 0.728 0.308 C 0.724 0.316 0.724 0.316 0.723 0.31 C 0.72 0.3 0.719 0.292 0.721 0.292 C 0.722 0.292 0.722 0.291 0.721 0.289 C 0.719 0.287 0.72 0.287 0.723 0.287 C 0.727 0.288 0.728 0.289 0.725 0.293 C 0.723 0.297 0.722 0.308 0.724 0.308 C 0.725 0.308 0.725 0.305 0.725 0.301 C 0.725 0.298 0.726 0.294 0.727 0.294 C 0.728 0.294 0.73 0.281 0.729 0.28 C 0.728 0.279 0.729 0.279 0.73 0.28 C 0.731 0.28 0.732 0.279 0.733 0.276 C 0.733 0.274 0.734 0.273 0.735 0.274 C 0.736 0.274 0.737 0.274 0.737 0.272 C 0.738 0.27 0.739 0.27 0.741 0.272 C 0.744 0.275 0.744 0.275 0.741 0.279 Z  M 0.749 0.289 C 0.746 0.292 0.749 0.295 0.753 0.293 C 0.755 0.291 0.755 0.292 0.754 0.294 C 0.753 0.297 0.754 0.297 0.755 0.296 C 0.757 0.293 0.757 0.292 0.754 0.289 C 0.752 0.288 0.75 0.287 0.749 0.289 Z  M 0.15 0.31 C 0.148 0.314 0.147 0.313 0.148 0.307 C 0.148 0.304 0.15 0.303 0.15 0.304 C 0.151 0.305 0.151 0.307 0.15 0.31 Z  M 0.072 0.355 C 0.074 0.361 0.068 0.372 0.065 0.368 C 0.064 0.367 0.063 0.368 0.062 0.369 C 0.062 0.371 0.061 0.372 0.06 0.371 C 0.059 0.37 0.058 0.371 0.057 0.374 C 0.054 0.379 0.046 0.379 0.046 0.374 C 0.046 0.371 0.047 0.369 0.049 0.369 C 0.051 0.369 0.052 0.368 0.053 0.367 C 0.053 0.365 0.055 0.365 0.055 0.365 C 0.057 0.368 0.062 0.361 0.061 0.358 C 0.06 0.355 0.064 0.35 0.068 0.35 C 0.069 0.35 0.071 0.352 0.072 0.355 Z  M 0.915 0.393 C 0.912 0.397 0.912 0.397 0.916 0.397 C 0.92 0.398 0.92 0.398 0.917 0.4 C 0.915 0.401 0.913 0.401 0.912 0.4 C 0.911 0.397 0.913 0.39 0.915 0.39 C 0.918 0.39 0.917 0.39 0.915 0.393 Z  M 0.805 0.396 C 0.803 0.402 0.802 0.415 0.803 0.411 C 0.806 0.405 0.806 0.415 0.803 0.422 C 0.802 0.426 0.802 0.428 0.803 0.428 C 0.804 0.428 0.805 0.429 0.805 0.431 C 0.805 0.432 0.804 0.433 0.804 0.432 C 0.8 0.428 0.801 0.44 0.804 0.447 C 0.806 0.45 0.808 0.455 0.808 0.456 C 0.808 0.458 0.809 0.457 0.811 0.455 C 0.812 0.453 0.813 0.45 0.813 0.447 C 0.812 0.445 0.813 0.439 0.815 0.435 C 0.817 0.43 0.817 0.426 0.816 0.423 C 0.815 0.42 0.814 0.419 0.814 0.421 C 0.814 0.422 0.813 0.42 0.811 0.416 C 0.808 0.411 0.807 0.406 0.808 0.401 C 0.808 0.395 0.806 0.392 0.805 0.396 Z  M 0.915 0.41 C 0.913 0.413 0.913 0.414 0.915 0.414 C 0.916 0.414 0.918 0.412 0.919 0.409 C 0.92 0.404 0.921 0.404 0.921 0.409 C 0.921 0.412 0.92 0.414 0.919 0.414 C 0.919 0.414 0.917 0.418 0.916 0.422 C 0.915 0.427 0.914 0.431 0.913 0.431 C 0.911 0.431 0.909 0.422 0.911 0.42 C 0.911 0.419 0.912 0.416 0.912 0.415 C 0.913 0.407 0.913 0.406 0.916 0.406 C 0.918 0.406 0.918 0.406 0.915 0.41 Z  M 0.081 0.418 C 0.082 0.42 0.083 0.423 0.083 0.424 C 0.082 0.425 0.082 0.433 0.081 0.44 C 0.08 0.448 0.079 0.455 0.079 0.457 C 0.078 0.458 0.077 0.463 0.077 0.468 C 0.077 0.473 0.075 0.482 0.073 0.489 C 0.07 0.496 0.068 0.505 0.067 0.509 C 0.065 0.513 0.063 0.517 0.062 0.517 C 0.058 0.517 0.057 0.523 0.056 0.554 C 0.056 0.565 0.055 0.574 0.054 0.576 C 0.053 0.577 0.053 0.585 0.053 0.594 C 0.054 0.604 0.053 0.611 0.052 0.612 C 0.05 0.614 0.047 0.561 0.049 0.555 C 0.05 0.551 0.05 0.548 0.048 0.544 C 0.046 0.538 0.045 0.54 0.046 0.548 C 0.046 0.552 0.043 0.558 0.041 0.557 C 0.04 0.556 0.039 0.557 0.039 0.56 C 0.039 0.562 0.039 0.564 0.039 0.565 C 0.04 0.566 0.041 0.565 0.042 0.563 C 0.042 0.561 0.042 0.565 0.042 0.572 C 0.042 0.579 0.041 0.586 0.04 0.587 C 0.037 0.591 0.036 0.588 0.036 0.577 C 0.037 0.568 0.036 0.563 0.034 0.56 C 0.03 0.553 0.028 0.541 0.028 0.512 C 0.027 0.497 0.027 0.483 0.026 0.481 C 0.025 0.476 0.032 0.453 0.034 0.454 C 0.035 0.455 0.037 0.453 0.038 0.45 C 0.039 0.446 0.039 0.445 0.038 0.446 C 0.037 0.447 0.036 0.445 0.036 0.442 C 0.036 0.436 0.037 0.436 0.039 0.44 C 0.04 0.442 0.042 0.444 0.043 0.443 C 0.046 0.439 0.054 0.441 0.06 0.446 C 0.065 0.449 0.067 0.45 0.068 0.447 C 0.07 0.444 0.069 0.444 0.068 0.446 C 0.066 0.448 0.066 0.447 0.067 0.443 C 0.067 0.441 0.068 0.437 0.068 0.436 C 0.068 0.434 0.068 0.434 0.069 0.434 C 0.07 0.434 0.071 0.431 0.072 0.428 C 0.072 0.414 0.075 0.411 0.081 0.418 Z  M 0.957 0.462 C 0.957 0.464 0.955 0.467 0.953 0.469 C 0.949 0.472 0.949 0.471 0.95 0.469 C 0.953 0.458 0.957 0.455 0.957 0.462 Z  M 0.982 0.484 C 0.982 0.491 0.981 0.492 0.977 0.493 C 0.974 0.494 0.974 0.493 0.975 0.488 C 0.977 0.476 0.984 0.472 0.982 0.484 Z  M 0.736 0.521 C 0.736 0.523 0.736 0.525 0.735 0.525 C 0.734 0.525 0.733 0.523 0.732 0.521 C 0.73 0.517 0.73 0.517 0.733 0.517 C 0.735 0.517 0.736 0.518 0.736 0.521 Z  M 0.181 0.528 C 0.182 0.53 0.183 0.534 0.182 0.536 C 0.181 0.538 0.18 0.539 0.179 0.536 C 0.179 0.534 0.178 0.534 0.176 0.538 C 0.173 0.546 0.17 0.54 0.173 0.531 C 0.174 0.526 0.175 0.522 0.174 0.521 C 0.174 0.52 0.175 0.52 0.176 0.522 C 0.178 0.523 0.18 0.526 0.181 0.528 Z  M 0.978 0.547 C 0.98 0.547 0.98 0.548 0.979 0.55 C 0.978 0.551 0.974 0.552 0.972 0.551 C 0.969 0.551 0.966 0.55 0.965 0.55 C 0.964 0.55 0.964 0.549 0.966 0.548 C 0.967 0.546 0.971 0.546 0.978 0.547 Z  M 0.019 0.565 C 0.019 0.57 0.019 0.572 0.018 0.569 C 0.018 0.567 0.017 0.565 0.016 0.564 C 0.015 0.563 0.015 0.559 0.016 0.556 C 0.017 0.547 0.019 0.554 0.019 0.565 Z  M 0.121 0.569 C 0.121 0.572 0.114 0.586 0.112 0.586 C 0.112 0.586 0.111 0.582 0.111 0.577 C 0.112 0.57 0.112 0.569 0.113 0.573 C 0.115 0.579 0.118 0.579 0.117 0.574 C 0.116 0.57 0.117 0.569 0.12 0.567 C 0.121 0.567 0.121 0.568 0.121 0.569 Z  M 0.723 0.579 C 0.722 0.584 0.723 0.589 0.725 0.589 C 0.727 0.589 0.727 0.579 0.725 0.576 C 0.724 0.575 0.723 0.576 0.723 0.579 Z  M 0.261 0.6 C 0.26 0.601 0.264 0.603 0.269 0.604 C 0.274 0.605 0.28 0.609 0.282 0.611 C 0.285 0.614 0.288 0.617 0.289 0.617 C 0.297 0.617 0.313 0.631 0.313 0.638 C 0.312 0.645 0.31 0.646 0.306 0.64 C 0.298 0.631 0.255 0.635 0.255 0.644 C 0.255 0.646 0.255 0.647 0.254 0.646 C 0.252 0.644 0.254 0.633 0.257 0.627 C 0.261 0.622 0.255 0.623 0.251 0.629 C 0.246 0.635 0.244 0.633 0.248 0.624 C 0.251 0.616 0.251 0.616 0.248 0.612 C 0.244 0.607 0.247 0.603 0.255 0.6 C 0.258 0.599 0.261 0.598 0.261 0.597 C 0.261 0.597 0.261 0.598 0.261 0.6 Z  M 0.253 0.669 C 0.252 0.673 0.252 0.673 0.25 0.668 C 0.249 0.664 0.249 0.663 0.251 0.661 C 0.253 0.658 0.254 0.662 0.253 0.669 Z  M 0.333 0.686 C 0.333 0.69 0.335 0.703 0.337 0.715 C 0.342 0.742 0.342 0.755 0.338 0.763 C 0.333 0.773 0.325 0.77 0.328 0.759 C 0.328 0.756 0.329 0.752 0.329 0.75 C 0.332 0.728 0.332 0.722 0.329 0.7 C 0.327 0.688 0.326 0.676 0.326 0.675 C 0.328 0.67 0.333 0.678 0.333 0.686 Z  M 0.258 0.696 C 0.259 0.712 0.26 0.711 0.254 0.711 C 0.251 0.71 0.248 0.711 0.248 0.713 C 0.247 0.715 0.246 0.717 0.245 0.717 C 0.244 0.717 0.241 0.72 0.238 0.725 C 0.236 0.73 0.233 0.733 0.232 0.733 C 0.231 0.733 0.23 0.735 0.229 0.738 C 0.228 0.742 0.227 0.742 0.226 0.737 C 0.224 0.731 0.224 0.73 0.229 0.724 C 0.233 0.721 0.234 0.716 0.234 0.714 C 0.234 0.712 0.234 0.711 0.236 0.712 C 0.237 0.713 0.238 0.712 0.238 0.709 C 0.238 0.705 0.238 0.705 0.239 0.708 C 0.24 0.711 0.241 0.711 0.242 0.708 C 0.242 0.707 0.244 0.706 0.245 0.707 C 0.246 0.707 0.247 0.707 0.247 0.705 C 0.247 0.704 0.248 0.704 0.25 0.704 C 0.251 0.705 0.252 0.704 0.253 0.702 C 0.254 0.7 0.253 0.7 0.252 0.701 C 0.251 0.702 0.251 0.701 0.253 0.699 C 0.256 0.694 0.258 0.693 0.258 0.696 Z  M 0.216 0.703 C 0.213 0.71 0.21 0.709 0.212 0.701 C 0.212 0.699 0.214 0.697 0.216 0.697 L 0.22 0.697 L 0.216 0.703 Z  M 0.349 0.75 C 0.348 0.758 0.344 0.767 0.342 0.767 C 0.34 0.767 0.34 0.764 0.342 0.756 C 0.343 0.75 0.345 0.743 0.346 0.739 C 0.348 0.73 0.351 0.739 0.349 0.75 Z  M 0.368 0.759 C 0.366 0.761 0.366 0.761 0.366 0.757 C 0.366 0.755 0.365 0.753 0.364 0.753 C 0.362 0.753 0.361 0.751 0.361 0.749 C 0.361 0.746 0.361 0.744 0.36 0.744 C 0.359 0.744 0.358 0.742 0.358 0.74 C 0.358 0.736 0.36 0.737 0.364 0.745 C 0.369 0.753 0.369 0.756 0.368 0.759 Z  M 0.248 0.75 C 0.249 0.751 0.25 0.752 0.252 0.751 C 0.254 0.751 0.255 0.751 0.255 0.752 C 0.255 0.753 0.258 0.754 0.262 0.753 L 0.268 0.752 L 0.265 0.759 C 0.263 0.763 0.261 0.765 0.257 0.765 L 0.251 0.766 L 0.257 0.763 C 0.263 0.76 0.265 0.755 0.26 0.755 C 0.258 0.755 0.257 0.757 0.257 0.758 C 0.257 0.76 0.254 0.761 0.252 0.761 C 0.249 0.761 0.245 0.762 0.244 0.764 C 0.242 0.766 0.242 0.767 0.245 0.767 C 0.247 0.767 0.247 0.767 0.247 0.768 C 0.245 0.771 0.233 0.763 0.233 0.759 C 0.233 0.755 0.234 0.755 0.235 0.758 C 0.236 0.762 0.236 0.762 0.236 0.758 C 0.236 0.75 0.246 0.743 0.248 0.75 Z  M 0.257 0.78 C 0.256 0.784 0.256 0.784 0.259 0.781 C 0.26 0.779 0.262 0.778 0.263 0.779 C 0.266 0.783 0.263 0.786 0.256 0.786 C 0.249 0.785 0.247 0.782 0.251 0.779 C 0.252 0.778 0.253 0.775 0.252 0.773 C 0.252 0.769 0.252 0.769 0.255 0.772 C 0.257 0.774 0.258 0.777 0.257 0.78 Z  M 0.625 0.776 C 0.623 0.778 0.622 0.78 0.623 0.781 C 0.624 0.782 0.625 0.781 0.626 0.779 C 0.627 0.776 0.628 0.775 0.629 0.777 C 0.63 0.778 0.63 0.777 0.629 0.775 C 0.628 0.771 0.628 0.771 0.625 0.776 Z  M 0.615 0.786 C 0.614 0.787 0.613 0.79 0.612 0.794 C 0.61 0.797 0.608 0.8 0.606 0.8 C 0.605 0.8 0.604 0.801 0.604 0.803 C 0.605 0.804 0.604 0.805 0.603 0.804 C 0.601 0.803 0.6 0.804 0.6 0.807 C 0.6 0.81 0.601 0.811 0.603 0.81 C 0.604 0.809 0.606 0.811 0.607 0.814 C 0.61 0.819 0.61 0.82 0.612 0.815 C 0.613 0.813 0.615 0.811 0.617 0.811 C 0.619 0.812 0.62 0.811 0.62 0.807 C 0.62 0.802 0.621 0.801 0.625 0.802 C 0.632 0.803 0.632 0.796 0.624 0.79 C 0.621 0.787 0.618 0.785 0.617 0.784 C 0.617 0.784 0.616 0.784 0.615 0.786 Z  M 0.293 0.808 C 0.293 0.81 0.294 0.811 0.295 0.81 C 0.296 0.81 0.295 0.811 0.293 0.812 C 0.288 0.816 0.287 0.822 0.291 0.831 C 0.294 0.838 0.293 0.86 0.29 0.854 C 0.29 0.854 0.287 0.855 0.284 0.857 C 0.278 0.862 0.277 0.86 0.277 0.844 C 0.278 0.838 0.277 0.835 0.276 0.835 C 0.275 0.836 0.274 0.833 0.275 0.827 C 0.275 0.821 0.275 0.817 0.274 0.815 C 0.273 0.814 0.272 0.812 0.272 0.811 C 0.272 0.809 0.274 0.811 0.276 0.814 C 0.28 0.82 0.281 0.828 0.279 0.828 C 0.278 0.828 0.277 0.829 0.277 0.831 C 0.277 0.832 0.278 0.832 0.28 0.83 C 0.283 0.827 0.284 0.827 0.287 0.834 C 0.289 0.838 0.291 0.842 0.292 0.842 C 0.293 0.842 0.286 0.822 0.284 0.822 C 0.283 0.822 0.284 0.821 0.286 0.819 C 0.288 0.817 0.288 0.817 0.285 0.817 C 0.281 0.817 0.276 0.811 0.278 0.808 C 0.279 0.806 0.293 0.806 0.293 0.808 Z  M 0.307 0.814 C 0.309 0.816 0.308 0.817 0.305 0.817 C 0.302 0.817 0.301 0.815 0.301 0.814 C 0.302 0.81 0.304 0.81 0.307 0.814 Z  M 0.495 0.828 C 0.494 0.837 0.491 0.839 0.491 0.832 C 0.491 0.83 0.49 0.828 0.489 0.828 C 0.489 0.828 0.488 0.83 0.488 0.832 C 0.488 0.838 0.486 0.837 0.483 0.83 L 0.481 0.824 L 0.477 0.83 C 0.475 0.835 0.473 0.836 0.47 0.835 C 0.465 0.834 0.464 0.84 0.469 0.843 C 0.472 0.845 0.474 0.85 0.471 0.85 C 0.47 0.85 0.47 0.852 0.47 0.856 C 0.471 0.859 0.472 0.861 0.473 0.86 C 0.475 0.859 0.478 0.857 0.48 0.856 C 0.482 0.855 0.486 0.853 0.488 0.85 C 0.491 0.846 0.492 0.846 0.494 0.851 C 0.495 0.854 0.496 0.855 0.496 0.854 C 0.496 0.853 0.497 0.854 0.499 0.857 C 0.503 0.864 0.506 0.859 0.502 0.851 C 0.498 0.844 0.499 0.842 0.503 0.849 C 0.506 0.855 0.511 0.847 0.509 0.838 C 0.507 0.833 0.507 0.83 0.509 0.828 C 0.51 0.825 0.51 0.825 0.508 0.826 C 0.507 0.826 0.506 0.829 0.506 0.832 C 0.506 0.842 0.498 0.84 0.497 0.83 L 0.496 0.821 L 0.495 0.828 Z  M 0.548 0.828 C 0.547 0.83 0.546 0.833 0.547 0.835 C 0.547 0.838 0.547 0.839 0.546 0.838 C 0.545 0.837 0.544 0.837 0.544 0.839 C 0.544 0.841 0.543 0.841 0.542 0.84 C 0.541 0.839 0.541 0.84 0.541 0.842 C 0.542 0.844 0.543 0.845 0.544 0.845 C 0.545 0.845 0.545 0.846 0.545 0.848 C 0.544 0.85 0.545 0.854 0.546 0.857 C 0.549 0.862 0.549 0.862 0.549 0.856 C 0.549 0.85 0.551 0.848 0.553 0.853 C 0.554 0.857 0.56 0.856 0.56 0.851 C 0.56 0.849 0.559 0.847 0.557 0.847 C 0.556 0.847 0.555 0.846 0.556 0.845 C 0.558 0.837 0.551 0.823 0.548 0.828 Z  M 0.612 0.835 C 0.61 0.838 0.611 0.841 0.614 0.84 C 0.615 0.839 0.616 0.837 0.616 0.836 C 0.616 0.833 0.614 0.832 0.612 0.835 Z  M 0.451 0.84 C 0.448 0.842 0.444 0.844 0.444 0.844 C 0.443 0.843 0.442 0.846 0.442 0.849 C 0.443 0.856 0.443 0.856 0.437 0.853 C 0.434 0.851 0.433 0.851 0.434 0.853 C 0.434 0.856 0.438 0.857 0.445 0.857 C 0.456 0.857 0.458 0.858 0.458 0.869 C 0.458 0.877 0.462 0.877 0.463 0.868 C 0.464 0.864 0.463 0.862 0.462 0.863 C 0.46 0.864 0.457 0.851 0.458 0.841 C 0.458 0.838 0.458 0.836 0.458 0.836 C 0.458 0.836 0.455 0.838 0.451 0.84 Z  M 0.528 0.84 C 0.527 0.847 0.527 0.847 0.529 0.847 C 0.53 0.847 0.531 0.845 0.531 0.842 C 0.532 0.835 0.529 0.834 0.528 0.84 Z  M 0.514 0.84 C 0.514 0.841 0.514 0.844 0.514 0.846 C 0.515 0.85 0.514 0.85 0.513 0.849 C 0.511 0.847 0.511 0.847 0.512 0.85 C 0.516 0.856 0.519 0.852 0.517 0.845 C 0.516 0.841 0.515 0.839 0.514 0.84 Z  M 0.604 0.843 C 0.604 0.845 0.605 0.847 0.607 0.847 C 0.608 0.847 0.61 0.846 0.61 0.845 C 0.61 0.843 0.608 0.842 0.607 0.841 C 0.605 0.84 0.604 0.841 0.604 0.843 Z  M 0.567 0.844 C 0.567 0.846 0.567 0.847 0.566 0.847 C 0.565 0.847 0.565 0.852 0.566 0.862 C 0.566 0.865 0.574 0.85 0.574 0.846 C 0.574 0.845 0.573 0.844 0.571 0.845 C 0.57 0.846 0.569 0.846 0.569 0.844 C 0.569 0.843 0.568 0.842 0.567 0.842 C 0.567 0.842 0.566 0.843 0.567 0.844 Z  M 0.31 0.849 C 0.31 0.851 0.31 0.853 0.311 0.853 C 0.312 0.853 0.313 0.851 0.313 0.849 C 0.314 0.847 0.314 0.848 0.314 0.851 C 0.314 0.854 0.313 0.855 0.311 0.855 C 0.308 0.855 0.307 0.85 0.309 0.846 C 0.311 0.843 0.311 0.844 0.31 0.849 Z  M 0.535 0.853 C 0.535 0.859 0.537 0.86 0.539 0.854 C 0.541 0.851 0.541 0.85 0.539 0.849 C 0.535 0.846 0.535 0.847 0.535 0.853 Z  M 0.306 0.875 C 0.305 0.876 0.304 0.878 0.303 0.878 C 0.301 0.878 0.3 0.876 0.3 0.875 C 0.3 0.873 0.302 0.872 0.304 0.872 C 0.305 0.872 0.306 0.873 0.306 0.875 Z  M 0.819 0.897 C 0.819 0.898 0.81 0.899 0.799 0.898 C 0.785 0.897 0.778 0.898 0.779 0.9 C 0.78 0.901 0.779 0.902 0.778 0.901 C 0.776 0.9 0.775 0.901 0.775 0.903 C 0.775 0.906 0.775 0.906 0.773 0.903 C 0.772 0.901 0.771 0.9 0.77 0.9 C 0.769 0.9 0.769 0.901 0.771 0.903 C 0.772 0.905 0.772 0.905 0.768 0.904 C 0.764 0.903 0.763 0.903 0.763 0.906 C 0.763 0.908 0.761 0.908 0.759 0.908 C 0.757 0.907 0.755 0.907 0.754 0.909 C 0.754 0.91 0.751 0.91 0.748 0.909 C 0.745 0.908 0.743 0.909 0.743 0.91 C 0.743 0.912 0.741 0.913 0.739 0.912 C 0.737 0.911 0.736 0.911 0.737 0.913 C 0.737 0.915 0.737 0.916 0.734 0.915 C 0.732 0.914 0.732 0.914 0.732 0.916 C 0.733 0.918 0.731 0.92 0.727 0.921 C 0.722 0.924 0.721 0.923 0.722 0.921 C 0.722 0.918 0.722 0.918 0.719 0.92 C 0.716 0.922 0.715 0.924 0.715 0.926 C 0.716 0.927 0.715 0.927 0.713 0.926 C 0.712 0.925 0.711 0.925 0.712 0.927 C 0.712 0.929 0.712 0.929 0.71 0.929 C 0.708 0.928 0.706 0.929 0.706 0.931 C 0.705 0.933 0.705 0.933 0.707 0.932 C 0.708 0.93 0.708 0.931 0.708 0.933 C 0.707 0.934 0.705 0.935 0.703 0.934 C 0.702 0.933 0.7 0.934 0.7 0.936 C 0.7 0.937 0.699 0.938 0.698 0.937 C 0.696 0.936 0.696 0.936 0.696 0.939 C 0.697 0.942 0.697 0.942 0.695 0.941 C 0.694 0.94 0.693 0.94 0.693 0.942 C 0.693 0.944 0.692 0.945 0.691 0.945 C 0.69 0.945 0.69 0.946 0.69 0.947 C 0.69 0.949 0.689 0.951 0.688 0.952 C 0.687 0.953 0.686 0.952 0.687 0.95 C 0.688 0.947 0.686 0.95 0.683 0.955 C 0.681 0.96 0.678 0.964 0.678 0.964 C 0.677 0.964 0.676 0.965 0.675 0.966 C 0.673 0.967 0.672 0.967 0.671 0.966 C 0.671 0.965 0.669 0.966 0.668 0.968 C 0.667 0.971 0.664 0.973 0.659 0.973 C 0.652 0.974 0.646 0.981 0.646 0.988 C 0.646 0.989 0.644 0.992 0.643 0.992 C 0.639 0.994 0.638 0.99 0.641 0.988 C 0.642 0.987 0.642 0.987 0.639 0.988 C 0.635 0.989 0.633 0.993 0.634 0.997 C 0.635 1.001 0.975 1.001 0.975 0.997 C 0.975 0.996 0.975 0.994 0.974 0.993 C 0.973 0.992 0.972 0.99 0.972 0.988 C 0.972 0.987 0.973 0.987 0.974 0.988 C 0.975 0.989 0.975 0.988 0.974 0.985 C 0.973 0.983 0.971 0.981 0.97 0.982 C 0.97 0.983 0.969 0.982 0.969 0.981 C 0.969 0.979 0.969 0.978 0.968 0.978 C 0.964 0.979 0.953 0.974 0.952 0.97 C 0.952 0.968 0.951 0.967 0.95 0.968 C 0.949 0.969 0.949 0.968 0.949 0.967 C 0.949 0.965 0.948 0.964 0.947 0.965 C 0.946 0.966 0.945 0.964 0.943 0.96 C 0.942 0.956 0.94 0.954 0.939 0.955 C 0.937 0.955 0.936 0.954 0.935 0.952 C 0.935 0.949 0.933 0.948 0.931 0.949 C 0.93 0.95 0.928 0.949 0.928 0.946 C 0.927 0.944 0.926 0.942 0.925 0.943 C 0.924 0.944 0.924 0.943 0.924 0.942 C 0.924 0.94 0.923 0.939 0.921 0.939 C 0.92 0.939 0.919 0.937 0.919 0.936 C 0.919 0.934 0.918 0.934 0.917 0.935 C 0.916 0.936 0.914 0.934 0.913 0.93 C 0.91 0.926 0.909 0.925 0.908 0.928 C 0.907 0.931 0.907 0.931 0.907 0.929 C 0.907 0.926 0.905 0.926 0.902 0.926 C 0.899 0.927 0.897 0.926 0.896 0.925 C 0.896 0.923 0.895 0.923 0.894 0.924 C 0.893 0.925 0.893 0.924 0.893 0.922 C 0.893 0.921 0.892 0.919 0.89 0.919 C 0.889 0.919 0.887 0.916 0.885 0.913 C 0.883 0.908 0.881 0.907 0.878 0.907 C 0.876 0.908 0.874 0.907 0.874 0.905 C 0.874 0.904 0.873 0.903 0.871 0.904 C 0.87 0.905 0.869 0.904 0.87 0.902 C 0.871 0.9 0.87 0.9 0.865 0.901 C 0.862 0.902 0.86 0.901 0.86 0.9 C 0.86 0.898 0.857 0.897 0.854 0.898 C 0.851 0.898 0.849 0.899 0.849 0.901 C 0.849 0.902 0.846 0.903 0.842 0.903 C 0.838 0.903 0.835 0.902 0.835 0.9 C 0.835 0.899 0.833 0.898 0.831 0.899 C 0.829 0.9 0.828 0.9 0.829 0.898 C 0.83 0.896 0.828 0.895 0.825 0.895 C 0.822 0.895 0.819 0.896 0.819 0.897 Z  M 0.361 0.913 C 0.362 0.915 0.362 0.917 0.36 0.921 C 0.357 0.926 0.356 0.926 0.355 0.921 C 0.354 0.918 0.352 0.914 0.35 0.912 C 0.349 0.909 0.348 0.906 0.348 0.905 C 0.349 0.903 0.358 0.908 0.361 0.913 Z  M 0.304 0.919 C 0.299 0.921 0.298 0.927 0.302 0.93 C 0.304 0.932 0.305 0.933 0.305 0.932 C 0.305 0.931 0.306 0.929 0.306 0.928 C 0.306 0.922 0.308 0.922 0.308 0.927 C 0.308 0.934 0.304 0.937 0.3 0.932 C 0.299 0.93 0.297 0.928 0.296 0.928 C 0.294 0.928 0.294 0.927 0.295 0.921 C 0.296 0.919 0.298 0.917 0.302 0.917 C 0.306 0.917 0.307 0.918 0.304 0.919 Z  M 0.302 0.941 C 0.302 0.943 0.302 0.946 0.303 0.949 C 0.304 0.953 0.303 0.952 0.301 0.948 C 0.298 0.943 0.297 0.942 0.294 0.944 C 0.29 0.948 0.288 0.948 0.292 0.943 C 0.295 0.939 0.302 0.937 0.302 0.941 Z  M 0.3 0.953 C 0.303 0.961 0.302 0.978 0.3 0.978 C 0.298 0.978 0.296 0.979 0.295 0.979 C 0.294 0.979 0.294 0.977 0.294 0.974 C 0.294 0.971 0.293 0.966 0.29 0.962 C 0.286 0.957 0.286 0.947 0.29 0.951 C 0.29 0.952 0.291 0.952 0.292 0.95 C 0.293 0.945 0.299 0.947 0.3 0.953 Z " fill-rule="evenodd" fill="rgb(0,0,0)"/></g></g></svg>