<?xml version="1.0" encoding="UTF-8" standalone="no"?><!-- Generator: Gravit.io --><svg xmlns="http://www.w3.org/2000/svg" xmlns:xlink="http://www.w3.org/1999/xlink" style="isolation:isolate" viewBox="0 0 1 1" width="1pt" height="1pt"><defs><clipPath id="_clipPath_V3VIxZkORXdC892oolV1xiQB9iHeVfhN"><rect width="1" height="1"/></clipPath></defs><g clip-path="url(#_clipPath_V3VIxZkORXdC892oolV1xiQB9iHeVfhN)"><g><path d=" M 0 0.004 C 0 0.006 0 0.231 0 0.503 L 0.001 0.999 L 0.186 0.999 C 0.354 1 0.371 1 0.374 0.995 C 0.377 0.991 0.384 0.991 0.389 0.996 C 0.392 0.997 0.392 0.996 0.393 0.988 C 0.394 0.976 0.393 0.972 0.384 0.962 C 0.375 0.952 0.377 0.936 0.387 0.936 C 0.394 0.936 0.4 0.928 0.398 0.919 C 0.396 0.915 0.396 0.911 0.397 0.908 C 0.398 0.904 0.398 0.902 0.394 0.9 C 0.389 0.895 0.387 0.895 0.384 0.894 C 0.382 0.893 0.38 0.892 0.38 0.891 C 0.379 0.89 0.377 0.888 0.375 0.888 C 0.373 0.888 0.372 0.887 0.374 0.882 C 0.375 0.878 0.376 0.878 0.377 0.881 C 0.378 0.883 0.378 0.884 0.378 0.882 C 0.378 0.88 0.379 0.881 0.38 0.883 C 0.381 0.887 0.382 0.887 0.385 0.884 C 0.386 0.882 0.387 0.882 0.387 0.883 C 0.386 0.885 0.388 0.886 0.391 0.886 C 0.395 0.886 0.397 0.888 0.397 0.89 C 0.397 0.892 0.397 0.892 0.398 0.89 C 0.399 0.889 0.401 0.886 0.404 0.884 C 0.406 0.882 0.408 0.879 0.407 0.878 C 0.407 0.876 0.407 0.875 0.408 0.874 C 0.409 0.873 0.41 0.873 0.41 0.875 C 0.41 0.88 0.412 0.878 0.415 0.87 C 0.416 0.865 0.417 0.861 0.416 0.861 C 0.416 0.861 0.416 0.86 0.417 0.858 C 0.418 0.856 0.418 0.853 0.417 0.849 C 0.416 0.845 0.416 0.844 0.419 0.846 C 0.422 0.847 0.425 0.833 0.424 0.825 C 0.424 0.823 0.425 0.823 0.426 0.824 C 0.427 0.825 0.428 0.829 0.428 0.833 C 0.429 0.84 0.431 0.853 0.432 0.849 C 0.432 0.844 0.433 0.842 0.433 0.839 C 0.433 0.837 0.434 0.837 0.435 0.837 C 0.436 0.837 0.437 0.836 0.437 0.834 C 0.438 0.831 0.437 0.831 0.436 0.832 C 0.435 0.834 0.434 0.833 0.435 0.831 C 0.436 0.829 0.439 0.828 0.443 0.829 C 0.447 0.829 0.451 0.829 0.452 0.828 C 0.453 0.826 0.455 0.827 0.456 0.828 C 0.457 0.83 0.459 0.83 0.461 0.829 C 0.463 0.828 0.466 0.827 0.466 0.827 C 0.467 0.828 0.47 0.826 0.472 0.824 C 0.477 0.819 0.485 0.818 0.485 0.822 C 0.485 0.824 0.482 0.826 0.48 0.827 C 0.477 0.828 0.474 0.831 0.474 0.834 C 0.473 0.838 0.469 0.843 0.465 0.843 C 0.465 0.843 0.464 0.845 0.463 0.847 C 0.462 0.849 0.461 0.85 0.46 0.849 C 0.455 0.843 0.441 0.849 0.443 0.856 C 0.444 0.857 0.443 0.858 0.442 0.858 C 0.441 0.858 0.44 0.857 0.44 0.855 C 0.439 0.849 0.434 0.851 0.433 0.858 C 0.433 0.866 0.436 0.871 0.439 0.866 C 0.44 0.864 0.44 0.866 0.44 0.874 C 0.439 0.881 0.439 0.885 0.441 0.886 C 0.443 0.889 0.443 0.889 0.441 0.891 C 0.438 0.895 0.437 0.918 0.439 0.926 C 0.441 0.932 0.442 0.942 0.443 0.969 C 0.443 0.979 0.444 0.99 0.444 0.994 L 0.444 1 L 0.722 0.999 L 1 0.999 L 1 0.5 L 1 0.002 L 0.74 0.002 C 0.51 0.001 0.467 0.002 0.469 0.005 C 0.47 0.006 0.475 0.008 0.484 0.011 C 0.49 0.013 0.493 0.016 0.491 0.019 C 0.49 0.02 0.489 0.019 0.489 0.018 C 0.489 0.016 0.488 0.015 0.487 0.015 C 0.484 0.015 0.484 0.015 0.487 0.019 C 0.491 0.024 0.492 0.024 0.494 0.015 C 0.496 0.005 0.499 0.004 0.5 0.012 C 0.5 0.017 0.501 0.017 0.502 0.014 C 0.503 0.011 0.503 0.011 0.503 0.014 C 0.503 0.017 0.504 0.017 0.506 0.015 C 0.508 0.011 0.512 0.014 0.51 0.018 C 0.51 0.02 0.51 0.02 0.512 0.018 C 0.517 0.011 0.517 0.011 0.514 0.013 C 0.511 0.015 0.51 0.015 0.513 0.011 C 0.518 0.005 0.519 0.007 0.517 0.021 C 0.516 0.037 0.515 0.037 0.52 0.035 C 0.523 0.034 0.526 0.033 0.527 0.033 C 0.528 0.033 0.53 0.032 0.53 0.03 C 0.531 0.028 0.531 0.028 0.532 0.031 C 0.532 0.032 0.533 0.033 0.534 0.032 C 0.535 0.031 0.536 0.03 0.536 0.029 C 0.535 0.028 0.537 0.027 0.539 0.027 C 0.541 0.027 0.546 0.026 0.549 0.025 C 0.552 0.024 0.553 0.024 0.552 0.026 C 0.55 0.027 0.551 0.028 0.555 0.028 C 0.557 0.028 0.56 0.027 0.56 0.025 C 0.56 0.024 0.561 0.024 0.562 0.025 C 0.563 0.025 0.565 0.025 0.565 0.023 C 0.566 0.022 0.568 0.02 0.569 0.02 C 0.571 0.02 0.572 0.019 0.572 0.018 C 0.571 0.016 0.573 0.016 0.576 0.016 L 0.581 0.016 L 0.578 0.025 C 0.576 0.033 0.575 0.036 0.577 0.04 C 0.578 0.043 0.578 0.045 0.576 0.048 C 0.575 0.05 0.576 0.051 0.578 0.051 C 0.58 0.051 0.582 0.052 0.582 0.054 C 0.583 0.055 0.584 0.056 0.585 0.055 C 0.585 0.054 0.586 0.055 0.587 0.058 C 0.587 0.06 0.587 0.063 0.585 0.064 C 0.584 0.064 0.583 0.067 0.583 0.069 C 0.583 0.073 0.584 0.073 0.586 0.069 C 0.589 0.063 0.59 0.064 0.587 0.07 C 0.586 0.073 0.583 0.076 0.58 0.076 C 0.577 0.077 0.574 0.083 0.57 0.097 C 0.568 0.103 0.566 0.101 0.562 0.088 C 0.559 0.081 0.557 0.076 0.557 0.076 C 0.556 0.076 0.554 0.077 0.551 0.078 C 0.546 0.081 0.546 0.08 0.544 0.072 C 0.541 0.056 0.533 0.056 0.528 0.073 C 0.526 0.079 0.524 0.084 0.523 0.084 C 0.522 0.084 0.52 0.086 0.519 0.088 C 0.514 0.104 0.507 0.114 0.5 0.113 C 0.49 0.112 0.489 0.111 0.489 0.101 C 0.489 0.091 0.483 0.088 0.481 0.097 C 0.48 0.102 0.478 0.102 0.475 0.096 C 0.473 0.093 0.472 0.092 0.47 0.095 C 0.468 0.098 0.467 0.098 0.465 0.095 C 0.463 0.093 0.461 0.091 0.459 0.092 C 0.458 0.092 0.455 0.092 0.454 0.09 C 0.452 0.086 0.446 0.084 0.445 0.087 C 0.443 0.091 0.433 0.093 0.431 0.089 C 0.43 0.086 0.43 0.087 0.429 0.092 C 0.428 0.099 0.419 0.103 0.415 0.098 C 0.414 0.096 0.411 0.095 0.409 0.096 C 0.408 0.097 0.405 0.097 0.403 0.095 C 0.402 0.094 0.398 0.091 0.395 0.087 C 0.387 0.081 0.385 0.084 0.386 0.097 C 0.386 0.103 0.385 0.106 0.383 0.109 C 0.382 0.111 0.381 0.112 0.382 0.111 C 0.383 0.107 0.378 0.101 0.376 0.103 C 0.374 0.103 0.374 0.107 0.374 0.111 C 0.374 0.118 0.369 0.123 0.367 0.117 C 0.366 0.115 0.366 0.115 0.365 0.117 C 0.364 0.119 0.362 0.12 0.359 0.12 C 0.357 0.12 0.353 0.123 0.352 0.126 C 0.35 0.129 0.347 0.131 0.345 0.131 C 0.342 0.131 0.336 0.141 0.336 0.146 C 0.336 0.147 0.335 0.148 0.334 0.148 C 0.332 0.148 0.33 0.149 0.328 0.151 C 0.326 0.154 0.325 0.153 0.321 0.15 C 0.318 0.146 0.317 0.146 0.317 0.149 C 0.317 0.152 0.316 0.153 0.313 0.153 C 0.31 0.153 0.308 0.155 0.308 0.156 C 0.308 0.158 0.306 0.159 0.304 0.159 C 0.302 0.159 0.3 0.161 0.3 0.163 C 0.298 0.168 0.285 0.168 0.28 0.163 C 0.278 0.161 0.276 0.16 0.276 0.161 C 0.274 0.166 0.267 0.167 0.265 0.163 C 0.264 0.161 0.263 0.159 0.262 0.159 C 0.26 0.159 0.259 0.156 0.259 0.151 C 0.259 0.143 0.26 0.142 0.263 0.144 C 0.266 0.145 0.267 0.145 0.267 0.14 C 0.267 0.135 0.271 0.13 0.275 0.13 C 0.276 0.13 0.278 0.125 0.28 0.118 C 0.281 0.112 0.285 0.101 0.288 0.094 C 0.291 0.087 0.294 0.08 0.294 0.078 C 0.294 0.076 0.295 0.072 0.297 0.069 C 0.299 0.065 0.3 0.063 0.298 0.055 C 0.295 0.046 0.297 0.037 0.302 0.026 C 0.306 0.018 0.309 0.008 0.309 0.004 C 0.309 -0.001 0.001 0 0 0.004 Z  M 0.316 0.004 C 0.316 0.005 0.317 0.006 0.318 0.006 C 0.319 0.006 0.32 0.01 0.32 0.016 C 0.32 0.029 0.322 0.033 0.326 0.029 C 0.33 0.026 0.33 0.019 0.327 0.004 C 0.327 0 0.316 -0.001 0.316 0.004 Z  M 0.333 0.002 C 0.333 0.003 0.334 0.007 0.335 0.01 C 0.338 0.02 0.343 0.024 0.342 0.015 C 0.34 0.007 0.345 0.006 0.35 0.014 C 0.352 0.018 0.354 0.02 0.354 0.018 C 0.355 0.016 0.356 0.015 0.358 0.015 C 0.361 0.015 0.362 0.014 0.359 0.006 C 0.358 0.001 0.333 -0.003 0.333 0.002 Z  M 0.522 0.018 C 0.52 0.023 0.519 0.023 0.519 0.019 C 0.519 0.017 0.52 0.015 0.521 0.015 C 0.522 0.015 0.522 0.013 0.521 0.01 C 0.521 0.006 0.521 0.006 0.522 0.008 C 0.524 0.011 0.523 0.013 0.522 0.018 Z  M 0.506 0.019 C 0.505 0.025 0.505 0.029 0.506 0.029 C 0.507 0.029 0.507 0.025 0.508 0.022 C 0.508 0.014 0.507 0.013 0.506 0.019 Z  M 0.58 0.028 C 0.579 0.031 0.579 0.034 0.58 0.035 C 0.58 0.036 0.58 0.037 0.579 0.037 C 0.578 0.037 0.577 0.036 0.577 0.035 C 0.577 0.033 0.58 0.023 0.581 0.023 C 0.581 0.023 0.581 0.025 0.58 0.028 Z  M 0.527 0.028 C 0.528 0.029 0.527 0.03 0.525 0.031 C 0.524 0.031 0.522 0.03 0.522 0.028 C 0.522 0.025 0.526 0.025 0.527 0.028 Z  M 0.429 0.061 C 0.429 0.063 0.429 0.066 0.429 0.067 C 0.43 0.069 0.435 0.062 0.435 0.059 C 0.435 0.054 0.43 0.056 0.429 0.061 Z  M 0.379 0.136 C 0.381 0.138 0.38 0.14 0.376 0.144 C 0.373 0.147 0.37 0.151 0.37 0.154 C 0.369 0.159 0.36 0.171 0.359 0.168 C 0.358 0.166 0.366 0.151 0.374 0.138 C 0.376 0.134 0.377 0.133 0.379 0.136 Z  M 0.586 0.139 C 0.585 0.14 0.585 0.142 0.586 0.144 C 0.587 0.146 0.587 0.147 0.585 0.147 C 0.584 0.147 0.583 0.146 0.584 0.146 C 0.584 0.145 0.584 0.143 0.583 0.141 C 0.582 0.138 0.582 0.137 0.584 0.137 C 0.586 0.137 0.586 0.138 0.586 0.139 Z  M 0.603 0.147 C 0.603 0.151 0.601 0.152 0.6 0.148 C 0.599 0.146 0.598 0.146 0.597 0.147 C 0.596 0.148 0.595 0.144 0.597 0.142 C 0.598 0.139 0.603 0.143 0.603 0.147 Z  M 0.175 0.178 C 0.176 0.188 0.178 0.197 0.18 0.2 C 0.181 0.203 0.183 0.207 0.183 0.208 C 0.183 0.21 0.175 0.199 0.175 0.196 C 0.175 0.195 0.174 0.192 0.172 0.19 C 0.169 0.187 0.166 0.168 0.169 0.163 C 0.172 0.156 0.174 0.161 0.175 0.178 Z  M 0.322 0.169 C 0.323 0.171 0.325 0.173 0.326 0.173 C 0.328 0.173 0.33 0.174 0.331 0.176 C 0.335 0.18 0.328 0.19 0.322 0.19 C 0.32 0.19 0.317 0.191 0.316 0.192 C 0.312 0.199 0.308 0.198 0.308 0.191 C 0.308 0.171 0.317 0.157 0.322 0.169 Z  M 0.197 0.179 C 0.197 0.182 0.196 0.184 0.195 0.184 C 0.192 0.184 0.19 0.179 0.191 0.175 C 0.193 0.171 0.196 0.174 0.197 0.179 Z  M 0.24 0.192 C 0.239 0.192 0.238 0.194 0.238 0.195 C 0.239 0.196 0.24 0.197 0.241 0.196 C 0.242 0.195 0.244 0.197 0.244 0.201 C 0.245 0.209 0.245 0.21 0.241 0.207 C 0.24 0.205 0.239 0.204 0.24 0.203 C 0.241 0.203 0.24 0.202 0.238 0.2 C 0.235 0.195 0.238 0.185 0.241 0.189 C 0.242 0.19 0.242 0.191 0.24 0.192 Z  M 0.28 0.194 C 0.283 0.195 0.287 0.197 0.289 0.201 C 0.291 0.204 0.293 0.206 0.294 0.206 C 0.299 0.206 0.29 0.215 0.284 0.216 C 0.281 0.217 0.277 0.218 0.276 0.22 C 0.275 0.222 0.273 0.222 0.271 0.221 C 0.27 0.22 0.269 0.221 0.269 0.222 C 0.269 0.225 0.261 0.232 0.256 0.234 C 0.253 0.236 0.252 0.221 0.255 0.211 C 0.256 0.204 0.257 0.204 0.258 0.207 C 0.26 0.213 0.262 0.213 0.262 0.208 C 0.262 0.205 0.263 0.203 0.264 0.203 C 0.265 0.203 0.266 0.201 0.266 0.198 C 0.268 0.191 0.27 0.19 0.27 0.196 C 0.27 0.199 0.271 0.201 0.272 0.201 C 0.273 0.201 0.273 0.198 0.273 0.194 C 0.272 0.191 0.272 0.189 0.273 0.191 C 0.274 0.192 0.277 0.194 0.28 0.194 Z  M 0.247 0.221 C 0.247 0.223 0.248 0.226 0.25 0.227 C 0.253 0.228 0.253 0.23 0.251 0.235 C 0.25 0.238 0.25 0.241 0.25 0.242 C 0.251 0.245 0.249 0.247 0.247 0.246 C 0.245 0.246 0.244 0.246 0.244 0.248 C 0.244 0.251 0.233 0.251 0.232 0.248 C 0.232 0.247 0.232 0.245 0.234 0.244 C 0.235 0.243 0.236 0.241 0.236 0.238 C 0.236 0.236 0.237 0.235 0.239 0.236 C 0.241 0.237 0.242 0.239 0.242 0.24 C 0.242 0.242 0.243 0.243 0.243 0.242 C 0.244 0.239 0.242 0.231 0.24 0.233 C 0.238 0.235 0.239 0.23 0.241 0.223 C 0.244 0.216 0.247 0.215 0.247 0.221 Z  M 0.229 0.25 C 0.231 0.257 0.224 0.273 0.218 0.273 C 0.216 0.273 0.216 0.264 0.217 0.263 C 0.218 0.262 0.219 0.262 0.218 0.264 C 0.217 0.266 0.217 0.267 0.218 0.267 C 0.218 0.267 0.22 0.263 0.222 0.258 C 0.225 0.248 0.227 0.246 0.229 0.25 Z  M 0.201 0.266 C 0.202 0.266 0.204 0.264 0.206 0.262 C 0.209 0.259 0.212 0.264 0.212 0.272 C 0.212 0.276 0.199 0.29 0.187 0.298 C 0.17 0.31 0.162 0.318 0.158 0.326 C 0.155 0.333 0.154 0.334 0.153 0.33 C 0.151 0.324 0.148 0.324 0.148 0.331 C 0.148 0.334 0.147 0.338 0.146 0.338 C 0.145 0.339 0.144 0.342 0.144 0.344 C 0.145 0.346 0.144 0.351 0.143 0.354 C 0.142 0.357 0.14 0.362 0.14 0.365 C 0.14 0.367 0.139 0.371 0.137 0.374 C 0.134 0.379 0.134 0.379 0.134 0.369 C 0.134 0.364 0.135 0.358 0.136 0.357 C 0.137 0.356 0.137 0.353 0.137 0.349 C 0.137 0.345 0.138 0.342 0.139 0.342 C 0.14 0.342 0.14 0.341 0.14 0.339 C 0.139 0.338 0.139 0.337 0.14 0.337 C 0.141 0.337 0.143 0.33 0.144 0.323 C 0.146 0.307 0.151 0.297 0.15 0.31 C 0.149 0.314 0.15 0.317 0.15 0.317 C 0.154 0.317 0.155 0.317 0.155 0.314 C 0.155 0.31 0.166 0.289 0.169 0.289 C 0.169 0.289 0.172 0.287 0.173 0.284 C 0.175 0.281 0.177 0.279 0.179 0.28 C 0.181 0.281 0.181 0.281 0.181 0.279 C 0.18 0.277 0.18 0.275 0.181 0.274 C 0.183 0.272 0.183 0.276 0.183 0.285 C 0.182 0.29 0.183 0.29 0.185 0.286 C 0.187 0.283 0.187 0.279 0.187 0.277 C 0.186 0.272 0.189 0.271 0.192 0.276 C 0.194 0.279 0.194 0.278 0.193 0.27 C 0.192 0.257 0.195 0.25 0.198 0.26 C 0.198 0.263 0.2 0.266 0.201 0.266 Z  M 0.15 0.343 C 0.149 0.346 0.147 0.347 0.146 0.346 C 0.145 0.345 0.146 0.343 0.148 0.34 C 0.151 0.336 0.153 0.338 0.15 0.343 Z  M 0.796 0.35 C 0.795 0.358 0.792 0.361 0.787 0.358 C 0.785 0.356 0.785 0.355 0.788 0.348 C 0.792 0.338 0.796 0.339 0.796 0.35 Z  M 0.808 0.381 C 0.811 0.384 0.809 0.39 0.806 0.388 C 0.803 0.386 0.802 0.378 0.804 0.378 C 0.805 0.378 0.807 0.379 0.808 0.381 Z  M 0.781 0.39 C 0.781 0.394 0.781 0.398 0.78 0.398 C 0.779 0.398 0.779 0.4 0.78 0.404 C 0.783 0.42 0.78 0.429 0.772 0.436 C 0.769 0.438 0.768 0.44 0.769 0.442 C 0.77 0.444 0.772 0.444 0.774 0.442 C 0.776 0.441 0.777 0.44 0.777 0.441 C 0.777 0.443 0.778 0.442 0.779 0.439 C 0.78 0.437 0.78 0.436 0.78 0.439 C 0.78 0.441 0.781 0.442 0.782 0.442 C 0.783 0.442 0.783 0.441 0.782 0.439 C 0.782 0.437 0.782 0.436 0.783 0.438 C 0.785 0.44 0.785 0.448 0.782 0.454 C 0.78 0.458 0.78 0.459 0.782 0.459 C 0.784 0.459 0.785 0.457 0.784 0.456 C 0.782 0.451 0.796 0.454 0.799 0.459 C 0.802 0.464 0.803 0.471 0.801 0.469 C 0.8 0.468 0.798 0.469 0.797 0.472 C 0.796 0.475 0.796 0.476 0.797 0.474 C 0.8 0.471 0.799 0.474 0.796 0.48 C 0.794 0.484 0.794 0.485 0.798 0.491 C 0.804 0.503 0.819 0.497 0.818 0.483 C 0.818 0.48 0.826 0.473 0.832 0.472 C 0.834 0.471 0.84 0.468 0.844 0.466 C 0.856 0.46 0.862 0.459 0.862 0.462 C 0.862 0.463 0.86 0.465 0.859 0.466 C 0.857 0.467 0.855 0.47 0.853 0.473 C 0.851 0.476 0.849 0.478 0.849 0.478 C 0.848 0.478 0.846 0.481 0.844 0.484 C 0.841 0.489 0.845 0.495 0.849 0.491 C 0.85 0.49 0.851 0.49 0.85 0.492 C 0.85 0.494 0.851 0.496 0.851 0.496 C 0.852 0.496 0.854 0.497 0.855 0.499 C 0.857 0.501 0.857 0.5 0.856 0.497 C 0.855 0.494 0.855 0.494 0.857 0.497 C 0.858 0.498 0.861 0.501 0.864 0.502 C 0.867 0.503 0.87 0.506 0.871 0.509 C 0.872 0.512 0.874 0.513 0.875 0.512 C 0.876 0.51 0.878 0.511 0.88 0.512 C 0.885 0.515 0.882 0.519 0.875 0.519 C 0.872 0.518 0.869 0.519 0.868 0.521 C 0.867 0.523 0.858 0.524 0.846 0.524 C 0.83 0.524 0.825 0.525 0.824 0.528 C 0.822 0.533 0.818 0.53 0.818 0.524 C 0.818 0.522 0.817 0.52 0.816 0.52 C 0.815 0.52 0.815 0.521 0.815 0.522 C 0.815 0.524 0.812 0.526 0.809 0.527 C 0.806 0.528 0.804 0.53 0.803 0.534 C 0.802 0.539 0.801 0.54 0.796 0.539 C 0.786 0.536 0.783 0.538 0.784 0.547 C 0.785 0.556 0.782 0.564 0.779 0.564 C 0.777 0.564 0.775 0.565 0.775 0.567 C 0.773 0.571 0.766 0.572 0.764 0.568 C 0.762 0.563 0.761 0.563 0.755 0.572 C 0.748 0.585 0.74 0.58 0.745 0.565 C 0.746 0.561 0.748 0.553 0.749 0.548 C 0.751 0.544 0.753 0.538 0.755 0.537 C 0.757 0.534 0.758 0.532 0.758 0.527 C 0.757 0.52 0.759 0.514 0.765 0.509 C 0.768 0.506 0.766 0.506 0.746 0.509 C 0.745 0.509 0.741 0.509 0.739 0.507 C 0.736 0.506 0.735 0.506 0.736 0.508 C 0.736 0.51 0.736 0.511 0.734 0.51 C 0.731 0.508 0.73 0.513 0.732 0.52 C 0.732 0.524 0.733 0.525 0.733 0.523 C 0.733 0.518 0.736 0.519 0.736 0.524 C 0.736 0.53 0.731 0.532 0.725 0.526 C 0.722 0.524 0.719 0.522 0.717 0.522 C 0.714 0.523 0.714 0.522 0.718 0.516 C 0.72 0.513 0.722 0.51 0.723 0.511 C 0.723 0.511 0.724 0.51 0.724 0.507 C 0.725 0.505 0.724 0.503 0.723 0.502 C 0.722 0.501 0.723 0.501 0.724 0.501 C 0.726 0.5 0.727 0.498 0.727 0.495 C 0.727 0.491 0.73 0.487 0.734 0.482 C 0.747 0.469 0.749 0.461 0.754 0.416 C 0.756 0.39 0.761 0.381 0.773 0.382 C 0.782 0.382 0.782 0.382 0.781 0.39 Z  M 0.129 0.392 C 0.133 0.392 0.133 0.392 0.132 0.412 C 0.131 0.431 0.135 0.462 0.139 0.466 C 0.14 0.467 0.145 0.485 0.145 0.488 C 0.145 0.489 0.145 0.489 0.144 0.488 C 0.143 0.487 0.142 0.488 0.141 0.491 C 0.141 0.493 0.14 0.495 0.139 0.495 C 0.137 0.495 0.137 0.494 0.139 0.492 C 0.141 0.49 0.141 0.489 0.138 0.489 C 0.137 0.489 0.135 0.487 0.135 0.484 C 0.134 0.477 0.127 0.474 0.124 0.478 C 0.119 0.486 0.108 0.463 0.108 0.446 C 0.108 0.442 0.106 0.437 0.103 0.433 C 0.1 0.428 0.099 0.425 0.1 0.422 C 0.101 0.419 0.101 0.417 0.099 0.416 C 0.095 0.413 0.096 0.409 0.102 0.406 C 0.105 0.404 0.108 0.401 0.109 0.399 C 0.111 0.393 0.119 0.387 0.122 0.39 C 0.123 0.391 0.126 0.392 0.129 0.392 Z  M 0.803 0.403 C 0.802 0.405 0.801 0.406 0.8 0.406 C 0.798 0.406 0.798 0.405 0.799 0.402 C 0.801 0.398 0.804 0.399 0.803 0.403 Z  M 0.073 0.423 C 0.073 0.425 0.075 0.425 0.077 0.425 C 0.081 0.423 0.081 0.441 0.077 0.451 C 0.076 0.455 0.075 0.459 0.076 0.463 C 0.078 0.472 0.076 0.48 0.072 0.482 C 0.07 0.483 0.069 0.486 0.069 0.489 C 0.069 0.497 0.064 0.511 0.061 0.512 C 0.058 0.514 0.058 0.515 0.058 0.52 C 0.059 0.525 0.059 0.526 0.056 0.523 C 0.054 0.521 0.053 0.518 0.053 0.516 C 0.053 0.509 0.051 0.511 0.043 0.525 C 0.039 0.534 0.036 0.538 0.035 0.536 C 0.034 0.534 0.035 0.532 0.036 0.531 C 0.037 0.529 0.037 0.528 0.037 0.526 C 0.036 0.525 0.036 0.523 0.037 0.521 C 0.039 0.517 0.041 0.497 0.041 0.475 C 0.041 0.457 0.044 0.444 0.046 0.453 C 0.047 0.454 0.048 0.455 0.048 0.454 C 0.049 0.454 0.05 0.454 0.05 0.456 C 0.05 0.458 0.05 0.458 0.051 0.457 C 0.052 0.457 0.053 0.457 0.054 0.459 C 0.054 0.461 0.055 0.46 0.057 0.457 C 0.058 0.454 0.059 0.451 0.058 0.45 C 0.058 0.448 0.058 0.446 0.059 0.444 C 0.06 0.442 0.061 0.436 0.062 0.432 C 0.063 0.42 0.07 0.414 0.073 0.423 Z  M 0.78 0.492 C 0.774 0.498 0.773 0.5 0.777 0.499 C 0.779 0.497 0.788 0.486 0.786 0.487 C 0.786 0.487 0.783 0.489 0.78 0.492 Z  M 0.745 0.515 C 0.746 0.515 0.748 0.515 0.748 0.517 C 0.749 0.519 0.748 0.519 0.747 0.518 C 0.745 0.517 0.744 0.518 0.744 0.52 C 0.744 0.521 0.743 0.523 0.741 0.523 C 0.739 0.523 0.738 0.521 0.738 0.52 C 0.738 0.518 0.739 0.518 0.74 0.519 C 0.742 0.52 0.743 0.519 0.742 0.517 C 0.742 0.515 0.742 0.514 0.742 0.515 C 0.743 0.516 0.744 0.516 0.745 0.515 Z  M 0.727 0.537 C 0.729 0.539 0.729 0.54 0.727 0.538 C 0.723 0.536 0.723 0.54 0.728 0.547 C 0.731 0.552 0.731 0.556 0.731 0.561 C 0.729 0.575 0.735 0.587 0.741 0.585 C 0.745 0.582 0.745 0.589 0.741 0.597 L 0.737 0.603 L 0.732 0.59 C 0.729 0.583 0.726 0.576 0.727 0.574 C 0.727 0.569 0.724 0.566 0.722 0.57 C 0.72 0.576 0.721 0.584 0.723 0.584 C 0.724 0.584 0.726 0.585 0.726 0.587 C 0.726 0.589 0.726 0.593 0.726 0.595 C 0.727 0.6 0.721 0.604 0.717 0.602 C 0.713 0.599 0.712 0.605 0.71 0.633 C 0.709 0.635 0.708 0.635 0.705 0.635 C 0.703 0.634 0.701 0.635 0.7 0.637 C 0.692 0.657 0.688 0.632 0.696 0.607 C 0.697 0.601 0.699 0.594 0.699 0.591 C 0.699 0.589 0.7 0.585 0.702 0.584 C 0.704 0.582 0.705 0.58 0.705 0.579 C 0.704 0.578 0.706 0.574 0.708 0.57 C 0.713 0.563 0.714 0.556 0.713 0.545 C 0.713 0.541 0.717 0.537 0.724 0.534 C 0.724 0.534 0.726 0.535 0.727 0.537 Z  M 0.736 0.57 C 0.737 0.576 0.736 0.576 0.734 0.573 C 0.731 0.568 0.731 0.56 0.734 0.562 C 0.735 0.563 0.736 0.566 0.736 0.57 Z  M 0.277 0.617 C 0.28 0.619 0.282 0.622 0.282 0.625 C 0.283 0.628 0.285 0.631 0.286 0.631 C 0.288 0.631 0.289 0.632 0.289 0.634 C 0.289 0.635 0.285 0.636 0.28 0.636 C 0.272 0.636 0.272 0.636 0.273 0.629 C 0.273 0.626 0.273 0.623 0.273 0.623 C 0.272 0.623 0.27 0.626 0.268 0.629 C 0.267 0.633 0.264 0.636 0.262 0.636 C 0.258 0.636 0.259 0.635 0.264 0.624 C 0.268 0.614 0.271 0.612 0.277 0.617 Z  M 0.33 0.703 C 0.33 0.705 0.33 0.707 0.33 0.708 C 0.33 0.71 0.331 0.712 0.332 0.713 C 0.333 0.716 0.333 0.725 0.331 0.725 C 0.329 0.725 0.327 0.713 0.327 0.706 C 0.327 0.7 0.33 0.698 0.33 0.703 Z  M 0.239 0.714 C 0.235 0.72 0.234 0.721 0.235 0.716 C 0.235 0.712 0.238 0.709 0.24 0.709 C 0.241 0.709 0.241 0.711 0.239 0.714 Z  M 0.335 0.761 C 0.334 0.763 0.333 0.766 0.332 0.766 C 0.329 0.768 0.329 0.757 0.331 0.754 C 0.332 0.753 0.333 0.751 0.332 0.75 C 0.331 0.748 0.332 0.745 0.332 0.742 C 0.333 0.739 0.334 0.74 0.335 0.747 C 0.336 0.753 0.336 0.758 0.335 0.761 Z  M 0.359 0.748 C 0.36 0.748 0.362 0.75 0.364 0.755 C 0.368 0.763 0.368 0.769 0.365 0.764 C 0.364 0.763 0.361 0.759 0.359 0.756 C 0.357 0.752 0.355 0.748 0.355 0.747 C 0.355 0.744 0.355 0.744 0.356 0.747 C 0.356 0.748 0.357 0.749 0.359 0.748 Z  M 0.38 0.783 C 0.38 0.785 0.379 0.786 0.379 0.786 C 0.377 0.786 0.37 0.774 0.37 0.77 C 0.37 0.765 0.38 0.778 0.38 0.783 Z  M 0.385 0.795 C 0.384 0.799 0.381 0.795 0.381 0.79 C 0.381 0.787 0.382 0.787 0.384 0.79 C 0.385 0.792 0.385 0.794 0.385 0.795 Z  M 0.415 0.815 C 0.418 0.82 0.418 0.822 0.414 0.82 C 0.413 0.82 0.411 0.817 0.411 0.815 C 0.411 0.81 0.413 0.81 0.415 0.815 Z  M 0.321 0.845 C 0.322 0.846 0.321 0.847 0.32 0.846 C 0.318 0.845 0.317 0.845 0.317 0.847 C 0.317 0.848 0.313 0.85 0.308 0.85 C 0.303 0.85 0.298 0.849 0.298 0.848 C 0.298 0.843 0.319 0.839 0.321 0.845 Z  M 0.289 0.853 C 0.289 0.856 0.283 0.858 0.28 0.856 C 0.279 0.855 0.279 0.854 0.282 0.852 C 0.285 0.848 0.289 0.849 0.289 0.853 Z  M 0.394 0.857 C 0.394 0.859 0.394 0.863 0.393 0.866 C 0.392 0.871 0.393 0.872 0.394 0.871 C 0.395 0.87 0.395 0.871 0.395 0.875 C 0.395 0.886 0.388 0.885 0.386 0.873 C 0.384 0.865 0.385 0.855 0.388 0.857 C 0.388 0.858 0.389 0.857 0.39 0.856 C 0.391 0.852 0.395 0.854 0.394 0.857 Z  M 0.405 0.863 C 0.405 0.866 0.4 0.875 0.399 0.875 C 0.398 0.875 0.398 0.873 0.398 0.871 C 0.398 0.869 0.398 0.868 0.399 0.869 C 0.4 0.87 0.4 0.869 0.4 0.866 C 0.399 0.864 0.4 0.862 0.402 0.862 C 0.404 0.862 0.405 0.862 0.405 0.863 Z  M 0.418 0.868 C 0.418 0.872 0.42 0.88 0.421 0.878 C 0.421 0.877 0.422 0.874 0.422 0.871 C 0.423 0.865 0.42 0.862 0.418 0.868 Z  M 0.447 0.875 C 0.447 0.878 0.445 0.881 0.444 0.879 C 0.442 0.877 0.443 0.872 0.446 0.872 C 0.446 0.872 0.447 0.873 0.447 0.875 Z  M 0.405 0.966 C 0.403 0.968 0.403 0.969 0.405 0.971 C 0.407 0.973 0.409 0.971 0.408 0.967 C 0.407 0.965 0.406 0.965 0.405 0.966 Z  M 0.401 0.982 C 0.401 0.983 0.401 0.986 0.401 0.988 C 0.402 0.99 0.401 0.992 0.4 0.992 C 0.399 0.992 0.399 0.994 0.399 0.996 C 0.399 0.999 0.4 1 0.404 1 C 0.409 1 0.415 0.995 0.412 0.993 C 0.411 0.992 0.41 0.989 0.411 0.985 C 0.411 0.98 0.411 0.98 0.41 0.983 C 0.408 0.985 0.407 0.985 0.405 0.983 C 0.403 0.982 0.402 0.981 0.401 0.982 Z " fill-rule="evenodd" fill="rgb(0,0,0)"/></g></g></svg>