<?xml version="1.0" encoding="UTF-8" standalone="no"?><!-- Generator: Gravit.io --><svg xmlns="http://www.w3.org/2000/svg" xmlns:xlink="http://www.w3.org/1999/xlink" style="isolation:isolate" viewBox="0 0 1 1" width="1pt" height="1pt"><defs><clipPath id="_clipPath_vgfLDWJWT2P7Tm1fNCcy2zNimZof0E1R"><rect width="1" height="1"/></clipPath></defs><g clip-path="url(#_clipPath_vgfLDWJWT2P7Tm1fNCcy2zNimZof0E1R)"><g><path d=" M 0 0.003 C 0 0.005 0 0.23 0 0.503 L 0.001 0.999 L 0.186 0.999 C 0.348 1 0.371 1 0.374 0.996 C 0.378 0.991 0.383 0.991 0.387 0.996 C 0.39 1.001 0.4 1.001 0.406 0.997 C 0.411 0.994 0.411 0.983 0.406 0.979 C 0.401 0.975 0.4 0.969 0.405 0.972 C 0.408 0.974 0.41 0.974 0.41 0.972 C 0.41 0.971 0.41 0.97 0.411 0.971 C 0.412 0.972 0.414 0.971 0.415 0.97 C 0.417 0.968 0.416 0.967 0.411 0.966 C 0.407 0.965 0.405 0.963 0.406 0.961 C 0.406 0.959 0.406 0.958 0.404 0.959 C 0.402 0.96 0.401 0.962 0.401 0.964 C 0.402 0.966 0.401 0.967 0.399 0.966 C 0.398 0.965 0.396 0.964 0.395 0.964 C 0.394 0.964 0.394 0.963 0.395 0.961 C 0.395 0.96 0.395 0.958 0.394 0.958 C 0.393 0.958 0.392 0.96 0.392 0.961 C 0.392 0.967 0.381 0.956 0.38 0.949 C 0.38 0.939 0.384 0.933 0.389 0.936 C 0.392 0.938 0.393 0.938 0.394 0.936 C 0.395 0.935 0.399 0.933 0.402 0.933 C 0.406 0.933 0.407 0.932 0.406 0.931 C 0.4 0.929 0.399 0.916 0.404 0.909 L 0.409 0.903 L 0.405 0.898 C 0.401 0.892 0.404 0.883 0.41 0.883 C 0.411 0.883 0.413 0.881 0.414 0.878 C 0.415 0.875 0.417 0.872 0.417 0.872 C 0.418 0.872 0.419 0.874 0.418 0.875 C 0.418 0.877 0.418 0.88 0.419 0.882 C 0.42 0.888 0.422 0.885 0.424 0.872 C 0.425 0.864 0.422 0.86 0.42 0.867 C 0.418 0.871 0.416 0.87 0.416 0.866 C 0.417 0.864 0.418 0.86 0.419 0.857 C 0.42 0.854 0.421 0.852 0.421 0.851 C 0.42 0.849 0.426 0.831 0.427 0.831 C 0.428 0.831 0.428 0.831 0.428 0.832 C 0.427 0.833 0.428 0.838 0.429 0.842 C 0.43 0.849 0.43 0.851 0.428 0.853 C 0.426 0.855 0.427 0.856 0.429 0.856 C 0.431 0.856 0.431 0.853 0.431 0.849 C 0.431 0.845 0.432 0.841 0.434 0.84 C 0.435 0.839 0.436 0.837 0.436 0.835 C 0.436 0.833 0.438 0.831 0.441 0.831 C 0.444 0.831 0.449 0.83 0.452 0.829 C 0.455 0.828 0.457 0.829 0.458 0.833 C 0.46 0.841 0.459 0.846 0.456 0.846 C 0.454 0.846 0.45 0.848 0.447 0.851 C 0.444 0.854 0.442 0.855 0.44 0.853 C 0.434 0.848 0.433 0.853 0.435 0.878 C 0.436 0.884 0.435 0.889 0.434 0.892 C 0.432 0.895 0.431 0.9 0.432 0.903 C 0.432 0.907 0.433 0.91 0.433 0.911 C 0.432 0.912 0.433 0.916 0.435 0.92 C 0.437 0.925 0.437 0.934 0.437 0.961 C 0.437 0.98 0.438 0.996 0.439 0.998 C 0.44 0.999 0.552 1 0.72 0.999 L 1 0.999 L 1 0.5 L 1 0.001 L 0.733 0.001 C 0.582 0.001 0.463 0.001 0.46 0.003 C 0.454 0.005 0.454 0.005 0.459 0.005 C 0.466 0.005 0.468 0.005 0.467 0.007 C 0.466 0.008 0.467 0.011 0.469 0.013 C 0.472 0.017 0.474 0.018 0.473 0.014 C 0.472 0.012 0.473 0.011 0.474 0.011 C 0.475 0.011 0.477 0.013 0.477 0.016 C 0.478 0.019 0.479 0.02 0.48 0.018 C 0.481 0.014 0.485 0.013 0.487 0.017 C 0.488 0.019 0.49 0.019 0.492 0.018 C 0.494 0.017 0.494 0.017 0.493 0.02 C 0.491 0.023 0.492 0.025 0.495 0.027 C 0.497 0.029 0.499 0.032 0.499 0.033 C 0.499 0.036 0.504 0.038 0.514 0.04 C 0.518 0.041 0.52 0.04 0.52 0.039 C 0.518 0.035 0.525 0.034 0.528 0.038 C 0.529 0.041 0.531 0.042 0.532 0.039 C 0.533 0.038 0.536 0.037 0.538 0.038 C 0.541 0.039 0.543 0.038 0.544 0.036 C 0.545 0.033 0.546 0.033 0.546 0.035 C 0.546 0.038 0.548 0.039 0.551 0.039 C 0.557 0.038 0.557 0.038 0.553 0.036 C 0.55 0.034 0.55 0.034 0.554 0.034 C 0.558 0.035 0.559 0.036 0.56 0.044 C 0.561 0.057 0.563 0.058 0.562 0.045 C 0.561 0.036 0.561 0.033 0.563 0.033 C 0.564 0.033 0.564 0.034 0.564 0.035 C 0.563 0.036 0.564 0.038 0.564 0.04 C 0.565 0.042 0.565 0.047 0.564 0.053 C 0.562 0.068 0.562 0.07 0.568 0.069 C 0.575 0.068 0.577 0.071 0.573 0.078 C 0.571 0.081 0.571 0.083 0.571 0.083 C 0.572 0.083 0.572 0.086 0.571 0.089 C 0.568 0.096 0.567 0.096 0.564 0.085 C 0.561 0.076 0.56 0.075 0.56 0.069 C 0.56 0.068 0.558 0.068 0.556 0.07 C 0.55 0.076 0.548 0.075 0.546 0.067 C 0.543 0.054 0.532 0.053 0.529 0.065 C 0.522 0.098 0.487 0.126 0.49 0.096 C 0.491 0.091 0.491 0.089 0.489 0.089 C 0.488 0.089 0.485 0.088 0.484 0.087 C 0.482 0.086 0.481 0.087 0.481 0.09 C 0.481 0.096 0.477 0.098 0.475 0.092 C 0.474 0.086 0.473 0.086 0.47 0.091 C 0.466 0.095 0.466 0.095 0.465 0.09 C 0.464 0.088 0.463 0.086 0.461 0.086 C 0.46 0.087 0.456 0.086 0.453 0.085 C 0.449 0.083 0.444 0.084 0.441 0.086 C 0.436 0.088 0.434 0.088 0.432 0.086 C 0.43 0.084 0.429 0.084 0.426 0.09 C 0.422 0.097 0.415 0.1 0.413 0.094 C 0.413 0.093 0.411 0.092 0.409 0.093 C 0.407 0.093 0.405 0.093 0.403 0.092 C 0.389 0.08 0.389 0.08 0.387 0.083 C 0.386 0.085 0.385 0.09 0.385 0.094 C 0.385 0.105 0.383 0.109 0.38 0.104 C 0.377 0.098 0.374 0.099 0.373 0.108 C 0.372 0.115 0.372 0.116 0.363 0.116 C 0.357 0.116 0.354 0.118 0.352 0.122 C 0.35 0.126 0.347 0.129 0.345 0.129 C 0.342 0.13 0.339 0.133 0.337 0.137 C 0.332 0.147 0.324 0.151 0.32 0.146 C 0.317 0.141 0.316 0.141 0.317 0.146 C 0.317 0.149 0.317 0.15 0.314 0.15 C 0.312 0.15 0.307 0.153 0.303 0.157 C 0.293 0.166 0.267 0.166 0.266 0.156 C 0.265 0.147 0.27 0.133 0.274 0.133 C 0.277 0.133 0.278 0.131 0.28 0.119 C 0.282 0.112 0.286 0.099 0.289 0.092 C 0.293 0.085 0.295 0.077 0.295 0.076 C 0.295 0.074 0.296 0.072 0.297 0.072 C 0.299 0.072 0.3 0.061 0.298 0.052 C 0.296 0.041 0.301 0.027 0.307 0.024 C 0.309 0.023 0.31 0.021 0.309 0.018 C 0.308 0.012 0.312 0.005 0.316 0.007 C 0.318 0.007 0.319 0.009 0.319 0.012 C 0.318 0.019 0.322 0.036 0.324 0.036 C 0.329 0.036 0.332 0.029 0.33 0.021 C 0.329 0.017 0.328 0.011 0.328 0.007 L 0.328 0 L 0.165 0 C 0.035 0 0.001 0.001 0 0.003 Z  M 0.334 0.006 C 0.336 0.018 0.343 0.025 0.343 0.016 C 0.343 0.008 0.346 0.007 0.35 0.014 C 0.353 0.018 0.354 0.019 0.354 0.017 C 0.355 0.015 0.356 0.014 0.358 0.014 C 0.36 0.014 0.361 0.012 0.361 0.008 C 0.36 0.002 0.359 0.001 0.346 0.001 C 0.333 0 0.333 0 0.334 0.006 Z  M 0.502 0.025 C 0.504 0.028 0.504 0.031 0.504 0.032 C 0.503 0.033 0.504 0.033 0.505 0.033 C 0.506 0.033 0.507 0.034 0.506 0.035 C 0.504 0.038 0.498 0.03 0.499 0.026 C 0.5 0.023 0.5 0.022 0.497 0.023 C 0.495 0.024 0.494 0.023 0.495 0.022 C 0.496 0.018 0.499 0.019 0.502 0.025 Z  M 0.431 0.057 C 0.429 0.06 0.428 0.062 0.428 0.062 C 0.428 0.062 0.428 0.065 0.428 0.069 C 0.426 0.078 0.428 0.08 0.431 0.073 C 0.437 0.062 0.437 0.049 0.431 0.057 Z  M 0.376 0.139 C 0.375 0.14 0.373 0.143 0.372 0.145 C 0.368 0.147 0.368 0.147 0.372 0.142 C 0.376 0.136 0.377 0.134 0.376 0.139 Z  M 0.263 0.149 C 0.264 0.154 0.263 0.159 0.261 0.157 C 0.259 0.155 0.259 0.144 0.261 0.144 C 0.262 0.144 0.263 0.146 0.263 0.149 Z  M 0.367 0.151 C 0.367 0.154 0.365 0.157 0.363 0.158 C 0.361 0.16 0.36 0.162 0.36 0.164 C 0.361 0.165 0.36 0.167 0.36 0.167 C 0.357 0.167 0.358 0.164 0.361 0.155 C 0.365 0.147 0.367 0.145 0.367 0.151 Z  M 0.174 0.17 C 0.174 0.176 0.174 0.181 0.175 0.181 C 0.177 0.181 0.177 0.188 0.175 0.19 C 0.172 0.193 0.168 0.186 0.169 0.18 C 0.169 0.178 0.169 0.174 0.168 0.171 C 0.167 0.168 0.167 0.165 0.169 0.162 C 0.172 0.156 0.174 0.159 0.174 0.17 Z  M 0.324 0.166 C 0.328 0.175 0.327 0.182 0.322 0.179 C 0.319 0.177 0.317 0.178 0.312 0.184 C 0.307 0.191 0.305 0.175 0.31 0.165 C 0.312 0.159 0.321 0.16 0.324 0.166 Z  M 0.197 0.179 C 0.197 0.182 0.196 0.183 0.194 0.183 C 0.193 0.183 0.192 0.181 0.192 0.178 C 0.192 0.174 0.193 0.173 0.194 0.174 C 0.196 0.175 0.197 0.177 0.197 0.179 Z  M 0.27 0.19 C 0.27 0.192 0.272 0.193 0.277 0.193 C 0.281 0.193 0.285 0.195 0.287 0.197 C 0.288 0.199 0.29 0.201 0.292 0.202 C 0.293 0.202 0.295 0.203 0.295 0.204 C 0.296 0.206 0.295 0.206 0.293 0.205 C 0.291 0.203 0.291 0.204 0.291 0.207 C 0.292 0.211 0.289 0.214 0.283 0.214 C 0.279 0.214 0.27 0.219 0.264 0.225 C 0.256 0.232 0.253 0.231 0.254 0.22 C 0.254 0.208 0.257 0.202 0.259 0.208 C 0.262 0.215 0.267 0.202 0.266 0.191 C 0.266 0.19 0.266 0.189 0.267 0.189 C 0.268 0.189 0.268 0.187 0.268 0.185 C 0.267 0.183 0.267 0.183 0.268 0.184 C 0.269 0.186 0.27 0.188 0.27 0.19 Z  M 0.248 0.225 L 0.252 0.233 L 0.248 0.239 C 0.245 0.245 0.242 0.246 0.243 0.24 C 0.244 0.238 0.243 0.236 0.242 0.236 C 0.241 0.236 0.241 0.238 0.241 0.239 C 0.242 0.244 0.233 0.252 0.232 0.248 C 0.231 0.246 0.23 0.245 0.229 0.246 C 0.229 0.247 0.228 0.246 0.228 0.243 C 0.229 0.237 0.236 0.23 0.239 0.232 C 0.24 0.233 0.24 0.232 0.24 0.231 C 0.238 0.219 0.244 0.215 0.248 0.225 Z  M 0.225 0.261 C 0.218 0.272 0.212 0.271 0.219 0.26 C 0.22 0.257 0.222 0.253 0.222 0.252 C 0.222 0.244 0.226 0.242 0.228 0.248 C 0.229 0.254 0.229 0.255 0.225 0.261 Z  M 0.197 0.26 C 0.197 0.264 0.2 0.265 0.203 0.261 C 0.206 0.258 0.211 0.263 0.211 0.269 C 0.211 0.274 0.192 0.294 0.185 0.296 C 0.179 0.297 0.161 0.312 0.158 0.318 C 0.156 0.322 0.153 0.325 0.152 0.325 C 0.148 0.325 0.156 0.307 0.163 0.298 C 0.169 0.291 0.17 0.289 0.173 0.281 C 0.174 0.278 0.176 0.278 0.177 0.279 C 0.183 0.283 0.184 0.283 0.185 0.279 C 0.186 0.277 0.187 0.276 0.189 0.276 C 0.19 0.277 0.193 0.276 0.194 0.273 C 0.196 0.27 0.196 0.268 0.194 0.267 C 0.191 0.266 0.192 0.256 0.194 0.256 C 0.196 0.256 0.197 0.257 0.197 0.26 Z  M 0.155 0.29 C 0.155 0.292 0.154 0.295 0.153 0.297 C 0.152 0.3 0.151 0.3 0.152 0.295 C 0.153 0.29 0.153 0.289 0.151 0.29 C 0.15 0.292 0.15 0.291 0.151 0.289 C 0.152 0.285 0.155 0.285 0.155 0.29 Z  M 0.149 0.312 C 0.149 0.318 0.149 0.323 0.148 0.324 C 0.147 0.325 0.147 0.329 0.147 0.332 C 0.147 0.336 0.146 0.339 0.144 0.34 C 0.143 0.341 0.142 0.343 0.142 0.346 C 0.142 0.351 0.137 0.366 0.135 0.368 C 0.132 0.369 0.133 0.365 0.136 0.354 C 0.138 0.349 0.139 0.343 0.139 0.34 C 0.139 0.338 0.14 0.336 0.14 0.336 C 0.141 0.336 0.142 0.335 0.142 0.333 C 0.142 0.328 0.144 0.314 0.145 0.308 C 0.146 0.299 0.15 0.302 0.149 0.312 Z  M 0.772 0.387 L 0.776 0.386 L 0.776 0.405 C 0.776 0.415 0.776 0.424 0.776 0.424 C 0.774 0.424 0.774 0.44 0.776 0.442 C 0.777 0.444 0.777 0.445 0.775 0.446 C 0.773 0.447 0.771 0.45 0.77 0.454 C 0.77 0.459 0.77 0.459 0.771 0.455 C 0.774 0.45 0.776 0.448 0.775 0.453 C 0.774 0.454 0.775 0.456 0.776 0.456 C 0.778 0.456 0.779 0.457 0.779 0.458 C 0.779 0.459 0.78 0.461 0.781 0.462 C 0.783 0.464 0.783 0.463 0.782 0.46 C 0.78 0.456 0.78 0.456 0.784 0.459 C 0.788 0.462 0.789 0.462 0.789 0.459 C 0.79 0.457 0.791 0.456 0.791 0.457 C 0.792 0.458 0.793 0.457 0.793 0.455 C 0.793 0.453 0.794 0.453 0.795 0.457 C 0.798 0.46 0.798 0.462 0.796 0.463 C 0.795 0.464 0.795 0.465 0.795 0.467 C 0.796 0.468 0.794 0.468 0.793 0.467 C 0.79 0.466 0.788 0.468 0.787 0.471 C 0.785 0.475 0.785 0.475 0.783 0.472 C 0.781 0.47 0.781 0.47 0.781 0.477 C 0.782 0.481 0.781 0.485 0.781 0.486 C 0.78 0.487 0.779 0.49 0.778 0.494 C 0.777 0.5 0.79 0.496 0.793 0.488 C 0.794 0.486 0.794 0.486 0.794 0.487 C 0.794 0.488 0.796 0.488 0.798 0.486 C 0.802 0.483 0.807 0.487 0.806 0.493 C 0.805 0.495 0.806 0.496 0.808 0.496 C 0.814 0.495 0.819 0.491 0.819 0.487 C 0.819 0.479 0.837 0.466 0.839 0.472 C 0.839 0.474 0.839 0.475 0.838 0.475 C 0.837 0.475 0.835 0.477 0.834 0.479 C 0.833 0.482 0.831 0.483 0.83 0.482 C 0.829 0.481 0.829 0.481 0.829 0.483 C 0.83 0.484 0.829 0.486 0.828 0.487 C 0.825 0.489 0.828 0.494 0.834 0.496 C 0.837 0.497 0.838 0.498 0.837 0.502 C 0.837 0.506 0.837 0.506 0.839 0.502 C 0.84 0.499 0.841 0.498 0.841 0.499 C 0.841 0.503 0.854 0.509 0.856 0.506 C 0.858 0.504 0.865 0.504 0.866 0.507 C 0.867 0.512 0.858 0.516 0.854 0.512 C 0.85 0.509 0.849 0.51 0.847 0.513 C 0.845 0.517 0.844 0.517 0.844 0.513 C 0.844 0.509 0.844 0.509 0.841 0.511 C 0.838 0.513 0.835 0.513 0.831 0.51 C 0.826 0.506 0.826 0.506 0.826 0.51 C 0.826 0.515 0.822 0.515 0.82 0.511 C 0.817 0.506 0.804 0.513 0.803 0.521 C 0.802 0.527 0.801 0.528 0.794 0.527 C 0.786 0.526 0.786 0.527 0.785 0.534 C 0.784 0.542 0.776 0.555 0.773 0.556 C 0.772 0.556 0.771 0.557 0.77 0.559 C 0.77 0.562 0.769 0.561 0.767 0.557 C 0.766 0.555 0.764 0.549 0.762 0.545 C 0.757 0.534 0.758 0.52 0.763 0.514 C 0.771 0.506 0.774 0.502 0.769 0.504 C 0.767 0.505 0.762 0.506 0.758 0.507 C 0.75 0.509 0.747 0.513 0.749 0.518 C 0.75 0.521 0.75 0.522 0.75 0.522 C 0.749 0.522 0.748 0.522 0.748 0.522 C 0.746 0.522 0.746 0.516 0.748 0.512 C 0.75 0.506 0.74 0.504 0.736 0.51 C 0.732 0.516 0.733 0.519 0.737 0.521 C 0.74 0.522 0.741 0.524 0.74 0.527 C 0.739 0.53 0.739 0.53 0.737 0.526 C 0.735 0.521 0.735 0.521 0.736 0.527 C 0.737 0.533 0.736 0.534 0.733 0.532 C 0.73 0.53 0.73 0.53 0.732 0.535 C 0.733 0.538 0.731 0.536 0.728 0.532 C 0.725 0.527 0.722 0.521 0.723 0.518 C 0.723 0.513 0.723 0.513 0.723 0.518 C 0.724 0.525 0.729 0.511 0.729 0.499 C 0.729 0.492 0.731 0.489 0.734 0.487 C 0.741 0.481 0.747 0.47 0.751 0.457 C 0.754 0.445 0.755 0.443 0.757 0.411 C 0.759 0.386 0.761 0.378 0.766 0.384 C 0.767 0.386 0.77 0.387 0.772 0.387 Z  M 0.129 0.417 C 0.129 0.432 0.13 0.442 0.132 0.453 C 0.135 0.468 0.134 0.476 0.13 0.469 C 0.129 0.467 0.128 0.467 0.128 0.469 C 0.128 0.471 0.127 0.473 0.125 0.474 C 0.12 0.476 0.111 0.459 0.112 0.451 C 0.112 0.448 0.111 0.444 0.11 0.442 C 0.109 0.44 0.108 0.437 0.108 0.434 C 0.108 0.432 0.107 0.431 0.106 0.431 C 0.106 0.431 0.104 0.427 0.103 0.423 C 0.1 0.414 0.101 0.403 0.105 0.403 C 0.106 0.403 0.109 0.4 0.111 0.396 C 0.121 0.378 0.13 0.388 0.129 0.417 Z  M 0.07 0.423 C 0.072 0.428 0.076 0.427 0.078 0.422 C 0.079 0.419 0.079 0.419 0.079 0.424 C 0.079 0.427 0.08 0.431 0.081 0.433 C 0.083 0.436 0.08 0.453 0.078 0.453 C 0.077 0.453 0.076 0.457 0.077 0.463 C 0.078 0.475 0.076 0.483 0.072 0.483 C 0.07 0.483 0.069 0.485 0.07 0.488 C 0.072 0.5 0.064 0.516 0.059 0.509 C 0.057 0.506 0.056 0.506 0.055 0.508 C 0.055 0.51 0.054 0.511 0.053 0.51 C 0.052 0.509 0.05 0.511 0.049 0.514 C 0.048 0.518 0.045 0.521 0.044 0.521 C 0.041 0.521 0.041 0.521 0.042 0.518 C 0.043 0.516 0.043 0.514 0.043 0.514 C 0.042 0.514 0.043 0.511 0.044 0.508 C 0.045 0.505 0.046 0.5 0.046 0.498 C 0.045 0.496 0.045 0.494 0.046 0.494 C 0.047 0.494 0.048 0.49 0.048 0.484 C 0.048 0.478 0.048 0.473 0.049 0.473 C 0.05 0.473 0.05 0.472 0.05 0.47 C 0.05 0.467 0.052 0.466 0.057 0.466 C 0.058 0.466 0.058 0.462 0.058 0.457 C 0.058 0.451 0.058 0.445 0.058 0.442 C 0.059 0.44 0.06 0.437 0.06 0.436 C 0.061 0.426 0.067 0.418 0.07 0.423 Z  M 0.768 0.439 C 0.768 0.441 0.772 0.445 0.774 0.443 C 0.774 0.443 0.773 0.441 0.771 0.439 C 0.769 0.437 0.768 0.437 0.768 0.439 Z  M 0.725 0.539 C 0.725 0.54 0.727 0.542 0.729 0.542 C 0.73 0.542 0.732 0.544 0.732 0.546 C 0.732 0.548 0.733 0.554 0.735 0.56 C 0.737 0.567 0.738 0.571 0.737 0.574 C 0.735 0.579 0.735 0.578 0.733 0.572 C 0.731 0.562 0.73 0.562 0.731 0.571 C 0.731 0.579 0.729 0.58 0.728 0.572 C 0.726 0.561 0.722 0.567 0.722 0.581 C 0.722 0.59 0.719 0.593 0.714 0.589 C 0.712 0.588 0.71 0.588 0.709 0.591 C 0.707 0.594 0.707 0.594 0.707 0.593 C 0.708 0.591 0.708 0.589 0.707 0.588 C 0.705 0.585 0.704 0.597 0.706 0.602 C 0.707 0.604 0.707 0.609 0.707 0.613 C 0.706 0.62 0.704 0.621 0.703 0.617 C 0.702 0.615 0.701 0.614 0.699 0.615 C 0.697 0.616 0.697 0.615 0.698 0.611 C 0.699 0.607 0.699 0.601 0.7 0.596 C 0.7 0.591 0.702 0.586 0.704 0.584 C 0.705 0.582 0.706 0.579 0.706 0.578 C 0.706 0.577 0.707 0.574 0.709 0.573 C 0.713 0.57 0.714 0.566 0.715 0.546 C 0.716 0.539 0.725 0.532 0.725 0.539 Z  M 0.274 0.618 C 0.278 0.621 0.277 0.626 0.274 0.624 C 0.272 0.623 0.27 0.625 0.267 0.629 C 0.264 0.636 0.259 0.639 0.259 0.634 C 0.259 0.631 0.268 0.617 0.27 0.617 C 0.271 0.617 0.273 0.617 0.274 0.618 Z  M 0.278 0.633 C 0.279 0.638 0.275 0.637 0.274 0.632 C 0.274 0.629 0.274 0.628 0.275 0.628 C 0.276 0.629 0.277 0.631 0.278 0.633 Z  M 0.331 0.719 C 0.332 0.724 0.329 0.723 0.328 0.718 C 0.327 0.715 0.327 0.714 0.328 0.715 C 0.33 0.715 0.331 0.717 0.331 0.719 Z  M 0.334 0.757 C 0.334 0.761 0.332 0.765 0.331 0.762 C 0.33 0.76 0.331 0.753 0.333 0.753 C 0.334 0.753 0.334 0.755 0.334 0.757 Z  M 0.467 0.833 C 0.467 0.834 0.466 0.836 0.465 0.837 C 0.463 0.838 0.462 0.837 0.462 0.834 C 0.462 0.83 0.465 0.829 0.467 0.833 Z  M 0.394 0.865 C 0.394 0.868 0.393 0.87 0.392 0.87 C 0.391 0.87 0.391 0.871 0.391 0.874 C 0.392 0.876 0.392 0.878 0.391 0.878 C 0.389 0.878 0.387 0.867 0.389 0.863 C 0.39 0.86 0.394 0.861 0.394 0.865 Z  M 0.386 0.885 C 0.39 0.886 0.391 0.885 0.39 0.883 C 0.389 0.88 0.389 0.88 0.391 0.883 C 0.393 0.886 0.393 0.887 0.391 0.89 C 0.387 0.896 0.374 0.893 0.372 0.886 C 0.37 0.88 0.369 0.88 0.386 0.885 Z " fill-rule="evenodd" fill="rgb(0,0,0)"/></g></g></svg>