<?xml version="1.0" encoding="UTF-8" standalone="no"?><!-- Generator: Gravit.io --><svg xmlns="http://www.w3.org/2000/svg" xmlns:xlink="http://www.w3.org/1999/xlink" style="isolation:isolate" viewBox="0 0 1 1" width="1pt" height="1pt"><defs><clipPath id="_clipPath_4kGYhi71Gb5eoaUqovlexIKqi56kpTiE"><rect width="1" height="1"/></clipPath></defs><g clip-path="url(#_clipPath_4kGYhi71Gb5eoaUqovlexIKqi56kpTiE)"><g><path d=" M 0 0.005 C 0 0.007 0 0.231 0 0.503 L 0.001 0.999 L 0.187 0.999 C 0.348 1 0.373 1 0.375 0.996 C 0.377 0.992 0.378 0.992 0.382 0.996 C 0.387 1.001 0.404 1.002 0.406 0.997 C 0.406 0.996 0.407 0.995 0.408 0.996 C 0.41 0.998 0.41 0.997 0.408 0.995 C 0.407 0.993 0.407 0.989 0.407 0.987 C 0.408 0.985 0.408 0.983 0.407 0.983 C 0.406 0.983 0.405 0.981 0.406 0.978 C 0.406 0.975 0.407 0.973 0.408 0.974 C 0.409 0.975 0.412 0.973 0.415 0.971 C 0.417 0.969 0.418 0.967 0.417 0.968 C 0.415 0.969 0.414 0.968 0.414 0.966 C 0.414 0.964 0.414 0.964 0.412 0.966 C 0.411 0.968 0.409 0.97 0.408 0.97 C 0.407 0.97 0.406 0.969 0.407 0.968 C 0.407 0.967 0.407 0.964 0.406 0.962 C 0.404 0.96 0.404 0.957 0.404 0.954 C 0.405 0.952 0.404 0.95 0.403 0.949 C 0.402 0.947 0.402 0.948 0.402 0.95 C 0.403 0.953 0.403 0.954 0.402 0.951 C 0.4 0.948 0.4 0.947 0.402 0.943 C 0.404 0.939 0.404 0.938 0.402 0.94 C 0.4 0.94 0.399 0.944 0.4 0.949 C 0.4 0.957 0.4 0.957 0.391 0.957 C 0.383 0.956 0.382 0.956 0.382 0.948 C 0.382 0.94 0.383 0.939 0.393 0.943 C 0.396 0.944 0.397 0.943 0.397 0.939 C 0.398 0.936 0.399 0.934 0.402 0.935 C 0.404 0.936 0.407 0.935 0.408 0.932 C 0.41 0.929 0.41 0.928 0.407 0.928 C 0.405 0.928 0.402 0.919 0.404 0.914 C 0.405 0.913 0.407 0.911 0.409 0.911 C 0.415 0.911 0.417 0.908 0.417 0.9 C 0.417 0.895 0.416 0.893 0.414 0.894 C 0.409 0.896 0.407 0.887 0.413 0.884 C 0.416 0.882 0.417 0.882 0.417 0.885 C 0.417 0.893 0.42 0.889 0.423 0.878 C 0.427 0.866 0.426 0.857 0.423 0.865 C 0.421 0.869 0.421 0.869 0.419 0.866 C 0.418 0.864 0.418 0.861 0.419 0.86 C 0.419 0.859 0.42 0.857 0.42 0.856 C 0.421 0.849 0.424 0.836 0.426 0.836 C 0.429 0.836 0.43 0.847 0.427 0.853 C 0.425 0.858 0.425 0.858 0.428 0.858 C 0.43 0.858 0.431 0.856 0.43 0.855 C 0.43 0.854 0.43 0.853 0.431 0.853 C 0.432 0.853 0.433 0.852 0.433 0.851 C 0.432 0.84 0.433 0.835 0.435 0.841 C 0.438 0.846 0.438 0.846 0.437 0.838 C 0.437 0.832 0.437 0.831 0.439 0.833 C 0.442 0.834 0.448 0.835 0.452 0.833 C 0.453 0.833 0.454 0.835 0.455 0.838 C 0.455 0.841 0.455 0.842 0.454 0.841 C 0.453 0.84 0.452 0.842 0.45 0.845 C 0.448 0.85 0.445 0.851 0.437 0.853 C 0.435 0.853 0.432 0.863 0.433 0.868 C 0.433 0.869 0.432 0.872 0.431 0.874 C 0.43 0.876 0.43 0.878 0.431 0.878 C 0.431 0.878 0.431 0.88 0.429 0.882 C 0.427 0.885 0.427 0.886 0.429 0.885 C 0.431 0.883 0.431 0.893 0.428 0.896 C 0.427 0.897 0.427 0.901 0.428 0.904 C 0.429 0.908 0.429 0.911 0.429 0.912 C 0.428 0.913 0.429 0.916 0.43 0.919 C 0.431 0.922 0.432 0.94 0.432 0.959 C 0.433 0.978 0.434 0.995 0.434 0.997 C 0.434 0.999 0.492 1 0.717 0.999 L 1 0.999 L 1 0.501 L 1 0.003 L 0.73 0.002 C 0.554 0.002 0.459 0.002 0.459 0.004 C 0.458 0.006 0.459 0.007 0.46 0.007 C 0.461 0.007 0.461 0.008 0.459 0.01 C 0.456 0.012 0.456 0.012 0.459 0.012 C 0.461 0.012 0.463 0.011 0.463 0.01 C 0.463 0.008 0.464 0.007 0.465 0.007 C 0.466 0.007 0.465 0.009 0.463 0.012 C 0.46 0.017 0.46 0.018 0.462 0.018 C 0.464 0.018 0.467 0.018 0.47 0.019 C 0.473 0.02 0.475 0.019 0.475 0.018 C 0.475 0.016 0.476 0.016 0.478 0.018 C 0.479 0.02 0.48 0.022 0.479 0.023 C 0.478 0.025 0.481 0.032 0.484 0.032 C 0.484 0.032 0.484 0.03 0.482 0.028 C 0.48 0.026 0.48 0.024 0.481 0.024 C 0.482 0.024 0.483 0.025 0.484 0.027 C 0.487 0.031 0.484 0.041 0.481 0.038 C 0.48 0.037 0.48 0.038 0.481 0.041 C 0.483 0.045 0.484 0.045 0.486 0.042 C 0.488 0.04 0.488 0.04 0.487 0.042 C 0.486 0.044 0.487 0.046 0.488 0.046 C 0.489 0.046 0.489 0.043 0.489 0.04 C 0.488 0.037 0.489 0.035 0.49 0.037 C 0.492 0.037 0.492 0.04 0.492 0.043 C 0.491 0.046 0.491 0.046 0.493 0.042 C 0.494 0.04 0.495 0.038 0.496 0.039 C 0.496 0.04 0.499 0.041 0.502 0.041 C 0.504 0.041 0.507 0.042 0.507 0.044 C 0.507 0.045 0.508 0.045 0.509 0.043 C 0.511 0.04 0.512 0.04 0.515 0.045 C 0.516 0.048 0.517 0.048 0.517 0.046 C 0.516 0.045 0.516 0.043 0.517 0.043 C 0.518 0.043 0.519 0.044 0.519 0.046 C 0.519 0.048 0.52 0.048 0.522 0.046 C 0.524 0.044 0.528 0.044 0.537 0.048 C 0.539 0.049 0.54 0.051 0.538 0.051 C 0.538 0.051 0.534 0.05 0.531 0.049 C 0.528 0.047 0.525 0.047 0.525 0.048 C 0.524 0.049 0.526 0.05 0.529 0.051 C 0.532 0.051 0.534 0.053 0.535 0.054 C 0.536 0.056 0.536 0.056 0.533 0.056 C 0.531 0.055 0.53 0.056 0.529 0.062 C 0.528 0.066 0.527 0.072 0.525 0.075 C 0.523 0.078 0.52 0.085 0.517 0.09 C 0.515 0.094 0.513 0.098 0.511 0.098 C 0.51 0.098 0.51 0.099 0.51 0.101 C 0.511 0.102 0.507 0.103 0.502 0.103 C 0.493 0.104 0.493 0.104 0.491 0.095 C 0.49 0.084 0.483 0.081 0.479 0.091 L 0.477 0.097 L 0.476 0.091 C 0.475 0.084 0.475 0.084 0.47 0.088 C 0.468 0.09 0.467 0.09 0.464 0.086 C 0.463 0.083 0.461 0.083 0.46 0.085 C 0.459 0.087 0.457 0.087 0.454 0.084 C 0.451 0.082 0.448 0.082 0.442 0.084 C 0.436 0.087 0.434 0.087 0.432 0.084 C 0.43 0.081 0.429 0.082 0.428 0.085 C 0.427 0.088 0.426 0.09 0.424 0.09 C 0.423 0.09 0.422 0.091 0.422 0.093 C 0.422 0.097 0.417 0.099 0.415 0.095 C 0.414 0.093 0.411 0.09 0.407 0.089 C 0.404 0.088 0.401 0.087 0.4 0.085 C 0.396 0.075 0.384 0.083 0.384 0.096 C 0.385 0.1 0.384 0.104 0.383 0.106 C 0.382 0.107 0.381 0.106 0.382 0.104 C 0.383 0.102 0.382 0.101 0.378 0.102 C 0.375 0.102 0.373 0.104 0.373 0.105 C 0.373 0.11 0.37 0.115 0.368 0.114 C 0.367 0.113 0.365 0.114 0.365 0.115 C 0.364 0.117 0.362 0.117 0.359 0.116 C 0.355 0.115 0.353 0.116 0.353 0.117 C 0.353 0.122 0.348 0.129 0.345 0.129 C 0.343 0.129 0.339 0.131 0.337 0.133 C 0.332 0.138 0.327 0.134 0.322 0.122 C 0.319 0.116 0.318 0.111 0.32 0.114 C 0.321 0.115 0.322 0.114 0.322 0.112 C 0.322 0.111 0.321 0.11 0.32 0.11 C 0.318 0.11 0.317 0.115 0.318 0.119 C 0.321 0.125 0.32 0.131 0.318 0.125 C 0.315 0.118 0.312 0.129 0.314 0.137 C 0.317 0.146 0.316 0.148 0.311 0.148 C 0.308 0.148 0.306 0.15 0.306 0.151 C 0.306 0.16 0.272 0.166 0.267 0.158 C 0.265 0.153 0.27 0.136 0.273 0.138 C 0.277 0.14 0.281 0.13 0.281 0.121 C 0.281 0.117 0.286 0.104 0.291 0.091 C 0.303 0.064 0.303 0.065 0.299 0.052 C 0.296 0.041 0.301 0.025 0.307 0.027 C 0.311 0.028 0.316 0.022 0.315 0.018 C 0.314 0.017 0.315 0.015 0.316 0.014 C 0.319 0.013 0.319 0.015 0.321 0.031 C 0.322 0.041 0.325 0.046 0.326 0.041 C 0.327 0.039 0.328 0.037 0.329 0.037 C 0.331 0.037 0.331 0.022 0.329 0.006 C 0.328 0 0.002 -0.002 0 0.005 Z  M 0.333 0.003 C 0.333 0.007 0.338 0.024 0.34 0.025 C 0.343 0.027 0.345 0.022 0.344 0.016 C 0.343 0.01 0.348 0.012 0.351 0.018 C 0.353 0.024 0.353 0.024 0.356 0.02 C 0.357 0.017 0.359 0.015 0.361 0.015 C 0.364 0.015 0.364 0.014 0.362 0.008 C 0.36 0.002 0.333 -0.003 0.333 0.003 Z  M 0.375 0.018 C 0.372 0.023 0.372 0.023 0.375 0.025 C 0.377 0.026 0.381 0.02 0.381 0.015 C 0.381 0.011 0.377 0.012 0.375 0.018 Z  M 0.554 0.05 C 0.554 0.049 0.556 0.049 0.558 0.051 C 0.559 0.053 0.56 0.054 0.558 0.054 C 0.557 0.054 0.557 0.055 0.558 0.058 C 0.558 0.059 0.558 0.06 0.557 0.059 C 0.557 0.058 0.555 0.06 0.553 0.063 C 0.549 0.07 0.548 0.069 0.545 0.06 C 0.543 0.051 0.543 0.051 0.547 0.051 C 0.549 0.051 0.55 0.05 0.549 0.048 C 0.548 0.045 0.549 0.045 0.551 0.048 C 0.552 0.05 0.553 0.05 0.554 0.05 Z  M 0.431 0.058 C 0.427 0.066 0.425 0.074 0.426 0.077 C 0.427 0.078 0.429 0.076 0.432 0.071 C 0.438 0.058 0.437 0.047 0.431 0.058 Z  M 0.175 0.184 C 0.177 0.188 0.176 0.193 0.173 0.193 C 0.17 0.193 0.169 0.189 0.168 0.173 C 0.167 0.164 0.167 0.163 0.17 0.162 C 0.172 0.161 0.173 0.163 0.173 0.17 C 0.173 0.176 0.174 0.182 0.175 0.184 Z  M 0.319 0.164 C 0.319 0.166 0.318 0.167 0.316 0.166 C 0.315 0.165 0.315 0.163 0.315 0.162 C 0.316 0.158 0.319 0.159 0.319 0.164 Z  M 0.195 0.178 C 0.195 0.182 0.193 0.184 0.192 0.183 C 0.19 0.181 0.192 0.176 0.194 0.176 C 0.195 0.176 0.195 0.177 0.195 0.178 Z  M 0.267 0.187 C 0.266 0.192 0.266 0.193 0.269 0.193 C 0.271 0.193 0.272 0.192 0.271 0.19 C 0.271 0.188 0.271 0.188 0.273 0.189 C 0.274 0.19 0.275 0.192 0.275 0.193 C 0.275 0.194 0.276 0.195 0.277 0.194 C 0.278 0.193 0.28 0.194 0.28 0.195 C 0.281 0.197 0.282 0.198 0.283 0.197 C 0.284 0.196 0.285 0.197 0.285 0.198 C 0.286 0.2 0.288 0.201 0.29 0.201 C 0.298 0.201 0.29 0.211 0.279 0.215 C 0.274 0.217 0.268 0.22 0.265 0.222 C 0.263 0.224 0.261 0.225 0.26 0.223 C 0.26 0.222 0.258 0.221 0.257 0.221 C 0.256 0.221 0.256 0.222 0.258 0.223 C 0.259 0.225 0.259 0.226 0.258 0.226 C 0.255 0.226 0.253 0.217 0.256 0.209 L 0.258 0.202 L 0.259 0.209 C 0.259 0.212 0.26 0.214 0.261 0.213 C 0.262 0.212 0.262 0.211 0.262 0.209 C 0.261 0.208 0.262 0.207 0.263 0.207 C 0.264 0.208 0.265 0.205 0.265 0.198 C 0.265 0.193 0.266 0.187 0.266 0.185 C 0.268 0.179 0.269 0.181 0.267 0.187 Z  M 0.244 0.221 C 0.245 0.22 0.245 0.221 0.245 0.223 C 0.245 0.224 0.246 0.226 0.248 0.227 C 0.25 0.227 0.25 0.229 0.246 0.236 C 0.243 0.242 0.242 0.243 0.242 0.239 C 0.242 0.236 0.241 0.235 0.241 0.236 C 0.24 0.237 0.239 0.239 0.24 0.24 C 0.241 0.244 0.236 0.249 0.232 0.248 C 0.229 0.247 0.228 0.248 0.227 0.252 C 0.226 0.26 0.218 0.271 0.218 0.264 C 0.218 0.261 0.218 0.26 0.219 0.261 C 0.22 0.262 0.22 0.26 0.22 0.257 C 0.22 0.251 0.224 0.242 0.226 0.245 C 0.226 0.246 0.227 0.244 0.227 0.241 C 0.227 0.235 0.233 0.227 0.238 0.228 C 0.24 0.229 0.24 0.227 0.24 0.221 C 0.239 0.215 0.24 0.214 0.241 0.219 C 0.242 0.221 0.244 0.222 0.244 0.221 Z  M 0.203 0.259 C 0.206 0.254 0.213 0.263 0.211 0.27 C 0.211 0.274 0.192 0.29 0.187 0.291 C 0.185 0.291 0.182 0.294 0.18 0.296 C 0.177 0.299 0.172 0.303 0.166 0.306 C 0.161 0.309 0.157 0.314 0.156 0.315 C 0.155 0.318 0.155 0.316 0.155 0.312 C 0.157 0.305 0.16 0.298 0.162 0.298 C 0.163 0.298 0.165 0.296 0.167 0.293 C 0.169 0.29 0.17 0.288 0.17 0.289 C 0.17 0.29 0.172 0.287 0.173 0.283 C 0.176 0.277 0.181 0.273 0.179 0.278 C 0.178 0.282 0.183 0.285 0.185 0.281 C 0.186 0.28 0.188 0.279 0.19 0.28 C 0.192 0.281 0.194 0.273 0.194 0.265 C 0.193 0.252 0.194 0.249 0.197 0.256 C 0.199 0.263 0.2 0.263 0.203 0.259 Z  M 0.154 0.295 C 0.153 0.299 0.152 0.3 0.151 0.299 C 0.15 0.298 0.15 0.299 0.151 0.302 C 0.153 0.306 0.153 0.308 0.152 0.309 C 0.151 0.309 0.15 0.313 0.15 0.316 C 0.15 0.32 0.149 0.324 0.148 0.325 C 0.147 0.325 0.147 0.329 0.147 0.332 C 0.147 0.337 0.145 0.338 0.143 0.336 C 0.141 0.336 0.142 0.32 0.143 0.316 C 0.144 0.315 0.144 0.312 0.145 0.31 C 0.145 0.308 0.146 0.304 0.147 0.301 C 0.149 0.299 0.15 0.295 0.15 0.292 C 0.15 0.289 0.15 0.289 0.151 0.293 C 0.153 0.296 0.153 0.296 0.153 0.291 C 0.153 0.289 0.153 0.287 0.154 0.288 C 0.154 0.289 0.154 0.292 0.154 0.295 Z  M 0.125 0.397 C 0.126 0.402 0.127 0.407 0.125 0.416 C 0.124 0.427 0.124 0.431 0.127 0.441 C 0.131 0.459 0.13 0.469 0.124 0.468 C 0.119 0.467 0.115 0.461 0.115 0.451 C 0.115 0.447 0.114 0.442 0.112 0.44 C 0.111 0.438 0.109 0.435 0.109 0.433 C 0.109 0.43 0.108 0.429 0.108 0.429 C 0.105 0.429 0.102 0.422 0.102 0.414 C 0.102 0.41 0.103 0.406 0.104 0.406 C 0.105 0.406 0.106 0.405 0.106 0.404 C 0.106 0.402 0.107 0.401 0.108 0.401 C 0.109 0.401 0.112 0.398 0.114 0.394 C 0.119 0.386 0.122 0.387 0.125 0.397 Z  M 0.778 0.391 C 0.778 0.392 0.777 0.396 0.776 0.398 C 0.773 0.401 0.773 0.401 0.776 0.399 C 0.777 0.398 0.778 0.398 0.776 0.401 C 0.775 0.403 0.774 0.407 0.774 0.411 C 0.774 0.42 0.768 0.432 0.764 0.43 C 0.763 0.43 0.761 0.43 0.761 0.432 C 0.761 0.434 0.761 0.434 0.76 0.433 C 0.759 0.431 0.76 0.393 0.761 0.389 C 0.762 0.386 0.779 0.387 0.778 0.391 Z  M 0.07 0.432 C 0.07 0.431 0.072 0.43 0.073 0.428 C 0.075 0.427 0.077 0.427 0.078 0.429 C 0.079 0.431 0.08 0.433 0.081 0.433 C 0.084 0.433 0.084 0.442 0.08 0.452 C 0.078 0.459 0.077 0.462 0.079 0.467 C 0.08 0.473 0.08 0.475 0.076 0.48 C 0.074 0.484 0.072 0.489 0.072 0.491 C 0.072 0.498 0.069 0.507 0.067 0.505 C 0.066 0.504 0.065 0.505 0.065 0.506 C 0.064 0.509 0.063 0.509 0.062 0.506 C 0.061 0.504 0.06 0.504 0.058 0.506 C 0.051 0.512 0.046 0.512 0.049 0.505 C 0.05 0.504 0.051 0.499 0.051 0.494 C 0.052 0.48 0.052 0.478 0.053 0.478 C 0.054 0.478 0.055 0.478 0.054 0.477 C 0.053 0.476 0.054 0.473 0.055 0.471 C 0.057 0.468 0.058 0.463 0.057 0.457 C 0.057 0.452 0.057 0.448 0.058 0.448 C 0.058 0.448 0.058 0.445 0.058 0.442 C 0.058 0.439 0.058 0.437 0.059 0.437 C 0.06 0.437 0.06 0.435 0.06 0.433 C 0.059 0.43 0.06 0.429 0.061 0.429 C 0.063 0.429 0.064 0.427 0.064 0.425 C 0.064 0.423 0.065 0.424 0.066 0.427 C 0.068 0.43 0.069 0.432 0.07 0.432 Z  M 0.763 0.45 C 0.763 0.453 0.764 0.456 0.765 0.458 C 0.766 0.46 0.766 0.459 0.766 0.456 C 0.765 0.45 0.77 0.45 0.774 0.456 C 0.776 0.46 0.777 0.461 0.776 0.46 C 0.774 0.459 0.774 0.459 0.775 0.462 C 0.777 0.465 0.776 0.467 0.774 0.472 C 0.772 0.477 0.771 0.48 0.772 0.482 C 0.773 0.484 0.773 0.486 0.772 0.488 C 0.77 0.494 0.777 0.496 0.78 0.491 C 0.782 0.488 0.783 0.487 0.783 0.488 C 0.783 0.495 0.771 0.505 0.76 0.508 C 0.751 0.51 0.748 0.513 0.746 0.521 L 0.745 0.527 L 0.744 0.521 C 0.742 0.513 0.738 0.51 0.736 0.515 C 0.734 0.517 0.735 0.518 0.736 0.516 C 0.738 0.514 0.738 0.514 0.737 0.517 C 0.735 0.52 0.735 0.522 0.738 0.526 C 0.741 0.533 0.742 0.541 0.739 0.537 C 0.737 0.535 0.736 0.536 0.734 0.54 C 0.732 0.543 0.732 0.545 0.733 0.544 C 0.734 0.543 0.735 0.543 0.735 0.544 C 0.735 0.545 0.735 0.551 0.736 0.555 C 0.736 0.565 0.737 0.565 0.726 0.566 C 0.725 0.566 0.722 0.569 0.722 0.572 C 0.72 0.578 0.715 0.582 0.713 0.58 C 0.712 0.579 0.713 0.575 0.714 0.571 C 0.715 0.567 0.716 0.559 0.716 0.553 C 0.716 0.543 0.725 0.533 0.727 0.54 C 0.728 0.542 0.729 0.541 0.73 0.538 C 0.732 0.535 0.732 0.534 0.73 0.534 C 0.728 0.534 0.727 0.532 0.727 0.531 C 0.727 0.529 0.727 0.525 0.726 0.522 C 0.726 0.52 0.727 0.517 0.727 0.517 C 0.728 0.517 0.729 0.517 0.728 0.516 C 0.728 0.515 0.728 0.512 0.729 0.51 C 0.73 0.508 0.731 0.503 0.731 0.5 C 0.731 0.496 0.733 0.492 0.736 0.49 C 0.742 0.484 0.754 0.463 0.754 0.458 C 0.754 0.453 0.759 0.447 0.76 0.45 C 0.761 0.451 0.761 0.45 0.761 0.449 C 0.761 0.447 0.761 0.445 0.76 0.444 C 0.759 0.443 0.759 0.443 0.76 0.444 C 0.761 0.444 0.762 0.447 0.763 0.45 Z  M 0.805 0.489 C 0.806 0.489 0.805 0.492 0.804 0.496 C 0.802 0.501 0.802 0.501 0.805 0.499 C 0.807 0.498 0.808 0.499 0.808 0.5 C 0.808 0.504 0.804 0.509 0.803 0.507 C 0.803 0.506 0.802 0.508 0.801 0.512 C 0.799 0.516 0.798 0.517 0.795 0.516 C 0.793 0.515 0.79 0.515 0.789 0.517 C 0.788 0.519 0.786 0.52 0.785 0.519 C 0.785 0.518 0.784 0.52 0.784 0.524 C 0.784 0.527 0.782 0.532 0.78 0.535 C 0.778 0.537 0.775 0.542 0.773 0.545 L 0.77 0.551 L 0.766 0.54 C 0.76 0.525 0.76 0.519 0.768 0.512 C 0.784 0.498 0.788 0.495 0.793 0.49 C 0.798 0.485 0.803 0.485 0.805 0.489 Z  M 0.268 0.63 C 0.267 0.634 0.263 0.638 0.261 0.635 C 0.26 0.633 0.266 0.623 0.267 0.624 C 0.268 0.625 0.268 0.627 0.268 0.63 Z " fill-rule="evenodd" fill="rgb(0,0,0)"/></g></g></svg>