<?xml version="1.0" encoding="UTF-8" standalone="no"?><!-- Generator: Gravit.io --><svg xmlns="http://www.w3.org/2000/svg" xmlns:xlink="http://www.w3.org/1999/xlink" style="isolation:isolate" viewBox="0 0 1 1" width="1pt" height="1pt"><defs><clipPath id="_clipPath_PR7kmn8imUvg76yfPOMzIF5lcPBp5JUv"><rect width="1" height="1"/></clipPath></defs><g clip-path="url(#_clipPath_PR7kmn8imUvg76yfPOMzIF5lcPBp5JUv)"><g><path d=" M 0 0.004 C 0 0.006 0 0.23 0 0.503 L 0.001 0.999 L 0.202 1 C 0.404 1 0.411 1 0.406 0.991 C 0.405 0.988 0.405 0.986 0.406 0.988 C 0.407 0.989 0.408 0.988 0.407 0.985 C 0.406 0.983 0.405 0.981 0.405 0.981 C 0.404 0.981 0.403 0.98 0.403 0.978 C 0.403 0.977 0.404 0.976 0.405 0.977 C 0.407 0.98 0.413 0.976 0.413 0.971 C 0.413 0.969 0.414 0.967 0.415 0.966 C 0.416 0.965 0.415 0.965 0.412 0.966 C 0.41 0.967 0.407 0.966 0.406 0.963 C 0.405 0.961 0.403 0.96 0.403 0.961 C 0.402 0.962 0.402 0.961 0.402 0.959 C 0.402 0.958 0.402 0.956 0.403 0.956 C 0.404 0.956 0.404 0.953 0.403 0.95 C 0.401 0.946 0.401 0.942 0.401 0.941 C 0.402 0.94 0.401 0.939 0.4 0.939 C 0.399 0.939 0.399 0.938 0.399 0.936 C 0.4 0.934 0.401 0.934 0.402 0.937 C 0.403 0.94 0.404 0.939 0.407 0.936 C 0.411 0.931 0.411 0.931 0.408 0.925 C 0.404 0.917 0.405 0.917 0.413 0.916 C 0.42 0.915 0.421 0.916 0.42 0.922 C 0.42 0.923 0.421 0.924 0.422 0.925 C 0.426 0.931 0.429 0.953 0.429 0.983 L 0.429 0.999 L 0.715 0.999 L 1 0.999 L 1 0.5 L 1 0.002 L 0.73 0.001 C 0.557 0 0.458 0.001 0.457 0.003 C 0.454 0.005 0.454 0.006 0.457 0.006 C 0.458 0.006 0.459 0.007 0.459 0.009 C 0.458 0.01 0.457 0.011 0.457 0.01 C 0.456 0.009 0.454 0.011 0.453 0.013 C 0.452 0.016 0.452 0.017 0.453 0.016 C 0.454 0.015 0.455 0.015 0.456 0.017 C 0.456 0.018 0.459 0.02 0.462 0.02 C 0.466 0.02 0.468 0.021 0.468 0.024 C 0.469 0.026 0.47 0.028 0.472 0.027 C 0.473 0.026 0.474 0.027 0.474 0.029 C 0.474 0.031 0.474 0.031 0.475 0.028 C 0.477 0.024 0.477 0.026 0.477 0.032 C 0.477 0.033 0.478 0.033 0.479 0.033 C 0.48 0.032 0.481 0.032 0.481 0.033 C 0.481 0.035 0.483 0.037 0.485 0.038 C 0.486 0.039 0.488 0.041 0.488 0.043 C 0.488 0.048 0.49 0.049 0.492 0.044 C 0.494 0.041 0.494 0.041 0.493 0.044 C 0.493 0.046 0.493 0.048 0.494 0.048 C 0.501 0.049 0.503 0.05 0.506 0.051 C 0.508 0.053 0.508 0.053 0.507 0.05 C 0.505 0.048 0.505 0.047 0.508 0.049 C 0.51 0.05 0.512 0.052 0.513 0.054 C 0.514 0.056 0.514 0.056 0.514 0.053 C 0.514 0.051 0.515 0.052 0.517 0.056 C 0.519 0.061 0.52 0.061 0.521 0.059 C 0.522 0.056 0.522 0.056 0.521 0.057 C 0.52 0.058 0.519 0.057 0.519 0.055 C 0.518 0.053 0.52 0.052 0.524 0.052 C 0.527 0.052 0.529 0.053 0.529 0.054 C 0.529 0.055 0.528 0.058 0.528 0.06 C 0.528 0.062 0.527 0.067 0.524 0.07 C 0.522 0.074 0.521 0.077 0.521 0.079 C 0.521 0.08 0.519 0.085 0.516 0.089 C 0.514 0.094 0.512 0.098 0.512 0.098 C 0.512 0.099 0.512 0.099 0.51 0.099 C 0.509 0.099 0.509 0.098 0.509 0.097 C 0.51 0.095 0.509 0.095 0.508 0.096 C 0.502 0.103 0.493 0.101 0.492 0.091 C 0.49 0.081 0.482 0.077 0.48 0.084 C 0.479 0.087 0.478 0.087 0.476 0.083 C 0.473 0.079 0.473 0.079 0.471 0.082 C 0.469 0.085 0.468 0.086 0.466 0.084 C 0.462 0.08 0.444 0.079 0.438 0.082 C 0.432 0.084 0.43 0.078 0.433 0.07 C 0.439 0.059 0.438 0.048 0.432 0.052 C 0.43 0.053 0.428 0.054 0.429 0.055 C 0.429 0.056 0.429 0.058 0.428 0.06 C 0.427 0.062 0.426 0.068 0.426 0.074 C 0.425 0.086 0.42 0.096 0.416 0.091 C 0.415 0.089 0.412 0.088 0.409 0.087 C 0.407 0.087 0.404 0.086 0.403 0.084 C 0.396 0.074 0.382 0.081 0.383 0.092 C 0.384 0.099 0.384 0.1 0.382 0.097 C 0.38 0.095 0.379 0.095 0.378 0.097 C 0.377 0.098 0.375 0.099 0.374 0.098 C 0.373 0.098 0.372 0.1 0.372 0.104 C 0.371 0.108 0.37 0.11 0.368 0.109 C 0.366 0.109 0.364 0.11 0.364 0.112 C 0.364 0.113 0.362 0.114 0.359 0.113 C 0.355 0.111 0.353 0.112 0.353 0.114 C 0.353 0.119 0.348 0.125 0.345 0.125 C 0.343 0.125 0.339 0.128 0.337 0.131 C 0.332 0.138 0.329 0.138 0.328 0.132 C 0.327 0.129 0.326 0.128 0.324 0.129 C 0.323 0.13 0.322 0.128 0.321 0.125 C 0.321 0.122 0.32 0.12 0.317 0.121 C 0.314 0.122 0.311 0.117 0.314 0.114 C 0.316 0.112 0.317 0.113 0.317 0.116 C 0.318 0.119 0.319 0.12 0.319 0.118 C 0.321 0.113 0.313 0.099 0.309 0.101 C 0.308 0.102 0.306 0.101 0.306 0.1 C 0.306 0.098 0.306 0.098 0.305 0.099 C 0.304 0.1 0.303 0.099 0.302 0.098 C 0.301 0.093 0.297 0.094 0.298 0.099 C 0.299 0.102 0.299 0.103 0.3 0.101 C 0.3 0.099 0.301 0.099 0.304 0.102 C 0.306 0.104 0.308 0.106 0.309 0.106 C 0.309 0.106 0.309 0.106 0.309 0.107 C 0.309 0.108 0.309 0.109 0.309 0.111 C 0.309 0.112 0.309 0.111 0.308 0.109 C 0.305 0.104 0.303 0.105 0.303 0.111 C 0.303 0.113 0.303 0.118 0.302 0.121 C 0.302 0.126 0.303 0.129 0.307 0.134 C 0.313 0.142 0.314 0.144 0.309 0.146 C 0.307 0.147 0.304 0.15 0.303 0.153 C 0.299 0.159 0.269 0.16 0.268 0.154 C 0.266 0.149 0.271 0.136 0.275 0.137 C 0.276 0.138 0.278 0.134 0.281 0.123 C 0.284 0.108 0.291 0.092 0.295 0.092 C 0.296 0.092 0.298 0.087 0.299 0.082 C 0.301 0.075 0.303 0.072 0.305 0.073 C 0.307 0.074 0.307 0.073 0.307 0.071 C 0.306 0.069 0.305 0.068 0.305 0.068 C 0.304 0.069 0.303 0.067 0.303 0.064 C 0.303 0.06 0.302 0.054 0.301 0.051 C 0.299 0.046 0.299 0.044 0.3 0.037 C 0.303 0.028 0.306 0.026 0.307 0.033 C 0.308 0.043 0.311 0.039 0.315 0.022 C 0.316 0.017 0.321 0.015 0.32 0.019 C 0.319 0.03 0.324 0.049 0.327 0.041 C 0.328 0.038 0.329 0.036 0.331 0.036 C 0.332 0.036 0.333 0.035 0.332 0.031 C 0.332 0.029 0.331 0.022 0.331 0.016 C 0.33 0.01 0.329 0.004 0.329 0.003 C 0.327 -0.002 0.001 0 0 0.004 Z  M 0.334 0.005 C 0.334 0.007 0.335 0.012 0.335 0.016 C 0.336 0.022 0.341 0.027 0.344 0.024 C 0.345 0.023 0.345 0.02 0.345 0.017 C 0.343 0.007 0.348 0.011 0.353 0.022 C 0.359 0.035 0.364 0.037 0.368 0.029 C 0.369 0.027 0.372 0.025 0.374 0.025 C 0.379 0.025 0.382 0.019 0.381 0.013 C 0.38 0.007 0.377 0.007 0.376 0.014 C 0.375 0.021 0.365 0.018 0.364 0.01 C 0.363 0.001 0.361 0 0.346 0 C 0.334 0 0.333 0.001 0.334 0.005 Z  M 0.477 0.038 C 0.477 0.039 0.478 0.042 0.478 0.045 C 0.48 0.048 0.48 0.048 0.48 0.045 C 0.48 0.042 0.481 0.042 0.483 0.046 C 0.485 0.049 0.486 0.05 0.486 0.048 C 0.486 0.046 0.485 0.045 0.485 0.045 C 0.484 0.045 0.483 0.043 0.484 0.041 C 0.485 0.039 0.484 0.039 0.482 0.04 C 0.48 0.041 0.478 0.04 0.478 0.038 C 0.477 0.036 0.477 0.036 0.477 0.038 Z  M 0.393 0.049 C 0.39 0.053 0.39 0.053 0.395 0.052 C 0.398 0.052 0.401 0.05 0.401 0.048 C 0.402 0.043 0.397 0.044 0.393 0.049 Z  M 0.313 0.085 C 0.314 0.087 0.315 0.091 0.315 0.094 C 0.315 0.098 0.315 0.099 0.316 0.098 C 0.318 0.094 0.317 0.086 0.314 0.084 C 0.313 0.084 0.312 0.084 0.313 0.085 Z  M 0.303 0.089 C 0.303 0.093 0.308 0.098 0.309 0.096 C 0.31 0.095 0.309 0.093 0.308 0.093 C 0.307 0.092 0.307 0.091 0.307 0.089 C 0.307 0.088 0.307 0.087 0.305 0.087 C 0.304 0.087 0.303 0.088 0.303 0.089 Z  M 0.174 0.175 C 0.175 0.197 0.17 0.196 0.168 0.173 C 0.167 0.163 0.167 0.161 0.17 0.161 C 0.172 0.161 0.173 0.164 0.174 0.175 Z  M 0.271 0.191 C 0.271 0.192 0.271 0.195 0.27 0.197 C 0.269 0.199 0.269 0.201 0.271 0.202 C 0.273 0.203 0.274 0.202 0.275 0.201 C 0.276 0.196 0.284 0.195 0.288 0.198 C 0.293 0.203 0.288 0.208 0.272 0.214 C 0.258 0.22 0.255 0.22 0.255 0.211 C 0.255 0.206 0.258 0.205 0.26 0.21 C 0.261 0.215 0.266 0.209 0.265 0.202 C 0.265 0.194 0.268 0.187 0.271 0.191 Z  M 0.246 0.225 C 0.248 0.225 0.248 0.226 0.247 0.231 C 0.244 0.237 0.242 0.233 0.242 0.224 C 0.242 0.221 0.243 0.22 0.243 0.222 C 0.244 0.224 0.245 0.225 0.246 0.225 Z  M 0.239 0.234 C 0.238 0.241 0.233 0.248 0.23 0.246 C 0.229 0.245 0.227 0.247 0.226 0.251 C 0.225 0.256 0.223 0.258 0.222 0.256 C 0.22 0.254 0.221 0.242 0.223 0.242 C 0.224 0.242 0.225 0.239 0.225 0.236 C 0.225 0.23 0.226 0.229 0.233 0.229 C 0.24 0.228 0.24 0.229 0.239 0.234 Z  M 0.199 0.256 C 0.198 0.258 0.199 0.258 0.201 0.255 C 0.203 0.252 0.205 0.25 0.205 0.251 C 0.205 0.251 0.207 0.255 0.208 0.26 C 0.209 0.265 0.21 0.269 0.21 0.27 C 0.211 0.271 0.208 0.273 0.204 0.275 C 0.2 0.277 0.196 0.281 0.194 0.283 C 0.193 0.286 0.192 0.284 0.192 0.272 C 0.193 0.255 0.194 0.252 0.198 0.252 C 0.201 0.252 0.201 0.252 0.199 0.256 Z  M 0.216 0.26 C 0.217 0.262 0.216 0.263 0.215 0.263 C 0.214 0.263 0.213 0.261 0.214 0.258 C 0.214 0.253 0.216 0.253 0.216 0.26 Z  M 0.18 0.279 C 0.182 0.284 0.183 0.284 0.184 0.282 C 0.187 0.278 0.191 0.277 0.191 0.28 C 0.191 0.285 0.184 0.29 0.182 0.287 C 0.18 0.282 0.179 0.283 0.179 0.29 C 0.179 0.295 0.177 0.296 0.172 0.299 C 0.168 0.301 0.163 0.304 0.161 0.305 C 0.156 0.308 0.159 0.297 0.165 0.292 C 0.167 0.291 0.171 0.285 0.173 0.281 C 0.176 0.271 0.177 0.271 0.18 0.279 Z  M 0.155 0.289 C 0.155 0.292 0.154 0.295 0.153 0.295 C 0.152 0.295 0.152 0.296 0.152 0.298 C 0.154 0.301 0.146 0.333 0.143 0.335 C 0.142 0.335 0.141 0.324 0.142 0.318 C 0.142 0.317 0.142 0.317 0.142 0.316 C 0.141 0.316 0.143 0.313 0.144 0.31 C 0.146 0.308 0.147 0.304 0.147 0.302 C 0.147 0.299 0.147 0.298 0.148 0.298 C 0.149 0.298 0.15 0.296 0.15 0.294 C 0.15 0.292 0.154 0.284 0.156 0.284 C 0.156 0.284 0.155 0.286 0.155 0.289 Z  M 0.776 0.392 C 0.776 0.393 0.774 0.396 0.773 0.398 C 0.772 0.4 0.771 0.404 0.771 0.407 C 0.771 0.414 0.765 0.425 0.764 0.421 C 0.761 0.412 0.762 0.388 0.766 0.386 C 0.77 0.385 0.776 0.388 0.776 0.392 Z  M 0.122 0.391 C 0.122 0.392 0.122 0.397 0.123 0.4 C 0.123 0.404 0.123 0.413 0.122 0.419 C 0.12 0.428 0.121 0.432 0.122 0.437 C 0.126 0.447 0.127 0.464 0.124 0.464 C 0.121 0.464 0.119 0.459 0.12 0.451 C 0.12 0.447 0.119 0.444 0.116 0.442 C 0.114 0.441 0.112 0.436 0.111 0.433 C 0.111 0.429 0.11 0.426 0.109 0.426 C 0.107 0.427 0.103 0.421 0.103 0.417 C 0.103 0.405 0.121 0.381 0.122 0.391 Z  M 0.066 0.428 C 0.066 0.429 0.068 0.431 0.071 0.432 C 0.074 0.433 0.075 0.433 0.073 0.431 C 0.072 0.43 0.071 0.428 0.072 0.427 C 0.073 0.426 0.075 0.427 0.077 0.43 C 0.079 0.432 0.081 0.433 0.081 0.431 C 0.081 0.43 0.082 0.428 0.082 0.428 C 0.085 0.428 0.083 0.451 0.08 0.456 L 0.076 0.461 L 0.08 0.465 L 0.083 0.469 L 0.08 0.476 C 0.078 0.48 0.075 0.484 0.074 0.484 C 0.072 0.484 0.071 0.489 0.071 0.495 C 0.072 0.497 0.062 0.504 0.058 0.505 C 0.056 0.505 0.054 0.505 0.053 0.503 C 0.051 0.501 0.051 0.501 0.053 0.501 C 0.054 0.5 0.055 0.498 0.054 0.495 C 0.054 0.492 0.054 0.489 0.055 0.488 C 0.055 0.487 0.056 0.485 0.055 0.484 C 0.055 0.482 0.055 0.481 0.056 0.48 C 0.057 0.479 0.058 0.473 0.058 0.467 C 0.059 0.46 0.06 0.454 0.06 0.452 C 0.062 0.448 0.062 0.435 0.06 0.433 C 0.059 0.432 0.059 0.43 0.06 0.428 C 0.061 0.425 0.065 0.424 0.066 0.428 Z  M 0.766 0.455 C 0.767 0.454 0.768 0.455 0.768 0.457 C 0.768 0.46 0.767 0.461 0.766 0.46 C 0.765 0.459 0.765 0.46 0.765 0.463 C 0.765 0.465 0.764 0.467 0.763 0.467 C 0.762 0.467 0.762 0.469 0.763 0.473 C 0.764 0.476 0.764 0.48 0.763 0.484 C 0.761 0.492 0.761 0.492 0.772 0.491 C 0.781 0.49 0.783 0.491 0.782 0.494 C 0.781 0.496 0.779 0.497 0.779 0.496 C 0.778 0.496 0.776 0.497 0.774 0.5 C 0.77 0.506 0.756 0.51 0.755 0.506 C 0.753 0.502 0.748 0.506 0.747 0.512 C 0.746 0.516 0.745 0.517 0.741 0.516 L 0.735 0.514 L 0.737 0.522 C 0.74 0.532 0.74 0.54 0.737 0.538 C 0.735 0.536 0.733 0.54 0.733 0.549 C 0.732 0.558 0.732 0.558 0.724 0.56 C 0.714 0.562 0.715 0.544 0.725 0.538 C 0.729 0.536 0.729 0.534 0.727 0.529 C 0.725 0.526 0.728 0.512 0.73 0.512 C 0.731 0.512 0.732 0.508 0.732 0.504 C 0.732 0.495 0.734 0.489 0.738 0.489 C 0.741 0.489 0.753 0.468 0.755 0.46 C 0.756 0.456 0.757 0.454 0.758 0.455 C 0.759 0.456 0.76 0.455 0.76 0.453 C 0.76 0.451 0.76 0.451 0.762 0.453 C 0.763 0.455 0.765 0.456 0.766 0.455 Z  M 0.798 0.498 C 0.798 0.505 0.793 0.508 0.791 0.504 C 0.789 0.5 0.784 0.509 0.781 0.52 C 0.779 0.528 0.768 0.539 0.766 0.535 C 0.762 0.528 0.763 0.518 0.767 0.514 C 0.77 0.512 0.774 0.508 0.777 0.505 C 0.791 0.49 0.799 0.488 0.798 0.498 Z  M 0.442 0.839 C 0.442 0.841 0.443 0.841 0.445 0.84 C 0.446 0.84 0.447 0.84 0.447 0.842 C 0.447 0.844 0.446 0.845 0.445 0.845 C 0.444 0.846 0.442 0.846 0.442 0.847 C 0.441 0.847 0.439 0.847 0.438 0.847 C 0.437 0.848 0.436 0.849 0.437 0.851 C 0.437 0.852 0.437 0.853 0.435 0.853 C 0.434 0.853 0.433 0.851 0.433 0.846 C 0.433 0.842 0.434 0.84 0.434 0.842 C 0.435 0.846 0.438 0.846 0.438 0.841 C 0.438 0.839 0.437 0.837 0.436 0.837 C 0.435 0.837 0.435 0.835 0.435 0.834 C 0.436 0.831 0.442 0.835 0.442 0.839 Z  M 0.43 0.849 C 0.43 0.851 0.429 0.853 0.428 0.853 C 0.426 0.853 0.425 0.855 0.425 0.857 C 0.425 0.86 0.424 0.862 0.423 0.863 C 0.42 0.867 0.419 0.86 0.421 0.851 C 0.424 0.841 0.429 0.84 0.43 0.849 Z  M 0.43 0.872 C 0.429 0.882 0.424 0.894 0.423 0.891 C 0.422 0.89 0.422 0.887 0.423 0.883 C 0.424 0.88 0.425 0.874 0.426 0.871 C 0.427 0.861 0.431 0.863 0.43 0.872 Z  M 0.397 0.954 C 0.397 0.955 0.396 0.955 0.395 0.954 C 0.393 0.954 0.392 0.951 0.392 0.949 C 0.392 0.945 0.393 0.945 0.395 0.948 C 0.396 0.95 0.397 0.952 0.397 0.954 Z  M 0.421 0.97 C 0.421 0.971 0.422 0.972 0.425 0.972 C 0.427 0.972 0.428 0.971 0.427 0.97 C 0.424 0.967 0.422 0.967 0.421 0.97 Z " fill-rule="evenodd" fill="rgb(0,0,0)"/></g></g></svg>