<?xml version="1.0" encoding="UTF-8" standalone="no"?><!-- Generator: Gravit.io --><svg xmlns="http://www.w3.org/2000/svg" xmlns:xlink="http://www.w3.org/1999/xlink" style="isolation:isolate" viewBox="0 0 1 1" width="1pt" height="1pt"><defs><clipPath id="_clipPath_0mcinzy4QJs7l2YSywJaaVc56KsKsWBi"><rect width="1" height="1"/></clipPath></defs><g clip-path="url(#_clipPath_0mcinzy4QJs7l2YSywJaaVc56KsKsWBi)"><g><path d=" M 0.334 0.033 C 0.295 0.05 0.244 0.082 0.222 0.105 C 0.2 0.127 0.165 0.164 0.143 0.186 C 0.122 0.209 0.099 0.227 0.091 0.227 C 0.084 0.227 0.074 0.257 0.068 0.295 C 0.062 0.333 0.052 0.364 0.046 0.364 C -0.015 0.364 -0.015 0.476 0.045 0.558 C 0.08 0.605 0.113 0.659 0.118 0.679 C 0.124 0.699 0.138 0.716 0.151 0.716 C 0.164 0.716 0.174 0.731 0.174 0.75 C 0.175 0.818 0.263 0.902 0.363 0.93 C 0.416 0.945 0.471 0.969 0.485 0.984 C 0.508 1.007 0.516 1.006 0.541 0.976 C 0.558 0.956 0.597 0.939 0.633 0.937 C 0.668 0.936 0.714 0.92 0.735 0.903 C 0.757 0.886 0.789 0.872 0.807 0.872 C 0.824 0.872 0.843 0.856 0.848 0.836 C 0.853 0.816 0.876 0.79 0.898 0.778 C 0.923 0.764 0.938 0.739 0.938 0.714 C 0.938 0.689 0.951 0.669 0.972 0.662 C 1.042 0.64 0.97 0.257 0.882 0.184 C 0.873 0.176 0.844 0.15 0.818 0.125 C 0.691 0.004 0.49 -0.034 0.334 0.033 Z " fill-rule="evenodd" fill="rgb(0,0,0)"/></g></g></svg>