<?xml version="1.0" encoding="UTF-8" standalone="no"?><!-- Generator: Gravit.io --><svg xmlns="http://www.w3.org/2000/svg" xmlns:xlink="http://www.w3.org/1999/xlink" style="isolation:isolate" viewBox="0 0 1 1" width="1pt" height="1pt"><defs><clipPath id="_clipPath_pE8wZ4qoEawn4K1o0fZSig1qEWi0QPb2"><rect width="1" height="1"/></clipPath></defs><g clip-path="url(#_clipPath_pE8wZ4qoEawn4K1o0fZSig1qEWi0QPb2)"><g><path d=" M 0 0.003 C 0 0.005 0 0.23 0 0.503 L 0.001 0.999 L 0.201 0.999 C 0.312 1 0.403 0.999 0.404 0.998 C 0.407 0.995 0.408 0.982 0.405 0.983 C 0.404 0.983 0.404 0.982 0.404 0.981 C 0.405 0.979 0.406 0.978 0.406 0.979 C 0.407 0.98 0.409 0.979 0.411 0.976 C 0.417 0.97 0.42 0.973 0.419 0.986 C 0.419 1.002 0.394 1 0.713 1 L 1 0.999 L 1 0.5 L 1 0.001 L 0.707 0.001 C 0.521 0 0.413 0.001 0.411 0.003 C 0.409 0.005 0.413 0.006 0.434 0.006 C 0.438 0.006 0.44 0.008 0.44 0.009 C 0.439 0.011 0.44 0.011 0.442 0.01 C 0.444 0.008 0.444 0.009 0.442 0.012 C 0.441 0.015 0.441 0.02 0.442 0.024 C 0.442 0.03 0.443 0.031 0.444 0.028 C 0.445 0.025 0.445 0.025 0.445 0.03 C 0.444 0.034 0.444 0.036 0.445 0.036 C 0.447 0.036 0.447 0.042 0.445 0.045 C 0.444 0.046 0.444 0.048 0.446 0.05 C 0.447 0.051 0.447 0.053 0.446 0.053 C 0.445 0.053 0.446 0.054 0.448 0.055 C 0.45 0.057 0.451 0.056 0.452 0.054 C 0.453 0.053 0.453 0.053 0.453 0.057 C 0.453 0.06 0.454 0.061 0.456 0.06 C 0.457 0.059 0.458 0.06 0.457 0.061 C 0.457 0.063 0.457 0.064 0.458 0.064 C 0.459 0.064 0.459 0.066 0.459 0.068 C 0.458 0.072 0.458 0.072 0.461 0.071 C 0.463 0.07 0.464 0.07 0.464 0.072 C 0.464 0.074 0.464 0.075 0.463 0.074 C 0.462 0.073 0.461 0.074 0.461 0.076 C 0.46 0.078 0.459 0.078 0.459 0.076 C 0.457 0.072 0.445 0.071 0.443 0.074 C 0.443 0.076 0.441 0.076 0.438 0.076 C 0.435 0.074 0.435 0.074 0.437 0.071 C 0.439 0.069 0.44 0.064 0.44 0.061 C 0.44 0.057 0.44 0.053 0.441 0.051 C 0.443 0.045 0.44 0.041 0.434 0.043 C 0.431 0.045 0.428 0.046 0.428 0.046 C 0.427 0.046 0.426 0.048 0.425 0.051 C 0.424 0.054 0.422 0.058 0.42 0.061 C 0.418 0.064 0.418 0.064 0.42 0.062 C 0.422 0.06 0.423 0.061 0.421 0.065 C 0.42 0.067 0.418 0.069 0.417 0.068 C 0.416 0.067 0.416 0.069 0.417 0.071 C 0.418 0.076 0.418 0.076 0.415 0.072 C 0.411 0.066 0.406 0.066 0.408 0.071 C 0.408 0.074 0.41 0.074 0.411 0.073 C 0.414 0.072 0.417 0.079 0.415 0.082 C 0.414 0.085 0.403 0.078 0.401 0.073 C 0.399 0.069 0.398 0.069 0.398 0.072 C 0.397 0.075 0.396 0.074 0.393 0.071 C 0.39 0.067 0.389 0.068 0.383 0.08 C 0.379 0.087 0.375 0.094 0.373 0.095 C 0.371 0.096 0.371 0.098 0.371 0.1 C 0.372 0.102 0.371 0.103 0.369 0.103 C 0.367 0.103 0.365 0.104 0.365 0.106 C 0.364 0.108 0.361 0.108 0.358 0.107 C 0.352 0.106 0.351 0.106 0.35 0.112 C 0.349 0.117 0.347 0.119 0.345 0.118 C 0.343 0.117 0.34 0.116 0.337 0.116 C 0.335 0.116 0.333 0.114 0.334 0.112 C 0.334 0.11 0.333 0.108 0.332 0.108 C 0.328 0.107 0.328 0.092 0.331 0.092 C 0.333 0.092 0.333 0.091 0.332 0.089 C 0.33 0.085 0.326 0.088 0.327 0.093 C 0.328 0.098 0.326 0.103 0.323 0.1 C 0.322 0.098 0.322 0.097 0.323 0.097 C 0.327 0.097 0.326 0.074 0.322 0.068 C 0.319 0.064 0.319 0.063 0.321 0.06 C 0.324 0.056 0.323 0.056 0.318 0.06 C 0.313 0.064 0.312 0.064 0.314 0.059 C 0.315 0.054 0.315 0.047 0.312 0.044 C 0.312 0.043 0.312 0.04 0.314 0.038 C 0.318 0.032 0.322 0.036 0.322 0.046 C 0.322 0.052 0.325 0.058 0.327 0.058 C 0.328 0.058 0.328 0.056 0.328 0.054 C 0.328 0.052 0.33 0.049 0.331 0.047 C 0.333 0.046 0.334 0.041 0.334 0.038 C 0.334 0.028 0.345 0.027 0.355 0.036 C 0.361 0.042 0.362 0.042 0.367 0.038 C 0.369 0.035 0.372 0.033 0.373 0.034 C 0.377 0.038 0.387 0.014 0.385 0.007 C 0.384 0.001 0.382 0.002 0.377 0.01 C 0.375 0.014 0.373 0.017 0.372 0.017 C 0.368 0.017 0.366 0.013 0.366 0.007 L 0.366 0 L 0.183 0 C 0.039 0 0.001 0.001 0 0.003 Z  M 0.395 0.043 C 0.393 0.045 0.39 0.047 0.389 0.048 C 0.383 0.051 0.388 0.057 0.395 0.056 C 0.402 0.055 0.403 0.054 0.404 0.049 C 0.405 0.038 0.402 0.036 0.395 0.043 Z  M 0.317 0.051 C 0.317 0.054 0.318 0.056 0.32 0.056 C 0.322 0.056 0.322 0.055 0.32 0.051 C 0.319 0.049 0.318 0.047 0.318 0.047 C 0.318 0.047 0.317 0.049 0.317 0.051 Z  M 0.471 0.056 C 0.471 0.054 0.471 0.053 0.472 0.054 C 0.473 0.056 0.473 0.057 0.472 0.058 C 0.471 0.06 0.469 0.06 0.468 0.059 C 0.468 0.058 0.467 0.059 0.468 0.061 C 0.47 0.065 0.474 0.065 0.475 0.059 C 0.476 0.055 0.476 0.055 0.477 0.06 C 0.478 0.065 0.485 0.068 0.484 0.063 C 0.484 0.062 0.485 0.06 0.486 0.059 C 0.487 0.058 0.487 0.06 0.487 0.064 C 0.486 0.071 0.487 0.071 0.491 0.065 C 0.493 0.062 0.494 0.061 0.493 0.063 C 0.493 0.066 0.493 0.067 0.494 0.067 C 0.5 0.065 0.502 0.067 0.498 0.069 C 0.493 0.072 0.493 0.072 0.499 0.072 C 0.506 0.072 0.506 0.074 0.502 0.08 C 0.501 0.082 0.5 0.083 0.502 0.082 C 0.503 0.08 0.503 0.081 0.503 0.083 C 0.501 0.087 0.492 0.087 0.492 0.083 C 0.492 0.081 0.492 0.077 0.492 0.074 C 0.493 0.07 0.492 0.069 0.49 0.071 C 0.485 0.074 0.478 0.074 0.475 0.072 C 0.473 0.07 0.472 0.071 0.471 0.074 C 0.469 0.081 0.467 0.077 0.466 0.064 C 0.466 0.054 0.466 0.053 0.468 0.056 C 0.47 0.058 0.471 0.058 0.471 0.056 Z  M 0.509 0.062 C 0.509 0.066 0.51 0.067 0.511 0.065 C 0.512 0.062 0.513 0.062 0.515 0.065 C 0.517 0.068 0.517 0.07 0.516 0.071 C 0.515 0.072 0.514 0.071 0.514 0.07 C 0.514 0.068 0.514 0.067 0.513 0.067 C 0.512 0.067 0.511 0.069 0.512 0.071 C 0.512 0.073 0.512 0.075 0.511 0.075 C 0.51 0.075 0.508 0.071 0.507 0.065 C 0.506 0.06 0.506 0.056 0.507 0.056 C 0.507 0.056 0.508 0.058 0.509 0.062 Z  M 0.335 0.07 C 0.335 0.071 0.332 0.072 0.33 0.071 C 0.328 0.071 0.327 0.072 0.327 0.074 C 0.327 0.078 0.331 0.078 0.334 0.074 C 0.336 0.072 0.336 0.073 0.334 0.078 C 0.333 0.081 0.333 0.085 0.334 0.085 C 0.334 0.086 0.334 0.086 0.334 0.084 C 0.334 0.082 0.335 0.081 0.336 0.081 C 0.337 0.082 0.338 0.08 0.338 0.078 C 0.337 0.075 0.337 0.072 0.337 0.07 C 0.337 0.066 0.337 0.066 0.335 0.07 Z  M 0.422 0.079 C 0.422 0.083 0.42 0.089 0.419 0.087 C 0.416 0.085 0.417 0.078 0.42 0.078 C 0.421 0.078 0.422 0.078 0.422 0.079 Z  M 0.332 0.103 C 0.331 0.105 0.332 0.106 0.333 0.104 C 0.335 0.102 0.34 0.109 0.338 0.112 C 0.337 0.113 0.338 0.113 0.34 0.112 C 0.341 0.111 0.342 0.109 0.342 0.108 C 0.342 0.106 0.342 0.106 0.341 0.107 C 0.34 0.108 0.339 0.106 0.338 0.104 C 0.335 0.099 0.333 0.099 0.332 0.103 Z  M 0.293 0.122 C 0.298 0.132 0.297 0.136 0.287 0.136 C 0.28 0.136 0.278 0.14 0.283 0.145 C 0.289 0.153 0.288 0.156 0.278 0.156 C 0.27 0.156 0.269 0.155 0.269 0.15 C 0.269 0.145 0.27 0.143 0.274 0.144 C 0.276 0.145 0.281 0.136 0.281 0.132 C 0.281 0.114 0.286 0.111 0.293 0.122 Z  M 0.173 0.177 C 0.173 0.188 0.173 0.191 0.171 0.19 C 0.169 0.189 0.167 0.168 0.168 0.163 C 0.17 0.157 0.172 0.164 0.173 0.177 Z  M 0.287 0.199 C 0.288 0.202 0.285 0.205 0.278 0.207 C 0.276 0.208 0.274 0.21 0.273 0.211 C 0.271 0.215 0.266 0.209 0.267 0.205 C 0.267 0.202 0.269 0.201 0.272 0.202 C 0.274 0.203 0.277 0.202 0.278 0.199 C 0.28 0.194 0.286 0.194 0.287 0.199 Z  M 0.244 0.219 C 0.244 0.22 0.244 0.223 0.245 0.226 C 0.245 0.229 0.244 0.231 0.243 0.23 C 0.24 0.229 0.239 0.218 0.242 0.218 C 0.243 0.218 0.244 0.218 0.244 0.219 Z  M 0.236 0.234 C 0.236 0.237 0.225 0.25 0.222 0.25 C 0.221 0.25 0.221 0.247 0.223 0.241 C 0.225 0.232 0.236 0.227 0.236 0.234 Z  M 0.204 0.25 C 0.204 0.252 0.205 0.252 0.206 0.252 C 0.207 0.251 0.207 0.255 0.207 0.26 C 0.207 0.267 0.207 0.269 0.205 0.269 C 0.203 0.269 0.201 0.271 0.201 0.272 C 0.198 0.28 0.193 0.277 0.193 0.266 C 0.192 0.252 0.2 0.24 0.204 0.25 Z  M 0.177 0.275 C 0.177 0.276 0.177 0.278 0.178 0.279 C 0.181 0.28 0.171 0.297 0.168 0.297 C 0.165 0.297 0.165 0.295 0.169 0.286 C 0.172 0.281 0.173 0.276 0.173 0.275 C 0.172 0.274 0.173 0.273 0.175 0.273 C 0.176 0.273 0.177 0.274 0.177 0.275 Z  M 0.152 0.294 C 0.151 0.306 0.143 0.325 0.14 0.322 C 0.139 0.32 0.139 0.319 0.14 0.317 C 0.141 0.316 0.142 0.313 0.141 0.31 C 0.14 0.307 0.141 0.306 0.143 0.307 C 0.145 0.309 0.146 0.308 0.145 0.305 C 0.144 0.302 0.145 0.298 0.148 0.293 C 0.152 0.284 0.153 0.284 0.152 0.294 Z  M 0.771 0.393 C 0.771 0.395 0.77 0.396 0.769 0.396 C 0.767 0.396 0.766 0.39 0.768 0.383 C 0.768 0.381 0.771 0.39 0.771 0.393 Z  M 0.116 0.405 C 0.115 0.422 0.112 0.429 0.108 0.424 C 0.103 0.42 0.104 0.406 0.109 0.402 C 0.111 0.401 0.112 0.398 0.112 0.395 C 0.112 0.393 0.113 0.392 0.115 0.392 C 0.117 0.392 0.117 0.394 0.116 0.405 Z  M 0.083 0.444 C 0.083 0.452 0.084 0.459 0.084 0.46 C 0.086 0.462 0.086 0.472 0.084 0.472 C 0.084 0.472 0.082 0.475 0.079 0.479 C 0.077 0.482 0.075 0.484 0.074 0.484 C 0.074 0.484 0.073 0.484 0.073 0.486 C 0.073 0.491 0.067 0.499 0.064 0.499 C 0.059 0.498 0.059 0.498 0.061 0.491 C 0.062 0.488 0.063 0.48 0.063 0.475 C 0.064 0.454 0.068 0.445 0.077 0.446 C 0.083 0.446 0.083 0.446 0.079 0.443 C 0.075 0.44 0.077 0.434 0.081 0.436 C 0.082 0.436 0.083 0.435 0.083 0.433 C 0.083 0.432 0.083 0.431 0.083 0.431 C 0.084 0.431 0.084 0.437 0.083 0.444 Z  M 0.078 0.46 C 0.078 0.462 0.079 0.464 0.08 0.463 C 0.081 0.463 0.081 0.461 0.081 0.46 C 0.081 0.458 0.081 0.457 0.08 0.456 C 0.079 0.456 0.078 0.457 0.078 0.46 Z  M 0.762 0.475 C 0.762 0.477 0.763 0.479 0.764 0.478 C 0.766 0.478 0.766 0.48 0.765 0.486 C 0.765 0.492 0.765 0.495 0.767 0.495 C 0.771 0.495 0.773 0.503 0.769 0.505 C 0.761 0.511 0.758 0.51 0.757 0.504 C 0.757 0.501 0.755 0.496 0.753 0.494 C 0.748 0.49 0.748 0.483 0.754 0.478 C 0.756 0.476 0.758 0.473 0.758 0.472 C 0.758 0.468 0.762 0.471 0.762 0.475 Z  M 0.743 0.5 C 0.743 0.502 0.741 0.503 0.739 0.503 C 0.738 0.503 0.737 0.502 0.737 0.5 C 0.738 0.499 0.739 0.497 0.74 0.497 C 0.742 0.497 0.743 0.499 0.743 0.5 Z  M 0.418 0.939 C 0.418 0.941 0.418 0.947 0.418 0.952 C 0.419 0.965 0.418 0.967 0.411 0.966 C 0.403 0.964 0.399 0.954 0.403 0.949 C 0.404 0.948 0.405 0.944 0.405 0.941 C 0.405 0.938 0.405 0.936 0.406 0.937 C 0.406 0.938 0.408 0.937 0.41 0.935 C 0.414 0.93 0.417 0.932 0.418 0.939 Z " fill-rule="evenodd" fill="rgb(0,0,0)"/></g></g></svg>