<?xml version="1.0" encoding="UTF-8" standalone="no"?><!-- Generator: Gravit.io --><svg xmlns="http://www.w3.org/2000/svg" xmlns:xlink="http://www.w3.org/1999/xlink" style="isolation:isolate" viewBox="0 0 1 1" width="1pt" height="1pt"><defs><clipPath id="_clipPath_c8tLTE3XLKJQuNamnQ9fhu0jvVrp7oQf"><rect width="1" height="1"/></clipPath></defs><g clip-path="url(#_clipPath_c8tLTE3XLKJQuNamnQ9fhu0jvVrp7oQf)"><g><path d=" M 0 0.003 C 0 0.005 0 0.23 0 0.503 L 0.001 1 L 0.5 1 L 1 1 L 1 0.5 L 1 0.001 L 0.501 0 C 0.102 0 0.001 0 0 0.003 Z  M 0.231 0.234 C 0.232 0.237 0.227 0.245 0.225 0.243 C 0.223 0.241 0.227 0.23 0.228 0.23 C 0.229 0.23 0.23 0.232 0.231 0.234 Z  M 0.203 0.248 C 0.208 0.252 0.207 0.264 0.201 0.269 C 0.196 0.272 0.195 0.27 0.192 0.259 C 0.19 0.246 0.195 0.241 0.203 0.248 Z  M 0.176 0.276 C 0.178 0.279 0.177 0.281 0.175 0.285 C 0.171 0.291 0.169 0.289 0.171 0.279 C 0.172 0.271 0.174 0.27 0.176 0.276 Z  M 0.15 0.297 C 0.149 0.302 0.147 0.306 0.144 0.306 C 0.141 0.306 0.142 0.302 0.145 0.295 C 0.149 0.288 0.152 0.289 0.15 0.297 Z  M 0.078 0.458 C 0.078 0.461 0.079 0.462 0.083 0.461 C 0.086 0.461 0.089 0.461 0.09 0.462 C 0.091 0.464 0.082 0.481 0.079 0.481 C 0.079 0.481 0.078 0.482 0.078 0.484 C 0.078 0.485 0.077 0.487 0.076 0.487 C 0.074 0.487 0.073 0.488 0.073 0.489 C 0.073 0.493 0.067 0.496 0.065 0.493 C 0.064 0.492 0.065 0.49 0.066 0.486 C 0.068 0.482 0.069 0.479 0.068 0.471 C 0.067 0.463 0.067 0.46 0.07 0.457 C 0.073 0.452 0.079 0.453 0.078 0.458 Z  M 0.408 0.957 C 0.409 0.96 0.409 0.963 0.408 0.963 C 0.407 0.965 0.403 0.959 0.402 0.955 C 0.401 0.949 0.406 0.951 0.408 0.957 Z  M 0.408 0.985 C 0.41 0.989 0.411 0.992 0.41 0.994 C 0.408 0.997 0.404 0.993 0.403 0.985 C 0.402 0.977 0.404 0.978 0.408 0.985 Z " fill-rule="evenodd" fill="rgb(0,0,0)"/></g></g></svg>