<?xml version="1.0" encoding="UTF-8" standalone="no"?><!-- Generator: Gravit.io --><svg xmlns="http://www.w3.org/2000/svg" xmlns:xlink="http://www.w3.org/1999/xlink" style="isolation:isolate" viewBox="0 0 1 1" width="1pt" height="1pt"><defs><clipPath id="_clipPath_hql6iEqLxIVxzWZejy3UnxN90wC15ZUI"><rect width="1" height="1"/></clipPath></defs><g clip-path="url(#_clipPath_hql6iEqLxIVxzWZejy3UnxN90wC15ZUI)"><g><path d=" M 0 0.003 C 0 0.005 0 0.23 0 0.503 L 0.001 1 L 0.5 1 L 1 1 L 1 0.5 L 1 0.001 L 0.501 0 C 0.102 0 0.001 0 0 0.003 Z  M 0.202 0.248 C 0.206 0.251 0.208 0.256 0.204 0.256 C 0.204 0.256 0.203 0.257 0.204 0.26 C 0.204 0.263 0.203 0.265 0.201 0.267 C 0.195 0.27 0.196 0.271 0.193 0.261 C 0.189 0.247 0.194 0.241 0.202 0.248 Z  M 0.175 0.273 C 0.176 0.273 0.176 0.274 0.176 0.276 C 0.176 0.28 0.171 0.288 0.169 0.285 C 0.169 0.285 0.169 0.281 0.17 0.276 C 0.171 0.272 0.172 0.27 0.173 0.272 C 0.173 0.273 0.174 0.274 0.175 0.273 Z  M 0.152 0.284 C 0.151 0.286 0.15 0.29 0.15 0.294 C 0.15 0.302 0.143 0.311 0.142 0.304 C 0.142 0.302 0.144 0.296 0.146 0.292 C 0.148 0.288 0.15 0.283 0.15 0.281 C 0.15 0.279 0.151 0.278 0.152 0.279 C 0.153 0.281 0.153 0.282 0.152 0.284 Z  M 0.079 0.46 C 0.079 0.463 0.08 0.464 0.081 0.462 C 0.084 0.459 0.091 0.46 0.092 0.464 C 0.092 0.466 0.091 0.467 0.09 0.467 C 0.089 0.467 0.087 0.47 0.085 0.474 C 0.083 0.478 0.081 0.481 0.08 0.481 C 0.079 0.481 0.078 0.483 0.077 0.484 C 0.076 0.489 0.069 0.477 0.068 0.468 C 0.067 0.459 0.069 0.456 0.075 0.456 C 0.078 0.456 0.079 0.457 0.079 0.46 Z " fill-rule="evenodd" fill="rgb(0,0,0)"/></g></g></svg>