<?xml version="1.0" encoding="UTF-8" standalone="no"?><!-- Generator: Gravit.io --><svg xmlns="http://www.w3.org/2000/svg" xmlns:xlink="http://www.w3.org/1999/xlink" style="isolation:isolate" viewBox="0 0 1 1" width="1pt" height="1pt"><defs><clipPath id="_clipPath_BagG9Fqc5UUuxvO0dBuKkZ2G23moOwYq"><rect width="1" height="1"/></clipPath></defs><g clip-path="url(#_clipPath_BagG9Fqc5UUuxvO0dBuKkZ2G23moOwYq)"><g><path d=" M 0 0.003 C 0 0.005 0 0.23 0 0.503 L 0.001 1 L 0.5 1 L 1 1 L 1 0.5 L 1 0.001 L 0.501 0 C 0.102 0 0.001 0 0 0.003 Z  M 0.205 0.252 C 0.204 0.253 0.203 0.255 0.203 0.257 C 0.203 0.261 0.198 0.267 0.196 0.267 C 0.194 0.267 0.191 0.254 0.192 0.251 C 0.194 0.246 0.197 0.245 0.202 0.248 C 0.205 0.25 0.206 0.251 0.205 0.252 Z  M 0.175 0.277 C 0.174 0.284 0.171 0.284 0.171 0.278 C 0.171 0.275 0.171 0.272 0.173 0.272 C 0.174 0.272 0.175 0.274 0.175 0.277 Z  M 0.152 0.286 C 0.151 0.292 0.144 0.304 0.143 0.302 C 0.142 0.301 0.144 0.296 0.147 0.292 C 0.149 0.287 0.151 0.282 0.15 0.28 C 0.15 0.278 0.15 0.278 0.151 0.279 C 0.152 0.28 0.152 0.283 0.152 0.286 Z  M 0.077 0.459 C 0.078 0.46 0.082 0.461 0.086 0.46 L 0.094 0.458 L 0.089 0.466 C 0.087 0.469 0.084 0.473 0.083 0.473 C 0.082 0.473 0.081 0.474 0.08 0.476 C 0.079 0.478 0.08 0.478 0.081 0.477 C 0.082 0.476 0.082 0.477 0.08 0.481 C 0.076 0.486 0.072 0.486 0.074 0.48 C 0.074 0.478 0.073 0.475 0.072 0.473 C 0.069 0.47 0.068 0.461 0.07 0.458 C 0.071 0.455 0.076 0.456 0.077 0.459 Z " fill-rule="evenodd" fill="rgb(0,0,0)"/></g></g></svg>