<?xml version="1.0" encoding="UTF-8" standalone="no"?><!-- Generator: Gravit.io --><svg xmlns="http://www.w3.org/2000/svg" xmlns:xlink="http://www.w3.org/1999/xlink" style="isolation:isolate" viewBox="0 0 1 1" width="1pt" height="1pt"><defs><clipPath id="_clipPath_j1PdLhykZT3V4W7aGA3HHG1suU3pkWAG"><rect width="1" height="1"/></clipPath></defs><g clip-path="url(#_clipPath_j1PdLhykZT3V4W7aGA3HHG1suU3pkWAG)"><g><mask id="_mask_0tyEaVxCkRJcwRwh9DVyc6rVuMQL7TPN" x="-200%" y="-200%" width="400%" height="400%"><rect x="-200%" y="-200%" width="400%" height="400%" style="fill:white;"/><path d=" M 0 1 L 1 1 L 1 0 L 0 0 L 0 1 Z " fill="black" stroke="none"/></mask><path d=" M 0 1 L 1 1 L 1 0 L 0 0 L 0 1 Z " fill="none"/><path d=" M 0 1 L 1 1 L 1 0 L 0 0 L 0 1 Z " fill="none" mask="url(#_mask_0tyEaVxCkRJcwRwh9DVyc6rVuMQL7TPN)" vector-effect="non-scaling-stroke" stroke-width="0" stroke="rgb(0,0,0)" stroke-linejoin="miter" stroke-linecap="butt" stroke-miterlimit="4"/><path d=" M 0.447 0.456 C 0.443 0.458 0.438 0.463 0.436 0.466 C 0.434 0.469 0.43 0.474 0.428 0.478 C 0.426 0.481 0.424 0.483 0.423 0.483 C 0.423 0.483 0.422 0.488 0.421 0.493 C 0.42 0.498 0.419 0.503 0.419 0.503 C 0.413 0.503 0.413 0.519 0.419 0.53 C 0.422 0.537 0.425 0.545 0.426 0.548 C 0.426 0.55 0.428 0.553 0.429 0.553 C 0.43 0.553 0.431 0.555 0.431 0.558 C 0.431 0.567 0.44 0.579 0.449 0.583 C 0.454 0.585 0.46 0.589 0.461 0.591 C 0.463 0.594 0.464 0.594 0.466 0.59 C 0.468 0.587 0.472 0.585 0.475 0.584 C 0.479 0.584 0.483 0.582 0.485 0.579 C 0.487 0.577 0.49 0.575 0.492 0.575 C 0.494 0.575 0.496 0.573 0.496 0.57 C 0.497 0.567 0.499 0.563 0.501 0.562 C 0.503 0.56 0.505 0.556 0.505 0.553 C 0.505 0.549 0.506 0.546 0.508 0.545 C 0.515 0.542 0.508 0.488 0.499 0.477 C 0.498 0.476 0.496 0.472 0.493 0.469 C 0.481 0.452 0.462 0.446 0.447 0.456 Z " fill-rule="evenodd" fill="rgb(0,0,0)"/></g></g></svg>