<?xml version="1.0" encoding="UTF-8" standalone="no"?><!-- Generator: Gravit.io --><svg xmlns="http://www.w3.org/2000/svg" xmlns:xlink="http://www.w3.org/1999/xlink" style="isolation:isolate" viewBox="0 0 1 1" width="1pt" height="1pt"><defs><clipPath id="_clipPath_fPPjhfWDQ60FvP7ZVJpdbEWaKkbsFQPi"><rect width="1" height="1"/></clipPath></defs><g clip-path="url(#_clipPath_fPPjhfWDQ60FvP7ZVJpdbEWaKkbsFQPi)"><g><mask id="_mask_GlzkHBODr2YaJGI0zEhOgNtjbfGrcruj" x="-200%" y="-200%" width="400%" height="400%"><rect x="-200%" y="-200%" width="400%" height="400%" style="fill:white;"/><path d=" M 0 1 L 1 1 L 1 0 L 0 0 L 0 1 Z " fill="black" stroke="none"/></mask><path d=" M 0 1 L 1 1 L 1 0 L 0 0 L 0 1 Z " fill="none"/><path d=" M 0 1 L 1 1 L 1 0 L 0 0 L 0 1 Z " fill="none" mask="url(#_mask_GlzkHBODr2YaJGI0zEhOgNtjbfGrcruj)" vector-effect="non-scaling-stroke" stroke-width="0" stroke="rgb(0,0,0)" stroke-linejoin="miter" stroke-linecap="butt" stroke-miterlimit="4"/><path d=" M 0.472 0.403 C 0.469 0.404 0.465 0.405 0.462 0.404 C 0.459 0.404 0.456 0.404 0.455 0.406 C 0.455 0.407 0.454 0.408 0.453 0.408 C 0.453 0.408 0.443 0.412 0.438 0.415 C 0.433 0.418 0.428 0.423 0.428 0.425 C 0.428 0.427 0.427 0.429 0.425 0.43 C 0.424 0.431 0.42 0.435 0.417 0.44 C 0.408 0.456 0.406 0.458 0.403 0.461 C 0.401 0.463 0.4 0.467 0.398 0.486 C 0.397 0.488 0.396 0.492 0.394 0.496 C 0.392 0.499 0.391 0.503 0.391 0.504 C 0.391 0.506 0.389 0.508 0.388 0.51 C 0.385 0.514 0.382 0.525 0.385 0.525 C 0.385 0.525 0.386 0.527 0.386 0.529 C 0.386 0.534 0.395 0.55 0.398 0.55 C 0.399 0.55 0.4 0.552 0.4 0.555 C 0.4 0.558 0.401 0.562 0.402 0.564 C 0.403 0.566 0.405 0.572 0.406 0.577 C 0.408 0.583 0.409 0.586 0.413 0.588 C 0.417 0.589 0.417 0.59 0.417 0.596 C 0.415 0.603 0.427 0.626 0.434 0.632 C 0.443 0.639 0.454 0.644 0.46 0.644 C 0.466 0.644 0.467 0.646 0.469 0.651 C 0.473 0.66 0.477 0.66 0.481 0.651 C 0.484 0.644 0.485 0.643 0.492 0.643 C 0.504 0.642 0.513 0.637 0.516 0.63 C 0.516 0.628 0.52 0.626 0.525 0.625 C 0.529 0.624 0.532 0.622 0.532 0.621 C 0.533 0.61 0.535 0.605 0.539 0.604 C 0.544 0.602 0.549 0.591 0.548 0.585 C 0.547 0.58 0.548 0.577 0.554 0.572 C 0.561 0.566 0.562 0.561 0.56 0.548 C 0.559 0.542 0.558 0.532 0.557 0.526 C 0.557 0.52 0.556 0.513 0.556 0.511 C 0.554 0.508 0.554 0.502 0.553 0.49 C 0.553 0.486 0.552 0.481 0.55 0.478 C 0.547 0.474 0.543 0.463 0.543 0.458 C 0.543 0.456 0.54 0.452 0.537 0.448 C 0.533 0.444 0.528 0.436 0.525 0.431 C 0.522 0.426 0.519 0.422 0.517 0.422 C 0.516 0.422 0.512 0.42 0.509 0.417 C 0.505 0.414 0.501 0.411 0.499 0.41 C 0.498 0.41 0.494 0.408 0.492 0.406 C 0.486 0.402 0.477 0.4 0.472 0.403 Z " fill-rule="evenodd" fill="rgb(0,0,0)"/></g></g></svg>