<?xml version="1.0" encoding="UTF-8" standalone="no"?><!-- Generator: Gravit.io --><svg xmlns="http://www.w3.org/2000/svg" xmlns:xlink="http://www.w3.org/1999/xlink" style="isolation:isolate" viewBox="0 0 1 1" width="1pt" height="1pt"><defs><clipPath id="_clipPath_hF5rtt8YLSKO73TnmN7aKazTlLciKay1"><rect width="1" height="1"/></clipPath></defs><g clip-path="url(#_clipPath_hF5rtt8YLSKO73TnmN7aKazTlLciKay1)"><g><mask id="_mask_KOXA5mPV9WVmmevzttiYo2kZwQsmHCY3" x="-200%" y="-200%" width="400%" height="400%"><rect x="-200%" y="-200%" width="400%" height="400%" style="fill:white;"/><path d=" M 0 1 L 1 1 L 1 0 L 0 0 L 0 1 Z " fill="black" stroke="none"/></mask><path d=" M 0 1 L 1 1 L 1 0 L 0 0 L 0 1 Z " fill="none"/><path d=" M 0 1 L 1 1 L 1 0 L 0 0 L 0 1 Z " fill="none" mask="url(#_mask_KOXA5mPV9WVmmevzttiYo2kZwQsmHCY3)" vector-effect="non-scaling-stroke" stroke-width="0" stroke="rgb(0,0,0)" stroke-linejoin="miter" stroke-linecap="butt" stroke-miterlimit="4"/><path d=" M 0.482 0.374 C 0.482 0.375 0.477 0.376 0.471 0.376 C 0.46 0.377 0.457 0.378 0.454 0.381 C 0.453 0.382 0.45 0.384 0.448 0.384 C 0.44 0.387 0.438 0.389 0.432 0.393 C 0.428 0.396 0.424 0.4 0.423 0.403 C 0.422 0.406 0.421 0.408 0.419 0.408 C 0.418 0.408 0.417 0.41 0.417 0.412 C 0.417 0.413 0.417 0.414 0.416 0.413 C 0.416 0.412 0.412 0.417 0.409 0.423 C 0.401 0.436 0.392 0.45 0.391 0.45 C 0.388 0.45 0.386 0.459 0.385 0.475 C 0.384 0.48 0.383 0.485 0.383 0.486 C 0.382 0.486 0.38 0.49 0.379 0.495 C 0.377 0.5 0.374 0.507 0.372 0.51 C 0.367 0.517 0.366 0.529 0.37 0.532 C 0.371 0.533 0.372 0.535 0.371 0.536 C 0.371 0.538 0.371 0.539 0.373 0.539 C 0.374 0.539 0.375 0.541 0.375 0.544 C 0.375 0.55 0.379 0.557 0.383 0.559 C 0.385 0.559 0.388 0.568 0.392 0.58 C 0.395 0.592 0.399 0.602 0.4 0.603 C 0.407 0.608 0.409 0.611 0.409 0.618 C 0.409 0.629 0.411 0.637 0.416 0.642 C 0.418 0.644 0.421 0.648 0.421 0.65 C 0.422 0.655 0.432 0.666 0.437 0.668 C 0.439 0.668 0.443 0.67 0.447 0.672 C 0.451 0.674 0.454 0.676 0.455 0.677 C 0.456 0.677 0.46 0.677 0.464 0.677 C 0.47 0.678 0.472 0.679 0.473 0.685 C 0.477 0.697 0.483 0.697 0.488 0.685 C 0.493 0.675 0.494 0.675 0.502 0.675 C 0.514 0.676 0.522 0.672 0.53 0.662 C 0.535 0.655 0.538 0.653 0.544 0.653 C 0.55 0.653 0.552 0.652 0.552 0.648 C 0.552 0.645 0.553 0.641 0.554 0.639 C 0.555 0.637 0.556 0.635 0.556 0.633 C 0.555 0.631 0.557 0.629 0.566 0.623 C 0.571 0.619 0.574 0.609 0.572 0.602 C 0.57 0.596 0.573 0.59 0.58 0.588 C 0.587 0.585 0.589 0.573 0.587 0.559 C 0.585 0.553 0.584 0.54 0.584 0.53 C 0.583 0.52 0.582 0.511 0.581 0.511 C 0.581 0.511 0.58 0.51 0.58 0.508 C 0.579 0.482 0.578 0.474 0.576 0.471 C 0.572 0.468 0.569 0.461 0.569 0.457 C 0.568 0.451 0.563 0.439 0.561 0.437 C 0.559 0.437 0.555 0.43 0.551 0.423 C 0.541 0.408 0.536 0.402 0.532 0.401 C 0.53 0.4 0.528 0.398 0.526 0.396 C 0.523 0.393 0.5 0.379 0.493 0.376 C 0.492 0.376 0.49 0.375 0.487 0.374 C 0.485 0.373 0.483 0.373 0.482 0.374 Z  M 0.006 0.688 C 0.006 0.69 0.005 0.692 0.003 0.692 C 0.001 0.694 0 0.696 0 0.711 C 0 0.728 0.003 0.728 0.003 0.712 C 0.003 0.708 0.004 0.701 0.006 0.697 C 0.007 0.692 0.008 0.688 0.007 0.687 C 0.007 0.686 0.006 0.686 0.006 0.688 Z  M 0.046 0.718 C 0.044 0.728 0.043 0.73 0.041 0.729 C 0.04 0.728 0.038 0.729 0.037 0.731 C 0.036 0.736 0.036 0.753 0.037 0.753 C 0.038 0.753 0.038 0.762 0.038 0.772 C 0.038 0.774 0.036 0.775 0.034 0.775 C 0.029 0.775 0.023 0.781 0.023 0.788 C 0.023 0.793 0.022 0.795 0.019 0.796 C 0.016 0.797 0.014 0.799 0.013 0.8 C 0.013 0.802 0.011 0.803 0.009 0.803 C 0.005 0.803 0.006 0.791 0.011 0.782 C 0.013 0.779 0.014 0.774 0.014 0.771 C 0.014 0.768 0.015 0.764 0.016 0.761 C 0.018 0.753 0.014 0.751 0.012 0.758 C 0.008 0.766 0.004 0.766 0.005 0.758 C 0.006 0.755 0.006 0.753 0.005 0.753 C 0 0.753 0 0.762 0 0.879 L 0.001 0.999 L 0.102 0.999 C 0.209 0.999 0.208 0.999 0.202 0.986 C 0.199 0.98 0.198 0.98 0.195 0.983 C 0.19 0.988 0.187 0.983 0.189 0.975 C 0.191 0.968 0.191 0.963 0.189 0.965 C 0.188 0.966 0.186 0.964 0.183 0.96 L 0.179 0.953 L 0.172 0.965 C 0.163 0.978 0.161 0.977 0.166 0.963 C 0.169 0.953 0.169 0.952 0.166 0.949 C 0.163 0.945 0.167 0.939 0.17 0.943 C 0.172 0.945 0.174 0.936 0.172 0.93 C 0.17 0.925 0.169 0.927 0.158 0.947 C 0.148 0.966 0.135 0.98 0.142 0.965 C 0.144 0.962 0.146 0.956 0.147 0.951 C 0.149 0.945 0.152 0.939 0.155 0.936 C 0.158 0.934 0.16 0.93 0.16 0.928 C 0.161 0.926 0.16 0.926 0.16 0.928 C 0.159 0.929 0.158 0.931 0.156 0.931 C 0.155 0.931 0.153 0.932 0.152 0.933 C 0.151 0.937 0.141 0.937 0.141 0.934 C 0.141 0.929 0.15 0.919 0.154 0.919 C 0.158 0.919 0.159 0.917 0.155 0.909 C 0.154 0.906 0.153 0.902 0.154 0.9 C 0.154 0.899 0.154 0.894 0.153 0.89 C 0.151 0.884 0.151 0.88 0.152 0.878 C 0.152 0.875 0.153 0.869 0.153 0.863 L 0.153 0.851 L 0.147 0.852 C 0.143 0.852 0.139 0.854 0.138 0.856 C 0.136 0.858 0.132 0.861 0.128 0.862 C 0.122 0.863 0.12 0.865 0.115 0.875 C 0.108 0.888 0.104 0.888 0.106 0.876 C 0.108 0.866 0.114 0.857 0.121 0.857 C 0.128 0.857 0.127 0.857 0.123 0.845 C 0.118 0.829 0.126 0.817 0.132 0.832 C 0.135 0.839 0.136 0.839 0.142 0.838 C 0.152 0.835 0.153 0.832 0.148 0.822 C 0.145 0.816 0.144 0.811 0.144 0.806 C 0.145 0.801 0.144 0.8 0.142 0.802 C 0.137 0.806 0.134 0.806 0.134 0.803 C 0.134 0.801 0.136 0.8 0.138 0.8 C 0.14 0.8 0.14 0.799 0.14 0.797 C 0.139 0.795 0.139 0.794 0.141 0.795 C 0.143 0.796 0.143 0.796 0.143 0.793 C 0.142 0.791 0.141 0.79 0.139 0.79 C 0.138 0.791 0.135 0.79 0.133 0.789 L 0.129 0.786 L 0.133 0.781 C 0.135 0.777 0.138 0.776 0.141 0.776 C 0.143 0.777 0.145 0.776 0.146 0.774 C 0.147 0.769 0.143 0.762 0.141 0.767 C 0.141 0.768 0.139 0.769 0.136 0.769 C 0.134 0.769 0.131 0.771 0.13 0.772 C 0.128 0.776 0.121 0.773 0.123 0.769 C 0.123 0.767 0.123 0.767 0.122 0.767 C 0.119 0.771 0.113 0.756 0.115 0.748 C 0.116 0.744 0.115 0.744 0.111 0.746 C 0.107 0.747 0.105 0.746 0.104 0.743 C 0.104 0.741 0.102 0.74 0.097 0.742 C 0.09 0.744 0.089 0.743 0.089 0.737 C 0.089 0.735 0.091 0.733 0.094 0.733 C 0.098 0.733 0.101 0.727 0.099 0.72 C 0.097 0.717 0.097 0.717 0.096 0.72 C 0.096 0.723 0.094 0.724 0.093 0.723 C 0.092 0.722 0.09 0.723 0.09 0.726 C 0.088 0.733 0.083 0.732 0.083 0.724 C 0.083 0.72 0.083 0.718 0.08 0.718 C 0.079 0.718 0.077 0.72 0.077 0.722 C 0.077 0.725 0.078 0.726 0.079 0.726 C 0.081 0.725 0.081 0.726 0.08 0.728 C 0.08 0.73 0.079 0.73 0.077 0.728 C 0.075 0.725 0.075 0.726 0.074 0.731 C 0.071 0.742 0.055 0.729 0.055 0.716 C 0.055 0.711 0.055 0.711 0.057 0.715 C 0.058 0.717 0.061 0.72 0.063 0.721 C 0.064 0.722 0.066 0.724 0.066 0.726 C 0.066 0.728 0.067 0.731 0.069 0.733 C 0.072 0.736 0.072 0.735 0.074 0.722 C 0.074 0.721 0.075 0.719 0.076 0.717 C 0.076 0.715 0.076 0.715 0.073 0.717 C 0.07 0.719 0.069 0.718 0.067 0.715 C 0.066 0.712 0.064 0.71 0.059 0.71 C 0.055 0.71 0.052 0.709 0.051 0.708 C 0.05 0.707 0.048 0.712 0.046 0.718 Z  M 0.151 0.771 C 0.151 0.773 0.153 0.775 0.153 0.775 C 0.155 0.775 0.154 0.769 0.152 0.767 C 0.151 0.767 0.15 0.768 0.151 0.771 Z  M 0.182 0.863 C 0.18 0.864 0.178 0.865 0.177 0.867 C 0.176 0.868 0.174 0.868 0.171 0.868 C 0.165 0.867 0.16 0.872 0.159 0.878 C 0.158 0.886 0.161 0.887 0.169 0.881 C 0.172 0.878 0.175 0.875 0.176 0.876 C 0.179 0.877 0.189 0.872 0.19 0.868 C 0.19 0.865 0.19 0.864 0.189 0.865 C 0.188 0.866 0.188 0.866 0.188 0.864 C 0.188 0.861 0.187 0.861 0.182 0.863 Z  M 0.208 0.889 C 0.208 0.891 0.208 0.894 0.209 0.896 C 0.21 0.898 0.211 0.901 0.21 0.903 C 0.209 0.906 0.209 0.906 0.211 0.903 C 0.212 0.902 0.214 0.901 0.214 0.901 C 0.216 0.904 0.219 0.895 0.218 0.892 C 0.217 0.888 0.209 0.886 0.208 0.889 Z  M 0.209 0.971 C 0.207 0.974 0.208 0.978 0.21 0.978 C 0.211 0.978 0.214 0.981 0.216 0.985 C 0.217 0.99 0.219 0.991 0.219 0.988 C 0.219 0.983 0.21 0.969 0.209 0.971 Z " fill-rule="evenodd" fill="rgb(0,0,0)"/></g></g></svg>