<?xml version="1.0" encoding="UTF-8" standalone="no"?><!-- Generator: Gravit.io --><svg xmlns="http://www.w3.org/2000/svg" xmlns:xlink="http://www.w3.org/1999/xlink" style="isolation:isolate" viewBox="0 0 1 1" width="1pt" height="1pt"><defs><clipPath id="_clipPath_IjyE02PAf3AvE2N8EFB05WZEQcaEtQ0j"><rect width="1" height="1"/></clipPath></defs><g clip-path="url(#_clipPath_IjyE02PAf3AvE2N8EFB05WZEQcaEtQ0j)"><g><mask id="_mask_0DaMc38qTzWz5ULjIf6GmJArxGHozqIj" x="-200%" y="-200%" width="400%" height="400%"><rect x="-200%" y="-200%" width="400%" height="400%" style="fill:white;"/><path d=" M 0 1 L 1 1 L 1 0 L 0 0 L 0 1 Z " fill="black" stroke="none"/></mask><path d=" M 0 1 L 1 1 L 1 0 L 0 0 L 0 1 Z " fill="none"/><path d=" M 0 1 L 1 1 L 1 0 L 0 0 L 0 1 Z " fill="none" mask="url(#_mask_0DaMc38qTzWz5ULjIf6GmJArxGHozqIj)" vector-effect="non-scaling-stroke" stroke-width="0" stroke="rgb(0,0,0)" stroke-linejoin="miter" stroke-linecap="butt" stroke-miterlimit="4"/><path d=" M 0.489 0.336 C 0.488 0.338 0.486 0.338 0.484 0.337 C 0.483 0.337 0.48 0.337 0.478 0.339 C 0.475 0.34 0.473 0.34 0.473 0.339 C 0.471 0.335 0.465 0.335 0.463 0.339 C 0.463 0.34 0.461 0.341 0.46 0.34 C 0.459 0.339 0.458 0.34 0.458 0.341 C 0.458 0.343 0.457 0.344 0.457 0.344 C 0.456 0.344 0.454 0.345 0.452 0.347 C 0.45 0.348 0.448 0.349 0.448 0.348 C 0.448 0.348 0.445 0.349 0.442 0.351 C 0.439 0.353 0.436 0.354 0.435 0.353 C 0.435 0.353 0.434 0.353 0.434 0.355 C 0.434 0.357 0.433 0.358 0.432 0.357 C 0.431 0.356 0.429 0.356 0.428 0.358 C 0.427 0.359 0.425 0.36 0.424 0.36 C 0.422 0.36 0.421 0.363 0.42 0.365 C 0.419 0.368 0.418 0.369 0.417 0.368 C 0.416 0.367 0.415 0.367 0.416 0.368 C 0.417 0.37 0.413 0.379 0.412 0.377 C 0.411 0.377 0.41 0.379 0.409 0.381 C 0.408 0.384 0.406 0.387 0.404 0.387 C 0.403 0.388 0.401 0.389 0.401 0.39 C 0.401 0.394 0.383 0.422 0.382 0.42 C 0.382 0.42 0.38 0.422 0.379 0.426 C 0.377 0.43 0.374 0.433 0.372 0.435 C 0.369 0.437 0.366 0.447 0.368 0.453 C 0.368 0.454 0.368 0.456 0.367 0.456 C 0.367 0.456 0.366 0.458 0.366 0.46 C 0.365 0.477 0.365 0.481 0.362 0.482 C 0.361 0.483 0.359 0.486 0.359 0.488 C 0.359 0.49 0.358 0.493 0.357 0.493 C 0.356 0.494 0.355 0.496 0.356 0.498 C 0.356 0.499 0.356 0.5 0.355 0.5 C 0.354 0.5 0.353 0.501 0.353 0.503 C 0.353 0.505 0.351 0.509 0.349 0.512 C 0.347 0.515 0.345 0.52 0.345 0.522 C 0.345 0.525 0.344 0.528 0.343 0.53 C 0.343 0.532 0.343 0.534 0.345 0.535 C 0.348 0.536 0.348 0.538 0.348 0.542 C 0.347 0.547 0.349 0.549 0.352 0.548 C 0.353 0.547 0.353 0.55 0.353 0.553 C 0.353 0.563 0.362 0.575 0.369 0.575 C 0.37 0.575 0.37 0.576 0.37 0.578 C 0.369 0.579 0.37 0.585 0.371 0.59 C 0.373 0.595 0.376 0.606 0.378 0.614 C 0.382 0.628 0.383 0.63 0.389 0.634 C 0.396 0.637 0.396 0.638 0.396 0.649 C 0.397 0.662 0.4 0.675 0.403 0.675 C 0.406 0.675 0.414 0.689 0.414 0.693 C 0.414 0.702 0.444 0.721 0.464 0.725 C 0.476 0.727 0.477 0.728 0.482 0.737 C 0.487 0.75 0.493 0.751 0.498 0.74 C 0.503 0.726 0.505 0.723 0.51 0.721 C 0.512 0.72 0.514 0.721 0.515 0.722 C 0.516 0.726 0.526 0.726 0.531 0.721 C 0.534 0.718 0.537 0.717 0.538 0.718 C 0.541 0.72 0.551 0.71 0.555 0.702 C 0.558 0.697 0.56 0.696 0.569 0.694 L 0.579 0.693 L 0.583 0.68 C 0.589 0.66 0.591 0.657 0.601 0.656 C 0.606 0.655 0.609 0.639 0.607 0.628 C 0.606 0.622 0.606 0.618 0.607 0.617 C 0.624 0.607 0.63 0.593 0.626 0.573 C 0.625 0.566 0.623 0.553 0.623 0.546 C 0.622 0.538 0.622 0.529 0.621 0.525 C 0.621 0.521 0.62 0.515 0.619 0.512 C 0.618 0.509 0.618 0.506 0.618 0.505 C 0.619 0.504 0.619 0.502 0.618 0.5 C 0.617 0.497 0.616 0.481 0.615 0.465 C 0.615 0.462 0.612 0.458 0.609 0.457 C 0.608 0.457 0.607 0.455 0.607 0.453 C 0.608 0.452 0.607 0.45 0.607 0.45 C 0.605 0.45 0.601 0.436 0.601 0.433 C 0.601 0.431 0.601 0.431 0.6 0.431 C 0.599 0.431 0.599 0.429 0.599 0.427 C 0.6 0.423 0.593 0.412 0.59 0.413 C 0.59 0.414 0.589 0.413 0.589 0.411 C 0.589 0.409 0.588 0.409 0.588 0.409 C 0.587 0.41 0.584 0.406 0.581 0.4 C 0.578 0.394 0.575 0.389 0.575 0.389 C 0.574 0.389 0.571 0.385 0.568 0.38 C 0.564 0.371 0.557 0.366 0.555 0.368 C 0.554 0.369 0.553 0.368 0.553 0.367 C 0.553 0.365 0.552 0.364 0.552 0.365 C 0.551 0.366 0.55 0.366 0.55 0.364 C 0.55 0.362 0.549 0.361 0.549 0.362 C 0.548 0.363 0.546 0.362 0.545 0.36 C 0.544 0.357 0.543 0.356 0.542 0.357 C 0.541 0.358 0.541 0.357 0.541 0.356 C 0.541 0.354 0.539 0.353 0.537 0.354 C 0.535 0.354 0.533 0.354 0.532 0.352 C 0.531 0.351 0.529 0.35 0.526 0.349 C 0.524 0.348 0.522 0.347 0.522 0.347 C 0.521 0.347 0.521 0.347 0.52 0.347 C 0.519 0.347 0.519 0.346 0.519 0.344 C 0.519 0.343 0.518 0.342 0.517 0.343 C 0.516 0.344 0.515 0.343 0.515 0.342 C 0.514 0.341 0.513 0.34 0.511 0.341 C 0.509 0.342 0.508 0.341 0.508 0.34 C 0.508 0.338 0.507 0.337 0.506 0.337 C 0.495 0.334 0.491 0.334 0.489 0.336 Z  M 0.001 0.655 C 0 0.658 0 0.736 0 0.829 L 0.001 0.999 L 0.111 0.999 C 0.235 1 0.239 1 0.232 0.988 C 0.231 0.985 0.229 0.984 0.228 0.985 C 0.226 0.987 0.22 0.984 0.221 0.981 C 0.221 0.98 0.221 0.976 0.22 0.972 C 0.218 0.962 0.218 0.94 0.22 0.943 C 0.221 0.944 0.222 0.943 0.223 0.942 C 0.223 0.94 0.225 0.939 0.226 0.94 C 0.227 0.941 0.228 0.94 0.228 0.939 C 0.228 0.935 0.223 0.933 0.213 0.932 C 0.207 0.931 0.205 0.931 0.206 0.933 C 0.208 0.935 0.208 0.936 0.207 0.936 C 0.204 0.936 0.201 0.931 0.201 0.924 C 0.2 0.92 0.201 0.917 0.202 0.917 C 0.204 0.917 0.203 0.912 0.201 0.91 C 0.199 0.909 0.197 0.91 0.197 0.911 C 0.196 0.913 0.195 0.914 0.194 0.914 C 0.194 0.913 0.193 0.915 0.192 0.918 C 0.192 0.92 0.193 0.922 0.193 0.922 C 0.196 0.921 0.198 0.922 0.198 0.925 C 0.198 0.926 0.197 0.927 0.195 0.926 C 0.192 0.924 0.192 0.925 0.194 0.929 C 0.195 0.931 0.195 0.933 0.194 0.933 C 0.193 0.933 0.192 0.931 0.191 0.928 C 0.191 0.925 0.19 0.923 0.188 0.924 C 0.186 0.925 0.184 0.923 0.183 0.921 C 0.18 0.915 0.179 0.915 0.174 0.923 C 0.172 0.927 0.169 0.93 0.168 0.929 C 0.167 0.927 0.171 0.917 0.178 0.907 C 0.182 0.902 0.184 0.897 0.184 0.895 C 0.183 0.894 0.184 0.89 0.185 0.886 C 0.188 0.881 0.188 0.88 0.185 0.874 C 0.183 0.868 0.183 0.867 0.185 0.866 C 0.189 0.863 0.191 0.852 0.188 0.855 C 0.186 0.856 0.186 0.856 0.186 0.854 C 0.187 0.853 0.184 0.848 0.181 0.843 C 0.178 0.837 0.175 0.83 0.175 0.828 C 0.175 0.825 0.174 0.822 0.174 0.821 C 0.173 0.82 0.172 0.814 0.171 0.807 C 0.17 0.8 0.169 0.794 0.169 0.794 C 0.168 0.794 0.166 0.791 0.165 0.787 C 0.164 0.783 0.162 0.779 0.161 0.78 C 0.16 0.78 0.159 0.779 0.159 0.778 C 0.159 0.776 0.159 0.775 0.158 0.776 C 0.155 0.779 0.156 0.771 0.159 0.763 C 0.163 0.753 0.163 0.746 0.161 0.748 C 0.159 0.749 0.157 0.745 0.156 0.739 C 0.153 0.728 0.152 0.724 0.155 0.726 C 0.155 0.727 0.156 0.727 0.157 0.725 C 0.158 0.721 0.154 0.723 0.151 0.728 C 0.148 0.731 0.148 0.731 0.149 0.728 C 0.15 0.725 0.15 0.725 0.149 0.726 C 0.145 0.73 0.147 0.742 0.152 0.745 C 0.154 0.746 0.156 0.749 0.155 0.75 C 0.155 0.752 0.154 0.752 0.153 0.751 C 0.152 0.751 0.15 0.752 0.147 0.754 C 0.142 0.759 0.138 0.76 0.138 0.756 C 0.138 0.754 0.136 0.753 0.134 0.753 C 0.132 0.752 0.131 0.752 0.132 0.751 C 0.133 0.75 0.134 0.748 0.134 0.747 C 0.134 0.745 0.134 0.745 0.133 0.746 C 0.131 0.747 0.131 0.747 0.132 0.744 C 0.135 0.736 0.134 0.73 0.13 0.736 C 0.128 0.739 0.121 0.741 0.121 0.738 C 0.121 0.737 0.119 0.732 0.116 0.727 C 0.114 0.722 0.113 0.72 0.114 0.722 C 0.118 0.726 0.118 0.722 0.115 0.717 C 0.114 0.715 0.112 0.714 0.111 0.715 C 0.11 0.717 0.109 0.717 0.11 0.716 C 0.11 0.715 0.108 0.71 0.106 0.705 C 0.103 0.701 0.102 0.696 0.102 0.694 C 0.103 0.692 0.103 0.692 0.102 0.693 C 0.101 0.694 0.1 0.696 0.1 0.698 C 0.1 0.707 0.091 0.714 0.081 0.713 C 0.075 0.713 0.071 0.712 0.071 0.711 C 0.072 0.709 0.071 0.706 0.069 0.703 C 0.067 0.699 0.066 0.695 0.066 0.686 C 0.066 0.68 0.066 0.675 0.065 0.675 C 0.065 0.675 0.064 0.676 0.064 0.678 C 0.064 0.679 0.063 0.681 0.061 0.681 C 0.059 0.681 0.058 0.682 0.057 0.685 C 0.057 0.687 0.055 0.689 0.054 0.689 C 0.049 0.687 0.047 0.689 0.047 0.693 C 0.048 0.696 0.048 0.697 0.047 0.696 C 0.046 0.694 0.045 0.696 0.046 0.699 C 0.047 0.704 0.046 0.706 0.044 0.707 C 0.042 0.708 0.041 0.71 0.041 0.711 C 0.042 0.713 0.041 0.717 0.039 0.721 C 0.037 0.725 0.036 0.73 0.036 0.732 C 0.036 0.733 0.035 0.738 0.034 0.743 C 0.031 0.751 0.033 0.761 0.036 0.761 C 0.038 0.761 0.038 0.769 0.036 0.77 C 0.033 0.77 0.032 0.77 0.029 0.768 C 0.027 0.766 0.027 0.768 0.027 0.775 C 0.027 0.78 0.026 0.783 0.024 0.783 C 0.023 0.783 0.021 0.784 0.019 0.785 C 0.017 0.787 0.017 0.786 0.018 0.775 C 0.019 0.768 0.019 0.758 0.019 0.752 C 0.019 0.746 0.02 0.739 0.02 0.736 C 0.022 0.73 0.022 0.73 0.018 0.735 C 0.013 0.741 0.009 0.736 0.01 0.725 C 0.011 0.72 0.011 0.715 0.01 0.713 C 0.008 0.71 0.009 0.706 0.012 0.696 C 0.018 0.678 0.019 0.662 0.016 0.658 C 0.014 0.655 0.014 0.655 0.015 0.658 C 0.017 0.663 0.013 0.662 0.01 0.655 C 0.008 0.65 0.007 0.65 0.006 0.653 C 0.005 0.656 0.005 0.656 0.005 0.653 C 0.005 0.648 0.002 0.649 0.001 0.655 Z  M 0.105 0.677 C 0.105 0.679 0.106 0.679 0.109 0.678 C 0.111 0.678 0.113 0.677 0.113 0.676 C 0.113 0.675 0.111 0.675 0.109 0.675 C 0.106 0.675 0.105 0.676 0.105 0.677 Z  M 0.119 0.685 C 0.119 0.691 0.123 0.699 0.125 0.696 C 0.125 0.695 0.125 0.693 0.124 0.692 C 0.123 0.691 0.122 0.688 0.121 0.685 C 0.119 0.679 0.119 0.679 0.119 0.685 Z  M 0.08 0.686 C 0.078 0.689 0.079 0.696 0.082 0.696 C 0.084 0.696 0.086 0.698 0.088 0.701 C 0.09 0.706 0.09 0.706 0.093 0.702 C 0.096 0.697 0.09 0.686 0.086 0.69 C 0.085 0.691 0.084 0.69 0.083 0.688 C 0.083 0.685 0.081 0.684 0.08 0.686 Z  M 0.144 0.698 C 0.142 0.703 0.141 0.705 0.142 0.704 C 0.144 0.702 0.144 0.702 0.142 0.706 C 0.14 0.712 0.144 0.72 0.148 0.718 C 0.149 0.717 0.15 0.718 0.149 0.719 C 0.148 0.724 0.151 0.725 0.154 0.72 C 0.157 0.717 0.157 0.716 0.154 0.718 C 0.153 0.719 0.152 0.718 0.152 0.717 C 0.153 0.715 0.154 0.714 0.156 0.714 C 0.157 0.714 0.158 0.711 0.158 0.702 C 0.157 0.695 0.157 0.693 0.157 0.697 C 0.156 0.703 0.156 0.703 0.152 0.699 C 0.15 0.696 0.149 0.695 0.148 0.698 C 0.148 0.7 0.147 0.7 0.146 0.699 C 0.145 0.698 0.146 0.695 0.147 0.693 C 0.148 0.691 0.148 0.689 0.148 0.689 C 0.147 0.689 0.145 0.693 0.144 0.698 Z  M 0.12 0.708 C 0.117 0.71 0.117 0.71 0.12 0.712 C 0.125 0.714 0.125 0.713 0.124 0.709 C 0.123 0.708 0.121 0.707 0.12 0.708 Z  M 0.107 0.819 C 0.109 0.825 0.109 0.828 0.105 0.828 C 0.101 0.828 0.097 0.82 0.098 0.816 C 0.099 0.812 0.105 0.814 0.107 0.819 Z  M 0.162 0.836 C 0.163 0.845 0.16 0.849 0.159 0.844 C 0.158 0.842 0.157 0.842 0.156 0.845 C 0.155 0.849 0.136 0.851 0.135 0.847 C 0.133 0.842 0.137 0.838 0.144 0.838 C 0.148 0.837 0.152 0.836 0.154 0.834 C 0.155 0.832 0.156 0.831 0.156 0.832 C 0.156 0.833 0.16 0.83 0.162 0.828 C 0.162 0.828 0.162 0.831 0.162 0.836 Z  M 0.19 0.865 C 0.189 0.869 0.189 0.874 0.19 0.875 C 0.191 0.877 0.192 0.874 0.192 0.868 C 0.192 0.856 0.191 0.856 0.19 0.865 Z  M 0.212 0.89 C 0.209 0.897 0.209 0.908 0.212 0.908 C 0.213 0.908 0.215 0.909 0.216 0.91 C 0.218 0.911 0.221 0.909 0.223 0.907 C 0.225 0.903 0.225 0.903 0.223 0.904 C 0.219 0.906 0.218 0.898 0.22 0.892 C 0.223 0.884 0.215 0.882 0.212 0.89 Z  M 0.174 0.894 C 0.174 0.896 0.174 0.898 0.175 0.899 C 0.176 0.9 0.176 0.902 0.174 0.905 C 0.172 0.907 0.17 0.91 0.17 0.913 C 0.17 0.919 0.168 0.917 0.166 0.91 C 0.164 0.903 0.164 0.902 0.168 0.896 C 0.172 0.89 0.176 0.889 0.174 0.894 Z  M 0.19 0.934 C 0.189 0.935 0.19 0.938 0.191 0.939 C 0.192 0.94 0.193 0.946 0.193 0.952 C 0.193 0.958 0.193 0.961 0.193 0.959 C 0.192 0.957 0.191 0.956 0.19 0.957 C 0.19 0.958 0.189 0.958 0.189 0.956 C 0.19 0.955 0.189 0.951 0.187 0.947 C 0.184 0.939 0.185 0.931 0.189 0.931 C 0.19 0.931 0.19 0.932 0.19 0.934 Z  M 0.198 0.943 C 0.197 0.949 0.196 0.95 0.195 0.946 C 0.194 0.942 0.194 0.94 0.196 0.938 C 0.197 0.937 0.198 0.934 0.197 0.932 C 0.197 0.93 0.197 0.93 0.198 0.932 C 0.2 0.935 0.2 0.937 0.198 0.943 Z  M 0.197 0.975 C 0.195 0.978 0.193 0.98 0.193 0.98 C 0.191 0.977 0.194 0.964 0.195 0.965 C 0.196 0.966 0.197 0.965 0.197 0.963 C 0.197 0.961 0.198 0.961 0.199 0.964 C 0.2 0.968 0.199 0.971 0.197 0.975 Z " fill-rule="evenodd" fill="rgb(0,0,0)"/></g></g></svg>