<?xml version="1.0" encoding="UTF-8" standalone="no"?><!-- Generator: Gravit.io --><svg xmlns="http://www.w3.org/2000/svg" xmlns:xlink="http://www.w3.org/1999/xlink" style="isolation:isolate" viewBox="0 0 1 1" width="1pt" height="1pt"><defs><clipPath id="_clipPath_fjEbOkV7OecrgLybO5uXcgvuSHCkkgUD"><rect width="1" height="1"/></clipPath></defs><g clip-path="url(#_clipPath_fjEbOkV7OecrgLybO5uXcgvuSHCkkgUD)"><g><path d=" M 0.001 0.002 C -0.001 0.005 0 0.304 0.002 0.308 C 0.003 0.312 0.003 0.312 0.003 0.309 C 0.003 0.306 0.004 0.306 0.006 0.307 C 0.007 0.308 0.008 0.308 0.007 0.307 C 0.007 0.306 0.008 0.303 0.009 0.301 C 0.011 0.299 0.011 0.297 0.01 0.297 C 0.009 0.297 0.008 0.295 0.008 0.292 C 0.008 0.282 0.01 0.286 0.013 0.301 C 0.015 0.313 0.016 0.316 0.019 0.316 C 0.024 0.317 0.025 0.322 0.021 0.322 C 0.02 0.322 0.019 0.324 0.019 0.325 C 0.019 0.327 0.02 0.328 0.022 0.328 C 0.023 0.328 0.025 0.329 0.026 0.331 C 0.027 0.333 0.028 0.332 0.028 0.328 C 0.03 0.321 0.03 0.321 0.032 0.326 C 0.034 0.331 0.034 0.332 0.032 0.333 C 0.029 0.334 0.029 0.343 0.032 0.345 C 0.033 0.346 0.035 0.345 0.037 0.343 C 0.039 0.341 0.04 0.339 0.041 0.339 C 0.041 0.338 0.043 0.339 0.044 0.341 C 0.045 0.343 0.047 0.343 0.048 0.342 C 0.049 0.341 0.052 0.34 0.053 0.341 C 0.056 0.342 0.058 0.339 0.065 0.324 C 0.067 0.318 0.069 0.317 0.073 0.317 C 0.08 0.317 0.09 0.304 0.085 0.301 C 0.084 0.3 0.082 0.301 0.08 0.303 C 0.079 0.306 0.078 0.305 0.078 0.302 C 0.078 0.299 0.079 0.298 0.08 0.299 C 0.081 0.3 0.081 0.299 0.081 0.297 C 0.081 0.296 0.082 0.295 0.083 0.296 C 0.083 0.297 0.084 0.295 0.083 0.292 C 0.083 0.289 0.084 0.286 0.085 0.285 C 0.089 0.283 0.092 0.286 0.093 0.293 C 0.094 0.298 0.095 0.299 0.096 0.298 C 0.098 0.297 0.099 0.297 0.098 0.3 C 0.097 0.302 0.098 0.303 0.099 0.303 C 0.101 0.303 0.102 0.301 0.101 0.299 C 0.101 0.297 0.101 0.294 0.102 0.293 C 0.104 0.293 0.105 0.289 0.105 0.285 C 0.105 0.278 0.111 0.27 0.114 0.273 C 0.115 0.274 0.115 0.273 0.114 0.269 C 0.114 0.266 0.115 0.262 0.117 0.258 C 0.119 0.255 0.12 0.251 0.12 0.249 C 0.119 0.246 0.119 0.245 0.12 0.245 C 0.121 0.245 0.122 0.242 0.122 0.229 C 0.122 0.222 0.124 0.22 0.126 0.225 C 0.126 0.227 0.126 0.23 0.125 0.232 C 0.124 0.234 0.124 0.238 0.124 0.241 C 0.125 0.245 0.125 0.245 0.126 0.242 C 0.127 0.24 0.129 0.238 0.13 0.238 C 0.134 0.236 0.137 0.233 0.137 0.23 C 0.137 0.229 0.136 0.228 0.134 0.229 C 0.133 0.23 0.131 0.23 0.13 0.228 C 0.13 0.226 0.131 0.225 0.132 0.225 C 0.134 0.225 0.136 0.218 0.134 0.215 C 0.133 0.213 0.134 0.204 0.137 0.202 C 0.139 0.2 0.14 0.192 0.137 0.192 C 0.137 0.192 0.136 0.19 0.136 0.188 C 0.136 0.185 0.135 0.183 0.134 0.183 C 0.134 0.183 0.133 0.182 0.134 0.18 C 0.134 0.178 0.133 0.174 0.132 0.172 C 0.131 0.17 0.13 0.167 0.13 0.165 C 0.13 0.163 0.128 0.159 0.126 0.157 C 0.124 0.154 0.122 0.151 0.123 0.15 C 0.125 0.145 0.131 0.148 0.136 0.156 C 0.139 0.161 0.142 0.163 0.142 0.162 C 0.143 0.158 0.147 0.157 0.147 0.161 C 0.147 0.163 0.146 0.164 0.145 0.164 C 0.144 0.164 0.144 0.165 0.145 0.168 C 0.148 0.173 0.151 0.174 0.152 0.169 C 0.153 0.167 0.152 0.163 0.149 0.16 C 0.146 0.154 0.146 0.152 0.147 0.145 C 0.148 0.14 0.148 0.134 0.148 0.132 C 0.147 0.129 0.148 0.128 0.15 0.128 C 0.152 0.128 0.154 0.126 0.155 0.124 C 0.158 0.118 0.159 0.118 0.163 0.126 C 0.166 0.131 0.166 0.131 0.167 0.127 C 0.168 0.121 0.169 0.121 0.171 0.127 C 0.173 0.131 0.173 0.13 0.174 0.121 C 0.175 0.114 0.176 0.111 0.177 0.112 C 0.179 0.113 0.18 0.112 0.18 0.11 C 0.18 0.109 0.182 0.108 0.183 0.109 C 0.184 0.111 0.184 0.114 0.184 0.117 C 0.183 0.121 0.183 0.122 0.188 0.122 C 0.191 0.122 0.194 0.124 0.194 0.125 C 0.195 0.132 0.204 0.119 0.204 0.111 C 0.204 0.101 0.205 0.098 0.213 0.095 C 0.22 0.091 0.224 0.084 0.219 0.084 C 0.217 0.085 0.217 0.083 0.217 0.079 C 0.218 0.071 0.218 0.071 0.222 0.077 C 0.226 0.084 0.227 0.085 0.226 0.079 C 0.225 0.075 0.23 0.076 0.234 0.081 C 0.236 0.084 0.236 0.085 0.233 0.087 C 0.232 0.089 0.231 0.092 0.232 0.094 C 0.233 0.099 0.236 0.098 0.236 0.093 C 0.236 0.089 0.238 0.088 0.241 0.089 C 0.242 0.089 0.243 0.085 0.242 0.082 C 0.242 0.081 0.243 0.079 0.245 0.077 C 0.247 0.073 0.247 0.072 0.245 0.072 C 0.244 0.072 0.242 0.071 0.241 0.069 C 0.241 0.067 0.241 0.067 0.242 0.068 C 0.243 0.069 0.244 0.068 0.244 0.066 C 0.244 0.064 0.244 0.064 0.245 0.067 C 0.247 0.072 0.25 0.067 0.251 0.055 C 0.252 0.048 0.256 0.044 0.256 0.05 C 0.256 0.052 0.256 0.053 0.255 0.053 C 0.254 0.053 0.253 0.057 0.253 0.061 C 0.253 0.066 0.254 0.069 0.255 0.068 C 0.256 0.067 0.256 0.065 0.255 0.064 C 0.254 0.059 0.259 0.042 0.262 0.043 C 0.263 0.044 0.264 0.046 0.263 0.048 C 0.262 0.051 0.261 0.069 0.262 0.069 C 0.263 0.069 0.266 0.055 0.266 0.051 C 0.266 0.05 0.268 0.049 0.269 0.049 C 0.271 0.049 0.272 0.047 0.272 0.043 C 0.272 0.032 0.275 0.033 0.276 0.045 C 0.277 0.065 0.281 0.055 0.281 0.03 C 0.281 0.023 0.28 0.016 0.28 0.015 C 0.279 0.014 0.278 0.01 0.279 0.007 L 0.28 0 L 0.141 0 C 0.065 0 0.002 0.001 0.001 0.002 Z  M 0.754 0.002 C 0.754 0.003 0.753 0.009 0.752 0.016 C 0.75 0.027 0.748 0.029 0.745 0.028 C 0.744 0.028 0.744 0.028 0.744 0.03 C 0.745 0.031 0.746 0.032 0.747 0.032 C 0.748 0.032 0.748 0.033 0.748 0.035 C 0.748 0.036 0.747 0.037 0.746 0.037 C 0.746 0.036 0.746 0.039 0.747 0.041 C 0.748 0.044 0.75 0.046 0.751 0.045 C 0.751 0.044 0.752 0.045 0.751 0.048 C 0.75 0.051 0.751 0.052 0.752 0.051 C 0.753 0.05 0.755 0.051 0.756 0.053 C 0.756 0.055 0.756 0.056 0.755 0.054 C 0.753 0.053 0.753 0.053 0.754 0.055 C 0.755 0.058 0.764 0.058 0.768 0.055 C 0.77 0.054 0.778 0.064 0.778 0.067 C 0.778 0.069 0.777 0.069 0.776 0.068 C 0.775 0.067 0.776 0.07 0.777 0.074 C 0.78 0.084 0.777 0.094 0.773 0.091 C 0.769 0.088 0.768 0.098 0.772 0.103 C 0.774 0.107 0.776 0.107 0.781 0.106 C 0.787 0.104 0.787 0.104 0.789 0.112 C 0.79 0.117 0.791 0.119 0.794 0.119 C 0.796 0.119 0.798 0.121 0.798 0.124 C 0.798 0.126 0.797 0.128 0.797 0.128 C 0.796 0.128 0.796 0.13 0.797 0.134 C 0.798 0.138 0.798 0.139 0.797 0.138 C 0.796 0.137 0.795 0.138 0.795 0.141 C 0.795 0.144 0.794 0.147 0.791 0.149 L 0.787 0.151 L 0.791 0.155 C 0.793 0.157 0.794 0.157 0.793 0.156 C 0.792 0.154 0.793 0.153 0.795 0.153 C 0.796 0.153 0.797 0.154 0.796 0.157 C 0.796 0.16 0.796 0.16 0.798 0.159 C 0.8 0.158 0.8 0.159 0.798 0.165 C 0.795 0.173 0.795 0.177 0.8 0.174 C 0.801 0.172 0.806 0.172 0.81 0.172 C 0.814 0.172 0.819 0.171 0.82 0.17 C 0.823 0.167 0.825 0.167 0.825 0.173 C 0.826 0.176 0.825 0.178 0.823 0.178 C 0.821 0.178 0.82 0.177 0.821 0.174 C 0.822 0.172 0.822 0.172 0.82 0.174 C 0.819 0.177 0.819 0.179 0.82 0.181 C 0.822 0.185 0.828 0.181 0.827 0.175 C 0.826 0.171 0.829 0.171 0.831 0.175 C 0.831 0.177 0.833 0.177 0.834 0.177 C 0.837 0.174 0.839 0.181 0.837 0.186 C 0.835 0.19 0.834 0.202 0.834 0.209 C 0.834 0.21 0.836 0.21 0.838 0.208 C 0.84 0.206 0.841 0.206 0.84 0.208 C 0.839 0.21 0.84 0.211 0.842 0.21 C 0.845 0.21 0.846 0.211 0.846 0.213 C 0.845 0.215 0.846 0.216 0.847 0.215 C 0.848 0.214 0.85 0.215 0.851 0.217 C 0.854 0.221 0.861 0.218 0.864 0.211 C 0.867 0.204 0.87 0.206 0.871 0.216 C 0.871 0.221 0.87 0.226 0.868 0.231 C 0.862 0.244 0.868 0.258 0.874 0.247 C 0.876 0.244 0.88 0.247 0.884 0.253 C 0.886 0.256 0.889 0.258 0.891 0.258 C 0.897 0.258 0.902 0.268 0.9 0.278 C 0.898 0.287 0.9 0.291 0.906 0.289 C 0.908 0.289 0.909 0.29 0.909 0.294 C 0.909 0.3 0.913 0.3 0.916 0.293 C 0.917 0.292 0.917 0.292 0.917 0.295 C 0.915 0.303 0.925 0.317 0.932 0.317 C 0.934 0.317 0.938 0.322 0.942 0.329 C 0.946 0.336 0.95 0.342 0.952 0.343 C 0.954 0.343 0.956 0.346 0.957 0.349 C 0.958 0.352 0.961 0.358 0.964 0.363 C 0.968 0.37 0.969 0.373 0.967 0.376 C 0.965 0.38 0.965 0.388 0.967 0.391 C 0.969 0.392 0.969 0.391 0.968 0.389 C 0.967 0.386 0.967 0.386 0.969 0.388 C 0.97 0.39 0.973 0.392 0.976 0.392 C 0.979 0.392 0.982 0.394 0.984 0.397 C 0.986 0.401 0.987 0.402 0.989 0.4 C 0.99 0.397 0.991 0.398 0.992 0.403 C 0.994 0.412 0.993 0.414 0.988 0.414 C 0.982 0.414 0.98 0.419 0.98 0.427 C 0.98 0.434 0.982 0.435 0.989 0.43 C 0.991 0.429 0.995 0.427 0.996 0.428 L 1 0.428 L 1 0.215 L 0.999 0.001 L 0.877 0.001 C 0.81 0 0.755 0.001 0.754 0.002 Z  M 0.256 0.03 C 0.256 0.032 0.257 0.032 0.259 0.032 C 0.26 0.031 0.261 0.031 0.261 0.033 C 0.261 0.038 0.256 0.041 0.255 0.037 C 0.255 0.035 0.254 0.034 0.253 0.035 C 0.252 0.036 0.252 0.034 0.253 0.032 C 0.254 0.027 0.256 0.026 0.256 0.03 Z  M 0.731 0.048 C 0.729 0.053 0.729 0.058 0.733 0.06 C 0.738 0.063 0.741 0.055 0.737 0.049 C 0.734 0.046 0.733 0.046 0.731 0.048 Z  M 0.241 0.057 C 0.243 0.063 0.242 0.065 0.241 0.063 C 0.24 0.062 0.238 0.064 0.238 0.068 C 0.236 0.076 0.232 0.077 0.231 0.071 C 0.229 0.064 0.229 0.065 0.234 0.063 C 0.237 0.061 0.239 0.059 0.238 0.057 C 0.238 0.055 0.238 0.053 0.239 0.053 C 0.24 0.053 0.241 0.055 0.241 0.057 Z  M 0.244 0.11 C 0.244 0.112 0.245 0.114 0.246 0.114 C 0.248 0.114 0.248 0.112 0.248 0.111 C 0.247 0.105 0.244 0.105 0.244 0.11 Z  M 0.521 0.145 C 0.52 0.149 0.519 0.149 0.518 0.147 C 0.515 0.143 0.509 0.149 0.502 0.159 C 0.499 0.165 0.496 0.166 0.498 0.16 C 0.5 0.156 0.5 0.156 0.498 0.156 C 0.495 0.156 0.493 0.159 0.493 0.165 C 0.493 0.176 0.485 0.169 0.48 0.154 C 0.478 0.149 0.478 0.149 0.475 0.156 C 0.472 0.162 0.472 0.162 0.471 0.158 C 0.47 0.155 0.469 0.153 0.469 0.153 C 0.468 0.153 0.465 0.15 0.463 0.147 C 0.458 0.141 0.45 0.143 0.449 0.15 C 0.448 0.154 0.448 0.154 0.451 0.15 C 0.453 0.146 0.453 0.146 0.451 0.152 C 0.449 0.158 0.449 0.158 0.446 0.153 C 0.445 0.151 0.444 0.15 0.444 0.152 C 0.446 0.157 0.44 0.157 0.438 0.152 C 0.435 0.147 0.407 0.149 0.402 0.154 C 0.4 0.157 0.396 0.158 0.393 0.158 C 0.389 0.157 0.388 0.158 0.388 0.162 C 0.388 0.168 0.38 0.176 0.378 0.173 C 0.377 0.173 0.377 0.174 0.377 0.177 C 0.377 0.186 0.37 0.193 0.367 0.186 C 0.366 0.182 0.364 0.181 0.362 0.181 C 0.359 0.183 0.358 0.18 0.36 0.177 C 0.366 0.167 0.361 0.165 0.356 0.174 C 0.351 0.182 0.351 0.182 0.352 0.176 C 0.352 0.172 0.352 0.17 0.351 0.17 C 0.348 0.17 0.35 0.182 0.354 0.185 C 0.357 0.188 0.357 0.188 0.357 0.184 C 0.356 0.181 0.357 0.181 0.358 0.185 C 0.36 0.188 0.36 0.192 0.36 0.194 C 0.359 0.197 0.359 0.198 0.361 0.196 C 0.363 0.194 0.363 0.194 0.361 0.198 C 0.359 0.201 0.359 0.201 0.358 0.197 C 0.355 0.187 0.344 0.191 0.344 0.202 C 0.344 0.215 0.341 0.219 0.338 0.213 C 0.336 0.211 0.333 0.208 0.331 0.208 C 0.329 0.208 0.326 0.206 0.325 0.204 C 0.324 0.201 0.323 0.201 0.32 0.207 C 0.318 0.211 0.315 0.214 0.314 0.214 C 0.311 0.214 0.311 0.215 0.312 0.219 C 0.315 0.227 0.315 0.227 0.309 0.227 C 0.297 0.227 0.284 0.236 0.276 0.249 C 0.274 0.253 0.27 0.256 0.267 0.257 C 0.263 0.258 0.261 0.255 0.264 0.251 C 0.265 0.251 0.266 0.248 0.266 0.245 C 0.266 0.242 0.265 0.243 0.263 0.248 C 0.261 0.256 0.256 0.255 0.256 0.246 C 0.256 0.24 0.247 0.244 0.243 0.25 C 0.241 0.253 0.239 0.256 0.238 0.256 C 0.237 0.256 0.235 0.257 0.235 0.26 C 0.234 0.265 0.229 0.267 0.226 0.262 C 0.224 0.26 0.223 0.258 0.223 0.257 C 0.223 0.256 0.223 0.256 0.222 0.256 C 0.222 0.257 0.221 0.258 0.221 0.26 C 0.221 0.264 0.214 0.264 0.213 0.261 C 0.213 0.259 0.21 0.262 0.206 0.267 C 0.203 0.272 0.199 0.275 0.198 0.274 C 0.197 0.272 0.197 0.273 0.198 0.277 C 0.2 0.284 0.2 0.288 0.196 0.293 C 0.194 0.296 0.194 0.297 0.196 0.3 C 0.197 0.303 0.198 0.306 0.197 0.307 C 0.197 0.309 0.199 0.31 0.203 0.31 C 0.207 0.31 0.208 0.309 0.208 0.306 C 0.208 0.303 0.208 0.303 0.21 0.306 C 0.212 0.309 0.212 0.308 0.212 0.303 C 0.212 0.3 0.213 0.297 0.214 0.297 C 0.215 0.297 0.215 0.296 0.215 0.295 C 0.214 0.292 0.219 0.289 0.222 0.292 C 0.225 0.293 0.222 0.306 0.219 0.306 C 0.216 0.306 0.203 0.328 0.203 0.332 C 0.203 0.334 0.202 0.338 0.2 0.34 C 0.198 0.343 0.196 0.345 0.197 0.346 C 0.197 0.347 0.197 0.349 0.195 0.352 C 0.194 0.355 0.193 0.358 0.192 0.36 C 0.192 0.361 0.191 0.365 0.19 0.368 C 0.189 0.371 0.189 0.375 0.189 0.376 C 0.189 0.377 0.188 0.38 0.188 0.382 C 0.186 0.386 0.186 0.394 0.188 0.399 C 0.189 0.401 0.189 0.403 0.188 0.403 C 0.187 0.403 0.187 0.406 0.187 0.411 C 0.187 0.415 0.188 0.424 0.188 0.432 C 0.189 0.446 0.191 0.452 0.2 0.46 C 0.202 0.462 0.205 0.465 0.204 0.466 C 0.204 0.473 0.205 0.478 0.21 0.487 C 0.213 0.493 0.215 0.499 0.215 0.5 C 0.214 0.503 0.217 0.505 0.225 0.507 C 0.226 0.507 0.229 0.51 0.231 0.512 C 0.233 0.515 0.235 0.517 0.237 0.517 C 0.238 0.517 0.239 0.518 0.238 0.521 C 0.238 0.524 0.238 0.525 0.239 0.524 C 0.24 0.523 0.241 0.524 0.241 0.526 C 0.241 0.533 0.251 0.545 0.26 0.547 C 0.265 0.549 0.272 0.553 0.275 0.557 C 0.279 0.561 0.284 0.567 0.286 0.569 C 0.289 0.572 0.29 0.575 0.29 0.577 C 0.289 0.58 0.276 0.584 0.275 0.581 C 0.274 0.576 0.269 0.578 0.267 0.583 C 0.265 0.59 0.267 0.592 0.274 0.592 C 0.277 0.592 0.28 0.593 0.28 0.595 C 0.28 0.605 0.283 0.607 0.286 0.599 C 0.29 0.591 0.296 0.592 0.299 0.602 C 0.3 0.607 0.305 0.607 0.313 0.602 C 0.319 0.599 0.319 0.6 0.322 0.605 C 0.323 0.609 0.325 0.611 0.326 0.611 C 0.327 0.611 0.328 0.614 0.328 0.618 C 0.328 0.623 0.329 0.625 0.331 0.625 C 0.333 0.625 0.334 0.627 0.334 0.632 C 0.334 0.636 0.336 0.642 0.339 0.646 C 0.341 0.65 0.343 0.656 0.343 0.658 C 0.342 0.66 0.343 0.661 0.344 0.661 C 0.345 0.661 0.347 0.663 0.348 0.666 C 0.35 0.669 0.35 0.67 0.348 0.67 C 0.343 0.67 0.347 0.701 0.352 0.704 C 0.353 0.705 0.355 0.708 0.356 0.712 L 0.357 0.718 L 0.36 0.711 L 0.362 0.705 L 0.362 0.712 C 0.362 0.717 0.361 0.724 0.36 0.728 C 0.35 0.752 0.355 0.77 0.367 0.756 C 0.369 0.754 0.369 0.752 0.367 0.745 C 0.363 0.731 0.367 0.732 0.377 0.749 C 0.382 0.757 0.387 0.764 0.388 0.764 C 0.39 0.764 0.391 0.765 0.391 0.766 C 0.391 0.767 0.393 0.77 0.395 0.772 C 0.401 0.776 0.399 0.784 0.393 0.782 C 0.391 0.781 0.389 0.782 0.388 0.786 C 0.386 0.79 0.387 0.791 0.391 0.79 C 0.393 0.789 0.397 0.79 0.399 0.793 C 0.402 0.797 0.403 0.797 0.403 0.794 C 0.403 0.792 0.402 0.789 0.401 0.788 C 0.399 0.787 0.398 0.785 0.4 0.783 C 0.403 0.778 0.408 0.788 0.406 0.795 C 0.405 0.8 0.405 0.801 0.407 0.8 C 0.409 0.799 0.41 0.797 0.41 0.794 C 0.409 0.789 0.41 0.79 0.412 0.795 C 0.414 0.798 0.416 0.801 0.416 0.802 C 0.416 0.803 0.417 0.805 0.418 0.808 C 0.419 0.81 0.42 0.813 0.419 0.814 C 0.419 0.816 0.419 0.817 0.42 0.817 C 0.421 0.817 0.422 0.815 0.422 0.812 C 0.421 0.809 0.422 0.807 0.426 0.807 C 0.429 0.806 0.431 0.807 0.431 0.808 C 0.431 0.812 0.437 0.812 0.438 0.808 C 0.438 0.806 0.439 0.807 0.441 0.81 C 0.445 0.817 0.452 0.821 0.451 0.815 C 0.45 0.81 0.45 0.81 0.452 0.815 C 0.453 0.818 0.455 0.819 0.457 0.818 C 0.459 0.816 0.459 0.816 0.456 0.812 C 0.454 0.81 0.453 0.809 0.455 0.81 C 0.458 0.811 0.458 0.811 0.456 0.808 C 0.453 0.799 0.459 0.796 0.464 0.804 C 0.467 0.809 0.468 0.81 0.469 0.808 C 0.471 0.803 0.483 0.802 0.514 0.803 C 0.518 0.803 0.523 0.802 0.526 0.8 C 0.529 0.798 0.53 0.799 0.533 0.803 C 0.535 0.807 0.537 0.808 0.54 0.806 C 0.548 0.801 0.558 0.807 0.558 0.818 C 0.558 0.824 0.558 0.824 0.56 0.819 C 0.561 0.815 0.561 0.813 0.559 0.811 C 0.557 0.809 0.557 0.808 0.559 0.806 C 0.561 0.804 0.561 0.803 0.56 0.803 C 0.559 0.803 0.558 0.801 0.558 0.799 C 0.558 0.797 0.557 0.795 0.555 0.795 C 0.554 0.795 0.553 0.793 0.553 0.792 C 0.553 0.789 0.553 0.789 0.559 0.792 C 0.563 0.794 0.565 0.794 0.566 0.792 C 0.566 0.79 0.568 0.79 0.571 0.792 C 0.573 0.794 0.576 0.794 0.576 0.793 C 0.577 0.792 0.576 0.791 0.575 0.79 C 0.571 0.787 0.587 0.767 0.594 0.767 C 0.595 0.767 0.599 0.761 0.603 0.754 C 0.607 0.748 0.611 0.742 0.613 0.742 C 0.614 0.742 0.616 0.741 0.616 0.739 C 0.616 0.738 0.619 0.735 0.624 0.732 C 0.635 0.726 0.634 0.726 0.639 0.711 C 0.641 0.704 0.643 0.699 0.644 0.701 C 0.646 0.705 0.652 0.698 0.654 0.688 C 0.657 0.677 0.66 0.67 0.662 0.67 C 0.664 0.67 0.666 0.659 0.664 0.657 C 0.663 0.656 0.663 0.654 0.664 0.652 C 0.666 0.65 0.667 0.648 0.667 0.647 C 0.667 0.636 0.669 0.628 0.671 0.628 C 0.672 0.628 0.673 0.626 0.673 0.624 C 0.673 0.622 0.675 0.618 0.677 0.614 C 0.68 0.609 0.681 0.606 0.681 0.599 C 0.68 0.592 0.681 0.588 0.684 0.583 C 0.686 0.58 0.687 0.575 0.687 0.574 C 0.686 0.572 0.688 0.568 0.689 0.565 C 0.691 0.562 0.692 0.558 0.692 0.554 C 0.691 0.55 0.692 0.546 0.694 0.543 C 0.696 0.539 0.696 0.537 0.695 0.532 C 0.694 0.526 0.694 0.524 0.695 0.522 C 0.697 0.52 0.697 0.519 0.695 0.516 C 0.694 0.512 0.694 0.51 0.695 0.508 C 0.696 0.506 0.697 0.503 0.697 0.501 C 0.697 0.493 0.706 0.464 0.708 0.464 C 0.71 0.464 0.711 0.461 0.713 0.447 C 0.713 0.447 0.714 0.443 0.714 0.44 C 0.722 0.403 0.716 0.331 0.705 0.311 C 0.702 0.306 0.694 0.284 0.694 0.281 C 0.694 0.277 0.693 0.277 0.692 0.28 C 0.691 0.283 0.69 0.281 0.687 0.275 C 0.685 0.269 0.681 0.261 0.678 0.256 C 0.673 0.246 0.672 0.237 0.675 0.231 C 0.677 0.228 0.676 0.221 0.673 0.224 C 0.673 0.224 0.671 0.223 0.67 0.221 C 0.668 0.216 0.664 0.216 0.663 0.221 C 0.662 0.227 0.657 0.226 0.654 0.22 C 0.651 0.214 0.651 0.206 0.653 0.206 C 0.654 0.206 0.655 0.204 0.655 0.202 C 0.655 0.199 0.654 0.198 0.652 0.199 C 0.651 0.2 0.65 0.203 0.65 0.206 C 0.65 0.211 0.646 0.211 0.644 0.206 C 0.643 0.204 0.642 0.203 0.641 0.204 C 0.64 0.205 0.639 0.205 0.639 0.203 C 0.639 0.201 0.638 0.2 0.636 0.201 C 0.633 0.203 0.63 0.2 0.628 0.191 C 0.627 0.186 0.626 0.183 0.624 0.184 C 0.618 0.189 0.611 0.189 0.611 0.186 C 0.611 0.184 0.61 0.183 0.61 0.184 C 0.609 0.185 0.608 0.185 0.607 0.183 C 0.606 0.181 0.605 0.181 0.605 0.182 C 0.605 0.182 0.602 0.181 0.598 0.179 C 0.594 0.177 0.586 0.174 0.579 0.174 C 0.571 0.173 0.566 0.171 0.565 0.168 C 0.562 0.164 0.555 0.162 0.555 0.166 C 0.555 0.172 0.548 0.174 0.546 0.168 C 0.545 0.164 0.543 0.162 0.539 0.162 C 0.53 0.162 0.53 0.162 0.53 0.155 C 0.53 0.142 0.53 0.14 0.527 0.14 C 0.525 0.139 0.523 0.142 0.521 0.145 Z  M 0.527 0.164 C 0.526 0.166 0.523 0.159 0.524 0.155 C 0.525 0.153 0.526 0.153 0.527 0.157 C 0.527 0.16 0.527 0.163 0.527 0.164 Z  M 0.146 0.197 C 0.146 0.199 0.147 0.2 0.147 0.2 C 0.149 0.2 0.149 0.196 0.147 0.195 C 0.146 0.194 0.145 0.195 0.146 0.197 Z  M 0.15 0.208 C 0.148 0.211 0.15 0.216 0.154 0.214 C 0.156 0.213 0.156 0.212 0.154 0.209 C 0.153 0.207 0.151 0.207 0.15 0.208 Z  M 0.83 0.214 C 0.83 0.216 0.83 0.216 0.831 0.215 C 0.832 0.214 0.833 0.215 0.833 0.216 C 0.833 0.217 0.834 0.219 0.836 0.219 C 0.838 0.219 0.839 0.218 0.839 0.216 C 0.838 0.212 0.83 0.21 0.83 0.214 Z  M 0.834 0.225 C 0.835 0.228 0.841 0.228 0.841 0.224 C 0.841 0.223 0.839 0.222 0.837 0.222 C 0.834 0.222 0.833 0.223 0.834 0.225 Z  M 0.182 0.293 C 0.178 0.301 0.177 0.303 0.18 0.303 C 0.182 0.303 0.183 0.302 0.183 0.3 C 0.183 0.298 0.184 0.298 0.184 0.299 C 0.185 0.3 0.186 0.297 0.186 0.293 C 0.186 0.285 0.186 0.285 0.182 0.293 Z  M 0.229 0.291 C 0.228 0.293 0.227 0.294 0.227 0.293 C 0.226 0.291 0.225 0.289 0.224 0.288 C 0.224 0.287 0.224 0.286 0.226 0.286 C 0.229 0.286 0.229 0.287 0.229 0.291 Z  M 0.707 0.506 C 0.704 0.51 0.701 0.514 0.7 0.514 C 0.698 0.514 0.698 0.519 0.7 0.521 C 0.704 0.526 0.708 0.525 0.707 0.521 C 0.707 0.519 0.707 0.518 0.709 0.518 C 0.71 0.518 0.712 0.516 0.712 0.514 C 0.712 0.512 0.713 0.508 0.713 0.505 C 0.715 0.497 0.711 0.497 0.707 0.506 Z  M 0.081 0.554 C 0.08 0.562 0.08 0.565 0.083 0.565 C 0.086 0.565 0.087 0.586 0.084 0.588 C 0.079 0.591 0.076 0.584 0.079 0.575 C 0.08 0.571 0.081 0.567 0.08 0.566 C 0.078 0.563 0.074 0.574 0.075 0.581 C 0.075 0.586 0.074 0.591 0.07 0.597 C 0.068 0.602 0.066 0.607 0.066 0.609 C 0.067 0.611 0.067 0.613 0.065 0.614 C 0.064 0.616 0.064 0.617 0.066 0.617 C 0.069 0.617 0.069 0.617 0.067 0.619 C 0.066 0.621 0.064 0.621 0.063 0.62 C 0.062 0.62 0.061 0.621 0.061 0.623 C 0.061 0.625 0.06 0.629 0.06 0.632 C 0.06 0.637 0.06 0.636 0.063 0.63 C 0.067 0.622 0.076 0.617 0.077 0.623 C 0.078 0.624 0.077 0.629 0.075 0.633 C 0.073 0.636 0.072 0.641 0.073 0.643 C 0.073 0.644 0.073 0.645 0.072 0.643 C 0.071 0.642 0.069 0.643 0.068 0.645 C 0.066 0.648 0.065 0.648 0.066 0.645 C 0.068 0.64 0.065 0.641 0.062 0.646 C 0.06 0.649 0.059 0.649 0.059 0.648 C 0.059 0.646 0.058 0.645 0.057 0.645 C 0.056 0.645 0.055 0.646 0.055 0.647 C 0.055 0.649 0.055 0.65 0.056 0.65 C 0.057 0.65 0.058 0.653 0.058 0.656 C 0.058 0.659 0.057 0.661 0.056 0.661 C 0.055 0.661 0.055 0.662 0.055 0.664 C 0.056 0.665 0.056 0.667 0.055 0.668 C 0.054 0.669 0.053 0.669 0.053 0.667 C 0.053 0.664 0.053 0.664 0.051 0.667 C 0.05 0.669 0.049 0.671 0.049 0.673 C 0.05 0.674 0.05 0.675 0.049 0.675 C 0.046 0.675 0.043 0.692 0.044 0.704 C 0.045 0.715 0.045 0.717 0.041 0.724 C 0.037 0.73 0.033 0.747 0.032 0.757 C 0.032 0.763 0.029 0.761 0.028 0.756 C 0.028 0.75 0.029 0.743 0.035 0.724 C 0.036 0.718 0.037 0.714 0.038 0.692 C 0.039 0.681 0.039 0.68 0.037 0.686 C 0.035 0.693 0.033 0.694 0.032 0.687 C 0.031 0.684 0.03 0.68 0.028 0.677 C 0.027 0.674 0.025 0.665 0.024 0.658 C 0.024 0.651 0.023 0.645 0.022 0.645 C 0.021 0.645 0.02 0.642 0.019 0.638 C 0.016 0.628 0.011 0.626 0.008 0.633 L 0.005 0.639 L 0.004 0.633 C 0.001 0.616 0 0.65 0 0.817 L 0.001 0.999 L 0.122 1 C 0.241 1 0.251 1 0.249 0.995 C 0.249 0.993 0.249 0.992 0.25 0.992 C 0.253 0.992 0.251 0.98 0.247 0.976 C 0.24 0.97 0.24 0.968 0.247 0.955 C 0.256 0.94 0.255 0.931 0.246 0.931 C 0.243 0.93 0.238 0.93 0.236 0.93 C 0.232 0.93 0.23 0.928 0.229 0.923 C 0.229 0.919 0.229 0.917 0.23 0.918 C 0.231 0.919 0.231 0.919 0.231 0.917 C 0.231 0.916 0.232 0.915 0.234 0.916 C 0.238 0.918 0.246 0.912 0.244 0.908 C 0.244 0.906 0.244 0.905 0.246 0.907 C 0.248 0.908 0.248 0.907 0.248 0.903 C 0.248 0.898 0.248 0.898 0.245 0.9 C 0.241 0.905 0.24 0.904 0.24 0.895 C 0.239 0.884 0.239 0.883 0.233 0.883 C 0.229 0.882 0.223 0.875 0.223 0.871 C 0.224 0.866 0.223 0.866 0.222 0.87 C 0.221 0.873 0.22 0.873 0.22 0.869 C 0.22 0.866 0.219 0.864 0.218 0.864 C 0.217 0.864 0.216 0.863 0.216 0.862 C 0.216 0.86 0.214 0.859 0.212 0.858 C 0.209 0.856 0.209 0.844 0.212 0.843 C 0.215 0.842 0.215 0.842 0.212 0.844 C 0.21 0.847 0.21 0.847 0.212 0.848 C 0.215 0.848 0.215 0.848 0.212 0.85 C 0.21 0.853 0.212 0.855 0.216 0.853 C 0.217 0.853 0.217 0.855 0.217 0.856 C 0.217 0.858 0.217 0.86 0.218 0.86 C 0.219 0.86 0.22 0.861 0.221 0.862 C 0.224 0.865 0.224 0.865 0.222 0.853 C 0.221 0.845 0.222 0.837 0.225 0.831 C 0.228 0.826 0.226 0.821 0.221 0.82 C 0.218 0.82 0.214 0.817 0.213 0.815 C 0.211 0.81 0.211 0.81 0.212 0.815 C 0.212 0.818 0.212 0.82 0.211 0.819 C 0.209 0.818 0.209 0.816 0.209 0.815 C 0.209 0.813 0.209 0.811 0.208 0.811 C 0.206 0.811 0.206 0.816 0.208 0.818 C 0.209 0.819 0.209 0.821 0.209 0.822 C 0.209 0.826 0.205 0.828 0.204 0.825 C 0.203 0.823 0.203 0.822 0.204 0.824 C 0.205 0.825 0.204 0.82 0.202 0.813 C 0.198 0.8 0.198 0.799 0.202 0.796 C 0.207 0.789 0.205 0.785 0.197 0.785 C 0.193 0.785 0.19 0.785 0.19 0.786 C 0.19 0.787 0.19 0.79 0.189 0.792 C 0.188 0.796 0.187 0.791 0.187 0.783 C 0.187 0.782 0.186 0.782 0.185 0.783 C 0.183 0.784 0.183 0.783 0.183 0.777 C 0.184 0.771 0.184 0.77 0.18 0.769 C 0.177 0.768 0.175 0.769 0.175 0.77 C 0.175 0.771 0.177 0.772 0.179 0.772 C 0.182 0.772 0.183 0.773 0.182 0.776 C 0.179 0.78 0.173 0.774 0.173 0.768 C 0.173 0.765 0.173 0.758 0.173 0.752 C 0.173 0.746 0.173 0.743 0.173 0.744 C 0.174 0.746 0.175 0.745 0.176 0.741 C 0.178 0.736 0.178 0.736 0.176 0.737 C 0.174 0.739 0.174 0.738 0.175 0.734 C 0.176 0.731 0.178 0.729 0.179 0.73 C 0.18 0.731 0.18 0.731 0.179 0.729 C 0.179 0.728 0.179 0.725 0.18 0.723 C 0.182 0.719 0.182 0.719 0.18 0.721 C 0.179 0.722 0.178 0.721 0.178 0.716 C 0.178 0.707 0.174 0.699 0.17 0.701 C 0.169 0.702 0.168 0.701 0.168 0.699 C 0.168 0.697 0.168 0.696 0.169 0.696 C 0.17 0.697 0.17 0.693 0.169 0.688 C 0.168 0.677 0.172 0.664 0.176 0.664 C 0.177 0.664 0.178 0.663 0.177 0.661 C 0.177 0.66 0.177 0.659 0.178 0.659 C 0.179 0.659 0.18 0.653 0.18 0.645 C 0.18 0.63 0.177 0.626 0.174 0.637 C 0.173 0.64 0.172 0.643 0.17 0.644 C 0.169 0.645 0.169 0.644 0.17 0.642 C 0.17 0.639 0.169 0.64 0.167 0.643 L 0.164 0.649 L 0.165 0.643 C 0.168 0.635 0.168 0.631 0.166 0.631 C 0.165 0.631 0.163 0.634 0.162 0.638 C 0.161 0.642 0.16 0.645 0.159 0.644 C 0.158 0.643 0.156 0.643 0.156 0.644 C 0.152 0.651 0.147 0.64 0.15 0.63 C 0.151 0.628 0.151 0.625 0.151 0.625 C 0.15 0.625 0.151 0.621 0.153 0.617 C 0.157 0.607 0.161 0.61 0.16 0.622 C 0.159 0.628 0.159 0.628 0.161 0.625 C 0.162 0.623 0.162 0.618 0.162 0.615 C 0.162 0.607 0.156 0.594 0.155 0.6 C 0.155 0.602 0.154 0.602 0.152 0.6 C 0.15 0.598 0.15 0.597 0.15 0.598 C 0.151 0.6 0.15 0.604 0.147 0.607 C 0.145 0.611 0.144 0.616 0.145 0.618 C 0.145 0.62 0.144 0.623 0.143 0.625 C 0.141 0.628 0.14 0.627 0.139 0.621 C 0.138 0.617 0.137 0.614 0.136 0.614 C 0.135 0.614 0.134 0.613 0.135 0.612 C 0.135 0.603 0.127 0.593 0.121 0.596 C 0.117 0.597 0.115 0.611 0.118 0.611 C 0.119 0.611 0.12 0.614 0.12 0.617 C 0.12 0.62 0.119 0.622 0.118 0.622 C 0.117 0.622 0.116 0.624 0.116 0.627 C 0.116 0.629 0.115 0.631 0.114 0.631 C 0.113 0.631 0.113 0.633 0.113 0.635 C 0.114 0.638 0.116 0.639 0.12 0.638 C 0.124 0.637 0.125 0.638 0.124 0.643 C 0.124 0.652 0.12 0.667 0.119 0.667 C 0.118 0.667 0.117 0.67 0.117 0.673 C 0.116 0.679 0.116 0.679 0.113 0.671 C 0.112 0.667 0.111 0.663 0.112 0.662 C 0.115 0.653 0.114 0.646 0.11 0.646 C 0.107 0.647 0.104 0.645 0.103 0.643 C 0.101 0.64 0.1 0.639 0.1 0.64 C 0.1 0.642 0.101 0.644 0.102 0.646 C 0.105 0.649 0.105 0.65 0.101 0.657 C 0.1 0.661 0.098 0.669 0.098 0.674 C 0.098 0.684 0.097 0.685 0.094 0.681 C 0.092 0.678 0.093 0.646 0.096 0.639 C 0.097 0.635 0.098 0.629 0.098 0.625 C 0.098 0.621 0.099 0.616 0.1 0.615 C 0.102 0.612 0.102 0.611 0.1 0.611 C 0.099 0.611 0.1 0.608 0.101 0.603 C 0.103 0.596 0.104 0.594 0.102 0.592 C 0.099 0.589 0.101 0.584 0.104 0.584 C 0.105 0.584 0.105 0.585 0.103 0.586 C 0.101 0.588 0.101 0.589 0.103 0.589 C 0.104 0.589 0.105 0.587 0.106 0.585 C 0.106 0.583 0.107 0.582 0.108 0.583 C 0.109 0.584 0.109 0.583 0.109 0.58 C 0.109 0.578 0.107 0.577 0.105 0.578 C 0.102 0.578 0.102 0.577 0.102 0.575 C 0.103 0.572 0.102 0.572 0.099 0.573 C 0.097 0.575 0.095 0.574 0.095 0.572 C 0.095 0.571 0.094 0.57 0.093 0.57 C 0.092 0.57 0.091 0.568 0.091 0.567 C 0.092 0.565 0.092 0.564 0.091 0.564 C 0.09 0.564 0.089 0.562 0.089 0.56 C 0.089 0.558 0.088 0.556 0.087 0.556 C 0.086 0.557 0.085 0.556 0.085 0.554 C 0.085 0.547 0.083 0.547 0.081 0.554 Z  M 0.002 0.566 C 0.002 0.571 0.002 0.572 0.004 0.571 C 0.005 0.57 0.006 0.568 0.005 0.567 C 0.004 0.566 0.003 0.564 0.003 0.563 C 0.002 0.562 0.002 0.563 0.002 0.566 Z  M 0.263 0.576 C 0.262 0.578 0.262 0.581 0.262 0.583 C 0.263 0.586 0.264 0.586 0.266 0.582 C 0.267 0.579 0.267 0.577 0.266 0.575 C 0.265 0.573 0.264 0.573 0.263 0.576 Z  M 0.026 0.583 C 0.026 0.587 0.027 0.591 0.028 0.592 C 0.029 0.594 0.029 0.591 0.028 0.586 C 0.028 0.576 0.025 0.573 0.026 0.583 Z  M 0.254 0.584 C 0.25 0.586 0.249 0.589 0.251 0.589 C 0.255 0.588 0.258 0.589 0.257 0.592 C 0.256 0.593 0.257 0.595 0.258 0.595 C 0.258 0.595 0.259 0.592 0.259 0.588 C 0.259 0.58 0.259 0.58 0.254 0.584 Z  M 0.021 0.593 C 0.021 0.596 0.019 0.602 0.019 0.605 C 0.018 0.609 0.017 0.613 0.018 0.613 C 0.019 0.616 0.022 0.611 0.022 0.608 C 0.022 0.606 0.022 0.602 0.023 0.6 C 0.023 0.597 0.023 0.593 0.023 0.591 C 0.022 0.589 0.022 0.59 0.021 0.593 Z  M 0.073 0.606 C 0.069 0.612 0.068 0.612 0.07 0.605 C 0.07 0.602 0.072 0.601 0.073 0.602 C 0.075 0.603 0.075 0.603 0.074 0.601 C 0.074 0.599 0.074 0.596 0.074 0.594 C 0.075 0.591 0.076 0.592 0.076 0.596 C 0.077 0.599 0.075 0.603 0.073 0.606 Z  M 0.082 0.596 C 0.083 0.6 0.082 0.603 0.079 0.603 C 0.079 0.603 0.078 0.6 0.078 0.597 C 0.078 0.591 0.08 0.59 0.082 0.596 Z  M 0.238 0.598 C 0.231 0.603 0.23 0.605 0.236 0.604 C 0.241 0.604 0.245 0.599 0.244 0.596 C 0.243 0.596 0.241 0.597 0.238 0.598 Z  M 0.027 0.6 C 0.026 0.604 0.029 0.61 0.031 0.607 C 0.031 0.606 0.031 0.604 0.03 0.604 C 0.029 0.603 0.028 0.601 0.029 0.6 C 0.029 0.599 0.03 0.597 0.029 0.597 C 0.029 0.597 0.028 0.599 0.027 0.6 Z  M 0.091 0.614 C 0.091 0.616 0.09 0.62 0.09 0.623 C 0.09 0.625 0.089 0.627 0.089 0.626 C 0.088 0.626 0.087 0.627 0.085 0.63 C 0.082 0.635 0.082 0.635 0.083 0.627 C 0.084 0.623 0.084 0.619 0.083 0.618 C 0.08 0.616 0.085 0.609 0.089 0.61 C 0.091 0.61 0.092 0.611 0.091 0.614 Z  M 0.068 0.633 C 0.068 0.641 0.068 0.642 0.07 0.638 C 0.072 0.635 0.072 0.633 0.071 0.629 C 0.069 0.625 0.069 0.626 0.068 0.633 Z  M 0.089 0.643 C 0.089 0.652 0.088 0.656 0.087 0.656 C 0.084 0.656 0.081 0.663 0.083 0.665 C 0.084 0.666 0.084 0.669 0.083 0.671 C 0.083 0.673 0.082 0.674 0.081 0.673 C 0.08 0.672 0.08 0.671 0.081 0.669 C 0.083 0.668 0.083 0.667 0.082 0.667 C 0.079 0.667 0.079 0.66 0.082 0.655 C 0.083 0.652 0.084 0.65 0.083 0.65 C 0.08 0.65 0.086 0.633 0.089 0.631 C 0.089 0.631 0.089 0.636 0.089 0.643 Z  M 0.288 0.647 C 0.287 0.65 0.286 0.653 0.284 0.653 C 0.283 0.653 0.281 0.655 0.28 0.656 C 0.272 0.673 0.271 0.677 0.271 0.679 C 0.273 0.682 0.273 0.689 0.271 0.689 C 0.27 0.689 0.271 0.69 0.272 0.692 C 0.273 0.693 0.274 0.696 0.274 0.698 C 0.274 0.7 0.275 0.701 0.276 0.701 C 0.278 0.7 0.279 0.706 0.278 0.714 C 0.278 0.716 0.279 0.717 0.281 0.716 C 0.282 0.716 0.286 0.717 0.29 0.72 C 0.293 0.722 0.299 0.724 0.303 0.724 C 0.306 0.724 0.309 0.725 0.309 0.726 C 0.309 0.727 0.31 0.728 0.311 0.728 C 0.312 0.728 0.312 0.726 0.312 0.724 C 0.312 0.722 0.313 0.72 0.314 0.72 C 0.315 0.72 0.317 0.716 0.319 0.712 L 0.323 0.705 L 0.327 0.713 C 0.33 0.717 0.331 0.719 0.33 0.717 C 0.328 0.713 0.329 0.711 0.331 0.707 C 0.337 0.697 0.331 0.681 0.312 0.651 C 0.306 0.642 0.289 0.639 0.288 0.647 Z  M 0.138 0.658 C 0.139 0.657 0.14 0.66 0.139 0.665 C 0.139 0.669 0.14 0.672 0.14 0.671 C 0.141 0.671 0.141 0.676 0.141 0.683 C 0.14 0.69 0.14 0.697 0.14 0.698 C 0.14 0.699 0.139 0.702 0.137 0.705 C 0.135 0.708 0.134 0.708 0.135 0.706 C 0.137 0.702 0.137 0.701 0.134 0.701 C 0.133 0.701 0.132 0.702 0.132 0.704 C 0.133 0.705 0.132 0.705 0.131 0.704 C 0.129 0.703 0.129 0.701 0.129 0.7 C 0.129 0.699 0.129 0.697 0.129 0.697 C 0.127 0.697 0.128 0.662 0.13 0.656 C 0.131 0.654 0.132 0.654 0.134 0.656 C 0.135 0.657 0.137 0.658 0.138 0.658 Z  M 0.173 0.671 C 0.171 0.674 0.17 0.678 0.17 0.68 C 0.171 0.684 0.171 0.684 0.171 0.681 C 0.172 0.678 0.173 0.674 0.175 0.672 C 0.178 0.666 0.176 0.665 0.173 0.671 Z  M 0.197 0.675 C 0.198 0.679 0.197 0.682 0.195 0.684 C 0.194 0.685 0.192 0.686 0.192 0.684 C 0.192 0.683 0.191 0.684 0.19 0.687 C 0.189 0.69 0.186 0.692 0.184 0.691 C 0.182 0.691 0.181 0.692 0.181 0.695 C 0.181 0.698 0.18 0.699 0.179 0.698 C 0.177 0.697 0.176 0.693 0.176 0.684 C 0.176 0.68 0.175 0.68 0.173 0.684 C 0.17 0.688 0.172 0.702 0.175 0.699 C 0.176 0.698 0.177 0.698 0.177 0.7 C 0.177 0.702 0.178 0.703 0.18 0.703 C 0.182 0.703 0.183 0.704 0.182 0.705 C 0.181 0.706 0.18 0.709 0.18 0.712 L 0.18 0.718 L 0.182 0.712 C 0.183 0.709 0.186 0.706 0.187 0.706 C 0.188 0.706 0.19 0.703 0.191 0.699 C 0.192 0.693 0.193 0.692 0.196 0.693 C 0.202 0.695 0.206 0.675 0.201 0.671 C 0.197 0.669 0.196 0.669 0.197 0.675 Z  M 0.209 0.686 C 0.208 0.688 0.212 0.693 0.215 0.693 C 0.216 0.693 0.217 0.694 0.218 0.696 C 0.219 0.697 0.22 0.697 0.22 0.695 C 0.22 0.692 0.21 0.683 0.209 0.686 Z  M 0.205 0.697 C 0.205 0.7 0.204 0.7 0.204 0.698 C 0.202 0.693 0.197 0.7 0.198 0.706 C 0.198 0.709 0.198 0.711 0.197 0.711 C 0.194 0.711 0.195 0.722 0.199 0.724 C 0.202 0.726 0.205 0.721 0.204 0.713 C 0.204 0.71 0.205 0.707 0.207 0.704 C 0.209 0.702 0.21 0.698 0.21 0.696 C 0.209 0.69 0.207 0.691 0.205 0.697 Z  M 0.203 0.718 C 0.202 0.72 0.201 0.721 0.2 0.721 C 0.199 0.721 0.198 0.72 0.197 0.718 C 0.197 0.717 0.198 0.715 0.2 0.715 C 0.202 0.715 0.203 0.717 0.203 0.718 Z  M 0.211 0.72 C 0.213 0.727 0.221 0.728 0.221 0.721 C 0.221 0.717 0.22 0.715 0.215 0.715 C 0.21 0.715 0.21 0.716 0.211 0.72 Z  M 0.204 0.733 C 0.203 0.737 0.203 0.737 0.205 0.735 C 0.206 0.734 0.206 0.734 0.206 0.735 C 0.204 0.738 0.201 0.739 0.196 0.74 C 0.193 0.74 0.192 0.742 0.193 0.745 C 0.194 0.751 0.19 0.752 0.189 0.747 C 0.188 0.745 0.188 0.745 0.187 0.748 C 0.186 0.751 0.187 0.753 0.188 0.752 C 0.189 0.75 0.189 0.758 0.187 0.769 C 0.186 0.772 0.187 0.772 0.189 0.77 C 0.191 0.768 0.192 0.767 0.192 0.768 C 0.192 0.768 0.193 0.771 0.193 0.774 C 0.194 0.784 0.203 0.782 0.203 0.772 C 0.203 0.77 0.202 0.77 0.202 0.772 C 0.2 0.776 0.2 0.776 0.2 0.772 C 0.2 0.765 0.206 0.758 0.209 0.762 C 0.212 0.764 0.213 0.764 0.216 0.759 C 0.219 0.756 0.22 0.753 0.219 0.753 C 0.218 0.753 0.217 0.748 0.216 0.742 C 0.216 0.736 0.215 0.731 0.214 0.73 C 0.209 0.729 0.206 0.729 0.204 0.733 Z  M 0.619 0.745 C 0.616 0.747 0.615 0.756 0.617 0.756 C 0.618 0.756 0.618 0.757 0.618 0.759 C 0.617 0.76 0.619 0.761 0.622 0.761 C 0.625 0.761 0.627 0.76 0.628 0.755 C 0.63 0.748 0.629 0.744 0.626 0.747 C 0.624 0.747 0.623 0.747 0.623 0.745 C 0.623 0.741 0.622 0.741 0.619 0.745 Z  M 0.626 0.751 C 0.628 0.746 0.628 0.747 0.627 0.752 C 0.627 0.756 0.625 0.759 0.623 0.759 C 0.62 0.759 0.619 0.756 0.62 0.751 C 0.621 0.747 0.621 0.747 0.622 0.752 C 0.624 0.756 0.624 0.756 0.626 0.751 Z  M 0.309 0.777 C 0.308 0.781 0.31 0.785 0.312 0.782 C 0.315 0.78 0.314 0.776 0.312 0.774 C 0.311 0.774 0.309 0.775 0.309 0.777 Z  M 0.587 0.78 C 0.587 0.783 0.587 0.784 0.585 0.781 C 0.583 0.778 0.583 0.778 0.583 0.783 C 0.583 0.787 0.584 0.789 0.586 0.789 C 0.588 0.789 0.589 0.787 0.589 0.782 C 0.589 0.778 0.589 0.775 0.588 0.775 C 0.588 0.775 0.587 0.777 0.587 0.78 Z  M 0.602 0.778 C 0.602 0.779 0.603 0.781 0.605 0.782 C 0.607 0.783 0.608 0.782 0.607 0.78 C 0.607 0.776 0.604 0.774 0.602 0.778 Z  M 0.476 0.814 C 0.477 0.818 0.476 0.82 0.474 0.82 C 0.472 0.82 0.47 0.818 0.47 0.817 C 0.47 0.815 0.47 0.814 0.469 0.814 C 0.468 0.814 0.467 0.816 0.467 0.818 C 0.467 0.821 0.468 0.822 0.468 0.821 C 0.469 0.821 0.471 0.822 0.474 0.824 C 0.476 0.825 0.478 0.826 0.48 0.826 C 0.482 0.825 0.482 0.825 0.48 0.83 C 0.477 0.835 0.478 0.835 0.48 0.831 C 0.482 0.829 0.483 0.828 0.484 0.829 C 0.484 0.829 0.487 0.826 0.489 0.822 L 0.494 0.814 L 0.496 0.822 C 0.499 0.834 0.503 0.834 0.503 0.822 C 0.502 0.811 0.492 0.808 0.488 0.817 C 0.485 0.824 0.478 0.821 0.479 0.814 C 0.479 0.811 0.479 0.809 0.477 0.809 C 0.476 0.809 0.476 0.811 0.476 0.814 Z  M 0.511 0.818 C 0.511 0.821 0.511 0.823 0.511 0.824 C 0.513 0.827 0.516 0.823 0.516 0.818 C 0.516 0.813 0.513 0.813 0.511 0.818 Z  M 0.202 0.822 C 0.201 0.831 0.205 0.835 0.209 0.828 C 0.212 0.822 0.212 0.822 0.212 0.827 C 0.212 0.833 0.209 0.836 0.203 0.836 C 0.2 0.836 0.199 0.823 0.201 0.819 C 0.203 0.816 0.203 0.817 0.202 0.822 Z  M 0.221 0.825 C 0.221 0.827 0.219 0.828 0.217 0.828 C 0.215 0.828 0.214 0.827 0.214 0.825 C 0.214 0.824 0.216 0.822 0.218 0.822 C 0.22 0.822 0.222 0.824 0.221 0.825 Z " fill-rule="evenodd" fill="rgb(0,0,0)"/></g></g></svg>