<?xml version="1.0" encoding="UTF-8" standalone="no"?><!-- Generator: Gravit.io --><svg xmlns="http://www.w3.org/2000/svg" xmlns:xlink="http://www.w3.org/1999/xlink" style="isolation:isolate" viewBox="0 0 1 1" width="1pt" height="1pt"><defs><clipPath id="_clipPath_CQ6zgrMyC53JOy5QMaYOLgW7ZT0uqSdI"><rect width="1" height="1"/></clipPath></defs><g clip-path="url(#_clipPath_CQ6zgrMyC53JOy5QMaYOLgW7ZT0uqSdI)"><g><path d=" M 0.001 0.002 C -0.001 0.005 0 0.363 0.001 0.376 C 0.003 0.387 0.005 0.377 0.004 0.364 C 0.004 0.358 0.009 0.346 0.011 0.349 C 0.011 0.35 0.01 0.352 0.008 0.354 C 0.006 0.358 0.006 0.359 0.008 0.36 C 0.01 0.362 0.011 0.365 0.011 0.375 C 0.011 0.382 0.011 0.386 0.012 0.385 C 0.013 0.384 0.014 0.385 0.014 0.386 C 0.014 0.388 0.016 0.389 0.018 0.39 C 0.021 0.391 0.022 0.39 0.022 0.388 C 0.022 0.386 0.023 0.384 0.023 0.384 C 0.024 0.384 0.025 0.382 0.025 0.38 C 0.025 0.377 0.026 0.376 0.027 0.376 C 0.027 0.376 0.03 0.372 0.033 0.367 C 0.037 0.36 0.04 0.358 0.041 0.36 C 0.041 0.36 0.043 0.358 0.044 0.356 C 0.047 0.352 0.047 0.352 0.046 0.358 C 0.045 0.363 0.046 0.365 0.048 0.366 C 0.049 0.367 0.051 0.367 0.051 0.365 C 0.052 0.361 0.057 0.352 0.059 0.352 C 0.06 0.352 0.061 0.347 0.063 0.341 C 0.065 0.333 0.067 0.331 0.07 0.331 C 0.076 0.331 0.078 0.335 0.074 0.339 C 0.071 0.342 0.073 0.348 0.077 0.346 C 0.08 0.344 0.081 0.355 0.077 0.358 C 0.075 0.359 0.075 0.36 0.077 0.362 C 0.08 0.365 0.081 0.364 0.082 0.36 C 0.083 0.357 0.085 0.353 0.086 0.351 C 0.09 0.345 0.09 0.34 0.086 0.338 C 0.082 0.336 0.082 0.331 0.086 0.331 C 0.089 0.331 0.089 0.33 0.087 0.328 C 0.086 0.326 0.086 0.325 0.087 0.319 L 0.09 0.311 L 0.092 0.318 C 0.093 0.322 0.095 0.325 0.096 0.325 C 0.097 0.325 0.1 0.328 0.101 0.331 C 0.103 0.335 0.105 0.336 0.105 0.334 C 0.106 0.332 0.106 0.331 0.105 0.331 C 0.104 0.331 0.103 0.329 0.103 0.327 C 0.103 0.325 0.102 0.322 0.1 0.321 C 0.099 0.32 0.098 0.319 0.099 0.318 C 0.102 0.314 0.106 0.3 0.105 0.298 C 0.104 0.294 0.113 0.288 0.114 0.291 C 0.116 0.298 0.121 0.294 0.123 0.285 C 0.124 0.277 0.124 0.276 0.122 0.279 C 0.121 0.281 0.12 0.281 0.121 0.277 C 0.122 0.271 0.123 0.271 0.129 0.278 C 0.133 0.283 0.134 0.285 0.133 0.29 C 0.132 0.293 0.132 0.295 0.133 0.295 C 0.134 0.295 0.134 0.294 0.134 0.292 C 0.134 0.29 0.136 0.29 0.138 0.291 C 0.142 0.292 0.146 0.288 0.144 0.284 C 0.144 0.281 0.143 0.281 0.142 0.284 C 0.139 0.294 0.139 0.283 0.143 0.271 C 0.146 0.261 0.147 0.255 0.146 0.247 C 0.146 0.238 0.146 0.235 0.148 0.234 C 0.15 0.234 0.152 0.23 0.152 0.226 C 0.153 0.219 0.152 0.213 0.15 0.216 C 0.149 0.217 0.148 0.216 0.148 0.215 C 0.148 0.213 0.146 0.21 0.143 0.208 C 0.141 0.206 0.139 0.204 0.14 0.204 C 0.141 0.203 0.142 0.201 0.142 0.199 C 0.142 0.192 0.149 0.188 0.154 0.193 C 0.156 0.195 0.159 0.196 0.16 0.196 C 0.163 0.194 0.163 0.187 0.161 0.186 C 0.16 0.185 0.159 0.182 0.159 0.179 C 0.158 0.176 0.157 0.17 0.156 0.166 L 0.154 0.16 L 0.158 0.166 C 0.16 0.169 0.162 0.174 0.163 0.178 C 0.163 0.181 0.164 0.184 0.165 0.183 C 0.166 0.182 0.165 0.177 0.164 0.172 C 0.162 0.164 0.162 0.163 0.165 0.159 C 0.17 0.153 0.177 0.156 0.178 0.165 C 0.178 0.171 0.179 0.172 0.182 0.171 C 0.185 0.169 0.185 0.169 0.182 0.173 C 0.181 0.175 0.179 0.179 0.18 0.182 C 0.181 0.189 0.186 0.191 0.186 0.185 C 0.186 0.182 0.187 0.181 0.188 0.182 C 0.191 0.184 0.191 0.179 0.189 0.177 C 0.187 0.176 0.187 0.175 0.189 0.174 C 0.19 0.173 0.19 0.171 0.19 0.17 C 0.189 0.166 0.193 0.159 0.197 0.159 C 0.201 0.159 0.206 0.182 0.206 0.205 C 0.206 0.216 0.209 0.217 0.21 0.207 C 0.211 0.199 0.218 0.186 0.219 0.189 C 0.22 0.189 0.22 0.188 0.22 0.185 C 0.22 0.183 0.221 0.181 0.222 0.181 C 0.222 0.181 0.223 0.176 0.222 0.17 C 0.222 0.162 0.222 0.157 0.224 0.152 C 0.226 0.146 0.226 0.143 0.225 0.139 C 0.224 0.135 0.224 0.134 0.225 0.135 C 0.225 0.136 0.227 0.135 0.227 0.134 C 0.228 0.132 0.227 0.13 0.227 0.129 C 0.226 0.129 0.225 0.12 0.225 0.11 C 0.225 0.095 0.226 0.093 0.227 0.097 C 0.228 0.099 0.229 0.103 0.228 0.105 C 0.228 0.107 0.229 0.111 0.231 0.114 C 0.233 0.117 0.234 0.121 0.234 0.122 C 0.233 0.124 0.234 0.126 0.235 0.128 C 0.236 0.13 0.237 0.134 0.237 0.136 C 0.237 0.142 0.24 0.145 0.243 0.146 C 0.244 0.147 0.245 0.146 0.244 0.144 C 0.244 0.142 0.244 0.142 0.245 0.142 C 0.247 0.143 0.247 0.147 0.247 0.15 L 0.247 0.157 L 0.25 0.151 C 0.252 0.146 0.252 0.142 0.252 0.134 C 0.251 0.125 0.252 0.122 0.254 0.122 C 0.255 0.122 0.256 0.124 0.256 0.125 C 0.256 0.127 0.257 0.128 0.258 0.128 C 0.258 0.128 0.259 0.125 0.258 0.122 C 0.258 0.118 0.258 0.117 0.26 0.117 C 0.262 0.117 0.262 0.115 0.262 0.112 C 0.261 0.109 0.261 0.105 0.262 0.104 C 0.263 0.103 0.264 0.1 0.264 0.096 C 0.264 0.092 0.264 0.087 0.265 0.085 C 0.267 0.077 0.269 0.081 0.269 0.092 C 0.269 0.108 0.275 0.102 0.277 0.084 C 0.279 0.07 0.282 0.064 0.285 0.069 C 0.289 0.076 0.289 0.072 0.291 0.019 L 0.292 0 L 0.147 0 C 0.067 0 0.002 0.001 0.001 0.002 Z  M 0.34 0.003 C 0.343 0.006 0.344 0.006 0.346 0.003 C 0.347 0.001 0.346 0 0.342 0 C 0.337 0 0.337 0.001 0.34 0.003 Z  M 0.687 0.002 C 0.686 0.003 0.687 0.005 0.688 0.007 C 0.691 0.012 0.691 0.025 0.689 0.024 C 0.688 0.024 0.687 0.028 0.687 0.034 C 0.687 0.039 0.687 0.044 0.687 0.043 C 0.687 0.042 0.689 0.044 0.692 0.047 C 0.694 0.051 0.696 0.052 0.697 0.051 C 0.697 0.05 0.698 0.049 0.7 0.049 C 0.701 0.049 0.704 0.048 0.706 0.047 C 0.712 0.043 0.715 0.047 0.71 0.053 L 0.705 0.058 L 0.71 0.06 C 0.713 0.061 0.715 0.062 0.716 0.062 C 0.72 0.06 0.724 0.072 0.721 0.077 C 0.717 0.083 0.718 0.09 0.722 0.088 C 0.727 0.086 0.73 0.092 0.73 0.106 C 0.73 0.117 0.73 0.12 0.732 0.12 C 0.734 0.12 0.734 0.121 0.733 0.121 C 0.732 0.122 0.731 0.124 0.732 0.125 C 0.732 0.127 0.732 0.127 0.73 0.126 C 0.729 0.125 0.728 0.126 0.728 0.127 C 0.729 0.132 0.728 0.135 0.727 0.131 C 0.726 0.129 0.725 0.131 0.726 0.138 C 0.726 0.152 0.728 0.155 0.734 0.15 C 0.74 0.144 0.745 0.145 0.744 0.151 C 0.744 0.157 0.743 0.157 0.752 0.153 C 0.764 0.147 0.771 0.154 0.764 0.164 C 0.762 0.166 0.761 0.172 0.76 0.175 C 0.76 0.18 0.759 0.182 0.758 0.181 C 0.756 0.181 0.756 0.181 0.756 0.182 C 0.757 0.184 0.757 0.186 0.756 0.189 C 0.754 0.192 0.755 0.192 0.757 0.188 C 0.76 0.184 0.761 0.184 0.764 0.186 C 0.767 0.188 0.768 0.188 0.768 0.186 C 0.768 0.185 0.77 0.184 0.771 0.184 C 0.773 0.185 0.774 0.186 0.774 0.189 C 0.773 0.192 0.773 0.192 0.775 0.191 C 0.776 0.19 0.778 0.191 0.779 0.193 C 0.78 0.196 0.782 0.197 0.783 0.196 C 0.784 0.194 0.784 0.196 0.784 0.199 C 0.783 0.201 0.783 0.203 0.784 0.202 C 0.786 0.199 0.786 0.205 0.783 0.208 C 0.782 0.211 0.781 0.211 0.78 0.208 C 0.779 0.206 0.78 0.206 0.781 0.207 C 0.782 0.209 0.783 0.208 0.782 0.206 C 0.781 0.205 0.78 0.204 0.778 0.205 C 0.774 0.208 0.771 0.217 0.775 0.217 C 0.776 0.217 0.776 0.216 0.776 0.214 C 0.775 0.213 0.775 0.211 0.776 0.21 C 0.779 0.207 0.778 0.215 0.775 0.221 C 0.773 0.224 0.773 0.225 0.775 0.224 C 0.776 0.222 0.777 0.223 0.776 0.226 C 0.775 0.232 0.782 0.23 0.786 0.224 C 0.796 0.209 0.803 0.221 0.794 0.236 C 0.79 0.243 0.787 0.258 0.79 0.255 C 0.793 0.251 0.792 0.26 0.788 0.266 C 0.785 0.272 0.785 0.273 0.787 0.275 C 0.791 0.28 0.795 0.279 0.795 0.273 C 0.796 0.267 0.805 0.261 0.809 0.264 C 0.812 0.266 0.808 0.273 0.804 0.273 C 0.801 0.273 0.801 0.272 0.803 0.27 C 0.805 0.267 0.805 0.267 0.803 0.267 C 0.799 0.267 0.792 0.296 0.795 0.299 C 0.796 0.3 0.797 0.299 0.797 0.298 C 0.797 0.296 0.798 0.295 0.799 0.295 C 0.8 0.295 0.801 0.293 0.801 0.292 C 0.801 0.289 0.802 0.289 0.803 0.292 C 0.805 0.294 0.808 0.293 0.816 0.285 C 0.822 0.279 0.826 0.276 0.826 0.278 C 0.826 0.279 0.829 0.278 0.832 0.274 C 0.839 0.266 0.841 0.265 0.842 0.273 C 0.843 0.277 0.842 0.28 0.839 0.283 C 0.834 0.289 0.834 0.296 0.84 0.294 C 0.845 0.292 0.855 0.28 0.853 0.277 C 0.852 0.276 0.867 0.27 0.871 0.271 C 0.875 0.271 0.876 0.289 0.873 0.295 C 0.872 0.297 0.871 0.302 0.871 0.305 C 0.87 0.309 0.87 0.312 0.87 0.312 C 0.87 0.313 0.87 0.315 0.869 0.317 C 0.869 0.319 0.868 0.324 0.868 0.326 C 0.867 0.33 0.867 0.331 0.869 0.33 C 0.87 0.33 0.871 0.331 0.871 0.333 C 0.871 0.335 0.871 0.337 0.871 0.338 C 0.871 0.339 0.873 0.338 0.874 0.334 C 0.876 0.33 0.878 0.329 0.879 0.331 C 0.882 0.334 0.886 0.329 0.885 0.325 C 0.884 0.324 0.885 0.323 0.886 0.323 C 0.888 0.323 0.889 0.324 0.889 0.326 C 0.889 0.327 0.89 0.328 0.891 0.328 C 0.892 0.327 0.894 0.329 0.896 0.33 C 0.899 0.333 0.9 0.333 0.904 0.331 C 0.91 0.325 0.914 0.334 0.91 0.345 C 0.907 0.355 0.907 0.36 0.909 0.358 C 0.91 0.357 0.913 0.358 0.916 0.36 C 0.919 0.362 0.922 0.363 0.922 0.362 C 0.923 0.361 0.923 0.361 0.923 0.363 C 0.922 0.37 0.923 0.373 0.925 0.372 C 0.927 0.371 0.928 0.371 0.927 0.372 C 0.927 0.377 0.932 0.387 0.935 0.385 C 0.937 0.383 0.937 0.384 0.936 0.386 C 0.935 0.389 0.936 0.389 0.939 0.387 C 0.941 0.385 0.943 0.384 0.945 0.385 C 0.947 0.386 0.947 0.386 0.945 0.386 C 0.943 0.387 0.941 0.39 0.941 0.394 C 0.94 0.397 0.939 0.4 0.938 0.399 C 0.937 0.398 0.937 0.398 0.938 0.4 C 0.938 0.402 0.938 0.403 0.937 0.404 C 0.936 0.405 0.936 0.406 0.938 0.407 C 0.939 0.408 0.94 0.408 0.94 0.406 C 0.939 0.405 0.939 0.403 0.94 0.403 C 0.941 0.403 0.942 0.405 0.942 0.406 C 0.942 0.408 0.944 0.41 0.945 0.41 C 0.947 0.41 0.949 0.412 0.949 0.413 C 0.95 0.414 0.949 0.414 0.948 0.413 C 0.947 0.412 0.947 0.413 0.949 0.416 C 0.95 0.418 0.951 0.422 0.951 0.425 C 0.95 0.428 0.951 0.432 0.952 0.433 C 0.953 0.435 0.954 0.438 0.954 0.44 C 0.952 0.443 0.96 0.446 0.964 0.444 C 0.966 0.443 0.967 0.441 0.966 0.44 C 0.966 0.439 0.967 0.437 0.968 0.435 C 0.97 0.433 0.97 0.432 0.969 0.433 C 0.967 0.434 0.967 0.434 0.967 0.432 C 0.969 0.427 0.972 0.428 0.975 0.435 C 0.977 0.438 0.98 0.442 0.982 0.443 C 0.984 0.445 0.984 0.447 0.984 0.453 C 0.983 0.46 0.983 0.462 0.987 0.464 C 0.99 0.466 0.993 0.47 0.994 0.474 C 0.996 0.478 0.998 0.481 0.998 0.481 C 0.999 0.481 1 0.38 0.999 0.241 L 0.999 0.001 L 0.843 0.001 C 0.758 0 0.687 0.001 0.687 0.002 Z  M 0.525 0.111 C 0.524 0.114 0.521 0.118 0.518 0.121 C 0.514 0.124 0.508 0.13 0.505 0.134 C 0.495 0.146 0.486 0.145 0.476 0.131 C 0.474 0.129 0.473 0.128 0.472 0.129 C 0.472 0.13 0.47 0.129 0.468 0.128 C 0.466 0.126 0.465 0.126 0.463 0.128 C 0.462 0.13 0.461 0.129 0.457 0.123 C 0.454 0.117 0.438 0.111 0.439 0.117 C 0.44 0.121 0.434 0.131 0.432 0.129 C 0.43 0.128 0.43 0.128 0.431 0.135 L 0.433 0.142 L 0.423 0.142 C 0.417 0.142 0.409 0.144 0.403 0.147 C 0.397 0.15 0.391 0.153 0.39 0.153 C 0.388 0.153 0.384 0.156 0.381 0.161 C 0.368 0.178 0.368 0.178 0.368 0.149 C 0.368 0.145 0.367 0.145 0.365 0.146 C 0.363 0.147 0.36 0.148 0.358 0.148 C 0.356 0.148 0.355 0.149 0.355 0.15 C 0.355 0.151 0.353 0.153 0.351 0.153 C 0.349 0.154 0.347 0.157 0.346 0.161 C 0.343 0.171 0.334 0.184 0.332 0.183 C 0.331 0.182 0.329 0.183 0.328 0.185 C 0.325 0.191 0.324 0.19 0.319 0.18 L 0.314 0.171 L 0.315 0.179 C 0.315 0.185 0.315 0.187 0.313 0.188 C 0.311 0.189 0.309 0.192 0.307 0.194 C 0.306 0.197 0.304 0.197 0.301 0.195 C 0.297 0.192 0.296 0.193 0.295 0.195 C 0.294 0.198 0.294 0.197 0.294 0.193 C 0.295 0.19 0.295 0.186 0.294 0.185 C 0.293 0.184 0.292 0.187 0.292 0.191 C 0.291 0.196 0.292 0.198 0.293 0.2 C 0.296 0.201 0.3 0.21 0.302 0.217 C 0.303 0.221 0.302 0.222 0.298 0.221 C 0.295 0.22 0.292 0.222 0.289 0.225 C 0.287 0.228 0.284 0.231 0.283 0.231 C 0.281 0.231 0.279 0.233 0.277 0.235 C 0.276 0.237 0.273 0.239 0.272 0.239 C 0.27 0.239 0.268 0.241 0.267 0.243 C 0.266 0.246 0.265 0.247 0.264 0.246 C 0.263 0.245 0.262 0.247 0.26 0.25 C 0.257 0.257 0.255 0.257 0.255 0.252 C 0.255 0.245 0.251 0.242 0.246 0.246 C 0.242 0.25 0.232 0.249 0.231 0.245 C 0.23 0.239 0.228 0.242 0.229 0.248 C 0.23 0.253 0.23 0.254 0.228 0.25 C 0.227 0.248 0.226 0.247 0.227 0.249 C 0.227 0.252 0.23 0.262 0.231 0.26 C 0.232 0.26 0.232 0.264 0.232 0.271 C 0.232 0.284 0.223 0.297 0.213 0.299 C 0.21 0.3 0.209 0.3 0.211 0.298 C 0.213 0.296 0.213 0.295 0.211 0.295 C 0.21 0.295 0.209 0.297 0.208 0.3 C 0.208 0.304 0.207 0.305 0.205 0.303 C 0.201 0.3 0.198 0.307 0.201 0.312 C 0.204 0.316 0.201 0.323 0.196 0.323 C 0.195 0.323 0.191 0.326 0.189 0.33 C 0.186 0.336 0.185 0.337 0.184 0.334 C 0.183 0.33 0.183 0.331 0.183 0.335 C 0.183 0.338 0.181 0.345 0.178 0.351 C 0.175 0.357 0.174 0.362 0.174 0.362 C 0.175 0.362 0.174 0.363 0.173 0.366 C 0.172 0.368 0.172 0.37 0.173 0.37 C 0.174 0.37 0.169 0.385 0.166 0.387 C 0.165 0.389 0.164 0.391 0.165 0.393 C 0.165 0.395 0.166 0.407 0.166 0.42 C 0.166 0.433 0.167 0.447 0.168 0.452 C 0.169 0.456 0.17 0.46 0.17 0.461 C 0.17 0.469 0.191 0.509 0.195 0.509 C 0.196 0.509 0.199 0.517 0.203 0.526 C 0.209 0.54 0.21 0.542 0.214 0.542 C 0.217 0.542 0.219 0.543 0.218 0.544 C 0.216 0.548 0.228 0.563 0.231 0.561 C 0.234 0.558 0.234 0.564 0.232 0.569 C 0.231 0.572 0.228 0.574 0.224 0.574 C 0.221 0.574 0.219 0.575 0.219 0.577 C 0.219 0.578 0.218 0.578 0.217 0.577 C 0.216 0.576 0.214 0.577 0.213 0.579 C 0.212 0.581 0.211 0.581 0.211 0.58 C 0.211 0.579 0.21 0.58 0.209 0.583 C 0.207 0.586 0.206 0.587 0.205 0.586 C 0.205 0.585 0.203 0.586 0.201 0.587 C 0.199 0.589 0.197 0.589 0.195 0.586 C 0.194 0.583 0.192 0.582 0.192 0.583 C 0.191 0.584 0.19 0.583 0.19 0.581 C 0.19 0.578 0.19 0.579 0.189 0.582 C 0.188 0.585 0.187 0.586 0.186 0.586 C 0.185 0.585 0.183 0.587 0.182 0.59 C 0.18 0.595 0.179 0.595 0.18 0.592 C 0.181 0.589 0.18 0.587 0.179 0.587 C 0.179 0.587 0.178 0.586 0.179 0.584 C 0.179 0.583 0.178 0.581 0.175 0.581 C 0.169 0.581 0.166 0.579 0.166 0.574 C 0.166 0.569 0.16 0.567 0.158 0.572 C 0.153 0.582 0.149 0.571 0.154 0.561 C 0.155 0.558 0.156 0.554 0.156 0.552 C 0.156 0.546 0.15 0.553 0.149 0.559 C 0.148 0.567 0.145 0.566 0.144 0.556 C 0.143 0.549 0.143 0.548 0.141 0.551 C 0.14 0.553 0.137 0.555 0.136 0.555 C 0.134 0.555 0.13 0.56 0.127 0.566 C 0.124 0.571 0.121 0.576 0.12 0.576 C 0.119 0.576 0.119 0.577 0.119 0.578 C 0.119 0.579 0.118 0.584 0.117 0.588 C 0.116 0.593 0.115 0.597 0.115 0.599 C 0.115 0.6 0.114 0.601 0.114 0.602 C 0.112 0.606 0.112 0.609 0.115 0.609 C 0.118 0.609 0.121 0.619 0.119 0.622 C 0.118 0.623 0.117 0.625 0.118 0.626 C 0.118 0.627 0.118 0.629 0.117 0.63 C 0.114 0.633 0.115 0.642 0.119 0.641 C 0.122 0.639 0.123 0.644 0.12 0.655 C 0.118 0.663 0.114 0.667 0.114 0.66 C 0.114 0.657 0.113 0.652 0.112 0.649 C 0.11 0.646 0.11 0.643 0.11 0.642 C 0.111 0.641 0.109 0.639 0.107 0.637 C 0.105 0.636 0.103 0.633 0.103 0.631 C 0.103 0.63 0.102 0.629 0.101 0.63 C 0.101 0.631 0.1 0.63 0.1 0.629 C 0.1 0.627 0.099 0.626 0.099 0.627 C 0.097 0.629 0.097 0.619 0.099 0.617 C 0.099 0.616 0.1 0.614 0.101 0.612 C 0.102 0.601 0.104 0.595 0.105 0.595 C 0.106 0.595 0.106 0.593 0.106 0.591 C 0.106 0.589 0.107 0.586 0.108 0.583 C 0.115 0.571 0.123 0.524 0.116 0.535 C 0.111 0.543 0.098 0.535 0.098 0.524 C 0.098 0.521 0.096 0.519 0.093 0.52 C 0.093 0.52 0.092 0.518 0.091 0.516 C 0.09 0.513 0.089 0.513 0.088 0.514 C 0.086 0.516 0.083 0.516 0.08 0.516 C 0.076 0.515 0.075 0.516 0.075 0.521 C 0.075 0.524 0.074 0.525 0.073 0.524 C 0.072 0.523 0.069 0.537 0.067 0.562 C 0.066 0.572 0.064 0.58 0.063 0.58 C 0.055 0.581 0.053 0.584 0.054 0.598 C 0.054 0.606 0.053 0.619 0.053 0.627 C 0.052 0.635 0.051 0.645 0.051 0.65 C 0.05 0.657 0.047 0.669 0.043 0.683 C 0.042 0.687 0.042 0.694 0.043 0.701 C 0.044 0.709 0.043 0.712 0.042 0.712 C 0.039 0.712 0.041 0.667 0.044 0.654 C 0.046 0.644 0.049 0.62 0.047 0.62 C 0.046 0.62 0.042 0.641 0.042 0.645 C 0.042 0.649 0.042 0.649 0.041 0.646 C 0.04 0.643 0.039 0.644 0.037 0.648 C 0.033 0.654 0.028 0.655 0.027 0.65 C 0.026 0.645 0.029 0.631 0.031 0.633 C 0.032 0.634 0.033 0.631 0.033 0.627 C 0.033 0.622 0.034 0.616 0.035 0.613 C 0.037 0.608 0.037 0.606 0.035 0.6 C 0.034 0.595 0.033 0.588 0.033 0.584 C 0.033 0.58 0.032 0.575 0.031 0.574 C 0.03 0.573 0.03 0.571 0.03 0.568 C 0.031 0.563 0.027 0.56 0.025 0.564 C 0.024 0.566 0.024 0.573 0.025 0.579 C 0.026 0.585 0.025 0.59 0.025 0.59 C 0.024 0.59 0.023 0.586 0.023 0.582 C 0.023 0.578 0.023 0.576 0.022 0.579 C 0.022 0.581 0.021 0.584 0.02 0.585 C 0.019 0.586 0.019 0.589 0.021 0.592 C 0.022 0.597 0.023 0.597 0.024 0.595 C 0.024 0.593 0.025 0.592 0.026 0.593 C 0.028 0.597 0.025 0.604 0.021 0.602 C 0.018 0.601 0.017 0.601 0.017 0.607 C 0.017 0.61 0.015 0.613 0.014 0.614 C 0.013 0.614 0.01 0.615 0.007 0.616 C 0.005 0.617 0.003 0.616 0.004 0.615 C 0.004 0.613 0.004 0.612 0.002 0.612 C 0 0.612 0 0.633 0 0.806 L 0.001 1 L 0.133 1 C 0.22 1 0.266 0.999 0.266 0.997 C 0.266 0.991 0.269 0.985 0.27 0.986 C 0.273 0.99 0.272 0.982 0.268 0.978 C 0.266 0.975 0.266 0.974 0.267 0.975 C 0.268 0.977 0.269 0.976 0.267 0.971 C 0.266 0.968 0.265 0.965 0.263 0.964 C 0.26 0.962 0.26 0.956 0.265 0.948 C 0.267 0.945 0.269 0.943 0.268 0.946 C 0.267 0.948 0.268 0.947 0.27 0.944 C 0.274 0.936 0.274 0.933 0.27 0.931 C 0.267 0.929 0.267 0.93 0.269 0.933 C 0.27 0.935 0.271 0.937 0.271 0.938 C 0.269 0.941 0.26 0.917 0.261 0.914 C 0.261 0.912 0.262 0.91 0.262 0.909 C 0.262 0.908 0.262 0.906 0.263 0.905 C 0.264 0.904 0.264 0.904 0.263 0.906 C 0.263 0.908 0.263 0.91 0.264 0.91 C 0.266 0.91 0.266 0.905 0.264 0.903 C 0.263 0.902 0.262 0.9 0.262 0.898 C 0.262 0.897 0.263 0.896 0.264 0.897 C 0.266 0.899 0.266 0.893 0.264 0.882 C 0.263 0.876 0.261 0.874 0.26 0.875 C 0.259 0.875 0.258 0.875 0.258 0.874 C 0.259 0.864 0.25 0.847 0.247 0.854 C 0.247 0.856 0.248 0.857 0.249 0.857 C 0.251 0.857 0.257 0.873 0.255 0.875 C 0.252 0.878 0.25 0.874 0.251 0.868 C 0.252 0.864 0.251 0.861 0.247 0.859 C 0.244 0.857 0.243 0.854 0.243 0.853 C 0.244 0.851 0.243 0.851 0.242 0.852 C 0.24 0.853 0.238 0.852 0.237 0.848 C 0.236 0.842 0.236 0.842 0.238 0.847 C 0.24 0.851 0.24 0.852 0.24 0.848 C 0.24 0.845 0.239 0.842 0.238 0.84 C 0.236 0.838 0.235 0.837 0.237 0.83 C 0.238 0.826 0.24 0.824 0.24 0.825 C 0.241 0.825 0.242 0.824 0.243 0.822 C 0.243 0.819 0.243 0.818 0.241 0.819 C 0.24 0.82 0.24 0.819 0.24 0.815 C 0.24 0.812 0.241 0.81 0.242 0.811 C 0.243 0.812 0.244 0.811 0.244 0.809 C 0.245 0.807 0.244 0.807 0.239 0.808 C 0.233 0.81 0.227 0.805 0.227 0.796 C 0.227 0.793 0.226 0.791 0.224 0.79 C 0.221 0.79 0.22 0.788 0.22 0.778 C 0.221 0.768 0.221 0.767 0.221 0.775 C 0.222 0.783 0.228 0.795 0.228 0.788 C 0.228 0.786 0.227 0.784 0.226 0.783 C 0.223 0.781 0.223 0.777 0.226 0.764 C 0.228 0.757 0.229 0.754 0.227 0.753 C 0.226 0.752 0.228 0.751 0.23 0.751 C 0.233 0.751 0.234 0.75 0.234 0.749 C 0.232 0.746 0.228 0.746 0.226 0.748 C 0.224 0.75 0.222 0.75 0.219 0.747 C 0.218 0.746 0.217 0.746 0.216 0.747 C 0.215 0.747 0.215 0.745 0.215 0.742 C 0.215 0.74 0.215 0.737 0.216 0.737 C 0.217 0.737 0.217 0.736 0.216 0.734 C 0.216 0.733 0.216 0.732 0.218 0.733 C 0.22 0.735 0.22 0.734 0.22 0.732 C 0.219 0.731 0.221 0.73 0.226 0.73 C 0.233 0.731 0.238 0.721 0.236 0.707 C 0.236 0.704 0.237 0.701 0.237 0.701 C 0.238 0.701 0.239 0.7 0.238 0.698 C 0.237 0.696 0.238 0.695 0.239 0.697 C 0.24 0.698 0.241 0.697 0.241 0.694 C 0.242 0.692 0.243 0.69 0.245 0.69 C 0.247 0.69 0.247 0.682 0.244 0.675 C 0.243 0.672 0.243 0.668 0.243 0.667 C 0.243 0.666 0.243 0.664 0.241 0.663 C 0.24 0.662 0.239 0.66 0.24 0.658 C 0.241 0.657 0.239 0.658 0.237 0.662 C 0.234 0.668 0.234 0.668 0.232 0.663 C 0.229 0.657 0.229 0.651 0.231 0.651 C 0.232 0.651 0.233 0.648 0.233 0.645 C 0.233 0.639 0.231 0.638 0.228 0.643 C 0.227 0.646 0.226 0.646 0.226 0.643 C 0.226 0.638 0.221 0.642 0.217 0.652 C 0.211 0.663 0.204 0.662 0.204 0.65 C 0.204 0.648 0.202 0.646 0.2 0.646 C 0.198 0.645 0.197 0.644 0.197 0.641 C 0.198 0.638 0.198 0.634 0.198 0.631 C 0.198 0.624 0.201 0.624 0.203 0.632 C 0.204 0.637 0.204 0.637 0.206 0.633 C 0.207 0.631 0.209 0.629 0.21 0.629 C 0.213 0.629 0.213 0.621 0.21 0.619 C 0.207 0.617 0.207 0.595 0.21 0.595 C 0.211 0.595 0.211 0.594 0.209 0.592 C 0.208 0.591 0.208 0.59 0.209 0.59 C 0.21 0.59 0.211 0.592 0.212 0.594 C 0.214 0.603 0.218 0.604 0.233 0.596 C 0.252 0.587 0.264 0.585 0.273 0.59 C 0.277 0.592 0.281 0.593 0.282 0.593 C 0.282 0.593 0.283 0.595 0.282 0.597 C 0.282 0.605 0.289 0.61 0.304 0.61 C 0.32 0.611 0.322 0.612 0.322 0.622 C 0.322 0.627 0.323 0.629 0.326 0.629 C 0.328 0.629 0.33 0.631 0.331 0.634 C 0.333 0.647 0.336 0.656 0.338 0.656 C 0.34 0.655 0.342 0.67 0.34 0.681 C 0.339 0.688 0.339 0.694 0.341 0.705 C 0.342 0.713 0.344 0.723 0.345 0.729 C 0.345 0.737 0.346 0.738 0.347 0.733 C 0.35 0.727 0.351 0.728 0.351 0.734 C 0.351 0.737 0.353 0.742 0.355 0.745 C 0.359 0.752 0.36 0.77 0.357 0.772 C 0.353 0.775 0.354 0.787 0.358 0.788 C 0.36 0.788 0.362 0.792 0.364 0.798 C 0.365 0.804 0.367 0.807 0.37 0.807 C 0.371 0.807 0.374 0.808 0.374 0.81 C 0.375 0.811 0.376 0.812 0.376 0.811 C 0.379 0.808 0.394 0.816 0.397 0.821 C 0.398 0.824 0.401 0.826 0.402 0.825 C 0.405 0.824 0.405 0.824 0.402 0.822 C 0.4 0.821 0.398 0.818 0.397 0.816 C 0.397 0.814 0.393 0.81 0.39 0.807 C 0.384 0.802 0.384 0.8 0.388 0.801 C 0.388 0.801 0.389 0.799 0.389 0.796 C 0.389 0.776 0.414 0.792 0.415 0.814 C 0.416 0.823 0.418 0.827 0.422 0.825 C 0.423 0.824 0.424 0.825 0.425 0.827 C 0.426 0.829 0.426 0.828 0.426 0.824 C 0.426 0.818 0.427 0.817 0.43 0.818 C 0.432 0.819 0.434 0.819 0.434 0.817 C 0.434 0.814 0.444 0.818 0.445 0.822 C 0.446 0.823 0.448 0.825 0.45 0.825 C 0.451 0.825 0.453 0.826 0.453 0.827 C 0.453 0.84 0.453 0.841 0.451 0.837 C 0.45 0.834 0.45 0.834 0.45 0.837 C 0.451 0.84 0.452 0.842 0.454 0.842 C 0.459 0.844 0.459 0.822 0.454 0.816 C 0.45 0.812 0.449 0.812 0.465 0.811 C 0.467 0.811 0.469 0.81 0.47 0.809 C 0.47 0.808 0.473 0.807 0.475 0.808 C 0.478 0.809 0.483 0.809 0.487 0.807 C 0.491 0.806 0.497 0.806 0.506 0.809 C 0.516 0.812 0.52 0.812 0.522 0.81 C 0.525 0.806 0.528 0.806 0.528 0.81 C 0.528 0.818 0.533 0.826 0.536 0.823 C 0.538 0.821 0.539 0.818 0.538 0.816 C 0.537 0.809 0.541 0.809 0.544 0.815 C 0.547 0.819 0.548 0.82 0.548 0.819 C 0.548 0.818 0.549 0.82 0.55 0.823 C 0.551 0.828 0.552 0.829 0.552 0.827 C 0.553 0.825 0.552 0.821 0.551 0.819 C 0.549 0.813 0.551 0.808 0.556 0.811 C 0.558 0.812 0.559 0.814 0.559 0.819 C 0.558 0.826 0.561 0.84 0.563 0.84 C 0.563 0.84 0.564 0.838 0.564 0.836 C 0.564 0.834 0.565 0.832 0.566 0.831 C 0.567 0.83 0.569 0.827 0.569 0.825 C 0.569 0.823 0.569 0.821 0.57 0.821 C 0.572 0.821 0.573 0.808 0.571 0.806 C 0.569 0.803 0.573 0.797 0.588 0.783 C 0.592 0.779 0.596 0.776 0.597 0.776 C 0.598 0.776 0.603 0.77 0.607 0.761 C 0.613 0.75 0.617 0.746 0.624 0.742 C 0.629 0.739 0.635 0.734 0.637 0.732 C 0.639 0.729 0.641 0.727 0.642 0.728 C 0.643 0.728 0.643 0.727 0.643 0.725 C 0.642 0.722 0.643 0.721 0.645 0.722 C 0.649 0.724 0.649 0.724 0.646 0.719 C 0.643 0.715 0.643 0.715 0.647 0.715 C 0.652 0.715 0.655 0.711 0.654 0.706 C 0.653 0.702 0.653 0.701 0.656 0.701 C 0.658 0.701 0.659 0.699 0.659 0.695 C 0.66 0.691 0.661 0.688 0.663 0.688 C 0.665 0.688 0.666 0.687 0.666 0.686 C 0.666 0.684 0.668 0.678 0.671 0.672 C 0.674 0.665 0.675 0.661 0.674 0.66 C 0.671 0.658 0.671 0.654 0.676 0.644 C 0.678 0.638 0.679 0.634 0.678 0.632 C 0.676 0.63 0.677 0.626 0.68 0.619 C 0.682 0.614 0.684 0.607 0.684 0.603 C 0.684 0.593 0.688 0.584 0.692 0.585 C 0.695 0.585 0.696 0.584 0.696 0.577 C 0.697 0.573 0.698 0.567 0.699 0.566 C 0.701 0.564 0.701 0.561 0.7 0.559 C 0.698 0.552 0.698 0.545 0.7 0.545 C 0.703 0.545 0.705 0.537 0.702 0.535 C 0.699 0.533 0.699 0.525 0.703 0.524 C 0.705 0.523 0.706 0.521 0.705 0.52 C 0.705 0.519 0.706 0.518 0.708 0.518 C 0.71 0.518 0.712 0.52 0.712 0.522 C 0.712 0.524 0.713 0.526 0.714 0.526 C 0.715 0.526 0.715 0.527 0.715 0.528 C 0.714 0.529 0.716 0.53 0.718 0.53 C 0.72 0.53 0.722 0.528 0.722 0.526 C 0.723 0.524 0.722 0.523 0.721 0.525 C 0.72 0.526 0.72 0.525 0.721 0.522 C 0.723 0.518 0.724 0.518 0.726 0.522 C 0.728 0.527 0.728 0.527 0.727 0.521 C 0.727 0.517 0.727 0.515 0.728 0.516 C 0.729 0.517 0.729 0.52 0.729 0.522 C 0.729 0.524 0.73 0.526 0.731 0.526 C 0.731 0.526 0.732 0.52 0.731 0.514 C 0.73 0.504 0.73 0.502 0.727 0.502 C 0.725 0.502 0.723 0.502 0.723 0.501 C 0.723 0.499 0.722 0.498 0.72 0.497 C 0.718 0.496 0.717 0.497 0.718 0.499 C 0.718 0.503 0.714 0.507 0.712 0.506 C 0.712 0.505 0.71 0.506 0.709 0.508 C 0.707 0.511 0.706 0.511 0.706 0.508 C 0.705 0.506 0.704 0.506 0.703 0.51 C 0.699 0.518 0.697 0.511 0.7 0.503 C 0.703 0.495 0.711 0.481 0.715 0.476 C 0.72 0.469 0.726 0.452 0.726 0.444 C 0.726 0.44 0.727 0.434 0.729 0.43 C 0.732 0.423 0.732 0.419 0.732 0.408 C 0.73 0.381 0.73 0.375 0.728 0.372 C 0.727 0.37 0.726 0.366 0.726 0.363 C 0.726 0.36 0.725 0.354 0.722 0.351 C 0.72 0.347 0.717 0.338 0.716 0.331 C 0.714 0.324 0.713 0.317 0.712 0.315 C 0.711 0.313 0.711 0.308 0.711 0.305 C 0.712 0.299 0.711 0.298 0.709 0.298 C 0.706 0.298 0.7 0.285 0.7 0.28 C 0.7 0.278 0.698 0.275 0.697 0.273 C 0.694 0.269 0.694 0.269 0.697 0.264 C 0.699 0.261 0.7 0.258 0.699 0.257 C 0.699 0.256 0.697 0.258 0.696 0.26 C 0.692 0.268 0.691 0.264 0.696 0.256 C 0.698 0.252 0.7 0.247 0.699 0.245 C 0.698 0.243 0.699 0.242 0.7 0.242 C 0.702 0.242 0.703 0.241 0.703 0.239 C 0.703 0.237 0.704 0.237 0.705 0.237 C 0.706 0.238 0.708 0.238 0.709 0.236 C 0.709 0.234 0.709 0.234 0.708 0.235 C 0.706 0.237 0.706 0.236 0.706 0.233 C 0.707 0.23 0.707 0.228 0.706 0.229 C 0.705 0.231 0.698 0.218 0.698 0.213 C 0.698 0.211 0.699 0.211 0.7 0.214 C 0.701 0.218 0.701 0.218 0.701 0.213 C 0.7 0.211 0.701 0.209 0.701 0.209 C 0.702 0.209 0.703 0.207 0.703 0.205 C 0.703 0.203 0.702 0.203 0.701 0.205 C 0.7 0.207 0.697 0.209 0.695 0.209 C 0.692 0.21 0.691 0.213 0.69 0.22 C 0.688 0.232 0.686 0.236 0.684 0.236 C 0.682 0.236 0.682 0.236 0.684 0.234 C 0.685 0.232 0.687 0.223 0.688 0.215 C 0.688 0.214 0.687 0.212 0.686 0.212 C 0.685 0.212 0.684 0.214 0.685 0.216 C 0.686 0.221 0.678 0.22 0.676 0.215 C 0.675 0.212 0.675 0.211 0.678 0.21 C 0.679 0.209 0.681 0.207 0.68 0.205 C 0.68 0.204 0.678 0.204 0.677 0.206 C 0.674 0.21 0.672 0.207 0.673 0.201 C 0.673 0.198 0.673 0.197 0.672 0.199 C 0.671 0.202 0.665 0.203 0.666 0.2 C 0.667 0.199 0.666 0.197 0.665 0.197 C 0.664 0.197 0.663 0.195 0.663 0.191 C 0.663 0.185 0.663 0.184 0.665 0.188 C 0.668 0.193 0.669 0.193 0.668 0.189 C 0.667 0.188 0.668 0.186 0.669 0.185 C 0.671 0.184 0.672 0.181 0.672 0.179 C 0.672 0.177 0.672 0.175 0.673 0.175 C 0.674 0.174 0.673 0.172 0.672 0.17 C 0.669 0.168 0.668 0.168 0.664 0.174 C 0.66 0.18 0.66 0.18 0.656 0.176 C 0.652 0.172 0.652 0.172 0.655 0.176 C 0.658 0.181 0.658 0.181 0.655 0.181 C 0.653 0.181 0.653 0.182 0.654 0.183 C 0.66 0.187 0.663 0.198 0.659 0.202 C 0.658 0.203 0.657 0.203 0.658 0.2 C 0.659 0.197 0.658 0.196 0.655 0.196 C 0.648 0.196 0.643 0.192 0.645 0.189 C 0.647 0.187 0.647 0.186 0.644 0.187 C 0.642 0.188 0.641 0.188 0.641 0.186 C 0.642 0.185 0.641 0.183 0.64 0.182 C 0.639 0.181 0.639 0.179 0.64 0.178 C 0.64 0.176 0.639 0.177 0.637 0.179 C 0.633 0.184 0.631 0.174 0.635 0.168 C 0.637 0.164 0.636 0.161 0.632 0.161 C 0.629 0.161 0.628 0.163 0.628 0.165 C 0.628 0.168 0.626 0.169 0.621 0.169 C 0.614 0.169 0.614 0.169 0.615 0.163 C 0.615 0.158 0.615 0.158 0.614 0.161 C 0.613 0.164 0.612 0.168 0.612 0.17 C 0.612 0.176 0.602 0.175 0.595 0.168 C 0.593 0.166 0.588 0.164 0.585 0.165 C 0.582 0.165 0.578 0.163 0.577 0.161 C 0.575 0.158 0.573 0.156 0.572 0.156 C 0.57 0.156 0.566 0.155 0.562 0.155 C 0.558 0.154 0.554 0.152 0.552 0.148 C 0.549 0.143 0.548 0.143 0.547 0.146 C 0.544 0.151 0.539 0.153 0.538 0.15 C 0.537 0.148 0.536 0.148 0.536 0.149 C 0.535 0.15 0.534 0.149 0.533 0.147 C 0.533 0.146 0.533 0.145 0.534 0.145 C 0.535 0.145 0.535 0.138 0.535 0.13 C 0.535 0.116 0.535 0.115 0.531 0.116 C 0.528 0.117 0.526 0.116 0.526 0.112 C 0.526 0.108 0.525 0.108 0.525 0.111 Z  M 0.219 0.133 C 0.219 0.135 0.217 0.136 0.215 0.135 C 0.213 0.133 0.212 0.134 0.213 0.137 C 0.214 0.139 0.214 0.139 0.213 0.138 C 0.211 0.135 0.211 0.128 0.212 0.128 C 0.213 0.128 0.214 0.125 0.215 0.122 L 0.216 0.116 L 0.218 0.122 C 0.219 0.126 0.219 0.131 0.219 0.133 Z  M 0.541 0.13 C 0.541 0.133 0.542 0.135 0.543 0.134 C 0.544 0.134 0.545 0.135 0.544 0.137 C 0.544 0.14 0.544 0.142 0.545 0.143 C 0.546 0.145 0.547 0.144 0.546 0.142 C 0.545 0.141 0.546 0.139 0.546 0.139 C 0.547 0.139 0.548 0.137 0.548 0.134 C 0.548 0.131 0.547 0.129 0.546 0.13 C 0.544 0.131 0.544 0.13 0.544 0.128 C 0.544 0.127 0.543 0.125 0.542 0.125 C 0.541 0.125 0.541 0.127 0.541 0.13 Z  M 0.576 0.129 C 0.575 0.132 0.576 0.134 0.578 0.135 C 0.581 0.136 0.583 0.147 0.581 0.147 C 0.581 0.147 0.58 0.149 0.58 0.152 C 0.58 0.154 0.581 0.156 0.582 0.156 C 0.584 0.156 0.584 0.153 0.584 0.146 C 0.584 0.141 0.584 0.137 0.584 0.138 C 0.586 0.14 0.586 0.137 0.584 0.131 C 0.582 0.124 0.577 0.123 0.576 0.129 Z  M 0.173 0.135 C 0.173 0.137 0.172 0.139 0.171 0.139 C 0.169 0.139 0.169 0.138 0.17 0.135 C 0.171 0.133 0.172 0.131 0.173 0.131 C 0.173 0.131 0.173 0.133 0.173 0.135 Z  M 0.709 0.139 C 0.709 0.14 0.708 0.142 0.706 0.143 C 0.7 0.147 0.698 0.152 0.702 0.154 C 0.705 0.155 0.715 0.142 0.713 0.138 C 0.711 0.135 0.709 0.136 0.709 0.139 Z  M 0.589 0.147 C 0.589 0.15 0.59 0.153 0.59 0.153 C 0.591 0.153 0.592 0.152 0.592 0.15 C 0.592 0.148 0.593 0.148 0.594 0.149 C 0.594 0.15 0.595 0.149 0.594 0.146 C 0.593 0.143 0.594 0.142 0.595 0.143 C 0.596 0.144 0.597 0.143 0.597 0.142 C 0.598 0.14 0.597 0.139 0.594 0.14 C 0.591 0.14 0.589 0.142 0.589 0.147 Z  M 0.162 0.152 C 0.161 0.156 0.154 0.156 0.154 0.152 C 0.153 0.148 0.16 0.142 0.161 0.145 C 0.162 0.146 0.162 0.149 0.162 0.152 Z  M 0.598 0.147 C 0.598 0.148 0.599 0.151 0.601 0.153 C 0.602 0.155 0.603 0.155 0.603 0.154 C 0.603 0.152 0.602 0.149 0.601 0.147 C 0.599 0.145 0.598 0.145 0.598 0.147 Z  M 0.199 0.15 C 0.2 0.152 0.199 0.153 0.197 0.153 C 0.195 0.153 0.194 0.152 0.194 0.15 C 0.194 0.149 0.195 0.147 0.196 0.147 C 0.197 0.147 0.199 0.149 0.199 0.15 Z  M 0.693 0.155 C 0.691 0.159 0.692 0.164 0.695 0.163 C 0.699 0.162 0.704 0.156 0.701 0.156 C 0.7 0.156 0.697 0.155 0.696 0.154 C 0.695 0.153 0.694 0.154 0.693 0.155 Z  M 0.632 0.171 C 0.632 0.174 0.631 0.175 0.629 0.175 C 0.627 0.175 0.626 0.174 0.628 0.173 C 0.629 0.173 0.629 0.17 0.629 0.168 C 0.629 0.162 0.631 0.165 0.632 0.171 Z  M 0.648 0.179 C 0.647 0.182 0.648 0.184 0.649 0.184 C 0.65 0.184 0.651 0.182 0.651 0.179 C 0.651 0.177 0.65 0.175 0.65 0.175 C 0.649 0.175 0.648 0.177 0.648 0.179 Z  M 0.76 0.192 C 0.759 0.195 0.758 0.197 0.757 0.196 C 0.755 0.196 0.754 0.196 0.753 0.198 C 0.751 0.204 0.751 0.211 0.753 0.211 C 0.754 0.211 0.754 0.213 0.754 0.214 C 0.754 0.216 0.754 0.217 0.753 0.216 C 0.752 0.215 0.751 0.215 0.751 0.217 C 0.751 0.219 0.753 0.219 0.755 0.218 C 0.761 0.215 0.762 0.212 0.761 0.202 C 0.76 0.194 0.761 0.192 0.763 0.191 C 0.766 0.19 0.766 0.19 0.763 0.188 C 0.761 0.187 0.76 0.188 0.76 0.192 Z  M 0.169 0.213 C 0.167 0.215 0.168 0.228 0.17 0.228 C 0.172 0.228 0.174 0.217 0.172 0.214 C 0.172 0.213 0.17 0.213 0.169 0.213 Z  M 0.22 0.228 C 0.22 0.231 0.221 0.234 0.221 0.234 C 0.221 0.234 0.222 0.231 0.223 0.228 C 0.225 0.224 0.224 0.223 0.223 0.223 C 0.221 0.223 0.22 0.225 0.22 0.228 Z  M 0.682 0.23 C 0.681 0.232 0.681 0.235 0.681 0.237 C 0.681 0.238 0.68 0.239 0.68 0.238 C 0.678 0.236 0.679 0.225 0.681 0.225 C 0.682 0.225 0.682 0.227 0.682 0.23 Z  M 0.832 0.256 C 0.833 0.258 0.832 0.259 0.831 0.257 C 0.829 0.256 0.829 0.256 0.83 0.259 C 0.831 0.265 0.827 0.272 0.825 0.267 C 0.825 0.265 0.826 0.261 0.827 0.259 C 0.83 0.252 0.83 0.252 0.832 0.256 Z  M 0.218 0.263 C 0.215 0.268 0.217 0.272 0.222 0.272 C 0.226 0.271 0.228 0.274 0.224 0.276 C 0.223 0.277 0.223 0.278 0.224 0.28 C 0.225 0.281 0.226 0.281 0.226 0.279 C 0.226 0.277 0.228 0.275 0.229 0.275 C 0.231 0.275 0.231 0.275 0.229 0.271 C 0.227 0.269 0.225 0.268 0.224 0.269 C 0.223 0.27 0.223 0.269 0.225 0.266 C 0.227 0.261 0.221 0.259 0.218 0.263 Z  M 0.216 0.279 C 0.213 0.284 0.216 0.289 0.219 0.284 C 0.22 0.282 0.22 0.281 0.219 0.281 C 0.217 0.281 0.217 0.28 0.219 0.278 C 0.22 0.277 0.22 0.275 0.219 0.275 C 0.218 0.275 0.217 0.277 0.216 0.279 Z  M 0.153 0.287 C 0.153 0.29 0.153 0.292 0.151 0.292 C 0.15 0.292 0.15 0.293 0.151 0.295 C 0.152 0.298 0.153 0.298 0.155 0.295 C 0.158 0.29 0.158 0.285 0.155 0.283 C 0.152 0.28 0.152 0.28 0.153 0.287 Z  M 0.851 0.3 C 0.843 0.314 0.843 0.324 0.851 0.312 C 0.853 0.309 0.857 0.305 0.86 0.303 C 0.866 0.3 0.867 0.294 0.863 0.291 C 0.859 0.288 0.857 0.289 0.851 0.3 Z  M 0.125 0.296 C 0.125 0.298 0.125 0.3 0.125 0.301 C 0.125 0.302 0.122 0.305 0.119 0.307 C 0.114 0.312 0.112 0.32 0.117 0.321 C 0.118 0.322 0.121 0.323 0.122 0.324 C 0.125 0.326 0.126 0.325 0.123 0.317 C 0.122 0.313 0.122 0.312 0.125 0.313 C 0.129 0.315 0.132 0.31 0.13 0.302 C 0.13 0.296 0.129 0.295 0.128 0.297 C 0.127 0.3 0.127 0.3 0.126 0.297 C 0.126 0.295 0.125 0.295 0.125 0.296 Z  M 0.136 0.367 C 0.136 0.368 0.137 0.37 0.138 0.371 C 0.142 0.373 0.142 0.373 0.142 0.369 C 0.142 0.366 0.141 0.364 0.139 0.364 C 0.137 0.364 0.136 0.366 0.136 0.367 Z  M 0.932 0.439 C 0.931 0.44 0.93 0.444 0.931 0.448 L 0.932 0.455 L 0.935 0.448 C 0.94 0.44 0.937 0.432 0.932 0.439 Z  M 0.014 0.505 C 0.013 0.507 0.012 0.511 0.013 0.514 C 0.013 0.517 0.013 0.519 0.011 0.519 C 0.009 0.52 0.008 0.518 0.009 0.515 C 0.009 0.511 0.009 0.511 0.008 0.515 C 0.007 0.518 0.005 0.52 0.004 0.52 C 0.002 0.52 0.002 0.525 0.002 0.543 L 0.002 0.566 L 0.004 0.555 C 0.005 0.549 0.006 0.539 0.007 0.532 C 0.007 0.526 0.008 0.521 0.008 0.522 C 0.01 0.524 0.018 0.52 0.017 0.518 C 0.016 0.517 0.016 0.514 0.017 0.511 C 0.019 0.504 0.017 0.499 0.014 0.505 Z  M 0.084 0.581 C 0.083 0.584 0.084 0.586 0.085 0.586 C 0.092 0.587 0.095 0.589 0.097 0.593 C 0.098 0.597 0.098 0.598 0.096 0.598 C 0.095 0.598 0.094 0.597 0.093 0.596 C 0.092 0.591 0.085 0.589 0.086 0.593 C 0.087 0.595 0.088 0.597 0.09 0.597 C 0.092 0.597 0.093 0.599 0.093 0.602 C 0.094 0.607 0.091 0.608 0.09 0.603 C 0.09 0.601 0.089 0.602 0.088 0.606 C 0.087 0.613 0.086 0.614 0.083 0.607 C 0.079 0.6 0.079 0.576 0.082 0.576 C 0.084 0.576 0.084 0.578 0.084 0.581 Z  M 0.009 0.595 C 0.008 0.597 0.008 0.599 0.009 0.601 C 0.009 0.603 0.009 0.606 0.008 0.608 C 0.007 0.61 0.006 0.613 0.007 0.614 C 0.007 0.615 0.009 0.611 0.01 0.606 C 0.012 0.601 0.013 0.598 0.014 0.6 C 0.014 0.604 0.019 0.6 0.019 0.595 C 0.019 0.593 0.018 0.593 0.016 0.595 C 0.015 0.597 0.014 0.597 0.013 0.595 C 0.012 0.592 0.01 0.592 0.009 0.595 Z  M 0.979 0.595 C 0.979 0.597 0.979 0.598 0.978 0.597 C 0.977 0.596 0.976 0.596 0.976 0.598 C 0.976 0.599 0.975 0.6 0.974 0.599 C 0.973 0.598 0.972 0.599 0.972 0.601 C 0.972 0.602 0.971 0.603 0.97 0.602 C 0.969 0.602 0.969 0.603 0.97 0.607 C 0.97 0.61 0.971 0.611 0.972 0.609 C 0.973 0.606 0.977 0.612 0.976 0.617 C 0.976 0.618 0.976 0.62 0.977 0.62 C 0.98 0.621 0.981 0.62 0.98 0.618 C 0.98 0.616 0.98 0.615 0.981 0.615 C 0.982 0.615 0.982 0.613 0.982 0.611 C 0.981 0.609 0.981 0.609 0.983 0.61 C 0.985 0.611 0.985 0.61 0.985 0.604 C 0.985 0.595 0.979 0.587 0.979 0.595 Z  M 0.122 0.601 C 0.122 0.604 0.121 0.606 0.12 0.606 C 0.12 0.606 0.119 0.604 0.118 0.601 C 0.118 0.597 0.118 0.595 0.12 0.595 C 0.121 0.595 0.122 0.598 0.122 0.601 Z  M 0.025 0.608 C 0.025 0.608 0.024 0.612 0.023 0.616 C 0.021 0.624 0.019 0.625 0.019 0.619 C 0.019 0.617 0.019 0.615 0.02 0.615 C 0.021 0.615 0.022 0.613 0.022 0.611 C 0.022 0.608 0.023 0.606 0.023 0.606 C 0.024 0.606 0.025 0.607 0.025 0.608 Z  M 0.158 0.631 C 0.158 0.629 0.158 0.629 0.159 0.63 C 0.16 0.631 0.159 0.634 0.157 0.636 C 0.152 0.64 0.148 0.635 0.152 0.631 C 0.153 0.63 0.153 0.629 0.152 0.629 C 0.151 0.629 0.152 0.627 0.153 0.626 C 0.155 0.624 0.156 0.625 0.156 0.628 C 0.157 0.631 0.158 0.632 0.158 0.631 Z  M 0.995 0.636 C 0.994 0.641 0.994 0.642 0.996 0.644 C 0.999 0.646 1.001 0.638 0.998 0.634 C 0.997 0.632 0.996 0.633 0.995 0.636 Z  M 0.271 0.641 C 0.265 0.647 0.264 0.648 0.268 0.649 C 0.271 0.651 0.271 0.651 0.268 0.655 C 0.262 0.663 0.264 0.702 0.272 0.712 C 0.276 0.718 0.277 0.723 0.274 0.728 C 0.273 0.73 0.272 0.731 0.272 0.73 C 0.272 0.729 0.27 0.73 0.269 0.732 C 0.267 0.733 0.265 0.736 0.265 0.739 C 0.265 0.741 0.265 0.742 0.264 0.741 C 0.263 0.74 0.263 0.738 0.263 0.736 C 0.264 0.734 0.263 0.735 0.262 0.737 C 0.259 0.741 0.258 0.747 0.261 0.744 C 0.261 0.743 0.262 0.746 0.261 0.749 C 0.26 0.755 0.261 0.755 0.263 0.751 C 0.265 0.748 0.266 0.748 0.267 0.751 C 0.268 0.754 0.27 0.755 0.273 0.755 C 0.276 0.754 0.277 0.754 0.275 0.756 C 0.273 0.759 0.273 0.759 0.277 0.759 C 0.279 0.759 0.281 0.761 0.282 0.762 C 0.282 0.764 0.282 0.765 0.28 0.765 C 0.279 0.765 0.278 0.767 0.278 0.771 C 0.279 0.778 0.286 0.781 0.29 0.776 C 0.292 0.773 0.292 0.773 0.292 0.776 C 0.292 0.778 0.293 0.779 0.295 0.778 C 0.298 0.777 0.298 0.778 0.298 0.784 C 0.298 0.79 0.299 0.792 0.303 0.795 C 0.307 0.797 0.31 0.803 0.313 0.812 C 0.316 0.82 0.318 0.825 0.318 0.825 C 0.319 0.824 0.317 0.819 0.316 0.814 C 0.314 0.808 0.312 0.802 0.312 0.799 C 0.312 0.797 0.312 0.796 0.311 0.797 C 0.31 0.798 0.309 0.797 0.308 0.796 C 0.308 0.794 0.309 0.793 0.31 0.793 C 0.312 0.793 0.319 0.807 0.319 0.813 C 0.319 0.815 0.319 0.818 0.32 0.819 C 0.322 0.823 0.322 0.832 0.32 0.83 C 0.319 0.829 0.319 0.83 0.321 0.834 C 0.322 0.837 0.323 0.84 0.323 0.842 C 0.323 0.846 0.329 0.849 0.334 0.847 C 0.336 0.846 0.338 0.847 0.339 0.851 C 0.341 0.855 0.343 0.857 0.344 0.855 C 0.345 0.854 0.345 0.854 0.344 0.857 C 0.343 0.859 0.344 0.86 0.346 0.859 C 0.347 0.858 0.349 0.858 0.349 0.861 C 0.35 0.863 0.351 0.864 0.352 0.864 C 0.352 0.863 0.353 0.863 0.353 0.865 C 0.353 0.867 0.353 0.868 0.354 0.868 C 0.355 0.867 0.356 0.867 0.356 0.868 C 0.359 0.87 0.364 0.871 0.37 0.871 C 0.375 0.871 0.376 0.872 0.376 0.876 C 0.376 0.882 0.379 0.886 0.379 0.881 C 0.381 0.863 0.379 0.851 0.375 0.855 C 0.375 0.856 0.372 0.854 0.37 0.851 C 0.368 0.848 0.367 0.846 0.368 0.847 C 0.37 0.849 0.37 0.848 0.369 0.843 C 0.368 0.84 0.367 0.837 0.366 0.837 C 0.366 0.837 0.366 0.839 0.366 0.84 C 0.367 0.842 0.366 0.843 0.366 0.843 C 0.365 0.843 0.364 0.841 0.364 0.839 C 0.363 0.829 0.363 0.828 0.361 0.828 C 0.36 0.829 0.359 0.827 0.359 0.825 C 0.359 0.822 0.36 0.821 0.361 0.821 C 0.362 0.821 0.362 0.82 0.362 0.818 C 0.361 0.817 0.359 0.817 0.356 0.817 C 0.351 0.819 0.349 0.81 0.354 0.804 C 0.356 0.801 0.355 0.792 0.353 0.794 C 0.352 0.795 0.351 0.792 0.35 0.788 C 0.349 0.784 0.348 0.782 0.347 0.783 C 0.346 0.784 0.344 0.782 0.343 0.78 C 0.341 0.778 0.336 0.776 0.332 0.776 C 0.327 0.776 0.323 0.775 0.322 0.773 C 0.322 0.771 0.32 0.771 0.318 0.771 C 0.315 0.773 0.315 0.772 0.315 0.762 C 0.315 0.751 0.315 0.75 0.321 0.752 C 0.328 0.755 0.335 0.738 0.334 0.721 C 0.329 0.662 0.315 0.634 0.289 0.634 C 0.28 0.635 0.276 0.636 0.271 0.641 Z  M 0.997 0.653 C 0.998 0.656 0.997 0.659 0.991 0.666 C 0.984 0.675 0.989 0.714 0.996 0.707 C 1 0.703 1.001 0.656 0.998 0.652 C 0.997 0.651 0.996 0.651 0.997 0.653 Z  M 0.136 0.671 C 0.136 0.672 0.137 0.673 0.138 0.673 C 0.139 0.673 0.139 0.674 0.137 0.677 C 0.134 0.684 0.133 0.682 0.134 0.675 C 0.135 0.67 0.135 0.668 0.134 0.668 C 0.133 0.668 0.133 0.669 0.133 0.672 C 0.133 0.674 0.132 0.676 0.131 0.676 C 0.13 0.676 0.13 0.672 0.13 0.668 C 0.131 0.664 0.131 0.659 0.131 0.658 C 0.131 0.656 0.132 0.658 0.134 0.662 C 0.135 0.666 0.136 0.67 0.136 0.671 Z  M 0.177 0.676 C 0.177 0.678 0.175 0.679 0.174 0.679 C 0.171 0.679 0.171 0.679 0.173 0.682 C 0.175 0.684 0.175 0.684 0.174 0.684 C 0.172 0.684 0.172 0.687 0.172 0.692 C 0.172 0.697 0.172 0.7 0.171 0.699 C 0.169 0.697 0.17 0.677 0.172 0.675 C 0.175 0.673 0.178 0.674 0.177 0.676 Z  M 0.202 0.696 C 0.197 0.704 0.197 0.705 0.197 0.699 C 0.197 0.694 0.2 0.688 0.203 0.689 C 0.204 0.69 0.205 0.688 0.205 0.687 C 0.205 0.685 0.205 0.684 0.206 0.685 C 0.206 0.686 0.205 0.691 0.202 0.696 Z  M 0.216 0.693 C 0.217 0.695 0.217 0.696 0.215 0.695 C 0.214 0.694 0.212 0.694 0.212 0.695 C 0.21 0.7 0.216 0.701 0.218 0.697 C 0.221 0.691 0.223 0.692 0.223 0.7 C 0.223 0.704 0.222 0.707 0.221 0.707 C 0.22 0.707 0.219 0.708 0.219 0.709 C 0.22 0.711 0.218 0.713 0.216 0.714 C 0.214 0.715 0.212 0.714 0.211 0.712 C 0.21 0.71 0.209 0.712 0.208 0.717 C 0.207 0.727 0.206 0.727 0.205 0.717 C 0.205 0.714 0.206 0.709 0.207 0.708 C 0.208 0.706 0.21 0.703 0.21 0.701 C 0.211 0.691 0.214 0.687 0.216 0.693 Z  M 0.196 0.705 C 0.196 0.712 0.198 0.715 0.198 0.709 C 0.198 0.707 0.199 0.706 0.199 0.707 C 0.2 0.709 0.191 0.732 0.189 0.732 C 0.186 0.732 0.187 0.715 0.19 0.714 C 0.192 0.713 0.194 0.711 0.193 0.71 C 0.193 0.709 0.193 0.705 0.193 0.701 C 0.194 0.693 0.195 0.695 0.196 0.705 Z  M 0.352 0.714 C 0.352 0.716 0.351 0.72 0.351 0.722 C 0.351 0.724 0.351 0.726 0.35 0.726 C 0.348 0.726 0.348 0.714 0.349 0.711 C 0.351 0.708 0.353 0.709 0.352 0.714 Z  M 0.289 0.731 C 0.293 0.733 0.295 0.745 0.292 0.745 C 0.291 0.745 0.291 0.744 0.291 0.743 C 0.292 0.741 0.291 0.74 0.29 0.74 C 0.288 0.74 0.288 0.741 0.288 0.743 C 0.289 0.744 0.288 0.745 0.286 0.745 C 0.284 0.744 0.282 0.743 0.282 0.741 C 0.282 0.739 0.28 0.738 0.279 0.739 C 0.278 0.74 0.276 0.739 0.276 0.737 C 0.276 0.735 0.277 0.735 0.278 0.736 C 0.279 0.737 0.28 0.735 0.28 0.731 C 0.28 0.727 0.28 0.726 0.282 0.727 C 0.284 0.729 0.287 0.73 0.289 0.731 Z  M 0.241 0.74 C 0.237 0.743 0.235 0.747 0.239 0.748 C 0.252 0.751 0.259 0.75 0.258 0.745 C 0.258 0.742 0.257 0.741 0.256 0.741 C 0.255 0.742 0.255 0.742 0.255 0.741 C 0.255 0.738 0.245 0.737 0.241 0.74 Z  M 0.371 0.751 L 0.376 0.76 L 0.371 0.754 C 0.368 0.75 0.365 0.746 0.365 0.745 C 0.365 0.741 0.366 0.742 0.371 0.751 Z  M 0.224 0.759 C 0.224 0.761 0.223 0.764 0.223 0.764 C 0.223 0.765 0.223 0.764 0.222 0.763 C 0.221 0.762 0.221 0.76 0.222 0.758 C 0.224 0.753 0.225 0.753 0.224 0.759 Z  M 0.285 0.758 C 0.288 0.763 0.288 0.776 0.286 0.776 C 0.283 0.776 0.281 0.768 0.284 0.766 C 0.286 0.765 0.286 0.764 0.283 0.759 C 0.281 0.756 0.28 0.754 0.281 0.754 C 0.282 0.754 0.284 0.756 0.285 0.758 Z  M 0.389 0.776 C 0.392 0.781 0.393 0.781 0.39 0.783 C 0.386 0.786 0.383 0.783 0.383 0.776 C 0.383 0.769 0.384 0.769 0.389 0.776 Z  M 0.603 0.787 C 0.601 0.793 0.599 0.798 0.598 0.798 C 0.598 0.798 0.596 0.799 0.594 0.801 L 0.59 0.804 L 0.594 0.803 C 0.596 0.803 0.597 0.804 0.597 0.806 C 0.597 0.809 0.602 0.807 0.604 0.803 C 0.604 0.802 0.604 0.799 0.603 0.797 C 0.602 0.794 0.602 0.793 0.603 0.793 C 0.603 0.793 0.605 0.795 0.605 0.797 C 0.606 0.799 0.607 0.801 0.607 0.801 C 0.608 0.801 0.609 0.799 0.608 0.796 C 0.607 0.793 0.608 0.792 0.61 0.793 C 0.617 0.797 0.62 0.789 0.613 0.782 C 0.607 0.775 0.608 0.774 0.603 0.787 Z  M 0.304 0.791 C 0.304 0.793 0.303 0.792 0.302 0.789 C 0.301 0.786 0.3 0.782 0.3 0.78 C 0.3 0.779 0.301 0.78 0.302 0.783 C 0.304 0.786 0.305 0.79 0.304 0.791 Z  M 0.565 0.799 C 0.566 0.803 0.564 0.805 0.561 0.803 C 0.56 0.802 0.559 0.8 0.56 0.798 C 0.561 0.795 0.563 0.795 0.565 0.799 Z  M 0.381 0.802 C 0.381 0.805 0.379 0.805 0.378 0.801 C 0.378 0.799 0.378 0.798 0.379 0.799 C 0.38 0.799 0.381 0.801 0.381 0.802 Z  M 0.59 0.809 C 0.588 0.812 0.589 0.815 0.591 0.815 C 0.592 0.815 0.594 0.816 0.594 0.818 C 0.595 0.82 0.595 0.821 0.594 0.819 C 0.593 0.818 0.592 0.819 0.592 0.822 C 0.592 0.826 0.595 0.828 0.595 0.824 C 0.595 0.823 0.596 0.82 0.596 0.817 C 0.596 0.814 0.595 0.812 0.594 0.812 C 0.593 0.812 0.592 0.811 0.593 0.809 C 0.594 0.806 0.592 0.806 0.59 0.809 Z  M 0.58 0.812 C 0.578 0.814 0.578 0.816 0.579 0.818 C 0.58 0.82 0.58 0.825 0.581 0.829 C 0.581 0.837 0.581 0.836 0.586 0.839 C 0.589 0.841 0.589 0.84 0.587 0.836 C 0.586 0.832 0.586 0.831 0.589 0.831 C 0.591 0.832 0.59 0.824 0.587 0.817 C 0.584 0.809 0.583 0.808 0.58 0.812 Z  M 0.494 0.818 C 0.492 0.819 0.492 0.821 0.493 0.824 C 0.494 0.826 0.493 0.825 0.491 0.823 C 0.487 0.817 0.478 0.817 0.477 0.823 C 0.476 0.826 0.477 0.826 0.479 0.825 C 0.48 0.824 0.481 0.825 0.48 0.826 C 0.479 0.83 0.474 0.83 0.472 0.825 C 0.471 0.823 0.469 0.821 0.468 0.82 L 0.465 0.819 L 0.468 0.831 C 0.469 0.837 0.472 0.843 0.473 0.843 C 0.475 0.843 0.477 0.844 0.478 0.846 C 0.479 0.849 0.48 0.849 0.481 0.846 C 0.481 0.844 0.483 0.843 0.485 0.843 C 0.488 0.843 0.489 0.842 0.488 0.839 C 0.488 0.835 0.491 0.832 0.497 0.832 C 0.499 0.832 0.5 0.833 0.499 0.836 C 0.499 0.839 0.499 0.84 0.5 0.839 C 0.501 0.838 0.501 0.838 0.501 0.84 C 0.501 0.841 0.5 0.843 0.499 0.844 C 0.496 0.845 0.497 0.845 0.499 0.845 C 0.501 0.844 0.503 0.841 0.504 0.838 C 0.505 0.835 0.507 0.829 0.508 0.826 C 0.51 0.823 0.511 0.82 0.51 0.819 C 0.509 0.816 0.496 0.815 0.494 0.818 Z  M 0.504 0.823 C 0.503 0.827 0.502 0.828 0.501 0.825 C 0.5 0.824 0.501 0.821 0.502 0.82 C 0.505 0.816 0.506 0.818 0.504 0.823 Z  M 0.274 0.852 C 0.273 0.857 0.274 0.862 0.277 0.862 C 0.278 0.862 0.278 0.852 0.276 0.85 C 0.276 0.849 0.274 0.85 0.274 0.852 Z  M 0.349 0.881 C 0.348 0.882 0.349 0.885 0.351 0.889 C 0.353 0.893 0.355 0.895 0.356 0.894 C 0.358 0.891 0.351 0.879 0.349 0.881 Z  M 0.315 0.891 C 0.316 0.895 0.326 0.903 0.328 0.902 C 0.332 0.9 0.332 0.895 0.328 0.896 C 0.324 0.897 0.32 0.894 0.321 0.89 C 0.321 0.889 0.32 0.888 0.318 0.888 C 0.316 0.889 0.314 0.89 0.315 0.891 Z  M 0.292 0.901 C 0.292 0.904 0.296 0.907 0.297 0.905 C 0.298 0.904 0.298 0.902 0.297 0.901 C 0.296 0.898 0.292 0.898 0.292 0.901 Z  M 0.334 0.912 C 0.336 0.915 0.337 0.919 0.337 0.921 C 0.336 0.922 0.336 0.924 0.337 0.925 C 0.338 0.926 0.338 0.928 0.338 0.931 C 0.337 0.933 0.336 0.934 0.336 0.933 C 0.335 0.93 0.323 0.921 0.32 0.921 C 0.319 0.921 0.319 0.923 0.318 0.926 C 0.318 0.928 0.318 0.927 0.317 0.922 C 0.315 0.914 0.308 0.905 0.307 0.908 C 0.305 0.91 0.308 0.915 0.309 0.914 C 0.311 0.912 0.319 0.946 0.319 0.956 C 0.32 0.965 0.319 0.965 0.317 0.961 C 0.315 0.957 0.314 0.955 0.316 0.954 C 0.317 0.953 0.317 0.951 0.317 0.95 C 0.316 0.948 0.309 0.952 0.309 0.955 C 0.309 0.956 0.31 0.956 0.311 0.955 C 0.312 0.954 0.312 0.956 0.31 0.96 C 0.309 0.963 0.308 0.97 0.308 0.973 C 0.308 0.981 0.308 0.98 0.31 0.967 C 0.311 0.961 0.311 0.96 0.313 0.962 C 0.314 0.964 0.314 0.966 0.312 0.969 C 0.311 0.972 0.311 0.975 0.311 0.978 C 0.312 0.98 0.312 0.982 0.311 0.982 C 0.31 0.982 0.309 0.985 0.309 0.99 C 0.309 0.995 0.309 0.996 0.308 0.993 C 0.307 0.991 0.307 0.988 0.307 0.986 C 0.308 0.984 0.307 0.982 0.306 0.982 C 0.305 0.982 0.305 0.984 0.305 0.989 C 0.306 0.993 0.305 0.996 0.304 0.997 C 0.301 0.998 0.312 0.999 0.337 1 C 0.361 1 0.37 0.998 0.363 0.993 C 0.361 0.991 0.359 0.988 0.358 0.985 C 0.358 0.982 0.357 0.979 0.356 0.979 C 0.355 0.979 0.352 0.972 0.35 0.964 C 0.347 0.955 0.344 0.949 0.343 0.949 C 0.343 0.949 0.342 0.947 0.342 0.944 C 0.342 0.942 0.341 0.94 0.34 0.94 C 0.339 0.94 0.339 0.939 0.34 0.938 C 0.343 0.935 0.346 0.939 0.349 0.95 C 0.351 0.957 0.355 0.957 0.358 0.951 C 0.359 0.948 0.361 0.945 0.361 0.946 C 0.369 0.947 0.368 0.942 0.36 0.939 C 0.354 0.936 0.351 0.933 0.352 0.928 C 0.354 0.919 0.339 0.901 0.335 0.907 C 0.334 0.908 0.333 0.909 0.332 0.907 C 0.331 0.906 0.332 0.908 0.334 0.912 Z  M 0.261 0.924 C 0.263 0.925 0.264 0.927 0.264 0.928 C 0.263 0.929 0.26 0.927 0.258 0.925 C 0.255 0.921 0.254 0.919 0.255 0.917 C 0.256 0.916 0.257 0.917 0.257 0.919 C 0.258 0.921 0.259 0.924 0.261 0.924 Z  M 0.322 0.941 C 0.322 0.943 0.323 0.948 0.325 0.952 C 0.329 0.961 0.329 0.968 0.325 0.968 C 0.323 0.968 0.323 0.967 0.325 0.966 C 0.326 0.964 0.326 0.961 0.323 0.951 C 0.318 0.938 0.318 0.933 0.32 0.936 C 0.321 0.937 0.322 0.939 0.322 0.941 Z " fill-rule="evenodd" fill="rgb(0,0,0)"/></g></g></svg>