<svg xmlns="http://www.w3.org/2000/svg" xmlns:svg="http://www.w3.org/2000/svg" width="67" height="590">
 <style type="text/css">.st0{fill:none;stroke:#ac7d44;stroke-miterlimit:10;}
	.st1{fill:#271000;}
	.st2{display:none;}
	.st3{display:inline;fill:none;stroke:#271000;stroke-width:2;stroke-miterlimit:10;}</style>
 <g>
  <title>Layer 1</title>
  <g id="Layer_10">
   <path class="st0" d="m31.14088,583.5c0,0 -0.4,-0.8 -0.8,-1.3c-0.4,-0.5 -0.3,-0.9 -0.9,-1.2c-0.6,-0.3 -0.3,-0.2 -0.9,-1.2c-0.6,-1 -0.1,-0.6 -0.6,-1.5c-0.5,-1 -0.5,-0.9 -0.5,-2.2c0.1,-1.3 0.1,-1.2 0.5,-2.5c0.4,-1.3 0.1,-0.7 0.2,-2.3c0,-1.6 0.7,-2.3 1.3,-3.1c0.6,-0.8 0.5,-1.7 1.4,-2.4c0.9,-0.7 0.9,-0.8 1.8,-1.2c0.9,-0.4 2.2,-0.7 2.3,-0.8c0.2,-0.2 0.6,-0.3 1.2,-0.1c0.9,0.3 2.8,1 3.2,0.4c0.4,-0.6 0.7,-1.5 1,-1.7c0.3,-0.1 0.4,-1 0.9,-2c0.4,-1 2.6,-3.9 4.2,-4.4c1.6,-0.6 1.5,-0.9 2.6,-0.7c1.2,0.2 2.1,0.3 3.1,0.8c1,0.6 0.6,0.7 1.6,0.8c1.1,0.1 1.5,-0.1 2.3,-0.4s0.9,-0.1 1.2,-0.3s0.7,-0.3 0.7,-0.5s0.2,-0.1 0.4,-0.4c0.2,-0.3 0.2,-0.5 0.5,-0.7c0.3,-0.3 0.2,0 0.8,0.1c0.6,0.2 0.3,0.3 0.5,0.7c0.3,0.4 0,0.7 0.1,0.9c0.1,0.2 0.4,0.4 0.4,0.4s0.2,0.5 0.5,0.7c0.3,0.2 0.5,0.4 0.7,0.8c0.2,0.4 0.5,0.7 0.7,1.2s0.4,0.7 0.7,1.3c0.3,0.6 0.5,0.4 0.5,1c0.1,0.6 -0.1,0.8 -0.7,1.1c-0.5,0.3 -0.7,0.2 -1.2,0.5c-0.5,0.2 -0.3,-0.2 -0.8,-0.3c-0.6,-0.1 -1.2,0.1 -1.6,0c-0.4,-0.1 -0.5,-0.6 -0.9,-0.5c-0.5,0 -0.9,0 -1.5,0.4c-0.2,0 -1,0.4 -1.2,1.1s-0.5,1.5 -0.2,1.8s0.1,0.4 0.2,0.8c0.1,0.4 0.2,0.9 1,1.1s1.4,0.4 1.3,0.5c-0.1,0.1 0.2,0.5 0,0.5s0.5,0.5 0.3,0.5s0.2,0.4 -0.3,0.4c-0.6,0 -0.5,0.4 -0.8,0.2s-0.5,0.2 -0.9,-0.1c-0.4,-0.3 -0.5,-1 -1,-1.1c-0.5,-0.1 -0.3,-0.2 -1,-0.7c-0.6,-0.5 -1.4,-0.9 -2,-1.9c-0.6,-1 -0.6,-1.6 -1.5,-1.5c-0.9,0.1 -1.4,-0.4 -1.8,0.2c-0.5,0.6 -0.9,0.6 -1.2,0.7c-0.2,0.1 0,0.5 -0.2,0.7c-0.2,0.2 -1.5,0.5 -1.3,0.8c0.3,0.3 1,0.4 1.6,0.3c0.6,-0.1 1.7,-0.2 1.9,-0.1c0.2,0.1 0,0.3 0.1,0.6c0.1,0.3 0.2,0 0.8,0.2c0.6,0.2 1,0.4 0.6,0.7c-0.5,0.3 -0.5,0.6 -1.4,0.5c-0.9,-0.1 -1.3,-0.5 -2,-0.5c-0.6,0.1 -1,-0.2 -1.4,-0.3c-0.4,-0.1 -1.1,0.2 -1.6,-0.2c-0.5,-0.4 -1.4,-0.3 -1.4,-0.7c0,-0.4 0.2,-0.8 -0.4,-0.6s-1.1,-0.2 -1.7,0.1c-0.7,0.2 -0.7,0 -1.6,0s-1.9,-0.8 -2.3,-0.2c-0.4,0.6 -0.5,1 -1.2,1.5c-0.7,0.4 -0.8,2.2 -0.8,2.2s-0.4,1.3 -0.5,1.7c0,0.4 0.2,0.6 0.4,1c0.2,0.4 0.4,0.8 0.5,1.2c0.1,0.4 0.6,0.7 0.8,1c0.3,0.3 0.8,0.9 0.5,1.5c-0.3,0.5 -0.2,1.1 0.1,1.4s0.4,0.7 0.3,1.2s-0.7,0.8 -0.6,1.3c0,0.5 0.1,0.9 -0.1,1.2c-0.2,0.3 -0.2,1.1 -0.3,1.3c-0.1,0.2 0,0.5 -0.5,0.6c-0.5,0.1 -0.8,0.2 -0.8,0.5s-0.4,0.4 -0.9,0.1c-0.5,-0.2 -0.6,-0.1 -1.1,0.1c-0.5,0 -1.3,-1 -1.3,-1z" id="svg_1"/>
   <path class="st1" d="m63.14088,561.4c0.1,0.6 -0.1,0.8 -0.7,1.1c-0.5,0.3 -0.7,0.2 -1.2,0.5c-0.5,0.2 -0.3,-0.2 -0.8,-0.3c-0.6,-0.1 -1.2,0.1 -1.6,0c-0.4,-0.1 -0.5,-0.6 -0.9,-0.5c-0.5,0 -0.9,0 -1.5,0.4c-0.6,0.3 -1.4,0.7 -1.6,1.4s-0.5,1.5 -0.2,1.8s0.1,0.4 0.2,0.8c0.1,0.4 0.2,0.9 1,1.1s1.4,0.4 1.3,0.5c-0.1,0.1 0.2,0.5 0,0.5s0.5,0.5 0.3,0.5s0.2,0.4 -0.3,0.4c-0.6,0 -0.5,0.4 -0.8,0.2s-0.5,0.2 -0.9,-0.1c-0.4,-0.3 -0.5,-1 -1,-1.1c-0.5,-0.1 -0.3,-0.2 -1,-0.7c-0.6,-0.5 -1.4,-0.9 -2,-1.9c-0.6,-1 -0.6,-1.6 -1.5,-1.5c-0.9,0.1 -1.4,-0.4 -1.8,0.2c-0.5,0.6 -0.9,0.6 -1.2,0.7c-0.2,0.1 0,0.5 -0.2,0.7c-0.2,0.2 -1.5,0.5 -1.3,0.8c0.3,0.3 1,0.4 1.6,0.3c0.6,-0.1 1.7,-0.2 1.9,-0.1c0.2,0.1 0,0.3 0.1,0.6c0.1,0.3 0.2,0 0.8,0.2c0.6,0.2 1,0.4 0.6,0.7c-0.5,0.3 -0.5,0.6 -1.4,0.5c-0.9,-0.1 -1.3,-0.5 -2,-0.5c-0.6,0.1 -1,-0.2 -1.4,-0.3c-0.4,-0.1 -1.1,0.2 -1.6,-0.2c-0.5,-0.4 -1.4,-0.3 -1.4,-0.7c0,-0.4 0.2,-0.8 -0.4,-0.6s-1.1,-0.2 -1.7,0.1c-0.7,0.2 -0.7,0 -1.6,0s-1.9,-0.8 -2.3,-0.2c-0.4,0.6 -0.5,1 -1.2,1.5c-0.7,0.4 -0.8,2.2 -0.8,2.2s-0.4,1.3 -0.5,1.7c0,0.4 0.2,0.6 0.4,1c0.2,0.4 0.4,0.8 0.5,1.2c0.1,0.4 0.6,0.7 0.8,1c0.3,0.3 0.8,0.9 0.5,1.5c-0.3,0.5 -0.2,1.1 0.1,1.4s0.4,0.7 0.3,1.2s-0.7,0.8 -0.6,1.3c0,0.5 0.1,0.9 -0.1,1.2c-0.2,0.3 -0.2,1.1 -0.3,1.3c-0.1,0.2 0,0.5 -0.5,0.6c-0.5,0.1 -0.8,0.2 -0.8,0.5s-0.4,0.4 -0.9,0.1c-0.5,-0.2 -0.6,-0.1 -1.1,0.1c-0.5,0.1 -1.4,-0.9 -1.4,-0.9s-0.4,-0.8 -0.8,-1.3s-0.3,-0.9 -0.9,-1.2c-0.6,-0.3 -0.3,-0.2 -0.9,-1.2s-0.1,-0.6 -0.6,-1.5c-0.5,-1 -0.5,-0.9 -0.5,-2.2c0.1,-1.3 0.1,-1.2 0.5,-2.5c0.4,-1.3 0.1,-0.7 0.2,-2.3c0,-1.6 0.7,-2.3 1.3,-3.1c0.6,-0.8 0.5,-1.7 1.4,-2.4c0.9,-0.7 0.9,-0.8 1.8,-1.2c0.9,-0.4 2.2,-0.7 2.3,-0.8c0.2,-0.2 0.6,-0.3 1.2,-0.1c0.9,0.3 2.8,1 3.2,0.4c0.4,-0.6 0.7,-1.5 1,-1.7c0.3,-0.1 0.4,-1 0.9,-2c0.4,-1 2.6,-3.9 4.2,-4.4c1.6,-0.6 1.5,-0.9 2.6,-0.7c1.2,0.2 2.1,0.3 3.1,0.8c1,0.6 0.6,0.7 1.6,0.8c1.1,0.1 1.5,-0.1 2.3,-0.4c0.8,-0.3 0.9,-0.1 1.2,-0.3c0.3,-0.2 0.7,-0.3 0.7,-0.5s0.2,-0.1 0.4,-0.4c0.2,-0.3 0.2,-0.5 0.5,-0.7c0.3,-0.3 0.2,0 0.8,0.1c0.6,0.2 0.3,0.3 0.5,0.7c0.3,0.4 0,0.7 0.1,0.9c0.1,0.2 0.4,0.4 0.4,0.4s0.2,0.5 0.5,0.7s0.5,0.4 0.7,0.8c0.2,0.4 0.5,0.7 0.7,1.2s0.4,0.7 0.7,1.3c0.7,0.2 0.9,0.1 1,0.6z" id="svg_2"/>
  </g>
  <g id="Layer_9_1_">
   <path class="st0" d="m61.94088,495.2c0.5,1.1 0.7,0.6 1.9,1.9c1,1 1.7,2.9 1.4,3.2c-0.6,0.8 -1.9,1.4 -2.4,1.3c-1.9,-0.6 -2.3,-1.4 -3.5,-1.2c-0.4,0.1 -0.9,0.4 -1.7,0.9c-0.9,0.6 -1.4,1 -1.7,1.7c-0.4,0.8 -0.2,1.6 -0.2,1.9c0.1,0.3 0.9,1.6 1.7,2.3c0.7,0.6 2.4,0.5 2.3,0.8c0,0.3 -1.4,1 -1.8,1.1c-0.2,0 -0.8,-0.5 -1.3,-0.7c-1.2,-0.5 -2,-1.9 -2.1,-2.1c-0.6,-1 -0.6,-1.9 -0.8,-1.9c-0.2,0 -0.9,0.9 -0.6,1.8c0.2,0.7 1.4,1.2 1.4,1.9c0,0.3 1.6,0.9 1.4,1.1c-0.4,0.2 -2.8,-0.6 -3.3,-1.3c-0.6,-1 -0.8,-1.8 -1.4,-3.5c-0.2,-0.4 -0.4,-0.8 -0.8,-1.5c-0.5,-0.8 -0.8,-1.4 -0.9,-1.4c-0.2,0.1 0.1,0.7 -0.1,1.8c-0.1,0.4 -0.2,1.8 -1.1,2.2c-0.4,0.2 -0.7,0 -0.9,0.2c-0.2,0.3 0.1,1.1 0.6,1.5c0.8,0.7 1.7,0.3 2.1,0.9c0.2,0.3 0.2,0.7 0,0.9c-0.3,0.4 -1.1,-0.2 -1.7,0.2c-0.3,0.2 -0.3,0.4 -0.5,0.5c-0.1,0 -0.5,0.1 -1.6,-1.7c-0.8,-1.2 -0.6,-1.4 -1.1,-1.9c-0.7,-0.7 -1.2,-0.3 -2.1,-1c-0.8,-0.6 -0.6,-1.1 -1.3,-1.4c-0.9,-0.5 -1.4,0.2 -2.3,-0.2c-1,-0.4 -0.8,-1.3 -2.1,-2c-0.7,-0.4 -1,0.6 -1.7,0.2c-1.2,-0.7 -0.8,0.1 -1.9,-0.4c-0.9,-0.5 -1.2,0 -2.1,-0.5c-0.7,-0.4 -0.7,0.2 -1.6,-0.5c-0.4,-0.3 -0.3,0.8 -1.1,0.4c-1.6,-0.9 -1.7,0.8 -2.2,0.8c-0.8,0.1 -0.8,0.9 -1.7,1c-0.9,0.1 -1.1,0.3 -2,0.4c-0.8,0.1 -0.8,1.7 -2.1,2.3c-0.4,0.2 -0.9,0.4 -1.6,0.3c-1.1,-0.1 -1.3,0.2 -2,0.3c-0.9,0.1 -1,1.5 -1.8,1.6c-0.8,0.1 -0.9,0.1 -2.1,-0.2c-0.7,-0.2 0.1,1.2 -1.9,1.6c-1.9,0.4 -2.2,0.2 -2.4,0.1c-0.5,-0.4 -0.5,-1.3 -0.3,-1.9c0.2,-0.6 0.5,-0.6 0.9,-1.4c0.4,-0.8 0.1,-2 0.5,-2.6c0.4,-0.6 -0.3,-0.6 0.8,-1.3c1.2,-0.8 1,-1 1.6,-1.3c1.2,-0.5 1.7,-0.7 3.8,-0.8c1.4,-0.1 1.3,-1.4 2.4,-1.3c1.2,0.1 1.4,-0.5 2.5,-0.5c0.9,0 0.9,-1.3 2.1,-1.4c0.9,-0.1 0.9,-0.9 2.3,-0.9c1.9,0.1 2.4,-1.2 3.1,-0.8c0.6,0.4 0.5,-0.3 1.1,0.1c1.1,0.6 1.8,0.7 3.1,1.2c0.4,0.1 0.9,-0.3 1.9,0.9c1,1.2 1.1,0.5 1.2,0.8c0.1,0.8 -0.2,-0.2 0,0.3c0.3,0.6 1,0 1.6,-0.1c0.6,-0.1 0.8,-0.6 1.4,-1.3c0,0 0.9,-1 2.4,-2c1.5,-1 3.1,-1.1 3.8,-1.2c1.7,-0.2 3,0.2 4.1,0.5c2,0.5 3.6,1.4 3.6,1.4c1.3,0.6 1.7,1 2.5,1c0.8,0 1.9,-0.4 2.2,-1.2c0,0 0.1,-0.2 0.2,-1.8l0,0c0,0 0.6,-0.2 1,0c0.5,0.2 0.4,0.9 0.7,0.9c0.3,0 0.5,-1.3 0.9,-1.3c0.1,0 0.3,0.1 0.6,0.9c0.5,0.7 0.6,1.1 0.7,1.4z" id="svg_3"/>
   <path class="st1" d="m61.94088,495.2c0.5,1.1 0.7,0.6 1.9,1.9c1,1 1.7,2.9 1.4,3.2c-0.6,0.8 -1.9,1.4 -2.4,1.3c-1.9,-0.6 -2.3,-1.4 -3.5,-1.2c-0.4,0.1 -0.9,0.4 -1.7,0.9c-0.9,0.6 -1.4,1 -1.7,1.7c-0.4,0.8 -0.2,1.6 -0.2,1.9c0.1,0.3 0.9,1.6 1.7,2.3c0.7,0.6 2.2,0.7 2.2,1c0,0.3 -1.1,0.8 -1.5,0.9c-0.2,0 -0.9,-0.4 -1.4,-0.6c-1.2,-0.5 -1.8,-1.5 -1.8,-1.6c-0.6,-1 -0.8,-2.3 -1,-2.3c-0.2,0 -0.9,0.9 -0.6,1.8c0.2,0.7 1.8,1.2 1.8,1.9c0,0.3 1.2,0.9 1,1c-0.4,0.2 -2.8,-0.6 -3.3,-1.3c-0.6,-1 -0.8,-1.8 -1.4,-3.5c-0.2,-0.4 -0.4,-0.8 -0.8,-1.5c-0.5,-0.8 -0.8,-1.4 -0.9,-1.4c-0.2,0.1 0.1,0.7 -0.1,1.8c-0.1,0.4 -0.2,1.8 -1.1,2.2c-0.4,0.2 -0.7,0 -0.9,0.2c-0.2,0.3 0.1,1.1 0.6,1.5c0.8,0.7 1.7,0.3 2.1,0.9c0.2,0.3 0.2,0.7 0,0.9c-0.3,0.4 -1.1,-0.2 -1.7,0.2c-0.3,0.2 -0.3,0.4 -0.5,0.5c-0.1,0 -0.5,0.1 -1.6,-1.7c-0.8,-1.2 -0.6,-1.4 -1.1,-1.9c-0.7,-0.7 -1.2,-0.3 -2.1,-1c-0.8,-0.6 -0.6,-1.1 -1.3,-1.4c-0.9,-0.5 -1.4,0.2 -2.3,-0.2c-1,-0.4 -0.8,-1.3 -2.1,-2c-0.7,-0.4 -1,0.6 -1.7,0.2c-1.2,-0.7 -0.8,0.1 -1.9,-0.4c-0.9,-0.5 -1.2,0 -2.1,-0.5c-0.7,-0.4 -0.7,0.2 -1.6,-0.5c-0.4,-0.3 -0.3,0.8 -1.1,0.4c-1.6,-0.9 -1.7,0.8 -2.2,0.8c-0.8,0.1 -0.8,0.9 -1.7,1c-0.9,0.1 -1.1,0.3 -2,0.4c-0.8,0.1 -0.8,1.7 -2.1,2.3c-0.4,0.2 -0.9,0.4 -1.6,0.3c-1.1,-0.1 -1.3,0.2 -2,0.3c-0.9,0.1 -1,1.5 -1.8,1.6c-0.8,0.1 -0.9,0.1 -2.1,-0.2c-0.7,-0.2 0.1,1.2 -1.9,1.6c-1.9,0.4 -2.2,0.2 -2.4,0.1c-0.5,-0.4 -0.5,-1.3 -0.3,-1.9c0.2,-0.6 0.5,-0.6 0.9,-1.4c0.4,-0.8 0.1,-2 0.5,-2.6c0.4,-0.6 -0.3,-0.6 0.8,-1.3c1.2,-0.8 1,-1 1.6,-1.3c1.2,-0.5 1.7,-0.7 3.8,-0.8c1.4,-0.1 1.3,-1.4 2.4,-1.3c1.2,0.1 1.4,-0.5 2.5,-0.5c0.9,0 0.9,-1.3 2.1,-1.4c0.9,-0.1 0.9,-0.9 2.3,-0.9c1.9,0.1 2.4,-1.2 3.1,-0.8c0.6,0.4 0.5,-0.3 1.1,0.1c1.1,0.6 1.8,0.7 3.1,1.2c0.4,0.1 0.9,-0.3 1.9,0.9c1,1.2 1.1,0.5 1.2,0.8c0.1,0.8 -0.2,-0.2 0,0.3c0.3,0.6 1,0 1.6,-0.1c0.6,-0.1 0.8,-0.6 1.4,-1.3c0,0 0.9,-1 2.4,-2c1.5,-1 3.1,-1.1 3.8,-1.2c1.7,-0.2 3,0.2 4.1,0.5c2,0.5 3.6,1.4 3.6,1.4c1.3,0.6 1.7,1 2.5,1c0.8,0 1.9,-0.4 2.2,-1.2c0,0 0.1,-0.2 0.2,-1.8l0,0c0,0 0.6,-0.2 1,0c0.5,0.2 0.4,0.9 0.7,0.9c0.3,0 0.5,-1.3 0.9,-1.3c0.1,0 0.3,0.1 0.6,0.9c0.3,0.6 0.4,1 0.5,1.3z" id="svg_4"/>
  </g>
  <g id="Layer_8_1_">
   <path class="st0" d="m61.14088,435.3c0.4,1.1 0.7,0.7 1.9,2c0.9,1 1.5,3 1.3,3.2c-0.6,0.8 -1.9,1.3 -2.4,1.1c-1.9,-0.6 -2.3,-1.6 -3.4,-1.4c-0.4,0.1 -0.9,0.3 -1.7,0.9c-0.9,0.6 -1.5,0.9 -1.8,1.6c-0.4,0.8 -0.3,1.6 -0.3,1.9c0,0.3 0.2,1.3 1,2c0.6,0.6 2.3,0.6 2.3,0.9c0,0.3 -1.4,1 -1.8,1c-0.2,0 -0.7,-0.5 -1.2,-0.7c-1.2,-0.5 -1.4,-1.7 -1.4,-1.8c-0.5,-1.1 -0.5,-1.9 -0.7,-1.9c-0.2,0 -0.9,0.9 -0.7,1.8c0.1,0.7 0.7,0.9 0.7,1.6c0,0.3 1.6,1 1.3,1.1c-0.4,0.2 -2.8,-0.8 -3.2,-1.4c-0.6,-1 -0.1,-1.5 -0.7,-3.2c-0.1,-0.4 -0.3,-0.8 -0.7,-1.5c-0.4,-0.8 -0.7,-1.5 -0.9,-1.4c-0.2,0 0,0.7 -0.1,1.7c-0.1,0.4 -0.3,1.8 -1.2,2.1c-0.4,0.2 -0.7,-0.1 -0.9,0.1c-0.2,0.3 0,1.1 0.6,1.5c0.8,0.7 1.7,0.3 2,1c0.1,0.3 0.2,0.7 0,0.9c-0.3,0.3 -1.1,-0.3 -1.8,0.1c-0.3,0.2 -0.3,0.4 -0.5,0.5c-0.1,0 -0.5,0 -1.5,-1.8c-0.7,-1.3 -0.5,-1.5 -1,-1.9c-0.7,-0.7 -1.2,-0.3 -2.1,-1.1c-0.8,-0.7 -0.5,-1.1 -1.2,-1.5c-0.8,-0.5 -1.4,0.1 -2.3,-0.3c-1,-0.4 -0.8,-1.3 -2,-2.1c-0.7,-0.4 -0.8,-0.2 -1.4,-0.6c-1.2,-0.7 -0.9,-1.5 -2,-2.1c-0.9,-0.5 -1.2,0 -2,-0.6c-0.7,-0.5 -0.6,-0.9 -1.6,-1.6c-0.3,-0.3 -0.3,-0.2 -1.1,-0.7c-1.5,-1 -1.6,-1.3 -2.1,-1.3c-0.8,0 -0.9,0.8 -1.7,0.9c-0.9,0.1 -1.1,-0.7 -2,-0.7c-0.8,0 -0.9,0.7 -2.2,1.2c-0.4,0.1 -1,0.3 -1.6,0.2c-1.1,-0.1 -1.3,-0.9 -2,-0.8c-0.9,0.1 -1,1.4 -1.9,1.5c-0.8,0.1 -0.9,-1 -2,-1.3c-0.7,-0.2 -0.9,0.1 -2.9,0.4c-1.9,0.3 -2.2,0.1 -2.4,0c-0.5,-0.4 -0.4,-1.3 -0.2,-1.9c0.2,-0.6 0.6,-0.6 1,-1.4c0.4,-0.8 0.2,-1 0.6,-1.6c0.4,-0.6 0.8,-0.5 1.9,-1.2c1.3,-0.8 1,-0.9 1.6,-1.2c1.2,-0.5 1.7,0.4 3.7,0.4c1.4,0 1.4,-0.4 2.4,-0.2c1.2,0.2 1.4,0.6 2.5,0.6c0.9,0 0.9,-0.2 2.1,-0.3c0.9,0 0.9,0.1 2.3,0.2c1.9,0.2 2.4,-0.1 3,0.4c0.6,0.4 0.4,0.7 1,1.1c1,0.7 1.8,-0.2 3.1,0.3c0.4,0.2 0.8,0.8 1.8,2c1,1.2 1.1,1.6 1.1,1.9c0.1,0.8 -0.3,1 -0.1,1.6c0.2,0.6 1,1.1 1.6,1c0.6,-0.1 0.8,-0.6 1.4,-1.3c0,0 0.9,-1 2.5,-1.9c1.6,-0.9 3.1,-1 3.9,-1c1.7,-0.1 3,0.3 4,0.7c2,0.6 3.6,1.5 3.6,1.5c1.2,0.7 1.6,1.1 2.5,1.1c0.8,0 1.9,-0.3 2.3,-1.1c0,0 0.1,-0.2 0.3,-1.8l0,0c0,0 0.6,-0.1 1,0c0.5,0.2 0.4,0.9 0.6,0.9c0.3,0 0.6,-1.2 0.9,-1.2c0.1,0 0.2,0.1 0.5,1c0.2,1.3 0.3,1.6 0.4,1.9z" id="svg_5"/>
   <path class="st1" d="m61.14088,435.3c0.4,1.1 0.7,0.7 1.9,2c0.9,1 1.5,3 1.3,3.2c-0.6,0.8 -1.9,1.3 -2.4,1.1c-1.9,-0.6 -2.3,-1.6 -3.4,-1.4c-0.4,0.1 -0.9,0.3 -1.7,0.9c-0.9,0.6 -1.5,0.9 -1.8,1.6c-0.4,0.8 -0.3,1.6 -0.3,1.9c0,0.3 0.2,1.3 1,2c0.6,0.6 2.2,0.8 2.2,1.1c0,0.3 -1.1,0.8 -1.5,0.8c-0.2,0 -0.9,-0.4 -1.4,-0.7c-1.2,-0.5 -1.7,-1.6 -1.7,-1.7c-0.5,-1.1 -0.1,-2 -0.3,-2c-0.2,0 -0.9,0.9 -0.7,1.8c0.1,0.7 1.1,0.9 1.1,1.7c0,0.3 1.2,1 0.9,1.1c-0.4,0.2 -2.8,-0.8 -3.2,-1.4c-0.6,-1 -0.1,-1.5 -0.7,-3.2c-0.1,-0.4 -0.3,-0.8 -0.7,-1.5c-0.4,-0.8 -0.7,-1.5 -0.9,-1.4c-0.2,0 0,0.7 -0.1,1.7c-0.1,0.4 -0.3,1.8 -1.2,2.1c-0.4,0.2 -0.7,-0.1 -0.9,0.1c-0.2,0.3 0,1.1 0.6,1.5c0.8,0.7 1.7,0.3 2,1c0.1,0.3 0.2,0.7 0,0.9c-0.3,0.3 -1.1,-0.3 -1.8,0.1c-0.3,0.2 -0.3,0.4 -0.5,0.5c-0.1,0 -0.5,0 -1.5,-1.8c-0.7,-1.3 -0.5,-1.5 -1,-1.9c-0.7,-0.7 -1.2,-0.3 -2.1,-1.1c-0.8,-0.7 -0.5,-1.1 -1.2,-1.5c-0.8,-0.5 -1.4,0.1 -2.3,-0.3c-1,-0.4 -0.8,-1.3 -2,-2.1c-0.7,-0.4 -0.8,-0.2 -1.4,-0.6c-1.2,-0.7 -0.9,-1.5 -2,-2.1c-0.9,-0.5 -1.2,0 -2,-0.6c-0.7,-0.5 -0.6,-0.9 -1.6,-1.6c-0.3,-0.3 -0.3,-0.2 -1.1,-0.7c-1.5,-1 -1.6,-1.3 -2.1,-1.3c-0.8,0 -0.9,0.8 -1.7,0.9c-0.9,0.1 -1.1,-0.7 -2,-0.7c-0.8,0 -0.9,0.7 -2.2,1.2c-0.4,0.1 -1,0.3 -1.6,0.2c-1.1,-0.1 -1.3,-0.9 -2,-0.8c-0.9,0.1 -1,1.4 -1.9,1.5c-0.8,0.1 -0.9,-1 -2,-1.3c-0.7,-0.2 -0.9,0.1 -2.9,0.4c-1.9,0.3 -2.2,0.1 -2.4,0c-0.5,-0.4 -0.4,-1.3 -0.2,-1.9c0.2,-0.6 0.6,-0.6 1,-1.4c0.4,-0.8 0.2,-1 0.6,-1.6c0.4,-0.6 0.8,-0.5 1.9,-1.2c1.3,-0.8 1,-0.9 1.6,-1.2c1.2,-0.5 1.7,0.4 3.7,0.4c1.4,0 1.4,-0.4 2.4,-0.2c1.2,0.2 1.4,0.6 2.5,0.6c0.9,0 0.9,-0.2 2.1,-0.3c0.9,0 0.9,0.1 2.3,0.2c1.9,0.2 2.4,-0.1 3,0.4c0.6,0.4 0.4,0.7 1,1.1c1,0.7 1.8,-0.2 3.1,0.3c0.4,0.2 0.8,0.8 1.8,2c1,1.2 1.1,1.6 1.1,1.9c0.1,0.8 -0.3,1 -0.1,1.6c0.2,0.6 1,1.1 1.6,1c0.6,-0.1 0.8,-0.6 1.4,-1.3c0,0 0.9,-1 2.5,-1.9c1.6,-0.9 3.1,-1 3.9,-1c1.7,-0.1 3,0.3 4,0.7c2,0.6 3.6,1.5 3.6,1.5c1.2,0.7 1.6,1.1 2.5,1.1c0.8,0 1.9,-0.3 2.3,-1.1c0,0 0.1,-0.2 0.3,-1.8l0,0c0,0 0.6,-0.1 1,0c0.5,0.2 0.4,0.9 0.6,0.9c0.3,0 0.6,-1.2 0.9,-1.2c0.1,0 0.2,0.1 0.5,1c0.1,1.2 0.2,1.5 0.3,1.8z" id="svg_6"/>
  </g>
  <g id="Layer_7">
   <path class="st0" d="m30.84088,383.7c0.4,0.1 0.6,0.8 0.4,1.2c-0.2,0.4 -0.8,0.5 -1.3,0.6c-1.8,0.2 -3.1,-0.9 -3.1,-0.9c-0.1,-0.1 -1.8,-1.5 -1.5,-2.9c0.2,-0.8 0.8,-0.8 1,-1.7c0.2,-0.8 -0.3,-1 -0.4,-2.1c-0.2,-1.5 0.7,-2 0.3,-2.8c-0.1,-0.2 -0.2,-0.3 -2.1,-1.4c-1.6,-0.9 -1.9,-1 -2.2,-1c-0.8,-0.1 -0.9,0.1 -2.1,0.1c-1.7,0 -2,-0.5 -2.8,-0.2c-0.9,0.4 -0.7,1.1 -1.6,1.5c-1,0.5 -1.5,-0.3 -3,-0.1c-1.3,0.2 -1.2,0.9 -3,1.4c-0.7,0.2 -2,0.6 -2.6,0c-0.4,-0.4 0,-0.8 -0.4,-1.8c-0.4,-1 -0.8,-1 -1,-1.7c-0.1,-0.8 0.3,-1.9 1.1,-2.3c0.9,-0.5 1.4,0.1 2.6,-0.4c1,-0.4 0.9,-0.9 2,-1.4c0.9,-0.4 1.2,-0.2 2.4,-0.5c1.9,-0.5 2,-1.3 3.4,-1.6c1.1,-0.2 1.1,0.3 3,0.5c2.6,0.3 3.2,-0.5 4.8,0.1c1.2,0.5 2.1,1.4 2.1,1.5c0.5,0.6 0.4,0.7 1.1,1.5c0.9,1 1.3,1.1 1.5,1.8c0.2,0.7 -0.2,1.2 0.1,1.4c0.4,0.2 1.1,-1 2.6,-1.6c1.3,-0.5 2.4,-0.3 3.5,-0.1c1,0.2 2.4,0.4 3.5,1.5c1.2,1.1 1.8,2.5 1.8,2.5c0.3,0.8 0.4,1.4 1,1.7c0.4,0.2 0.9,0.1 1.2,-0.1c0.2,-0.2 0.1,-0.4 0.1,-1c0,-0.2 0.1,-1.3 0.4,-1.4c0.4,-0.1 0.9,2.4 1.7,2.3c0.2,0 0.4,-0.2 0.7,-0.6c0.7,-0.8 0.8,-1.5 1,-1.5c0.2,0 0.4,0.6 0.5,1.1c0.1,0.6 -0.1,0.8 0,1c0.2,0.4 3.5,1.1 5,6.1c0.3,1.1 -1.2,1.4 -2.4,1.1c-0.8,-0.2 -3.1,-1.3 -3.5,-1.1c-0.2,0.1 -0.2,0.3 -0.5,0.8c-0.4,0.6 -0.6,0.5 -0.9,1c-0.3,0.5 -0.3,1 -0.3,1.7c0,0.6 0,1.1 0.3,1.7c0.4,0.7 1,0.8 1,1.1c-0.1,0.3 -0.7,0.4 -1.1,0.3c-0.9,-0.1 -1.4,-0.7 -1.5,-0.8c-0.8,-0.9 -0.7,-2.1 -0.7,-2.4c0.1,-1.1 0.6,-1.6 0.3,-2.1c-0.2,-0.3 -0.6,-0.5 -0.9,-0.5c-0.6,0 -0.6,0.7 -1.2,0.9c-0.5,0.1 -0.8,-0.3 -1.9,-1c-1,-0.6 -2.2,-1.2 -2.3,-1c-0.1,0.1 0.8,0.9 1.3,1.4c1.1,0.9 1.6,1.1 1.6,1.4c0,0.6 -1.1,0.7 -1.2,1.4c0,0.3 0.1,0.7 0.3,1c0,0 0.1,0.1 0.9,0.4l0,0c0,0 0.6,0.4 0.6,0.6c0,0 0,0.2 -0.8,0.3l0,0c0.2,0.7 0.1,0.8 0.1,0.8c-0.2,0.1 -0.9,-0.7 -2.2,-1.9c-1.5,-1.3 -1.9,-1.6 -2,-2.2c-0.1,-0.8 0.5,-1.2 0.3,-1.7c-0.2,-0.4 -0.7,-0.3 -2.1,-0.5c-1.6,-0.2 -2.4,-0.3 -2.7,-0.8c-0.4,-0.7 0.3,-1.8 0.1,-1.9c-0.2,-0.1 -0.6,0.6 -1.7,1.1c-0.8,0.4 -1.3,0.3 -1.5,0.8c-0.2,0.4 0,0.9 0,0.9c0.2,0.5 0.8,0.7 1.3,0.7c1.1,0.1 1.3,-0.3 1.6,-0.2z" id="svg_7"/>
   <path class="st1" d="m30.84088,383.7c0.4,0.1 0.6,0.8 0.4,1.2c-0.2,0.4 -0.8,0.5 -1.3,0.6c-1.8,0.2 -3.1,-0.9 -3.1,-0.9c-0.1,-0.1 -1.8,-1.5 -1.5,-2.9c0.2,-0.8 0.8,-0.8 1,-1.7c0.2,-0.8 -0.3,-1 -0.4,-2.1c-0.2,-1.5 0.7,-2 0.3,-2.8c-0.1,-0.2 -0.2,-0.3 -2.1,-1.4c-1.6,-0.9 -1.9,-1 -2.2,-1c-0.8,-0.1 -0.9,0.1 -2.1,0.1c-1.7,0 -2,-0.5 -2.8,-0.2c-0.9,0.4 -0.7,1.1 -1.6,1.5c-1,0.5 -1.5,-0.3 -3,-0.1c-1.3,0.2 -1.2,0.9 -3,1.4c-0.7,0.2 -2,0.6 -2.6,0c-0.4,-0.4 0,-0.8 -0.4,-1.8c-0.4,-1 -0.8,-1 -1,-1.7c-0.1,-0.8 0.3,-1.9 1.1,-2.3c0.9,-0.5 1.4,0.1 2.6,-0.4c1,-0.4 0.9,-0.9 2,-1.4c0.9,-0.4 1.2,-0.2 2.4,-0.5c1.9,-0.5 2,-1.3 3.4,-1.6c1.1,-0.2 1.1,0.3 3,0.5c2.6,0.3 3.2,-0.5 4.8,0.1c1.2,0.5 2.1,1.4 2.1,1.5c0.5,0.6 0.4,0.7 1.1,1.5c0.9,1 1.3,1.1 1.5,1.8c0.2,0.7 -0.2,1.2 0.1,1.4c0.4,0.2 1.1,-1 2.6,-1.6c1.3,-0.5 2.4,-0.3 3.5,-0.1c1,0.2 2.4,0.4 3.5,1.5c1.2,1.1 1.8,2.5 1.8,2.5c0.3,0.8 0.4,1.4 1,1.7c0.4,0.2 0.9,0.1 1.2,-0.1c0.2,-0.2 0.1,-0.4 0.1,-1c0,-0.2 0.1,-1.3 0.4,-1.4c0.4,-0.1 0.9,2.4 1.7,2.3c0.2,0 0.4,-0.2 0.7,-0.6c0.7,-0.8 0.8,-1.5 1,-1.5c0.2,0 0.4,0.6 0.5,1.1c0.1,0.6 -0.1,0.8 0,1c0.2,0.4 3.5,1.1 5,6.1c0.3,1.1 -1.2,1.4 -2.4,1.1c-0.8,-0.2 -3.1,-1.3 -3.5,-1.1c-0.2,0.1 -0.2,0.3 -0.5,0.8c-0.4,0.6 -0.6,0.5 -0.9,1c-0.3,0.5 -0.3,1 -0.3,1.7c0,0.6 0,1.1 0.3,1.7c0.4,0.7 1,0.8 1,1.1c-0.1,0.3 -0.7,0.4 -1.1,0.3c-0.9,-0.1 -1.4,-0.7 -1.5,-0.8c-0.8,-0.9 -0.7,-2.1 -0.7,-2.4c0.1,-1.1 0.6,-1.6 0.3,-2.1c-0.2,-0.3 -0.6,-0.5 -0.9,-0.5c-0.6,0 -0.6,0.7 -1.2,0.9c-0.5,0.1 -0.8,-0.3 -1.9,-1c-1,-0.6 -2.2,-1.2 -2.3,-1c-0.1,0.1 0.8,0.9 1.3,1.4c1.1,0.9 1.6,1.1 1.6,1.4c0,0.6 -1.1,0.7 -1.2,1.4c0,0.3 0.1,0.7 0.3,1c0,0 0.1,0.1 0.9,0.4l0,0c0,0 0.6,0.4 0.6,0.6c0,0 0,0.2 -0.8,0.3l0,0c0.2,0.7 0.1,0.8 0.1,0.8c-0.2,0.1 -0.9,-0.7 -2.2,-1.9c-1.5,-1.3 -1.9,-1.6 -2,-2.2c-0.1,-0.8 0.5,-1.2 0.3,-1.7c-0.2,-0.4 -0.7,-0.3 -2.1,-0.5c-1.6,-0.2 -2.4,-0.3 -2.7,-0.8c-0.4,-0.7 0.3,-1.8 0.1,-1.9c-0.2,-0.1 -0.6,0.6 -1.7,1.1c-0.8,0.4 -1.3,0.3 -1.5,0.8c-0.2,0.4 0,0.9 0,0.9c0.2,0.5 0.8,0.7 1.3,0.7c1.1,0.1 1.3,-0.3 1.6,-0.2z" id="svg_8"/>
  </g>
  <g id="Layer_6" stroke="null">
   <path class="st0" d="m18.3,313.6c-0.1,-0.1 0,-0.2 -0.6,0.1c-0.6,0.3 -1.2,0.2 -1.4,0.2c-1.1,-0.1 -1.3,-0.7 -1.9,-0.6c-0.8,0.3 -0.6,1.5 -1.4,1.9c-0.8,0.4 -1.5,-0.7 -2.9,-0.5c-0.4,0.1 -0.3,0.2 -1.3,0.5c-0.8,0.3 -0.9,0.3 -2.2,0.7c-1.5,0.5 -1.8,0.6 -2.3,0.5c-0.1,0 -0.8,-0.2 -1.1,-0.7c-0.4,-0.7 -0.1,-1.5 0,-1.9c0.4,-1 1.1,-1.6 1.4,-1.8c0.4,-0.2 0.4,-0.2 1.3,-0.6c1.6,-0.8 1.8,-1.1 2.5,-1.1c0.9,-0.1 0.9,0.4 1.6,0.3c1,-0.1 1.1,-0.8 2.7,-1.9c0.9,-0.5 0.9,-0.4 1.7,-0.9c1,-0.7 1,-1 1.8,-1.6c0.8,-0.6 0.9,-0.3 2.4,-1c1.9,-0.8 2,-1.4 3.1,-1.5c0.9,-0.1 1,0.3 1.9,0.1c0.9,-0.2 1.6,-0.7 2,-1c0.4,-0.3 0.6,-0.5 0.8,-0.7c0.9,-0.8 2,-0.8 3.8,-0.8c1.6,0 2.9,-0.1 4.5,0.5c1.6,0.5 1.8,1.1 3.5,1.6c1.7,0.5 2.5,0.8 2.8,0.4c0.3,-0.3 0,-0.7 0.4,-1.4c0.2,-0.5 0.6,-1 0.8,-1c0.3,0.1 -0.2,1.6 0.4,2.2c0.3,0.3 0.9,0.4 1.2,0.2c0.5,-0.3 0.3,-1 0.9,-1.4c0.2,-0.2 0.6,-0.3 0.8,-0.1c0.3,0.2 -0.1,0.9 0,1.7c0,0.7 0.4,0.9 1.2,2.2c0.8,1.4 1.5,2.4 1.1,3.2c-0.2,0.5 -0.8,0.7 -1,0.7c-1.1,0.3 -2,-0.3 -2.1,-0.1c-0.1,0.2 0.7,0.7 1.1,1.8c0.1,0.5 0,0.8 0.3,1.1c0.3,0.4 0.8,0.2 1.3,0.4c1.2,0.4 2,1.9 1.7,2.4c-0.2,0.4 -0.9,0.4 -1.4,0.3c-0.7,-0.2 -0.8,-0.7 -1.6,-1.1c-0.8,-0.4 -4.2,-3 -2.8,-1.4c0.1,0.1 2.2,1.6 2.3,2.3c0.1,0.4 -0.3,1 -0.8,1.1c-0.6,0.1 -0.9,-0.4 -1.8,-1c-1.4,-0.9 -1.9,-0.2 -3.2,-0.9c-1.1,-0.6 -1.2,-2.1 -1.5,-3.8c-0.2,-0.9 -1.7,-0.5 -2.2,-0.9c-0.9,-0.7 -1.6,-0.9 -2.2,-1c-0.2,0 -1.7,-0.1 -1.7,0.4c0,1 0.1,2 -0.6,2.3c-0.5,0.2 -0.9,0.1 -1.4,0c-2.2,-0.5 -4,-0.9 -4.8,-0.2c-1.1,0.9 -0.4,4.1 -0.4,4.1l0,0c0,0 1.2,0.6 1.1,1.1c0,0.3 -0.6,0.6 -1.1,0.5c-0.9,-0.2 -1.6,-1.5 -1.7,-1.9c-0.6,-2.4 0.4,-4.2 -0.2,-4.7c-0.5,-0.3 -1,0.4 -2.1,1.1c-0.6,0.3 -0.8,0.5 -1.1,0.9c-0.5,0.8 0,1.9 -0.3,2.3c-0.6,0.7 -0.6,1.5 0.1,2.1c0.4,0.3 -1,0.7 -1.4,-0.2c-0.3,-0.6 -0.6,-0.5 -0.6,-1c-0.2,-1.5 0.7,-2.4 0.6,-2.5z" id="svg_9" stroke="null"/>
   <path class="st1" d="m18.3,313.6c-0.1,-0.1 0,-0.2 -0.6,0.1c-0.6,0.3 -1.2,0.2 -1.4,0.2c-1.1,-0.1 -1.3,-0.7 -1.9,-0.6c-0.8,0.3 -0.6,1.5 -1.4,1.9c-0.8,0.4 -1.5,-0.7 -2.9,-0.5c-0.4,0.1 -0.3,0.2 -1.3,0.5c-0.8,0.3 -0.9,0.3 -2.2,0.7c-1.5,0.5 -1.8,0.6 -2.3,0.5c-0.1,0 -0.8,-0.2 -1.1,-0.7c-0.4,-0.7 -0.1,-1.5 0,-1.9c0.4,-1 1.1,-1.6 1.4,-1.8c0.4,-0.2 0.4,-0.2 1.3,-0.6c1.6,-0.8 1.8,-1.1 2.5,-1.1c0.9,-0.1 0.9,0.4 1.6,0.3c1,-0.1 1.1,-0.8 2.7,-1.9c0.9,-0.5 0.9,-0.4 1.7,-0.9c1,-0.7 1,-1 1.8,-1.6c0.8,-0.6 0.9,-0.3 2.4,-1c1.9,-0.8 2,-1.4 3.1,-1.5c0.9,-0.1 1,0.3 1.9,0.1c0.9,-0.2 1.6,-0.7 2,-1c0.4,-0.3 0.6,-0.5 0.8,-0.7c0.9,-0.8 2,-0.8 3.8,-0.8c1.6,0 2.9,-0.1 4.5,0.5c1.6,0.5 1.8,1.1 3.5,1.6c1.7,0.5 2.5,0.8 2.8,0.4c0.3,-0.3 0,-0.7 0.4,-1.4c0.2,-0.5 0.6,-1 0.8,-1c0.3,0.1 -0.2,1.6 0.4,2.2c0.3,0.3 0.9,0.4 1.2,0.2c0.5,-0.3 0.3,-1 0.9,-1.4c0.2,-0.2 0.6,-0.3 0.8,-0.1c0.3,0.2 -0.1,0.9 0,1.7c0,0.7 0.4,0.9 1.2,2.2c0.8,1.4 1.5,2.4 1.1,3.2c-0.2,0.5 -0.8,0.7 -1,0.7c-1.1,0.3 -2,-0.3 -2.1,-0.1c-0.1,0.2 0.7,0.7 1.1,1.8c0.1,0.5 0,0.8 0.3,1.1c0.3,0.4 0.8,0.2 1.3,0.4c1.2,0.4 2,1.9 1.7,2.4c-0.2,0.4 -0.9,0.4 -1.4,0.3c-0.7,-0.2 -0.8,-0.7 -1.6,-1.1c-0.8,-0.4 -4.2,-3 -2.8,-1.4c0.1,0.1 2.2,1.6 2.3,2.3c0.1,0.4 -0.3,1 -0.8,1.1c-0.6,0.1 -0.9,-0.4 -1.8,-1c-1.4,-0.9 -1.9,-0.2 -3.2,-0.9c-1.1,-0.6 -1.2,-2.1 -1.5,-3.8c-0.2,-0.9 -1.7,-0.5 -2.2,-0.9c-0.9,-0.7 -1.6,-0.9 -2.2,-1c-0.2,0 -1.7,-0.1 -1.7,0.4c0,1 0.1,2 -0.6,2.3c-0.5,0.2 -0.9,0.1 -1.4,0c-2.2,-0.5 -4,-0.9 -4.8,-0.2c-1.1,0.9 -0.4,4.1 -0.4,4.1l0,0c0,0 1.2,0.6 1.1,1.1c0,0.3 -0.6,0.6 -1.1,0.5c-0.9,-0.2 -1.6,-1.5 -1.7,-1.9c-0.6,-2.4 0.4,-4.2 -0.2,-4.7c-0.5,-0.3 -1,0.4 -2.1,1.1c-0.6,0.3 -0.8,0.5 -1.1,0.9c-0.5,0.8 0,1.9 -0.3,2.3c-0.6,0.7 -0.6,1.5 0.1,2.1c0.4,0.3 -1,0.7 -1.4,-0.2c-0.3,-0.6 -0.6,-0.5 -0.6,-1c-0.2,-1.5 0.7,-2.4 0.6,-2.5z" id="svg_10" stroke="null"/>
  </g>
  <g id="Layer_5">
   <path class="st0" d="m20.8,253.4c-0.1,0 0,-0.2 -0.6,0.1c-0.6,0.3 -1.2,0.3 -1.4,0.4c-1.1,0 -1.4,-0.6 -1.9,-0.3c-0.8,0.3 -0.4,1.5 -1.2,2c-0.8,0.5 -1.6,-0.6 -3,-0.1c-0.4,0.1 -0.3,0.2 -1.2,0.7c-0.8,0.4 -0.9,0.4 -2.1,0.9c-1.5,0.6 -1.7,0.8 -2.3,0.8c-0.1,0 -0.8,-0.1 -1.2,-0.6c-0.5,-0.6 -0.3,-1.4 -0.2,-1.9c0.2,-1 0.9,-1.7 1.2,-1.9c0.3,-0.3 0.4,-0.2 1.2,-0.8c1.5,-0.9 1.7,-1.3 2.3,-1.4c0.9,-0.2 0.9,0.3 1.7,0.1c1,-0.2 1,-1 2.5,-2.1c0.8,-0.6 0.9,-0.5 1.6,-1.1c0.9,-0.8 0.9,-1.2 1.6,-1.8c0.7,-0.6 0.9,-0.4 2.3,-1.2c1.8,-1 1.8,-1.6 2.9,-1.8c0.9,-0.2 1,0.2 1.9,-0.1c0.9,-0.3 1.6,-0.9 1.9,-1.2c0.4,-0.4 0.6,-0.6 0.8,-0.8c0.8,-0.9 1.9,-1 3.7,-1.2c1.6,-0.2 2.9,-0.4 4.5,0c1.6,0.4 1.9,0.9 3.7,1.2c1.7,0.3 2.5,0.5 2.8,0.1c0.2,-0.3 0,-0.7 0.2,-1.4c0.2,-0.5 0.5,-1.1 0.7,-1c0.3,0.1 -0.1,1.6 0.7,2.1c0.3,0.2 0.9,0.3 1.2,0.1c0.5,-0.3 0.2,-1.1 0.8,-1.5c0.2,-0.2 0.6,-0.3 0.8,-0.2c0.3,0.2 0,0.9 0.1,1.7c0.1,0.7 0.5,0.9 1.4,2.1c1,1.3 1.7,2.2 1.4,3c-0.2,0.5 -0.8,0.7 -1,0.8c-1,0.4 -2,-0.1 -2.1,0.1c-0.1,0.2 0.8,0.6 1.2,1.7c0.2,0.5 0.1,0.8 0.4,1c0.4,0.3 0.8,0.2 1.4,0.3c1.2,0.3 2.2,1.6 1.9,2.2c-0.2,0.4 -0.9,0.5 -1.4,0.4c-0.7,-0.1 -0.9,-0.6 -1.7,-0.9c-0.9,-0.3 -4.5,-2.5 -3,-1c0.1,0.1 2.4,1.3 2.5,2c0.1,0.4 -0.2,1 -0.7,1.2c-0.5,0.2 -1,-0.3 -1.9,-0.8c-1.5,-0.7 -1.9,0 -3.2,-0.6c-1.2,-0.5 -1.4,-1.9 -1.9,-3.6c-0.3,-0.9 -1.8,-0.3 -2.3,-0.6c-1,-0.6 -1.7,-0.8 -2.3,-0.8c-0.2,0 -1.7,0.1 -1.7,0.6c0.1,0.9 0.4,1.9 -0.3,2.3c-0.5,0.3 -0.9,0.2 -1.4,0.1c-2.3,-0.2 -4.1,-0.4 -4.8,0.3c-1,1 0.1,4.1 0.1,4.1l0,0c0,0 1.2,0.5 1.2,1c0,0.3 -0.5,0.7 -1,0.6c-0.9,-0.1 -1.7,-1.3 -1.9,-1.7c-0.8,-2.3 0,-4.2 -0.7,-4.6c-0.5,-0.3 -0.9,0.5 -1.9,1.3c-0.5,0.4 -0.8,0.6 -1,1c-0.4,0.8 0.2,1.9 -0.1,2.3c-0.5,0.8 -0.4,1.6 0.3,2.1c0.4,0.3 -1,0.8 -1.4,0c-0.3,-0.6 -0.6,-0.4 -0.8,-1c0,-1.5 0.9,-2.6 0.7,-2.7z" id="svg_11"/>
   <path class="st1" d="m20.8,253.4c-0.1,0 0,-0.2 -0.6,0.1c-0.6,0.3 -1.2,0.3 -1.4,0.4c-1.1,0 -1.4,-0.6 -1.9,-0.3c-0.8,0.3 -0.4,1.5 -1.2,2c-0.8,0.5 -1.6,-0.6 -3,-0.1c-0.4,0.1 -0.3,0.2 -1.2,0.7c-0.8,0.4 -0.9,0.4 -2.1,0.9c-1.5,0.6 -1.7,0.8 -2.3,0.8c-0.1,0 -0.8,-0.1 -1.2,-0.6c-0.5,-0.6 -0.3,-1.4 -0.2,-1.9c0.2,-1 0.9,-1.7 1.2,-1.9c0.3,-0.3 0.4,-0.2 1.2,-0.8c1.5,-0.9 1.7,-1.3 2.3,-1.4c0.9,-0.2 0.9,0.3 1.7,0.1c1,-0.2 1,-1 2.5,-2.1c0.8,-0.6 0.9,-0.5 1.6,-1.1c0.9,-0.8 0.9,-1.2 1.6,-1.8c0.7,-0.6 0.9,-0.4 2.3,-1.2c1.8,-1 1.8,-1.6 2.9,-1.8c0.9,-0.2 1,0.2 1.9,-0.1c0.9,-0.3 1.6,-0.9 1.9,-1.2c0.4,-0.4 0.6,-0.6 0.8,-0.8c0.8,-0.9 1.9,-1 3.7,-1.2c1.6,-0.2 2.9,-0.4 4.5,0c1.6,0.4 1.9,0.9 3.7,1.2c1.7,0.3 2.5,0.5 2.8,0.1c0.2,-0.3 0,-0.7 0.2,-1.4c0.2,-0.5 0.5,-1.1 0.7,-1c0.3,0.1 -0.1,1.6 0.7,2.1c0.3,0.2 0.9,0.3 1.2,0.1c0.5,-0.3 0.2,-1.1 0.8,-1.5c0.2,-0.2 0.6,-0.3 0.8,-0.2c0.3,0.2 0,0.9 0.1,1.7c0.1,0.7 0.5,0.9 1.4,2.1c1,1.3 1.7,2.2 1.4,3c-0.2,0.5 -0.8,0.7 -1,0.8c-1,0.4 -2,-0.1 -2.1,0.1c-0.1,0.2 0.8,0.6 1.2,1.7c0.2,0.5 0.1,0.8 0.4,1c0.4,0.3 0.8,0.2 1.4,0.3c1.2,0.3 2.2,1.6 1.9,2.2c-0.2,0.4 -0.9,0.5 -1.4,0.4c-0.7,-0.1 -0.9,-0.6 -1.7,-0.9c-0.9,-0.3 -4.5,-2.5 -3,-1c0.1,0.1 2.4,1.3 2.5,2c0.1,0.4 -0.2,1 -0.7,1.2c-0.5,0.2 -1,-0.3 -1.9,-0.8c-1.5,-0.7 -1.9,0 -3.2,-0.6c-1.2,-0.5 -1.4,-1.9 -1.9,-3.6c-0.3,-0.9 -1.8,-0.3 -2.3,-0.6c-1,-0.6 -1.7,-0.8 -2.3,-0.8c-0.2,0 -1.7,0.1 -1.7,0.6c0.1,0.9 0.4,1.9 -0.3,2.3c-0.5,0.3 -0.9,0.2 -1.4,0.1c-2.3,-0.2 -4.1,-0.4 -4.8,0.3c-1,1 0.1,4.1 0.1,4.1l0,0c0,0 1.2,0.5 1.2,1c0,0.3 -0.5,0.7 -1,0.6c-0.9,-0.1 -1.7,-1.3 -1.9,-1.7c-0.8,-2.3 0,-4.2 -0.7,-4.6c-0.5,-0.3 -0.9,0.5 -1.9,1.3c-0.5,0.4 -0.8,0.6 -1,1c-0.4,0.8 0.2,1.9 -0.1,2.3c-0.5,0.8 -0.4,1.6 0.3,2.1c0.4,0.3 -1,0.8 -1.4,0c-0.3,-0.6 -0.6,-0.4 -0.8,-1c0,-1.5 0.9,-2.6 0.7,-2.7z" id="svg_12"/>
  </g>
  <g id="Layer_4_1_">
   <path class="st0" d="m20,198.5c-0.1,0 -0.1,-0.2 -0.6,0.2c-0.5,0.4 -1.1,0.6 -1.3,0.6c-1.1,0.3 -1.5,-0.3 -2,0c-0.7,0.5 -0.1,1.6 -0.8,2.2c-0.7,0.6 -1.7,-0.3 -2.9,0.4c-0.4,0.2 -0.2,0.2 -1.1,0.9c-0.7,0.5 -0.8,0.5 -1.9,1.3c-1.3,0.9 -1.5,1.1 -2.1,1.2c-0.1,0 -0.8,0 -1.3,-0.4c-0.6,-0.5 -0.6,-1.4 -0.6,-1.8c0,-1.1 0.6,-1.8 0.9,-2.1c0.3,-0.3 0.3,-0.3 1.1,-1c1.3,-1.2 1.4,-1.5 2,-1.8c0.8,-0.3 0.9,0.1 1.7,-0.2c0.9,-0.4 0.8,-1.1 2,-2.6c0.7,-0.8 0.8,-0.6 1.4,-1.4c0.7,-0.9 0.6,-1.3 1.2,-2.1c0.6,-0.8 0.8,-0.6 2,-1.6c1.5,-1.4 1.5,-1.9 2.5,-2.3c0.9,-0.3 1.1,0 1.9,-0.4c0.8,-0.4 1.4,-1.2 1.6,-1.5c0.3,-0.4 0.4,-0.7 0.6,-1c0.6,-1 1.7,-1.3 3.4,-1.9c1.5,-0.5 2.8,-0.9 4.4,-0.8c1.6,0.1 2.1,-0.5 3.8,-0.5c1.7,0 2.6,-0.9 2.8,-1.4c0.2,-0.3 -0.2,-0.6 -0.1,-1.5c0.1,-0.5 0.3,-1.1 0.5,-1.1c0.3,0 0.3,1.6 1.1,2c0.4,0.2 0.9,0.1 1.2,-0.2c0.4,-0.4 0,-1.1 0.5,-1.6c0.2,-0.2 0.5,-0.5 0.8,-0.4c0.4,0.1 0.2,0.8 0.4,1.6c0.3,0.7 0.7,0.8 1.8,1.8c1.2,1 2.1,1.9 2,2.7c-0.1,0.5 -0.6,0.9 -0.8,1c-0.9,0.6 -2,0.3 -2.1,0.5c-0.1,0.3 0.9,0.4 1.5,1.4c0.3,0.5 1.3,0.7 1.6,0.9c0.4,0.3 -0.2,0 0.4,0c1.2,0 3.4,1.2 3.3,1.8c-0.1,0.4 -0.8,0.6 -1.3,0.7c-0.8,0 -0.9,-0.4 -1.9,-0.6c-0.9,-0.1 -5.9,-1.6 -4.1,-0.5c0.2,0.1 3.6,0.9 3.9,1.5c0.2,0.4 0,1 -0.5,1.3c-0.5,0.3 -2,-0.1 -3,-0.4c-1.6,-0.4 -1.8,0.4 -3.3,0.1c-1.2,-0.3 -1.7,-1.6 -2.6,-3.2c-0.5,-0.8 -1.8,1 -2.4,0.8c-1.1,-0.4 -1.8,0.6 -2.4,0.7c-0.2,0 -1.6,0.4 -1.5,0.9c0.3,0.9 0.7,1.8 0.1,2.4c-0.4,0.3 -0.9,0.4 -1.3,0.4c-2.3,0.2 -4.1,0.3 -4.6,1.2c-0.8,1.2 0.8,4 0.8,4l0,0c0,0 1.3,0.3 1.4,0.7c0.1,0.3 -0.4,0.8 -0.9,0.8c-0.9,0.1 -1.9,-1 -2.1,-1.3c-1.3,-2.1 -0.8,-4.2 -1.5,-4.4c-0.5,-0.2 -0.8,0.7 -1.7,1.6c-0.4,0.5 -0.7,0.7 -0.8,1.1c-0.3,0.9 0.6,1.8 0.4,2.3c-0.3,0.8 -0.1,1.6 0.7,2c0.5,0.2 -0.8,1 -1.4,0.3c-0.5,-0.5 -0.7,-0.3 -0.9,-0.8c-0.4,-1.2 0.2,-2.4 0.1,-2.5z" id="svg_13"/>
   <path class="st1" d="m20,198.5c-0.1,0 -0.1,-0.2 -0.6,0.2c-0.5,0.4 -1.1,0.6 -1.3,0.6c-1.1,0.3 -1.5,-0.3 -2,0c-0.7,0.5 -0.1,1.6 -0.8,2.2c-0.7,0.6 -1.7,-0.3 -2.9,0.4c-0.4,0.2 -0.2,0.2 -1.1,0.9c-0.7,0.5 -0.8,0.5 -1.9,1.3c-1.3,0.9 -1.5,1.1 -2.1,1.2c-0.1,0 -0.8,0 -1.3,-0.4c-0.6,-0.5 -0.6,-1.4 -0.6,-1.8c0,-1.1 0.6,-1.8 0.9,-2.1c0.3,-0.3 0.3,-0.3 1.1,-1c1.3,-1.2 1.4,-1.5 2,-1.8c0.8,-0.3 0.9,0.1 1.7,-0.2c0.9,-0.4 0.8,-1.1 2,-2.6c0.7,-0.8 0.8,-0.6 1.4,-1.4c0.7,-0.9 0.6,-1.3 1.2,-2.1c0.6,-0.8 0.8,-0.6 2,-1.6c1.5,-1.4 1.5,-1.9 2.5,-2.3c0.9,-0.3 1.1,0 1.9,-0.4c0.8,-0.4 1.4,-1.2 1.6,-1.5c0.3,-0.4 0.4,-0.7 0.6,-1c0.6,-1 1.7,-1.3 3.4,-1.9c1.5,-0.5 2.8,-0.9 4.4,-0.8c1.6,0.1 2.1,-0.5 3.8,-0.5c1.7,0 2.6,-0.9 2.8,-1.4c0.2,-0.3 -0.2,-0.6 -0.1,-1.5c0.1,-0.5 0.3,-1.1 0.5,-1.1c0.3,0 0.3,1.6 1.1,2c0.4,0.2 0.9,0.1 1.2,-0.2c0.4,-0.4 0,-1.1 0.5,-1.6c0.2,-0.2 0.5,-0.5 0.8,-0.4c0.4,0.1 0.2,0.8 0.4,1.6c0.3,0.7 0.7,0.8 1.8,1.8c1.2,1 2.1,1.9 2,2.7c-0.1,0.5 -0.6,0.9 -0.8,1c-0.9,0.6 -2,0.3 -2.1,0.5c-0.1,0.3 0.9,0.4 1.5,1.4c0.3,0.5 1.3,0.7 1.6,0.9c0.4,0.3 -0.2,0 0.4,0c1.2,0 3.4,1.2 3.3,1.8c-0.1,0.4 -0.8,0.6 -1.3,0.7c-0.8,0 -0.9,-0.4 -1.9,-0.6c-0.9,-0.1 -5.9,-1.6 -4.1,-0.5c0.2,0.1 3.6,0.9 3.9,1.5c0.2,0.4 0,1 -0.5,1.3c-0.5,0.3 -2,-0.1 -3,-0.4c-1.6,-0.4 -1.8,0.4 -3.3,0.1c-1.2,-0.3 -1.7,-1.6 -2.6,-3.2c-0.5,-0.8 -1.8,1 -2.4,0.8c-1.1,-0.4 -1.8,0.6 -2.4,0.7c-0.2,0 -1.6,0.4 -1.5,0.9c0.3,0.9 0.7,1.8 0.1,2.4c-0.4,0.3 -0.9,0.4 -1.3,0.4c-2.3,0.2 -4.1,0.3 -4.6,1.2c-0.8,1.2 0.8,4 0.8,4l0,0c0,0 1.3,0.3 1.4,0.7c0.1,0.3 -0.4,0.8 -0.9,0.8c-0.9,0.1 -1.9,-1 -2.1,-1.3c-1.3,-2.1 -0.8,-4.2 -1.5,-4.4c-0.5,-0.2 -0.8,0.7 -1.7,1.6c-0.4,0.5 -0.7,0.7 -0.8,1.1c-0.3,0.9 0.6,1.8 0.4,2.3c-0.3,0.8 -0.1,1.6 0.7,2c0.5,0.2 -0.8,1 -1.4,0.3c-0.5,-0.5 -0.7,-0.3 -0.9,-0.8c-0.4,-1.2 0.2,-2.4 0.1,-2.5z" id="svg_14"/>
  </g>
  <g id="Layer_3">
   <path class="st0" d="m7.1,144.975c-1.4,-0.4 -1.4,-0.4 -1.7,-0.8c-0.2,-0.3 0,-0.8 0.4,-1.8c0.2,-0.4 0.4,-0.9 0.8,-1.4c0.2,-0.2 0.3,-0.2 0.8,-0.7c1,-0.8 1,-1 1.4,-1.2c0.6,-0.3 0.7,0 1.7,-0.2c1,-0.2 1,-0.5 1.8,-0.6c0.7,-0.1 0.9,0.1 1.9,0.2c1,0 0.9,-0.2 1.9,-0.2c1.5,0 1.8,0.5 2.9,0.2c0.6,-0.1 0.5,-0.3 1.3,-0.5c0.6,-0.2 1,-0.2 2.3,-0.2c2.1,0 2.7,-0.1 2.8,0.1c0,0.1 -0.6,0.4 -0.7,0.3c0,-0.1 1,-0.9 2.3,-1.3c0.8,-0.3 0.9,-0.2 1.5,-0.4c0.9,-0.4 1.4,-1 2,-1.6c0.9,-0.9 1.8,-1.7 2.7,-2.6c1.7,-1.7 2.5,-2.5 3.2,-3.1c1.8,-1.4 2.7,-2.1 3.4,-2.5c0.6,-0.3 1.2,-0.5 1.3,-1c0.2,-0.7 -0.7,-1.3 -0.4,-2.2c0.1,-0.3 0.3,-0.7 0.5,-0.7c0.3,0 0.3,0.8 1.1,1.7c0.2,0.3 0.6,0.7 1,0.6c0.4,-0.1 0.8,-0.7 1.3,-0.9c0.3,-0.1 0.2,-0.1 0.4,0c0.5,0.3 0,0.6 0.4,1.3c0.4,0.7 1.1,1.7 2,2.5c0.8,0.7 1,1.7 1,1.9c0,0.3 0.2,0.4 -0.5,1.1c-0.9,0.8 -2.7,-0.4 -2.9,0.1c-0.1,0.2 0.3,0.6 1,1.6c0.2,0.3 0.7,1.2 1.1,2.5c0.5,1.7 0.4,2.1 0.3,2.3c-0.2,0.4 -0.7,0.7 -1,0.5c-0.3,-0.1 -0.2,-0.5 -0.4,-1.1c-0.2,-1 -0.8,-1.7 -1.6,-2.6c-0.7,-0.8 -1,-1.2 -1.5,-1.2c-0.7,0 -1.4,0.6 -1.4,1.1c0,0.4 0.6,0.4 1,1c0.8,1 0.3,2.3 0.3,2.4c-0.1,0.3 -0.4,1.1 -1,1.3c-0.5,0.1 -1.1,-0.1 -1.1,-0.4c-0.1,-0.4 0.7,-0.6 0.8,-1.3c0.1,-0.6 -0.3,-1.4 -0.8,-1.7c-0.3,-0.1 -0.8,-0.3 -2,0.3c-1,0.5 -2,1.1 -4.2,3.4c-0.7,0.7 -1.1,1.1 -1.7,1.8c-1.8,2 -1.8,2.3 -2.6,2.9c-1.4,0.9 -2,0.5 -2.8,1.4c-0.1,0.1 -1.3,1.5 -0.7,2.7c0.3,0.7 1.5,0.5 1.6,1c0,0.3 -0.2,0.6 -0.4,0.7c-0.2,0.1 -0.4,0 -0.5,-0.1c-0.1,-0.1 -0.1,-0.1 -0.2,-0.2c-0.3,-0.1 -0.6,0.3 -1,0.4c-0.6,0.1 -1.3,-0.9 -1.6,-1.9c-0.3,-1.1 0.2,-1.5 -0.1,-2.5c-0.1,-0.4 -0.4,-1.5 -1.3,-2c-0.6,-0.3 -1.2,-0.2 -1.7,-0.2c-1,0.1 -1.1,0.5 -1.9,0.4c-0.6,-0.1 -0.8,-0.3 -1.3,-0.3c-0.7,0 -0.7,0.7 -1.4,0.9c-0.7,0.2 -0.9,-0.2 -2,-0.1c-0.7,0.1 -0.7,0.3 -1.4,0.4c-0.9,0.1 -1.1,-0.3 -1.9,-0.2c-0.9,0.1 -0.8,0.6 -1.7,0.7c-0.6,0 -1.3,-0.1 -1.5,-0.2c-0.2,-0.2 -1.1,0.3 -1.3,0.2z" id="svg_15"/>
   <path class="st1" d="m7.1,144.975c-1.4,-0.4 -1.4,-0.4 -1.7,-0.8c-0.2,-0.3 0,-0.8 0.4,-1.8c0.2,-0.4 0.4,-0.9 0.8,-1.4c0.2,-0.2 0.3,-0.2 0.8,-0.7c1,-0.8 1,-1 1.4,-1.2c0.6,-0.3 0.7,0 1.7,-0.2c1,-0.2 1,-0.5 1.8,-0.6c0.7,-0.1 0.9,0.1 1.9,0.2c1,0 0.9,-0.2 1.9,-0.2c1.5,0 1.8,0.5 2.9,0.2c0.6,-0.1 0.5,-0.3 1.3,-0.5c0.6,-0.2 1,-0.2 2.3,-0.2c2.1,0 2.7,-0.1 2.8,0.1c0,0.1 -0.6,0.4 -0.7,0.3c0,-0.1 1,-0.9 2.3,-1.3c0.8,-0.3 0.9,-0.2 1.5,-0.4c0.9,-0.4 1.4,-1 2,-1.6c0.9,-0.9 1.8,-1.7 2.7,-2.6c1.7,-1.7 2.5,-2.5 3.2,-3.1c1.8,-1.4 2.7,-2.1 3.4,-2.5c0.6,-0.3 1.2,-0.5 1.3,-1c0.2,-0.7 -0.7,-1.3 -0.4,-2.2c0.1,-0.3 0.3,-0.7 0.5,-0.7c0.3,0 0.3,0.8 1.1,1.7c0.2,0.3 0.6,0.7 1,0.6c0.4,-0.1 0.3,-0.7 0.8,-1c0.3,-0.1 0.7,-0.1 0.9,0.1c0.5,0.3 0,1.1 0.4,1.8c0.4,0.7 1.1,1.2 2,2c0.8,0.7 1,1.7 1,1.9c0,0.3 0.2,0.4 -0.5,1.1c-0.9,0.8 -2.7,-0.4 -2.9,0.1c-0.1,0.2 0.3,0.6 1,1.6c0.2,0.3 0.7,1.2 1.1,2.5c0.5,1.7 0.4,2.1 0.3,2.3c-0.2,0.4 -0.7,0.7 -1,0.5c-0.3,-0.1 -0.2,-0.5 -0.4,-1.1c-0.2,-1 -0.8,-1.7 -1.6,-2.6c-0.7,-0.8 -1,-1.2 -1.5,-1.2c-0.7,0 -1.4,0.6 -1.4,1.1c0,0.4 0.6,0.4 1,1c0.8,1 0.3,2.3 0.3,2.4c-0.1,0.3 -0.4,1.1 -1,1.3c-0.5,0.1 -1.1,-0.1 -1.1,-0.4c-0.1,-0.4 0.7,-0.6 0.8,-1.3c0.1,-0.6 -0.3,-1.4 -0.8,-1.7c-0.3,-0.1 -0.8,-0.3 -2,0.3c-1,0.5 -2,1.1 -4.2,3.4c-0.7,0.7 -1.1,1.1 -1.7,1.8c-1.8,2 -1.8,2.3 -2.6,2.9c-1.4,0.9 -2,0.5 -2.8,1.4c-0.1,0.1 -1.3,1.5 -0.7,2.7c0.3,0.7 1.5,0.5 1.6,1c0,0.3 -0.2,0.6 -0.4,0.7c-0.2,0.1 -0.4,0 -0.5,-0.1c-0.1,-0.1 -0.1,-0.1 -0.2,-0.2c-0.3,-0.1 -0.6,0.3 -1,0.4c-0.6,0.1 -1.3,-0.9 -1.6,-1.9c-0.3,-1.1 0.2,-1.5 -0.1,-2.5c-0.1,-0.4 -0.4,-1.5 -1.3,-2c-0.6,-0.3 -1.2,-0.2 -1.7,-0.2c-1,0.1 -1.1,0.5 -1.9,0.4c-0.6,-0.1 -0.8,-0.3 -1.3,-0.3c-0.7,0 -0.7,0.7 -1.4,0.9c-0.7,0.2 -0.9,-0.2 -2,-0.1c-0.7,0.1 -0.7,0.3 -1.4,0.4c-0.9,0.1 -1.1,-0.3 -1.9,-0.2c-0.9,0.1 -0.8,0.6 -1.7,0.7c-0.6,0 -1.3,-0.1 -1.5,-0.2c-0.2,-0.2 -1.1,0.3 -1.3,0.2z" id="svg_16"/>
  </g>
  <g id="Layer_2">
   <path class="st0" d="m25.4,78.175c0.8,0.4 2.1,-2.3 4.7,-3.8c0.7,-0.4 2.2,-1.3 4.2,-1.3c0.7,0 0.9,0.1 4.1,0.6c1.1,0.1 2.2,0.3 2.5,-0.3c0.1,-0.2 0,-0.3 0.1,-0.7c0.1,-0.9 0.4,-1.8 0.7,-1.8c0.3,0 0.4,1.4 0.9,1.5c0.5,0 0.8,-1.3 1.3,-1.2c0.2,0 0.2,0.2 0.6,0.9c0.2,0.4 0.4,0.8 0.6,1.2c0.7,1.7 3.4,2.9 3.3,4.3c-0.1,0.8 -1.2,1.2 -1.3,1.3c-1.2,0.5 -2.1,-0.6 -3.1,-0.2c-0.9,0.4 -1.3,1.9 -1.3,2.9c0,0.6 0.2,0.7 1.1,3.1c0.1,0.4 0.9,0.2 1,0.4c0.1,0.2 0.6,0.6 0.6,0.7c0,0.2 -1.6,0.2 -1.8,0.3c-0.2,0 -0.4,0 -0.4,0c0,0 0,0 0,0c-0.2,-0.1 -0.3,-0.2 -0.3,-0.2c0,0 0.2,0 0.3,0.2c0.1,0.2 0.9,1.2 0.7,1.3c-0.4,0.2 -2.6,-1.8 -3.3,-3.4c-0.6,-1.3 -0.5,-2.2 -0.9,-2.3c-0.4,-0.1 -0.7,0.8 -1.6,1.3c-0.9,0.4 -1.6,-0.4 -2.1,0c-0.3,0.3 -0.1,0.6 -0.4,1.3c-0.5,1.1 -1.8,1.6 -2.3,1.8c-0.8,0.3 -1,0.1 -1.5,0.5c-0.2,0.1 -0.7,0.5 -1.1,1.2c-0.3,0.7 -0.1,0.9 -0.4,1.2c-0.3,-0.1 0.7,0.9 0.4,0.9c-0.4,0 1.9,1.3 -1.6,0.7c-0.2,0 -0.8,-2.2 -0.9,-2.4c-0.1,-0.3 0.2,-0.8 0.9,-1.8c0.6,-0.9 0.8,-1.1 0.8,-1.4c0,-0.8 -1.1,-1.6 -1.9,-1.4c-0.7,0.3 -0.8,1.5 -0.8,1.6c-0.1,1.1 0.5,1.6 0.2,2.1c-0.1,0.1 2.1,1.9 1.9,2c-0.2,0.1 -0.2,0.6 -1.6,0.1c-0.1,0 -1.7,-1.4 -1.8,-1.4c-0.5,-0.3 -0.4,-1.3 -0.4,-1.9c-0.1,-1.2 0.4,-1.4 0.3,-2.1c-0.2,-0.9 -1.1,-0.8 -1.8,-2.1c-0.3,-0.6 -0.1,-0.8 -0.4,-1.1c-0.6,-0.9 -2,-0.8 -5.1,-0.8c-4.7,0.1 -4.7,-0.1 -5.4,0.2c-1.2,0.5 -2.1,1.3 -3.6,1.3c-0.3,0 -0.8,0 -1.7,0.1c-1,0.1 -1,0.2 -1.4,0.1c-0.8,-0.1 -1.5,-0.4 -2.1,-0.7c-0.6,-0.3 -1,-0.6 -1.3,-0.8c-0.9,-0.7 -1.3,-1 -1.5,-1.6c-0.3,-0.7 0,-1.4 0.1,-1.6c0.4,-1 1.3,-1.4 1.6,-1.5c0.9,-0.4 1.2,0 2,-0.5c0.7,-0.4 0.7,-0.8 1.2,-0.8c0.6,0 0.8,0.7 1.4,0.7c0.6,0 0.7,-0.7 1.5,-0.8c0.3,-0.1 0.8,0.1 1.6,0.4c1.1,0.4 1.1,0.5 1.6,0.5c0.7,0 0.8,-0.5 1.4,-0.4c0.5,0.1 0.5,0.5 1.3,0.8c0.6,0.2 0.8,-0.1 1.6,0.1c0.4,0.1 0.3,0.1 1.5,0.6c1,0.4 1.2,0.4 1.4,0.4c0.7,0 0.8,-0.4 1.3,-0.4c1,0 1.1,1.3 2.3,1.4c0.6,0.1 0.9,-0.3 1.4,-0.1c0.4,0.3 0.4,0.7 0.7,0.8z" id="svg_17"/>
   <path class="st1" d="m25.4,78.175c0.8,0.4 2.1,-2.3 4.7,-3.8c0.7,-0.4 2.2,-1.3 4.2,-1.3c0.7,0 0.9,0.1 4.1,0.6c1.1,0.1 2.2,0.3 2.5,-0.3c0.1,-0.2 0,-0.3 0.1,-0.7c0.1,-0.9 0.4,-1.8 0.7,-1.8c0.3,0 0.4,1.4 0.9,1.5c0.5,0 0.8,-1.3 1.3,-1.2c0.2,0 0.2,0.2 0.6,0.9c0.2,0.4 0.4,0.8 0.6,1.2c0.7,1.7 3.4,2.9 3.3,4.3c-0.1,0.8 -1.2,1.2 -1.3,1.3c-1.2,0.5 -2.1,-0.6 -3.1,-0.2c-0.9,0.4 -1.3,1.9 -1.3,2.9c0,0.6 0.2,0.7 1.1,3.1c0.1,0.4 0.9,0.2 1,0.4c0.1,0.2 0.6,0.6 0.6,0.7c0,0.2 -1.6,0.2 -1.8,0.3c-0.2,0 -0.4,0 -0.4,0c0,0 0,0 0,0c-0.2,-0.1 -0.3,-0.2 -0.3,-0.2c0,0 0.2,0 0.3,0.2c0.1,0.2 0.9,1.2 0.7,1.3c-0.4,0.2 -2.6,-1.8 -3.3,-3.4c-0.6,-1.3 -0.5,-2.2 -0.9,-2.3c-0.4,-0.1 -0.7,0.8 -1.6,1.3c-0.9,0.4 -1.6,-0.4 -2.1,0c-0.3,0.3 -0.1,0.6 -0.4,1.3c-0.5,1.1 -1.8,1.6 -2.3,1.8c-0.8,0.3 -1,0.1 -1.5,0.5c-0.2,0.1 -0.7,0.5 -1.1,1.2c-0.3,0.7 -0.1,0.9 -0.4,1.2c-0.3,-0.1 0.7,0.9 0.4,0.9c-0.4,0 1.9,1.3 -1.6,0.7c-0.2,0 -0.8,-2.2 -0.9,-2.4c-0.1,-0.3 0.2,-0.8 0.9,-1.8c0.6,-0.9 0.8,-1.1 0.8,-1.4c0,-0.8 -1.1,-1.6 -1.9,-1.4c-0.7,0.3 -0.8,1.5 -0.8,1.6c-0.1,1.1 0.5,1.6 0.2,2.1c-0.1,0.1 2.1,1.9 1.9,2c-0.2,0.1 -0.2,0.6 -1.6,0.1c-0.1,0 -1.7,-1.4 -1.8,-1.4c-0.5,-0.3 -0.4,-1.3 -0.4,-1.9c-0.1,-1.2 0.4,-1.4 0.3,-2.1c-0.2,-0.9 -1.1,-0.8 -1.8,-2.1c-0.3,-0.6 -0.1,-0.8 -0.4,-1.1c-0.6,-0.9 -2,-0.8 -5.1,-0.8c-4.7,0.1 -4.7,-0.1 -5.4,0.2c-1.2,0.5 -2.1,1.3 -3.6,1.3c-0.3,0 -0.8,0 -1.7,0.1c-1,0.1 -1,0.2 -1.4,0.1c-0.8,-0.1 -1.5,-0.4 -2.1,-0.7c-0.6,-0.3 -1,-0.6 -1.3,-0.8c-0.9,-0.7 -1.3,-1 -1.5,-1.6c-0.3,-0.7 0,-1.4 0.1,-1.6c0.4,-1 1.3,-1.4 1.6,-1.5c0.9,-0.4 1.2,0 2,-0.5c0.7,-0.4 0.7,-0.8 1.2,-0.8c0.6,0 0.8,0.7 1.4,0.7c0.6,0 0.7,-0.7 1.5,-0.8c0.3,-0.1 0.8,0.1 1.6,0.4c1.1,0.4 1.1,0.5 1.6,0.5c0.7,0 0.8,-0.5 1.4,-0.4c0.5,0.1 0.5,0.5 1.3,0.8c0.6,0.2 0.8,-0.1 1.6,0.1c0.4,0.1 0.3,0.1 1.5,0.6c1,0.4 1.2,0.4 1.4,0.4c0.7,0 0.8,-0.4 1.3,-0.4c1,0 1.1,1.3 2.3,1.4c0.6,0.1 0.9,-0.3 1.4,-0.1c0.4,0.3 0.4,0.7 0.7,0.8z" id="svg_18"/>
  </g>
  <g id="Layer_1">
   <path class="st0" d="m12.7,49.375c0,0 -0.4,-0.8 -0.8,-1.3c-0.4,-0.5 -0.3,-0.9 -0.9,-1.2c-0.6,-0.3 -0.3,-0.2 -0.9,-1.2s-0.1,-0.6 -0.6,-1.5c-0.5,-1 -0.5,-0.9 -0.5,-2.2c0.1,-1.3 0.1,-1.2 0.5,-2.5s0.1,-0.7 0.2,-2.3c0,-1.6 0.7,-2.3 1.3,-3.1c0.6,-0.8 0.5,-1.7 1.4,-2.4c0.9,-0.7 0.9,-0.8 1.8,-1.2c0.9,-0.4 2.2,-0.7 2.3,-0.8c0.2,-0.2 0.6,-0.3 1.2,-0.1c0.9,0.3 2.8,1 3.2,0.4s0.7,-1.5 1,-1.7c0.3,-0.1 0.4,-1 0.9,-2c0.4,-1 2.6,-3.9 4.2,-4.4c1.6,-0.6 1.5,-0.9 2.6,-0.7c1.2,0.2 2.1,0.3 3.1,0.8c1,0.6 0.6,0.7 1.6,0.8c1.1,0.1 1.5,-0.1 2.3,-0.4c0.8,-0.3 0.9,-0.1 1.2,-0.3c0.3,-0.2 0.7,-0.3 0.7,-0.5c0,-0.2 0.2,-0.1 0.4,-0.4c0.2,-0.3 0.2,-0.5 0.5,-0.7c0.3,-0.3 0.2,0 0.8,0.1c0.6,0.2 0.3,0.3 0.5,0.7c0.3,0.4 0,0.7 0.1,0.9c0.1,0.2 0.4,0.4 0.4,0.4s0.2,0.5 0.5,0.7c0.3,0.2 0.5,0.4 0.7,0.8s0.5,0.7 0.7,1.2s0.4,0.7 0.7,1.3c0.3,0.6 0.5,0.4 0.5,1c0.1,0.6 -0.1,0.8 -0.7,1.1c-0.5,0.3 -0.7,0.2 -1.2,0.5c-0.5,0.2 -0.3,-0.2 -0.8,-0.3c-0.6,-0.1 -1.2,0.1 -1.6,0s-0.5,-0.6 -0.9,-0.5c-0.5,0 -0.9,0 -1.5,0.4c-0.2,0 -1,0.4 -1.2,1.1s-0.5,1.5 -0.2,1.8c0.3,0.3 0.1,0.4 0.2,0.8s0.2,0.9 1,1.1c0.8,0.2 1.4,0.4 1.3,0.5c-0.1,0.1 0.2,0.5 0,0.5s0.5,0.5 0.3,0.5s0.2,0.4 -0.3,0.4c-0.6,0 -0.5,0.4 -0.8,0.2c-0.3,-0.2 -0.5,0.2 -0.9,-0.1c-0.4,-0.3 -0.5,-1 -1,-1.1s-0.3,-0.2 -1,-0.7c-0.6,-0.5 -1.4,-0.9 -2,-1.9s-0.6,-1.6 -1.5,-1.5s-1.4,-0.4 -1.8,0.2c-0.5,0.6 -0.9,0.6 -1.2,0.7c-0.2,0.1 0,0.5 -0.2,0.7c-0.2,0.2 -1.5,0.5 -1.3,0.8c0.3,0.3 1,0.4 1.6,0.3c0.6,-0.1 1.7,-0.2 1.9,-0.1s0,0.3 0.1,0.6c0.1,0.3 0.2,0 0.8,0.2c0.6,0.2 1,0.4 0.6,0.7c-0.5,0.3 -0.5,0.6 -1.4,0.5s-1.3,-0.5 -2,-0.5c-0.6,0.1 -1,-0.2 -1.4,-0.3c-0.4,-0.1 -1.1,0.2 -1.6,-0.2s-1.4,-0.3 -1.4,-0.7s0.2,-0.8 -0.4,-0.6c-0.6,0.2 -1.1,-0.2 -1.7,0.1c-0.7,0.2 -0.7,0 -1.6,0c-0.9,0 -1.9,-0.8 -2.3,-0.2c-0.4,0.6 -0.5,1 -1.2,1.5c-0.7,0.4 -0.8,2.2 -0.8,2.2s-0.4,1.3 -0.5,1.7c0,0.4 0.2,0.6 0.4,1s0.4,0.8 0.5,1.2s0.6,0.7 0.8,1c0.3,0.3 0.8,0.9 0.5,1.5c-0.3,0.5 -0.2,1.1 0.1,1.4c0.3,0.3 0.4,0.7 0.3,1.2c-0.1,0.5 -0.7,0.8 -0.6,1.3c0,0.5 0.1,0.9 -0.1,1.2c-0.2,0.3 -0.2,1.1 -0.3,1.3c-0.1,0.2 0,0.5 -0.5,0.6c-0.5,0.1 -0.8,0.2 -0.8,0.5c0,0.3 -0.4,0.4 -0.9,0.1c-0.5,-0.2 -0.6,-0.1 -1.1,0.1c-0.5,0 -1.3,-1 -1.3,-1z" id="svg_19"/>
   <path class="st1" d="m44.7,27.275c0.1,0.6 -0.1,0.8 -0.7,1.1c-0.5,0.3 -0.7,0.2 -1.2,0.5c-0.5,0.2 -0.3,-0.2 -0.8,-0.3c-0.6,-0.1 -1.2,0.1 -1.6,0s-0.5,-0.6 -0.9,-0.5c-0.5,0 -0.9,0 -1.5,0.4c-0.6,0.3 -1.4,0.7 -1.6,1.4c-0.2,0.7 -0.5,1.5 -0.2,1.8c0.3,0.3 0.1,0.4 0.2,0.8c0.1,0.4 0.2,0.9 1,1.1c0.8,0.2 1.4,0.4 1.3,0.5s0.2,0.5 0,0.5s0.5,0.5 0.3,0.5s0.2,0.4 -0.3,0.4c-0.6,0 -0.5,0.4 -0.8,0.2c-0.3,-0.2 -0.5,0.2 -0.9,-0.1c-0.4,-0.3 -0.5,-1 -1,-1.1s-0.3,-0.2 -1,-0.7c-0.6,-0.5 -1.4,-0.9 -2,-1.9s-0.6,-1.6 -1.5,-1.5s-1.4,-0.4 -1.8,0.2c-0.5,0.6 -0.9,0.6 -1.2,0.7c-0.2,0.1 0,0.5 -0.2,0.7c-0.2,0.2 -1.5,0.5 -1.3,0.8c0.3,0.3 1,0.4 1.6,0.3s1.7,-0.2 1.9,-0.1c0.2,0.1 0,0.3 0.1,0.6c0.1,0.3 0.2,0 0.8,0.2c0.6,0.2 1,0.4 0.6,0.7c-0.5,0.3 -0.5,0.6 -1.4,0.5s-1.3,-0.5 -2,-0.5c-0.6,0.1 -1,-0.2 -1.4,-0.3s-1.1,0.2 -1.6,-0.2s-1.4,-0.3 -1.4,-0.7s0.2,-0.8 -0.4,-0.6c-0.6,0.2 -1.1,-0.2 -1.7,0.1c-0.7,0.2 -0.7,0 -1.6,0c-0.9,0 -1.9,-0.8 -2.3,-0.2c-0.4,0.6 -0.5,1 -1.2,1.5c-0.7,0.4 -0.8,2.2 -0.8,2.2s-0.4,1.3 -0.5,1.7c0,0.4 0.2,0.6 0.4,1c0.2,0.4 0.4,0.8 0.5,1.2s0.6,0.7 0.8,1c0.3,0.3 0.8,0.9 0.5,1.5c-0.3,0.5 -0.2,1.1 0.1,1.4s0.4,0.7 0.3,1.2c-0.1,0.5 -0.7,0.8 -0.6,1.3c0,0.5 0.1,0.9 -0.1,1.2c-0.2,0.3 -0.2,1.1 -0.3,1.3s0,0.5 -0.5,0.6c-0.5,0.1 -0.8,0.2 -0.8,0.5s-0.4,0.4 -0.9,0.1c-0.5,-0.2 -0.6,-0.1 -1.1,0.1c-0.5,0.1 -1.4,-0.9 -1.4,-0.9s-0.4,-0.8 -0.8,-1.3c-0.4,-0.5 -0.3,-0.9 -0.9,-1.2c-0.6,-0.3 -0.3,-0.2 -0.9,-1.2s-0.1,-0.6 -0.6,-1.5c-0.5,-1 -0.5,-0.9 -0.5,-2.2c0.1,-1.3 0.1,-1.2 0.5,-2.5s0.1,-0.7 0.2,-2.3c0,-1.6 0.7,-2.3 1.3,-3.1c0.6,-0.8 0.5,-1.7 1.4,-2.4c0.9,-0.7 0.9,-0.8 1.8,-1.2c0.9,-0.4 2.2,-0.7 2.3,-0.8c0.2,-0.2 0.6,-0.3 1.2,-0.1c0.9,0.3 2.8,1 3.2,0.4s0.7,-1.5 1,-1.7c0.3,-0.1 0.4,-1 0.9,-2c0.4,-1 2.6,-3.9 4.2,-4.4c1.6,-0.6 1.5,-0.9 2.6,-0.7c1.2,0.2 2.1,0.3 3.1,0.8c1,0.6 0.6,0.7 1.6,0.8c1.1,0.1 1.5,-0.1 2.3,-0.4c0.8,-0.3 0.9,-0.1 1.2,-0.3c0.3,-0.2 0.7,-0.3 0.7,-0.5s0.2,-0.1 0.4,-0.4c0.2,-0.3 0.2,-0.5 0.5,-0.7c0.3,-0.3 0.2,0 0.8,0.1c0.6,0.2 0.3,0.3 0.5,0.7c0.3,0.4 0,0.7 0.1,0.9c0.1,0.2 0.4,0.4 0.4,0.4s0.2,0.5 0.5,0.7s0.5,0.4 0.7,0.8c0.2,0.4 0.5,0.7 0.7,1.2s0.4,0.7 0.7,1.3c0.7,0.2 0.9,0.1 1,0.6z" id="svg_20"/>
  </g>
  <g id="Layer_11" class="st2">
   <rect class="st3" width="125" height="50" id="svg_21"/>
  </g>
 </g>
</svg>